%
M48
M72
T01C0.0200
T02C0.0276
T03C0.0315
T04C0.0320
T05C0.0354
T06C0.0400
T07C0.1300
%
T01
X3799Y6175
X4199Y7135
X11159Y7055
X12119Y7055
X13159Y7535
X15639Y7455
X14279Y13135
X3559Y22735
T02
X7159Y19155
X8159Y19155
X10659Y19655
X11659Y19655
X12659Y18655
X12659Y17655
X13159Y14155
X13159Y13155
X7659Y13155
X7659Y14155
X6159Y15155
X5159Y15155
X6659Y9155
X6659Y8155
X14159Y5155
X15159Y5155
X22159Y4155
X23159Y4155
X23159Y6155
X23159Y8155
X23159Y10155
X22159Y10155
X21159Y22655
X21159Y23655
X19659Y23155
X18659Y23155
T03
X2159Y13155
X2159Y12155
X2159Y11155
X2159Y10155
X2159Y9155
X2159Y8155
X2159Y7155
T04
X8159Y6155
X9159Y6155
X10159Y6155
X11159Y6155
X12159Y6155
X13159Y6155
X14159Y6155
X15159Y6155
X16159Y6155
X17159Y6155
X18159Y6155
X19159Y6155
X20159Y6155
X21159Y6155
X21159Y9155
X20159Y9155
X19159Y9155
X18159Y9155
X17159Y9155
X16159Y9155
X15159Y9155
X14159Y9155
X13159Y9155
X12159Y9155
X11159Y9155
X10159Y9155
X9159Y9155
X8159Y9155
X8659Y11155
X9659Y11155
X10659Y11155
X11659Y11155
X14159Y11155
X15159Y11155
X16159Y11155
X17159Y11155
X18159Y11155
X19159Y11155
X20159Y11155
X21159Y11155
X22159Y11155
X23159Y11155
X23159Y14155
X22159Y14155
X21159Y14155
X20159Y14155
X19159Y14155
X18159Y14155
X17159Y14155
X16159Y14155
X15159Y14155
X14159Y14155
X11659Y14155
X10659Y14155
X9659Y14155
X8659Y14155
X4659Y18655
X4659Y19655
X16659Y22305
X16659Y23155
X16659Y24005
T05
X11659Y17155
X7659Y17155
X6159Y17155
X7159Y20655
X4159Y20655
X2159Y17155
X6159Y4655
X9159Y4655
T06
X8659Y3155
X7659Y3155
X6659Y3155
X5659Y3155
X4659Y3155
X4939Y4265
X4939Y6045
X2379Y6045
X2379Y4265
X9659Y3155
X11159Y2705
X11159Y1705
X12159Y1605
X12159Y2605
X12159Y3605
X13159Y3705
X13159Y2705
X13159Y1705
X14159Y1605
X14159Y2605
X14159Y3605
X15159Y3705
X15159Y2705
X15159Y1705
X16159Y1605
X16159Y2605
X16159Y3605
X17159Y3705
X17159Y2705
X17159Y1705
X18159Y1605
X18159Y2605
X18159Y3605
X19159Y3705
X19159Y2705
X19159Y1705
X20609Y1655
X20709Y2655
X20609Y3655
X11159Y3705
X2659Y14655
X2659Y15755
X2159Y19155
X2159Y20155
X4609Y23155
X5709Y23155
X7109Y23155
X8209Y23155
X10659Y22155
X11659Y22155
X12659Y22155
X15759Y21155
X15659Y20155
X15759Y19155
X15659Y18155
X15759Y17155
X15659Y16155
X18159Y16155
X18259Y17155
X18159Y18155
X18259Y19155
X18159Y20155
X18259Y21155
X20759Y21155
X20659Y20155
X20759Y19155
X20659Y18155
X20759Y17155
X20659Y16155
X23159Y16155
X23259Y17155
X23159Y18155
X23259Y19155
X23159Y20155
X23259Y21155
T07
X2659Y2155
X22659Y2155
X22659Y23155
X2659Y23155
M30
