G75*
G70*
%OFA0B0*%
%FSLAX24Y24*%
%IPPOS*%
%LPD*%
%AMOC8*
5,1,8,0,0,1.08239X$1,22.5*
%
%ADD10C,0.0000*%
%ADD11C,0.0640*%
%ADD12R,0.0650X0.0650*%
%ADD13C,0.0650*%
%ADD14C,0.0740*%
%ADD15R,0.0740X0.0740*%
%ADD16OC8,0.0660*%
%ADD17C,0.0560*%
%ADD18C,0.0660*%
%ADD19C,0.0120*%
%ADD20C,0.0100*%
%ADD21C,0.0400*%
D10*
X001159Y001582D02*
X001159Y025578D01*
X024179Y025578D01*
X024179Y001582D01*
X001159Y001582D01*
X002009Y003082D02*
X002011Y003132D01*
X002017Y003182D01*
X002027Y003232D01*
X002040Y003280D01*
X002057Y003328D01*
X002078Y003374D01*
X002102Y003418D01*
X002130Y003460D01*
X002161Y003500D01*
X002195Y003537D01*
X002232Y003572D01*
X002271Y003603D01*
X002312Y003632D01*
X002356Y003657D01*
X002402Y003679D01*
X002449Y003697D01*
X002497Y003711D01*
X002546Y003722D01*
X002596Y003729D01*
X002646Y003732D01*
X002697Y003731D01*
X002747Y003726D01*
X002797Y003717D01*
X002845Y003705D01*
X002893Y003688D01*
X002939Y003668D01*
X002984Y003645D01*
X003027Y003618D01*
X003067Y003588D01*
X003105Y003555D01*
X003140Y003519D01*
X003173Y003480D01*
X003202Y003439D01*
X003228Y003396D01*
X003251Y003351D01*
X003270Y003304D01*
X003285Y003256D01*
X003297Y003207D01*
X003305Y003157D01*
X003309Y003107D01*
X003309Y003057D01*
X003305Y003007D01*
X003297Y002957D01*
X003285Y002908D01*
X003270Y002860D01*
X003251Y002813D01*
X003228Y002768D01*
X003202Y002725D01*
X003173Y002684D01*
X003140Y002645D01*
X003105Y002609D01*
X003067Y002576D01*
X003027Y002546D01*
X002984Y002519D01*
X002939Y002496D01*
X002893Y002476D01*
X002845Y002459D01*
X002797Y002447D01*
X002747Y002438D01*
X002697Y002433D01*
X002646Y002432D01*
X002596Y002435D01*
X002546Y002442D01*
X002497Y002453D01*
X002449Y002467D01*
X002402Y002485D01*
X002356Y002507D01*
X002312Y002532D01*
X002271Y002561D01*
X002232Y002592D01*
X002195Y002627D01*
X002161Y002664D01*
X002130Y002704D01*
X002102Y002746D01*
X002078Y002790D01*
X002057Y002836D01*
X002040Y002884D01*
X002027Y002932D01*
X002017Y002982D01*
X002011Y003032D01*
X002009Y003082D01*
X002009Y024082D02*
X002011Y024132D01*
X002017Y024182D01*
X002027Y024232D01*
X002040Y024280D01*
X002057Y024328D01*
X002078Y024374D01*
X002102Y024418D01*
X002130Y024460D01*
X002161Y024500D01*
X002195Y024537D01*
X002232Y024572D01*
X002271Y024603D01*
X002312Y024632D01*
X002356Y024657D01*
X002402Y024679D01*
X002449Y024697D01*
X002497Y024711D01*
X002546Y024722D01*
X002596Y024729D01*
X002646Y024732D01*
X002697Y024731D01*
X002747Y024726D01*
X002797Y024717D01*
X002845Y024705D01*
X002893Y024688D01*
X002939Y024668D01*
X002984Y024645D01*
X003027Y024618D01*
X003067Y024588D01*
X003105Y024555D01*
X003140Y024519D01*
X003173Y024480D01*
X003202Y024439D01*
X003228Y024396D01*
X003251Y024351D01*
X003270Y024304D01*
X003285Y024256D01*
X003297Y024207D01*
X003305Y024157D01*
X003309Y024107D01*
X003309Y024057D01*
X003305Y024007D01*
X003297Y023957D01*
X003285Y023908D01*
X003270Y023860D01*
X003251Y023813D01*
X003228Y023768D01*
X003202Y023725D01*
X003173Y023684D01*
X003140Y023645D01*
X003105Y023609D01*
X003067Y023576D01*
X003027Y023546D01*
X002984Y023519D01*
X002939Y023496D01*
X002893Y023476D01*
X002845Y023459D01*
X002797Y023447D01*
X002747Y023438D01*
X002697Y023433D01*
X002646Y023432D01*
X002596Y023435D01*
X002546Y023442D01*
X002497Y023453D01*
X002449Y023467D01*
X002402Y023485D01*
X002356Y023507D01*
X002312Y023532D01*
X002271Y023561D01*
X002232Y023592D01*
X002195Y023627D01*
X002161Y023664D01*
X002130Y023704D01*
X002102Y023746D01*
X002078Y023790D01*
X002057Y023836D01*
X002040Y023884D01*
X002027Y023932D01*
X002017Y023982D01*
X002011Y024032D01*
X002009Y024082D01*
X011009Y024482D02*
X011011Y024532D01*
X011017Y024582D01*
X011027Y024632D01*
X011040Y024680D01*
X011057Y024728D01*
X011078Y024774D01*
X011102Y024818D01*
X011130Y024860D01*
X011161Y024900D01*
X011195Y024937D01*
X011232Y024972D01*
X011271Y025003D01*
X011312Y025032D01*
X011356Y025057D01*
X011402Y025079D01*
X011449Y025097D01*
X011497Y025111D01*
X011546Y025122D01*
X011596Y025129D01*
X011646Y025132D01*
X011697Y025131D01*
X011747Y025126D01*
X011797Y025117D01*
X011845Y025105D01*
X011893Y025088D01*
X011939Y025068D01*
X011984Y025045D01*
X012027Y025018D01*
X012067Y024988D01*
X012105Y024955D01*
X012140Y024919D01*
X012173Y024880D01*
X012202Y024839D01*
X012228Y024796D01*
X012251Y024751D01*
X012270Y024704D01*
X012285Y024656D01*
X012297Y024607D01*
X012305Y024557D01*
X012309Y024507D01*
X012309Y024457D01*
X012305Y024407D01*
X012297Y024357D01*
X012285Y024308D01*
X012270Y024260D01*
X012251Y024213D01*
X012228Y024168D01*
X012202Y024125D01*
X012173Y024084D01*
X012140Y024045D01*
X012105Y024009D01*
X012067Y023976D01*
X012027Y023946D01*
X011984Y023919D01*
X011939Y023896D01*
X011893Y023876D01*
X011845Y023859D01*
X011797Y023847D01*
X011747Y023838D01*
X011697Y023833D01*
X011646Y023832D01*
X011596Y023835D01*
X011546Y023842D01*
X011497Y023853D01*
X011449Y023867D01*
X011402Y023885D01*
X011356Y023907D01*
X011312Y023932D01*
X011271Y023961D01*
X011232Y023992D01*
X011195Y024027D01*
X011161Y024064D01*
X011130Y024104D01*
X011102Y024146D01*
X011078Y024190D01*
X011057Y024236D01*
X011040Y024284D01*
X011027Y024332D01*
X011017Y024382D01*
X011011Y024432D01*
X011009Y024482D01*
X022009Y024082D02*
X022011Y024132D01*
X022017Y024182D01*
X022027Y024232D01*
X022040Y024280D01*
X022057Y024328D01*
X022078Y024374D01*
X022102Y024418D01*
X022130Y024460D01*
X022161Y024500D01*
X022195Y024537D01*
X022232Y024572D01*
X022271Y024603D01*
X022312Y024632D01*
X022356Y024657D01*
X022402Y024679D01*
X022449Y024697D01*
X022497Y024711D01*
X022546Y024722D01*
X022596Y024729D01*
X022646Y024732D01*
X022697Y024731D01*
X022747Y024726D01*
X022797Y024717D01*
X022845Y024705D01*
X022893Y024688D01*
X022939Y024668D01*
X022984Y024645D01*
X023027Y024618D01*
X023067Y024588D01*
X023105Y024555D01*
X023140Y024519D01*
X023173Y024480D01*
X023202Y024439D01*
X023228Y024396D01*
X023251Y024351D01*
X023270Y024304D01*
X023285Y024256D01*
X023297Y024207D01*
X023305Y024157D01*
X023309Y024107D01*
X023309Y024057D01*
X023305Y024007D01*
X023297Y023957D01*
X023285Y023908D01*
X023270Y023860D01*
X023251Y023813D01*
X023228Y023768D01*
X023202Y023725D01*
X023173Y023684D01*
X023140Y023645D01*
X023105Y023609D01*
X023067Y023576D01*
X023027Y023546D01*
X022984Y023519D01*
X022939Y023496D01*
X022893Y023476D01*
X022845Y023459D01*
X022797Y023447D01*
X022747Y023438D01*
X022697Y023433D01*
X022646Y023432D01*
X022596Y023435D01*
X022546Y023442D01*
X022497Y023453D01*
X022449Y023467D01*
X022402Y023485D01*
X022356Y023507D01*
X022312Y023532D01*
X022271Y023561D01*
X022232Y023592D01*
X022195Y023627D01*
X022161Y023664D01*
X022130Y023704D01*
X022102Y023746D01*
X022078Y023790D01*
X022057Y023836D01*
X022040Y023884D01*
X022027Y023932D01*
X022017Y023982D01*
X022011Y024032D01*
X022009Y024082D01*
X022009Y003082D02*
X022011Y003132D01*
X022017Y003182D01*
X022027Y003232D01*
X022040Y003280D01*
X022057Y003328D01*
X022078Y003374D01*
X022102Y003418D01*
X022130Y003460D01*
X022161Y003500D01*
X022195Y003537D01*
X022232Y003572D01*
X022271Y003603D01*
X022312Y003632D01*
X022356Y003657D01*
X022402Y003679D01*
X022449Y003697D01*
X022497Y003711D01*
X022546Y003722D01*
X022596Y003729D01*
X022646Y003732D01*
X022697Y003731D01*
X022747Y003726D01*
X022797Y003717D01*
X022845Y003705D01*
X022893Y003688D01*
X022939Y003668D01*
X022984Y003645D01*
X023027Y003618D01*
X023067Y003588D01*
X023105Y003555D01*
X023140Y003519D01*
X023173Y003480D01*
X023202Y003439D01*
X023228Y003396D01*
X023251Y003351D01*
X023270Y003304D01*
X023285Y003256D01*
X023297Y003207D01*
X023305Y003157D01*
X023309Y003107D01*
X023309Y003057D01*
X023305Y003007D01*
X023297Y002957D01*
X023285Y002908D01*
X023270Y002860D01*
X023251Y002813D01*
X023228Y002768D01*
X023202Y002725D01*
X023173Y002684D01*
X023140Y002645D01*
X023105Y002609D01*
X023067Y002576D01*
X023027Y002546D01*
X022984Y002519D01*
X022939Y002496D01*
X022893Y002476D01*
X022845Y002459D01*
X022797Y002447D01*
X022747Y002438D01*
X022697Y002433D01*
X022646Y002432D01*
X022596Y002435D01*
X022546Y002442D01*
X022497Y002453D01*
X022449Y002467D01*
X022402Y002485D01*
X022356Y002507D01*
X022312Y002532D01*
X022271Y002561D01*
X022232Y002592D01*
X022195Y002627D01*
X022161Y002664D01*
X022130Y002704D01*
X022102Y002746D01*
X022078Y002790D01*
X022057Y002836D01*
X022040Y002884D01*
X022027Y002932D01*
X022017Y002982D01*
X022011Y003032D01*
X022009Y003082D01*
D11*
X005259Y004692D02*
X004619Y004692D01*
X004619Y006472D02*
X005259Y006472D01*
X002699Y006472D02*
X002059Y006472D01*
X002059Y004692D02*
X002699Y004692D01*
X010659Y022762D02*
X010659Y023402D01*
X011659Y023402D02*
X011659Y022762D01*
X012659Y022762D02*
X012659Y023402D01*
D12*
X010659Y020582D03*
X007159Y020082D03*
X005159Y015082D03*
X018659Y024082D03*
D13*
X019659Y024082D03*
X021159Y023582D03*
X021159Y024582D03*
X012659Y019582D03*
X012659Y018582D03*
X011659Y020582D03*
X008159Y020082D03*
X007659Y015082D03*
X007659Y014082D03*
X006159Y015082D03*
X013159Y015082D03*
X013159Y014082D03*
X014159Y006082D03*
X015159Y006082D03*
X022159Y005082D03*
X023159Y005082D03*
X023159Y007082D03*
X023159Y009082D03*
X023159Y011082D03*
X022159Y011082D03*
X005659Y003582D03*
X004659Y003582D03*
D14*
X004659Y002582D03*
X007659Y002582D03*
X010159Y002632D03*
X010159Y003632D03*
X010159Y004632D03*
X011159Y004532D03*
X011159Y003532D03*
X011159Y002532D03*
X012159Y002632D03*
X012159Y003632D03*
X012159Y004632D03*
X013159Y003532D03*
X013159Y002532D03*
X014159Y002632D03*
X014159Y003632D03*
X014159Y004582D03*
X015159Y004482D03*
X015159Y003532D03*
X015159Y002532D03*
X016159Y002632D03*
X016159Y003632D03*
X016159Y004582D03*
X017159Y004482D03*
X017159Y003532D03*
X017159Y002532D03*
X018159Y002632D03*
X018159Y003632D03*
X018159Y004582D03*
X019159Y004482D03*
X019159Y003532D03*
X019159Y002532D03*
X020609Y002582D03*
X020709Y003582D03*
X020609Y004582D03*
X020659Y017082D03*
X020759Y018082D03*
X020659Y019082D03*
X020759Y020082D03*
X020659Y021082D03*
X020759Y022082D03*
X018259Y022082D03*
X018159Y021082D03*
X018259Y020082D03*
X018159Y019082D03*
X018259Y018082D03*
X018159Y017082D03*
X015659Y017082D03*
X015759Y018082D03*
X015659Y019082D03*
X015759Y020082D03*
X015659Y021082D03*
X015759Y022082D03*
X011659Y018082D03*
X007659Y018082D03*
X006159Y017582D03*
X004659Y019582D03*
X004659Y020582D03*
X004159Y021582D03*
X002159Y021082D03*
X002159Y020082D03*
X002159Y017582D03*
X002659Y016182D03*
X004159Y013082D03*
X004159Y012082D03*
X004159Y011082D03*
X004159Y010082D03*
X004159Y009082D03*
X004159Y008082D03*
X007159Y021582D03*
X007109Y024082D03*
X004609Y024082D03*
X023259Y022082D03*
X023159Y021082D03*
X023259Y020082D03*
X023159Y019082D03*
X023259Y018082D03*
X023159Y017082D03*
D15*
X013159Y004532D03*
X002659Y015082D03*
X005709Y024082D03*
X008209Y024082D03*
D16*
X016659Y024082D03*
X016659Y023232D03*
X016659Y024932D03*
D17*
X016159Y015362D02*
X016159Y014802D01*
X015159Y014802D02*
X015159Y015362D01*
X014159Y015362D02*
X014159Y014802D01*
X014159Y012362D02*
X014159Y011802D01*
X015159Y011802D02*
X015159Y012362D01*
X016159Y012362D02*
X016159Y011802D01*
X017159Y011802D02*
X017159Y012362D01*
X018159Y012362D02*
X018159Y011802D01*
X019159Y011802D02*
X019159Y012362D01*
X020159Y012362D02*
X020159Y011802D01*
X021159Y011802D02*
X021159Y012362D01*
X022159Y012362D02*
X022159Y011802D01*
X023159Y011802D02*
X023159Y012362D01*
X021159Y010362D02*
X021159Y009802D01*
X020159Y009802D02*
X020159Y010362D01*
X019159Y010362D02*
X019159Y009802D01*
X018159Y009802D02*
X018159Y010362D01*
X017159Y010362D02*
X017159Y009802D01*
X016159Y009802D02*
X016159Y010362D01*
X015159Y010362D02*
X015159Y009802D01*
X014159Y009802D02*
X014159Y010362D01*
X013159Y010362D02*
X013159Y009802D01*
X012159Y009802D02*
X012159Y010362D01*
X011159Y010362D02*
X011159Y009802D01*
X010159Y009802D02*
X010159Y010362D01*
X009159Y010362D02*
X009159Y009802D01*
X008159Y009802D02*
X008159Y010362D01*
X008659Y011802D02*
X008659Y012362D01*
X009659Y012362D02*
X009659Y011802D01*
X010659Y011802D02*
X010659Y012362D01*
X011659Y012362D02*
X011659Y011802D01*
X011659Y014802D02*
X011659Y015362D01*
X010659Y015362D02*
X010659Y014802D01*
X009659Y014802D02*
X009659Y015362D01*
X008659Y015362D02*
X008659Y014802D01*
X008159Y007362D02*
X008159Y006802D01*
X009159Y006802D02*
X009159Y007362D01*
X010159Y007362D02*
X010159Y006802D01*
X011159Y006802D02*
X011159Y007362D01*
X012159Y007362D02*
X012159Y006802D01*
X013159Y006802D02*
X013159Y007362D01*
X014159Y007362D02*
X014159Y006802D01*
X015159Y006802D02*
X015159Y007362D01*
X016159Y007362D02*
X016159Y006802D01*
X017159Y006802D02*
X017159Y007362D01*
X018159Y007362D02*
X018159Y006802D01*
X019159Y006802D02*
X019159Y007362D01*
X020159Y007362D02*
X020159Y006802D01*
X021159Y006802D02*
X021159Y007362D01*
X021159Y014802D02*
X021159Y015362D01*
X020159Y015362D02*
X020159Y014802D01*
X019159Y014802D02*
X019159Y015362D01*
X018159Y015362D02*
X018159Y014802D01*
X017159Y014802D02*
X017159Y015362D01*
X022159Y015362D02*
X022159Y014802D01*
X023159Y014802D02*
X023159Y015362D01*
D18*
X006159Y013082D03*
X006159Y012082D03*
X006159Y011082D03*
X006159Y010082D03*
X006159Y009082D03*
X006159Y008082D03*
X006159Y007082D03*
D19*
X006159Y008082D02*
X006119Y008142D01*
X004999Y009262D01*
X004999Y011182D01*
X005879Y012062D01*
X006119Y012062D01*
X006159Y012082D01*
X005399Y010622D02*
X005239Y010462D01*
X005239Y009742D01*
X005879Y009102D01*
X006119Y009102D01*
X006159Y009082D01*
X006199Y009022D01*
X006279Y008942D01*
X008279Y008942D01*
X010119Y007102D01*
X010159Y007082D01*
X010599Y007582D02*
X010599Y005342D01*
X010119Y004862D01*
X010119Y004702D01*
X010159Y004632D01*
X010159Y003632D02*
X010199Y003582D01*
X011159Y003582D01*
X011159Y003532D01*
X011159Y003582D02*
X012119Y003582D01*
X012159Y003632D01*
X012199Y003582D01*
X013159Y003582D01*
X013159Y003532D01*
X013159Y003582D02*
X014119Y003582D01*
X014159Y003632D01*
X014199Y003582D01*
X015159Y003582D01*
X015159Y003532D01*
X015159Y003582D02*
X016119Y003582D01*
X016159Y003632D01*
X016199Y003582D01*
X017159Y003582D01*
X017159Y003532D01*
X017159Y004482D02*
X017159Y004862D01*
X018119Y005822D01*
X018119Y007022D01*
X018159Y007082D01*
X019159Y007082D02*
X019159Y005822D01*
X018199Y004862D01*
X018199Y004622D01*
X018159Y004582D01*
X018159Y003632D02*
X018199Y003582D01*
X019159Y003582D01*
X019159Y003532D01*
X019159Y004462D02*
X019159Y004482D01*
X019159Y004462D02*
X020119Y005422D01*
X020119Y007022D01*
X020159Y007082D01*
X021159Y007082D02*
X021159Y008542D01*
X021959Y009342D01*
X021959Y009502D01*
X022999Y010542D01*
X023319Y010542D01*
X023639Y010862D01*
X023639Y012542D01*
X022279Y013902D01*
X019959Y013902D01*
X019159Y014702D01*
X019159Y015082D01*
X020359Y013262D02*
X012119Y013262D01*
X011279Y014102D01*
X010679Y013502D01*
X010679Y012142D01*
X010659Y012082D01*
X009659Y012082D02*
X009639Y012062D01*
X008679Y012062D01*
X008659Y012082D01*
X008599Y012142D01*
X008439Y012142D01*
X007839Y012742D01*
X009639Y014542D01*
X009639Y015022D01*
X009659Y015082D01*
X009719Y015102D01*
X010599Y015102D01*
X010659Y015082D01*
X011659Y015082D02*
X011719Y015022D01*
X011719Y014542D01*
X011279Y014102D01*
X013719Y014622D02*
X014279Y014062D01*
X013719Y014622D02*
X013719Y015182D01*
X011719Y017182D01*
X011719Y018062D01*
X011659Y018082D01*
X007159Y021582D02*
X008199Y022622D01*
X008199Y024062D01*
X008209Y024082D01*
X009959Y023022D02*
X007159Y020222D01*
X007159Y020082D01*
X004659Y020582D02*
X004599Y020622D01*
X004599Y020862D01*
X004199Y021262D01*
X004199Y021582D01*
X004159Y021582D01*
X009959Y023022D02*
X010599Y023022D01*
X010659Y023082D01*
X005159Y015082D02*
X005159Y015022D01*
X005559Y015022D01*
X007839Y012742D01*
X010159Y010082D02*
X010199Y010062D01*
X010199Y007982D01*
X010599Y007582D01*
X011719Y007582D02*
X011719Y005342D01*
X012119Y004942D01*
X012119Y004702D01*
X012159Y004632D01*
X012599Y005582D02*
X013159Y005022D01*
X013159Y004532D01*
X013799Y005102D02*
X014439Y005102D01*
X014999Y004542D01*
X015159Y004542D01*
X015159Y004482D01*
X013799Y005102D02*
X013159Y005742D01*
X012599Y005582D02*
X012599Y007422D01*
X013159Y007982D01*
X013159Y010082D01*
X012159Y010082D02*
X012119Y010062D01*
X012119Y007982D01*
X011719Y007582D01*
X004659Y003582D02*
X004599Y003582D01*
X003639Y004542D01*
X003639Y007422D01*
X003159Y007902D01*
X003159Y011822D01*
X004119Y012782D01*
X004119Y013022D01*
X004159Y013082D01*
X018679Y023342D02*
X020999Y021022D01*
X020659Y021082D01*
X020679Y021022D01*
X020999Y021022D01*
X021719Y020302D01*
X021719Y017422D01*
X023959Y015182D01*
X023959Y009182D01*
X022199Y007422D01*
X022199Y006622D01*
X020679Y005102D01*
X020679Y004622D01*
X020609Y004582D01*
X020679Y004542D01*
X020679Y003582D01*
X020709Y003582D01*
X020679Y003582D02*
X020679Y002622D01*
X020609Y002582D01*
X021159Y012082D02*
X021159Y012462D01*
X020359Y013262D01*
X018679Y023342D02*
X018679Y024062D01*
X018659Y024082D01*
D20*
X019234Y023870D02*
X019253Y023833D01*
X019297Y023773D01*
X019350Y023720D01*
X019410Y023676D01*
X019477Y023642D01*
X019548Y023619D01*
X019622Y023607D01*
X019640Y023607D01*
X019640Y024063D01*
X019678Y024063D01*
X019678Y023607D01*
X019696Y023607D01*
X019770Y023619D01*
X019841Y023642D01*
X019908Y023676D01*
X019968Y023720D01*
X020021Y023773D01*
X020065Y023833D01*
X020099Y023900D01*
X020122Y023971D01*
X020134Y024045D01*
X020134Y024063D01*
X019678Y024063D01*
X019678Y024101D01*
X020134Y024101D01*
X020134Y024120D01*
X020122Y024194D01*
X020099Y024265D01*
X020065Y024331D01*
X020021Y024392D01*
X019968Y024445D01*
X019908Y024489D01*
X019841Y024523D01*
X019770Y024546D01*
X019696Y024557D01*
X019678Y024557D01*
X019678Y024101D01*
X019640Y024101D01*
X019640Y024557D01*
X019622Y024557D01*
X019548Y024546D01*
X019477Y024523D01*
X019410Y024489D01*
X019350Y024445D01*
X019297Y024392D01*
X019253Y024331D01*
X019234Y024294D01*
X019234Y024457D01*
X019196Y024549D01*
X019126Y024619D01*
X019034Y024657D01*
X018284Y024657D01*
X018192Y024619D01*
X018122Y024549D01*
X018084Y024457D01*
X018084Y023708D01*
X018122Y023616D01*
X018192Y023545D01*
X018284Y023507D01*
X018369Y023507D01*
X018369Y023404D01*
X018369Y023281D01*
X018416Y023167D01*
X020141Y021442D01*
X020133Y021434D01*
X020039Y021206D01*
X020039Y020959D01*
X020133Y020731D01*
X020308Y020557D01*
X020448Y020499D01*
X020420Y020479D01*
X020362Y020421D01*
X020314Y020355D01*
X020277Y020282D01*
X020252Y020204D01*
X020240Y020132D01*
X020709Y020132D01*
X020709Y020032D01*
X020240Y020032D01*
X020252Y019961D01*
X020277Y019883D01*
X020314Y019810D01*
X020362Y019744D01*
X020420Y019686D01*
X020448Y019666D01*
X020308Y019608D01*
X020133Y019434D01*
X020039Y019206D01*
X020039Y018959D01*
X020133Y018731D01*
X020308Y018557D01*
X020342Y018542D01*
X020233Y018434D01*
X020139Y018206D01*
X020139Y017959D01*
X020233Y017731D01*
X020342Y017622D01*
X020308Y017608D01*
X020133Y017434D01*
X020039Y017206D01*
X020039Y016959D01*
X020133Y016731D01*
X020308Y016557D01*
X020536Y016462D01*
X020782Y016462D01*
X021010Y016557D01*
X021185Y016731D01*
X021279Y016959D01*
X021279Y017206D01*
X021185Y017434D01*
X021076Y017542D01*
X021110Y017557D01*
X021285Y017731D01*
X021379Y017959D01*
X021379Y018206D01*
X021285Y018434D01*
X021110Y018608D01*
X021076Y018622D01*
X021185Y018731D01*
X021279Y018959D01*
X021279Y019206D01*
X021185Y019434D01*
X021010Y019608D01*
X020990Y019616D01*
X021032Y019638D01*
X021098Y019686D01*
X021156Y019744D01*
X021204Y019810D01*
X021241Y019883D01*
X021266Y019961D01*
X021278Y020032D01*
X020809Y020032D01*
X020809Y020132D01*
X021278Y020132D01*
X021266Y020204D01*
X021241Y020282D01*
X021204Y020355D01*
X021156Y020421D01*
X021098Y020479D01*
X021032Y020527D01*
X020990Y020548D01*
X021010Y020557D01*
X021018Y020565D01*
X021409Y020174D01*
X021409Y017361D01*
X021456Y017247D01*
X021543Y017160D01*
X022882Y015821D01*
X022859Y015812D01*
X022710Y015663D01*
X022659Y015540D01*
X022608Y015663D01*
X022459Y015812D01*
X022264Y015892D01*
X022054Y015892D01*
X021859Y015812D01*
X021710Y015663D01*
X021659Y015540D01*
X021608Y015663D01*
X021459Y015812D01*
X021264Y015892D01*
X021054Y015892D01*
X020859Y015812D01*
X020710Y015663D01*
X020629Y015468D01*
X020629Y014697D01*
X020710Y014502D01*
X020859Y014353D01*
X021054Y014272D01*
X021264Y014272D01*
X021459Y014353D01*
X021608Y014502D01*
X021659Y014625D01*
X021710Y014502D01*
X021859Y014353D01*
X022054Y014272D01*
X022264Y014272D01*
X022459Y014353D01*
X022608Y014502D01*
X022659Y014625D01*
X022710Y014502D01*
X022859Y014353D01*
X023054Y014272D01*
X023264Y014272D01*
X023459Y014353D01*
X023608Y014502D01*
X023649Y014600D01*
X023649Y012971D01*
X022542Y014078D01*
X022455Y014165D01*
X022341Y014212D01*
X020087Y014212D01*
X019664Y014636D01*
X019689Y014697D01*
X019689Y015468D01*
X019608Y015663D01*
X019459Y015812D01*
X019264Y015892D01*
X019054Y015892D01*
X018859Y015812D01*
X018710Y015663D01*
X018659Y015540D01*
X018608Y015663D01*
X018459Y015812D01*
X018264Y015892D01*
X018054Y015892D01*
X017859Y015812D01*
X017710Y015663D01*
X017659Y015540D01*
X017608Y015663D01*
X017459Y015812D01*
X017264Y015892D01*
X017054Y015892D01*
X016859Y015812D01*
X016710Y015663D01*
X016659Y015540D01*
X016608Y015663D01*
X016459Y015812D01*
X016264Y015892D01*
X016054Y015892D01*
X015859Y015812D01*
X015710Y015663D01*
X015659Y015540D01*
X015608Y015663D01*
X015459Y015812D01*
X015264Y015892D01*
X015054Y015892D01*
X014859Y015812D01*
X014710Y015663D01*
X014659Y015540D01*
X014608Y015663D01*
X014459Y015812D01*
X014264Y015892D01*
X014054Y015892D01*
X013859Y015812D01*
X013710Y015663D01*
X013700Y015640D01*
X012029Y017311D01*
X012029Y017576D01*
X012185Y017731D01*
X012279Y017959D01*
X012279Y018149D01*
X012333Y018095D01*
X012545Y018007D01*
X012773Y018007D01*
X012985Y018095D01*
X013146Y018257D01*
X013234Y018468D01*
X013234Y018697D01*
X013146Y018908D01*
X012985Y019070D01*
X012824Y019136D01*
X012841Y019142D01*
X012908Y019176D01*
X012968Y019220D01*
X013021Y019273D01*
X013065Y019333D01*
X013099Y019400D01*
X013122Y019471D01*
X013134Y019545D01*
X013134Y019563D01*
X012678Y019563D01*
X012678Y019601D01*
X013134Y019601D01*
X013134Y019620D01*
X013122Y019694D01*
X013099Y019765D01*
X013065Y019831D01*
X013021Y019892D01*
X012968Y019945D01*
X012908Y019989D01*
X012841Y020023D01*
X012770Y020046D01*
X012696Y020057D01*
X012678Y020057D01*
X012678Y019601D01*
X012640Y019601D01*
X012640Y019563D01*
X012184Y019563D01*
X012184Y019545D01*
X012196Y019471D01*
X012219Y019400D01*
X012253Y019333D01*
X012297Y019273D01*
X012350Y019220D01*
X012410Y019176D01*
X012477Y019142D01*
X012494Y019136D01*
X012333Y019070D01*
X012172Y018908D01*
X012084Y018697D01*
X012084Y018534D01*
X012010Y018608D01*
X011782Y018702D01*
X011536Y018702D01*
X011308Y018608D01*
X011133Y018434D01*
X011039Y018206D01*
X011039Y017959D01*
X011133Y017731D01*
X011308Y017557D01*
X011409Y017515D01*
X011409Y017244D01*
X011409Y017121D01*
X011456Y017007D01*
X012876Y015587D01*
X012833Y015570D01*
X012672Y015408D01*
X012584Y015197D01*
X012584Y014968D01*
X012672Y014757D01*
X012833Y014595D01*
X012994Y014528D01*
X012977Y014523D01*
X012910Y014489D01*
X012850Y014445D01*
X012797Y014392D01*
X012753Y014331D01*
X012719Y014265D01*
X012696Y014194D01*
X012684Y014120D01*
X012684Y014101D01*
X013140Y014101D01*
X013140Y014063D01*
X013178Y014063D01*
X013178Y013607D01*
X013196Y013607D01*
X013270Y013619D01*
X013341Y013642D01*
X013408Y013676D01*
X013468Y013720D01*
X013521Y013773D01*
X013565Y013833D01*
X013599Y013900D01*
X013622Y013971D01*
X013634Y014045D01*
X013634Y014063D01*
X013178Y014063D01*
X013178Y014101D01*
X013634Y014101D01*
X013634Y014120D01*
X013622Y014194D01*
X013599Y014265D01*
X013565Y014331D01*
X013548Y014355D01*
X013829Y014074D01*
X013829Y013973D01*
X013898Y013807D01*
X014024Y013681D01*
X014190Y013612D01*
X014369Y013612D01*
X014534Y013681D01*
X014661Y013807D01*
X014729Y013973D01*
X014729Y014152D01*
X014661Y014317D01*
X014542Y014436D01*
X014608Y014502D01*
X014659Y014625D01*
X014710Y014502D01*
X014859Y014353D01*
X015054Y014272D01*
X015264Y014272D01*
X015459Y014353D01*
X015608Y014502D01*
X015659Y014625D01*
X015710Y014502D01*
X015859Y014353D01*
X016054Y014272D01*
X016264Y014272D01*
X016459Y014353D01*
X016608Y014502D01*
X016659Y014625D01*
X016710Y014502D01*
X016859Y014353D01*
X017054Y014272D01*
X017264Y014272D01*
X017459Y014353D01*
X017608Y014502D01*
X017659Y014625D01*
X017710Y014502D01*
X017859Y014353D01*
X018054Y014272D01*
X018264Y014272D01*
X018459Y014353D01*
X018608Y014502D01*
X018659Y014625D01*
X018710Y014502D01*
X018859Y014353D01*
X019054Y014272D01*
X019151Y014272D01*
X019783Y013640D01*
X019897Y013592D01*
X020021Y013592D01*
X022151Y013592D01*
X022910Y012833D01*
X022859Y012812D01*
X022710Y012663D01*
X022629Y012468D01*
X022629Y011697D01*
X022710Y011502D01*
X022738Y011474D01*
X022672Y011408D01*
X022605Y011247D01*
X022599Y011265D01*
X022565Y011331D01*
X022521Y011392D01*
X022468Y011445D01*
X022433Y011470D01*
X022439Y011474D01*
X022487Y011522D01*
X022527Y011577D01*
X022558Y011637D01*
X022578Y011702D01*
X022589Y011768D01*
X022589Y012052D01*
X022189Y012052D01*
X022189Y011557D01*
X022178Y011557D01*
X022178Y011101D01*
X022140Y011101D01*
X022140Y011063D01*
X022178Y011063D01*
X022178Y010607D01*
X022196Y010607D01*
X022270Y010619D01*
X022341Y010642D01*
X022408Y010676D01*
X022468Y010720D01*
X022521Y010773D01*
X022565Y010833D01*
X022599Y010900D01*
X022605Y010918D01*
X022672Y010757D01*
X022723Y010705D01*
X021696Y009678D01*
X021649Y009564D01*
X021649Y009471D01*
X020896Y008718D01*
X020849Y008604D01*
X020849Y008481D01*
X020849Y007802D01*
X020710Y007663D01*
X020659Y007540D01*
X020608Y007663D01*
X020459Y007812D01*
X020264Y007892D01*
X020054Y007892D01*
X019859Y007812D01*
X019710Y007663D01*
X019659Y007540D01*
X019608Y007663D01*
X019459Y007812D01*
X019264Y007892D01*
X019054Y007892D01*
X018859Y007812D01*
X018710Y007663D01*
X018659Y007540D01*
X018608Y007663D01*
X018459Y007812D01*
X018264Y007892D01*
X018054Y007892D01*
X017859Y007812D01*
X017710Y007663D01*
X017659Y007540D01*
X017608Y007663D01*
X017459Y007812D01*
X017264Y007892D01*
X017054Y007892D01*
X016859Y007812D01*
X016710Y007663D01*
X016659Y007540D01*
X016608Y007663D01*
X016459Y007812D01*
X016264Y007892D01*
X016054Y007892D01*
X015859Y007812D01*
X015710Y007663D01*
X015629Y007468D01*
X015629Y006697D01*
X015710Y006502D01*
X015859Y006353D01*
X016054Y006272D01*
X016264Y006272D01*
X016459Y006353D01*
X016608Y006502D01*
X016659Y006625D01*
X016710Y006502D01*
X016859Y006353D01*
X017054Y006272D01*
X017264Y006272D01*
X017459Y006353D01*
X017608Y006502D01*
X017659Y006625D01*
X017710Y006502D01*
X017809Y006403D01*
X017809Y005951D01*
X016983Y005125D01*
X016908Y005049D01*
X016808Y005008D01*
X016699Y004899D01*
X016685Y004934D01*
X016510Y005108D01*
X016282Y005202D01*
X016036Y005202D01*
X015808Y005108D01*
X015633Y004934D01*
X015619Y004899D01*
X015510Y005008D01*
X015282Y005102D01*
X015036Y005102D01*
X014924Y005056D01*
X014615Y005365D01*
X014501Y005412D01*
X014377Y005412D01*
X013927Y005412D01*
X013609Y005731D01*
X013609Y005832D01*
X013541Y005997D01*
X013414Y006124D01*
X013249Y006192D01*
X013070Y006192D01*
X012909Y006126D01*
X012909Y006332D01*
X013054Y006272D01*
X013264Y006272D01*
X013459Y006353D01*
X013608Y006502D01*
X013659Y006625D01*
X013710Y006502D01*
X013738Y006474D01*
X013672Y006408D01*
X013584Y006197D01*
X013584Y005968D01*
X013672Y005757D01*
X013833Y005595D01*
X014045Y005507D01*
X014273Y005507D01*
X014485Y005595D01*
X014646Y005757D01*
X014713Y005918D01*
X014719Y005900D01*
X014753Y005833D01*
X014797Y005773D01*
X014850Y005720D01*
X014910Y005676D01*
X014977Y005642D01*
X015048Y005619D01*
X015122Y005607D01*
X015140Y005607D01*
X015140Y006063D01*
X015178Y006063D01*
X015178Y005607D01*
X015196Y005607D01*
X015270Y005619D01*
X015341Y005642D01*
X015408Y005676D01*
X015468Y005720D01*
X015521Y005773D01*
X015565Y005833D01*
X015599Y005900D01*
X015622Y005971D01*
X015634Y006045D01*
X015634Y006063D01*
X015178Y006063D01*
X015178Y006101D01*
X015634Y006101D01*
X015634Y006120D01*
X015622Y006194D01*
X015599Y006265D01*
X015565Y006331D01*
X015521Y006392D01*
X015468Y006445D01*
X015433Y006470D01*
X015439Y006474D01*
X015487Y006522D01*
X015527Y006577D01*
X015558Y006637D01*
X015578Y006702D01*
X015589Y006768D01*
X015589Y007052D01*
X015189Y007052D01*
X015189Y006557D01*
X015178Y006557D01*
X015178Y006101D01*
X015140Y006101D01*
X015140Y006557D01*
X015129Y006557D01*
X015129Y007052D01*
X015189Y007052D01*
X015189Y007112D01*
X015589Y007112D01*
X015589Y007396D01*
X015578Y007463D01*
X015558Y007527D01*
X015527Y007588D01*
X015487Y007642D01*
X015439Y007690D01*
X015384Y007730D01*
X015324Y007761D01*
X015260Y007782D01*
X015193Y007792D01*
X015189Y007792D01*
X015189Y007113D01*
X015129Y007113D01*
X015129Y007792D01*
X015125Y007792D01*
X015058Y007782D01*
X014994Y007761D01*
X014934Y007730D01*
X014879Y007690D01*
X014831Y007642D01*
X014791Y007588D01*
X014761Y007527D01*
X014740Y007463D01*
X014729Y007396D01*
X014729Y007112D01*
X015129Y007112D01*
X015129Y007052D01*
X014729Y007052D01*
X014729Y006768D01*
X014740Y006702D01*
X014761Y006637D01*
X014791Y006577D01*
X014831Y006522D01*
X014879Y006474D01*
X014885Y006470D01*
X014850Y006445D01*
X014797Y006392D01*
X014753Y006331D01*
X014719Y006265D01*
X014713Y006247D01*
X014646Y006408D01*
X014580Y006474D01*
X014608Y006502D01*
X014689Y006697D01*
X014689Y007468D01*
X014608Y007663D01*
X014459Y007812D01*
X014264Y007892D01*
X014054Y007892D01*
X013859Y007812D01*
X013710Y007663D01*
X013659Y007540D01*
X013608Y007663D01*
X013459Y007812D01*
X013429Y007824D01*
X013469Y007921D01*
X013469Y009363D01*
X013608Y009502D01*
X013689Y009697D01*
X013689Y010468D01*
X013608Y010663D01*
X013459Y010812D01*
X013264Y010892D01*
X013054Y010892D01*
X012859Y010812D01*
X012710Y010663D01*
X012659Y010540D01*
X012608Y010663D01*
X012459Y010812D01*
X012264Y010892D01*
X012054Y010892D01*
X011859Y010812D01*
X011710Y010663D01*
X011659Y010540D01*
X011608Y010663D01*
X011459Y010812D01*
X011264Y010892D01*
X011054Y010892D01*
X010859Y010812D01*
X010710Y010663D01*
X010659Y010540D01*
X010608Y010663D01*
X010459Y010812D01*
X010264Y010892D01*
X010054Y010892D01*
X009859Y010812D01*
X009710Y010663D01*
X009659Y010540D01*
X009608Y010663D01*
X009459Y010812D01*
X009264Y010892D01*
X009054Y010892D01*
X008859Y010812D01*
X008710Y010663D01*
X008659Y010540D01*
X008608Y010663D01*
X008459Y010812D01*
X008264Y010892D01*
X008054Y010892D01*
X007859Y010812D01*
X007710Y010663D01*
X007629Y010468D01*
X007629Y009697D01*
X007710Y009502D01*
X007859Y009353D01*
X008054Y009272D01*
X008264Y009272D01*
X008459Y009353D01*
X008608Y009502D01*
X008659Y009625D01*
X008710Y009502D01*
X008859Y009353D01*
X009054Y009272D01*
X009264Y009272D01*
X009459Y009353D01*
X009608Y009502D01*
X009659Y009625D01*
X009710Y009502D01*
X009859Y009353D01*
X009889Y009341D01*
X009889Y008044D01*
X009889Y007921D01*
X009923Y007838D01*
X009859Y007812D01*
X009853Y007806D01*
X008542Y009118D01*
X008455Y009205D01*
X008341Y009252D01*
X006716Y009252D01*
X006651Y009411D01*
X006488Y009574D01*
X006467Y009582D01*
X006488Y009591D01*
X006651Y009754D01*
X006739Y009967D01*
X006739Y010198D01*
X006651Y010411D01*
X006488Y010574D01*
X006467Y010582D01*
X006488Y010591D01*
X006651Y010754D01*
X006739Y010967D01*
X006739Y011198D01*
X006651Y011411D01*
X006488Y011574D01*
X006467Y011582D01*
X006488Y011591D01*
X006651Y011754D01*
X006739Y011967D01*
X006739Y012198D01*
X006651Y012411D01*
X006488Y012574D01*
X006338Y012636D01*
X006343Y012638D01*
X006411Y012672D01*
X006472Y012716D01*
X006525Y012770D01*
X006570Y012831D01*
X006604Y012898D01*
X006627Y012970D01*
X006639Y013045D01*
X006639Y013054D01*
X006188Y013054D01*
X006188Y013111D01*
X006639Y013111D01*
X006639Y013120D01*
X006627Y013195D01*
X006604Y013267D01*
X006570Y013334D01*
X006525Y013395D01*
X006472Y013448D01*
X006411Y013493D01*
X006343Y013527D01*
X006271Y013551D01*
X006197Y013562D01*
X006188Y013562D01*
X006188Y013111D01*
X006130Y013111D01*
X006130Y013054D01*
X005679Y013054D01*
X005679Y013045D01*
X005691Y012970D01*
X005714Y012898D01*
X005749Y012831D01*
X005793Y012770D01*
X005846Y012716D01*
X005907Y012672D01*
X005975Y012638D01*
X005980Y012636D01*
X005831Y012574D01*
X005667Y012411D01*
X005581Y012203D01*
X004736Y011358D01*
X004726Y011333D01*
X004685Y011434D01*
X004536Y011582D01*
X004685Y011731D01*
X004779Y011959D01*
X004779Y012206D01*
X004685Y012434D01*
X004536Y012582D01*
X004685Y012731D01*
X004779Y012959D01*
X004779Y013206D01*
X004685Y013434D01*
X004510Y013608D01*
X004282Y013702D01*
X004036Y013702D01*
X003808Y013608D01*
X003633Y013434D01*
X003539Y013206D01*
X003539Y012959D01*
X003632Y012734D01*
X002896Y011998D01*
X002849Y011884D01*
X002849Y011761D01*
X002849Y007841D01*
X002896Y007727D01*
X002983Y007640D01*
X003329Y007294D01*
X003329Y004481D01*
X003376Y004367D01*
X003463Y004280D01*
X004084Y003659D01*
X004084Y003468D01*
X004172Y003257D01*
X004317Y003112D01*
X004308Y003108D01*
X004133Y002934D01*
X004039Y002706D01*
X004039Y002459D01*
X004133Y002231D01*
X004308Y002057D01*
X004536Y001962D01*
X004782Y001962D01*
X005010Y002057D01*
X005185Y002231D01*
X005279Y002459D01*
X005279Y002706D01*
X005185Y002934D01*
X005010Y003108D01*
X005001Y003112D01*
X005146Y003257D01*
X005159Y003287D01*
X005172Y003257D01*
X005333Y003095D01*
X005545Y003007D01*
X005773Y003007D01*
X005985Y003095D01*
X006146Y003257D01*
X006234Y003468D01*
X006234Y003697D01*
X006146Y003908D01*
X005985Y004070D01*
X005773Y004157D01*
X005545Y004157D01*
X005333Y004070D01*
X005172Y003908D01*
X005159Y003878D01*
X005146Y003908D01*
X004985Y004070D01*
X004773Y004157D01*
X004545Y004157D01*
X004486Y004133D01*
X003949Y004671D01*
X003949Y007361D01*
X003949Y007484D01*
X003902Y007598D01*
X003469Y008031D01*
X003469Y011694D01*
X003596Y011821D01*
X003633Y011731D01*
X003782Y011582D01*
X003633Y011434D01*
X003539Y011206D01*
X003539Y010959D01*
X003633Y010731D01*
X003782Y010582D01*
X003633Y010434D01*
X003539Y010206D01*
X003539Y009959D01*
X003633Y009731D01*
X003808Y009557D01*
X003884Y009525D01*
X003820Y009479D01*
X003762Y009421D01*
X003714Y009355D01*
X003677Y009282D01*
X003652Y009204D01*
X003640Y009132D01*
X004109Y009132D01*
X004109Y009032D01*
X004209Y009032D01*
X004209Y008564D01*
X004209Y008133D01*
X004109Y008133D01*
X004109Y008601D01*
X004109Y009032D01*
X003640Y009032D01*
X003652Y008961D01*
X003677Y008883D01*
X003714Y008810D01*
X003762Y008744D01*
X003820Y008686D01*
X003886Y008638D01*
X003959Y008600D01*
X004015Y008582D01*
X003959Y008564D01*
X003886Y008527D01*
X003820Y008479D01*
X003762Y008421D01*
X003714Y008355D01*
X003677Y008282D01*
X003652Y008204D01*
X003640Y008132D01*
X004109Y008132D01*
X004109Y008032D01*
X004209Y008032D01*
X004209Y007564D01*
X004281Y007575D01*
X004359Y007600D01*
X004432Y007638D01*
X004498Y007686D01*
X004556Y007744D01*
X004604Y007810D01*
X004641Y007883D01*
X004666Y007961D01*
X004678Y008032D01*
X004209Y008032D01*
X004209Y008132D01*
X004678Y008132D01*
X004666Y008204D01*
X004641Y008282D01*
X004604Y008355D01*
X004556Y008421D01*
X004498Y008479D01*
X004432Y008527D01*
X004359Y008564D01*
X004303Y008582D01*
X004359Y008600D01*
X004432Y008638D01*
X004498Y008686D01*
X004556Y008744D01*
X004604Y008810D01*
X004641Y008883D01*
X004666Y008961D01*
X004678Y009032D01*
X004209Y009032D01*
X004209Y009132D01*
X004678Y009132D01*
X004666Y009204D01*
X004641Y009282D01*
X004604Y009355D01*
X004556Y009421D01*
X004498Y009479D01*
X004434Y009525D01*
X004510Y009557D01*
X004685Y009731D01*
X004689Y009742D01*
X004689Y009201D01*
X004736Y009087D01*
X004823Y009000D01*
X005593Y008230D01*
X005579Y008198D01*
X005579Y007967D01*
X005667Y007754D01*
X005831Y007591D01*
X005851Y007582D01*
X005831Y007574D01*
X005667Y007411D01*
X005579Y007198D01*
X005579Y006967D01*
X005585Y006952D01*
X005582Y006956D01*
X005372Y007042D01*
X004506Y007042D01*
X004296Y006956D01*
X004136Y006795D01*
X004049Y006586D01*
X004049Y006359D01*
X004136Y006149D01*
X004296Y005989D01*
X004506Y005902D01*
X005372Y005902D01*
X005582Y005989D01*
X005742Y006149D01*
X005829Y006359D01*
X005829Y006586D01*
X005824Y006597D01*
X005831Y006591D01*
X006044Y006502D01*
X006274Y006502D01*
X006488Y006591D01*
X006651Y006754D01*
X006739Y006967D01*
X006739Y007198D01*
X006651Y007411D01*
X006488Y007574D01*
X006467Y007582D01*
X006488Y007591D01*
X006651Y007754D01*
X006739Y007967D01*
X006739Y008198D01*
X006651Y008411D01*
X006488Y008574D01*
X006467Y008582D01*
X006488Y008591D01*
X006529Y008632D01*
X008151Y008632D01*
X008938Y007845D01*
X008859Y007812D01*
X008710Y007663D01*
X008659Y007540D01*
X008608Y007663D01*
X008459Y007812D01*
X008264Y007892D01*
X008054Y007892D01*
X007859Y007812D01*
X007710Y007663D01*
X007629Y007468D01*
X007629Y006697D01*
X007710Y006502D01*
X007859Y006353D01*
X008054Y006272D01*
X008264Y006272D01*
X008459Y006353D01*
X008608Y006502D01*
X008659Y006625D01*
X008710Y006502D01*
X008859Y006353D01*
X009054Y006272D01*
X009264Y006272D01*
X009459Y006353D01*
X009608Y006502D01*
X009659Y006625D01*
X009710Y006502D01*
X009859Y006353D01*
X010054Y006272D01*
X010264Y006272D01*
X010289Y006283D01*
X010289Y005471D01*
X010071Y005252D01*
X010036Y005252D01*
X009808Y005158D01*
X009633Y004984D01*
X009539Y004756D01*
X009539Y004509D01*
X009633Y004281D01*
X009782Y004132D01*
X009633Y003984D01*
X009539Y003756D01*
X009539Y003509D01*
X009633Y003281D01*
X009808Y003107D01*
X009884Y003075D01*
X009820Y003029D01*
X009762Y002971D01*
X009714Y002905D01*
X009677Y002832D01*
X009652Y002754D01*
X009640Y002682D01*
X010109Y002682D01*
X010109Y002582D01*
X010209Y002582D01*
X010209Y002114D01*
X010281Y002125D01*
X010359Y002150D01*
X010432Y002188D01*
X010498Y002236D01*
X010556Y002294D01*
X010604Y002360D01*
X010641Y002433D01*
X010646Y002448D01*
X010652Y002411D01*
X010677Y002333D01*
X010714Y002260D01*
X010762Y002194D01*
X010820Y002136D01*
X010886Y002088D01*
X010959Y002050D01*
X011037Y002025D01*
X011109Y002014D01*
X011109Y002482D01*
X011209Y002482D01*
X011209Y002014D01*
X011281Y002025D01*
X011359Y002050D01*
X011432Y002088D01*
X011498Y002136D01*
X011556Y002194D01*
X011604Y002260D01*
X011641Y002333D01*
X011666Y002411D01*
X011672Y002448D01*
X011677Y002433D01*
X011714Y002360D01*
X011762Y002294D01*
X011820Y002236D01*
X011886Y002188D01*
X011959Y002150D01*
X012037Y002125D01*
X012109Y002114D01*
X012109Y002582D01*
X012209Y002582D01*
X012209Y002114D01*
X012281Y002125D01*
X012359Y002150D01*
X012432Y002188D01*
X012498Y002236D01*
X012556Y002294D01*
X012604Y002360D01*
X012641Y002433D01*
X012646Y002448D01*
X012652Y002411D01*
X012677Y002333D01*
X012714Y002260D01*
X012762Y002194D01*
X012820Y002136D01*
X012886Y002088D01*
X012959Y002050D01*
X013037Y002025D01*
X013109Y002014D01*
X013109Y002482D01*
X013209Y002482D01*
X013209Y002014D01*
X013281Y002025D01*
X013359Y002050D01*
X013432Y002088D01*
X013498Y002136D01*
X013556Y002194D01*
X013604Y002260D01*
X013641Y002333D01*
X013666Y002411D01*
X013672Y002448D01*
X013677Y002433D01*
X013714Y002360D01*
X013762Y002294D01*
X013820Y002236D01*
X013886Y002188D01*
X013959Y002150D01*
X014037Y002125D01*
X014109Y002114D01*
X014109Y002582D01*
X014209Y002582D01*
X014209Y002114D01*
X014281Y002125D01*
X014359Y002150D01*
X014432Y002188D01*
X014498Y002236D01*
X014556Y002294D01*
X014604Y002360D01*
X014641Y002433D01*
X014646Y002448D01*
X014652Y002411D01*
X014677Y002333D01*
X014714Y002260D01*
X014762Y002194D01*
X014820Y002136D01*
X014886Y002088D01*
X014959Y002050D01*
X015037Y002025D01*
X015109Y002014D01*
X015109Y002482D01*
X015209Y002482D01*
X015209Y002014D01*
X015281Y002025D01*
X015359Y002050D01*
X015432Y002088D01*
X015498Y002136D01*
X015556Y002194D01*
X015604Y002260D01*
X015641Y002333D01*
X015666Y002411D01*
X015672Y002448D01*
X015677Y002433D01*
X015714Y002360D01*
X015762Y002294D01*
X015820Y002236D01*
X015886Y002188D01*
X015959Y002150D01*
X016037Y002125D01*
X016109Y002114D01*
X016109Y002582D01*
X016209Y002582D01*
X016209Y002114D01*
X016281Y002125D01*
X016359Y002150D01*
X016432Y002188D01*
X016498Y002236D01*
X016556Y002294D01*
X016604Y002360D01*
X016641Y002433D01*
X016646Y002448D01*
X016652Y002411D01*
X016677Y002333D01*
X016714Y002260D01*
X016762Y002194D01*
X016820Y002136D01*
X016886Y002088D01*
X016959Y002050D01*
X017037Y002025D01*
X017109Y002014D01*
X017109Y002482D01*
X017209Y002482D01*
X017209Y002014D01*
X017281Y002025D01*
X017359Y002050D01*
X017432Y002088D01*
X017498Y002136D01*
X017556Y002194D01*
X017604Y002260D01*
X017641Y002333D01*
X017666Y002411D01*
X017672Y002448D01*
X017677Y002433D01*
X017714Y002360D01*
X017762Y002294D01*
X017820Y002236D01*
X017886Y002188D01*
X017959Y002150D01*
X018037Y002125D01*
X018109Y002114D01*
X018109Y002582D01*
X018209Y002582D01*
X018209Y002114D01*
X018281Y002125D01*
X018359Y002150D01*
X018432Y002188D01*
X018498Y002236D01*
X018556Y002294D01*
X018604Y002360D01*
X018641Y002433D01*
X018646Y002448D01*
X018652Y002411D01*
X018677Y002333D01*
X018714Y002260D01*
X018762Y002194D01*
X018820Y002136D01*
X018886Y002088D01*
X018959Y002050D01*
X019037Y002025D01*
X019109Y002014D01*
X019109Y002482D01*
X019209Y002482D01*
X019209Y002014D01*
X019281Y002025D01*
X019359Y002050D01*
X019432Y002088D01*
X019498Y002136D01*
X019556Y002194D01*
X019604Y002260D01*
X019641Y002333D01*
X019666Y002411D01*
X019678Y002482D01*
X019209Y002482D01*
X019209Y002582D01*
X019678Y002582D01*
X019666Y002654D01*
X019641Y002732D01*
X019604Y002805D01*
X019556Y002871D01*
X019498Y002929D01*
X019434Y002975D01*
X019510Y003007D01*
X019685Y003181D01*
X019779Y003409D01*
X019779Y003656D01*
X019685Y003884D01*
X019561Y004007D01*
X019685Y004131D01*
X019779Y004359D01*
X019779Y004606D01*
X019768Y004633D01*
X020382Y005247D01*
X020429Y005361D01*
X020429Y005484D01*
X020429Y006341D01*
X020459Y006353D01*
X020608Y006502D01*
X020659Y006625D01*
X020710Y006502D01*
X020859Y006353D01*
X021054Y006272D01*
X021264Y006272D01*
X021459Y006353D01*
X021608Y006502D01*
X021689Y006697D01*
X021689Y007468D01*
X021608Y007663D01*
X021469Y007802D01*
X021469Y008414D01*
X022135Y009080D01*
X022222Y009167D01*
X022269Y009281D01*
X022269Y009374D01*
X023127Y010232D01*
X023257Y010232D01*
X023381Y010232D01*
X023495Y010280D01*
X023649Y010434D01*
X023649Y009402D01*
X023646Y009408D01*
X023485Y009570D01*
X023273Y009657D01*
X023045Y009657D01*
X022833Y009570D01*
X022672Y009408D01*
X022584Y009197D01*
X022584Y008968D01*
X022672Y008757D01*
X022833Y008595D01*
X022904Y008566D01*
X021936Y007598D01*
X021889Y007484D01*
X021889Y007361D01*
X021889Y006751D01*
X020416Y005278D01*
X020369Y005164D01*
X020369Y005154D01*
X020258Y005108D01*
X020083Y004934D01*
X019989Y004706D01*
X019989Y004459D01*
X020083Y004231D01*
X020258Y004057D01*
X020292Y004042D01*
X020183Y003934D01*
X020089Y003706D01*
X020089Y003459D01*
X020183Y003231D01*
X020292Y003122D01*
X020258Y003108D01*
X020083Y002934D01*
X019989Y002706D01*
X019989Y002459D01*
X020083Y002231D01*
X020258Y002057D01*
X020486Y001962D01*
X020732Y001962D01*
X020960Y002057D01*
X021135Y002231D01*
X021229Y002459D01*
X021229Y002706D01*
X021135Y002934D01*
X021026Y003042D01*
X021060Y003057D01*
X021235Y003231D01*
X021329Y003459D01*
X021329Y003706D01*
X021235Y003934D01*
X021060Y004108D01*
X021026Y004122D01*
X021135Y004231D01*
X021229Y004459D01*
X021229Y004706D01*
X021135Y004934D01*
X021042Y005027D01*
X022375Y006360D01*
X022462Y006447D01*
X022509Y006561D01*
X022509Y007294D01*
X024009Y008794D01*
X024009Y001752D01*
X001329Y001752D01*
X001329Y025408D01*
X016315Y025408D01*
X016079Y025173D01*
X016079Y024692D01*
X016264Y024507D01*
X016079Y024323D01*
X016079Y023842D01*
X016335Y023587D01*
X016179Y023431D01*
X016179Y023262D01*
X016629Y023262D01*
X013229Y023262D01*
X013229Y023360D02*
X016179Y023360D01*
X016207Y023459D02*
X013229Y023459D01*
X013229Y023516D02*
X013142Y023725D01*
X012982Y023886D01*
X012772Y023972D01*
X012546Y023972D01*
X012336Y023886D01*
X012176Y023725D01*
X012104Y023553D01*
X012095Y023583D01*
X012061Y023649D01*
X012018Y023709D01*
X011993Y023733D01*
X012124Y023787D01*
X012354Y024018D01*
X012479Y024319D01*
X012479Y024645D01*
X012354Y024947D01*
X012124Y025177D01*
X011822Y025302D01*
X011496Y025302D01*
X011195Y025177D01*
X010964Y024947D01*
X010839Y024645D01*
X010839Y024319D01*
X010964Y024018D01*
X011195Y023787D01*
X011325Y023733D01*
X011301Y023709D01*
X011257Y023649D01*
X011224Y023583D01*
X011214Y023553D01*
X011142Y023725D01*
X010982Y023886D01*
X010772Y023972D01*
X010546Y023972D01*
X010336Y023886D01*
X010176Y023725D01*
X010089Y023516D01*
X010089Y023332D01*
X010021Y023332D01*
X009897Y023332D01*
X009783Y023285D01*
X007156Y020657D01*
X006784Y020657D01*
X006692Y020619D01*
X006622Y020549D01*
X006584Y020457D01*
X006584Y019708D01*
X006622Y019616D01*
X005279Y019616D01*
X005279Y019706D02*
X005185Y019934D01*
X005036Y020082D01*
X005185Y020231D01*
X005279Y020459D01*
X005279Y020706D01*
X005185Y020934D01*
X005010Y021108D01*
X004782Y021202D01*
X004697Y021202D01*
X004677Y021223D01*
X004685Y021231D01*
X004779Y021459D01*
X004779Y021706D01*
X004685Y021934D01*
X004510Y022108D01*
X004282Y022202D01*
X004036Y022202D01*
X003808Y022108D01*
X003633Y021934D01*
X003539Y021706D01*
X003539Y021459D01*
X003633Y021231D01*
X003808Y021057D01*
X004036Y020962D01*
X004061Y020962D01*
X004121Y020902D01*
X004039Y020706D01*
X004039Y020459D01*
X004133Y020231D01*
X004282Y020082D01*
X004133Y019934D01*
X004039Y019706D01*
X004039Y019459D01*
X004133Y019231D01*
X004308Y019057D01*
X004536Y018962D01*
X004782Y018962D01*
X005010Y019057D01*
X005185Y019231D01*
X005279Y019459D01*
X005279Y019706D01*
X005275Y019714D02*
X006584Y019714D01*
X006584Y019813D02*
X005235Y019813D01*
X005194Y019911D02*
X006584Y019911D01*
X006584Y020010D02*
X005108Y020010D01*
X005062Y020109D02*
X006584Y020109D01*
X006584Y020207D02*
X005161Y020207D01*
X005215Y020306D02*
X006584Y020306D01*
X006584Y020404D02*
X005256Y020404D01*
X005279Y020503D02*
X006603Y020503D01*
X006674Y020601D02*
X005279Y020601D01*
X005279Y020700D02*
X007198Y020700D01*
X007297Y020798D02*
X005241Y020798D01*
X005200Y020897D02*
X007395Y020897D01*
X007362Y020995D02*
X007494Y020995D01*
X007510Y021057D02*
X007685Y021231D01*
X007779Y021459D01*
X007779Y021706D01*
X007762Y021747D01*
X008375Y022360D01*
X008462Y022447D01*
X008509Y022561D01*
X008509Y023462D01*
X008629Y023462D01*
X008721Y023500D01*
X008791Y023571D01*
X008829Y023663D01*
X008829Y024502D01*
X008791Y024594D01*
X008721Y024664D01*
X008629Y024702D01*
X007789Y024702D01*
X007697Y024664D01*
X007627Y024594D01*
X007589Y024502D01*
X007589Y024479D01*
X007460Y024608D01*
X007232Y024702D01*
X006986Y024702D01*
X006758Y024608D01*
X006583Y024434D01*
X006489Y024206D01*
X006489Y023959D01*
X006583Y023731D01*
X006758Y023557D01*
X006986Y023462D01*
X007232Y023462D01*
X007460Y023557D01*
X007589Y023686D01*
X007589Y023663D01*
X007627Y023571D01*
X007697Y023500D01*
X007789Y023462D01*
X007889Y023462D01*
X007889Y022751D01*
X007324Y022185D01*
X007282Y022202D01*
X007036Y022202D01*
X006808Y022108D01*
X006633Y021934D01*
X006539Y021706D01*
X006539Y021459D01*
X006633Y021231D01*
X006808Y021057D01*
X007036Y020962D01*
X007282Y020962D01*
X007510Y021057D01*
X007547Y021094D02*
X007592Y021094D01*
X007646Y021192D02*
X007691Y021192D01*
X007709Y021291D02*
X007789Y021291D01*
X007750Y021390D02*
X007888Y021390D01*
X007986Y021488D02*
X007779Y021488D01*
X007779Y021587D02*
X008085Y021587D01*
X008184Y021685D02*
X007779Y021685D01*
X007799Y021784D02*
X008282Y021784D01*
X008381Y021882D02*
X007897Y021882D01*
X007996Y021981D02*
X008479Y021981D01*
X008578Y022079D02*
X008094Y022079D01*
X008193Y022178D02*
X008676Y022178D01*
X008775Y022276D02*
X008291Y022276D01*
X008390Y022375D02*
X008873Y022375D01*
X008972Y022474D02*
X008473Y022474D01*
X008509Y022572D02*
X009070Y022572D01*
X009169Y022671D02*
X008509Y022671D01*
X008509Y022769D02*
X009267Y022769D01*
X009366Y022868D02*
X008509Y022868D01*
X008509Y022966D02*
X009465Y022966D01*
X009563Y023065D02*
X008509Y023065D01*
X008509Y023163D02*
X009662Y023163D01*
X009760Y023262D02*
X008509Y023262D01*
X008509Y023360D02*
X010089Y023360D01*
X010089Y023459D02*
X008509Y023459D01*
X008778Y023558D02*
X010106Y023558D01*
X010147Y023656D02*
X008826Y023656D01*
X008829Y023755D02*
X010205Y023755D01*
X010304Y023853D02*
X008829Y023853D01*
X008829Y023952D02*
X010496Y023952D01*
X010822Y023952D02*
X011030Y023952D01*
X011014Y023853D02*
X011129Y023853D01*
X011113Y023755D02*
X011273Y023755D01*
X011262Y023656D02*
X011171Y023656D01*
X011212Y023558D02*
X011215Y023558D01*
X010950Y024050D02*
X008829Y024050D01*
X008829Y024149D02*
X010910Y024149D01*
X010869Y024247D02*
X008829Y024247D01*
X008829Y024346D02*
X010839Y024346D01*
X010839Y024444D02*
X008829Y024444D01*
X008812Y024543D02*
X010839Y024543D01*
X010839Y024641D02*
X008743Y024641D01*
X007889Y023459D02*
X003378Y023459D01*
X003390Y023469D02*
X003390Y023469D01*
X003556Y023756D01*
X003614Y024082D01*
X003556Y024409D01*
X003390Y024696D01*
X003136Y024909D01*
X002825Y025022D01*
X002825Y025022D01*
X002746Y025022D01*
X002659Y025022D01*
X002653Y025022D01*
X002572Y025022D01*
X002493Y025022D01*
X002182Y024909D01*
X002182Y024909D01*
X001928Y024696D01*
X001928Y024696D01*
X001928Y024696D01*
X001762Y024409D01*
X001762Y024409D01*
X001705Y024082D01*
X001762Y023756D01*
X001762Y023756D01*
X001928Y023469D01*
X002182Y023256D01*
X002493Y023142D01*
X002572Y023142D01*
X002659Y023142D01*
X002825Y023142D01*
X003136Y023256D01*
X003136Y023256D01*
X003390Y023469D01*
X003390Y023469D01*
X003441Y023558D02*
X004257Y023558D01*
X004258Y023557D02*
X004486Y023462D01*
X004732Y023462D01*
X004960Y023557D01*
X005089Y023686D01*
X005089Y023663D01*
X005127Y023571D01*
X005197Y023500D01*
X005289Y023462D01*
X006129Y023462D01*
X006221Y023500D01*
X006291Y023571D01*
X006329Y023663D01*
X006329Y024502D01*
X006291Y024594D01*
X006221Y024664D01*
X006129Y024702D01*
X005289Y024702D01*
X005197Y024664D01*
X005127Y024594D01*
X005089Y024502D01*
X005089Y024479D01*
X004960Y024608D01*
X004732Y024702D01*
X004486Y024702D01*
X004258Y024608D01*
X004083Y024434D01*
X003989Y024206D01*
X003989Y023959D01*
X004083Y023731D01*
X004258Y023557D01*
X004159Y023656D02*
X003498Y023656D01*
X003555Y023755D02*
X004074Y023755D01*
X004033Y023853D02*
X003573Y023853D01*
X003556Y023756D02*
X003556Y023756D01*
X003590Y023952D02*
X003992Y023952D01*
X003989Y024050D02*
X003608Y024050D01*
X003614Y024082D02*
X003614Y024082D01*
X003602Y024149D02*
X003989Y024149D01*
X004006Y024247D02*
X003584Y024247D01*
X003567Y024346D02*
X004047Y024346D01*
X004094Y024444D02*
X003535Y024444D01*
X003556Y024409D02*
X003556Y024409D01*
X003479Y024543D02*
X004193Y024543D01*
X004339Y024641D02*
X003422Y024641D01*
X003390Y024696D02*
X003390Y024696D01*
X003338Y024740D02*
X010878Y024740D01*
X010919Y024839D02*
X003220Y024839D01*
X003136Y024909D02*
X003136Y024909D01*
X003059Y024937D02*
X010960Y024937D01*
X011053Y025036D02*
X001329Y025036D01*
X001329Y025134D02*
X011151Y025134D01*
X011328Y025233D02*
X001329Y025233D01*
X001329Y025331D02*
X016238Y025331D01*
X016139Y025233D02*
X011990Y025233D01*
X012167Y025134D02*
X016079Y025134D01*
X016079Y025036D02*
X012265Y025036D01*
X012358Y024937D02*
X016079Y024937D01*
X016079Y024839D02*
X012399Y024839D01*
X012440Y024740D02*
X016079Y024740D01*
X016130Y024641D02*
X012479Y024641D01*
X012479Y024543D02*
X016228Y024543D01*
X016201Y024444D02*
X012479Y024444D01*
X012479Y024346D02*
X016102Y024346D01*
X016079Y024247D02*
X012449Y024247D01*
X012408Y024149D02*
X016079Y024149D01*
X016079Y024050D02*
X012368Y024050D01*
X012288Y023952D02*
X012496Y023952D01*
X012304Y023853D02*
X012189Y023853D01*
X012205Y023755D02*
X012045Y023755D01*
X012056Y023656D02*
X012147Y023656D01*
X012106Y023558D02*
X012103Y023558D01*
X011709Y023032D02*
X011609Y023032D01*
X011609Y022294D01*
X011549Y022304D01*
X011479Y022327D01*
X011413Y022360D01*
X011353Y022404D01*
X011301Y022456D01*
X011257Y022516D01*
X011224Y022582D01*
X011214Y022612D01*
X011142Y022439D01*
X010982Y022279D01*
X010772Y022192D01*
X010546Y022192D01*
X010336Y022279D01*
X010176Y022439D01*
X010089Y022649D01*
X010089Y022712D01*
X010087Y022712D01*
X007734Y020359D01*
X007734Y020294D01*
X007753Y020331D01*
X007797Y020392D01*
X007850Y020445D01*
X007910Y020489D01*
X007977Y020523D01*
X008048Y020546D01*
X008122Y020557D01*
X008140Y020557D01*
X008140Y020101D01*
X008178Y020101D01*
X008634Y020101D01*
X008634Y020120D01*
X008622Y020194D01*
X008599Y020265D01*
X008565Y020331D01*
X008521Y020392D01*
X008468Y020445D01*
X008408Y020489D01*
X008341Y020523D01*
X008270Y020546D01*
X008196Y020557D01*
X008178Y020557D01*
X008178Y020101D01*
X008178Y020063D01*
X008178Y019607D01*
X008196Y019607D01*
X008270Y019619D01*
X008341Y019642D01*
X008408Y019676D01*
X008468Y019720D01*
X008521Y019773D01*
X008565Y019833D01*
X008599Y019900D01*
X008622Y019971D01*
X008634Y020045D01*
X008634Y020063D01*
X008178Y020063D01*
X008140Y020063D01*
X008140Y019607D01*
X008122Y019607D01*
X008048Y019619D01*
X007977Y019642D01*
X007910Y019676D01*
X007850Y019720D01*
X007797Y019773D01*
X007753Y019833D01*
X007734Y019870D01*
X007734Y019708D01*
X007696Y019616D01*
X008068Y019616D01*
X008140Y019616D02*
X008178Y019616D01*
X008250Y019616D02*
X012184Y019616D01*
X012184Y019620D02*
X012184Y019601D01*
X012640Y019601D01*
X012640Y020057D01*
X012622Y020057D01*
X012548Y020046D01*
X012477Y020023D01*
X012410Y019989D01*
X012350Y019945D01*
X012297Y019892D01*
X012253Y019831D01*
X012219Y019765D01*
X012196Y019694D01*
X012184Y019620D01*
X012203Y019714D02*
X008461Y019714D01*
X008550Y019813D02*
X012243Y019813D01*
X012316Y019911D02*
X008603Y019911D01*
X008628Y020010D02*
X010278Y020010D01*
X010284Y020007D02*
X011034Y020007D01*
X011126Y020045D01*
X011196Y020116D01*
X011234Y020208D01*
X011234Y020370D01*
X011253Y020333D01*
X011297Y020273D01*
X011350Y020220D01*
X011410Y020176D01*
X011477Y020142D01*
X011548Y020119D01*
X011622Y020107D01*
X011640Y020107D01*
X011640Y020563D01*
X011678Y020563D01*
X011678Y020107D01*
X011696Y020107D01*
X011770Y020119D01*
X011841Y020142D01*
X011908Y020176D01*
X011968Y020220D01*
X012021Y020273D01*
X012065Y020333D01*
X012099Y020400D01*
X012122Y020471D01*
X012134Y020545D01*
X012134Y020563D01*
X011678Y020563D01*
X011678Y020601D01*
X015263Y020601D01*
X015308Y020557D02*
X015448Y020499D01*
X015420Y020479D01*
X015362Y020421D01*
X015314Y020355D01*
X015277Y020282D01*
X015252Y020204D01*
X015240Y020132D01*
X015709Y020132D01*
X015709Y020032D01*
X015240Y020032D01*
X015252Y019961D01*
X015277Y019883D01*
X015314Y019810D01*
X015362Y019744D01*
X015420Y019686D01*
X015448Y019666D01*
X015308Y019608D01*
X015133Y019434D01*
X015039Y019206D01*
X015039Y018959D01*
X015133Y018731D01*
X015308Y018557D01*
X015342Y018542D01*
X015233Y018434D01*
X015139Y018206D01*
X015139Y017959D01*
X015233Y017731D01*
X015342Y017622D01*
X015308Y017608D01*
X015133Y017434D01*
X015039Y017206D01*
X015039Y016959D01*
X015133Y016731D01*
X015308Y016557D01*
X015536Y016462D01*
X015782Y016462D01*
X016010Y016557D01*
X016185Y016731D01*
X016279Y016959D01*
X016279Y017206D01*
X016185Y017434D01*
X016076Y017542D01*
X016110Y017557D01*
X016285Y017731D01*
X016379Y017959D01*
X016379Y018206D01*
X016285Y018434D01*
X016110Y018608D01*
X016076Y018622D01*
X016185Y018731D01*
X016279Y018959D01*
X016279Y019206D01*
X016185Y019434D01*
X016010Y019608D01*
X015990Y019616D01*
X016032Y019638D01*
X016098Y019686D01*
X016156Y019744D01*
X016204Y019810D01*
X016241Y019883D01*
X016266Y019961D01*
X016278Y020032D01*
X015809Y020032D01*
X015809Y020132D01*
X016278Y020132D01*
X016266Y020204D01*
X016241Y020282D01*
X016204Y020355D01*
X016156Y020421D01*
X016098Y020479D01*
X016032Y020527D01*
X015990Y020548D01*
X016010Y020557D01*
X016185Y020731D01*
X016279Y020959D01*
X016279Y021206D01*
X016185Y021434D01*
X016076Y021542D01*
X016110Y021557D01*
X016285Y021731D01*
X016379Y021959D01*
X016379Y022206D01*
X016285Y022434D01*
X016110Y022608D01*
X015882Y022702D01*
X015636Y022702D01*
X015408Y022608D01*
X015233Y022434D01*
X015139Y022206D01*
X015139Y021959D01*
X015233Y021731D01*
X015342Y021622D01*
X015308Y021608D01*
X015133Y021434D01*
X015039Y021206D01*
X015039Y020959D01*
X015133Y020731D01*
X015308Y020557D01*
X015438Y020503D02*
X012127Y020503D01*
X012134Y020601D02*
X012134Y020620D01*
X012122Y020694D01*
X012099Y020765D01*
X012065Y020831D01*
X012021Y020892D01*
X011968Y020945D01*
X011908Y020989D01*
X011841Y021023D01*
X011770Y021046D01*
X011696Y021057D01*
X011678Y021057D01*
X011678Y020601D01*
X012134Y020601D01*
X012120Y020700D02*
X015165Y020700D01*
X015106Y020798D02*
X012082Y020798D01*
X012016Y020897D02*
X015065Y020897D01*
X015039Y020995D02*
X011895Y020995D01*
X011678Y020995D02*
X011640Y020995D01*
X011640Y021057D02*
X011622Y021057D01*
X011548Y021046D01*
X011477Y021023D01*
X011410Y020989D01*
X011350Y020945D01*
X011297Y020892D01*
X011253Y020831D01*
X011234Y020794D01*
X011234Y020957D01*
X011196Y021049D01*
X011126Y021119D01*
X011034Y021157D01*
X010284Y021157D01*
X010192Y021119D01*
X010122Y021049D01*
X010084Y020957D01*
X010084Y020208D01*
X010122Y020116D01*
X010192Y020045D01*
X010284Y020007D01*
X010129Y020109D02*
X008634Y020109D01*
X008618Y020207D02*
X010084Y020207D01*
X010084Y020306D02*
X008578Y020306D01*
X008509Y020404D02*
X010084Y020404D01*
X010084Y020503D02*
X008380Y020503D01*
X008178Y020503D02*
X008140Y020503D01*
X008140Y020404D02*
X008178Y020404D01*
X008178Y020306D02*
X008140Y020306D01*
X008140Y020207D02*
X008178Y020207D01*
X008178Y020109D02*
X008140Y020109D01*
X008140Y020010D02*
X008178Y020010D01*
X008178Y019911D02*
X008140Y019911D01*
X008140Y019813D02*
X008178Y019813D01*
X008178Y019714D02*
X008140Y019714D01*
X007857Y019714D02*
X007734Y019714D01*
X007734Y019813D02*
X007768Y019813D01*
X007696Y019616D02*
X007626Y019545D01*
X007534Y019507D01*
X006784Y019507D01*
X006692Y019545D01*
X006622Y019616D01*
X006760Y019517D02*
X005279Y019517D01*
X005262Y019419D02*
X012213Y019419D01*
X012188Y019517D02*
X007558Y019517D01*
X007734Y020306D02*
X007740Y020306D01*
X007779Y020404D02*
X007809Y020404D01*
X007878Y020503D02*
X007938Y020503D01*
X007976Y020601D02*
X010084Y020601D01*
X010084Y020700D02*
X008075Y020700D01*
X008173Y020798D02*
X010084Y020798D01*
X010084Y020897D02*
X008272Y020897D01*
X008370Y020995D02*
X010100Y020995D01*
X010167Y021094D02*
X008469Y021094D01*
X008568Y021192D02*
X015039Y021192D01*
X015039Y021094D02*
X011151Y021094D01*
X011218Y020995D02*
X011423Y020995D01*
X011302Y020897D02*
X011234Y020897D01*
X011234Y020798D02*
X011236Y020798D01*
X011640Y020798D02*
X011678Y020798D01*
X011678Y020700D02*
X011640Y020700D01*
X011640Y020601D02*
X011640Y021057D01*
X011640Y020897D02*
X011678Y020897D01*
X011678Y020601D02*
X011640Y020601D01*
X011640Y020503D02*
X011678Y020503D01*
X011678Y020404D02*
X011640Y020404D01*
X011640Y020306D02*
X011678Y020306D01*
X011678Y020207D02*
X011640Y020207D01*
X011640Y020109D02*
X011678Y020109D01*
X011704Y020109D02*
X015709Y020109D01*
X015809Y020109D02*
X018209Y020109D01*
X018209Y020132D02*
X018209Y020032D01*
X017740Y020032D01*
X017752Y019961D01*
X017777Y019883D01*
X017814Y019810D01*
X017862Y019744D01*
X017920Y019686D01*
X017948Y019666D01*
X017808Y019608D01*
X017633Y019434D01*
X017539Y019206D01*
X017539Y018959D01*
X017633Y018731D01*
X017808Y018557D01*
X017842Y018542D01*
X017733Y018434D01*
X017639Y018206D01*
X017639Y017959D01*
X017733Y017731D01*
X017842Y017622D01*
X017808Y017608D01*
X017633Y017434D01*
X017539Y017206D01*
X017539Y016959D01*
X017633Y016731D01*
X017808Y016557D01*
X018036Y016462D01*
X018282Y016462D01*
X018510Y016557D01*
X018685Y016731D01*
X018779Y016959D01*
X018779Y017206D01*
X018685Y017434D01*
X018576Y017542D01*
X018610Y017557D01*
X018785Y017731D01*
X018879Y017959D01*
X018879Y018206D01*
X018785Y018434D01*
X018610Y018608D01*
X018576Y018622D01*
X018685Y018731D01*
X018779Y018959D01*
X018779Y019206D01*
X018685Y019434D01*
X018510Y019608D01*
X018490Y019616D01*
X018532Y019638D01*
X018598Y019686D01*
X018656Y019744D01*
X018704Y019810D01*
X018741Y019883D01*
X018766Y019961D01*
X018778Y020032D01*
X018309Y020032D01*
X018309Y020132D01*
X018778Y020132D01*
X018766Y020204D01*
X018741Y020282D01*
X018704Y020355D01*
X018656Y020421D01*
X018598Y020479D01*
X018532Y020527D01*
X018490Y020548D01*
X018510Y020557D01*
X018685Y020731D01*
X018779Y020959D01*
X018779Y021206D01*
X018685Y021434D01*
X018576Y021542D01*
X018610Y021557D01*
X018785Y021731D01*
X018879Y021959D01*
X018879Y022206D01*
X018785Y022434D01*
X018610Y022608D01*
X018382Y022702D01*
X018136Y022702D01*
X017908Y022608D01*
X017733Y022434D01*
X017639Y022206D01*
X017639Y021959D01*
X017733Y021731D01*
X017842Y021622D01*
X017808Y021608D01*
X017633Y021434D01*
X017539Y021206D01*
X017539Y020959D01*
X017633Y020731D01*
X017808Y020557D01*
X017948Y020499D01*
X017920Y020479D01*
X017862Y020421D01*
X017814Y020355D01*
X017777Y020282D01*
X017752Y020204D01*
X017740Y020132D01*
X018209Y020132D01*
X018309Y020109D02*
X020709Y020109D01*
X020809Y020109D02*
X021409Y020109D01*
X021409Y020010D02*
X021274Y020010D01*
X021250Y019911D02*
X021409Y019911D01*
X021409Y019813D02*
X021205Y019813D01*
X021126Y019714D02*
X021409Y019714D01*
X021409Y019616D02*
X020991Y019616D01*
X021101Y019517D02*
X021409Y019517D01*
X021409Y019419D02*
X021191Y019419D01*
X021232Y019320D02*
X021409Y019320D01*
X021409Y019222D02*
X021272Y019222D01*
X021279Y019123D02*
X021409Y019123D01*
X021409Y019025D02*
X021279Y019025D01*
X021265Y018926D02*
X021409Y018926D01*
X021409Y018827D02*
X021224Y018827D01*
X021182Y018729D02*
X021409Y018729D01*
X021409Y018630D02*
X021084Y018630D01*
X021186Y018532D02*
X021409Y018532D01*
X021409Y018433D02*
X021285Y018433D01*
X021326Y018335D02*
X021409Y018335D01*
X021409Y018236D02*
X021366Y018236D01*
X021379Y018138D02*
X021409Y018138D01*
X021409Y018039D02*
X021379Y018039D01*
X021371Y017941D02*
X021409Y017941D01*
X021409Y017842D02*
X021331Y017842D01*
X021290Y017743D02*
X021409Y017743D01*
X021409Y017645D02*
X021198Y017645D01*
X021085Y017546D02*
X021409Y017546D01*
X021409Y017448D02*
X021170Y017448D01*
X021220Y017349D02*
X021414Y017349D01*
X021455Y017251D02*
X021260Y017251D01*
X021279Y017152D02*
X021551Y017152D01*
X021649Y017054D02*
X021279Y017054D01*
X021277Y016955D02*
X021748Y016955D01*
X021846Y016857D02*
X021237Y016857D01*
X021196Y016758D02*
X021945Y016758D01*
X022044Y016659D02*
X021113Y016659D01*
X021014Y016561D02*
X022142Y016561D01*
X022241Y016462D02*
X020782Y016462D01*
X020536Y016462D02*
X018282Y016462D01*
X018036Y016462D02*
X015782Y016462D01*
X015536Y016462D02*
X012877Y016462D01*
X012976Y016364D02*
X022339Y016364D01*
X022438Y016265D02*
X013074Y016265D01*
X013173Y016167D02*
X022536Y016167D01*
X022635Y016068D02*
X013272Y016068D01*
X013370Y015970D02*
X022733Y015970D01*
X022832Y015871D02*
X022316Y015871D01*
X022498Y015773D02*
X022820Y015773D01*
X022721Y015674D02*
X022597Y015674D01*
X022644Y015576D02*
X022674Y015576D01*
X023314Y016265D02*
X024009Y016265D01*
X024009Y016167D02*
X023413Y016167D01*
X023511Y016068D02*
X024009Y016068D01*
X024009Y015970D02*
X023610Y015970D01*
X023709Y015871D02*
X024009Y015871D01*
X024009Y015773D02*
X023807Y015773D01*
X023906Y015674D02*
X024009Y015674D01*
X024004Y015576D02*
X024009Y015576D01*
X024009Y015571D02*
X023117Y016462D01*
X023282Y016462D01*
X023510Y016557D01*
X023685Y016731D01*
X023779Y016959D01*
X023779Y017206D01*
X023685Y017434D01*
X023576Y017542D01*
X023610Y017557D01*
X023785Y017731D01*
X023879Y017959D01*
X023879Y018206D01*
X023785Y018434D01*
X023610Y018608D01*
X023576Y018622D01*
X023685Y018731D01*
X023779Y018959D01*
X023779Y019206D01*
X023685Y019434D01*
X023510Y019608D01*
X023490Y019616D01*
X023532Y019638D01*
X023598Y019686D01*
X023656Y019744D01*
X023704Y019810D01*
X023741Y019883D01*
X023766Y019961D01*
X023778Y020032D01*
X023309Y020032D01*
X023309Y020132D01*
X023778Y020132D01*
X023766Y020204D01*
X023741Y020282D01*
X023704Y020355D01*
X023656Y020421D01*
X023598Y020479D01*
X023532Y020527D01*
X023490Y020548D01*
X023510Y020557D01*
X023685Y020731D01*
X023779Y020959D01*
X023779Y021206D01*
X023685Y021434D01*
X023576Y021542D01*
X023610Y021557D01*
X023785Y021731D01*
X023879Y021959D01*
X023879Y022206D01*
X023785Y022434D01*
X023610Y022608D01*
X023382Y022702D01*
X023136Y022702D01*
X022908Y022608D01*
X022733Y022434D01*
X022639Y022206D01*
X022639Y021959D01*
X022733Y021731D01*
X022842Y021622D01*
X022808Y021608D01*
X022633Y021434D01*
X022539Y021206D01*
X022539Y020959D01*
X022633Y020731D01*
X022808Y020557D01*
X022948Y020499D01*
X022920Y020479D01*
X022862Y020421D01*
X022814Y020355D01*
X022777Y020282D01*
X022752Y020204D01*
X022740Y020132D01*
X023209Y020132D01*
X023209Y020032D01*
X022740Y020032D01*
X022752Y019961D01*
X022777Y019883D01*
X022814Y019810D01*
X022862Y019744D01*
X022920Y019686D01*
X022948Y019666D01*
X022808Y019608D01*
X022633Y019434D01*
X022539Y019206D01*
X022539Y018959D01*
X022633Y018731D01*
X022808Y018557D01*
X022842Y018542D01*
X022733Y018434D01*
X022639Y018206D01*
X022639Y017959D01*
X022733Y017731D01*
X022842Y017622D01*
X022808Y017608D01*
X022633Y017434D01*
X022539Y017206D01*
X022539Y017041D01*
X022029Y017551D01*
X022029Y020241D01*
X022029Y020364D01*
X021982Y020478D01*
X021279Y021181D01*
X021279Y021206D01*
X021185Y021434D01*
X021076Y021542D01*
X021110Y021557D01*
X021285Y021731D01*
X021379Y021959D01*
X021379Y022206D01*
X021285Y022434D01*
X021110Y022608D01*
X020882Y022702D01*
X020636Y022702D01*
X020408Y022608D01*
X020233Y022434D01*
X020173Y022287D01*
X018989Y023471D01*
X018989Y023507D01*
X019034Y023507D01*
X019126Y023545D01*
X019196Y023616D01*
X019234Y023708D01*
X019234Y023870D01*
X019234Y023853D02*
X019243Y023853D01*
X019234Y023755D02*
X019315Y023755D01*
X019213Y023656D02*
X019449Y023656D01*
X019640Y023656D02*
X019678Y023656D01*
X019678Y023755D02*
X019640Y023755D01*
X019640Y023853D02*
X019678Y023853D01*
X019678Y023952D02*
X019640Y023952D01*
X019640Y024050D02*
X019678Y024050D01*
X019678Y024149D02*
X019640Y024149D01*
X019640Y024247D02*
X019678Y024247D01*
X019678Y024346D02*
X019640Y024346D01*
X019640Y024444D02*
X019678Y024444D01*
X019678Y024543D02*
X019640Y024543D01*
X019540Y024543D02*
X019198Y024543D01*
X019234Y024444D02*
X019349Y024444D01*
X019263Y024346D02*
X019234Y024346D01*
X019072Y024641D02*
X020584Y024641D01*
X020584Y024697D02*
X020584Y024468D01*
X020672Y024257D01*
X020833Y024095D01*
X020994Y024028D01*
X020977Y024023D01*
X020910Y023989D01*
X020850Y023945D01*
X020797Y023892D01*
X020753Y023831D01*
X020719Y023765D01*
X020696Y023694D01*
X020684Y023620D01*
X020684Y023601D01*
X021140Y023601D01*
X021140Y023563D01*
X021178Y023563D01*
X021178Y023107D01*
X021196Y023107D01*
X021270Y023119D01*
X021341Y023142D01*
X021408Y023176D01*
X021468Y023220D01*
X021521Y023273D01*
X021565Y023333D01*
X021599Y023400D01*
X021622Y023471D01*
X021634Y023545D01*
X021634Y023563D01*
X021178Y023563D01*
X021178Y023601D01*
X021634Y023601D01*
X021634Y023620D01*
X021622Y023694D01*
X021599Y023765D01*
X021565Y023831D01*
X021521Y023892D01*
X021468Y023945D01*
X021408Y023989D01*
X021341Y024023D01*
X021324Y024028D01*
X021485Y024095D01*
X021646Y024257D01*
X021734Y024468D01*
X021734Y024697D01*
X021646Y024908D01*
X021485Y025070D01*
X021273Y025157D01*
X021045Y025157D01*
X020833Y025070D01*
X020672Y024908D01*
X020584Y024697D01*
X020602Y024740D02*
X017239Y024740D01*
X017239Y024692D02*
X017239Y025173D01*
X017003Y025408D01*
X024009Y025408D01*
X024009Y015571D01*
X024009Y016364D02*
X023216Y016364D01*
X023282Y016462D02*
X024009Y016462D01*
X024009Y016561D02*
X023514Y016561D01*
X023613Y016659D02*
X024009Y016659D01*
X024009Y016758D02*
X023696Y016758D01*
X023737Y016857D02*
X024009Y016857D01*
X024009Y016955D02*
X023777Y016955D01*
X023779Y017054D02*
X024009Y017054D01*
X024009Y017152D02*
X023779Y017152D01*
X023760Y017251D02*
X024009Y017251D01*
X024009Y017349D02*
X023720Y017349D01*
X023670Y017448D02*
X024009Y017448D01*
X024009Y017546D02*
X023585Y017546D01*
X023698Y017645D02*
X024009Y017645D01*
X024009Y017743D02*
X023790Y017743D01*
X023831Y017842D02*
X024009Y017842D01*
X024009Y017941D02*
X023871Y017941D01*
X023879Y018039D02*
X024009Y018039D01*
X024009Y018138D02*
X023879Y018138D01*
X023866Y018236D02*
X024009Y018236D01*
X024009Y018335D02*
X023826Y018335D01*
X023785Y018433D02*
X024009Y018433D01*
X024009Y018532D02*
X023686Y018532D01*
X023584Y018630D02*
X024009Y018630D01*
X024009Y018729D02*
X023682Y018729D01*
X023724Y018827D02*
X024009Y018827D01*
X024009Y018926D02*
X023765Y018926D01*
X023779Y019025D02*
X024009Y019025D01*
X024009Y019123D02*
X023779Y019123D01*
X023772Y019222D02*
X024009Y019222D01*
X024009Y019320D02*
X023732Y019320D01*
X023691Y019419D02*
X024009Y019419D01*
X024009Y019517D02*
X023601Y019517D01*
X023491Y019616D02*
X024009Y019616D01*
X024009Y019714D02*
X023626Y019714D01*
X023705Y019813D02*
X024009Y019813D01*
X024009Y019911D02*
X023750Y019911D01*
X023774Y020010D02*
X024009Y020010D01*
X024009Y020109D02*
X023309Y020109D01*
X023209Y020109D02*
X022029Y020109D01*
X022029Y020207D02*
X022753Y020207D01*
X022789Y020306D02*
X022029Y020306D01*
X022012Y020404D02*
X022850Y020404D01*
X022938Y020503D02*
X021957Y020503D01*
X021859Y020601D02*
X022763Y020601D01*
X022665Y020700D02*
X021760Y020700D01*
X021661Y020798D02*
X022606Y020798D01*
X022565Y020897D02*
X021563Y020897D01*
X021464Y020995D02*
X022539Y020995D01*
X022539Y021094D02*
X021366Y021094D01*
X021279Y021192D02*
X022539Y021192D01*
X022574Y021291D02*
X021244Y021291D01*
X021203Y021390D02*
X022615Y021390D01*
X022688Y021488D02*
X021130Y021488D01*
X021140Y021587D02*
X022787Y021587D01*
X022779Y021685D02*
X021239Y021685D01*
X021306Y021784D02*
X022712Y021784D01*
X022671Y021882D02*
X021347Y021882D01*
X021379Y021981D02*
X022639Y021981D01*
X022639Y022079D02*
X021379Y022079D01*
X021379Y022178D02*
X022639Y022178D01*
X022668Y022276D02*
X021350Y022276D01*
X021309Y022375D02*
X022709Y022375D01*
X022773Y022474D02*
X021245Y022474D01*
X021146Y022572D02*
X022872Y022572D01*
X023059Y022671D02*
X020959Y022671D01*
X020559Y022671D02*
X019789Y022671D01*
X019691Y022769D02*
X024009Y022769D01*
X024009Y022671D02*
X023459Y022671D01*
X023646Y022572D02*
X024009Y022572D01*
X024009Y022474D02*
X023745Y022474D01*
X023809Y022375D02*
X024009Y022375D01*
X024009Y022276D02*
X023850Y022276D01*
X023879Y022178D02*
X024009Y022178D01*
X024009Y022079D02*
X023879Y022079D01*
X023879Y021981D02*
X024009Y021981D01*
X024009Y021882D02*
X023847Y021882D01*
X023806Y021784D02*
X024009Y021784D01*
X024009Y021685D02*
X023739Y021685D01*
X023640Y021587D02*
X024009Y021587D01*
X024009Y021488D02*
X023630Y021488D01*
X023703Y021390D02*
X024009Y021390D01*
X024009Y021291D02*
X023744Y021291D01*
X023779Y021192D02*
X024009Y021192D01*
X024009Y021094D02*
X023779Y021094D01*
X023779Y020995D02*
X024009Y020995D01*
X024009Y020897D02*
X023753Y020897D01*
X023712Y020798D02*
X024009Y020798D01*
X024009Y020700D02*
X023653Y020700D01*
X023555Y020601D02*
X024009Y020601D01*
X024009Y020503D02*
X023565Y020503D01*
X023668Y020404D02*
X024009Y020404D01*
X024009Y020306D02*
X023729Y020306D01*
X023765Y020207D02*
X024009Y020207D01*
X022892Y019714D02*
X022029Y019714D01*
X022029Y019616D02*
X022827Y019616D01*
X022717Y019517D02*
X022029Y019517D01*
X022029Y019419D02*
X022627Y019419D01*
X022586Y019320D02*
X022029Y019320D01*
X022029Y019222D02*
X022546Y019222D01*
X022539Y019123D02*
X022029Y019123D01*
X022029Y019025D02*
X022539Y019025D01*
X022553Y018926D02*
X022029Y018926D01*
X022029Y018827D02*
X022594Y018827D01*
X022636Y018729D02*
X022029Y018729D01*
X022029Y018630D02*
X022734Y018630D01*
X022832Y018532D02*
X022029Y018532D01*
X022029Y018433D02*
X022733Y018433D01*
X022693Y018335D02*
X022029Y018335D01*
X022029Y018236D02*
X022652Y018236D01*
X022639Y018138D02*
X022029Y018138D01*
X022029Y018039D02*
X022639Y018039D01*
X022647Y017941D02*
X022029Y017941D01*
X022029Y017842D02*
X022687Y017842D01*
X022728Y017743D02*
X022029Y017743D01*
X022029Y017645D02*
X022820Y017645D01*
X022746Y017546D02*
X022033Y017546D01*
X022132Y017448D02*
X022648Y017448D01*
X022599Y017349D02*
X022230Y017349D01*
X022329Y017251D02*
X022558Y017251D01*
X022539Y017152D02*
X022428Y017152D01*
X022526Y017054D02*
X022539Y017054D01*
X022002Y015871D02*
X021316Y015871D01*
X021498Y015773D02*
X021820Y015773D01*
X021721Y015674D02*
X021597Y015674D01*
X021644Y015576D02*
X021674Y015576D01*
X021002Y015871D02*
X019316Y015871D01*
X019498Y015773D02*
X020030Y015773D01*
X020058Y015782D02*
X019994Y015761D01*
X019934Y015730D01*
X019879Y015690D01*
X019831Y015642D01*
X019791Y015588D01*
X019761Y015527D01*
X019740Y015463D01*
X019729Y015396D01*
X019729Y015112D01*
X020129Y015112D01*
X020129Y015052D01*
X020189Y015052D01*
X020189Y014372D01*
X020193Y014372D01*
X020260Y014383D01*
X020324Y014404D01*
X020384Y014435D01*
X020439Y014474D01*
X020487Y014522D01*
X020527Y014577D01*
X020558Y014637D01*
X020578Y014702D01*
X020589Y014768D01*
X020589Y015052D01*
X020189Y015052D01*
X020189Y015112D01*
X020589Y015112D01*
X020589Y015396D01*
X020578Y015463D01*
X020558Y015527D01*
X020527Y015588D01*
X020487Y015642D01*
X020439Y015690D01*
X020384Y015730D01*
X020324Y015761D01*
X020260Y015782D01*
X020193Y015792D01*
X020189Y015792D01*
X020189Y015113D01*
X020129Y015113D01*
X020129Y015792D01*
X020125Y015792D01*
X020058Y015782D01*
X020129Y015773D02*
X020189Y015773D01*
X020288Y015773D02*
X020820Y015773D01*
X020721Y015674D02*
X020455Y015674D01*
X020533Y015576D02*
X020674Y015576D01*
X020633Y015477D02*
X020574Y015477D01*
X020589Y015378D02*
X020629Y015378D01*
X020629Y015280D02*
X020589Y015280D01*
X020589Y015181D02*
X020629Y015181D01*
X020629Y015083D02*
X020189Y015083D01*
X020129Y015083D02*
X019689Y015083D01*
X019729Y015052D02*
X019729Y014768D01*
X019740Y014702D01*
X019761Y014637D01*
X019791Y014577D01*
X019831Y014522D01*
X019879Y014474D01*
X019934Y014435D01*
X019994Y014404D01*
X020058Y014383D01*
X020125Y014372D01*
X020129Y014372D01*
X020129Y015052D01*
X019729Y015052D01*
X019729Y014984D02*
X019689Y014984D01*
X019689Y014886D02*
X019729Y014886D01*
X019729Y014787D02*
X019689Y014787D01*
X019686Y014689D02*
X019744Y014689D01*
X019710Y014590D02*
X019785Y014590D01*
X019808Y014492D02*
X019862Y014492D01*
X019907Y014393D02*
X020027Y014393D01*
X020005Y014294D02*
X021000Y014294D01*
X020819Y014393D02*
X020291Y014393D01*
X020189Y014393D02*
X020129Y014393D01*
X020129Y014492D02*
X020189Y014492D01*
X020189Y014590D02*
X020129Y014590D01*
X020129Y014689D02*
X020189Y014689D01*
X020189Y014787D02*
X020129Y014787D01*
X020129Y014886D02*
X020189Y014886D01*
X020189Y014984D02*
X020129Y014984D01*
X020129Y015181D02*
X020189Y015181D01*
X020189Y015280D02*
X020129Y015280D01*
X020129Y015378D02*
X020189Y015378D01*
X020189Y015477D02*
X020129Y015477D01*
X020129Y015576D02*
X020189Y015576D01*
X020189Y015674D02*
X020129Y015674D01*
X019863Y015674D02*
X019597Y015674D01*
X019644Y015576D02*
X019785Y015576D01*
X019744Y015477D02*
X019685Y015477D01*
X019689Y015378D02*
X019729Y015378D01*
X019729Y015280D02*
X019689Y015280D01*
X019689Y015181D02*
X019729Y015181D01*
X020589Y014984D02*
X020629Y014984D01*
X020629Y014886D02*
X020589Y014886D01*
X020589Y014787D02*
X020629Y014787D01*
X020632Y014689D02*
X020574Y014689D01*
X020533Y014590D02*
X020673Y014590D01*
X020720Y014492D02*
X020456Y014492D01*
X021318Y014294D02*
X022000Y014294D01*
X021819Y014393D02*
X021499Y014393D01*
X021598Y014492D02*
X021720Y014492D01*
X021673Y014590D02*
X021645Y014590D01*
X022318Y014294D02*
X023000Y014294D01*
X022819Y014393D02*
X022499Y014393D01*
X022598Y014492D02*
X022720Y014492D01*
X022673Y014590D02*
X022645Y014590D01*
X022380Y014196D02*
X023649Y014196D01*
X023649Y014294D02*
X023318Y014294D01*
X023499Y014393D02*
X023649Y014393D01*
X023649Y014492D02*
X023598Y014492D01*
X023645Y014590D02*
X023649Y014590D01*
X023649Y014097D02*
X022522Y014097D01*
X022621Y013999D02*
X023649Y013999D01*
X023649Y013900D02*
X022719Y013900D01*
X022818Y013802D02*
X023649Y013802D01*
X023649Y013703D02*
X022917Y013703D01*
X023015Y013605D02*
X023649Y013605D01*
X023649Y013506D02*
X023114Y013506D01*
X023212Y013408D02*
X023649Y013408D01*
X023649Y013309D02*
X023311Y013309D01*
X023409Y013210D02*
X023649Y013210D01*
X023649Y013112D02*
X023508Y013112D01*
X023606Y013013D02*
X023649Y013013D01*
X022870Y012816D02*
X021448Y012816D01*
X021459Y012812D02*
X021264Y012892D01*
X021167Y012892D01*
X020622Y013438D01*
X020535Y013525D01*
X020421Y013572D01*
X012247Y013572D01*
X011717Y014102D01*
X011982Y014367D01*
X011988Y014382D01*
X012108Y014502D01*
X012189Y014697D01*
X012189Y015468D01*
X012108Y015663D01*
X011959Y015812D01*
X011764Y015892D01*
X011554Y015892D01*
X011359Y015812D01*
X011210Y015663D01*
X011159Y015540D01*
X011108Y015663D01*
X010959Y015812D01*
X010764Y015892D01*
X010554Y015892D01*
X010359Y015812D01*
X010210Y015663D01*
X010159Y015540D01*
X010108Y015663D01*
X009959Y015812D01*
X009764Y015892D01*
X009554Y015892D01*
X009359Y015812D01*
X009210Y015663D01*
X009159Y015540D01*
X009108Y015663D01*
X008959Y015812D01*
X008764Y015892D01*
X008554Y015892D01*
X008359Y015812D01*
X008210Y015663D01*
X008129Y015468D01*
X008129Y015425D01*
X007985Y015570D01*
X007773Y015657D01*
X007545Y015657D01*
X007333Y015570D01*
X007172Y015408D01*
X007084Y015197D01*
X007084Y014968D01*
X007172Y014757D01*
X007333Y014595D01*
X007494Y014528D01*
X007477Y014523D01*
X007410Y014489D01*
X007350Y014445D01*
X007297Y014392D01*
X007253Y014331D01*
X007219Y014265D01*
X007196Y014194D01*
X007184Y014120D01*
X007184Y014101D01*
X007640Y014101D01*
X007640Y014063D01*
X007678Y014063D01*
X007678Y013607D01*
X007696Y013607D01*
X007770Y013619D01*
X007841Y013642D01*
X007908Y013676D01*
X007968Y013720D01*
X008021Y013773D01*
X008065Y013833D01*
X008099Y013900D01*
X008122Y013971D01*
X008134Y014045D01*
X008134Y014063D01*
X007678Y014063D01*
X007678Y014101D01*
X008134Y014101D01*
X008134Y014120D01*
X008122Y014194D01*
X008099Y014265D01*
X008065Y014331D01*
X008021Y014392D01*
X007968Y014445D01*
X007908Y014489D01*
X007841Y014523D01*
X007824Y014528D01*
X007985Y014595D01*
X008129Y014739D01*
X008129Y014697D01*
X008210Y014502D01*
X008359Y014353D01*
X008554Y014272D01*
X008764Y014272D01*
X008959Y014353D01*
X009108Y014502D01*
X009159Y014625D01*
X009195Y014537D01*
X007839Y013181D01*
X006442Y014577D01*
X006485Y014595D01*
X006646Y014757D01*
X006734Y014968D01*
X006734Y015197D01*
X006646Y015408D01*
X006485Y015570D01*
X006273Y015657D01*
X006045Y015657D01*
X005833Y015570D01*
X005730Y015467D01*
X005696Y015549D01*
X005626Y015619D01*
X005534Y015657D01*
X004784Y015657D01*
X004692Y015619D01*
X004622Y015549D01*
X004584Y015457D01*
X004584Y014708D01*
X004622Y014616D01*
X004692Y014545D01*
X004784Y014507D01*
X005534Y014507D01*
X005606Y014537D01*
X007576Y012567D01*
X007663Y012480D01*
X008129Y012014D01*
X008129Y011697D01*
X008210Y011502D01*
X008359Y011353D01*
X008554Y011272D01*
X008764Y011272D01*
X008959Y011353D01*
X009108Y011502D01*
X009159Y011625D01*
X009210Y011502D01*
X009359Y011353D01*
X009554Y011272D01*
X009764Y011272D01*
X009959Y011353D01*
X010108Y011502D01*
X010159Y011625D01*
X010210Y011502D01*
X010359Y011353D01*
X010554Y011272D01*
X010764Y011272D01*
X010959Y011353D01*
X011108Y011502D01*
X011189Y011697D01*
X011189Y012468D01*
X011108Y012663D01*
X010989Y012782D01*
X010989Y013374D01*
X011279Y013664D01*
X011943Y013000D01*
X012057Y012952D01*
X012181Y012952D01*
X020231Y012952D01*
X020654Y012529D01*
X020629Y012468D01*
X020629Y011697D01*
X020710Y011502D01*
X020859Y011353D01*
X021054Y011272D01*
X021264Y011272D01*
X021459Y011353D01*
X021608Y011502D01*
X021689Y011697D01*
X021689Y012468D01*
X021608Y012663D01*
X021459Y012812D01*
X021553Y012718D02*
X021917Y012718D01*
X021934Y012730D02*
X021879Y012690D01*
X021831Y012642D01*
X021791Y012588D01*
X021761Y012527D01*
X021740Y012463D01*
X021729Y012396D01*
X021729Y012112D01*
X022129Y012112D01*
X022129Y012052D01*
X022189Y012052D01*
X022189Y012112D01*
X022589Y012112D01*
X022589Y012396D01*
X022578Y012463D01*
X022558Y012527D01*
X022527Y012588D01*
X022487Y012642D01*
X022439Y012690D01*
X022384Y012730D01*
X022324Y012761D01*
X022260Y012782D01*
X022193Y012792D01*
X022189Y012792D01*
X022189Y012113D01*
X022129Y012113D01*
X022129Y012792D01*
X022125Y012792D01*
X022058Y012782D01*
X021994Y012761D01*
X021934Y012730D01*
X021814Y012619D02*
X021626Y012619D01*
X021667Y012521D02*
X021758Y012521D01*
X021733Y012422D02*
X021689Y012422D01*
X021689Y012324D02*
X021729Y012324D01*
X021729Y012225D02*
X021689Y012225D01*
X021689Y012126D02*
X021729Y012126D01*
X021729Y012052D02*
X021729Y011768D01*
X021740Y011702D01*
X021761Y011637D01*
X021791Y011577D01*
X021831Y011522D01*
X021879Y011474D01*
X021885Y011470D01*
X021850Y011445D01*
X021797Y011392D01*
X021753Y011331D01*
X021719Y011265D01*
X021696Y011194D01*
X021684Y011120D01*
X021684Y011101D01*
X022140Y011101D01*
X022140Y011557D01*
X022129Y011557D01*
X022129Y012052D01*
X021729Y012052D01*
X021729Y012028D02*
X021689Y012028D01*
X021689Y011929D02*
X021729Y011929D01*
X021729Y011831D02*
X021689Y011831D01*
X021689Y011732D02*
X021735Y011732D01*
X021762Y011634D02*
X021663Y011634D01*
X021622Y011535D02*
X021822Y011535D01*
X021842Y011437D02*
X021543Y011437D01*
X021423Y011338D02*
X021758Y011338D01*
X021711Y011240D02*
X006722Y011240D01*
X006739Y011141D02*
X021687Y011141D01*
X021684Y011063D02*
X021684Y011045D01*
X021696Y010971D01*
X021719Y010900D01*
X021753Y010833D01*
X021797Y010773D01*
X021850Y010720D01*
X021910Y010676D01*
X021977Y010642D01*
X022048Y010619D01*
X022122Y010607D01*
X022140Y010607D01*
X022140Y011063D01*
X021684Y011063D01*
X021684Y011043D02*
X006739Y011043D01*
X006729Y010944D02*
X021705Y010944D01*
X021747Y010845D02*
X021378Y010845D01*
X021459Y010812D02*
X021264Y010892D01*
X021054Y010892D01*
X020859Y010812D01*
X020710Y010663D01*
X020659Y010540D01*
X020608Y010663D01*
X020459Y010812D01*
X020264Y010892D01*
X020054Y010892D01*
X019859Y010812D01*
X019710Y010663D01*
X019659Y010540D01*
X019608Y010663D01*
X019459Y010812D01*
X019264Y010892D01*
X019054Y010892D01*
X018859Y010812D01*
X018710Y010663D01*
X018659Y010540D01*
X018608Y010663D01*
X018459Y010812D01*
X018264Y010892D01*
X018054Y010892D01*
X017859Y010812D01*
X017710Y010663D01*
X017659Y010540D01*
X017608Y010663D01*
X017459Y010812D01*
X017264Y010892D01*
X017054Y010892D01*
X016859Y010812D01*
X016710Y010663D01*
X016659Y010540D01*
X016608Y010663D01*
X016459Y010812D01*
X016264Y010892D01*
X016054Y010892D01*
X015859Y010812D01*
X015710Y010663D01*
X015659Y010540D01*
X015608Y010663D01*
X015459Y010812D01*
X015264Y010892D01*
X015054Y010892D01*
X014859Y010812D01*
X014710Y010663D01*
X014629Y010468D01*
X014629Y009697D01*
X014710Y009502D01*
X014859Y009353D01*
X015054Y009272D01*
X015264Y009272D01*
X015459Y009353D01*
X015608Y009502D01*
X015659Y009625D01*
X015710Y009502D01*
X015859Y009353D01*
X016054Y009272D01*
X016264Y009272D01*
X016459Y009353D01*
X016608Y009502D01*
X016659Y009625D01*
X016710Y009502D01*
X016859Y009353D01*
X017054Y009272D01*
X017264Y009272D01*
X017459Y009353D01*
X017608Y009502D01*
X017659Y009625D01*
X017710Y009502D01*
X017859Y009353D01*
X018054Y009272D01*
X018264Y009272D01*
X018459Y009353D01*
X018608Y009502D01*
X018659Y009625D01*
X018710Y009502D01*
X018859Y009353D01*
X019054Y009272D01*
X019264Y009272D01*
X019459Y009353D01*
X019608Y009502D01*
X019659Y009625D01*
X019710Y009502D01*
X019859Y009353D01*
X020054Y009272D01*
X020264Y009272D01*
X020459Y009353D01*
X020608Y009502D01*
X020659Y009625D01*
X020710Y009502D01*
X020859Y009353D01*
X021054Y009272D01*
X021264Y009272D01*
X021459Y009353D01*
X021608Y009502D01*
X021689Y009697D01*
X021689Y010468D01*
X021608Y010663D01*
X021459Y010812D01*
X021524Y010747D02*
X021823Y010747D01*
X021965Y010648D02*
X021614Y010648D01*
X021655Y010550D02*
X022568Y010550D01*
X022667Y010648D02*
X022354Y010648D01*
X022495Y010747D02*
X022681Y010747D01*
X022635Y010845D02*
X022571Y010845D01*
X022178Y010845D02*
X022140Y010845D01*
X022140Y010747D02*
X022178Y010747D01*
X022178Y010648D02*
X022140Y010648D01*
X022140Y010944D02*
X022178Y010944D01*
X022178Y011043D02*
X022140Y011043D01*
X022140Y011141D02*
X022178Y011141D01*
X022178Y011240D02*
X022140Y011240D01*
X022140Y011338D02*
X022178Y011338D01*
X022178Y011437D02*
X022140Y011437D01*
X022140Y011535D02*
X022178Y011535D01*
X022189Y011634D02*
X022129Y011634D01*
X022129Y011732D02*
X022189Y011732D01*
X022189Y011831D02*
X022129Y011831D01*
X022129Y011929D02*
X022189Y011929D01*
X022189Y012028D02*
X022129Y012028D01*
X022129Y012126D02*
X022189Y012126D01*
X022189Y012225D02*
X022129Y012225D01*
X022129Y012324D02*
X022189Y012324D01*
X022189Y012422D02*
X022129Y012422D01*
X022129Y012521D02*
X022189Y012521D01*
X022189Y012619D02*
X022129Y012619D01*
X022129Y012718D02*
X022189Y012718D01*
X022401Y012718D02*
X022765Y012718D01*
X022692Y012619D02*
X022504Y012619D01*
X022560Y012521D02*
X022651Y012521D01*
X022629Y012422D02*
X022585Y012422D01*
X022589Y012324D02*
X022629Y012324D01*
X022629Y012225D02*
X022589Y012225D01*
X022589Y012126D02*
X022629Y012126D01*
X022629Y012028D02*
X022589Y012028D01*
X022589Y011929D02*
X022629Y011929D01*
X022629Y011831D02*
X022589Y011831D01*
X022583Y011732D02*
X022629Y011732D01*
X022655Y011634D02*
X022556Y011634D01*
X022496Y011535D02*
X022696Y011535D01*
X022700Y011437D02*
X022476Y011437D01*
X022560Y011338D02*
X022643Y011338D01*
X022470Y010451D02*
X021689Y010451D01*
X021689Y010353D02*
X022371Y010353D01*
X022272Y010254D02*
X021689Y010254D01*
X021689Y010156D02*
X022174Y010156D01*
X022075Y010057D02*
X021689Y010057D01*
X021689Y009959D02*
X021977Y009959D01*
X021878Y009860D02*
X021689Y009860D01*
X021689Y009761D02*
X021780Y009761D01*
X021690Y009663D02*
X021675Y009663D01*
X021649Y009564D02*
X021634Y009564D01*
X021644Y009466D02*
X021572Y009466D01*
X021546Y009367D02*
X021474Y009367D01*
X021447Y009269D02*
X013469Y009269D01*
X013474Y009367D02*
X014845Y009367D01*
X014746Y009466D02*
X014427Y009466D01*
X014439Y009474D02*
X014487Y009522D01*
X014527Y009577D01*
X014558Y009637D01*
X014578Y009702D01*
X014589Y009768D01*
X014589Y010052D01*
X014189Y010052D01*
X014189Y009372D01*
X014193Y009372D01*
X014260Y009383D01*
X014324Y009404D01*
X014384Y009435D01*
X014439Y009474D01*
X014518Y009564D02*
X014684Y009564D01*
X014643Y009663D02*
X014566Y009663D01*
X014588Y009761D02*
X014629Y009761D01*
X014629Y009860D02*
X014589Y009860D01*
X014589Y009959D02*
X014629Y009959D01*
X014629Y010057D02*
X014189Y010057D01*
X014189Y010052D02*
X014189Y010112D01*
X014589Y010112D01*
X014589Y010396D01*
X014578Y010463D01*
X014558Y010527D01*
X014527Y010588D01*
X014487Y010642D01*
X014439Y010690D01*
X014384Y010730D01*
X014324Y010761D01*
X014260Y010782D01*
X014193Y010792D01*
X014189Y010792D01*
X014189Y010113D01*
X014129Y010113D01*
X014129Y010792D01*
X014125Y010792D01*
X014058Y010782D01*
X013994Y010761D01*
X013934Y010730D01*
X013879Y010690D01*
X013831Y010642D01*
X013791Y010588D01*
X013761Y010527D01*
X013740Y010463D01*
X013729Y010396D01*
X013729Y010112D01*
X014129Y010112D01*
X014129Y010052D01*
X014189Y010052D01*
X014129Y010052D02*
X014129Y009372D01*
X014125Y009372D01*
X014058Y009383D01*
X013994Y009404D01*
X013934Y009435D01*
X013879Y009474D01*
X013831Y009522D01*
X013791Y009577D01*
X013761Y009637D01*
X013740Y009702D01*
X013729Y009768D01*
X013729Y010052D01*
X014129Y010052D01*
X014129Y010057D02*
X013689Y010057D01*
X013689Y009959D02*
X013729Y009959D01*
X013729Y009860D02*
X013689Y009860D01*
X013689Y009761D02*
X013730Y009761D01*
X013752Y009663D02*
X013675Y009663D01*
X013634Y009564D02*
X013800Y009564D01*
X013891Y009466D02*
X013572Y009466D01*
X013469Y009170D02*
X021349Y009170D01*
X021250Y009072D02*
X013469Y009072D01*
X013469Y008973D02*
X021151Y008973D01*
X021053Y008875D02*
X013469Y008875D01*
X013469Y008776D02*
X020954Y008776D01*
X020880Y008677D02*
X013469Y008677D01*
X013469Y008579D02*
X020849Y008579D01*
X020849Y008480D02*
X013469Y008480D01*
X013469Y008382D02*
X020849Y008382D01*
X020849Y008283D02*
X013469Y008283D01*
X013469Y008185D02*
X020849Y008185D01*
X020849Y008086D02*
X013469Y008086D01*
X013469Y007988D02*
X020849Y007988D01*
X020849Y007889D02*
X020272Y007889D01*
X020046Y007889D02*
X019272Y007889D01*
X019046Y007889D02*
X018272Y007889D01*
X018046Y007889D02*
X017272Y007889D01*
X017046Y007889D02*
X016272Y007889D01*
X016046Y007889D02*
X014272Y007889D01*
X014046Y007889D02*
X013456Y007889D01*
X013480Y007791D02*
X013838Y007791D01*
X013739Y007692D02*
X013579Y007692D01*
X013637Y007594D02*
X013681Y007594D01*
X014480Y007791D02*
X015114Y007791D01*
X015129Y007791D02*
X015189Y007791D01*
X015204Y007791D02*
X015838Y007791D01*
X015739Y007692D02*
X015437Y007692D01*
X015523Y007594D02*
X015681Y007594D01*
X015640Y007495D02*
X015568Y007495D01*
X015589Y007396D02*
X015629Y007396D01*
X015629Y007298D02*
X015589Y007298D01*
X015589Y007199D02*
X015629Y007199D01*
X015629Y007101D02*
X015189Y007101D01*
X015129Y007101D02*
X014689Y007101D01*
X014689Y007199D02*
X014729Y007199D01*
X014729Y007298D02*
X014689Y007298D01*
X014689Y007396D02*
X014729Y007396D01*
X014750Y007495D02*
X014678Y007495D01*
X014637Y007594D02*
X014796Y007594D01*
X014881Y007692D02*
X014579Y007692D01*
X015129Y007692D02*
X015189Y007692D01*
X015189Y007594D02*
X015129Y007594D01*
X015129Y007495D02*
X015189Y007495D01*
X015189Y007396D02*
X015129Y007396D01*
X015129Y007298D02*
X015189Y007298D01*
X015189Y007199D02*
X015129Y007199D01*
X015129Y007002D02*
X015189Y007002D01*
X015189Y006904D02*
X015129Y006904D01*
X015129Y006805D02*
X015189Y006805D01*
X015189Y006707D02*
X015129Y006707D01*
X015129Y006608D02*
X015189Y006608D01*
X015178Y006510D02*
X015140Y006510D01*
X015140Y006411D02*
X015178Y006411D01*
X015178Y006312D02*
X015140Y006312D01*
X015140Y006214D02*
X015178Y006214D01*
X015178Y006115D02*
X015140Y006115D01*
X015140Y006017D02*
X015178Y006017D01*
X015178Y005918D02*
X015140Y005918D01*
X015140Y005820D02*
X015178Y005820D01*
X015178Y005721D02*
X015140Y005721D01*
X015140Y005623D02*
X015178Y005623D01*
X015281Y005623D02*
X017481Y005623D01*
X017579Y005721D02*
X015470Y005721D01*
X015555Y005820D02*
X017678Y005820D01*
X017777Y005918D02*
X015605Y005918D01*
X015630Y006017D02*
X017809Y006017D01*
X017809Y006115D02*
X015634Y006115D01*
X015616Y006214D02*
X017809Y006214D01*
X017809Y006312D02*
X017361Y006312D01*
X017517Y006411D02*
X017801Y006411D01*
X017707Y006510D02*
X017611Y006510D01*
X017652Y006608D02*
X017666Y006608D01*
X016957Y006312D02*
X016361Y006312D01*
X016517Y006411D02*
X016801Y006411D01*
X016707Y006510D02*
X016611Y006510D01*
X016652Y006608D02*
X016666Y006608D01*
X015957Y006312D02*
X015575Y006312D01*
X015502Y006411D02*
X015801Y006411D01*
X015707Y006510D02*
X015474Y006510D01*
X015543Y006608D02*
X015666Y006608D01*
X015629Y006707D02*
X015579Y006707D01*
X015589Y006805D02*
X015629Y006805D01*
X015629Y006904D02*
X015589Y006904D01*
X015589Y007002D02*
X015629Y007002D01*
X014729Y007002D02*
X014689Y007002D01*
X014689Y006904D02*
X014729Y006904D01*
X014729Y006805D02*
X014689Y006805D01*
X014689Y006707D02*
X014739Y006707D01*
X014775Y006608D02*
X014652Y006608D01*
X014611Y006510D02*
X014844Y006510D01*
X014816Y006411D02*
X014644Y006411D01*
X014686Y006312D02*
X014743Y006312D01*
X014763Y005820D02*
X014673Y005820D01*
X014611Y005721D02*
X014848Y005721D01*
X015037Y005623D02*
X014513Y005623D01*
X014314Y005524D02*
X017382Y005524D01*
X017284Y005426D02*
X013914Y005426D01*
X014004Y005524D02*
X013816Y005524D01*
X013806Y005623D02*
X013717Y005623D01*
X013707Y005721D02*
X013619Y005721D01*
X013609Y005820D02*
X013645Y005820D01*
X013605Y005918D02*
X013573Y005918D01*
X013584Y006017D02*
X013521Y006017D01*
X013584Y006115D02*
X013422Y006115D01*
X013591Y006214D02*
X012909Y006214D01*
X012909Y006312D02*
X012957Y006312D01*
X013361Y006312D02*
X013632Y006312D01*
X013675Y006411D02*
X013517Y006411D01*
X013611Y006510D02*
X013707Y006510D01*
X013666Y006608D02*
X013652Y006608D01*
X014653Y005327D02*
X017185Y005327D01*
X017087Y005228D02*
X014751Y005228D01*
X014850Y005130D02*
X015861Y005130D01*
X015731Y005031D02*
X015454Y005031D01*
X015585Y004933D02*
X015633Y004933D01*
X016457Y005130D02*
X016988Y005130D01*
X016864Y005031D02*
X016587Y005031D01*
X016685Y004933D02*
X016733Y004933D01*
X016209Y002568D02*
X016109Y002568D01*
X016109Y002469D02*
X016209Y002469D01*
X016209Y002371D02*
X016109Y002371D01*
X016109Y002272D02*
X016209Y002272D01*
X016209Y002174D02*
X016109Y002174D01*
X015914Y002174D02*
X015536Y002174D01*
X015610Y002272D02*
X015784Y002272D01*
X015709Y002371D02*
X015653Y002371D01*
X015407Y002075D02*
X016911Y002075D01*
X016782Y002174D02*
X016404Y002174D01*
X016534Y002272D02*
X016708Y002272D01*
X016665Y002371D02*
X016609Y002371D01*
X017109Y002371D02*
X017209Y002371D01*
X017209Y002469D02*
X017109Y002469D01*
X017109Y002272D02*
X017209Y002272D01*
X017209Y002174D02*
X017109Y002174D01*
X017109Y002075D02*
X017209Y002075D01*
X017407Y002075D02*
X018911Y002075D01*
X018782Y002174D02*
X018404Y002174D01*
X018534Y002272D02*
X018708Y002272D01*
X018665Y002371D02*
X018609Y002371D01*
X018209Y002371D02*
X018109Y002371D01*
X018109Y002469D02*
X018209Y002469D01*
X018209Y002568D02*
X018109Y002568D01*
X018109Y002272D02*
X018209Y002272D01*
X018209Y002174D02*
X018109Y002174D01*
X017914Y002174D02*
X017536Y002174D01*
X017610Y002272D02*
X017784Y002272D01*
X017709Y002371D02*
X017653Y002371D01*
X019109Y002371D02*
X019209Y002371D01*
X019209Y002469D02*
X019109Y002469D01*
X019209Y002568D02*
X019989Y002568D01*
X019989Y002666D02*
X019662Y002666D01*
X019624Y002765D02*
X020014Y002765D01*
X020054Y002863D02*
X019561Y002863D01*
X019452Y002962D02*
X020112Y002962D01*
X020210Y003061D02*
X019564Y003061D01*
X019663Y003159D02*
X020256Y003159D01*
X020172Y003258D02*
X019716Y003258D01*
X019757Y003356D02*
X020132Y003356D01*
X020091Y003455D02*
X019779Y003455D01*
X019779Y003553D02*
X020089Y003553D01*
X020089Y003652D02*
X019779Y003652D01*
X019740Y003750D02*
X020108Y003750D01*
X020148Y003849D02*
X019699Y003849D01*
X019621Y003947D02*
X020197Y003947D01*
X020284Y004046D02*
X019599Y004046D01*
X019690Y004144D02*
X020170Y004144D01*
X020078Y004243D02*
X019731Y004243D01*
X019772Y004342D02*
X020038Y004342D01*
X019997Y004440D02*
X019779Y004440D01*
X019779Y004539D02*
X019989Y004539D01*
X019989Y004637D02*
X019772Y004637D01*
X019871Y004736D02*
X020002Y004736D01*
X019969Y004834D02*
X020042Y004834D01*
X020068Y004933D02*
X020083Y004933D01*
X020166Y005031D02*
X020181Y005031D01*
X020265Y005130D02*
X020311Y005130D01*
X020364Y005228D02*
X020396Y005228D01*
X020415Y005327D02*
X020465Y005327D01*
X020429Y005426D02*
X020564Y005426D01*
X020662Y005524D02*
X020429Y005524D01*
X020429Y005623D02*
X020761Y005623D01*
X020859Y005721D02*
X020429Y005721D01*
X020429Y005820D02*
X020958Y005820D01*
X021057Y005918D02*
X020429Y005918D01*
X020429Y006017D02*
X021155Y006017D01*
X021254Y006115D02*
X020429Y006115D01*
X020429Y006214D02*
X021352Y006214D01*
X021361Y006312D02*
X021451Y006312D01*
X021517Y006411D02*
X021549Y006411D01*
X021611Y006510D02*
X021648Y006510D01*
X021652Y006608D02*
X021746Y006608D01*
X021689Y006707D02*
X021845Y006707D01*
X021889Y006805D02*
X021689Y006805D01*
X021689Y006904D02*
X021889Y006904D01*
X021889Y007002D02*
X021689Y007002D01*
X021689Y007101D02*
X021889Y007101D01*
X021889Y007199D02*
X021689Y007199D01*
X021689Y007298D02*
X021889Y007298D01*
X021889Y007396D02*
X021689Y007396D01*
X021678Y007495D02*
X021894Y007495D01*
X021934Y007594D02*
X021637Y007594D01*
X021579Y007692D02*
X022030Y007692D01*
X022129Y007791D02*
X021480Y007791D01*
X021469Y007889D02*
X022227Y007889D01*
X022326Y007988D02*
X021469Y007988D01*
X021469Y008086D02*
X022425Y008086D01*
X022523Y008185D02*
X021469Y008185D01*
X021469Y008283D02*
X022622Y008283D01*
X022720Y008382D02*
X021469Y008382D01*
X021535Y008480D02*
X022819Y008480D01*
X022872Y008579D02*
X021634Y008579D01*
X021733Y008677D02*
X022751Y008677D01*
X022664Y008776D02*
X021831Y008776D01*
X021930Y008875D02*
X022623Y008875D01*
X022584Y008973D02*
X022028Y008973D01*
X022127Y009072D02*
X022584Y009072D01*
X022584Y009170D02*
X022223Y009170D01*
X022264Y009269D02*
X022614Y009269D01*
X022655Y009367D02*
X022269Y009367D01*
X022361Y009466D02*
X022729Y009466D01*
X022828Y009564D02*
X022459Y009564D01*
X022558Y009663D02*
X023649Y009663D01*
X023649Y009761D02*
X022657Y009761D01*
X022755Y009860D02*
X023649Y009860D01*
X023649Y009959D02*
X022854Y009959D01*
X022952Y010057D02*
X023649Y010057D01*
X023649Y010156D02*
X023051Y010156D01*
X023433Y010254D02*
X023649Y010254D01*
X023649Y010353D02*
X023568Y010353D01*
X023490Y009564D02*
X023649Y009564D01*
X023649Y009466D02*
X023589Y009466D01*
X023991Y008776D02*
X024009Y008776D01*
X024009Y008677D02*
X023893Y008677D01*
X023794Y008579D02*
X024009Y008579D01*
X024009Y008480D02*
X023695Y008480D01*
X023597Y008382D02*
X024009Y008382D01*
X024009Y008283D02*
X023498Y008283D01*
X023400Y008185D02*
X024009Y008185D01*
X024009Y008086D02*
X023301Y008086D01*
X023203Y007988D02*
X024009Y007988D01*
X024009Y007889D02*
X023104Y007889D01*
X023006Y007791D02*
X024009Y007791D01*
X024009Y007692D02*
X022907Y007692D01*
X022891Y007594D02*
X022809Y007594D01*
X022833Y007570D02*
X022672Y007408D01*
X022584Y007197D01*
X022584Y006968D01*
X022672Y006757D01*
X022833Y006595D01*
X023045Y006507D01*
X023273Y006507D01*
X023485Y006595D01*
X023646Y006757D01*
X023734Y006968D01*
X023734Y007197D01*
X023646Y007408D01*
X023485Y007570D01*
X023273Y007657D01*
X023045Y007657D01*
X022833Y007570D01*
X022758Y007495D02*
X022710Y007495D01*
X022667Y007396D02*
X022611Y007396D01*
X022626Y007298D02*
X022513Y007298D01*
X022509Y007199D02*
X022585Y007199D01*
X022584Y007101D02*
X022509Y007101D01*
X022509Y007002D02*
X022584Y007002D01*
X022611Y006904D02*
X022509Y006904D01*
X022509Y006805D02*
X022651Y006805D01*
X022722Y006707D02*
X022509Y006707D01*
X022509Y006608D02*
X022820Y006608D01*
X023039Y006510D02*
X022488Y006510D01*
X022426Y006411D02*
X024009Y006411D01*
X024009Y006312D02*
X022327Y006312D01*
X022229Y006214D02*
X024009Y006214D01*
X024009Y006115D02*
X022130Y006115D01*
X022032Y006017D02*
X024009Y006017D01*
X024009Y005918D02*
X021933Y005918D01*
X021835Y005820D02*
X024009Y005820D01*
X024009Y005721D02*
X021736Y005721D01*
X021638Y005623D02*
X022961Y005623D01*
X023045Y005657D02*
X022833Y005570D01*
X022672Y005408D01*
X022605Y005247D01*
X022599Y005265D01*
X022565Y005331D01*
X022521Y005392D01*
X022468Y005445D01*
X022408Y005489D01*
X022341Y005523D01*
X022270Y005546D01*
X022196Y005557D01*
X022178Y005557D01*
X022178Y005101D01*
X022140Y005101D01*
X022140Y005063D01*
X022178Y005063D01*
X022178Y004607D01*
X022196Y004607D01*
X022270Y004619D01*
X022341Y004642D01*
X022408Y004676D01*
X022468Y004720D01*
X022521Y004773D01*
X022565Y004833D01*
X022599Y004900D01*
X022605Y004918D01*
X022672Y004757D01*
X022833Y004595D01*
X023045Y004507D01*
X023273Y004507D01*
X023485Y004595D01*
X023646Y004757D01*
X023734Y004968D01*
X023734Y005197D01*
X023646Y005408D01*
X023485Y005570D01*
X023273Y005657D01*
X023045Y005657D01*
X022788Y005524D02*
X022337Y005524D01*
X022178Y005524D02*
X022140Y005524D01*
X022140Y005557D02*
X022122Y005557D01*
X022048Y005546D01*
X021977Y005523D01*
X021910Y005489D01*
X021850Y005445D01*
X021797Y005392D01*
X021753Y005331D01*
X021719Y005265D01*
X021696Y005194D01*
X021684Y005120D01*
X021684Y005101D01*
X022140Y005101D01*
X022140Y005557D01*
X022140Y005426D02*
X022178Y005426D01*
X022178Y005327D02*
X022140Y005327D01*
X022140Y005228D02*
X022178Y005228D01*
X022178Y005130D02*
X022140Y005130D01*
X022140Y005063D02*
X021684Y005063D01*
X021684Y005045D01*
X021696Y004971D01*
X021719Y004900D01*
X021753Y004833D01*
X021797Y004773D01*
X021850Y004720D01*
X021910Y004676D01*
X021977Y004642D01*
X022048Y004619D01*
X022122Y004607D01*
X022140Y004607D01*
X022140Y005063D01*
X022140Y005031D02*
X022178Y005031D01*
X022178Y004933D02*
X022140Y004933D01*
X022140Y004834D02*
X022178Y004834D01*
X022178Y004736D02*
X022140Y004736D01*
X022140Y004637D02*
X022178Y004637D01*
X022326Y004637D02*
X022791Y004637D01*
X022692Y004736D02*
X022484Y004736D01*
X022566Y004834D02*
X022639Y004834D01*
X022638Y005327D02*
X022567Y005327D01*
X022488Y005426D02*
X022689Y005426D01*
X023357Y005623D02*
X024009Y005623D01*
X024009Y005524D02*
X023530Y005524D01*
X023629Y005426D02*
X024009Y005426D01*
X024009Y005327D02*
X023680Y005327D01*
X023721Y005228D02*
X024009Y005228D01*
X024009Y005130D02*
X023734Y005130D01*
X023734Y005031D02*
X024009Y005031D01*
X024009Y004933D02*
X023719Y004933D01*
X023679Y004834D02*
X024009Y004834D01*
X024009Y004736D02*
X023626Y004736D01*
X023527Y004637D02*
X024009Y004637D01*
X024009Y004539D02*
X023349Y004539D01*
X022969Y004539D02*
X021229Y004539D01*
X021229Y004637D02*
X021992Y004637D01*
X021834Y004736D02*
X021217Y004736D01*
X021176Y004834D02*
X021752Y004834D01*
X021708Y004933D02*
X021135Y004933D01*
X021046Y005031D02*
X021686Y005031D01*
X021686Y005130D02*
X021145Y005130D01*
X021244Y005228D02*
X021707Y005228D01*
X021751Y005327D02*
X021342Y005327D01*
X021441Y005426D02*
X021831Y005426D01*
X021982Y005524D02*
X021539Y005524D01*
X020957Y006312D02*
X020429Y006312D01*
X020517Y006411D02*
X020801Y006411D01*
X020707Y006510D02*
X020611Y006510D01*
X020652Y006608D02*
X020666Y006608D01*
X020637Y007594D02*
X020681Y007594D01*
X020739Y007692D02*
X020579Y007692D01*
X020480Y007791D02*
X020838Y007791D01*
X019838Y007791D02*
X019480Y007791D01*
X019579Y007692D02*
X019739Y007692D01*
X019681Y007594D02*
X019637Y007594D01*
X018838Y007791D02*
X018480Y007791D01*
X018579Y007692D02*
X018739Y007692D01*
X018681Y007594D02*
X018637Y007594D01*
X017838Y007791D02*
X017480Y007791D01*
X017579Y007692D02*
X017739Y007692D01*
X017681Y007594D02*
X017637Y007594D01*
X016838Y007791D02*
X016480Y007791D01*
X016579Y007692D02*
X016739Y007692D01*
X016681Y007594D02*
X016637Y007594D01*
X016474Y009367D02*
X016845Y009367D01*
X016746Y009466D02*
X016572Y009466D01*
X016634Y009564D02*
X016684Y009564D01*
X017474Y009367D02*
X017845Y009367D01*
X017746Y009466D02*
X017572Y009466D01*
X017634Y009564D02*
X017684Y009564D01*
X018474Y009367D02*
X018845Y009367D01*
X018746Y009466D02*
X018572Y009466D01*
X018634Y009564D02*
X018684Y009564D01*
X019474Y009367D02*
X019845Y009367D01*
X019746Y009466D02*
X019572Y009466D01*
X019634Y009564D02*
X019684Y009564D01*
X020474Y009367D02*
X020845Y009367D01*
X020746Y009466D02*
X020572Y009466D01*
X020634Y009564D02*
X020684Y009564D01*
X020655Y010550D02*
X020663Y010550D01*
X020704Y010648D02*
X020614Y010648D01*
X020524Y010747D02*
X020794Y010747D01*
X020940Y010845D02*
X020378Y010845D01*
X019940Y010845D02*
X019378Y010845D01*
X019524Y010747D02*
X019794Y010747D01*
X019704Y010648D02*
X019614Y010648D01*
X019655Y010550D02*
X019663Y010550D01*
X018940Y010845D02*
X018378Y010845D01*
X018524Y010747D02*
X018794Y010747D01*
X018704Y010648D02*
X018614Y010648D01*
X018655Y010550D02*
X018663Y010550D01*
X017940Y010845D02*
X017378Y010845D01*
X017524Y010747D02*
X017794Y010747D01*
X017704Y010648D02*
X017614Y010648D01*
X017655Y010550D02*
X017663Y010550D01*
X016940Y010845D02*
X016378Y010845D01*
X016524Y010747D02*
X016794Y010747D01*
X016704Y010648D02*
X016614Y010648D01*
X016655Y010550D02*
X016663Y010550D01*
X015940Y010845D02*
X015378Y010845D01*
X015524Y010747D02*
X015794Y010747D01*
X015704Y010648D02*
X015614Y010648D01*
X015655Y010550D02*
X015663Y010550D01*
X014940Y010845D02*
X013378Y010845D01*
X013524Y010747D02*
X013967Y010747D01*
X014129Y010747D02*
X014189Y010747D01*
X014189Y010648D02*
X014129Y010648D01*
X014129Y010550D02*
X014189Y010550D01*
X014189Y010451D02*
X014129Y010451D01*
X014129Y010353D02*
X014189Y010353D01*
X014189Y010254D02*
X014129Y010254D01*
X014129Y010156D02*
X014189Y010156D01*
X014189Y009959D02*
X014129Y009959D01*
X014129Y009860D02*
X014189Y009860D01*
X014189Y009761D02*
X014129Y009761D01*
X014129Y009663D02*
X014189Y009663D01*
X014189Y009564D02*
X014129Y009564D01*
X014129Y009466D02*
X014189Y009466D01*
X014589Y010156D02*
X014629Y010156D01*
X014629Y010254D02*
X014589Y010254D01*
X014589Y010353D02*
X014629Y010353D01*
X014629Y010451D02*
X014580Y010451D01*
X014546Y010550D02*
X014663Y010550D01*
X014704Y010648D02*
X014481Y010648D01*
X014351Y010747D02*
X014794Y010747D01*
X015054Y011272D02*
X014859Y011353D01*
X014710Y011502D01*
X014629Y011697D01*
X014629Y012468D01*
X014710Y012663D01*
X014859Y012812D01*
X015054Y012892D01*
X015264Y012892D01*
X015459Y012812D01*
X015608Y012663D01*
X015659Y012540D01*
X015710Y012663D01*
X015859Y012812D01*
X016054Y012892D01*
X016264Y012892D01*
X016459Y012812D01*
X016608Y012663D01*
X016659Y012540D01*
X016710Y012663D01*
X016859Y012812D01*
X017054Y012892D01*
X017264Y012892D01*
X017459Y012812D01*
X017608Y012663D01*
X017659Y012540D01*
X017710Y012663D01*
X017859Y012812D01*
X018054Y012892D01*
X018264Y012892D01*
X018459Y012812D01*
X018608Y012663D01*
X018689Y012468D01*
X018689Y011697D01*
X018608Y011502D01*
X018459Y011353D01*
X018264Y011272D01*
X018054Y011272D01*
X017859Y011353D01*
X017710Y011502D01*
X017659Y011625D01*
X017608Y011502D01*
X017459Y011353D01*
X017264Y011272D01*
X017054Y011272D01*
X016859Y011353D01*
X016710Y011502D01*
X016659Y011625D01*
X016608Y011502D01*
X016459Y011353D01*
X016264Y011272D01*
X016054Y011272D01*
X015859Y011353D01*
X015710Y011502D01*
X015659Y011625D01*
X015608Y011502D01*
X015459Y011353D01*
X015264Y011272D01*
X015054Y011272D01*
X014895Y011338D02*
X010923Y011338D01*
X011043Y011437D02*
X011431Y011437D01*
X011434Y011435D02*
X011494Y011404D01*
X011558Y011383D01*
X011625Y011372D01*
X011629Y011372D01*
X011629Y012052D01*
X011689Y012052D01*
X011689Y011372D01*
X011693Y011372D01*
X011760Y011383D01*
X011824Y011404D01*
X011884Y011435D01*
X011939Y011474D01*
X011987Y011522D01*
X012027Y011577D01*
X012058Y011637D01*
X012078Y011702D01*
X012089Y011768D01*
X012089Y012052D01*
X011689Y012052D01*
X011689Y012112D01*
X012089Y012112D01*
X012089Y012396D01*
X012078Y012463D01*
X012058Y012527D01*
X012027Y012588D01*
X011987Y012642D01*
X011939Y012690D01*
X011884Y012730D01*
X011824Y012761D01*
X011760Y012782D01*
X011693Y012792D01*
X011689Y012792D01*
X011689Y012113D01*
X011629Y012113D01*
X011629Y012792D01*
X011625Y012792D01*
X011558Y012782D01*
X011494Y012761D01*
X011434Y012730D01*
X011379Y012690D01*
X011331Y012642D01*
X011291Y012588D01*
X011261Y012527D01*
X011240Y012463D01*
X011229Y012396D01*
X011229Y012112D01*
X011629Y012112D01*
X011629Y012052D01*
X011229Y012052D01*
X011229Y011768D01*
X011240Y011702D01*
X011261Y011637D01*
X011291Y011577D01*
X011331Y011522D01*
X011379Y011474D01*
X011434Y011435D01*
X011322Y011535D02*
X011122Y011535D01*
X011163Y011634D02*
X011262Y011634D01*
X011235Y011732D02*
X011189Y011732D01*
X011189Y011831D02*
X011229Y011831D01*
X011229Y011929D02*
X011189Y011929D01*
X011189Y012028D02*
X011229Y012028D01*
X011229Y012126D02*
X011189Y012126D01*
X011189Y012225D02*
X011229Y012225D01*
X011229Y012324D02*
X011189Y012324D01*
X011189Y012422D02*
X011233Y012422D01*
X011258Y012521D02*
X011167Y012521D01*
X011126Y012619D02*
X011314Y012619D01*
X011417Y012718D02*
X011053Y012718D01*
X010989Y012816D02*
X014870Y012816D01*
X014765Y012718D02*
X014401Y012718D01*
X014384Y012730D02*
X014439Y012690D01*
X014487Y012642D01*
X014527Y012588D01*
X014558Y012527D01*
X014578Y012463D01*
X014589Y012396D01*
X014589Y012112D01*
X014189Y012112D01*
X014189Y012052D01*
X014189Y011372D01*
X014193Y011372D01*
X014260Y011383D01*
X014324Y011404D01*
X014384Y011435D01*
X014439Y011474D01*
X014487Y011522D01*
X014527Y011577D01*
X014558Y011637D01*
X014578Y011702D01*
X014589Y011768D01*
X014589Y012052D01*
X014189Y012052D01*
X014129Y012052D01*
X014129Y011372D01*
X014125Y011372D01*
X014058Y011383D01*
X013994Y011404D01*
X013934Y011435D01*
X013879Y011474D01*
X013831Y011522D01*
X013791Y011577D01*
X013761Y011637D01*
X013740Y011702D01*
X013729Y011768D01*
X013729Y012052D01*
X014129Y012052D01*
X014129Y012112D01*
X013729Y012112D01*
X013729Y012396D01*
X013740Y012463D01*
X013761Y012527D01*
X013791Y012588D01*
X013831Y012642D01*
X013879Y012690D01*
X013934Y012730D01*
X013994Y012761D01*
X014058Y012782D01*
X014125Y012792D01*
X014129Y012792D01*
X014129Y012113D01*
X014189Y012113D01*
X014189Y012792D01*
X014193Y012792D01*
X014260Y012782D01*
X014324Y012761D01*
X014384Y012730D01*
X014504Y012619D02*
X014692Y012619D01*
X014651Y012521D02*
X014560Y012521D01*
X014585Y012422D02*
X014629Y012422D01*
X014629Y012324D02*
X014589Y012324D01*
X014589Y012225D02*
X014629Y012225D01*
X014629Y012126D02*
X014589Y012126D01*
X014589Y012028D02*
X014629Y012028D01*
X014629Y011929D02*
X014589Y011929D01*
X014589Y011831D02*
X014629Y011831D01*
X014629Y011732D02*
X014583Y011732D01*
X014556Y011634D02*
X014655Y011634D01*
X014696Y011535D02*
X014496Y011535D01*
X014387Y011437D02*
X014775Y011437D01*
X014189Y011437D02*
X014129Y011437D01*
X014129Y011535D02*
X014189Y011535D01*
X014189Y011634D02*
X014129Y011634D01*
X014129Y011732D02*
X014189Y011732D01*
X014189Y011831D02*
X014129Y011831D01*
X014129Y011929D02*
X014189Y011929D01*
X014189Y012028D02*
X014129Y012028D01*
X014129Y012126D02*
X014189Y012126D01*
X014189Y012225D02*
X014129Y012225D01*
X014129Y012324D02*
X014189Y012324D01*
X014189Y012422D02*
X014129Y012422D01*
X014129Y012521D02*
X014189Y012521D01*
X014189Y012619D02*
X014129Y012619D01*
X014129Y012718D02*
X014189Y012718D01*
X013917Y012718D02*
X011901Y012718D01*
X012004Y012619D02*
X013814Y012619D01*
X013758Y012521D02*
X012060Y012521D01*
X012085Y012422D02*
X013733Y012422D01*
X013729Y012324D02*
X012089Y012324D01*
X012089Y012225D02*
X013729Y012225D01*
X013729Y012126D02*
X012089Y012126D01*
X012089Y012028D02*
X013729Y012028D01*
X013729Y011929D02*
X012089Y011929D01*
X012089Y011831D02*
X013729Y011831D01*
X013735Y011732D02*
X012083Y011732D01*
X012056Y011634D02*
X013762Y011634D01*
X013822Y011535D02*
X011996Y011535D01*
X011887Y011437D02*
X013931Y011437D01*
X013837Y010648D02*
X013614Y010648D01*
X013655Y010550D02*
X013772Y010550D01*
X013738Y010451D02*
X013689Y010451D01*
X013689Y010353D02*
X013729Y010353D01*
X013729Y010254D02*
X013689Y010254D01*
X013689Y010156D02*
X013729Y010156D01*
X012940Y010845D02*
X012378Y010845D01*
X012524Y010747D02*
X012794Y010747D01*
X012704Y010648D02*
X012614Y010648D01*
X012655Y010550D02*
X012663Y010550D01*
X011940Y010845D02*
X011378Y010845D01*
X011524Y010747D02*
X011794Y010747D01*
X011704Y010648D02*
X011614Y010648D01*
X011655Y010550D02*
X011663Y010550D01*
X010940Y010845D02*
X010378Y010845D01*
X010524Y010747D02*
X010794Y010747D01*
X010704Y010648D02*
X010614Y010648D01*
X010655Y010550D02*
X010663Y010550D01*
X009940Y010845D02*
X009378Y010845D01*
X009524Y010747D02*
X009794Y010747D01*
X009704Y010648D02*
X009614Y010648D01*
X009655Y010550D02*
X009663Y010550D01*
X008940Y010845D02*
X008378Y010845D01*
X008524Y010747D02*
X008794Y010747D01*
X008704Y010648D02*
X008614Y010648D01*
X008655Y010550D02*
X008663Y010550D01*
X007940Y010845D02*
X006689Y010845D01*
X006644Y010747D02*
X007794Y010747D01*
X007704Y010648D02*
X006545Y010648D01*
X006512Y010550D02*
X007663Y010550D01*
X007629Y010451D02*
X006610Y010451D01*
X006675Y010353D02*
X007629Y010353D01*
X007629Y010254D02*
X006716Y010254D01*
X006739Y010156D02*
X007629Y010156D01*
X007629Y010057D02*
X006739Y010057D01*
X006736Y009959D02*
X007629Y009959D01*
X007629Y009860D02*
X006695Y009860D01*
X006654Y009761D02*
X007629Y009761D01*
X007643Y009663D02*
X006560Y009663D01*
X006497Y009564D02*
X007684Y009564D01*
X007746Y009466D02*
X006596Y009466D01*
X006669Y009367D02*
X007845Y009367D01*
X008474Y009367D02*
X008845Y009367D01*
X008746Y009466D02*
X008572Y009466D01*
X008634Y009564D02*
X008684Y009564D01*
X008490Y009170D02*
X009889Y009170D01*
X009889Y009072D02*
X008588Y009072D01*
X008687Y008973D02*
X009889Y008973D01*
X009889Y008875D02*
X008785Y008875D01*
X008884Y008776D02*
X009889Y008776D01*
X009889Y008677D02*
X008982Y008677D01*
X009081Y008579D02*
X009889Y008579D01*
X009889Y008480D02*
X009179Y008480D01*
X009278Y008382D02*
X009889Y008382D01*
X009889Y008283D02*
X009376Y008283D01*
X009475Y008185D02*
X009889Y008185D01*
X009889Y008086D02*
X009574Y008086D01*
X009672Y007988D02*
X009889Y007988D01*
X009902Y007889D02*
X009771Y007889D01*
X008894Y007889D02*
X008272Y007889D01*
X008046Y007889D02*
X006707Y007889D01*
X006739Y007988D02*
X008795Y007988D01*
X008697Y008086D02*
X006739Y008086D01*
X006739Y008185D02*
X008598Y008185D01*
X008500Y008283D02*
X006704Y008283D01*
X006663Y008382D02*
X008401Y008382D01*
X008303Y008480D02*
X006581Y008480D01*
X006476Y008579D02*
X008204Y008579D01*
X008480Y007791D02*
X008838Y007791D01*
X008739Y007692D02*
X008579Y007692D01*
X008637Y007594D02*
X008681Y007594D01*
X007838Y007791D02*
X006666Y007791D01*
X006589Y007692D02*
X007739Y007692D01*
X007681Y007594D02*
X006490Y007594D01*
X006567Y007495D02*
X007640Y007495D01*
X007629Y007396D02*
X006657Y007396D01*
X006698Y007298D02*
X007629Y007298D01*
X007629Y007199D02*
X006738Y007199D01*
X006739Y007101D02*
X007629Y007101D01*
X007629Y007002D02*
X006739Y007002D01*
X006713Y006904D02*
X007629Y006904D01*
X007629Y006805D02*
X006672Y006805D01*
X006604Y006707D02*
X007629Y006707D01*
X007666Y006608D02*
X006505Y006608D01*
X006292Y006510D02*
X007707Y006510D01*
X007801Y006411D02*
X005829Y006411D01*
X005829Y006510D02*
X006026Y006510D01*
X005810Y006312D02*
X007957Y006312D01*
X008361Y006312D02*
X008957Y006312D01*
X008801Y006411D02*
X008517Y006411D01*
X008611Y006510D02*
X008707Y006510D01*
X008666Y006608D02*
X008652Y006608D01*
X009361Y006312D02*
X009957Y006312D01*
X009801Y006411D02*
X009517Y006411D01*
X009611Y006510D02*
X009707Y006510D01*
X009666Y006608D02*
X009652Y006608D01*
X010289Y006214D02*
X005769Y006214D01*
X005708Y006115D02*
X010289Y006115D01*
X010289Y006017D02*
X005610Y006017D01*
X005411Y005918D02*
X010289Y005918D01*
X010289Y005820D02*
X003949Y005820D01*
X003949Y005918D02*
X004467Y005918D01*
X004268Y006017D02*
X003949Y006017D01*
X003949Y006115D02*
X004170Y006115D01*
X004109Y006214D02*
X003949Y006214D01*
X003949Y006312D02*
X004068Y006312D01*
X004049Y006411D02*
X003949Y006411D01*
X003949Y006510D02*
X004049Y006510D01*
X004058Y006608D02*
X003949Y006608D01*
X003949Y006707D02*
X004099Y006707D01*
X004146Y006805D02*
X003949Y006805D01*
X003949Y006904D02*
X004244Y006904D01*
X004409Y007002D02*
X003949Y007002D01*
X003949Y007101D02*
X005579Y007101D01*
X005580Y007199D02*
X003949Y007199D01*
X003949Y007298D02*
X005621Y007298D01*
X005661Y007396D02*
X003949Y007396D01*
X003944Y007495D02*
X005751Y007495D01*
X005828Y007594D02*
X004337Y007594D01*
X004209Y007594D02*
X004109Y007594D01*
X004109Y007564D02*
X004109Y008032D01*
X003640Y008032D01*
X003652Y007961D01*
X003677Y007883D01*
X003714Y007810D01*
X003762Y007744D01*
X003820Y007686D01*
X003886Y007638D01*
X003959Y007600D01*
X004037Y007575D01*
X004109Y007564D01*
X004109Y007692D02*
X004209Y007692D01*
X004209Y007791D02*
X004109Y007791D01*
X004109Y007889D02*
X004209Y007889D01*
X004209Y007988D02*
X004109Y007988D01*
X004109Y008086D02*
X003469Y008086D01*
X003469Y008185D02*
X003649Y008185D01*
X003678Y008283D02*
X003469Y008283D01*
X003469Y008382D02*
X003734Y008382D01*
X003822Y008480D02*
X003469Y008480D01*
X003469Y008579D02*
X004005Y008579D01*
X004109Y008579D02*
X004209Y008579D01*
X004209Y008677D02*
X004109Y008677D01*
X004109Y008776D02*
X004209Y008776D01*
X004209Y008875D02*
X004109Y008875D01*
X004109Y008973D02*
X004209Y008973D01*
X004209Y009072D02*
X004751Y009072D01*
X004702Y009170D02*
X004672Y009170D01*
X004689Y009269D02*
X004645Y009269D01*
X004689Y009367D02*
X004595Y009367D01*
X004511Y009466D02*
X004689Y009466D01*
X004689Y009564D02*
X004518Y009564D01*
X004616Y009663D02*
X004689Y009663D01*
X004668Y008973D02*
X004850Y008973D01*
X004948Y008875D02*
X004637Y008875D01*
X004579Y008776D02*
X005047Y008776D01*
X005146Y008677D02*
X004486Y008677D01*
X004496Y008480D02*
X005343Y008480D01*
X005441Y008382D02*
X004584Y008382D01*
X004640Y008283D02*
X005540Y008283D01*
X005579Y008185D02*
X004669Y008185D01*
X004670Y007988D02*
X005579Y007988D01*
X005579Y008086D02*
X004209Y008086D01*
X004209Y008185D02*
X004109Y008185D01*
X004109Y008283D02*
X004209Y008283D01*
X004209Y008382D02*
X004109Y008382D01*
X004109Y008480D02*
X004209Y008480D01*
X004313Y008579D02*
X005244Y008579D01*
X005611Y007889D02*
X004643Y007889D01*
X004590Y007791D02*
X005652Y007791D01*
X005729Y007692D02*
X004504Y007692D01*
X003981Y007594D02*
X003904Y007594D01*
X003814Y007692D02*
X003808Y007692D01*
X003728Y007791D02*
X003709Y007791D01*
X003675Y007889D02*
X003611Y007889D01*
X003648Y007988D02*
X003512Y007988D01*
X003029Y007594D02*
X001329Y007594D01*
X001329Y007692D02*
X002931Y007692D01*
X002870Y007791D02*
X001329Y007791D01*
X001329Y007889D02*
X002849Y007889D01*
X002849Y007988D02*
X001329Y007988D01*
X001329Y008086D02*
X002849Y008086D01*
X002849Y008185D02*
X001329Y008185D01*
X001329Y008283D02*
X002849Y008283D01*
X002849Y008382D02*
X001329Y008382D01*
X001329Y008480D02*
X002849Y008480D01*
X002849Y008579D02*
X001329Y008579D01*
X001329Y008677D02*
X002849Y008677D01*
X002849Y008776D02*
X001329Y008776D01*
X001329Y008875D02*
X002849Y008875D01*
X002849Y008973D02*
X001329Y008973D01*
X001329Y009072D02*
X002849Y009072D01*
X002849Y009170D02*
X001329Y009170D01*
X001329Y009269D02*
X002849Y009269D01*
X002849Y009367D02*
X001329Y009367D01*
X001329Y009466D02*
X002849Y009466D01*
X002849Y009564D02*
X001329Y009564D01*
X001329Y009663D02*
X002849Y009663D01*
X002849Y009761D02*
X001329Y009761D01*
X001329Y009860D02*
X002849Y009860D01*
X002849Y009959D02*
X001329Y009959D01*
X001329Y010057D02*
X002849Y010057D01*
X002849Y010156D02*
X001329Y010156D01*
X001329Y010254D02*
X002849Y010254D01*
X002849Y010353D02*
X001329Y010353D01*
X001329Y010451D02*
X002849Y010451D01*
X002849Y010550D02*
X001329Y010550D01*
X001329Y010648D02*
X002849Y010648D01*
X002849Y010747D02*
X001329Y010747D01*
X001329Y010845D02*
X002849Y010845D01*
X002849Y010944D02*
X001329Y010944D01*
X001329Y011043D02*
X002849Y011043D01*
X002849Y011141D02*
X001329Y011141D01*
X001329Y011240D02*
X002849Y011240D01*
X002849Y011338D02*
X001329Y011338D01*
X001329Y011437D02*
X002849Y011437D01*
X002849Y011535D02*
X001329Y011535D01*
X001329Y011634D02*
X002849Y011634D01*
X002849Y011732D02*
X001329Y011732D01*
X001329Y011831D02*
X002849Y011831D01*
X002868Y011929D02*
X001329Y011929D01*
X001329Y012028D02*
X002926Y012028D01*
X003025Y012126D02*
X001329Y012126D01*
X001329Y012225D02*
X003123Y012225D01*
X003222Y012324D02*
X001329Y012324D01*
X001329Y012422D02*
X003320Y012422D01*
X003419Y012521D02*
X001329Y012521D01*
X001329Y012619D02*
X003518Y012619D01*
X003616Y012718D02*
X001329Y012718D01*
X001329Y012816D02*
X003598Y012816D01*
X003557Y012915D02*
X001329Y012915D01*
X001329Y013013D02*
X003539Y013013D01*
X003539Y013112D02*
X001329Y013112D01*
X001329Y013210D02*
X003541Y013210D01*
X003582Y013309D02*
X001329Y013309D01*
X001329Y013408D02*
X003623Y013408D01*
X003706Y013506D02*
X001329Y013506D01*
X001329Y013605D02*
X003805Y013605D01*
X004514Y013605D02*
X006538Y013605D01*
X006440Y013703D02*
X001329Y013703D01*
X001329Y013802D02*
X006341Y013802D01*
X006243Y013900D02*
X001329Y013900D01*
X001329Y013999D02*
X006144Y013999D01*
X006046Y014097D02*
X001329Y014097D01*
X001329Y014196D02*
X005947Y014196D01*
X005849Y014294D02*
X001329Y014294D01*
X001329Y014393D02*
X005750Y014393D01*
X005651Y014492D02*
X003149Y014492D01*
X003171Y014500D02*
X003079Y014462D01*
X002239Y014462D01*
X002147Y014500D01*
X002077Y014571D01*
X002039Y014663D01*
X002039Y015502D01*
X002077Y015594D01*
X002147Y015664D01*
X002239Y015702D01*
X002456Y015702D01*
X002386Y015738D01*
X002320Y015786D01*
X002262Y015844D01*
X002214Y015910D01*
X002177Y015983D01*
X002152Y016061D01*
X002140Y016132D01*
X002609Y016132D01*
X002609Y016232D01*
X002140Y016232D01*
X002152Y016304D01*
X002177Y016382D01*
X002214Y016455D01*
X002262Y016521D01*
X002320Y016579D01*
X002386Y016627D01*
X002459Y016664D01*
X002537Y016690D01*
X002609Y016701D01*
X002609Y016233D01*
X002709Y016233D01*
X002709Y016701D01*
X002781Y016690D01*
X002859Y016664D01*
X002932Y016627D01*
X002998Y016579D01*
X003056Y016521D01*
X003104Y016455D01*
X003141Y016382D01*
X003166Y016304D01*
X003178Y016232D01*
X002709Y016232D01*
X002709Y016132D01*
X003178Y016132D01*
X003166Y016061D01*
X003141Y015983D01*
X003104Y015910D01*
X003056Y015844D01*
X002998Y015786D01*
X002932Y015738D01*
X002862Y015702D01*
X003079Y015702D01*
X003171Y015664D01*
X003241Y015594D01*
X003279Y015502D01*
X003279Y014663D01*
X003241Y014571D01*
X003171Y014500D01*
X003249Y014590D02*
X004648Y014590D01*
X004592Y014689D02*
X003279Y014689D01*
X003279Y014787D02*
X004584Y014787D01*
X004584Y014886D02*
X003279Y014886D01*
X003279Y014984D02*
X004584Y014984D01*
X004584Y015083D02*
X003279Y015083D01*
X003279Y015181D02*
X004584Y015181D01*
X004584Y015280D02*
X003279Y015280D01*
X003279Y015378D02*
X004584Y015378D01*
X004592Y015477D02*
X003279Y015477D01*
X003249Y015576D02*
X004649Y015576D01*
X005669Y015576D02*
X005847Y015576D01*
X005741Y015477D02*
X005726Y015477D01*
X006471Y015576D02*
X007347Y015576D01*
X007240Y015477D02*
X006578Y015477D01*
X006659Y015378D02*
X007159Y015378D01*
X007119Y015280D02*
X006700Y015280D01*
X006734Y015181D02*
X007084Y015181D01*
X007084Y015083D02*
X006734Y015083D01*
X006734Y014984D02*
X007084Y014984D01*
X007118Y014886D02*
X006700Y014886D01*
X006659Y014787D02*
X007159Y014787D01*
X007240Y014689D02*
X006579Y014689D01*
X006473Y014590D02*
X007345Y014590D01*
X007416Y014492D02*
X006528Y014492D01*
X006627Y014393D02*
X007298Y014393D01*
X007234Y014294D02*
X006725Y014294D01*
X006824Y014196D02*
X007197Y014196D01*
X007184Y014063D02*
X007184Y014045D01*
X007196Y013971D01*
X007219Y013900D01*
X007253Y013833D01*
X007297Y013773D01*
X007350Y013720D01*
X007410Y013676D01*
X007477Y013642D01*
X007548Y013619D01*
X007622Y013607D01*
X007640Y013607D01*
X007640Y014063D01*
X007184Y014063D01*
X007191Y013999D02*
X007021Y013999D01*
X006922Y014097D02*
X007640Y014097D01*
X007678Y014097D02*
X008756Y014097D01*
X008657Y013999D02*
X008127Y013999D01*
X008099Y013900D02*
X008559Y013900D01*
X008460Y013802D02*
X008042Y013802D01*
X007945Y013703D02*
X008362Y013703D01*
X008263Y013605D02*
X007415Y013605D01*
X007373Y013703D02*
X007317Y013703D01*
X007276Y013802D02*
X007218Y013802D01*
X007219Y013900D02*
X007119Y013900D01*
X007640Y013900D02*
X007678Y013900D01*
X007678Y013802D02*
X007640Y013802D01*
X007640Y013703D02*
X007678Y013703D01*
X007514Y013506D02*
X008164Y013506D01*
X008066Y013408D02*
X007612Y013408D01*
X007711Y013309D02*
X007967Y013309D01*
X007869Y013210D02*
X007809Y013210D01*
X007327Y012816D02*
X006559Y012816D01*
X006609Y012915D02*
X007228Y012915D01*
X007130Y013013D02*
X006634Y013013D01*
X006639Y013112D02*
X007031Y013112D01*
X006933Y013210D02*
X006622Y013210D01*
X006582Y013309D02*
X006834Y013309D01*
X006735Y013408D02*
X006513Y013408D01*
X006637Y013506D02*
X006385Y013506D01*
X006188Y013506D02*
X006130Y013506D01*
X006130Y013562D02*
X006121Y013562D01*
X006047Y013551D01*
X005975Y013527D01*
X005907Y013493D01*
X005846Y013448D01*
X005793Y013395D01*
X005749Y013334D01*
X005714Y013267D01*
X005691Y013195D01*
X005679Y013120D01*
X005679Y013111D01*
X006130Y013111D01*
X006130Y013562D01*
X006130Y013408D02*
X006188Y013408D01*
X006188Y013309D02*
X006130Y013309D01*
X006130Y013210D02*
X006188Y013210D01*
X006188Y013112D02*
X006130Y013112D01*
X005805Y013408D02*
X004695Y013408D01*
X004736Y013309D02*
X005736Y013309D01*
X005696Y013210D02*
X004777Y013210D01*
X004779Y013112D02*
X005679Y013112D01*
X005684Y013013D02*
X004779Y013013D01*
X004761Y012915D02*
X005709Y012915D01*
X005759Y012816D02*
X004720Y012816D01*
X004671Y012718D02*
X005845Y012718D01*
X005940Y012619D02*
X004573Y012619D01*
X004598Y012521D02*
X005777Y012521D01*
X005679Y012422D02*
X004689Y012422D01*
X004730Y012324D02*
X005631Y012324D01*
X005590Y012225D02*
X004771Y012225D01*
X004779Y012126D02*
X005505Y012126D01*
X005406Y012028D02*
X004779Y012028D01*
X004767Y011929D02*
X005308Y011929D01*
X005209Y011831D02*
X004726Y011831D01*
X004685Y011732D02*
X005111Y011732D01*
X005012Y011634D02*
X004587Y011634D01*
X004583Y011535D02*
X004914Y011535D01*
X004815Y011437D02*
X004681Y011437D01*
X004724Y011338D02*
X004728Y011338D01*
X003735Y011535D02*
X003469Y011535D01*
X003469Y011437D02*
X003637Y011437D01*
X003594Y011338D02*
X003469Y011338D01*
X003469Y011240D02*
X003553Y011240D01*
X003539Y011141D02*
X003469Y011141D01*
X003469Y011043D02*
X003539Y011043D01*
X003545Y010944D02*
X003469Y010944D01*
X003469Y010845D02*
X003586Y010845D01*
X003627Y010747D02*
X003469Y010747D01*
X003469Y010648D02*
X003716Y010648D01*
X003750Y010550D02*
X003469Y010550D01*
X003469Y010451D02*
X003651Y010451D01*
X003600Y010353D02*
X003469Y010353D01*
X003469Y010254D02*
X003559Y010254D01*
X003539Y010156D02*
X003469Y010156D01*
X003469Y010057D02*
X003539Y010057D01*
X003539Y009959D02*
X003469Y009959D01*
X003469Y009860D02*
X003580Y009860D01*
X003621Y009761D02*
X003469Y009761D01*
X003469Y009663D02*
X003702Y009663D01*
X003800Y009564D02*
X003469Y009564D01*
X003469Y009466D02*
X003807Y009466D01*
X003723Y009367D02*
X003469Y009367D01*
X003469Y009269D02*
X003673Y009269D01*
X003646Y009170D02*
X003469Y009170D01*
X003469Y009072D02*
X004109Y009072D01*
X003739Y008776D02*
X003469Y008776D01*
X003469Y008677D02*
X003832Y008677D01*
X003681Y008875D02*
X003469Y008875D01*
X003469Y008973D02*
X003650Y008973D01*
X003128Y007495D02*
X001329Y007495D01*
X001329Y007396D02*
X003227Y007396D01*
X003325Y007298D02*
X001329Y007298D01*
X001329Y007199D02*
X003329Y007199D01*
X003329Y007101D02*
X001329Y007101D01*
X001329Y007002D02*
X001849Y007002D01*
X001946Y007042D02*
X001736Y006956D01*
X001576Y006795D01*
X001489Y006586D01*
X001489Y006359D01*
X001576Y006149D01*
X001736Y005989D01*
X001946Y005902D01*
X002812Y005902D01*
X003022Y005989D01*
X003182Y006149D01*
X003269Y006359D01*
X003269Y006586D01*
X003182Y006795D01*
X003022Y006956D01*
X002812Y007042D01*
X001946Y007042D01*
X001684Y006904D02*
X001329Y006904D01*
X001329Y006805D02*
X001586Y006805D01*
X001539Y006707D02*
X001329Y006707D01*
X001329Y006608D02*
X001498Y006608D01*
X001489Y006510D02*
X001329Y006510D01*
X001329Y006411D02*
X001489Y006411D01*
X001508Y006312D02*
X001329Y006312D01*
X001329Y006214D02*
X001549Y006214D01*
X001610Y006115D02*
X001329Y006115D01*
X001329Y006017D02*
X001708Y006017D01*
X001907Y005918D02*
X001329Y005918D01*
X001329Y005820D02*
X003329Y005820D01*
X003329Y005918D02*
X002851Y005918D01*
X003050Y006017D02*
X003329Y006017D01*
X003329Y006115D02*
X003148Y006115D01*
X003209Y006214D02*
X003329Y006214D01*
X003329Y006312D02*
X003250Y006312D01*
X003269Y006411D02*
X003329Y006411D01*
X003329Y006510D02*
X003269Y006510D01*
X003260Y006608D02*
X003329Y006608D01*
X003329Y006707D02*
X003219Y006707D01*
X003172Y006805D02*
X003329Y006805D01*
X003329Y006904D02*
X003074Y006904D01*
X002909Y007002D02*
X003329Y007002D01*
X003329Y005721D02*
X001329Y005721D01*
X001329Y005623D02*
X003329Y005623D01*
X003329Y005524D02*
X001329Y005524D01*
X001329Y005426D02*
X003329Y005426D01*
X003329Y005327D02*
X001329Y005327D01*
X001329Y005228D02*
X003329Y005228D01*
X003329Y005130D02*
X002873Y005130D01*
X002879Y005128D02*
X002809Y005151D01*
X002736Y005162D01*
X002429Y005162D01*
X002429Y004743D01*
X002329Y004743D01*
X002329Y005162D01*
X002022Y005162D01*
X001949Y005151D01*
X001879Y005128D01*
X001813Y005094D01*
X001753Y005051D01*
X001701Y004999D01*
X001657Y004939D01*
X001624Y004873D01*
X001601Y004802D01*
X001591Y004742D01*
X002329Y004742D01*
X002329Y004642D01*
X002429Y004642D01*
X002429Y004222D01*
X002736Y004222D01*
X002809Y004234D01*
X002879Y004257D01*
X002945Y004290D01*
X003005Y004334D01*
X003058Y004386D01*
X003101Y004446D01*
X003135Y004512D01*
X003157Y004582D01*
X003167Y004642D01*
X002429Y004642D01*
X002429Y004742D01*
X003167Y004742D01*
X003157Y004802D01*
X003135Y004873D01*
X003101Y004939D01*
X003058Y004999D01*
X003005Y005051D01*
X002945Y005094D01*
X002879Y005128D01*
X003025Y005031D02*
X003329Y005031D01*
X003329Y004933D02*
X003104Y004933D01*
X003147Y004834D02*
X003329Y004834D01*
X003329Y004736D02*
X002429Y004736D01*
X002429Y004834D02*
X002329Y004834D01*
X002329Y004736D02*
X001329Y004736D01*
X001329Y004834D02*
X001611Y004834D01*
X001654Y004933D02*
X001329Y004933D01*
X001329Y005031D02*
X001733Y005031D01*
X001885Y005130D02*
X001329Y005130D01*
X001329Y004637D02*
X001592Y004637D01*
X001591Y004642D02*
X001601Y004582D01*
X001624Y004512D01*
X001657Y004446D01*
X001701Y004386D01*
X001753Y004334D01*
X001813Y004290D01*
X001879Y004257D01*
X001949Y004234D01*
X002022Y004222D01*
X002329Y004222D01*
X002329Y004642D01*
X001591Y004642D01*
X001615Y004539D02*
X001329Y004539D01*
X001329Y004440D02*
X001661Y004440D01*
X001745Y004342D02*
X001329Y004342D01*
X001329Y004243D02*
X001921Y004243D01*
X002182Y003909D02*
X001928Y003696D01*
X001928Y003696D01*
X001928Y003696D01*
X001762Y003409D01*
X001762Y003409D01*
X001705Y003082D01*
X001762Y002756D01*
X001762Y002756D01*
X001928Y002469D01*
X002182Y002256D01*
X002493Y002142D01*
X002493Y002142D01*
X002572Y002142D01*
X002659Y002142D01*
X002825Y002142D01*
X003136Y002256D01*
X003136Y002256D01*
X003390Y002469D01*
X003556Y002756D01*
X003614Y003082D01*
X003556Y003409D01*
X003390Y003696D01*
X003136Y003909D01*
X002825Y004022D01*
X002825Y004022D01*
X002659Y004022D01*
X002493Y004022D01*
X002182Y003909D01*
X002182Y003909D01*
X002110Y003849D02*
X001329Y003849D01*
X001329Y003947D02*
X002287Y003947D01*
X002493Y004022D02*
X002493Y004022D01*
X002429Y004243D02*
X002329Y004243D01*
X002329Y004342D02*
X002429Y004342D01*
X002429Y004440D02*
X002329Y004440D01*
X002329Y004539D02*
X002429Y004539D01*
X002429Y004637D02*
X002329Y004637D01*
X002329Y004933D02*
X002429Y004933D01*
X002429Y005031D02*
X002329Y005031D01*
X002329Y005130D02*
X002429Y005130D01*
X003166Y004637D02*
X003329Y004637D01*
X003329Y004539D02*
X003143Y004539D01*
X003097Y004440D02*
X003346Y004440D01*
X003401Y004342D02*
X003013Y004342D01*
X002837Y004243D02*
X003500Y004243D01*
X003599Y004144D02*
X001329Y004144D01*
X001329Y004046D02*
X003697Y004046D01*
X003796Y003947D02*
X003031Y003947D01*
X003136Y003909D02*
X003136Y003909D01*
X003208Y003849D02*
X003894Y003849D01*
X003993Y003750D02*
X003325Y003750D01*
X003390Y003696D02*
X003390Y003696D01*
X003416Y003652D02*
X004084Y003652D01*
X004084Y003553D02*
X003473Y003553D01*
X003529Y003455D02*
X004090Y003455D01*
X004130Y003356D02*
X003565Y003356D01*
X003556Y003409D02*
X003556Y003409D01*
X003583Y003258D02*
X004171Y003258D01*
X004269Y003159D02*
X003600Y003159D01*
X003614Y003082D02*
X003614Y003082D01*
X003610Y003061D02*
X004260Y003061D01*
X004162Y002962D02*
X003592Y002962D01*
X003575Y002863D02*
X004104Y002863D01*
X004064Y002765D02*
X003558Y002765D01*
X003556Y002756D02*
X003556Y002756D01*
X003504Y002666D02*
X004039Y002666D01*
X004039Y002568D02*
X003447Y002568D01*
X003390Y002469D02*
X004039Y002469D01*
X004076Y002371D02*
X003273Y002371D01*
X003390Y002469D02*
X003390Y002469D01*
X003390Y002469D01*
X003156Y002272D02*
X004116Y002272D01*
X004191Y002174D02*
X002911Y002174D01*
X002825Y002142D02*
X002825Y002142D01*
X002407Y002174D02*
X001329Y002174D01*
X001329Y002272D02*
X002162Y002272D01*
X002182Y002256D02*
X002182Y002256D01*
X002045Y002371D02*
X001329Y002371D01*
X001329Y002469D02*
X001928Y002469D01*
X001928Y002469D01*
X001871Y002568D02*
X001329Y002568D01*
X001329Y002666D02*
X001814Y002666D01*
X001761Y002765D02*
X001329Y002765D01*
X001329Y002863D02*
X001743Y002863D01*
X001726Y002962D02*
X001329Y002962D01*
X001329Y003061D02*
X001708Y003061D01*
X001705Y003082D02*
X001705Y003082D01*
X001718Y003159D02*
X001329Y003159D01*
X001329Y003258D02*
X001735Y003258D01*
X001753Y003356D02*
X001329Y003356D01*
X001329Y003455D02*
X001789Y003455D01*
X001846Y003553D02*
X001329Y003553D01*
X001329Y003652D02*
X001902Y003652D01*
X001993Y003750D02*
X001329Y003750D01*
X001329Y002075D02*
X004289Y002075D01*
X004501Y001977D02*
X001329Y001977D01*
X001329Y001878D02*
X024009Y001878D01*
X024009Y001779D02*
X001329Y001779D01*
X004081Y004539D02*
X004175Y004539D01*
X004184Y004512D02*
X004217Y004446D01*
X004261Y004386D01*
X004313Y004334D01*
X004373Y004290D01*
X004439Y004257D01*
X004509Y004234D01*
X004582Y004222D01*
X004889Y004222D01*
X004889Y004642D01*
X004989Y004642D01*
X004989Y004222D01*
X005296Y004222D01*
X005369Y004234D01*
X005439Y004257D01*
X005505Y004290D01*
X005565Y004334D01*
X005618Y004386D01*
X005661Y004446D01*
X005695Y004512D01*
X005717Y004582D01*
X005727Y004642D01*
X004989Y004642D01*
X004989Y004742D01*
X005727Y004742D01*
X005717Y004802D01*
X005695Y004873D01*
X005661Y004939D01*
X005618Y004999D01*
X005565Y005051D01*
X005505Y005094D01*
X005439Y005128D01*
X005369Y005151D01*
X005296Y005162D01*
X004989Y005162D01*
X004989Y004743D01*
X004889Y004743D01*
X004889Y005162D01*
X004582Y005162D01*
X004509Y005151D01*
X004439Y005128D01*
X004373Y005094D01*
X004313Y005051D01*
X004261Y004999D01*
X004217Y004939D01*
X004184Y004873D01*
X004161Y004802D01*
X004151Y004742D01*
X004889Y004742D01*
X004889Y004642D01*
X004151Y004642D01*
X004161Y004582D01*
X004184Y004512D01*
X004180Y004440D02*
X004221Y004440D01*
X004278Y004342D02*
X004305Y004342D01*
X004377Y004243D02*
X004481Y004243D01*
X004475Y004144D02*
X004514Y004144D01*
X004804Y004144D02*
X005514Y004144D01*
X005397Y004243D02*
X009672Y004243D01*
X009608Y004342D02*
X005573Y004342D01*
X005657Y004440D02*
X009568Y004440D01*
X009539Y004539D02*
X005703Y004539D01*
X005726Y004637D02*
X009539Y004637D01*
X009539Y004736D02*
X004989Y004736D01*
X004989Y004834D02*
X004889Y004834D01*
X004889Y004736D02*
X003949Y004736D01*
X003949Y004834D02*
X004171Y004834D01*
X004214Y004933D02*
X003949Y004933D01*
X003949Y005031D02*
X004293Y005031D01*
X004445Y005130D02*
X003949Y005130D01*
X003949Y005228D02*
X009978Y005228D01*
X010145Y005327D02*
X003949Y005327D01*
X003949Y005426D02*
X010244Y005426D01*
X010289Y005524D02*
X003949Y005524D01*
X003949Y005623D02*
X010289Y005623D01*
X010289Y005721D02*
X003949Y005721D01*
X003983Y004637D02*
X004152Y004637D01*
X004889Y004637D02*
X004989Y004637D01*
X004989Y004539D02*
X004889Y004539D01*
X004889Y004440D02*
X004989Y004440D01*
X004989Y004342D02*
X004889Y004342D01*
X004889Y004243D02*
X004989Y004243D01*
X005009Y004046D02*
X005309Y004046D01*
X005211Y003947D02*
X005107Y003947D01*
X005147Y003258D02*
X005171Y003258D01*
X005269Y003159D02*
X005049Y003159D01*
X005058Y003061D02*
X005416Y003061D01*
X005156Y002962D02*
X007162Y002962D01*
X007133Y002934D02*
X007039Y002706D01*
X007039Y002459D01*
X007133Y002231D01*
X007308Y002057D01*
X007536Y001962D01*
X007782Y001962D01*
X008010Y002057D01*
X008185Y002231D01*
X008279Y002459D01*
X008279Y002706D01*
X008185Y002934D01*
X008010Y003108D01*
X007782Y003202D01*
X007536Y003202D01*
X007308Y003108D01*
X007133Y002934D01*
X007104Y002863D02*
X005214Y002863D01*
X005255Y002765D02*
X007064Y002765D01*
X007039Y002666D02*
X005279Y002666D01*
X005279Y002568D02*
X007039Y002568D01*
X007039Y002469D02*
X005279Y002469D01*
X005242Y002371D02*
X007076Y002371D01*
X007116Y002272D02*
X005202Y002272D01*
X005127Y002174D02*
X007191Y002174D01*
X007289Y002075D02*
X005029Y002075D01*
X004817Y001977D02*
X007501Y001977D01*
X007817Y001977D02*
X020451Y001977D01*
X020239Y002075D02*
X019407Y002075D01*
X019536Y002174D02*
X020141Y002174D01*
X020066Y002272D02*
X019610Y002272D01*
X019653Y002371D02*
X020026Y002371D01*
X019989Y002469D02*
X019675Y002469D01*
X019209Y002272D02*
X019109Y002272D01*
X019109Y002174D02*
X019209Y002174D01*
X019209Y002075D02*
X019109Y002075D01*
X020767Y001977D02*
X024009Y001977D01*
X024009Y002075D02*
X020979Y002075D01*
X021077Y002174D02*
X022407Y002174D01*
X022493Y002142D02*
X022493Y002142D01*
X022182Y002256D01*
X022182Y002256D01*
X021928Y002469D01*
X021928Y002469D01*
X021762Y002756D01*
X021762Y002756D01*
X021705Y003082D01*
X021705Y003082D01*
X021762Y003409D01*
X021762Y003409D01*
X021928Y003696D01*
X021928Y003696D01*
X022182Y003909D01*
X022182Y003909D01*
X022493Y004022D01*
X022493Y004022D01*
X022572Y004022D01*
X022650Y004022D01*
X022659Y004022D01*
X022746Y004022D01*
X022825Y004022D01*
X022825Y004022D01*
X023136Y003909D01*
X023136Y003909D01*
X023390Y003696D01*
X023390Y003696D01*
X023556Y003409D01*
X023556Y003409D01*
X023614Y003082D01*
X023614Y003082D01*
X023556Y002756D01*
X023556Y002756D01*
X023390Y002469D01*
X023390Y002469D01*
X023390Y002469D01*
X023136Y002256D01*
X023136Y002256D01*
X022825Y002142D01*
X022746Y002142D01*
X022659Y002142D01*
X022493Y002142D01*
X022825Y002142D02*
X022825Y002142D01*
X022911Y002174D02*
X024009Y002174D01*
X024009Y002272D02*
X023156Y002272D01*
X023273Y002371D02*
X024009Y002371D01*
X024009Y002469D02*
X023390Y002469D01*
X023447Y002568D02*
X024009Y002568D01*
X024009Y002666D02*
X023504Y002666D01*
X023558Y002765D02*
X024009Y002765D01*
X024009Y002863D02*
X023575Y002863D01*
X023592Y002962D02*
X024009Y002962D01*
X024009Y003061D02*
X023610Y003061D01*
X023600Y003159D02*
X024009Y003159D01*
X024009Y003258D02*
X023583Y003258D01*
X023565Y003356D02*
X024009Y003356D01*
X024009Y003455D02*
X023529Y003455D01*
X023473Y003553D02*
X024009Y003553D01*
X024009Y003652D02*
X023416Y003652D01*
X023325Y003750D02*
X024009Y003750D01*
X024009Y003849D02*
X023208Y003849D01*
X023031Y003947D02*
X024009Y003947D01*
X024009Y004046D02*
X021122Y004046D01*
X021048Y004144D02*
X024009Y004144D01*
X024009Y004243D02*
X021140Y004243D01*
X021180Y004342D02*
X024009Y004342D01*
X024009Y004440D02*
X021221Y004440D01*
X021221Y003947D02*
X022287Y003947D01*
X022110Y003849D02*
X021270Y003849D01*
X021311Y003750D02*
X021993Y003750D01*
X021928Y003696D02*
X021928Y003696D01*
X021902Y003652D02*
X021329Y003652D01*
X021329Y003553D02*
X021846Y003553D01*
X021789Y003455D02*
X021327Y003455D01*
X021286Y003356D02*
X021753Y003356D01*
X021735Y003258D02*
X021246Y003258D01*
X021163Y003159D02*
X021718Y003159D01*
X021708Y003061D02*
X021064Y003061D01*
X021106Y002962D02*
X021726Y002962D01*
X021743Y002863D02*
X021164Y002863D01*
X021205Y002765D02*
X021761Y002765D01*
X021814Y002666D02*
X021229Y002666D01*
X021229Y002568D02*
X021871Y002568D01*
X021928Y002469D02*
X021229Y002469D01*
X021192Y002371D02*
X022045Y002371D01*
X022162Y002272D02*
X021152Y002272D01*
X023279Y006510D02*
X024009Y006510D01*
X024009Y006608D02*
X023498Y006608D01*
X023596Y006707D02*
X024009Y006707D01*
X024009Y006805D02*
X023667Y006805D01*
X023707Y006904D02*
X024009Y006904D01*
X024009Y007002D02*
X023734Y007002D01*
X023734Y007101D02*
X024009Y007101D01*
X024009Y007199D02*
X023733Y007199D01*
X023692Y007298D02*
X024009Y007298D01*
X024009Y007396D02*
X023651Y007396D01*
X023560Y007495D02*
X024009Y007495D01*
X024009Y007594D02*
X023428Y007594D01*
X020895Y011338D02*
X018423Y011338D01*
X018543Y011437D02*
X018931Y011437D01*
X018934Y011435D02*
X018994Y011404D01*
X019058Y011383D01*
X019125Y011372D01*
X019129Y011372D01*
X019129Y012052D01*
X019189Y012052D01*
X019189Y011372D01*
X019193Y011372D01*
X019260Y011383D01*
X019324Y011404D01*
X019384Y011435D01*
X019439Y011474D01*
X019487Y011522D01*
X019527Y011577D01*
X019558Y011637D01*
X019578Y011702D01*
X019589Y011768D01*
X019589Y012052D01*
X019189Y012052D01*
X019189Y012112D01*
X019589Y012112D01*
X019589Y012396D01*
X019578Y012463D01*
X019558Y012527D01*
X019527Y012588D01*
X019487Y012642D01*
X019439Y012690D01*
X019384Y012730D01*
X019324Y012761D01*
X019260Y012782D01*
X019193Y012792D01*
X019189Y012792D01*
X019189Y012113D01*
X019129Y012113D01*
X019129Y012792D01*
X019125Y012792D01*
X019058Y012782D01*
X018994Y012761D01*
X018934Y012730D01*
X018879Y012690D01*
X018831Y012642D01*
X018791Y012588D01*
X018761Y012527D01*
X018740Y012463D01*
X018729Y012396D01*
X018729Y012112D01*
X019129Y012112D01*
X019129Y012052D01*
X018729Y012052D01*
X018729Y011768D01*
X018740Y011702D01*
X018761Y011637D01*
X018791Y011577D01*
X018831Y011522D01*
X018879Y011474D01*
X018934Y011435D01*
X018822Y011535D02*
X018622Y011535D01*
X018663Y011634D02*
X018762Y011634D01*
X018735Y011732D02*
X018689Y011732D01*
X018689Y011831D02*
X018729Y011831D01*
X018729Y011929D02*
X018689Y011929D01*
X018689Y012028D02*
X018729Y012028D01*
X018729Y012126D02*
X018689Y012126D01*
X018689Y012225D02*
X018729Y012225D01*
X018729Y012324D02*
X018689Y012324D01*
X018689Y012422D02*
X018733Y012422D01*
X018758Y012521D02*
X018667Y012521D01*
X018626Y012619D02*
X018814Y012619D01*
X018917Y012718D02*
X018553Y012718D01*
X018448Y012816D02*
X020367Y012816D01*
X020324Y012761D02*
X020384Y012730D01*
X020439Y012690D01*
X020487Y012642D01*
X020527Y012588D01*
X020558Y012527D01*
X020578Y012463D01*
X020589Y012396D01*
X020589Y012112D01*
X020189Y012112D01*
X020189Y012052D01*
X020189Y011372D01*
X020193Y011372D01*
X020260Y011383D01*
X020324Y011404D01*
X020384Y011435D01*
X020439Y011474D01*
X020487Y011522D01*
X020527Y011577D01*
X020558Y011637D01*
X020578Y011702D01*
X020589Y011768D01*
X020589Y012052D01*
X020189Y012052D01*
X020129Y012052D01*
X020129Y011372D01*
X020125Y011372D01*
X020058Y011383D01*
X019994Y011404D01*
X019934Y011435D01*
X019879Y011474D01*
X019831Y011522D01*
X019791Y011577D01*
X019761Y011637D01*
X019740Y011702D01*
X019729Y011768D01*
X019729Y012052D01*
X020129Y012052D01*
X020129Y012112D01*
X019729Y012112D01*
X019729Y012396D01*
X019740Y012463D01*
X019761Y012527D01*
X019791Y012588D01*
X019831Y012642D01*
X019879Y012690D01*
X019934Y012730D01*
X019994Y012761D01*
X020058Y012782D01*
X020125Y012792D01*
X020129Y012792D01*
X020129Y012113D01*
X020189Y012113D01*
X020189Y012792D01*
X020193Y012792D01*
X020260Y012782D01*
X020324Y012761D01*
X020401Y012718D02*
X020465Y012718D01*
X020504Y012619D02*
X020564Y012619D01*
X020560Y012521D02*
X020651Y012521D01*
X020629Y012422D02*
X020585Y012422D01*
X020589Y012324D02*
X020629Y012324D01*
X020629Y012225D02*
X020589Y012225D01*
X020589Y012126D02*
X020629Y012126D01*
X020629Y012028D02*
X020589Y012028D01*
X020589Y011929D02*
X020629Y011929D01*
X020629Y011831D02*
X020589Y011831D01*
X020583Y011732D02*
X020629Y011732D01*
X020655Y011634D02*
X020556Y011634D01*
X020496Y011535D02*
X020696Y011535D01*
X020775Y011437D02*
X020387Y011437D01*
X020189Y011437D02*
X020129Y011437D01*
X020129Y011535D02*
X020189Y011535D01*
X020189Y011634D02*
X020129Y011634D01*
X020129Y011732D02*
X020189Y011732D01*
X020189Y011831D02*
X020129Y011831D01*
X020129Y011929D02*
X020189Y011929D01*
X020189Y012028D02*
X020129Y012028D01*
X020129Y012126D02*
X020189Y012126D01*
X020189Y012225D02*
X020129Y012225D01*
X020129Y012324D02*
X020189Y012324D01*
X020189Y012422D02*
X020129Y012422D01*
X020129Y012521D02*
X020189Y012521D01*
X020189Y012619D02*
X020129Y012619D01*
X020129Y012718D02*
X020189Y012718D01*
X020268Y012915D02*
X010989Y012915D01*
X010989Y013013D02*
X011930Y013013D01*
X011831Y013112D02*
X010989Y013112D01*
X010989Y013210D02*
X011733Y013210D01*
X011634Y013309D02*
X010989Y013309D01*
X011023Y013408D02*
X011535Y013408D01*
X011437Y013506D02*
X011121Y013506D01*
X011220Y013605D02*
X011338Y013605D01*
X011821Y013999D02*
X012691Y013999D01*
X012696Y013971D02*
X012719Y013900D01*
X012753Y013833D01*
X012797Y013773D01*
X012850Y013720D01*
X012910Y013676D01*
X012977Y013642D01*
X013048Y013619D01*
X013122Y013607D01*
X013140Y013607D01*
X013140Y014063D01*
X012684Y014063D01*
X012684Y014045D01*
X012696Y013971D01*
X012719Y013900D02*
X011919Y013900D01*
X012018Y013802D02*
X012776Y013802D01*
X012873Y013703D02*
X012117Y013703D01*
X012215Y013605D02*
X019868Y013605D01*
X019720Y013703D02*
X014556Y013703D01*
X014655Y013802D02*
X019621Y013802D01*
X019523Y013900D02*
X014699Y013900D01*
X014729Y013999D02*
X019424Y013999D01*
X019326Y014097D02*
X014729Y014097D01*
X014711Y014196D02*
X019227Y014196D01*
X019000Y014294D02*
X018318Y014294D01*
X018499Y014393D02*
X018819Y014393D01*
X018720Y014492D02*
X018598Y014492D01*
X018645Y014590D02*
X018673Y014590D01*
X018000Y014294D02*
X017318Y014294D01*
X017499Y014393D02*
X017819Y014393D01*
X017720Y014492D02*
X017598Y014492D01*
X017645Y014590D02*
X017673Y014590D01*
X017000Y014294D02*
X016318Y014294D01*
X016499Y014393D02*
X016819Y014393D01*
X016720Y014492D02*
X016598Y014492D01*
X016645Y014590D02*
X016673Y014590D01*
X016000Y014294D02*
X015318Y014294D01*
X015499Y014393D02*
X015819Y014393D01*
X015720Y014492D02*
X015598Y014492D01*
X015645Y014590D02*
X015673Y014590D01*
X015000Y014294D02*
X014670Y014294D01*
X014585Y014393D02*
X014819Y014393D01*
X014720Y014492D02*
X014598Y014492D01*
X014645Y014590D02*
X014673Y014590D01*
X013903Y013802D02*
X013542Y013802D01*
X013599Y013900D02*
X013859Y013900D01*
X013829Y013999D02*
X013627Y013999D01*
X013622Y014196D02*
X013707Y014196D01*
X013609Y014294D02*
X013584Y014294D01*
X013806Y014097D02*
X013178Y014097D01*
X013140Y014097D02*
X011722Y014097D01*
X011811Y014196D02*
X012697Y014196D01*
X012734Y014294D02*
X011910Y014294D01*
X011999Y014393D02*
X012798Y014393D01*
X012916Y014492D02*
X012098Y014492D01*
X012145Y014590D02*
X012845Y014590D01*
X012740Y014689D02*
X012186Y014689D01*
X012189Y014787D02*
X012659Y014787D01*
X012618Y014886D02*
X012189Y014886D01*
X012189Y014984D02*
X012584Y014984D01*
X012584Y015083D02*
X012189Y015083D01*
X012189Y015181D02*
X012584Y015181D01*
X012619Y015280D02*
X012189Y015280D01*
X012189Y015378D02*
X012659Y015378D01*
X012740Y015477D02*
X012185Y015477D01*
X012144Y015576D02*
X012847Y015576D01*
X012789Y015674D02*
X012097Y015674D01*
X011998Y015773D02*
X012690Y015773D01*
X012592Y015871D02*
X011816Y015871D01*
X011502Y015871D02*
X010816Y015871D01*
X010998Y015773D02*
X011320Y015773D01*
X011221Y015674D02*
X011097Y015674D01*
X011144Y015576D02*
X011174Y015576D01*
X010502Y015871D02*
X009816Y015871D01*
X009998Y015773D02*
X010320Y015773D01*
X010221Y015674D02*
X010097Y015674D01*
X010144Y015576D02*
X010174Y015576D01*
X009502Y015871D02*
X008816Y015871D01*
X008998Y015773D02*
X009320Y015773D01*
X009221Y015674D02*
X009097Y015674D01*
X009144Y015576D02*
X009174Y015576D01*
X008502Y015871D02*
X003076Y015871D01*
X003134Y015970D02*
X012493Y015970D01*
X012395Y016068D02*
X003167Y016068D01*
X003172Y016265D02*
X012198Y016265D01*
X012296Y016167D02*
X002709Y016167D01*
X002709Y016265D02*
X002609Y016265D01*
X002609Y016167D02*
X001329Y016167D01*
X001329Y016265D02*
X002146Y016265D01*
X002171Y016364D02*
X001329Y016364D01*
X001329Y016462D02*
X002220Y016462D01*
X002302Y016561D02*
X001329Y016561D01*
X001329Y016659D02*
X002450Y016659D01*
X002609Y016659D02*
X002709Y016659D01*
X002709Y016561D02*
X002609Y016561D01*
X002609Y016462D02*
X002709Y016462D01*
X002709Y016364D02*
X002609Y016364D01*
X002242Y015871D02*
X001329Y015871D01*
X001329Y015773D02*
X002338Y015773D01*
X002171Y015674D02*
X001329Y015674D01*
X001329Y015576D02*
X002070Y015576D01*
X002039Y015477D02*
X001329Y015477D01*
X001329Y015378D02*
X002039Y015378D01*
X002039Y015280D02*
X001329Y015280D01*
X001329Y015181D02*
X002039Y015181D01*
X002039Y015083D02*
X001329Y015083D01*
X001329Y014984D02*
X002039Y014984D01*
X002039Y014886D02*
X001329Y014886D01*
X001329Y014787D02*
X002039Y014787D01*
X002039Y014689D02*
X001329Y014689D01*
X001329Y014590D02*
X002069Y014590D01*
X002169Y014492D02*
X001329Y014492D01*
X001329Y015970D02*
X002184Y015970D01*
X002151Y016068D02*
X001329Y016068D01*
X001329Y016758D02*
X011705Y016758D01*
X011804Y016659D02*
X002868Y016659D01*
X003016Y016561D02*
X011902Y016561D01*
X012001Y016462D02*
X003098Y016462D01*
X003147Y016364D02*
X012099Y016364D01*
X012582Y016758D02*
X015122Y016758D01*
X015081Y016857D02*
X012483Y016857D01*
X012385Y016955D02*
X015041Y016955D01*
X015039Y017054D02*
X012286Y017054D01*
X012188Y017152D02*
X015039Y017152D01*
X015058Y017251D02*
X012089Y017251D01*
X012029Y017349D02*
X015099Y017349D01*
X015148Y017448D02*
X012029Y017448D01*
X012029Y017546D02*
X015246Y017546D01*
X015320Y017645D02*
X012098Y017645D01*
X012190Y017743D02*
X015228Y017743D01*
X015187Y017842D02*
X012231Y017842D01*
X012271Y017941D02*
X015147Y017941D01*
X015139Y018039D02*
X012850Y018039D01*
X013028Y018138D02*
X015139Y018138D01*
X015152Y018236D02*
X013126Y018236D01*
X013179Y018335D02*
X015193Y018335D01*
X015233Y018433D02*
X013220Y018433D01*
X013234Y018532D02*
X015332Y018532D01*
X015234Y018630D02*
X013234Y018630D01*
X013221Y018729D02*
X015136Y018729D01*
X015094Y018827D02*
X013180Y018827D01*
X013129Y018926D02*
X015053Y018926D01*
X015039Y019025D02*
X013030Y019025D01*
X012856Y019123D02*
X015039Y019123D01*
X015046Y019222D02*
X012970Y019222D01*
X013056Y019320D02*
X015086Y019320D01*
X015127Y019419D02*
X013105Y019419D01*
X013130Y019517D02*
X015217Y019517D01*
X015327Y019616D02*
X013134Y019616D01*
X013116Y019714D02*
X015392Y019714D01*
X015313Y019813D02*
X013075Y019813D01*
X013002Y019911D02*
X015268Y019911D01*
X015244Y020010D02*
X012866Y020010D01*
X012678Y020010D02*
X012640Y020010D01*
X012640Y019911D02*
X012678Y019911D01*
X012678Y019813D02*
X012640Y019813D01*
X012640Y019714D02*
X012678Y019714D01*
X012678Y019616D02*
X012640Y019616D01*
X012452Y020010D02*
X011040Y020010D01*
X011189Y020109D02*
X011614Y020109D01*
X011367Y020207D02*
X011234Y020207D01*
X011234Y020306D02*
X011273Y020306D01*
X011951Y020207D02*
X015253Y020207D01*
X015289Y020306D02*
X012045Y020306D01*
X012101Y020404D02*
X015350Y020404D01*
X016065Y020503D02*
X017938Y020503D01*
X017850Y020404D02*
X016168Y020404D01*
X016229Y020306D02*
X017789Y020306D01*
X017753Y020207D02*
X016265Y020207D01*
X016274Y020010D02*
X017744Y020010D01*
X017768Y019911D02*
X016250Y019911D01*
X016205Y019813D02*
X017813Y019813D01*
X017892Y019714D02*
X016126Y019714D01*
X015991Y019616D02*
X017827Y019616D01*
X017717Y019517D02*
X016101Y019517D01*
X016191Y019419D02*
X017627Y019419D01*
X017586Y019320D02*
X016232Y019320D01*
X016272Y019222D02*
X017546Y019222D01*
X017539Y019123D02*
X016279Y019123D01*
X016279Y019025D02*
X017539Y019025D01*
X017553Y018926D02*
X016265Y018926D01*
X016224Y018827D02*
X017594Y018827D01*
X017636Y018729D02*
X016182Y018729D01*
X016084Y018630D02*
X017734Y018630D01*
X017832Y018532D02*
X016186Y018532D01*
X016285Y018433D02*
X017733Y018433D01*
X017693Y018335D02*
X016326Y018335D01*
X016366Y018236D02*
X017652Y018236D01*
X017639Y018138D02*
X016379Y018138D01*
X016379Y018039D02*
X017639Y018039D01*
X017647Y017941D02*
X016371Y017941D01*
X016331Y017842D02*
X017687Y017842D01*
X017728Y017743D02*
X016290Y017743D01*
X016198Y017645D02*
X017820Y017645D01*
X017746Y017546D02*
X016085Y017546D01*
X016170Y017448D02*
X017648Y017448D01*
X017599Y017349D02*
X016220Y017349D01*
X016260Y017251D02*
X017558Y017251D01*
X017539Y017152D02*
X016279Y017152D01*
X016279Y017054D02*
X017539Y017054D01*
X017541Y016955D02*
X016277Y016955D01*
X016237Y016857D02*
X017581Y016857D01*
X017622Y016758D02*
X016196Y016758D01*
X016113Y016659D02*
X017705Y016659D01*
X017804Y016561D02*
X016014Y016561D01*
X016002Y015871D02*
X015316Y015871D01*
X015498Y015773D02*
X015820Y015773D01*
X015721Y015674D02*
X015597Y015674D01*
X015644Y015576D02*
X015674Y015576D01*
X016316Y015871D02*
X017002Y015871D01*
X016820Y015773D02*
X016498Y015773D01*
X016597Y015674D02*
X016721Y015674D01*
X016674Y015576D02*
X016644Y015576D01*
X017316Y015871D02*
X018002Y015871D01*
X017820Y015773D02*
X017498Y015773D01*
X017597Y015674D02*
X017721Y015674D01*
X017674Y015576D02*
X017644Y015576D01*
X018316Y015871D02*
X019002Y015871D01*
X018820Y015773D02*
X018498Y015773D01*
X018597Y015674D02*
X018721Y015674D01*
X018674Y015576D02*
X018644Y015576D01*
X018514Y016561D02*
X020304Y016561D01*
X020205Y016659D02*
X018613Y016659D01*
X018696Y016758D02*
X020122Y016758D01*
X020081Y016857D02*
X018737Y016857D01*
X018777Y016955D02*
X020041Y016955D01*
X020039Y017054D02*
X018779Y017054D01*
X018779Y017152D02*
X020039Y017152D01*
X020058Y017251D02*
X018760Y017251D01*
X018720Y017349D02*
X020099Y017349D01*
X020148Y017448D02*
X018670Y017448D01*
X018585Y017546D02*
X020246Y017546D01*
X020320Y017645D02*
X018698Y017645D01*
X018790Y017743D02*
X020228Y017743D01*
X020187Y017842D02*
X018831Y017842D01*
X018871Y017941D02*
X020147Y017941D01*
X020139Y018039D02*
X018879Y018039D01*
X018879Y018138D02*
X020139Y018138D01*
X020152Y018236D02*
X018866Y018236D01*
X018826Y018335D02*
X020193Y018335D01*
X020233Y018433D02*
X018785Y018433D01*
X018686Y018532D02*
X020332Y018532D01*
X020234Y018630D02*
X018584Y018630D01*
X018682Y018729D02*
X020136Y018729D01*
X020094Y018827D02*
X018724Y018827D01*
X018765Y018926D02*
X020053Y018926D01*
X020039Y019025D02*
X018779Y019025D01*
X018779Y019123D02*
X020039Y019123D01*
X020046Y019222D02*
X018772Y019222D01*
X018732Y019320D02*
X020086Y019320D01*
X020127Y019419D02*
X018691Y019419D01*
X018601Y019517D02*
X020217Y019517D01*
X020327Y019616D02*
X018491Y019616D01*
X018626Y019714D02*
X020392Y019714D01*
X020313Y019813D02*
X018705Y019813D01*
X018750Y019911D02*
X020268Y019911D01*
X020244Y020010D02*
X018774Y020010D01*
X018765Y020207D02*
X020253Y020207D01*
X020289Y020306D02*
X018729Y020306D01*
X018668Y020404D02*
X020350Y020404D01*
X020438Y020503D02*
X018565Y020503D01*
X018555Y020601D02*
X020263Y020601D01*
X020165Y020700D02*
X018653Y020700D01*
X018712Y020798D02*
X020106Y020798D01*
X020065Y020897D02*
X018753Y020897D01*
X018779Y020995D02*
X020039Y020995D01*
X020039Y021094D02*
X018779Y021094D01*
X018779Y021192D02*
X020039Y021192D01*
X020074Y021291D02*
X018744Y021291D01*
X018703Y021390D02*
X020115Y021390D01*
X020095Y021488D02*
X018630Y021488D01*
X018640Y021587D02*
X019996Y021587D01*
X019898Y021685D02*
X018739Y021685D01*
X018806Y021784D02*
X019799Y021784D01*
X019701Y021882D02*
X018847Y021882D01*
X018879Y021981D02*
X019602Y021981D01*
X019504Y022079D02*
X018879Y022079D01*
X018879Y022178D02*
X019405Y022178D01*
X019307Y022276D02*
X018850Y022276D01*
X018809Y022375D02*
X019208Y022375D01*
X019109Y022474D02*
X018745Y022474D01*
X018646Y022572D02*
X019011Y022572D01*
X018912Y022671D02*
X018459Y022671D01*
X018715Y022868D02*
X016973Y022868D01*
X017072Y022966D02*
X018617Y022966D01*
X018518Y023065D02*
X017139Y023065D01*
X017139Y023034D02*
X017139Y023202D01*
X016689Y023202D01*
X016689Y022752D01*
X016858Y022752D01*
X017139Y023034D01*
X017139Y023163D02*
X018420Y023163D01*
X018377Y023262D02*
X016689Y023262D01*
X017139Y023262D01*
X017139Y023431D01*
X016984Y023587D01*
X017239Y023842D01*
X017239Y024323D01*
X017054Y024507D01*
X017239Y024692D01*
X017188Y024641D02*
X018246Y024641D01*
X018120Y024543D02*
X017090Y024543D01*
X017117Y024444D02*
X018084Y024444D01*
X018084Y024346D02*
X017216Y024346D01*
X017239Y024247D02*
X018084Y024247D01*
X018084Y024149D02*
X017239Y024149D01*
X017239Y024050D02*
X018084Y024050D01*
X018084Y023952D02*
X017239Y023952D01*
X017239Y023853D02*
X018084Y023853D01*
X018084Y023755D02*
X017151Y023755D01*
X017053Y023656D02*
X018105Y023656D01*
X018180Y023558D02*
X017013Y023558D01*
X017111Y023459D02*
X018369Y023459D01*
X018369Y023360D02*
X017139Y023360D01*
X016689Y023262D02*
X016689Y023202D01*
X016629Y023202D01*
X016629Y022752D01*
X016460Y022752D01*
X016179Y023034D01*
X016179Y023202D01*
X016629Y023202D01*
X016629Y023262D01*
X016629Y023163D02*
X016689Y023163D01*
X016689Y023065D02*
X016629Y023065D01*
X016629Y022966D02*
X016689Y022966D01*
X016689Y022868D02*
X016629Y022868D01*
X016629Y022769D02*
X016689Y022769D01*
X016875Y022769D02*
X018814Y022769D01*
X019296Y023163D02*
X020935Y023163D01*
X020910Y023176D02*
X020977Y023142D01*
X021048Y023119D01*
X021122Y023107D01*
X021140Y023107D01*
X021140Y023563D01*
X020684Y023563D01*
X020684Y023545D01*
X020696Y023471D01*
X020719Y023400D01*
X020753Y023333D01*
X020797Y023273D01*
X020850Y023220D01*
X020910Y023176D01*
X020808Y023262D02*
X019198Y023262D01*
X019099Y023360D02*
X020739Y023360D01*
X020700Y023459D02*
X019001Y023459D01*
X019138Y023558D02*
X020684Y023558D01*
X020690Y023656D02*
X019869Y023656D01*
X020003Y023755D02*
X020716Y023755D01*
X020769Y023853D02*
X020075Y023853D01*
X020116Y023952D02*
X020859Y023952D01*
X020941Y024050D02*
X020134Y024050D01*
X020129Y024149D02*
X020779Y024149D01*
X020681Y024247D02*
X020105Y024247D01*
X020055Y024346D02*
X020635Y024346D01*
X020594Y024444D02*
X019969Y024444D01*
X019779Y024543D02*
X020584Y024543D01*
X020643Y024839D02*
X017239Y024839D01*
X017239Y024937D02*
X020701Y024937D01*
X020799Y025036D02*
X017239Y025036D01*
X017239Y025134D02*
X020989Y025134D01*
X021329Y025134D02*
X024009Y025134D01*
X024009Y025036D02*
X021519Y025036D01*
X021617Y024937D02*
X022259Y024937D01*
X022182Y024909D02*
X022182Y024909D01*
X022493Y025022D01*
X022493Y025022D01*
X022572Y025022D01*
X022628Y025022D01*
X022659Y025022D01*
X022746Y025022D01*
X022825Y025022D01*
X022825Y025022D01*
X023136Y024909D01*
X023136Y024909D01*
X023390Y024696D01*
X023390Y024696D01*
X023556Y024409D01*
X023556Y024409D01*
X023614Y024082D01*
X023614Y024082D01*
X023556Y023756D01*
X023556Y023756D01*
X023390Y023469D01*
X023390Y023469D01*
X023390Y023469D01*
X023136Y023256D01*
X023136Y023256D01*
X022825Y023142D01*
X022746Y023142D01*
X022659Y023142D01*
X022493Y023142D01*
X022493Y023142D01*
X022182Y023256D01*
X022182Y023256D01*
X021928Y023469D01*
X021928Y023469D01*
X021762Y023756D01*
X021762Y023756D01*
X021705Y024082D01*
X021705Y024082D01*
X021762Y024409D01*
X021762Y024409D01*
X021928Y024696D01*
X021928Y024696D01*
X022182Y024909D01*
X022098Y024839D02*
X021675Y024839D01*
X021716Y024740D02*
X021981Y024740D01*
X021928Y024696D02*
X021928Y024696D01*
X021897Y024641D02*
X021734Y024641D01*
X021734Y024543D02*
X021840Y024543D01*
X021783Y024444D02*
X021724Y024444D01*
X021751Y024346D02*
X021683Y024346D01*
X021637Y024247D02*
X021734Y024247D01*
X021716Y024149D02*
X021539Y024149D01*
X021377Y024050D02*
X021710Y024050D01*
X021728Y023952D02*
X021459Y023952D01*
X021549Y023853D02*
X021745Y023853D01*
X021763Y023755D02*
X021603Y023755D01*
X021628Y023656D02*
X021820Y023656D01*
X021877Y023558D02*
X021634Y023558D01*
X021618Y023459D02*
X021940Y023459D01*
X022057Y023360D02*
X021579Y023360D01*
X021510Y023262D02*
X022174Y023262D01*
X022436Y023163D02*
X021383Y023163D01*
X021178Y023163D02*
X021140Y023163D01*
X021140Y023262D02*
X021178Y023262D01*
X021178Y023360D02*
X021140Y023360D01*
X021140Y023459D02*
X021178Y023459D01*
X021178Y023558D02*
X021140Y023558D01*
X020372Y022572D02*
X019888Y022572D01*
X019986Y022474D02*
X020273Y022474D01*
X020209Y022375D02*
X020085Y022375D01*
X019592Y022868D02*
X024009Y022868D01*
X024009Y022966D02*
X019494Y022966D01*
X019395Y023065D02*
X024009Y023065D01*
X024009Y023163D02*
X022882Y023163D01*
X023144Y023262D02*
X024009Y023262D01*
X024009Y023360D02*
X023261Y023360D01*
X023378Y023459D02*
X024009Y023459D01*
X024009Y023558D02*
X023441Y023558D01*
X023498Y023656D02*
X024009Y023656D01*
X024009Y023755D02*
X023555Y023755D01*
X023573Y023853D02*
X024009Y023853D01*
X024009Y023952D02*
X023590Y023952D01*
X023608Y024050D02*
X024009Y024050D01*
X024009Y024149D02*
X023602Y024149D01*
X023584Y024247D02*
X024009Y024247D01*
X024009Y024346D02*
X023567Y024346D01*
X023535Y024444D02*
X024009Y024444D01*
X024009Y024543D02*
X023479Y024543D01*
X023422Y024641D02*
X024009Y024641D01*
X024009Y024740D02*
X023338Y024740D01*
X023220Y024839D02*
X024009Y024839D01*
X024009Y024937D02*
X023059Y024937D01*
X024009Y025233D02*
X017179Y025233D01*
X017080Y025331D02*
X024009Y025331D01*
X021080Y020503D02*
X021065Y020503D01*
X021168Y020404D02*
X021179Y020404D01*
X021229Y020306D02*
X021277Y020306D01*
X021265Y020207D02*
X021376Y020207D01*
X022029Y020010D02*
X022744Y020010D01*
X022768Y019911D02*
X022029Y019911D01*
X022029Y019813D02*
X022813Y019813D01*
X018059Y022671D02*
X015959Y022671D01*
X016146Y022572D02*
X017872Y022572D01*
X017773Y022474D02*
X016245Y022474D01*
X016309Y022375D02*
X017709Y022375D01*
X017668Y022276D02*
X016350Y022276D01*
X016379Y022178D02*
X017639Y022178D01*
X017639Y022079D02*
X016379Y022079D01*
X016379Y021981D02*
X017639Y021981D01*
X017671Y021882D02*
X016347Y021882D01*
X016306Y021784D02*
X017712Y021784D01*
X017779Y021685D02*
X016239Y021685D01*
X016140Y021587D02*
X017787Y021587D01*
X017688Y021488D02*
X016130Y021488D01*
X016203Y021390D02*
X017615Y021390D01*
X017574Y021291D02*
X016244Y021291D01*
X016279Y021192D02*
X017539Y021192D01*
X017539Y021094D02*
X016279Y021094D01*
X016279Y020995D02*
X017539Y020995D01*
X017565Y020897D02*
X016253Y020897D01*
X016212Y020798D02*
X017606Y020798D01*
X017665Y020700D02*
X016153Y020700D01*
X016055Y020601D02*
X017763Y020601D01*
X016443Y022769D02*
X013229Y022769D01*
X013229Y022671D02*
X015559Y022671D01*
X015372Y022572D02*
X013197Y022572D01*
X013229Y022649D02*
X013229Y023516D01*
X013212Y023558D02*
X016305Y023558D01*
X016265Y023656D02*
X013171Y023656D01*
X013113Y023755D02*
X016167Y023755D01*
X016079Y023853D02*
X013014Y023853D01*
X012822Y023952D02*
X016079Y023952D01*
X016179Y023163D02*
X013229Y023163D01*
X013229Y023065D02*
X016179Y023065D01*
X016246Y022966D02*
X013229Y022966D01*
X013229Y022868D02*
X016345Y022868D01*
X015273Y022474D02*
X013156Y022474D01*
X013142Y022439D02*
X013229Y022649D01*
X013142Y022439D02*
X012982Y022279D01*
X012772Y022192D01*
X012546Y022192D01*
X012336Y022279D01*
X012176Y022439D01*
X012104Y022612D01*
X012095Y022582D01*
X012061Y022516D01*
X012018Y022456D01*
X011965Y022404D01*
X011905Y022360D01*
X011839Y022327D01*
X011769Y022304D01*
X011709Y022294D01*
X011709Y023032D01*
X011709Y022966D02*
X011609Y022966D01*
X011609Y022868D02*
X011709Y022868D01*
X011709Y022769D02*
X011609Y022769D01*
X011609Y022671D02*
X011709Y022671D01*
X011709Y022572D02*
X011609Y022572D01*
X011609Y022474D02*
X011709Y022474D01*
X011709Y022375D02*
X011609Y022375D01*
X011393Y022375D02*
X011078Y022375D01*
X011156Y022474D02*
X011288Y022474D01*
X011229Y022572D02*
X011197Y022572D01*
X010975Y022276D02*
X012343Y022276D01*
X012240Y022375D02*
X011925Y022375D01*
X012030Y022474D02*
X012162Y022474D01*
X012121Y022572D02*
X012090Y022572D01*
X012975Y022276D02*
X015168Y022276D01*
X015139Y022178D02*
X009553Y022178D01*
X009652Y022276D02*
X010343Y022276D01*
X010240Y022375D02*
X009750Y022375D01*
X009849Y022474D02*
X010162Y022474D01*
X010121Y022572D02*
X009947Y022572D01*
X010046Y022671D02*
X010089Y022671D01*
X009454Y022079D02*
X015139Y022079D01*
X015139Y021981D02*
X009356Y021981D01*
X009257Y021882D02*
X015171Y021882D01*
X015212Y021784D02*
X009159Y021784D01*
X009060Y021685D02*
X015279Y021685D01*
X015287Y021587D02*
X008962Y021587D01*
X008863Y021488D02*
X015188Y021488D01*
X015115Y021390D02*
X008765Y021390D01*
X008666Y021291D02*
X015074Y021291D01*
X015209Y022375D02*
X013078Y022375D01*
X012262Y019320D02*
X005221Y019320D01*
X005175Y019222D02*
X012348Y019222D01*
X012462Y019123D02*
X005077Y019123D01*
X004932Y019025D02*
X012288Y019025D01*
X012189Y018926D02*
X001329Y018926D01*
X001329Y019025D02*
X004386Y019025D01*
X004241Y019123D02*
X001329Y019123D01*
X001329Y019222D02*
X004143Y019222D01*
X004097Y019320D02*
X001329Y019320D01*
X001329Y019419D02*
X004056Y019419D01*
X004039Y019517D02*
X001329Y019517D01*
X001329Y019616D02*
X001929Y019616D01*
X001959Y019600D02*
X002037Y019575D01*
X002109Y019564D01*
X002109Y020032D01*
X002209Y020032D01*
X002209Y019564D01*
X002281Y019575D01*
X002359Y019600D01*
X002432Y019638D01*
X002498Y019686D01*
X002556Y019744D01*
X002604Y019810D01*
X002641Y019883D01*
X002666Y019961D01*
X002678Y020032D01*
X002209Y020032D01*
X002209Y020132D01*
X002678Y020132D01*
X002666Y020204D01*
X002641Y020282D01*
X002604Y020355D01*
X002556Y020421D01*
X002498Y020479D01*
X002434Y020525D01*
X002510Y020557D01*
X002685Y020731D01*
X002779Y020959D01*
X002779Y021206D01*
X002685Y021434D01*
X002510Y021608D01*
X002282Y021702D01*
X002036Y021702D01*
X001808Y021608D01*
X001633Y021434D01*
X001539Y021206D01*
X001539Y020959D01*
X001633Y020731D01*
X001808Y020557D01*
X001884Y020525D01*
X001820Y020479D01*
X001762Y020421D01*
X001714Y020355D01*
X001677Y020282D01*
X001652Y020204D01*
X001640Y020132D01*
X002109Y020132D01*
X002109Y020032D01*
X001640Y020032D01*
X001652Y019961D01*
X001677Y019883D01*
X001714Y019810D01*
X001762Y019744D01*
X001820Y019686D01*
X001886Y019638D01*
X001959Y019600D01*
X002109Y019616D02*
X002209Y019616D01*
X002209Y019714D02*
X002109Y019714D01*
X002109Y019813D02*
X002209Y019813D01*
X002209Y019911D02*
X002109Y019911D01*
X002109Y020010D02*
X002209Y020010D01*
X002209Y020109D02*
X004256Y020109D01*
X004210Y020010D02*
X002674Y020010D01*
X002650Y019911D02*
X004124Y019911D01*
X004083Y019813D02*
X002605Y019813D01*
X002526Y019714D02*
X004043Y019714D01*
X004039Y019616D02*
X002389Y019616D01*
X002109Y020109D02*
X001329Y020109D01*
X001329Y020207D02*
X001653Y020207D01*
X001689Y020306D02*
X001329Y020306D01*
X001329Y020404D02*
X001750Y020404D01*
X001853Y020503D02*
X001329Y020503D01*
X001329Y020601D02*
X001763Y020601D01*
X001665Y020700D02*
X001329Y020700D01*
X001329Y020798D02*
X001606Y020798D01*
X001565Y020897D02*
X001329Y020897D01*
X001329Y020995D02*
X001539Y020995D01*
X001539Y021094D02*
X001329Y021094D01*
X001329Y021192D02*
X001539Y021192D01*
X001574Y021291D02*
X001329Y021291D01*
X001329Y021390D02*
X001615Y021390D01*
X001688Y021488D02*
X001329Y021488D01*
X001329Y021587D02*
X001787Y021587D01*
X001994Y021685D02*
X001329Y021685D01*
X001329Y021784D02*
X003571Y021784D01*
X003539Y021685D02*
X002324Y021685D01*
X002532Y021587D02*
X003539Y021587D01*
X003539Y021488D02*
X002630Y021488D01*
X002703Y021390D02*
X003568Y021390D01*
X003609Y021291D02*
X002744Y021291D01*
X002779Y021192D02*
X003672Y021192D01*
X003771Y021094D02*
X002779Y021094D01*
X002779Y020995D02*
X003956Y020995D01*
X004118Y020897D02*
X002753Y020897D01*
X002712Y020798D02*
X004077Y020798D01*
X004039Y020700D02*
X002653Y020700D01*
X002555Y020601D02*
X004039Y020601D01*
X004039Y020503D02*
X002465Y020503D01*
X002568Y020404D02*
X004062Y020404D01*
X004103Y020306D02*
X002629Y020306D01*
X002665Y020207D02*
X004158Y020207D01*
X004806Y021192D02*
X006672Y021192D01*
X006609Y021291D02*
X004709Y021291D01*
X004750Y021390D02*
X006568Y021390D01*
X006539Y021488D02*
X004779Y021488D01*
X004779Y021587D02*
X006539Y021587D01*
X006539Y021685D02*
X004779Y021685D01*
X004747Y021784D02*
X006571Y021784D01*
X006612Y021882D02*
X004706Y021882D01*
X004637Y021981D02*
X006681Y021981D01*
X006779Y022079D02*
X004539Y022079D01*
X004341Y022178D02*
X006977Y022178D01*
X007415Y022276D02*
X001329Y022276D01*
X001329Y022178D02*
X003977Y022178D01*
X003779Y022079D02*
X001329Y022079D01*
X001329Y021981D02*
X003681Y021981D01*
X003612Y021882D02*
X001329Y021882D01*
X001329Y022375D02*
X007513Y022375D01*
X007612Y022474D02*
X001329Y022474D01*
X001329Y022572D02*
X007710Y022572D01*
X007809Y022671D02*
X001329Y022671D01*
X001329Y022769D02*
X007889Y022769D01*
X007889Y022868D02*
X001329Y022868D01*
X001329Y022966D02*
X007889Y022966D01*
X007889Y023065D02*
X001329Y023065D01*
X001329Y023163D02*
X002436Y023163D01*
X002182Y023256D02*
X002182Y023256D01*
X002174Y023262D02*
X001329Y023262D01*
X001329Y023360D02*
X002057Y023360D01*
X001940Y023459D02*
X001329Y023459D01*
X001329Y023558D02*
X001877Y023558D01*
X001928Y023469D02*
X001928Y023469D01*
X001820Y023656D02*
X001329Y023656D01*
X001329Y023755D02*
X001763Y023755D01*
X001745Y023853D02*
X001329Y023853D01*
X001329Y023952D02*
X001728Y023952D01*
X001710Y024050D02*
X001329Y024050D01*
X001329Y024149D02*
X001716Y024149D01*
X001705Y024082D02*
X001705Y024082D01*
X001734Y024247D02*
X001329Y024247D01*
X001329Y024346D02*
X001751Y024346D01*
X001783Y024444D02*
X001329Y024444D01*
X001329Y024543D02*
X001840Y024543D01*
X001897Y024641D02*
X001329Y024641D01*
X001329Y024740D02*
X001981Y024740D01*
X002098Y024839D02*
X001329Y024839D01*
X001329Y024937D02*
X002259Y024937D01*
X002493Y025022D02*
X002493Y025022D01*
X003261Y023360D02*
X007889Y023360D01*
X007889Y023262D02*
X003144Y023262D01*
X002882Y023163D02*
X007889Y023163D01*
X007640Y023558D02*
X007461Y023558D01*
X007560Y023656D02*
X007592Y023656D01*
X006757Y023558D02*
X006278Y023558D01*
X006326Y023656D02*
X006659Y023656D01*
X006574Y023755D02*
X006329Y023755D01*
X006329Y023853D02*
X006533Y023853D01*
X006492Y023952D02*
X006329Y023952D01*
X006329Y024050D02*
X006489Y024050D01*
X006489Y024149D02*
X006329Y024149D01*
X006329Y024247D02*
X006506Y024247D01*
X006547Y024346D02*
X006329Y024346D01*
X006329Y024444D02*
X006594Y024444D01*
X006693Y024543D02*
X006312Y024543D01*
X006243Y024641D02*
X006839Y024641D01*
X007379Y024641D02*
X007675Y024641D01*
X007606Y024543D02*
X007525Y024543D01*
X005175Y024641D02*
X004879Y024641D01*
X005025Y024543D02*
X005106Y024543D01*
X005092Y023656D02*
X005060Y023656D01*
X005140Y023558D02*
X004961Y023558D01*
X002825Y023142D02*
X002825Y023142D01*
X005024Y021094D02*
X006771Y021094D01*
X006956Y020995D02*
X005123Y020995D01*
X007308Y018608D02*
X007133Y018434D01*
X007039Y018206D01*
X007039Y017959D01*
X007133Y017731D01*
X007308Y017557D01*
X007536Y017462D01*
X007782Y017462D01*
X008010Y017557D01*
X008185Y017731D01*
X008279Y017959D01*
X008279Y018206D01*
X008185Y018434D01*
X008010Y018608D01*
X007782Y018702D01*
X007536Y018702D01*
X007308Y018608D01*
X007362Y018630D02*
X001329Y018630D01*
X001329Y018532D02*
X007232Y018532D01*
X007133Y018433D02*
X001329Y018433D01*
X001329Y018335D02*
X007093Y018335D01*
X007052Y018236D02*
X001329Y018236D01*
X001329Y018138D02*
X005880Y018138D01*
X005808Y018108D02*
X005633Y017934D01*
X005539Y017706D01*
X005539Y017459D01*
X005633Y017231D01*
X005808Y017057D01*
X006036Y016962D01*
X006282Y016962D01*
X006510Y017057D01*
X006685Y017231D01*
X006779Y017459D01*
X006779Y017706D01*
X006685Y017934D01*
X006510Y018108D01*
X006282Y018202D01*
X006036Y018202D01*
X005808Y018108D01*
X005739Y018039D02*
X002408Y018039D01*
X002432Y018027D02*
X002359Y018064D01*
X002281Y018090D01*
X002200Y018102D01*
X002198Y018102D01*
X002198Y017621D01*
X002679Y017621D01*
X002679Y017623D01*
X002666Y017704D01*
X002641Y017782D01*
X002604Y017855D01*
X002556Y017921D01*
X002498Y017979D01*
X002432Y018027D01*
X002536Y017941D02*
X005640Y017941D01*
X005596Y017842D02*
X002610Y017842D01*
X002653Y017743D02*
X005555Y017743D01*
X005539Y017645D02*
X002676Y017645D01*
X002679Y017544D02*
X002198Y017544D01*
X002198Y017621D01*
X002120Y017621D01*
X002120Y017544D01*
X001639Y017544D01*
X001639Y017541D01*
X001652Y017461D01*
X001677Y017383D01*
X001714Y017310D01*
X001762Y017244D01*
X001820Y017186D01*
X001886Y017138D01*
X001959Y017100D01*
X002037Y017075D01*
X002118Y017062D01*
X002120Y017062D01*
X002120Y017544D01*
X002198Y017544D01*
X002198Y017062D01*
X002200Y017062D01*
X002281Y017075D01*
X002359Y017100D01*
X002432Y017138D01*
X002498Y017186D01*
X002556Y017244D01*
X002604Y017310D01*
X002641Y017383D01*
X002666Y017461D01*
X002679Y017541D01*
X002679Y017544D01*
X002662Y017448D02*
X005544Y017448D01*
X005539Y017546D02*
X002198Y017546D01*
X002120Y017546D02*
X001329Y017546D01*
X001329Y017448D02*
X001656Y017448D01*
X001694Y017349D02*
X001329Y017349D01*
X001329Y017251D02*
X001757Y017251D01*
X001866Y017152D02*
X001329Y017152D01*
X001329Y017054D02*
X005815Y017054D01*
X005712Y017152D02*
X002452Y017152D01*
X002561Y017251D02*
X005625Y017251D01*
X005584Y017349D02*
X002624Y017349D01*
X002198Y017349D02*
X002120Y017349D01*
X002120Y017251D02*
X002198Y017251D01*
X002198Y017152D02*
X002120Y017152D01*
X002120Y017448D02*
X002198Y017448D01*
X002120Y017621D02*
X001639Y017621D01*
X001639Y017623D01*
X001652Y017704D01*
X001677Y017782D01*
X001714Y017855D01*
X001762Y017921D01*
X001820Y017979D01*
X001886Y018027D01*
X001959Y018064D01*
X002037Y018090D01*
X002118Y018102D01*
X002120Y018102D01*
X002120Y017621D01*
X002120Y017645D02*
X002198Y017645D01*
X002198Y017743D02*
X002120Y017743D01*
X002120Y017842D02*
X002198Y017842D01*
X002198Y017941D02*
X002120Y017941D01*
X002120Y018039D02*
X002198Y018039D01*
X001910Y018039D02*
X001329Y018039D01*
X001329Y017941D02*
X001782Y017941D01*
X001708Y017842D02*
X001329Y017842D01*
X001329Y017743D02*
X001665Y017743D01*
X001643Y017645D02*
X001329Y017645D01*
X001329Y016955D02*
X011508Y016955D01*
X011437Y017054D02*
X006503Y017054D01*
X006606Y017152D02*
X011409Y017152D01*
X011409Y017251D02*
X006693Y017251D01*
X006734Y017349D02*
X011409Y017349D01*
X011409Y017448D02*
X006774Y017448D01*
X006779Y017546D02*
X007333Y017546D01*
X007220Y017645D02*
X006779Y017645D01*
X006763Y017743D02*
X007128Y017743D01*
X007087Y017842D02*
X006723Y017842D01*
X006678Y017941D02*
X007047Y017941D01*
X007039Y018039D02*
X006579Y018039D01*
X006439Y018138D02*
X007039Y018138D01*
X007956Y018630D02*
X011362Y018630D01*
X011232Y018532D02*
X008086Y018532D01*
X008185Y018433D02*
X011133Y018433D01*
X011093Y018335D02*
X008226Y018335D01*
X008266Y018236D02*
X011052Y018236D01*
X011039Y018138D02*
X008279Y018138D01*
X008279Y018039D02*
X011039Y018039D01*
X011047Y017941D02*
X008271Y017941D01*
X008231Y017842D02*
X011087Y017842D01*
X011128Y017743D02*
X008190Y017743D01*
X008098Y017645D02*
X011220Y017645D01*
X011333Y017546D02*
X007985Y017546D01*
X008320Y015773D02*
X002980Y015773D01*
X003147Y015674D02*
X008221Y015674D01*
X008174Y015576D02*
X007971Y015576D01*
X008078Y015477D02*
X008133Y015477D01*
X008132Y014689D02*
X008078Y014689D01*
X008173Y014590D02*
X007973Y014590D01*
X007902Y014492D02*
X008220Y014492D01*
X008319Y014393D02*
X008020Y014393D01*
X008084Y014294D02*
X008500Y014294D01*
X008818Y014294D02*
X008953Y014294D01*
X008999Y014393D02*
X009051Y014393D01*
X009098Y014492D02*
X009150Y014492D01*
X009145Y014590D02*
X009173Y014590D01*
X008854Y014196D02*
X008122Y014196D01*
X007678Y013999D02*
X007640Y013999D01*
X007425Y012718D02*
X006473Y012718D01*
X006378Y012619D02*
X007524Y012619D01*
X007622Y012521D02*
X006541Y012521D01*
X006639Y012422D02*
X007721Y012422D01*
X007819Y012324D02*
X006687Y012324D01*
X006728Y012225D02*
X007918Y012225D01*
X008016Y012126D02*
X006739Y012126D01*
X006739Y012028D02*
X008115Y012028D01*
X008129Y011929D02*
X006723Y011929D01*
X006683Y011831D02*
X008129Y011831D01*
X008129Y011732D02*
X006629Y011732D01*
X006531Y011634D02*
X008155Y011634D01*
X008196Y011535D02*
X006526Y011535D01*
X006625Y011437D02*
X008275Y011437D01*
X008395Y011338D02*
X006681Y011338D01*
X006710Y009269D02*
X009889Y009269D01*
X009845Y009367D02*
X009474Y009367D01*
X009572Y009466D02*
X009746Y009466D01*
X009684Y009564D02*
X009634Y009564D01*
X009395Y011338D02*
X008923Y011338D01*
X009043Y011437D02*
X009275Y011437D01*
X009196Y011535D02*
X009122Y011535D01*
X009923Y011338D02*
X010395Y011338D01*
X010275Y011437D02*
X010043Y011437D01*
X010122Y011535D02*
X010196Y011535D01*
X011629Y011535D02*
X011689Y011535D01*
X011689Y011437D02*
X011629Y011437D01*
X011629Y011634D02*
X011689Y011634D01*
X011689Y011732D02*
X011629Y011732D01*
X011629Y011831D02*
X011689Y011831D01*
X011689Y011929D02*
X011629Y011929D01*
X011629Y012028D02*
X011689Y012028D01*
X011689Y012126D02*
X011629Y012126D01*
X011629Y012225D02*
X011689Y012225D01*
X011689Y012324D02*
X011629Y012324D01*
X011629Y012422D02*
X011689Y012422D01*
X011689Y012521D02*
X011629Y012521D01*
X011629Y012619D02*
X011689Y012619D01*
X011689Y012718D02*
X011629Y012718D01*
X013140Y013703D02*
X013178Y013703D01*
X013178Y013802D02*
X013140Y013802D01*
X013140Y013900D02*
X013178Y013900D01*
X013178Y013999D02*
X013140Y013999D01*
X013445Y013703D02*
X014002Y013703D01*
X015448Y012816D02*
X015870Y012816D01*
X015765Y012718D02*
X015553Y012718D01*
X015626Y012619D02*
X015692Y012619D01*
X016448Y012816D02*
X016870Y012816D01*
X016765Y012718D02*
X016553Y012718D01*
X016626Y012619D02*
X016692Y012619D01*
X017448Y012816D02*
X017870Y012816D01*
X017765Y012718D02*
X017553Y012718D01*
X017626Y012619D02*
X017692Y012619D01*
X017696Y011535D02*
X017622Y011535D01*
X017543Y011437D02*
X017775Y011437D01*
X017895Y011338D02*
X017423Y011338D01*
X016895Y011338D02*
X016423Y011338D01*
X016543Y011437D02*
X016775Y011437D01*
X016696Y011535D02*
X016622Y011535D01*
X015895Y011338D02*
X015423Y011338D01*
X015543Y011437D02*
X015775Y011437D01*
X015696Y011535D02*
X015622Y011535D01*
X015634Y009564D02*
X015684Y009564D01*
X015746Y009466D02*
X015572Y009466D01*
X015474Y009367D02*
X015845Y009367D01*
X019129Y011437D02*
X019189Y011437D01*
X019189Y011535D02*
X019129Y011535D01*
X019129Y011634D02*
X019189Y011634D01*
X019189Y011732D02*
X019129Y011732D01*
X019129Y011831D02*
X019189Y011831D01*
X019189Y011929D02*
X019129Y011929D01*
X019129Y012028D02*
X019189Y012028D01*
X019189Y012126D02*
X019129Y012126D01*
X019129Y012225D02*
X019189Y012225D01*
X019189Y012324D02*
X019129Y012324D01*
X019129Y012422D02*
X019189Y012422D01*
X019189Y012521D02*
X019129Y012521D01*
X019129Y012619D02*
X019189Y012619D01*
X019189Y012718D02*
X019129Y012718D01*
X019401Y012718D02*
X019917Y012718D01*
X019814Y012619D02*
X019504Y012619D01*
X019560Y012521D02*
X019758Y012521D01*
X019733Y012422D02*
X019585Y012422D01*
X019589Y012324D02*
X019729Y012324D01*
X019729Y012225D02*
X019589Y012225D01*
X019589Y012126D02*
X019729Y012126D01*
X019729Y012028D02*
X019589Y012028D01*
X019589Y011929D02*
X019729Y011929D01*
X019729Y011831D02*
X019589Y011831D01*
X019583Y011732D02*
X019735Y011732D01*
X019762Y011634D02*
X019556Y011634D01*
X019496Y011535D02*
X019822Y011535D01*
X019931Y011437D02*
X019387Y011437D01*
X021046Y013013D02*
X022730Y013013D01*
X022828Y012915D02*
X021145Y012915D01*
X020948Y013112D02*
X022631Y013112D01*
X022533Y013210D02*
X020849Y013210D01*
X020751Y013309D02*
X022434Y013309D01*
X022335Y013408D02*
X020652Y013408D01*
X020554Y013506D02*
X022237Y013506D01*
X015304Y016561D02*
X012779Y016561D01*
X012680Y016659D02*
X015205Y016659D01*
X015002Y015871D02*
X014316Y015871D01*
X014498Y015773D02*
X014820Y015773D01*
X014721Y015674D02*
X014597Y015674D01*
X014644Y015576D02*
X014674Y015576D01*
X014002Y015871D02*
X013469Y015871D01*
X013567Y015773D02*
X013820Y015773D01*
X013721Y015674D02*
X013666Y015674D01*
X011606Y016857D02*
X001329Y016857D01*
X001329Y018729D02*
X012097Y018729D01*
X012084Y018630D02*
X011956Y018630D01*
X012138Y018827D02*
X001329Y018827D01*
X001329Y019714D02*
X001792Y019714D01*
X001713Y019813D02*
X001329Y019813D01*
X001329Y019911D02*
X001668Y019911D01*
X001644Y020010D02*
X001329Y020010D01*
X004612Y013506D02*
X005933Y013506D01*
X003731Y011634D02*
X003469Y011634D01*
X003507Y011732D02*
X003633Y011732D01*
X005469Y007002D02*
X005579Y007002D01*
X005433Y005130D02*
X009780Y005130D01*
X009681Y005031D02*
X005585Y005031D01*
X005664Y004933D02*
X009612Y004933D01*
X009572Y004834D02*
X005707Y004834D01*
X005804Y004144D02*
X009770Y004144D01*
X009696Y004046D02*
X006009Y004046D01*
X006107Y003947D02*
X009618Y003947D01*
X009578Y003849D02*
X006171Y003849D01*
X006212Y003750D02*
X009539Y003750D01*
X009539Y003652D02*
X006234Y003652D01*
X006234Y003553D02*
X009539Y003553D01*
X009562Y003455D02*
X006229Y003455D01*
X006188Y003356D02*
X009602Y003356D01*
X009657Y003258D02*
X006147Y003258D01*
X006049Y003159D02*
X007431Y003159D01*
X007260Y003061D02*
X005902Y003061D01*
X004989Y004933D02*
X004889Y004933D01*
X004889Y005031D02*
X004989Y005031D01*
X004989Y005130D02*
X004889Y005130D01*
X007887Y003159D02*
X009756Y003159D01*
X009864Y003061D02*
X008058Y003061D01*
X008156Y002962D02*
X009756Y002962D01*
X009693Y002863D02*
X008214Y002863D01*
X008255Y002765D02*
X009655Y002765D01*
X009640Y002582D02*
X009652Y002511D01*
X009677Y002433D01*
X009714Y002360D01*
X009762Y002294D01*
X009820Y002236D01*
X009886Y002188D01*
X009959Y002150D01*
X010037Y002125D01*
X010109Y002114D01*
X010109Y002582D01*
X009640Y002582D01*
X009643Y002568D02*
X008279Y002568D01*
X008279Y002666D02*
X010109Y002666D01*
X010109Y002568D02*
X010209Y002568D01*
X010209Y002469D02*
X010109Y002469D01*
X010109Y002371D02*
X010209Y002371D01*
X010209Y002272D02*
X010109Y002272D01*
X010109Y002174D02*
X010209Y002174D01*
X010404Y002174D02*
X010782Y002174D01*
X010708Y002272D02*
X010534Y002272D01*
X010609Y002371D02*
X010665Y002371D01*
X010911Y002075D02*
X008029Y002075D01*
X008127Y002174D02*
X009914Y002174D01*
X009784Y002272D02*
X008202Y002272D01*
X008242Y002371D02*
X009709Y002371D01*
X009665Y002469D02*
X008279Y002469D01*
X011109Y002469D02*
X011209Y002469D01*
X011209Y002371D02*
X011109Y002371D01*
X011109Y002272D02*
X011209Y002272D01*
X011209Y002174D02*
X011109Y002174D01*
X011109Y002075D02*
X011209Y002075D01*
X011407Y002075D02*
X012911Y002075D01*
X012782Y002174D02*
X012404Y002174D01*
X012534Y002272D02*
X012708Y002272D01*
X012665Y002371D02*
X012609Y002371D01*
X012209Y002371D02*
X012109Y002371D01*
X012109Y002469D02*
X012209Y002469D01*
X012209Y002568D02*
X012109Y002568D01*
X012109Y002272D02*
X012209Y002272D01*
X012209Y002174D02*
X012109Y002174D01*
X011914Y002174D02*
X011536Y002174D01*
X011610Y002272D02*
X011784Y002272D01*
X011709Y002371D02*
X011653Y002371D01*
X013109Y002371D02*
X013209Y002371D01*
X013209Y002469D02*
X013109Y002469D01*
X013109Y002272D02*
X013209Y002272D01*
X013209Y002174D02*
X013109Y002174D01*
X013109Y002075D02*
X013209Y002075D01*
X013407Y002075D02*
X014911Y002075D01*
X014782Y002174D02*
X014404Y002174D01*
X014534Y002272D02*
X014708Y002272D01*
X014665Y002371D02*
X014609Y002371D01*
X014209Y002371D02*
X014109Y002371D01*
X014109Y002469D02*
X014209Y002469D01*
X014209Y002568D02*
X014109Y002568D01*
X014109Y002272D02*
X014209Y002272D01*
X014209Y002174D02*
X014109Y002174D01*
X013914Y002174D02*
X013536Y002174D01*
X013610Y002272D02*
X013784Y002272D01*
X013709Y002371D02*
X013653Y002371D01*
X015109Y002371D02*
X015209Y002371D01*
X015209Y002469D02*
X015109Y002469D01*
X015109Y002272D02*
X015209Y002272D01*
X015209Y002174D02*
X015109Y002174D01*
X015109Y002075D02*
X015209Y002075D01*
X012468Y018039D02*
X012279Y018039D01*
X012279Y018138D02*
X012291Y018138D01*
D21*
X014279Y014062D03*
X013159Y005742D03*
X005399Y010622D03*
M02*
