G75*
G70*
%OFA0B0*%
%FSLAX24Y24*%
%IPPOS*%
%LPD*%
%AMOC8*
5,1,8,0,0,1.08239X$1,22.5*
%
%ADD10C,0.0640*%
%ADD11R,0.0650X0.0650*%
%ADD12C,0.0650*%
%ADD13C,0.0740*%
%ADD14R,0.0740X0.0740*%
%ADD15OC8,0.0660*%
%ADD16C,0.0560*%
%ADD17C,0.0660*%
%ADD18C,0.0120*%
%ADD19C,0.0100*%
%ADD20C,0.0400*%
%ADD21C,0.0320*%
D10*
X002059Y004265D02*
X002699Y004265D01*
X002699Y006045D02*
X002059Y006045D01*
X004619Y006045D02*
X005259Y006045D01*
X005259Y004265D02*
X004619Y004265D01*
X010659Y021835D02*
X010659Y022475D01*
X011659Y022475D02*
X011659Y021835D01*
X012659Y021835D02*
X012659Y022475D01*
D11*
X010659Y019655D03*
X007159Y019155D03*
X005159Y015155D03*
X018659Y023155D03*
D12*
X019659Y023155D03*
X021159Y022655D03*
X021159Y023655D03*
X012659Y018655D03*
X012659Y017655D03*
X011659Y019655D03*
X008159Y019155D03*
X006159Y015155D03*
X005159Y011655D03*
X005159Y010655D03*
X006659Y009155D03*
X006659Y008155D03*
X011159Y013155D03*
X011159Y014155D03*
X014659Y005155D03*
X015659Y005155D03*
X020659Y010155D03*
X021659Y010155D03*
X023159Y008155D03*
X023159Y006155D03*
X023159Y004155D03*
X022159Y004155D03*
D13*
X020609Y003655D03*
X020709Y002655D03*
X020609Y001655D03*
X019159Y001705D03*
X018159Y001605D03*
X018159Y002605D03*
X018159Y003605D03*
X019159Y003705D03*
X019159Y002705D03*
X017159Y002705D03*
X017159Y001705D03*
X016159Y001605D03*
X016159Y002605D03*
X016159Y003605D03*
X015159Y003705D03*
X015159Y002705D03*
X015159Y001705D03*
X014159Y001605D03*
X014159Y002605D03*
X013159Y002705D03*
X013159Y001705D03*
X012159Y001605D03*
X012159Y002605D03*
X012159Y003605D03*
X011159Y003705D03*
X011159Y002705D03*
X011159Y001705D03*
X009659Y003155D03*
X008659Y003155D03*
X007659Y003155D03*
X006659Y003155D03*
X005659Y003155D03*
X004659Y003155D03*
X006159Y004655D03*
X009159Y004655D03*
X013159Y003705D03*
X017159Y003705D03*
X023709Y011155D03*
X023609Y012155D03*
X023709Y013155D03*
X023159Y016155D03*
X023259Y017155D03*
X023159Y018155D03*
X023259Y019155D03*
X023159Y020155D03*
X023259Y021155D03*
X020759Y021155D03*
X020659Y020155D03*
X020759Y019155D03*
X020659Y018155D03*
X020759Y017155D03*
X020659Y016155D03*
X018159Y016155D03*
X018259Y017155D03*
X018159Y018155D03*
X018259Y019155D03*
X018159Y020155D03*
X018259Y021155D03*
X015759Y021155D03*
X015659Y020155D03*
X015759Y019155D03*
X015659Y018155D03*
X015759Y017155D03*
X015659Y016155D03*
X011659Y017155D03*
X007659Y017155D03*
X006159Y017155D03*
X004659Y018655D03*
X004659Y019655D03*
X004159Y020655D03*
X002159Y020155D03*
X002159Y019155D03*
X002159Y017155D03*
X002659Y015755D03*
X007159Y020655D03*
X007109Y023155D03*
X004609Y023155D03*
D14*
X005709Y023155D03*
X008209Y023155D03*
X002659Y014655D03*
X014159Y003605D03*
X023609Y010155D03*
D15*
X016659Y022305D03*
X016659Y023155D03*
X016659Y024005D03*
D16*
X016159Y014435D02*
X016159Y013875D01*
X015159Y013875D02*
X015159Y014435D01*
X014159Y014435D02*
X014159Y013875D01*
X013159Y013875D02*
X013159Y014435D01*
X012159Y014435D02*
X012159Y013875D01*
X012159Y011435D02*
X012159Y010875D01*
X013159Y010875D02*
X013159Y011435D01*
X014159Y011435D02*
X014159Y010875D01*
X015159Y010875D02*
X015159Y011435D01*
X016159Y011435D02*
X016159Y010875D01*
X017159Y010875D02*
X017159Y011435D01*
X018159Y011435D02*
X018159Y010875D01*
X019159Y010875D02*
X019159Y011435D01*
X020159Y011435D02*
X020159Y010875D01*
X021159Y010875D02*
X021159Y011435D01*
X021159Y009435D02*
X021159Y008875D01*
X020159Y008875D02*
X020159Y009435D01*
X019159Y009435D02*
X019159Y008875D01*
X018159Y008875D02*
X018159Y009435D01*
X017159Y009435D02*
X017159Y008875D01*
X016159Y008875D02*
X016159Y009435D01*
X015159Y009435D02*
X015159Y008875D01*
X014159Y008875D02*
X014159Y009435D01*
X013159Y009435D02*
X013159Y008875D01*
X012159Y008875D02*
X012159Y009435D01*
X011159Y009435D02*
X011159Y008875D01*
X010159Y008875D02*
X010159Y009435D01*
X009159Y009435D02*
X009159Y008875D01*
X008159Y008875D02*
X008159Y009435D01*
X007659Y010375D02*
X007659Y010935D01*
X006659Y010935D02*
X006659Y010375D01*
X008659Y010375D02*
X008659Y010935D01*
X009659Y010935D02*
X009659Y010375D01*
X009659Y013375D02*
X009659Y013935D01*
X008659Y013935D02*
X008659Y013375D01*
X007659Y013375D02*
X007659Y013935D01*
X006659Y013935D02*
X006659Y013375D01*
X008159Y006435D02*
X008159Y005875D01*
X009159Y005875D02*
X009159Y006435D01*
X010159Y006435D02*
X010159Y005875D01*
X011159Y005875D02*
X011159Y006435D01*
X012159Y006435D02*
X012159Y005875D01*
X013159Y005875D02*
X013159Y006435D01*
X014159Y006435D02*
X014159Y005875D01*
X015159Y005875D02*
X015159Y006435D01*
X016159Y006435D02*
X016159Y005875D01*
X017159Y005875D02*
X017159Y006435D01*
X018159Y006435D02*
X018159Y005875D01*
X019159Y005875D02*
X019159Y006435D01*
X020159Y006435D02*
X020159Y005875D01*
X021159Y005875D02*
X021159Y006435D01*
X021159Y013875D02*
X021159Y014435D01*
X020159Y014435D02*
X020159Y013875D01*
X019159Y013875D02*
X019159Y014435D01*
X018159Y014435D02*
X018159Y013875D01*
X017159Y013875D02*
X017159Y014435D01*
D17*
X002159Y013155D03*
X002159Y012155D03*
X002159Y011155D03*
X002159Y010155D03*
X002159Y009155D03*
X002159Y008155D03*
X002159Y007155D03*
D18*
X002159Y008155D02*
X002119Y008175D01*
X001319Y008975D01*
X001319Y011375D01*
X002119Y012175D01*
X002159Y012155D01*
X002159Y010155D02*
X002199Y010095D01*
X002439Y010095D01*
X004119Y008415D01*
X004199Y008415D01*
X004599Y008015D02*
X006519Y009935D01*
X006919Y009935D01*
X007719Y009135D01*
X007719Y008415D01*
X009119Y007015D01*
X009239Y007135D01*
X009479Y007135D01*
X010119Y006495D01*
X010119Y006175D01*
X010159Y006155D01*
X010599Y006655D02*
X010599Y004255D01*
X011159Y003695D01*
X011159Y003705D01*
X012519Y004495D02*
X014359Y004495D01*
X015159Y003695D01*
X015159Y003705D01*
X015319Y004335D02*
X016599Y004335D01*
X017159Y003775D01*
X017159Y003705D01*
X018159Y003605D02*
X018199Y003615D01*
X018199Y006095D01*
X018159Y006155D01*
X019159Y006155D02*
X019159Y003705D01*
X020609Y003655D02*
X020679Y003695D01*
X021879Y004895D01*
X021879Y006735D01*
X022119Y007135D02*
X023159Y006095D01*
X023159Y006155D01*
X023159Y006095D02*
X023159Y004155D01*
X022119Y007135D02*
X016839Y007135D01*
X016199Y006495D01*
X016199Y006175D01*
X016159Y006155D01*
X016199Y007055D02*
X016039Y007215D01*
X012919Y007215D01*
X012199Y006495D01*
X012199Y006175D01*
X012159Y006155D01*
X012119Y007055D02*
X012119Y009135D01*
X012159Y009155D01*
X011159Y009155D02*
X011159Y007055D01*
X010599Y006655D02*
X010199Y007055D01*
X010199Y009135D01*
X010159Y009155D01*
X009319Y009215D02*
X010439Y010335D01*
X010439Y014495D01*
X012919Y016975D01*
X015559Y016975D01*
X015719Y017135D01*
X015759Y017155D01*
X015799Y017215D01*
X018199Y017215D01*
X018259Y017155D01*
X018279Y017215D01*
X020759Y017215D01*
X020759Y017155D01*
X020759Y017215D02*
X023239Y017215D01*
X023259Y017155D01*
X023159Y018095D02*
X023159Y018155D01*
X023159Y018095D02*
X020679Y018095D01*
X020659Y018155D01*
X020599Y018095D01*
X018199Y018095D01*
X018159Y018155D01*
X018119Y018095D01*
X015719Y018095D01*
X015659Y018155D01*
X015719Y020095D02*
X015659Y020155D01*
X015719Y020095D02*
X018119Y020095D01*
X018159Y020155D01*
X018199Y020095D01*
X020599Y020095D01*
X020659Y020155D01*
X018659Y023155D02*
X018439Y023215D01*
X019399Y024175D01*
X020679Y024175D01*
X021159Y023695D01*
X021159Y023655D01*
X018659Y023155D02*
X018599Y023215D01*
X018439Y023215D01*
X017639Y023215D01*
X016919Y023935D01*
X016679Y023935D01*
X016659Y024005D01*
X010659Y022155D02*
X010599Y022095D01*
X009959Y022095D01*
X007439Y019575D01*
X007399Y019615D01*
X004679Y019615D01*
X004659Y019655D01*
X004679Y018655D02*
X004659Y018655D01*
X004679Y018655D02*
X006119Y017215D01*
X006159Y017155D01*
X005399Y015935D02*
X004119Y015935D01*
X002839Y014655D01*
X002659Y014655D01*
X005159Y015155D02*
X005159Y012735D01*
X006079Y011815D01*
X007639Y013375D01*
X007639Y013615D01*
X007659Y013655D01*
X008679Y012415D02*
X009639Y013375D01*
X009639Y013615D01*
X009659Y013655D01*
X008679Y012415D02*
X008679Y010655D01*
X008659Y010655D01*
X009159Y009215D02*
X009159Y009155D01*
X009159Y009215D02*
X009319Y009215D01*
X007479Y008335D02*
X006659Y009155D01*
X007479Y008335D02*
X007479Y006095D01*
X007519Y006055D01*
X007559Y006095D01*
X008119Y006095D01*
X008159Y006155D01*
X008599Y006495D02*
X008599Y005695D01*
X006839Y003935D01*
X006279Y003935D01*
X005719Y003375D01*
X005719Y003215D01*
X005659Y003155D01*
X006659Y003155D02*
X006679Y003215D01*
X006679Y003375D01*
X009159Y005855D01*
X009159Y006155D01*
X008599Y006495D02*
X009119Y007015D01*
X007519Y006055D02*
X006119Y004655D01*
X006159Y004655D01*
X006119Y004655D02*
X004839Y005935D01*
X004939Y006045D01*
X004919Y006095D01*
X004519Y005695D01*
X003639Y005695D01*
X003319Y006015D01*
X002439Y006015D01*
X002379Y006045D01*
X003719Y006175D02*
X005639Y008095D01*
X006599Y008095D01*
X006659Y008155D01*
X004599Y008015D02*
X003319Y008015D01*
X002199Y009135D01*
X002159Y009155D01*
X006079Y011815D02*
X006679Y011215D01*
X006679Y010655D01*
X006659Y010655D01*
X006159Y015155D02*
X006119Y015215D01*
X005399Y015935D01*
X007159Y019155D02*
X007159Y019295D01*
X007439Y019575D01*
X007109Y023155D02*
X007079Y023215D01*
X006279Y024015D01*
X005079Y024015D01*
X004599Y023535D01*
X004599Y023215D01*
X004609Y023155D01*
X004679Y023135D01*
X002199Y020655D01*
X002199Y020175D01*
X002159Y020155D01*
X011809Y012355D02*
X013059Y012355D01*
X013719Y012015D02*
X014119Y011615D01*
X014119Y011215D01*
X014159Y011155D01*
X014199Y011135D01*
X014199Y010815D01*
X014839Y010175D01*
X016439Y010175D01*
X017159Y009455D01*
X017159Y009155D01*
X016839Y010095D02*
X018519Y010095D01*
X019159Y009455D01*
X019159Y009155D01*
X018279Y008015D02*
X014199Y008015D01*
X013159Y007615D02*
X013159Y009155D01*
X015159Y011135D02*
X015159Y011155D01*
X015159Y011135D02*
X015879Y010415D01*
X016519Y010415D01*
X016839Y010095D01*
X019159Y011155D02*
X019159Y011535D01*
X018359Y012335D01*
X014979Y012335D01*
X013719Y012015D02*
X013659Y015155D01*
X013219Y015595D01*
X013219Y015635D01*
X015659Y016155D02*
X015719Y016095D01*
X018119Y016095D01*
X018159Y016155D01*
X018199Y016095D01*
X020599Y016095D01*
X020659Y016155D01*
X020679Y016175D01*
X021879Y014975D01*
X021879Y013615D01*
X021159Y012895D01*
X021159Y011155D01*
X021659Y010155D02*
X023159Y008655D01*
X023159Y008155D01*
X015319Y004335D02*
X015079Y004575D01*
X012519Y004495D02*
X011159Y005855D01*
X011159Y006155D01*
D19*
X001329Y008640D02*
X001329Y000825D01*
X024009Y000825D01*
X024009Y009615D01*
X023169Y009615D01*
X023069Y009715D01*
X023069Y010596D01*
X023169Y010695D01*
X023409Y010695D01*
X023403Y010697D01*
X023251Y010849D01*
X023169Y011048D01*
X023169Y011263D01*
X023251Y011461D01*
X023403Y011613D01*
X023455Y011634D01*
X023303Y011697D01*
X023151Y011849D01*
X023069Y012048D01*
X023069Y012263D01*
X023151Y012461D01*
X023303Y012613D01*
X023455Y012676D01*
X023403Y012697D01*
X023251Y012849D01*
X023169Y013048D01*
X023169Y013263D01*
X023251Y013461D01*
X023403Y013613D01*
X023602Y013695D01*
X023816Y013695D01*
X024009Y013615D01*
X024009Y024481D01*
X016890Y024481D01*
X017159Y024212D01*
X017159Y024020D01*
X017734Y023445D01*
X018164Y023445D01*
X018164Y023551D01*
X018264Y023650D01*
X018549Y023650D01*
X019304Y024405D01*
X019494Y024405D01*
X020774Y024405D01*
X020909Y024270D01*
X021038Y024141D01*
X021061Y024150D01*
X021258Y024150D01*
X021439Y024075D01*
X021579Y023935D01*
X021654Y023754D01*
X021654Y023557D01*
X021579Y023375D01*
X021439Y023235D01*
X021350Y023198D01*
X021485Y023143D01*
X021646Y022981D01*
X021734Y022769D01*
X021734Y022541D01*
X021646Y022329D01*
X021576Y022258D01*
X022591Y021243D01*
X022707Y021127D01*
X022769Y020977D01*
X022769Y020905D01*
X022939Y020735D01*
X022948Y020739D01*
X022920Y020758D01*
X022862Y020816D01*
X022814Y020883D01*
X022777Y020955D01*
X022769Y020955D01*
X022777Y020955D02*
X022752Y021033D01*
X022740Y021105D01*
X023209Y021105D01*
X023209Y021205D01*
X022740Y021205D01*
X022752Y021277D01*
X022777Y021355D01*
X022814Y021428D01*
X022862Y021494D01*
X022920Y021552D01*
X022986Y021600D01*
X023059Y021637D01*
X023137Y021662D01*
X023209Y021674D01*
X023209Y021205D01*
X023309Y021205D01*
X023778Y021205D01*
X023766Y021277D01*
X023741Y021355D01*
X023704Y021428D01*
X023656Y021494D01*
X023598Y021552D01*
X023532Y021600D01*
X023459Y021637D01*
X023381Y021662D01*
X023309Y021674D01*
X023309Y021205D01*
X023309Y021105D01*
X023778Y021105D01*
X023766Y021033D01*
X023741Y020955D01*
X024009Y020955D01*
X024009Y020856D02*
X023685Y020856D01*
X023704Y020883D02*
X023656Y020816D01*
X023598Y020758D01*
X023532Y020710D01*
X023490Y020689D01*
X023510Y020681D01*
X023685Y020506D01*
X023779Y020278D01*
X023779Y020032D01*
X023685Y019804D01*
X023576Y019695D01*
X023610Y019681D01*
X023785Y019506D01*
X023879Y019278D01*
X023879Y019032D01*
X023785Y018804D01*
X023610Y018629D01*
X023496Y018582D01*
X023617Y018461D01*
X023699Y018263D01*
X023699Y018048D01*
X023617Y017849D01*
X023465Y017697D01*
X023413Y017676D01*
X023565Y017613D01*
X023717Y017461D01*
X023799Y017263D01*
X023799Y017048D01*
X023717Y016849D01*
X023565Y016697D01*
X023413Y016634D01*
X023465Y016613D01*
X023617Y016461D01*
X023699Y016263D01*
X023699Y016048D01*
X023617Y015849D01*
X023465Y015697D01*
X023266Y015615D01*
X023052Y015615D01*
X022853Y015697D01*
X022701Y015849D01*
X022619Y016048D01*
X022619Y016263D01*
X022701Y016461D01*
X022853Y016613D01*
X023005Y016676D01*
X022953Y016697D01*
X022801Y016849D01*
X022745Y016985D01*
X021273Y016985D01*
X021217Y016849D01*
X021065Y016697D01*
X020913Y016634D01*
X020965Y016613D01*
X021117Y016461D01*
X021199Y016263D01*
X021199Y016048D01*
X021179Y016000D01*
X022109Y015070D01*
X022109Y014880D01*
X022109Y013520D01*
X021974Y013385D01*
X021389Y012800D01*
X021389Y011827D01*
X021414Y011817D01*
X021541Y011690D01*
X021592Y011565D01*
X021624Y011597D01*
X021709Y011632D01*
X021709Y012229D01*
X021669Y012326D01*
X021669Y012505D01*
X021738Y012670D01*
X021864Y012797D01*
X022030Y012865D01*
X022209Y012865D01*
X022374Y012797D01*
X022501Y012670D01*
X022569Y012505D01*
X022569Y012326D01*
X022529Y012229D01*
X022529Y011294D01*
X022467Y011143D01*
X022351Y011028D01*
X022191Y010868D01*
X022151Y010851D01*
X022134Y010834D01*
X021969Y010765D01*
X021790Y010765D01*
X021624Y010834D01*
X021609Y010849D01*
X021609Y010786D01*
X021551Y010646D01*
X021561Y010650D01*
X021758Y010650D01*
X021939Y010575D01*
X022079Y010435D01*
X022154Y010254D01*
X022154Y010057D01*
X022133Y010006D01*
X023254Y008885D01*
X023389Y008750D01*
X023389Y008596D01*
X023439Y008575D01*
X023579Y008435D01*
X023654Y008254D01*
X023654Y008057D01*
X023579Y007875D01*
X023439Y007735D01*
X023258Y007660D01*
X023061Y007660D01*
X022879Y007735D01*
X022739Y007875D01*
X022664Y008057D01*
X022664Y008254D01*
X022739Y008435D01*
X022879Y008575D01*
X022904Y008585D01*
X021808Y009681D01*
X021758Y009660D01*
X021561Y009660D01*
X021551Y009664D01*
X021609Y009525D01*
X021609Y008786D01*
X021541Y008620D01*
X021414Y008494D01*
X021249Y008425D01*
X021070Y008425D01*
X020904Y008494D01*
X020778Y008620D01*
X020709Y008786D01*
X020709Y009525D01*
X020732Y009580D01*
X020586Y009580D01*
X020609Y009525D01*
X020609Y008786D01*
X020541Y008620D01*
X020414Y008494D01*
X020249Y008425D01*
X020070Y008425D01*
X019904Y008494D01*
X019778Y008620D01*
X019709Y008786D01*
X019709Y009525D01*
X019778Y009690D01*
X019904Y009817D01*
X020070Y009885D01*
X020149Y009885D01*
X020084Y010041D01*
X020084Y010269D01*
X020115Y010345D01*
X020054Y010345D01*
X019859Y010426D01*
X019710Y010575D01*
X019629Y010770D01*
X019629Y011541D01*
X019710Y011735D01*
X019859Y011884D01*
X020054Y011965D01*
X020264Y011965D01*
X020459Y011884D01*
X020608Y011735D01*
X020689Y011541D01*
X020689Y010770D01*
X020673Y010730D01*
X020732Y010730D01*
X020709Y010786D01*
X020709Y011525D01*
X020778Y011690D01*
X020904Y011817D01*
X020929Y011827D01*
X020929Y012990D01*
X021064Y013125D01*
X021649Y013710D01*
X021649Y014880D01*
X020871Y015658D01*
X020766Y015615D01*
X020552Y015615D01*
X020353Y015697D01*
X020201Y015849D01*
X020195Y015865D01*
X018623Y015865D01*
X018617Y015849D01*
X018465Y015697D01*
X018266Y015615D01*
X018052Y015615D01*
X017853Y015697D01*
X017701Y015849D01*
X017695Y015865D01*
X016123Y015865D01*
X016117Y015849D01*
X015965Y015697D01*
X015766Y015615D01*
X015552Y015615D01*
X015353Y015697D01*
X015201Y015849D01*
X015119Y016048D01*
X015119Y016263D01*
X015201Y016461D01*
X015353Y016613D01*
X015505Y016676D01*
X015453Y016697D01*
X015405Y016745D01*
X013014Y016745D01*
X010669Y014400D01*
X010669Y013475D01*
X010672Y013481D01*
X010833Y013643D01*
X010994Y013709D01*
X010977Y013715D01*
X010910Y013749D01*
X010850Y013793D01*
X010797Y013846D01*
X010753Y013906D01*
X010719Y013973D01*
X010696Y014044D01*
X010684Y014118D01*
X010684Y014136D01*
X011140Y014136D01*
X011140Y014174D01*
X010684Y014174D01*
X010684Y014192D01*
X010696Y014266D01*
X010719Y014337D01*
X010753Y014404D01*
X010797Y014465D01*
X010850Y014517D01*
X010910Y014561D01*
X010977Y014595D01*
X011048Y014618D01*
X011122Y014630D01*
X011140Y014630D01*
X011140Y014174D01*
X011178Y014174D01*
X011634Y014174D01*
X011634Y014192D01*
X011622Y014266D01*
X011599Y014337D01*
X011565Y014404D01*
X011521Y014465D01*
X011468Y014517D01*
X011408Y014561D01*
X011341Y014595D01*
X011270Y014618D01*
X011196Y014630D01*
X011178Y014630D01*
X011178Y014174D01*
X011178Y014136D01*
X011634Y014136D01*
X011634Y014118D01*
X011622Y014044D01*
X011599Y013973D01*
X011565Y013906D01*
X011521Y013846D01*
X011468Y013793D01*
X011408Y013749D01*
X011341Y013715D01*
X011324Y013709D01*
X011485Y013643D01*
X011646Y013481D01*
X011734Y013269D01*
X013465Y013269D01*
X013463Y013367D02*
X011694Y013367D01*
X011734Y013269D02*
X011734Y013041D01*
X011646Y012829D01*
X011485Y012668D01*
X011273Y012580D01*
X011045Y012580D01*
X010833Y012668D01*
X010672Y012829D01*
X010669Y012836D01*
X010669Y010240D01*
X010534Y010105D01*
X010295Y009866D01*
X010414Y009817D01*
X010541Y009690D01*
X010609Y009525D01*
X010609Y008786D01*
X010541Y008620D01*
X010429Y008509D01*
X010429Y007150D01*
X010694Y006885D01*
X010829Y006750D01*
X010829Y006741D01*
X010889Y006802D01*
X010845Y006846D01*
X010789Y006981D01*
X010789Y007129D01*
X010845Y007265D01*
X010929Y007348D01*
X010929Y008483D01*
X010904Y008494D01*
X010778Y008620D01*
X010709Y008786D01*
X010709Y009525D01*
X010778Y009690D01*
X010904Y009817D01*
X011070Y009885D01*
X011249Y009885D01*
X011414Y009817D01*
X011541Y009690D01*
X011609Y009525D01*
X011609Y008786D01*
X011541Y008620D01*
X011414Y008494D01*
X011389Y008483D01*
X011389Y007348D01*
X011473Y007265D01*
X011529Y007129D01*
X011529Y006981D01*
X011473Y006846D01*
X011429Y006802D01*
X011541Y006690D01*
X011609Y006525D01*
X011609Y005786D01*
X011593Y005747D01*
X012614Y004725D01*
X014264Y004725D01*
X014454Y004725D01*
X014731Y004448D01*
X014709Y004501D01*
X014709Y004649D01*
X014724Y004684D01*
X014696Y004680D01*
X014678Y004680D01*
X014678Y005136D01*
X014640Y005136D01*
X014640Y004680D01*
X014622Y004680D01*
X014548Y004692D01*
X014477Y004715D01*
X014410Y004749D01*
X014350Y004793D01*
X014297Y004846D01*
X014253Y004906D01*
X014219Y004973D01*
X014196Y005044D01*
X014184Y005118D01*
X014184Y005136D01*
X014640Y005136D01*
X014640Y005174D01*
X014184Y005174D01*
X014184Y005192D01*
X014196Y005266D01*
X014219Y005337D01*
X014253Y005404D01*
X014297Y005465D01*
X014302Y005469D01*
X014260Y005456D01*
X014193Y005445D01*
X014189Y005445D01*
X014189Y006125D01*
X014129Y006125D01*
X014129Y005445D01*
X014125Y005445D01*
X014058Y005456D01*
X013994Y005477D01*
X013934Y005507D01*
X013879Y005547D01*
X013831Y005595D01*
X013791Y005650D01*
X013761Y005710D01*
X013740Y005774D01*
X013729Y005841D01*
X013729Y006125D01*
X014129Y006125D01*
X014129Y006185D01*
X013729Y006185D01*
X013729Y006469D01*
X013740Y006536D01*
X013761Y006600D01*
X013791Y006660D01*
X013831Y006715D01*
X013879Y006763D01*
X013934Y006803D01*
X013994Y006834D01*
X014058Y006854D01*
X014125Y006865D01*
X014129Y006865D01*
X014129Y006185D01*
X014189Y006185D01*
X014589Y006185D01*
X014589Y006469D01*
X014578Y006536D01*
X014558Y006600D01*
X014527Y006660D01*
X014487Y006715D01*
X014439Y006763D01*
X014384Y006803D01*
X014324Y006834D01*
X014260Y006854D01*
X014193Y006865D01*
X014189Y006865D01*
X014189Y006185D01*
X014189Y006125D01*
X014589Y006125D01*
X014589Y005841D01*
X014578Y005774D01*
X014558Y005710D01*
X014527Y005650D01*
X014490Y005600D01*
X014548Y005618D01*
X014622Y005630D01*
X014640Y005630D01*
X014640Y005174D01*
X014678Y005174D01*
X014678Y005630D01*
X014687Y005630D01*
X014629Y005770D01*
X014629Y006541D01*
X014710Y006735D01*
X014859Y006884D01*
X015054Y006965D01*
X015264Y006965D01*
X015459Y006884D01*
X015608Y006735D01*
X015689Y006541D01*
X015689Y005770D01*
X015673Y005730D01*
X015732Y005730D01*
X015709Y005786D01*
X015709Y006525D01*
X015778Y006690D01*
X015904Y006817D01*
X015911Y006820D01*
X015885Y006846D01*
X015829Y006981D01*
X015829Y006985D01*
X013014Y006985D01*
X012593Y006564D01*
X012609Y006525D01*
X012609Y005786D01*
X012541Y005620D01*
X012414Y005494D01*
X012249Y005425D01*
X012070Y005425D01*
X011904Y005494D01*
X011778Y005620D01*
X011709Y005786D01*
X011709Y006525D01*
X011778Y006690D01*
X011869Y006782D01*
X011805Y006846D01*
X011749Y006981D01*
X011749Y007129D01*
X011805Y007265D01*
X011889Y007348D01*
X011889Y008509D01*
X011778Y008620D01*
X011709Y008786D01*
X011709Y009525D01*
X011778Y009690D01*
X011904Y009817D01*
X012070Y009885D01*
X012249Y009885D01*
X012414Y009817D01*
X012541Y009690D01*
X012609Y009525D01*
X012609Y008786D01*
X012541Y008620D01*
X012414Y008494D01*
X012349Y008467D01*
X012349Y007348D01*
X012433Y007265D01*
X012489Y007129D01*
X012489Y007110D01*
X012689Y007310D01*
X012824Y007445D01*
X012829Y007445D01*
X012789Y007541D01*
X012789Y007689D01*
X012845Y007825D01*
X012929Y007908D01*
X012929Y008483D01*
X012904Y008494D01*
X012778Y008620D01*
X012709Y008786D01*
X012709Y009525D01*
X012778Y009690D01*
X012904Y009817D01*
X013070Y009885D01*
X013249Y009885D01*
X013414Y009817D01*
X013541Y009690D01*
X013609Y009525D01*
X013609Y008786D01*
X013541Y008620D01*
X013414Y008494D01*
X013389Y008483D01*
X013389Y007908D01*
X013473Y007825D01*
X013529Y007689D01*
X013529Y007541D01*
X013489Y007445D01*
X015944Y007445D01*
X016134Y007445D01*
X016154Y007425D01*
X016273Y007425D01*
X016409Y007369D01*
X016513Y007265D01*
X016551Y007172D01*
X016609Y007230D01*
X016744Y007365D01*
X022024Y007365D01*
X022214Y007365D01*
X022968Y006612D01*
X023061Y006650D01*
X023258Y006650D01*
X023439Y006575D01*
X023579Y006435D01*
X023654Y006254D01*
X023654Y006057D01*
X023579Y005875D01*
X023439Y005735D01*
X023389Y005715D01*
X023389Y004596D01*
X023439Y004575D01*
X023579Y004435D01*
X023654Y004254D01*
X023654Y004057D01*
X023579Y003875D01*
X023439Y003735D01*
X023258Y003660D01*
X023061Y003660D01*
X022879Y003735D01*
X022739Y003875D01*
X022702Y003964D01*
X022646Y003829D01*
X022485Y003668D01*
X022273Y003580D01*
X022045Y003580D01*
X021833Y003668D01*
X021672Y003829D01*
X021584Y004041D01*
X021584Y004269D01*
X021588Y004279D01*
X021126Y003817D01*
X021149Y003763D01*
X021149Y003548D01*
X021067Y003349D01*
X020915Y003197D01*
X020863Y003176D01*
X021015Y003113D01*
X021167Y002961D01*
X021249Y002763D01*
X021249Y002548D01*
X021167Y002349D01*
X021015Y002197D01*
X020863Y002134D01*
X020915Y002113D01*
X021067Y001961D01*
X021149Y001763D01*
X021149Y001548D01*
X021067Y001349D01*
X020915Y001197D01*
X020716Y001115D01*
X020502Y001115D01*
X020303Y001197D01*
X020151Y001349D01*
X020069Y001548D01*
X020069Y001763D01*
X020151Y001961D01*
X020303Y002113D01*
X020455Y002176D01*
X020403Y002197D01*
X020251Y002349D01*
X020169Y002548D01*
X020169Y002763D01*
X020251Y002961D01*
X020403Y003113D01*
X020455Y003134D01*
X020303Y003197D01*
X020151Y003349D01*
X020069Y003548D01*
X020069Y003763D01*
X020151Y003961D01*
X020303Y004113D01*
X020502Y004195D01*
X020716Y004195D01*
X020814Y004155D01*
X021649Y004990D01*
X021649Y006442D01*
X021609Y006482D01*
X021609Y005786D01*
X021541Y005620D01*
X021414Y005494D01*
X021249Y005425D01*
X021070Y005425D01*
X020904Y005494D01*
X020778Y005620D01*
X020709Y005786D01*
X020709Y006525D01*
X020778Y006690D01*
X020904Y006817D01*
X021070Y006885D01*
X021249Y006885D01*
X021414Y006817D01*
X021509Y006721D01*
X021509Y006809D01*
X021549Y006905D01*
X016934Y006905D01*
X016593Y006564D01*
X016609Y006525D01*
X016609Y005786D01*
X016541Y005620D01*
X016414Y005494D01*
X016249Y005425D01*
X016170Y005425D01*
X016234Y005269D01*
X016234Y005041D01*
X016146Y004829D01*
X015985Y004668D01*
X015773Y004580D01*
X015545Y004580D01*
X015449Y004620D01*
X015449Y004565D01*
X016504Y004565D01*
X016694Y004565D01*
X017025Y004234D01*
X017052Y004245D01*
X017266Y004245D01*
X017465Y004163D01*
X017617Y004011D01*
X017680Y003859D01*
X017701Y003911D01*
X017853Y004063D01*
X017969Y004111D01*
X017969Y005467D01*
X017904Y005494D01*
X017778Y005620D01*
X017709Y005786D01*
X017709Y006525D01*
X017778Y006690D01*
X017904Y006817D01*
X018070Y006885D01*
X018249Y006885D01*
X018414Y006817D01*
X018541Y006690D01*
X018609Y006525D01*
X018609Y005786D01*
X018541Y005620D01*
X018429Y005509D01*
X018429Y004078D01*
X018465Y004063D01*
X018617Y003911D01*
X018638Y003859D01*
X018701Y004011D01*
X018853Y004163D01*
X018929Y004194D01*
X018929Y005483D01*
X018904Y005494D01*
X018778Y005620D01*
X018709Y005786D01*
X018709Y006525D01*
X018778Y006690D01*
X018904Y006817D01*
X019070Y006885D01*
X019249Y006885D01*
X019414Y006817D01*
X019541Y006690D01*
X019609Y006525D01*
X019609Y005786D01*
X019541Y005620D01*
X019414Y005494D01*
X019389Y005483D01*
X019389Y004194D01*
X019465Y004163D01*
X019617Y004011D01*
X019699Y003813D01*
X019699Y003598D01*
X019617Y003399D01*
X019465Y003247D01*
X019337Y003194D01*
X019359Y003187D01*
X019432Y003150D01*
X019498Y003102D01*
X019556Y003044D01*
X019604Y002978D01*
X019641Y002905D01*
X019666Y002827D01*
X019678Y002755D01*
X019209Y002755D01*
X019209Y002655D01*
X019678Y002655D01*
X019666Y002583D01*
X019641Y002505D01*
X019604Y002433D01*
X019556Y002366D01*
X019498Y002308D01*
X019434Y002262D01*
X019510Y002231D01*
X019685Y002056D01*
X019779Y001828D01*
X019779Y001582D01*
X019685Y001354D01*
X019510Y001179D01*
X019282Y001085D01*
X019036Y001085D01*
X018808Y001179D01*
X018699Y001288D01*
X018685Y001254D01*
X018510Y001079D01*
X018282Y000985D01*
X018036Y000985D01*
X017808Y001079D01*
X017633Y001254D01*
X017619Y001288D01*
X017510Y001179D01*
X017282Y001085D01*
X017036Y001085D01*
X016808Y001179D01*
X016699Y001288D01*
X016685Y001254D01*
X016510Y001079D01*
X016282Y000985D01*
X016036Y000985D01*
X015808Y001079D01*
X015633Y001254D01*
X015619Y001288D01*
X015510Y001179D01*
X015282Y001085D01*
X015036Y001085D01*
X014808Y001179D01*
X014699Y001288D01*
X014685Y001254D01*
X014510Y001079D01*
X014282Y000985D01*
X014036Y000985D01*
X013808Y001079D01*
X013633Y001254D01*
X013619Y001288D01*
X013510Y001179D01*
X013282Y001085D01*
X013036Y001085D01*
X012808Y001179D01*
X012699Y001288D01*
X012685Y001254D01*
X012510Y001079D01*
X012282Y000985D01*
X012036Y000985D01*
X011808Y001079D01*
X011633Y001254D01*
X011619Y001288D01*
X011510Y001179D01*
X011282Y001085D01*
X011036Y001085D01*
X010808Y001179D01*
X010633Y001354D01*
X010539Y001582D01*
X010539Y001828D01*
X010633Y002056D01*
X010808Y002231D01*
X010884Y002262D01*
X010820Y002308D01*
X010762Y002366D01*
X010714Y002433D01*
X010677Y002505D01*
X010652Y002583D01*
X010640Y002655D01*
X011109Y002655D01*
X011109Y002755D01*
X010640Y002755D01*
X010652Y002827D01*
X010677Y002905D01*
X010714Y002978D01*
X010762Y003044D01*
X010820Y003102D01*
X010886Y003150D01*
X010959Y003187D01*
X010982Y003194D01*
X010853Y003247D01*
X010701Y003399D01*
X010619Y003598D01*
X010619Y003813D01*
X010648Y003881D01*
X010369Y004160D01*
X010369Y004350D01*
X010369Y005475D01*
X010249Y005425D01*
X010070Y005425D01*
X009904Y005494D01*
X009778Y005620D01*
X009709Y005786D01*
X009709Y006525D01*
X009725Y006564D01*
X009384Y006905D01*
X009334Y006905D01*
X009295Y006866D01*
X009414Y006817D01*
X009541Y006690D01*
X009609Y006525D01*
X009609Y005786D01*
X009541Y005620D01*
X009414Y005494D01*
X009249Y005425D01*
X009070Y005425D01*
X009059Y005430D01*
X007103Y003474D01*
X007117Y003461D01*
X007170Y003333D01*
X007177Y003355D01*
X007214Y003428D01*
X007262Y003494D01*
X007320Y003552D01*
X007386Y003600D01*
X007459Y003637D01*
X007537Y003662D01*
X007609Y003674D01*
X007609Y003205D01*
X007709Y003205D01*
X007709Y003674D01*
X007781Y003662D01*
X007859Y003637D01*
X007932Y003600D01*
X007998Y003552D01*
X008056Y003494D01*
X008102Y003430D01*
X008133Y003506D01*
X008308Y003681D01*
X008536Y003775D01*
X008782Y003775D01*
X009010Y003681D01*
X009159Y003532D01*
X009308Y003681D01*
X009536Y003775D01*
X009782Y003775D01*
X010010Y003681D01*
X010185Y003506D01*
X010279Y003278D01*
X010279Y003032D01*
X010185Y002804D01*
X010010Y002629D01*
X009782Y002535D01*
X009536Y002535D01*
X009308Y002629D01*
X009159Y002778D01*
X009010Y002629D01*
X008782Y002535D01*
X008536Y002535D01*
X008308Y002629D01*
X008133Y002804D01*
X008102Y002880D01*
X008056Y002816D01*
X007998Y002758D01*
X007932Y002710D01*
X007859Y002673D01*
X007781Y002648D01*
X007709Y002637D01*
X007709Y003105D01*
X007609Y003105D01*
X007609Y002637D01*
X007537Y002648D01*
X007459Y002673D01*
X007386Y002710D01*
X007320Y002758D01*
X007262Y002816D01*
X007214Y002883D01*
X007177Y002955D01*
X007170Y002978D01*
X007117Y002849D01*
X006965Y002697D01*
X006766Y002615D01*
X006552Y002615D01*
X006353Y002697D01*
X006201Y002849D01*
X006159Y002951D01*
X006117Y002849D01*
X005965Y002697D01*
X005766Y002615D01*
X005552Y002615D01*
X005353Y002697D01*
X005201Y002849D01*
X005159Y002951D01*
X005117Y002849D01*
X004965Y002697D01*
X004766Y002615D01*
X004552Y002615D01*
X004353Y002697D01*
X004201Y002849D01*
X004119Y003048D01*
X004119Y003263D01*
X004201Y003461D01*
X004353Y003613D01*
X004552Y003695D01*
X004766Y003695D01*
X004965Y003613D01*
X005117Y003461D01*
X005159Y003359D01*
X005201Y003461D01*
X005353Y003613D01*
X005552Y003695D01*
X005714Y003695D01*
X006134Y004115D01*
X006052Y004115D01*
X005853Y004197D01*
X005829Y004221D01*
X005829Y004152D01*
X005742Y003942D01*
X005582Y003782D01*
X005372Y003695D01*
X004506Y003695D01*
X004296Y003782D01*
X004136Y003942D01*
X004049Y004152D01*
X004049Y004379D01*
X004136Y004588D01*
X004296Y004748D01*
X004506Y004835D01*
X005372Y004835D01*
X005582Y004748D01*
X005619Y004711D01*
X005619Y004763D01*
X005639Y004810D01*
X004894Y005555D01*
X004704Y005555D01*
X004614Y005465D01*
X004424Y005465D01*
X003734Y005465D01*
X003544Y005465D01*
X003224Y005785D01*
X003122Y005785D01*
X003114Y005768D01*
X002977Y005630D01*
X002796Y005555D01*
X001962Y005555D01*
X001781Y005630D01*
X001644Y005768D01*
X001569Y005948D01*
X001569Y006143D01*
X001644Y006323D01*
X001781Y006460D01*
X001962Y006535D01*
X002796Y006535D01*
X002977Y006460D01*
X003114Y006323D01*
X003147Y006245D01*
X003224Y006245D01*
X003349Y006245D01*
X003349Y006249D01*
X003405Y006385D01*
X003509Y006489D01*
X003645Y006545D01*
X003764Y006545D01*
X005544Y008325D01*
X005734Y008325D01*
X006194Y008325D01*
X006239Y008435D01*
X006379Y008575D01*
X006561Y008650D01*
X006758Y008650D01*
X006896Y008593D01*
X006808Y008681D01*
X006758Y008660D01*
X006561Y008660D01*
X006379Y008735D01*
X006239Y008875D01*
X006164Y009057D01*
X006164Y009254D01*
X006165Y009256D01*
X004694Y007785D01*
X004504Y007785D01*
X003224Y007785D01*
X003089Y007920D01*
X002592Y008417D01*
X002659Y008255D01*
X002659Y008056D01*
X002583Y007872D01*
X002442Y007731D01*
X002259Y007655D01*
X002060Y007655D01*
X001876Y007579D01*
X001735Y007438D01*
X001659Y007255D01*
X001659Y007056D01*
X001735Y006872D01*
X001876Y006731D01*
X002060Y006655D01*
X002259Y006655D01*
X002442Y006731D01*
X002583Y006872D01*
X002659Y007056D01*
X002659Y007255D01*
X002583Y007438D01*
X002442Y007579D01*
X002259Y007655D01*
X002060Y007655D01*
X001876Y007731D01*
X001735Y007872D01*
X001659Y008056D01*
X001659Y008255D01*
X001675Y008294D01*
X001329Y008640D01*
X001329Y008637D02*
X001332Y008637D01*
X001329Y008539D02*
X001430Y008539D01*
X001529Y008440D02*
X001329Y008440D01*
X001329Y008341D02*
X001627Y008341D01*
X001659Y008243D02*
X001329Y008243D01*
X001329Y008144D02*
X001659Y008144D01*
X001663Y008046D02*
X001329Y008046D01*
X001329Y007947D02*
X001704Y007947D01*
X001758Y007849D02*
X001329Y007849D01*
X001329Y007750D02*
X001857Y007750D01*
X001850Y007553D02*
X001329Y007553D01*
X001329Y007455D02*
X001751Y007455D01*
X001701Y007356D02*
X001329Y007356D01*
X001329Y007258D02*
X001660Y007258D01*
X001659Y007159D02*
X001329Y007159D01*
X001329Y007060D02*
X001659Y007060D01*
X001698Y006962D02*
X001329Y006962D01*
X001329Y006863D02*
X001744Y006863D01*
X001842Y006765D02*
X001329Y006765D01*
X001329Y006666D02*
X002033Y006666D01*
X002285Y006666D02*
X003885Y006666D01*
X003786Y006568D02*
X001329Y006568D01*
X001329Y006469D02*
X001802Y006469D01*
X001692Y006371D02*
X001329Y006371D01*
X001329Y006272D02*
X001623Y006272D01*
X001582Y006174D02*
X001329Y006174D01*
X001329Y006075D02*
X001569Y006075D01*
X001569Y005976D02*
X001329Y005976D01*
X001329Y005878D02*
X001598Y005878D01*
X001639Y005779D02*
X001329Y005779D01*
X001329Y005681D02*
X001730Y005681D01*
X001896Y005582D02*
X001329Y005582D01*
X001329Y005484D02*
X003525Y005484D01*
X003427Y005582D02*
X002862Y005582D01*
X003028Y005681D02*
X003328Y005681D01*
X003230Y005779D02*
X003119Y005779D01*
X003135Y006272D02*
X003359Y006272D01*
X003400Y006371D02*
X003066Y006371D01*
X002956Y006469D02*
X003490Y006469D01*
X003984Y006765D02*
X002476Y006765D01*
X002574Y006863D02*
X004082Y006863D01*
X004181Y006962D02*
X002620Y006962D01*
X002659Y007060D02*
X004279Y007060D01*
X004378Y007159D02*
X002659Y007159D01*
X002658Y007258D02*
X004476Y007258D01*
X004575Y007356D02*
X002617Y007356D01*
X002567Y007455D02*
X004673Y007455D01*
X004772Y007553D02*
X002468Y007553D01*
X002461Y007750D02*
X004969Y007750D01*
X004870Y007652D02*
X002267Y007652D01*
X002051Y007652D02*
X001329Y007652D01*
X002560Y007849D02*
X003160Y007849D01*
X003062Y007947D02*
X002614Y007947D01*
X002655Y008046D02*
X002963Y008046D01*
X002864Y008144D02*
X002659Y008144D01*
X002659Y008243D02*
X002766Y008243D01*
X002667Y008341D02*
X002623Y008341D01*
X002924Y008736D02*
X003473Y008736D01*
X003375Y008834D02*
X002825Y008834D01*
X002727Y008933D02*
X003276Y008933D01*
X003178Y009031D02*
X002649Y009031D01*
X002643Y009017D02*
X002659Y009056D01*
X002659Y009255D01*
X002583Y009438D01*
X002442Y009579D01*
X002259Y009655D01*
X002060Y009655D01*
X001876Y009579D01*
X001735Y009438D01*
X001659Y009255D01*
X001659Y009056D01*
X001726Y008893D01*
X001549Y009070D01*
X001549Y011280D01*
X001964Y011695D01*
X002060Y011655D01*
X002259Y011655D01*
X002442Y011731D01*
X002583Y011872D01*
X002659Y012056D01*
X002659Y012255D01*
X002583Y012438D01*
X002442Y012579D01*
X002363Y012612D01*
X002488Y012663D01*
X002651Y012827D01*
X002739Y013040D01*
X002739Y013270D01*
X002651Y013484D01*
X002488Y013647D01*
X002274Y013735D01*
X002044Y013735D01*
X001831Y013647D01*
X001667Y013484D01*
X001579Y013270D01*
X001579Y013040D01*
X001667Y012827D01*
X001831Y012663D01*
X001955Y012612D01*
X001876Y012579D01*
X001735Y012438D01*
X001659Y012255D01*
X001659Y012056D01*
X001664Y012045D01*
X001329Y011710D01*
X001329Y024481D01*
X016428Y024481D01*
X016159Y024212D01*
X016159Y023798D01*
X016391Y023566D01*
X016179Y023354D01*
X016179Y023185D01*
X016629Y023185D01*
X016629Y023125D01*
X016179Y023125D01*
X016179Y022956D01*
X016335Y022801D01*
X016079Y022545D01*
X016079Y022475D01*
X014751Y023803D01*
X014601Y023865D01*
X014437Y023865D01*
X010277Y023865D01*
X010127Y023803D01*
X010011Y023687D01*
X008909Y022585D01*
X006849Y022585D01*
X006329Y023105D01*
X006329Y023575D01*
X006291Y023667D01*
X006221Y023737D01*
X006129Y023775D01*
X005289Y023775D01*
X005197Y023737D01*
X005127Y023667D01*
X005089Y023575D01*
X005089Y023407D01*
X005067Y023461D01*
X004958Y023569D01*
X005174Y023785D01*
X006184Y023785D01*
X006609Y023360D01*
X006569Y023263D01*
X006569Y023048D01*
X006651Y022849D01*
X006803Y022697D01*
X007002Y022615D01*
X007216Y022615D01*
X007415Y022697D01*
X007567Y022849D01*
X007649Y023048D01*
X007649Y023263D01*
X007567Y023461D01*
X007415Y023613D01*
X007216Y023695D01*
X007002Y023695D01*
X006947Y023672D01*
X006509Y024110D01*
X006374Y024245D01*
X005174Y024245D01*
X004984Y024245D01*
X004504Y023765D01*
X004386Y023647D01*
X004303Y023613D01*
X004151Y023461D01*
X004069Y023263D01*
X004069Y023048D01*
X004127Y022908D01*
X001969Y020750D01*
X001969Y020661D01*
X001853Y020613D01*
X001701Y020461D01*
X001619Y020263D01*
X001619Y020048D01*
X001701Y019849D01*
X001852Y019699D01*
X001808Y019681D01*
X001633Y019506D01*
X001539Y019278D01*
X001539Y019032D01*
X001633Y018804D01*
X001808Y018629D01*
X002036Y018535D01*
X002282Y018535D01*
X002510Y018629D01*
X002685Y018804D01*
X002779Y019032D01*
X002779Y019278D01*
X002685Y019506D01*
X002510Y019681D01*
X002466Y019699D01*
X002617Y019849D01*
X002699Y020048D01*
X002699Y020263D01*
X002617Y020461D01*
X002473Y020604D01*
X004489Y022620D01*
X004502Y022615D01*
X004716Y022615D01*
X004915Y022697D01*
X005067Y022849D01*
X005089Y022903D01*
X005089Y022735D01*
X005127Y022644D01*
X005197Y022573D01*
X005289Y022535D01*
X005739Y022535D01*
X006331Y021943D01*
X006447Y021828D01*
X006597Y021765D01*
X008997Y021765D01*
X009161Y021765D01*
X009311Y021828D01*
X010529Y023045D01*
X014349Y023045D01*
X015809Y021585D01*
X015809Y021205D01*
X016189Y021205D01*
X016447Y020948D01*
X016597Y020885D01*
X016761Y020885D01*
X016997Y020885D01*
X017161Y020885D01*
X017311Y020948D01*
X018049Y021685D01*
X020509Y021685D01*
X020558Y021636D01*
X020486Y021600D01*
X020420Y021552D01*
X020362Y021494D01*
X020314Y021428D01*
X020277Y021355D01*
X020252Y021277D01*
X020240Y021205D01*
X020709Y021205D01*
X020709Y021105D01*
X020240Y021105D01*
X020252Y021033D01*
X020277Y020955D01*
X018741Y020955D01*
X018766Y021033D01*
X018778Y021105D01*
X018309Y021105D01*
X018309Y021205D01*
X018778Y021205D01*
X018766Y021277D01*
X018741Y021355D01*
X018704Y021428D01*
X018656Y021494D01*
X018598Y021552D01*
X018532Y021600D01*
X018459Y021637D01*
X018381Y021662D01*
X018309Y021674D01*
X018309Y021205D01*
X018209Y021205D01*
X018209Y021105D01*
X017740Y021105D01*
X017752Y021033D01*
X017777Y020955D01*
X017319Y020955D01*
X017417Y021054D02*
X017749Y021054D01*
X017777Y020955D02*
X017814Y020883D01*
X017862Y020816D01*
X017920Y020758D01*
X017986Y020710D01*
X018032Y020687D01*
X017853Y020613D01*
X017701Y020461D01*
X017645Y020325D01*
X016173Y020325D01*
X016117Y020461D01*
X015965Y020613D01*
X015880Y020648D01*
X015881Y020648D01*
X015959Y020673D01*
X016032Y020710D01*
X016098Y020758D01*
X016156Y020816D01*
X016204Y020883D01*
X016241Y020955D01*
X016439Y020955D01*
X016341Y021054D02*
X016269Y021054D01*
X016266Y021033D02*
X016278Y021105D01*
X015809Y021105D01*
X015809Y021205D01*
X015709Y021205D01*
X015709Y021105D01*
X015240Y021105D01*
X015252Y021033D01*
X015277Y020955D01*
X009144Y020955D01*
X009046Y020856D02*
X015333Y020856D01*
X015314Y020883D02*
X015362Y020816D01*
X015420Y020758D01*
X015486Y020710D01*
X015532Y020687D01*
X015353Y020613D01*
X015201Y020461D01*
X015119Y020263D01*
X015119Y020048D01*
X015201Y019849D01*
X015353Y019697D01*
X015404Y019676D01*
X015233Y019506D01*
X015139Y019278D01*
X015139Y019032D01*
X015233Y018804D01*
X015404Y018634D01*
X015353Y018613D01*
X015201Y018461D01*
X015119Y018263D01*
X015119Y018048D01*
X015201Y017849D01*
X015353Y017697D01*
X015505Y017634D01*
X015453Y017613D01*
X015301Y017461D01*
X015219Y017263D01*
X015219Y017205D01*
X012824Y017205D01*
X012689Y017070D01*
X010209Y014590D01*
X010209Y014400D01*
X010209Y010430D01*
X010189Y010410D01*
X010189Y011041D01*
X010108Y011235D01*
X009959Y011384D01*
X009764Y011465D01*
X009554Y011465D01*
X009359Y011384D01*
X009210Y011235D01*
X009129Y011041D01*
X009129Y010270D01*
X009210Y010075D01*
X009359Y009926D01*
X009554Y009845D01*
X009624Y009845D01*
X009505Y009726D01*
X009414Y009817D01*
X009249Y009885D01*
X009070Y009885D01*
X008904Y009817D01*
X008778Y009690D01*
X008709Y009525D01*
X008709Y008786D01*
X008778Y008620D01*
X008904Y008494D01*
X009070Y008425D01*
X009249Y008425D01*
X009414Y008494D01*
X009541Y008620D01*
X009609Y008786D01*
X009609Y009180D01*
X009709Y009280D01*
X009709Y008786D01*
X009778Y008620D01*
X009904Y008494D01*
X009969Y008467D01*
X009969Y007150D01*
X009969Y006970D01*
X009709Y007230D01*
X009574Y007365D01*
X009334Y007365D01*
X009144Y007365D01*
X009119Y007340D01*
X008009Y008450D01*
X008070Y008425D01*
X008249Y008425D01*
X008414Y008494D01*
X008541Y008620D01*
X008609Y008786D01*
X008609Y009525D01*
X008541Y009690D01*
X008414Y009817D01*
X008249Y009885D01*
X008070Y009885D01*
X007904Y009817D01*
X007778Y009690D01*
X007709Y009525D01*
X007709Y009470D01*
X007046Y010133D01*
X007109Y010286D01*
X007109Y011025D01*
X007041Y011190D01*
X006914Y011317D01*
X006895Y011324D01*
X006774Y011445D01*
X006404Y011815D01*
X007530Y012941D01*
X007570Y012925D01*
X007749Y012925D01*
X007914Y012994D01*
X008041Y013120D01*
X008109Y013286D01*
X008109Y014025D01*
X008041Y014190D01*
X007914Y014317D01*
X007749Y014385D01*
X007570Y014385D01*
X007404Y014317D01*
X007278Y014190D01*
X007209Y014025D01*
X007209Y013286D01*
X007214Y013275D01*
X006079Y012140D01*
X005389Y012830D01*
X005389Y014660D01*
X005554Y014660D01*
X005654Y014760D01*
X005654Y015355D01*
X005691Y015318D01*
X005664Y015254D01*
X005664Y015057D01*
X005739Y014875D01*
X005879Y014735D01*
X006061Y014660D01*
X006258Y014660D01*
X006439Y014735D01*
X006579Y014875D01*
X006654Y015057D01*
X006654Y015254D01*
X006579Y015435D01*
X006439Y015575D01*
X006258Y015650D01*
X006061Y015650D01*
X006024Y015635D01*
X005629Y016030D01*
X005494Y016165D01*
X004214Y016165D01*
X004024Y016165D01*
X003054Y015195D01*
X002927Y015195D01*
X003010Y015229D01*
X003185Y015404D01*
X003279Y015632D01*
X003279Y015878D01*
X003185Y016106D01*
X003010Y016281D01*
X002782Y016375D01*
X002536Y016375D01*
X002308Y016281D01*
X002133Y016106D01*
X002039Y015878D01*
X002039Y015632D01*
X002133Y015404D01*
X002308Y015229D01*
X002391Y015195D01*
X002219Y015195D01*
X002119Y015096D01*
X002119Y014215D01*
X002219Y014115D01*
X003099Y014115D01*
X003199Y014215D01*
X003199Y014690D01*
X004214Y015705D01*
X005304Y015705D01*
X005359Y015650D01*
X004764Y015650D01*
X004664Y015551D01*
X004664Y014760D01*
X004764Y014660D01*
X004929Y014660D01*
X004929Y012640D01*
X005064Y012505D01*
X005849Y011720D01*
X005984Y011585D01*
X006328Y011241D01*
X006278Y011190D01*
X006209Y011025D01*
X006209Y010286D01*
X006278Y010120D01*
X006328Y010070D01*
X006289Y010030D01*
X004547Y008288D01*
X004569Y008341D01*
X004600Y008341D01*
X004569Y008341D02*
X004569Y008489D01*
X004513Y008625D01*
X004409Y008729D01*
X004273Y008785D01*
X004125Y008785D01*
X004089Y008770D01*
X002659Y010200D01*
X002659Y010255D01*
X002583Y010438D01*
X002442Y010579D01*
X002259Y010655D01*
X002060Y010655D01*
X001876Y010579D01*
X001735Y010438D01*
X001659Y010255D01*
X001659Y010056D01*
X001735Y009872D01*
X001876Y009731D01*
X002060Y009655D01*
X002259Y009655D01*
X002442Y009731D01*
X002460Y009749D01*
X003829Y008380D01*
X003829Y008341D01*
X003318Y008341D01*
X003414Y008245D02*
X002643Y009017D01*
X002659Y009130D02*
X003079Y009130D01*
X002981Y009228D02*
X002659Y009228D01*
X002629Y009327D02*
X002882Y009327D01*
X002783Y009425D02*
X002588Y009425D01*
X002497Y009524D02*
X002685Y009524D01*
X002586Y009623D02*
X002337Y009623D01*
X002418Y009721D02*
X002488Y009721D01*
X002843Y010017D02*
X006275Y010017D01*
X006282Y010115D02*
X005358Y010115D01*
X005273Y010080D02*
X005485Y010168D01*
X005646Y010329D01*
X005734Y010541D01*
X005734Y010769D01*
X005646Y010981D01*
X005485Y011143D01*
X005324Y011209D01*
X005341Y011215D01*
X005408Y011249D01*
X005468Y011293D01*
X005521Y011346D01*
X005565Y011406D01*
X005599Y011473D01*
X005622Y011544D01*
X005634Y011618D01*
X005634Y011636D01*
X005178Y011636D01*
X005178Y011674D01*
X005634Y011674D01*
X005634Y011692D01*
X005877Y011692D01*
X005975Y011593D02*
X005630Y011593D01*
X005634Y011692D02*
X005622Y011766D01*
X005599Y011837D01*
X005565Y011904D01*
X005521Y011965D01*
X005468Y012017D01*
X005408Y012061D01*
X005341Y012095D01*
X005270Y012118D01*
X005196Y012130D01*
X005178Y012130D01*
X005178Y011674D01*
X005140Y011674D01*
X005140Y011636D01*
X004684Y011636D01*
X004684Y011618D01*
X004696Y011544D01*
X004719Y011473D01*
X004753Y011406D01*
X004797Y011346D01*
X004850Y011293D01*
X004910Y011249D01*
X004977Y011215D01*
X004994Y011209D01*
X004833Y011143D01*
X004672Y010981D01*
X004584Y010769D01*
X004584Y010541D01*
X004672Y010329D01*
X004833Y010168D01*
X005045Y010080D01*
X005273Y010080D01*
X005531Y010214D02*
X006239Y010214D01*
X006209Y010312D02*
X005629Y010312D01*
X005680Y010411D02*
X006209Y010411D01*
X006209Y010509D02*
X005721Y010509D01*
X005734Y010608D02*
X006209Y010608D01*
X006209Y010707D02*
X005734Y010707D01*
X005719Y010805D02*
X006209Y010805D01*
X006209Y010904D02*
X005679Y010904D01*
X005625Y011002D02*
X006209Y011002D01*
X006241Y011101D02*
X005527Y011101D01*
X005473Y011298D02*
X006271Y011298D01*
X006287Y011199D02*
X005348Y011199D01*
X005558Y011396D02*
X006173Y011396D01*
X006074Y011495D02*
X005606Y011495D01*
X005614Y011791D02*
X005778Y011791D01*
X005680Y011889D02*
X005573Y011889D01*
X005581Y011988D02*
X005498Y011988D01*
X005483Y012086D02*
X005359Y012086D01*
X005384Y012185D02*
X002659Y012185D01*
X002659Y012086D02*
X004959Y012086D01*
X004977Y012095D02*
X004910Y012061D01*
X004850Y012017D01*
X004797Y011965D01*
X004753Y011904D01*
X004719Y011837D01*
X004696Y011766D01*
X004684Y011692D01*
X002347Y011692D01*
X002343Y011600D02*
X002271Y011623D01*
X002197Y011635D01*
X002188Y011635D01*
X002188Y011184D01*
X002639Y011184D01*
X002639Y011193D01*
X002627Y011268D01*
X002604Y011339D01*
X002570Y011407D01*
X002525Y011468D01*
X002472Y011521D01*
X002411Y011566D01*
X002343Y011600D01*
X002356Y011593D02*
X004688Y011593D01*
X004684Y011674D02*
X005140Y011674D01*
X005140Y012130D01*
X005122Y012130D01*
X005048Y012118D01*
X004977Y012095D01*
X005140Y012086D02*
X005178Y012086D01*
X005178Y011988D02*
X005140Y011988D01*
X005140Y011889D02*
X005178Y011889D01*
X005178Y011791D02*
X005140Y011791D01*
X005140Y011692D02*
X005178Y011692D01*
X004820Y011988D02*
X002631Y011988D01*
X002590Y011889D02*
X004745Y011889D01*
X004704Y011791D02*
X002502Y011791D01*
X002498Y011495D02*
X004712Y011495D01*
X004760Y011396D02*
X002575Y011396D01*
X002617Y011298D02*
X004845Y011298D01*
X004970Y011199D02*
X002638Y011199D01*
X002639Y011126D02*
X002188Y011126D01*
X002188Y010675D01*
X002197Y010675D01*
X002271Y010687D01*
X002343Y010710D01*
X002411Y010745D01*
X002472Y010789D01*
X002525Y010842D01*
X002570Y010904D01*
X004640Y010904D01*
X004599Y010805D02*
X002488Y010805D01*
X002570Y010904D02*
X002604Y010971D01*
X002627Y011043D01*
X002639Y011117D01*
X002639Y011126D01*
X002636Y011101D02*
X004791Y011101D01*
X004693Y011002D02*
X002614Y011002D01*
X002332Y010707D02*
X004584Y010707D01*
X004584Y010608D02*
X002372Y010608D01*
X002512Y010509D02*
X004597Y010509D01*
X004638Y010411D02*
X002594Y010411D01*
X002635Y010312D02*
X004689Y010312D01*
X004787Y010214D02*
X002659Y010214D01*
X002744Y010115D02*
X004960Y010115D01*
X005684Y009425D02*
X003434Y009425D01*
X003532Y009327D02*
X005586Y009327D01*
X005487Y009228D02*
X003631Y009228D01*
X003729Y009130D02*
X005389Y009130D01*
X005290Y009031D02*
X003828Y009031D01*
X003927Y008933D02*
X005191Y008933D01*
X005093Y008834D02*
X004025Y008834D01*
X003572Y008637D02*
X003022Y008637D01*
X003121Y008539D02*
X003670Y008539D01*
X003769Y008440D02*
X003219Y008440D01*
X003414Y008245D02*
X003869Y008245D01*
X003829Y008341D01*
X004392Y008736D02*
X004994Y008736D01*
X004896Y008637D02*
X004500Y008637D01*
X004548Y008539D02*
X004797Y008539D01*
X004699Y008440D02*
X004569Y008440D01*
X004955Y008046D02*
X005265Y008046D01*
X005363Y008144D02*
X005054Y008144D01*
X005152Y008243D02*
X005462Y008243D01*
X005349Y008440D02*
X006244Y008440D01*
X006201Y008341D02*
X005251Y008341D01*
X005448Y008539D02*
X006343Y008539D01*
X006378Y008736D02*
X005645Y008736D01*
X005743Y008834D02*
X006280Y008834D01*
X006215Y008933D02*
X005842Y008933D01*
X005940Y009031D02*
X006175Y009031D01*
X006164Y009130D02*
X006039Y009130D01*
X006138Y009228D02*
X006164Y009228D01*
X005783Y009524D02*
X003335Y009524D01*
X003237Y009623D02*
X005881Y009623D01*
X005980Y009721D02*
X003138Y009721D01*
X003040Y009820D02*
X006078Y009820D01*
X006177Y009918D02*
X002941Y009918D01*
X002188Y010707D02*
X002130Y010707D01*
X002130Y010675D02*
X002130Y011126D01*
X002188Y011126D01*
X002188Y011184D01*
X002130Y011184D01*
X002130Y011126D01*
X001679Y011126D01*
X001679Y011117D01*
X001691Y011043D01*
X001714Y010971D01*
X001749Y010904D01*
X001793Y010842D01*
X001846Y010789D01*
X001907Y010745D01*
X001975Y010710D01*
X002047Y010687D01*
X002121Y010675D01*
X002130Y010675D01*
X002130Y010805D02*
X002188Y010805D01*
X002188Y010904D02*
X002130Y010904D01*
X002130Y011002D02*
X002188Y011002D01*
X002188Y011101D02*
X002130Y011101D01*
X002130Y011184D02*
X001679Y011184D01*
X001679Y011193D01*
X001691Y011268D01*
X001714Y011339D01*
X001749Y011407D01*
X001793Y011468D01*
X001846Y011521D01*
X001907Y011566D01*
X001975Y011600D01*
X002047Y011623D01*
X002121Y011635D01*
X002130Y011635D01*
X002130Y011184D01*
X002130Y011199D02*
X002188Y011199D01*
X002188Y011298D02*
X002130Y011298D01*
X002130Y011396D02*
X002188Y011396D01*
X002188Y011495D02*
X002130Y011495D01*
X002130Y011593D02*
X002188Y011593D01*
X001962Y011593D02*
X001863Y011593D01*
X001820Y011495D02*
X001764Y011495D01*
X001743Y011396D02*
X001665Y011396D01*
X001701Y011298D02*
X001567Y011298D01*
X001549Y011199D02*
X001680Y011199D01*
X001682Y011101D02*
X001549Y011101D01*
X001549Y011002D02*
X001704Y011002D01*
X001748Y010904D02*
X001549Y010904D01*
X001549Y010805D02*
X001830Y010805D01*
X001986Y010707D02*
X001549Y010707D01*
X001549Y010608D02*
X001946Y010608D01*
X001806Y010509D02*
X001549Y010509D01*
X001549Y010411D02*
X001724Y010411D01*
X001683Y010312D02*
X001549Y010312D01*
X001549Y010214D02*
X001659Y010214D01*
X001659Y010115D02*
X001549Y010115D01*
X001549Y010017D02*
X001675Y010017D01*
X001716Y009918D02*
X001549Y009918D01*
X001549Y009820D02*
X001787Y009820D01*
X001900Y009721D02*
X001549Y009721D01*
X001549Y009623D02*
X001981Y009623D01*
X001821Y009524D02*
X001549Y009524D01*
X001549Y009425D02*
X001730Y009425D01*
X001689Y009327D02*
X001549Y009327D01*
X001549Y009228D02*
X001659Y009228D01*
X001659Y009130D02*
X001549Y009130D01*
X001588Y009031D02*
X001669Y009031D01*
X001687Y008933D02*
X001710Y008933D01*
X001961Y011692D02*
X001971Y011692D01*
X001606Y011988D02*
X001329Y011988D01*
X001329Y012086D02*
X001659Y012086D01*
X001659Y012185D02*
X001329Y012185D01*
X001329Y012283D02*
X001671Y012283D01*
X001712Y012382D02*
X001329Y012382D01*
X001329Y012480D02*
X001777Y012480D01*
X001876Y012579D02*
X001329Y012579D01*
X001329Y012677D02*
X001817Y012677D01*
X001718Y012776D02*
X001329Y012776D01*
X001329Y012874D02*
X001647Y012874D01*
X001607Y012973D02*
X001329Y012973D01*
X001329Y013072D02*
X001579Y013072D01*
X001579Y013170D02*
X001329Y013170D01*
X001329Y013269D02*
X001579Y013269D01*
X001619Y013367D02*
X001329Y013367D01*
X001329Y013466D02*
X001660Y013466D01*
X001748Y013564D02*
X001329Y013564D01*
X001329Y013663D02*
X001869Y013663D01*
X001329Y013761D02*
X004929Y013761D01*
X004929Y013663D02*
X002449Y013663D01*
X002570Y013564D02*
X004929Y013564D01*
X004929Y013466D02*
X002658Y013466D01*
X002699Y013367D02*
X004929Y013367D01*
X004929Y013269D02*
X002739Y013269D01*
X002739Y013170D02*
X004929Y013170D01*
X004929Y013072D02*
X002739Y013072D01*
X002711Y012973D02*
X004929Y012973D01*
X004929Y012874D02*
X002671Y012874D01*
X002600Y012776D02*
X004929Y012776D01*
X004929Y012677D02*
X002502Y012677D01*
X002442Y012579D02*
X004990Y012579D01*
X005089Y012480D02*
X002541Y012480D01*
X002606Y012382D02*
X005187Y012382D01*
X005286Y012283D02*
X002647Y012283D01*
X001508Y011889D02*
X001329Y011889D01*
X001329Y011791D02*
X001409Y011791D01*
X001329Y013860D02*
X004929Y013860D01*
X004929Y013958D02*
X001329Y013958D01*
X001329Y014057D02*
X004929Y014057D01*
X004929Y014156D02*
X003140Y014156D01*
X003199Y014254D02*
X004929Y014254D01*
X004929Y014353D02*
X003199Y014353D01*
X003199Y014451D02*
X004929Y014451D01*
X004929Y014550D02*
X003199Y014550D01*
X003199Y014648D02*
X004929Y014648D01*
X004677Y014747D02*
X003256Y014747D01*
X003355Y014845D02*
X004664Y014845D01*
X004664Y014944D02*
X003453Y014944D01*
X003552Y015042D02*
X004664Y015042D01*
X004664Y015141D02*
X003650Y015141D01*
X003749Y015240D02*
X004664Y015240D01*
X004664Y015338D02*
X003847Y015338D01*
X003946Y015437D02*
X004664Y015437D01*
X004664Y015535D02*
X004044Y015535D01*
X004143Y015634D02*
X004747Y015634D01*
X003985Y016126D02*
X003165Y016126D01*
X003217Y016028D02*
X003887Y016028D01*
X003788Y015929D02*
X003258Y015929D01*
X003279Y015831D02*
X003689Y015831D01*
X003591Y015732D02*
X003279Y015732D01*
X003279Y015634D02*
X003492Y015634D01*
X003394Y015535D02*
X003239Y015535D01*
X003198Y015437D02*
X003295Y015437D01*
X003197Y015338D02*
X003119Y015338D01*
X003098Y015240D02*
X003020Y015240D01*
X002298Y015240D02*
X001329Y015240D01*
X001329Y015338D02*
X002199Y015338D01*
X002120Y015437D02*
X001329Y015437D01*
X001329Y015535D02*
X002079Y015535D01*
X002039Y015634D02*
X001329Y015634D01*
X001329Y015732D02*
X002039Y015732D01*
X002039Y015831D02*
X001329Y015831D01*
X001329Y015929D02*
X002060Y015929D01*
X002101Y016028D02*
X001329Y016028D01*
X001329Y016126D02*
X002154Y016126D01*
X002252Y016225D02*
X001329Y016225D01*
X001329Y016324D02*
X002411Y016324D01*
X002282Y016535D02*
X002510Y016629D01*
X002685Y016804D01*
X002779Y017032D01*
X002779Y017278D01*
X002685Y017506D01*
X005503Y017506D01*
X005601Y017407D02*
X002726Y017407D01*
X002766Y017309D02*
X005638Y017309D01*
X005656Y017353D02*
X005619Y017263D01*
X005619Y017048D01*
X005701Y016849D01*
X005853Y016697D01*
X006052Y016615D01*
X006266Y016615D01*
X006465Y016697D01*
X006617Y016849D01*
X006699Y017048D01*
X006699Y017263D01*
X006617Y017461D01*
X006465Y017613D01*
X006266Y017695D01*
X006052Y017695D01*
X005990Y017669D01*
X005173Y018486D01*
X005199Y018548D01*
X005199Y018763D01*
X005117Y018961D01*
X004965Y019113D01*
X004863Y019155D01*
X004965Y019197D01*
X005117Y019349D01*
X005132Y019385D01*
X006664Y019385D01*
X006664Y018760D01*
X006764Y018660D01*
X007554Y018660D01*
X007654Y018760D01*
X007654Y018872D01*
X007672Y018829D01*
X007833Y018668D01*
X008045Y018580D01*
X008273Y018580D01*
X008485Y018668D01*
X008646Y018829D01*
X008734Y019041D01*
X008734Y019269D01*
X008646Y019481D01*
X008485Y019643D01*
X008273Y019730D01*
X008045Y019730D01*
X007833Y019643D01*
X007672Y019481D01*
X007654Y019438D01*
X007654Y019465D01*
X007669Y019480D01*
X010054Y021865D01*
X010169Y021865D01*
X010169Y021738D01*
X010244Y021558D01*
X010381Y021420D01*
X010562Y021345D01*
X010756Y021345D01*
X010937Y021420D01*
X011074Y021558D01*
X011116Y021657D01*
X011176Y021512D01*
X011336Y021352D01*
X011546Y021265D01*
X011772Y021265D01*
X011982Y021352D01*
X012142Y021512D01*
X012214Y021685D01*
X012224Y021655D01*
X012257Y021589D01*
X012301Y021529D01*
X012353Y021477D01*
X012413Y021433D01*
X012479Y021400D01*
X012549Y021377D01*
X012609Y021367D01*
X012609Y022105D01*
X012709Y022105D01*
X012709Y021367D01*
X012769Y021377D01*
X012839Y021400D01*
X012905Y021433D01*
X012965Y021477D01*
X013018Y021529D01*
X013061Y021589D01*
X013095Y021655D01*
X013117Y021725D01*
X013129Y021798D01*
X013129Y022105D01*
X012709Y022105D01*
X012709Y022205D01*
X013129Y022205D01*
X013129Y022512D01*
X013117Y022585D01*
X013095Y022656D01*
X013061Y022721D01*
X013018Y022781D01*
X012965Y022834D01*
X012905Y022877D01*
X012839Y022911D01*
X012769Y022934D01*
X012709Y022943D01*
X012709Y022205D01*
X012609Y022205D01*
X012609Y022943D01*
X012549Y022934D01*
X012479Y022911D01*
X012413Y022877D01*
X012353Y022834D01*
X012301Y022781D01*
X012257Y022721D01*
X012224Y022656D01*
X012214Y022625D01*
X012142Y022798D01*
X011982Y022958D01*
X011772Y023045D01*
X011546Y023045D01*
X011336Y022958D01*
X011176Y022798D01*
X011116Y022653D01*
X011074Y022753D01*
X010937Y022890D01*
X010756Y022965D01*
X010562Y022965D01*
X010381Y022890D01*
X010244Y022753D01*
X010169Y022573D01*
X010169Y022325D01*
X010054Y022325D01*
X009864Y022325D01*
X007384Y019845D01*
X007304Y019845D01*
X005165Y019845D01*
X005117Y019961D01*
X004965Y020113D01*
X004766Y020195D01*
X004552Y020195D01*
X004353Y020113D01*
X004201Y019961D01*
X004119Y019763D01*
X004119Y019548D01*
X004201Y019349D01*
X004353Y019197D01*
X004455Y019155D01*
X004353Y019113D01*
X004201Y018961D01*
X004119Y018763D01*
X004119Y018548D01*
X004201Y018349D01*
X004353Y018197D01*
X004552Y018115D01*
X004766Y018115D01*
X004856Y018152D01*
X005656Y017353D01*
X005619Y017210D02*
X002779Y017210D01*
X002779Y017112D02*
X005619Y017112D01*
X005633Y017013D02*
X002771Y017013D01*
X002731Y016915D02*
X005674Y016915D01*
X005734Y016816D02*
X002690Y016816D01*
X002598Y016718D02*
X005833Y016718D01*
X006042Y016619D02*
X002485Y016619D01*
X002282Y016535D02*
X002036Y016535D01*
X001808Y016629D01*
X001633Y016804D01*
X001539Y017032D01*
X001539Y017278D01*
X001633Y017506D01*
X001329Y017506D01*
X001329Y017407D02*
X001593Y017407D01*
X001552Y017309D02*
X001329Y017309D01*
X001329Y017210D02*
X001539Y017210D01*
X001539Y017112D02*
X001329Y017112D01*
X001329Y017013D02*
X001547Y017013D01*
X001587Y016915D02*
X001329Y016915D01*
X001329Y016816D02*
X001628Y016816D01*
X001720Y016718D02*
X001329Y016718D01*
X001329Y016619D02*
X001833Y016619D01*
X001329Y016521D02*
X012139Y016521D01*
X012238Y016619D02*
X011776Y016619D01*
X011766Y016615D02*
X011965Y016697D01*
X012117Y016849D01*
X012199Y017048D01*
X012199Y017263D01*
X012117Y017461D01*
X011965Y017613D01*
X011766Y017695D01*
X011552Y017695D01*
X011353Y017613D01*
X011201Y017461D01*
X011119Y017263D01*
X011119Y017048D01*
X011201Y016849D01*
X011353Y016697D01*
X011552Y016615D01*
X011766Y016615D01*
X011542Y016619D02*
X006276Y016619D01*
X006485Y016718D02*
X007376Y016718D01*
X007386Y016710D02*
X007459Y016673D01*
X007537Y016648D01*
X007618Y016635D01*
X007620Y016635D01*
X007620Y017116D01*
X007698Y017116D01*
X007698Y016635D01*
X007700Y016635D01*
X007781Y016648D01*
X007859Y016673D01*
X007932Y016710D01*
X007998Y016758D01*
X008056Y016816D01*
X011234Y016816D01*
X011174Y016915D02*
X008120Y016915D01*
X008104Y016883D02*
X008141Y016955D01*
X008166Y017033D01*
X008179Y017114D01*
X008179Y017116D01*
X007698Y017116D01*
X007698Y017194D01*
X008179Y017194D01*
X008179Y017196D01*
X008166Y017277D01*
X008141Y017355D01*
X008104Y017428D01*
X008056Y017494D01*
X007998Y017552D01*
X007932Y017600D01*
X007859Y017637D01*
X007781Y017662D01*
X007700Y017675D01*
X007698Y017675D01*
X007698Y017194D01*
X007620Y017194D01*
X007620Y017116D01*
X007139Y017116D01*
X007139Y017114D01*
X007152Y017033D01*
X007177Y016955D01*
X007214Y016883D01*
X007262Y016816D01*
X007320Y016758D01*
X007386Y016710D01*
X007263Y016816D02*
X006584Y016816D01*
X006644Y016915D02*
X007198Y016915D01*
X007158Y017013D02*
X006685Y017013D01*
X006699Y017112D02*
X007139Y017112D01*
X007139Y017194D02*
X007620Y017194D01*
X007620Y017675D01*
X007618Y017675D01*
X007537Y017662D01*
X007459Y017637D01*
X007386Y017600D01*
X007320Y017552D01*
X007262Y017494D01*
X007214Y017428D01*
X007177Y017355D01*
X007152Y017277D01*
X007139Y017196D01*
X007139Y017194D01*
X007141Y017210D02*
X006699Y017210D01*
X006680Y017309D02*
X007162Y017309D01*
X007204Y017407D02*
X006639Y017407D01*
X006572Y017506D02*
X007275Y017506D01*
X007396Y017605D02*
X006473Y017605D01*
X005956Y017703D02*
X012186Y017703D01*
X012184Y017692D02*
X012184Y017674D01*
X012640Y017674D01*
X012640Y017636D01*
X012678Y017636D01*
X012678Y017180D01*
X012696Y017180D01*
X012770Y017192D01*
X012841Y017215D01*
X012908Y017249D01*
X012968Y017293D01*
X013021Y017346D01*
X013065Y017406D01*
X013099Y017473D01*
X013122Y017544D01*
X013134Y017618D01*
X013134Y017636D01*
X012678Y017636D01*
X012678Y017674D01*
X013134Y017674D01*
X013134Y017692D01*
X013122Y017766D01*
X013099Y017837D01*
X013065Y017904D01*
X013021Y017965D01*
X012968Y018017D01*
X012908Y018061D01*
X012841Y018095D01*
X012824Y018101D01*
X012985Y018168D01*
X013146Y018329D01*
X013234Y018541D01*
X013234Y018769D01*
X013146Y018981D01*
X012985Y019143D01*
X012773Y019230D01*
X012545Y019230D01*
X012333Y019143D01*
X012172Y018981D01*
X012084Y018769D01*
X012084Y018541D01*
X012172Y018329D01*
X012333Y018168D01*
X012494Y018101D01*
X012477Y018095D01*
X012410Y018061D01*
X012350Y018017D01*
X012297Y017965D01*
X012253Y017904D01*
X012219Y017837D01*
X012196Y017766D01*
X012184Y017692D01*
X012184Y017636D02*
X012184Y017618D01*
X012196Y017544D01*
X012219Y017473D01*
X012253Y017406D01*
X012297Y017346D01*
X012350Y017293D01*
X012410Y017249D01*
X012477Y017215D01*
X012548Y017192D01*
X012622Y017180D01*
X012640Y017180D01*
X012640Y017636D01*
X012184Y017636D01*
X012186Y017605D02*
X011973Y017605D01*
X012072Y017506D02*
X012208Y017506D01*
X012252Y017407D02*
X012139Y017407D01*
X012180Y017309D02*
X012333Y017309D01*
X012199Y017210D02*
X012491Y017210D01*
X012640Y017210D02*
X012678Y017210D01*
X012678Y017309D02*
X012640Y017309D01*
X012640Y017407D02*
X012678Y017407D01*
X012678Y017506D02*
X012640Y017506D01*
X012640Y017605D02*
X012678Y017605D01*
X012827Y017210D02*
X015219Y017210D01*
X015238Y017309D02*
X012985Y017309D01*
X013066Y017407D02*
X015279Y017407D01*
X015346Y017506D02*
X013110Y017506D01*
X013132Y017605D02*
X015445Y017605D01*
X015347Y017703D02*
X013132Y017703D01*
X013111Y017802D02*
X015249Y017802D01*
X015180Y017900D02*
X013067Y017900D01*
X012987Y017999D02*
X015139Y017999D01*
X015119Y018097D02*
X012835Y018097D01*
X013013Y018196D02*
X015119Y018196D01*
X015132Y018294D02*
X013111Y018294D01*
X013173Y018393D02*
X015173Y018393D01*
X015232Y018491D02*
X013214Y018491D01*
X013234Y018590D02*
X015330Y018590D01*
X015349Y018689D02*
X013234Y018689D01*
X013227Y018787D02*
X015250Y018787D01*
X015200Y018886D02*
X013186Y018886D01*
X013143Y018984D02*
X015159Y018984D01*
X015139Y019083D02*
X013045Y019083D01*
X012891Y019181D02*
X015139Y019181D01*
X015140Y019280D02*
X012097Y019280D01*
X012146Y019329D02*
X011985Y019168D01*
X011773Y019080D01*
X011545Y019080D01*
X011333Y019168D01*
X011172Y019329D01*
X011134Y019420D01*
X011134Y019310D01*
X011124Y019272D01*
X011104Y019238D01*
X011076Y019210D01*
X011042Y019190D01*
X011004Y019180D01*
X010678Y019180D01*
X010678Y019636D01*
X010640Y019636D01*
X010640Y019180D01*
X010314Y019180D01*
X010276Y019190D01*
X010242Y019210D01*
X010214Y019238D01*
X010194Y019272D01*
X010184Y019310D01*
X010184Y019636D01*
X010640Y019636D01*
X010640Y019674D01*
X008409Y019674D01*
X008552Y019575D02*
X010184Y019575D01*
X010184Y019477D02*
X008648Y019477D01*
X008689Y019378D02*
X010184Y019378D01*
X010192Y019280D02*
X008730Y019280D01*
X008734Y019181D02*
X010310Y019181D01*
X010184Y019674D02*
X010640Y019674D01*
X010640Y020130D01*
X010314Y020130D01*
X010276Y020120D01*
X010242Y020100D01*
X010214Y020072D01*
X010194Y020038D01*
X010184Y020000D01*
X010184Y019674D01*
X010184Y019773D02*
X007962Y019773D01*
X007909Y019674D02*
X007863Y019674D01*
X007766Y019575D02*
X007765Y019575D01*
X007669Y019480D02*
X007669Y019480D01*
X007670Y019477D02*
X007666Y019477D01*
X007410Y019871D02*
X005154Y019871D01*
X005108Y019970D02*
X007508Y019970D01*
X007607Y020068D02*
X005010Y020068D01*
X004835Y020167D02*
X006927Y020167D01*
X006853Y020197D02*
X007052Y020115D01*
X007266Y020115D01*
X007465Y020197D01*
X007617Y020349D01*
X007699Y020548D01*
X007699Y020763D01*
X007617Y020961D01*
X007465Y021113D01*
X007266Y021195D01*
X007052Y021195D01*
X006853Y021113D01*
X006701Y020961D01*
X006619Y020763D01*
X006619Y020548D01*
X006701Y020349D01*
X006853Y020197D01*
X006785Y020265D02*
X004533Y020265D01*
X004465Y020197D02*
X004266Y020115D01*
X004052Y020115D01*
X003853Y020197D01*
X003701Y020349D01*
X003619Y020548D01*
X003619Y020763D01*
X003701Y020961D01*
X003853Y021113D01*
X004052Y021195D01*
X004266Y021195D01*
X004465Y021113D01*
X004617Y020961D01*
X004699Y020763D01*
X004699Y020548D01*
X004617Y020349D01*
X004465Y020197D01*
X004483Y020167D02*
X004391Y020167D01*
X004308Y020068D02*
X002699Y020068D01*
X002699Y020167D02*
X003927Y020167D01*
X003785Y020265D02*
X002698Y020265D01*
X002657Y020364D02*
X003695Y020364D01*
X003654Y020462D02*
X002615Y020462D01*
X002517Y020561D02*
X003619Y020561D01*
X003619Y020659D02*
X002529Y020659D01*
X002627Y020758D02*
X003619Y020758D01*
X003658Y020856D02*
X002726Y020856D01*
X002824Y020955D02*
X003699Y020955D01*
X003794Y021054D02*
X002923Y021054D01*
X003021Y021152D02*
X003948Y021152D01*
X004370Y021152D02*
X006948Y021152D01*
X006794Y021054D02*
X004524Y021054D01*
X004619Y020955D02*
X006699Y020955D01*
X006658Y020856D02*
X004660Y020856D01*
X004699Y020758D02*
X006619Y020758D01*
X006619Y020659D02*
X004699Y020659D01*
X004699Y020561D02*
X006619Y020561D01*
X006654Y020462D02*
X004664Y020462D01*
X004623Y020364D02*
X006695Y020364D01*
X007391Y020167D02*
X007705Y020167D01*
X007804Y020265D02*
X007533Y020265D01*
X007623Y020364D02*
X007903Y020364D01*
X008001Y020462D02*
X007664Y020462D01*
X007699Y020561D02*
X008100Y020561D01*
X008198Y020659D02*
X007699Y020659D01*
X007699Y020758D02*
X008297Y020758D01*
X008395Y020856D02*
X007660Y020856D01*
X007619Y020955D02*
X008494Y020955D01*
X008592Y021054D02*
X007524Y021054D01*
X007370Y021152D02*
X008691Y021152D01*
X008789Y021251D02*
X003120Y021251D01*
X003218Y021349D02*
X008888Y021349D01*
X008986Y021448D02*
X003317Y021448D01*
X003415Y021546D02*
X009085Y021546D01*
X009184Y021645D02*
X003514Y021645D01*
X003613Y021743D02*
X009282Y021743D01*
X009326Y021842D02*
X009381Y021842D01*
X009424Y021940D02*
X009479Y021940D01*
X009523Y022039D02*
X009578Y022039D01*
X009621Y022138D02*
X009676Y022138D01*
X009720Y022236D02*
X009775Y022236D01*
X009818Y022335D02*
X010169Y022335D01*
X010169Y022433D02*
X009917Y022433D01*
X010015Y022532D02*
X010169Y022532D01*
X010193Y022630D02*
X010114Y022630D01*
X010213Y022729D02*
X010234Y022729D01*
X010311Y022827D02*
X010318Y022827D01*
X010410Y022926D02*
X010467Y022926D01*
X010508Y023024D02*
X011496Y023024D01*
X011304Y022926D02*
X010851Y022926D01*
X011000Y022827D02*
X011205Y022827D01*
X011147Y022729D02*
X011084Y022729D01*
X011822Y023024D02*
X014370Y023024D01*
X014468Y022926D02*
X012792Y022926D01*
X012709Y022926D02*
X012609Y022926D01*
X012526Y022926D02*
X012014Y022926D01*
X012113Y022827D02*
X012347Y022827D01*
X012262Y022729D02*
X012171Y022729D01*
X012212Y022630D02*
X012215Y022630D01*
X012609Y022630D02*
X012709Y022630D01*
X012709Y022532D02*
X012609Y022532D01*
X012609Y022433D02*
X012709Y022433D01*
X012709Y022335D02*
X012609Y022335D01*
X012609Y022236D02*
X012709Y022236D01*
X012709Y022138D02*
X015257Y022138D01*
X015158Y022236D02*
X013129Y022236D01*
X013129Y022335D02*
X015060Y022335D01*
X014961Y022433D02*
X013129Y022433D01*
X013126Y022532D02*
X014863Y022532D01*
X014764Y022630D02*
X013103Y022630D01*
X013056Y022729D02*
X014666Y022729D01*
X014567Y022827D02*
X012971Y022827D01*
X012709Y022827D02*
X012609Y022827D01*
X012609Y022729D02*
X012709Y022729D01*
X012709Y022039D02*
X012609Y022039D01*
X012609Y021940D02*
X012709Y021940D01*
X012709Y021842D02*
X012609Y021842D01*
X012609Y021743D02*
X012709Y021743D01*
X012709Y021645D02*
X012609Y021645D01*
X012609Y021546D02*
X012709Y021546D01*
X012709Y021448D02*
X012609Y021448D01*
X012393Y021448D02*
X012078Y021448D01*
X012156Y021546D02*
X012288Y021546D01*
X012229Y021645D02*
X012197Y021645D01*
X011975Y021349D02*
X015275Y021349D01*
X015277Y021355D02*
X015252Y021277D01*
X015240Y021205D01*
X015709Y021205D01*
X015709Y021674D01*
X015637Y021662D01*
X015559Y021637D01*
X015486Y021600D01*
X015420Y021552D01*
X015362Y021494D01*
X015314Y021428D01*
X015277Y021355D01*
X015329Y021448D02*
X012925Y021448D01*
X013030Y021546D02*
X015415Y021546D01*
X015584Y021645D02*
X013090Y021645D01*
X013120Y021743D02*
X015651Y021743D01*
X015709Y021645D02*
X015749Y021645D01*
X015709Y021546D02*
X015809Y021546D01*
X015809Y021448D02*
X015709Y021448D01*
X015709Y021349D02*
X015809Y021349D01*
X015809Y021251D02*
X015709Y021251D01*
X015709Y021152D02*
X009341Y021152D01*
X009243Y021054D02*
X015249Y021054D01*
X015277Y020955D02*
X015314Y020883D01*
X015421Y020758D02*
X008947Y020758D01*
X008849Y020659D02*
X015466Y020659D01*
X015301Y020561D02*
X008750Y020561D01*
X008651Y020462D02*
X015203Y020462D01*
X015161Y020364D02*
X008553Y020364D01*
X008454Y020265D02*
X015120Y020265D01*
X015119Y020167D02*
X011926Y020167D01*
X011985Y020143D02*
X011773Y020230D01*
X011545Y020230D01*
X011333Y020143D01*
X011172Y019981D01*
X011134Y019890D01*
X011134Y020000D01*
X011124Y020038D01*
X011104Y020072D01*
X011076Y020100D01*
X011042Y020120D01*
X011004Y020130D01*
X010678Y020130D01*
X010678Y019674D01*
X010640Y019674D01*
X010640Y019773D02*
X010678Y019773D01*
X010678Y019871D02*
X010640Y019871D01*
X010640Y019970D02*
X010678Y019970D01*
X010678Y020068D02*
X010640Y020068D01*
X010212Y020068D02*
X008257Y020068D01*
X008159Y019970D02*
X010184Y019970D01*
X010184Y019871D02*
X008060Y019871D01*
X008356Y020167D02*
X011392Y020167D01*
X011259Y020068D02*
X011106Y020068D01*
X011134Y019970D02*
X011167Y019970D01*
X010678Y019575D02*
X010640Y019575D01*
X010640Y019477D02*
X010678Y019477D01*
X010678Y019378D02*
X010640Y019378D01*
X010640Y019280D02*
X010678Y019280D01*
X010678Y019181D02*
X010640Y019181D01*
X011008Y019181D02*
X011320Y019181D01*
X011221Y019280D02*
X011126Y019280D01*
X011134Y019378D02*
X011151Y019378D01*
X011538Y019083D02*
X008734Y019083D01*
X008711Y018984D02*
X012175Y018984D01*
X012132Y018886D02*
X008670Y018886D01*
X008604Y018787D02*
X012091Y018787D01*
X012084Y018689D02*
X008506Y018689D01*
X008297Y018590D02*
X012084Y018590D01*
X012104Y018491D02*
X005176Y018491D01*
X005199Y018590D02*
X008021Y018590D01*
X007812Y018689D02*
X007583Y018689D01*
X007654Y018787D02*
X007714Y018787D01*
X006735Y018689D02*
X005199Y018689D01*
X005189Y018787D02*
X006664Y018787D01*
X006664Y018886D02*
X005148Y018886D01*
X005094Y018984D02*
X006664Y018984D01*
X006664Y019083D02*
X004995Y019083D01*
X004926Y019181D02*
X006664Y019181D01*
X006664Y019280D02*
X005047Y019280D01*
X005129Y019378D02*
X006664Y019378D01*
X005464Y018196D02*
X012305Y018196D01*
X012207Y018294D02*
X005365Y018294D01*
X005266Y018393D02*
X012145Y018393D01*
X012331Y017999D02*
X005661Y017999D01*
X005759Y017900D02*
X012251Y017900D01*
X012207Y017802D02*
X005858Y017802D01*
X005562Y018097D02*
X012483Y018097D01*
X012731Y017112D02*
X012199Y017112D01*
X012185Y017013D02*
X012632Y017013D01*
X012533Y016915D02*
X012144Y016915D01*
X012084Y016816D02*
X012435Y016816D01*
X012336Y016718D02*
X011985Y016718D01*
X012041Y016422D02*
X001329Y016422D01*
X001633Y017506D02*
X001808Y017681D01*
X002036Y017775D01*
X002282Y017775D01*
X002510Y017681D01*
X002685Y017506D01*
X002586Y017605D02*
X005404Y017605D01*
X005306Y017703D02*
X002456Y017703D01*
X001862Y017703D02*
X001329Y017703D01*
X001329Y017605D02*
X001732Y017605D01*
X001329Y017802D02*
X005207Y017802D01*
X005109Y017900D02*
X001329Y017900D01*
X001329Y017999D02*
X005010Y017999D01*
X004912Y018097D02*
X001329Y018097D01*
X001329Y018196D02*
X004357Y018196D01*
X004256Y018294D02*
X001329Y018294D01*
X001329Y018393D02*
X004183Y018393D01*
X004142Y018491D02*
X001329Y018491D01*
X001329Y018590D02*
X001903Y018590D01*
X001749Y018689D02*
X001329Y018689D01*
X001329Y018787D02*
X001650Y018787D01*
X001600Y018886D02*
X001329Y018886D01*
X001329Y018984D02*
X001559Y018984D01*
X001539Y019083D02*
X001329Y019083D01*
X001329Y019181D02*
X001539Y019181D01*
X001540Y019280D02*
X001329Y019280D01*
X001329Y019378D02*
X001580Y019378D01*
X001621Y019477D02*
X001329Y019477D01*
X001329Y019575D02*
X001703Y019575D01*
X001801Y019674D02*
X001329Y019674D01*
X001329Y019773D02*
X001778Y019773D01*
X001692Y019871D02*
X001329Y019871D01*
X001329Y019970D02*
X001651Y019970D01*
X001619Y020068D02*
X001329Y020068D01*
X001329Y020167D02*
X001619Y020167D01*
X001620Y020265D02*
X001329Y020265D01*
X001329Y020364D02*
X001661Y020364D01*
X001703Y020462D02*
X001329Y020462D01*
X001329Y020561D02*
X001801Y020561D01*
X001966Y020659D02*
X001329Y020659D01*
X001329Y020758D02*
X001977Y020758D01*
X002075Y020856D02*
X001329Y020856D01*
X001329Y020955D02*
X002174Y020955D01*
X002272Y021054D02*
X001329Y021054D01*
X001329Y021152D02*
X002371Y021152D01*
X002469Y021251D02*
X001329Y021251D01*
X001329Y021349D02*
X002568Y021349D01*
X002666Y021448D02*
X001329Y021448D01*
X001329Y021546D02*
X002765Y021546D01*
X002864Y021645D02*
X001329Y021645D01*
X001329Y021743D02*
X002962Y021743D01*
X003061Y021842D02*
X001329Y021842D01*
X001329Y021940D02*
X003159Y021940D01*
X003258Y022039D02*
X001329Y022039D01*
X001329Y022138D02*
X003356Y022138D01*
X003455Y022236D02*
X002882Y022236D01*
X002825Y022215D02*
X003136Y022329D01*
X003136Y022329D01*
X003390Y022542D01*
X003556Y022829D01*
X003614Y023155D01*
X003556Y023482D01*
X003390Y023769D01*
X003136Y023982D01*
X002825Y024095D01*
X002825Y024095D01*
X002746Y024095D01*
X002659Y024095D01*
X002658Y024095D01*
X002572Y024095D01*
X002493Y024095D01*
X002182Y023982D01*
X001928Y023769D01*
X001762Y023482D01*
X001705Y023155D01*
X001762Y022829D01*
X001762Y022829D01*
X001928Y022542D01*
X001928Y022542D01*
X002182Y022329D01*
X002493Y022215D01*
X002493Y022215D01*
X002572Y022215D01*
X002659Y022215D01*
X002825Y022215D01*
X002825Y022215D01*
X003144Y022335D02*
X003553Y022335D01*
X003652Y022433D02*
X003261Y022433D01*
X003378Y022532D02*
X003750Y022532D01*
X003849Y022630D02*
X003441Y022630D01*
X003390Y022542D02*
X003390Y022542D01*
X003390Y022542D01*
X003498Y022729D02*
X003948Y022729D01*
X004046Y022827D02*
X003555Y022827D01*
X003556Y022829D02*
X003556Y022829D01*
X003573Y022926D02*
X004120Y022926D01*
X004079Y023024D02*
X003590Y023024D01*
X003608Y023123D02*
X004069Y023123D01*
X004069Y023222D02*
X003602Y023222D01*
X003614Y023155D02*
X003614Y023155D01*
X003584Y023320D02*
X004093Y023320D01*
X004134Y023419D02*
X003567Y023419D01*
X003556Y023482D02*
X003556Y023482D01*
X003535Y023517D02*
X004207Y023517D01*
X004310Y023616D02*
X003479Y023616D01*
X003422Y023714D02*
X004453Y023714D01*
X004551Y023813D02*
X003338Y023813D01*
X003390Y023769D02*
X003390Y023769D01*
X003220Y023911D02*
X004650Y023911D01*
X004749Y024010D02*
X003059Y024010D01*
X003136Y023982D02*
X003136Y023982D01*
X002493Y024095D02*
X002493Y024095D01*
X002259Y024010D02*
X001329Y024010D01*
X001329Y024108D02*
X004847Y024108D01*
X004946Y024207D02*
X001329Y024207D01*
X001329Y024306D02*
X016252Y024306D01*
X016159Y024207D02*
X006412Y024207D01*
X006511Y024108D02*
X016159Y024108D01*
X016159Y024010D02*
X006609Y024010D01*
X006708Y023911D02*
X016159Y023911D01*
X016159Y023813D02*
X014727Y023813D01*
X014840Y023714D02*
X016243Y023714D01*
X016341Y023616D02*
X014938Y023616D01*
X015037Y023517D02*
X016342Y023517D01*
X016244Y023419D02*
X015135Y023419D01*
X015234Y023320D02*
X016179Y023320D01*
X016179Y023222D02*
X015332Y023222D01*
X015431Y023123D02*
X016179Y023123D01*
X016179Y023024D02*
X015529Y023024D01*
X015628Y022926D02*
X016209Y022926D01*
X016308Y022827D02*
X015727Y022827D01*
X015825Y022729D02*
X016263Y022729D01*
X016164Y022630D02*
X015924Y022630D01*
X016022Y022532D02*
X016079Y022532D01*
X015454Y021940D02*
X013129Y021940D01*
X013129Y021842D02*
X015552Y021842D01*
X015355Y022039D02*
X013129Y022039D01*
X011343Y021349D02*
X010766Y021349D01*
X010552Y021349D02*
X009538Y021349D01*
X009440Y021251D02*
X015248Y021251D01*
X015809Y021152D02*
X016242Y021152D01*
X016266Y021033D02*
X016241Y020955D01*
X016185Y020856D02*
X017833Y020856D01*
X017921Y020758D02*
X016097Y020758D01*
X015916Y020659D02*
X017966Y020659D01*
X017801Y020561D02*
X016017Y020561D01*
X016115Y020462D02*
X017703Y020462D01*
X017661Y020364D02*
X016157Y020364D01*
X015401Y019674D02*
X012234Y019674D01*
X012234Y019769D02*
X012234Y019541D01*
X012146Y019329D01*
X012167Y019378D02*
X015180Y019378D01*
X015221Y019477D02*
X012208Y019477D01*
X012234Y019575D02*
X015303Y019575D01*
X015278Y019773D02*
X012233Y019773D01*
X012234Y019769D02*
X012146Y019981D01*
X011985Y020143D01*
X012059Y020068D02*
X015119Y020068D01*
X015151Y019970D02*
X012151Y019970D01*
X012192Y019871D02*
X015192Y019871D01*
X016849Y021705D02*
X016829Y021725D01*
X016899Y021725D01*
X017239Y022065D01*
X017239Y022545D01*
X016984Y022801D01*
X017139Y022956D01*
X017139Y023125D01*
X016689Y023125D01*
X016689Y023185D01*
X017139Y023185D01*
X017139Y023354D01*
X016927Y023566D01*
X016945Y023584D01*
X017544Y022985D01*
X017734Y022985D01*
X018164Y022985D01*
X018164Y022760D01*
X018264Y022660D01*
X019054Y022660D01*
X019154Y022760D01*
X019154Y022872D01*
X019172Y022829D01*
X019333Y022668D01*
X019545Y022580D01*
X019773Y022580D01*
X019985Y022668D01*
X020146Y022829D01*
X020234Y023041D01*
X020234Y023269D01*
X020146Y023481D01*
X019985Y023643D01*
X019773Y023730D01*
X019545Y023730D01*
X019333Y023643D01*
X019172Y023481D01*
X019154Y023438D01*
X019154Y023551D01*
X019127Y023578D01*
X019494Y023945D01*
X020584Y023945D01*
X020697Y023832D01*
X020664Y023754D01*
X020664Y023557D01*
X020739Y023375D01*
X020879Y023235D01*
X020968Y023198D01*
X020833Y023143D01*
X020672Y022981D01*
X020584Y022769D01*
X020584Y022541D01*
X020599Y022505D01*
X020597Y022505D01*
X017797Y022505D01*
X017647Y022443D01*
X017531Y022327D01*
X016909Y021705D01*
X016849Y021705D01*
X016918Y021743D02*
X016948Y021743D01*
X017016Y021842D02*
X017046Y021842D01*
X017115Y021940D02*
X017145Y021940D01*
X017213Y022039D02*
X017243Y022039D01*
X017239Y022138D02*
X017342Y022138D01*
X017440Y022236D02*
X017239Y022236D01*
X017239Y022335D02*
X017539Y022335D01*
X017531Y022327D02*
X017531Y022327D01*
X017637Y022433D02*
X017239Y022433D01*
X017239Y022532D02*
X020588Y022532D01*
X020584Y022630D02*
X019895Y022630D01*
X020046Y022729D02*
X020584Y022729D01*
X020608Y022827D02*
X020144Y022827D01*
X020186Y022926D02*
X020649Y022926D01*
X020715Y023024D02*
X020227Y023024D01*
X020234Y023123D02*
X020814Y023123D01*
X020912Y023222D02*
X020234Y023222D01*
X020213Y023320D02*
X020794Y023320D01*
X020721Y023419D02*
X020172Y023419D01*
X020110Y023517D02*
X020680Y023517D01*
X020664Y023616D02*
X020012Y023616D01*
X019812Y023714D02*
X020664Y023714D01*
X020689Y023813D02*
X019362Y023813D01*
X019460Y023911D02*
X020618Y023911D01*
X020874Y024306D02*
X024009Y024306D01*
X024009Y024404D02*
X020775Y024404D01*
X020972Y024207D02*
X024009Y024207D01*
X024009Y024108D02*
X021358Y024108D01*
X021504Y024010D02*
X022259Y024010D01*
X022182Y023982D02*
X022182Y023982D01*
X022493Y024095D01*
X022493Y024095D01*
X022572Y024095D01*
X022645Y024095D01*
X022659Y024095D01*
X022746Y024095D01*
X022825Y024095D01*
X022825Y024095D01*
X023136Y023982D01*
X023136Y023982D01*
X023390Y023769D01*
X023390Y023769D01*
X023556Y023482D01*
X023556Y023482D01*
X023614Y023155D01*
X023614Y023155D01*
X023556Y022829D01*
X023556Y022829D01*
X023390Y022542D01*
X023390Y022542D01*
X023390Y022542D01*
X023136Y022329D01*
X023136Y022329D01*
X022825Y022215D01*
X022825Y022215D01*
X022746Y022215D01*
X022659Y022215D01*
X022493Y022215D01*
X022493Y022215D01*
X022182Y022329D01*
X022182Y022329D01*
X021928Y022542D01*
X021928Y022542D01*
X021762Y022829D01*
X021762Y022829D01*
X021705Y023155D01*
X021705Y023155D01*
X021762Y023482D01*
X021762Y023482D01*
X021928Y023769D01*
X021928Y023769D01*
X021928Y023769D01*
X022182Y023982D01*
X022098Y023911D02*
X021589Y023911D01*
X021629Y023813D02*
X021981Y023813D01*
X021897Y023714D02*
X021654Y023714D01*
X021654Y023616D02*
X021840Y023616D01*
X021783Y023517D02*
X021638Y023517D01*
X021597Y023419D02*
X021751Y023419D01*
X021734Y023320D02*
X021524Y023320D01*
X021406Y023222D02*
X021716Y023222D01*
X021710Y023123D02*
X021504Y023123D01*
X021603Y023024D02*
X021728Y023024D01*
X021745Y022926D02*
X021669Y022926D01*
X021710Y022827D02*
X021763Y022827D01*
X021734Y022729D02*
X021820Y022729D01*
X021877Y022630D02*
X021734Y022630D01*
X021730Y022532D02*
X021940Y022532D01*
X022057Y022433D02*
X021689Y022433D01*
X021649Y022335D02*
X022174Y022335D01*
X022436Y022236D02*
X021598Y022236D01*
X021696Y022138D02*
X024009Y022138D01*
X024009Y022236D02*
X022882Y022236D01*
X023144Y022335D02*
X024009Y022335D01*
X024009Y022433D02*
X023261Y022433D01*
X023378Y022532D02*
X024009Y022532D01*
X024009Y022630D02*
X023441Y022630D01*
X023498Y022729D02*
X024009Y022729D01*
X024009Y022827D02*
X023555Y022827D01*
X023573Y022926D02*
X024009Y022926D01*
X024009Y023024D02*
X023590Y023024D01*
X023608Y023123D02*
X024009Y023123D01*
X024009Y023222D02*
X023602Y023222D01*
X023584Y023320D02*
X024009Y023320D01*
X024009Y023419D02*
X023567Y023419D01*
X023535Y023517D02*
X024009Y023517D01*
X024009Y023616D02*
X023479Y023616D01*
X023422Y023714D02*
X024009Y023714D01*
X024009Y023813D02*
X023338Y023813D01*
X023220Y023911D02*
X024009Y023911D01*
X024009Y024010D02*
X023059Y024010D01*
X024009Y022039D02*
X021795Y022039D01*
X021893Y021940D02*
X024009Y021940D01*
X024009Y021842D02*
X021992Y021842D01*
X022091Y021743D02*
X024009Y021743D01*
X024009Y021645D02*
X023434Y021645D01*
X023309Y021645D02*
X023209Y021645D01*
X023209Y021546D02*
X023309Y021546D01*
X023309Y021448D02*
X023209Y021448D01*
X023209Y021349D02*
X023309Y021349D01*
X023309Y021251D02*
X023209Y021251D01*
X023209Y021152D02*
X022682Y021152D01*
X022737Y021054D02*
X022749Y021054D01*
X022748Y021251D02*
X022583Y021251D01*
X022485Y021349D02*
X022775Y021349D01*
X022829Y021448D02*
X022386Y021448D01*
X022288Y021546D02*
X022915Y021546D01*
X023084Y021645D02*
X022189Y021645D01*
X021621Y021054D02*
X021269Y021054D01*
X021266Y021033D02*
X021278Y021105D01*
X020809Y021105D01*
X020809Y021205D01*
X021278Y021205D01*
X021266Y021277D01*
X021241Y021355D01*
X021204Y021428D01*
X021156Y021494D01*
X021124Y021525D01*
X021149Y021525D01*
X021949Y020725D01*
X021949Y020654D01*
X022011Y020503D01*
X022571Y019943D01*
X022579Y019935D01*
X022633Y019804D01*
X022808Y019629D01*
X022842Y019615D01*
X022733Y019506D01*
X022639Y019278D01*
X022639Y019032D01*
X022733Y018804D01*
X022904Y018634D01*
X022853Y018613D01*
X022701Y018461D01*
X022645Y018325D01*
X021173Y018325D01*
X021117Y018461D01*
X020996Y018582D01*
X021110Y018629D01*
X021285Y018804D01*
X021379Y019032D01*
X021379Y019278D01*
X021285Y019506D01*
X021110Y019681D01*
X020996Y019728D01*
X021117Y019849D01*
X021199Y020048D01*
X021199Y020263D01*
X021117Y020461D01*
X020965Y020613D01*
X020880Y020648D01*
X020881Y020648D01*
X020959Y020673D01*
X021032Y020710D01*
X021098Y020758D01*
X021156Y020816D01*
X021204Y020883D01*
X021241Y020955D01*
X021719Y020955D01*
X021818Y020856D02*
X021185Y020856D01*
X021241Y020955D02*
X021266Y021033D01*
X021270Y021251D02*
X021424Y021251D01*
X021522Y021152D02*
X020809Y021152D01*
X020709Y021152D02*
X018309Y021152D01*
X018309Y021251D02*
X018209Y021251D01*
X018209Y021205D02*
X018209Y021674D01*
X018137Y021662D01*
X018059Y021637D01*
X017986Y021600D01*
X017920Y021552D01*
X017862Y021494D01*
X017814Y021428D01*
X017777Y021355D01*
X017752Y021277D01*
X017740Y021205D01*
X018209Y021205D01*
X018209Y021152D02*
X017516Y021152D01*
X017614Y021251D02*
X017748Y021251D01*
X017775Y021349D02*
X017713Y021349D01*
X017811Y021448D02*
X017829Y021448D01*
X017910Y021546D02*
X017915Y021546D01*
X018009Y021645D02*
X018084Y021645D01*
X018209Y021645D02*
X018309Y021645D01*
X018309Y021546D02*
X018209Y021546D01*
X018209Y021448D02*
X018309Y021448D01*
X018309Y021349D02*
X018209Y021349D01*
X018434Y021645D02*
X020549Y021645D01*
X020415Y021546D02*
X018603Y021546D01*
X018689Y021448D02*
X020329Y021448D01*
X020275Y021349D02*
X018743Y021349D01*
X018770Y021251D02*
X020248Y021251D01*
X020249Y021054D02*
X018769Y021054D01*
X018741Y020955D02*
X018704Y020883D01*
X018656Y020816D01*
X018598Y020758D01*
X018532Y020710D01*
X018459Y020673D01*
X018381Y020648D01*
X018380Y020648D01*
X018465Y020613D01*
X018617Y020461D01*
X018673Y020325D01*
X020145Y020325D01*
X020201Y020461D01*
X020353Y020613D01*
X020532Y020687D01*
X020486Y020710D01*
X020420Y020758D01*
X020362Y020816D01*
X020314Y020883D01*
X020277Y020955D01*
X020333Y020856D02*
X018685Y020856D01*
X018597Y020758D02*
X020421Y020758D01*
X020466Y020659D02*
X018416Y020659D01*
X018517Y020561D02*
X020301Y020561D01*
X020203Y020462D02*
X018615Y020462D01*
X018657Y020364D02*
X020161Y020364D01*
X020916Y020659D02*
X021949Y020659D01*
X021916Y020758D02*
X021097Y020758D01*
X021017Y020561D02*
X021987Y020561D01*
X022052Y020462D02*
X021115Y020462D01*
X021157Y020364D02*
X022151Y020364D01*
X022249Y020265D02*
X021198Y020265D01*
X021199Y020167D02*
X022348Y020167D01*
X022446Y020068D02*
X021199Y020068D01*
X021167Y019970D02*
X022545Y019970D01*
X022606Y019871D02*
X021126Y019871D01*
X021040Y019773D02*
X022665Y019773D01*
X022763Y019674D02*
X021117Y019674D01*
X021216Y019575D02*
X022803Y019575D01*
X022721Y019477D02*
X021297Y019477D01*
X021338Y019378D02*
X022680Y019378D01*
X022640Y019280D02*
X021378Y019280D01*
X021379Y019181D02*
X022639Y019181D01*
X022639Y019083D02*
X021379Y019083D01*
X021359Y018984D02*
X022659Y018984D01*
X022700Y018886D02*
X021318Y018886D01*
X021268Y018787D02*
X022750Y018787D01*
X022849Y018689D02*
X021169Y018689D01*
X021015Y018590D02*
X022830Y018590D01*
X022732Y018491D02*
X021086Y018491D01*
X021145Y018393D02*
X022673Y018393D01*
X023515Y018590D02*
X024009Y018590D01*
X024009Y018491D02*
X023586Y018491D01*
X023645Y018393D02*
X024009Y018393D01*
X024009Y018294D02*
X023686Y018294D01*
X023699Y018196D02*
X024009Y018196D01*
X024009Y018097D02*
X023699Y018097D01*
X023679Y017999D02*
X024009Y017999D01*
X024009Y017900D02*
X023638Y017900D01*
X023569Y017802D02*
X024009Y017802D01*
X024009Y017703D02*
X023471Y017703D01*
X023573Y017605D02*
X024009Y017605D01*
X024009Y017506D02*
X023672Y017506D01*
X023739Y017407D02*
X024009Y017407D01*
X024009Y017309D02*
X023780Y017309D01*
X023799Y017210D02*
X024009Y017210D01*
X024009Y017112D02*
X023799Y017112D01*
X023785Y017013D02*
X024009Y017013D01*
X024009Y016915D02*
X023744Y016915D01*
X023684Y016816D02*
X024009Y016816D01*
X024009Y016718D02*
X023585Y016718D01*
X023450Y016619D02*
X024009Y016619D01*
X024009Y016521D02*
X023557Y016521D01*
X023633Y016422D02*
X024009Y016422D01*
X024009Y016324D02*
X023674Y016324D01*
X023699Y016225D02*
X024009Y016225D01*
X024009Y016126D02*
X023699Y016126D01*
X023691Y016028D02*
X024009Y016028D01*
X024009Y015929D02*
X023650Y015929D01*
X023598Y015831D02*
X024009Y015831D01*
X024009Y015732D02*
X023500Y015732D01*
X023311Y015634D02*
X024009Y015634D01*
X024009Y015535D02*
X021644Y015535D01*
X021546Y015634D02*
X023007Y015634D01*
X022818Y015732D02*
X021447Y015732D01*
X021349Y015831D02*
X022720Y015831D01*
X022668Y015929D02*
X021250Y015929D01*
X021191Y016028D02*
X022627Y016028D01*
X022619Y016126D02*
X021199Y016126D01*
X021199Y016225D02*
X022619Y016225D01*
X022644Y016324D02*
X021174Y016324D01*
X021133Y016422D02*
X022685Y016422D01*
X022761Y016521D02*
X021057Y016521D01*
X020950Y016619D02*
X022868Y016619D01*
X022933Y016718D02*
X021085Y016718D01*
X021184Y016816D02*
X022834Y016816D01*
X022774Y016915D02*
X021244Y016915D01*
X020220Y015831D02*
X018598Y015831D01*
X018500Y015732D02*
X020318Y015732D01*
X020507Y015634D02*
X018311Y015634D01*
X018007Y015634D02*
X015811Y015634D01*
X016000Y015732D02*
X017818Y015732D01*
X017720Y015831D02*
X016098Y015831D01*
X015507Y015634D02*
X013589Y015634D01*
X013589Y015561D02*
X013589Y015709D01*
X013533Y015845D01*
X013429Y015949D01*
X013293Y016005D01*
X013145Y016005D01*
X013009Y015949D01*
X012905Y015845D01*
X012849Y015709D01*
X012849Y015561D01*
X012905Y015426D01*
X013009Y015321D01*
X013145Y015265D01*
X013224Y015265D01*
X013431Y015058D01*
X013436Y014795D01*
X013414Y014817D01*
X013249Y014885D01*
X013070Y014885D01*
X012904Y014817D01*
X012778Y014690D01*
X012709Y014525D01*
X012709Y013786D01*
X012778Y013620D01*
X012904Y013494D01*
X013070Y013425D01*
X013249Y013425D01*
X013414Y013494D01*
X013460Y013540D01*
X013489Y012012D01*
X013489Y011920D01*
X013491Y011918D01*
X013491Y011915D01*
X013558Y011850D01*
X013760Y011649D01*
X013709Y011525D01*
X013709Y010786D01*
X013778Y010620D01*
X013904Y010494D01*
X014070Y010425D01*
X014249Y010425D01*
X014259Y010430D01*
X014609Y010080D01*
X014744Y009945D01*
X016344Y009945D01*
X016725Y009564D01*
X016709Y009525D01*
X016709Y008786D01*
X016778Y008620D01*
X016904Y008494D01*
X017070Y008425D01*
X017249Y008425D01*
X017414Y008494D01*
X017541Y008620D01*
X017609Y008786D01*
X017609Y009525D01*
X017541Y009690D01*
X017414Y009817D01*
X017297Y009865D01*
X018021Y009865D01*
X017904Y009817D01*
X017778Y009690D01*
X017709Y009525D01*
X017709Y008786D01*
X017778Y008620D01*
X017904Y008494D01*
X018070Y008425D01*
X018249Y008425D01*
X018414Y008494D01*
X018541Y008620D01*
X018609Y008786D01*
X018609Y009525D01*
X018541Y009690D01*
X018414Y009817D01*
X018297Y009865D01*
X018424Y009865D01*
X018725Y009564D01*
X018709Y009525D01*
X018709Y008786D01*
X018778Y008620D01*
X018904Y008494D01*
X019070Y008425D01*
X019249Y008425D01*
X019414Y008494D01*
X019541Y008620D01*
X019609Y008786D01*
X019609Y009525D01*
X019541Y009690D01*
X019414Y009817D01*
X019249Y009885D01*
X019070Y009885D01*
X019059Y009881D01*
X018614Y010325D01*
X018424Y010325D01*
X016934Y010325D01*
X016614Y010645D01*
X016551Y010645D01*
X016609Y010786D01*
X016609Y011525D01*
X016541Y011690D01*
X016414Y011817D01*
X016249Y011885D01*
X016070Y011885D01*
X015904Y011817D01*
X015778Y011690D01*
X015709Y011525D01*
X015709Y010910D01*
X015609Y011010D01*
X015609Y011525D01*
X015541Y011690D01*
X015414Y011817D01*
X015249Y011885D01*
X015070Y011885D01*
X014904Y011817D01*
X014778Y011690D01*
X014709Y011525D01*
X014709Y010786D01*
X014778Y010620D01*
X014904Y010494D01*
X015070Y010425D01*
X015249Y010425D01*
X015414Y010494D01*
X015445Y010524D01*
X015564Y010405D01*
X014934Y010405D01*
X014593Y010747D01*
X014609Y010786D01*
X014609Y011525D01*
X014541Y011690D01*
X014414Y011817D01*
X014249Y011885D01*
X014174Y011885D01*
X013947Y012112D01*
X013921Y013487D01*
X014070Y013425D01*
X014249Y013425D01*
X014414Y013494D01*
X014541Y013620D01*
X014609Y013786D01*
X014609Y014525D01*
X014541Y014690D01*
X014414Y014817D01*
X014249Y014885D01*
X014070Y014885D01*
X013904Y014817D01*
X013896Y014808D01*
X013889Y015158D01*
X013889Y015250D01*
X013887Y015252D01*
X013887Y015255D01*
X013820Y015320D01*
X013586Y015554D01*
X013589Y015561D01*
X013604Y015535D02*
X020994Y015535D01*
X021092Y015437D02*
X013703Y015437D01*
X013801Y015338D02*
X021191Y015338D01*
X021289Y015240D02*
X013889Y015240D01*
X013889Y015141D02*
X021388Y015141D01*
X021486Y015042D02*
X013891Y015042D01*
X013893Y014944D02*
X018002Y014944D01*
X018054Y014965D02*
X017859Y014884D01*
X017710Y014735D01*
X017629Y014541D01*
X017629Y013770D01*
X017710Y013575D01*
X017859Y013426D01*
X018054Y013345D01*
X018264Y013345D01*
X018459Y013426D01*
X018608Y013575D01*
X018689Y013770D01*
X018689Y014541D01*
X018608Y014735D01*
X018459Y014884D01*
X018264Y014965D01*
X018054Y014965D01*
X018316Y014944D02*
X021585Y014944D01*
X021649Y014845D02*
X021344Y014845D01*
X021414Y014817D02*
X021249Y014885D01*
X021070Y014885D01*
X020904Y014817D01*
X020778Y014690D01*
X020709Y014525D01*
X020709Y013786D01*
X020778Y013620D01*
X020904Y013494D01*
X021070Y013425D01*
X021249Y013425D01*
X021414Y013494D01*
X021541Y013620D01*
X021609Y013786D01*
X021609Y014525D01*
X021541Y014690D01*
X021414Y014817D01*
X021484Y014747D02*
X021649Y014747D01*
X021649Y014648D02*
X021558Y014648D01*
X021599Y014550D02*
X021649Y014550D01*
X021649Y014451D02*
X021609Y014451D01*
X021609Y014353D02*
X021649Y014353D01*
X021649Y014254D02*
X021609Y014254D01*
X021609Y014156D02*
X021649Y014156D01*
X021649Y014057D02*
X021609Y014057D01*
X021609Y013958D02*
X021649Y013958D01*
X021649Y013860D02*
X021609Y013860D01*
X021599Y013761D02*
X021649Y013761D01*
X021602Y013663D02*
X021558Y013663D01*
X021503Y013564D02*
X021485Y013564D01*
X021404Y013466D02*
X021347Y013466D01*
X021306Y013367D02*
X018318Y013367D01*
X018499Y013466D02*
X018971Y013466D01*
X018904Y013494D02*
X019070Y013425D01*
X019249Y013425D01*
X019414Y013494D01*
X019541Y013620D01*
X019609Y013786D01*
X019609Y014525D01*
X019541Y014690D01*
X019414Y014817D01*
X019249Y014885D01*
X019070Y014885D01*
X018904Y014817D01*
X018778Y014690D01*
X018709Y014525D01*
X018709Y013786D01*
X018778Y013620D01*
X018904Y013494D01*
X018833Y013564D02*
X018598Y013564D01*
X018645Y013663D02*
X018760Y013663D01*
X018719Y013761D02*
X018686Y013761D01*
X018689Y013860D02*
X018709Y013860D01*
X018709Y013958D02*
X018689Y013958D01*
X018689Y014057D02*
X018709Y014057D01*
X018709Y014156D02*
X018689Y014156D01*
X018689Y014254D02*
X018709Y014254D01*
X018709Y014353D02*
X018689Y014353D01*
X018689Y014451D02*
X018709Y014451D01*
X018719Y014550D02*
X018685Y014550D01*
X018644Y014648D02*
X018760Y014648D01*
X018834Y014747D02*
X018597Y014747D01*
X018498Y014845D02*
X018974Y014845D01*
X019344Y014845D02*
X019974Y014845D01*
X019904Y014817D02*
X020070Y014885D01*
X020249Y014885D01*
X020414Y014817D01*
X020541Y014690D01*
X020609Y014525D01*
X020609Y013786D01*
X020541Y013620D01*
X020414Y013494D01*
X020249Y013425D01*
X020070Y013425D01*
X019904Y013494D01*
X019778Y013620D01*
X019709Y013786D01*
X019709Y014525D01*
X019778Y014690D01*
X019904Y014817D01*
X019834Y014747D02*
X019484Y014747D01*
X019558Y014648D02*
X019760Y014648D01*
X019719Y014550D02*
X019599Y014550D01*
X019609Y014451D02*
X019709Y014451D01*
X019709Y014353D02*
X019609Y014353D01*
X019609Y014254D02*
X019709Y014254D01*
X019709Y014156D02*
X019609Y014156D01*
X019609Y014057D02*
X019709Y014057D01*
X019709Y013958D02*
X019609Y013958D01*
X019609Y013860D02*
X019709Y013860D01*
X019719Y013761D02*
X019599Y013761D01*
X019558Y013663D02*
X019760Y013663D01*
X019833Y013564D02*
X019485Y013564D01*
X019347Y013466D02*
X019971Y013466D01*
X020347Y013466D02*
X020971Y013466D01*
X020833Y013564D02*
X020485Y013564D01*
X020558Y013663D02*
X020760Y013663D01*
X020719Y013761D02*
X020599Y013761D01*
X020609Y013860D02*
X020709Y013860D01*
X020709Y013958D02*
X020609Y013958D01*
X020609Y014057D02*
X020709Y014057D01*
X020709Y014156D02*
X020609Y014156D01*
X020609Y014254D02*
X020709Y014254D01*
X020709Y014353D02*
X020609Y014353D01*
X020609Y014451D02*
X020709Y014451D01*
X020719Y014550D02*
X020599Y014550D01*
X020558Y014648D02*
X020760Y014648D01*
X020834Y014747D02*
X020484Y014747D01*
X020344Y014845D02*
X020974Y014845D01*
X020895Y015634D02*
X020811Y015634D01*
X021743Y015437D02*
X024009Y015437D01*
X024009Y015338D02*
X021841Y015338D01*
X021940Y015240D02*
X024009Y015240D01*
X024009Y015141D02*
X022038Y015141D01*
X022109Y015042D02*
X024009Y015042D01*
X024009Y014944D02*
X022109Y014944D01*
X022109Y014845D02*
X024009Y014845D01*
X024009Y014747D02*
X022109Y014747D01*
X022109Y014648D02*
X024009Y014648D01*
X024009Y014550D02*
X022109Y014550D01*
X022109Y014451D02*
X024009Y014451D01*
X024009Y014353D02*
X022109Y014353D01*
X022109Y014254D02*
X024009Y014254D01*
X024009Y014156D02*
X022109Y014156D01*
X022109Y014057D02*
X024009Y014057D01*
X024009Y013958D02*
X022109Y013958D01*
X022109Y013860D02*
X024009Y013860D01*
X024009Y013761D02*
X022109Y013761D01*
X022109Y013663D02*
X023524Y013663D01*
X023355Y013564D02*
X022109Y013564D01*
X022055Y013466D02*
X023256Y013466D01*
X023212Y013367D02*
X021956Y013367D01*
X021858Y013269D02*
X023172Y013269D01*
X023169Y013170D02*
X021759Y013170D01*
X021661Y013072D02*
X023169Y013072D01*
X023200Y012973D02*
X021562Y012973D01*
X021464Y012874D02*
X023241Y012874D01*
X023325Y012776D02*
X022395Y012776D01*
X022493Y012677D02*
X023451Y012677D01*
X023269Y012579D02*
X022538Y012579D01*
X022569Y012480D02*
X023171Y012480D01*
X023118Y012382D02*
X022569Y012382D01*
X022551Y012283D02*
X023078Y012283D01*
X023069Y012185D02*
X022529Y012185D01*
X022529Y012086D02*
X023069Y012086D01*
X023094Y011988D02*
X022529Y011988D01*
X022529Y011889D02*
X023135Y011889D01*
X023210Y011791D02*
X022529Y011791D01*
X022529Y011692D02*
X023316Y011692D01*
X023384Y011593D02*
X022529Y011593D01*
X022529Y011495D02*
X023285Y011495D01*
X023224Y011396D02*
X022529Y011396D01*
X022529Y011298D02*
X023184Y011298D01*
X023169Y011199D02*
X022490Y011199D01*
X022424Y011101D02*
X023169Y011101D01*
X023188Y011002D02*
X022326Y011002D01*
X022227Y010904D02*
X023229Y010904D01*
X023295Y010805D02*
X022065Y010805D01*
X021859Y010608D02*
X023082Y010608D01*
X023069Y010509D02*
X022005Y010509D01*
X022089Y010411D02*
X023069Y010411D01*
X023069Y010312D02*
X022130Y010312D01*
X022154Y010214D02*
X023069Y010214D01*
X023069Y010115D02*
X022154Y010115D01*
X022137Y010017D02*
X023069Y010017D01*
X023069Y009918D02*
X022221Y009918D01*
X022320Y009820D02*
X023069Y009820D01*
X023069Y009721D02*
X022418Y009721D01*
X022517Y009623D02*
X023161Y009623D01*
X022714Y009425D02*
X024009Y009425D01*
X024009Y009327D02*
X022812Y009327D01*
X022911Y009228D02*
X024009Y009228D01*
X024009Y009130D02*
X023010Y009130D01*
X023108Y009031D02*
X024009Y009031D01*
X024009Y008933D02*
X023207Y008933D01*
X023305Y008834D02*
X024009Y008834D01*
X024009Y008736D02*
X023389Y008736D01*
X023389Y008637D02*
X024009Y008637D01*
X024009Y008539D02*
X023476Y008539D01*
X023574Y008440D02*
X024009Y008440D01*
X024009Y008341D02*
X023618Y008341D01*
X023654Y008243D02*
X024009Y008243D01*
X024009Y008144D02*
X023654Y008144D01*
X023650Y008046D02*
X024009Y008046D01*
X024009Y007947D02*
X023609Y007947D01*
X023553Y007849D02*
X024009Y007849D01*
X024009Y007750D02*
X023454Y007750D01*
X024009Y007652D02*
X018369Y007652D01*
X018353Y007645D02*
X018489Y007701D01*
X018593Y007806D01*
X018649Y007941D01*
X018649Y008089D01*
X018593Y008225D01*
X018489Y008329D01*
X018353Y008385D01*
X018205Y008385D01*
X018069Y008329D01*
X017986Y008245D01*
X014492Y008245D01*
X014409Y008329D01*
X014317Y008367D01*
X014459Y008426D01*
X014608Y008575D01*
X014689Y008770D01*
X014689Y009541D01*
X014608Y009735D01*
X014459Y009884D01*
X014264Y009965D01*
X014054Y009965D01*
X013859Y009884D01*
X013710Y009735D01*
X013629Y009541D01*
X013629Y008770D01*
X013710Y008575D01*
X013859Y008426D01*
X014041Y008350D01*
X013989Y008329D01*
X013885Y008225D01*
X013829Y008089D01*
X013829Y007941D01*
X013885Y007806D01*
X013989Y007701D01*
X014125Y007645D01*
X014273Y007645D01*
X014409Y007701D01*
X014492Y007785D01*
X017986Y007785D01*
X018069Y007701D01*
X018205Y007645D01*
X018353Y007645D01*
X018190Y007652D02*
X014289Y007652D01*
X014110Y007652D02*
X013529Y007652D01*
X013529Y007553D02*
X024009Y007553D01*
X024009Y007455D02*
X013493Y007455D01*
X013504Y007750D02*
X013941Y007750D01*
X013867Y007849D02*
X013449Y007849D01*
X013389Y007947D02*
X013829Y007947D01*
X013829Y008046D02*
X013389Y008046D01*
X013389Y008144D02*
X013852Y008144D01*
X013904Y008243D02*
X013389Y008243D01*
X013389Y008341D02*
X014020Y008341D01*
X013845Y008440D02*
X013389Y008440D01*
X013459Y008539D02*
X013746Y008539D01*
X013684Y008637D02*
X013548Y008637D01*
X013588Y008736D02*
X013643Y008736D01*
X013629Y008834D02*
X013609Y008834D01*
X013609Y008933D02*
X013629Y008933D01*
X013629Y009031D02*
X013609Y009031D01*
X013609Y009130D02*
X013629Y009130D01*
X013629Y009228D02*
X013609Y009228D01*
X013609Y009327D02*
X013629Y009327D01*
X013629Y009425D02*
X013609Y009425D01*
X013609Y009524D02*
X013629Y009524D01*
X013663Y009623D02*
X013568Y009623D01*
X013509Y009721D02*
X013704Y009721D01*
X013794Y009820D02*
X013407Y009820D01*
X012912Y009820D02*
X012407Y009820D01*
X012509Y009721D02*
X012809Y009721D01*
X012750Y009623D02*
X012568Y009623D01*
X012609Y009524D02*
X012709Y009524D01*
X012709Y009425D02*
X012609Y009425D01*
X012609Y009327D02*
X012709Y009327D01*
X012709Y009228D02*
X012609Y009228D01*
X012609Y009130D02*
X012709Y009130D01*
X012709Y009031D02*
X012609Y009031D01*
X012609Y008933D02*
X012709Y008933D01*
X012709Y008834D02*
X012609Y008834D01*
X012588Y008736D02*
X012730Y008736D01*
X012771Y008637D02*
X012548Y008637D01*
X012459Y008539D02*
X012859Y008539D01*
X012929Y008440D02*
X012349Y008440D01*
X012349Y008341D02*
X012929Y008341D01*
X012929Y008243D02*
X012349Y008243D01*
X012349Y008144D02*
X012929Y008144D01*
X012929Y008046D02*
X012349Y008046D01*
X012349Y007947D02*
X012929Y007947D01*
X012869Y007849D02*
X012349Y007849D01*
X012349Y007750D02*
X012815Y007750D01*
X012789Y007652D02*
X012349Y007652D01*
X012349Y007553D02*
X012789Y007553D01*
X012825Y007455D02*
X012349Y007455D01*
X012349Y007356D02*
X012735Y007356D01*
X012636Y007258D02*
X012436Y007258D01*
X012476Y007159D02*
X012538Y007159D01*
X012794Y006765D02*
X012852Y006765D01*
X012904Y006817D02*
X012778Y006690D01*
X012709Y006525D01*
X012709Y005786D01*
X012778Y005620D01*
X012904Y005494D01*
X013070Y005425D01*
X013249Y005425D01*
X013414Y005494D01*
X013541Y005620D01*
X013609Y005786D01*
X013609Y006525D01*
X013541Y006690D01*
X013414Y006817D01*
X013249Y006885D01*
X013070Y006885D01*
X012904Y006817D01*
X012893Y006863D02*
X013017Y006863D01*
X012991Y006962D02*
X015046Y006962D01*
X015272Y006962D02*
X015837Y006962D01*
X015878Y006863D02*
X015480Y006863D01*
X015579Y006765D02*
X015852Y006765D01*
X015768Y006666D02*
X015637Y006666D01*
X015678Y006568D02*
X015727Y006568D01*
X015709Y006469D02*
X015689Y006469D01*
X015689Y006371D02*
X015709Y006371D01*
X015709Y006272D02*
X015689Y006272D01*
X015689Y006174D02*
X015709Y006174D01*
X015709Y006075D02*
X015689Y006075D01*
X015689Y005976D02*
X015709Y005976D01*
X015709Y005878D02*
X015689Y005878D01*
X015689Y005779D02*
X015712Y005779D01*
X016186Y005385D02*
X017969Y005385D01*
X017969Y005287D02*
X016227Y005287D01*
X016234Y005188D02*
X017969Y005188D01*
X017969Y005090D02*
X016234Y005090D01*
X016213Y004991D02*
X017969Y004991D01*
X017969Y004892D02*
X016173Y004892D01*
X016111Y004794D02*
X017969Y004794D01*
X017969Y004695D02*
X016013Y004695D01*
X015814Y004597D02*
X017969Y004597D01*
X017969Y004498D02*
X016761Y004498D01*
X016860Y004400D02*
X017969Y004400D01*
X017969Y004301D02*
X016958Y004301D01*
X017369Y004203D02*
X017969Y004203D01*
X017953Y004104D02*
X017524Y004104D01*
X017619Y004006D02*
X017796Y004006D01*
X017700Y003907D02*
X017660Y003907D01*
X018429Y004104D02*
X018794Y004104D01*
X018699Y004006D02*
X018522Y004006D01*
X018618Y003907D02*
X018658Y003907D01*
X018429Y004203D02*
X018929Y004203D01*
X018929Y004301D02*
X018429Y004301D01*
X018429Y004400D02*
X018929Y004400D01*
X018929Y004498D02*
X018429Y004498D01*
X018429Y004597D02*
X018929Y004597D01*
X018929Y004695D02*
X018429Y004695D01*
X018429Y004794D02*
X018929Y004794D01*
X018929Y004892D02*
X018429Y004892D01*
X018429Y004991D02*
X018929Y004991D01*
X018929Y005090D02*
X018429Y005090D01*
X018429Y005188D02*
X018929Y005188D01*
X018929Y005287D02*
X018429Y005287D01*
X018429Y005385D02*
X018929Y005385D01*
X018928Y005484D02*
X018429Y005484D01*
X018503Y005582D02*
X018815Y005582D01*
X018752Y005681D02*
X018566Y005681D01*
X018606Y005779D02*
X018712Y005779D01*
X018709Y005878D02*
X018609Y005878D01*
X018609Y005976D02*
X018709Y005976D01*
X018709Y006075D02*
X018609Y006075D01*
X018609Y006174D02*
X018709Y006174D01*
X018709Y006272D02*
X018609Y006272D01*
X018609Y006371D02*
X018709Y006371D01*
X018709Y006469D02*
X018609Y006469D01*
X018591Y006568D02*
X018727Y006568D01*
X018768Y006666D02*
X018550Y006666D01*
X018466Y006765D02*
X018852Y006765D01*
X019017Y006863D02*
X018301Y006863D01*
X018017Y006863D02*
X017301Y006863D01*
X017249Y006885D02*
X017070Y006885D01*
X016904Y006817D01*
X016778Y006690D01*
X016709Y006525D01*
X016709Y005786D01*
X016778Y005620D01*
X016904Y005494D01*
X017070Y005425D01*
X017249Y005425D01*
X017414Y005494D01*
X017541Y005620D01*
X017609Y005786D01*
X017609Y006525D01*
X017541Y006690D01*
X017414Y006817D01*
X017249Y006885D01*
X017017Y006863D02*
X016893Y006863D01*
X016852Y006765D02*
X016794Y006765D01*
X016768Y006666D02*
X016695Y006666D01*
X016727Y006568D02*
X016597Y006568D01*
X016609Y006469D02*
X016709Y006469D01*
X016709Y006371D02*
X016609Y006371D01*
X016609Y006272D02*
X016709Y006272D01*
X016709Y006174D02*
X016609Y006174D01*
X016609Y006075D02*
X016709Y006075D01*
X016709Y005976D02*
X016609Y005976D01*
X016609Y005878D02*
X016709Y005878D01*
X016712Y005779D02*
X016606Y005779D01*
X016566Y005681D02*
X016752Y005681D01*
X016815Y005582D02*
X016503Y005582D01*
X016390Y005484D02*
X016928Y005484D01*
X017390Y005484D02*
X017928Y005484D01*
X017815Y005582D02*
X017503Y005582D01*
X017566Y005681D02*
X017752Y005681D01*
X017712Y005779D02*
X017606Y005779D01*
X017609Y005878D02*
X017709Y005878D01*
X017709Y005976D02*
X017609Y005976D01*
X017609Y006075D02*
X017709Y006075D01*
X017709Y006174D02*
X017609Y006174D01*
X017609Y006272D02*
X017709Y006272D01*
X017709Y006371D02*
X017609Y006371D01*
X017609Y006469D02*
X017709Y006469D01*
X017727Y006568D02*
X017591Y006568D01*
X017550Y006666D02*
X017768Y006666D01*
X017852Y006765D02*
X017466Y006765D01*
X016735Y007356D02*
X016421Y007356D01*
X016516Y007258D02*
X016636Y007258D01*
X017033Y008440D02*
X014474Y008440D01*
X014378Y008341D02*
X018100Y008341D01*
X018033Y008440D02*
X017285Y008440D01*
X017459Y008539D02*
X017859Y008539D01*
X017771Y008637D02*
X017548Y008637D01*
X017588Y008736D02*
X017730Y008736D01*
X017709Y008834D02*
X017609Y008834D01*
X017609Y008933D02*
X017709Y008933D01*
X017709Y009031D02*
X017609Y009031D01*
X017609Y009130D02*
X017709Y009130D01*
X017709Y009228D02*
X017609Y009228D01*
X017609Y009327D02*
X017709Y009327D01*
X017709Y009425D02*
X017609Y009425D01*
X017609Y009524D02*
X017709Y009524D01*
X017750Y009623D02*
X017568Y009623D01*
X017509Y009721D02*
X017809Y009721D01*
X017912Y009820D02*
X017407Y009820D01*
X017264Y010345D02*
X017054Y010345D01*
X016859Y010426D01*
X016710Y010575D01*
X016629Y010770D01*
X016629Y011541D01*
X016710Y011735D01*
X016859Y011884D01*
X017054Y011965D01*
X017264Y011965D01*
X017459Y011884D01*
X017608Y011735D01*
X017659Y011613D01*
X017710Y011735D01*
X017859Y011884D01*
X018054Y011965D01*
X018264Y011965D01*
X018459Y011884D01*
X018608Y011735D01*
X018689Y011541D01*
X018689Y010770D01*
X018608Y010575D01*
X018459Y010426D01*
X018264Y010345D01*
X018054Y010345D01*
X017859Y010426D01*
X017710Y010575D01*
X017659Y010697D01*
X017608Y010575D01*
X017459Y010426D01*
X017264Y010345D01*
X017423Y010411D02*
X017895Y010411D01*
X017775Y010509D02*
X017543Y010509D01*
X017622Y010608D02*
X017696Y010608D01*
X018423Y010411D02*
X019895Y010411D01*
X019775Y010509D02*
X019430Y010509D01*
X019414Y010494D02*
X019541Y010620D01*
X019609Y010786D01*
X019609Y011525D01*
X019541Y011690D01*
X019414Y011817D01*
X019249Y011885D01*
X019134Y011885D01*
X018589Y012430D01*
X018589Y012430D01*
X018454Y012565D01*
X015272Y012565D01*
X015189Y012649D01*
X015053Y012705D01*
X014905Y012705D01*
X014769Y012649D01*
X014665Y012545D01*
X014609Y012409D01*
X014609Y012261D01*
X014665Y012126D01*
X014769Y012021D01*
X014905Y011965D01*
X015053Y011965D01*
X015189Y012021D01*
X015272Y012105D01*
X018264Y012105D01*
X018749Y011620D01*
X018709Y011525D01*
X018709Y010786D01*
X018778Y010620D01*
X018904Y010494D01*
X019070Y010425D01*
X019249Y010425D01*
X019414Y010494D01*
X019528Y010608D02*
X019696Y010608D01*
X019655Y010707D02*
X019576Y010707D01*
X019609Y010805D02*
X019629Y010805D01*
X019629Y010904D02*
X019609Y010904D01*
X019609Y011002D02*
X019629Y011002D01*
X019629Y011101D02*
X019609Y011101D01*
X019609Y011199D02*
X019629Y011199D01*
X019629Y011298D02*
X019609Y011298D01*
X019609Y011396D02*
X019629Y011396D01*
X019629Y011495D02*
X019609Y011495D01*
X019581Y011593D02*
X019651Y011593D01*
X019692Y011692D02*
X019539Y011692D01*
X019440Y011791D02*
X019765Y011791D01*
X019870Y011889D02*
X019130Y011889D01*
X019032Y011988D02*
X020929Y011988D01*
X020929Y012086D02*
X018933Y012086D01*
X018835Y012185D02*
X020929Y012185D01*
X020929Y012283D02*
X018736Y012283D01*
X018638Y012382D02*
X020929Y012382D01*
X020929Y012480D02*
X018539Y012480D01*
X018283Y012086D02*
X015253Y012086D01*
X015107Y011988D02*
X018381Y011988D01*
X018448Y011889D02*
X018480Y011889D01*
X018553Y011791D02*
X018578Y011791D01*
X018626Y011692D02*
X018677Y011692D01*
X018667Y011593D02*
X018738Y011593D01*
X018709Y011495D02*
X018689Y011495D01*
X018689Y011396D02*
X018709Y011396D01*
X018709Y011298D02*
X018689Y011298D01*
X018689Y011199D02*
X018709Y011199D01*
X018709Y011101D02*
X018689Y011101D01*
X018689Y011002D02*
X018709Y011002D01*
X018709Y010904D02*
X018689Y010904D01*
X018689Y010805D02*
X018709Y010805D01*
X018742Y010707D02*
X018663Y010707D01*
X018622Y010608D02*
X018790Y010608D01*
X018888Y010509D02*
X018543Y010509D01*
X018627Y010312D02*
X020102Y010312D01*
X020084Y010214D02*
X018726Y010214D01*
X018824Y010115D02*
X020084Y010115D01*
X020094Y010017D02*
X018923Y010017D01*
X019021Y009918D02*
X020135Y009918D01*
X019912Y009820D02*
X019407Y009820D01*
X019509Y009721D02*
X019809Y009721D01*
X019750Y009623D02*
X019568Y009623D01*
X019609Y009524D02*
X019709Y009524D01*
X019709Y009425D02*
X019609Y009425D01*
X019609Y009327D02*
X019709Y009327D01*
X019709Y009228D02*
X019609Y009228D01*
X019609Y009130D02*
X019709Y009130D01*
X019709Y009031D02*
X019609Y009031D01*
X019609Y008933D02*
X019709Y008933D01*
X019709Y008834D02*
X019609Y008834D01*
X019588Y008736D02*
X019730Y008736D01*
X019771Y008637D02*
X019548Y008637D01*
X019459Y008539D02*
X019859Y008539D01*
X020033Y008440D02*
X019285Y008440D01*
X019033Y008440D02*
X018285Y008440D01*
X018458Y008341D02*
X022701Y008341D01*
X022664Y008243D02*
X018574Y008243D01*
X018626Y008144D02*
X022664Y008144D01*
X022669Y008046D02*
X018649Y008046D01*
X018649Y007947D02*
X022709Y007947D01*
X022765Y007849D02*
X018611Y007849D01*
X018537Y007750D02*
X022864Y007750D01*
X022322Y007258D02*
X024009Y007258D01*
X024009Y007356D02*
X022223Y007356D01*
X022420Y007159D02*
X024009Y007159D01*
X024009Y007060D02*
X022519Y007060D01*
X022617Y006962D02*
X024009Y006962D01*
X024009Y006863D02*
X022716Y006863D01*
X022815Y006765D02*
X024009Y006765D01*
X024009Y006666D02*
X022913Y006666D01*
X023446Y006568D02*
X024009Y006568D01*
X024009Y006469D02*
X023545Y006469D01*
X023606Y006371D02*
X024009Y006371D01*
X024009Y006272D02*
X023646Y006272D01*
X023654Y006174D02*
X024009Y006174D01*
X024009Y006075D02*
X023654Y006075D01*
X023621Y005976D02*
X024009Y005976D01*
X024009Y005878D02*
X023580Y005878D01*
X023483Y005779D02*
X024009Y005779D01*
X024009Y005681D02*
X023389Y005681D01*
X023389Y005582D02*
X024009Y005582D01*
X024009Y005484D02*
X023389Y005484D01*
X023389Y005385D02*
X024009Y005385D01*
X024009Y005287D02*
X023389Y005287D01*
X023389Y005188D02*
X024009Y005188D01*
X024009Y005090D02*
X023389Y005090D01*
X023389Y004991D02*
X024009Y004991D01*
X024009Y004892D02*
X023389Y004892D01*
X023389Y004794D02*
X024009Y004794D01*
X024009Y004695D02*
X023389Y004695D01*
X023389Y004597D02*
X024009Y004597D01*
X024009Y004498D02*
X023516Y004498D01*
X023593Y004400D02*
X024009Y004400D01*
X024009Y004301D02*
X023634Y004301D01*
X023654Y004203D02*
X024009Y004203D01*
X024009Y004104D02*
X023654Y004104D01*
X023633Y004006D02*
X024009Y004006D01*
X024009Y003907D02*
X023592Y003907D01*
X023512Y003809D02*
X024009Y003809D01*
X024009Y003710D02*
X023378Y003710D01*
X022940Y003710D02*
X022527Y003710D01*
X022626Y003809D02*
X022806Y003809D01*
X022726Y003907D02*
X022679Y003907D01*
X022349Y003611D02*
X024009Y003611D01*
X024009Y003513D02*
X021135Y003513D01*
X021149Y003611D02*
X021969Y003611D01*
X021791Y003710D02*
X021149Y003710D01*
X021130Y003809D02*
X021692Y003809D01*
X021639Y003907D02*
X021216Y003907D01*
X021315Y004006D02*
X021599Y004006D01*
X021584Y004104D02*
X021413Y004104D01*
X021512Y004203D02*
X021584Y004203D01*
X021256Y004597D02*
X019389Y004597D01*
X019389Y004695D02*
X021354Y004695D01*
X021453Y004794D02*
X019389Y004794D01*
X019389Y004892D02*
X021551Y004892D01*
X021649Y004991D02*
X019389Y004991D01*
X019389Y005090D02*
X021649Y005090D01*
X021649Y005188D02*
X019389Y005188D01*
X019389Y005287D02*
X021649Y005287D01*
X021649Y005385D02*
X019389Y005385D01*
X019390Y005484D02*
X019928Y005484D01*
X019904Y005494D02*
X020070Y005425D01*
X020249Y005425D01*
X020414Y005494D01*
X020541Y005620D01*
X020609Y005786D01*
X020609Y006525D01*
X020541Y006690D01*
X020414Y006817D01*
X020249Y006885D01*
X020070Y006885D01*
X019904Y006817D01*
X019778Y006690D01*
X019709Y006525D01*
X019709Y005786D01*
X019778Y005620D01*
X019904Y005494D01*
X019815Y005582D02*
X019503Y005582D01*
X019566Y005681D02*
X019752Y005681D01*
X019712Y005779D02*
X019606Y005779D01*
X019609Y005878D02*
X019709Y005878D01*
X019709Y005976D02*
X019609Y005976D01*
X019609Y006075D02*
X019709Y006075D01*
X019709Y006174D02*
X019609Y006174D01*
X019609Y006272D02*
X019709Y006272D01*
X019709Y006371D02*
X019609Y006371D01*
X019609Y006469D02*
X019709Y006469D01*
X019727Y006568D02*
X019591Y006568D01*
X019550Y006666D02*
X019768Y006666D01*
X019852Y006765D02*
X019466Y006765D01*
X019301Y006863D02*
X020017Y006863D01*
X020301Y006863D02*
X021017Y006863D01*
X020852Y006765D02*
X020466Y006765D01*
X020550Y006666D02*
X020768Y006666D01*
X020727Y006568D02*
X020591Y006568D01*
X020609Y006469D02*
X020709Y006469D01*
X020709Y006371D02*
X020609Y006371D01*
X020609Y006272D02*
X020709Y006272D01*
X020709Y006174D02*
X020609Y006174D01*
X020609Y006075D02*
X020709Y006075D01*
X020709Y005976D02*
X020609Y005976D01*
X020609Y005878D02*
X020709Y005878D01*
X020712Y005779D02*
X020606Y005779D01*
X020566Y005681D02*
X020752Y005681D01*
X020815Y005582D02*
X020503Y005582D01*
X020390Y005484D02*
X020928Y005484D01*
X021390Y005484D02*
X021649Y005484D01*
X021649Y005582D02*
X021503Y005582D01*
X021566Y005681D02*
X021649Y005681D01*
X021649Y005779D02*
X021606Y005779D01*
X021609Y005878D02*
X021649Y005878D01*
X021649Y005976D02*
X021609Y005976D01*
X021609Y006075D02*
X021649Y006075D01*
X021649Y006174D02*
X021609Y006174D01*
X021609Y006272D02*
X021649Y006272D01*
X021649Y006371D02*
X021609Y006371D01*
X021609Y006469D02*
X021622Y006469D01*
X021509Y006765D02*
X021466Y006765D01*
X021532Y006863D02*
X021301Y006863D01*
X021285Y008440D02*
X022744Y008440D01*
X022843Y008539D02*
X021459Y008539D01*
X021548Y008637D02*
X022852Y008637D01*
X022753Y008736D02*
X021588Y008736D01*
X021609Y008834D02*
X022655Y008834D01*
X022556Y008933D02*
X021609Y008933D01*
X021609Y009031D02*
X022458Y009031D01*
X022359Y009130D02*
X021609Y009130D01*
X021609Y009228D02*
X022261Y009228D01*
X022162Y009327D02*
X021609Y009327D01*
X021609Y009425D02*
X022063Y009425D01*
X021965Y009524D02*
X021609Y009524D01*
X021568Y009623D02*
X021866Y009623D01*
X022615Y009524D02*
X024009Y009524D01*
X023394Y010707D02*
X021576Y010707D01*
X021609Y010805D02*
X021693Y010805D01*
X021621Y011593D02*
X021581Y011593D01*
X021539Y011692D02*
X021709Y011692D01*
X021709Y011791D02*
X021440Y011791D01*
X021389Y011889D02*
X021709Y011889D01*
X021709Y011988D02*
X021389Y011988D01*
X021389Y012086D02*
X021709Y012086D01*
X021709Y012185D02*
X021389Y012185D01*
X021389Y012283D02*
X021687Y012283D01*
X021669Y012382D02*
X021389Y012382D01*
X021389Y012480D02*
X021669Y012480D01*
X021700Y012579D02*
X021389Y012579D01*
X021389Y012677D02*
X021745Y012677D01*
X021844Y012776D02*
X021389Y012776D01*
X021010Y013072D02*
X013929Y013072D01*
X013927Y013170D02*
X021109Y013170D01*
X021207Y013269D02*
X013925Y013269D01*
X013923Y013367D02*
X018000Y013367D01*
X017819Y013466D02*
X017347Y013466D01*
X017414Y013494D02*
X017249Y013425D01*
X017070Y013425D01*
X016904Y013494D01*
X016778Y013620D01*
X016709Y013786D01*
X016709Y014525D01*
X016778Y014690D01*
X016904Y014817D01*
X017070Y014885D01*
X017249Y014885D01*
X017414Y014817D01*
X017541Y014690D01*
X017609Y014525D01*
X017609Y013786D01*
X017541Y013620D01*
X017414Y013494D01*
X017485Y013564D02*
X017720Y013564D01*
X017673Y013663D02*
X017558Y013663D01*
X017599Y013761D02*
X017632Y013761D01*
X017629Y013860D02*
X017609Y013860D01*
X017609Y013958D02*
X017629Y013958D01*
X017629Y014057D02*
X017609Y014057D01*
X017609Y014156D02*
X017629Y014156D01*
X017629Y014254D02*
X017609Y014254D01*
X017609Y014353D02*
X017629Y014353D01*
X017629Y014451D02*
X017609Y014451D01*
X017599Y014550D02*
X017633Y014550D01*
X017674Y014648D02*
X017558Y014648D01*
X017484Y014747D02*
X017721Y014747D01*
X017820Y014845D02*
X017344Y014845D01*
X016974Y014845D02*
X016344Y014845D01*
X016414Y014817D02*
X016249Y014885D01*
X016070Y014885D01*
X015904Y014817D01*
X015778Y014690D01*
X015709Y014525D01*
X015709Y013786D01*
X015778Y013620D01*
X015904Y013494D01*
X016070Y013425D01*
X016249Y013425D01*
X016414Y013494D01*
X016541Y013620D01*
X016609Y013786D01*
X016609Y014525D01*
X016541Y014690D01*
X016414Y014817D01*
X016484Y014747D02*
X016834Y014747D01*
X016760Y014648D02*
X016558Y014648D01*
X016599Y014550D02*
X016719Y014550D01*
X016709Y014451D02*
X016609Y014451D01*
X016609Y014353D02*
X016709Y014353D01*
X016709Y014254D02*
X016609Y014254D01*
X016609Y014156D02*
X016709Y014156D01*
X016709Y014057D02*
X016609Y014057D01*
X016609Y013958D02*
X016709Y013958D01*
X016709Y013860D02*
X016609Y013860D01*
X016599Y013761D02*
X016719Y013761D01*
X016760Y013663D02*
X016558Y013663D01*
X016485Y013564D02*
X016833Y013564D01*
X016971Y013466D02*
X016347Y013466D01*
X015971Y013466D02*
X015347Y013466D01*
X015414Y013494D02*
X015249Y013425D01*
X015070Y013425D01*
X014904Y013494D01*
X014778Y013620D01*
X014709Y013786D01*
X014709Y014525D01*
X014778Y014690D01*
X014904Y014817D01*
X015070Y014885D01*
X015249Y014885D01*
X015414Y014817D01*
X015541Y014690D01*
X015609Y014525D01*
X015609Y013786D01*
X015541Y013620D01*
X015414Y013494D01*
X015485Y013564D02*
X015833Y013564D01*
X015760Y013663D02*
X015558Y013663D01*
X015599Y013761D02*
X015719Y013761D01*
X015709Y013860D02*
X015609Y013860D01*
X015609Y013958D02*
X015709Y013958D01*
X015709Y014057D02*
X015609Y014057D01*
X015609Y014156D02*
X015709Y014156D01*
X015709Y014254D02*
X015609Y014254D01*
X015609Y014353D02*
X015709Y014353D01*
X015709Y014451D02*
X015609Y014451D01*
X015599Y014550D02*
X015719Y014550D01*
X015760Y014648D02*
X015558Y014648D01*
X015484Y014747D02*
X015834Y014747D01*
X015974Y014845D02*
X015344Y014845D01*
X014974Y014845D02*
X014344Y014845D01*
X014484Y014747D02*
X014834Y014747D01*
X014760Y014648D02*
X014558Y014648D01*
X014599Y014550D02*
X014719Y014550D01*
X014709Y014451D02*
X014609Y014451D01*
X014609Y014353D02*
X014709Y014353D01*
X014709Y014254D02*
X014609Y014254D01*
X014609Y014156D02*
X014709Y014156D01*
X014709Y014057D02*
X014609Y014057D01*
X014609Y013958D02*
X014709Y013958D01*
X014709Y013860D02*
X014609Y013860D01*
X014599Y013761D02*
X014719Y013761D01*
X014760Y013663D02*
X014558Y013663D01*
X014485Y013564D02*
X014833Y013564D01*
X014971Y013466D02*
X014347Y013466D01*
X013971Y013466D02*
X013921Y013466D01*
X013931Y012973D02*
X020929Y012973D01*
X020929Y012874D02*
X013933Y012874D01*
X013934Y012776D02*
X020929Y012776D01*
X020929Y012677D02*
X015119Y012677D01*
X015259Y012579D02*
X020929Y012579D01*
X020929Y011889D02*
X020448Y011889D01*
X020553Y011791D02*
X020878Y011791D01*
X020780Y011692D02*
X020626Y011692D01*
X020667Y011593D02*
X020738Y011593D01*
X020709Y011495D02*
X020689Y011495D01*
X020689Y011396D02*
X020709Y011396D01*
X020709Y011298D02*
X020689Y011298D01*
X020689Y011199D02*
X020709Y011199D01*
X020709Y011101D02*
X020689Y011101D01*
X020689Y011002D02*
X020709Y011002D01*
X020709Y010904D02*
X020689Y010904D01*
X020689Y010805D02*
X020709Y010805D01*
X020709Y009524D02*
X020609Y009524D01*
X020609Y009425D02*
X020709Y009425D01*
X020709Y009327D02*
X020609Y009327D01*
X020609Y009228D02*
X020709Y009228D01*
X020709Y009130D02*
X020609Y009130D01*
X020609Y009031D02*
X020709Y009031D01*
X020709Y008933D02*
X020609Y008933D01*
X020609Y008834D02*
X020709Y008834D01*
X020730Y008736D02*
X020588Y008736D01*
X020548Y008637D02*
X020771Y008637D01*
X020859Y008539D02*
X020459Y008539D01*
X020285Y008440D02*
X021033Y008440D01*
X018859Y008539D02*
X018459Y008539D01*
X018548Y008637D02*
X018771Y008637D01*
X018730Y008736D02*
X018588Y008736D01*
X018609Y008834D02*
X018709Y008834D01*
X018709Y008933D02*
X018609Y008933D01*
X018609Y009031D02*
X018709Y009031D01*
X018709Y009130D02*
X018609Y009130D01*
X018609Y009228D02*
X018709Y009228D01*
X018709Y009327D02*
X018609Y009327D01*
X018609Y009425D02*
X018709Y009425D01*
X018709Y009524D02*
X018609Y009524D01*
X018568Y009623D02*
X018666Y009623D01*
X018568Y009721D02*
X018509Y009721D01*
X018469Y009820D02*
X018407Y009820D01*
X016895Y010411D02*
X016848Y010411D01*
X016775Y010509D02*
X016750Y010509D01*
X016696Y010608D02*
X016651Y010608D01*
X016655Y010707D02*
X016576Y010707D01*
X016609Y010805D02*
X016629Y010805D01*
X016629Y010904D02*
X016609Y010904D01*
X016609Y011002D02*
X016629Y011002D01*
X016629Y011101D02*
X016609Y011101D01*
X016609Y011199D02*
X016629Y011199D01*
X016629Y011298D02*
X016609Y011298D01*
X016609Y011396D02*
X016629Y011396D01*
X016629Y011495D02*
X016609Y011495D01*
X016581Y011593D02*
X016651Y011593D01*
X016692Y011692D02*
X016539Y011692D01*
X016440Y011791D02*
X016765Y011791D01*
X016870Y011889D02*
X014170Y011889D01*
X014072Y011988D02*
X014851Y011988D01*
X014705Y012086D02*
X013973Y012086D01*
X013946Y012185D02*
X014641Y012185D01*
X014609Y012283D02*
X013944Y012283D01*
X013942Y012382D02*
X014609Y012382D01*
X014639Y012480D02*
X013940Y012480D01*
X013938Y012579D02*
X014700Y012579D01*
X014839Y012677D02*
X013936Y012677D01*
X013476Y012677D02*
X013248Y012677D01*
X013269Y012669D02*
X013133Y012725D01*
X012985Y012725D01*
X012849Y012669D01*
X012766Y012585D01*
X012102Y012585D01*
X012019Y012669D01*
X011883Y012725D01*
X011735Y012725D01*
X011599Y012669D01*
X011495Y012565D01*
X011439Y012429D01*
X011439Y012281D01*
X011495Y012146D01*
X011599Y012041D01*
X011735Y011985D01*
X011883Y011985D01*
X012019Y012041D01*
X012102Y012125D01*
X012766Y012125D01*
X012849Y012041D01*
X012985Y011985D01*
X013133Y011985D01*
X013269Y012041D01*
X013373Y012146D01*
X013429Y012281D01*
X013429Y012429D01*
X013373Y012565D01*
X013269Y012669D01*
X013359Y012579D02*
X013478Y012579D01*
X013480Y012480D02*
X013408Y012480D01*
X013429Y012382D02*
X013482Y012382D01*
X013484Y012283D02*
X013429Y012283D01*
X013389Y012185D02*
X013486Y012185D01*
X013488Y012086D02*
X013313Y012086D01*
X013139Y011988D02*
X013489Y011988D01*
X013518Y011889D02*
X012448Y011889D01*
X012459Y011884D02*
X012264Y011965D01*
X012054Y011965D01*
X011859Y011884D01*
X011710Y011735D01*
X011629Y011541D01*
X011629Y010770D01*
X011710Y010575D01*
X011859Y010426D01*
X012054Y010345D01*
X012264Y010345D01*
X012459Y010426D01*
X012608Y010575D01*
X012689Y010770D01*
X012689Y011541D01*
X012608Y011735D01*
X012459Y011884D01*
X012553Y011791D02*
X012878Y011791D01*
X012904Y011817D02*
X012778Y011690D01*
X012709Y011525D01*
X012709Y010786D01*
X012778Y010620D01*
X012904Y010494D01*
X013070Y010425D01*
X013249Y010425D01*
X013414Y010494D01*
X013541Y010620D01*
X013609Y010786D01*
X013609Y011525D01*
X013541Y011690D01*
X013414Y011817D01*
X013249Y011885D01*
X013070Y011885D01*
X012904Y011817D01*
X012780Y011692D02*
X012626Y011692D01*
X012667Y011593D02*
X012738Y011593D01*
X012709Y011495D02*
X012689Y011495D01*
X012689Y011396D02*
X012709Y011396D01*
X012709Y011298D02*
X012689Y011298D01*
X012689Y011199D02*
X012709Y011199D01*
X012709Y011101D02*
X012689Y011101D01*
X012689Y011002D02*
X012709Y011002D01*
X012709Y010904D02*
X012689Y010904D01*
X012689Y010805D02*
X012709Y010805D01*
X012742Y010707D02*
X012663Y010707D01*
X012622Y010608D02*
X012790Y010608D01*
X012888Y010509D02*
X012543Y010509D01*
X012423Y010411D02*
X014278Y010411D01*
X014377Y010312D02*
X010669Y010312D01*
X010669Y010411D02*
X011895Y010411D01*
X011775Y010509D02*
X010669Y010509D01*
X010669Y010608D02*
X011696Y010608D01*
X011655Y010707D02*
X010669Y010707D01*
X010669Y010805D02*
X011629Y010805D01*
X011629Y010904D02*
X010669Y010904D01*
X010669Y011002D02*
X011629Y011002D01*
X011629Y011101D02*
X010669Y011101D01*
X010669Y011199D02*
X011629Y011199D01*
X011629Y011298D02*
X010669Y011298D01*
X010669Y011396D02*
X011629Y011396D01*
X011629Y011495D02*
X010669Y011495D01*
X010669Y011593D02*
X011651Y011593D01*
X011692Y011692D02*
X010669Y011692D01*
X010669Y011791D02*
X011765Y011791D01*
X011870Y011889D02*
X010669Y011889D01*
X010669Y011988D02*
X011729Y011988D01*
X011889Y011988D02*
X012979Y011988D01*
X012805Y012086D02*
X012063Y012086D01*
X011555Y012086D02*
X010669Y012086D01*
X010669Y012185D02*
X011479Y012185D01*
X011439Y012283D02*
X010669Y012283D01*
X010669Y012382D02*
X011439Y012382D01*
X011460Y012480D02*
X010669Y012480D01*
X010669Y012579D02*
X011510Y012579D01*
X011495Y012677D02*
X011620Y012677D01*
X011593Y012776D02*
X013474Y012776D01*
X013473Y012874D02*
X011665Y012874D01*
X011706Y012973D02*
X013471Y012973D01*
X013469Y013072D02*
X011734Y013072D01*
X011734Y013170D02*
X013467Y013170D01*
X013461Y013466D02*
X013347Y013466D01*
X012971Y013466D02*
X012291Y013466D01*
X012260Y013456D02*
X012324Y013477D01*
X012384Y013507D01*
X012439Y013547D01*
X012487Y013595D01*
X012527Y013650D01*
X012558Y013710D01*
X012578Y013774D01*
X012589Y013841D01*
X012589Y014125D01*
X012189Y014125D01*
X012189Y013445D01*
X012193Y013445D01*
X012260Y013456D01*
X012189Y013466D02*
X012129Y013466D01*
X012129Y013445D02*
X012129Y014125D01*
X012189Y014125D01*
X012189Y014185D01*
X012589Y014185D01*
X012589Y014469D01*
X012578Y014536D01*
X012558Y014600D01*
X012527Y014660D01*
X012487Y014715D01*
X012439Y014763D01*
X012384Y014803D01*
X012324Y014834D01*
X012260Y014854D01*
X012193Y014865D01*
X012189Y014865D01*
X012189Y014185D01*
X012129Y014185D01*
X012129Y014125D01*
X011729Y014125D01*
X011729Y013841D01*
X011740Y013774D01*
X011761Y013710D01*
X011791Y013650D01*
X011831Y013595D01*
X011879Y013547D01*
X011934Y013507D01*
X011994Y013477D01*
X012058Y013456D01*
X012125Y013445D01*
X012129Y013445D01*
X012027Y013466D02*
X011653Y013466D01*
X011563Y013564D02*
X011862Y013564D01*
X011785Y013663D02*
X011436Y013663D01*
X011425Y013761D02*
X011744Y013761D01*
X011729Y013860D02*
X011532Y013860D01*
X011592Y013958D02*
X011729Y013958D01*
X011729Y014057D02*
X011624Y014057D01*
X011729Y014185D02*
X012129Y014185D01*
X012129Y014865D01*
X012125Y014865D01*
X012058Y014854D01*
X011994Y014834D01*
X011934Y014803D01*
X011879Y014763D01*
X011831Y014715D01*
X011791Y014660D01*
X011761Y014600D01*
X011740Y014536D01*
X011729Y014469D01*
X011729Y014185D01*
X011729Y014254D02*
X011624Y014254D01*
X011591Y014353D02*
X011729Y014353D01*
X011729Y014451D02*
X011531Y014451D01*
X011424Y014550D02*
X011744Y014550D01*
X011785Y014648D02*
X010917Y014648D01*
X010894Y014550D02*
X010819Y014550D01*
X010787Y014451D02*
X010720Y014451D01*
X010727Y014353D02*
X010669Y014353D01*
X010669Y014254D02*
X010694Y014254D01*
X010669Y014156D02*
X011140Y014156D01*
X011178Y014156D02*
X012129Y014156D01*
X012189Y014156D02*
X012709Y014156D01*
X012709Y014254D02*
X012589Y014254D01*
X012589Y014353D02*
X012709Y014353D01*
X012709Y014451D02*
X012589Y014451D01*
X012574Y014550D02*
X012719Y014550D01*
X012760Y014648D02*
X012533Y014648D01*
X012455Y014747D02*
X012834Y014747D01*
X012974Y014845D02*
X012288Y014845D01*
X012189Y014845D02*
X012129Y014845D01*
X012129Y014747D02*
X012189Y014747D01*
X012189Y014648D02*
X012129Y014648D01*
X012129Y014550D02*
X012189Y014550D01*
X012189Y014451D02*
X012129Y014451D01*
X012129Y014353D02*
X012189Y014353D01*
X012189Y014254D02*
X012129Y014254D01*
X012129Y014057D02*
X012189Y014057D01*
X012189Y013958D02*
X012129Y013958D01*
X012129Y013860D02*
X012189Y013860D01*
X012189Y013761D02*
X012129Y013761D01*
X012129Y013663D02*
X012189Y013663D01*
X012189Y013564D02*
X012129Y013564D01*
X012456Y013564D02*
X012833Y013564D01*
X012760Y013663D02*
X012533Y013663D01*
X012574Y013761D02*
X012719Y013761D01*
X012709Y013860D02*
X012589Y013860D01*
X012589Y013958D02*
X012709Y013958D01*
X012709Y014057D02*
X012589Y014057D01*
X011863Y014747D02*
X011016Y014747D01*
X011115Y014845D02*
X012030Y014845D01*
X011607Y015338D02*
X012993Y015338D01*
X012901Y015437D02*
X011706Y015437D01*
X011804Y015535D02*
X012860Y015535D01*
X012849Y015634D02*
X011903Y015634D01*
X012001Y015732D02*
X012859Y015732D01*
X012900Y015831D02*
X012100Y015831D01*
X012199Y015929D02*
X012990Y015929D01*
X013448Y015929D02*
X015168Y015929D01*
X015127Y016028D02*
X012297Y016028D01*
X012396Y016126D02*
X015119Y016126D01*
X015119Y016225D02*
X012494Y016225D01*
X012593Y016324D02*
X015144Y016324D01*
X015185Y016422D02*
X012691Y016422D01*
X012790Y016521D02*
X015261Y016521D01*
X015368Y016619D02*
X012888Y016619D01*
X012987Y016718D02*
X015433Y016718D01*
X015220Y015831D02*
X013538Y015831D01*
X013579Y015732D02*
X015318Y015732D01*
X013974Y014845D02*
X013895Y014845D01*
X013435Y014845D02*
X013344Y014845D01*
X013433Y014944D02*
X011213Y014944D01*
X011312Y015042D02*
X013431Y015042D01*
X013348Y015141D02*
X011410Y015141D01*
X011509Y015240D02*
X013249Y015240D01*
X011942Y016324D02*
X002907Y016324D01*
X003066Y016225D02*
X011844Y016225D01*
X011745Y016126D02*
X005533Y016126D01*
X005631Y016028D02*
X011647Y016028D01*
X011548Y015929D02*
X005730Y015929D01*
X005829Y015831D02*
X011449Y015831D01*
X011351Y015732D02*
X005927Y015732D01*
X006297Y015634D02*
X011252Y015634D01*
X011154Y015535D02*
X006479Y015535D01*
X006578Y015437D02*
X011055Y015437D01*
X010957Y015338D02*
X006619Y015338D01*
X006654Y015240D02*
X010858Y015240D01*
X010760Y015141D02*
X006654Y015141D01*
X006648Y015042D02*
X010661Y015042D01*
X010563Y014944D02*
X006607Y014944D01*
X006549Y014845D02*
X010464Y014845D01*
X010366Y014747D02*
X006451Y014747D01*
X006558Y014354D02*
X006494Y014334D01*
X006434Y014303D01*
X006379Y014263D01*
X006331Y014215D01*
X006291Y014160D01*
X006261Y014100D01*
X006240Y014036D01*
X006229Y013969D01*
X006229Y013685D01*
X006629Y013685D01*
X006629Y013625D01*
X006689Y013625D01*
X006689Y012945D01*
X006693Y012945D01*
X006760Y012956D01*
X006824Y012977D01*
X006884Y013007D01*
X006939Y013047D01*
X006987Y013095D01*
X007027Y013150D01*
X007058Y013210D01*
X007078Y013274D01*
X007089Y013341D01*
X007089Y013625D01*
X006689Y013625D01*
X006689Y013685D01*
X007089Y013685D01*
X007089Y013969D01*
X007078Y014036D01*
X007058Y014100D01*
X007027Y014160D01*
X006987Y014215D01*
X006939Y014263D01*
X006884Y014303D01*
X006824Y014334D01*
X006760Y014354D01*
X006693Y014365D01*
X006689Y014365D01*
X006689Y013685D01*
X006629Y013685D01*
X006629Y014365D01*
X006625Y014365D01*
X006558Y014354D01*
X006553Y014353D02*
X005389Y014353D01*
X005389Y014451D02*
X010209Y014451D01*
X010209Y014353D02*
X009827Y014353D01*
X009749Y014385D02*
X009570Y014385D01*
X009404Y014317D01*
X009278Y014190D01*
X009209Y014025D01*
X009209Y013286D01*
X009214Y013275D01*
X008449Y012510D01*
X008449Y012320D01*
X008449Y011335D01*
X008404Y011317D01*
X008278Y011190D01*
X008209Y011025D01*
X008209Y010286D01*
X008278Y010120D01*
X008404Y009994D01*
X008570Y009925D01*
X008749Y009925D01*
X008914Y009994D01*
X009041Y010120D01*
X009109Y010286D01*
X009109Y011025D01*
X009041Y011190D01*
X008914Y011317D01*
X008909Y011319D01*
X008909Y012320D01*
X009530Y012941D01*
X009570Y012925D01*
X009749Y012925D01*
X009914Y012994D01*
X010041Y013120D01*
X010109Y013286D01*
X010109Y014025D01*
X010041Y014190D01*
X009914Y014317D01*
X009749Y014385D01*
X009491Y014353D02*
X008827Y014353D01*
X008749Y014385D02*
X008914Y014317D01*
X009041Y014190D01*
X009109Y014025D01*
X009109Y013286D01*
X009041Y013120D01*
X008914Y012994D01*
X008749Y012925D01*
X008570Y012925D01*
X008404Y012994D01*
X008278Y013120D01*
X008209Y013286D01*
X008209Y014025D01*
X008278Y014190D01*
X008404Y014317D01*
X008570Y014385D01*
X008749Y014385D01*
X008491Y014353D02*
X007827Y014353D01*
X007976Y014254D02*
X008342Y014254D01*
X008263Y014156D02*
X008055Y014156D01*
X008096Y014057D02*
X008222Y014057D01*
X008209Y013958D02*
X008109Y013958D01*
X008109Y013860D02*
X008209Y013860D01*
X008209Y013761D02*
X008109Y013761D01*
X008109Y013663D02*
X008209Y013663D01*
X008209Y013564D02*
X008109Y013564D01*
X008109Y013466D02*
X008209Y013466D01*
X008209Y013367D02*
X008109Y013367D01*
X008102Y013269D02*
X008216Y013269D01*
X008257Y013170D02*
X008061Y013170D01*
X007992Y013072D02*
X008326Y013072D01*
X008454Y012973D02*
X007864Y012973D01*
X007464Y012874D02*
X008813Y012874D01*
X008864Y012973D02*
X008912Y012973D01*
X008992Y013072D02*
X009010Y013072D01*
X009061Y013170D02*
X009109Y013170D01*
X009102Y013269D02*
X009207Y013269D01*
X009209Y013367D02*
X009109Y013367D01*
X009109Y013466D02*
X009209Y013466D01*
X009209Y013564D02*
X009109Y013564D01*
X009109Y013663D02*
X009209Y013663D01*
X009209Y013761D02*
X009109Y013761D01*
X009109Y013860D02*
X009209Y013860D01*
X009209Y013958D02*
X009109Y013958D01*
X009096Y014057D02*
X009222Y014057D01*
X009263Y014156D02*
X009055Y014156D01*
X008976Y014254D02*
X009342Y014254D01*
X009976Y014254D02*
X010209Y014254D01*
X010209Y014156D02*
X010055Y014156D01*
X010096Y014057D02*
X010209Y014057D01*
X010209Y013958D02*
X010109Y013958D01*
X010109Y013860D02*
X010209Y013860D01*
X010209Y013761D02*
X010109Y013761D01*
X010109Y013663D02*
X010209Y013663D01*
X010209Y013564D02*
X010109Y013564D01*
X010109Y013466D02*
X010209Y013466D01*
X010209Y013367D02*
X010109Y013367D01*
X010102Y013269D02*
X010209Y013269D01*
X010209Y013170D02*
X010061Y013170D01*
X009992Y013072D02*
X010209Y013072D01*
X010209Y012973D02*
X009864Y012973D01*
X010209Y012874D02*
X009464Y012874D01*
X009365Y012776D02*
X010209Y012776D01*
X010209Y012677D02*
X009267Y012677D01*
X009168Y012579D02*
X010209Y012579D01*
X010209Y012480D02*
X009069Y012480D01*
X008971Y012382D02*
X010209Y012382D01*
X010209Y012283D02*
X008909Y012283D01*
X008909Y012185D02*
X010209Y012185D01*
X010209Y012086D02*
X008909Y012086D01*
X008909Y011988D02*
X010209Y011988D01*
X010209Y011889D02*
X008909Y011889D01*
X008909Y011791D02*
X010209Y011791D01*
X010209Y011692D02*
X008909Y011692D01*
X008909Y011593D02*
X010209Y011593D01*
X010209Y011495D02*
X008909Y011495D01*
X008909Y011396D02*
X009388Y011396D01*
X009272Y011298D02*
X008933Y011298D01*
X009031Y011199D02*
X009195Y011199D01*
X009154Y011101D02*
X009078Y011101D01*
X009109Y011002D02*
X009129Y011002D01*
X009129Y010904D02*
X009109Y010904D01*
X009109Y010805D02*
X009129Y010805D01*
X009129Y010707D02*
X009109Y010707D01*
X009109Y010608D02*
X009129Y010608D01*
X009129Y010509D02*
X009109Y010509D01*
X009109Y010411D02*
X009129Y010411D01*
X009129Y010312D02*
X009109Y010312D01*
X009079Y010214D02*
X009152Y010214D01*
X009193Y010115D02*
X009036Y010115D01*
X008937Y010017D02*
X009268Y010017D01*
X009377Y009918D02*
X007261Y009918D01*
X007360Y009820D02*
X007912Y009820D01*
X007809Y009721D02*
X007458Y009721D01*
X007557Y009623D02*
X007750Y009623D01*
X007709Y009524D02*
X007655Y009524D01*
X007570Y009925D02*
X007404Y009994D01*
X007278Y010120D01*
X007209Y010286D01*
X007209Y011025D01*
X007278Y011190D01*
X007404Y011317D01*
X007570Y011385D01*
X007749Y011385D01*
X007914Y011317D01*
X008041Y011190D01*
X008109Y011025D01*
X008109Y010286D01*
X008041Y010120D01*
X007914Y009994D01*
X007749Y009925D01*
X007570Y009925D01*
X007381Y010017D02*
X007163Y010017D01*
X007064Y010115D02*
X007282Y010115D01*
X007239Y010214D02*
X007079Y010214D01*
X007109Y010312D02*
X007209Y010312D01*
X007209Y010411D02*
X007109Y010411D01*
X007109Y010509D02*
X007209Y010509D01*
X007209Y010608D02*
X007109Y010608D01*
X007109Y010707D02*
X007209Y010707D01*
X007209Y010805D02*
X007109Y010805D01*
X007109Y010904D02*
X007209Y010904D01*
X007209Y011002D02*
X007109Y011002D01*
X007078Y011101D02*
X007241Y011101D01*
X007287Y011199D02*
X007031Y011199D01*
X006933Y011298D02*
X007385Y011298D01*
X007933Y011298D02*
X008385Y011298D01*
X008449Y011396D02*
X006823Y011396D01*
X006724Y011495D02*
X008449Y011495D01*
X008449Y011593D02*
X006626Y011593D01*
X006527Y011692D02*
X008449Y011692D01*
X008449Y011791D02*
X006429Y011791D01*
X006478Y011889D02*
X008449Y011889D01*
X008449Y011988D02*
X006577Y011988D01*
X006675Y012086D02*
X008449Y012086D01*
X008449Y012185D02*
X006774Y012185D01*
X006872Y012283D02*
X008449Y012283D01*
X008449Y012382D02*
X006971Y012382D01*
X007069Y012480D02*
X008449Y012480D01*
X008518Y012579D02*
X007168Y012579D01*
X007267Y012677D02*
X008616Y012677D01*
X008715Y012776D02*
X007365Y012776D01*
X007109Y013170D02*
X007037Y013170D01*
X007010Y013072D02*
X006964Y013072D01*
X006912Y012973D02*
X006813Y012973D01*
X006813Y012874D02*
X005389Y012874D01*
X005389Y012973D02*
X006505Y012973D01*
X006494Y012977D02*
X006558Y012956D01*
X006625Y012945D01*
X006629Y012945D01*
X006629Y013625D01*
X006229Y013625D01*
X006229Y013341D01*
X006240Y013274D01*
X006261Y013210D01*
X006291Y013150D01*
X006331Y013095D01*
X006379Y013047D01*
X006434Y013007D01*
X006494Y012977D01*
X006629Y012973D02*
X006689Y012973D01*
X006689Y013072D02*
X006629Y013072D01*
X006629Y013170D02*
X006689Y013170D01*
X006689Y013269D02*
X006629Y013269D01*
X006629Y013367D02*
X006689Y013367D01*
X006689Y013466D02*
X006629Y013466D01*
X006629Y013564D02*
X006689Y013564D01*
X006689Y013663D02*
X007209Y013663D01*
X007209Y013761D02*
X007089Y013761D01*
X007089Y013860D02*
X007209Y013860D01*
X007209Y013958D02*
X007089Y013958D01*
X007072Y014057D02*
X007222Y014057D01*
X007263Y014156D02*
X007029Y014156D01*
X006948Y014254D02*
X007342Y014254D01*
X007491Y014353D02*
X006765Y014353D01*
X006689Y014353D02*
X006629Y014353D01*
X006629Y014254D02*
X006689Y014254D01*
X006689Y014156D02*
X006629Y014156D01*
X006629Y014057D02*
X006689Y014057D01*
X006689Y013958D02*
X006629Y013958D01*
X006629Y013860D02*
X006689Y013860D01*
X006689Y013761D02*
X006629Y013761D01*
X006629Y013663D02*
X005389Y013663D01*
X005389Y013761D02*
X006229Y013761D01*
X006229Y013860D02*
X005389Y013860D01*
X005389Y013958D02*
X006229Y013958D01*
X006247Y014057D02*
X005389Y014057D01*
X005389Y014156D02*
X006289Y014156D01*
X006370Y014254D02*
X005389Y014254D01*
X005389Y014550D02*
X010209Y014550D01*
X010267Y014648D02*
X005389Y014648D01*
X005641Y014747D02*
X005867Y014747D01*
X005769Y014845D02*
X005654Y014845D01*
X005654Y014944D02*
X005711Y014944D01*
X005670Y015042D02*
X005654Y015042D01*
X005654Y015141D02*
X005664Y015141D01*
X005654Y015240D02*
X005664Y015240D01*
X005654Y015338D02*
X005671Y015338D01*
X005389Y013564D02*
X006229Y013564D01*
X006229Y013466D02*
X005389Y013466D01*
X005389Y013367D02*
X006229Y013367D01*
X006241Y013269D02*
X005389Y013269D01*
X005389Y013170D02*
X006281Y013170D01*
X006354Y013072D02*
X005389Y013072D01*
X005443Y012776D02*
X006715Y012776D01*
X006616Y012677D02*
X005542Y012677D01*
X005641Y012579D02*
X006518Y012579D01*
X006419Y012480D02*
X005739Y012480D01*
X005838Y012382D02*
X006321Y012382D01*
X006222Y012283D02*
X005936Y012283D01*
X006035Y012185D02*
X006123Y012185D01*
X007077Y013269D02*
X007207Y013269D01*
X007209Y013367D02*
X007089Y013367D01*
X007089Y013466D02*
X007209Y013466D01*
X007209Y013564D02*
X007089Y013564D01*
X008031Y011199D02*
X008287Y011199D01*
X008241Y011101D02*
X008078Y011101D01*
X008109Y011002D02*
X008209Y011002D01*
X008209Y010904D02*
X008109Y010904D01*
X008109Y010805D02*
X008209Y010805D01*
X008209Y010707D02*
X008109Y010707D01*
X008109Y010608D02*
X008209Y010608D01*
X008209Y010509D02*
X008109Y010509D01*
X008109Y010411D02*
X008209Y010411D01*
X008209Y010312D02*
X008109Y010312D01*
X008079Y010214D02*
X008239Y010214D01*
X008282Y010115D02*
X008036Y010115D01*
X007937Y010017D02*
X008381Y010017D01*
X008407Y009820D02*
X008912Y009820D01*
X008809Y009721D02*
X008509Y009721D01*
X008568Y009623D02*
X008750Y009623D01*
X008709Y009524D02*
X008609Y009524D01*
X008609Y009425D02*
X008709Y009425D01*
X008709Y009327D02*
X008609Y009327D01*
X008609Y009228D02*
X008709Y009228D01*
X008709Y009130D02*
X008609Y009130D01*
X008609Y009031D02*
X008709Y009031D01*
X008709Y008933D02*
X008609Y008933D01*
X008609Y008834D02*
X008709Y008834D01*
X008730Y008736D02*
X008588Y008736D01*
X008548Y008637D02*
X008771Y008637D01*
X008859Y008539D02*
X008459Y008539D01*
X008285Y008440D02*
X009033Y008440D01*
X009285Y008440D02*
X009969Y008440D01*
X009969Y008341D02*
X008118Y008341D01*
X008034Y008440D02*
X008019Y008440D01*
X008216Y008243D02*
X009969Y008243D01*
X009969Y008144D02*
X008315Y008144D01*
X008413Y008046D02*
X009969Y008046D01*
X009969Y007947D02*
X008512Y007947D01*
X008611Y007849D02*
X009969Y007849D01*
X009969Y007750D02*
X008709Y007750D01*
X008808Y007652D02*
X009969Y007652D01*
X009969Y007553D02*
X008906Y007553D01*
X009005Y007455D02*
X009969Y007455D01*
X009969Y007356D02*
X009583Y007356D01*
X009682Y007258D02*
X009969Y007258D01*
X009969Y007159D02*
X009780Y007159D01*
X009879Y007060D02*
X009969Y007060D01*
X010429Y007159D02*
X010802Y007159D01*
X010789Y007060D02*
X010519Y007060D01*
X010617Y006962D02*
X010797Y006962D01*
X010838Y006863D02*
X010716Y006863D01*
X010815Y006765D02*
X010852Y006765D01*
X010842Y007258D02*
X010429Y007258D01*
X010429Y007356D02*
X010929Y007356D01*
X010929Y007455D02*
X010429Y007455D01*
X010429Y007553D02*
X010929Y007553D01*
X010929Y007652D02*
X010429Y007652D01*
X010429Y007750D02*
X010929Y007750D01*
X010929Y007849D02*
X010429Y007849D01*
X010429Y007947D02*
X010929Y007947D01*
X010929Y008046D02*
X010429Y008046D01*
X010429Y008144D02*
X010929Y008144D01*
X010929Y008243D02*
X010429Y008243D01*
X010429Y008341D02*
X010929Y008341D01*
X010929Y008440D02*
X010429Y008440D01*
X010459Y008539D02*
X010859Y008539D01*
X010771Y008637D02*
X010548Y008637D01*
X010588Y008736D02*
X010730Y008736D01*
X010709Y008834D02*
X010609Y008834D01*
X010609Y008933D02*
X010709Y008933D01*
X010709Y009031D02*
X010609Y009031D01*
X010609Y009130D02*
X010709Y009130D01*
X010709Y009228D02*
X010609Y009228D01*
X010609Y009327D02*
X010709Y009327D01*
X010709Y009425D02*
X010609Y009425D01*
X010609Y009524D02*
X010709Y009524D01*
X010750Y009623D02*
X010568Y009623D01*
X010509Y009721D02*
X010809Y009721D01*
X010912Y009820D02*
X010407Y009820D01*
X010347Y009918D02*
X013940Y009918D01*
X014378Y009918D02*
X016371Y009918D01*
X016324Y009834D02*
X016260Y009854D01*
X016193Y009865D01*
X016189Y009865D01*
X016189Y009185D01*
X016589Y009185D01*
X016589Y009469D01*
X016578Y009536D01*
X016558Y009600D01*
X016527Y009660D01*
X016487Y009715D01*
X016439Y009763D01*
X016384Y009803D01*
X016324Y009834D01*
X016351Y009820D02*
X016469Y009820D01*
X016481Y009721D02*
X016568Y009721D01*
X016546Y009623D02*
X016666Y009623D01*
X016709Y009524D02*
X016580Y009524D01*
X016589Y009425D02*
X016709Y009425D01*
X016709Y009327D02*
X016589Y009327D01*
X016589Y009228D02*
X016709Y009228D01*
X016709Y009130D02*
X016189Y009130D01*
X016189Y009125D02*
X016189Y009185D01*
X016129Y009185D01*
X016129Y009125D01*
X016189Y009125D01*
X016189Y008445D01*
X016193Y008445D01*
X016260Y008456D01*
X016324Y008477D01*
X016384Y008507D01*
X016439Y008547D01*
X016487Y008595D01*
X016527Y008650D01*
X016558Y008710D01*
X016578Y008774D01*
X016589Y008841D01*
X016589Y009125D01*
X016189Y009125D01*
X016129Y009125D02*
X016129Y008445D01*
X016125Y008445D01*
X016058Y008456D01*
X015994Y008477D01*
X015934Y008507D01*
X015879Y008547D01*
X015831Y008595D01*
X015791Y008650D01*
X015761Y008710D01*
X015740Y008774D01*
X015729Y008841D01*
X015729Y009125D01*
X016129Y009125D01*
X016129Y009130D02*
X015189Y009130D01*
X015189Y009125D02*
X015189Y009185D01*
X015589Y009185D01*
X015589Y009469D01*
X015578Y009536D01*
X015558Y009600D01*
X015527Y009660D01*
X015487Y009715D01*
X015439Y009763D01*
X015384Y009803D01*
X015324Y009834D01*
X015260Y009854D01*
X015193Y009865D01*
X015189Y009865D01*
X015189Y009185D01*
X015129Y009185D01*
X015129Y009125D01*
X015189Y009125D01*
X015189Y008445D01*
X015193Y008445D01*
X015260Y008456D01*
X015324Y008477D01*
X015384Y008507D01*
X015439Y008547D01*
X015487Y008595D01*
X015527Y008650D01*
X015558Y008710D01*
X015578Y008774D01*
X015589Y008841D01*
X015589Y009125D01*
X015189Y009125D01*
X015129Y009125D02*
X015129Y008445D01*
X015125Y008445D01*
X015058Y008456D01*
X014994Y008477D01*
X014934Y008507D01*
X014879Y008547D01*
X014831Y008595D01*
X014791Y008650D01*
X014761Y008710D01*
X014740Y008774D01*
X014729Y008841D01*
X014729Y009125D01*
X015129Y009125D01*
X015129Y009130D02*
X014689Y009130D01*
X014729Y009185D02*
X015129Y009185D01*
X015129Y009865D01*
X015125Y009865D01*
X015058Y009854D01*
X014994Y009834D01*
X014934Y009803D01*
X014879Y009763D01*
X014831Y009715D01*
X014791Y009660D01*
X014761Y009600D01*
X014740Y009536D01*
X014729Y009469D01*
X014729Y009185D01*
X014729Y009228D02*
X014689Y009228D01*
X014689Y009327D02*
X014729Y009327D01*
X014729Y009425D02*
X014689Y009425D01*
X014689Y009524D02*
X014738Y009524D01*
X014772Y009623D02*
X014655Y009623D01*
X014614Y009721D02*
X014837Y009721D01*
X014967Y009820D02*
X014524Y009820D01*
X014672Y010017D02*
X010446Y010017D01*
X010544Y010115D02*
X014574Y010115D01*
X014475Y010214D02*
X010643Y010214D01*
X010190Y010411D02*
X010189Y010411D01*
X010189Y010509D02*
X010209Y010509D01*
X010209Y010608D02*
X010189Y010608D01*
X010189Y010707D02*
X010209Y010707D01*
X010209Y010805D02*
X010189Y010805D01*
X010189Y010904D02*
X010209Y010904D01*
X010209Y011002D02*
X010189Y011002D01*
X010209Y011101D02*
X010164Y011101D01*
X010123Y011199D02*
X010209Y011199D01*
X010209Y011298D02*
X010046Y011298D01*
X009930Y011396D02*
X010209Y011396D01*
X010669Y012677D02*
X010824Y012677D01*
X010725Y012776D02*
X010669Y012776D01*
X010669Y013564D02*
X010755Y013564D01*
X010669Y013663D02*
X010882Y013663D01*
X010893Y013761D02*
X010669Y013761D01*
X010669Y013860D02*
X010786Y013860D01*
X010726Y013958D02*
X010669Y013958D01*
X010669Y014057D02*
X010694Y014057D01*
X011140Y014254D02*
X011178Y014254D01*
X011178Y014353D02*
X011140Y014353D01*
X011140Y014451D02*
X011178Y014451D01*
X011178Y014550D02*
X011140Y014550D01*
X011998Y012677D02*
X012870Y012677D01*
X013440Y011791D02*
X013618Y011791D01*
X013539Y011692D02*
X013717Y011692D01*
X013738Y011593D02*
X013581Y011593D01*
X013609Y011495D02*
X013709Y011495D01*
X013709Y011396D02*
X013609Y011396D01*
X013609Y011298D02*
X013709Y011298D01*
X013709Y011199D02*
X013609Y011199D01*
X013609Y011101D02*
X013709Y011101D01*
X013709Y011002D02*
X013609Y011002D01*
X013609Y010904D02*
X013709Y010904D01*
X013709Y010805D02*
X013609Y010805D01*
X013576Y010707D02*
X013742Y010707D01*
X013790Y010608D02*
X013528Y010608D01*
X013430Y010509D02*
X013888Y010509D01*
X014609Y010805D02*
X014709Y010805D01*
X014709Y010904D02*
X014609Y010904D01*
X014609Y011002D02*
X014709Y011002D01*
X014709Y011101D02*
X014609Y011101D01*
X014609Y011199D02*
X014709Y011199D01*
X014709Y011298D02*
X014609Y011298D01*
X014609Y011396D02*
X014709Y011396D01*
X014709Y011495D02*
X014609Y011495D01*
X014581Y011593D02*
X014738Y011593D01*
X014780Y011692D02*
X014539Y011692D01*
X014440Y011791D02*
X014878Y011791D01*
X015440Y011791D02*
X015878Y011791D01*
X015780Y011692D02*
X015539Y011692D01*
X015581Y011593D02*
X015738Y011593D01*
X015709Y011495D02*
X015609Y011495D01*
X015609Y011396D02*
X015709Y011396D01*
X015709Y011298D02*
X015609Y011298D01*
X015609Y011199D02*
X015709Y011199D01*
X015709Y011101D02*
X015609Y011101D01*
X015617Y011002D02*
X015709Y011002D01*
X015459Y010509D02*
X015430Y010509D01*
X015558Y010411D02*
X014928Y010411D01*
X014888Y010509D02*
X014830Y010509D01*
X014790Y010608D02*
X014731Y010608D01*
X014742Y010707D02*
X014633Y010707D01*
X015129Y009820D02*
X015189Y009820D01*
X015189Y009721D02*
X015129Y009721D01*
X015129Y009623D02*
X015189Y009623D01*
X015189Y009524D02*
X015129Y009524D01*
X015129Y009425D02*
X015189Y009425D01*
X015189Y009327D02*
X015129Y009327D01*
X015129Y009228D02*
X015189Y009228D01*
X015189Y009031D02*
X015129Y009031D01*
X015129Y008933D02*
X015189Y008933D01*
X015189Y008834D02*
X015129Y008834D01*
X015129Y008736D02*
X015189Y008736D01*
X015189Y008637D02*
X015129Y008637D01*
X015129Y008539D02*
X015189Y008539D01*
X015427Y008539D02*
X015891Y008539D01*
X015800Y008637D02*
X015518Y008637D01*
X015566Y008736D02*
X015752Y008736D01*
X015730Y008834D02*
X015588Y008834D01*
X015589Y008933D02*
X015729Y008933D01*
X015729Y009031D02*
X015589Y009031D01*
X015589Y009228D02*
X015729Y009228D01*
X015729Y009185D02*
X016129Y009185D01*
X016129Y009865D01*
X016125Y009865D01*
X016058Y009854D01*
X015994Y009834D01*
X015934Y009803D01*
X015879Y009763D01*
X015831Y009715D01*
X015791Y009660D01*
X015761Y009600D01*
X015740Y009536D01*
X015729Y009469D01*
X015729Y009185D01*
X015729Y009327D02*
X015589Y009327D01*
X015589Y009425D02*
X015729Y009425D01*
X015738Y009524D02*
X015580Y009524D01*
X015546Y009623D02*
X015772Y009623D01*
X015837Y009721D02*
X015481Y009721D01*
X015351Y009820D02*
X015967Y009820D01*
X016129Y009820D02*
X016189Y009820D01*
X016189Y009721D02*
X016129Y009721D01*
X016129Y009623D02*
X016189Y009623D01*
X016189Y009524D02*
X016129Y009524D01*
X016129Y009425D02*
X016189Y009425D01*
X016189Y009327D02*
X016129Y009327D01*
X016129Y009228D02*
X016189Y009228D01*
X016189Y009031D02*
X016129Y009031D01*
X016129Y008933D02*
X016189Y008933D01*
X016189Y008834D02*
X016129Y008834D01*
X016129Y008736D02*
X016189Y008736D01*
X016189Y008637D02*
X016129Y008637D01*
X016129Y008539D02*
X016189Y008539D01*
X016427Y008539D02*
X016859Y008539D01*
X016771Y008637D02*
X016518Y008637D01*
X016566Y008736D02*
X016730Y008736D01*
X016709Y008834D02*
X016588Y008834D01*
X016589Y008933D02*
X016709Y008933D01*
X016709Y009031D02*
X016589Y009031D01*
X014891Y008539D02*
X014572Y008539D01*
X014634Y008637D02*
X014800Y008637D01*
X014752Y008736D02*
X014675Y008736D01*
X014689Y008834D02*
X014730Y008834D01*
X014729Y008933D02*
X014689Y008933D01*
X014689Y009031D02*
X014729Y009031D01*
X014457Y007750D02*
X018021Y007750D01*
X019389Y004498D02*
X021157Y004498D01*
X021059Y004400D02*
X019389Y004400D01*
X019389Y004301D02*
X020960Y004301D01*
X020861Y004203D02*
X019389Y004203D01*
X019524Y004104D02*
X020294Y004104D01*
X020196Y004006D02*
X019619Y004006D01*
X019660Y003907D02*
X020129Y003907D01*
X020088Y003809D02*
X019699Y003809D01*
X019699Y003710D02*
X020069Y003710D01*
X020069Y003611D02*
X019699Y003611D01*
X019664Y003513D02*
X020083Y003513D01*
X020124Y003414D02*
X019623Y003414D01*
X019533Y003316D02*
X020185Y003316D01*
X020283Y003217D02*
X019392Y003217D01*
X019474Y003119D02*
X020417Y003119D01*
X020310Y003020D02*
X019573Y003020D01*
X019632Y002922D02*
X020235Y002922D01*
X020194Y002823D02*
X019667Y002823D01*
X019673Y002626D02*
X020169Y002626D01*
X020169Y002725D02*
X019209Y002725D01*
X019648Y002527D02*
X020177Y002527D01*
X020218Y002429D02*
X019601Y002429D01*
X019520Y002330D02*
X020270Y002330D01*
X020369Y002232D02*
X019508Y002232D01*
X019608Y002133D02*
X020352Y002133D01*
X020225Y002035D02*
X019694Y002035D01*
X019734Y001936D02*
X020141Y001936D01*
X020100Y001838D02*
X019775Y001838D01*
X019779Y001739D02*
X020069Y001739D01*
X020069Y001641D02*
X019779Y001641D01*
X019763Y001542D02*
X020071Y001542D01*
X020112Y001443D02*
X019722Y001443D01*
X019676Y001345D02*
X020156Y001345D01*
X020254Y001246D02*
X019577Y001246D01*
X019434Y001148D02*
X020423Y001148D01*
X020795Y001148D02*
X024009Y001148D01*
X024009Y001246D02*
X022911Y001246D01*
X022825Y001215D02*
X023136Y001329D01*
X023136Y001329D01*
X023390Y001542D01*
X024009Y001542D01*
X024009Y001443D02*
X023273Y001443D01*
X023156Y001345D02*
X024009Y001345D01*
X024009Y001641D02*
X023447Y001641D01*
X023504Y001739D02*
X024009Y001739D01*
X024009Y001838D02*
X023558Y001838D01*
X023556Y001829D02*
X023614Y002155D01*
X023556Y002482D01*
X023390Y002769D01*
X023136Y002982D01*
X022825Y003095D01*
X022825Y003095D01*
X022746Y003095D01*
X022659Y003095D01*
X022656Y003095D01*
X022572Y003095D01*
X022493Y003095D01*
X022182Y002982D01*
X022182Y002982D01*
X021928Y002769D01*
X021928Y002769D01*
X021928Y002769D01*
X021762Y002482D01*
X021762Y002482D01*
X021705Y002155D01*
X021762Y001829D01*
X021928Y001542D01*
X021147Y001542D01*
X021149Y001641D02*
X021871Y001641D01*
X021814Y001739D02*
X021149Y001739D01*
X021118Y001838D02*
X021761Y001838D01*
X021743Y001936D02*
X021077Y001936D01*
X020993Y002035D02*
X021726Y002035D01*
X021708Y002133D02*
X020866Y002133D01*
X021049Y002232D02*
X021718Y002232D01*
X021705Y002155D02*
X021705Y002155D01*
X021735Y002330D02*
X021148Y002330D01*
X021200Y002429D02*
X021753Y002429D01*
X021789Y002527D02*
X021241Y002527D01*
X021249Y002626D02*
X021846Y002626D01*
X021902Y002725D02*
X021249Y002725D01*
X021224Y002823D02*
X021993Y002823D01*
X022110Y002922D02*
X021183Y002922D01*
X021108Y003020D02*
X022287Y003020D01*
X022493Y003095D02*
X022493Y003095D01*
X023031Y003020D02*
X024009Y003020D01*
X024009Y002922D02*
X023208Y002922D01*
X023136Y002982D02*
X023136Y002982D01*
X023325Y002823D02*
X024009Y002823D01*
X024009Y002725D02*
X023416Y002725D01*
X023390Y002769D02*
X023390Y002769D01*
X023473Y002626D02*
X024009Y002626D01*
X024009Y002527D02*
X023529Y002527D01*
X023556Y002482D02*
X023556Y002482D01*
X023565Y002429D02*
X024009Y002429D01*
X024009Y002330D02*
X023583Y002330D01*
X023600Y002232D02*
X024009Y002232D01*
X024009Y002133D02*
X023610Y002133D01*
X023614Y002155D02*
X023614Y002155D01*
X023592Y002035D02*
X024009Y002035D01*
X024009Y001936D02*
X023575Y001936D01*
X023556Y001829D02*
X023556Y001829D01*
X023390Y001542D01*
X023390Y001542D01*
X023390Y001542D01*
X022825Y001215D02*
X022825Y001215D01*
X022659Y001215D01*
X022572Y001215D01*
X022493Y001215D01*
X022493Y001215D01*
X022182Y001329D01*
X022182Y001329D01*
X021928Y001542D01*
X021928Y001542D01*
X022045Y001443D02*
X021106Y001443D01*
X021063Y001345D02*
X022162Y001345D01*
X022407Y001246D02*
X020964Y001246D01*
X021001Y003119D02*
X024009Y003119D01*
X024009Y003217D02*
X020935Y003217D01*
X021033Y003316D02*
X024009Y003316D01*
X024009Y003414D02*
X021094Y003414D01*
X018884Y001148D02*
X018579Y001148D01*
X018677Y001246D02*
X018741Y001246D01*
X018437Y001049D02*
X024009Y001049D01*
X024009Y000951D02*
X001329Y000951D01*
X001329Y001049D02*
X011881Y001049D01*
X011739Y001148D02*
X011434Y001148D01*
X011577Y001246D02*
X011641Y001246D01*
X010884Y001148D02*
X001329Y001148D01*
X001329Y001246D02*
X002407Y001246D01*
X002493Y001215D02*
X002572Y001215D01*
X002659Y001215D01*
X002825Y001215D01*
X003136Y001329D01*
X003136Y001329D01*
X003390Y001542D01*
X010556Y001542D01*
X010539Y001641D02*
X003447Y001641D01*
X003504Y001739D02*
X010539Y001739D01*
X010543Y001838D02*
X003558Y001838D01*
X003556Y001829D02*
X003614Y002155D01*
X003556Y002482D01*
X003390Y002769D01*
X003136Y002982D01*
X002825Y003095D01*
X002825Y003095D01*
X002746Y003095D01*
X002659Y003095D01*
X002605Y003095D01*
X002572Y003095D01*
X002493Y003095D01*
X002182Y002982D01*
X002182Y002982D01*
X001928Y002769D01*
X001928Y002769D01*
X001928Y002769D01*
X001762Y002482D01*
X001762Y002482D01*
X001705Y002155D01*
X001762Y001829D01*
X001762Y001829D01*
X001928Y001542D01*
X001329Y001542D01*
X001329Y001443D02*
X002045Y001443D01*
X002162Y001345D02*
X001329Y001345D01*
X001329Y001641D02*
X001871Y001641D01*
X001814Y001739D02*
X001329Y001739D01*
X001329Y001838D02*
X001761Y001838D01*
X001743Y001936D02*
X001329Y001936D01*
X001329Y002035D02*
X001726Y002035D01*
X001708Y002133D02*
X001329Y002133D01*
X001329Y002232D02*
X001718Y002232D01*
X001705Y002155D02*
X001705Y002155D01*
X001735Y002330D02*
X001329Y002330D01*
X001329Y002429D02*
X001753Y002429D01*
X001789Y002527D02*
X001329Y002527D01*
X001329Y002626D02*
X001846Y002626D01*
X001902Y002725D02*
X001329Y002725D01*
X001329Y002823D02*
X001993Y002823D01*
X002110Y002922D02*
X001329Y002922D01*
X001329Y003020D02*
X002287Y003020D01*
X002493Y003095D02*
X002493Y003095D01*
X003031Y003020D02*
X004130Y003020D01*
X004119Y003119D02*
X001329Y003119D01*
X001329Y003217D02*
X004119Y003217D01*
X004141Y003316D02*
X001329Y003316D01*
X001329Y003414D02*
X004182Y003414D01*
X004253Y003513D02*
X001329Y003513D01*
X001329Y003611D02*
X004352Y003611D01*
X004470Y003710D02*
X002848Y003710D01*
X002812Y003695D02*
X003022Y003782D01*
X003182Y003942D01*
X003269Y004152D01*
X003269Y004379D01*
X003182Y004588D01*
X003022Y004748D01*
X002812Y004835D01*
X001946Y004835D01*
X001736Y004748D01*
X001576Y004588D01*
X001489Y004379D01*
X001489Y004152D01*
X001576Y003942D01*
X001736Y003782D01*
X001946Y003695D01*
X002812Y003695D01*
X003049Y003809D02*
X004270Y003809D01*
X004171Y003907D02*
X003147Y003907D01*
X003208Y004006D02*
X004110Y004006D01*
X004069Y004104D02*
X003249Y004104D01*
X003269Y004203D02*
X004049Y004203D01*
X004049Y004301D02*
X003269Y004301D01*
X003260Y004400D02*
X004058Y004400D01*
X004099Y004498D02*
X003219Y004498D01*
X003173Y004597D02*
X004145Y004597D01*
X004243Y004695D02*
X003075Y004695D01*
X002912Y004794D02*
X004406Y004794D01*
X004633Y005484D02*
X004965Y005484D01*
X005064Y005385D02*
X001329Y005385D01*
X001329Y005287D02*
X005162Y005287D01*
X005261Y005188D02*
X001329Y005188D01*
X001329Y005090D02*
X005359Y005090D01*
X005458Y004991D02*
X001329Y004991D01*
X001329Y004892D02*
X005556Y004892D01*
X005632Y004794D02*
X005472Y004794D01*
X005829Y004203D02*
X005848Y004203D01*
X005809Y004104D02*
X006123Y004104D01*
X006024Y004006D02*
X005768Y004006D01*
X005707Y003907D02*
X005926Y003907D01*
X005827Y003809D02*
X005609Y003809D01*
X005729Y003710D02*
X005408Y003710D01*
X005352Y003611D02*
X004966Y003611D01*
X005065Y003513D02*
X005253Y003513D01*
X005182Y003414D02*
X005136Y003414D01*
X005147Y002922D02*
X005171Y002922D01*
X005227Y002823D02*
X005091Y002823D01*
X004992Y002725D02*
X005326Y002725D01*
X005525Y002626D02*
X004793Y002626D01*
X004525Y002626D02*
X003473Y002626D01*
X003529Y002527D02*
X010670Y002527D01*
X010645Y002626D02*
X010002Y002626D01*
X010105Y002725D02*
X011109Y002725D01*
X010686Y002922D02*
X010233Y002922D01*
X010274Y003020D02*
X010745Y003020D01*
X010844Y003119D02*
X010279Y003119D01*
X010279Y003217D02*
X010926Y003217D01*
X010785Y003316D02*
X010264Y003316D01*
X010223Y003414D02*
X010695Y003414D01*
X010654Y003513D02*
X010178Y003513D01*
X010080Y003611D02*
X010619Y003611D01*
X010619Y003710D02*
X009940Y003710D01*
X009379Y003710D02*
X008940Y003710D01*
X009080Y003611D02*
X009239Y003611D01*
X009200Y004135D02*
X009281Y004148D01*
X009359Y004173D01*
X009432Y004210D01*
X009498Y004258D01*
X009556Y004316D01*
X009604Y004383D01*
X009641Y004455D01*
X009666Y004533D01*
X009679Y004614D01*
X009679Y004616D01*
X009198Y004616D01*
X009198Y004135D01*
X009200Y004135D01*
X009198Y004203D02*
X009120Y004203D01*
X009120Y004135D02*
X009120Y004616D01*
X009198Y004616D01*
X009198Y004694D01*
X009679Y004694D01*
X009679Y004696D01*
X009666Y004777D01*
X009641Y004855D01*
X009604Y004928D01*
X009556Y004994D01*
X009498Y005052D01*
X009432Y005100D01*
X009359Y005137D01*
X009281Y005162D01*
X009200Y005175D01*
X009198Y005175D01*
X009198Y004694D01*
X009120Y004694D01*
X009120Y004616D01*
X008639Y004616D01*
X008639Y004614D01*
X008652Y004533D01*
X008677Y004455D01*
X008714Y004383D01*
X008762Y004316D01*
X008820Y004258D01*
X008886Y004210D01*
X008959Y004173D01*
X009037Y004148D01*
X009118Y004135D01*
X009120Y004135D01*
X009120Y004301D02*
X009198Y004301D01*
X009198Y004400D02*
X009120Y004400D01*
X009120Y004498D02*
X009198Y004498D01*
X009198Y004597D02*
X009120Y004597D01*
X009120Y004694D02*
X008639Y004694D01*
X008639Y004696D01*
X008652Y004777D01*
X008677Y004855D01*
X008714Y004928D01*
X008762Y004994D01*
X008820Y005052D01*
X008886Y005100D01*
X008959Y005137D01*
X009037Y005162D01*
X009118Y005175D01*
X009120Y005175D01*
X009120Y004694D01*
X009120Y004695D02*
X009198Y004695D01*
X009198Y004794D02*
X009120Y004794D01*
X009120Y004892D02*
X009198Y004892D01*
X009198Y004991D02*
X009120Y004991D01*
X009120Y005090D02*
X009198Y005090D01*
X009446Y005090D02*
X010369Y005090D01*
X010369Y005188D02*
X008817Y005188D01*
X008872Y005090D02*
X008719Y005090D01*
X008760Y004991D02*
X008620Y004991D01*
X008696Y004892D02*
X008522Y004892D01*
X008423Y004794D02*
X008657Y004794D01*
X008639Y004695D02*
X008325Y004695D01*
X008226Y004597D02*
X008642Y004597D01*
X008663Y004498D02*
X008127Y004498D01*
X008029Y004400D02*
X008706Y004400D01*
X008778Y004301D02*
X007930Y004301D01*
X007832Y004203D02*
X008902Y004203D01*
X009416Y004203D02*
X010369Y004203D01*
X010369Y004301D02*
X009541Y004301D01*
X009613Y004400D02*
X010369Y004400D01*
X010369Y004498D02*
X009655Y004498D01*
X009676Y004597D02*
X010369Y004597D01*
X010369Y004695D02*
X009679Y004695D01*
X009661Y004794D02*
X010369Y004794D01*
X010369Y004892D02*
X009622Y004892D01*
X009558Y004991D02*
X010369Y004991D01*
X010369Y005287D02*
X008916Y005287D01*
X009014Y005385D02*
X010369Y005385D01*
X009928Y005484D02*
X009390Y005484D01*
X009503Y005582D02*
X009815Y005582D01*
X009752Y005681D02*
X009566Y005681D01*
X009606Y005779D02*
X009712Y005779D01*
X009709Y005878D02*
X009609Y005878D01*
X009609Y005976D02*
X009709Y005976D01*
X009709Y006075D02*
X009609Y006075D01*
X009609Y006174D02*
X009709Y006174D01*
X009709Y006272D02*
X009609Y006272D01*
X009609Y006371D02*
X009709Y006371D01*
X009709Y006469D02*
X009609Y006469D01*
X009591Y006568D02*
X009721Y006568D01*
X009623Y006666D02*
X009550Y006666D01*
X009524Y006765D02*
X009466Y006765D01*
X009426Y006863D02*
X009301Y006863D01*
X009135Y007356D02*
X009103Y007356D01*
X009459Y008539D02*
X009859Y008539D01*
X009771Y008637D02*
X009548Y008637D01*
X009588Y008736D02*
X009730Y008736D01*
X009709Y008834D02*
X009609Y008834D01*
X009609Y008933D02*
X009709Y008933D01*
X009709Y009031D02*
X009609Y009031D01*
X009609Y009130D02*
X009709Y009130D01*
X009709Y009228D02*
X009658Y009228D01*
X009598Y009820D02*
X009407Y009820D01*
X011407Y009820D02*
X011912Y009820D01*
X011809Y009721D02*
X011509Y009721D01*
X011568Y009623D02*
X011750Y009623D01*
X011709Y009524D02*
X011609Y009524D01*
X011609Y009425D02*
X011709Y009425D01*
X011709Y009327D02*
X011609Y009327D01*
X011609Y009228D02*
X011709Y009228D01*
X011709Y009130D02*
X011609Y009130D01*
X011609Y009031D02*
X011709Y009031D01*
X011709Y008933D02*
X011609Y008933D01*
X011609Y008834D02*
X011709Y008834D01*
X011730Y008736D02*
X011588Y008736D01*
X011548Y008637D02*
X011771Y008637D01*
X011859Y008539D02*
X011459Y008539D01*
X011389Y008440D02*
X011889Y008440D01*
X011889Y008341D02*
X011389Y008341D01*
X011389Y008243D02*
X011889Y008243D01*
X011889Y008144D02*
X011389Y008144D01*
X011389Y008046D02*
X011889Y008046D01*
X011889Y007947D02*
X011389Y007947D01*
X011389Y007849D02*
X011889Y007849D01*
X011889Y007750D02*
X011389Y007750D01*
X011389Y007652D02*
X011889Y007652D01*
X011889Y007553D02*
X011389Y007553D01*
X011389Y007455D02*
X011889Y007455D01*
X011889Y007356D02*
X011389Y007356D01*
X011476Y007258D02*
X011802Y007258D01*
X011762Y007159D02*
X011516Y007159D01*
X011529Y007060D02*
X011749Y007060D01*
X011757Y006962D02*
X011521Y006962D01*
X011480Y006863D02*
X011798Y006863D01*
X011852Y006765D02*
X011466Y006765D01*
X011550Y006666D02*
X011768Y006666D01*
X011727Y006568D02*
X011591Y006568D01*
X011609Y006469D02*
X011709Y006469D01*
X011709Y006371D02*
X011609Y006371D01*
X011609Y006272D02*
X011709Y006272D01*
X011709Y006174D02*
X011609Y006174D01*
X011609Y006075D02*
X011709Y006075D01*
X011709Y005976D02*
X011609Y005976D01*
X011609Y005878D02*
X011709Y005878D01*
X011712Y005779D02*
X011606Y005779D01*
X011659Y005681D02*
X011752Y005681D01*
X011757Y005582D02*
X011815Y005582D01*
X011856Y005484D02*
X011928Y005484D01*
X011954Y005385D02*
X014243Y005385D01*
X014202Y005287D02*
X012053Y005287D01*
X012151Y005188D02*
X014184Y005188D01*
X014189Y005090D02*
X012250Y005090D01*
X012348Y004991D02*
X014213Y004991D01*
X014263Y004892D02*
X012447Y004892D01*
X012545Y004794D02*
X014348Y004794D01*
X014484Y004695D02*
X014537Y004695D01*
X014640Y004695D02*
X014678Y004695D01*
X014678Y004794D02*
X014640Y004794D01*
X014640Y004892D02*
X014678Y004892D01*
X014678Y004991D02*
X014640Y004991D01*
X014640Y005090D02*
X014678Y005090D01*
X014678Y005188D02*
X014640Y005188D01*
X014640Y005287D02*
X014678Y005287D01*
X014678Y005385D02*
X014640Y005385D01*
X014640Y005484D02*
X014678Y005484D01*
X014678Y005582D02*
X014640Y005582D01*
X014666Y005681D02*
X014543Y005681D01*
X014579Y005779D02*
X014629Y005779D01*
X014629Y005878D02*
X014589Y005878D01*
X014589Y005976D02*
X014629Y005976D01*
X014629Y006075D02*
X014589Y006075D01*
X014629Y006174D02*
X014189Y006174D01*
X014129Y006174D02*
X013609Y006174D01*
X013609Y006272D02*
X013729Y006272D01*
X013729Y006371D02*
X013609Y006371D01*
X013609Y006469D02*
X013729Y006469D01*
X013750Y006568D02*
X013591Y006568D01*
X013550Y006666D02*
X013796Y006666D01*
X013881Y006765D02*
X013466Y006765D01*
X013301Y006863D02*
X014114Y006863D01*
X014129Y006863D02*
X014189Y006863D01*
X014204Y006863D02*
X014838Y006863D01*
X014739Y006765D02*
X014437Y006765D01*
X014523Y006666D02*
X014681Y006666D01*
X014640Y006568D02*
X014568Y006568D01*
X014589Y006469D02*
X014629Y006469D01*
X014629Y006371D02*
X014589Y006371D01*
X014589Y006272D02*
X014629Y006272D01*
X014189Y006272D02*
X014129Y006272D01*
X014129Y006371D02*
X014189Y006371D01*
X014189Y006469D02*
X014129Y006469D01*
X014129Y006568D02*
X014189Y006568D01*
X014189Y006666D02*
X014129Y006666D01*
X014129Y006765D02*
X014189Y006765D01*
X014189Y006075D02*
X014129Y006075D01*
X014129Y005976D02*
X014189Y005976D01*
X014189Y005878D02*
X014129Y005878D01*
X014129Y005779D02*
X014189Y005779D01*
X014189Y005681D02*
X014129Y005681D01*
X014129Y005582D02*
X014189Y005582D01*
X014189Y005484D02*
X014129Y005484D01*
X013980Y005484D02*
X013390Y005484D01*
X013503Y005582D02*
X013844Y005582D01*
X013775Y005681D02*
X013566Y005681D01*
X013606Y005779D02*
X013739Y005779D01*
X013729Y005878D02*
X013609Y005878D01*
X013609Y005976D02*
X013729Y005976D01*
X013729Y006075D02*
X013609Y006075D01*
X012928Y005484D02*
X012390Y005484D01*
X012503Y005582D02*
X012815Y005582D01*
X012752Y005681D02*
X012566Y005681D01*
X012606Y005779D02*
X012712Y005779D01*
X012709Y005878D02*
X012609Y005878D01*
X012609Y005976D02*
X012709Y005976D01*
X012709Y006075D02*
X012609Y006075D01*
X012609Y006174D02*
X012709Y006174D01*
X012709Y006272D02*
X012609Y006272D01*
X012609Y006371D02*
X012709Y006371D01*
X012709Y006469D02*
X012609Y006469D01*
X012597Y006568D02*
X012727Y006568D01*
X012695Y006666D02*
X012768Y006666D01*
X014583Y004597D02*
X014709Y004597D01*
X014710Y004498D02*
X014681Y004498D01*
X015449Y004597D02*
X015504Y004597D01*
X015577Y001246D02*
X015641Y001246D01*
X015739Y001148D02*
X015434Y001148D01*
X015881Y001049D02*
X014437Y001049D01*
X014579Y001148D02*
X014884Y001148D01*
X014741Y001246D02*
X014677Y001246D01*
X013881Y001049D02*
X012437Y001049D01*
X012579Y001148D02*
X012884Y001148D01*
X012741Y001246D02*
X012677Y001246D01*
X013434Y001148D02*
X013739Y001148D01*
X013641Y001246D02*
X013577Y001246D01*
X010741Y001246D02*
X002911Y001246D01*
X002825Y001215D02*
X002825Y001215D01*
X003156Y001345D02*
X010642Y001345D01*
X010596Y001443D02*
X003273Y001443D01*
X003390Y001542D02*
X003556Y001829D01*
X003556Y001829D01*
X003575Y001936D02*
X010584Y001936D01*
X010625Y002035D02*
X003592Y002035D01*
X003610Y002133D02*
X010710Y002133D01*
X010811Y002232D02*
X003600Y002232D01*
X003583Y002330D02*
X010798Y002330D01*
X010717Y002429D02*
X003565Y002429D01*
X003556Y002482D02*
X003556Y002482D01*
X003416Y002725D02*
X004326Y002725D01*
X004227Y002823D02*
X003325Y002823D01*
X003390Y002769D02*
X003390Y002769D01*
X003208Y002922D02*
X004171Y002922D01*
X003136Y002982D02*
X003136Y002982D01*
X001910Y003710D02*
X001329Y003710D01*
X001329Y003809D02*
X001710Y003809D01*
X001611Y003907D02*
X001329Y003907D01*
X001329Y004006D02*
X001550Y004006D01*
X001509Y004104D02*
X001329Y004104D01*
X001329Y004203D02*
X001489Y004203D01*
X001489Y004301D02*
X001329Y004301D01*
X001329Y004400D02*
X001498Y004400D01*
X001539Y004498D02*
X001329Y004498D01*
X001329Y004597D02*
X001585Y004597D01*
X001683Y004695D02*
X001329Y004695D01*
X001329Y004794D02*
X001846Y004794D01*
X004758Y007849D02*
X005067Y007849D01*
X005166Y007947D02*
X004856Y007947D01*
X005546Y008637D02*
X006529Y008637D01*
X006789Y008637D02*
X006852Y008637D01*
X004684Y011674D02*
X004684Y011692D01*
X002178Y014156D02*
X001329Y014156D01*
X001329Y014254D02*
X002119Y014254D01*
X002119Y014353D02*
X001329Y014353D01*
X001329Y014451D02*
X002119Y014451D01*
X002119Y014550D02*
X001329Y014550D01*
X001329Y014648D02*
X002119Y014648D01*
X002119Y014747D02*
X001329Y014747D01*
X001329Y014845D02*
X002119Y014845D01*
X002119Y014944D02*
X001329Y014944D01*
X001329Y015042D02*
X002119Y015042D01*
X002165Y015141D02*
X001329Y015141D01*
X002415Y018590D02*
X004119Y018590D01*
X004119Y018689D02*
X002569Y018689D01*
X002668Y018787D02*
X004129Y018787D01*
X004170Y018886D02*
X002718Y018886D01*
X002759Y018984D02*
X004224Y018984D01*
X004323Y019083D02*
X002779Y019083D01*
X002779Y019181D02*
X004392Y019181D01*
X004271Y019280D02*
X002778Y019280D01*
X002738Y019378D02*
X004189Y019378D01*
X004148Y019477D02*
X002697Y019477D01*
X002616Y019575D02*
X004119Y019575D01*
X004119Y019674D02*
X002517Y019674D01*
X002540Y019773D02*
X004123Y019773D01*
X004164Y019871D02*
X002626Y019871D01*
X002667Y019970D02*
X004210Y019970D01*
X003711Y021842D02*
X006432Y021842D01*
X006334Y021940D02*
X003810Y021940D01*
X003908Y022039D02*
X006235Y022039D01*
X006137Y022138D02*
X004007Y022138D01*
X004105Y022236D02*
X006038Y022236D01*
X005940Y022335D02*
X004204Y022335D01*
X004302Y022433D02*
X005841Y022433D01*
X005743Y022532D02*
X004401Y022532D01*
X004753Y022630D02*
X005140Y022630D01*
X005092Y022729D02*
X004946Y022729D01*
X005045Y022827D02*
X005089Y022827D01*
X005084Y023419D02*
X005089Y023419D01*
X005089Y023517D02*
X005011Y023517D01*
X005005Y023616D02*
X005106Y023616D01*
X005103Y023714D02*
X005175Y023714D01*
X006243Y023714D02*
X006255Y023714D01*
X006312Y023616D02*
X006353Y023616D01*
X006329Y023517D02*
X006452Y023517D01*
X006550Y023419D02*
X006329Y023419D01*
X006329Y023320D02*
X006593Y023320D01*
X006569Y023222D02*
X006329Y023222D01*
X006329Y023123D02*
X006569Y023123D01*
X006579Y023024D02*
X006409Y023024D01*
X006508Y022926D02*
X006619Y022926D01*
X006607Y022827D02*
X006673Y022827D01*
X006705Y022729D02*
X006772Y022729D01*
X006804Y022630D02*
X006965Y022630D01*
X007253Y022630D02*
X007753Y022630D01*
X007769Y022615D02*
X008649Y022615D01*
X008749Y022715D01*
X008749Y023596D01*
X008649Y023695D01*
X007769Y023695D01*
X007669Y023596D01*
X007669Y022715D01*
X007769Y022615D01*
X007669Y022729D02*
X007446Y022729D01*
X007545Y022827D02*
X007669Y022827D01*
X007669Y022926D02*
X007599Y022926D01*
X007639Y023024D02*
X007669Y023024D01*
X007669Y023123D02*
X007649Y023123D01*
X007649Y023222D02*
X007669Y023222D01*
X007669Y023320D02*
X007625Y023320D01*
X007584Y023419D02*
X007669Y023419D01*
X007669Y023517D02*
X007511Y023517D01*
X007408Y023616D02*
X007689Y023616D01*
X006905Y023714D02*
X010038Y023714D01*
X009940Y023616D02*
X008729Y023616D01*
X008749Y023517D02*
X009841Y023517D01*
X009743Y023419D02*
X008749Y023419D01*
X008749Y023320D02*
X009644Y023320D01*
X009546Y023222D02*
X008749Y023222D01*
X008749Y023123D02*
X009447Y023123D01*
X009349Y023024D02*
X008749Y023024D01*
X008749Y022926D02*
X009250Y022926D01*
X009151Y022827D02*
X008749Y022827D01*
X008749Y022729D02*
X009053Y022729D01*
X008954Y022630D02*
X008665Y022630D01*
X009735Y021546D02*
X010255Y021546D01*
X010207Y021645D02*
X009834Y021645D01*
X009933Y021743D02*
X010169Y021743D01*
X010169Y021842D02*
X010031Y021842D01*
X010353Y021448D02*
X009637Y021448D01*
X010965Y021448D02*
X011240Y021448D01*
X011162Y021546D02*
X011063Y021546D01*
X011111Y021645D02*
X011121Y021645D01*
X010151Y023813D02*
X006807Y023813D01*
X002436Y022236D02*
X001329Y022236D01*
X001329Y022335D02*
X002174Y022335D01*
X002182Y022329D02*
X002182Y022329D01*
X002057Y022433D02*
X001329Y022433D01*
X001329Y022532D02*
X001940Y022532D01*
X001877Y022630D02*
X001329Y022630D01*
X001329Y022729D02*
X001820Y022729D01*
X001763Y022827D02*
X001329Y022827D01*
X001329Y022926D02*
X001745Y022926D01*
X001728Y023024D02*
X001329Y023024D01*
X001329Y023123D02*
X001710Y023123D01*
X001705Y023155D02*
X001705Y023155D01*
X001716Y023222D02*
X001329Y023222D01*
X001329Y023320D02*
X001734Y023320D01*
X001751Y023419D02*
X001329Y023419D01*
X001329Y023517D02*
X001783Y023517D01*
X001840Y023616D02*
X001329Y023616D01*
X001329Y023714D02*
X001896Y023714D01*
X001928Y023769D02*
X001928Y023769D01*
X001981Y023813D02*
X001329Y023813D01*
X001329Y023911D02*
X002098Y023911D01*
X002182Y023982D02*
X002182Y023982D01*
X001329Y024404D02*
X016351Y024404D01*
X016967Y024404D02*
X019303Y024404D01*
X019204Y024306D02*
X017066Y024306D01*
X017159Y024207D02*
X019106Y024207D01*
X019007Y024108D02*
X017159Y024108D01*
X017169Y024010D02*
X018909Y024010D01*
X018810Y023911D02*
X017268Y023911D01*
X017367Y023813D02*
X018711Y023813D01*
X018613Y023714D02*
X017465Y023714D01*
X017564Y023616D02*
X018229Y023616D01*
X018164Y023517D02*
X017662Y023517D01*
X017406Y023123D02*
X017139Y023123D01*
X017139Y023222D02*
X017307Y023222D01*
X017209Y023320D02*
X017139Y023320D01*
X017110Y023419D02*
X017074Y023419D01*
X017012Y023517D02*
X016976Y023517D01*
X017139Y023024D02*
X017504Y023024D01*
X017154Y022630D02*
X019424Y022630D01*
X019272Y022729D02*
X019123Y022729D01*
X019154Y022827D02*
X019174Y022827D01*
X019154Y023517D02*
X019208Y023517D01*
X019165Y023616D02*
X019306Y023616D01*
X019263Y023714D02*
X019506Y023714D01*
X018164Y022926D02*
X017109Y022926D01*
X017010Y022827D02*
X018164Y022827D01*
X018195Y022729D02*
X017056Y022729D01*
X021189Y021448D02*
X021227Y021448D01*
X021243Y021349D02*
X021325Y021349D01*
X022817Y020856D02*
X022833Y020856D01*
X022916Y020758D02*
X022921Y020758D01*
X023309Y021152D02*
X024009Y021152D01*
X024009Y021054D02*
X023769Y021054D01*
X023741Y020955D02*
X023704Y020883D01*
X023597Y020758D02*
X024009Y020758D01*
X024009Y020659D02*
X023532Y020659D01*
X023630Y020561D02*
X024009Y020561D01*
X024009Y020462D02*
X023703Y020462D01*
X023744Y020364D02*
X024009Y020364D01*
X024009Y020265D02*
X023779Y020265D01*
X023779Y020167D02*
X024009Y020167D01*
X024009Y020068D02*
X023779Y020068D01*
X023753Y019970D02*
X024009Y019970D01*
X024009Y019871D02*
X023712Y019871D01*
X023653Y019773D02*
X024009Y019773D01*
X024009Y019674D02*
X023617Y019674D01*
X023716Y019575D02*
X024009Y019575D01*
X024009Y019477D02*
X023797Y019477D01*
X023838Y019378D02*
X024009Y019378D01*
X024009Y019280D02*
X023878Y019280D01*
X023879Y019181D02*
X024009Y019181D01*
X024009Y019083D02*
X023879Y019083D01*
X023859Y018984D02*
X024009Y018984D01*
X024009Y018886D02*
X023818Y018886D01*
X023768Y018787D02*
X024009Y018787D01*
X024009Y018689D02*
X023669Y018689D01*
X023770Y021251D02*
X024009Y021251D01*
X024009Y021349D02*
X023743Y021349D01*
X023689Y021448D02*
X024009Y021448D01*
X024009Y021546D02*
X023603Y021546D01*
X023894Y013663D02*
X024009Y013663D01*
X017870Y011889D02*
X017448Y011889D01*
X017553Y011791D02*
X017765Y011791D01*
X017692Y011692D02*
X017626Y011692D01*
X011333Y016718D02*
X007942Y016718D01*
X008056Y016816D02*
X008104Y016883D01*
X008160Y017013D02*
X011133Y017013D01*
X011119Y017112D02*
X008179Y017112D01*
X008177Y017210D02*
X011119Y017210D01*
X011138Y017309D02*
X008156Y017309D01*
X008114Y017407D02*
X011179Y017407D01*
X011246Y017506D02*
X008044Y017506D01*
X007922Y017605D02*
X011345Y017605D01*
X011780Y019083D02*
X012273Y019083D01*
X012427Y019181D02*
X011998Y019181D01*
X007698Y017605D02*
X007620Y017605D01*
X007620Y017506D02*
X007698Y017506D01*
X007698Y017407D02*
X007620Y017407D01*
X007620Y017309D02*
X007698Y017309D01*
X007698Y017210D02*
X007620Y017210D01*
X007620Y017112D02*
X007698Y017112D01*
X007698Y017013D02*
X007620Y017013D01*
X007620Y016915D02*
X007698Y016915D01*
X007698Y016816D02*
X007620Y016816D01*
X007620Y016718D02*
X007698Y016718D01*
X007733Y004104D02*
X010425Y004104D01*
X010523Y004006D02*
X007635Y004006D01*
X007536Y003907D02*
X010622Y003907D01*
X010619Y003809D02*
X007438Y003809D01*
X007339Y003710D02*
X008379Y003710D01*
X008239Y003611D02*
X007909Y003611D01*
X008037Y003513D02*
X008140Y003513D01*
X007709Y003513D02*
X007609Y003513D01*
X007609Y003611D02*
X007709Y003611D01*
X007709Y003414D02*
X007609Y003414D01*
X007609Y003316D02*
X007709Y003316D01*
X007709Y003217D02*
X007609Y003217D01*
X007609Y003020D02*
X007709Y003020D01*
X007709Y002922D02*
X007609Y002922D01*
X007609Y002823D02*
X007709Y002823D01*
X007709Y002725D02*
X007609Y002725D01*
X007367Y002725D02*
X006992Y002725D01*
X007091Y002823D02*
X007257Y002823D01*
X007194Y002922D02*
X007147Y002922D01*
X006793Y002626D02*
X008316Y002626D01*
X008213Y002725D02*
X007951Y002725D01*
X008061Y002823D02*
X008125Y002823D01*
X009002Y002626D02*
X009316Y002626D01*
X009213Y002725D02*
X009105Y002725D01*
X010193Y002823D02*
X010651Y002823D01*
X007409Y003611D02*
X007241Y003611D01*
X007281Y003513D02*
X007142Y003513D01*
X007136Y003414D02*
X007208Y003414D01*
X006525Y002626D02*
X005793Y002626D01*
X005992Y002725D02*
X006326Y002725D01*
X006227Y002823D02*
X006091Y002823D01*
X006147Y002922D02*
X006171Y002922D01*
X002493Y001215D02*
X002493Y001215D01*
X002182Y001329D01*
X002182Y001329D01*
X001928Y001542D01*
X001928Y001542D01*
X001329Y000852D02*
X024009Y000852D01*
X017881Y001049D02*
X016437Y001049D01*
X016579Y001148D02*
X016884Y001148D01*
X016741Y001246D02*
X016677Y001246D01*
X017434Y001148D02*
X017739Y001148D01*
X017641Y001246D02*
X017577Y001246D01*
D20*
X015079Y004575D03*
X016199Y007055D03*
X014199Y008015D03*
X013159Y007615D03*
X012119Y007055D03*
X011159Y007055D03*
X011809Y012355D03*
X013059Y012355D03*
X014979Y012335D03*
X013219Y015635D03*
X017319Y022975D03*
X017959Y023615D03*
X022119Y012415D03*
X021879Y011215D03*
X018279Y008015D03*
X021879Y006735D03*
X004199Y008415D03*
X003719Y006175D03*
D21*
X016679Y021295D02*
X017079Y021295D01*
X017879Y022095D01*
X020679Y022095D01*
X020839Y021935D01*
X021319Y021935D01*
X022359Y020895D01*
X022359Y020735D01*
X022919Y020175D01*
X023159Y020175D01*
X023159Y020155D01*
X016679Y021295D02*
X014519Y023455D01*
X010359Y023455D01*
X009079Y022175D01*
X006679Y022175D01*
X005719Y023135D01*
X005709Y023155D01*
X021879Y011215D02*
X021959Y011215D01*
X022119Y011375D01*
X022119Y012415D01*
M02*
