G75*
G70*
%OFA0B0*%
%FSLAX24Y24*%
%IPPOS*%
%LPD*%
%AMOC8*
5,1,8,0,0,1.08239X$1,22.5*
%
%ADD10C,0.0640*%
%ADD11C,0.0650*%
%ADD12C,0.0740*%
%ADD13C,0.0660*%
%ADD14C,0.0560*%
%ADD15C,0.0120*%
%ADD16C,0.0100*%
%ADD17C,0.0320*%
%ADD18C,0.0400*%
D10*
X002379Y004265D03*
X002379Y006045D03*
X004939Y006045D03*
X004939Y004265D03*
X010659Y022155D03*
X011659Y022155D03*
X012659Y022155D03*
D11*
X011659Y019655D03*
X010659Y019655D03*
X012659Y018655D03*
X012659Y017655D03*
X011659Y013155D03*
X011659Y012155D03*
X006159Y012155D03*
X006159Y013155D03*
X006159Y015155D03*
X005159Y015155D03*
X007159Y019155D03*
X008159Y019155D03*
X005659Y008655D03*
X005659Y007655D03*
X013659Y005655D03*
X014659Y005655D03*
X021159Y010655D03*
X022159Y010655D03*
X022159Y011655D03*
X021159Y011655D03*
X021159Y013655D03*
X022159Y013655D03*
X023159Y008155D03*
X023159Y006155D03*
X023159Y004155D03*
X022159Y004155D03*
D12*
X020609Y003655D03*
X020709Y002655D03*
X020609Y001655D03*
X019159Y001705D03*
X018159Y001605D03*
X018159Y002605D03*
X019159Y002705D03*
X019159Y003705D03*
X018159Y003605D03*
X017159Y003705D03*
X017159Y002705D03*
X017159Y001705D03*
X016159Y001605D03*
X016159Y002605D03*
X016159Y003605D03*
X015159Y003705D03*
X015159Y002705D03*
X015159Y001705D03*
X014159Y001605D03*
X014159Y002605D03*
X014159Y003605D03*
X013159Y003705D03*
X013159Y002705D03*
X013159Y001705D03*
X012159Y001605D03*
X012159Y002605D03*
X012159Y003605D03*
X011159Y003705D03*
X011159Y002705D03*
X011159Y001705D03*
X009659Y003155D03*
X008659Y003155D03*
X007659Y003155D03*
X006659Y003155D03*
X005659Y003155D03*
X004659Y003155D03*
X006159Y005155D03*
X009159Y005155D03*
X017159Y011155D03*
X017159Y014155D03*
X018159Y016155D03*
X018259Y017155D03*
X018159Y018155D03*
X018259Y019155D03*
X018159Y020155D03*
X018259Y021155D03*
X020659Y020155D03*
X020759Y019155D03*
X020659Y018155D03*
X020759Y017155D03*
X020659Y016155D03*
X023159Y016155D03*
X023259Y017155D03*
X023159Y018155D03*
X023259Y019155D03*
X023159Y020155D03*
X023259Y021155D03*
X020759Y021155D03*
X019659Y023705D03*
X018659Y023605D03*
X017659Y023705D03*
X016659Y023605D03*
X015659Y023705D03*
X015759Y021155D03*
X015659Y020155D03*
X015759Y019155D03*
X015659Y018155D03*
X015759Y017155D03*
X015659Y016155D03*
X011659Y017155D03*
X007659Y017155D03*
X006159Y017155D03*
X004659Y018655D03*
X004659Y019655D03*
X004159Y020655D03*
X002159Y020155D03*
X002159Y019155D03*
X002159Y017155D03*
X002659Y015755D03*
X002659Y014655D03*
X007159Y020655D03*
X007109Y023155D03*
X008209Y023155D03*
X005709Y023155D03*
X004609Y023155D03*
X023609Y012155D03*
X023709Y013155D03*
X023709Y011155D03*
X023609Y010155D03*
D13*
X019659Y012305D03*
X019659Y013155D03*
X019659Y014005D03*
X002159Y013155D03*
X002159Y012155D03*
X002159Y011155D03*
X002159Y010155D03*
X002159Y009155D03*
X002159Y008155D03*
X002159Y007155D03*
D14*
X007159Y006655D03*
X008159Y006655D03*
X009159Y006655D03*
X010159Y006655D03*
X011159Y006655D03*
X012159Y006655D03*
X013159Y006655D03*
X014159Y006655D03*
X015159Y006655D03*
X016159Y006655D03*
X017159Y006655D03*
X018159Y006655D03*
X019159Y006655D03*
X020159Y006655D03*
X020159Y009655D03*
X019159Y009655D03*
X018159Y009655D03*
X017159Y009655D03*
X016159Y009655D03*
X015159Y009655D03*
X014159Y009655D03*
X013159Y009655D03*
X012159Y009655D03*
X011159Y009655D03*
X010159Y009655D03*
X009159Y009655D03*
X008159Y009655D03*
X007159Y009655D03*
X007159Y011155D03*
X008159Y011155D03*
X009159Y011155D03*
X010159Y011155D03*
X012659Y011155D03*
X013659Y011155D03*
X014659Y011155D03*
X015659Y011155D03*
X015659Y014155D03*
X014659Y014155D03*
X013659Y014155D03*
X012659Y014155D03*
X010159Y014155D03*
X009159Y014155D03*
X008159Y014155D03*
X007159Y014155D03*
D15*
X008159Y014155D02*
X008279Y014175D01*
X006519Y015935D01*
X005879Y015935D01*
X005159Y015215D01*
X005159Y015155D01*
X005399Y014415D02*
X002919Y014415D01*
X002679Y014655D01*
X002659Y014655D01*
X002119Y012175D02*
X002159Y012155D01*
X002119Y012175D02*
X001319Y011375D01*
X001319Y008975D01*
X002119Y008175D01*
X002159Y008155D01*
X002199Y009135D02*
X002159Y009155D01*
X002199Y009135D02*
X004519Y006815D01*
X005799Y006815D01*
X006439Y006015D02*
X004999Y006015D01*
X004939Y006045D01*
X004919Y006015D01*
X002439Y006015D01*
X002379Y006045D01*
X005659Y008655D02*
X005719Y008655D01*
X006439Y007935D01*
X006439Y006015D01*
X006479Y005975D01*
X007159Y006655D01*
X008039Y006735D02*
X008119Y006655D01*
X008159Y006655D01*
X008119Y006655D02*
X008119Y004815D01*
X006679Y003375D01*
X006679Y003215D01*
X006659Y003155D01*
X006159Y005155D02*
X006199Y005215D01*
X006199Y005695D01*
X006479Y005975D01*
X008039Y006735D02*
X008039Y007215D01*
X005079Y010175D01*
X002199Y010175D01*
X002159Y010155D01*
X005399Y014415D02*
X006119Y015135D01*
X006159Y015155D01*
X006159Y017155D02*
X006119Y017215D01*
X004679Y018655D01*
X004659Y018655D01*
X004679Y019615D02*
X004659Y019655D01*
X004679Y019615D02*
X006519Y019615D01*
X006919Y019215D01*
X007159Y019215D01*
X007159Y019155D01*
X007159Y019215D02*
X007159Y019295D01*
X009959Y022095D01*
X010599Y022095D01*
X010659Y022155D01*
X007109Y023155D02*
X007079Y023215D01*
X006279Y024015D01*
X005239Y024015D01*
X004679Y023455D01*
X004679Y023215D01*
X004609Y023155D01*
X004679Y023135D01*
X002199Y020655D01*
X002199Y020175D01*
X002159Y020155D01*
X008159Y014155D02*
X008199Y014175D01*
X008279Y014175D01*
X009159Y014175D01*
X009159Y014155D01*
X008599Y013455D02*
X010599Y013455D01*
X015319Y018175D01*
X015639Y018175D01*
X015659Y018155D01*
X015719Y018095D01*
X018119Y018095D01*
X018159Y018155D01*
X018199Y018095D01*
X020599Y018095D01*
X020659Y018155D01*
X020679Y018095D01*
X023159Y018095D01*
X023159Y018155D01*
X023239Y017215D02*
X023259Y017155D01*
X023239Y017215D02*
X020759Y017215D01*
X020759Y017155D01*
X020759Y017215D02*
X018279Y017215D01*
X018259Y017155D01*
X018199Y017215D01*
X015799Y017215D01*
X015759Y017155D01*
X015719Y017215D01*
X014679Y017215D01*
X010679Y013215D01*
X010599Y013215D01*
X008679Y011295D01*
X008679Y010175D01*
X008159Y009655D01*
X007159Y009695D02*
X007159Y009655D01*
X007159Y009695D02*
X006439Y010415D01*
X006439Y011295D01*
X008599Y013455D01*
X009159Y009655D02*
X009159Y007295D01*
X009719Y006735D01*
X009719Y005695D01*
X011159Y004255D01*
X011159Y003705D01*
X012119Y004255D02*
X013719Y004255D01*
X014119Y003855D01*
X014119Y003615D01*
X014159Y003605D01*
X014439Y004495D02*
X015159Y003775D01*
X015159Y003705D01*
X014439Y004495D02*
X012359Y004495D01*
X010199Y006655D01*
X010159Y006655D01*
X010679Y006975D02*
X010679Y009135D01*
X010159Y009655D01*
X011159Y009655D02*
X011159Y007295D01*
X011159Y006655D02*
X012919Y004895D01*
X012919Y005455D02*
X013639Y004735D01*
X016199Y004735D01*
X017159Y003775D01*
X017159Y003705D01*
X015879Y005935D02*
X022279Y005935D01*
X023159Y005055D01*
X023159Y004155D01*
X022919Y005935D02*
X022279Y005935D01*
X022919Y005935D02*
X023159Y006175D01*
X023159Y006155D01*
X023159Y008155D02*
X023159Y008175D01*
X021519Y009815D01*
X020679Y008975D01*
X018519Y008975D01*
X016199Y006655D01*
X016159Y006655D01*
X015879Y005935D02*
X015159Y006655D01*
X012919Y005935D02*
X012919Y005455D01*
X012919Y005935D02*
X012199Y006655D01*
X012159Y006655D01*
X010439Y005935D02*
X012119Y004255D01*
X010439Y005935D02*
X010279Y005935D01*
X011559Y008655D02*
X011559Y009055D01*
X012159Y009655D01*
X013659Y011155D02*
X014199Y011695D01*
X014199Y013375D01*
X017399Y013375D01*
X019239Y015215D01*
X020199Y014495D02*
X021479Y014495D01*
X022119Y013855D01*
X022119Y013695D01*
X022159Y013655D01*
X022199Y013615D01*
X022199Y011695D01*
X022159Y011655D01*
X022119Y010655D02*
X022159Y010655D01*
X022119Y010655D02*
X022119Y010415D01*
X021519Y009815D01*
X019159Y009655D02*
X019159Y010255D01*
X017399Y012015D01*
X016759Y012015D01*
X016279Y011935D02*
X016999Y011215D01*
X017159Y011155D01*
X017159Y011215D01*
X016999Y011215D01*
X016999Y010815D01*
X018159Y009655D01*
X016159Y009655D02*
X015479Y010335D01*
X014519Y010335D01*
X013719Y011135D01*
X013659Y011155D01*
X014659Y011155D02*
X014679Y011215D01*
X015399Y011935D01*
X016279Y011935D01*
X015659Y014155D02*
X015639Y014175D01*
X015639Y016095D01*
X015659Y016155D01*
X015719Y016095D01*
X018119Y016095D01*
X018159Y016155D01*
X018199Y016095D01*
X020599Y016095D01*
X020659Y016155D01*
X020199Y014495D02*
X019719Y014015D01*
X019659Y014005D01*
X014199Y013375D02*
X014199Y014735D01*
X013479Y015455D01*
X015719Y020095D02*
X015659Y020155D01*
X015719Y020095D02*
X018119Y020095D01*
X018159Y020155D01*
X018199Y020095D01*
X020599Y020095D01*
X020659Y020155D01*
D16*
X001329Y008640D02*
X001329Y000825D01*
X024009Y000825D01*
X024009Y009792D01*
X023915Y009697D01*
X023716Y009615D01*
X023502Y009615D01*
X023303Y009697D01*
X023151Y009849D01*
X023069Y010048D01*
X023069Y010263D01*
X023151Y010461D01*
X023303Y010613D01*
X023455Y010676D01*
X023403Y010697D01*
X023251Y010849D01*
X023169Y011048D01*
X023169Y011263D01*
X023251Y011461D01*
X023403Y011613D01*
X023455Y011634D01*
X023303Y011697D01*
X023151Y011849D01*
X023069Y012048D01*
X023069Y012263D01*
X023151Y012461D01*
X023303Y012613D01*
X023455Y012676D01*
X023403Y012697D01*
X023251Y012849D01*
X023169Y013048D01*
X023169Y013263D01*
X023251Y013461D01*
X023403Y013613D01*
X023602Y013695D01*
X023816Y013695D01*
X024009Y013615D01*
X024009Y024481D01*
X001329Y024481D01*
X001329Y011710D01*
X001664Y012045D01*
X001659Y012056D01*
X001659Y012255D01*
X001735Y012438D01*
X001876Y012579D01*
X001955Y012612D01*
X001831Y012663D01*
X001667Y012827D01*
X001579Y013040D01*
X001579Y013270D01*
X001667Y013484D01*
X001831Y013647D01*
X002044Y013735D01*
X002274Y013735D01*
X002488Y013647D01*
X002651Y013484D01*
X002739Y013270D01*
X002739Y013040D01*
X002651Y012827D01*
X002488Y012663D01*
X002363Y012612D01*
X002442Y012579D01*
X002583Y012438D01*
X002659Y012255D01*
X002659Y012056D01*
X002583Y011872D01*
X002442Y011731D01*
X002259Y011655D01*
X002060Y011655D01*
X001964Y011695D01*
X001549Y011280D01*
X001549Y009070D01*
X001726Y008893D01*
X001659Y009056D01*
X001659Y009255D01*
X001735Y009438D01*
X001876Y009579D01*
X002060Y009655D01*
X002259Y009655D01*
X002442Y009731D01*
X002583Y009872D01*
X002613Y009945D01*
X004984Y009945D01*
X005794Y009135D01*
X005758Y009150D01*
X005561Y009150D01*
X005379Y009075D01*
X005239Y008935D01*
X005164Y008754D01*
X005164Y008557D01*
X005239Y008375D01*
X005379Y008235D01*
X005561Y008160D01*
X005758Y008160D01*
X005850Y008199D01*
X006209Y007840D01*
X006209Y006245D01*
X005387Y006245D01*
X005354Y006323D01*
X005217Y006460D01*
X005036Y006535D01*
X004842Y006535D01*
X004661Y006460D01*
X004524Y006323D01*
X004492Y006245D01*
X002827Y006245D01*
X002794Y006323D01*
X002657Y006460D01*
X002476Y006535D01*
X002282Y006535D01*
X002101Y006460D01*
X001964Y006323D01*
X001889Y006143D01*
X001889Y005948D01*
X001964Y005768D01*
X002101Y005630D01*
X002282Y005555D01*
X002476Y005555D01*
X002657Y005630D01*
X002794Y005768D01*
X002802Y005785D01*
X004516Y005785D01*
X004524Y005768D01*
X004661Y005630D01*
X004842Y005555D01*
X005036Y005555D01*
X005217Y005630D01*
X005354Y005768D01*
X005362Y005785D01*
X005969Y005785D01*
X005969Y005661D01*
X005853Y005613D01*
X005701Y005461D01*
X005619Y005263D01*
X005619Y005048D01*
X005701Y004849D01*
X005853Y004697D01*
X006052Y004615D01*
X006266Y004615D01*
X006465Y004697D01*
X006617Y004849D01*
X006699Y005048D01*
X006699Y005263D01*
X006617Y005461D01*
X006465Y005613D01*
X006449Y005620D01*
X006574Y005745D01*
X006574Y005745D01*
X006709Y005880D01*
X007045Y006215D01*
X007070Y006205D01*
X007249Y006205D01*
X007414Y006274D01*
X007541Y006400D01*
X007609Y006566D01*
X007609Y006745D01*
X007541Y006910D01*
X007414Y007037D01*
X007249Y007105D01*
X007070Y007105D01*
X006904Y007037D01*
X006778Y006910D01*
X006709Y006745D01*
X006709Y006566D01*
X006719Y006541D01*
X006669Y006490D01*
X006669Y008030D01*
X006534Y008165D01*
X006151Y008549D01*
X006154Y008557D01*
X006154Y008754D01*
X006139Y008790D01*
X007809Y007120D01*
X007809Y006941D01*
X007778Y006910D01*
X007709Y006745D01*
X007709Y006566D01*
X007778Y006400D01*
X007889Y006289D01*
X007889Y004910D01*
X006674Y003695D01*
X006552Y003695D01*
X006353Y003613D01*
X006201Y003461D01*
X006159Y003359D01*
X006117Y003461D01*
X005965Y003613D01*
X005766Y003695D01*
X005552Y003695D01*
X005353Y003613D01*
X005201Y003461D01*
X005159Y003359D01*
X005117Y003461D01*
X004965Y003613D01*
X004766Y003695D01*
X004552Y003695D01*
X004353Y003613D01*
X004201Y003461D01*
X004119Y003263D01*
X004119Y003048D01*
X004201Y002849D01*
X004353Y002697D01*
X004552Y002615D01*
X004766Y002615D01*
X004965Y002697D01*
X005117Y002849D01*
X005159Y002951D01*
X005201Y002849D01*
X005353Y002697D01*
X005552Y002615D01*
X005766Y002615D01*
X005965Y002697D01*
X006117Y002849D01*
X006159Y002951D01*
X006201Y002849D01*
X006353Y002697D01*
X006552Y002615D01*
X006766Y002615D01*
X006965Y002697D01*
X007117Y002849D01*
X007170Y002978D01*
X007177Y002955D01*
X007214Y002883D01*
X007262Y002816D01*
X007320Y002758D01*
X007386Y002710D01*
X007459Y002673D01*
X007537Y002648D01*
X007609Y002637D01*
X007609Y003105D01*
X007709Y003105D01*
X007709Y002637D01*
X007781Y002648D01*
X007859Y002673D01*
X007932Y002710D01*
X007998Y002758D01*
X008056Y002816D01*
X008102Y002880D01*
X008133Y002804D01*
X008308Y002629D01*
X008536Y002535D01*
X008782Y002535D01*
X009010Y002629D01*
X009159Y002778D01*
X009308Y002629D01*
X009536Y002535D01*
X009782Y002535D01*
X010010Y002629D01*
X010185Y002804D01*
X010279Y003032D01*
X010279Y003278D01*
X010185Y003506D01*
X010010Y003681D01*
X009782Y003775D01*
X009536Y003775D01*
X009308Y003681D01*
X009159Y003532D01*
X009010Y003681D01*
X008782Y003775D01*
X008536Y003775D01*
X008308Y003681D01*
X008133Y003506D01*
X008102Y003430D01*
X008056Y003494D01*
X007998Y003552D01*
X007932Y003600D01*
X007859Y003637D01*
X007781Y003662D01*
X007709Y003674D01*
X007709Y003205D01*
X007609Y003205D01*
X007609Y003674D01*
X007537Y003662D01*
X007459Y003637D01*
X007386Y003600D01*
X007320Y003552D01*
X007262Y003494D01*
X007214Y003428D01*
X007177Y003355D01*
X007170Y003333D01*
X007117Y003461D01*
X007103Y003474D01*
X008349Y004720D01*
X008349Y004910D01*
X008349Y006247D01*
X008414Y006274D01*
X008541Y006400D01*
X008609Y006566D01*
X008609Y006745D01*
X008541Y006910D01*
X008414Y007037D01*
X008269Y007097D01*
X008269Y007310D01*
X008134Y007445D01*
X005174Y010405D01*
X004984Y010405D01*
X002597Y010405D01*
X002583Y010438D01*
X002442Y010579D01*
X002259Y010655D01*
X002060Y010655D01*
X001876Y010579D01*
X001735Y010438D01*
X001659Y010255D01*
X001659Y010056D01*
X001735Y009872D01*
X001876Y009731D01*
X002060Y009655D01*
X002259Y009655D01*
X002442Y009579D01*
X002583Y009438D01*
X002659Y009255D01*
X002659Y009056D01*
X002643Y009017D01*
X004614Y007045D01*
X005506Y007045D01*
X005589Y007129D01*
X005665Y007160D01*
X005561Y007160D01*
X005379Y007235D01*
X005239Y007375D01*
X005164Y007557D01*
X005164Y007754D01*
X005239Y007935D01*
X005379Y008075D01*
X005561Y008150D01*
X005758Y008150D01*
X005939Y008075D01*
X006079Y007935D01*
X006154Y007754D01*
X006154Y007557D01*
X006079Y007375D01*
X005939Y007235D01*
X005818Y007185D01*
X005873Y007185D01*
X006009Y007129D01*
X006113Y007025D01*
X006169Y006889D01*
X006169Y006741D01*
X006113Y006606D01*
X006009Y006501D01*
X005873Y006445D01*
X005725Y006445D01*
X005589Y006501D01*
X005506Y006585D01*
X004424Y006585D01*
X004289Y006720D01*
X002592Y008417D01*
X002659Y008255D01*
X002659Y008056D01*
X002583Y007872D01*
X002442Y007731D01*
X002259Y007655D01*
X002060Y007655D01*
X001876Y007579D01*
X001735Y007438D01*
X001659Y007255D01*
X001659Y007056D01*
X001735Y006872D01*
X001876Y006731D01*
X002060Y006655D01*
X002259Y006655D01*
X002442Y006731D01*
X002583Y006872D01*
X002659Y007056D01*
X002659Y007255D01*
X002583Y007438D01*
X002442Y007579D01*
X002259Y007655D01*
X002060Y007655D01*
X001876Y007731D01*
X001735Y007872D01*
X001659Y008056D01*
X001659Y008255D01*
X001675Y008294D01*
X001329Y008640D01*
X001329Y008637D02*
X001332Y008637D01*
X001329Y008539D02*
X001430Y008539D01*
X001529Y008440D02*
X001329Y008440D01*
X001329Y008341D02*
X001627Y008341D01*
X001659Y008243D02*
X001329Y008243D01*
X001329Y008144D02*
X001659Y008144D01*
X001663Y008046D02*
X001329Y008046D01*
X001329Y007947D02*
X001704Y007947D01*
X001758Y007849D02*
X001329Y007849D01*
X001329Y007750D02*
X001857Y007750D01*
X001850Y007553D02*
X001329Y007553D01*
X001329Y007455D02*
X001751Y007455D01*
X001701Y007356D02*
X001329Y007356D01*
X001329Y007258D02*
X001660Y007258D01*
X001659Y007159D02*
X001329Y007159D01*
X001329Y007060D02*
X001659Y007060D01*
X001698Y006962D02*
X001329Y006962D01*
X001329Y006863D02*
X001744Y006863D01*
X001842Y006765D02*
X001329Y006765D01*
X001329Y006666D02*
X002033Y006666D01*
X002122Y006469D02*
X001329Y006469D01*
X001329Y006371D02*
X002012Y006371D01*
X001943Y006272D02*
X001329Y006272D01*
X001329Y006174D02*
X001902Y006174D01*
X001889Y006075D02*
X001329Y006075D01*
X001329Y005976D02*
X001889Y005976D01*
X001918Y005878D02*
X001329Y005878D01*
X001329Y005779D02*
X001959Y005779D01*
X002050Y005681D02*
X001329Y005681D01*
X001329Y005582D02*
X002216Y005582D01*
X002542Y005582D02*
X004776Y005582D01*
X004610Y005681D02*
X002708Y005681D01*
X002799Y005779D02*
X004519Y005779D01*
X004503Y006272D02*
X002815Y006272D01*
X002746Y006371D02*
X004572Y006371D01*
X004682Y006469D02*
X002636Y006469D01*
X002476Y006765D02*
X004244Y006765D01*
X004146Y006863D02*
X002574Y006863D01*
X002620Y006962D02*
X004047Y006962D01*
X003948Y007060D02*
X002659Y007060D01*
X002659Y007159D02*
X003850Y007159D01*
X003751Y007258D02*
X002658Y007258D01*
X002617Y007356D02*
X003653Y007356D01*
X003554Y007455D02*
X002567Y007455D01*
X002468Y007553D02*
X003456Y007553D01*
X003357Y007652D02*
X002267Y007652D01*
X002051Y007652D02*
X001329Y007652D01*
X002461Y007750D02*
X003259Y007750D01*
X003160Y007849D02*
X002560Y007849D01*
X002614Y007947D02*
X003062Y007947D01*
X002963Y008046D02*
X002655Y008046D01*
X002659Y008144D02*
X002864Y008144D01*
X002766Y008243D02*
X002659Y008243D01*
X002667Y008341D02*
X002623Y008341D01*
X002924Y008736D02*
X005164Y008736D01*
X005164Y008637D02*
X003022Y008637D01*
X003121Y008539D02*
X005171Y008539D01*
X005212Y008440D02*
X003219Y008440D01*
X003318Y008341D02*
X005273Y008341D01*
X005371Y008243D02*
X003416Y008243D01*
X003515Y008144D02*
X005547Y008144D01*
X005350Y008046D02*
X003614Y008046D01*
X003712Y007947D02*
X005251Y007947D01*
X005204Y007849D02*
X003811Y007849D01*
X003909Y007750D02*
X005164Y007750D01*
X005164Y007652D02*
X004008Y007652D01*
X004106Y007553D02*
X005165Y007553D01*
X005206Y007455D02*
X004205Y007455D01*
X004303Y007356D02*
X005258Y007356D01*
X005357Y007258D02*
X004402Y007258D01*
X004500Y007159D02*
X005663Y007159D01*
X005521Y007060D02*
X004599Y007060D01*
X004343Y006666D02*
X002285Y006666D01*
X001329Y006568D02*
X005523Y006568D01*
X005667Y006469D02*
X005196Y006469D01*
X005306Y006371D02*
X006209Y006371D01*
X006209Y006469D02*
X005931Y006469D01*
X006075Y006568D02*
X006209Y006568D01*
X006209Y006666D02*
X006138Y006666D01*
X006169Y006765D02*
X006209Y006765D01*
X006209Y006863D02*
X006169Y006863D01*
X006139Y006962D02*
X006209Y006962D01*
X006209Y007060D02*
X006077Y007060D01*
X006209Y007159D02*
X005936Y007159D01*
X005961Y007258D02*
X006209Y007258D01*
X006209Y007356D02*
X006060Y007356D01*
X006112Y007455D02*
X006209Y007455D01*
X006209Y007553D02*
X006153Y007553D01*
X006154Y007652D02*
X006209Y007652D01*
X006209Y007750D02*
X006154Y007750D01*
X006115Y007849D02*
X006200Y007849D01*
X006102Y007947D02*
X006067Y007947D01*
X006003Y008046D02*
X005968Y008046D01*
X005904Y008144D02*
X005771Y008144D01*
X006161Y008539D02*
X006390Y008539D01*
X006292Y008637D02*
X006154Y008637D01*
X006154Y008736D02*
X006193Y008736D01*
X006259Y008440D02*
X006489Y008440D01*
X006587Y008341D02*
X006358Y008341D01*
X006456Y008243D02*
X006686Y008243D01*
X006784Y008144D02*
X006555Y008144D01*
X006654Y008046D02*
X006883Y008046D01*
X006982Y007947D02*
X006669Y007947D01*
X006669Y007849D02*
X007080Y007849D01*
X007179Y007750D02*
X006669Y007750D01*
X006669Y007652D02*
X007277Y007652D01*
X007376Y007553D02*
X006669Y007553D01*
X006669Y007455D02*
X007474Y007455D01*
X007573Y007356D02*
X006669Y007356D01*
X006669Y007258D02*
X007671Y007258D01*
X007770Y007159D02*
X006669Y007159D01*
X006669Y007060D02*
X006962Y007060D01*
X006829Y006962D02*
X006669Y006962D01*
X006669Y006863D02*
X006758Y006863D01*
X006717Y006765D02*
X006669Y006765D01*
X006669Y006666D02*
X006709Y006666D01*
X006709Y006568D02*
X006669Y006568D01*
X007003Y006174D02*
X007889Y006174D01*
X007889Y006272D02*
X007410Y006272D01*
X007511Y006371D02*
X007807Y006371D01*
X007749Y006469D02*
X007569Y006469D01*
X007609Y006568D02*
X007709Y006568D01*
X007709Y006666D02*
X007609Y006666D01*
X007601Y006765D02*
X007717Y006765D01*
X007758Y006863D02*
X007560Y006863D01*
X007489Y006962D02*
X007809Y006962D01*
X007809Y007060D02*
X007356Y007060D01*
X008026Y007553D02*
X008929Y007553D01*
X008929Y007455D02*
X008125Y007455D01*
X008223Y007356D02*
X008929Y007356D01*
X008929Y007258D02*
X008269Y007258D01*
X008269Y007159D02*
X008970Y007159D01*
X008929Y007200D02*
X009037Y007092D01*
X008904Y007037D01*
X008778Y006910D01*
X008709Y006745D01*
X008709Y006566D01*
X008778Y006400D01*
X008904Y006274D01*
X009070Y006205D01*
X009249Y006205D01*
X009414Y006274D01*
X009489Y006349D01*
X009489Y005790D01*
X009489Y005600D01*
X010905Y004184D01*
X010853Y004163D01*
X010701Y004011D01*
X010619Y003813D01*
X010619Y003598D01*
X010701Y003399D01*
X010853Y003247D01*
X010982Y003194D01*
X010959Y003187D01*
X010886Y003150D01*
X010820Y003102D01*
X010762Y003044D01*
X010714Y002978D01*
X010677Y002905D01*
X010652Y002827D01*
X010640Y002755D01*
X011109Y002755D01*
X011109Y002655D01*
X010640Y002655D01*
X010652Y002583D01*
X010677Y002505D01*
X010714Y002433D01*
X010762Y002366D01*
X010820Y002308D01*
X010884Y002262D01*
X010808Y002231D01*
X010633Y002056D01*
X010539Y001828D01*
X010539Y001582D01*
X010633Y001354D01*
X010808Y001179D01*
X011036Y001085D01*
X011282Y001085D01*
X011510Y001179D01*
X011619Y001288D01*
X011633Y001254D01*
X011808Y001079D01*
X012036Y000985D01*
X012282Y000985D01*
X012510Y001079D01*
X012685Y001254D01*
X012699Y001288D01*
X012808Y001179D01*
X013036Y001085D01*
X013282Y001085D01*
X013510Y001179D01*
X013619Y001288D01*
X013633Y001254D01*
X013808Y001079D01*
X014036Y000985D01*
X014282Y000985D01*
X014510Y001079D01*
X014685Y001254D01*
X014699Y001288D01*
X014808Y001179D01*
X015036Y001085D01*
X015282Y001085D01*
X015510Y001179D01*
X015619Y001288D01*
X015633Y001254D01*
X015808Y001079D01*
X016036Y000985D01*
X016282Y000985D01*
X016510Y001079D01*
X016685Y001254D01*
X016699Y001288D01*
X016808Y001179D01*
X017036Y001085D01*
X017282Y001085D01*
X017510Y001179D01*
X017619Y001288D01*
X017633Y001254D01*
X017808Y001079D01*
X018036Y000985D01*
X018282Y000985D01*
X018510Y001079D01*
X018685Y001254D01*
X018699Y001288D01*
X018808Y001179D01*
X019036Y001085D01*
X019282Y001085D01*
X019510Y001179D01*
X019685Y001354D01*
X019779Y001582D01*
X019779Y001828D01*
X019685Y002056D01*
X019510Y002231D01*
X019434Y002262D01*
X019498Y002308D01*
X019556Y002366D01*
X019604Y002433D01*
X019641Y002505D01*
X019666Y002583D01*
X019678Y002655D01*
X019209Y002655D01*
X019209Y002755D01*
X019678Y002755D01*
X019666Y002827D01*
X019641Y002905D01*
X019604Y002978D01*
X019556Y003044D01*
X019498Y003102D01*
X019432Y003150D01*
X019359Y003187D01*
X019336Y003194D01*
X019465Y003247D01*
X019617Y003399D01*
X019699Y003598D01*
X019699Y003813D01*
X019617Y004011D01*
X019465Y004163D01*
X019266Y004245D01*
X019052Y004245D01*
X018853Y004163D01*
X018701Y004011D01*
X018638Y003859D01*
X018617Y003911D01*
X018465Y004063D01*
X018266Y004145D01*
X018052Y004145D01*
X017853Y004063D01*
X017701Y003911D01*
X017680Y003859D01*
X017617Y004011D01*
X017465Y004163D01*
X017266Y004245D01*
X017052Y004245D01*
X017025Y004234D01*
X016294Y004965D01*
X016104Y004965D01*
X013734Y004965D01*
X013488Y005211D01*
X013548Y005192D01*
X013622Y005180D01*
X013640Y005180D01*
X013640Y005636D01*
X013678Y005636D01*
X013678Y005180D01*
X013696Y005180D01*
X013770Y005192D01*
X013841Y005215D01*
X013908Y005249D01*
X013968Y005293D01*
X014021Y005346D01*
X014065Y005406D01*
X014099Y005473D01*
X014105Y005490D01*
X014172Y005329D01*
X014333Y005168D01*
X014545Y005080D01*
X014773Y005080D01*
X014985Y005168D01*
X015146Y005329D01*
X015234Y005541D01*
X015234Y005769D01*
X015146Y005981D01*
X014985Y006143D01*
X014773Y006230D01*
X014545Y006230D01*
X014333Y006143D01*
X014172Y005981D01*
X014105Y005820D01*
X014099Y005837D01*
X014065Y005904D01*
X014021Y005965D01*
X013968Y006017D01*
X013908Y006061D01*
X013841Y006095D01*
X013770Y006118D01*
X013696Y006130D01*
X013678Y006130D01*
X013678Y005674D01*
X013640Y005674D01*
X013640Y005636D01*
X013184Y005636D01*
X013184Y005618D01*
X013196Y005544D01*
X013215Y005484D01*
X013149Y005550D01*
X013149Y006030D01*
X013014Y006165D01*
X012609Y006570D01*
X012609Y006745D01*
X012541Y006910D01*
X012414Y007037D01*
X012249Y007105D01*
X012070Y007105D01*
X011904Y007037D01*
X011778Y006910D01*
X011709Y006745D01*
X011709Y006566D01*
X011778Y006400D01*
X011904Y006274D01*
X012070Y006205D01*
X012249Y006205D01*
X012302Y006227D01*
X012689Y005840D01*
X012689Y005550D01*
X012689Y005450D01*
X011599Y006541D01*
X011609Y006566D01*
X011609Y006745D01*
X011541Y006910D01*
X011419Y007032D01*
X011473Y007086D01*
X011529Y007221D01*
X011529Y007369D01*
X011473Y007505D01*
X011389Y007588D01*
X011389Y008325D01*
X011485Y008285D01*
X011633Y008285D01*
X011769Y008341D01*
X013693Y008341D01*
X013709Y008325D02*
X013709Y006954D01*
X013629Y006761D01*
X013629Y006550D01*
X013710Y006355D01*
X013859Y006206D01*
X014054Y006125D01*
X014264Y006125D01*
X014459Y006206D01*
X014608Y006355D01*
X014689Y006550D01*
X014689Y006761D01*
X014608Y006955D01*
X014529Y007035D01*
X014529Y008414D01*
X014529Y008577D01*
X014467Y008727D01*
X013676Y009518D01*
X013689Y009550D01*
X013689Y009761D01*
X013608Y009955D01*
X013459Y010104D01*
X013264Y010185D01*
X013054Y010185D01*
X012859Y010104D01*
X012710Y009955D01*
X012629Y009761D01*
X012629Y009550D01*
X012710Y009355D01*
X012790Y009275D01*
X012811Y009223D01*
X012927Y009108D01*
X013709Y008325D01*
X013709Y008243D02*
X011389Y008243D01*
X011389Y008144D02*
X013709Y008144D01*
X013709Y008046D02*
X011389Y008046D01*
X011389Y007947D02*
X013709Y007947D01*
X013709Y007849D02*
X011389Y007849D01*
X011389Y007750D02*
X013709Y007750D01*
X013709Y007652D02*
X011389Y007652D01*
X011424Y007553D02*
X013709Y007553D01*
X013709Y007455D02*
X011493Y007455D01*
X011529Y007356D02*
X013709Y007356D01*
X013709Y007258D02*
X011529Y007258D01*
X011503Y007159D02*
X013709Y007159D01*
X013709Y007060D02*
X013303Y007060D01*
X013324Y007054D02*
X013260Y007074D01*
X013193Y007085D01*
X013189Y007085D01*
X013189Y006685D01*
X013589Y006685D01*
X013589Y006689D01*
X013578Y006756D01*
X013558Y006820D01*
X013527Y006880D01*
X013487Y006935D01*
X013439Y006983D01*
X013384Y007023D01*
X013324Y007054D01*
X013189Y007060D02*
X013129Y007060D01*
X013129Y007085D02*
X013125Y007085D01*
X013058Y007074D01*
X012994Y007054D01*
X012934Y007023D01*
X012879Y006983D01*
X012831Y006935D01*
X012791Y006880D01*
X012761Y006820D01*
X012740Y006756D01*
X012729Y006689D01*
X012729Y006685D01*
X013129Y006685D01*
X013129Y006625D01*
X013189Y006625D01*
X013189Y006225D01*
X013193Y006225D01*
X013260Y006236D01*
X013324Y006257D01*
X013384Y006287D01*
X013439Y006327D01*
X013487Y006375D01*
X013527Y006430D01*
X013558Y006490D01*
X013578Y006554D01*
X013589Y006621D01*
X013589Y006625D01*
X013189Y006625D01*
X013189Y006685D01*
X013129Y006685D01*
X013129Y007085D01*
X013015Y007060D02*
X012356Y007060D01*
X012489Y006962D02*
X012858Y006962D01*
X012783Y006863D02*
X012560Y006863D01*
X012601Y006765D02*
X012743Y006765D01*
X012729Y006625D02*
X012729Y006621D01*
X012740Y006554D01*
X012761Y006490D01*
X012791Y006430D01*
X012831Y006375D01*
X012879Y006327D01*
X012934Y006287D01*
X012994Y006257D01*
X013058Y006236D01*
X013125Y006225D01*
X013129Y006225D01*
X013129Y006625D01*
X012729Y006625D01*
X012738Y006568D02*
X012612Y006568D01*
X012609Y006666D02*
X013129Y006666D01*
X013189Y006666D02*
X013629Y006666D01*
X013629Y006568D02*
X013581Y006568D01*
X013547Y006469D02*
X013662Y006469D01*
X013703Y006371D02*
X013483Y006371D01*
X013354Y006272D02*
X013793Y006272D01*
X013937Y006174D02*
X013006Y006174D01*
X012964Y006272D02*
X012907Y006272D01*
X012835Y006371D02*
X012809Y006371D01*
X012771Y006469D02*
X012710Y006469D01*
X012454Y006075D02*
X012064Y006075D01*
X011966Y006174D02*
X012355Y006174D01*
X012163Y005976D02*
X012552Y005976D01*
X012651Y005878D02*
X012261Y005878D01*
X012360Y005779D02*
X012689Y005779D01*
X012689Y005681D02*
X012459Y005681D01*
X012557Y005582D02*
X012689Y005582D01*
X012689Y005484D02*
X012656Y005484D01*
X013149Y005582D02*
X013190Y005582D01*
X013184Y005674D02*
X013640Y005674D01*
X013640Y006130D01*
X013622Y006130D01*
X013548Y006118D01*
X013477Y006095D01*
X013410Y006061D01*
X013350Y006017D01*
X013297Y005965D01*
X013253Y005904D01*
X013219Y005837D01*
X013196Y005766D01*
X013184Y005692D01*
X013184Y005674D01*
X013184Y005681D02*
X013149Y005681D01*
X013149Y005779D02*
X013200Y005779D01*
X013239Y005878D02*
X013149Y005878D01*
X013149Y005976D02*
X013309Y005976D01*
X013437Y006075D02*
X013104Y006075D01*
X013129Y006272D02*
X013189Y006272D01*
X013189Y006371D02*
X013129Y006371D01*
X013129Y006469D02*
X013189Y006469D01*
X013189Y006568D02*
X013129Y006568D01*
X013129Y006765D02*
X013189Y006765D01*
X013189Y006863D02*
X013129Y006863D01*
X013129Y006962D02*
X013189Y006962D01*
X013460Y006962D02*
X013709Y006962D01*
X013672Y006863D02*
X013536Y006863D01*
X013576Y006765D02*
X013631Y006765D01*
X013640Y006075D02*
X013678Y006075D01*
X013678Y005976D02*
X013640Y005976D01*
X013640Y005878D02*
X013678Y005878D01*
X013678Y005779D02*
X013640Y005779D01*
X013640Y005681D02*
X013678Y005681D01*
X013678Y005582D02*
X013640Y005582D01*
X013640Y005484D02*
X013678Y005484D01*
X013678Y005385D02*
X013640Y005385D01*
X013640Y005287D02*
X013678Y005287D01*
X013678Y005188D02*
X013640Y005188D01*
X013571Y005188D02*
X013511Y005188D01*
X013610Y005090D02*
X014522Y005090D01*
X014313Y005188D02*
X013747Y005188D01*
X013708Y004991D02*
X022898Y004991D01*
X022929Y004960D02*
X022929Y004596D01*
X022879Y004575D01*
X022739Y004435D01*
X022702Y004346D01*
X022646Y004481D01*
X022485Y004643D01*
X022273Y004730D01*
X022045Y004730D01*
X021833Y004643D01*
X021672Y004481D01*
X021584Y004269D01*
X021584Y004041D01*
X021672Y003829D01*
X021833Y003668D01*
X022045Y003580D01*
X022273Y003580D01*
X022485Y003668D01*
X022646Y003829D01*
X022702Y003964D01*
X022739Y003875D01*
X022879Y003735D01*
X023061Y003660D01*
X023258Y003660D01*
X023439Y003735D01*
X023579Y003875D01*
X023654Y004057D01*
X023654Y004254D01*
X023579Y004435D01*
X023439Y004575D01*
X023389Y004596D01*
X023389Y005150D01*
X023254Y005285D01*
X022834Y005705D01*
X022952Y005705D01*
X023061Y005660D01*
X023258Y005660D01*
X023439Y005735D01*
X023579Y005875D01*
X023654Y006057D01*
X023654Y006254D01*
X023579Y006435D01*
X023439Y006575D01*
X023258Y006650D01*
X023061Y006650D01*
X022879Y006575D01*
X022739Y006435D01*
X022664Y006254D01*
X022664Y006165D01*
X022374Y006165D01*
X022184Y006165D01*
X015974Y006165D01*
X015599Y006541D01*
X015609Y006566D01*
X015609Y006745D01*
X015541Y006910D01*
X015414Y007037D01*
X015249Y007105D01*
X015070Y007105D01*
X014904Y007037D01*
X014778Y006910D01*
X014709Y006745D01*
X014709Y006566D01*
X014778Y006400D01*
X014904Y006274D01*
X015070Y006205D01*
X015249Y006205D01*
X015273Y006215D01*
X015649Y005840D01*
X015649Y005840D01*
X015784Y005705D01*
X022184Y005705D01*
X022929Y004960D01*
X022929Y004892D02*
X016367Y004892D01*
X016465Y004794D02*
X022929Y004794D01*
X022929Y004695D02*
X022357Y004695D01*
X022530Y004597D02*
X022929Y004597D01*
X022802Y004498D02*
X022629Y004498D01*
X022680Y004400D02*
X022725Y004400D01*
X022726Y003907D02*
X022679Y003907D01*
X022626Y003809D02*
X022806Y003809D01*
X022940Y003710D02*
X022527Y003710D01*
X022349Y003611D02*
X024009Y003611D01*
X024009Y003513D02*
X021135Y003513D01*
X021149Y003548D02*
X021067Y003349D01*
X020915Y003197D01*
X020863Y003176D01*
X021015Y003113D01*
X021167Y002961D01*
X021249Y002763D01*
X021249Y002548D01*
X021167Y002349D01*
X021015Y002197D01*
X020863Y002134D01*
X020915Y002113D01*
X021067Y001961D01*
X021149Y001763D01*
X021149Y001548D01*
X021067Y001349D01*
X020915Y001197D01*
X020716Y001115D01*
X020502Y001115D01*
X020303Y001197D01*
X020151Y001349D01*
X020069Y001548D01*
X020069Y001763D01*
X020151Y001961D01*
X020303Y002113D01*
X020455Y002176D01*
X020403Y002197D01*
X020251Y002349D01*
X020169Y002548D01*
X020169Y002763D01*
X020251Y002961D01*
X020403Y003113D01*
X020455Y003134D01*
X020303Y003197D01*
X020151Y003349D01*
X020069Y003548D01*
X020069Y003763D01*
X020151Y003961D01*
X020303Y004113D01*
X020502Y004195D01*
X020716Y004195D01*
X020915Y004113D01*
X021067Y003961D01*
X021149Y003763D01*
X021149Y003548D01*
X021149Y003611D02*
X021969Y003611D01*
X021791Y003710D02*
X021149Y003710D01*
X021130Y003809D02*
X021692Y003809D01*
X021639Y003907D02*
X021089Y003907D01*
X021022Y004006D02*
X021599Y004006D01*
X021584Y004104D02*
X020924Y004104D01*
X020294Y004104D02*
X019524Y004104D01*
X019619Y004006D02*
X020196Y004006D01*
X020129Y003907D02*
X019660Y003907D01*
X019699Y003809D02*
X020088Y003809D01*
X020069Y003710D02*
X019699Y003710D01*
X019699Y003611D02*
X020069Y003611D01*
X020083Y003513D02*
X019664Y003513D01*
X019623Y003414D02*
X020124Y003414D01*
X020185Y003316D02*
X019533Y003316D01*
X019392Y003217D02*
X020283Y003217D01*
X020417Y003119D02*
X019474Y003119D01*
X019573Y003020D02*
X020310Y003020D01*
X020235Y002922D02*
X019632Y002922D01*
X019667Y002823D02*
X020194Y002823D01*
X020169Y002725D02*
X019209Y002725D01*
X019648Y002527D02*
X020177Y002527D01*
X020169Y002626D02*
X019673Y002626D01*
X019601Y002429D02*
X020218Y002429D01*
X020270Y002330D02*
X019520Y002330D01*
X019508Y002232D02*
X020369Y002232D01*
X020352Y002133D02*
X019608Y002133D01*
X019694Y002035D02*
X020225Y002035D01*
X020141Y001936D02*
X019734Y001936D01*
X019775Y001838D02*
X020100Y001838D01*
X020069Y001739D02*
X019779Y001739D01*
X019779Y001641D02*
X020069Y001641D01*
X020071Y001542D02*
X019763Y001542D01*
X019722Y001443D02*
X020112Y001443D01*
X020156Y001345D02*
X019676Y001345D01*
X019577Y001246D02*
X020254Y001246D01*
X020423Y001148D02*
X019434Y001148D01*
X018884Y001148D02*
X018579Y001148D01*
X018677Y001246D02*
X018741Y001246D01*
X018437Y001049D02*
X024009Y001049D01*
X024009Y000951D02*
X001329Y000951D01*
X001329Y001049D02*
X011881Y001049D01*
X011739Y001148D02*
X011434Y001148D01*
X011577Y001246D02*
X011641Y001246D01*
X010884Y001148D02*
X001329Y001148D01*
X001329Y001246D02*
X002407Y001246D01*
X002493Y001215D02*
X002572Y001215D01*
X002659Y001215D01*
X002825Y001215D01*
X003136Y001329D01*
X003136Y001329D01*
X003390Y001542D01*
X010556Y001542D01*
X010539Y001641D02*
X003447Y001641D01*
X003504Y001739D02*
X010539Y001739D01*
X010543Y001838D02*
X003558Y001838D01*
X003556Y001829D02*
X003614Y002155D01*
X003556Y002482D01*
X003390Y002769D01*
X003136Y002982D01*
X002825Y003095D01*
X002825Y003095D01*
X002746Y003095D01*
X002659Y003095D01*
X002605Y003095D01*
X002572Y003095D01*
X002493Y003095D01*
X002182Y002982D01*
X002182Y002982D01*
X001928Y002769D01*
X001928Y002769D01*
X001928Y002769D01*
X001762Y002482D01*
X001762Y002482D01*
X001705Y002155D01*
X001762Y001829D01*
X001762Y001829D01*
X001928Y001542D01*
X001329Y001542D01*
X001329Y001641D02*
X001871Y001641D01*
X001814Y001739D02*
X001329Y001739D01*
X001329Y001838D02*
X001761Y001838D01*
X001743Y001936D02*
X001329Y001936D01*
X001329Y002035D02*
X001726Y002035D01*
X001708Y002133D02*
X001329Y002133D01*
X001329Y002232D02*
X001718Y002232D01*
X001705Y002155D02*
X001705Y002155D01*
X001735Y002330D02*
X001329Y002330D01*
X001329Y002429D02*
X001753Y002429D01*
X001789Y002527D02*
X001329Y002527D01*
X001329Y002626D02*
X001846Y002626D01*
X001902Y002725D02*
X001329Y002725D01*
X001329Y002823D02*
X001993Y002823D01*
X002110Y002922D02*
X001329Y002922D01*
X001329Y003020D02*
X002287Y003020D01*
X002493Y003095D02*
X002493Y003095D01*
X002492Y003695D02*
X002266Y003695D01*
X002056Y003782D01*
X001896Y003942D01*
X001809Y004152D01*
X001809Y004379D01*
X001896Y004588D01*
X002056Y004748D01*
X002266Y004835D01*
X002492Y004835D01*
X002702Y004748D01*
X002705Y004745D01*
X004613Y004745D01*
X004616Y004748D01*
X004826Y004835D01*
X005052Y004835D01*
X005262Y004748D01*
X005422Y004588D01*
X005509Y004379D01*
X005509Y004152D01*
X005422Y003942D01*
X005262Y003782D01*
X005052Y003695D01*
X004826Y003695D01*
X004616Y003782D01*
X004473Y003925D01*
X002845Y003925D01*
X002702Y003782D01*
X002492Y003695D01*
X002528Y003710D02*
X004790Y003710D01*
X004966Y003611D02*
X005352Y003611D01*
X005253Y003513D02*
X005065Y003513D01*
X005136Y003414D02*
X005182Y003414D01*
X005088Y003710D02*
X006689Y003710D01*
X006787Y003809D02*
X005289Y003809D01*
X005387Y003907D02*
X006886Y003907D01*
X006984Y004006D02*
X005448Y004006D01*
X005489Y004104D02*
X007083Y004104D01*
X007181Y004203D02*
X005509Y004203D01*
X005509Y004301D02*
X007280Y004301D01*
X007378Y004400D02*
X005500Y004400D01*
X005459Y004498D02*
X007477Y004498D01*
X007576Y004597D02*
X005413Y004597D01*
X005315Y004695D02*
X005858Y004695D01*
X005757Y004794D02*
X005152Y004794D01*
X004726Y004794D02*
X002592Y004794D01*
X002166Y004794D02*
X001329Y004794D01*
X001329Y004892D02*
X005683Y004892D01*
X005643Y004991D02*
X001329Y004991D01*
X001329Y005090D02*
X005619Y005090D01*
X005619Y005188D02*
X001329Y005188D01*
X001329Y005287D02*
X005629Y005287D01*
X005670Y005385D02*
X001329Y005385D01*
X001329Y005484D02*
X005724Y005484D01*
X005823Y005582D02*
X005102Y005582D01*
X005268Y005681D02*
X005969Y005681D01*
X005969Y005779D02*
X005359Y005779D01*
X005375Y006272D02*
X006209Y006272D01*
X006609Y005779D02*
X007889Y005779D01*
X007889Y005681D02*
X006510Y005681D01*
X006496Y005582D02*
X007889Y005582D01*
X007889Y005484D02*
X006594Y005484D01*
X006648Y005385D02*
X007889Y005385D01*
X007889Y005287D02*
X006689Y005287D01*
X006699Y005188D02*
X007889Y005188D01*
X007889Y005090D02*
X006699Y005090D01*
X006676Y004991D02*
X007889Y004991D01*
X007871Y004892D02*
X006635Y004892D01*
X006562Y004794D02*
X007773Y004794D01*
X007674Y004695D02*
X006460Y004695D01*
X006352Y003611D02*
X005966Y003611D01*
X006065Y003513D02*
X006253Y003513D01*
X006182Y003414D02*
X006136Y003414D01*
X006147Y002922D02*
X006171Y002922D01*
X006227Y002823D02*
X006091Y002823D01*
X005992Y002725D02*
X006326Y002725D01*
X006525Y002626D02*
X005793Y002626D01*
X005525Y002626D02*
X004793Y002626D01*
X004992Y002725D02*
X005326Y002725D01*
X005227Y002823D02*
X005091Y002823D01*
X005147Y002922D02*
X005171Y002922D01*
X004525Y002626D02*
X003473Y002626D01*
X003529Y002527D02*
X010670Y002527D01*
X010645Y002626D02*
X010002Y002626D01*
X010105Y002725D02*
X011109Y002725D01*
X010686Y002922D02*
X010233Y002922D01*
X010274Y003020D02*
X010745Y003020D01*
X010844Y003119D02*
X010279Y003119D01*
X010279Y003217D02*
X010926Y003217D01*
X010785Y003316D02*
X010264Y003316D01*
X010223Y003414D02*
X010695Y003414D01*
X010654Y003513D02*
X010178Y003513D01*
X010080Y003611D02*
X010619Y003611D01*
X010619Y003710D02*
X009940Y003710D01*
X009379Y003710D02*
X008940Y003710D01*
X009080Y003611D02*
X009239Y003611D01*
X008379Y003710D02*
X007339Y003710D01*
X007409Y003611D02*
X007241Y003611D01*
X007281Y003513D02*
X007142Y003513D01*
X007136Y003414D02*
X007208Y003414D01*
X007609Y003414D02*
X007709Y003414D01*
X007709Y003316D02*
X007609Y003316D01*
X007609Y003217D02*
X007709Y003217D01*
X007709Y003020D02*
X007609Y003020D01*
X007609Y002922D02*
X007709Y002922D01*
X007709Y002823D02*
X007609Y002823D01*
X007609Y002725D02*
X007709Y002725D01*
X007951Y002725D02*
X008213Y002725D01*
X008125Y002823D02*
X008061Y002823D01*
X008316Y002626D02*
X006793Y002626D01*
X006992Y002725D02*
X007367Y002725D01*
X007257Y002823D02*
X007091Y002823D01*
X007147Y002922D02*
X007194Y002922D01*
X007609Y003513D02*
X007709Y003513D01*
X007709Y003611D02*
X007609Y003611D01*
X007438Y003809D02*
X010619Y003809D01*
X010658Y003907D02*
X007536Y003907D01*
X007635Y004006D02*
X010699Y004006D01*
X010794Y004104D02*
X007733Y004104D01*
X007832Y004203D02*
X010886Y004203D01*
X010788Y004301D02*
X007930Y004301D01*
X008029Y004400D02*
X010689Y004400D01*
X010591Y004498D02*
X008127Y004498D01*
X008226Y004597D02*
X010492Y004597D01*
X010394Y004695D02*
X009402Y004695D01*
X009432Y004710D02*
X009498Y004758D01*
X009556Y004816D01*
X009604Y004883D01*
X009641Y004955D01*
X009666Y005033D01*
X009679Y005114D01*
X009679Y005116D01*
X009198Y005116D01*
X009198Y004635D01*
X009200Y004635D01*
X009281Y004648D01*
X009359Y004673D01*
X009432Y004710D01*
X009533Y004794D02*
X010295Y004794D01*
X010196Y004892D02*
X009609Y004892D01*
X009652Y004991D02*
X010098Y004991D01*
X009999Y005090D02*
X009675Y005090D01*
X009679Y005194D02*
X009679Y005196D01*
X009666Y005277D01*
X009641Y005355D01*
X009604Y005428D01*
X009556Y005494D01*
X009498Y005552D01*
X009432Y005600D01*
X009359Y005637D01*
X009281Y005662D01*
X009200Y005675D01*
X009198Y005675D01*
X009198Y005194D01*
X009679Y005194D01*
X009663Y005287D02*
X009802Y005287D01*
X009704Y005385D02*
X009625Y005385D01*
X009605Y005484D02*
X009563Y005484D01*
X009507Y005582D02*
X009456Y005582D01*
X009489Y005681D02*
X008349Y005681D01*
X008349Y005779D02*
X009489Y005779D01*
X009489Y005878D02*
X008349Y005878D01*
X008349Y005976D02*
X009489Y005976D01*
X009489Y006075D02*
X008349Y006075D01*
X008349Y006174D02*
X009489Y006174D01*
X009489Y006272D02*
X009410Y006272D01*
X008908Y006272D02*
X008410Y006272D01*
X008511Y006371D02*
X008807Y006371D01*
X008749Y006469D02*
X008569Y006469D01*
X008609Y006568D02*
X008709Y006568D01*
X008709Y006666D02*
X008609Y006666D01*
X008601Y006765D02*
X008717Y006765D01*
X008758Y006863D02*
X008560Y006863D01*
X008489Y006962D02*
X008829Y006962D01*
X008962Y007060D02*
X008356Y007060D01*
X008929Y007200D02*
X008929Y009263D01*
X008904Y009274D01*
X008778Y009400D01*
X008709Y009566D01*
X008709Y009745D01*
X008778Y009910D01*
X008904Y010037D01*
X009070Y010105D01*
X009249Y010105D01*
X009414Y010037D01*
X009541Y009910D01*
X009609Y009745D01*
X009609Y009566D01*
X009541Y009400D01*
X009414Y009274D01*
X009389Y009263D01*
X009389Y007390D01*
X009814Y006965D01*
X009823Y006956D01*
X009904Y007037D01*
X010070Y007105D01*
X010249Y007105D01*
X010320Y007075D01*
X010365Y007185D01*
X010449Y007268D01*
X010449Y009040D01*
X010273Y009215D01*
X010249Y009205D01*
X010070Y009205D01*
X009904Y009274D01*
X009778Y009400D01*
X009709Y009566D01*
X009709Y009745D01*
X009778Y009910D01*
X009904Y010037D01*
X010070Y010105D01*
X010249Y010105D01*
X010414Y010037D01*
X010541Y009910D01*
X010609Y009745D01*
X010609Y009566D01*
X010599Y009541D01*
X010909Y009230D01*
X010909Y009040D01*
X010909Y007568D01*
X010929Y007588D01*
X010929Y009263D01*
X010904Y009274D01*
X010778Y009400D01*
X010709Y009566D01*
X010709Y009745D01*
X010778Y009910D01*
X010904Y010037D01*
X011070Y010105D01*
X011249Y010105D01*
X011414Y010037D01*
X011541Y009910D01*
X011609Y009745D01*
X011609Y009566D01*
X011541Y009400D01*
X011414Y009274D01*
X011389Y009263D01*
X011389Y009210D01*
X011719Y009541D01*
X011709Y009566D01*
X011709Y009745D01*
X011778Y009910D01*
X011904Y010037D01*
X012070Y010105D01*
X012249Y010105D01*
X012414Y010037D01*
X012541Y009910D01*
X012609Y009745D01*
X012609Y009566D01*
X012541Y009400D01*
X012414Y009274D01*
X012249Y009205D01*
X012070Y009205D01*
X012045Y009215D01*
X011789Y008960D01*
X011789Y008948D01*
X011873Y008865D01*
X011929Y008729D01*
X011929Y008581D01*
X011873Y008446D01*
X011769Y008341D01*
X011867Y008440D02*
X013594Y008440D01*
X013496Y008539D02*
X011911Y008539D01*
X011929Y008637D02*
X013397Y008637D01*
X013299Y008736D02*
X011926Y008736D01*
X011885Y008834D02*
X013200Y008834D01*
X013102Y008933D02*
X011805Y008933D01*
X011860Y009031D02*
X013003Y009031D01*
X012904Y009130D02*
X011959Y009130D01*
X012305Y009228D02*
X012809Y009228D01*
X012738Y009327D02*
X012467Y009327D01*
X012551Y009425D02*
X012680Y009425D01*
X012640Y009524D02*
X012592Y009524D01*
X012609Y009623D02*
X012629Y009623D01*
X012629Y009721D02*
X012609Y009721D01*
X012578Y009820D02*
X012654Y009820D01*
X012694Y009918D02*
X012532Y009918D01*
X012434Y010017D02*
X012771Y010017D01*
X012885Y010115D02*
X008909Y010115D01*
X008909Y010080D02*
X008909Y010772D01*
X009070Y010705D01*
X009249Y010705D01*
X009414Y010774D01*
X009541Y010900D01*
X009609Y011066D01*
X009609Y011245D01*
X009541Y011410D01*
X009414Y011537D01*
X009295Y011586D01*
X010694Y012985D01*
X010774Y012985D01*
X010909Y013120D01*
X013127Y015338D01*
X013165Y015246D01*
X013269Y015141D01*
X013405Y015085D01*
X013524Y015085D01*
X013969Y014640D01*
X013969Y014595D01*
X013959Y014604D01*
X013764Y014685D01*
X013554Y014685D01*
X013359Y014604D01*
X013210Y014455D01*
X013129Y014261D01*
X013129Y014050D01*
X013210Y013855D01*
X013359Y013706D01*
X013554Y013625D01*
X013764Y013625D01*
X013959Y013706D01*
X013969Y013716D01*
X013969Y013470D01*
X013969Y013280D01*
X013969Y011790D01*
X013773Y011595D01*
X013749Y011605D01*
X013570Y011605D01*
X013404Y011537D01*
X013278Y011410D01*
X013209Y011245D01*
X013209Y011066D01*
X013278Y010900D01*
X013404Y010774D01*
X013570Y010705D01*
X013749Y010705D01*
X013802Y010727D01*
X014289Y010240D01*
X014424Y010105D01*
X015384Y010105D01*
X015719Y009770D01*
X015709Y009745D01*
X015709Y009566D01*
X015778Y009400D01*
X015904Y009274D01*
X016070Y009205D01*
X016249Y009205D01*
X016414Y009274D01*
X016541Y009400D01*
X016609Y009566D01*
X016609Y009745D01*
X016541Y009910D01*
X016414Y010037D01*
X016249Y010105D01*
X016070Y010105D01*
X016045Y010095D01*
X015574Y010565D01*
X015384Y010565D01*
X014614Y010565D01*
X014407Y010773D01*
X014570Y010705D01*
X014749Y010705D01*
X014914Y010774D01*
X015041Y010900D01*
X015109Y011066D01*
X015109Y011245D01*
X015087Y011298D01*
X015145Y011298D01*
X015129Y011261D02*
X015129Y011050D01*
X015210Y010855D01*
X015359Y010706D01*
X015554Y010625D01*
X015764Y010625D01*
X015959Y010706D01*
X016108Y010855D01*
X016189Y011050D01*
X016189Y011261D01*
X016108Y011455D01*
X015959Y011604D01*
X015764Y011685D01*
X015554Y011685D01*
X015418Y011629D01*
X015494Y011705D01*
X016184Y011705D01*
X016621Y011268D01*
X016619Y011263D01*
X016619Y011048D01*
X016701Y010849D01*
X016769Y010781D01*
X016769Y010720D01*
X016904Y010585D01*
X017719Y009770D01*
X017709Y009745D01*
X017709Y009566D01*
X017778Y009400D01*
X017904Y009274D01*
X018070Y009205D01*
X018249Y009205D01*
X018414Y009274D01*
X018541Y009400D01*
X018609Y009566D01*
X018609Y009745D01*
X018541Y009910D01*
X018414Y010037D01*
X018249Y010105D01*
X018070Y010105D01*
X018045Y010095D01*
X017449Y010691D01*
X017465Y010697D01*
X017617Y010849D01*
X017699Y011048D01*
X017699Y011263D01*
X017617Y011461D01*
X017465Y011613D01*
X017266Y011695D01*
X017052Y011695D01*
X016905Y011634D01*
X016876Y011663D01*
X016969Y011701D01*
X017052Y011785D01*
X017304Y011785D01*
X018929Y010160D01*
X018929Y010047D01*
X018904Y010037D01*
X018778Y009910D01*
X018709Y009745D01*
X018709Y009566D01*
X018778Y009400D01*
X018904Y009274D01*
X019070Y009205D01*
X019249Y009205D01*
X019414Y009274D01*
X019541Y009400D01*
X019609Y009566D01*
X019609Y009745D01*
X019541Y009910D01*
X019414Y010037D01*
X019389Y010047D01*
X019389Y010350D01*
X019254Y010485D01*
X017494Y012245D01*
X017304Y012245D01*
X017052Y012245D01*
X016969Y012329D01*
X016833Y012385D01*
X016685Y012385D01*
X016549Y012329D01*
X016445Y012225D01*
X016407Y012132D01*
X016374Y012165D01*
X016184Y012165D01*
X015304Y012165D01*
X015169Y012030D01*
X014744Y011605D01*
X014570Y011605D01*
X014404Y011537D01*
X014278Y011410D01*
X014209Y011245D01*
X014209Y011066D01*
X014276Y010903D01*
X014109Y011070D01*
X014109Y011245D01*
X014099Y011270D01*
X014429Y011600D01*
X014429Y011790D01*
X014429Y013145D01*
X017494Y013145D01*
X017629Y013280D01*
X019194Y014845D01*
X019313Y014845D01*
X019449Y014901D01*
X019553Y015006D01*
X019609Y015141D01*
X024009Y015141D01*
X024009Y015042D02*
X019568Y015042D01*
X019609Y015141D02*
X019609Y015289D01*
X019553Y015425D01*
X019449Y015529D01*
X019313Y015585D01*
X019165Y015585D01*
X019029Y015529D01*
X018925Y015425D01*
X018869Y015289D01*
X018869Y015170D01*
X017665Y013967D01*
X017699Y014048D01*
X017699Y014263D01*
X017617Y014461D01*
X017465Y014613D01*
X017266Y014695D01*
X017052Y014695D01*
X016853Y014613D01*
X016701Y014461D01*
X016619Y014263D01*
X016619Y014048D01*
X016701Y013849D01*
X016853Y013697D01*
X017052Y013615D01*
X017266Y013615D01*
X017347Y013649D01*
X017304Y013605D01*
X014429Y013605D01*
X014429Y013763D01*
X014570Y013705D01*
X014749Y013705D01*
X014914Y013774D01*
X015041Y013900D01*
X015109Y014066D01*
X015109Y014245D01*
X015041Y014410D01*
X014914Y014537D01*
X014749Y014605D01*
X014570Y014605D01*
X014429Y014547D01*
X014429Y014830D01*
X014294Y014965D01*
X013849Y015410D01*
X013849Y015529D01*
X013793Y015665D01*
X013689Y015769D01*
X013596Y015807D01*
X014774Y016985D01*
X015245Y016985D01*
X015301Y016849D01*
X015453Y016697D01*
X015505Y016676D01*
X015353Y016613D01*
X015201Y016461D01*
X015119Y016263D01*
X015119Y016048D01*
X015201Y015849D01*
X015353Y015697D01*
X015409Y015674D01*
X015409Y014539D01*
X015404Y014537D01*
X015278Y014410D01*
X015209Y014245D01*
X015209Y014066D01*
X015278Y013900D01*
X015404Y013774D01*
X015570Y013705D01*
X015749Y013705D01*
X015914Y013774D01*
X016041Y013900D01*
X016109Y014066D01*
X016109Y014245D01*
X016041Y014410D01*
X015914Y014537D01*
X015869Y014555D01*
X015869Y015658D01*
X015965Y015697D01*
X016117Y015849D01*
X016123Y015865D01*
X017695Y015865D01*
X017701Y015849D01*
X017853Y015697D01*
X018052Y015615D01*
X018266Y015615D01*
X018465Y015697D01*
X018617Y015849D01*
X018623Y015865D01*
X020195Y015865D01*
X020201Y015849D01*
X020353Y015697D01*
X020552Y015615D01*
X020766Y015615D01*
X020965Y015697D01*
X021117Y015849D01*
X021199Y016048D01*
X021199Y016263D01*
X021117Y016461D01*
X020965Y016613D01*
X020913Y016634D01*
X021065Y016697D01*
X021217Y016849D01*
X021273Y016985D01*
X022745Y016985D01*
X022801Y016849D01*
X022953Y016697D01*
X023005Y016676D01*
X022853Y016613D01*
X022701Y016461D01*
X022619Y016263D01*
X022619Y016048D01*
X022701Y015849D01*
X022853Y015697D01*
X023052Y015615D01*
X023266Y015615D01*
X023465Y015697D01*
X023617Y015849D01*
X023699Y016048D01*
X023699Y016263D01*
X023617Y016461D01*
X023465Y016613D01*
X023413Y016634D01*
X023565Y016697D01*
X023717Y016849D01*
X023799Y017048D01*
X023799Y017263D01*
X023717Y017461D01*
X023565Y017613D01*
X023413Y017676D01*
X023465Y017697D01*
X023617Y017849D01*
X023699Y018048D01*
X023699Y018263D01*
X023617Y018461D01*
X023496Y018582D01*
X023610Y018629D01*
X023785Y018804D01*
X023879Y019032D01*
X023879Y019278D01*
X023785Y019506D01*
X023610Y019681D01*
X023576Y019695D01*
X023685Y019804D01*
X023779Y020032D01*
X023779Y020278D01*
X023685Y020506D01*
X023510Y020681D01*
X023490Y020689D01*
X023532Y020710D01*
X023598Y020758D01*
X023656Y020816D01*
X023704Y020883D01*
X023741Y020955D01*
X024009Y020955D01*
X024009Y020856D02*
X023685Y020856D01*
X023741Y020955D02*
X023766Y021033D01*
X023778Y021105D01*
X023309Y021105D01*
X023309Y021205D01*
X023778Y021205D01*
X023766Y021277D01*
X023741Y021355D01*
X023704Y021428D01*
X023656Y021494D01*
X023598Y021552D01*
X023532Y021600D01*
X023459Y021637D01*
X023381Y021662D01*
X023309Y021674D01*
X023309Y021205D01*
X023209Y021205D01*
X023209Y021105D01*
X022740Y021105D01*
X022752Y021033D01*
X022777Y020955D01*
X022769Y020955D01*
X022777Y020955D02*
X022814Y020883D01*
X022862Y020816D01*
X022920Y020758D01*
X022948Y020739D01*
X022939Y020735D01*
X022769Y020905D01*
X022769Y020977D01*
X022707Y021127D01*
X022591Y021243D01*
X021391Y022443D01*
X021241Y022505D01*
X021077Y022505D01*
X016049Y022505D01*
X015071Y023483D01*
X014921Y023545D01*
X014757Y023545D01*
X010277Y023545D01*
X010127Y023483D01*
X010011Y023367D01*
X009229Y022585D01*
X006849Y022585D01*
X006329Y023105D01*
X006329Y023278D01*
X006235Y023506D01*
X006060Y023681D01*
X005832Y023775D01*
X005586Y023775D01*
X005358Y023681D01*
X005183Y023506D01*
X005116Y023343D01*
X005067Y023461D01*
X005038Y023489D01*
X005334Y023785D01*
X006184Y023785D01*
X006609Y023360D01*
X006569Y023263D01*
X006569Y023048D01*
X006651Y022849D01*
X006803Y022697D01*
X007002Y022615D01*
X007216Y022615D01*
X007415Y022697D01*
X007567Y022849D01*
X007649Y023048D01*
X007649Y023263D01*
X007567Y023461D01*
X007415Y023613D01*
X007216Y023695D01*
X007002Y023695D01*
X006947Y023672D01*
X006509Y024110D01*
X006374Y024245D01*
X005334Y024245D01*
X005144Y024245D01*
X004594Y023695D01*
X004502Y023695D01*
X004303Y023613D01*
X004151Y023461D01*
X004069Y023263D01*
X004069Y023048D01*
X004127Y022908D01*
X001969Y020750D01*
X001969Y020661D01*
X001853Y020613D01*
X001701Y020461D01*
X001619Y020263D01*
X001619Y020048D01*
X001701Y019849D01*
X001852Y019699D01*
X001808Y019681D01*
X001633Y019506D01*
X001539Y019278D01*
X001539Y019032D01*
X001633Y018804D01*
X001808Y018629D01*
X002036Y018535D01*
X002282Y018535D01*
X002510Y018629D01*
X002685Y018804D01*
X002779Y019032D01*
X002779Y019278D01*
X002685Y019506D01*
X002510Y019681D01*
X002466Y019699D01*
X002617Y019849D01*
X002699Y020048D01*
X002699Y020263D01*
X002617Y020461D01*
X002473Y020604D01*
X004489Y022620D01*
X004502Y022615D01*
X004716Y022615D01*
X004915Y022697D01*
X005067Y022849D01*
X005116Y022967D01*
X005183Y022804D01*
X005358Y022629D01*
X005586Y022535D01*
X005739Y022535D01*
X006331Y021943D01*
X006447Y021828D01*
X006597Y021765D01*
X009304Y021765D01*
X007189Y019650D01*
X007061Y019650D01*
X006883Y019576D01*
X006614Y019845D01*
X006424Y019845D01*
X005165Y019845D01*
X005117Y019961D01*
X004965Y020113D01*
X004766Y020195D01*
X004552Y020195D01*
X004353Y020113D01*
X004201Y019961D01*
X004119Y019763D01*
X004119Y019548D01*
X004201Y019349D01*
X004353Y019197D01*
X004455Y019155D01*
X004353Y019113D01*
X004201Y018961D01*
X004119Y018763D01*
X004119Y018548D01*
X004201Y018349D01*
X004353Y018197D01*
X004552Y018115D01*
X004766Y018115D01*
X004856Y018152D01*
X005656Y017353D01*
X005619Y017263D01*
X005619Y017048D01*
X005701Y016849D01*
X005853Y016697D01*
X006052Y016615D01*
X006266Y016615D01*
X006465Y016697D01*
X006617Y016849D01*
X006699Y017048D01*
X006699Y017263D01*
X006617Y017461D01*
X006465Y017613D01*
X006266Y017695D01*
X006052Y017695D01*
X005990Y017669D01*
X005173Y018486D01*
X005199Y018548D01*
X005199Y018763D01*
X005117Y018961D01*
X004965Y019113D01*
X004863Y019155D01*
X004965Y019197D01*
X005117Y019349D01*
X005132Y019385D01*
X006424Y019385D01*
X006664Y019145D01*
X006664Y019057D01*
X006739Y018875D01*
X006879Y018735D01*
X007061Y018660D01*
X007258Y018660D01*
X007439Y018735D01*
X007579Y018875D01*
X007616Y018964D01*
X007672Y018829D01*
X007833Y018668D01*
X008045Y018580D01*
X008273Y018580D01*
X008485Y018668D01*
X008646Y018829D01*
X008734Y019041D01*
X008734Y019269D01*
X008646Y019481D01*
X008485Y019643D01*
X008273Y019730D01*
X008045Y019730D01*
X007833Y019643D01*
X007672Y019481D01*
X007616Y019346D01*
X007592Y019403D01*
X010054Y021865D01*
X010256Y021865D01*
X010381Y021740D01*
X010562Y021665D01*
X010756Y021665D01*
X010937Y021740D01*
X011074Y021878D01*
X011116Y021977D01*
X011176Y021832D01*
X011336Y021672D01*
X011546Y021585D01*
X011772Y021585D01*
X011982Y021672D01*
X012142Y021832D01*
X012214Y022005D01*
X012224Y021975D01*
X012257Y021909D01*
X012301Y021849D01*
X012353Y021797D01*
X012413Y021753D01*
X012479Y021720D01*
X012549Y021697D01*
X012609Y021687D01*
X012609Y022105D01*
X012709Y022105D01*
X012709Y021687D01*
X012769Y021697D01*
X012839Y021720D01*
X012905Y021753D01*
X012965Y021797D01*
X013018Y021849D01*
X013061Y021909D01*
X013095Y021975D01*
X013117Y022045D01*
X013127Y022105D01*
X012709Y022105D01*
X012709Y022205D01*
X013127Y022205D01*
X013117Y022265D01*
X013095Y022336D01*
X013061Y022401D01*
X013018Y022461D01*
X012965Y022514D01*
X012905Y022557D01*
X012839Y022591D01*
X012769Y022614D01*
X012709Y022623D01*
X012709Y022205D01*
X012609Y022205D01*
X012609Y022623D01*
X012549Y022614D01*
X012479Y022591D01*
X012413Y022557D01*
X012353Y022514D01*
X012301Y022461D01*
X012257Y022401D01*
X012224Y022336D01*
X012214Y022305D01*
X012142Y022478D01*
X011982Y022638D01*
X011772Y022725D01*
X011546Y022725D01*
X011336Y022638D01*
X011176Y022478D01*
X011116Y022333D01*
X011074Y022433D01*
X011157Y022433D01*
X011074Y022433D02*
X010937Y022570D01*
X010756Y022645D01*
X010562Y022645D01*
X010381Y022570D01*
X010244Y022433D01*
X010237Y022433D01*
X010244Y022433D02*
X010199Y022325D01*
X010129Y022325D01*
X010529Y022725D01*
X014669Y022725D01*
X015531Y021863D01*
X015647Y021748D01*
X015797Y021685D01*
X020989Y021685D01*
X021949Y020725D01*
X021949Y020654D01*
X022011Y020503D01*
X022571Y019943D01*
X022579Y019935D01*
X022633Y019804D01*
X022808Y019629D01*
X022842Y019615D01*
X022733Y019506D01*
X022639Y019278D01*
X022639Y019032D01*
X022733Y018804D01*
X022904Y018634D01*
X022853Y018613D01*
X022701Y018461D01*
X022645Y018325D01*
X021173Y018325D01*
X021117Y018461D01*
X020996Y018582D01*
X021110Y018629D01*
X021285Y018804D01*
X021379Y019032D01*
X021379Y019278D01*
X021285Y019506D01*
X021110Y019681D01*
X020996Y019728D01*
X021117Y019849D01*
X021199Y020048D01*
X021199Y020263D01*
X021117Y020461D01*
X020965Y020613D01*
X020880Y020648D01*
X020881Y020648D01*
X020959Y020673D01*
X021032Y020710D01*
X021098Y020758D01*
X021156Y020816D01*
X021204Y020883D01*
X021241Y020955D01*
X021719Y020955D01*
X021621Y021054D02*
X021269Y021054D01*
X021266Y021033D02*
X021278Y021105D01*
X020809Y021105D01*
X020809Y021205D01*
X021278Y021205D01*
X021266Y021277D01*
X021241Y021355D01*
X021204Y021428D01*
X021156Y021494D01*
X021098Y021552D01*
X021032Y021600D01*
X020959Y021637D01*
X020881Y021662D01*
X020809Y021674D01*
X020809Y021205D01*
X020709Y021205D01*
X020709Y021105D01*
X020240Y021105D01*
X020252Y021033D01*
X020277Y020955D01*
X018741Y020955D01*
X018766Y021033D01*
X018778Y021105D01*
X018309Y021105D01*
X018309Y021205D01*
X018778Y021205D01*
X018766Y021277D01*
X018741Y021355D01*
X018704Y021428D01*
X018656Y021494D01*
X018598Y021552D01*
X018532Y021600D01*
X018459Y021637D01*
X018381Y021662D01*
X018309Y021674D01*
X018309Y021205D01*
X018209Y021205D01*
X018209Y021105D01*
X017740Y021105D01*
X017752Y021033D01*
X017777Y020955D01*
X016241Y020955D01*
X016266Y021033D01*
X016278Y021105D01*
X015809Y021105D01*
X015809Y021205D01*
X016278Y021205D01*
X016266Y021277D01*
X016241Y021355D01*
X016204Y021428D01*
X016156Y021494D01*
X016098Y021552D01*
X016032Y021600D01*
X015959Y021637D01*
X015881Y021662D01*
X015809Y021674D01*
X015809Y021205D01*
X015709Y021205D01*
X015709Y021105D01*
X015240Y021105D01*
X015252Y021033D01*
X015277Y020955D01*
X009144Y020955D01*
X009046Y020856D02*
X015333Y020856D01*
X015314Y020883D02*
X015362Y020816D01*
X015420Y020758D01*
X015486Y020710D01*
X015532Y020687D01*
X015353Y020613D01*
X015201Y020461D01*
X015119Y020263D01*
X015119Y020048D01*
X015201Y019849D01*
X015353Y019697D01*
X015404Y019676D01*
X015233Y019506D01*
X015139Y019278D01*
X015139Y019032D01*
X015233Y018804D01*
X015404Y018634D01*
X015353Y018613D01*
X015201Y018461D01*
X015146Y018327D01*
X015089Y018270D01*
X010504Y013685D01*
X008504Y013685D01*
X008369Y013550D01*
X006209Y011390D01*
X006209Y011200D01*
X006209Y010320D01*
X006344Y010185D01*
X006731Y009798D01*
X006709Y009745D01*
X006709Y009566D01*
X006778Y009400D01*
X006904Y009274D01*
X007070Y009205D01*
X007249Y009205D01*
X007414Y009274D01*
X007541Y009400D01*
X007609Y009566D01*
X007609Y009745D01*
X007541Y009910D01*
X007414Y010037D01*
X007249Y010105D01*
X007074Y010105D01*
X006669Y010510D01*
X006669Y011200D01*
X006709Y011240D01*
X006709Y011066D01*
X006778Y010900D01*
X006904Y010774D01*
X007070Y010705D01*
X007249Y010705D01*
X007414Y010774D01*
X007541Y010900D01*
X007609Y011066D01*
X007609Y011245D01*
X007541Y011410D01*
X007414Y011537D01*
X007249Y011605D01*
X007074Y011605D01*
X008694Y013225D01*
X010284Y013225D01*
X008505Y011446D01*
X008414Y011537D01*
X008249Y011605D01*
X008070Y011605D01*
X007904Y011537D01*
X007778Y011410D01*
X007709Y011245D01*
X007709Y011066D01*
X007778Y010900D01*
X007904Y010774D01*
X008070Y010705D01*
X008249Y010705D01*
X008414Y010774D01*
X008449Y010809D01*
X008449Y010270D01*
X008273Y010095D01*
X008249Y010105D01*
X008070Y010105D01*
X007904Y010037D01*
X007778Y009910D01*
X007709Y009745D01*
X007709Y009566D01*
X007778Y009400D01*
X007904Y009274D01*
X008070Y009205D01*
X008249Y009205D01*
X008414Y009274D01*
X008541Y009400D01*
X008609Y009566D01*
X008609Y009745D01*
X008599Y009770D01*
X008774Y009945D01*
X008774Y009945D01*
X008909Y010080D01*
X008884Y010017D02*
X008846Y010017D01*
X008786Y009918D02*
X008747Y009918D01*
X008740Y009820D02*
X008649Y009820D01*
X008609Y009721D02*
X008709Y009721D01*
X008709Y009623D02*
X008609Y009623D01*
X008592Y009524D02*
X008726Y009524D01*
X008767Y009425D02*
X008551Y009425D01*
X008467Y009327D02*
X008851Y009327D01*
X008929Y009228D02*
X008305Y009228D01*
X008013Y009228D02*
X007305Y009228D01*
X007467Y009327D02*
X007851Y009327D01*
X007767Y009425D02*
X007551Y009425D01*
X007592Y009524D02*
X007726Y009524D01*
X007709Y009623D02*
X007609Y009623D01*
X007609Y009721D02*
X007709Y009721D01*
X007740Y009820D02*
X007578Y009820D01*
X007532Y009918D02*
X007786Y009918D01*
X007884Y010017D02*
X007434Y010017D01*
X007064Y010115D02*
X008294Y010115D01*
X008393Y010214D02*
X006966Y010214D01*
X006867Y010312D02*
X008449Y010312D01*
X008449Y010411D02*
X006768Y010411D01*
X006670Y010509D02*
X008449Y010509D01*
X008449Y010608D02*
X006669Y010608D01*
X006669Y010707D02*
X007066Y010707D01*
X007252Y010707D02*
X008066Y010707D01*
X008252Y010707D02*
X008449Y010707D01*
X008445Y010805D02*
X008449Y010805D01*
X008909Y010707D02*
X009066Y010707D01*
X008909Y010608D02*
X013921Y010608D01*
X014019Y010509D02*
X008909Y010509D01*
X008909Y010411D02*
X014118Y010411D01*
X014217Y010312D02*
X008909Y010312D01*
X008909Y010214D02*
X014315Y010214D01*
X014414Y010115D02*
X013433Y010115D01*
X013547Y010017D02*
X013925Y010017D01*
X013934Y010023D02*
X013879Y009983D01*
X013831Y009935D01*
X013791Y009880D01*
X013761Y009820D01*
X013740Y009756D01*
X013729Y009689D01*
X013729Y009685D01*
X014129Y009685D01*
X014129Y009625D01*
X014189Y009625D01*
X014189Y009225D01*
X014193Y009225D01*
X014260Y009236D01*
X014324Y009257D01*
X014384Y009287D01*
X014439Y009327D01*
X014879Y009327D01*
X014934Y009287D01*
X014994Y009257D01*
X015058Y009236D01*
X015125Y009225D01*
X015129Y009225D01*
X015129Y009625D01*
X015189Y009625D01*
X015189Y009225D01*
X015193Y009225D01*
X015260Y009236D01*
X015324Y009257D01*
X015384Y009287D01*
X015439Y009327D01*
X015851Y009327D01*
X015767Y009425D02*
X015524Y009425D01*
X015527Y009430D02*
X015558Y009490D01*
X015578Y009554D01*
X015589Y009621D01*
X015589Y009625D01*
X015189Y009625D01*
X015189Y009685D01*
X015589Y009685D01*
X015589Y009689D01*
X015578Y009756D01*
X015558Y009820D01*
X015669Y009820D01*
X015709Y009721D02*
X015584Y009721D01*
X015589Y009623D02*
X015709Y009623D01*
X015726Y009524D02*
X015569Y009524D01*
X015527Y009430D02*
X015487Y009375D01*
X015439Y009327D01*
X015214Y009228D02*
X016013Y009228D01*
X016305Y009228D02*
X017013Y009228D01*
X017070Y009205D02*
X017249Y009205D01*
X017414Y009274D01*
X017541Y009400D01*
X017609Y009566D01*
X017609Y009745D01*
X017541Y009910D01*
X017414Y010037D01*
X017249Y010105D01*
X017070Y010105D01*
X016904Y010037D01*
X016778Y009910D01*
X016709Y009745D01*
X016709Y009566D01*
X016778Y009400D01*
X016904Y009274D01*
X017070Y009205D01*
X017305Y009228D02*
X018013Y009228D01*
X017851Y009327D02*
X017467Y009327D01*
X017551Y009425D02*
X017767Y009425D01*
X017726Y009524D02*
X017592Y009524D01*
X017609Y009623D02*
X017709Y009623D01*
X017709Y009721D02*
X017609Y009721D01*
X017578Y009820D02*
X017669Y009820D01*
X017571Y009918D02*
X017532Y009918D01*
X017472Y010017D02*
X017434Y010017D01*
X017374Y010115D02*
X016024Y010115D01*
X015926Y010214D02*
X017275Y010214D01*
X017177Y010312D02*
X015827Y010312D01*
X015728Y010411D02*
X017078Y010411D01*
X016979Y010509D02*
X015630Y010509D01*
X015358Y010707D02*
X014752Y010707D01*
X014566Y010707D02*
X014473Y010707D01*
X014571Y010608D02*
X016881Y010608D01*
X016904Y010585D02*
X016904Y010585D01*
X016782Y010707D02*
X015960Y010707D01*
X016059Y010805D02*
X016745Y010805D01*
X016679Y010904D02*
X016129Y010904D01*
X016169Y011002D02*
X016638Y011002D01*
X016619Y011101D02*
X016189Y011101D01*
X016189Y011199D02*
X016619Y011199D01*
X016591Y011298D02*
X016174Y011298D01*
X016133Y011396D02*
X016493Y011396D01*
X016394Y011495D02*
X016069Y011495D01*
X015970Y011593D02*
X016295Y011593D01*
X016197Y011692D02*
X015481Y011692D01*
X015185Y011396D02*
X015129Y011261D01*
X015087Y011298D02*
X015185Y011396D01*
X015129Y011199D02*
X015109Y011199D01*
X015109Y011101D02*
X015129Y011101D01*
X015149Y011002D02*
X015083Y011002D01*
X015042Y010904D02*
X015190Y010904D01*
X015260Y010805D02*
X014945Y010805D01*
X014276Y010904D02*
X014276Y010904D01*
X014235Y011002D02*
X014177Y011002D01*
X014209Y011101D02*
X014109Y011101D01*
X014109Y011199D02*
X014209Y011199D01*
X014231Y011298D02*
X014127Y011298D01*
X014225Y011396D02*
X014272Y011396D01*
X014324Y011495D02*
X014362Y011495D01*
X014423Y011593D02*
X014541Y011593D01*
X014429Y011692D02*
X014831Y011692D01*
X014929Y011791D02*
X014429Y011791D01*
X014429Y011889D02*
X015028Y011889D01*
X015126Y011988D02*
X014429Y011988D01*
X014429Y012086D02*
X015225Y012086D01*
X014429Y012185D02*
X016429Y012185D01*
X016504Y012283D02*
X014429Y012283D01*
X014429Y012382D02*
X016677Y012382D01*
X016841Y012382D02*
X019079Y012382D01*
X019079Y012420D02*
X019079Y012190D01*
X019167Y011977D01*
X019331Y011813D01*
X019544Y011725D01*
X019774Y011725D01*
X019988Y011813D01*
X020151Y011977D01*
X020239Y012190D01*
X020239Y012420D01*
X020151Y012634D01*
X019988Y012797D01*
X019982Y012799D01*
X020025Y012842D01*
X020070Y012904D01*
X020104Y012971D01*
X020127Y013043D01*
X020139Y013117D01*
X020139Y013125D01*
X019689Y013125D01*
X019689Y013185D01*
X020139Y013185D01*
X020139Y013193D01*
X020127Y013268D01*
X020104Y013339D01*
X020070Y013407D01*
X020025Y013468D01*
X019972Y013521D01*
X019911Y013566D01*
X019908Y013567D01*
X019942Y013581D01*
X020083Y013722D01*
X020159Y013906D01*
X020159Y014105D01*
X020152Y014122D01*
X020294Y014265D01*
X021384Y014265D01*
X021732Y013917D01*
X021702Y013846D01*
X021646Y013981D01*
X021485Y014143D01*
X021273Y014230D01*
X021045Y014230D01*
X020833Y014143D01*
X020672Y013981D01*
X020584Y013769D01*
X020584Y013541D01*
X020672Y013329D01*
X020833Y013168D01*
X021045Y013080D01*
X021273Y013080D01*
X021485Y013168D01*
X021646Y013329D01*
X021702Y013464D01*
X021739Y013375D01*
X021879Y013235D01*
X021969Y013198D01*
X021969Y012112D01*
X021879Y012075D01*
X021739Y011935D01*
X021702Y011846D01*
X021646Y011981D01*
X021485Y012143D01*
X021273Y012230D01*
X021045Y012230D01*
X020833Y012143D01*
X020672Y011981D01*
X020584Y011769D01*
X020584Y011541D01*
X020672Y011329D01*
X020833Y011168D01*
X020864Y011155D01*
X020833Y011143D01*
X020672Y010981D01*
X020584Y010769D01*
X020584Y010541D01*
X020672Y010329D01*
X020833Y010168D01*
X021045Y010080D01*
X021273Y010080D01*
X021485Y010168D01*
X021646Y010329D01*
X021702Y010464D01*
X021739Y010375D01*
X021746Y010368D01*
X021424Y010045D01*
X021289Y009910D01*
X020584Y009205D01*
X018424Y009205D01*
X018289Y009070D01*
X016302Y007083D01*
X016249Y007105D01*
X016070Y007105D01*
X015904Y007037D01*
X015778Y006910D01*
X015709Y006745D01*
X015709Y006566D01*
X015778Y006400D01*
X015904Y006274D01*
X016070Y006205D01*
X016249Y006205D01*
X016414Y006274D01*
X016541Y006400D01*
X016609Y006566D01*
X016609Y006740D01*
X016776Y006907D01*
X016709Y006745D01*
X016709Y006566D01*
X016778Y006400D01*
X016904Y006274D01*
X017070Y006205D01*
X017249Y006205D01*
X017414Y006274D01*
X017541Y006400D01*
X017609Y006566D01*
X017609Y006745D01*
X017541Y006910D01*
X017414Y007037D01*
X017249Y007105D01*
X017070Y007105D01*
X016907Y007038D01*
X018614Y008745D01*
X020584Y008745D01*
X020774Y008745D01*
X021519Y009490D01*
X022691Y008318D01*
X022664Y008254D01*
X022664Y008057D01*
X022739Y007875D01*
X022879Y007735D01*
X023061Y007660D01*
X023258Y007660D01*
X023439Y007735D01*
X023579Y007875D01*
X023654Y008057D01*
X023654Y008254D01*
X023579Y008435D01*
X023439Y008575D01*
X023258Y008650D01*
X023061Y008650D01*
X023024Y008635D01*
X021844Y009815D01*
X022189Y010160D01*
X022258Y010160D01*
X022439Y010235D01*
X022579Y010375D01*
X022654Y010557D01*
X022654Y010754D01*
X022579Y010935D01*
X022439Y011075D01*
X022258Y011150D01*
X022061Y011150D01*
X021879Y011075D01*
X021739Y010935D01*
X021702Y010846D01*
X021646Y010981D01*
X021485Y011143D01*
X021454Y011155D01*
X021485Y011168D01*
X021646Y011329D01*
X021702Y011464D01*
X021739Y011375D01*
X021879Y011235D01*
X022061Y011160D01*
X022258Y011160D01*
X022439Y011235D01*
X022579Y011375D01*
X022654Y011557D01*
X022654Y011754D01*
X022579Y011935D01*
X022439Y012075D01*
X022429Y012079D01*
X022429Y013231D01*
X022439Y013235D01*
X022579Y013375D01*
X022654Y013557D01*
X022654Y013754D01*
X022579Y013935D01*
X022439Y014075D01*
X022258Y014150D01*
X022149Y014150D01*
X021574Y014725D01*
X021384Y014725D01*
X020104Y014725D01*
X019969Y014590D01*
X019847Y014468D01*
X019759Y014505D01*
X019560Y014505D01*
X019376Y014429D01*
X019235Y014288D01*
X019159Y014105D01*
X019159Y013906D01*
X019235Y013722D01*
X019376Y013581D01*
X019410Y013567D01*
X019407Y013566D01*
X019346Y013521D01*
X019293Y013468D01*
X019249Y013407D01*
X019214Y013339D01*
X019191Y013268D01*
X019179Y013193D01*
X019179Y013185D01*
X019629Y013185D01*
X019629Y013125D01*
X019179Y013125D01*
X019179Y013117D01*
X019191Y013043D01*
X019214Y012971D01*
X019249Y012904D01*
X019293Y012842D01*
X019336Y012799D01*
X019331Y012797D01*
X019167Y012634D01*
X019079Y012420D01*
X019104Y012480D02*
X014429Y012480D01*
X014429Y012579D02*
X019145Y012579D01*
X019211Y012677D02*
X014429Y012677D01*
X014429Y012776D02*
X019310Y012776D01*
X019270Y012874D02*
X014429Y012874D01*
X014429Y012973D02*
X019213Y012973D01*
X019186Y013072D02*
X014429Y013072D01*
X013969Y013072D02*
X012127Y013072D01*
X012122Y013044D02*
X012134Y013118D01*
X012134Y013136D01*
X011678Y013136D01*
X011678Y013174D01*
X012134Y013174D01*
X012134Y013192D01*
X012122Y013266D01*
X012099Y013337D01*
X012065Y013404D01*
X012021Y013465D01*
X011968Y013517D01*
X011908Y013561D01*
X011841Y013595D01*
X011770Y013618D01*
X011696Y013630D01*
X011678Y013630D01*
X011678Y013174D01*
X011640Y013174D01*
X011640Y013136D01*
X011184Y013136D01*
X011184Y013118D01*
X011196Y013044D01*
X011219Y012973D01*
X010682Y012973D01*
X010584Y012874D02*
X011276Y012874D01*
X011297Y012846D02*
X011350Y012793D01*
X011410Y012749D01*
X011477Y012715D01*
X011494Y012709D01*
X011333Y012643D01*
X011172Y012481D01*
X011084Y012269D01*
X011084Y012041D01*
X011172Y011829D01*
X011333Y011668D01*
X011545Y011580D01*
X011773Y011580D01*
X011985Y011668D01*
X012146Y011829D01*
X012234Y012041D01*
X012234Y012269D01*
X012146Y012481D01*
X011985Y012643D01*
X011824Y012709D01*
X011841Y012715D01*
X011908Y012749D01*
X011968Y012793D01*
X012021Y012846D01*
X012065Y012906D01*
X012099Y012973D01*
X013969Y012973D01*
X013969Y012874D02*
X012042Y012874D01*
X012099Y012973D02*
X012122Y013044D01*
X012122Y013269D02*
X013969Y013269D01*
X013969Y013367D02*
X012084Y013367D01*
X012020Y013466D02*
X013969Y013466D01*
X013969Y013564D02*
X011902Y013564D01*
X011678Y013564D02*
X011640Y013564D01*
X011640Y013630D02*
X011622Y013630D01*
X011548Y013618D01*
X011477Y013595D01*
X011410Y013561D01*
X011350Y013517D01*
X011297Y013465D01*
X011253Y013404D01*
X011219Y013337D01*
X011196Y013266D01*
X011184Y013192D01*
X011184Y013174D01*
X011640Y013174D01*
X011640Y013630D01*
X011551Y013761D02*
X012485Y013761D01*
X012494Y013757D02*
X012558Y013736D01*
X012625Y013725D01*
X012629Y013725D01*
X012629Y014125D01*
X012689Y014125D01*
X012689Y013725D01*
X012693Y013725D01*
X012760Y013736D01*
X012824Y013757D01*
X012884Y013787D01*
X012939Y013827D01*
X012987Y013875D01*
X013027Y013930D01*
X013058Y013990D01*
X013078Y014054D01*
X013089Y014121D01*
X013089Y014125D01*
X012689Y014125D01*
X012689Y014185D01*
X013089Y014185D01*
X013089Y014189D01*
X013078Y014256D01*
X013058Y014320D01*
X013027Y014380D01*
X012987Y014435D01*
X012939Y014483D01*
X012884Y014523D01*
X012824Y014554D01*
X012760Y014574D01*
X012693Y014585D01*
X012689Y014585D01*
X012689Y014185D01*
X012629Y014185D01*
X012629Y014125D01*
X012229Y014125D01*
X012229Y014121D01*
X012240Y014054D01*
X012261Y013990D01*
X012291Y013930D01*
X012331Y013875D01*
X012379Y013827D01*
X012434Y013787D01*
X012494Y013757D01*
X012629Y013761D02*
X012689Y013761D01*
X012689Y013860D02*
X012629Y013860D01*
X012629Y013958D02*
X012689Y013958D01*
X012689Y014057D02*
X012629Y014057D01*
X012629Y014156D02*
X011945Y014156D01*
X012043Y014254D02*
X012239Y014254D01*
X012240Y014256D02*
X012229Y014189D01*
X012229Y014185D01*
X012629Y014185D01*
X012629Y014585D01*
X012625Y014585D01*
X012558Y014574D01*
X012494Y014554D01*
X012434Y014523D01*
X012379Y014483D01*
X012331Y014435D01*
X012291Y014380D01*
X012261Y014320D01*
X012240Y014256D01*
X012277Y014353D02*
X012142Y014353D01*
X012240Y014451D02*
X012347Y014451D01*
X012339Y014550D02*
X012486Y014550D01*
X012437Y014648D02*
X013465Y014648D01*
X013304Y014550D02*
X012832Y014550D01*
X012689Y014550D02*
X012629Y014550D01*
X012629Y014451D02*
X012689Y014451D01*
X012689Y014353D02*
X012629Y014353D01*
X012629Y014254D02*
X012689Y014254D01*
X012689Y014156D02*
X013129Y014156D01*
X013129Y014254D02*
X013079Y014254D01*
X013041Y014353D02*
X013167Y014353D01*
X013208Y014451D02*
X012971Y014451D01*
X012634Y014845D02*
X013764Y014845D01*
X013862Y014747D02*
X012536Y014747D01*
X012733Y014944D02*
X013665Y014944D01*
X013566Y015042D02*
X012832Y015042D01*
X012930Y015141D02*
X013271Y015141D01*
X013171Y015240D02*
X013029Y015240D01*
X012551Y015732D02*
X007047Y015732D01*
X007146Y015634D02*
X012452Y015634D01*
X012354Y015535D02*
X007244Y015535D01*
X007343Y015437D02*
X012255Y015437D01*
X012157Y015338D02*
X007441Y015338D01*
X007540Y015240D02*
X012058Y015240D01*
X011960Y015141D02*
X007638Y015141D01*
X007737Y015042D02*
X011861Y015042D01*
X011763Y014944D02*
X007835Y014944D01*
X007934Y014845D02*
X011664Y014845D01*
X011566Y014747D02*
X008033Y014747D01*
X008131Y014648D02*
X011467Y014648D01*
X011368Y014550D02*
X010382Y014550D01*
X010414Y014537D02*
X010249Y014605D01*
X010070Y014605D01*
X009904Y014537D01*
X009778Y014410D01*
X009709Y014245D01*
X009709Y014066D01*
X009778Y013900D01*
X009904Y013774D01*
X010070Y013705D01*
X010249Y013705D01*
X010414Y013774D01*
X010541Y013900D01*
X010609Y014066D01*
X010609Y014245D01*
X010541Y014410D01*
X010414Y014537D01*
X010499Y014451D02*
X011270Y014451D01*
X011171Y014353D02*
X010564Y014353D01*
X010605Y014254D02*
X011073Y014254D01*
X010974Y014156D02*
X010609Y014156D01*
X010605Y014057D02*
X010876Y014057D01*
X010777Y013958D02*
X010565Y013958D01*
X010500Y013860D02*
X010679Y013860D01*
X010580Y013761D02*
X010384Y013761D01*
X009934Y013761D02*
X009384Y013761D01*
X009414Y013774D02*
X009541Y013900D01*
X009609Y014066D01*
X009609Y014245D01*
X009541Y014410D01*
X009414Y014537D01*
X009249Y014605D01*
X009070Y014605D01*
X008904Y014537D01*
X008778Y014410D01*
X008776Y014405D01*
X008543Y014405D01*
X008541Y014410D01*
X008414Y014537D01*
X008249Y014605D01*
X008174Y014605D01*
X006614Y016165D01*
X006424Y016165D01*
X005784Y016165D01*
X005649Y016030D01*
X005266Y015647D01*
X005258Y015650D01*
X005061Y015650D01*
X004879Y015575D01*
X004739Y015435D01*
X004664Y015254D01*
X004664Y015057D01*
X004739Y014875D01*
X004879Y014735D01*
X005061Y014660D01*
X005258Y014660D01*
X005362Y014704D01*
X005304Y014645D01*
X003199Y014645D01*
X003199Y014763D01*
X003117Y014961D01*
X002965Y015113D01*
X002847Y015162D01*
X003010Y015229D01*
X003185Y015404D01*
X003279Y015632D01*
X003279Y015878D01*
X003185Y016106D01*
X003010Y016281D01*
X002782Y016375D01*
X002536Y016375D01*
X002308Y016281D01*
X002133Y016106D01*
X002039Y015878D01*
X002039Y015632D01*
X002133Y015404D01*
X002308Y015229D01*
X002471Y015162D01*
X002353Y015113D01*
X002201Y014961D01*
X002119Y014763D01*
X002119Y014548D01*
X002201Y014349D01*
X002353Y014197D01*
X002552Y014115D01*
X002766Y014115D01*
X002935Y014185D01*
X003014Y014185D01*
X005304Y014185D01*
X005494Y014185D01*
X005996Y014687D01*
X006061Y014660D01*
X006258Y014660D01*
X006439Y014735D01*
X006579Y014875D01*
X006654Y015057D01*
X006654Y015254D01*
X006579Y015435D01*
X006439Y015575D01*
X006258Y015650D01*
X006061Y015650D01*
X005879Y015575D01*
X005739Y015435D01*
X005664Y015254D01*
X005664Y015057D01*
X005679Y015020D01*
X005611Y014952D01*
X005654Y015057D01*
X005654Y015254D01*
X005616Y015346D01*
X005974Y015705D01*
X006424Y015705D01*
X007760Y014369D01*
X007709Y014245D01*
X007709Y014066D01*
X007778Y013900D01*
X007904Y013774D01*
X008070Y013705D01*
X008249Y013705D01*
X008414Y013774D01*
X008541Y013900D01*
X008559Y013945D01*
X008759Y013945D01*
X008778Y013900D01*
X008904Y013774D01*
X009070Y013705D01*
X009249Y013705D01*
X009414Y013774D01*
X009500Y013860D02*
X009818Y013860D01*
X009753Y013958D02*
X009565Y013958D01*
X009605Y014057D02*
X009713Y014057D01*
X009709Y014156D02*
X009609Y014156D01*
X009605Y014254D02*
X009713Y014254D01*
X009754Y014353D02*
X009564Y014353D01*
X009499Y014451D02*
X009819Y014451D01*
X009936Y014550D02*
X009382Y014550D01*
X008936Y014550D02*
X008382Y014550D01*
X008499Y014451D02*
X008819Y014451D01*
X008818Y013860D02*
X008500Y013860D01*
X008384Y013761D02*
X008934Y013761D01*
X008482Y013663D02*
X002449Y013663D01*
X002570Y013564D02*
X005916Y013564D01*
X005910Y013561D02*
X005850Y013517D01*
X005797Y013465D01*
X005753Y013404D01*
X005719Y013337D01*
X005696Y013266D01*
X005684Y013192D01*
X005684Y013174D01*
X006140Y013174D01*
X006140Y013136D01*
X005684Y013136D01*
X005684Y013118D01*
X005696Y013044D01*
X005719Y012973D01*
X002711Y012973D01*
X002739Y013072D02*
X005691Y013072D01*
X005719Y012973D02*
X005753Y012906D01*
X005797Y012846D01*
X005850Y012793D01*
X005910Y012749D01*
X005977Y012715D01*
X005994Y012709D01*
X005833Y012643D01*
X005672Y012481D01*
X005584Y012269D01*
X005584Y012041D01*
X005672Y011829D01*
X005833Y011668D01*
X006045Y011580D01*
X006273Y011580D01*
X006485Y011668D01*
X006646Y011829D01*
X006734Y012041D01*
X006734Y012269D01*
X006646Y012481D01*
X006485Y012643D01*
X006324Y012709D01*
X006341Y012715D01*
X006408Y012749D01*
X006468Y012793D01*
X006521Y012846D01*
X006565Y012906D01*
X006599Y012973D01*
X007792Y012973D01*
X007890Y013072D02*
X006627Y013072D01*
X006622Y013044D02*
X006634Y013118D01*
X006634Y013136D01*
X006178Y013136D01*
X006178Y013174D01*
X006634Y013174D01*
X006634Y013192D01*
X006622Y013266D01*
X006599Y013337D01*
X006565Y013404D01*
X006521Y013465D01*
X006468Y013517D01*
X006408Y013561D01*
X006341Y013595D01*
X006270Y013618D01*
X006196Y013630D01*
X006178Y013630D01*
X006178Y013174D01*
X006140Y013174D01*
X006140Y013630D01*
X006122Y013630D01*
X006048Y013618D01*
X005977Y013595D01*
X005910Y013561D01*
X005798Y013466D02*
X002658Y013466D01*
X002699Y013367D02*
X005734Y013367D01*
X005697Y013269D02*
X002739Y013269D01*
X002739Y013170D02*
X006140Y013170D01*
X006178Y013170D02*
X007989Y013170D01*
X008087Y013269D02*
X006622Y013269D01*
X006584Y013367D02*
X008186Y013367D01*
X008284Y013466D02*
X006520Y013466D01*
X006402Y013564D02*
X008383Y013564D01*
X008639Y013170D02*
X010229Y013170D01*
X010130Y013072D02*
X008541Y013072D01*
X008442Y012973D02*
X010032Y012973D01*
X009933Y012874D02*
X008344Y012874D01*
X008245Y012776D02*
X009835Y012776D01*
X009736Y012677D02*
X008147Y012677D01*
X008048Y012579D02*
X009638Y012579D01*
X009539Y012480D02*
X007949Y012480D01*
X007851Y012382D02*
X009441Y012382D01*
X009342Y012283D02*
X007752Y012283D01*
X007654Y012185D02*
X009243Y012185D01*
X009145Y012086D02*
X007555Y012086D01*
X007457Y011988D02*
X009046Y011988D01*
X008948Y011889D02*
X007358Y011889D01*
X007260Y011791D02*
X008849Y011791D01*
X008751Y011692D02*
X007161Y011692D01*
X007277Y011593D02*
X008041Y011593D01*
X007862Y011495D02*
X007456Y011495D01*
X007546Y011396D02*
X007772Y011396D01*
X007731Y011298D02*
X007587Y011298D01*
X007609Y011199D02*
X007709Y011199D01*
X007709Y011101D02*
X007609Y011101D01*
X007583Y011002D02*
X007735Y011002D01*
X007776Y010904D02*
X007542Y010904D01*
X007445Y010805D02*
X007873Y010805D01*
X008277Y011593D02*
X008652Y011593D01*
X008554Y011495D02*
X008456Y011495D01*
X009303Y011593D02*
X009848Y011593D01*
X009859Y011604D02*
X009710Y011455D01*
X009629Y011261D01*
X009629Y011050D01*
X009710Y010855D01*
X009859Y010706D01*
X010054Y010625D01*
X010264Y010625D01*
X010459Y010706D01*
X010608Y010855D01*
X010689Y011050D01*
X010689Y011261D01*
X010608Y011455D01*
X010459Y011604D01*
X010264Y011685D01*
X010054Y011685D01*
X009859Y011604D01*
X009749Y011495D02*
X009456Y011495D01*
X009546Y011396D02*
X009685Y011396D01*
X009644Y011298D02*
X009587Y011298D01*
X009609Y011199D02*
X009629Y011199D01*
X009629Y011101D02*
X009609Y011101D01*
X009583Y011002D02*
X009649Y011002D01*
X009690Y010904D02*
X009542Y010904D01*
X009445Y010805D02*
X009760Y010805D01*
X009858Y010707D02*
X009252Y010707D01*
X009434Y010017D02*
X009884Y010017D01*
X009786Y009918D02*
X009532Y009918D01*
X009578Y009820D02*
X009740Y009820D01*
X009709Y009721D02*
X009609Y009721D01*
X009609Y009623D02*
X009709Y009623D01*
X009726Y009524D02*
X009592Y009524D01*
X009551Y009425D02*
X009767Y009425D01*
X009851Y009327D02*
X009467Y009327D01*
X009389Y009228D02*
X010013Y009228D01*
X010359Y009130D02*
X009389Y009130D01*
X009389Y009031D02*
X010449Y009031D01*
X010449Y008933D02*
X009389Y008933D01*
X009389Y008834D02*
X010449Y008834D01*
X010449Y008736D02*
X009389Y008736D01*
X009389Y008637D02*
X010449Y008637D01*
X010449Y008539D02*
X009389Y008539D01*
X009389Y008440D02*
X010449Y008440D01*
X010449Y008341D02*
X009389Y008341D01*
X009389Y008243D02*
X010449Y008243D01*
X010449Y008144D02*
X009389Y008144D01*
X009389Y008046D02*
X010449Y008046D01*
X010449Y007947D02*
X009389Y007947D01*
X009389Y007849D02*
X010449Y007849D01*
X010449Y007750D02*
X009389Y007750D01*
X009389Y007652D02*
X010449Y007652D01*
X010449Y007553D02*
X009389Y007553D01*
X009389Y007455D02*
X010449Y007455D01*
X010449Y007356D02*
X009423Y007356D01*
X009522Y007258D02*
X010438Y007258D01*
X010355Y007159D02*
X009620Y007159D01*
X009719Y007060D02*
X009962Y007060D01*
X009829Y006962D02*
X009817Y006962D01*
X008929Y007652D02*
X007928Y007652D01*
X007829Y007750D02*
X008929Y007750D01*
X008929Y007849D02*
X007731Y007849D01*
X007632Y007947D02*
X008929Y007947D01*
X008929Y008046D02*
X007534Y008046D01*
X007435Y008144D02*
X008929Y008144D01*
X008929Y008243D02*
X007336Y008243D01*
X007238Y008341D02*
X008929Y008341D01*
X008929Y008440D02*
X007139Y008440D01*
X007041Y008539D02*
X008929Y008539D01*
X008929Y008637D02*
X006942Y008637D01*
X006844Y008736D02*
X008929Y008736D01*
X008929Y008834D02*
X006745Y008834D01*
X006647Y008933D02*
X008929Y008933D01*
X008929Y009031D02*
X006548Y009031D01*
X006450Y009130D02*
X008929Y009130D01*
X010434Y010017D02*
X010884Y010017D01*
X010786Y009918D02*
X010532Y009918D01*
X010578Y009820D02*
X010740Y009820D01*
X010709Y009721D02*
X010609Y009721D01*
X010609Y009623D02*
X010709Y009623D01*
X010726Y009524D02*
X010615Y009524D01*
X010714Y009425D02*
X010767Y009425D01*
X010812Y009327D02*
X010851Y009327D01*
X010909Y009228D02*
X010929Y009228D01*
X010929Y009130D02*
X010909Y009130D01*
X010909Y009031D02*
X010929Y009031D01*
X010929Y008933D02*
X010909Y008933D01*
X010909Y008834D02*
X010929Y008834D01*
X010929Y008736D02*
X010909Y008736D01*
X010909Y008637D02*
X010929Y008637D01*
X010929Y008539D02*
X010909Y008539D01*
X010909Y008440D02*
X010929Y008440D01*
X010929Y008341D02*
X010909Y008341D01*
X010909Y008243D02*
X010929Y008243D01*
X010929Y008144D02*
X010909Y008144D01*
X010909Y008046D02*
X010929Y008046D01*
X010929Y007947D02*
X010909Y007947D01*
X010909Y007849D02*
X010929Y007849D01*
X010929Y007750D02*
X010909Y007750D01*
X010909Y007652D02*
X010929Y007652D01*
X011448Y007060D02*
X011962Y007060D01*
X011829Y006962D02*
X011489Y006962D01*
X011560Y006863D02*
X011758Y006863D01*
X011717Y006765D02*
X011601Y006765D01*
X011609Y006666D02*
X011709Y006666D01*
X011709Y006568D02*
X011609Y006568D01*
X011670Y006469D02*
X011749Y006469D01*
X011769Y006371D02*
X011807Y006371D01*
X011867Y006272D02*
X011908Y006272D01*
X013881Y006075D02*
X014266Y006075D01*
X014170Y005976D02*
X014009Y005976D01*
X014079Y005878D02*
X014129Y005878D01*
X014381Y006174D02*
X014408Y006174D01*
X014526Y006272D02*
X014908Y006272D01*
X014910Y006174D02*
X015315Y006174D01*
X015414Y006075D02*
X015052Y006075D01*
X015148Y005976D02*
X015512Y005976D01*
X015611Y005878D02*
X015189Y005878D01*
X015230Y005779D02*
X015710Y005779D01*
X015966Y006174D02*
X022664Y006174D01*
X022672Y006272D02*
X020410Y006272D01*
X020414Y006274D02*
X020541Y006400D01*
X020609Y006566D01*
X020609Y006745D01*
X020541Y006910D01*
X020414Y007037D01*
X020249Y007105D01*
X020070Y007105D01*
X019904Y007037D01*
X019778Y006910D01*
X019709Y006745D01*
X019709Y006566D01*
X019778Y006400D01*
X019904Y006274D01*
X020070Y006205D01*
X020249Y006205D01*
X020414Y006274D01*
X020511Y006371D02*
X022713Y006371D01*
X022773Y006469D02*
X020569Y006469D01*
X020609Y006568D02*
X022872Y006568D01*
X023446Y006568D02*
X024009Y006568D01*
X024009Y006666D02*
X020609Y006666D01*
X020601Y006765D02*
X024009Y006765D01*
X024009Y006863D02*
X020560Y006863D01*
X020489Y006962D02*
X024009Y006962D01*
X024009Y007060D02*
X020356Y007060D01*
X019962Y007060D02*
X019356Y007060D01*
X019414Y007037D02*
X019249Y007105D01*
X019070Y007105D01*
X018904Y007037D01*
X018778Y006910D01*
X018709Y006745D01*
X018709Y006566D01*
X018778Y006400D01*
X018904Y006274D01*
X019070Y006205D01*
X019249Y006205D01*
X019414Y006274D01*
X019541Y006400D01*
X019609Y006566D01*
X019609Y006745D01*
X019541Y006910D01*
X019414Y007037D01*
X019489Y006962D02*
X019829Y006962D01*
X019758Y006863D02*
X019560Y006863D01*
X019601Y006765D02*
X019717Y006765D01*
X019709Y006666D02*
X019609Y006666D01*
X019609Y006568D02*
X019709Y006568D01*
X019749Y006469D02*
X019569Y006469D01*
X019511Y006371D02*
X019807Y006371D01*
X019908Y006272D02*
X019410Y006272D01*
X018908Y006272D02*
X018410Y006272D01*
X018414Y006274D02*
X018541Y006400D01*
X018609Y006566D01*
X018609Y006745D01*
X018541Y006910D01*
X018414Y007037D01*
X018249Y007105D01*
X018070Y007105D01*
X017904Y007037D01*
X017778Y006910D01*
X017709Y006745D01*
X017709Y006566D01*
X017778Y006400D01*
X017904Y006274D01*
X018070Y006205D01*
X018249Y006205D01*
X018414Y006274D01*
X018511Y006371D02*
X018807Y006371D01*
X018749Y006469D02*
X018569Y006469D01*
X018609Y006568D02*
X018709Y006568D01*
X018709Y006666D02*
X018609Y006666D01*
X018601Y006765D02*
X018717Y006765D01*
X018758Y006863D02*
X018560Y006863D01*
X018489Y006962D02*
X018829Y006962D01*
X018962Y007060D02*
X018356Y007060D01*
X017962Y007060D02*
X017356Y007060D01*
X017489Y006962D02*
X017829Y006962D01*
X017758Y006863D02*
X017560Y006863D01*
X017601Y006765D02*
X017717Y006765D01*
X017709Y006666D02*
X017609Y006666D01*
X017609Y006568D02*
X017709Y006568D01*
X017749Y006469D02*
X017569Y006469D01*
X017511Y006371D02*
X017807Y006371D01*
X017908Y006272D02*
X017410Y006272D01*
X016908Y006272D02*
X016410Y006272D01*
X016511Y006371D02*
X016807Y006371D01*
X016749Y006469D02*
X016569Y006469D01*
X016609Y006568D02*
X016709Y006568D01*
X016709Y006666D02*
X016609Y006666D01*
X016634Y006765D02*
X016717Y006765D01*
X016732Y006863D02*
X016758Y006863D01*
X016930Y007060D02*
X016962Y007060D01*
X017028Y007159D02*
X024009Y007159D01*
X024009Y007258D02*
X017127Y007258D01*
X017225Y007356D02*
X024009Y007356D01*
X024009Y007455D02*
X017324Y007455D01*
X017422Y007553D02*
X024009Y007553D01*
X024009Y007652D02*
X017521Y007652D01*
X017619Y007750D02*
X022864Y007750D01*
X022765Y007849D02*
X017718Y007849D01*
X017816Y007947D02*
X022709Y007947D01*
X022669Y008046D02*
X017915Y008046D01*
X018014Y008144D02*
X022664Y008144D01*
X022664Y008243D02*
X018112Y008243D01*
X018211Y008341D02*
X022667Y008341D01*
X022569Y008440D02*
X018309Y008440D01*
X018408Y008539D02*
X022470Y008539D01*
X022372Y008637D02*
X018506Y008637D01*
X018605Y008736D02*
X022273Y008736D01*
X022175Y008834D02*
X020863Y008834D01*
X020962Y008933D02*
X022076Y008933D01*
X021978Y009031D02*
X021060Y009031D01*
X021159Y009130D02*
X021879Y009130D01*
X021781Y009228D02*
X021258Y009228D01*
X021356Y009327D02*
X021682Y009327D01*
X021583Y009425D02*
X021455Y009425D01*
X021198Y009820D02*
X020578Y009820D01*
X020609Y009745D02*
X020541Y009910D01*
X020414Y010037D01*
X020249Y010105D01*
X020070Y010105D01*
X019904Y010037D01*
X019778Y009910D01*
X019709Y009745D01*
X019709Y009566D01*
X019778Y009400D01*
X019904Y009274D01*
X020070Y009205D01*
X020249Y009205D01*
X020414Y009274D01*
X020541Y009400D01*
X020609Y009566D01*
X020609Y009745D01*
X020609Y009721D02*
X021100Y009721D01*
X021001Y009623D02*
X020609Y009623D01*
X020592Y009524D02*
X020903Y009524D01*
X020804Y009425D02*
X020551Y009425D01*
X020467Y009327D02*
X020706Y009327D01*
X020607Y009228D02*
X020305Y009228D01*
X020013Y009228D02*
X019305Y009228D01*
X019467Y009327D02*
X019851Y009327D01*
X019767Y009425D02*
X019551Y009425D01*
X019592Y009524D02*
X019726Y009524D01*
X019709Y009623D02*
X019609Y009623D01*
X019609Y009721D02*
X019709Y009721D01*
X019740Y009820D02*
X019578Y009820D01*
X019532Y009918D02*
X019786Y009918D01*
X019884Y010017D02*
X019434Y010017D01*
X019389Y010115D02*
X020960Y010115D01*
X020787Y010214D02*
X019389Y010214D01*
X019389Y010312D02*
X020689Y010312D01*
X020638Y010411D02*
X019328Y010411D01*
X019230Y010509D02*
X020597Y010509D01*
X020584Y010608D02*
X019131Y010608D01*
X019033Y010707D02*
X020584Y010707D01*
X020599Y010805D02*
X018934Y010805D01*
X018836Y010904D02*
X020640Y010904D01*
X020693Y011002D02*
X018737Y011002D01*
X018639Y011101D02*
X020791Y011101D01*
X020802Y011199D02*
X018540Y011199D01*
X018442Y011298D02*
X020703Y011298D01*
X020644Y011396D02*
X018343Y011396D01*
X018244Y011495D02*
X020603Y011495D01*
X020584Y011593D02*
X018146Y011593D01*
X018047Y011692D02*
X020584Y011692D01*
X020593Y011791D02*
X019932Y011791D01*
X020063Y011889D02*
X020634Y011889D01*
X020678Y011988D02*
X020155Y011988D01*
X020196Y012086D02*
X020777Y012086D01*
X020935Y012185D02*
X020237Y012185D01*
X020239Y012283D02*
X021969Y012283D01*
X021969Y012185D02*
X021383Y012185D01*
X021541Y012086D02*
X021906Y012086D01*
X021792Y011988D02*
X021640Y011988D01*
X021684Y011889D02*
X021720Y011889D01*
X021730Y011396D02*
X021674Y011396D01*
X021615Y011298D02*
X021816Y011298D01*
X021966Y011199D02*
X021516Y011199D01*
X021527Y011101D02*
X021941Y011101D01*
X021806Y011002D02*
X021625Y011002D01*
X021678Y010904D02*
X021726Y010904D01*
X021724Y010411D02*
X021680Y010411D01*
X021691Y010312D02*
X021629Y010312D01*
X021593Y010214D02*
X021531Y010214D01*
X021494Y010115D02*
X021358Y010115D01*
X021395Y010017D02*
X020434Y010017D01*
X020532Y009918D02*
X021297Y009918D01*
X021849Y009820D02*
X023181Y009820D01*
X023123Y009918D02*
X021947Y009918D01*
X022046Y010017D02*
X023082Y010017D01*
X023069Y010115D02*
X022144Y010115D01*
X022387Y010214D02*
X023069Y010214D01*
X023090Y010312D02*
X022516Y010312D01*
X022594Y010411D02*
X023131Y010411D01*
X023200Y010509D02*
X022634Y010509D01*
X022654Y010608D02*
X023298Y010608D01*
X023394Y010707D02*
X022654Y010707D01*
X022633Y010805D02*
X023295Y010805D01*
X023229Y010904D02*
X022592Y010904D01*
X022512Y011002D02*
X023188Y011002D01*
X023169Y011101D02*
X022377Y011101D01*
X022352Y011199D02*
X023169Y011199D01*
X023184Y011298D02*
X022502Y011298D01*
X022588Y011396D02*
X023224Y011396D01*
X023285Y011495D02*
X022628Y011495D01*
X022654Y011593D02*
X023384Y011593D01*
X023316Y011692D02*
X022654Y011692D01*
X022639Y011791D02*
X023210Y011791D01*
X023135Y011889D02*
X022598Y011889D01*
X022527Y011988D02*
X023094Y011988D01*
X023069Y012086D02*
X022429Y012086D01*
X022429Y012185D02*
X023069Y012185D01*
X023078Y012283D02*
X022429Y012283D01*
X022429Y012382D02*
X023118Y012382D01*
X023171Y012480D02*
X022429Y012480D01*
X022429Y012579D02*
X023269Y012579D01*
X023325Y012776D02*
X022429Y012776D01*
X022429Y012874D02*
X023241Y012874D01*
X023200Y012973D02*
X022429Y012973D01*
X022429Y013072D02*
X023169Y013072D01*
X023169Y013170D02*
X022429Y013170D01*
X022473Y013269D02*
X023172Y013269D01*
X023212Y013367D02*
X022571Y013367D01*
X022616Y013466D02*
X023256Y013466D01*
X023355Y013564D02*
X022654Y013564D01*
X022654Y013663D02*
X023524Y013663D01*
X023894Y013663D02*
X024009Y013663D01*
X024009Y013761D02*
X022651Y013761D01*
X022610Y013860D02*
X024009Y013860D01*
X024009Y013958D02*
X022556Y013958D01*
X022457Y014057D02*
X024009Y014057D01*
X024009Y014156D02*
X022144Y014156D01*
X022045Y014254D02*
X024009Y014254D01*
X024009Y014353D02*
X021947Y014353D01*
X021848Y014451D02*
X024009Y014451D01*
X024009Y014550D02*
X021750Y014550D01*
X021651Y014648D02*
X024009Y014648D01*
X024009Y014747D02*
X019096Y014747D01*
X018997Y014648D02*
X020027Y014648D01*
X019928Y014550D02*
X018899Y014550D01*
X018800Y014451D02*
X019429Y014451D01*
X019299Y014353D02*
X018702Y014353D01*
X018603Y014254D02*
X019221Y014254D01*
X019180Y014156D02*
X018505Y014156D01*
X018406Y014057D02*
X019159Y014057D01*
X019159Y013958D02*
X018308Y013958D01*
X018209Y013860D02*
X019178Y013860D01*
X019219Y013761D02*
X018111Y013761D01*
X018012Y013663D02*
X019294Y013663D01*
X019406Y013564D02*
X017913Y013564D01*
X017815Y013466D02*
X019291Y013466D01*
X019228Y013367D02*
X017716Y013367D01*
X017618Y013269D02*
X019191Y013269D01*
X019629Y013170D02*
X017519Y013170D01*
X016936Y013663D02*
X014429Y013663D01*
X014429Y013761D02*
X014434Y013761D01*
X014884Y013761D02*
X015434Y013761D01*
X015318Y013860D02*
X015000Y013860D01*
X015065Y013958D02*
X015253Y013958D01*
X015213Y014057D02*
X015105Y014057D01*
X015109Y014156D02*
X015209Y014156D01*
X015213Y014254D02*
X015105Y014254D01*
X015064Y014353D02*
X015254Y014353D01*
X015319Y014451D02*
X014999Y014451D01*
X014882Y014550D02*
X015409Y014550D01*
X015409Y014648D02*
X014429Y014648D01*
X014429Y014550D02*
X014436Y014550D01*
X014429Y014747D02*
X015409Y014747D01*
X015409Y014845D02*
X014414Y014845D01*
X014315Y014944D02*
X015409Y014944D01*
X015409Y015042D02*
X014217Y015042D01*
X014118Y015141D02*
X015409Y015141D01*
X015409Y015240D02*
X014020Y015240D01*
X013921Y015338D02*
X015409Y015338D01*
X015409Y015437D02*
X013849Y015437D01*
X013846Y015535D02*
X015409Y015535D01*
X015409Y015634D02*
X013806Y015634D01*
X013725Y015732D02*
X015318Y015732D01*
X015220Y015831D02*
X013620Y015831D01*
X013718Y015929D02*
X015168Y015929D01*
X015127Y016028D02*
X013817Y016028D01*
X013916Y016126D02*
X015119Y016126D01*
X015119Y016225D02*
X014014Y016225D01*
X014113Y016324D02*
X015144Y016324D01*
X015185Y016422D02*
X014211Y016422D01*
X014310Y016521D02*
X015261Y016521D01*
X015368Y016619D02*
X014408Y016619D01*
X014507Y016718D02*
X015433Y016718D01*
X015334Y016816D02*
X014605Y016816D01*
X014704Y016915D02*
X015274Y016915D01*
X014522Y017703D02*
X013132Y017703D01*
X013134Y017692D02*
X013122Y017766D01*
X013099Y017837D01*
X013065Y017904D01*
X013021Y017965D01*
X012968Y018017D01*
X012908Y018061D01*
X012841Y018095D01*
X012824Y018101D01*
X012985Y018168D01*
X013146Y018329D01*
X013234Y018541D01*
X013234Y018769D01*
X013146Y018981D01*
X012985Y019143D01*
X012773Y019230D01*
X012545Y019230D01*
X012333Y019143D01*
X012172Y018981D01*
X012084Y018769D01*
X012084Y018541D01*
X012172Y018329D01*
X012333Y018168D01*
X012494Y018101D01*
X012477Y018095D01*
X012410Y018061D01*
X012350Y018017D01*
X012297Y017965D01*
X012253Y017904D01*
X012219Y017837D01*
X012196Y017766D01*
X012184Y017692D01*
X012184Y017674D01*
X012640Y017674D01*
X012640Y017636D01*
X012678Y017636D01*
X012678Y017180D01*
X012696Y017180D01*
X012770Y017192D01*
X012841Y017215D01*
X012908Y017249D01*
X012968Y017293D01*
X013021Y017346D01*
X013065Y017406D01*
X013099Y017473D01*
X013122Y017544D01*
X013134Y017618D01*
X013134Y017636D01*
X012678Y017636D01*
X012678Y017674D01*
X013134Y017674D01*
X013134Y017692D01*
X013132Y017605D02*
X014423Y017605D01*
X014325Y017506D02*
X013110Y017506D01*
X013066Y017407D02*
X014226Y017407D01*
X014128Y017309D02*
X012985Y017309D01*
X012827Y017210D02*
X014029Y017210D01*
X013931Y017112D02*
X012199Y017112D01*
X012199Y017048D02*
X012117Y016849D01*
X011965Y016697D01*
X011766Y016615D01*
X011552Y016615D01*
X011353Y016697D01*
X011201Y016849D01*
X011119Y017048D01*
X011119Y017263D01*
X011201Y017461D01*
X011353Y017613D01*
X011552Y017695D01*
X011766Y017695D01*
X011965Y017613D01*
X012117Y017461D01*
X012199Y017263D01*
X012199Y017048D01*
X012185Y017013D02*
X013832Y017013D01*
X013733Y016915D02*
X012144Y016915D01*
X012084Y016816D02*
X013635Y016816D01*
X013536Y016718D02*
X011985Y016718D01*
X011776Y016619D02*
X013438Y016619D01*
X013339Y016521D02*
X001329Y016521D01*
X001329Y016619D02*
X001833Y016619D01*
X001808Y016629D02*
X002036Y016535D01*
X002282Y016535D01*
X002510Y016629D01*
X002685Y016804D01*
X002779Y017032D01*
X002779Y017278D01*
X002685Y017506D01*
X005503Y017506D01*
X005601Y017407D02*
X002726Y017407D01*
X002766Y017309D02*
X005638Y017309D01*
X005619Y017210D02*
X002779Y017210D01*
X002779Y017112D02*
X005619Y017112D01*
X005633Y017013D02*
X002771Y017013D01*
X002731Y016915D02*
X005674Y016915D01*
X005734Y016816D02*
X002690Y016816D01*
X002598Y016718D02*
X005833Y016718D01*
X006042Y016619D02*
X002485Y016619D01*
X002411Y016324D02*
X001329Y016324D01*
X001329Y016422D02*
X013241Y016422D01*
X013142Y016324D02*
X002907Y016324D01*
X003066Y016225D02*
X013044Y016225D01*
X012945Y016126D02*
X006653Y016126D01*
X006751Y016028D02*
X012847Y016028D01*
X012748Y015929D02*
X006850Y015929D01*
X006949Y015831D02*
X012649Y015831D01*
X012640Y017180D02*
X012640Y017636D01*
X012184Y017636D01*
X012184Y017618D01*
X012196Y017544D01*
X012219Y017473D01*
X012253Y017406D01*
X012297Y017346D01*
X012350Y017293D01*
X012410Y017249D01*
X012477Y017215D01*
X012548Y017192D01*
X012622Y017180D01*
X012640Y017180D01*
X012640Y017210D02*
X012678Y017210D01*
X012678Y017309D02*
X012640Y017309D01*
X012640Y017407D02*
X012678Y017407D01*
X012678Y017506D02*
X012640Y017506D01*
X012640Y017605D02*
X012678Y017605D01*
X012491Y017210D02*
X012199Y017210D01*
X012180Y017309D02*
X012333Y017309D01*
X012252Y017407D02*
X012139Y017407D01*
X012072Y017506D02*
X012208Y017506D01*
X012186Y017605D02*
X011973Y017605D01*
X012186Y017703D02*
X005956Y017703D01*
X005858Y017802D02*
X012207Y017802D01*
X012251Y017900D02*
X005759Y017900D01*
X005661Y017999D02*
X012331Y017999D01*
X012483Y018097D02*
X005562Y018097D01*
X005464Y018196D02*
X012305Y018196D01*
X012207Y018294D02*
X005365Y018294D01*
X005266Y018393D02*
X012145Y018393D01*
X012104Y018491D02*
X005176Y018491D01*
X005199Y018590D02*
X008021Y018590D01*
X007812Y018689D02*
X007326Y018689D01*
X007491Y018787D02*
X007714Y018787D01*
X007648Y018886D02*
X007583Y018886D01*
X007602Y019378D02*
X007629Y019378D01*
X007666Y019477D02*
X007670Y019477D01*
X007765Y019575D02*
X007766Y019575D01*
X007863Y019674D02*
X007909Y019674D01*
X007962Y019773D02*
X010198Y019773D01*
X010196Y019766D02*
X010184Y019692D01*
X010184Y019674D01*
X010640Y019674D01*
X008409Y019674D01*
X008552Y019575D02*
X010191Y019575D01*
X010196Y019544D02*
X010219Y019473D01*
X010253Y019406D01*
X010297Y019346D01*
X010350Y019293D01*
X010410Y019249D01*
X010477Y019215D01*
X010548Y019192D01*
X010622Y019180D01*
X010640Y019180D01*
X010640Y019636D01*
X010678Y019636D01*
X010678Y019180D01*
X010696Y019180D01*
X010770Y019192D01*
X010841Y019215D01*
X010908Y019249D01*
X010968Y019293D01*
X011021Y019346D01*
X011065Y019406D01*
X011099Y019473D01*
X011105Y019490D01*
X011172Y019329D01*
X011333Y019168D01*
X011545Y019080D01*
X011773Y019080D01*
X011985Y019168D01*
X012146Y019329D01*
X012234Y019541D01*
X012234Y019769D01*
X012146Y019981D01*
X011985Y020143D01*
X011773Y020230D01*
X011545Y020230D01*
X011333Y020143D01*
X011172Y019981D01*
X011105Y019820D01*
X011099Y019837D01*
X011065Y019904D01*
X011021Y019965D01*
X010968Y020017D01*
X010908Y020061D01*
X010841Y020095D01*
X010770Y020118D01*
X010696Y020130D01*
X010678Y020130D01*
X010678Y019674D01*
X010640Y019674D01*
X010640Y019636D01*
X010184Y019636D01*
X010184Y019618D01*
X010196Y019544D01*
X010217Y019477D02*
X008648Y019477D01*
X008689Y019378D02*
X010273Y019378D01*
X010367Y019280D02*
X008730Y019280D01*
X008734Y019181D02*
X010614Y019181D01*
X010640Y019181D02*
X010678Y019181D01*
X010704Y019181D02*
X011320Y019181D01*
X011221Y019280D02*
X010951Y019280D01*
X011045Y019378D02*
X011151Y019378D01*
X011110Y019477D02*
X011101Y019477D01*
X011538Y019083D02*
X008734Y019083D01*
X008711Y018984D02*
X012175Y018984D01*
X012132Y018886D02*
X008670Y018886D01*
X008604Y018787D02*
X012091Y018787D01*
X012084Y018689D02*
X008506Y018689D01*
X008297Y018590D02*
X012084Y018590D01*
X012273Y019083D02*
X011780Y019083D01*
X011998Y019181D02*
X012427Y019181D01*
X012167Y019378D02*
X015180Y019378D01*
X015140Y019280D02*
X012097Y019280D01*
X012208Y019477D02*
X015221Y019477D01*
X015303Y019575D02*
X012234Y019575D01*
X012234Y019674D02*
X015401Y019674D01*
X015278Y019773D02*
X012233Y019773D01*
X012192Y019871D02*
X015192Y019871D01*
X015151Y019970D02*
X012151Y019970D01*
X012059Y020068D02*
X015119Y020068D01*
X015119Y020167D02*
X011926Y020167D01*
X011392Y020167D02*
X008356Y020167D01*
X008454Y020265D02*
X015120Y020265D01*
X015161Y020364D02*
X008553Y020364D01*
X008651Y020462D02*
X015203Y020462D01*
X015301Y020561D02*
X008750Y020561D01*
X008849Y020659D02*
X015466Y020659D01*
X015421Y020758D02*
X008947Y020758D01*
X009243Y021054D02*
X015249Y021054D01*
X015277Y020955D02*
X015314Y020883D01*
X015240Y021205D02*
X015709Y021205D01*
X015709Y021674D01*
X015637Y021662D01*
X015559Y021637D01*
X015486Y021600D01*
X015420Y021552D01*
X015362Y021494D01*
X015314Y021428D01*
X015277Y021355D01*
X015252Y021277D01*
X015240Y021205D01*
X015248Y021251D02*
X009440Y021251D01*
X009538Y021349D02*
X015275Y021349D01*
X015329Y021448D02*
X009637Y021448D01*
X009735Y021546D02*
X015415Y021546D01*
X015584Y021645D02*
X011917Y021645D01*
X012053Y021743D02*
X012432Y021743D01*
X012308Y021842D02*
X012146Y021842D01*
X012187Y021940D02*
X012241Y021940D01*
X012609Y021940D02*
X012709Y021940D01*
X012709Y021842D02*
X012609Y021842D01*
X012609Y021743D02*
X012709Y021743D01*
X012886Y021743D02*
X015657Y021743D01*
X015709Y021645D02*
X015809Y021645D01*
X015809Y021546D02*
X015709Y021546D01*
X015709Y021448D02*
X015809Y021448D01*
X015809Y021349D02*
X015709Y021349D01*
X015709Y021251D02*
X015809Y021251D01*
X015809Y021152D02*
X018209Y021152D01*
X018209Y021205D02*
X017740Y021205D01*
X017752Y021277D01*
X017777Y021355D01*
X017814Y021428D01*
X017862Y021494D01*
X017920Y021552D01*
X017986Y021600D01*
X018059Y021637D01*
X018137Y021662D01*
X018209Y021674D01*
X018209Y021205D01*
X018209Y021251D02*
X018309Y021251D01*
X018309Y021349D02*
X018209Y021349D01*
X018209Y021448D02*
X018309Y021448D01*
X018309Y021546D02*
X018209Y021546D01*
X018209Y021645D02*
X018309Y021645D01*
X018434Y021645D02*
X020584Y021645D01*
X020559Y021637D02*
X020486Y021600D01*
X020420Y021552D01*
X020362Y021494D01*
X020314Y021428D01*
X020277Y021355D01*
X020252Y021277D01*
X020240Y021205D01*
X020709Y021205D01*
X020709Y021674D01*
X020637Y021662D01*
X020559Y021637D01*
X020709Y021645D02*
X020809Y021645D01*
X020809Y021546D02*
X020709Y021546D01*
X020709Y021448D02*
X020809Y021448D01*
X020809Y021349D02*
X020709Y021349D01*
X020709Y021251D02*
X020809Y021251D01*
X020809Y021152D02*
X021522Y021152D01*
X021424Y021251D02*
X021270Y021251D01*
X021243Y021349D02*
X021325Y021349D01*
X021227Y021448D02*
X021189Y021448D01*
X021128Y021546D02*
X021103Y021546D01*
X021029Y021645D02*
X020934Y021645D01*
X020709Y021152D02*
X018309Y021152D01*
X018704Y020883D02*
X018656Y020816D01*
X018598Y020758D01*
X018532Y020710D01*
X018459Y020673D01*
X018381Y020648D01*
X018380Y020648D01*
X018465Y020613D01*
X018617Y020461D01*
X018673Y020325D01*
X020145Y020325D01*
X020201Y020461D01*
X020353Y020613D01*
X020532Y020687D01*
X020486Y020710D01*
X020420Y020758D01*
X020362Y020816D01*
X020314Y020883D01*
X020277Y020955D01*
X020249Y021054D02*
X018769Y021054D01*
X018741Y020955D02*
X018704Y020883D01*
X018685Y020856D02*
X020333Y020856D01*
X020421Y020758D02*
X018597Y020758D01*
X018416Y020659D02*
X020466Y020659D01*
X020301Y020561D02*
X018517Y020561D01*
X018615Y020462D02*
X020203Y020462D01*
X020161Y020364D02*
X018657Y020364D01*
X018032Y020687D02*
X017853Y020613D01*
X017701Y020461D01*
X017645Y020325D01*
X016173Y020325D01*
X016117Y020461D01*
X015965Y020613D01*
X015880Y020648D01*
X015881Y020648D01*
X015959Y020673D01*
X016032Y020710D01*
X016098Y020758D01*
X016156Y020816D01*
X016204Y020883D01*
X016241Y020955D01*
X016269Y021054D02*
X017749Y021054D01*
X017777Y020955D02*
X017814Y020883D01*
X017862Y020816D01*
X017920Y020758D01*
X017986Y020710D01*
X018032Y020687D01*
X017966Y020659D02*
X015916Y020659D01*
X016017Y020561D02*
X017801Y020561D01*
X017703Y020462D02*
X016115Y020462D01*
X016157Y020364D02*
X017661Y020364D01*
X017921Y020758D02*
X016097Y020758D01*
X016185Y020856D02*
X017833Y020856D01*
X017748Y021251D02*
X016270Y021251D01*
X016243Y021349D02*
X017775Y021349D01*
X017829Y021448D02*
X016189Y021448D01*
X016103Y021546D02*
X017915Y021546D01*
X018084Y021645D02*
X015934Y021645D01*
X015552Y021842D02*
X013011Y021842D01*
X013077Y021940D02*
X015454Y021940D01*
X015355Y022039D02*
X013115Y022039D01*
X013122Y022236D02*
X015158Y022236D01*
X015060Y022335D02*
X013095Y022335D01*
X013038Y022433D02*
X014961Y022433D01*
X014863Y022532D02*
X012940Y022532D01*
X012709Y022532D02*
X012609Y022532D01*
X012609Y022433D02*
X012709Y022433D01*
X012709Y022335D02*
X012609Y022335D01*
X012609Y022236D02*
X012709Y022236D01*
X012709Y022138D02*
X015257Y022138D01*
X014764Y022630D02*
X011990Y022630D01*
X012089Y022532D02*
X012378Y022532D01*
X012280Y022433D02*
X012161Y022433D01*
X012202Y022335D02*
X012223Y022335D01*
X012609Y022039D02*
X012709Y022039D01*
X011401Y021645D02*
X009834Y021645D01*
X009933Y021743D02*
X010378Y021743D01*
X010279Y021842D02*
X010031Y021842D01*
X010138Y022335D02*
X010203Y022335D01*
X010335Y022532D02*
X010343Y022532D01*
X010434Y022630D02*
X010526Y022630D01*
X010792Y022630D02*
X011328Y022630D01*
X011230Y022532D02*
X010975Y022532D01*
X011115Y022335D02*
X011117Y022335D01*
X011100Y021940D02*
X011131Y021940D01*
X011172Y021842D02*
X011039Y021842D01*
X010940Y021743D02*
X011265Y021743D01*
X011259Y020068D02*
X010895Y020068D01*
X011016Y019970D02*
X011167Y019970D01*
X011126Y019871D02*
X011082Y019871D01*
X010678Y019871D02*
X010640Y019871D01*
X010640Y019773D02*
X010678Y019773D01*
X010640Y019674D02*
X010640Y020130D01*
X010622Y020130D01*
X010548Y020118D01*
X010477Y020095D01*
X010410Y020061D01*
X010350Y020017D01*
X010297Y019965D01*
X010253Y019904D01*
X010219Y019837D01*
X010196Y019766D01*
X010236Y019871D02*
X008060Y019871D01*
X008159Y019970D02*
X010302Y019970D01*
X010423Y020068D02*
X008257Y020068D01*
X007903Y020364D02*
X007623Y020364D01*
X007617Y020349D02*
X007699Y020548D01*
X007699Y020763D01*
X007617Y020961D01*
X007465Y021113D01*
X007266Y021195D01*
X007052Y021195D01*
X006853Y021113D01*
X006701Y020961D01*
X006619Y020763D01*
X006619Y020548D01*
X006701Y020349D01*
X006853Y020197D01*
X007052Y020115D01*
X007266Y020115D01*
X007465Y020197D01*
X007617Y020349D01*
X007533Y020265D02*
X007804Y020265D01*
X007705Y020167D02*
X007391Y020167D01*
X007508Y019970D02*
X005108Y019970D01*
X005154Y019871D02*
X007410Y019871D01*
X007311Y019773D02*
X006687Y019773D01*
X006785Y019674D02*
X007213Y019674D01*
X007607Y020068D02*
X005010Y020068D01*
X004835Y020167D02*
X006927Y020167D01*
X006785Y020265D02*
X004533Y020265D01*
X004465Y020197D02*
X004266Y020115D01*
X004052Y020115D01*
X003853Y020197D01*
X003701Y020349D01*
X003619Y020548D01*
X003619Y020763D01*
X003701Y020961D01*
X003853Y021113D01*
X004052Y021195D01*
X004266Y021195D01*
X004465Y021113D01*
X004617Y020961D01*
X004699Y020763D01*
X004699Y020548D01*
X004617Y020349D01*
X004465Y020197D01*
X004483Y020167D02*
X004391Y020167D01*
X004308Y020068D02*
X002699Y020068D01*
X002699Y020167D02*
X003927Y020167D01*
X003785Y020265D02*
X002698Y020265D01*
X002657Y020364D02*
X003695Y020364D01*
X003654Y020462D02*
X002615Y020462D01*
X002517Y020561D02*
X003619Y020561D01*
X003619Y020659D02*
X002529Y020659D01*
X002627Y020758D02*
X003619Y020758D01*
X003658Y020856D02*
X002726Y020856D01*
X002824Y020955D02*
X003699Y020955D01*
X003794Y021054D02*
X002923Y021054D01*
X003021Y021152D02*
X003948Y021152D01*
X004370Y021152D02*
X006948Y021152D01*
X006794Y021054D02*
X004524Y021054D01*
X004619Y020955D02*
X006699Y020955D01*
X006658Y020856D02*
X004660Y020856D01*
X004699Y020758D02*
X006619Y020758D01*
X006619Y020659D02*
X004699Y020659D01*
X004699Y020561D02*
X006619Y020561D01*
X006654Y020462D02*
X004664Y020462D01*
X004623Y020364D02*
X006695Y020364D01*
X007370Y021152D02*
X008691Y021152D01*
X008789Y021251D02*
X003120Y021251D01*
X003218Y021349D02*
X008888Y021349D01*
X008986Y021448D02*
X003317Y021448D01*
X003415Y021546D02*
X009085Y021546D01*
X009184Y021645D02*
X003514Y021645D01*
X003613Y021743D02*
X009282Y021743D01*
X009341Y021152D02*
X015709Y021152D01*
X016022Y022532D02*
X021940Y022532D01*
X021928Y022542D02*
X021762Y022829D01*
X021762Y022829D01*
X021705Y023155D01*
X021705Y023155D01*
X021762Y023482D01*
X021762Y023482D01*
X021928Y023769D01*
X021928Y023769D01*
X021928Y023769D01*
X022182Y023982D01*
X022182Y023982D01*
X022493Y024095D01*
X022493Y024095D01*
X022572Y024095D01*
X022645Y024095D01*
X022659Y024095D01*
X022746Y024095D01*
X022825Y024095D01*
X022825Y024095D01*
X023136Y023982D01*
X023136Y023982D01*
X023390Y023769D01*
X023390Y023769D01*
X023556Y023482D01*
X023556Y023482D01*
X023614Y023155D01*
X023614Y023155D01*
X023556Y022829D01*
X023556Y022829D01*
X023390Y022542D01*
X023390Y022542D01*
X023390Y022542D01*
X023136Y022329D01*
X023136Y022329D01*
X022825Y022215D01*
X022825Y022215D01*
X022746Y022215D01*
X022659Y022215D01*
X022493Y022215D01*
X022493Y022215D01*
X022182Y022329D01*
X022182Y022329D01*
X021928Y022542D01*
X021928Y022542D01*
X021877Y022630D02*
X015924Y022630D01*
X015825Y022729D02*
X021820Y022729D01*
X021763Y022827D02*
X015727Y022827D01*
X015628Y022926D02*
X021745Y022926D01*
X021728Y023024D02*
X015529Y023024D01*
X015431Y023123D02*
X016412Y023123D01*
X016353Y023147D02*
X016552Y023065D01*
X016766Y023065D01*
X016965Y023147D01*
X017117Y023299D01*
X017180Y023451D01*
X017201Y023399D01*
X017353Y023247D01*
X017552Y023165D01*
X017766Y023165D01*
X017965Y023247D01*
X018117Y023399D01*
X018138Y023451D01*
X018201Y023299D01*
X018353Y023147D01*
X018552Y023065D01*
X018766Y023065D01*
X018965Y023147D01*
X019117Y023299D01*
X019180Y023451D01*
X019201Y023399D01*
X019353Y023247D01*
X019552Y023165D01*
X019766Y023165D01*
X019965Y023247D01*
X020117Y023399D01*
X020199Y023598D01*
X020199Y023813D01*
X021981Y023813D01*
X021897Y023714D02*
X020199Y023714D01*
X020199Y023616D02*
X021840Y023616D01*
X021783Y023517D02*
X020166Y023517D01*
X020125Y023419D02*
X021751Y023419D01*
X021734Y023320D02*
X020038Y023320D01*
X019903Y023222D02*
X021716Y023222D01*
X021710Y023123D02*
X018906Y023123D01*
X019039Y023222D02*
X019415Y023222D01*
X019280Y023320D02*
X019125Y023320D01*
X019166Y023419D02*
X019193Y023419D01*
X019138Y023859D02*
X019117Y023911D01*
X018965Y024063D01*
X018766Y024145D01*
X018552Y024145D01*
X018353Y024063D01*
X018201Y023911D01*
X018180Y023859D01*
X018117Y024011D01*
X017965Y024163D01*
X017766Y024245D01*
X017552Y024245D01*
X017353Y024163D01*
X017201Y024011D01*
X017138Y023859D01*
X017117Y023911D01*
X016965Y024063D01*
X016766Y024145D01*
X016552Y024145D01*
X016353Y024063D01*
X016201Y023911D01*
X016180Y023859D01*
X016117Y024011D01*
X015965Y024163D01*
X015766Y024245D01*
X015552Y024245D01*
X015353Y024163D01*
X015201Y024011D01*
X015119Y023813D01*
X006807Y023813D01*
X006905Y023714D02*
X015119Y023714D01*
X015119Y023616D02*
X008508Y023616D01*
X008515Y023613D02*
X008316Y023695D01*
X008102Y023695D01*
X007903Y023613D01*
X007751Y023461D01*
X007669Y023263D01*
X007669Y023048D01*
X007751Y022849D01*
X007903Y022697D01*
X008102Y022615D01*
X008316Y022615D01*
X008515Y022697D01*
X008667Y022849D01*
X008749Y023048D01*
X008749Y023263D01*
X008667Y023461D01*
X008515Y023613D01*
X008611Y023517D02*
X010210Y023517D01*
X010063Y023419D02*
X008684Y023419D01*
X008725Y023320D02*
X009964Y023320D01*
X009866Y023222D02*
X008749Y023222D01*
X008749Y023123D02*
X009767Y023123D01*
X009669Y023024D02*
X008739Y023024D01*
X008699Y022926D02*
X009570Y022926D01*
X009471Y022827D02*
X008645Y022827D01*
X008546Y022729D02*
X009373Y022729D01*
X009274Y022630D02*
X008353Y022630D01*
X008065Y022630D02*
X007253Y022630D01*
X007446Y022729D02*
X007872Y022729D01*
X007773Y022827D02*
X007545Y022827D01*
X007599Y022926D02*
X007719Y022926D01*
X007679Y023024D02*
X007639Y023024D01*
X007649Y023123D02*
X007669Y023123D01*
X007669Y023222D02*
X007649Y023222D01*
X007625Y023320D02*
X007693Y023320D01*
X007734Y023419D02*
X007584Y023419D01*
X007511Y023517D02*
X007807Y023517D01*
X007910Y023616D02*
X007408Y023616D01*
X006708Y023911D02*
X015160Y023911D01*
X015119Y023813D02*
X015119Y023598D01*
X015201Y023399D01*
X015353Y023247D01*
X015552Y023165D01*
X015766Y023165D01*
X015965Y023247D01*
X016117Y023399D01*
X016138Y023451D01*
X016201Y023299D01*
X016353Y023147D01*
X016279Y023222D02*
X015903Y023222D01*
X016038Y023320D02*
X016193Y023320D01*
X016152Y023419D02*
X016125Y023419D01*
X016158Y023911D02*
X016202Y023911D01*
X016117Y024010D02*
X016300Y024010D01*
X016463Y024108D02*
X016019Y024108D01*
X015859Y024207D02*
X017460Y024207D01*
X017299Y024108D02*
X016855Y024108D01*
X017018Y024010D02*
X017201Y024010D01*
X017160Y023911D02*
X017116Y023911D01*
X017166Y023419D02*
X017193Y023419D01*
X017125Y023320D02*
X017280Y023320D01*
X017415Y023222D02*
X017039Y023222D01*
X016906Y023123D02*
X018412Y023123D01*
X018279Y023222D02*
X017903Y023222D01*
X018038Y023320D02*
X018193Y023320D01*
X018152Y023419D02*
X018125Y023419D01*
X018158Y023911D02*
X018202Y023911D01*
X018117Y024010D02*
X018300Y024010D01*
X018463Y024108D02*
X018019Y024108D01*
X017859Y024207D02*
X019460Y024207D01*
X019552Y024245D02*
X019353Y024163D01*
X019201Y024011D01*
X019138Y023859D01*
X019116Y023911D02*
X019160Y023911D01*
X019201Y024010D02*
X019018Y024010D01*
X018855Y024108D02*
X019299Y024108D01*
X019552Y024245D02*
X019766Y024245D01*
X019965Y024163D01*
X020117Y024011D01*
X020199Y023813D01*
X020158Y023911D02*
X022098Y023911D01*
X022259Y024010D02*
X020117Y024010D01*
X020019Y024108D02*
X024009Y024108D01*
X024009Y024010D02*
X023059Y024010D01*
X023220Y023911D02*
X024009Y023911D01*
X024009Y023813D02*
X023338Y023813D01*
X023422Y023714D02*
X024009Y023714D01*
X024009Y023616D02*
X023479Y023616D01*
X023535Y023517D02*
X024009Y023517D01*
X024009Y023419D02*
X023567Y023419D01*
X023584Y023320D02*
X024009Y023320D01*
X024009Y023222D02*
X023602Y023222D01*
X023608Y023123D02*
X024009Y023123D01*
X024009Y023024D02*
X023590Y023024D01*
X023573Y022926D02*
X024009Y022926D01*
X024009Y022827D02*
X023555Y022827D01*
X023498Y022729D02*
X024009Y022729D01*
X024009Y022630D02*
X023441Y022630D01*
X023378Y022532D02*
X024009Y022532D01*
X024009Y022433D02*
X023261Y022433D01*
X023144Y022335D02*
X024009Y022335D01*
X024009Y022236D02*
X022882Y022236D01*
X022436Y022236D02*
X021598Y022236D01*
X021696Y022138D02*
X024009Y022138D01*
X024009Y022039D02*
X021795Y022039D01*
X021893Y021940D02*
X024009Y021940D01*
X024009Y021842D02*
X021992Y021842D01*
X022091Y021743D02*
X024009Y021743D01*
X024009Y021645D02*
X023434Y021645D01*
X023309Y021645D02*
X023209Y021645D01*
X023209Y021674D02*
X023137Y021662D01*
X023059Y021637D01*
X022986Y021600D01*
X022920Y021552D01*
X022862Y021494D01*
X022814Y021428D01*
X022777Y021355D01*
X022752Y021277D01*
X022740Y021205D01*
X023209Y021205D01*
X023209Y021674D01*
X023209Y021546D02*
X023309Y021546D01*
X023309Y021448D02*
X023209Y021448D01*
X023209Y021349D02*
X023309Y021349D01*
X023309Y021251D02*
X023209Y021251D01*
X023209Y021152D02*
X022682Y021152D01*
X022737Y021054D02*
X022749Y021054D01*
X022748Y021251D02*
X022583Y021251D01*
X022485Y021349D02*
X022775Y021349D01*
X022829Y021448D02*
X022386Y021448D01*
X022288Y021546D02*
X022915Y021546D01*
X023084Y021645D02*
X022189Y021645D01*
X022174Y022335D02*
X021499Y022335D01*
X021401Y022433D02*
X022057Y022433D01*
X021266Y021033D02*
X021241Y020955D01*
X021185Y020856D02*
X021818Y020856D01*
X021916Y020758D02*
X021097Y020758D01*
X020916Y020659D02*
X021949Y020659D01*
X021987Y020561D02*
X021017Y020561D01*
X021115Y020462D02*
X022052Y020462D01*
X022151Y020364D02*
X021157Y020364D01*
X021198Y020265D02*
X022249Y020265D01*
X022348Y020167D02*
X021199Y020167D01*
X021199Y020068D02*
X022446Y020068D01*
X022545Y019970D02*
X021167Y019970D01*
X021126Y019871D02*
X022606Y019871D01*
X022665Y019773D02*
X021040Y019773D01*
X021117Y019674D02*
X022763Y019674D01*
X022803Y019575D02*
X021216Y019575D01*
X021297Y019477D02*
X022721Y019477D01*
X022680Y019378D02*
X021338Y019378D01*
X021378Y019280D02*
X022640Y019280D01*
X022639Y019181D02*
X021379Y019181D01*
X021379Y019083D02*
X022639Y019083D01*
X022659Y018984D02*
X021359Y018984D01*
X021318Y018886D02*
X022700Y018886D01*
X022750Y018787D02*
X021268Y018787D01*
X021169Y018689D02*
X022849Y018689D01*
X022830Y018590D02*
X021015Y018590D01*
X021086Y018491D02*
X022732Y018491D01*
X022673Y018393D02*
X021145Y018393D01*
X021244Y016915D02*
X022774Y016915D01*
X022834Y016816D02*
X021184Y016816D01*
X021085Y016718D02*
X022933Y016718D01*
X022868Y016619D02*
X020950Y016619D01*
X021057Y016521D02*
X022761Y016521D01*
X022685Y016422D02*
X021133Y016422D01*
X021174Y016324D02*
X022644Y016324D01*
X022619Y016225D02*
X021199Y016225D01*
X021199Y016126D02*
X022619Y016126D01*
X022627Y016028D02*
X021191Y016028D01*
X021150Y015929D02*
X022668Y015929D01*
X022720Y015831D02*
X021098Y015831D01*
X021000Y015732D02*
X022818Y015732D01*
X023007Y015634D02*
X020811Y015634D01*
X020507Y015634D02*
X018311Y015634D01*
X018500Y015732D02*
X020318Y015732D01*
X020220Y015831D02*
X018598Y015831D01*
X018937Y015437D02*
X015869Y015437D01*
X015869Y015535D02*
X019045Y015535D01*
X018890Y015338D02*
X015869Y015338D01*
X015869Y015240D02*
X018869Y015240D01*
X018840Y015141D02*
X015869Y015141D01*
X015869Y015042D02*
X018741Y015042D01*
X018643Y014944D02*
X015869Y014944D01*
X015869Y014845D02*
X018544Y014845D01*
X018446Y014747D02*
X015869Y014747D01*
X015869Y014648D02*
X016939Y014648D01*
X016790Y014550D02*
X015882Y014550D01*
X015999Y014451D02*
X016697Y014451D01*
X016656Y014353D02*
X016064Y014353D01*
X016105Y014254D02*
X016619Y014254D01*
X016619Y014156D02*
X016109Y014156D01*
X016105Y014057D02*
X016619Y014057D01*
X016656Y013958D02*
X016065Y013958D01*
X016000Y013860D02*
X016697Y013860D01*
X016789Y013761D02*
X015884Y013761D01*
X017379Y014648D02*
X018347Y014648D01*
X018248Y014550D02*
X017528Y014550D01*
X017621Y014451D02*
X018150Y014451D01*
X018051Y014353D02*
X017662Y014353D01*
X017699Y014254D02*
X017953Y014254D01*
X017854Y014156D02*
X017699Y014156D01*
X017699Y014057D02*
X017756Y014057D01*
X018007Y015634D02*
X015869Y015634D01*
X016000Y015732D02*
X017818Y015732D01*
X017720Y015831D02*
X016098Y015831D01*
X013961Y014648D02*
X013853Y014648D01*
X013129Y014057D02*
X013079Y014057D01*
X013041Y013958D02*
X013167Y013958D01*
X013208Y013860D02*
X012972Y013860D01*
X012833Y013761D02*
X013303Y013761D01*
X013463Y013663D02*
X011452Y013663D01*
X011416Y013564D02*
X011353Y013564D01*
X011298Y013466D02*
X011255Y013466D01*
X011234Y013367D02*
X011156Y013367D01*
X011197Y013269D02*
X011058Y013269D01*
X010959Y013170D02*
X011640Y013170D01*
X011678Y013170D02*
X013969Y013170D01*
X013969Y013663D02*
X013856Y013663D01*
X013969Y012776D02*
X011945Y012776D01*
X011901Y012677D02*
X013969Y012677D01*
X013969Y012579D02*
X012048Y012579D01*
X012147Y012480D02*
X013969Y012480D01*
X013969Y012382D02*
X012188Y012382D01*
X012228Y012283D02*
X013969Y012283D01*
X013969Y012185D02*
X012234Y012185D01*
X012234Y012086D02*
X013969Y012086D01*
X013969Y011988D02*
X012212Y011988D01*
X012171Y011889D02*
X013969Y011889D01*
X013969Y011791D02*
X012108Y011791D01*
X012009Y011692D02*
X013871Y011692D01*
X013541Y011593D02*
X012777Y011593D01*
X012749Y011605D02*
X012570Y011605D01*
X012404Y011537D01*
X012278Y011410D01*
X012209Y011245D01*
X012209Y011066D01*
X012278Y010900D01*
X012404Y010774D01*
X012570Y010705D01*
X012749Y010705D01*
X012914Y010774D01*
X013041Y010900D01*
X013109Y011066D01*
X013109Y011245D01*
X013041Y011410D01*
X012914Y011537D01*
X012749Y011605D01*
X012541Y011593D02*
X011806Y011593D01*
X011512Y011593D02*
X010470Y011593D01*
X010569Y011495D02*
X012362Y011495D01*
X012272Y011396D02*
X010633Y011396D01*
X010674Y011298D02*
X012231Y011298D01*
X012209Y011199D02*
X010689Y011199D01*
X010689Y011101D02*
X012209Y011101D01*
X012235Y011002D02*
X010669Y011002D01*
X010629Y010904D02*
X012276Y010904D01*
X012373Y010805D02*
X010559Y010805D01*
X010460Y010707D02*
X012566Y010707D01*
X012752Y010707D02*
X013566Y010707D01*
X013752Y010707D02*
X013822Y010707D01*
X013373Y010805D02*
X012945Y010805D01*
X013042Y010904D02*
X013276Y010904D01*
X013235Y011002D02*
X013083Y011002D01*
X013109Y011101D02*
X013209Y011101D01*
X013209Y011199D02*
X013109Y011199D01*
X013087Y011298D02*
X013231Y011298D01*
X013272Y011396D02*
X013046Y011396D01*
X012956Y011495D02*
X013362Y011495D01*
X013994Y010054D02*
X013934Y010023D01*
X013994Y010054D02*
X014058Y010074D01*
X014125Y010085D01*
X014129Y010085D01*
X014129Y009685D01*
X014189Y009685D01*
X014589Y009685D01*
X014589Y009689D01*
X014578Y009756D01*
X014558Y009820D01*
X014760Y009820D01*
X014761Y009820D02*
X014740Y009756D01*
X014729Y009689D01*
X014729Y009685D01*
X015129Y009685D01*
X015129Y009625D01*
X014729Y009625D01*
X014729Y009621D01*
X014740Y009554D01*
X014761Y009490D01*
X014791Y009430D01*
X014831Y009375D01*
X014879Y009327D01*
X014794Y009425D02*
X014524Y009425D01*
X014527Y009430D02*
X014558Y009490D01*
X014578Y009554D01*
X014589Y009621D01*
X014589Y009625D01*
X014189Y009625D01*
X014189Y009685D01*
X014189Y010085D01*
X014193Y010085D01*
X014260Y010074D01*
X014324Y010054D01*
X014384Y010023D01*
X014439Y009983D01*
X014487Y009935D01*
X014527Y009880D01*
X014558Y009820D01*
X014584Y009721D02*
X014734Y009721D01*
X014729Y009623D02*
X014589Y009623D01*
X014569Y009524D02*
X014749Y009524D01*
X014527Y009430D02*
X014487Y009375D01*
X014439Y009327D01*
X014214Y009228D02*
X015105Y009228D01*
X015129Y009228D02*
X015189Y009228D01*
X015189Y009327D02*
X015129Y009327D01*
X015129Y009425D02*
X015189Y009425D01*
X015189Y009524D02*
X015129Y009524D01*
X015129Y009623D02*
X015189Y009623D01*
X015189Y009685D02*
X015129Y009685D01*
X015129Y010085D01*
X015125Y010085D01*
X015058Y010074D01*
X014994Y010054D01*
X014934Y010023D01*
X014879Y009983D01*
X014831Y009935D01*
X014791Y009880D01*
X014761Y009820D01*
X014819Y009918D02*
X014499Y009918D01*
X014393Y010017D02*
X014925Y010017D01*
X015129Y010017D02*
X015189Y010017D01*
X015189Y010085D02*
X015189Y009685D01*
X015189Y009721D02*
X015129Y009721D01*
X015129Y009820D02*
X015189Y009820D01*
X015189Y009918D02*
X015129Y009918D01*
X015189Y010085D02*
X015193Y010085D01*
X015260Y010074D01*
X015324Y010054D01*
X015384Y010023D01*
X015439Y009983D01*
X015487Y009935D01*
X015527Y009880D01*
X015558Y009820D01*
X015571Y009918D02*
X015499Y009918D01*
X015472Y010017D02*
X015393Y010017D01*
X016434Y010017D02*
X016884Y010017D01*
X016786Y009918D02*
X016532Y009918D01*
X016578Y009820D02*
X016740Y009820D01*
X016709Y009721D02*
X016609Y009721D01*
X016609Y009623D02*
X016709Y009623D01*
X016726Y009524D02*
X016592Y009524D01*
X016551Y009425D02*
X016767Y009425D01*
X016851Y009327D02*
X016467Y009327D01*
X017462Y008243D02*
X014529Y008243D01*
X014529Y008341D02*
X017560Y008341D01*
X017659Y008440D02*
X014529Y008440D01*
X014529Y008539D02*
X017757Y008539D01*
X017856Y008637D02*
X014504Y008637D01*
X014458Y008736D02*
X017954Y008736D01*
X018053Y008834D02*
X014360Y008834D01*
X014261Y008933D02*
X018151Y008933D01*
X018250Y009031D02*
X014163Y009031D01*
X014064Y009130D02*
X018349Y009130D01*
X018305Y009228D02*
X019013Y009228D01*
X018851Y009327D02*
X018467Y009327D01*
X018551Y009425D02*
X018767Y009425D01*
X018726Y009524D02*
X018592Y009524D01*
X018609Y009623D02*
X018709Y009623D01*
X018709Y009721D02*
X018609Y009721D01*
X018578Y009820D02*
X018740Y009820D01*
X018786Y009918D02*
X018532Y009918D01*
X018434Y010017D02*
X018884Y010017D01*
X018929Y010115D02*
X018024Y010115D01*
X017926Y010214D02*
X018875Y010214D01*
X018777Y010312D02*
X017827Y010312D01*
X017728Y010411D02*
X018678Y010411D01*
X018579Y010509D02*
X017630Y010509D01*
X017531Y010608D02*
X018481Y010608D01*
X018382Y010707D02*
X017474Y010707D01*
X017573Y010805D02*
X018284Y010805D01*
X018185Y010904D02*
X017639Y010904D01*
X017680Y011002D02*
X018087Y011002D01*
X017988Y011101D02*
X017699Y011101D01*
X017699Y011199D02*
X017890Y011199D01*
X017791Y011298D02*
X017684Y011298D01*
X017693Y011396D02*
X017644Y011396D01*
X017594Y011495D02*
X017583Y011495D01*
X017495Y011593D02*
X017484Y011593D01*
X017397Y011692D02*
X017274Y011692D01*
X017044Y011692D02*
X016946Y011692D01*
X017014Y012283D02*
X019079Y012283D01*
X019081Y012185D02*
X017555Y012185D01*
X017653Y012086D02*
X019122Y012086D01*
X019163Y011988D02*
X017752Y011988D01*
X017850Y011889D02*
X019255Y011889D01*
X019386Y011791D02*
X017949Y011791D01*
X019689Y013170D02*
X020831Y013170D01*
X020732Y013269D02*
X020127Y013269D01*
X020090Y013367D02*
X020656Y013367D01*
X020615Y013466D02*
X020027Y013466D01*
X019912Y013564D02*
X020584Y013564D01*
X020584Y013663D02*
X020024Y013663D01*
X020099Y013761D02*
X020584Y013761D01*
X020622Y013860D02*
X020140Y013860D01*
X020159Y013958D02*
X020662Y013958D01*
X020748Y014057D02*
X020159Y014057D01*
X020185Y014156D02*
X020865Y014156D01*
X021395Y014254D02*
X020283Y014254D01*
X019491Y014944D02*
X024009Y014944D01*
X024009Y014845D02*
X019313Y014845D01*
X019609Y015240D02*
X024009Y015240D01*
X024009Y015338D02*
X019589Y015338D01*
X019541Y015437D02*
X024009Y015437D01*
X024009Y015535D02*
X019433Y015535D01*
X021453Y014156D02*
X021493Y014156D01*
X021570Y014057D02*
X021592Y014057D01*
X021656Y013958D02*
X021690Y013958D01*
X021697Y013860D02*
X021708Y013860D01*
X021747Y013367D02*
X021662Y013367D01*
X021586Y013269D02*
X021845Y013269D01*
X021969Y013170D02*
X021487Y013170D01*
X021969Y013072D02*
X020132Y013072D01*
X020105Y012973D02*
X021969Y012973D01*
X021969Y012874D02*
X020048Y012874D01*
X020008Y012776D02*
X021969Y012776D01*
X021969Y012677D02*
X020107Y012677D01*
X020173Y012579D02*
X021969Y012579D01*
X021969Y012480D02*
X020214Y012480D01*
X020239Y012382D02*
X021969Y012382D01*
X022429Y012677D02*
X023451Y012677D01*
X023311Y015634D02*
X024009Y015634D01*
X024009Y015732D02*
X023500Y015732D01*
X023598Y015831D02*
X024009Y015831D01*
X024009Y015929D02*
X023650Y015929D01*
X023691Y016028D02*
X024009Y016028D01*
X024009Y016126D02*
X023699Y016126D01*
X023699Y016225D02*
X024009Y016225D01*
X024009Y016324D02*
X023674Y016324D01*
X023633Y016422D02*
X024009Y016422D01*
X024009Y016521D02*
X023557Y016521D01*
X023450Y016619D02*
X024009Y016619D01*
X024009Y016718D02*
X023585Y016718D01*
X023684Y016816D02*
X024009Y016816D01*
X024009Y016915D02*
X023744Y016915D01*
X023785Y017013D02*
X024009Y017013D01*
X024009Y017112D02*
X023799Y017112D01*
X023799Y017210D02*
X024009Y017210D01*
X024009Y017309D02*
X023780Y017309D01*
X023739Y017407D02*
X024009Y017407D01*
X024009Y017506D02*
X023672Y017506D01*
X023573Y017605D02*
X024009Y017605D01*
X024009Y017703D02*
X023471Y017703D01*
X023569Y017802D02*
X024009Y017802D01*
X024009Y017900D02*
X023638Y017900D01*
X023679Y017999D02*
X024009Y017999D01*
X024009Y018097D02*
X023699Y018097D01*
X023699Y018196D02*
X024009Y018196D01*
X024009Y018294D02*
X023686Y018294D01*
X023645Y018393D02*
X024009Y018393D01*
X024009Y018491D02*
X023586Y018491D01*
X023515Y018590D02*
X024009Y018590D01*
X024009Y018689D02*
X023669Y018689D01*
X023768Y018787D02*
X024009Y018787D01*
X024009Y018886D02*
X023818Y018886D01*
X023859Y018984D02*
X024009Y018984D01*
X024009Y019083D02*
X023879Y019083D01*
X023879Y019181D02*
X024009Y019181D01*
X024009Y019280D02*
X023878Y019280D01*
X023838Y019378D02*
X024009Y019378D01*
X024009Y019477D02*
X023797Y019477D01*
X023716Y019575D02*
X024009Y019575D01*
X024009Y019674D02*
X023617Y019674D01*
X023653Y019773D02*
X024009Y019773D01*
X024009Y019871D02*
X023712Y019871D01*
X023753Y019970D02*
X024009Y019970D01*
X024009Y020068D02*
X023779Y020068D01*
X023779Y020167D02*
X024009Y020167D01*
X024009Y020265D02*
X023779Y020265D01*
X023744Y020364D02*
X024009Y020364D01*
X024009Y020462D02*
X023703Y020462D01*
X023630Y020561D02*
X024009Y020561D01*
X024009Y020659D02*
X023532Y020659D01*
X023597Y020758D02*
X024009Y020758D01*
X024009Y021054D02*
X023769Y021054D01*
X023770Y021251D02*
X024009Y021251D01*
X024009Y021349D02*
X023743Y021349D01*
X023689Y021448D02*
X024009Y021448D01*
X024009Y021546D02*
X023603Y021546D01*
X023309Y021152D02*
X024009Y021152D01*
X022921Y020758D02*
X022916Y020758D01*
X022833Y020856D02*
X022817Y020856D01*
X020415Y021546D02*
X018603Y021546D01*
X018689Y021448D02*
X020329Y021448D01*
X020275Y021349D02*
X018743Y021349D01*
X018770Y021251D02*
X020248Y021251D01*
X019859Y024207D02*
X024009Y024207D01*
X024009Y024306D02*
X001329Y024306D01*
X001329Y024404D02*
X024009Y024404D01*
X015460Y024207D02*
X006412Y024207D01*
X006511Y024108D02*
X015299Y024108D01*
X015201Y024010D02*
X006609Y024010D01*
X006353Y023616D02*
X006125Y023616D01*
X006224Y023517D02*
X006452Y023517D01*
X006550Y023419D02*
X006271Y023419D01*
X006312Y023320D02*
X006593Y023320D01*
X006569Y023222D02*
X006329Y023222D01*
X006329Y023123D02*
X006569Y023123D01*
X006579Y023024D02*
X006409Y023024D01*
X006508Y022926D02*
X006619Y022926D01*
X006607Y022827D02*
X006673Y022827D01*
X006705Y022729D02*
X006772Y022729D01*
X006804Y022630D02*
X006965Y022630D01*
X006334Y021940D02*
X003810Y021940D01*
X003711Y021842D02*
X006432Y021842D01*
X006235Y022039D02*
X003908Y022039D01*
X004007Y022138D02*
X006137Y022138D01*
X006038Y022236D02*
X004105Y022236D01*
X004204Y022335D02*
X005940Y022335D01*
X005841Y022433D02*
X004302Y022433D01*
X004401Y022532D02*
X005743Y022532D01*
X005357Y022630D02*
X004753Y022630D01*
X004946Y022729D02*
X005259Y022729D01*
X005174Y022827D02*
X005045Y022827D01*
X005099Y022926D02*
X005133Y022926D01*
X005147Y023419D02*
X005084Y023419D01*
X005066Y023517D02*
X005194Y023517D01*
X005165Y023616D02*
X005293Y023616D01*
X005263Y023714D02*
X005439Y023714D01*
X005979Y023714D02*
X006255Y023714D01*
X005106Y024207D02*
X001329Y024207D01*
X001329Y024108D02*
X005007Y024108D01*
X004909Y024010D02*
X003059Y024010D01*
X003136Y023982D02*
X002825Y024095D01*
X002825Y024095D01*
X002746Y024095D01*
X002659Y024095D01*
X002658Y024095D01*
X002572Y024095D01*
X002493Y024095D01*
X002182Y023982D01*
X001928Y023769D01*
X001762Y023482D01*
X001705Y023155D01*
X001762Y022829D01*
X001762Y022829D01*
X001928Y022542D01*
X001928Y022542D01*
X002182Y022329D01*
X002493Y022215D01*
X002493Y022215D01*
X002572Y022215D01*
X002659Y022215D01*
X002825Y022215D01*
X003136Y022329D01*
X003136Y022329D01*
X003390Y022542D01*
X003556Y022829D01*
X003614Y023155D01*
X003556Y023482D01*
X003390Y023769D01*
X003136Y023982D01*
X003136Y023982D01*
X003220Y023911D02*
X004810Y023911D01*
X004711Y023813D02*
X003338Y023813D01*
X003390Y023769D02*
X003390Y023769D01*
X003422Y023714D02*
X004613Y023714D01*
X004310Y023616D02*
X003479Y023616D01*
X003535Y023517D02*
X004207Y023517D01*
X004134Y023419D02*
X003567Y023419D01*
X003556Y023482D02*
X003556Y023482D01*
X003584Y023320D02*
X004093Y023320D01*
X004069Y023222D02*
X003602Y023222D01*
X003614Y023155D02*
X003614Y023155D01*
X003608Y023123D02*
X004069Y023123D01*
X004079Y023024D02*
X003590Y023024D01*
X003573Y022926D02*
X004120Y022926D01*
X004046Y022827D02*
X003555Y022827D01*
X003556Y022829D02*
X003556Y022829D01*
X003498Y022729D02*
X003948Y022729D01*
X003849Y022630D02*
X003441Y022630D01*
X003390Y022542D02*
X003390Y022542D01*
X003390Y022542D01*
X003378Y022532D02*
X003750Y022532D01*
X003652Y022433D02*
X003261Y022433D01*
X003144Y022335D02*
X003553Y022335D01*
X003455Y022236D02*
X002882Y022236D01*
X002825Y022215D02*
X002825Y022215D01*
X003159Y021940D02*
X001329Y021940D01*
X001329Y021842D02*
X003061Y021842D01*
X002962Y021743D02*
X001329Y021743D01*
X001329Y021645D02*
X002864Y021645D01*
X002765Y021546D02*
X001329Y021546D01*
X001329Y021448D02*
X002666Y021448D01*
X002568Y021349D02*
X001329Y021349D01*
X001329Y021251D02*
X002469Y021251D01*
X002371Y021152D02*
X001329Y021152D01*
X001329Y021054D02*
X002272Y021054D01*
X002174Y020955D02*
X001329Y020955D01*
X001329Y020856D02*
X002075Y020856D01*
X001977Y020758D02*
X001329Y020758D01*
X001329Y020659D02*
X001966Y020659D01*
X001801Y020561D02*
X001329Y020561D01*
X001329Y020462D02*
X001703Y020462D01*
X001661Y020364D02*
X001329Y020364D01*
X001329Y020265D02*
X001620Y020265D01*
X001619Y020167D02*
X001329Y020167D01*
X001329Y020068D02*
X001619Y020068D01*
X001651Y019970D02*
X001329Y019970D01*
X001329Y019871D02*
X001692Y019871D01*
X001778Y019773D02*
X001329Y019773D01*
X001329Y019674D02*
X001801Y019674D01*
X001703Y019575D02*
X001329Y019575D01*
X001329Y019477D02*
X001621Y019477D01*
X001580Y019378D02*
X001329Y019378D01*
X001329Y019280D02*
X001540Y019280D01*
X001539Y019181D02*
X001329Y019181D01*
X001329Y019083D02*
X001539Y019083D01*
X001559Y018984D02*
X001329Y018984D01*
X001329Y018886D02*
X001600Y018886D01*
X001650Y018787D02*
X001329Y018787D01*
X001329Y018689D02*
X001749Y018689D01*
X001903Y018590D02*
X001329Y018590D01*
X001329Y018491D02*
X004142Y018491D01*
X004119Y018590D02*
X002415Y018590D01*
X002569Y018689D02*
X004119Y018689D01*
X004129Y018787D02*
X002668Y018787D01*
X002718Y018886D02*
X004170Y018886D01*
X004224Y018984D02*
X002759Y018984D01*
X002779Y019083D02*
X004323Y019083D01*
X004392Y019181D02*
X002779Y019181D01*
X002778Y019280D02*
X004271Y019280D01*
X004189Y019378D02*
X002738Y019378D01*
X002697Y019477D02*
X004148Y019477D01*
X004119Y019575D02*
X002616Y019575D01*
X002517Y019674D02*
X004119Y019674D01*
X004123Y019773D02*
X002540Y019773D01*
X002626Y019871D02*
X004164Y019871D01*
X004210Y019970D02*
X002667Y019970D01*
X001329Y018393D02*
X004183Y018393D01*
X004256Y018294D02*
X001329Y018294D01*
X001329Y018196D02*
X004357Y018196D01*
X004912Y018097D02*
X001329Y018097D01*
X001329Y017999D02*
X005010Y017999D01*
X005109Y017900D02*
X001329Y017900D01*
X001329Y017802D02*
X005207Y017802D01*
X005306Y017703D02*
X002456Y017703D01*
X002510Y017681D02*
X002282Y017775D01*
X002036Y017775D01*
X001808Y017681D01*
X001633Y017506D01*
X001329Y017506D01*
X001329Y017407D02*
X001593Y017407D01*
X001552Y017309D02*
X001329Y017309D01*
X001329Y017210D02*
X001539Y017210D01*
X001539Y017278D02*
X001539Y017032D01*
X001633Y016804D01*
X001808Y016629D01*
X001720Y016718D02*
X001329Y016718D01*
X001329Y016816D02*
X001628Y016816D01*
X001587Y016915D02*
X001329Y016915D01*
X001329Y017013D02*
X001547Y017013D01*
X001539Y017112D02*
X001329Y017112D01*
X001539Y017278D02*
X001633Y017506D01*
X001732Y017605D02*
X001329Y017605D01*
X001329Y017703D02*
X001862Y017703D01*
X002510Y017681D02*
X002685Y017506D01*
X002586Y017605D02*
X005404Y017605D01*
X006473Y017605D02*
X007396Y017605D01*
X007386Y017600D02*
X007320Y017552D01*
X007262Y017494D01*
X007214Y017428D01*
X007177Y017355D01*
X007152Y017277D01*
X007139Y017196D01*
X007139Y017194D01*
X007620Y017194D01*
X007620Y017116D01*
X007698Y017116D01*
X007698Y016635D01*
X007700Y016635D01*
X007781Y016648D01*
X007859Y016673D01*
X007932Y016710D01*
X007998Y016758D01*
X008056Y016816D01*
X011234Y016816D01*
X011174Y016915D02*
X008120Y016915D01*
X008104Y016883D02*
X008141Y016955D01*
X008166Y017033D01*
X008179Y017114D01*
X008179Y017116D01*
X007698Y017116D01*
X007698Y017194D01*
X008179Y017194D01*
X008179Y017196D01*
X008166Y017277D01*
X008141Y017355D01*
X008104Y017428D01*
X008056Y017494D01*
X007998Y017552D01*
X007932Y017600D01*
X007859Y017637D01*
X007781Y017662D01*
X007700Y017675D01*
X007698Y017675D01*
X007698Y017194D01*
X007620Y017194D01*
X007620Y017675D01*
X007618Y017675D01*
X007537Y017662D01*
X007459Y017637D01*
X007386Y017600D01*
X007275Y017506D02*
X006572Y017506D01*
X006639Y017407D02*
X007204Y017407D01*
X007162Y017309D02*
X006680Y017309D01*
X006699Y017210D02*
X007141Y017210D01*
X007139Y017116D02*
X007139Y017114D01*
X007152Y017033D01*
X007177Y016955D01*
X007214Y016883D01*
X007262Y016816D01*
X007320Y016758D01*
X007386Y016710D01*
X007459Y016673D01*
X007537Y016648D01*
X007618Y016635D01*
X007620Y016635D01*
X007620Y017116D01*
X007139Y017116D01*
X007139Y017112D02*
X006699Y017112D01*
X006685Y017013D02*
X007158Y017013D01*
X007198Y016915D02*
X006644Y016915D01*
X006584Y016816D02*
X007263Y016816D01*
X007376Y016718D02*
X006485Y016718D01*
X006276Y016619D02*
X011542Y016619D01*
X011333Y016718D02*
X007942Y016718D01*
X008056Y016816D02*
X008104Y016883D01*
X008160Y017013D02*
X011133Y017013D01*
X011119Y017112D02*
X008179Y017112D01*
X008177Y017210D02*
X011119Y017210D01*
X011138Y017309D02*
X008156Y017309D01*
X008114Y017407D02*
X011179Y017407D01*
X011246Y017506D02*
X008044Y017506D01*
X007922Y017605D02*
X011345Y017605D01*
X012835Y018097D02*
X014916Y018097D01*
X014817Y017999D02*
X012987Y017999D01*
X013067Y017900D02*
X014719Y017900D01*
X014620Y017802D02*
X013111Y017802D01*
X013013Y018196D02*
X015015Y018196D01*
X015113Y018294D02*
X013111Y018294D01*
X013173Y018393D02*
X015173Y018393D01*
X015232Y018491D02*
X013214Y018491D01*
X013234Y018590D02*
X015330Y018590D01*
X015349Y018689D02*
X013234Y018689D01*
X013227Y018787D02*
X015250Y018787D01*
X015200Y018886D02*
X013186Y018886D01*
X013143Y018984D02*
X015159Y018984D01*
X015139Y019083D02*
X013045Y019083D01*
X012891Y019181D02*
X015139Y019181D01*
X015332Y023222D02*
X015415Y023222D01*
X015280Y023320D02*
X015234Y023320D01*
X015193Y023419D02*
X015135Y023419D01*
X015152Y023517D02*
X014988Y023517D01*
X010678Y020068D02*
X010640Y020068D01*
X010640Y019970D02*
X010678Y019970D01*
X010678Y019575D02*
X010640Y019575D01*
X010640Y019477D02*
X010678Y019477D01*
X010678Y019378D02*
X010640Y019378D01*
X010640Y019280D02*
X010678Y019280D01*
X008592Y021054D02*
X007524Y021054D01*
X007619Y020955D02*
X008494Y020955D01*
X008395Y020856D02*
X007660Y020856D01*
X007699Y020758D02*
X008297Y020758D01*
X008198Y020659D02*
X007699Y020659D01*
X007699Y020561D02*
X008100Y020561D01*
X008001Y020462D02*
X007664Y020462D01*
X006529Y019280D02*
X005047Y019280D01*
X005129Y019378D02*
X006431Y019378D01*
X006628Y019181D02*
X004926Y019181D01*
X004995Y019083D02*
X006664Y019083D01*
X006694Y018984D02*
X005094Y018984D01*
X005148Y018886D02*
X006735Y018886D01*
X006827Y018787D02*
X005189Y018787D01*
X005199Y018689D02*
X006992Y018689D01*
X007620Y017605D02*
X007698Y017605D01*
X007698Y017506D02*
X007620Y017506D01*
X007620Y017407D02*
X007698Y017407D01*
X007698Y017309D02*
X007620Y017309D01*
X007620Y017210D02*
X007698Y017210D01*
X007698Y017112D02*
X007620Y017112D01*
X007620Y017013D02*
X007698Y017013D01*
X007698Y016915D02*
X007620Y016915D01*
X007620Y016816D02*
X007698Y016816D01*
X007698Y016718D02*
X007620Y016718D01*
X006495Y015634D02*
X006297Y015634D01*
X006479Y015535D02*
X006594Y015535D01*
X006578Y015437D02*
X006692Y015437D01*
X006619Y015338D02*
X006791Y015338D01*
X006889Y015240D02*
X006654Y015240D01*
X006654Y015141D02*
X006988Y015141D01*
X007086Y015042D02*
X006648Y015042D01*
X006607Y014944D02*
X007185Y014944D01*
X007284Y014845D02*
X006549Y014845D01*
X006451Y014747D02*
X007382Y014747D01*
X007481Y014648D02*
X005957Y014648D01*
X005859Y014550D02*
X006986Y014550D01*
X006994Y014554D02*
X006934Y014523D01*
X006879Y014483D01*
X006831Y014435D01*
X006791Y014380D01*
X006761Y014320D01*
X006740Y014256D01*
X006729Y014189D01*
X006729Y014185D01*
X007129Y014185D01*
X007129Y014125D01*
X007189Y014125D01*
X007189Y013725D01*
X007193Y013725D01*
X007260Y013736D01*
X007324Y013757D01*
X007384Y013787D01*
X007439Y013827D01*
X007487Y013875D01*
X007527Y013930D01*
X007558Y013990D01*
X007578Y014054D01*
X007589Y014121D01*
X007589Y014125D01*
X007189Y014125D01*
X007189Y014185D01*
X007589Y014185D01*
X007589Y014189D01*
X007578Y014256D01*
X007558Y014320D01*
X007527Y014380D01*
X007487Y014435D01*
X007439Y014483D01*
X007384Y014523D01*
X007324Y014554D01*
X007260Y014574D01*
X007193Y014585D01*
X007189Y014585D01*
X007189Y014185D01*
X007129Y014185D01*
X007129Y014585D01*
X007125Y014585D01*
X007058Y014574D01*
X006994Y014554D01*
X007129Y014550D02*
X007189Y014550D01*
X007189Y014451D02*
X007129Y014451D01*
X007129Y014353D02*
X007189Y014353D01*
X007189Y014254D02*
X007129Y014254D01*
X007129Y014156D02*
X002864Y014156D01*
X002454Y014156D02*
X001329Y014156D01*
X001329Y014254D02*
X002296Y014254D01*
X002200Y014353D02*
X001329Y014353D01*
X001329Y014451D02*
X002159Y014451D01*
X002119Y014550D02*
X001329Y014550D01*
X001329Y014648D02*
X002119Y014648D01*
X002119Y014747D02*
X001329Y014747D01*
X001329Y014845D02*
X002153Y014845D01*
X002194Y014944D02*
X001329Y014944D01*
X001329Y015042D02*
X002283Y015042D01*
X002421Y015141D02*
X001329Y015141D01*
X001329Y015240D02*
X002298Y015240D01*
X002199Y015338D02*
X001329Y015338D01*
X001329Y015437D02*
X002120Y015437D01*
X002079Y015535D02*
X001329Y015535D01*
X001329Y015634D02*
X002039Y015634D01*
X002039Y015732D02*
X001329Y015732D01*
X001329Y015831D02*
X002039Y015831D01*
X002060Y015929D02*
X001329Y015929D01*
X001329Y016028D02*
X002101Y016028D01*
X002154Y016126D02*
X001329Y016126D01*
X001329Y016225D02*
X002252Y016225D01*
X003165Y016126D02*
X005745Y016126D01*
X005647Y016028D02*
X003217Y016028D01*
X003258Y015929D02*
X005548Y015929D01*
X005450Y015831D02*
X003279Y015831D01*
X003279Y015732D02*
X005351Y015732D01*
X005021Y015634D02*
X003279Y015634D01*
X003239Y015535D02*
X004839Y015535D01*
X004741Y015437D02*
X003198Y015437D01*
X003119Y015338D02*
X004699Y015338D01*
X004664Y015240D02*
X003020Y015240D01*
X002897Y015141D02*
X004664Y015141D01*
X004670Y015042D02*
X003035Y015042D01*
X003124Y014944D02*
X004711Y014944D01*
X004769Y014845D02*
X003165Y014845D01*
X003199Y014747D02*
X004867Y014747D01*
X005307Y014648D02*
X003199Y014648D01*
X001869Y013663D02*
X001329Y013663D01*
X001329Y013761D02*
X006985Y013761D01*
X006994Y013757D02*
X007058Y013736D01*
X007125Y013725D01*
X007129Y013725D01*
X007129Y014125D01*
X006729Y014125D01*
X006729Y014121D01*
X006740Y014054D01*
X006761Y013990D01*
X006791Y013930D01*
X006831Y013875D01*
X006879Y013827D01*
X006934Y013787D01*
X006994Y013757D01*
X007129Y013761D02*
X007189Y013761D01*
X007189Y013860D02*
X007129Y013860D01*
X007129Y013958D02*
X007189Y013958D01*
X007189Y014057D02*
X007129Y014057D01*
X007189Y014156D02*
X007709Y014156D01*
X007713Y014254D02*
X007579Y014254D01*
X007541Y014353D02*
X007754Y014353D01*
X007678Y014451D02*
X007471Y014451D01*
X007579Y014550D02*
X007332Y014550D01*
X006847Y014451D02*
X005760Y014451D01*
X005662Y014353D02*
X006777Y014353D01*
X006739Y014254D02*
X005563Y014254D01*
X005648Y015042D02*
X005670Y015042D01*
X005664Y015141D02*
X005654Y015141D01*
X005654Y015240D02*
X005664Y015240D01*
X005699Y015338D02*
X005619Y015338D01*
X005706Y015437D02*
X005741Y015437D01*
X005804Y015535D02*
X005839Y015535D01*
X005903Y015634D02*
X006021Y015634D01*
X006739Y014057D02*
X001329Y014057D01*
X001329Y013958D02*
X006777Y013958D01*
X006846Y013860D02*
X001329Y013860D01*
X001329Y013564D02*
X001748Y013564D01*
X001660Y013466D02*
X001329Y013466D01*
X001329Y013367D02*
X001619Y013367D01*
X001579Y013269D02*
X001329Y013269D01*
X001329Y013170D02*
X001579Y013170D01*
X001579Y013072D02*
X001329Y013072D01*
X001329Y012973D02*
X001607Y012973D01*
X001647Y012874D02*
X001329Y012874D01*
X001329Y012776D02*
X001718Y012776D01*
X001817Y012677D02*
X001329Y012677D01*
X001329Y012579D02*
X001876Y012579D01*
X001777Y012480D02*
X001329Y012480D01*
X001329Y012382D02*
X001712Y012382D01*
X001671Y012283D02*
X001329Y012283D01*
X001329Y012185D02*
X001659Y012185D01*
X001659Y012086D02*
X001329Y012086D01*
X001329Y011988D02*
X001606Y011988D01*
X001508Y011889D02*
X001329Y011889D01*
X001329Y011791D02*
X001409Y011791D01*
X001764Y011495D02*
X001820Y011495D01*
X001846Y011521D02*
X001793Y011468D01*
X001749Y011407D01*
X001714Y011339D01*
X001691Y011268D01*
X001679Y011193D01*
X001679Y011184D01*
X002130Y011184D01*
X002130Y011126D01*
X002188Y011126D01*
X002188Y010675D01*
X002197Y010675D01*
X002271Y010687D01*
X002343Y010710D01*
X002411Y010745D01*
X002472Y010789D01*
X002525Y010842D01*
X002570Y010904D01*
X006209Y010904D01*
X006209Y011002D02*
X002614Y011002D01*
X002604Y010971D02*
X002627Y011043D01*
X002639Y011117D01*
X002639Y011126D01*
X002188Y011126D01*
X002188Y011184D01*
X002639Y011184D01*
X002639Y011193D01*
X002627Y011268D01*
X002604Y011339D01*
X002570Y011407D01*
X002525Y011468D01*
X002472Y011521D01*
X002411Y011566D01*
X002343Y011600D01*
X002271Y011623D01*
X002197Y011635D01*
X002188Y011635D01*
X002188Y011184D01*
X002130Y011184D01*
X002130Y011635D01*
X002121Y011635D01*
X002047Y011623D01*
X001975Y011600D01*
X001907Y011566D01*
X001846Y011521D01*
X001863Y011593D02*
X001962Y011593D01*
X001961Y011692D02*
X001971Y011692D01*
X002130Y011593D02*
X002188Y011593D01*
X002188Y011495D02*
X002130Y011495D01*
X002130Y011396D02*
X002188Y011396D01*
X002188Y011298D02*
X002130Y011298D01*
X002130Y011199D02*
X002188Y011199D01*
X002130Y011126D02*
X001679Y011126D01*
X001679Y011117D01*
X001691Y011043D01*
X001714Y010971D01*
X001749Y010904D01*
X001793Y010842D01*
X001846Y010789D01*
X001907Y010745D01*
X001975Y010710D01*
X002047Y010687D01*
X002121Y010675D01*
X002130Y010675D01*
X002130Y011126D01*
X002130Y011101D02*
X002188Y011101D01*
X002188Y011002D02*
X002130Y011002D01*
X002130Y010904D02*
X002188Y010904D01*
X002188Y010805D02*
X002130Y010805D01*
X002130Y010707D02*
X002188Y010707D01*
X002332Y010707D02*
X006209Y010707D01*
X006209Y010805D02*
X002488Y010805D01*
X002570Y010904D02*
X002604Y010971D01*
X002636Y011101D02*
X006209Y011101D01*
X006209Y011199D02*
X002638Y011199D01*
X002617Y011298D02*
X006209Y011298D01*
X006215Y011396D02*
X002575Y011396D01*
X002498Y011495D02*
X006314Y011495D01*
X006306Y011593D02*
X006412Y011593D01*
X006509Y011692D02*
X006511Y011692D01*
X006608Y011791D02*
X006609Y011791D01*
X006671Y011889D02*
X006708Y011889D01*
X006712Y011988D02*
X006806Y011988D01*
X006734Y012086D02*
X006905Y012086D01*
X007003Y012185D02*
X006734Y012185D01*
X006728Y012283D02*
X007102Y012283D01*
X007200Y012382D02*
X006688Y012382D01*
X006647Y012480D02*
X007299Y012480D01*
X007398Y012579D02*
X006548Y012579D01*
X006401Y012677D02*
X007496Y012677D01*
X007595Y012776D02*
X006445Y012776D01*
X006542Y012874D02*
X007693Y012874D01*
X007934Y013761D02*
X007333Y013761D01*
X007472Y013860D02*
X007818Y013860D01*
X007753Y013958D02*
X007541Y013958D01*
X007579Y014057D02*
X007713Y014057D01*
X006622Y013044D02*
X006599Y012973D01*
X006178Y013269D02*
X006140Y013269D01*
X006140Y013367D02*
X006178Y013367D01*
X006178Y013466D02*
X006140Y013466D01*
X006140Y013564D02*
X006178Y013564D01*
X005776Y012874D02*
X002671Y012874D01*
X002600Y012776D02*
X005873Y012776D01*
X005918Y012677D02*
X002502Y012677D01*
X002442Y012579D02*
X005770Y012579D01*
X005671Y012480D02*
X002541Y012480D01*
X002606Y012382D02*
X005631Y012382D01*
X005590Y012283D02*
X002647Y012283D01*
X002659Y012185D02*
X005584Y012185D01*
X005584Y012086D02*
X002659Y012086D01*
X002631Y011988D02*
X005606Y011988D01*
X005647Y011889D02*
X002590Y011889D01*
X002502Y011791D02*
X005710Y011791D01*
X005809Y011692D02*
X002347Y011692D01*
X002356Y011593D02*
X006012Y011593D01*
X006669Y011199D02*
X006709Y011199D01*
X006709Y011101D02*
X006669Y011101D01*
X006669Y011002D02*
X006735Y011002D01*
X006776Y010904D02*
X006669Y010904D01*
X006669Y010805D02*
X006873Y010805D01*
X006315Y010214D02*
X005366Y010214D01*
X005464Y010115D02*
X006414Y010115D01*
X006512Y010017D02*
X005563Y010017D01*
X005661Y009918D02*
X006611Y009918D01*
X006709Y009820D02*
X005760Y009820D01*
X005858Y009721D02*
X006709Y009721D01*
X006709Y009623D02*
X005957Y009623D01*
X006055Y009524D02*
X006726Y009524D01*
X006767Y009425D02*
X006154Y009425D01*
X006252Y009327D02*
X006851Y009327D01*
X007013Y009228D02*
X006351Y009228D01*
X005701Y009228D02*
X002659Y009228D01*
X002659Y009130D02*
X005512Y009130D01*
X005335Y009031D02*
X002649Y009031D01*
X002727Y008933D02*
X005238Y008933D01*
X005197Y008834D02*
X002825Y008834D01*
X002629Y009327D02*
X005602Y009327D01*
X005503Y009425D02*
X002588Y009425D01*
X002497Y009524D02*
X005405Y009524D01*
X005306Y009623D02*
X002337Y009623D01*
X002418Y009721D02*
X005208Y009721D01*
X005109Y009820D02*
X002531Y009820D01*
X002602Y009918D02*
X005011Y009918D01*
X005267Y010312D02*
X006217Y010312D01*
X006209Y010411D02*
X002594Y010411D01*
X002512Y010509D02*
X006209Y010509D01*
X006209Y010608D02*
X002372Y010608D01*
X001986Y010707D02*
X001549Y010707D01*
X001549Y010805D02*
X001830Y010805D01*
X001748Y010904D02*
X001549Y010904D01*
X001549Y011002D02*
X001704Y011002D01*
X001682Y011101D02*
X001549Y011101D01*
X001549Y011199D02*
X001680Y011199D01*
X001701Y011298D02*
X001567Y011298D01*
X001665Y011396D02*
X001743Y011396D01*
X001549Y010608D02*
X001946Y010608D01*
X001806Y010509D02*
X001549Y010509D01*
X001549Y010411D02*
X001724Y010411D01*
X001683Y010312D02*
X001549Y010312D01*
X001549Y010214D02*
X001659Y010214D01*
X001659Y010115D02*
X001549Y010115D01*
X001549Y010017D02*
X001675Y010017D01*
X001716Y009918D02*
X001549Y009918D01*
X001549Y009820D02*
X001787Y009820D01*
X001900Y009721D02*
X001549Y009721D01*
X001549Y009623D02*
X001981Y009623D01*
X001821Y009524D02*
X001549Y009524D01*
X001549Y009425D02*
X001730Y009425D01*
X001689Y009327D02*
X001549Y009327D01*
X001549Y009228D02*
X001659Y009228D01*
X001659Y009130D02*
X001549Y009130D01*
X001588Y009031D02*
X001669Y009031D01*
X001687Y008933D02*
X001710Y008933D01*
X002003Y004695D02*
X001329Y004695D01*
X001329Y004597D02*
X001905Y004597D01*
X001859Y004498D02*
X001329Y004498D01*
X001329Y004400D02*
X001818Y004400D01*
X001809Y004301D02*
X001329Y004301D01*
X001329Y004203D02*
X001809Y004203D01*
X001829Y004104D02*
X001329Y004104D01*
X001329Y004006D02*
X001870Y004006D01*
X001931Y003907D02*
X001329Y003907D01*
X001329Y003809D02*
X002030Y003809D01*
X002230Y003710D02*
X001329Y003710D01*
X001329Y003611D02*
X004352Y003611D01*
X004253Y003513D02*
X001329Y003513D01*
X001329Y003414D02*
X004182Y003414D01*
X004141Y003316D02*
X001329Y003316D01*
X001329Y003217D02*
X004119Y003217D01*
X004119Y003119D02*
X001329Y003119D01*
X002729Y003809D02*
X004590Y003809D01*
X004491Y003907D02*
X002827Y003907D01*
X003031Y003020D02*
X004130Y003020D01*
X004171Y002922D02*
X003208Y002922D01*
X003136Y002982D02*
X003136Y002982D01*
X003325Y002823D02*
X004227Y002823D01*
X004326Y002725D02*
X003416Y002725D01*
X003390Y002769D02*
X003390Y002769D01*
X003556Y002482D02*
X003556Y002482D01*
X003565Y002429D02*
X010717Y002429D01*
X010798Y002330D02*
X003583Y002330D01*
X003600Y002232D02*
X010811Y002232D01*
X010710Y002133D02*
X003610Y002133D01*
X003592Y002035D02*
X010625Y002035D01*
X010584Y001936D02*
X003575Y001936D01*
X003556Y001829D02*
X003556Y001829D01*
X003390Y001542D01*
X003273Y001443D02*
X010596Y001443D01*
X010642Y001345D02*
X003156Y001345D01*
X002911Y001246D02*
X010741Y001246D01*
X009316Y002626D02*
X009002Y002626D01*
X009105Y002725D02*
X009213Y002725D01*
X010193Y002823D02*
X010651Y002823D01*
X009198Y004695D02*
X009120Y004695D01*
X009120Y004635D02*
X009120Y005116D01*
X009198Y005116D01*
X009198Y005194D01*
X009120Y005194D01*
X009120Y005116D01*
X008639Y005116D01*
X008639Y005114D01*
X008652Y005033D01*
X008677Y004955D01*
X008714Y004883D01*
X008762Y004816D01*
X008820Y004758D01*
X008886Y004710D01*
X008959Y004673D01*
X009037Y004648D01*
X009118Y004635D01*
X009120Y004635D01*
X009120Y004794D02*
X009198Y004794D01*
X009198Y004892D02*
X009120Y004892D01*
X009120Y004991D02*
X009198Y004991D01*
X009198Y005090D02*
X009120Y005090D01*
X009120Y005188D02*
X008349Y005188D01*
X008349Y005090D02*
X008643Y005090D01*
X008666Y004991D02*
X008349Y004991D01*
X008349Y004892D02*
X008709Y004892D01*
X008785Y004794D02*
X008349Y004794D01*
X008325Y004695D02*
X008916Y004695D01*
X009120Y005194D02*
X008639Y005194D01*
X008639Y005196D01*
X008652Y005277D01*
X008677Y005355D01*
X008714Y005428D01*
X008762Y005494D01*
X008820Y005552D01*
X008886Y005600D01*
X008959Y005637D01*
X009037Y005662D01*
X009118Y005675D01*
X009120Y005675D01*
X009120Y005194D01*
X009198Y005188D02*
X009901Y005188D01*
X009198Y005287D02*
X009120Y005287D01*
X009120Y005385D02*
X009198Y005385D01*
X009198Y005484D02*
X009120Y005484D01*
X009120Y005582D02*
X009198Y005582D01*
X008862Y005582D02*
X008349Y005582D01*
X008349Y005484D02*
X008755Y005484D01*
X008693Y005385D02*
X008349Y005385D01*
X008349Y005287D02*
X008655Y005287D01*
X007889Y005878D02*
X006707Y005878D01*
X006709Y005880D02*
X006709Y005880D01*
X006806Y005976D02*
X007889Y005976D01*
X007889Y006075D02*
X006904Y006075D01*
X007909Y003611D02*
X008239Y003611D01*
X008140Y003513D02*
X008037Y003513D01*
X012437Y001049D02*
X013881Y001049D01*
X013739Y001148D02*
X013434Y001148D01*
X013577Y001246D02*
X013641Y001246D01*
X012884Y001148D02*
X012579Y001148D01*
X012677Y001246D02*
X012741Y001246D01*
X014437Y001049D02*
X015881Y001049D01*
X015739Y001148D02*
X015434Y001148D01*
X015577Y001246D02*
X015641Y001246D01*
X014884Y001148D02*
X014579Y001148D01*
X014677Y001246D02*
X014741Y001246D01*
X016437Y001049D02*
X017881Y001049D01*
X017739Y001148D02*
X017434Y001148D01*
X017577Y001246D02*
X017641Y001246D01*
X016884Y001148D02*
X016579Y001148D01*
X016677Y001246D02*
X016741Y001246D01*
X017660Y003907D02*
X017700Y003907D01*
X017619Y004006D02*
X017796Y004006D01*
X017953Y004104D02*
X017524Y004104D01*
X017369Y004203D02*
X018949Y004203D01*
X018794Y004104D02*
X018365Y004104D01*
X018522Y004006D02*
X018699Y004006D01*
X018658Y003907D02*
X018618Y003907D01*
X019369Y004203D02*
X021584Y004203D01*
X021597Y004301D02*
X016958Y004301D01*
X016860Y004400D02*
X021638Y004400D01*
X021689Y004498D02*
X016761Y004498D01*
X016663Y004597D02*
X021788Y004597D01*
X021961Y004695D02*
X016564Y004695D01*
X015170Y005385D02*
X022504Y005385D01*
X022602Y005287D02*
X015104Y005287D01*
X015005Y005188D02*
X022701Y005188D01*
X022799Y005090D02*
X014796Y005090D01*
X015210Y005484D02*
X022405Y005484D01*
X022307Y005582D02*
X015234Y005582D01*
X015234Y005681D02*
X022208Y005681D01*
X022859Y005681D02*
X023011Y005681D01*
X022957Y005582D02*
X024009Y005582D01*
X024009Y005484D02*
X023056Y005484D01*
X023154Y005385D02*
X024009Y005385D01*
X024009Y005287D02*
X023253Y005287D01*
X023351Y005188D02*
X024009Y005188D01*
X024009Y005090D02*
X023389Y005090D01*
X023389Y004991D02*
X024009Y004991D01*
X024009Y004892D02*
X023389Y004892D01*
X023389Y004794D02*
X024009Y004794D01*
X024009Y004695D02*
X023389Y004695D01*
X023389Y004597D02*
X024009Y004597D01*
X024009Y004498D02*
X023516Y004498D01*
X023593Y004400D02*
X024009Y004400D01*
X024009Y004301D02*
X023634Y004301D01*
X023654Y004203D02*
X024009Y004203D01*
X024009Y004104D02*
X023654Y004104D01*
X023633Y004006D02*
X024009Y004006D01*
X024009Y003907D02*
X023592Y003907D01*
X023512Y003809D02*
X024009Y003809D01*
X024009Y003710D02*
X023378Y003710D01*
X023136Y002982D02*
X022825Y003095D01*
X022825Y003095D01*
X022746Y003095D01*
X022659Y003095D01*
X022656Y003095D01*
X022572Y003095D01*
X022493Y003095D01*
X022182Y002982D01*
X022182Y002982D01*
X021928Y002769D01*
X021928Y002769D01*
X021928Y002769D01*
X021762Y002482D01*
X021762Y002482D01*
X021705Y002155D01*
X021762Y001829D01*
X021928Y001542D01*
X021147Y001542D01*
X021149Y001641D02*
X021871Y001641D01*
X021814Y001739D02*
X021149Y001739D01*
X021118Y001838D02*
X021761Y001838D01*
X021743Y001936D02*
X021077Y001936D01*
X020993Y002035D02*
X021726Y002035D01*
X021708Y002133D02*
X020866Y002133D01*
X021049Y002232D02*
X021718Y002232D01*
X021705Y002155D02*
X021705Y002155D01*
X021735Y002330D02*
X021148Y002330D01*
X021200Y002429D02*
X021753Y002429D01*
X021789Y002527D02*
X021241Y002527D01*
X021249Y002626D02*
X021846Y002626D01*
X021902Y002725D02*
X021249Y002725D01*
X021224Y002823D02*
X021993Y002823D01*
X022110Y002922D02*
X021183Y002922D01*
X021108Y003020D02*
X022287Y003020D01*
X022493Y003095D02*
X022493Y003095D01*
X023031Y003020D02*
X024009Y003020D01*
X024009Y002922D02*
X023208Y002922D01*
X023136Y002982D02*
X023390Y002769D01*
X023390Y002769D01*
X023556Y002482D01*
X023556Y002482D01*
X023614Y002155D01*
X023614Y002155D01*
X023556Y001829D01*
X023556Y001829D01*
X023390Y001542D01*
X024009Y001542D01*
X024009Y001641D02*
X023447Y001641D01*
X023504Y001739D02*
X024009Y001739D01*
X024009Y001838D02*
X023558Y001838D01*
X023575Y001936D02*
X024009Y001936D01*
X024009Y002035D02*
X023592Y002035D01*
X023610Y002133D02*
X024009Y002133D01*
X024009Y002232D02*
X023600Y002232D01*
X023583Y002330D02*
X024009Y002330D01*
X024009Y002429D02*
X023565Y002429D01*
X023529Y002527D02*
X024009Y002527D01*
X024009Y002626D02*
X023473Y002626D01*
X023416Y002725D02*
X024009Y002725D01*
X024009Y002823D02*
X023325Y002823D01*
X023136Y002982D02*
X023136Y002982D01*
X024009Y003119D02*
X021001Y003119D01*
X020935Y003217D02*
X024009Y003217D01*
X024009Y003316D02*
X021033Y003316D01*
X021094Y003414D02*
X024009Y003414D01*
X023390Y001542D02*
X023390Y001542D01*
X023390Y001542D01*
X023136Y001329D01*
X023136Y001329D01*
X022825Y001215D01*
X022825Y001215D01*
X022659Y001215D01*
X022572Y001215D01*
X022493Y001215D01*
X022493Y001215D01*
X022182Y001329D01*
X022182Y001329D01*
X021928Y001542D01*
X021928Y001542D01*
X022045Y001443D02*
X021106Y001443D01*
X021063Y001345D02*
X022162Y001345D01*
X022407Y001246D02*
X020964Y001246D01*
X020795Y001148D02*
X024009Y001148D01*
X024009Y001246D02*
X022911Y001246D01*
X023156Y001345D02*
X024009Y001345D01*
X024009Y001443D02*
X023273Y001443D01*
X024009Y000852D02*
X001329Y000852D01*
X001329Y001345D02*
X002162Y001345D01*
X002182Y001329D02*
X002182Y001329D01*
X002493Y001215D01*
X002493Y001215D01*
X002182Y001329D02*
X001928Y001542D01*
X001928Y001542D01*
X002045Y001443D02*
X001329Y001443D01*
X002825Y001215D02*
X002825Y001215D01*
X011389Y009228D02*
X011407Y009228D01*
X011467Y009327D02*
X011506Y009327D01*
X011551Y009425D02*
X011604Y009425D01*
X011592Y009524D02*
X011703Y009524D01*
X011709Y009623D02*
X011609Y009623D01*
X011609Y009721D02*
X011709Y009721D01*
X011740Y009820D02*
X011578Y009820D01*
X011532Y009918D02*
X011786Y009918D01*
X011884Y010017D02*
X011434Y010017D01*
X011309Y011692D02*
X009401Y011692D01*
X009500Y011791D02*
X011210Y011791D01*
X011147Y011889D02*
X009598Y011889D01*
X009697Y011988D02*
X011106Y011988D01*
X011084Y012086D02*
X009795Y012086D01*
X009894Y012185D02*
X011084Y012185D01*
X011090Y012283D02*
X009992Y012283D01*
X010091Y012382D02*
X011131Y012382D01*
X011171Y012480D02*
X010189Y012480D01*
X010288Y012579D02*
X011270Y012579D01*
X011417Y012677D02*
X010387Y012677D01*
X010485Y012776D02*
X011373Y012776D01*
X011297Y012846D02*
X011253Y012906D01*
X011219Y012973D01*
X011191Y013072D02*
X010861Y013072D01*
X010909Y013120D02*
X010909Y013120D01*
X011640Y013269D02*
X011678Y013269D01*
X011678Y013367D02*
X011640Y013367D01*
X011640Y013466D02*
X011678Y013466D01*
X011649Y013860D02*
X012346Y013860D01*
X012277Y013958D02*
X011748Y013958D01*
X011846Y014057D02*
X012239Y014057D01*
X013624Y009918D02*
X013819Y009918D01*
X013760Y009820D02*
X013665Y009820D01*
X013689Y009721D02*
X013734Y009721D01*
X013729Y009625D02*
X013729Y009621D01*
X013740Y009554D01*
X013761Y009490D01*
X013791Y009430D01*
X013831Y009375D01*
X013879Y009327D01*
X013867Y009327D01*
X013879Y009327D02*
X013934Y009287D01*
X013994Y009257D01*
X014058Y009236D01*
X014125Y009225D01*
X014129Y009225D01*
X014129Y009625D01*
X013729Y009625D01*
X013729Y009623D02*
X013689Y009623D01*
X013678Y009524D02*
X013749Y009524D01*
X013768Y009425D02*
X013794Y009425D01*
X013966Y009228D02*
X014105Y009228D01*
X014129Y009228D02*
X014189Y009228D01*
X014189Y009327D02*
X014129Y009327D01*
X014129Y009425D02*
X014189Y009425D01*
X014189Y009524D02*
X014129Y009524D01*
X014129Y009623D02*
X014189Y009623D01*
X014189Y009721D02*
X014129Y009721D01*
X014129Y009820D02*
X014189Y009820D01*
X014189Y009918D02*
X014129Y009918D01*
X014129Y010017D02*
X014189Y010017D01*
X014529Y008144D02*
X017363Y008144D01*
X017265Y008046D02*
X014529Y008046D01*
X014529Y007947D02*
X017166Y007947D01*
X017067Y007849D02*
X014529Y007849D01*
X014529Y007750D02*
X016969Y007750D01*
X016870Y007652D02*
X014529Y007652D01*
X014529Y007553D02*
X016772Y007553D01*
X016673Y007455D02*
X014529Y007455D01*
X014529Y007356D02*
X016575Y007356D01*
X016476Y007258D02*
X014529Y007258D01*
X014529Y007159D02*
X016378Y007159D01*
X015962Y007060D02*
X015356Y007060D01*
X015489Y006962D02*
X015829Y006962D01*
X015758Y006863D02*
X015560Y006863D01*
X015601Y006765D02*
X015717Y006765D01*
X015709Y006666D02*
X015609Y006666D01*
X015609Y006568D02*
X015709Y006568D01*
X015670Y006469D02*
X015749Y006469D01*
X015769Y006371D02*
X015807Y006371D01*
X015867Y006272D02*
X015908Y006272D01*
X014962Y007060D02*
X014529Y007060D01*
X014602Y006962D02*
X014829Y006962D01*
X014758Y006863D02*
X014646Y006863D01*
X014687Y006765D02*
X014717Y006765D01*
X014709Y006666D02*
X014689Y006666D01*
X014689Y006568D02*
X014709Y006568D01*
X014749Y006469D02*
X014656Y006469D01*
X014615Y006371D02*
X014807Y006371D01*
X014108Y005484D02*
X014103Y005484D01*
X014148Y005385D02*
X014050Y005385D01*
X013960Y005287D02*
X014214Y005287D01*
X021938Y009721D02*
X023279Y009721D01*
X023484Y009623D02*
X022037Y009623D01*
X022135Y009524D02*
X024009Y009524D01*
X024009Y009425D02*
X022234Y009425D01*
X022332Y009327D02*
X024009Y009327D01*
X024009Y009228D02*
X022431Y009228D01*
X022530Y009130D02*
X024009Y009130D01*
X024009Y009031D02*
X022628Y009031D01*
X022727Y008933D02*
X024009Y008933D01*
X024009Y008834D02*
X022825Y008834D01*
X022924Y008736D02*
X024009Y008736D01*
X024009Y008637D02*
X023289Y008637D01*
X023476Y008539D02*
X024009Y008539D01*
X024009Y008440D02*
X023574Y008440D01*
X023618Y008341D02*
X024009Y008341D01*
X024009Y008243D02*
X023654Y008243D01*
X023654Y008144D02*
X024009Y008144D01*
X024009Y008046D02*
X023650Y008046D01*
X023609Y007947D02*
X024009Y007947D01*
X024009Y007849D02*
X023553Y007849D01*
X023454Y007750D02*
X024009Y007750D01*
X023029Y008637D02*
X023022Y008637D01*
X023734Y009623D02*
X024009Y009623D01*
X024009Y009721D02*
X023939Y009721D01*
X024009Y006469D02*
X023545Y006469D01*
X023606Y006371D02*
X024009Y006371D01*
X024009Y006272D02*
X023646Y006272D01*
X023654Y006174D02*
X024009Y006174D01*
X024009Y006075D02*
X023654Y006075D01*
X023621Y005976D02*
X024009Y005976D01*
X024009Y005878D02*
X023580Y005878D01*
X023483Y005779D02*
X024009Y005779D01*
X024009Y005681D02*
X023307Y005681D01*
X003356Y022138D02*
X001329Y022138D01*
X001329Y022236D02*
X002436Y022236D01*
X002182Y022329D02*
X002182Y022329D01*
X002174Y022335D02*
X001329Y022335D01*
X001329Y022433D02*
X002057Y022433D01*
X001940Y022532D02*
X001329Y022532D01*
X001329Y022630D02*
X001877Y022630D01*
X001820Y022729D02*
X001329Y022729D01*
X001329Y022827D02*
X001763Y022827D01*
X001745Y022926D02*
X001329Y022926D01*
X001329Y023024D02*
X001728Y023024D01*
X001710Y023123D02*
X001329Y023123D01*
X001329Y023222D02*
X001716Y023222D01*
X001705Y023155D02*
X001705Y023155D01*
X001734Y023320D02*
X001329Y023320D01*
X001329Y023419D02*
X001751Y023419D01*
X001783Y023517D02*
X001329Y023517D01*
X001329Y023616D02*
X001840Y023616D01*
X001896Y023714D02*
X001329Y023714D01*
X001329Y023813D02*
X001981Y023813D01*
X001928Y023769D02*
X001928Y023769D01*
X002098Y023911D02*
X001329Y023911D01*
X001329Y024010D02*
X002259Y024010D01*
X002182Y023982D02*
X002182Y023982D01*
X002493Y024095D02*
X002493Y024095D01*
X003258Y022039D02*
X001329Y022039D01*
D17*
X005709Y023155D02*
X005719Y023135D01*
X006679Y022175D01*
X009399Y022175D01*
X010359Y023135D01*
X014839Y023135D01*
X015879Y022095D01*
X021159Y022095D01*
X022359Y020895D01*
X022359Y020735D01*
X022919Y020175D01*
X023159Y020175D01*
X023159Y020155D01*
X013159Y009655D02*
X013159Y009455D01*
X014119Y008495D01*
X014119Y006655D01*
X014159Y006655D01*
X004939Y004265D02*
X004919Y004335D01*
X002439Y004335D01*
X002379Y004265D01*
D18*
X005799Y006815D03*
X010279Y005935D03*
X010679Y006975D03*
X011159Y007295D03*
X011559Y008655D03*
X012919Y004895D03*
X016759Y012015D03*
X019239Y015215D03*
X013479Y015455D03*
M02*
