G75*
G70*
%OFA0B0*%
%FSLAX24Y24*%
%IPPOS*%
%LPD*%
%AMOC8*
5,1,8,0,0,1.08239X$1,22.5*
%
%ADD10C,0.1380*%
%ADD11C,0.0720*%
%ADD12R,0.0730X0.0730*%
%ADD13C,0.0730*%
%ADD14C,0.0820*%
%ADD15R,0.0820X0.0820*%
%ADD16OC8,0.0740*%
%ADD17C,0.0640*%
%ADD18C,0.0740*%
D10*
X002659Y003082D03*
X002659Y024082D03*
X011659Y024482D03*
X022659Y024082D03*
X022659Y003082D03*
D11*
X005259Y004692D02*
X004619Y004692D01*
X004619Y006472D02*
X005259Y006472D01*
X002699Y006472D02*
X002059Y006472D01*
X002059Y004692D02*
X002699Y004692D01*
X010659Y022762D02*
X010659Y023402D01*
X011659Y023402D02*
X011659Y022762D01*
X012659Y022762D02*
X012659Y023402D01*
D12*
X010659Y020582D03*
X007159Y020082D03*
X005159Y015082D03*
X018659Y024082D03*
D13*
X019659Y024082D03*
X021159Y023582D03*
X021159Y024582D03*
X012659Y019582D03*
X012659Y018582D03*
X011659Y020582D03*
X008159Y020082D03*
X007659Y015082D03*
X007659Y014082D03*
X006159Y015082D03*
X013159Y015082D03*
X013159Y014082D03*
X014159Y006082D03*
X015159Y006082D03*
X022159Y005082D03*
X023159Y005082D03*
X023159Y007082D03*
X023159Y009082D03*
X023159Y011082D03*
X022159Y011082D03*
X005659Y003582D03*
X004659Y003582D03*
D14*
X004659Y002582D03*
X007659Y002582D03*
X010159Y002632D03*
X010159Y003632D03*
X010159Y004632D03*
X011159Y004532D03*
X011159Y003532D03*
X011159Y002532D03*
X012159Y002632D03*
X012159Y003632D03*
X012159Y004632D03*
X013159Y003532D03*
X013159Y002532D03*
X014159Y002632D03*
X014159Y003632D03*
X014159Y004582D03*
X015159Y004482D03*
X015159Y003532D03*
X015159Y002532D03*
X016159Y002632D03*
X016159Y003632D03*
X016159Y004582D03*
X017159Y004482D03*
X017159Y003532D03*
X017159Y002532D03*
X018159Y002632D03*
X018159Y003632D03*
X018159Y004582D03*
X019159Y004482D03*
X019159Y003532D03*
X019159Y002532D03*
X020609Y002582D03*
X020709Y003582D03*
X020609Y004582D03*
X020659Y017082D03*
X020759Y018082D03*
X020659Y019082D03*
X020759Y020082D03*
X020659Y021082D03*
X020759Y022082D03*
X018259Y022082D03*
X018159Y021082D03*
X018259Y020082D03*
X018159Y019082D03*
X018259Y018082D03*
X018159Y017082D03*
X015659Y017082D03*
X015759Y018082D03*
X015659Y019082D03*
X015759Y020082D03*
X015659Y021082D03*
X015759Y022082D03*
X011659Y018082D03*
X007659Y018082D03*
X006159Y017582D03*
X004659Y019582D03*
X004659Y020582D03*
X004159Y021582D03*
X002159Y021082D03*
X002159Y020082D03*
X002159Y017582D03*
X002659Y016182D03*
X004159Y013082D03*
X004159Y012082D03*
X004159Y011082D03*
X004159Y010082D03*
X004159Y009082D03*
X004159Y008082D03*
X007159Y021582D03*
X007109Y024082D03*
X004609Y024082D03*
X023259Y022082D03*
X023159Y021082D03*
X023259Y020082D03*
X023159Y019082D03*
X023259Y018082D03*
X023159Y017082D03*
D15*
X013159Y004532D03*
X002659Y015082D03*
X005709Y024082D03*
X008209Y024082D03*
D16*
X016659Y024082D03*
X016659Y023232D03*
X016659Y024932D03*
D17*
X016159Y015362D02*
X016159Y014802D01*
X015159Y014802D02*
X015159Y015362D01*
X014159Y015362D02*
X014159Y014802D01*
X014159Y012362D02*
X014159Y011802D01*
X015159Y011802D02*
X015159Y012362D01*
X016159Y012362D02*
X016159Y011802D01*
X017159Y011802D02*
X017159Y012362D01*
X018159Y012362D02*
X018159Y011802D01*
X019159Y011802D02*
X019159Y012362D01*
X020159Y012362D02*
X020159Y011802D01*
X021159Y011802D02*
X021159Y012362D01*
X022159Y012362D02*
X022159Y011802D01*
X023159Y011802D02*
X023159Y012362D01*
X021159Y010362D02*
X021159Y009802D01*
X020159Y009802D02*
X020159Y010362D01*
X019159Y010362D02*
X019159Y009802D01*
X018159Y009802D02*
X018159Y010362D01*
X017159Y010362D02*
X017159Y009802D01*
X016159Y009802D02*
X016159Y010362D01*
X015159Y010362D02*
X015159Y009802D01*
X014159Y009802D02*
X014159Y010362D01*
X013159Y010362D02*
X013159Y009802D01*
X012159Y009802D02*
X012159Y010362D01*
X011159Y010362D02*
X011159Y009802D01*
X010159Y009802D02*
X010159Y010362D01*
X009159Y010362D02*
X009159Y009802D01*
X008159Y009802D02*
X008159Y010362D01*
X008659Y011802D02*
X008659Y012362D01*
X009659Y012362D02*
X009659Y011802D01*
X010659Y011802D02*
X010659Y012362D01*
X011659Y012362D02*
X011659Y011802D01*
X011659Y014802D02*
X011659Y015362D01*
X010659Y015362D02*
X010659Y014802D01*
X009659Y014802D02*
X009659Y015362D01*
X008659Y015362D02*
X008659Y014802D01*
X008159Y007362D02*
X008159Y006802D01*
X009159Y006802D02*
X009159Y007362D01*
X010159Y007362D02*
X010159Y006802D01*
X011159Y006802D02*
X011159Y007362D01*
X012159Y007362D02*
X012159Y006802D01*
X013159Y006802D02*
X013159Y007362D01*
X014159Y007362D02*
X014159Y006802D01*
X015159Y006802D02*
X015159Y007362D01*
X016159Y007362D02*
X016159Y006802D01*
X017159Y006802D02*
X017159Y007362D01*
X018159Y007362D02*
X018159Y006802D01*
X019159Y006802D02*
X019159Y007362D01*
X020159Y007362D02*
X020159Y006802D01*
X021159Y006802D02*
X021159Y007362D01*
X021159Y014802D02*
X021159Y015362D01*
X020159Y015362D02*
X020159Y014802D01*
X019159Y014802D02*
X019159Y015362D01*
X018159Y015362D02*
X018159Y014802D01*
X017159Y014802D02*
X017159Y015362D01*
X022159Y015362D02*
X022159Y014802D01*
X023159Y014802D02*
X023159Y015362D01*
D18*
X006159Y013082D03*
X006159Y012082D03*
X006159Y011082D03*
X006159Y010082D03*
X006159Y009082D03*
X006159Y008082D03*
X006159Y007082D03*
M02*
