%
M48
M72
T01C0.0200
T02C0.0276
T03C0.0315
T04C0.0320
T05C0.0354
T06C0.0400
T07C0.1300
%
T01
X5799Y6815
X10279Y5935
X10679Y6975
X11159Y7295
X11559Y8655
X12919Y4895
X16759Y12015
X19239Y15215
X13479Y15455
T02
X12659Y17655
X12659Y18655
X11659Y19655
X10659Y19655
X8159Y19155
X7159Y19155
X6159Y15155
X5159Y15155
X6159Y13155
X6159Y12155
X5659Y8655
X5659Y7655
X11659Y12155
X11659Y13155
X13659Y5655
X14659Y5655
X21159Y10655
X22159Y10655
X22159Y11655
X21159Y11655
X21159Y13655
X22159Y13655
X23159Y8155
X23159Y6155
X23159Y4155
X22159Y4155
T03
X2159Y7155
X2159Y8155
X2159Y9155
X2159Y10155
X2159Y11155
X2159Y12155
X2159Y13155
T04
X7159Y14155
X8159Y14155
X9159Y14155
X10159Y14155
X12659Y14155
X13659Y14155
X14659Y14155
X15659Y14155
X15659Y11155
X14659Y11155
X13659Y11155
X12659Y11155
X12159Y9655
X11159Y9655
X10159Y9655
X9159Y9655
X8159Y9655
X7159Y9655
X7159Y11155
X8159Y11155
X9159Y11155
X10159Y11155
X13159Y9655
X14159Y9655
X15159Y9655
X16159Y9655
X17159Y9655
X18159Y9655
X19159Y9655
X20159Y9655
X19659Y12305
X19659Y13155
X19659Y14005
X19159Y6655
X18159Y6655
X17159Y6655
X16159Y6655
X15159Y6655
X14159Y6655
X13159Y6655
X12159Y6655
X11159Y6655
X10159Y6655
X9159Y6655
X8159Y6655
X7159Y6655
X4659Y18655
X4659Y19655
X20159Y6655
T05
X17159Y11155
X17159Y14155
X11659Y17155
X7659Y17155
X6159Y17155
X7159Y20655
X4159Y20655
X2159Y17155
X6159Y5155
X9159Y5155
T06
X8659Y3155
X7659Y3155
X6659Y3155
X5659Y3155
X4659Y3155
X4939Y4265
X4939Y6045
X2379Y6045
X2379Y4265
X9659Y3155
X11159Y2705
X11159Y1705
X12159Y1605
X12159Y2605
X12159Y3605
X11159Y3705
X13159Y3705
X13159Y2705
X13159Y1705
X14159Y1605
X14159Y2605
X14159Y3605
X15159Y3705
X15159Y2705
X15159Y1705
X16159Y1605
X16159Y2605
X16159Y3605
X17159Y3705
X17159Y2705
X17159Y1705
X18159Y1605
X19159Y1705
X19159Y2705
X18159Y2605
X18159Y3605
X19159Y3705
X20609Y3655
X20709Y2655
X20609Y1655
X23609Y10155
X23709Y11155
X23609Y12155
X23709Y13155
X23159Y16155
X23259Y17155
X23159Y18155
X23259Y19155
X23159Y20155
X23259Y21155
X20759Y21155
X20659Y20155
X20759Y19155
X20659Y18155
X20759Y17155
X20659Y16155
X18159Y16155
X18259Y17155
X18159Y18155
X18259Y19155
X18159Y20155
X18259Y21155
X18659Y23605
X17659Y23705
X16659Y23605
X15659Y23705
X15759Y21155
X15659Y20155
X15759Y19155
X15659Y18155
X15759Y17155
X15659Y16155
X12659Y22155
X11659Y22155
X10659Y22155
X8209Y23155
X7109Y23155
X5709Y23155
X4609Y23155
X2159Y20155
X2159Y19155
X2659Y15755
X2659Y14655
X19659Y23705
T07
X2659Y2155
X22659Y2155
X22659Y23155
X2659Y23155
M30
