G75*
G70*
%OFA0B0*%
%FSLAX24Y24*%
%IPPOS*%
%LPD*%
%AMOC8*
5,1,8,0,0,1.08239X$1,22.5*
%
%ADD10C,0.0050*%
%ADD11R,0.4200X0.0300*%
%ADD12R,0.0750X0.0200*%
%ADD13R,0.0300X0.0200*%
%ADD14C,0.0040*%
%ADD15C,0.0080*%
%ADD16C,0.0030*%
%ADD17C,0.0010*%
%ADD18C,0.0100*%
%ADD19C,0.0060*%
%ADD20C,0.0020*%
D10*
X002467Y008007D02*
X002617Y008007D01*
X002667Y008057D01*
X002667Y008107D01*
X002617Y008157D01*
X002467Y008157D01*
X002467Y008007D02*
X002467Y008308D01*
X002617Y008308D01*
X002667Y008258D01*
X002667Y008208D01*
X002617Y008157D01*
X002789Y008007D02*
X002990Y008007D01*
X003112Y008007D02*
X003112Y008308D01*
X003162Y008157D02*
X003312Y008007D01*
X003112Y008107D02*
X003312Y008308D01*
X002789Y008308D02*
X002789Y008007D01*
X002789Y013007D02*
X002789Y013308D01*
X002940Y013308D01*
X002990Y013258D01*
X002990Y013157D01*
X002940Y013107D01*
X002789Y013107D01*
X002890Y013107D02*
X002990Y013007D01*
X003112Y013007D02*
X003112Y013308D01*
X003312Y013007D01*
X003312Y013308D01*
X002667Y013258D02*
X002617Y013308D01*
X002517Y013308D01*
X002467Y013258D01*
X002467Y013057D01*
X002517Y013007D01*
X002617Y013007D01*
X002667Y013057D01*
X002667Y013157D01*
X002567Y013157D01*
X002629Y014107D02*
X002629Y014408D01*
X002506Y014358D02*
X002506Y014257D01*
X002456Y014207D01*
X002306Y014207D01*
X002306Y014107D02*
X002306Y014408D01*
X002456Y014408D01*
X002506Y014358D01*
X002629Y014207D02*
X002829Y014408D01*
X002951Y014408D02*
X003101Y014408D01*
X003151Y014358D01*
X003151Y014257D01*
X003101Y014207D01*
X002951Y014207D01*
X002951Y014107D02*
X002951Y014408D01*
X003051Y014207D02*
X003151Y014107D01*
X002829Y014107D02*
X002679Y014257D01*
X002184Y014207D02*
X002184Y014157D01*
X002134Y014107D01*
X002034Y014107D01*
X001984Y014157D01*
X002034Y014257D02*
X001984Y014308D01*
X001984Y014358D01*
X002034Y014408D01*
X002134Y014408D01*
X002184Y014358D01*
X002134Y014257D02*
X002184Y014207D01*
X002134Y014257D02*
X002034Y014257D01*
X001459Y014632D02*
X001459Y016632D01*
X003659Y016632D01*
X003659Y016132D01*
X003159Y016132D01*
X003159Y015132D01*
X003659Y015132D01*
X003659Y014632D01*
X001459Y014632D01*
X003659Y015132D02*
X003659Y016132D01*
X003579Y017457D02*
X003759Y017637D01*
X003759Y017683D01*
X003714Y017728D01*
X003624Y017728D01*
X003579Y017683D01*
X003464Y017683D02*
X003419Y017728D01*
X003329Y017728D01*
X003284Y017683D01*
X003464Y017683D02*
X003464Y017637D01*
X003284Y017457D01*
X003464Y017457D01*
X003579Y017457D02*
X003759Y017457D01*
X003873Y017502D02*
X004053Y017683D01*
X004053Y017502D01*
X004008Y017457D01*
X003918Y017457D01*
X003873Y017502D01*
X003873Y017683D01*
X003918Y017728D01*
X004008Y017728D01*
X004053Y017683D01*
X007684Y016908D02*
X007684Y016607D01*
X007684Y016707D02*
X007834Y016707D01*
X007884Y016757D01*
X007884Y016858D01*
X007834Y016908D01*
X007684Y016908D01*
X008006Y016908D02*
X008006Y016607D01*
X008006Y016757D02*
X008056Y016808D01*
X008156Y016808D01*
X008206Y016757D01*
X008206Y016607D01*
X008329Y016657D02*
X008379Y016607D01*
X008479Y016607D01*
X008529Y016657D01*
X008529Y016757D01*
X008479Y016808D01*
X008379Y016808D01*
X008329Y016757D01*
X008329Y016657D01*
X008384Y016408D02*
X008384Y016107D01*
X008506Y016157D02*
X008556Y016207D01*
X008706Y016207D01*
X008706Y016257D02*
X008706Y016107D01*
X008556Y016107D01*
X008506Y016157D01*
X008556Y016308D02*
X008656Y016308D01*
X008706Y016257D01*
X008829Y016207D02*
X008929Y016308D01*
X008979Y016308D01*
X009097Y016257D02*
X009097Y016157D01*
X009147Y016107D01*
X009297Y016107D01*
X009419Y016107D02*
X009419Y016408D01*
X009469Y016308D02*
X009419Y016257D01*
X009469Y016308D02*
X009569Y016308D01*
X009619Y016257D01*
X009619Y016107D01*
X009297Y016308D02*
X009147Y016308D01*
X009097Y016257D01*
X008829Y016308D02*
X008829Y016107D01*
X008851Y016607D02*
X008851Y016757D01*
X008801Y016808D01*
X008651Y016808D01*
X008651Y016607D01*
X008384Y016408D02*
X008284Y016308D01*
X008184Y016408D01*
X008184Y016107D01*
X008973Y016607D02*
X009073Y016607D01*
X009023Y016607D02*
X009023Y016808D01*
X008973Y016808D01*
X009023Y016908D02*
X009023Y016958D01*
X009188Y016757D02*
X009188Y016657D01*
X009238Y016607D01*
X009388Y016607D01*
X009510Y016607D02*
X009510Y016908D01*
X009660Y016908D01*
X009710Y016858D01*
X009710Y016808D01*
X009660Y016757D01*
X009510Y016757D01*
X009388Y016808D02*
X009238Y016808D01*
X009188Y016757D01*
X009510Y016607D02*
X009660Y016607D01*
X009710Y016657D01*
X009710Y016707D01*
X009660Y016757D01*
X009832Y016757D02*
X009832Y016657D01*
X009882Y016607D01*
X009982Y016607D01*
X010033Y016657D01*
X010033Y016757D01*
X009982Y016808D01*
X009882Y016808D01*
X009832Y016757D01*
X010155Y016808D02*
X010255Y016808D01*
X010205Y016858D02*
X010205Y016657D01*
X010255Y016607D01*
X010214Y016408D02*
X010114Y016408D01*
X010064Y016358D01*
X010214Y016408D02*
X010264Y016358D01*
X010264Y016308D01*
X010064Y016107D01*
X010264Y016107D01*
X010386Y016157D02*
X010586Y016358D01*
X010586Y016157D01*
X010536Y016107D01*
X010436Y016107D01*
X010386Y016157D01*
X010386Y016358D01*
X010436Y016408D01*
X010536Y016408D01*
X010586Y016358D01*
X010708Y016358D02*
X010758Y016408D01*
X010858Y016408D01*
X010908Y016358D01*
X010708Y016157D01*
X010758Y016107D01*
X010858Y016107D01*
X010908Y016157D01*
X010908Y016358D01*
X011031Y016308D02*
X011131Y016408D01*
X011131Y016107D01*
X011031Y016107D02*
X011231Y016107D01*
X011214Y016607D02*
X011014Y016607D01*
X011114Y016607D02*
X011114Y016908D01*
X011014Y016808D01*
X010892Y016808D02*
X010792Y016607D01*
X010692Y016808D01*
X010708Y016358D02*
X010708Y016157D01*
X011336Y016607D02*
X011336Y016657D01*
X011386Y016657D01*
X011386Y016607D01*
X011336Y016607D01*
X011497Y016607D02*
X011697Y016607D01*
X011597Y016607D02*
X011597Y016908D01*
X011497Y016808D01*
X011675Y016257D02*
X011875Y016257D01*
X012320Y016107D02*
X012470Y016107D01*
X012520Y016157D01*
X012520Y016358D01*
X012470Y016408D01*
X012320Y016408D01*
X012320Y016107D01*
X012642Y016157D02*
X012692Y016107D01*
X012792Y016107D01*
X012842Y016157D01*
X012842Y016207D01*
X012792Y016257D01*
X012692Y016257D01*
X012642Y016308D01*
X012642Y016358D01*
X012692Y016408D01*
X012792Y016408D01*
X012842Y016358D01*
X013002Y016757D02*
X013203Y016757D01*
X013325Y016757D02*
X013425Y016757D01*
X013375Y016757D02*
X013375Y017058D01*
X013325Y017058D02*
X013425Y017058D01*
X013539Y017058D02*
X013740Y016757D01*
X013740Y017058D01*
X013862Y017058D02*
X013862Y016757D01*
X014062Y016757D01*
X013962Y016907D02*
X013862Y016907D01*
X013862Y017058D02*
X014062Y017058D01*
X013539Y017058D02*
X013539Y016757D01*
X013002Y016757D02*
X013002Y017058D01*
X013267Y017757D02*
X013217Y017807D01*
X013267Y017757D02*
X013367Y017757D01*
X013417Y017807D01*
X013417Y017857D01*
X013367Y017907D01*
X013267Y017907D01*
X013217Y017958D01*
X013217Y018008D01*
X013267Y018058D01*
X013367Y018058D01*
X013417Y018008D01*
X013539Y018058D02*
X013690Y018058D01*
X013740Y018008D01*
X013740Y017807D01*
X013690Y017757D01*
X013539Y017757D01*
X013539Y018058D01*
X013862Y017958D02*
X013962Y018058D01*
X014062Y017958D01*
X014062Y017757D01*
X014062Y017907D02*
X013862Y017907D01*
X013862Y017958D02*
X013862Y017757D01*
X013862Y018757D02*
X014062Y018757D01*
X013862Y018757D02*
X013862Y019058D01*
X013740Y019008D02*
X013690Y019058D01*
X013590Y019058D01*
X013539Y019008D01*
X013539Y018807D01*
X013590Y018757D01*
X013690Y018757D01*
X013740Y018807D01*
X013417Y018807D02*
X013367Y018757D01*
X013267Y018757D01*
X013217Y018807D01*
X013267Y018907D02*
X013367Y018907D01*
X013417Y018857D01*
X013417Y018807D01*
X013267Y018907D02*
X013217Y018958D01*
X013217Y019008D01*
X013267Y019058D01*
X013367Y019058D01*
X013417Y019008D01*
X013367Y019757D02*
X013417Y019807D01*
X013417Y019907D01*
X013317Y019907D01*
X013217Y019807D02*
X013217Y020008D01*
X013267Y020058D01*
X013367Y020058D01*
X013417Y020008D01*
X013539Y020058D02*
X013740Y019757D01*
X013740Y020058D01*
X013862Y020058D02*
X014012Y020058D01*
X014062Y020008D01*
X014062Y019807D01*
X014012Y019757D01*
X013862Y019757D01*
X013862Y020058D01*
X013539Y020058D02*
X013539Y019757D01*
X013367Y019757D02*
X013267Y019757D01*
X013217Y019807D01*
X013145Y020557D02*
X013195Y020607D01*
X013145Y020557D02*
X013045Y020557D01*
X012995Y020607D01*
X012995Y020808D01*
X013045Y020858D01*
X013145Y020858D01*
X013195Y020808D01*
X013317Y020808D02*
X013317Y020607D01*
X013367Y020557D01*
X013467Y020557D01*
X013517Y020607D01*
X013639Y020557D02*
X013840Y020858D01*
X013962Y020808D02*
X014012Y020858D01*
X014112Y020858D01*
X014162Y020808D01*
X014162Y020758D01*
X013962Y020557D01*
X014162Y020557D01*
X014062Y021007D02*
X014062Y021208D01*
X013962Y021107D02*
X014162Y021107D01*
X013840Y021057D02*
X013840Y021258D01*
X013639Y021258D02*
X013639Y021057D01*
X013740Y020957D01*
X013840Y021057D01*
X013525Y021057D02*
X013525Y021158D01*
X013425Y021258D01*
X013303Y021258D02*
X013102Y020957D01*
X012988Y020957D02*
X012888Y021057D01*
X012888Y021158D01*
X012988Y021258D01*
X013102Y021258D02*
X013303Y020957D01*
X013367Y020858D02*
X013317Y020808D01*
X013367Y020858D02*
X013467Y020858D01*
X013517Y020808D01*
X013425Y020957D02*
X013525Y021057D01*
X012873Y020858D02*
X012873Y020657D01*
X012773Y020557D01*
X012673Y020657D01*
X012673Y020858D01*
X013317Y021757D02*
X013417Y021857D01*
X013417Y022058D01*
X013539Y022008D02*
X013590Y022058D01*
X013690Y022058D01*
X013740Y022008D01*
X013862Y022008D02*
X013862Y021807D01*
X013912Y021757D01*
X014012Y021757D01*
X014062Y021807D01*
X014062Y022008D02*
X014012Y022058D01*
X013912Y022058D01*
X013862Y022008D01*
X013740Y021807D02*
X013690Y021757D01*
X013590Y021757D01*
X013539Y021807D01*
X013539Y022008D01*
X013217Y022058D02*
X013217Y021857D01*
X013317Y021757D01*
X013509Y022382D02*
X009809Y022382D01*
X009709Y022482D01*
X009659Y023632D01*
X009789Y022622D02*
X009791Y022642D01*
X009797Y022660D01*
X009806Y022678D01*
X009818Y022693D01*
X009833Y022705D01*
X009851Y022714D01*
X009869Y022720D01*
X009889Y022722D01*
X009909Y022720D01*
X009927Y022714D01*
X009945Y022705D01*
X009960Y022693D01*
X009972Y022678D01*
X009981Y022660D01*
X009987Y022642D01*
X009989Y022622D01*
X009987Y022602D01*
X009981Y022584D01*
X009972Y022566D01*
X009960Y022551D01*
X009945Y022539D01*
X009927Y022530D01*
X009909Y022524D01*
X009889Y022522D01*
X009869Y022524D01*
X009851Y022530D01*
X009833Y022539D01*
X009818Y022551D01*
X009806Y022566D01*
X009797Y022584D01*
X009791Y022602D01*
X009789Y022622D01*
X008659Y022882D02*
X006659Y022882D01*
X006659Y025082D01*
X007159Y025082D01*
X007159Y024582D01*
X008159Y024582D01*
X008159Y025082D01*
X008659Y025082D01*
X008659Y022882D01*
X008512Y022558D02*
X008412Y022558D01*
X008362Y022508D01*
X008362Y022307D01*
X008412Y022257D01*
X008512Y022257D01*
X008562Y022307D01*
X008562Y022508D02*
X008512Y022558D01*
X008240Y022508D02*
X008190Y022558D01*
X008090Y022558D01*
X008039Y022508D01*
X008039Y022307D01*
X008090Y022257D01*
X008190Y022257D01*
X008240Y022307D01*
X007917Y022357D02*
X007817Y022257D01*
X007717Y022357D01*
X007717Y022558D01*
X007917Y022558D02*
X007917Y022357D01*
X006159Y022882D02*
X004159Y022882D01*
X004159Y025082D01*
X004659Y025082D01*
X004659Y024582D01*
X005659Y024582D01*
X005659Y025082D01*
X006159Y025082D01*
X006159Y022882D01*
X005740Y022558D02*
X005740Y022357D01*
X005640Y022257D01*
X005540Y022357D01*
X005540Y022558D01*
X005862Y022407D02*
X006062Y022407D01*
X005962Y022307D02*
X005962Y022508D01*
X005659Y025082D02*
X004659Y025082D01*
X007159Y025082D02*
X008159Y025082D01*
X013659Y023632D02*
X013609Y022482D01*
X013509Y022382D01*
X014459Y022582D02*
X014459Y016582D01*
X016659Y016582D01*
X016659Y017082D01*
X016159Y017082D01*
X016159Y022082D01*
X016659Y022082D01*
X016659Y017082D01*
X016959Y016582D02*
X016959Y022582D01*
X019159Y022582D01*
X019159Y022082D01*
X018659Y022082D01*
X018659Y017082D01*
X019159Y017082D01*
X019159Y016582D01*
X016959Y016582D01*
X019159Y017082D02*
X019159Y022082D01*
X019459Y022582D02*
X019459Y016582D01*
X021659Y016582D01*
X021659Y017082D01*
X021159Y017082D01*
X021159Y022082D01*
X021659Y022082D01*
X021659Y017082D01*
X021959Y016582D02*
X021959Y022582D01*
X024159Y022582D01*
X024159Y022082D01*
X023659Y022082D01*
X023659Y017082D01*
X024159Y017082D01*
X024159Y016582D01*
X021959Y016582D01*
X024159Y017082D02*
X024159Y022082D01*
X021659Y022082D02*
X021659Y022582D01*
X019459Y022582D01*
X016659Y022582D02*
X016659Y022082D01*
X016659Y022582D02*
X014459Y022582D01*
X014634Y023157D02*
X014534Y023257D01*
X014534Y023372D02*
X014734Y023372D01*
X014834Y023472D01*
X014734Y023572D01*
X014534Y023572D01*
X014584Y023694D02*
X014784Y023694D01*
X014834Y023744D01*
X014834Y023845D01*
X014784Y023895D01*
X014784Y024017D02*
X014834Y024067D01*
X014834Y024167D01*
X014784Y024217D01*
X014834Y024339D02*
X014534Y024539D01*
X014584Y024661D02*
X014534Y024711D01*
X014534Y024811D01*
X014584Y024861D01*
X014634Y024861D01*
X014834Y024661D01*
X014834Y024861D01*
X014834Y024983D02*
X014734Y025084D01*
X014634Y025084D01*
X014534Y024983D01*
X014584Y024217D02*
X014534Y024167D01*
X014534Y024067D01*
X014584Y024017D01*
X014784Y024017D01*
X014584Y023895D02*
X014534Y023845D01*
X014534Y023744D01*
X014584Y023694D01*
X014834Y023257D02*
X014734Y023157D01*
X014634Y023157D01*
X010470Y018208D02*
X010289Y018208D01*
X010289Y018072D01*
X010379Y018117D01*
X010424Y018117D01*
X010470Y018072D01*
X010470Y017982D01*
X010424Y017937D01*
X010334Y017937D01*
X010289Y017982D01*
X010175Y017937D02*
X010040Y018072D01*
X009995Y018027D02*
X010175Y018208D01*
X009995Y018208D02*
X009995Y017937D01*
X009880Y017937D02*
X009700Y017937D01*
X009790Y017937D02*
X009790Y018208D01*
X009700Y018117D01*
X009544Y013808D02*
X009544Y013357D01*
X009845Y013357D01*
X010005Y013432D02*
X010305Y013733D01*
X010305Y013432D01*
X010230Y013357D01*
X010080Y013357D01*
X010005Y013432D01*
X010005Y013733D01*
X010080Y013808D01*
X010230Y013808D01*
X010305Y013733D01*
X010465Y013808D02*
X010765Y013808D01*
X010765Y013733D01*
X010465Y013432D01*
X010465Y013357D01*
X010925Y013357D02*
X011226Y013658D01*
X011226Y013733D01*
X011151Y013808D01*
X011001Y013808D01*
X010925Y013733D01*
X011386Y013808D02*
X011611Y013808D01*
X011686Y013733D01*
X011686Y013583D01*
X011611Y013507D01*
X011386Y013507D01*
X011386Y013357D02*
X011386Y013808D01*
X011226Y013357D02*
X010925Y013357D01*
X009384Y013808D02*
X009084Y013808D01*
X009234Y013808D02*
X009234Y013357D01*
X012584Y008758D02*
X012734Y008608D01*
X012734Y008307D01*
X012734Y008533D02*
X012434Y008533D01*
X012434Y008608D02*
X012434Y008307D01*
X012434Y008608D02*
X012584Y008758D01*
X012894Y008758D02*
X013195Y008758D01*
X013045Y008758D02*
X013045Y008307D01*
X013355Y008382D02*
X013430Y008307D01*
X013580Y008307D01*
X013655Y008382D01*
X013655Y008683D01*
X013580Y008758D01*
X013430Y008758D01*
X013355Y008683D01*
X013355Y008608D01*
X013430Y008533D01*
X013655Y008533D01*
X013815Y008683D02*
X013815Y008382D01*
X014115Y008683D01*
X014115Y008382D01*
X014040Y008307D01*
X013890Y008307D01*
X013815Y008382D01*
X013815Y008683D02*
X013890Y008758D01*
X014040Y008758D01*
X014115Y008683D01*
X014275Y008683D02*
X014275Y008608D01*
X014351Y008533D01*
X014501Y008533D01*
X014576Y008457D01*
X014576Y008382D01*
X014501Y008307D01*
X014351Y008307D01*
X014275Y008382D01*
X014275Y008683D02*
X014351Y008758D01*
X014501Y008758D01*
X014576Y008683D01*
X014736Y008533D02*
X015036Y008533D01*
X015196Y008533D02*
X015496Y008533D01*
X015657Y008683D02*
X015732Y008758D01*
X015882Y008758D01*
X015957Y008683D01*
X015957Y008608D01*
X015882Y008533D01*
X015957Y008457D01*
X015957Y008382D01*
X015882Y008307D01*
X015732Y008307D01*
X015657Y008382D01*
X015807Y008533D02*
X015882Y008533D01*
X016117Y008683D02*
X016192Y008758D01*
X016342Y008758D01*
X016417Y008683D01*
X016417Y008608D01*
X016342Y008533D01*
X016417Y008457D01*
X016417Y008382D01*
X016342Y008307D01*
X016192Y008307D01*
X016117Y008382D01*
X016267Y008533D02*
X016342Y008533D01*
X016577Y008457D02*
X016802Y008457D01*
X016877Y008533D01*
X016877Y008683D01*
X016802Y008758D01*
X016577Y008758D01*
X016577Y008307D01*
X015421Y008307D02*
X015421Y008758D01*
X015196Y008533D01*
X014961Y008758D02*
X014961Y008307D01*
X014736Y008533D02*
X014961Y008758D01*
X014940Y005508D02*
X015090Y005508D01*
X015140Y005458D01*
X015140Y005257D01*
X015090Y005207D01*
X014940Y005207D01*
X014940Y005508D01*
X015262Y005458D02*
X015312Y005508D01*
X015412Y005508D01*
X015462Y005458D01*
X015462Y005408D01*
X015412Y005357D01*
X015462Y005307D01*
X015462Y005257D01*
X015412Y005207D01*
X015312Y005207D01*
X015262Y005257D01*
X015362Y005357D02*
X015412Y005357D01*
X015940Y005207D02*
X016090Y005207D01*
X016140Y005257D01*
X016140Y005458D01*
X016090Y005508D01*
X015940Y005508D01*
X015940Y005207D01*
X016262Y005357D02*
X016462Y005357D01*
X016412Y005207D02*
X016412Y005508D01*
X016262Y005357D01*
X016940Y005207D02*
X017090Y005207D01*
X017140Y005257D01*
X017140Y005458D01*
X017090Y005508D01*
X016940Y005508D01*
X016940Y005207D01*
X017262Y005257D02*
X017312Y005207D01*
X017412Y005207D01*
X017462Y005257D01*
X017462Y005357D01*
X017412Y005408D01*
X017362Y005408D01*
X017262Y005357D01*
X017262Y005508D01*
X017462Y005508D01*
X017940Y005508D02*
X017940Y005207D01*
X018090Y005207D01*
X018140Y005257D01*
X018140Y005458D01*
X018090Y005508D01*
X017940Y005508D01*
X018262Y005357D02*
X018412Y005357D01*
X018462Y005307D01*
X018462Y005257D01*
X018412Y005207D01*
X018312Y005207D01*
X018262Y005257D01*
X018262Y005357D01*
X018362Y005458D01*
X018462Y005508D01*
X018940Y005508D02*
X018940Y005207D01*
X019090Y005207D01*
X019140Y005257D01*
X019140Y005458D01*
X019090Y005508D01*
X018940Y005508D01*
X019262Y005508D02*
X019462Y005508D01*
X019462Y005458D01*
X019262Y005257D01*
X019262Y005207D01*
X014412Y005207D02*
X014212Y005207D01*
X014412Y005408D01*
X014412Y005458D01*
X014362Y005508D01*
X014262Y005508D01*
X014212Y005458D01*
X014090Y005458D02*
X014090Y005257D01*
X014040Y005207D01*
X013890Y005207D01*
X013890Y005508D01*
X014040Y005508D01*
X014090Y005458D01*
X013462Y005458D02*
X013462Y005257D01*
X013412Y005207D01*
X013312Y005207D01*
X013262Y005257D01*
X013462Y005458D01*
X013412Y005508D01*
X013312Y005508D01*
X013262Y005458D01*
X013262Y005257D01*
X013140Y005207D02*
X013140Y005408D01*
X013040Y005508D01*
X012940Y005408D01*
X012940Y005207D01*
X012940Y005357D02*
X013140Y005357D01*
X012462Y005207D02*
X012262Y005207D01*
X012362Y005207D02*
X012362Y005508D01*
X012262Y005408D01*
X012140Y005408D02*
X012140Y005207D01*
X012140Y005357D02*
X011940Y005357D01*
X011940Y005408D02*
X011940Y005207D01*
X011940Y005408D02*
X012040Y005508D01*
X012140Y005408D01*
X011462Y005408D02*
X011462Y005458D01*
X011412Y005508D01*
X011312Y005508D01*
X011262Y005458D01*
X011140Y005408D02*
X011140Y005207D01*
X011262Y005207D02*
X011462Y005408D01*
X011462Y005207D02*
X011262Y005207D01*
X011140Y005357D02*
X010940Y005357D01*
X010940Y005408D02*
X010940Y005207D01*
X010940Y005408D02*
X011040Y005508D01*
X011140Y005408D01*
X010462Y005408D02*
X010412Y005357D01*
X010462Y005307D01*
X010462Y005257D01*
X010412Y005207D01*
X010312Y005207D01*
X010262Y005257D01*
X010140Y005207D02*
X010140Y005408D01*
X010040Y005508D01*
X009940Y005408D01*
X009940Y005207D01*
X009940Y005357D02*
X010140Y005357D01*
X010262Y005458D02*
X010312Y005508D01*
X010412Y005508D01*
X010462Y005458D01*
X010462Y005408D01*
X010412Y005357D02*
X010362Y005357D01*
D11*
X011659Y023932D03*
D12*
X009934Y023682D03*
X013384Y023682D03*
D13*
X012159Y023682D03*
X011159Y023682D03*
D14*
X011101Y022113D02*
X011205Y022009D01*
X011308Y022113D01*
X011308Y021802D01*
X011424Y021802D02*
X011424Y021854D01*
X011630Y022061D01*
X011630Y022113D01*
X011424Y022113D01*
X011746Y022061D02*
X011746Y022009D01*
X011797Y021957D01*
X011901Y021957D01*
X011953Y021906D01*
X011953Y021854D01*
X011901Y021802D01*
X011797Y021802D01*
X011746Y021854D01*
X011746Y021906D01*
X011797Y021957D01*
X011901Y021957D02*
X011953Y022009D01*
X011953Y022061D01*
X011901Y022113D01*
X011797Y022113D01*
X011746Y022061D01*
X012068Y022061D02*
X012068Y021854D01*
X012275Y022061D01*
X012275Y021854D01*
X012223Y021802D01*
X012120Y021802D01*
X012068Y021854D01*
X012068Y022061D02*
X012120Y022113D01*
X012223Y022113D01*
X012275Y022061D01*
X012390Y022113D02*
X012390Y021957D01*
X012494Y022009D01*
X012545Y022009D01*
X012597Y021957D01*
X012597Y021854D01*
X012545Y021802D01*
X012442Y021802D01*
X012390Y021854D01*
X012390Y022113D02*
X012597Y022113D01*
X011101Y022113D02*
X011101Y021802D01*
X010986Y021802D02*
X010779Y021802D01*
X010779Y022113D01*
X015129Y022902D02*
X015232Y023006D01*
X015129Y023109D01*
X015439Y023109D01*
X015387Y023225D02*
X015439Y023276D01*
X015439Y023380D01*
X015387Y023431D01*
X015336Y023547D02*
X015336Y023702D01*
X015284Y023754D01*
X015181Y023754D01*
X015129Y023702D01*
X015129Y023547D01*
X015439Y023547D01*
X015181Y023431D02*
X015129Y023380D01*
X015129Y023276D01*
X015181Y023225D01*
X015387Y023225D01*
X015439Y022902D02*
X015129Y022902D01*
X015232Y023869D02*
X015129Y023972D01*
X015439Y023972D01*
X015439Y023869D02*
X015439Y024076D01*
X015439Y024191D02*
X015387Y024191D01*
X015181Y024398D01*
X015129Y024398D01*
X015129Y024191D01*
X015181Y024514D02*
X015129Y024565D01*
X015129Y024669D01*
X015181Y024720D01*
X015387Y024514D01*
X015439Y024565D01*
X015439Y024669D01*
X015387Y024720D01*
X015181Y024720D01*
X015181Y024836D02*
X015129Y024888D01*
X015129Y024991D01*
X015181Y025043D01*
X015387Y024836D01*
X015439Y024888D01*
X015439Y024991D01*
X015387Y025043D01*
X015181Y025043D01*
X015181Y024836D02*
X015387Y024836D01*
X015387Y024514D02*
X015181Y024514D01*
X005653Y019021D02*
X005602Y019073D01*
X005447Y019073D01*
X005447Y018762D01*
X005602Y018762D01*
X005653Y018814D01*
X005653Y019021D01*
X005331Y019073D02*
X005124Y019073D01*
X005124Y018762D01*
X005331Y018762D01*
X005228Y018917D02*
X005124Y018917D01*
X005009Y018762D02*
X004802Y018762D01*
X004802Y019073D01*
X004687Y018711D02*
X004480Y018711D01*
X004364Y018762D02*
X004261Y018866D01*
X004313Y018866D02*
X004158Y018866D01*
X004158Y018762D02*
X004158Y019073D01*
X004313Y019073D01*
X004364Y019021D01*
X004364Y018917D01*
X004313Y018866D01*
X004042Y018762D02*
X004042Y019073D01*
X003835Y019073D02*
X003835Y018762D01*
X003939Y018866D01*
X004042Y018762D01*
X003720Y018917D02*
X003668Y018866D01*
X003513Y018866D01*
X003513Y018762D02*
X003513Y019073D01*
X003668Y019073D01*
X003720Y019021D01*
X003720Y018917D01*
X001639Y006312D02*
X001329Y006312D01*
X001432Y006312D02*
X001432Y006157D01*
X001484Y006106D01*
X001588Y006106D01*
X001639Y006157D01*
X001639Y006312D01*
X001432Y006209D02*
X001329Y006106D01*
X001329Y005990D02*
X001329Y005783D01*
X001381Y005668D02*
X001329Y005616D01*
X001329Y005513D01*
X001381Y005461D01*
X001432Y005461D01*
X001484Y005513D01*
X001484Y005616D01*
X001536Y005668D01*
X001588Y005668D01*
X001639Y005616D01*
X001639Y005513D01*
X001588Y005461D01*
X001639Y005346D02*
X001329Y005346D01*
X001329Y005139D01*
X001484Y005242D02*
X001484Y005346D01*
X001639Y005346D02*
X001639Y005139D01*
X001639Y005023D02*
X001639Y004817D01*
X001639Y004920D02*
X001329Y004920D01*
X001639Y005783D02*
X001639Y005990D01*
X001329Y005990D01*
X001484Y005990D02*
X001484Y005887D01*
X008298Y002736D02*
X008298Y002429D01*
X008375Y002352D01*
X008528Y002352D01*
X008605Y002429D01*
X008605Y002583D01*
X008451Y002583D01*
X008298Y002736D02*
X008375Y002813D01*
X008528Y002813D01*
X008605Y002736D01*
X008758Y002813D02*
X009065Y002352D01*
X009065Y002813D01*
X009219Y002813D02*
X009449Y002813D01*
X009526Y002736D01*
X009526Y002429D01*
X009449Y002352D01*
X009219Y002352D01*
X009219Y002813D01*
X008758Y002813D02*
X008758Y002352D01*
X008835Y003352D02*
X008758Y003429D01*
X008835Y003352D02*
X008988Y003352D01*
X009065Y003429D01*
X009065Y003583D01*
X008988Y003659D01*
X008912Y003659D01*
X008758Y003583D01*
X008758Y003813D01*
X009065Y003813D01*
X009219Y003813D02*
X009219Y003506D01*
X009372Y003352D01*
X009526Y003506D01*
X009526Y003813D01*
X009449Y004352D02*
X009295Y004352D01*
X009219Y004429D01*
X009219Y004736D01*
X009295Y004813D01*
X009449Y004813D01*
X009526Y004736D01*
X009526Y004429D01*
X009449Y004352D01*
X009065Y004352D02*
X008912Y004352D01*
X008988Y004352D02*
X008988Y004813D01*
X008912Y004813D02*
X009065Y004813D01*
X008758Y004736D02*
X008758Y004429D01*
X008682Y004352D01*
X008451Y004352D01*
X008451Y004813D01*
X008682Y004813D01*
X008758Y004736D01*
X016879Y013452D02*
X017109Y013452D01*
X017186Y013529D01*
X017186Y013836D01*
X017109Y013913D01*
X016879Y013913D01*
X016879Y013452D01*
X017339Y013529D02*
X017416Y013452D01*
X017570Y013452D01*
X017646Y013529D01*
X017646Y013606D01*
X017570Y013683D01*
X017416Y013683D01*
X017339Y013759D01*
X017339Y013836D01*
X017416Y013913D01*
X017570Y013913D01*
X017646Y013836D01*
X017800Y013759D02*
X017953Y013913D01*
X017953Y013452D01*
X017800Y013452D02*
X018107Y013452D01*
X018260Y013529D02*
X018260Y013606D01*
X018337Y013683D01*
X018490Y013683D01*
X018567Y013606D01*
X018567Y013529D01*
X018490Y013452D01*
X018337Y013452D01*
X018260Y013529D01*
X018337Y013683D02*
X018260Y013759D01*
X018260Y013836D01*
X018337Y013913D01*
X018490Y013913D01*
X018567Y013836D01*
X018567Y013759D01*
X018490Y013683D01*
X018720Y013836D02*
X018797Y013913D01*
X018951Y013913D01*
X019027Y013836D01*
X018720Y013529D01*
X018797Y013452D01*
X018951Y013452D01*
X019027Y013529D01*
X019027Y013836D01*
X019181Y013836D02*
X019258Y013913D01*
X019411Y013913D01*
X019488Y013836D01*
X019488Y013759D01*
X019181Y013452D01*
X019488Y013452D01*
X019641Y013452D02*
X019641Y013913D01*
X019871Y013913D01*
X019948Y013836D01*
X019948Y013683D01*
X019871Y013606D01*
X019641Y013606D01*
X020102Y013683D02*
X020332Y013683D01*
X020408Y013606D01*
X020408Y013529D01*
X020332Y013452D01*
X020102Y013452D01*
X020102Y013913D01*
X020332Y013913D01*
X020408Y013836D01*
X020408Y013759D01*
X020332Y013683D01*
X018720Y013529D02*
X018720Y013836D01*
X023782Y008648D02*
X023782Y008441D01*
X023834Y008326D02*
X023834Y008119D01*
X023989Y008119D02*
X023679Y008119D01*
X023679Y008004D02*
X023989Y008004D01*
X023989Y007797D02*
X023679Y007797D01*
X023782Y007900D01*
X023679Y008004D01*
X023679Y007681D02*
X023731Y007578D01*
X023834Y007475D01*
X023834Y007630D01*
X023886Y007681D01*
X023937Y007681D01*
X023989Y007630D01*
X023989Y007526D01*
X023937Y007475D01*
X023834Y007475D01*
X023989Y007359D02*
X023989Y007152D01*
X023989Y007256D02*
X023679Y007256D01*
X023782Y007152D01*
X023679Y008326D02*
X023989Y008326D01*
X023989Y008441D02*
X023989Y008648D01*
X023782Y008648D02*
X023989Y008441D01*
X021307Y005736D02*
X021307Y005659D01*
X021230Y005583D01*
X021307Y005506D01*
X021307Y005429D01*
X021230Y005352D01*
X021076Y005352D01*
X021000Y005429D01*
X020846Y005506D02*
X020846Y005813D01*
X021000Y005736D02*
X021076Y005813D01*
X021230Y005813D01*
X021307Y005736D01*
X021230Y005583D02*
X021153Y005583D01*
X020846Y005506D02*
X020693Y005352D01*
X020539Y005506D01*
X020539Y005813D01*
X020386Y005736D02*
X020386Y005659D01*
X020309Y005583D01*
X020386Y005506D01*
X020386Y005429D01*
X020309Y005352D01*
X020156Y005352D01*
X020079Y005429D01*
X020232Y005583D02*
X020309Y005583D01*
X020386Y005736D02*
X020309Y005813D01*
X020156Y005813D01*
X020079Y005736D01*
D15*
X020409Y005082D02*
X020159Y004832D01*
X020159Y004332D01*
X020409Y004082D01*
X020159Y003832D01*
X020159Y003332D01*
X020409Y003082D01*
X020159Y002832D01*
X020159Y002332D01*
X020409Y002082D01*
X020909Y002082D01*
X021159Y002332D01*
X021159Y002832D01*
X020909Y003082D01*
X021159Y003332D01*
X021159Y003832D01*
X020909Y004082D01*
X021159Y004332D01*
X021159Y004832D01*
X020909Y005082D01*
X020409Y005082D01*
X019659Y004832D02*
X019659Y004332D01*
X019409Y004082D01*
X019659Y003832D01*
X019659Y003332D01*
X019409Y003082D01*
X018909Y003082D01*
X018659Y003332D01*
X018409Y003082D01*
X017909Y003082D01*
X017659Y003332D01*
X017409Y003082D01*
X016909Y003082D01*
X016659Y003332D01*
X016409Y003082D01*
X015909Y003082D01*
X015659Y003332D01*
X015409Y003082D01*
X014909Y003082D01*
X014659Y003332D01*
X014409Y003082D01*
X013909Y003082D01*
X013659Y003332D01*
X013409Y003082D01*
X012909Y003082D01*
X012659Y003332D01*
X012409Y003082D01*
X011909Y003082D01*
X011659Y003332D01*
X011409Y003082D01*
X010909Y003082D01*
X010659Y003332D01*
X010409Y003082D01*
X009909Y003082D01*
X009659Y003332D01*
X009659Y003832D01*
X009909Y004082D01*
X010409Y004082D01*
X010659Y003832D01*
X010909Y004082D01*
X011409Y004082D01*
X011659Y003832D01*
X011909Y004082D01*
X012409Y004082D01*
X012659Y003832D01*
X012909Y004082D01*
X013409Y004082D01*
X013659Y003832D01*
X013909Y004082D01*
X014409Y004082D01*
X014659Y003832D01*
X014909Y004082D01*
X015409Y004082D01*
X015659Y003832D01*
X015909Y004082D01*
X016409Y004082D01*
X016659Y003832D01*
X016909Y004082D01*
X017409Y004082D01*
X017659Y003832D01*
X017909Y004082D01*
X018409Y004082D01*
X018659Y003832D01*
X018909Y004082D01*
X019409Y004082D01*
X018909Y004082D01*
X018659Y004332D01*
X018409Y004082D01*
X017909Y004082D01*
X017659Y004332D01*
X017409Y004082D01*
X016909Y004082D01*
X016659Y004332D01*
X016409Y004082D01*
X015909Y004082D01*
X015659Y004332D01*
X015409Y004082D01*
X014909Y004082D01*
X014659Y004332D01*
X014409Y004082D01*
X013909Y004082D01*
X013659Y004332D01*
X013659Y004832D01*
X013909Y005082D01*
X014409Y005082D01*
X014659Y004832D01*
X014909Y005082D01*
X015409Y005082D01*
X015659Y004832D01*
X015909Y005082D01*
X016409Y005082D01*
X016659Y004832D01*
X016909Y005082D01*
X017409Y005082D01*
X017659Y004832D01*
X017909Y005082D01*
X018409Y005082D01*
X018659Y004832D01*
X018909Y005082D01*
X019409Y005082D01*
X019659Y004832D01*
X019409Y003082D02*
X018909Y003082D01*
X018659Y002832D01*
X018409Y003082D01*
X017909Y003082D01*
X017659Y002832D01*
X017409Y003082D01*
X016909Y003082D01*
X016659Y002832D01*
X016409Y003082D01*
X015909Y003082D01*
X015659Y002832D01*
X015409Y003082D01*
X014909Y003082D01*
X014659Y002832D01*
X014409Y003082D01*
X013909Y003082D01*
X013659Y002832D01*
X013409Y003082D01*
X012909Y003082D01*
X012659Y002832D01*
X012409Y003082D01*
X011909Y003082D01*
X011659Y002832D01*
X011409Y003082D01*
X010909Y003082D01*
X010659Y002832D01*
X010409Y003082D01*
X009909Y003082D01*
X009659Y002832D01*
X009659Y002332D01*
X009909Y002082D01*
X010409Y002082D01*
X010659Y002332D01*
X010909Y002082D01*
X011409Y002082D01*
X011659Y002332D01*
X011909Y002082D01*
X012409Y002082D01*
X012659Y002332D01*
X012909Y002082D01*
X013409Y002082D01*
X013659Y002332D01*
X013909Y002082D01*
X014409Y002082D01*
X014659Y002332D01*
X014909Y002082D01*
X015409Y002082D01*
X015659Y002332D01*
X015909Y002082D01*
X016409Y002082D01*
X016659Y002332D01*
X016909Y002082D01*
X017409Y002082D01*
X017659Y002332D01*
X017909Y002082D01*
X018409Y002082D01*
X018659Y002332D01*
X018909Y002082D01*
X019409Y002082D01*
X019659Y002332D01*
X019659Y002832D01*
X019409Y003082D01*
X022659Y004832D02*
X022659Y005332D01*
X022259Y006732D02*
X022259Y009432D01*
X022261Y009491D01*
X022267Y009549D01*
X022276Y009608D01*
X022290Y009665D01*
X022307Y009721D01*
X022328Y009776D01*
X022352Y009830D01*
X022380Y009882D01*
X022411Y009932D01*
X022445Y009980D01*
X022482Y010025D01*
X022523Y010068D01*
X022566Y010109D01*
X022611Y010146D01*
X022659Y010180D01*
X022709Y010211D01*
X022761Y010239D01*
X022815Y010263D01*
X022870Y010284D01*
X022926Y010301D01*
X022983Y010315D01*
X023042Y010324D01*
X023100Y010330D01*
X023159Y010332D01*
X023218Y010330D01*
X023276Y010324D01*
X023335Y010315D01*
X023392Y010301D01*
X023448Y010284D01*
X023503Y010263D01*
X023557Y010239D01*
X023609Y010211D01*
X023659Y010180D01*
X023707Y010146D01*
X023752Y010109D01*
X023795Y010068D01*
X023836Y010025D01*
X023873Y009980D01*
X023907Y009932D01*
X023938Y009882D01*
X023966Y009830D01*
X023990Y009776D01*
X024011Y009721D01*
X024028Y009665D01*
X024042Y009608D01*
X024051Y009549D01*
X024057Y009491D01*
X024059Y009432D01*
X024059Y006732D01*
X024057Y006673D01*
X024051Y006615D01*
X024042Y006556D01*
X024028Y006499D01*
X024011Y006443D01*
X023990Y006388D01*
X023966Y006334D01*
X023938Y006282D01*
X023907Y006232D01*
X023873Y006184D01*
X023836Y006139D01*
X023795Y006096D01*
X023752Y006055D01*
X023707Y006018D01*
X023659Y005984D01*
X023609Y005953D01*
X023557Y005925D01*
X023503Y005901D01*
X023448Y005880D01*
X023392Y005863D01*
X023335Y005849D01*
X023276Y005840D01*
X023218Y005834D01*
X023159Y005832D01*
X023100Y005834D01*
X023042Y005840D01*
X022983Y005849D01*
X022926Y005863D01*
X022870Y005880D01*
X022815Y005901D01*
X022761Y005925D01*
X022709Y005953D01*
X022659Y005984D01*
X022611Y006018D01*
X022566Y006055D01*
X022523Y006096D01*
X022482Y006139D01*
X022445Y006184D01*
X022411Y006232D01*
X022380Y006282D01*
X022352Y006334D01*
X022328Y006388D01*
X022307Y006443D01*
X022290Y006499D01*
X022276Y006556D01*
X022267Y006615D01*
X022261Y006673D01*
X022259Y006732D01*
X022659Y010832D02*
X022659Y011332D01*
X014659Y006332D02*
X014659Y005832D01*
X013659Y004832D02*
X013409Y005082D01*
X012909Y005082D01*
X012659Y004832D01*
X012409Y005082D01*
X011909Y005082D01*
X011659Y004832D01*
X011409Y005082D01*
X010909Y005082D01*
X010659Y004832D01*
X010409Y005082D01*
X009909Y005082D01*
X009659Y004832D01*
X009659Y004332D01*
X009909Y004082D01*
X010409Y004082D01*
X010659Y004332D01*
X010909Y004082D01*
X011409Y004082D01*
X011659Y004332D01*
X011909Y004082D01*
X012409Y004082D01*
X012659Y004332D01*
X012909Y004082D01*
X013409Y004082D01*
X013659Y004332D01*
X013659Y004832D01*
X007259Y002582D02*
X007159Y002582D01*
X007159Y002282D01*
X005159Y002282D01*
X005159Y002582D01*
X005059Y002582D01*
X005159Y002582D02*
X005159Y002882D01*
X007159Y002882D01*
X007159Y002582D01*
X005159Y003332D02*
X005159Y003832D01*
X004409Y007582D02*
X003909Y007582D01*
X003659Y007832D01*
X003659Y008332D01*
X003909Y008582D01*
X003659Y008832D01*
X003659Y009332D01*
X003909Y009582D01*
X003659Y009832D01*
X003659Y010332D01*
X003909Y010582D01*
X003659Y010832D01*
X003659Y011332D01*
X003909Y011582D01*
X003659Y011832D01*
X003659Y012332D01*
X003909Y012582D01*
X003659Y012832D01*
X003659Y013332D01*
X003909Y013582D01*
X004409Y013582D01*
X004659Y013332D01*
X004659Y012832D01*
X004409Y012582D01*
X004659Y012332D01*
X004659Y011832D01*
X004409Y011582D01*
X004659Y011332D01*
X004659Y010832D01*
X004409Y010582D01*
X004659Y010332D01*
X004659Y009832D01*
X004409Y009582D01*
X004659Y009332D01*
X004659Y008832D01*
X004409Y008582D01*
X004659Y008332D01*
X004659Y007832D01*
X004409Y007582D01*
X005959Y014532D02*
X006359Y014532D01*
X004675Y015082D02*
X004677Y015144D01*
X004683Y015207D01*
X004693Y015268D01*
X004707Y015329D01*
X004724Y015389D01*
X004745Y015448D01*
X004771Y015505D01*
X004799Y015560D01*
X004831Y015614D01*
X004867Y015665D01*
X004905Y015715D01*
X004947Y015761D01*
X004991Y015805D01*
X005039Y015846D01*
X005088Y015884D01*
X005140Y015918D01*
X005194Y015949D01*
X005250Y015977D01*
X005308Y016001D01*
X005367Y016022D01*
X005427Y016038D01*
X005488Y016051D01*
X005550Y016060D01*
X005612Y016065D01*
X005675Y016066D01*
X005737Y016063D01*
X005799Y016056D01*
X005861Y016045D01*
X005921Y016030D01*
X005981Y016012D01*
X006039Y015990D01*
X006096Y015964D01*
X006151Y015934D01*
X006204Y015901D01*
X006255Y015865D01*
X006303Y015826D01*
X006349Y015783D01*
X006392Y015738D01*
X006432Y015690D01*
X006469Y015640D01*
X006503Y015587D01*
X006534Y015533D01*
X006560Y015477D01*
X006584Y015419D01*
X006603Y015359D01*
X006619Y015299D01*
X006631Y015237D01*
X006639Y015176D01*
X006643Y015113D01*
X006643Y015051D01*
X006639Y014988D01*
X006631Y014927D01*
X006619Y014865D01*
X006603Y014805D01*
X006584Y014745D01*
X006560Y014687D01*
X006534Y014631D01*
X006503Y014577D01*
X006469Y014524D01*
X006432Y014474D01*
X006392Y014426D01*
X006349Y014381D01*
X006303Y014338D01*
X006255Y014299D01*
X006204Y014263D01*
X006151Y014230D01*
X006096Y014200D01*
X006039Y014174D01*
X005981Y014152D01*
X005921Y014134D01*
X005861Y014119D01*
X005799Y014108D01*
X005737Y014101D01*
X005675Y014098D01*
X005612Y014099D01*
X005550Y014104D01*
X005488Y014113D01*
X005427Y014126D01*
X005367Y014142D01*
X005308Y014163D01*
X005250Y014187D01*
X005194Y014215D01*
X005140Y014246D01*
X005088Y014280D01*
X005039Y014318D01*
X004991Y014359D01*
X004947Y014403D01*
X004905Y014449D01*
X004867Y014499D01*
X004831Y014550D01*
X004799Y014604D01*
X004771Y014659D01*
X004745Y014716D01*
X004724Y014775D01*
X004707Y014835D01*
X004693Y014896D01*
X004683Y014957D01*
X004677Y015020D01*
X004675Y015082D01*
X005399Y017110D02*
X002919Y017110D01*
X002919Y018055D01*
X005399Y018055D01*
X005399Y017110D01*
X007409Y014582D02*
X007909Y014582D01*
X008419Y017610D02*
X008419Y018555D01*
X010899Y018555D01*
X010899Y017610D01*
X008419Y017610D01*
X008359Y019532D02*
X007959Y019532D01*
X006675Y020082D02*
X006677Y020144D01*
X006683Y020207D01*
X006693Y020268D01*
X006707Y020329D01*
X006724Y020389D01*
X006745Y020448D01*
X006771Y020505D01*
X006799Y020560D01*
X006831Y020614D01*
X006867Y020665D01*
X006905Y020715D01*
X006947Y020761D01*
X006991Y020805D01*
X007039Y020846D01*
X007088Y020884D01*
X007140Y020918D01*
X007194Y020949D01*
X007250Y020977D01*
X007308Y021001D01*
X007367Y021022D01*
X007427Y021038D01*
X007488Y021051D01*
X007550Y021060D01*
X007612Y021065D01*
X007675Y021066D01*
X007737Y021063D01*
X007799Y021056D01*
X007861Y021045D01*
X007921Y021030D01*
X007981Y021012D01*
X008039Y020990D01*
X008096Y020964D01*
X008151Y020934D01*
X008204Y020901D01*
X008255Y020865D01*
X008303Y020826D01*
X008349Y020783D01*
X008392Y020738D01*
X008432Y020690D01*
X008469Y020640D01*
X008503Y020587D01*
X008534Y020533D01*
X008560Y020477D01*
X008584Y020419D01*
X008603Y020359D01*
X008619Y020299D01*
X008631Y020237D01*
X008639Y020176D01*
X008643Y020113D01*
X008643Y020051D01*
X008639Y019988D01*
X008631Y019927D01*
X008619Y019865D01*
X008603Y019805D01*
X008584Y019745D01*
X008560Y019687D01*
X008534Y019631D01*
X008503Y019577D01*
X008469Y019524D01*
X008432Y019474D01*
X008392Y019426D01*
X008349Y019381D01*
X008303Y019338D01*
X008255Y019299D01*
X008204Y019263D01*
X008151Y019230D01*
X008096Y019200D01*
X008039Y019174D01*
X007981Y019152D01*
X007921Y019134D01*
X007861Y019119D01*
X007799Y019108D01*
X007737Y019101D01*
X007675Y019098D01*
X007612Y019099D01*
X007550Y019104D01*
X007488Y019113D01*
X007427Y019126D01*
X007367Y019142D01*
X007308Y019163D01*
X007250Y019187D01*
X007194Y019215D01*
X007140Y019246D01*
X007088Y019280D01*
X007039Y019318D01*
X006991Y019359D01*
X006947Y019403D01*
X006905Y019449D01*
X006867Y019499D01*
X006831Y019550D01*
X006799Y019604D01*
X006771Y019659D01*
X006745Y019716D01*
X006724Y019775D01*
X006707Y019835D01*
X006693Y019896D01*
X006683Y019957D01*
X006677Y020020D01*
X006675Y020082D01*
X006659Y021282D02*
X006659Y021582D01*
X006759Y021582D01*
X006659Y021582D02*
X006659Y021882D01*
X004659Y021882D01*
X004659Y021582D01*
X004559Y021582D01*
X004659Y021582D02*
X004659Y021282D01*
X006659Y021282D01*
X004909Y021332D02*
X004909Y021832D01*
X002659Y021332D02*
X002659Y020832D01*
X002409Y020582D01*
X002659Y020332D01*
X002659Y019832D01*
X002409Y019582D01*
X001909Y019582D01*
X001659Y019832D01*
X001659Y020332D01*
X001909Y020582D01*
X001659Y020832D01*
X001659Y021332D01*
X001909Y021582D01*
X002409Y021582D01*
X002659Y021332D01*
X010175Y020582D02*
X010177Y020644D01*
X010183Y020707D01*
X010193Y020768D01*
X010207Y020829D01*
X010224Y020889D01*
X010245Y020948D01*
X010271Y021005D01*
X010299Y021060D01*
X010331Y021114D01*
X010367Y021165D01*
X010405Y021215D01*
X010447Y021261D01*
X010491Y021305D01*
X010539Y021346D01*
X010588Y021384D01*
X010640Y021418D01*
X010694Y021449D01*
X010750Y021477D01*
X010808Y021501D01*
X010867Y021522D01*
X010927Y021538D01*
X010988Y021551D01*
X011050Y021560D01*
X011112Y021565D01*
X011175Y021566D01*
X011237Y021563D01*
X011299Y021556D01*
X011361Y021545D01*
X011421Y021530D01*
X011481Y021512D01*
X011539Y021490D01*
X011596Y021464D01*
X011651Y021434D01*
X011704Y021401D01*
X011755Y021365D01*
X011803Y021326D01*
X011849Y021283D01*
X011892Y021238D01*
X011932Y021190D01*
X011969Y021140D01*
X012003Y021087D01*
X012034Y021033D01*
X012060Y020977D01*
X012084Y020919D01*
X012103Y020859D01*
X012119Y020799D01*
X012131Y020737D01*
X012139Y020676D01*
X012143Y020613D01*
X012143Y020551D01*
X012139Y020488D01*
X012131Y020427D01*
X012119Y020365D01*
X012103Y020305D01*
X012084Y020245D01*
X012060Y020187D01*
X012034Y020131D01*
X012003Y020077D01*
X011969Y020024D01*
X011932Y019974D01*
X011892Y019926D01*
X011849Y019881D01*
X011803Y019838D01*
X011755Y019799D01*
X011704Y019763D01*
X011651Y019730D01*
X011596Y019700D01*
X011539Y019674D01*
X011481Y019652D01*
X011421Y019634D01*
X011361Y019619D01*
X011299Y019608D01*
X011237Y019601D01*
X011175Y019598D01*
X011112Y019599D01*
X011050Y019604D01*
X010988Y019613D01*
X010927Y019626D01*
X010867Y019642D01*
X010808Y019663D01*
X010750Y019687D01*
X010694Y019715D01*
X010640Y019746D01*
X010588Y019780D01*
X010539Y019818D01*
X010491Y019859D01*
X010447Y019903D01*
X010405Y019949D01*
X010367Y019999D01*
X010331Y020050D01*
X010299Y020104D01*
X010271Y020159D01*
X010245Y020216D01*
X010224Y020275D01*
X010207Y020335D01*
X010193Y020396D01*
X010183Y020457D01*
X010177Y020520D01*
X010175Y020582D01*
X011459Y020032D02*
X011859Y020032D01*
X012409Y019082D02*
X012909Y019082D01*
X012909Y014582D02*
X013409Y014582D01*
X019459Y023532D02*
X019859Y023532D01*
X018175Y024082D02*
X018177Y024144D01*
X018183Y024207D01*
X018193Y024268D01*
X018207Y024329D01*
X018224Y024389D01*
X018245Y024448D01*
X018271Y024505D01*
X018299Y024560D01*
X018331Y024614D01*
X018367Y024665D01*
X018405Y024715D01*
X018447Y024761D01*
X018491Y024805D01*
X018539Y024846D01*
X018588Y024884D01*
X018640Y024918D01*
X018694Y024949D01*
X018750Y024977D01*
X018808Y025001D01*
X018867Y025022D01*
X018927Y025038D01*
X018988Y025051D01*
X019050Y025060D01*
X019112Y025065D01*
X019175Y025066D01*
X019237Y025063D01*
X019299Y025056D01*
X019361Y025045D01*
X019421Y025030D01*
X019481Y025012D01*
X019539Y024990D01*
X019596Y024964D01*
X019651Y024934D01*
X019704Y024901D01*
X019755Y024865D01*
X019803Y024826D01*
X019849Y024783D01*
X019892Y024738D01*
X019932Y024690D01*
X019969Y024640D01*
X020003Y024587D01*
X020034Y024533D01*
X020060Y024477D01*
X020084Y024419D01*
X020103Y024359D01*
X020119Y024299D01*
X020131Y024237D01*
X020139Y024176D01*
X020143Y024113D01*
X020143Y024051D01*
X020139Y023988D01*
X020131Y023927D01*
X020119Y023865D01*
X020103Y023805D01*
X020084Y023745D01*
X020060Y023687D01*
X020034Y023631D01*
X020003Y023577D01*
X019969Y023524D01*
X019932Y023474D01*
X019892Y023426D01*
X019849Y023381D01*
X019803Y023338D01*
X019755Y023299D01*
X019704Y023263D01*
X019651Y023230D01*
X019596Y023200D01*
X019539Y023174D01*
X019481Y023152D01*
X019421Y023134D01*
X019361Y023119D01*
X019299Y023108D01*
X019237Y023101D01*
X019175Y023098D01*
X019112Y023099D01*
X019050Y023104D01*
X018988Y023113D01*
X018927Y023126D01*
X018867Y023142D01*
X018808Y023163D01*
X018750Y023187D01*
X018694Y023215D01*
X018640Y023246D01*
X018588Y023280D01*
X018539Y023318D01*
X018491Y023359D01*
X018447Y023403D01*
X018405Y023449D01*
X018367Y023499D01*
X018331Y023550D01*
X018299Y023604D01*
X018271Y023659D01*
X018245Y023716D01*
X018224Y023775D01*
X018207Y023835D01*
X018193Y023896D01*
X018183Y023957D01*
X018177Y024020D01*
X018175Y024082D01*
X020909Y024082D02*
X021409Y024082D01*
D16*
X019629Y025227D02*
X019629Y025518D01*
X019823Y025518D01*
X019726Y025372D02*
X019629Y025372D01*
X019528Y025421D02*
X019528Y025227D01*
X019383Y025227D01*
X019335Y025276D01*
X019335Y025421D01*
X019234Y025469D02*
X019040Y025276D01*
X019088Y025227D01*
X019185Y025227D01*
X019234Y025276D01*
X019234Y025469D01*
X019185Y025518D01*
X019088Y025518D01*
X019040Y025469D01*
X019040Y025276D01*
X018939Y025227D02*
X018745Y025227D01*
X018842Y025227D02*
X018842Y025518D01*
X018745Y025421D01*
X011223Y019468D02*
X011029Y019468D01*
X011029Y019177D01*
X010928Y019177D02*
X010928Y019371D01*
X011029Y019322D02*
X011126Y019322D01*
X010928Y019177D02*
X010783Y019177D01*
X010735Y019226D01*
X010735Y019371D01*
X010634Y019419D02*
X010440Y019226D01*
X010488Y019177D01*
X010585Y019177D01*
X010634Y019226D01*
X010634Y019419D01*
X010585Y019468D01*
X010488Y019468D01*
X010440Y019419D01*
X010440Y019226D01*
X010339Y019177D02*
X010145Y019177D01*
X010242Y019177D02*
X010242Y019468D01*
X010145Y019371D01*
X008223Y018918D02*
X008029Y018918D01*
X008029Y018627D01*
X007928Y018627D02*
X007928Y018821D01*
X008029Y018772D02*
X008126Y018772D01*
X007928Y018627D02*
X007783Y018627D01*
X007735Y018676D01*
X007735Y018821D01*
X007634Y018869D02*
X007634Y018676D01*
X007585Y018627D01*
X007488Y018627D01*
X007440Y018676D01*
X007634Y018869D01*
X007585Y018918D01*
X007488Y018918D01*
X007440Y018869D01*
X007440Y018676D01*
X007339Y018627D02*
X007145Y018627D01*
X007242Y018627D02*
X007242Y018918D01*
X007145Y018821D01*
X006823Y016518D02*
X006823Y016324D01*
X006726Y016227D01*
X006629Y016324D01*
X006629Y016518D01*
X006528Y016518D02*
X006431Y016469D01*
X006335Y016372D01*
X006480Y016372D01*
X006528Y016324D01*
X006528Y016276D01*
X006480Y016227D01*
X006383Y016227D01*
X006335Y016276D01*
X006335Y016372D01*
X006234Y016518D02*
X006040Y016227D01*
X005842Y016372D02*
X005745Y016372D01*
X005644Y016421D02*
X005644Y016227D01*
X005499Y016227D01*
X005451Y016276D01*
X005451Y016421D01*
X005350Y016469D02*
X005156Y016276D01*
X005204Y016227D01*
X005301Y016227D01*
X005350Y016276D01*
X005350Y016469D01*
X005301Y016518D01*
X005204Y016518D01*
X005156Y016469D01*
X005156Y016276D01*
X005055Y016276D02*
X005007Y016227D01*
X004910Y016227D01*
X004861Y016276D01*
X005055Y016469D01*
X005055Y016276D01*
X005055Y016469D02*
X005007Y016518D01*
X004910Y016518D01*
X004861Y016469D01*
X004861Y016276D01*
X004760Y016227D02*
X004567Y016227D01*
X004664Y016227D02*
X004664Y016518D01*
X004567Y016421D01*
X005745Y016518D02*
X005745Y016227D01*
X005745Y016518D02*
X005939Y016518D01*
X003244Y019664D02*
X002924Y019664D01*
X002924Y019824D01*
X002977Y019877D01*
X003084Y019877D01*
X003137Y019824D01*
X003137Y019664D01*
X003244Y019986D02*
X002924Y019986D01*
X002924Y020199D02*
X003244Y020199D01*
X003137Y020093D01*
X003244Y019986D01*
X003244Y020308D02*
X002924Y020308D01*
X002924Y020468D01*
X002977Y020522D01*
X003084Y020522D01*
X003137Y020468D01*
X003137Y020308D01*
X003137Y020415D02*
X003244Y020522D01*
X003297Y020630D02*
X003297Y020844D01*
X003191Y020953D02*
X003244Y021006D01*
X003244Y021113D01*
X003191Y021166D01*
X003137Y021166D01*
X003084Y021113D01*
X003084Y021006D01*
X003031Y020953D01*
X002977Y020953D01*
X002924Y021006D01*
X002924Y021113D01*
X002977Y021166D01*
X002924Y021275D02*
X003244Y021275D01*
X003137Y021382D01*
X003244Y021488D01*
X002924Y021488D01*
X002924Y011067D02*
X003244Y011067D01*
X003244Y010854D01*
X003244Y010745D02*
X003244Y010532D01*
X003244Y010638D02*
X002924Y010638D01*
X002924Y010423D02*
X002924Y010263D01*
X002977Y010209D01*
X003191Y010209D01*
X003244Y010263D01*
X003244Y010423D01*
X002924Y010423D01*
X002924Y010101D02*
X002924Y009994D01*
X002924Y010047D02*
X003244Y010047D01*
X003244Y009994D02*
X003244Y010101D01*
X003084Y010961D02*
X003084Y011067D01*
X015170Y015947D02*
X015277Y015947D01*
X015223Y015947D02*
X015223Y016268D01*
X015170Y016268D02*
X015277Y016268D01*
X015385Y016214D02*
X015438Y016268D01*
X015545Y016268D01*
X015598Y016214D01*
X015598Y016161D01*
X015385Y015947D01*
X015598Y015947D01*
X015707Y016001D02*
X015707Y016214D01*
X015761Y016268D01*
X015867Y016268D01*
X015921Y016214D01*
X015921Y016001D02*
X015867Y015947D01*
X015761Y015947D01*
X015707Y016001D01*
X016029Y015894D02*
X016243Y015894D01*
X016352Y015947D02*
X016352Y016161D01*
X016458Y016268D01*
X016565Y016161D01*
X016565Y015947D01*
X016565Y016107D02*
X016352Y016107D01*
X017670Y015947D02*
X017777Y015947D01*
X017723Y015947D02*
X017723Y016268D01*
X017670Y016268D02*
X017777Y016268D01*
X017885Y016214D02*
X017938Y016268D01*
X018045Y016268D01*
X018098Y016214D01*
X018098Y016161D01*
X017885Y015947D01*
X018098Y015947D01*
X018207Y016001D02*
X018207Y016214D01*
X018261Y016268D01*
X018367Y016268D01*
X018421Y016214D01*
X018421Y016001D02*
X018367Y015947D01*
X018261Y015947D01*
X018207Y016001D01*
X018529Y015894D02*
X018743Y015894D01*
X018852Y015947D02*
X019012Y015947D01*
X019065Y016001D01*
X019065Y016054D01*
X019012Y016107D01*
X018852Y016107D01*
X018852Y015947D02*
X018852Y016268D01*
X019012Y016268D01*
X019065Y016214D01*
X019065Y016161D01*
X019012Y016107D01*
X020170Y015947D02*
X020277Y015947D01*
X020223Y015947D02*
X020223Y016268D01*
X020170Y016268D02*
X020277Y016268D01*
X020385Y016214D02*
X020438Y016268D01*
X020545Y016268D01*
X020598Y016214D01*
X020598Y016161D01*
X020385Y015947D01*
X020598Y015947D01*
X020707Y016001D02*
X020761Y015947D01*
X020867Y015947D01*
X020921Y016001D01*
X021029Y015894D02*
X021243Y015894D01*
X021352Y016001D02*
X021352Y016214D01*
X021405Y016268D01*
X021512Y016268D01*
X021565Y016214D01*
X021565Y016001D02*
X021512Y015947D01*
X021405Y015947D01*
X021352Y016001D01*
X020921Y016214D02*
X020867Y016268D01*
X020761Y016268D01*
X020707Y016214D01*
X020707Y016001D01*
X022348Y015947D02*
X022455Y015947D01*
X022401Y015947D02*
X022401Y016268D01*
X022348Y016268D02*
X022455Y016268D01*
X022563Y016214D02*
X022616Y016268D01*
X022723Y016268D01*
X022776Y016214D01*
X022776Y016161D01*
X022563Y015947D01*
X022776Y015947D01*
X022885Y016001D02*
X022885Y016214D01*
X022938Y016268D01*
X023045Y016268D01*
X023098Y016214D01*
X023098Y016001D02*
X023045Y015947D01*
X022938Y015947D01*
X022885Y016001D01*
X023207Y015894D02*
X023421Y015894D01*
X023529Y015947D02*
X023743Y016268D01*
X023852Y016161D02*
X023958Y016268D01*
X023958Y015947D01*
X023852Y015947D02*
X024065Y015947D01*
X023743Y015947D02*
X023529Y016268D01*
D17*
X020689Y023824D02*
X020589Y023824D01*
X020564Y023849D01*
X020564Y023899D01*
X020589Y023924D01*
X020689Y023824D01*
X020714Y023849D01*
X020714Y023899D01*
X020689Y023924D01*
X020589Y023924D01*
X020689Y023972D02*
X020689Y023997D01*
X020714Y023997D01*
X020714Y023972D01*
X020689Y023972D01*
X020714Y024045D02*
X020714Y024145D01*
X020714Y024095D02*
X020564Y024095D01*
X020614Y024045D01*
X020614Y024193D02*
X020689Y024193D01*
X020714Y024218D01*
X020714Y024293D01*
X020614Y024293D01*
X020639Y024340D02*
X020639Y024390D01*
X020714Y024340D02*
X020564Y024340D01*
X020564Y024440D01*
X017320Y024930D02*
X017289Y024891D01*
X017290Y024891D02*
X017240Y024928D01*
X017188Y024961D01*
X017134Y024991D01*
X017078Y025018D01*
X017021Y025042D01*
X016963Y025062D01*
X016903Y025078D01*
X016843Y025091D01*
X016782Y025101D01*
X016720Y025106D01*
X016658Y025108D01*
X016597Y025106D01*
X016535Y025100D01*
X016474Y025091D01*
X016414Y025078D01*
X016354Y025062D01*
X016296Y025041D01*
X016239Y025018D01*
X016183Y024991D01*
X016129Y024960D01*
X016077Y024927D01*
X016028Y024890D01*
X015980Y024851D01*
X015935Y024809D01*
X015893Y024764D01*
X015853Y024716D01*
X015816Y024666D01*
X015783Y024615D01*
X015752Y024561D01*
X015725Y024505D01*
X015701Y024448D01*
X015681Y024390D01*
X015634Y024404D01*
X015633Y024405D01*
X015655Y024466D01*
X015679Y024526D01*
X015708Y024584D01*
X015740Y024640D01*
X015775Y024695D01*
X015814Y024747D01*
X015855Y024797D01*
X015900Y024844D01*
X015947Y024888D01*
X015997Y024930D01*
X016049Y024968D01*
X016103Y025003D01*
X016160Y025035D01*
X016218Y025063D01*
X016278Y025088D01*
X016339Y025109D01*
X016402Y025127D01*
X016465Y025140D01*
X016529Y025150D01*
X016594Y025156D01*
X016658Y025158D01*
X016723Y025156D01*
X016788Y025150D01*
X016852Y025141D01*
X016915Y025127D01*
X016978Y025110D01*
X017039Y025089D01*
X017099Y025064D01*
X017157Y025036D01*
X017214Y025004D01*
X017268Y024969D01*
X017321Y024930D01*
X017315Y024923D01*
X017263Y024961D01*
X017209Y024996D01*
X017153Y025028D01*
X017095Y025056D01*
X017036Y025080D01*
X016975Y025101D01*
X016913Y025118D01*
X016850Y025132D01*
X016787Y025141D01*
X016723Y025147D01*
X016658Y025149D01*
X016594Y025147D01*
X016530Y025141D01*
X016467Y025132D01*
X016404Y025118D01*
X016342Y025101D01*
X016281Y025080D01*
X016222Y025055D01*
X016164Y025027D01*
X016108Y024996D01*
X016054Y024961D01*
X016002Y024923D01*
X015953Y024882D01*
X015906Y024838D01*
X015862Y024791D01*
X015821Y024741D01*
X015783Y024690D01*
X015748Y024636D01*
X015716Y024580D01*
X015688Y024522D01*
X015663Y024463D01*
X015642Y024402D01*
X015650Y024399D01*
X015671Y024460D01*
X015696Y024518D01*
X015724Y024576D01*
X015755Y024631D01*
X015790Y024685D01*
X015828Y024736D01*
X015869Y024785D01*
X015912Y024831D01*
X015959Y024875D01*
X016008Y024916D01*
X016059Y024953D01*
X016113Y024988D01*
X016168Y025019D01*
X016225Y025047D01*
X016284Y025071D01*
X016345Y025092D01*
X016406Y025109D01*
X016468Y025123D01*
X016531Y025132D01*
X016595Y025138D01*
X016658Y025140D01*
X016722Y025138D01*
X016786Y025132D01*
X016849Y025123D01*
X016911Y025110D01*
X016972Y025092D01*
X017033Y025072D01*
X017092Y025047D01*
X017149Y025020D01*
X017204Y024988D01*
X017258Y024954D01*
X017309Y024916D01*
X017304Y024909D01*
X017253Y024946D01*
X017200Y024981D01*
X017145Y025012D01*
X017088Y025039D01*
X017029Y025063D01*
X016970Y025084D01*
X016909Y025101D01*
X016847Y025114D01*
X016785Y025123D01*
X016722Y025129D01*
X016658Y025131D01*
X016595Y025129D01*
X016532Y025123D01*
X016470Y025114D01*
X016408Y025101D01*
X016347Y025084D01*
X016288Y025063D01*
X016229Y025039D01*
X016172Y025011D01*
X016117Y024980D01*
X016064Y024946D01*
X016013Y024908D01*
X015965Y024868D01*
X015919Y024825D01*
X015875Y024779D01*
X015835Y024730D01*
X015797Y024680D01*
X015763Y024627D01*
X015732Y024572D01*
X015704Y024515D01*
X015680Y024456D01*
X015659Y024397D01*
X015668Y024394D01*
X015688Y024453D01*
X015712Y024511D01*
X015740Y024567D01*
X015771Y024622D01*
X015805Y024674D01*
X015842Y024725D01*
X015882Y024773D01*
X015925Y024818D01*
X015971Y024861D01*
X016019Y024901D01*
X016069Y024938D01*
X016122Y024972D01*
X016177Y025003D01*
X016233Y025031D01*
X016291Y025055D01*
X016350Y025075D01*
X016410Y025092D01*
X016472Y025105D01*
X016533Y025114D01*
X016596Y025120D01*
X016658Y025122D01*
X016721Y025120D01*
X016783Y025115D01*
X016845Y025105D01*
X016907Y025092D01*
X016967Y025075D01*
X017026Y025055D01*
X017084Y025031D01*
X017140Y025004D01*
X017195Y024973D01*
X017248Y024939D01*
X017298Y024902D01*
X017293Y024895D01*
X017243Y024932D01*
X017190Y024965D01*
X017136Y024996D01*
X017080Y025023D01*
X017023Y025047D01*
X016964Y025067D01*
X016904Y025083D01*
X016844Y025096D01*
X016782Y025106D01*
X016721Y025111D01*
X016658Y025113D01*
X016596Y025111D01*
X016535Y025105D01*
X016473Y025096D01*
X016412Y025083D01*
X016353Y025066D01*
X016294Y025046D01*
X016237Y025022D01*
X016181Y024995D01*
X016127Y024965D01*
X016074Y024931D01*
X016024Y024894D01*
X015977Y024855D01*
X015931Y024812D01*
X015889Y024767D01*
X015849Y024719D01*
X015812Y024669D01*
X015778Y024617D01*
X015748Y024563D01*
X015721Y024507D01*
X015697Y024450D01*
X015676Y024391D01*
X015634Y023761D02*
X015682Y023776D01*
X015681Y023775D02*
X015701Y023717D01*
X015725Y023660D01*
X015752Y023604D01*
X015783Y023550D01*
X015816Y023499D01*
X015853Y023449D01*
X015893Y023401D01*
X015935Y023356D01*
X015980Y023314D01*
X016028Y023275D01*
X016077Y023238D01*
X016129Y023205D01*
X016183Y023174D01*
X016239Y023147D01*
X016296Y023124D01*
X016354Y023103D01*
X016414Y023087D01*
X016474Y023074D01*
X016535Y023065D01*
X016597Y023059D01*
X016658Y023057D01*
X016720Y023059D01*
X016782Y023064D01*
X016843Y023074D01*
X016903Y023087D01*
X016963Y023103D01*
X017021Y023123D01*
X017078Y023147D01*
X017134Y023174D01*
X017188Y023204D01*
X017240Y023237D01*
X017290Y023274D01*
X017320Y023235D01*
X017321Y023235D01*
X017268Y023196D01*
X017214Y023161D01*
X017157Y023129D01*
X017099Y023101D01*
X017039Y023076D01*
X016978Y023055D01*
X016915Y023038D01*
X016852Y023024D01*
X016788Y023015D01*
X016723Y023009D01*
X016658Y023007D01*
X016594Y023009D01*
X016529Y023015D01*
X016465Y023025D01*
X016402Y023038D01*
X016339Y023056D01*
X016278Y023077D01*
X016218Y023102D01*
X016160Y023130D01*
X016103Y023162D01*
X016049Y023197D01*
X015997Y023235D01*
X015947Y023277D01*
X015900Y023321D01*
X015855Y023368D01*
X015814Y023418D01*
X015775Y023470D01*
X015740Y023525D01*
X015708Y023581D01*
X015679Y023639D01*
X015655Y023699D01*
X015633Y023760D01*
X015642Y023763D01*
X015663Y023702D01*
X015688Y023643D01*
X015716Y023585D01*
X015748Y023529D01*
X015782Y023475D01*
X015821Y023424D01*
X015862Y023374D01*
X015906Y023327D01*
X015953Y023283D01*
X016002Y023242D01*
X016054Y023204D01*
X016108Y023169D01*
X016164Y023138D01*
X016222Y023110D01*
X016281Y023085D01*
X016342Y023064D01*
X016404Y023047D01*
X016467Y023033D01*
X016530Y023024D01*
X016594Y023018D01*
X016658Y023016D01*
X016723Y023018D01*
X016787Y023024D01*
X016850Y023033D01*
X016913Y023047D01*
X016975Y023064D01*
X017036Y023085D01*
X017095Y023109D01*
X017153Y023137D01*
X017209Y023169D01*
X017263Y023204D01*
X017315Y023242D01*
X017309Y023249D01*
X017258Y023211D01*
X017204Y023177D01*
X017149Y023145D01*
X017092Y023118D01*
X017033Y023093D01*
X016972Y023073D01*
X016911Y023055D01*
X016849Y023042D01*
X016786Y023033D01*
X016722Y023027D01*
X016658Y023025D01*
X016595Y023027D01*
X016531Y023033D01*
X016468Y023042D01*
X016406Y023056D01*
X016345Y023073D01*
X016284Y023094D01*
X016225Y023118D01*
X016168Y023146D01*
X016113Y023177D01*
X016059Y023212D01*
X016008Y023249D01*
X015959Y023290D01*
X015912Y023334D01*
X015869Y023380D01*
X015828Y023429D01*
X015790Y023480D01*
X015755Y023534D01*
X015724Y023589D01*
X015696Y023647D01*
X015671Y023705D01*
X015650Y023766D01*
X015659Y023768D01*
X015680Y023709D01*
X015704Y023650D01*
X015732Y023593D01*
X015763Y023538D01*
X015797Y023485D01*
X015835Y023435D01*
X015875Y023386D01*
X015919Y023340D01*
X015965Y023297D01*
X016013Y023257D01*
X016064Y023219D01*
X016117Y023185D01*
X016172Y023154D01*
X016229Y023126D01*
X016288Y023102D01*
X016347Y023081D01*
X016408Y023064D01*
X016470Y023051D01*
X016532Y023042D01*
X016595Y023036D01*
X016658Y023034D01*
X016722Y023036D01*
X016785Y023042D01*
X016847Y023051D01*
X016909Y023064D01*
X016970Y023081D01*
X017029Y023102D01*
X017088Y023126D01*
X017145Y023153D01*
X017200Y023184D01*
X017253Y023218D01*
X017304Y023256D01*
X017298Y023263D01*
X017248Y023226D01*
X017195Y023192D01*
X017140Y023161D01*
X017084Y023134D01*
X017026Y023110D01*
X016967Y023090D01*
X016907Y023073D01*
X016845Y023060D01*
X016783Y023050D01*
X016721Y023045D01*
X016658Y023043D01*
X016596Y023045D01*
X016533Y023051D01*
X016472Y023060D01*
X016410Y023073D01*
X016350Y023090D01*
X016291Y023110D01*
X016233Y023134D01*
X016177Y023162D01*
X016122Y023193D01*
X016069Y023227D01*
X016019Y023264D01*
X015971Y023304D01*
X015925Y023347D01*
X015882Y023392D01*
X015842Y023440D01*
X015805Y023491D01*
X015771Y023543D01*
X015740Y023598D01*
X015712Y023654D01*
X015688Y023712D01*
X015668Y023771D01*
X015676Y023774D01*
X015697Y023715D01*
X015721Y023658D01*
X015748Y023602D01*
X015778Y023548D01*
X015812Y023496D01*
X015849Y023446D01*
X015889Y023398D01*
X015931Y023353D01*
X015977Y023310D01*
X016024Y023271D01*
X016074Y023234D01*
X016127Y023200D01*
X016181Y023170D01*
X016237Y023143D01*
X016294Y023119D01*
X016353Y023099D01*
X016412Y023082D01*
X016473Y023069D01*
X016535Y023060D01*
X016596Y023054D01*
X016658Y023052D01*
X016720Y023054D01*
X016782Y023059D01*
X016844Y023069D01*
X016904Y023082D01*
X016964Y023098D01*
X017023Y023118D01*
X017080Y023142D01*
X017136Y023169D01*
X017190Y023200D01*
X017243Y023233D01*
X017293Y023270D01*
X012204Y019353D02*
X012054Y019353D01*
X012054Y019453D01*
X012129Y019403D02*
X012129Y019353D01*
X012104Y019306D02*
X012204Y019306D01*
X012204Y019231D01*
X012179Y019206D01*
X012104Y019206D01*
X012054Y019108D02*
X012204Y019108D01*
X012204Y019058D02*
X012204Y019158D01*
X012104Y019058D02*
X012054Y019108D01*
X012179Y019010D02*
X012204Y019010D01*
X012204Y018985D01*
X012179Y018985D01*
X012179Y019010D01*
X012179Y018937D02*
X012204Y018912D01*
X012204Y018862D01*
X012179Y018837D01*
X012079Y018937D01*
X012179Y018937D01*
X012179Y018837D02*
X012079Y018837D01*
X012054Y018862D01*
X012054Y018912D01*
X012079Y018937D01*
X012504Y014953D02*
X012504Y014853D01*
X012654Y014853D01*
X012654Y014806D02*
X012554Y014806D01*
X012579Y014853D02*
X012579Y014903D01*
X012654Y014806D02*
X012654Y014731D01*
X012629Y014706D01*
X012554Y014706D01*
X012504Y014608D02*
X012654Y014608D01*
X012654Y014558D02*
X012654Y014658D01*
X012554Y014558D02*
X012504Y014608D01*
X012629Y014510D02*
X012654Y014510D01*
X012654Y014485D01*
X012629Y014485D01*
X012629Y014510D01*
X012629Y014437D02*
X012654Y014412D01*
X012654Y014362D01*
X012629Y014337D01*
X012529Y014437D01*
X012629Y014437D01*
X012629Y014337D02*
X012529Y014337D01*
X012504Y014362D01*
X012504Y014412D01*
X012529Y014437D01*
X007154Y014412D02*
X007154Y014362D01*
X007129Y014337D01*
X007029Y014437D01*
X007129Y014437D01*
X007154Y014412D01*
X007154Y014485D02*
X007154Y014510D01*
X007129Y014510D01*
X007129Y014485D01*
X007154Y014485D01*
X007154Y014558D02*
X007154Y014658D01*
X007154Y014608D02*
X007004Y014608D01*
X007054Y014558D01*
X007029Y014437D02*
X007004Y014412D01*
X007004Y014362D01*
X007029Y014337D01*
X007129Y014337D01*
X007129Y014706D02*
X007154Y014731D01*
X007154Y014806D01*
X007054Y014806D01*
X007079Y014853D02*
X007079Y014903D01*
X007154Y014853D02*
X007004Y014853D01*
X007004Y014953D01*
X007054Y014706D02*
X007129Y014706D01*
X005503Y020087D02*
X005413Y020087D01*
X005414Y020087D02*
X005412Y020141D01*
X005406Y020194D01*
X005396Y020247D01*
X005382Y020299D01*
X005365Y020350D01*
X005344Y020399D01*
X005320Y020447D01*
X005292Y020493D01*
X005261Y020537D01*
X005227Y020579D01*
X005191Y020618D01*
X005151Y020655D01*
X005109Y020688D01*
X005065Y020719D01*
X005019Y020746D01*
X005061Y020825D01*
X005110Y020797D01*
X005156Y020765D01*
X005201Y020730D01*
X005243Y020693D01*
X005282Y020652D01*
X005319Y020609D01*
X005353Y020564D01*
X005384Y020517D01*
X005411Y020467D01*
X005435Y020416D01*
X005456Y020364D01*
X005473Y020310D01*
X005486Y020255D01*
X005496Y020200D01*
X005502Y020143D01*
X005504Y020087D01*
X005495Y020087D01*
X005493Y020143D01*
X005487Y020198D01*
X005477Y020253D01*
X005464Y020308D01*
X005447Y020361D01*
X005427Y020413D01*
X005403Y020463D01*
X005376Y020512D01*
X005346Y020559D01*
X005312Y020604D01*
X005276Y020646D01*
X005237Y020686D01*
X005195Y020723D01*
X005151Y020758D01*
X005105Y020789D01*
X005057Y020817D01*
X005053Y020809D01*
X005100Y020781D01*
X005146Y020750D01*
X005189Y020716D01*
X005231Y020680D01*
X005269Y020640D01*
X005305Y020598D01*
X005338Y020554D01*
X005368Y020508D01*
X005395Y020459D01*
X005418Y020409D01*
X005439Y020358D01*
X005455Y020305D01*
X005468Y020252D01*
X005478Y020197D01*
X005484Y020142D01*
X005486Y020087D01*
X005477Y020087D01*
X005475Y020142D01*
X005469Y020196D01*
X005460Y020250D01*
X005447Y020303D01*
X005430Y020355D01*
X005410Y020406D01*
X005387Y020455D01*
X005360Y020503D01*
X005331Y020549D01*
X005298Y020593D01*
X005263Y020634D01*
X005224Y020673D01*
X005184Y020710D01*
X005141Y020743D01*
X005095Y020774D01*
X005048Y020801D01*
X005044Y020793D01*
X005091Y020766D01*
X005135Y020736D01*
X005178Y020703D01*
X005218Y020667D01*
X005256Y020628D01*
X005291Y020587D01*
X005323Y020544D01*
X005353Y020498D01*
X005379Y020451D01*
X005402Y020402D01*
X005422Y020352D01*
X005438Y020300D01*
X005451Y020248D01*
X005460Y020195D01*
X005466Y020141D01*
X005468Y020087D01*
X005459Y020087D01*
X005457Y020140D01*
X005451Y020194D01*
X005442Y020246D01*
X005429Y020298D01*
X005413Y020349D01*
X005394Y020399D01*
X005371Y020447D01*
X005345Y020494D01*
X005316Y020538D01*
X005284Y020581D01*
X005249Y020622D01*
X005212Y020660D01*
X005172Y020696D01*
X005130Y020729D01*
X005086Y020759D01*
X005040Y020786D01*
X005036Y020778D01*
X005081Y020751D01*
X005125Y020721D01*
X005166Y020689D01*
X005206Y020654D01*
X005243Y020616D01*
X005277Y020576D01*
X005309Y020533D01*
X005337Y020489D01*
X005363Y020443D01*
X005385Y020395D01*
X005405Y020346D01*
X005421Y020296D01*
X005433Y020244D01*
X005442Y020192D01*
X005448Y020140D01*
X005450Y020087D01*
X005441Y020087D01*
X005439Y020143D01*
X005432Y020198D01*
X005422Y020253D01*
X005408Y020307D01*
X005390Y020359D01*
X005369Y020411D01*
X005343Y020460D01*
X005315Y020508D01*
X005283Y020554D01*
X005248Y020597D01*
X005210Y020637D01*
X005169Y020675D01*
X005125Y020710D01*
X005079Y020741D01*
X005031Y020770D01*
X005027Y020762D01*
X005075Y020734D01*
X005120Y020703D01*
X005163Y020668D01*
X005203Y020631D01*
X005241Y020591D01*
X005276Y020548D01*
X005307Y020503D01*
X005336Y020456D01*
X005360Y020407D01*
X005382Y020356D01*
X005399Y020304D01*
X005413Y020251D01*
X005423Y020197D01*
X005430Y020142D01*
X005432Y020087D01*
X005423Y020087D01*
X005421Y020141D01*
X005415Y020195D01*
X005405Y020249D01*
X005391Y020301D01*
X005373Y020353D01*
X005352Y020403D01*
X005328Y020452D01*
X005300Y020498D01*
X005268Y020543D01*
X005234Y020585D01*
X005197Y020624D01*
X005157Y020661D01*
X005115Y020695D01*
X005070Y020726D01*
X005023Y020754D01*
X004236Y020813D02*
X004281Y020735D01*
X004280Y020735D02*
X004236Y020707D01*
X004194Y020676D01*
X004154Y020643D01*
X004116Y020607D01*
X004081Y020568D01*
X004049Y020527D01*
X004019Y020483D01*
X003993Y020438D01*
X003970Y020391D01*
X003950Y020343D01*
X003934Y020293D01*
X003921Y020243D01*
X003912Y020191D01*
X003906Y020139D01*
X003904Y020087D01*
X003815Y020086D01*
X003814Y020087D01*
X003816Y020142D01*
X003822Y020196D01*
X003831Y020251D01*
X003844Y020304D01*
X003860Y020356D01*
X003879Y020408D01*
X003902Y020458D01*
X003928Y020506D01*
X003957Y020553D01*
X003989Y020597D01*
X004024Y020640D01*
X004062Y020680D01*
X004102Y020717D01*
X004144Y020752D01*
X004189Y020784D01*
X004235Y020813D01*
X004240Y020805D01*
X004194Y020777D01*
X004150Y020745D01*
X004108Y020710D01*
X004068Y020673D01*
X004031Y020634D01*
X003996Y020592D01*
X003965Y020548D01*
X003936Y020502D01*
X003910Y020454D01*
X003888Y020404D01*
X003868Y020354D01*
X003852Y020302D01*
X003840Y020249D01*
X003831Y020195D01*
X003825Y020141D01*
X003823Y020087D01*
X003832Y020087D01*
X003834Y020141D01*
X003840Y020194D01*
X003849Y020247D01*
X003861Y020299D01*
X003877Y020351D01*
X003896Y020401D01*
X003918Y020450D01*
X003944Y020497D01*
X003972Y020543D01*
X004004Y020586D01*
X004038Y020628D01*
X004074Y020667D01*
X004114Y020704D01*
X004155Y020738D01*
X004199Y020769D01*
X004244Y020798D01*
X004249Y020790D01*
X004201Y020760D01*
X004155Y020726D01*
X004112Y020690D01*
X004071Y020650D01*
X004033Y020608D01*
X003998Y020564D01*
X003966Y020517D01*
X003938Y020468D01*
X003913Y020417D01*
X003891Y020364D01*
X003874Y020311D01*
X003860Y020256D01*
X003850Y020200D01*
X003843Y020144D01*
X003841Y020087D01*
X003850Y020087D01*
X003852Y020143D01*
X003858Y020199D01*
X003868Y020254D01*
X003882Y020308D01*
X003900Y020361D01*
X003921Y020413D01*
X003946Y020464D01*
X003974Y020512D01*
X004005Y020558D01*
X004040Y020603D01*
X004077Y020644D01*
X004118Y020683D01*
X004160Y020719D01*
X004206Y020752D01*
X004253Y020782D01*
X004258Y020774D01*
X004211Y020745D01*
X004166Y020712D01*
X004124Y020676D01*
X004084Y020638D01*
X004047Y020597D01*
X004012Y020553D01*
X003981Y020507D01*
X003954Y020459D01*
X003929Y020410D01*
X003908Y020358D01*
X003891Y020306D01*
X003877Y020252D01*
X003867Y020197D01*
X003861Y020142D01*
X003859Y020087D01*
X003868Y020087D01*
X003870Y020142D01*
X003876Y020196D01*
X003886Y020250D01*
X003900Y020303D01*
X003917Y020355D01*
X003937Y020406D01*
X003962Y020455D01*
X003989Y020502D01*
X004020Y020548D01*
X004053Y020591D01*
X004090Y020632D01*
X004130Y020670D01*
X004172Y020705D01*
X004216Y020737D01*
X004262Y020766D01*
X004267Y020758D01*
X004221Y020730D01*
X004177Y020698D01*
X004136Y020663D01*
X004097Y020625D01*
X004060Y020585D01*
X004027Y020543D01*
X003997Y020498D01*
X003969Y020451D01*
X003946Y020402D01*
X003925Y020352D01*
X003908Y020301D01*
X003895Y020248D01*
X003885Y020195D01*
X003879Y020141D01*
X003877Y020087D01*
X003886Y020087D01*
X003888Y020140D01*
X003894Y020194D01*
X003904Y020246D01*
X003917Y020298D01*
X003934Y020349D01*
X003954Y020399D01*
X003977Y020447D01*
X004004Y020493D01*
X004034Y020537D01*
X004067Y020579D01*
X004103Y020619D01*
X004142Y020656D01*
X004183Y020691D01*
X004226Y020722D01*
X004271Y020751D01*
X004276Y020743D01*
X004231Y020715D01*
X004188Y020684D01*
X004148Y020650D01*
X004110Y020613D01*
X004074Y020574D01*
X004042Y020532D01*
X004012Y020488D01*
X003985Y020442D01*
X003962Y020395D01*
X003942Y020346D01*
X003925Y020296D01*
X003912Y020244D01*
X003903Y020192D01*
X003897Y020140D01*
X003895Y020087D01*
X003815Y020078D02*
X003905Y020078D01*
X003904Y020077D02*
X003906Y020023D01*
X003912Y019970D01*
X003922Y019917D01*
X003936Y019865D01*
X003953Y019814D01*
X003974Y019764D01*
X003998Y019716D01*
X004026Y019670D01*
X004057Y019626D01*
X004091Y019585D01*
X004128Y019545D01*
X004167Y019509D01*
X004110Y019441D01*
X004109Y019440D01*
X004068Y019478D01*
X004030Y019518D01*
X003994Y019561D01*
X003961Y019606D01*
X003931Y019653D01*
X003905Y019701D01*
X003881Y019752D01*
X003861Y019804D01*
X003845Y019857D01*
X003831Y019911D01*
X003822Y019966D01*
X003816Y020021D01*
X003814Y020077D01*
X003823Y020077D01*
X003825Y020022D01*
X003831Y019967D01*
X003840Y019913D01*
X003853Y019859D01*
X003870Y019807D01*
X003889Y019755D01*
X003913Y019705D01*
X003939Y019657D01*
X003969Y019611D01*
X004001Y019566D01*
X004036Y019524D01*
X004075Y019484D01*
X004115Y019447D01*
X004121Y019454D01*
X004081Y019491D01*
X004043Y019530D01*
X004008Y019572D01*
X003976Y019616D01*
X003947Y019662D01*
X003921Y019710D01*
X003898Y019759D01*
X003878Y019810D01*
X003862Y019862D01*
X003849Y019915D01*
X003840Y019968D01*
X003834Y020023D01*
X003832Y020077D01*
X003841Y020077D01*
X003843Y020023D01*
X003849Y019970D01*
X003858Y019917D01*
X003871Y019864D01*
X003887Y019813D01*
X003906Y019762D01*
X003929Y019714D01*
X003954Y019666D01*
X003983Y019621D01*
X004015Y019577D01*
X004050Y019536D01*
X004087Y019497D01*
X004127Y019461D01*
X004133Y019468D01*
X004093Y019504D01*
X004056Y019542D01*
X004022Y019583D01*
X003991Y019626D01*
X003962Y019671D01*
X003937Y019718D01*
X003914Y019766D01*
X003895Y019816D01*
X003879Y019867D01*
X003867Y019918D01*
X003858Y019971D01*
X003852Y020024D01*
X003850Y020077D01*
X003859Y020077D01*
X003861Y020024D01*
X003867Y019972D01*
X003876Y019920D01*
X003888Y019869D01*
X003904Y019819D01*
X003923Y019769D01*
X003945Y019722D01*
X003970Y019675D01*
X003998Y019631D01*
X004029Y019589D01*
X004063Y019548D01*
X004100Y019510D01*
X004138Y019475D01*
X004144Y019481D01*
X004106Y019517D01*
X004070Y019554D01*
X004036Y019594D01*
X004006Y019636D01*
X003978Y019680D01*
X003953Y019726D01*
X003931Y019773D01*
X003912Y019822D01*
X003897Y019871D01*
X003884Y019922D01*
X003876Y019973D01*
X003870Y020025D01*
X003868Y020077D01*
X003877Y020077D01*
X003879Y020021D01*
X003886Y019966D01*
X003896Y019911D01*
X003910Y019857D01*
X003928Y019804D01*
X003950Y019753D01*
X003975Y019703D01*
X004004Y019655D01*
X004036Y019610D01*
X004071Y019567D01*
X004109Y019526D01*
X004150Y019488D01*
X004156Y019495D01*
X004115Y019532D01*
X004078Y019573D01*
X004043Y019615D01*
X004011Y019660D01*
X003983Y019708D01*
X003958Y019757D01*
X003936Y019808D01*
X003919Y019860D01*
X003905Y019913D01*
X003895Y019967D01*
X003888Y020022D01*
X003886Y020077D01*
X003895Y020077D01*
X003897Y020023D01*
X003903Y019968D01*
X003913Y019915D01*
X003927Y019862D01*
X003945Y019811D01*
X003966Y019761D01*
X003991Y019712D01*
X004019Y019665D01*
X004050Y019621D01*
X004084Y019579D01*
X004122Y019539D01*
X004162Y019502D01*
X005203Y019437D02*
X005146Y019506D01*
X005146Y019505D02*
X005186Y019542D01*
X005224Y019581D01*
X005258Y019623D01*
X005290Y019667D01*
X005318Y019713D01*
X005343Y019762D01*
X005364Y019812D01*
X005382Y019863D01*
X005395Y019916D01*
X005405Y019969D01*
X005412Y020023D01*
X005414Y020077D01*
X005503Y020078D01*
X005504Y020077D01*
X005502Y020021D01*
X005496Y019965D01*
X005486Y019910D01*
X005473Y019855D01*
X005456Y019802D01*
X005436Y019749D01*
X005412Y019698D01*
X005385Y019649D01*
X005354Y019602D01*
X005321Y019557D01*
X005285Y019514D01*
X005246Y019474D01*
X005204Y019436D01*
X005198Y019443D01*
X005239Y019480D01*
X005278Y019520D01*
X005314Y019562D01*
X005347Y019607D01*
X005377Y019654D01*
X005404Y019702D01*
X005427Y019753D01*
X005448Y019805D01*
X005464Y019858D01*
X005477Y019912D01*
X005487Y019966D01*
X005493Y020021D01*
X005495Y020077D01*
X005486Y020077D01*
X005484Y020022D01*
X005478Y019967D01*
X005469Y019913D01*
X005456Y019860D01*
X005439Y019808D01*
X005419Y019756D01*
X005396Y019707D01*
X005369Y019658D01*
X005340Y019612D01*
X005307Y019568D01*
X005271Y019526D01*
X005233Y019487D01*
X005192Y019450D01*
X005187Y019457D01*
X005227Y019493D01*
X005265Y019532D01*
X005300Y019574D01*
X005332Y019617D01*
X005362Y019663D01*
X005388Y019711D01*
X005411Y019760D01*
X005431Y019810D01*
X005447Y019862D01*
X005460Y019915D01*
X005469Y019969D01*
X005475Y020023D01*
X005477Y020077D01*
X005468Y020077D01*
X005466Y020023D01*
X005460Y019970D01*
X005451Y019917D01*
X005438Y019865D01*
X005422Y019813D01*
X005403Y019763D01*
X005380Y019715D01*
X005354Y019668D01*
X005325Y019622D01*
X005293Y019579D01*
X005258Y019538D01*
X005221Y019500D01*
X005181Y019464D01*
X005175Y019471D01*
X005214Y019506D01*
X005251Y019544D01*
X005286Y019585D01*
X005317Y019628D01*
X005346Y019672D01*
X005372Y019719D01*
X005394Y019767D01*
X005414Y019816D01*
X005430Y019867D01*
X005442Y019919D01*
X005451Y019971D01*
X005457Y020024D01*
X005459Y020077D01*
X005450Y020077D01*
X005448Y020025D01*
X005442Y019972D01*
X005433Y019921D01*
X005421Y019870D01*
X005405Y019819D01*
X005386Y019770D01*
X005364Y019723D01*
X005338Y019677D01*
X005310Y019633D01*
X005279Y019591D01*
X005245Y019550D01*
X005208Y019513D01*
X005169Y019478D01*
X005163Y019484D01*
X005202Y019519D01*
X005238Y019557D01*
X005272Y019596D01*
X005303Y019638D01*
X005331Y019682D01*
X005356Y019727D01*
X005378Y019774D01*
X005397Y019822D01*
X005412Y019872D01*
X005425Y019922D01*
X005433Y019973D01*
X005439Y020025D01*
X005441Y020077D01*
X005432Y020077D01*
X005430Y020026D01*
X005425Y019975D01*
X005416Y019924D01*
X005404Y019874D01*
X005388Y019825D01*
X005370Y019778D01*
X005348Y019731D01*
X005323Y019686D01*
X005295Y019643D01*
X005265Y019602D01*
X005232Y019563D01*
X005196Y019526D01*
X005158Y019491D01*
X005152Y019498D01*
X005193Y019535D01*
X005231Y019575D01*
X005265Y019617D01*
X005297Y019662D01*
X005326Y019709D01*
X005351Y019758D01*
X005372Y019809D01*
X005390Y019860D01*
X005404Y019914D01*
X005414Y019968D01*
X005421Y020022D01*
X005423Y020077D01*
X005869Y021527D02*
X005944Y021527D01*
X005969Y021552D01*
X005969Y021652D01*
X005944Y021677D01*
X005869Y021677D01*
X005869Y021527D01*
X006017Y021527D02*
X006117Y021527D01*
X006067Y021527D02*
X006067Y021677D01*
X006017Y021627D01*
X014377Y006677D02*
X014377Y006527D01*
X014327Y006527D02*
X014428Y006527D01*
X014475Y006552D02*
X014575Y006652D01*
X014575Y006552D01*
X014550Y006527D01*
X014500Y006527D01*
X014475Y006552D01*
X014475Y006652D01*
X014500Y006677D01*
X014550Y006677D01*
X014575Y006652D01*
X014622Y006652D02*
X014647Y006677D01*
X014697Y006677D01*
X014722Y006652D01*
X014622Y006552D01*
X014647Y006527D01*
X014697Y006527D01*
X014722Y006552D01*
X014722Y006652D01*
X014769Y006627D02*
X014844Y006627D01*
X014869Y006602D01*
X014869Y006527D01*
X014917Y006527D02*
X014917Y006677D01*
X015017Y006677D01*
X014967Y006602D02*
X014917Y006602D01*
X014769Y006627D02*
X014769Y006527D01*
X014622Y006552D02*
X014622Y006652D01*
X014377Y006677D02*
X014327Y006627D01*
X022375Y004602D02*
X022400Y004627D01*
X022450Y004627D01*
X022475Y004602D01*
X022475Y004577D01*
X022375Y004477D01*
X022475Y004477D01*
X022522Y004477D02*
X022622Y004577D01*
X022622Y004602D01*
X022597Y004627D01*
X022547Y004627D01*
X022522Y004602D01*
X022522Y004477D02*
X022622Y004477D01*
X022669Y004477D02*
X022744Y004477D01*
X022769Y004502D01*
X022769Y004552D01*
X022744Y004577D01*
X022669Y004577D01*
X022669Y004427D01*
X022817Y004477D02*
X022817Y004627D01*
X022917Y004627D01*
X022867Y004552D02*
X022817Y004552D01*
X005580Y004137D02*
X005480Y004137D01*
X005480Y003987D01*
X005432Y003987D02*
X005432Y004087D01*
X005480Y004062D02*
X005530Y004062D01*
X005432Y003987D02*
X005357Y003987D01*
X005332Y004012D01*
X005332Y004087D01*
X005235Y004137D02*
X005235Y003987D01*
X005185Y003987D02*
X005285Y003987D01*
X005185Y004087D02*
X005235Y004137D01*
X005136Y004012D02*
X005136Y003987D01*
X005111Y003987D01*
X005111Y004012D01*
X005136Y004012D01*
X005064Y004012D02*
X005039Y003987D01*
X004989Y003987D01*
X004964Y004012D01*
X005064Y004112D01*
X005064Y004012D01*
X004964Y004012D02*
X004964Y004112D01*
X004989Y004137D01*
X005039Y004137D01*
X005064Y004112D01*
D18*
X005169Y019462D02*
X004969Y019462D01*
X004329Y019462D02*
X004149Y019462D01*
D19*
X003159Y004382D02*
X002809Y004382D01*
X003159Y004382D02*
X004109Y004382D01*
X004509Y004382D01*
X004859Y005182D02*
X004859Y005282D01*
X004959Y005282D01*
X004959Y005882D01*
X004859Y005882D01*
X004859Y005982D01*
X004509Y006782D02*
X004159Y006782D01*
X003159Y006782D01*
X002809Y006782D01*
X002459Y005982D02*
X002459Y005882D01*
X002359Y005882D01*
X002359Y005282D01*
X002459Y005282D01*
X002459Y005182D01*
X003559Y005582D02*
X003561Y005602D01*
X003567Y005620D01*
X003576Y005638D01*
X003588Y005653D01*
X003603Y005665D01*
X003621Y005674D01*
X003639Y005680D01*
X003659Y005682D01*
X003679Y005680D01*
X003697Y005674D01*
X003715Y005665D01*
X003730Y005653D01*
X003742Y005638D01*
X003751Y005620D01*
X003757Y005602D01*
X003759Y005582D01*
X003757Y005562D01*
X003751Y005544D01*
X003742Y005526D01*
X003730Y005511D01*
X003715Y005499D01*
X003697Y005490D01*
X003679Y005484D01*
X003659Y005482D01*
X003639Y005484D01*
X003621Y005490D01*
X003603Y005499D01*
X003588Y005511D01*
X003576Y005526D01*
X003567Y005544D01*
X003561Y005562D01*
X003559Y005582D01*
X002959Y005582D02*
X002961Y005634D01*
X002967Y005686D01*
X002977Y005738D01*
X002990Y005788D01*
X003007Y005838D01*
X003028Y005886D01*
X003053Y005932D01*
X003081Y005976D01*
X003112Y006018D01*
X003146Y006058D01*
X003183Y006095D01*
X003223Y006129D01*
X003265Y006160D01*
X003309Y006188D01*
X003355Y006213D01*
X003403Y006234D01*
X003453Y006251D01*
X003503Y006264D01*
X003555Y006274D01*
X003607Y006280D01*
X003659Y006282D01*
X003711Y006280D01*
X003763Y006274D01*
X003815Y006264D01*
X003865Y006251D01*
X003915Y006234D01*
X003963Y006213D01*
X004009Y006188D01*
X004053Y006160D01*
X004095Y006129D01*
X004135Y006095D01*
X004172Y006058D01*
X004206Y006018D01*
X004237Y005976D01*
X004265Y005932D01*
X004290Y005886D01*
X004311Y005838D01*
X004328Y005788D01*
X004341Y005738D01*
X004351Y005686D01*
X004357Y005634D01*
X004359Y005582D01*
X004357Y005530D01*
X004351Y005478D01*
X004341Y005426D01*
X004328Y005376D01*
X004311Y005326D01*
X004290Y005278D01*
X004265Y005232D01*
X004237Y005188D01*
X004206Y005146D01*
X004172Y005106D01*
X004135Y005069D01*
X004095Y005035D01*
X004053Y005004D01*
X004009Y004976D01*
X003963Y004951D01*
X003915Y004930D01*
X003865Y004913D01*
X003815Y004900D01*
X003763Y004890D01*
X003711Y004884D01*
X003659Y004882D01*
X003607Y004884D01*
X003555Y004890D01*
X003503Y004900D01*
X003453Y004913D01*
X003403Y004930D01*
X003355Y004951D01*
X003309Y004976D01*
X003265Y005004D01*
X003223Y005035D01*
X003183Y005069D01*
X003146Y005106D01*
X003112Y005146D01*
X003081Y005188D01*
X003053Y005232D01*
X003028Y005278D01*
X003007Y005326D01*
X002990Y005376D01*
X002977Y005426D01*
X002967Y005478D01*
X002961Y005530D01*
X002959Y005582D01*
X005502Y002803D02*
X005389Y002689D01*
X005502Y002803D02*
X005502Y002462D01*
X005389Y002462D02*
X005616Y002462D01*
X005757Y002519D02*
X005757Y002746D01*
X005814Y002803D01*
X005927Y002803D01*
X005984Y002746D01*
X005757Y002519D01*
X005814Y002462D01*
X005927Y002462D01*
X005984Y002519D01*
X005984Y002746D01*
X006126Y002803D02*
X006126Y002462D01*
X006126Y002576D02*
X006353Y002803D01*
X006182Y002632D02*
X006353Y002462D01*
X006689Y007112D02*
X006689Y007453D01*
X006859Y007453D01*
X006916Y007396D01*
X006916Y007282D01*
X006859Y007226D01*
X006689Y007226D01*
X007057Y007112D02*
X007171Y007112D01*
X007114Y007112D02*
X007114Y007453D01*
X007057Y007453D02*
X007171Y007453D01*
X007303Y007396D02*
X007303Y007169D01*
X007360Y007112D01*
X007473Y007112D01*
X007530Y007169D01*
X007530Y007396D01*
X007473Y007453D01*
X007360Y007453D01*
X007303Y007396D01*
X007359Y007482D02*
X021959Y007482D01*
X021959Y009682D01*
X007359Y009682D01*
X007359Y008832D01*
X007389Y008830D01*
X007419Y008825D01*
X007448Y008816D01*
X007475Y008803D01*
X007501Y008788D01*
X007525Y008769D01*
X007546Y008748D01*
X007565Y008724D01*
X007580Y008698D01*
X007593Y008671D01*
X007602Y008642D01*
X007607Y008612D01*
X007609Y008582D01*
X007607Y008552D01*
X007602Y008522D01*
X007593Y008493D01*
X007580Y008466D01*
X007565Y008440D01*
X007546Y008416D01*
X007525Y008395D01*
X007501Y008376D01*
X007475Y008361D01*
X007448Y008348D01*
X007419Y008339D01*
X007389Y008334D01*
X007359Y008332D01*
X007359Y007482D01*
X007671Y007282D02*
X007898Y007282D01*
X007841Y007112D02*
X007841Y007453D01*
X007671Y007282D01*
X007596Y008112D02*
X007482Y008112D01*
X007426Y008169D01*
X007482Y008282D02*
X007426Y008339D01*
X007426Y008396D01*
X007482Y008453D01*
X007596Y008453D01*
X007653Y008396D01*
X007596Y008282D02*
X007653Y008226D01*
X007653Y008169D01*
X007596Y008112D01*
X007596Y008282D02*
X007482Y008282D01*
X007284Y008453D02*
X007057Y008453D01*
X007171Y008453D02*
X007171Y008112D01*
X006916Y008112D02*
X006802Y008226D01*
X006859Y008226D02*
X006689Y008226D01*
X006689Y008112D02*
X006689Y008453D01*
X006859Y008453D01*
X006916Y008396D01*
X006916Y008282D01*
X006859Y008226D01*
X006916Y009112D02*
X006802Y009226D01*
X006859Y009226D02*
X006689Y009226D01*
X006689Y009112D02*
X006689Y009453D01*
X006859Y009453D01*
X006916Y009396D01*
X006916Y009282D01*
X006859Y009226D01*
X007057Y009112D02*
X007284Y009453D01*
X007426Y009282D02*
X007653Y009282D01*
X007794Y009112D02*
X007907Y009112D01*
X007851Y009112D02*
X007851Y009453D01*
X007907Y009453D02*
X007794Y009453D01*
X007284Y009112D02*
X007057Y009453D01*
X007057Y010112D02*
X007284Y010453D01*
X007426Y010282D02*
X007653Y010282D01*
X007794Y010169D02*
X007851Y010112D01*
X007964Y010112D01*
X008021Y010169D01*
X008021Y010396D01*
X007964Y010453D01*
X007851Y010453D01*
X007794Y010396D01*
X007794Y010169D01*
X007284Y010112D02*
X007057Y010453D01*
X006916Y010453D02*
X006689Y010453D01*
X006802Y010453D02*
X006802Y010112D01*
X006802Y011112D02*
X006689Y011226D01*
X006689Y011453D01*
X006916Y011453D02*
X006916Y011226D01*
X006802Y011112D01*
X007057Y011169D02*
X007057Y011396D01*
X007114Y011453D01*
X007227Y011453D01*
X007284Y011396D01*
X007426Y011396D02*
X007426Y011169D01*
X007482Y011112D01*
X007596Y011112D01*
X007653Y011169D01*
X007653Y011396D02*
X007596Y011453D01*
X007482Y011453D01*
X007426Y011396D01*
X007284Y011169D02*
X007227Y011112D01*
X007114Y011112D01*
X007057Y011169D01*
X007171Y012112D02*
X007171Y012453D01*
X007284Y012453D02*
X007057Y012453D01*
X006916Y012396D02*
X006859Y012453D01*
X006746Y012453D01*
X006689Y012396D01*
X006689Y012169D01*
X006746Y012112D01*
X006859Y012112D01*
X006916Y012169D01*
X007426Y012169D02*
X007482Y012112D01*
X007596Y012112D01*
X007653Y012169D01*
X007653Y012226D01*
X007596Y012282D01*
X007482Y012282D01*
X007426Y012339D01*
X007426Y012396D01*
X007482Y012453D01*
X007596Y012453D01*
X007653Y012396D01*
X007794Y012282D02*
X008021Y012282D01*
X008159Y012432D02*
X008159Y013182D01*
X008198Y013184D01*
X008237Y013190D01*
X008275Y013199D01*
X008312Y013212D01*
X008348Y013229D01*
X008381Y013249D01*
X008413Y013273D01*
X008442Y013299D01*
X008468Y013328D01*
X008492Y013360D01*
X008512Y013393D01*
X008529Y013429D01*
X008542Y013466D01*
X008551Y013504D01*
X008557Y013543D01*
X008559Y013582D01*
X008557Y013621D01*
X008551Y013660D01*
X008542Y013698D01*
X008529Y013735D01*
X008512Y013771D01*
X008492Y013804D01*
X008468Y013836D01*
X008442Y013865D01*
X008413Y013891D01*
X008381Y013915D01*
X008348Y013935D01*
X008312Y013952D01*
X008275Y013965D01*
X008237Y013974D01*
X008198Y013980D01*
X008159Y013982D01*
X008159Y014732D01*
X012159Y014732D01*
X012159Y012432D01*
X008159Y012432D01*
X008162Y012453D02*
X008276Y012453D01*
X008219Y012453D02*
X008219Y012112D01*
X008162Y012112D02*
X008276Y012112D01*
X007596Y013112D02*
X007653Y013169D01*
X007653Y013396D01*
X007596Y013453D01*
X007426Y013453D01*
X007426Y013112D01*
X007596Y013112D01*
X007284Y013112D02*
X007284Y013453D01*
X007057Y013453D02*
X007284Y013112D01*
X007057Y013112D02*
X007057Y013453D01*
X006916Y013396D02*
X006859Y013453D01*
X006746Y013453D01*
X006689Y013396D01*
X006689Y013169D01*
X006746Y013112D01*
X006859Y013112D01*
X006916Y013169D01*
X006916Y013282D01*
X006802Y013282D01*
X008219Y008453D02*
X008162Y008396D01*
X008162Y008169D01*
X008219Y008112D01*
X008332Y008112D01*
X008389Y008169D01*
X008389Y008396D01*
X008332Y008453D01*
X008219Y008453D01*
X008021Y008282D02*
X007794Y008282D01*
X013659Y012432D02*
X013659Y013182D01*
X013698Y013184D01*
X013737Y013190D01*
X013775Y013199D01*
X013812Y013212D01*
X013848Y013229D01*
X013881Y013249D01*
X013913Y013273D01*
X013942Y013299D01*
X013968Y013328D01*
X013992Y013360D01*
X014012Y013393D01*
X014029Y013429D01*
X014042Y013466D01*
X014051Y013504D01*
X014057Y013543D01*
X014059Y013582D01*
X014057Y013621D01*
X014051Y013660D01*
X014042Y013698D01*
X014029Y013735D01*
X014012Y013771D01*
X013992Y013804D01*
X013968Y013836D01*
X013942Y013865D01*
X013913Y013891D01*
X013881Y013915D01*
X013848Y013935D01*
X013812Y013952D01*
X013775Y013965D01*
X013737Y013974D01*
X013698Y013980D01*
X013659Y013982D01*
X013659Y014732D01*
X023659Y014732D01*
X023659Y012432D01*
X013659Y012432D01*
X016759Y023037D02*
X016759Y023195D01*
X017309Y023258D02*
X017309Y024907D01*
X016759Y024970D02*
X016759Y025128D01*
D20*
X004159Y006782D02*
X004159Y006682D01*
X003159Y006682D01*
X003159Y006782D01*
X003159Y004482D02*
X003159Y004382D01*
X003159Y004482D02*
X004109Y004482D01*
X004109Y004382D01*
M02*
