G75*
G70*
%OFA0B0*%
%FSLAX24Y24*%
%IPPOS*%
%LPD*%
%AMOC8*
5,1,8,0,0,1.08239X$1,22.5*
%
%ADD10C,0.0030*%
%ADD11C,0.0040*%
%ADD12C,0.0050*%
%ADD13R,0.4200X0.0300*%
%ADD14R,0.0750X0.0200*%
%ADD15R,0.0300X0.0200*%
%ADD16C,0.0080*%
%ADD17C,0.0010*%
%ADD18C,0.0100*%
%ADD19C,0.0060*%
%ADD20C,0.0020*%
D10*
X004324Y001307D02*
X004377Y001253D01*
X004591Y001253D01*
X004644Y001307D01*
X004644Y001413D01*
X004591Y001467D01*
X004484Y001467D01*
X004484Y001360D01*
X004377Y001467D02*
X004324Y001413D01*
X004324Y001307D01*
X004324Y001576D02*
X004324Y001736D01*
X004377Y001789D01*
X004484Y001789D01*
X004537Y001736D01*
X004537Y001576D01*
X004537Y001682D02*
X004644Y001789D01*
X004644Y001898D02*
X004324Y001898D01*
X004644Y002111D01*
X004324Y002111D01*
X004324Y001576D02*
X004644Y001576D01*
X006524Y001970D02*
X006524Y002340D01*
X006771Y002340D01*
X006892Y002340D02*
X007139Y002340D01*
X007261Y002340D02*
X007446Y002340D01*
X007508Y002279D01*
X007508Y002032D01*
X007446Y001970D01*
X007261Y001970D01*
X007261Y002340D01*
X007016Y002340D02*
X007016Y001970D01*
X006647Y002155D02*
X006524Y002155D01*
X007629Y001970D02*
X007752Y001970D01*
X007691Y001970D02*
X007691Y002340D01*
X007752Y002340D02*
X007629Y002340D01*
X009707Y001787D02*
X009707Y001573D01*
X009761Y001520D01*
X009867Y001520D01*
X009921Y001573D01*
X009921Y001680D01*
X009814Y001680D01*
X009921Y001787D02*
X009867Y001840D01*
X009761Y001840D01*
X009707Y001787D01*
X010029Y001840D02*
X010029Y001520D01*
X010243Y001520D02*
X010029Y001840D01*
X010243Y001840D02*
X010243Y001520D01*
X010352Y001520D02*
X010352Y001840D01*
X010512Y001840D01*
X010565Y001787D01*
X010565Y001573D01*
X010512Y001520D01*
X010352Y001520D01*
X010274Y002203D02*
X010487Y002203D01*
X010594Y002310D01*
X010487Y002417D01*
X010274Y002417D01*
X010327Y002526D02*
X010541Y002526D01*
X010594Y002579D01*
X010594Y002686D01*
X010541Y002739D01*
X010541Y002848D02*
X010327Y002848D01*
X010274Y002901D01*
X010274Y003008D01*
X010327Y003061D01*
X010541Y003061D02*
X010594Y003008D01*
X010594Y002901D01*
X010541Y002848D01*
X010327Y002739D02*
X010274Y002686D01*
X010274Y002579D01*
X010327Y002526D01*
X010294Y003970D02*
X010187Y003970D01*
X010240Y003970D02*
X010240Y004290D01*
X010187Y004290D02*
X010294Y004290D01*
X010402Y004237D02*
X010402Y004023D01*
X010455Y003970D01*
X010562Y003970D01*
X010615Y004023D01*
X010615Y004237D01*
X010562Y004290D01*
X010455Y004290D01*
X010402Y004237D01*
X010078Y004237D02*
X010078Y004023D01*
X010025Y003970D01*
X009865Y003970D01*
X009865Y004290D01*
X010025Y004290D01*
X010078Y004237D01*
X010930Y004270D02*
X010930Y004484D01*
X011036Y004590D01*
X011143Y004484D01*
X011143Y004270D01*
X011252Y004323D02*
X011305Y004270D01*
X011412Y004270D01*
X011465Y004323D01*
X011465Y004377D01*
X011412Y004430D01*
X011359Y004430D01*
X011412Y004430D02*
X011465Y004484D01*
X011465Y004537D01*
X011412Y004590D01*
X011305Y004590D01*
X011252Y004537D01*
X011143Y004430D02*
X010930Y004430D01*
X011930Y004430D02*
X012143Y004430D01*
X012143Y004484D02*
X012143Y004270D01*
X012252Y004270D02*
X012465Y004484D01*
X012465Y004537D01*
X012412Y004590D01*
X012305Y004590D01*
X012252Y004537D01*
X012143Y004484D02*
X012036Y004590D01*
X011930Y004484D01*
X011930Y004270D01*
X012252Y004270D02*
X012465Y004270D01*
X012930Y004270D02*
X012930Y004484D01*
X013036Y004590D01*
X013143Y004484D01*
X013143Y004270D01*
X013252Y004270D02*
X013465Y004270D01*
X013359Y004270D02*
X013359Y004590D01*
X013252Y004484D01*
X013143Y004430D02*
X012930Y004430D01*
X013930Y004430D02*
X014143Y004430D01*
X014143Y004484D02*
X014143Y004270D01*
X014252Y004323D02*
X014305Y004270D01*
X014412Y004270D01*
X014465Y004323D01*
X014465Y004537D01*
X014252Y004323D01*
X014252Y004537D01*
X014305Y004590D01*
X014412Y004590D01*
X014465Y004537D01*
X014143Y004484D02*
X014036Y004590D01*
X013930Y004484D01*
X013930Y004270D01*
X014880Y004270D02*
X015040Y004270D01*
X015093Y004323D01*
X015093Y004537D01*
X015040Y004590D01*
X014880Y004590D01*
X014880Y004270D01*
X015202Y004270D02*
X015415Y004484D01*
X015415Y004537D01*
X015362Y004590D01*
X015255Y004590D01*
X015202Y004537D01*
X015202Y004270D02*
X015415Y004270D01*
X015930Y004270D02*
X015930Y004590D01*
X016090Y004590D01*
X016143Y004537D01*
X016143Y004323D01*
X016090Y004270D01*
X015930Y004270D01*
X016252Y004323D02*
X016305Y004270D01*
X016412Y004270D01*
X016465Y004323D01*
X016465Y004377D01*
X016412Y004430D01*
X016359Y004430D01*
X016412Y004430D02*
X016465Y004484D01*
X016465Y004537D01*
X016412Y004590D01*
X016305Y004590D01*
X016252Y004537D01*
X016930Y004590D02*
X016930Y004270D01*
X017090Y004270D01*
X017143Y004323D01*
X017143Y004537D01*
X017090Y004590D01*
X016930Y004590D01*
X017252Y004430D02*
X017465Y004430D01*
X017412Y004270D02*
X017412Y004590D01*
X017252Y004430D01*
X017930Y004270D02*
X018090Y004270D01*
X018143Y004323D01*
X018143Y004537D01*
X018090Y004590D01*
X017930Y004590D01*
X017930Y004270D01*
X018252Y004323D02*
X018305Y004270D01*
X018412Y004270D01*
X018465Y004323D01*
X018465Y004430D01*
X018412Y004484D01*
X018359Y004484D01*
X018252Y004430D01*
X018252Y004590D01*
X018465Y004590D01*
X018930Y004590D02*
X018930Y004270D01*
X019090Y004270D01*
X019143Y004323D01*
X019143Y004537D01*
X019090Y004590D01*
X018930Y004590D01*
X019252Y004430D02*
X019412Y004430D01*
X019465Y004377D01*
X019465Y004323D01*
X019412Y004270D01*
X019305Y004270D01*
X019252Y004323D01*
X019252Y004430D01*
X019359Y004537D01*
X019465Y004590D01*
X020224Y004579D02*
X020286Y004640D01*
X020409Y004640D01*
X020471Y004579D01*
X020471Y004517D01*
X020409Y004455D01*
X020471Y004394D01*
X020471Y004332D01*
X020409Y004270D01*
X020286Y004270D01*
X020224Y004332D01*
X020347Y004455D02*
X020409Y004455D01*
X020592Y004394D02*
X020592Y004640D01*
X020592Y004394D02*
X020716Y004270D01*
X020839Y004394D01*
X020839Y004640D01*
X020961Y004579D02*
X021022Y004640D01*
X021146Y004640D01*
X021208Y004579D01*
X021208Y004517D01*
X021146Y004455D01*
X021208Y004394D01*
X021208Y004332D01*
X021146Y004270D01*
X021022Y004270D01*
X020961Y004332D01*
X021084Y004455D02*
X021146Y004455D01*
X023474Y006577D02*
X023794Y006577D01*
X023794Y006470D02*
X023794Y006684D01*
X023741Y006792D02*
X023794Y006846D01*
X023794Y006952D01*
X023741Y007006D01*
X023687Y007006D01*
X023634Y006952D01*
X023634Y006792D01*
X023741Y006792D01*
X023634Y006792D02*
X023527Y006899D01*
X023474Y007006D01*
X023474Y007115D02*
X023581Y007221D01*
X023474Y007328D01*
X023794Y007328D01*
X023794Y007437D02*
X023474Y007437D01*
X023634Y007437D02*
X023634Y007650D01*
X023581Y007759D02*
X023581Y007973D01*
X023794Y007759D01*
X023794Y007973D01*
X023794Y007650D02*
X023474Y007650D01*
X023474Y007115D02*
X023794Y007115D01*
X023474Y006577D02*
X023581Y006470D01*
X015486Y008055D02*
X015424Y007994D01*
X015239Y007994D01*
X015117Y007994D02*
X015117Y007932D01*
X015056Y007870D01*
X014932Y007870D01*
X014871Y007932D01*
X014749Y007932D02*
X014687Y007870D01*
X014564Y007870D01*
X014502Y007932D01*
X014381Y008055D02*
X014134Y008055D01*
X014319Y008240D01*
X014319Y007870D01*
X014012Y008055D02*
X013766Y008055D01*
X013951Y008240D01*
X013951Y007870D01*
X013644Y007932D02*
X013582Y007870D01*
X013459Y007870D01*
X013397Y007932D01*
X013276Y007932D02*
X013276Y008179D01*
X013029Y007932D01*
X013091Y007870D01*
X013214Y007870D01*
X013276Y007932D01*
X013459Y008055D02*
X013397Y008117D01*
X013397Y008179D01*
X013459Y008240D01*
X013582Y008240D01*
X013644Y008179D01*
X013582Y008055D02*
X013644Y007994D01*
X013644Y007932D01*
X013582Y008055D02*
X013459Y008055D01*
X013276Y008179D02*
X013214Y008240D01*
X013091Y008240D01*
X013029Y008179D01*
X013029Y007932D01*
X012908Y007932D02*
X012908Y008179D01*
X012846Y008240D01*
X012722Y008240D01*
X012661Y008179D01*
X012661Y008117D01*
X012722Y008055D01*
X012908Y008055D01*
X012908Y007932D02*
X012846Y007870D01*
X012722Y007870D01*
X012661Y007932D01*
X012416Y007870D02*
X012416Y008240D01*
X012539Y008240D02*
X012292Y008240D01*
X012171Y008117D02*
X012171Y007870D01*
X012171Y008055D02*
X011924Y008055D01*
X011924Y008117D02*
X011924Y007870D01*
X011924Y008117D02*
X012047Y008240D01*
X012171Y008117D01*
X014502Y008179D02*
X014564Y008240D01*
X014687Y008240D01*
X014749Y008179D01*
X014749Y008117D01*
X014687Y008055D01*
X014749Y007994D01*
X014749Y007932D01*
X014687Y008055D02*
X014626Y008055D01*
X014871Y008179D02*
X014932Y008240D01*
X015056Y008240D01*
X015117Y008179D01*
X015117Y008117D01*
X015056Y008055D01*
X015117Y007994D01*
X015056Y008055D02*
X014994Y008055D01*
X015239Y007870D02*
X015239Y008240D01*
X015424Y008240D01*
X015486Y008179D01*
X015486Y008055D01*
X015421Y012420D02*
X015208Y012420D01*
X015314Y012420D02*
X015314Y012740D01*
X015208Y012634D01*
X015099Y012740D02*
X014992Y012687D01*
X014885Y012580D01*
X015045Y012580D01*
X015099Y012527D01*
X015099Y012473D01*
X015045Y012420D01*
X014939Y012420D01*
X014885Y012473D01*
X014885Y012580D01*
X014777Y012420D02*
X014563Y012420D01*
X014670Y012420D02*
X014670Y012740D01*
X014563Y012634D01*
X014454Y012580D02*
X014241Y012580D01*
X014401Y012740D01*
X014401Y012420D01*
X014132Y012580D02*
X014132Y012687D01*
X014079Y012740D01*
X013919Y012740D01*
X013919Y012420D01*
X013919Y012527D02*
X014079Y012527D01*
X014132Y012580D01*
X013810Y012473D02*
X013756Y012420D01*
X013650Y012420D01*
X013596Y012473D01*
X013596Y012687D01*
X013650Y012740D01*
X013756Y012740D01*
X013810Y012687D01*
X013488Y012740D02*
X013488Y012420D01*
X013274Y012420D02*
X013274Y012740D01*
X013381Y012634D01*
X013488Y012740D01*
X015170Y015020D02*
X015277Y015020D01*
X015223Y015020D02*
X015223Y015340D01*
X015170Y015340D02*
X015277Y015340D01*
X015385Y015287D02*
X015438Y015340D01*
X015545Y015340D01*
X015598Y015287D01*
X015598Y015234D01*
X015385Y015020D01*
X015598Y015020D01*
X015707Y015073D02*
X015707Y015287D01*
X015761Y015340D01*
X015867Y015340D01*
X015921Y015287D01*
X015921Y015073D02*
X015867Y015020D01*
X015761Y015020D01*
X015707Y015073D01*
X016029Y014967D02*
X016243Y014967D01*
X016352Y015020D02*
X016352Y015234D01*
X016458Y015340D01*
X016565Y015234D01*
X016565Y015020D01*
X016565Y015180D02*
X016352Y015180D01*
X017670Y015020D02*
X017777Y015020D01*
X017723Y015020D02*
X017723Y015340D01*
X017670Y015340D02*
X017777Y015340D01*
X017885Y015287D02*
X017938Y015340D01*
X018045Y015340D01*
X018098Y015287D01*
X018098Y015234D01*
X017885Y015020D01*
X018098Y015020D01*
X018207Y015073D02*
X018207Y015287D01*
X018261Y015340D01*
X018367Y015340D01*
X018421Y015287D01*
X018421Y015073D02*
X018367Y015020D01*
X018261Y015020D01*
X018207Y015073D01*
X018529Y014967D02*
X018743Y014967D01*
X018852Y015020D02*
X019012Y015020D01*
X019065Y015073D01*
X019065Y015127D01*
X019012Y015180D01*
X018852Y015180D01*
X019012Y015180D02*
X019065Y015234D01*
X019065Y015287D01*
X019012Y015340D01*
X018852Y015340D01*
X018852Y015020D01*
X020170Y015020D02*
X020277Y015020D01*
X020223Y015020D02*
X020223Y015340D01*
X020170Y015340D02*
X020277Y015340D01*
X020385Y015287D02*
X020438Y015340D01*
X020545Y015340D01*
X020598Y015287D01*
X020598Y015234D01*
X020385Y015020D01*
X020598Y015020D01*
X020707Y015073D02*
X020707Y015287D01*
X020761Y015340D01*
X020867Y015340D01*
X020921Y015287D01*
X020921Y015073D02*
X020867Y015020D01*
X020761Y015020D01*
X020707Y015073D01*
X021029Y014967D02*
X021243Y014967D01*
X021352Y015073D02*
X021405Y015020D01*
X021512Y015020D01*
X021565Y015073D01*
X021352Y015073D02*
X021352Y015287D01*
X021405Y015340D01*
X021512Y015340D01*
X021565Y015287D01*
X022348Y015340D02*
X022455Y015340D01*
X022401Y015340D02*
X022401Y015020D01*
X022348Y015020D02*
X022455Y015020D01*
X022563Y015020D02*
X022776Y015234D01*
X022776Y015287D01*
X022723Y015340D01*
X022616Y015340D01*
X022563Y015287D01*
X022563Y015020D02*
X022776Y015020D01*
X022885Y015073D02*
X022938Y015020D01*
X023045Y015020D01*
X023098Y015073D01*
X023207Y014967D02*
X023421Y014967D01*
X023529Y015020D02*
X023743Y015340D01*
X023852Y015234D02*
X023958Y015340D01*
X023958Y015020D01*
X023852Y015020D02*
X024065Y015020D01*
X023743Y015020D02*
X023529Y015340D01*
X023098Y015287D02*
X023045Y015340D01*
X022938Y015340D01*
X022885Y015287D01*
X022885Y015073D01*
X018994Y021988D02*
X018674Y021988D01*
X018781Y022095D01*
X018674Y022202D01*
X018994Y022202D01*
X018994Y022311D02*
X018994Y022417D01*
X018994Y022364D02*
X018674Y022364D01*
X018674Y022311D02*
X018674Y022417D01*
X018727Y022526D02*
X018781Y022526D01*
X018834Y022579D01*
X018834Y022686D01*
X018887Y022739D01*
X018941Y022739D01*
X018994Y022686D01*
X018994Y022579D01*
X018941Y022526D01*
X018727Y022526D02*
X018674Y022579D01*
X018674Y022686D01*
X018727Y022739D01*
X018727Y022848D02*
X018941Y022848D01*
X018994Y022901D01*
X018994Y023008D01*
X018941Y023061D01*
X018727Y023061D01*
X018674Y023008D01*
X018674Y022901D01*
X018727Y022848D01*
X017994Y022793D02*
X017994Y022686D01*
X017941Y022633D01*
X017941Y022524D02*
X017727Y022524D01*
X017674Y022471D01*
X017674Y022364D01*
X017727Y022311D01*
X017941Y022311D01*
X017994Y022364D01*
X017994Y022471D01*
X017941Y022524D01*
X017781Y022633D02*
X017834Y022686D01*
X017834Y022793D01*
X017887Y022846D01*
X017941Y022846D01*
X017994Y022793D01*
X017994Y022955D02*
X017994Y023062D01*
X017994Y023009D02*
X017674Y023009D01*
X017674Y023062D02*
X017674Y022955D01*
X017727Y022846D02*
X017674Y022793D01*
X017674Y022686D01*
X017727Y022633D01*
X017781Y022633D01*
X017674Y022202D02*
X017994Y022202D01*
X017994Y021988D02*
X017674Y021988D01*
X017781Y022095D01*
X017674Y022202D01*
X016994Y022257D02*
X016941Y022203D01*
X016994Y022257D02*
X016994Y022363D01*
X016941Y022417D01*
X016887Y022417D01*
X016834Y022363D01*
X016834Y022257D01*
X016781Y022203D01*
X016727Y022203D01*
X016674Y022257D01*
X016674Y022363D01*
X016727Y022417D01*
X016727Y022526D02*
X016941Y022526D01*
X016994Y022579D01*
X016994Y022686D01*
X016941Y022739D01*
X016994Y022848D02*
X016674Y022848D01*
X016727Y022739D02*
X016674Y022686D01*
X016674Y022579D01*
X016727Y022526D01*
X016994Y022848D02*
X016994Y023061D01*
X015994Y023061D02*
X015781Y023061D01*
X015674Y022955D01*
X015781Y022848D01*
X015994Y022848D01*
X015941Y022739D02*
X015727Y022739D01*
X015674Y022686D01*
X015674Y022526D01*
X015994Y022526D01*
X015994Y022686D01*
X015941Y022739D01*
X015834Y022848D02*
X015834Y023061D01*
X015887Y022417D02*
X015834Y022363D01*
X015834Y022257D01*
X015781Y022203D01*
X015727Y022203D01*
X015674Y022257D01*
X015674Y022363D01*
X015727Y022417D01*
X015887Y022417D02*
X015941Y022417D01*
X015994Y022363D01*
X015994Y022257D01*
X015941Y022203D01*
X014065Y021087D02*
X014012Y021140D01*
X013905Y021140D01*
X013852Y021087D01*
X013852Y020873D01*
X013905Y020820D01*
X014012Y020820D01*
X014065Y020873D01*
X013743Y020873D02*
X013690Y020820D01*
X013583Y020820D01*
X013529Y020873D01*
X013529Y021087D01*
X013583Y021140D01*
X013690Y021140D01*
X013743Y021087D01*
X013421Y021140D02*
X013421Y020927D01*
X013314Y020820D01*
X013207Y020927D01*
X013207Y021140D01*
X013306Y020340D02*
X013092Y020020D01*
X013145Y019940D02*
X013038Y019940D01*
X012985Y019887D01*
X012985Y019673D01*
X013038Y019620D01*
X013145Y019620D01*
X013198Y019673D01*
X013307Y019673D02*
X013361Y019620D01*
X013467Y019620D01*
X013521Y019673D01*
X013629Y019620D02*
X013843Y019940D01*
X013952Y019887D02*
X014005Y019940D01*
X014112Y019940D01*
X014165Y019887D01*
X014165Y019834D01*
X013952Y019620D01*
X014165Y019620D01*
X014058Y020073D02*
X014058Y020287D01*
X013952Y020180D02*
X014165Y020180D01*
X013843Y020127D02*
X013843Y020340D01*
X013843Y020127D02*
X013736Y020020D01*
X013629Y020127D01*
X013629Y020340D01*
X013521Y020234D02*
X013415Y020340D01*
X013521Y020234D02*
X013521Y020127D01*
X013415Y020020D01*
X013467Y019940D02*
X013361Y019940D01*
X013307Y019887D01*
X013307Y019673D01*
X013198Y019887D02*
X013145Y019940D01*
X012984Y020020D02*
X012878Y020127D01*
X012878Y020234D01*
X012984Y020340D01*
X013092Y020340D02*
X013306Y020020D01*
X013467Y019940D02*
X013521Y019887D01*
X012876Y019940D02*
X012876Y019727D01*
X012769Y019620D01*
X012663Y019727D01*
X012663Y019940D01*
X013261Y019140D02*
X013207Y019087D01*
X013207Y018873D01*
X013261Y018820D01*
X013367Y018820D01*
X013421Y018873D01*
X013421Y018980D01*
X013314Y018980D01*
X013421Y019087D02*
X013367Y019140D01*
X013261Y019140D01*
X013529Y019140D02*
X013529Y018820D01*
X013743Y018820D02*
X013529Y019140D01*
X013743Y019140D02*
X013743Y018820D01*
X013852Y018820D02*
X014012Y018820D01*
X014065Y018873D01*
X014065Y019087D01*
X014012Y019140D01*
X013852Y019140D01*
X013852Y018820D01*
X013852Y018140D02*
X013852Y017820D01*
X014065Y017820D01*
X013743Y017873D02*
X013690Y017820D01*
X013583Y017820D01*
X013529Y017873D01*
X013529Y018087D01*
X013583Y018140D01*
X013690Y018140D01*
X013743Y018087D01*
X013421Y018087D02*
X013367Y018140D01*
X013261Y018140D01*
X013207Y018087D01*
X013207Y018034D01*
X013261Y017980D01*
X013367Y017980D01*
X013421Y017927D01*
X013421Y017873D01*
X013367Y017820D01*
X013261Y017820D01*
X013207Y017873D01*
X013261Y017140D02*
X013207Y017087D01*
X013207Y017034D01*
X013261Y016980D01*
X013367Y016980D01*
X013421Y016927D01*
X013421Y016873D01*
X013367Y016820D01*
X013261Y016820D01*
X013207Y016873D01*
X013261Y017140D02*
X013367Y017140D01*
X013421Y017087D01*
X013529Y017140D02*
X013690Y017140D01*
X013743Y017087D01*
X013743Y016873D01*
X013690Y016820D01*
X013529Y016820D01*
X013529Y017140D01*
X013852Y017034D02*
X013852Y016820D01*
X013852Y016980D02*
X014065Y016980D01*
X014065Y017034D02*
X014065Y016820D01*
X014065Y017034D02*
X013958Y017140D01*
X013852Y017034D01*
X013852Y016140D02*
X013852Y015820D01*
X014065Y015820D01*
X013958Y015980D02*
X013852Y015980D01*
X013852Y016140D02*
X014065Y016140D01*
X013743Y016140D02*
X013743Y015820D01*
X013529Y016140D01*
X013529Y015820D01*
X013421Y015820D02*
X013315Y015820D01*
X013368Y015820D02*
X013368Y016140D01*
X013315Y016140D02*
X013421Y016140D01*
X013206Y015820D02*
X012992Y015820D01*
X012992Y016140D01*
X009601Y012790D02*
X009662Y012729D01*
X009662Y012605D01*
X009601Y012544D01*
X009416Y012544D01*
X009416Y012420D02*
X009416Y012790D01*
X009601Y012790D01*
X009294Y012729D02*
X009232Y012790D01*
X009109Y012790D01*
X009047Y012729D01*
X008926Y012729D02*
X008679Y012482D01*
X008679Y012420D01*
X008558Y012482D02*
X008558Y012729D01*
X008311Y012482D01*
X008372Y012420D01*
X008496Y012420D01*
X008558Y012482D01*
X008558Y012729D02*
X008496Y012790D01*
X008372Y012790D01*
X008311Y012729D01*
X008311Y012482D01*
X008189Y012420D02*
X007942Y012420D01*
X007942Y012790D01*
X007821Y012790D02*
X007574Y012790D01*
X007697Y012790D02*
X007697Y012420D01*
X008679Y012790D02*
X008926Y012790D01*
X008926Y012729D01*
X009047Y012420D02*
X009294Y012667D01*
X009294Y012729D01*
X009294Y012420D02*
X009047Y012420D01*
X004644Y008229D02*
X004582Y008290D01*
X004459Y008290D01*
X004397Y008229D01*
X004397Y007982D01*
X004459Y007920D01*
X004582Y007920D01*
X004644Y007982D01*
X004644Y008229D01*
X004276Y008105D02*
X004029Y008105D01*
X003908Y008044D02*
X003846Y008105D01*
X003722Y008105D01*
X003661Y008167D01*
X003661Y008229D01*
X003722Y008290D01*
X003846Y008290D01*
X003908Y008229D01*
X003908Y008044D02*
X003908Y007982D01*
X003846Y007920D01*
X003722Y007920D01*
X003661Y007982D01*
X003416Y007920D02*
X003416Y008290D01*
X003539Y008290D02*
X003292Y008290D01*
X003171Y008229D02*
X003171Y008105D01*
X003109Y008044D01*
X002924Y008044D01*
X003047Y008044D02*
X003171Y007920D01*
X002924Y007920D02*
X002924Y008290D01*
X003109Y008290D01*
X003171Y008229D01*
X003171Y008920D02*
X003047Y009044D01*
X003109Y009044D02*
X002924Y009044D01*
X002924Y008920D02*
X002924Y009290D01*
X003109Y009290D01*
X003171Y009229D01*
X003171Y009105D01*
X003109Y009044D01*
X003292Y008920D02*
X003539Y009290D01*
X003661Y009105D02*
X003908Y009105D01*
X004029Y008920D02*
X004152Y008920D01*
X004091Y008920D02*
X004091Y009290D01*
X004152Y009290D02*
X004029Y009290D01*
X003539Y008920D02*
X003292Y009290D01*
X003292Y009920D02*
X003539Y010290D01*
X003661Y010105D02*
X003908Y010105D01*
X004029Y009982D02*
X004091Y009920D01*
X004214Y009920D01*
X004276Y009982D01*
X004276Y010229D01*
X004214Y010290D01*
X004091Y010290D01*
X004029Y010229D01*
X004029Y009982D01*
X003539Y009920D02*
X003292Y010290D01*
X003171Y010290D02*
X002924Y010290D01*
X003047Y010290D02*
X003047Y009920D01*
X003047Y010920D02*
X002924Y011044D01*
X002924Y011290D01*
X003171Y011290D02*
X003171Y011044D01*
X003047Y010920D01*
X003292Y010982D02*
X003292Y011229D01*
X003354Y011290D01*
X003478Y011290D01*
X003539Y011229D01*
X003661Y011229D02*
X003661Y010982D01*
X003722Y010920D01*
X003846Y010920D01*
X003908Y010982D01*
X003908Y011229D02*
X003846Y011290D01*
X003722Y011290D01*
X003661Y011229D01*
X003539Y010982D02*
X003478Y010920D01*
X003354Y010920D01*
X003292Y010982D01*
X003416Y011920D02*
X003416Y012290D01*
X003539Y012290D02*
X003292Y012290D01*
X003171Y012229D02*
X003109Y012290D01*
X002986Y012290D01*
X002924Y012229D01*
X002924Y011982D01*
X002986Y011920D01*
X003109Y011920D01*
X003171Y011982D01*
X003661Y011982D02*
X003722Y011920D01*
X003846Y011920D01*
X003908Y011982D01*
X003908Y012044D01*
X003846Y012105D01*
X003722Y012105D01*
X003661Y012167D01*
X003661Y012229D01*
X003722Y012290D01*
X003846Y012290D01*
X003908Y012229D01*
X004029Y012105D02*
X004276Y012105D01*
X004397Y011920D02*
X004521Y011920D01*
X004459Y011920D02*
X004459Y012290D01*
X004397Y012290D02*
X004521Y012290D01*
X003846Y012920D02*
X003661Y012920D01*
X003661Y013290D01*
X003846Y013290D01*
X003908Y013229D01*
X003908Y012982D01*
X003846Y012920D01*
X003539Y012920D02*
X003539Y013290D01*
X003292Y013290D02*
X003292Y012920D01*
X003171Y012982D02*
X003171Y013105D01*
X003047Y013105D01*
X002924Y012982D02*
X002924Y013229D01*
X002986Y013290D01*
X003109Y013290D01*
X003171Y013229D01*
X003292Y013290D02*
X003539Y012920D01*
X003171Y012982D02*
X003109Y012920D01*
X002986Y012920D01*
X002924Y012982D01*
X003877Y014570D02*
X003931Y014570D01*
X003984Y014623D01*
X003984Y014730D01*
X004037Y014784D01*
X004091Y014784D01*
X004144Y014730D01*
X004144Y014623D01*
X004091Y014570D01*
X003877Y014570D02*
X003824Y014623D01*
X003824Y014730D01*
X003877Y014784D01*
X003824Y014892D02*
X003824Y015052D01*
X003877Y015106D01*
X003984Y015106D01*
X004037Y015052D01*
X004037Y014892D01*
X004144Y014892D02*
X003824Y014892D01*
X003824Y015215D02*
X004144Y015215D01*
X004037Y015215D02*
X003824Y015428D01*
X003824Y015537D02*
X003824Y015697D01*
X003877Y015750D01*
X003984Y015750D01*
X004037Y015697D01*
X004037Y015537D01*
X004037Y015644D02*
X004144Y015750D01*
X004144Y015537D02*
X003824Y015537D01*
X003984Y015268D02*
X004144Y015428D01*
X004475Y017777D02*
X004688Y017777D01*
X004797Y017830D02*
X004797Y018150D01*
X004797Y017830D02*
X005011Y017830D01*
X005119Y017830D02*
X005119Y018150D01*
X005333Y018150D01*
X005442Y018150D02*
X005602Y018150D01*
X005655Y018097D01*
X005655Y017883D01*
X005602Y017830D01*
X005442Y017830D01*
X005442Y018150D01*
X005226Y017990D02*
X005119Y017990D01*
X005119Y017830D02*
X005333Y017830D01*
X004366Y017830D02*
X004259Y017937D01*
X004313Y017937D02*
X004153Y017937D01*
X004153Y017830D02*
X004153Y018150D01*
X004313Y018150D01*
X004366Y018097D01*
X004366Y017990D01*
X004313Y017937D01*
X004044Y017830D02*
X004044Y018150D01*
X003830Y018150D02*
X003830Y017830D01*
X003937Y017937D01*
X004044Y017830D01*
X003722Y017990D02*
X003668Y017937D01*
X003508Y017937D01*
X003508Y017830D02*
X003508Y018150D01*
X003668Y018150D01*
X003722Y018097D01*
X003722Y017990D01*
X003244Y018736D02*
X002924Y018736D01*
X002924Y018897D01*
X002977Y018950D01*
X003084Y018950D01*
X003137Y018897D01*
X003137Y018736D01*
X003244Y019059D02*
X002924Y019059D01*
X002924Y019272D02*
X003244Y019272D01*
X003137Y019165D01*
X003244Y019059D01*
X003244Y019381D02*
X002924Y019381D01*
X002924Y019541D01*
X002977Y019594D01*
X003084Y019594D01*
X003137Y019541D01*
X003137Y019381D01*
X003137Y019488D02*
X003244Y019594D01*
X003297Y019703D02*
X003297Y019917D01*
X003191Y020025D02*
X003244Y020079D01*
X003244Y020186D01*
X003191Y020239D01*
X003137Y020239D01*
X003084Y020186D01*
X003084Y020079D01*
X003031Y020025D01*
X002977Y020025D01*
X002924Y020079D01*
X002924Y020186D01*
X002977Y020239D01*
X002924Y020348D02*
X003244Y020348D01*
X003137Y020454D01*
X003244Y020561D01*
X002924Y020561D01*
X005530Y021427D02*
X005636Y021320D01*
X005743Y021427D01*
X005743Y021640D01*
X005852Y021480D02*
X006065Y021480D01*
X005959Y021587D02*
X005959Y021373D01*
X005530Y021427D02*
X005530Y021640D01*
X007707Y021640D02*
X007707Y021427D01*
X007814Y021320D01*
X007921Y021427D01*
X007921Y021640D01*
X008029Y021587D02*
X008029Y021373D01*
X008083Y021320D01*
X008190Y021320D01*
X008243Y021373D01*
X008352Y021373D02*
X008352Y021587D01*
X008405Y021640D01*
X008512Y021640D01*
X008565Y021587D01*
X008565Y021373D02*
X008512Y021320D01*
X008405Y021320D01*
X008352Y021373D01*
X008243Y021587D02*
X008190Y021640D01*
X008083Y021640D01*
X008029Y021587D01*
X010774Y023370D02*
X010988Y023370D01*
X011096Y023370D02*
X011096Y023690D01*
X011203Y023584D01*
X011310Y023690D01*
X011310Y023370D01*
X011419Y023370D02*
X011419Y023423D01*
X011632Y023637D01*
X011632Y023690D01*
X011419Y023690D01*
X011741Y023637D02*
X011741Y023584D01*
X011794Y023530D01*
X011901Y023530D01*
X011954Y023477D01*
X011954Y023423D01*
X011901Y023370D01*
X011794Y023370D01*
X011741Y023423D01*
X011741Y023477D01*
X011794Y023530D01*
X011901Y023530D02*
X011954Y023584D01*
X011954Y023637D01*
X011901Y023690D01*
X011794Y023690D01*
X011741Y023637D01*
X012063Y023637D02*
X012063Y023423D01*
X012277Y023637D01*
X012277Y023423D01*
X012223Y023370D01*
X012116Y023370D01*
X012063Y023423D01*
X012063Y023637D02*
X012116Y023690D01*
X012223Y023690D01*
X012277Y023637D01*
X012385Y023690D02*
X012385Y023530D01*
X012492Y023584D01*
X012545Y023584D01*
X012599Y023530D01*
X012599Y023423D01*
X012545Y023370D01*
X012439Y023370D01*
X012385Y023423D01*
X012385Y023690D02*
X012599Y023690D01*
X010774Y023690D02*
X010774Y023370D01*
X019674Y023061D02*
X019887Y022848D01*
X019834Y022901D02*
X019994Y023061D01*
X019994Y022848D02*
X019674Y022848D01*
X019727Y022739D02*
X019674Y022686D01*
X019674Y022579D01*
X019727Y022526D01*
X019941Y022526D01*
X019994Y022579D01*
X019994Y022686D01*
X019941Y022739D01*
X019941Y022417D02*
X019887Y022417D01*
X019834Y022363D01*
X019834Y022257D01*
X019781Y022203D01*
X019727Y022203D01*
X019674Y022257D01*
X019674Y022363D01*
X019727Y022417D01*
X019941Y022417D02*
X019994Y022363D01*
X019994Y022257D01*
X019941Y022203D01*
X004091Y007290D02*
X004091Y006920D01*
X004153Y007105D02*
X003906Y007105D01*
X004091Y007290D01*
X003785Y007229D02*
X003785Y006982D01*
X003723Y006920D01*
X003600Y006920D01*
X003538Y006982D01*
X003538Y007229D01*
X003600Y007290D01*
X003723Y007290D01*
X003785Y007229D01*
X003416Y007290D02*
X003292Y007290D01*
X003354Y007290D02*
X003354Y006920D01*
X003292Y006920D02*
X003416Y006920D01*
X003171Y007105D02*
X003109Y007044D01*
X002924Y007044D01*
X002924Y006920D02*
X002924Y007290D01*
X003109Y007290D01*
X003171Y007229D01*
X003171Y007105D01*
X001644Y005890D02*
X001644Y005730D01*
X001591Y005677D01*
X001484Y005677D01*
X001431Y005730D01*
X001431Y005890D01*
X001431Y005783D02*
X001324Y005677D01*
X001324Y005568D02*
X001324Y005354D01*
X001377Y005246D02*
X001324Y005192D01*
X001324Y005086D01*
X001377Y005032D01*
X001431Y005032D01*
X001484Y005086D01*
X001484Y005192D01*
X001538Y005246D01*
X001591Y005246D01*
X001644Y005192D01*
X001644Y005086D01*
X001591Y005032D01*
X001644Y004923D02*
X001324Y004923D01*
X001324Y004710D01*
X001484Y004817D02*
X001484Y004923D01*
X001644Y004923D02*
X001644Y004710D01*
X001644Y004601D02*
X001644Y004388D01*
X001644Y004494D02*
X001324Y004494D01*
X001644Y005354D02*
X001644Y005568D01*
X001324Y005568D01*
X001484Y005568D02*
X001484Y005461D01*
X001324Y005890D02*
X001644Y005890D01*
D11*
X007379Y014925D02*
X007379Y015385D01*
X007532Y015232D01*
X007686Y015385D01*
X007686Y014925D01*
X007839Y015002D02*
X007916Y015079D01*
X008146Y015079D01*
X008146Y015155D02*
X008146Y014925D01*
X007916Y014925D01*
X007839Y015002D01*
X007916Y015232D02*
X008070Y015232D01*
X008146Y015155D01*
X008300Y015079D02*
X008453Y015232D01*
X008530Y015232D01*
X008683Y015155D02*
X008683Y015002D01*
X008760Y014925D01*
X008990Y014925D01*
X009144Y014925D02*
X009144Y015385D01*
X009220Y015232D02*
X009374Y015232D01*
X009451Y015155D01*
X009451Y014925D01*
X009144Y015155D02*
X009220Y015232D01*
X008990Y015232D02*
X008760Y015232D01*
X008683Y015155D01*
X008300Y015232D02*
X008300Y014925D01*
X008230Y015725D02*
X008307Y015802D01*
X008307Y015955D01*
X008230Y016032D01*
X008076Y016032D01*
X008000Y015955D01*
X008000Y015802D01*
X008076Y015725D01*
X008230Y015725D01*
X008460Y015725D02*
X008460Y016032D01*
X008690Y016032D01*
X008767Y015955D01*
X008767Y015725D01*
X008920Y015725D02*
X009074Y015725D01*
X008997Y015725D02*
X008997Y016032D01*
X008920Y016032D01*
X008997Y016185D02*
X008997Y016262D01*
X009227Y015955D02*
X009227Y015802D01*
X009304Y015725D01*
X009534Y015725D01*
X009688Y015725D02*
X009688Y016185D01*
X009918Y016185D01*
X009995Y016109D01*
X009995Y016032D01*
X009918Y015955D01*
X009688Y015955D01*
X009534Y016032D02*
X009304Y016032D01*
X009227Y015955D01*
X009688Y015725D02*
X009918Y015725D01*
X009995Y015802D01*
X009995Y015879D01*
X009918Y015955D01*
X010148Y015955D02*
X010148Y015802D01*
X010225Y015725D01*
X010378Y015725D01*
X010455Y015802D01*
X010455Y015955D01*
X010378Y016032D01*
X010225Y016032D01*
X010148Y015955D01*
X010608Y016032D02*
X010762Y016032D01*
X010685Y016109D02*
X010685Y015802D01*
X010762Y015725D01*
X010755Y015385D02*
X010832Y015309D01*
X010525Y015002D01*
X010601Y014925D01*
X010755Y014925D01*
X010832Y015002D01*
X010832Y015309D01*
X010755Y015385D02*
X010601Y015385D01*
X010525Y015309D01*
X010525Y015002D01*
X010371Y014925D02*
X010064Y014925D01*
X010371Y015232D01*
X010371Y015309D01*
X010295Y015385D01*
X010141Y015385D01*
X010064Y015309D01*
X010985Y015309D02*
X010985Y015002D01*
X011292Y015309D01*
X011292Y015002D01*
X011215Y014925D01*
X011062Y014925D01*
X010985Y015002D01*
X010985Y015309D02*
X011062Y015385D01*
X011215Y015385D01*
X011292Y015309D01*
X011446Y015232D02*
X011599Y015385D01*
X011599Y014925D01*
X011446Y014925D02*
X011752Y014925D01*
X012366Y015155D02*
X012673Y015155D01*
X013287Y014925D02*
X013517Y014925D01*
X013594Y015002D01*
X013594Y015309D01*
X013517Y015385D01*
X013287Y015385D01*
X013287Y014925D01*
X013747Y015002D02*
X013824Y014925D01*
X013977Y014925D01*
X014054Y015002D01*
X014054Y015079D01*
X013977Y015155D01*
X013824Y015155D01*
X013747Y015232D01*
X013747Y015309D01*
X013824Y015385D01*
X013977Y015385D01*
X014054Y015309D01*
X012833Y015725D02*
X012527Y015725D01*
X012833Y016032D01*
X012833Y016109D01*
X012757Y016185D01*
X012603Y016185D01*
X012527Y016109D01*
X012373Y015802D02*
X012296Y015802D01*
X012296Y015725D01*
X012373Y015725D01*
X012373Y015802D01*
X012143Y015725D02*
X011836Y015725D01*
X011989Y015725D02*
X011989Y016185D01*
X011836Y016032D01*
X011683Y016032D02*
X011529Y015725D01*
X011376Y016032D01*
X007846Y015955D02*
X007846Y015725D01*
X007846Y015955D02*
X007770Y016032D01*
X007616Y016032D01*
X007539Y015955D01*
X007386Y015955D02*
X007309Y015879D01*
X007079Y015879D01*
X007079Y015725D02*
X007079Y016185D01*
X007309Y016185D01*
X007386Y016109D01*
X007386Y015955D01*
X007539Y016185D02*
X007539Y015725D01*
D12*
X003659Y015705D02*
X003659Y014705D01*
X003159Y014705D01*
X003159Y015705D01*
X003659Y015705D01*
X003659Y016205D01*
X001459Y016205D01*
X001459Y014205D01*
X003659Y014205D01*
X003659Y014705D01*
X009809Y021455D02*
X009709Y021555D01*
X009659Y022705D01*
X009789Y021695D02*
X009791Y021715D01*
X009797Y021733D01*
X009806Y021751D01*
X009818Y021766D01*
X009833Y021778D01*
X009851Y021787D01*
X009869Y021793D01*
X009889Y021795D01*
X009909Y021793D01*
X009927Y021787D01*
X009945Y021778D01*
X009960Y021766D01*
X009972Y021751D01*
X009981Y021733D01*
X009987Y021715D01*
X009989Y021695D01*
X009987Y021675D01*
X009981Y021657D01*
X009972Y021639D01*
X009960Y021624D01*
X009945Y021612D01*
X009927Y021603D01*
X009909Y021597D01*
X009889Y021595D01*
X009869Y021597D01*
X009851Y021603D01*
X009833Y021612D01*
X009818Y021624D01*
X009806Y021639D01*
X009797Y021657D01*
X009791Y021675D01*
X009789Y021695D01*
X009809Y021455D02*
X013509Y021455D01*
X013609Y021555D01*
X013659Y022705D01*
X014459Y021655D02*
X014459Y015655D01*
X016659Y015655D01*
X016659Y016155D01*
X016159Y016155D01*
X016159Y021155D01*
X016659Y021155D01*
X016659Y016155D01*
X016959Y015655D02*
X016959Y021655D01*
X019159Y021655D01*
X019159Y021155D01*
X018659Y021155D01*
X018659Y016155D01*
X019159Y016155D01*
X019159Y015655D01*
X016959Y015655D01*
X019159Y016155D02*
X019159Y021155D01*
X019459Y021655D02*
X019459Y015655D01*
X021659Y015655D01*
X021659Y016155D01*
X021159Y016155D01*
X021159Y021155D01*
X021659Y021155D01*
X021659Y016155D01*
X021959Y015655D02*
X021959Y021655D01*
X024159Y021655D01*
X024159Y021155D01*
X023659Y021155D01*
X023659Y016155D01*
X024159Y016155D01*
X024159Y015655D01*
X021959Y015655D01*
X024159Y016155D02*
X024159Y021155D01*
X021659Y021155D02*
X021659Y021655D01*
X019459Y021655D01*
X016659Y021655D02*
X016659Y021155D01*
X016659Y021655D02*
X014459Y021655D01*
X008659Y021955D02*
X006659Y021955D01*
X006659Y024155D01*
X007159Y024155D01*
X007159Y023655D01*
X008159Y023655D01*
X008159Y024155D01*
X008659Y024155D01*
X008659Y021955D01*
X008159Y024155D02*
X007159Y024155D01*
X006159Y024155D02*
X005659Y024155D01*
X005659Y023655D01*
X004659Y023655D01*
X004659Y024155D01*
X005659Y024155D01*
X006159Y024155D02*
X006159Y021955D01*
X004159Y021955D01*
X004159Y024155D01*
X004659Y024155D01*
D13*
X011659Y023005D03*
D14*
X009934Y022755D03*
X013384Y022755D03*
D15*
X012159Y022755D03*
X011159Y022755D03*
D16*
X010175Y019655D02*
X010177Y019717D01*
X010183Y019780D01*
X010193Y019841D01*
X010207Y019902D01*
X010224Y019962D01*
X010245Y020021D01*
X010271Y020078D01*
X010299Y020133D01*
X010331Y020187D01*
X010367Y020238D01*
X010405Y020288D01*
X010447Y020334D01*
X010491Y020378D01*
X010539Y020419D01*
X010588Y020457D01*
X010640Y020491D01*
X010694Y020522D01*
X010750Y020550D01*
X010808Y020574D01*
X010867Y020595D01*
X010927Y020611D01*
X010988Y020624D01*
X011050Y020633D01*
X011112Y020638D01*
X011175Y020639D01*
X011237Y020636D01*
X011299Y020629D01*
X011361Y020618D01*
X011421Y020603D01*
X011481Y020585D01*
X011539Y020563D01*
X011596Y020537D01*
X011651Y020507D01*
X011704Y020474D01*
X011755Y020438D01*
X011803Y020399D01*
X011849Y020356D01*
X011892Y020311D01*
X011932Y020263D01*
X011969Y020213D01*
X012003Y020160D01*
X012034Y020106D01*
X012060Y020050D01*
X012084Y019992D01*
X012103Y019932D01*
X012119Y019872D01*
X012131Y019810D01*
X012139Y019749D01*
X012143Y019686D01*
X012143Y019624D01*
X012139Y019561D01*
X012131Y019500D01*
X012119Y019438D01*
X012103Y019378D01*
X012084Y019318D01*
X012060Y019260D01*
X012034Y019204D01*
X012003Y019150D01*
X011969Y019097D01*
X011932Y019047D01*
X011892Y018999D01*
X011849Y018954D01*
X011803Y018911D01*
X011755Y018872D01*
X011704Y018836D01*
X011651Y018803D01*
X011596Y018773D01*
X011539Y018747D01*
X011481Y018725D01*
X011421Y018707D01*
X011361Y018692D01*
X011299Y018681D01*
X011237Y018674D01*
X011175Y018671D01*
X011112Y018672D01*
X011050Y018677D01*
X010988Y018686D01*
X010927Y018699D01*
X010867Y018715D01*
X010808Y018736D01*
X010750Y018760D01*
X010694Y018788D01*
X010640Y018819D01*
X010588Y018853D01*
X010539Y018891D01*
X010491Y018932D01*
X010447Y018976D01*
X010405Y019022D01*
X010367Y019072D01*
X010331Y019123D01*
X010299Y019177D01*
X010271Y019232D01*
X010245Y019289D01*
X010224Y019348D01*
X010207Y019408D01*
X010193Y019469D01*
X010183Y019530D01*
X010177Y019593D01*
X010175Y019655D01*
X011459Y019105D02*
X011859Y019105D01*
X012409Y018155D02*
X012909Y018155D01*
X010899Y017628D02*
X010899Y016683D01*
X008419Y016683D01*
X008419Y017628D01*
X010899Y017628D01*
X008359Y018605D02*
X007959Y018605D01*
X006675Y019155D02*
X006677Y019217D01*
X006683Y019280D01*
X006693Y019341D01*
X006707Y019402D01*
X006724Y019462D01*
X006745Y019521D01*
X006771Y019578D01*
X006799Y019633D01*
X006831Y019687D01*
X006867Y019738D01*
X006905Y019788D01*
X006947Y019834D01*
X006991Y019878D01*
X007039Y019919D01*
X007088Y019957D01*
X007140Y019991D01*
X007194Y020022D01*
X007250Y020050D01*
X007308Y020074D01*
X007367Y020095D01*
X007427Y020111D01*
X007488Y020124D01*
X007550Y020133D01*
X007612Y020138D01*
X007675Y020139D01*
X007737Y020136D01*
X007799Y020129D01*
X007861Y020118D01*
X007921Y020103D01*
X007981Y020085D01*
X008039Y020063D01*
X008096Y020037D01*
X008151Y020007D01*
X008204Y019974D01*
X008255Y019938D01*
X008303Y019899D01*
X008349Y019856D01*
X008392Y019811D01*
X008432Y019763D01*
X008469Y019713D01*
X008503Y019660D01*
X008534Y019606D01*
X008560Y019550D01*
X008584Y019492D01*
X008603Y019432D01*
X008619Y019372D01*
X008631Y019310D01*
X008639Y019249D01*
X008643Y019186D01*
X008643Y019124D01*
X008639Y019061D01*
X008631Y019000D01*
X008619Y018938D01*
X008603Y018878D01*
X008584Y018818D01*
X008560Y018760D01*
X008534Y018704D01*
X008503Y018650D01*
X008469Y018597D01*
X008432Y018547D01*
X008392Y018499D01*
X008349Y018454D01*
X008303Y018411D01*
X008255Y018372D01*
X008204Y018336D01*
X008151Y018303D01*
X008096Y018273D01*
X008039Y018247D01*
X007981Y018225D01*
X007921Y018207D01*
X007861Y018192D01*
X007799Y018181D01*
X007737Y018174D01*
X007675Y018171D01*
X007612Y018172D01*
X007550Y018177D01*
X007488Y018186D01*
X007427Y018199D01*
X007367Y018215D01*
X007308Y018236D01*
X007250Y018260D01*
X007194Y018288D01*
X007140Y018319D01*
X007088Y018353D01*
X007039Y018391D01*
X006991Y018432D01*
X006947Y018476D01*
X006905Y018522D01*
X006867Y018572D01*
X006831Y018623D01*
X006799Y018677D01*
X006771Y018732D01*
X006745Y018789D01*
X006724Y018848D01*
X006707Y018908D01*
X006693Y018969D01*
X006683Y019030D01*
X006677Y019093D01*
X006675Y019155D01*
X006659Y020355D02*
X006659Y020655D01*
X006759Y020655D01*
X006659Y020655D02*
X006659Y020955D01*
X004659Y020955D01*
X004659Y020655D01*
X004559Y020655D01*
X004659Y020655D02*
X004659Y020355D01*
X006659Y020355D01*
X004909Y020405D02*
X004909Y020905D01*
X002659Y020405D02*
X002659Y019905D01*
X002409Y019655D01*
X002659Y019405D01*
X002659Y018905D01*
X002409Y018655D01*
X001909Y018655D01*
X001659Y018905D01*
X001659Y019405D01*
X001909Y019655D01*
X001659Y019905D01*
X001659Y020405D01*
X001909Y020655D01*
X002409Y020655D01*
X002659Y020405D01*
X002919Y017628D02*
X005399Y017628D01*
X005399Y016683D01*
X002919Y016683D01*
X002919Y017628D01*
X004675Y015155D02*
X004677Y015217D01*
X004683Y015280D01*
X004693Y015341D01*
X004707Y015402D01*
X004724Y015462D01*
X004745Y015521D01*
X004771Y015578D01*
X004799Y015633D01*
X004831Y015687D01*
X004867Y015738D01*
X004905Y015788D01*
X004947Y015834D01*
X004991Y015878D01*
X005039Y015919D01*
X005088Y015957D01*
X005140Y015991D01*
X005194Y016022D01*
X005250Y016050D01*
X005308Y016074D01*
X005367Y016095D01*
X005427Y016111D01*
X005488Y016124D01*
X005550Y016133D01*
X005612Y016138D01*
X005675Y016139D01*
X005737Y016136D01*
X005799Y016129D01*
X005861Y016118D01*
X005921Y016103D01*
X005981Y016085D01*
X006039Y016063D01*
X006096Y016037D01*
X006151Y016007D01*
X006204Y015974D01*
X006255Y015938D01*
X006303Y015899D01*
X006349Y015856D01*
X006392Y015811D01*
X006432Y015763D01*
X006469Y015713D01*
X006503Y015660D01*
X006534Y015606D01*
X006560Y015550D01*
X006584Y015492D01*
X006603Y015432D01*
X006619Y015372D01*
X006631Y015310D01*
X006639Y015249D01*
X006643Y015186D01*
X006643Y015124D01*
X006639Y015061D01*
X006631Y015000D01*
X006619Y014938D01*
X006603Y014878D01*
X006584Y014818D01*
X006560Y014760D01*
X006534Y014704D01*
X006503Y014650D01*
X006469Y014597D01*
X006432Y014547D01*
X006392Y014499D01*
X006349Y014454D01*
X006303Y014411D01*
X006255Y014372D01*
X006204Y014336D01*
X006151Y014303D01*
X006096Y014273D01*
X006039Y014247D01*
X005981Y014225D01*
X005921Y014207D01*
X005861Y014192D01*
X005799Y014181D01*
X005737Y014174D01*
X005675Y014171D01*
X005612Y014172D01*
X005550Y014177D01*
X005488Y014186D01*
X005427Y014199D01*
X005367Y014215D01*
X005308Y014236D01*
X005250Y014260D01*
X005194Y014288D01*
X005140Y014319D01*
X005088Y014353D01*
X005039Y014391D01*
X004991Y014432D01*
X004947Y014476D01*
X004905Y014522D01*
X004867Y014572D01*
X004831Y014623D01*
X004799Y014677D01*
X004771Y014732D01*
X004745Y014789D01*
X004724Y014848D01*
X004707Y014908D01*
X004693Y014969D01*
X004683Y015030D01*
X004677Y015093D01*
X004675Y015155D01*
X005959Y014605D02*
X006359Y014605D01*
X006409Y012655D02*
X005909Y012655D01*
X005909Y008155D02*
X005409Y008155D01*
X006659Y005455D02*
X006659Y005155D01*
X006559Y005155D01*
X006659Y005155D02*
X006659Y004855D01*
X008659Y004855D01*
X008659Y005155D01*
X008759Y005155D01*
X008659Y005155D02*
X008659Y005455D01*
X006659Y005455D01*
X006409Y003655D02*
X006909Y003655D01*
X007159Y003405D01*
X007409Y003655D01*
X007909Y003655D01*
X008159Y003405D01*
X008409Y003655D01*
X008909Y003655D01*
X009159Y003405D01*
X009409Y003655D01*
X009909Y003655D01*
X010159Y003405D01*
X010159Y002905D01*
X009909Y002655D01*
X009409Y002655D01*
X009159Y002905D01*
X008909Y002655D01*
X008409Y002655D01*
X008159Y002905D01*
X007909Y002655D01*
X007409Y002655D01*
X007159Y002905D01*
X006909Y002655D01*
X006409Y002655D01*
X006159Y002905D01*
X005909Y002655D01*
X005409Y002655D01*
X005159Y002905D01*
X004909Y002655D01*
X004409Y002655D01*
X004159Y002905D01*
X004159Y003405D01*
X004409Y003655D01*
X004909Y003655D01*
X005159Y003405D01*
X005409Y003655D01*
X005909Y003655D01*
X006159Y003405D01*
X006409Y003655D01*
X010659Y003405D02*
X010659Y003905D01*
X010909Y004155D01*
X011409Y004155D01*
X011659Y003905D01*
X011909Y004155D01*
X012409Y004155D01*
X012659Y003905D01*
X012909Y004155D01*
X013409Y004155D01*
X013659Y003905D01*
X013909Y004155D01*
X014409Y004155D01*
X014659Y003905D01*
X014909Y004155D01*
X015409Y004155D01*
X015659Y003905D01*
X015909Y004155D01*
X016409Y004155D01*
X016659Y003905D01*
X016909Y004155D01*
X017409Y004155D01*
X017659Y003905D01*
X017909Y004155D01*
X018409Y004155D01*
X018659Y003905D01*
X018909Y004155D01*
X019409Y004155D01*
X019659Y003905D01*
X019659Y003405D01*
X019409Y003155D01*
X019659Y002905D01*
X019659Y002405D01*
X019409Y002155D01*
X018909Y002155D01*
X018659Y002405D01*
X018409Y002155D01*
X017909Y002155D01*
X017659Y002405D01*
X017409Y002155D01*
X016909Y002155D01*
X016659Y002405D01*
X016409Y002155D01*
X015909Y002155D01*
X015659Y002405D01*
X015409Y002155D01*
X014909Y002155D01*
X014659Y002405D01*
X014409Y002155D01*
X013909Y002155D01*
X013659Y002405D01*
X013409Y002155D01*
X012909Y002155D01*
X012659Y002405D01*
X012409Y002155D01*
X011909Y002155D01*
X011659Y002405D01*
X011409Y002155D01*
X010909Y002155D01*
X010659Y002405D01*
X010659Y002905D01*
X010909Y003155D01*
X011409Y003155D01*
X011659Y002905D01*
X011909Y003155D01*
X012409Y003155D01*
X012659Y002905D01*
X012909Y003155D01*
X013409Y003155D01*
X013659Y002905D01*
X013909Y003155D01*
X014409Y003155D01*
X014659Y002905D01*
X014909Y003155D01*
X015409Y003155D01*
X015659Y002905D01*
X015909Y003155D01*
X016409Y003155D01*
X016659Y002905D01*
X016909Y003155D01*
X017409Y003155D01*
X017659Y002905D01*
X017909Y003155D01*
X018409Y003155D01*
X018659Y002905D01*
X018909Y003155D01*
X019409Y003155D01*
X018909Y003155D01*
X018659Y003405D01*
X018409Y003155D01*
X017909Y003155D01*
X017659Y003405D01*
X017409Y003155D01*
X016909Y003155D01*
X016659Y003405D01*
X016409Y003155D01*
X015909Y003155D01*
X015659Y003405D01*
X015409Y003155D01*
X014909Y003155D01*
X014659Y003405D01*
X014659Y003905D01*
X014659Y003405D01*
X014409Y003155D01*
X013909Y003155D01*
X013659Y003405D01*
X013409Y003155D01*
X012909Y003155D01*
X012659Y003405D01*
X012409Y003155D01*
X011909Y003155D01*
X011659Y003405D01*
X011409Y003155D01*
X010909Y003155D01*
X010659Y003405D01*
X010909Y002155D02*
X010659Y001905D01*
X010659Y001405D01*
X010909Y001155D01*
X011409Y001155D01*
X011659Y001405D01*
X011909Y001155D01*
X012409Y001155D01*
X012659Y001405D01*
X012909Y001155D01*
X013409Y001155D01*
X013659Y001405D01*
X013909Y001155D01*
X014409Y001155D01*
X014659Y001405D01*
X014909Y001155D01*
X015409Y001155D01*
X015659Y001405D01*
X015909Y001155D01*
X016409Y001155D01*
X016659Y001405D01*
X016909Y001155D01*
X017409Y001155D01*
X017659Y001405D01*
X017909Y001155D01*
X018409Y001155D01*
X018659Y001405D01*
X018909Y001155D01*
X019409Y001155D01*
X019659Y001405D01*
X019659Y001905D01*
X019409Y002155D01*
X018909Y002155D01*
X018659Y001905D01*
X018409Y002155D01*
X017909Y002155D01*
X017659Y001905D01*
X017409Y002155D01*
X016909Y002155D01*
X016659Y001905D01*
X016409Y002155D01*
X015909Y002155D01*
X015659Y001905D01*
X015409Y002155D01*
X014909Y002155D01*
X014659Y001905D01*
X014409Y002155D01*
X013909Y002155D01*
X013659Y001905D01*
X013409Y002155D01*
X012909Y002155D01*
X012659Y001905D01*
X012409Y002155D01*
X011909Y002155D01*
X011659Y001905D01*
X011409Y002155D01*
X010909Y002155D01*
X014159Y005405D02*
X014159Y005905D01*
X017159Y011555D02*
X017159Y011655D01*
X016859Y011655D01*
X016859Y013655D01*
X017159Y013655D01*
X017159Y013755D01*
X017159Y013655D02*
X017459Y013655D01*
X017459Y011655D01*
X017159Y011655D01*
X020959Y014205D02*
X021359Y014205D01*
X020675Y013655D02*
X020677Y013717D01*
X020683Y013780D01*
X020693Y013841D01*
X020707Y013902D01*
X020724Y013962D01*
X020745Y014021D01*
X020771Y014078D01*
X020799Y014133D01*
X020831Y014187D01*
X020867Y014238D01*
X020905Y014288D01*
X020947Y014334D01*
X020991Y014378D01*
X021039Y014419D01*
X021088Y014457D01*
X021140Y014491D01*
X021194Y014522D01*
X021250Y014550D01*
X021308Y014574D01*
X021367Y014595D01*
X021427Y014611D01*
X021488Y014624D01*
X021550Y014633D01*
X021612Y014638D01*
X021675Y014639D01*
X021737Y014636D01*
X021799Y014629D01*
X021861Y014618D01*
X021921Y014603D01*
X021981Y014585D01*
X022039Y014563D01*
X022096Y014537D01*
X022151Y014507D01*
X022204Y014474D01*
X022255Y014438D01*
X022303Y014399D01*
X022349Y014356D01*
X022392Y014311D01*
X022432Y014263D01*
X022469Y014213D01*
X022503Y014160D01*
X022534Y014106D01*
X022560Y014050D01*
X022584Y013992D01*
X022603Y013932D01*
X022619Y013872D01*
X022631Y013810D01*
X022639Y013749D01*
X022643Y013686D01*
X022643Y013624D01*
X022639Y013561D01*
X022631Y013500D01*
X022619Y013438D01*
X022603Y013378D01*
X022584Y013318D01*
X022560Y013260D01*
X022534Y013204D01*
X022503Y013150D01*
X022469Y013097D01*
X022432Y013047D01*
X022392Y012999D01*
X022349Y012954D01*
X022303Y012911D01*
X022255Y012872D01*
X022204Y012836D01*
X022151Y012803D01*
X022096Y012773D01*
X022039Y012747D01*
X021981Y012725D01*
X021921Y012707D01*
X021861Y012692D01*
X021799Y012681D01*
X021737Y012674D01*
X021675Y012671D01*
X021612Y012672D01*
X021550Y012677D01*
X021488Y012686D01*
X021427Y012699D01*
X021367Y012715D01*
X021308Y012736D01*
X021250Y012760D01*
X021194Y012788D01*
X021140Y012819D01*
X021088Y012853D01*
X021039Y012891D01*
X020991Y012932D01*
X020947Y012976D01*
X020905Y013022D01*
X020867Y013072D01*
X020831Y013123D01*
X020799Y013177D01*
X020771Y013232D01*
X020745Y013289D01*
X020724Y013348D01*
X020707Y013408D01*
X020693Y013469D01*
X020683Y013530D01*
X020677Y013593D01*
X020675Y013655D01*
X021659Y011905D02*
X021659Y011405D01*
X021659Y010905D02*
X021659Y010405D01*
X023159Y010405D02*
X023159Y009905D01*
X023409Y009655D01*
X023909Y009655D01*
X024159Y009905D01*
X024159Y010405D01*
X023909Y010655D01*
X024159Y010905D01*
X024159Y011405D01*
X023909Y011655D01*
X024159Y011905D01*
X024159Y012405D01*
X023909Y012655D01*
X024159Y012905D01*
X024159Y013405D01*
X023909Y013655D01*
X023409Y013655D01*
X023159Y013405D01*
X023159Y012905D01*
X023409Y012655D01*
X023159Y012405D01*
X023159Y011905D01*
X023409Y011655D01*
X023159Y011405D01*
X023159Y010905D01*
X023409Y010655D01*
X023159Y010405D01*
X024059Y008505D02*
X024057Y008564D01*
X024051Y008622D01*
X024042Y008681D01*
X024028Y008738D01*
X024011Y008794D01*
X023990Y008849D01*
X023966Y008903D01*
X023938Y008955D01*
X023907Y009005D01*
X023873Y009053D01*
X023836Y009098D01*
X023795Y009141D01*
X023752Y009182D01*
X023707Y009219D01*
X023659Y009253D01*
X023609Y009284D01*
X023557Y009312D01*
X023503Y009336D01*
X023448Y009357D01*
X023392Y009374D01*
X023335Y009388D01*
X023276Y009397D01*
X023218Y009403D01*
X023159Y009405D01*
X023100Y009403D01*
X023042Y009397D01*
X022983Y009388D01*
X022926Y009374D01*
X022870Y009357D01*
X022815Y009336D01*
X022761Y009312D01*
X022709Y009284D01*
X022659Y009253D01*
X022611Y009219D01*
X022566Y009182D01*
X022523Y009141D01*
X022482Y009098D01*
X022445Y009053D01*
X022411Y009005D01*
X022380Y008955D01*
X022352Y008903D01*
X022328Y008849D01*
X022307Y008794D01*
X022290Y008738D01*
X022276Y008681D01*
X022267Y008622D01*
X022261Y008564D01*
X022259Y008505D01*
X022259Y005805D01*
X022261Y005746D01*
X022267Y005688D01*
X022276Y005629D01*
X022290Y005572D01*
X022307Y005516D01*
X022328Y005461D01*
X022352Y005407D01*
X022380Y005355D01*
X022411Y005305D01*
X022445Y005257D01*
X022482Y005212D01*
X022523Y005169D01*
X022566Y005128D01*
X022611Y005091D01*
X022659Y005057D01*
X022709Y005026D01*
X022761Y004998D01*
X022815Y004974D01*
X022870Y004953D01*
X022926Y004936D01*
X022983Y004922D01*
X023042Y004913D01*
X023100Y004907D01*
X023159Y004905D01*
X023218Y004907D01*
X023276Y004913D01*
X023335Y004922D01*
X023392Y004936D01*
X023448Y004953D01*
X023503Y004974D01*
X023557Y004998D01*
X023609Y005026D01*
X023659Y005057D01*
X023707Y005091D01*
X023752Y005128D01*
X023795Y005169D01*
X023836Y005212D01*
X023873Y005257D01*
X023907Y005305D01*
X023938Y005355D01*
X023966Y005407D01*
X023990Y005461D01*
X024011Y005516D01*
X024028Y005572D01*
X024042Y005629D01*
X024051Y005688D01*
X024057Y005746D01*
X024059Y005805D01*
X024059Y008505D01*
X022659Y004405D02*
X022659Y003905D01*
X021159Y003905D02*
X021159Y003405D01*
X020909Y003155D01*
X021159Y002905D01*
X021159Y002405D01*
X020909Y002155D01*
X021159Y001905D01*
X021159Y001405D01*
X020909Y001155D01*
X020409Y001155D01*
X020159Y001405D01*
X020159Y001905D01*
X020409Y002155D01*
X020159Y002405D01*
X020159Y002905D01*
X020409Y003155D01*
X020159Y003405D01*
X020159Y003905D01*
X020409Y004155D01*
X020909Y004155D01*
X021159Y003905D01*
X011909Y012655D02*
X011409Y012655D01*
X015409Y023155D02*
X015909Y023155D01*
X016159Y023405D01*
X016409Y023155D01*
X016909Y023155D01*
X017159Y023405D01*
X017409Y023155D01*
X017909Y023155D01*
X018159Y023405D01*
X018409Y023155D01*
X018909Y023155D01*
X019159Y023405D01*
X019409Y023155D01*
X019909Y023155D01*
X020159Y023405D01*
X020159Y023905D01*
X019909Y024155D01*
X019409Y024155D01*
X019159Y023905D01*
X018909Y024155D01*
X018409Y024155D01*
X018159Y023905D01*
X017909Y024155D01*
X017409Y024155D01*
X017159Y023905D01*
X016909Y024155D01*
X016409Y024155D01*
X016159Y023905D01*
X015909Y024155D01*
X015409Y024155D01*
X015159Y023905D01*
X015159Y023405D01*
X015409Y023155D01*
D17*
X020320Y014002D02*
X020289Y013963D01*
X020290Y013963D02*
X020240Y014000D01*
X020188Y014033D01*
X020134Y014063D01*
X020078Y014090D01*
X020021Y014114D01*
X019963Y014134D01*
X019903Y014150D01*
X019843Y014163D01*
X019782Y014173D01*
X019720Y014178D01*
X019658Y014180D01*
X019597Y014178D01*
X019535Y014172D01*
X019474Y014163D01*
X019414Y014150D01*
X019354Y014134D01*
X019296Y014113D01*
X019239Y014090D01*
X019183Y014063D01*
X019129Y014032D01*
X019077Y013999D01*
X019028Y013962D01*
X018980Y013923D01*
X018935Y013881D01*
X018893Y013836D01*
X018853Y013788D01*
X018816Y013738D01*
X018783Y013687D01*
X018752Y013633D01*
X018725Y013577D01*
X018701Y013520D01*
X018681Y013462D01*
X018634Y013476D01*
X018633Y013477D01*
X018655Y013538D01*
X018679Y013598D01*
X018708Y013656D01*
X018740Y013712D01*
X018775Y013767D01*
X018814Y013819D01*
X018855Y013869D01*
X018900Y013916D01*
X018947Y013960D01*
X018997Y014002D01*
X019049Y014040D01*
X019103Y014075D01*
X019160Y014107D01*
X019218Y014135D01*
X019278Y014160D01*
X019339Y014181D01*
X019402Y014199D01*
X019465Y014212D01*
X019529Y014222D01*
X019594Y014228D01*
X019658Y014230D01*
X019723Y014228D01*
X019788Y014222D01*
X019852Y014213D01*
X019915Y014199D01*
X019978Y014182D01*
X020039Y014161D01*
X020099Y014136D01*
X020157Y014108D01*
X020214Y014076D01*
X020268Y014041D01*
X020321Y014002D01*
X020315Y013995D01*
X020263Y014033D01*
X020209Y014068D01*
X020153Y014100D01*
X020095Y014128D01*
X020036Y014152D01*
X019975Y014173D01*
X019913Y014190D01*
X019850Y014204D01*
X019787Y014213D01*
X019723Y014219D01*
X019658Y014221D01*
X019594Y014219D01*
X019530Y014213D01*
X019467Y014204D01*
X019404Y014190D01*
X019342Y014173D01*
X019281Y014152D01*
X019222Y014127D01*
X019164Y014099D01*
X019108Y014068D01*
X019054Y014033D01*
X019002Y013995D01*
X018953Y013954D01*
X018906Y013910D01*
X018862Y013863D01*
X018821Y013813D01*
X018783Y013762D01*
X018748Y013708D01*
X018716Y013652D01*
X018688Y013594D01*
X018663Y013535D01*
X018642Y013474D01*
X018650Y013471D01*
X018671Y013532D01*
X018696Y013590D01*
X018724Y013648D01*
X018755Y013703D01*
X018790Y013757D01*
X018828Y013808D01*
X018869Y013857D01*
X018912Y013903D01*
X018959Y013947D01*
X019008Y013988D01*
X019059Y014025D01*
X019113Y014060D01*
X019168Y014091D01*
X019225Y014119D01*
X019284Y014143D01*
X019345Y014164D01*
X019406Y014181D01*
X019468Y014195D01*
X019531Y014204D01*
X019595Y014210D01*
X019658Y014212D01*
X019722Y014210D01*
X019786Y014204D01*
X019849Y014195D01*
X019911Y014182D01*
X019972Y014164D01*
X020033Y014144D01*
X020092Y014119D01*
X020149Y014092D01*
X020204Y014060D01*
X020258Y014026D01*
X020309Y013988D01*
X020304Y013981D01*
X020253Y014018D01*
X020200Y014053D01*
X020145Y014084D01*
X020088Y014111D01*
X020029Y014135D01*
X019970Y014156D01*
X019909Y014173D01*
X019847Y014186D01*
X019785Y014195D01*
X019722Y014201D01*
X019658Y014203D01*
X019595Y014201D01*
X019532Y014195D01*
X019470Y014186D01*
X019408Y014173D01*
X019347Y014156D01*
X019288Y014135D01*
X019229Y014111D01*
X019172Y014083D01*
X019117Y014052D01*
X019064Y014018D01*
X019013Y013980D01*
X018965Y013940D01*
X018919Y013897D01*
X018875Y013851D01*
X018835Y013802D01*
X018797Y013752D01*
X018763Y013699D01*
X018732Y013644D01*
X018704Y013587D01*
X018680Y013528D01*
X018659Y013469D01*
X018668Y013466D01*
X018688Y013525D01*
X018712Y013583D01*
X018740Y013639D01*
X018771Y013694D01*
X018805Y013746D01*
X018842Y013797D01*
X018882Y013845D01*
X018925Y013890D01*
X018971Y013933D01*
X019019Y013973D01*
X019069Y014010D01*
X019122Y014044D01*
X019177Y014075D01*
X019233Y014103D01*
X019291Y014127D01*
X019350Y014147D01*
X019410Y014164D01*
X019472Y014177D01*
X019533Y014186D01*
X019596Y014192D01*
X019658Y014194D01*
X019721Y014192D01*
X019783Y014187D01*
X019845Y014177D01*
X019907Y014164D01*
X019967Y014147D01*
X020026Y014127D01*
X020084Y014103D01*
X020140Y014076D01*
X020195Y014045D01*
X020248Y014011D01*
X020298Y013974D01*
X020293Y013967D01*
X020243Y014004D01*
X020190Y014037D01*
X020136Y014068D01*
X020080Y014095D01*
X020023Y014119D01*
X019964Y014139D01*
X019904Y014155D01*
X019844Y014168D01*
X019782Y014178D01*
X019721Y014183D01*
X019658Y014185D01*
X019596Y014183D01*
X019535Y014177D01*
X019473Y014168D01*
X019412Y014155D01*
X019353Y014138D01*
X019294Y014118D01*
X019237Y014094D01*
X019181Y014067D01*
X019127Y014037D01*
X019074Y014003D01*
X019024Y013966D01*
X018977Y013927D01*
X018931Y013884D01*
X018889Y013839D01*
X018849Y013791D01*
X018812Y013741D01*
X018778Y013689D01*
X018748Y013635D01*
X018721Y013579D01*
X018697Y013522D01*
X018676Y013463D01*
X018634Y012834D02*
X018682Y012849D01*
X018681Y012848D02*
X018701Y012790D01*
X018725Y012733D01*
X018752Y012677D01*
X018783Y012623D01*
X018816Y012572D01*
X018853Y012522D01*
X018893Y012474D01*
X018935Y012429D01*
X018980Y012387D01*
X019028Y012348D01*
X019077Y012311D01*
X019129Y012278D01*
X019183Y012247D01*
X019239Y012220D01*
X019296Y012197D01*
X019354Y012176D01*
X019414Y012160D01*
X019474Y012147D01*
X019535Y012138D01*
X019597Y012132D01*
X019658Y012130D01*
X019720Y012132D01*
X019782Y012137D01*
X019843Y012147D01*
X019903Y012160D01*
X019963Y012176D01*
X020021Y012196D01*
X020078Y012220D01*
X020134Y012247D01*
X020188Y012277D01*
X020240Y012310D01*
X020290Y012347D01*
X020320Y012308D01*
X020321Y012308D01*
X020268Y012269D01*
X020214Y012234D01*
X020157Y012202D01*
X020099Y012174D01*
X020039Y012149D01*
X019978Y012128D01*
X019915Y012111D01*
X019852Y012097D01*
X019788Y012088D01*
X019723Y012082D01*
X019658Y012080D01*
X019594Y012082D01*
X019529Y012088D01*
X019465Y012098D01*
X019402Y012111D01*
X019339Y012129D01*
X019278Y012150D01*
X019218Y012175D01*
X019160Y012203D01*
X019103Y012235D01*
X019049Y012270D01*
X018997Y012308D01*
X018947Y012350D01*
X018900Y012394D01*
X018855Y012441D01*
X018814Y012491D01*
X018775Y012543D01*
X018740Y012598D01*
X018708Y012654D01*
X018679Y012712D01*
X018655Y012772D01*
X018633Y012833D01*
X018642Y012836D01*
X018663Y012775D01*
X018688Y012716D01*
X018716Y012658D01*
X018748Y012602D01*
X018782Y012548D01*
X018821Y012497D01*
X018862Y012447D01*
X018906Y012400D01*
X018953Y012356D01*
X019002Y012315D01*
X019054Y012277D01*
X019108Y012242D01*
X019164Y012211D01*
X019222Y012183D01*
X019281Y012158D01*
X019342Y012137D01*
X019404Y012120D01*
X019467Y012106D01*
X019530Y012097D01*
X019594Y012091D01*
X019658Y012089D01*
X019723Y012091D01*
X019787Y012097D01*
X019850Y012106D01*
X019913Y012120D01*
X019975Y012137D01*
X020036Y012158D01*
X020095Y012182D01*
X020153Y012210D01*
X020209Y012242D01*
X020263Y012277D01*
X020315Y012315D01*
X020309Y012322D01*
X020258Y012284D01*
X020204Y012250D01*
X020149Y012218D01*
X020092Y012191D01*
X020033Y012166D01*
X019972Y012146D01*
X019911Y012128D01*
X019849Y012115D01*
X019786Y012106D01*
X019722Y012100D01*
X019658Y012098D01*
X019595Y012100D01*
X019531Y012106D01*
X019468Y012115D01*
X019406Y012129D01*
X019345Y012146D01*
X019284Y012167D01*
X019225Y012191D01*
X019168Y012219D01*
X019113Y012250D01*
X019059Y012285D01*
X019008Y012322D01*
X018959Y012363D01*
X018912Y012407D01*
X018869Y012453D01*
X018828Y012502D01*
X018790Y012553D01*
X018755Y012607D01*
X018724Y012662D01*
X018696Y012720D01*
X018671Y012778D01*
X018650Y012839D01*
X018659Y012841D01*
X018680Y012782D01*
X018704Y012723D01*
X018732Y012666D01*
X018763Y012611D01*
X018797Y012558D01*
X018835Y012508D01*
X018875Y012459D01*
X018919Y012413D01*
X018965Y012370D01*
X019013Y012330D01*
X019064Y012292D01*
X019117Y012258D01*
X019172Y012227D01*
X019229Y012199D01*
X019288Y012175D01*
X019347Y012154D01*
X019408Y012137D01*
X019470Y012124D01*
X019532Y012115D01*
X019595Y012109D01*
X019658Y012107D01*
X019722Y012109D01*
X019785Y012115D01*
X019847Y012124D01*
X019909Y012137D01*
X019970Y012154D01*
X020029Y012175D01*
X020088Y012199D01*
X020145Y012226D01*
X020200Y012257D01*
X020253Y012291D01*
X020304Y012329D01*
X020298Y012336D01*
X020248Y012299D01*
X020195Y012265D01*
X020140Y012234D01*
X020084Y012207D01*
X020026Y012183D01*
X019967Y012163D01*
X019907Y012146D01*
X019845Y012133D01*
X019783Y012123D01*
X019721Y012118D01*
X019658Y012116D01*
X019596Y012118D01*
X019533Y012124D01*
X019472Y012133D01*
X019410Y012146D01*
X019350Y012163D01*
X019291Y012183D01*
X019233Y012207D01*
X019177Y012235D01*
X019122Y012266D01*
X019069Y012300D01*
X019019Y012337D01*
X018971Y012377D01*
X018925Y012420D01*
X018882Y012465D01*
X018842Y012513D01*
X018805Y012564D01*
X018771Y012616D01*
X018740Y012671D01*
X018712Y012727D01*
X018688Y012785D01*
X018668Y012844D01*
X018676Y012847D01*
X018697Y012788D01*
X018721Y012731D01*
X018748Y012675D01*
X018778Y012621D01*
X018812Y012569D01*
X018849Y012519D01*
X018889Y012471D01*
X018931Y012426D01*
X018977Y012383D01*
X019024Y012344D01*
X019074Y012307D01*
X019127Y012273D01*
X019181Y012243D01*
X019237Y012216D01*
X019294Y012192D01*
X019353Y012172D01*
X019412Y012155D01*
X019473Y012142D01*
X019535Y012133D01*
X019596Y012127D01*
X019658Y012125D01*
X019720Y012127D01*
X019782Y012132D01*
X019844Y012142D01*
X019904Y012155D01*
X019964Y012171D01*
X020023Y012191D01*
X020080Y012215D01*
X020136Y012242D01*
X020190Y012273D01*
X020243Y012306D01*
X020293Y012343D01*
X005503Y019160D02*
X005413Y019160D01*
X005414Y019160D02*
X005412Y019214D01*
X005406Y019267D01*
X005396Y019320D01*
X005382Y019372D01*
X005365Y019423D01*
X005344Y019472D01*
X005320Y019520D01*
X005292Y019566D01*
X005261Y019610D01*
X005227Y019652D01*
X005191Y019691D01*
X005151Y019728D01*
X005109Y019761D01*
X005065Y019792D01*
X005019Y019819D01*
X005061Y019898D01*
X005110Y019870D01*
X005156Y019838D01*
X005201Y019803D01*
X005243Y019766D01*
X005282Y019725D01*
X005319Y019682D01*
X005353Y019637D01*
X005384Y019590D01*
X005411Y019540D01*
X005435Y019489D01*
X005456Y019437D01*
X005473Y019383D01*
X005486Y019328D01*
X005496Y019273D01*
X005502Y019216D01*
X005504Y019160D01*
X005495Y019160D01*
X005493Y019216D01*
X005487Y019271D01*
X005477Y019326D01*
X005464Y019381D01*
X005447Y019434D01*
X005427Y019486D01*
X005403Y019536D01*
X005376Y019585D01*
X005346Y019632D01*
X005312Y019677D01*
X005276Y019719D01*
X005237Y019759D01*
X005195Y019796D01*
X005151Y019831D01*
X005105Y019862D01*
X005057Y019890D01*
X005053Y019882D01*
X005100Y019854D01*
X005146Y019823D01*
X005189Y019789D01*
X005231Y019753D01*
X005269Y019713D01*
X005305Y019671D01*
X005338Y019627D01*
X005368Y019581D01*
X005395Y019532D01*
X005418Y019482D01*
X005439Y019431D01*
X005455Y019378D01*
X005468Y019325D01*
X005478Y019270D01*
X005484Y019215D01*
X005486Y019160D01*
X005477Y019160D01*
X005475Y019215D01*
X005469Y019269D01*
X005460Y019323D01*
X005447Y019376D01*
X005430Y019428D01*
X005410Y019479D01*
X005387Y019528D01*
X005360Y019576D01*
X005331Y019622D01*
X005298Y019666D01*
X005263Y019707D01*
X005224Y019746D01*
X005184Y019783D01*
X005141Y019816D01*
X005095Y019847D01*
X005048Y019874D01*
X005044Y019866D01*
X005091Y019839D01*
X005135Y019809D01*
X005178Y019776D01*
X005218Y019740D01*
X005256Y019701D01*
X005291Y019660D01*
X005323Y019617D01*
X005353Y019571D01*
X005379Y019524D01*
X005402Y019475D01*
X005422Y019425D01*
X005438Y019373D01*
X005451Y019321D01*
X005460Y019268D01*
X005466Y019214D01*
X005468Y019160D01*
X005459Y019160D01*
X005457Y019213D01*
X005451Y019267D01*
X005442Y019319D01*
X005429Y019371D01*
X005413Y019422D01*
X005394Y019472D01*
X005371Y019520D01*
X005345Y019567D01*
X005316Y019611D01*
X005284Y019654D01*
X005249Y019695D01*
X005212Y019733D01*
X005172Y019769D01*
X005130Y019802D01*
X005086Y019832D01*
X005040Y019859D01*
X005036Y019851D01*
X005081Y019824D01*
X005125Y019794D01*
X005166Y019762D01*
X005206Y019727D01*
X005243Y019689D01*
X005277Y019649D01*
X005309Y019606D01*
X005337Y019562D01*
X005363Y019516D01*
X005385Y019468D01*
X005405Y019419D01*
X005421Y019369D01*
X005433Y019317D01*
X005442Y019265D01*
X005448Y019213D01*
X005450Y019160D01*
X005441Y019160D01*
X005439Y019216D01*
X005432Y019271D01*
X005422Y019326D01*
X005408Y019380D01*
X005390Y019432D01*
X005369Y019484D01*
X005343Y019533D01*
X005315Y019581D01*
X005283Y019627D01*
X005248Y019670D01*
X005210Y019710D01*
X005169Y019748D01*
X005125Y019783D01*
X005079Y019814D01*
X005031Y019843D01*
X005027Y019835D01*
X005075Y019807D01*
X005120Y019776D01*
X005163Y019741D01*
X005203Y019704D01*
X005241Y019664D01*
X005276Y019621D01*
X005307Y019576D01*
X005336Y019529D01*
X005360Y019480D01*
X005382Y019429D01*
X005399Y019377D01*
X005413Y019324D01*
X005423Y019270D01*
X005430Y019215D01*
X005432Y019160D01*
X005423Y019160D01*
X005421Y019214D01*
X005415Y019268D01*
X005405Y019322D01*
X005391Y019374D01*
X005373Y019426D01*
X005352Y019476D01*
X005328Y019525D01*
X005300Y019571D01*
X005268Y019616D01*
X005234Y019658D01*
X005197Y019697D01*
X005157Y019734D01*
X005115Y019768D01*
X005070Y019799D01*
X005023Y019827D01*
X004236Y019886D02*
X004281Y019808D01*
X004280Y019808D02*
X004236Y019780D01*
X004194Y019749D01*
X004154Y019716D01*
X004116Y019680D01*
X004081Y019641D01*
X004049Y019600D01*
X004019Y019556D01*
X003993Y019511D01*
X003970Y019464D01*
X003950Y019416D01*
X003934Y019366D01*
X003921Y019316D01*
X003912Y019264D01*
X003906Y019212D01*
X003904Y019160D01*
X003815Y019159D01*
X003814Y019160D01*
X003816Y019215D01*
X003822Y019269D01*
X003831Y019324D01*
X003844Y019377D01*
X003860Y019429D01*
X003879Y019481D01*
X003902Y019531D01*
X003928Y019579D01*
X003957Y019626D01*
X003989Y019670D01*
X004024Y019713D01*
X004062Y019753D01*
X004102Y019790D01*
X004144Y019825D01*
X004189Y019857D01*
X004235Y019886D01*
X004240Y019878D01*
X004194Y019850D01*
X004150Y019818D01*
X004108Y019783D01*
X004068Y019746D01*
X004031Y019707D01*
X003996Y019665D01*
X003965Y019621D01*
X003936Y019575D01*
X003910Y019527D01*
X003888Y019477D01*
X003868Y019427D01*
X003852Y019375D01*
X003840Y019322D01*
X003831Y019268D01*
X003825Y019214D01*
X003823Y019160D01*
X003832Y019160D01*
X003834Y019214D01*
X003840Y019267D01*
X003849Y019320D01*
X003861Y019372D01*
X003877Y019424D01*
X003896Y019474D01*
X003918Y019523D01*
X003944Y019570D01*
X003972Y019616D01*
X004004Y019659D01*
X004038Y019701D01*
X004074Y019740D01*
X004114Y019777D01*
X004155Y019811D01*
X004199Y019842D01*
X004244Y019871D01*
X004249Y019863D01*
X004201Y019833D01*
X004155Y019799D01*
X004112Y019763D01*
X004071Y019723D01*
X004033Y019681D01*
X003998Y019637D01*
X003966Y019590D01*
X003938Y019541D01*
X003913Y019490D01*
X003891Y019437D01*
X003874Y019384D01*
X003860Y019329D01*
X003850Y019273D01*
X003843Y019217D01*
X003841Y019160D01*
X003850Y019160D01*
X003852Y019216D01*
X003858Y019272D01*
X003868Y019327D01*
X003882Y019381D01*
X003900Y019434D01*
X003921Y019486D01*
X003946Y019537D01*
X003974Y019585D01*
X004005Y019631D01*
X004040Y019676D01*
X004077Y019717D01*
X004118Y019756D01*
X004160Y019792D01*
X004206Y019825D01*
X004253Y019855D01*
X004258Y019847D01*
X004211Y019818D01*
X004166Y019785D01*
X004124Y019749D01*
X004084Y019711D01*
X004047Y019670D01*
X004012Y019626D01*
X003981Y019580D01*
X003954Y019532D01*
X003929Y019483D01*
X003908Y019431D01*
X003891Y019379D01*
X003877Y019325D01*
X003867Y019270D01*
X003861Y019215D01*
X003859Y019160D01*
X003868Y019160D01*
X003870Y019215D01*
X003876Y019269D01*
X003886Y019323D01*
X003900Y019376D01*
X003917Y019428D01*
X003937Y019479D01*
X003962Y019528D01*
X003989Y019575D01*
X004020Y019621D01*
X004053Y019664D01*
X004090Y019705D01*
X004130Y019743D01*
X004172Y019778D01*
X004216Y019810D01*
X004262Y019839D01*
X004267Y019831D01*
X004221Y019803D01*
X004177Y019771D01*
X004136Y019736D01*
X004097Y019698D01*
X004060Y019658D01*
X004027Y019616D01*
X003997Y019571D01*
X003969Y019524D01*
X003946Y019475D01*
X003925Y019425D01*
X003908Y019374D01*
X003895Y019321D01*
X003885Y019268D01*
X003879Y019214D01*
X003877Y019160D01*
X003886Y019160D01*
X003888Y019213D01*
X003894Y019267D01*
X003904Y019319D01*
X003917Y019371D01*
X003934Y019422D01*
X003954Y019472D01*
X003977Y019520D01*
X004004Y019566D01*
X004034Y019610D01*
X004067Y019652D01*
X004103Y019692D01*
X004142Y019729D01*
X004183Y019764D01*
X004226Y019795D01*
X004271Y019824D01*
X004276Y019816D01*
X004231Y019788D01*
X004188Y019757D01*
X004148Y019723D01*
X004110Y019686D01*
X004074Y019647D01*
X004042Y019605D01*
X004012Y019561D01*
X003985Y019515D01*
X003962Y019468D01*
X003942Y019419D01*
X003925Y019369D01*
X003912Y019317D01*
X003903Y019265D01*
X003897Y019213D01*
X003895Y019160D01*
X003815Y019151D02*
X003905Y019151D01*
X003904Y019150D02*
X003906Y019096D01*
X003912Y019043D01*
X003922Y018990D01*
X003936Y018938D01*
X003953Y018887D01*
X003974Y018837D01*
X003998Y018789D01*
X004026Y018743D01*
X004057Y018699D01*
X004091Y018658D01*
X004128Y018618D01*
X004167Y018582D01*
X004110Y018514D01*
X004109Y018513D01*
X004068Y018551D01*
X004030Y018591D01*
X003994Y018634D01*
X003961Y018679D01*
X003931Y018726D01*
X003905Y018774D01*
X003881Y018825D01*
X003861Y018877D01*
X003845Y018930D01*
X003831Y018984D01*
X003822Y019039D01*
X003816Y019094D01*
X003814Y019150D01*
X003823Y019150D01*
X003825Y019095D01*
X003831Y019040D01*
X003840Y018986D01*
X003853Y018932D01*
X003870Y018880D01*
X003889Y018828D01*
X003913Y018778D01*
X003939Y018730D01*
X003969Y018684D01*
X004001Y018639D01*
X004036Y018597D01*
X004075Y018557D01*
X004115Y018520D01*
X004121Y018527D01*
X004081Y018564D01*
X004043Y018603D01*
X004008Y018645D01*
X003976Y018689D01*
X003947Y018735D01*
X003921Y018783D01*
X003898Y018832D01*
X003878Y018883D01*
X003862Y018935D01*
X003849Y018988D01*
X003840Y019041D01*
X003834Y019096D01*
X003832Y019150D01*
X003841Y019150D01*
X003843Y019096D01*
X003849Y019043D01*
X003858Y018990D01*
X003871Y018937D01*
X003887Y018886D01*
X003906Y018835D01*
X003929Y018787D01*
X003954Y018739D01*
X003983Y018694D01*
X004015Y018650D01*
X004050Y018609D01*
X004087Y018570D01*
X004127Y018534D01*
X004133Y018541D01*
X004093Y018577D01*
X004056Y018615D01*
X004022Y018656D01*
X003991Y018699D01*
X003962Y018744D01*
X003937Y018791D01*
X003914Y018839D01*
X003895Y018889D01*
X003879Y018940D01*
X003867Y018991D01*
X003858Y019044D01*
X003852Y019097D01*
X003850Y019150D01*
X003859Y019150D01*
X003861Y019097D01*
X003867Y019045D01*
X003876Y018993D01*
X003888Y018942D01*
X003904Y018892D01*
X003923Y018842D01*
X003945Y018795D01*
X003970Y018748D01*
X003998Y018704D01*
X004029Y018662D01*
X004063Y018621D01*
X004100Y018583D01*
X004138Y018548D01*
X004144Y018554D01*
X004106Y018590D01*
X004070Y018627D01*
X004036Y018667D01*
X004006Y018709D01*
X003978Y018753D01*
X003953Y018799D01*
X003931Y018846D01*
X003912Y018895D01*
X003897Y018944D01*
X003884Y018995D01*
X003876Y019046D01*
X003870Y019098D01*
X003868Y019150D01*
X003877Y019150D01*
X003879Y019094D01*
X003886Y019039D01*
X003896Y018984D01*
X003910Y018930D01*
X003928Y018877D01*
X003950Y018826D01*
X003975Y018776D01*
X004004Y018728D01*
X004036Y018683D01*
X004071Y018640D01*
X004109Y018599D01*
X004150Y018561D01*
X004156Y018568D01*
X004115Y018605D01*
X004078Y018646D01*
X004043Y018688D01*
X004011Y018733D01*
X003983Y018781D01*
X003958Y018830D01*
X003936Y018881D01*
X003919Y018933D01*
X003905Y018986D01*
X003895Y019040D01*
X003888Y019095D01*
X003886Y019150D01*
X003895Y019150D01*
X003897Y019096D01*
X003903Y019041D01*
X003913Y018988D01*
X003927Y018935D01*
X003945Y018884D01*
X003966Y018834D01*
X003991Y018785D01*
X004019Y018738D01*
X004050Y018694D01*
X004084Y018652D01*
X004122Y018612D01*
X004162Y018575D01*
X005203Y018510D02*
X005146Y018579D01*
X005146Y018578D02*
X005186Y018615D01*
X005224Y018654D01*
X005258Y018696D01*
X005290Y018740D01*
X005318Y018786D01*
X005343Y018835D01*
X005364Y018885D01*
X005382Y018936D01*
X005395Y018989D01*
X005405Y019042D01*
X005412Y019096D01*
X005414Y019150D01*
X005503Y019151D01*
X005504Y019150D01*
X005502Y019094D01*
X005496Y019038D01*
X005486Y018983D01*
X005473Y018928D01*
X005456Y018875D01*
X005436Y018822D01*
X005412Y018771D01*
X005385Y018722D01*
X005354Y018675D01*
X005321Y018630D01*
X005285Y018587D01*
X005246Y018547D01*
X005204Y018509D01*
X005198Y018516D01*
X005239Y018553D01*
X005278Y018593D01*
X005314Y018635D01*
X005347Y018680D01*
X005377Y018727D01*
X005404Y018775D01*
X005427Y018826D01*
X005448Y018878D01*
X005464Y018931D01*
X005477Y018985D01*
X005487Y019039D01*
X005493Y019094D01*
X005495Y019150D01*
X005486Y019150D01*
X005484Y019095D01*
X005478Y019040D01*
X005469Y018986D01*
X005456Y018933D01*
X005439Y018881D01*
X005419Y018829D01*
X005396Y018780D01*
X005369Y018731D01*
X005340Y018685D01*
X005307Y018641D01*
X005271Y018599D01*
X005233Y018560D01*
X005192Y018523D01*
X005187Y018530D01*
X005227Y018566D01*
X005265Y018605D01*
X005300Y018647D01*
X005332Y018690D01*
X005362Y018736D01*
X005388Y018784D01*
X005411Y018833D01*
X005431Y018883D01*
X005447Y018935D01*
X005460Y018988D01*
X005469Y019042D01*
X005475Y019096D01*
X005477Y019150D01*
X005468Y019150D01*
X005466Y019096D01*
X005460Y019043D01*
X005451Y018990D01*
X005438Y018938D01*
X005422Y018886D01*
X005403Y018836D01*
X005380Y018788D01*
X005354Y018741D01*
X005325Y018695D01*
X005293Y018652D01*
X005258Y018611D01*
X005221Y018573D01*
X005181Y018537D01*
X005175Y018544D01*
X005214Y018579D01*
X005251Y018617D01*
X005286Y018658D01*
X005317Y018701D01*
X005346Y018745D01*
X005372Y018792D01*
X005394Y018840D01*
X005414Y018889D01*
X005430Y018940D01*
X005442Y018992D01*
X005451Y019044D01*
X005457Y019097D01*
X005459Y019150D01*
X005450Y019150D01*
X005448Y019098D01*
X005442Y019045D01*
X005433Y018994D01*
X005421Y018943D01*
X005405Y018892D01*
X005386Y018843D01*
X005364Y018796D01*
X005338Y018750D01*
X005310Y018706D01*
X005279Y018664D01*
X005245Y018623D01*
X005208Y018586D01*
X005169Y018551D01*
X005163Y018557D01*
X005202Y018592D01*
X005238Y018630D01*
X005272Y018669D01*
X005303Y018711D01*
X005331Y018755D01*
X005356Y018800D01*
X005378Y018847D01*
X005397Y018895D01*
X005412Y018945D01*
X005425Y018995D01*
X005433Y019046D01*
X005439Y019098D01*
X005441Y019150D01*
X005432Y019150D01*
X005430Y019099D01*
X005425Y019048D01*
X005416Y018997D01*
X005404Y018947D01*
X005388Y018898D01*
X005370Y018851D01*
X005348Y018804D01*
X005323Y018759D01*
X005295Y018716D01*
X005265Y018675D01*
X005232Y018636D01*
X005196Y018599D01*
X005158Y018564D01*
X005152Y018571D01*
X005193Y018608D01*
X005231Y018648D01*
X005265Y018690D01*
X005297Y018735D01*
X005326Y018782D01*
X005351Y018831D01*
X005372Y018882D01*
X005390Y018933D01*
X005404Y018987D01*
X005414Y019041D01*
X005421Y019095D01*
X005423Y019150D01*
D18*
X005169Y018535D02*
X004969Y018535D01*
X004329Y018535D02*
X004149Y018535D01*
D19*
X003159Y003955D02*
X002809Y003955D01*
X003159Y003955D02*
X004109Y003955D01*
X004509Y003955D01*
X004859Y004755D02*
X004859Y004855D01*
X004959Y004855D01*
X004959Y005455D01*
X004859Y005455D01*
X004859Y005555D01*
X004509Y006355D02*
X004159Y006355D01*
X003159Y006355D01*
X002809Y006355D01*
X002459Y005555D02*
X002459Y005455D01*
X002359Y005455D01*
X002359Y004855D01*
X002459Y004855D01*
X002459Y004755D01*
X003559Y005155D02*
X003561Y005175D01*
X003567Y005193D01*
X003576Y005211D01*
X003588Y005226D01*
X003603Y005238D01*
X003621Y005247D01*
X003639Y005253D01*
X003659Y005255D01*
X003679Y005253D01*
X003697Y005247D01*
X003715Y005238D01*
X003730Y005226D01*
X003742Y005211D01*
X003751Y005193D01*
X003757Y005175D01*
X003759Y005155D01*
X003757Y005135D01*
X003751Y005117D01*
X003742Y005099D01*
X003730Y005084D01*
X003715Y005072D01*
X003697Y005063D01*
X003679Y005057D01*
X003659Y005055D01*
X003639Y005057D01*
X003621Y005063D01*
X003603Y005072D01*
X003588Y005084D01*
X003576Y005099D01*
X003567Y005117D01*
X003561Y005135D01*
X003559Y005155D01*
X002959Y005155D02*
X002961Y005207D01*
X002967Y005259D01*
X002977Y005311D01*
X002990Y005361D01*
X003007Y005411D01*
X003028Y005459D01*
X003053Y005505D01*
X003081Y005549D01*
X003112Y005591D01*
X003146Y005631D01*
X003183Y005668D01*
X003223Y005702D01*
X003265Y005733D01*
X003309Y005761D01*
X003355Y005786D01*
X003403Y005807D01*
X003453Y005824D01*
X003503Y005837D01*
X003555Y005847D01*
X003607Y005853D01*
X003659Y005855D01*
X003711Y005853D01*
X003763Y005847D01*
X003815Y005837D01*
X003865Y005824D01*
X003915Y005807D01*
X003963Y005786D01*
X004009Y005761D01*
X004053Y005733D01*
X004095Y005702D01*
X004135Y005668D01*
X004172Y005631D01*
X004206Y005591D01*
X004237Y005549D01*
X004265Y005505D01*
X004290Y005459D01*
X004311Y005411D01*
X004328Y005361D01*
X004341Y005311D01*
X004351Y005259D01*
X004357Y005207D01*
X004359Y005155D01*
X004357Y005103D01*
X004351Y005051D01*
X004341Y004999D01*
X004328Y004949D01*
X004311Y004899D01*
X004290Y004851D01*
X004265Y004805D01*
X004237Y004761D01*
X004206Y004719D01*
X004172Y004679D01*
X004135Y004642D01*
X004095Y004608D01*
X004053Y004577D01*
X004009Y004549D01*
X003963Y004524D01*
X003915Y004503D01*
X003865Y004486D01*
X003815Y004473D01*
X003763Y004463D01*
X003711Y004457D01*
X003659Y004455D01*
X003607Y004457D01*
X003555Y004463D01*
X003503Y004473D01*
X003453Y004486D01*
X003403Y004503D01*
X003355Y004524D01*
X003309Y004549D01*
X003265Y004577D01*
X003223Y004608D01*
X003183Y004642D01*
X003146Y004679D01*
X003112Y004719D01*
X003081Y004761D01*
X003053Y004805D01*
X003028Y004851D01*
X003007Y004899D01*
X002990Y004949D01*
X002977Y004999D01*
X002967Y005051D01*
X002961Y005103D01*
X002959Y005155D01*
X006359Y007055D02*
X020959Y007055D01*
X020959Y009255D01*
X006359Y009255D01*
X006359Y008405D01*
X006389Y008403D01*
X006419Y008398D01*
X006448Y008389D01*
X006475Y008376D01*
X006501Y008361D01*
X006525Y008342D01*
X006546Y008321D01*
X006565Y008297D01*
X006580Y008271D01*
X006593Y008244D01*
X006602Y008215D01*
X006607Y008185D01*
X006609Y008155D01*
X006607Y008125D01*
X006602Y008095D01*
X006593Y008066D01*
X006580Y008039D01*
X006565Y008013D01*
X006546Y007989D01*
X006525Y007968D01*
X006501Y007949D01*
X006475Y007934D01*
X006448Y007921D01*
X006419Y007912D01*
X006389Y007907D01*
X006359Y007905D01*
X006359Y007055D01*
X006659Y011505D02*
X006659Y012255D01*
X006698Y012257D01*
X006737Y012263D01*
X006775Y012272D01*
X006812Y012285D01*
X006848Y012302D01*
X006881Y012322D01*
X006913Y012346D01*
X006942Y012372D01*
X006968Y012401D01*
X006992Y012433D01*
X007012Y012466D01*
X007029Y012502D01*
X007042Y012539D01*
X007051Y012577D01*
X007057Y012616D01*
X007059Y012655D01*
X007057Y012694D01*
X007051Y012733D01*
X007042Y012771D01*
X007029Y012808D01*
X007012Y012844D01*
X006992Y012877D01*
X006968Y012909D01*
X006942Y012938D01*
X006913Y012964D01*
X006881Y012988D01*
X006848Y013008D01*
X006812Y013025D01*
X006775Y013038D01*
X006737Y013047D01*
X006698Y013053D01*
X006659Y013055D01*
X006659Y013805D01*
X010659Y013805D01*
X010659Y011505D01*
X006659Y011505D01*
X012159Y011505D02*
X012159Y012255D01*
X012198Y012257D01*
X012237Y012263D01*
X012275Y012272D01*
X012312Y012285D01*
X012348Y012302D01*
X012381Y012322D01*
X012413Y012346D01*
X012442Y012372D01*
X012468Y012401D01*
X012492Y012433D01*
X012512Y012466D01*
X012529Y012502D01*
X012542Y012539D01*
X012551Y012577D01*
X012557Y012616D01*
X012559Y012655D01*
X012557Y012694D01*
X012551Y012733D01*
X012542Y012771D01*
X012529Y012808D01*
X012512Y012844D01*
X012492Y012877D01*
X012468Y012909D01*
X012442Y012938D01*
X012413Y012964D01*
X012381Y012988D01*
X012348Y013008D01*
X012312Y013025D01*
X012275Y013038D01*
X012237Y013047D01*
X012198Y013053D01*
X012159Y013055D01*
X012159Y013805D01*
X016159Y013805D01*
X016159Y011505D01*
X012159Y011505D01*
X019759Y012110D02*
X019759Y012268D01*
X020309Y012330D02*
X020309Y013980D01*
X019759Y014043D02*
X019759Y014200D01*
D20*
X004159Y006355D02*
X004159Y006255D01*
X003159Y006255D01*
X003159Y006355D01*
X003159Y004055D02*
X003159Y003955D01*
X003159Y004055D02*
X004109Y004055D01*
X004109Y003955D01*
M02*
