G75*
G70*
%OFA0B0*%
%FSLAX24Y24*%
%IPPOS*%
%LPD*%
%AMOC8*
5,1,8,0,0,1.08239X$1,22.5*
%
%ADD10C,0.0000*%
%ADD11C,0.0640*%
%ADD12C,0.0650*%
%ADD13C,0.0740*%
%ADD14C,0.0660*%
%ADD15C,0.0560*%
%ADD16C,0.0120*%
%ADD17C,0.0100*%
%ADD18C,0.0400*%
D10*
X001159Y000655D02*
X001159Y024651D01*
X024179Y024651D01*
X024179Y000655D01*
X001159Y000655D01*
X002009Y002155D02*
X002011Y002205D01*
X002017Y002255D01*
X002027Y002305D01*
X002040Y002353D01*
X002057Y002401D01*
X002078Y002447D01*
X002102Y002491D01*
X002130Y002533D01*
X002161Y002573D01*
X002195Y002610D01*
X002232Y002645D01*
X002271Y002676D01*
X002312Y002705D01*
X002356Y002730D01*
X002402Y002752D01*
X002449Y002770D01*
X002497Y002784D01*
X002546Y002795D01*
X002596Y002802D01*
X002646Y002805D01*
X002697Y002804D01*
X002747Y002799D01*
X002797Y002790D01*
X002845Y002778D01*
X002893Y002761D01*
X002939Y002741D01*
X002984Y002718D01*
X003027Y002691D01*
X003067Y002661D01*
X003105Y002628D01*
X003140Y002592D01*
X003173Y002553D01*
X003202Y002512D01*
X003228Y002469D01*
X003251Y002424D01*
X003270Y002377D01*
X003285Y002329D01*
X003297Y002280D01*
X003305Y002230D01*
X003309Y002180D01*
X003309Y002130D01*
X003305Y002080D01*
X003297Y002030D01*
X003285Y001981D01*
X003270Y001933D01*
X003251Y001886D01*
X003228Y001841D01*
X003202Y001798D01*
X003173Y001757D01*
X003140Y001718D01*
X003105Y001682D01*
X003067Y001649D01*
X003027Y001619D01*
X002984Y001592D01*
X002939Y001569D01*
X002893Y001549D01*
X002845Y001532D01*
X002797Y001520D01*
X002747Y001511D01*
X002697Y001506D01*
X002646Y001505D01*
X002596Y001508D01*
X002546Y001515D01*
X002497Y001526D01*
X002449Y001540D01*
X002402Y001558D01*
X002356Y001580D01*
X002312Y001605D01*
X002271Y001634D01*
X002232Y001665D01*
X002195Y001700D01*
X002161Y001737D01*
X002130Y001777D01*
X002102Y001819D01*
X002078Y001863D01*
X002057Y001909D01*
X002040Y001957D01*
X002027Y002005D01*
X002017Y002055D01*
X002011Y002105D01*
X002009Y002155D01*
X022009Y002155D02*
X022011Y002205D01*
X022017Y002255D01*
X022027Y002305D01*
X022040Y002353D01*
X022057Y002401D01*
X022078Y002447D01*
X022102Y002491D01*
X022130Y002533D01*
X022161Y002573D01*
X022195Y002610D01*
X022232Y002645D01*
X022271Y002676D01*
X022312Y002705D01*
X022356Y002730D01*
X022402Y002752D01*
X022449Y002770D01*
X022497Y002784D01*
X022546Y002795D01*
X022596Y002802D01*
X022646Y002805D01*
X022697Y002804D01*
X022747Y002799D01*
X022797Y002790D01*
X022845Y002778D01*
X022893Y002761D01*
X022939Y002741D01*
X022984Y002718D01*
X023027Y002691D01*
X023067Y002661D01*
X023105Y002628D01*
X023140Y002592D01*
X023173Y002553D01*
X023202Y002512D01*
X023228Y002469D01*
X023251Y002424D01*
X023270Y002377D01*
X023285Y002329D01*
X023297Y002280D01*
X023305Y002230D01*
X023309Y002180D01*
X023309Y002130D01*
X023305Y002080D01*
X023297Y002030D01*
X023285Y001981D01*
X023270Y001933D01*
X023251Y001886D01*
X023228Y001841D01*
X023202Y001798D01*
X023173Y001757D01*
X023140Y001718D01*
X023105Y001682D01*
X023067Y001649D01*
X023027Y001619D01*
X022984Y001592D01*
X022939Y001569D01*
X022893Y001549D01*
X022845Y001532D01*
X022797Y001520D01*
X022747Y001511D01*
X022697Y001506D01*
X022646Y001505D01*
X022596Y001508D01*
X022546Y001515D01*
X022497Y001526D01*
X022449Y001540D01*
X022402Y001558D01*
X022356Y001580D01*
X022312Y001605D01*
X022271Y001634D01*
X022232Y001665D01*
X022195Y001700D01*
X022161Y001737D01*
X022130Y001777D01*
X022102Y001819D01*
X022078Y001863D01*
X022057Y001909D01*
X022040Y001957D01*
X022027Y002005D01*
X022017Y002055D01*
X022011Y002105D01*
X022009Y002155D01*
X022009Y023155D02*
X022011Y023205D01*
X022017Y023255D01*
X022027Y023305D01*
X022040Y023353D01*
X022057Y023401D01*
X022078Y023447D01*
X022102Y023491D01*
X022130Y023533D01*
X022161Y023573D01*
X022195Y023610D01*
X022232Y023645D01*
X022271Y023676D01*
X022312Y023705D01*
X022356Y023730D01*
X022402Y023752D01*
X022449Y023770D01*
X022497Y023784D01*
X022546Y023795D01*
X022596Y023802D01*
X022646Y023805D01*
X022697Y023804D01*
X022747Y023799D01*
X022797Y023790D01*
X022845Y023778D01*
X022893Y023761D01*
X022939Y023741D01*
X022984Y023718D01*
X023027Y023691D01*
X023067Y023661D01*
X023105Y023628D01*
X023140Y023592D01*
X023173Y023553D01*
X023202Y023512D01*
X023228Y023469D01*
X023251Y023424D01*
X023270Y023377D01*
X023285Y023329D01*
X023297Y023280D01*
X023305Y023230D01*
X023309Y023180D01*
X023309Y023130D01*
X023305Y023080D01*
X023297Y023030D01*
X023285Y022981D01*
X023270Y022933D01*
X023251Y022886D01*
X023228Y022841D01*
X023202Y022798D01*
X023173Y022757D01*
X023140Y022718D01*
X023105Y022682D01*
X023067Y022649D01*
X023027Y022619D01*
X022984Y022592D01*
X022939Y022569D01*
X022893Y022549D01*
X022845Y022532D01*
X022797Y022520D01*
X022747Y022511D01*
X022697Y022506D01*
X022646Y022505D01*
X022596Y022508D01*
X022546Y022515D01*
X022497Y022526D01*
X022449Y022540D01*
X022402Y022558D01*
X022356Y022580D01*
X022312Y022605D01*
X022271Y022634D01*
X022232Y022665D01*
X022195Y022700D01*
X022161Y022737D01*
X022130Y022777D01*
X022102Y022819D01*
X022078Y022863D01*
X022057Y022909D01*
X022040Y022957D01*
X022027Y023005D01*
X022017Y023055D01*
X022011Y023105D01*
X022009Y023155D01*
X002009Y023155D02*
X002011Y023205D01*
X002017Y023255D01*
X002027Y023305D01*
X002040Y023353D01*
X002057Y023401D01*
X002078Y023447D01*
X002102Y023491D01*
X002130Y023533D01*
X002161Y023573D01*
X002195Y023610D01*
X002232Y023645D01*
X002271Y023676D01*
X002312Y023705D01*
X002356Y023730D01*
X002402Y023752D01*
X002449Y023770D01*
X002497Y023784D01*
X002546Y023795D01*
X002596Y023802D01*
X002646Y023805D01*
X002697Y023804D01*
X002747Y023799D01*
X002797Y023790D01*
X002845Y023778D01*
X002893Y023761D01*
X002939Y023741D01*
X002984Y023718D01*
X003027Y023691D01*
X003067Y023661D01*
X003105Y023628D01*
X003140Y023592D01*
X003173Y023553D01*
X003202Y023512D01*
X003228Y023469D01*
X003251Y023424D01*
X003270Y023377D01*
X003285Y023329D01*
X003297Y023280D01*
X003305Y023230D01*
X003309Y023180D01*
X003309Y023130D01*
X003305Y023080D01*
X003297Y023030D01*
X003285Y022981D01*
X003270Y022933D01*
X003251Y022886D01*
X003228Y022841D01*
X003202Y022798D01*
X003173Y022757D01*
X003140Y022718D01*
X003105Y022682D01*
X003067Y022649D01*
X003027Y022619D01*
X002984Y022592D01*
X002939Y022569D01*
X002893Y022549D01*
X002845Y022532D01*
X002797Y022520D01*
X002747Y022511D01*
X002697Y022506D01*
X002646Y022505D01*
X002596Y022508D01*
X002546Y022515D01*
X002497Y022526D01*
X002449Y022540D01*
X002402Y022558D01*
X002356Y022580D01*
X002312Y022605D01*
X002271Y022634D01*
X002232Y022665D01*
X002195Y022700D01*
X002161Y022737D01*
X002130Y022777D01*
X002102Y022819D01*
X002078Y022863D01*
X002057Y022909D01*
X002040Y022957D01*
X002027Y023005D01*
X002017Y023055D01*
X002011Y023105D01*
X002009Y023155D01*
D11*
X010659Y022155D03*
X011659Y022155D03*
X012659Y022155D03*
X004939Y006045D03*
X004939Y004265D03*
X002379Y004265D03*
X002379Y006045D03*
D12*
X005659Y007655D03*
X005659Y008655D03*
X006159Y012155D03*
X006159Y013155D03*
X006159Y015155D03*
X005159Y015155D03*
X007159Y019155D03*
X008159Y019155D03*
X010659Y019655D03*
X011659Y019655D03*
X012659Y018655D03*
X012659Y017655D03*
X011659Y013155D03*
X011659Y012155D03*
X013659Y005655D03*
X014659Y005655D03*
X021159Y010655D03*
X022159Y010655D03*
X022159Y011655D03*
X021159Y011655D03*
X021159Y013655D03*
X022159Y013655D03*
X023159Y008155D03*
X023159Y006155D03*
X023159Y004155D03*
X022159Y004155D03*
D13*
X020609Y003655D03*
X020709Y002655D03*
X020609Y001655D03*
X019159Y001705D03*
X018159Y001605D03*
X018159Y002605D03*
X019159Y002705D03*
X019159Y003705D03*
X018159Y003605D03*
X017159Y003705D03*
X017159Y002705D03*
X017159Y001705D03*
X016159Y001605D03*
X016159Y002605D03*
X016159Y003605D03*
X015159Y003705D03*
X015159Y002705D03*
X015159Y001705D03*
X014159Y001605D03*
X014159Y002605D03*
X014159Y003605D03*
X013159Y003705D03*
X013159Y002705D03*
X013159Y001705D03*
X012159Y001605D03*
X012159Y002605D03*
X012159Y003605D03*
X011159Y003705D03*
X011159Y002705D03*
X011159Y001705D03*
X009659Y003155D03*
X008659Y003155D03*
X007659Y003155D03*
X006659Y003155D03*
X005659Y003155D03*
X004659Y003155D03*
X006159Y005155D03*
X009159Y005155D03*
X017159Y011155D03*
X017159Y014155D03*
X018159Y016155D03*
X018259Y017155D03*
X018159Y018155D03*
X018259Y019155D03*
X018159Y020155D03*
X018259Y021155D03*
X020659Y020155D03*
X020759Y019155D03*
X020659Y018155D03*
X020759Y017155D03*
X020659Y016155D03*
X023159Y016155D03*
X023259Y017155D03*
X023159Y018155D03*
X023259Y019155D03*
X023159Y020155D03*
X023259Y021155D03*
X020759Y021155D03*
X019659Y023705D03*
X018659Y023605D03*
X017659Y023705D03*
X016659Y023605D03*
X015659Y023705D03*
X015759Y021155D03*
X015659Y020155D03*
X015759Y019155D03*
X015659Y018155D03*
X015759Y017155D03*
X015659Y016155D03*
X011659Y017155D03*
X007659Y017155D03*
X006159Y017155D03*
X004659Y018655D03*
X004659Y019655D03*
X004159Y020655D03*
X002159Y020155D03*
X002159Y019155D03*
X002159Y017155D03*
X002659Y015755D03*
X002659Y014655D03*
X007159Y020655D03*
X007109Y023155D03*
X008209Y023155D03*
X005709Y023155D03*
X004609Y023155D03*
X023609Y012155D03*
X023709Y013155D03*
X023709Y011155D03*
X023609Y010155D03*
D14*
X019659Y012305D03*
X019659Y013155D03*
X019659Y014005D03*
X002159Y013155D03*
X002159Y012155D03*
X002159Y011155D03*
X002159Y010155D03*
X002159Y009155D03*
X002159Y008155D03*
X002159Y007155D03*
D15*
X007159Y006655D03*
X008159Y006655D03*
X009159Y006655D03*
X010159Y006655D03*
X011159Y006655D03*
X012159Y006655D03*
X013159Y006655D03*
X014159Y006655D03*
X015159Y006655D03*
X016159Y006655D03*
X017159Y006655D03*
X018159Y006655D03*
X019159Y006655D03*
X020159Y006655D03*
X020159Y009655D03*
X019159Y009655D03*
X018159Y009655D03*
X017159Y009655D03*
X016159Y009655D03*
X015159Y009655D03*
X014159Y009655D03*
X013159Y009655D03*
X012159Y009655D03*
X011159Y009655D03*
X010159Y009655D03*
X009159Y009655D03*
X008159Y009655D03*
X007159Y009655D03*
X007159Y011155D03*
X008159Y011155D03*
X009159Y011155D03*
X010159Y011155D03*
X012659Y011155D03*
X013659Y011155D03*
X014659Y011155D03*
X015659Y011155D03*
X015659Y014155D03*
X014659Y014155D03*
X013659Y014155D03*
X012659Y014155D03*
X010159Y014155D03*
X009159Y014155D03*
X008159Y014155D03*
X007159Y014155D03*
D16*
X008159Y014155D02*
X008199Y014095D01*
X008199Y011215D01*
X008159Y011155D01*
X008119Y011135D01*
X007159Y011135D01*
X007159Y011155D01*
X005959Y009615D02*
X004919Y009615D01*
X002439Y007135D01*
X002199Y007135D01*
X002159Y007155D01*
X004039Y006415D02*
X004039Y004015D01*
X004599Y003455D01*
X004599Y003215D01*
X004659Y003155D01*
X005659Y003155D02*
X007559Y005055D01*
X005799Y006815D01*
X004999Y006975D02*
X004599Y006975D01*
X004039Y006415D01*
X004999Y006975D02*
X005639Y007615D01*
X005659Y007655D01*
X006759Y008815D02*
X005959Y009615D01*
X006759Y008815D02*
X011159Y008815D01*
X011399Y009055D01*
X011719Y009055D01*
X011959Y008815D01*
X016999Y008815D01*
X019159Y006655D01*
X018199Y006655D02*
X018159Y006655D01*
X018199Y006655D02*
X018199Y004895D01*
X019159Y003935D01*
X019159Y003705D01*
X018199Y003615D02*
X018159Y003605D01*
X018199Y003615D02*
X018199Y003935D01*
X017159Y004975D01*
X017159Y006655D01*
X015399Y004655D02*
X016119Y003935D01*
X016119Y003615D01*
X016159Y003605D01*
X016199Y002655D02*
X016159Y002605D01*
X016199Y002655D02*
X017159Y002655D01*
X017159Y002705D01*
X017159Y002655D02*
X018119Y002655D01*
X018159Y002605D01*
X018199Y002655D01*
X019159Y002655D01*
X019159Y002705D01*
X020609Y003655D02*
X020679Y003695D01*
X020679Y005935D01*
X022199Y007455D01*
X022199Y010015D01*
X022679Y010495D01*
X022679Y010815D01*
X022199Y011295D01*
X022199Y011615D01*
X022159Y011655D01*
X019659Y014005D02*
X019639Y014015D01*
X019639Y019215D01*
X020519Y020095D01*
X020599Y020095D01*
X020659Y020155D01*
X019639Y019695D02*
X019239Y019295D01*
X019239Y015215D01*
X018119Y013215D02*
X017159Y014175D01*
X017159Y014155D01*
X017159Y014175D02*
X017159Y021375D01*
X018599Y022815D01*
X018599Y023535D01*
X018659Y023605D01*
X017659Y023705D02*
X017639Y023695D01*
X017639Y022175D01*
X016759Y021295D01*
X016759Y015135D01*
X016199Y014575D01*
X016199Y013135D01*
X017159Y012175D01*
X017159Y011155D01*
X016759Y012015D02*
X013479Y012015D01*
X012679Y011215D01*
X012659Y011155D01*
X011559Y008655D02*
X009719Y006815D01*
X009719Y006495D01*
X010279Y005935D01*
X010679Y005455D02*
X012199Y003935D01*
X012199Y003615D01*
X012159Y003605D01*
X012119Y002655D02*
X011159Y002655D01*
X011159Y002705D01*
X012119Y002655D02*
X012159Y002605D01*
X012199Y002655D01*
X013159Y002655D01*
X013159Y002705D01*
X013159Y002655D02*
X014119Y002655D01*
X014159Y002605D01*
X014199Y002655D01*
X015159Y002655D01*
X015159Y002705D01*
X015399Y004655D02*
X013479Y004655D01*
X013239Y004895D01*
X012919Y004895D01*
X013159Y003935D02*
X013159Y003705D01*
X013159Y003935D02*
X011719Y005375D01*
X011719Y006735D01*
X011159Y007295D01*
X010679Y006975D02*
X010679Y005455D01*
X009159Y006655D02*
X007559Y005055D01*
X009159Y011155D02*
X009159Y011215D01*
X010039Y012095D01*
X010039Y012815D01*
X012279Y015055D01*
X013879Y015055D01*
X014599Y014335D01*
X014599Y014175D01*
X014659Y014155D01*
X013479Y015455D02*
X013399Y015455D01*
X011719Y017135D01*
X011659Y017155D01*
X014439Y018175D02*
X015399Y017215D01*
X015719Y017215D01*
X015759Y017155D01*
X015639Y018095D02*
X015659Y018155D01*
X015639Y018095D02*
X014679Y019055D01*
X014679Y021295D01*
X016599Y023215D01*
X016599Y023535D01*
X016659Y023605D01*
X015659Y023705D02*
X015639Y023695D01*
X015639Y022575D01*
X014439Y021375D01*
X014439Y018175D01*
X010159Y014155D02*
X010119Y014095D01*
X010039Y014015D01*
X010039Y012815D01*
X004659Y019655D02*
X004599Y019695D01*
X004599Y019935D01*
X004199Y020335D01*
X004199Y020655D01*
X004159Y020655D01*
X007159Y020655D02*
X008039Y021535D01*
X008039Y022975D01*
X008199Y023135D01*
X008209Y023155D01*
X018119Y013215D02*
X018119Y010815D01*
X017159Y009855D01*
X017159Y009655D01*
X020609Y003655D02*
X020679Y003615D01*
X020679Y002655D01*
X020709Y002655D01*
X020679Y002655D02*
X020679Y001695D01*
X020609Y001655D01*
X019639Y019695D02*
X019639Y023695D01*
X019659Y023705D01*
D17*
X019199Y023288D02*
X019308Y023179D01*
X019329Y023171D01*
X019329Y019824D01*
X019063Y019558D01*
X018976Y019471D01*
X018929Y019357D01*
X018929Y015541D01*
X018858Y015470D01*
X018789Y015305D01*
X018789Y015126D01*
X018858Y014960D01*
X018984Y014834D01*
X019150Y014765D01*
X019329Y014765D01*
X019329Y014495D01*
X019167Y014334D01*
X019079Y014120D01*
X019079Y013890D01*
X019167Y013677D01*
X019264Y013580D01*
X019167Y013484D01*
X019079Y013270D01*
X019079Y013040D01*
X019167Y012827D01*
X019331Y012663D01*
X019336Y012661D01*
X019293Y012618D01*
X019249Y012557D01*
X019214Y012489D01*
X019191Y012418D01*
X019179Y012343D01*
X019179Y012335D01*
X019629Y012335D01*
X019629Y012275D01*
X019689Y012275D01*
X019689Y011825D01*
X019697Y011825D01*
X019771Y011837D01*
X019843Y011860D01*
X019911Y011895D01*
X019972Y011939D01*
X020025Y011992D01*
X020070Y012054D01*
X020104Y012121D01*
X020127Y012193D01*
X020139Y012267D01*
X020139Y012275D01*
X019689Y012275D01*
X019689Y012335D01*
X020139Y012335D01*
X020139Y012343D01*
X020127Y012418D01*
X020104Y012489D01*
X020070Y012557D01*
X020025Y012618D01*
X019982Y012661D01*
X019988Y012663D01*
X020151Y012827D01*
X020239Y013040D01*
X020239Y013270D01*
X020151Y013484D01*
X020054Y013580D01*
X020151Y013677D01*
X020239Y013890D01*
X020239Y014120D01*
X020151Y014334D01*
X019988Y014497D01*
X019949Y014513D01*
X019949Y019087D01*
X020438Y019576D01*
X020448Y019572D01*
X020420Y019552D01*
X020362Y019494D01*
X020314Y019428D01*
X020277Y019355D01*
X020252Y019277D01*
X020240Y019205D01*
X020709Y019205D01*
X020709Y019105D01*
X020240Y019105D01*
X020252Y019033D01*
X020277Y018955D01*
X020314Y018883D01*
X020362Y018816D01*
X020420Y018758D01*
X020448Y018739D01*
X020308Y018681D01*
X020133Y018506D01*
X020039Y018278D01*
X020039Y018032D01*
X020133Y017804D01*
X020308Y017629D01*
X020342Y017615D01*
X020233Y017506D01*
X019949Y017506D01*
X019949Y017407D02*
X020193Y017407D01*
X020152Y017309D02*
X019949Y017309D01*
X019949Y017210D02*
X020139Y017210D01*
X020139Y017278D02*
X020139Y017032D01*
X020233Y016804D01*
X020342Y016695D01*
X020308Y016681D01*
X020133Y016506D01*
X020039Y016278D01*
X020039Y016032D01*
X020133Y015804D01*
X020308Y015629D01*
X020536Y015535D01*
X020782Y015535D01*
X021010Y015629D01*
X021185Y015804D01*
X021279Y016032D01*
X021279Y016278D01*
X021185Y016506D01*
X021076Y016615D01*
X021110Y016629D01*
X021285Y016804D01*
X021379Y017032D01*
X021379Y017278D01*
X021285Y017506D01*
X022733Y017506D01*
X022639Y017278D01*
X022639Y017032D01*
X022733Y016804D01*
X022842Y016695D01*
X022808Y016681D01*
X022633Y016506D01*
X022539Y016278D01*
X022539Y016032D01*
X022633Y015804D01*
X022808Y015629D01*
X023036Y015535D01*
X023282Y015535D01*
X023510Y015629D01*
X023685Y015804D01*
X023779Y016032D01*
X023779Y016278D01*
X023685Y016506D01*
X023576Y016615D01*
X023610Y016629D01*
X023785Y016804D01*
X023879Y017032D01*
X023879Y017278D01*
X023785Y017506D01*
X024009Y017506D01*
X024009Y017407D02*
X023826Y017407D01*
X023866Y017309D02*
X024009Y017309D01*
X024009Y017210D02*
X023879Y017210D01*
X023879Y017112D02*
X024009Y017112D01*
X024009Y017013D02*
X023871Y017013D01*
X023831Y016915D02*
X024009Y016915D01*
X024009Y016816D02*
X023790Y016816D01*
X023698Y016718D02*
X024009Y016718D01*
X024009Y016619D02*
X023585Y016619D01*
X023670Y016521D02*
X024009Y016521D01*
X024009Y016422D02*
X023720Y016422D01*
X023760Y016324D02*
X024009Y016324D01*
X024009Y016225D02*
X023779Y016225D01*
X023779Y016126D02*
X024009Y016126D01*
X024009Y016028D02*
X023777Y016028D01*
X023737Y015929D02*
X024009Y015929D01*
X024009Y015831D02*
X023696Y015831D01*
X023613Y015732D02*
X024009Y015732D01*
X024009Y015634D02*
X023514Y015634D01*
X023282Y015535D02*
X024009Y015535D01*
X024009Y015437D02*
X019949Y015437D01*
X019949Y015535D02*
X020536Y015535D01*
X020782Y015535D02*
X023036Y015535D01*
X022804Y015634D02*
X021014Y015634D01*
X021113Y015732D02*
X022705Y015732D01*
X022622Y015831D02*
X021196Y015831D01*
X021237Y015929D02*
X022581Y015929D01*
X022541Y016028D02*
X021277Y016028D01*
X021279Y016126D02*
X022539Y016126D01*
X022539Y016225D02*
X021279Y016225D01*
X021260Y016324D02*
X022558Y016324D01*
X022599Y016422D02*
X021220Y016422D01*
X021170Y016521D02*
X022648Y016521D01*
X022746Y016619D02*
X021085Y016619D01*
X021198Y016718D02*
X022820Y016718D01*
X022728Y016816D02*
X021290Y016816D01*
X021331Y016915D02*
X022687Y016915D01*
X022647Y017013D02*
X021371Y017013D01*
X021379Y017112D02*
X022639Y017112D01*
X022639Y017210D02*
X021379Y017210D01*
X021366Y017309D02*
X022652Y017309D01*
X022693Y017407D02*
X021326Y017407D01*
X021285Y017506D02*
X021110Y017681D01*
X021076Y017695D01*
X021185Y017804D01*
X021279Y018032D01*
X021279Y018278D01*
X021185Y018506D01*
X021010Y018681D01*
X020990Y018689D01*
X021032Y018710D01*
X021098Y018758D01*
X021156Y018816D01*
X021204Y018883D01*
X021241Y018955D01*
X021266Y019033D01*
X021278Y019105D01*
X020809Y019105D01*
X020809Y019205D01*
X021278Y019205D01*
X021266Y019277D01*
X021241Y019355D01*
X021204Y019428D01*
X021156Y019494D01*
X021098Y019552D01*
X021032Y019600D01*
X020990Y019621D01*
X021010Y019629D01*
X021185Y019804D01*
X021279Y020032D01*
X021279Y020278D01*
X021185Y020506D01*
X021076Y020615D01*
X021110Y020629D01*
X021285Y020804D01*
X021379Y021032D01*
X021379Y021278D01*
X021285Y021506D01*
X021110Y021681D01*
X020882Y021775D01*
X020636Y021775D01*
X020408Y021681D01*
X020233Y021506D01*
X020139Y021278D01*
X020139Y021032D01*
X020233Y020804D01*
X020342Y020695D01*
X020308Y020681D01*
X020133Y020506D01*
X020039Y020278D01*
X020039Y020053D01*
X019949Y019963D01*
X019949Y023154D01*
X020010Y023179D01*
X020185Y023354D01*
X020279Y023582D01*
X020279Y023828D01*
X020185Y024056D01*
X020010Y024231D01*
X019782Y024325D01*
X019536Y024325D01*
X019308Y024231D01*
X019133Y024056D01*
X019119Y024022D01*
X019010Y024131D01*
X018782Y024225D01*
X018536Y024225D01*
X018308Y024131D01*
X018199Y024022D01*
X018185Y024056D01*
X018010Y024231D01*
X017782Y024325D01*
X017536Y024325D01*
X017308Y024231D01*
X017133Y024056D01*
X017119Y024022D01*
X017010Y024131D01*
X016782Y024225D01*
X016536Y024225D01*
X016308Y024131D01*
X016199Y024022D01*
X016185Y024056D01*
X016010Y024231D01*
X015782Y024325D01*
X015536Y024325D01*
X015308Y024231D01*
X015133Y024056D01*
X015039Y023828D01*
X015039Y023582D01*
X015133Y023354D01*
X015308Y023179D01*
X015329Y023171D01*
X015329Y022704D01*
X014263Y021638D01*
X014176Y021551D01*
X014129Y021437D01*
X014129Y018237D01*
X014129Y018113D01*
X014176Y017999D01*
X015136Y017039D01*
X015139Y017037D01*
X015139Y017032D01*
X015233Y016804D01*
X015342Y016695D01*
X015308Y016681D01*
X015133Y016506D01*
X015039Y016278D01*
X015039Y016032D01*
X015133Y015804D01*
X015308Y015629D01*
X015536Y015535D01*
X015782Y015535D01*
X016010Y015629D01*
X016185Y015804D01*
X016279Y016032D01*
X016279Y016278D01*
X016185Y016506D01*
X016076Y016615D01*
X016110Y016629D01*
X016285Y016804D01*
X016379Y017032D01*
X016379Y017278D01*
X016285Y017506D01*
X016449Y017506D01*
X016449Y017407D02*
X016326Y017407D01*
X016366Y017309D02*
X016449Y017309D01*
X016449Y017210D02*
X016379Y017210D01*
X016379Y017112D02*
X016449Y017112D01*
X016449Y017013D02*
X016371Y017013D01*
X016331Y016915D02*
X016449Y016915D01*
X016449Y016816D02*
X016290Y016816D01*
X016198Y016718D02*
X016449Y016718D01*
X016449Y016619D02*
X016085Y016619D01*
X016170Y016521D02*
X016449Y016521D01*
X016449Y016422D02*
X016220Y016422D01*
X016260Y016324D02*
X016449Y016324D01*
X016449Y016225D02*
X016279Y016225D01*
X016279Y016126D02*
X016449Y016126D01*
X016449Y016028D02*
X016277Y016028D01*
X016237Y015929D02*
X016449Y015929D01*
X016449Y015831D02*
X016196Y015831D01*
X016113Y015732D02*
X016449Y015732D01*
X016449Y015634D02*
X016014Y015634D01*
X015782Y015535D02*
X016449Y015535D01*
X016449Y015437D02*
X013929Y015437D01*
X013929Y015366D02*
X013929Y015545D01*
X013861Y015710D01*
X013734Y015837D01*
X013569Y015905D01*
X013390Y015905D01*
X013388Y015904D01*
X012274Y017019D01*
X012279Y017032D01*
X012279Y017222D01*
X012333Y017168D01*
X012545Y017080D01*
X012773Y017080D01*
X012985Y017168D01*
X013146Y017329D01*
X013234Y017541D01*
X013234Y017769D01*
X013146Y017981D01*
X012985Y018143D01*
X012824Y018209D01*
X012841Y018215D01*
X012908Y018249D01*
X012968Y018293D01*
X013021Y018346D01*
X013065Y018406D01*
X013099Y018473D01*
X013122Y018544D01*
X013134Y018618D01*
X013134Y018636D01*
X012678Y018636D01*
X012678Y018674D01*
X013134Y018674D01*
X013134Y018692D01*
X013122Y018766D01*
X013099Y018837D01*
X013065Y018904D01*
X013021Y018965D01*
X012968Y019017D01*
X012908Y019061D01*
X012841Y019095D01*
X012770Y019118D01*
X012696Y019130D01*
X012678Y019130D01*
X012678Y018674D01*
X012640Y018674D01*
X012640Y018636D01*
X012184Y018636D01*
X012184Y018618D01*
X012196Y018544D01*
X012219Y018473D01*
X012253Y018406D01*
X012297Y018346D01*
X012350Y018293D01*
X012410Y018249D01*
X012477Y018215D01*
X012494Y018209D01*
X012333Y018143D01*
X012172Y017981D01*
X012084Y017769D01*
X012084Y017607D01*
X012010Y017681D01*
X011782Y017775D01*
X011536Y017775D01*
X011308Y017681D01*
X011133Y017506D01*
X008185Y017506D01*
X008010Y017681D01*
X007782Y017775D01*
X007536Y017775D01*
X007308Y017681D01*
X007133Y017506D01*
X006685Y017506D01*
X006510Y017681D01*
X006282Y017775D01*
X006036Y017775D01*
X005808Y017681D01*
X005633Y017506D01*
X002544Y017506D01*
X002556Y017494D02*
X002498Y017552D01*
X002432Y017600D01*
X002359Y017637D01*
X002281Y017662D01*
X002200Y017675D01*
X002198Y017675D01*
X002198Y017194D01*
X002679Y017194D01*
X002679Y017196D01*
X002666Y017277D01*
X002641Y017355D01*
X002604Y017428D01*
X002556Y017494D01*
X002614Y017407D02*
X005593Y017407D01*
X005552Y017309D02*
X002656Y017309D01*
X002677Y017210D02*
X005539Y017210D01*
X005539Y017278D02*
X005539Y017032D01*
X005633Y016804D01*
X005808Y016629D01*
X006036Y016535D01*
X006282Y016535D01*
X006510Y016629D01*
X006685Y016804D01*
X006779Y017032D01*
X006779Y017278D01*
X006685Y017506D01*
X006726Y017407D02*
X007093Y017407D01*
X007052Y017309D02*
X006766Y017309D01*
X006779Y017210D02*
X007039Y017210D01*
X007039Y017278D02*
X007039Y017032D01*
X007133Y016804D01*
X007308Y016629D01*
X007536Y016535D01*
X007782Y016535D01*
X008010Y016629D01*
X008185Y016804D01*
X008279Y017032D01*
X008279Y017278D01*
X008185Y017506D01*
X008226Y017407D02*
X011093Y017407D01*
X011052Y017309D02*
X008266Y017309D01*
X008279Y017210D02*
X011039Y017210D01*
X011039Y017278D02*
X011039Y017032D01*
X011133Y016804D01*
X011308Y016629D01*
X011536Y016535D01*
X011782Y016535D01*
X011852Y016564D01*
X013029Y015387D01*
X013029Y015366D01*
X013029Y015365D01*
X012341Y015365D01*
X012217Y015365D01*
X012103Y015318D01*
X010349Y013563D01*
X010349Y013660D01*
X010459Y013706D01*
X010608Y013855D01*
X010689Y014050D01*
X010689Y014261D01*
X010608Y014455D01*
X010459Y014604D01*
X010264Y014685D01*
X010054Y014685D01*
X009859Y014604D01*
X009710Y014455D01*
X009659Y014333D01*
X009608Y014455D01*
X009459Y014604D01*
X009264Y014685D01*
X009054Y014685D01*
X008859Y014604D01*
X008710Y014455D01*
X008659Y014333D01*
X008608Y014455D01*
X008459Y014604D01*
X008264Y014685D01*
X008054Y014685D01*
X007859Y014604D01*
X007710Y014455D01*
X007659Y014333D01*
X007608Y014455D01*
X007459Y014604D01*
X007264Y014685D01*
X007054Y014685D01*
X006859Y014604D01*
X006710Y014455D01*
X006629Y014261D01*
X006629Y014050D01*
X006710Y013855D01*
X006859Y013706D01*
X007054Y013625D01*
X007264Y013625D01*
X007459Y013706D01*
X007608Y013855D01*
X007659Y013977D01*
X007710Y013855D01*
X007859Y013706D01*
X007889Y013693D01*
X007889Y011617D01*
X007859Y011604D01*
X007710Y011455D01*
X007706Y011445D01*
X007613Y011445D01*
X007608Y011455D01*
X007459Y011604D01*
X007264Y011685D01*
X007054Y011685D01*
X006859Y011604D01*
X006710Y011455D01*
X006629Y011261D01*
X006629Y011050D01*
X006710Y010855D01*
X006859Y010706D01*
X007054Y010625D01*
X007264Y010625D01*
X007459Y010706D01*
X007579Y010825D01*
X007739Y010825D01*
X007859Y010706D01*
X008054Y010625D01*
X008264Y010625D01*
X008459Y010706D01*
X008608Y010855D01*
X008659Y010977D01*
X008710Y010855D01*
X008859Y010706D01*
X009054Y010625D01*
X009264Y010625D01*
X009459Y010706D01*
X009608Y010855D01*
X009689Y011050D01*
X009689Y011261D01*
X009675Y011293D01*
X010215Y011832D01*
X010302Y011919D01*
X010349Y012033D01*
X010349Y012687D01*
X012407Y014745D01*
X013751Y014745D01*
X014160Y014336D01*
X014129Y014261D01*
X014129Y014050D01*
X014210Y013855D01*
X014359Y013706D01*
X014554Y013625D01*
X014764Y013625D01*
X014959Y013706D01*
X015108Y013855D01*
X015159Y013977D01*
X015210Y013855D01*
X015359Y013706D01*
X015554Y013625D01*
X015764Y013625D01*
X015889Y013677D01*
X015889Y013197D01*
X015889Y013073D01*
X015936Y012959D01*
X016502Y012394D01*
X016433Y012325D01*
X013417Y012325D01*
X013303Y012278D01*
X013216Y012191D01*
X012711Y011685D01*
X012554Y011685D01*
X012359Y011604D01*
X012210Y011455D01*
X012129Y011261D01*
X012129Y011050D01*
X012210Y010855D01*
X012359Y010706D01*
X012554Y010625D01*
X012764Y010625D01*
X012959Y010706D01*
X013108Y010855D01*
X013159Y010977D01*
X013210Y010855D01*
X013359Y010706D01*
X013554Y010625D01*
X013764Y010625D01*
X013959Y010706D01*
X014108Y010855D01*
X014159Y010977D01*
X014210Y010855D01*
X014359Y010706D01*
X014554Y010625D01*
X014764Y010625D01*
X014959Y010706D01*
X015108Y010855D01*
X015189Y011050D01*
X015189Y011261D01*
X015108Y011455D01*
X014959Y011604D01*
X014764Y011685D01*
X014554Y011685D01*
X014359Y011604D01*
X014210Y011455D01*
X014159Y011333D01*
X014108Y011455D01*
X013959Y011604D01*
X013764Y011685D01*
X013587Y011685D01*
X013607Y011705D01*
X016433Y011705D01*
X016504Y011634D01*
X016670Y011565D01*
X016692Y011565D01*
X016633Y011506D01*
X016539Y011278D01*
X016539Y011032D01*
X016633Y010804D01*
X016808Y010629D01*
X017036Y010535D01*
X017282Y010535D01*
X017484Y010619D01*
X017049Y010183D01*
X016859Y010104D01*
X016710Y009955D01*
X016659Y009833D01*
X016608Y009955D01*
X016459Y010104D01*
X016264Y010185D01*
X016054Y010185D01*
X015859Y010104D01*
X015710Y009955D01*
X015659Y009833D01*
X015608Y009955D01*
X015459Y010104D01*
X015264Y010185D01*
X015054Y010185D01*
X014859Y010104D01*
X014710Y009955D01*
X014659Y009833D01*
X014608Y009955D01*
X014459Y010104D01*
X014264Y010185D01*
X014054Y010185D01*
X013859Y010104D01*
X013710Y009955D01*
X013629Y009761D01*
X013629Y009550D01*
X013710Y009355D01*
X013859Y009206D01*
X014054Y009125D01*
X014264Y009125D01*
X014459Y009206D01*
X014608Y009355D01*
X014659Y009477D01*
X014710Y009355D01*
X014859Y009206D01*
X015054Y009125D01*
X015264Y009125D01*
X015459Y009206D01*
X015608Y009355D01*
X015659Y009477D01*
X015710Y009355D01*
X015859Y009206D01*
X016054Y009125D01*
X016264Y009125D01*
X016459Y009206D01*
X016608Y009355D01*
X016659Y009477D01*
X016710Y009355D01*
X016859Y009206D01*
X017054Y009125D01*
X017264Y009125D01*
X017459Y009206D01*
X017608Y009355D01*
X017659Y009477D01*
X017710Y009355D01*
X017859Y009206D01*
X018054Y009125D01*
X018264Y009125D01*
X018459Y009206D01*
X018608Y009355D01*
X018659Y009477D01*
X018710Y009355D01*
X018859Y009206D01*
X019054Y009125D01*
X019264Y009125D01*
X019459Y009206D01*
X019608Y009355D01*
X019659Y009477D01*
X019710Y009355D01*
X019859Y009206D01*
X020054Y009125D01*
X020264Y009125D01*
X020459Y009206D01*
X020608Y009355D01*
X020689Y009550D01*
X020689Y009761D01*
X020608Y009955D01*
X020459Y010104D01*
X020264Y010185D01*
X020054Y010185D01*
X019859Y010104D01*
X019710Y009955D01*
X019659Y009833D01*
X019608Y009955D01*
X019459Y010104D01*
X019264Y010185D01*
X019054Y010185D01*
X018859Y010104D01*
X018710Y009955D01*
X018659Y009833D01*
X018608Y009955D01*
X018459Y010104D01*
X018264Y010185D01*
X018054Y010185D01*
X017859Y010104D01*
X017710Y009955D01*
X017659Y009833D01*
X017634Y009892D01*
X018295Y010552D01*
X018382Y010639D01*
X018429Y010753D01*
X018429Y013153D01*
X018429Y013277D01*
X018382Y013391D01*
X017768Y014005D01*
X017779Y014032D01*
X017779Y014278D01*
X017685Y014506D01*
X017510Y014681D01*
X017469Y014698D01*
X017469Y021247D01*
X018862Y022639D01*
X018909Y022753D01*
X018909Y022877D01*
X018909Y023038D01*
X019010Y023079D01*
X019185Y023254D01*
X019199Y023288D01*
X019152Y023222D02*
X019266Y023222D01*
X019329Y023123D02*
X019054Y023123D01*
X018909Y023024D02*
X019329Y023024D01*
X019329Y022926D02*
X018909Y022926D01*
X018909Y022827D02*
X019329Y022827D01*
X019329Y022729D02*
X018899Y022729D01*
X018853Y022630D02*
X019329Y022630D01*
X019329Y022532D02*
X018754Y022532D01*
X018656Y022433D02*
X019329Y022433D01*
X019329Y022335D02*
X018557Y022335D01*
X018458Y022236D02*
X019329Y022236D01*
X019329Y022138D02*
X018360Y022138D01*
X018261Y022039D02*
X019329Y022039D01*
X019329Y021940D02*
X018163Y021940D01*
X018064Y021842D02*
X019329Y021842D01*
X019329Y021743D02*
X018459Y021743D01*
X018382Y021775D02*
X018610Y021681D01*
X018785Y021506D01*
X018879Y021278D01*
X018879Y021032D01*
X018785Y020804D01*
X018610Y020629D01*
X018576Y020615D01*
X018685Y020506D01*
X018779Y020278D01*
X018779Y020032D01*
X018685Y019804D01*
X018510Y019629D01*
X018490Y019621D01*
X018532Y019600D01*
X018598Y019552D01*
X018656Y019494D01*
X018704Y019428D01*
X018741Y019355D01*
X018766Y019277D01*
X018778Y019205D01*
X018309Y019205D01*
X018309Y019105D01*
X018778Y019105D01*
X018766Y019033D01*
X018741Y018955D01*
X018704Y018883D01*
X018656Y018816D01*
X018598Y018758D01*
X018532Y018710D01*
X018490Y018689D01*
X018510Y018681D01*
X018685Y018506D01*
X018779Y018278D01*
X018779Y018032D01*
X018685Y017804D01*
X018576Y017695D01*
X018610Y017681D01*
X018785Y017506D01*
X018929Y017506D01*
X018929Y017407D02*
X018826Y017407D01*
X018866Y017309D02*
X018929Y017309D01*
X018879Y017278D02*
X018879Y017032D01*
X018785Y016804D01*
X018610Y016629D01*
X018576Y016615D01*
X018685Y016506D01*
X018779Y016278D01*
X018779Y016032D01*
X018685Y015804D01*
X018510Y015629D01*
X018282Y015535D01*
X018036Y015535D01*
X017808Y015629D01*
X017633Y015804D01*
X017539Y016032D01*
X017539Y016278D01*
X017633Y016506D01*
X017808Y016681D01*
X017842Y016695D01*
X017733Y016804D01*
X017639Y017032D01*
X017639Y017278D01*
X017733Y017506D01*
X017469Y017506D01*
X017469Y017407D02*
X017693Y017407D01*
X017652Y017309D02*
X017469Y017309D01*
X017469Y017210D02*
X017639Y017210D01*
X017639Y017112D02*
X017469Y017112D01*
X017469Y017013D02*
X017647Y017013D01*
X017687Y016915D02*
X017469Y016915D01*
X017469Y016816D02*
X017728Y016816D01*
X017820Y016718D02*
X017469Y016718D01*
X017469Y016619D02*
X017746Y016619D01*
X017648Y016521D02*
X017469Y016521D01*
X017469Y016422D02*
X017599Y016422D01*
X017558Y016324D02*
X017469Y016324D01*
X017469Y016225D02*
X017539Y016225D01*
X017539Y016126D02*
X017469Y016126D01*
X017469Y016028D02*
X017541Y016028D01*
X017581Y015929D02*
X017469Y015929D01*
X017469Y015831D02*
X017622Y015831D01*
X017705Y015732D02*
X017469Y015732D01*
X017469Y015634D02*
X017804Y015634D01*
X018036Y015535D02*
X017469Y015535D01*
X017469Y015437D02*
X018844Y015437D01*
X018803Y015338D02*
X017469Y015338D01*
X017469Y015240D02*
X018789Y015240D01*
X018789Y015141D02*
X017469Y015141D01*
X017469Y015042D02*
X018823Y015042D01*
X018874Y014944D02*
X017469Y014944D01*
X017469Y014845D02*
X018972Y014845D01*
X019329Y014765D02*
X019329Y014765D01*
X019329Y014747D02*
X017469Y014747D01*
X017543Y014648D02*
X019329Y014648D01*
X019329Y014550D02*
X017641Y014550D01*
X017707Y014451D02*
X019285Y014451D01*
X019186Y014353D02*
X017748Y014353D01*
X017779Y014254D02*
X019134Y014254D01*
X019094Y014156D02*
X017779Y014156D01*
X017779Y014057D02*
X019079Y014057D01*
X019079Y013958D02*
X017814Y013958D01*
X017913Y013860D02*
X019091Y013860D01*
X019132Y013761D02*
X018011Y013761D01*
X018110Y013663D02*
X019181Y013663D01*
X019248Y013564D02*
X018208Y013564D01*
X018307Y013466D02*
X019160Y013466D01*
X019119Y013367D02*
X018392Y013367D01*
X018429Y013269D02*
X019079Y013269D01*
X019079Y013170D02*
X018429Y013170D01*
X018429Y013072D02*
X019079Y013072D01*
X019107Y012973D02*
X018429Y012973D01*
X018429Y012874D02*
X019147Y012874D01*
X019218Y012776D02*
X018429Y012776D01*
X018429Y012677D02*
X019317Y012677D01*
X019265Y012579D02*
X018429Y012579D01*
X018429Y012480D02*
X019211Y012480D01*
X019185Y012382D02*
X018429Y012382D01*
X018429Y012283D02*
X019629Y012283D01*
X019629Y012275D02*
X019179Y012275D01*
X019179Y012267D01*
X019191Y012193D01*
X019214Y012121D01*
X019249Y012054D01*
X019293Y011992D01*
X019346Y011939D01*
X019407Y011895D01*
X019475Y011860D01*
X019547Y011837D01*
X019621Y011825D01*
X019629Y011825D01*
X019629Y012275D01*
X019689Y012283D02*
X022991Y012283D01*
X022989Y012278D02*
X022989Y012032D01*
X023083Y011804D01*
X023258Y011629D01*
X023292Y011615D01*
X023183Y011506D01*
X023089Y011278D01*
X023089Y011032D01*
X023183Y010804D01*
X023292Y010695D01*
X023258Y010681D01*
X023083Y010506D01*
X022989Y010278D01*
X022989Y010032D01*
X023083Y009804D01*
X023258Y009629D01*
X023486Y009535D01*
X023732Y009535D01*
X023960Y009629D01*
X024009Y009678D01*
X024009Y000825D01*
X001329Y000825D01*
X001329Y024481D01*
X024009Y024481D01*
X024009Y013702D01*
X023832Y013775D01*
X023586Y013775D01*
X023358Y013681D01*
X023183Y013506D01*
X023089Y013278D01*
X023089Y013032D01*
X023183Y012804D01*
X023292Y012695D01*
X023258Y012681D01*
X023083Y012506D01*
X022989Y012278D01*
X022989Y012185D02*
X022383Y012185D01*
X022485Y012143D02*
X022273Y012230D01*
X022045Y012230D01*
X021833Y012143D01*
X021672Y011981D01*
X021605Y011820D01*
X021599Y011837D01*
X021565Y011904D01*
X021521Y011965D01*
X021468Y012017D01*
X021408Y012061D01*
X021341Y012095D01*
X021270Y012118D01*
X021196Y012130D01*
X021178Y012130D01*
X021178Y011674D01*
X021140Y011674D01*
X021140Y011636D01*
X021178Y011636D01*
X021178Y011180D01*
X021196Y011180D01*
X021270Y011192D01*
X021341Y011215D01*
X021408Y011249D01*
X021468Y011293D01*
X021521Y011346D01*
X021565Y011406D01*
X021599Y011473D01*
X021605Y011490D01*
X021672Y011329D01*
X021833Y011168D01*
X021864Y011155D01*
X021833Y011143D01*
X021672Y010981D01*
X021605Y010820D01*
X021599Y010837D01*
X021565Y010904D01*
X021521Y010965D01*
X021468Y011017D01*
X021408Y011061D01*
X021341Y011095D01*
X021270Y011118D01*
X021196Y011130D01*
X021178Y011130D01*
X021178Y010674D01*
X021140Y010674D01*
X021140Y010636D01*
X021178Y010636D01*
X021178Y010180D01*
X021196Y010180D01*
X021270Y010192D01*
X021341Y010215D01*
X021408Y010249D01*
X021468Y010293D01*
X021521Y010346D01*
X021565Y010406D01*
X021599Y010473D01*
X021605Y010490D01*
X021672Y010329D01*
X021833Y010168D01*
X021913Y010135D01*
X021889Y010077D01*
X021889Y009953D01*
X021889Y007584D01*
X020416Y006111D01*
X020369Y005997D01*
X020369Y005873D01*
X020369Y004227D01*
X020258Y004181D01*
X020083Y004006D01*
X019706Y004006D01*
X019685Y004056D02*
X019779Y003828D01*
X019779Y003582D01*
X019685Y003354D01*
X019536Y003205D01*
X019685Y003056D01*
X019779Y002828D01*
X019779Y002582D01*
X019685Y002354D01*
X019510Y002179D01*
X019434Y002148D01*
X019498Y002102D01*
X019556Y002044D01*
X019604Y001978D01*
X019641Y001905D01*
X019666Y001827D01*
X019678Y001755D01*
X019209Y001755D01*
X019209Y001655D01*
X019209Y001187D01*
X019281Y001198D01*
X019359Y001223D01*
X019432Y001260D01*
X019498Y001308D01*
X019556Y001366D01*
X019604Y001433D01*
X019641Y001505D01*
X019666Y001583D01*
X019678Y001655D01*
X019209Y001655D01*
X019109Y001655D01*
X019109Y001187D01*
X019037Y001198D01*
X018959Y001223D01*
X018886Y001260D01*
X018820Y001308D01*
X018762Y001366D01*
X018714Y001433D01*
X018677Y001505D01*
X018672Y001521D01*
X018666Y001483D01*
X018641Y001405D01*
X018604Y001333D01*
X018556Y001266D01*
X018498Y001208D01*
X018432Y001160D01*
X018359Y001123D01*
X018281Y001098D01*
X018209Y001087D01*
X018209Y001555D01*
X018109Y001555D01*
X018109Y001087D01*
X018037Y001098D01*
X017959Y001123D01*
X017886Y001160D01*
X017820Y001208D01*
X017762Y001266D01*
X017714Y001333D01*
X017677Y001405D01*
X017652Y001483D01*
X017646Y001521D01*
X017641Y001505D01*
X017604Y001433D01*
X017556Y001366D01*
X017498Y001308D01*
X017432Y001260D01*
X017359Y001223D01*
X017281Y001198D01*
X017209Y001187D01*
X017209Y001655D01*
X017109Y001655D01*
X017109Y001187D01*
X017037Y001198D01*
X016959Y001223D01*
X016886Y001260D01*
X016820Y001308D01*
X016762Y001366D01*
X016714Y001433D01*
X016677Y001505D01*
X016672Y001521D01*
X016666Y001483D01*
X016641Y001405D01*
X016604Y001333D01*
X016556Y001266D01*
X016498Y001208D01*
X016432Y001160D01*
X016359Y001123D01*
X016281Y001098D01*
X016209Y001087D01*
X016209Y001555D01*
X016109Y001555D01*
X016109Y001087D01*
X016037Y001098D01*
X015959Y001123D01*
X015886Y001160D01*
X015820Y001208D01*
X015762Y001266D01*
X015714Y001333D01*
X015677Y001405D01*
X015652Y001483D01*
X015646Y001521D01*
X015641Y001505D01*
X015604Y001433D01*
X015556Y001366D01*
X015498Y001308D01*
X015432Y001260D01*
X015359Y001223D01*
X015281Y001198D01*
X015209Y001187D01*
X015209Y001655D01*
X015109Y001655D01*
X015109Y001187D01*
X015037Y001198D01*
X014959Y001223D01*
X014886Y001260D01*
X014820Y001308D01*
X014762Y001366D01*
X014714Y001433D01*
X014677Y001505D01*
X014672Y001521D01*
X014666Y001483D01*
X014641Y001405D01*
X014604Y001333D01*
X014556Y001266D01*
X014498Y001208D01*
X014432Y001160D01*
X014359Y001123D01*
X014281Y001098D01*
X014209Y001087D01*
X014209Y001555D01*
X014109Y001555D01*
X014109Y001087D01*
X014037Y001098D01*
X013959Y001123D01*
X013886Y001160D01*
X013820Y001208D01*
X013762Y001266D01*
X013714Y001333D01*
X013677Y001405D01*
X013652Y001483D01*
X013646Y001521D01*
X013641Y001505D01*
X013604Y001433D01*
X013556Y001366D01*
X013498Y001308D01*
X013432Y001260D01*
X013359Y001223D01*
X013281Y001198D01*
X013209Y001187D01*
X013209Y001655D01*
X013109Y001655D01*
X013109Y001187D01*
X013037Y001198D01*
X012959Y001223D01*
X012886Y001260D01*
X012820Y001308D01*
X012762Y001366D01*
X012714Y001433D01*
X012677Y001505D01*
X012672Y001521D01*
X012666Y001483D01*
X012641Y001405D01*
X012604Y001333D01*
X012556Y001266D01*
X012498Y001208D01*
X012432Y001160D01*
X012359Y001123D01*
X012281Y001098D01*
X012209Y001087D01*
X012209Y001555D01*
X012109Y001555D01*
X012109Y001087D01*
X012037Y001098D01*
X011959Y001123D01*
X011886Y001160D01*
X011820Y001208D01*
X011762Y001266D01*
X011714Y001333D01*
X011677Y001405D01*
X011652Y001483D01*
X011646Y001521D01*
X011641Y001505D01*
X011604Y001433D01*
X011556Y001366D01*
X011498Y001308D01*
X011432Y001260D01*
X011359Y001223D01*
X011281Y001198D01*
X011209Y001187D01*
X011209Y001655D01*
X011109Y001655D01*
X011109Y001187D01*
X011037Y001198D01*
X010959Y001223D01*
X010886Y001260D01*
X010820Y001308D01*
X010762Y001366D01*
X010714Y001433D01*
X010677Y001505D01*
X010652Y001583D01*
X010640Y001655D01*
X011109Y001655D01*
X011109Y001755D01*
X010640Y001755D01*
X010652Y001827D01*
X010677Y001905D01*
X010714Y001978D01*
X010762Y002044D01*
X010820Y002102D01*
X010884Y002148D01*
X010808Y002179D01*
X010633Y002354D01*
X010539Y002582D01*
X010539Y002828D01*
X010633Y003056D01*
X010782Y003205D01*
X010633Y003354D01*
X010539Y003582D01*
X010539Y003828D01*
X010633Y004056D01*
X010808Y004231D01*
X011036Y004325D01*
X011282Y004325D01*
X011433Y004263D01*
X010416Y005279D01*
X010369Y005393D01*
X010369Y005485D01*
X010369Y005485D01*
X010190Y005485D01*
X010024Y005554D01*
X009898Y005680D01*
X009829Y005846D01*
X009829Y005947D01*
X009515Y006261D01*
X009459Y006206D01*
X009264Y006125D01*
X009067Y006125D01*
X007822Y004879D01*
X007735Y004792D01*
X006717Y003775D01*
X006782Y003775D01*
X007010Y003681D01*
X007159Y003532D01*
X007308Y003681D01*
X007536Y003775D01*
X007782Y003775D01*
X008010Y003681D01*
X008185Y003506D01*
X008216Y003430D01*
X008262Y003494D01*
X008320Y003552D01*
X008386Y003600D01*
X008459Y003637D01*
X008537Y003662D01*
X008609Y003674D01*
X008609Y003205D01*
X008709Y003205D01*
X009140Y003205D01*
X009609Y003205D01*
X009609Y003105D01*
X009709Y003105D01*
X009709Y002637D01*
X009781Y002648D01*
X009859Y002673D01*
X009932Y002710D01*
X009998Y002758D01*
X010056Y002816D01*
X010104Y002883D01*
X010141Y002955D01*
X010166Y003033D01*
X010178Y003105D01*
X009709Y003105D01*
X009709Y003205D01*
X010178Y003205D01*
X010166Y003277D01*
X010141Y003355D01*
X010104Y003428D01*
X010056Y003494D01*
X009998Y003552D01*
X009932Y003600D01*
X009859Y003637D01*
X009781Y003662D01*
X009709Y003674D01*
X009709Y003205D01*
X009609Y003205D01*
X009609Y003674D01*
X009537Y003662D01*
X009459Y003637D01*
X009386Y003600D01*
X009320Y003552D01*
X009262Y003494D01*
X009214Y003428D01*
X009177Y003355D01*
X009159Y003299D01*
X009141Y003355D01*
X009104Y003428D01*
X009056Y003494D01*
X008998Y003552D01*
X008932Y003600D01*
X008859Y003637D01*
X008781Y003662D01*
X008709Y003674D01*
X008709Y003205D01*
X008709Y003105D01*
X008709Y002637D01*
X008781Y002648D01*
X008859Y002673D01*
X008932Y002710D01*
X008998Y002758D01*
X009056Y002816D01*
X009104Y002883D01*
X009141Y002955D01*
X009159Y003011D01*
X009177Y002955D01*
X009214Y002883D01*
X009262Y002816D01*
X009320Y002758D01*
X009386Y002710D01*
X009459Y002673D01*
X009537Y002648D01*
X009609Y002637D01*
X009609Y003105D01*
X009140Y003105D01*
X008709Y003105D01*
X008609Y003105D01*
X008609Y002637D01*
X008537Y002648D01*
X008459Y002673D01*
X008386Y002710D01*
X008320Y002758D01*
X008262Y002816D01*
X008216Y002880D01*
X008185Y002804D01*
X008010Y002629D01*
X007782Y002535D01*
X007536Y002535D01*
X007308Y002629D01*
X007159Y002778D01*
X007010Y002629D01*
X006782Y002535D01*
X006536Y002535D01*
X006308Y002629D01*
X006159Y002778D01*
X006010Y002629D01*
X005782Y002535D01*
X005536Y002535D01*
X005308Y002629D01*
X005159Y002778D01*
X005010Y002629D01*
X004782Y002535D01*
X004536Y002535D01*
X004308Y002629D01*
X004133Y002804D01*
X004039Y003032D01*
X004039Y003278D01*
X004126Y003489D01*
X003776Y003839D01*
X003729Y003953D01*
X003729Y004077D01*
X003729Y006477D01*
X003776Y006591D01*
X003863Y006678D01*
X004423Y007238D01*
X004537Y007285D01*
X004661Y007285D01*
X004871Y007285D01*
X005096Y007511D01*
X005084Y007541D01*
X005084Y007769D01*
X005172Y007981D01*
X005333Y008143D01*
X005364Y008155D01*
X005333Y008168D01*
X005172Y008329D01*
X005084Y008541D01*
X005084Y008769D01*
X005172Y008981D01*
X005333Y009143D01*
X005545Y009230D01*
X005773Y009230D01*
X005985Y009143D01*
X006146Y008981D01*
X006234Y008769D01*
X006234Y008541D01*
X006146Y008329D01*
X005985Y008168D01*
X005954Y008155D01*
X005985Y008143D01*
X006146Y007981D01*
X006234Y007769D01*
X006234Y007541D01*
X006146Y007329D01*
X006025Y007208D01*
X006054Y007197D01*
X006181Y007070D01*
X006249Y006905D01*
X006249Y006804D01*
X007559Y005493D01*
X008191Y006125D01*
X008054Y006125D01*
X007859Y006206D01*
X007710Y006355D01*
X007659Y006477D01*
X007608Y006355D01*
X007459Y006206D01*
X007264Y006125D01*
X007054Y006125D01*
X006859Y006206D01*
X006710Y006355D01*
X006629Y006550D01*
X006629Y006761D01*
X006710Y006955D01*
X006859Y007104D01*
X007054Y007185D01*
X007264Y007185D01*
X007459Y007104D01*
X007608Y006955D01*
X007659Y006833D01*
X007710Y006955D01*
X007859Y007104D01*
X008054Y007185D01*
X008264Y007185D01*
X008459Y007104D01*
X008608Y006955D01*
X008659Y006833D01*
X008710Y006955D01*
X008859Y007104D01*
X009054Y007185D01*
X009264Y007185D01*
X009459Y007104D01*
X009515Y007049D01*
X010971Y008505D01*
X006821Y008505D01*
X006697Y008505D01*
X006583Y008552D01*
X005831Y009305D01*
X005047Y009305D01*
X002709Y006966D01*
X002651Y006827D01*
X002488Y006663D01*
X002371Y006615D01*
X002492Y006615D01*
X002702Y006528D01*
X002862Y006368D01*
X002949Y006159D01*
X002949Y005932D01*
X002862Y005722D01*
X002702Y005562D01*
X002492Y005475D01*
X002266Y005475D01*
X002056Y005562D01*
X001896Y005722D01*
X001809Y005932D01*
X001809Y006159D01*
X001896Y006368D01*
X002056Y006528D01*
X002169Y006575D01*
X002044Y006575D01*
X001831Y006663D01*
X001667Y006827D01*
X001579Y007040D01*
X001579Y007270D01*
X001667Y007484D01*
X001831Y007647D01*
X001851Y007655D01*
X001831Y007663D01*
X001667Y007827D01*
X001579Y008040D01*
X001579Y008270D01*
X001667Y008484D01*
X001831Y008647D01*
X001851Y008655D01*
X001831Y008663D01*
X001667Y008827D01*
X001579Y009040D01*
X001579Y009270D01*
X001667Y009484D01*
X001831Y009647D01*
X001851Y009655D01*
X001831Y009663D01*
X001667Y009827D01*
X001579Y010040D01*
X001579Y010270D01*
X001667Y010484D01*
X001831Y010647D01*
X001851Y010655D01*
X001831Y010663D01*
X001667Y010827D01*
X001579Y011040D01*
X001579Y011270D01*
X001667Y011484D01*
X001831Y011647D01*
X001851Y011655D01*
X001831Y011663D01*
X001667Y011827D01*
X001579Y012040D01*
X001579Y012270D01*
X001667Y012484D01*
X001831Y012647D01*
X001980Y012709D01*
X001975Y012710D01*
X001907Y012745D01*
X001846Y012789D01*
X001793Y012842D01*
X001749Y012904D01*
X001714Y012971D01*
X001691Y013043D01*
X001679Y013117D01*
X001679Y013126D01*
X002130Y013126D01*
X002130Y013184D01*
X001679Y013184D01*
X001679Y013193D01*
X001691Y013268D01*
X001714Y013339D01*
X001749Y013407D01*
X001793Y013468D01*
X001846Y013521D01*
X001907Y013566D01*
X001975Y013600D01*
X002047Y013623D01*
X002121Y013635D01*
X002130Y013635D01*
X002130Y013184D01*
X002188Y013184D01*
X002639Y013184D01*
X002639Y013193D01*
X002627Y013268D01*
X002604Y013339D01*
X002570Y013407D01*
X002525Y013468D01*
X002472Y013521D01*
X002411Y013566D01*
X002343Y013600D01*
X002271Y013623D01*
X002197Y013635D01*
X002188Y013635D01*
X002188Y013184D01*
X002188Y013126D01*
X002639Y013126D01*
X002639Y013117D01*
X002627Y013043D01*
X002604Y012971D01*
X002570Y012904D01*
X002525Y012842D01*
X002472Y012789D01*
X002411Y012745D01*
X002343Y012710D01*
X002338Y012709D01*
X002488Y012647D01*
X002651Y012484D01*
X002739Y012270D01*
X002739Y012040D01*
X002651Y011827D01*
X002488Y011663D01*
X002467Y011655D01*
X002488Y011647D01*
X002651Y011484D01*
X002739Y011270D01*
X002739Y011040D01*
X002651Y010827D01*
X002488Y010663D01*
X002467Y010655D01*
X002488Y010647D01*
X002651Y010484D01*
X002739Y010270D01*
X002739Y010040D01*
X002651Y009827D01*
X002488Y009663D01*
X002467Y009655D01*
X002488Y009647D01*
X002651Y009484D01*
X002739Y009270D01*
X002739Y009040D01*
X002651Y008827D01*
X002488Y008663D01*
X002467Y008655D01*
X002488Y008647D01*
X002651Y008484D01*
X002739Y008270D01*
X002739Y008040D01*
X002651Y007827D01*
X002488Y007663D01*
X002467Y007655D01*
X002488Y007647D01*
X002500Y007634D01*
X004743Y009878D01*
X004857Y009925D01*
X004981Y009925D01*
X006021Y009925D01*
X006135Y009878D01*
X006222Y009791D01*
X006887Y009125D01*
X011031Y009125D01*
X011037Y009132D01*
X010859Y009206D01*
X010710Y009355D01*
X010659Y009477D01*
X010608Y009355D01*
X010459Y009206D01*
X010264Y009125D01*
X010054Y009125D01*
X009859Y009206D01*
X009710Y009355D01*
X009659Y009477D01*
X009608Y009355D01*
X009459Y009206D01*
X009264Y009125D01*
X009054Y009125D01*
X008859Y009206D01*
X008710Y009355D01*
X008659Y009477D01*
X008608Y009355D01*
X008459Y009206D01*
X008264Y009125D01*
X008054Y009125D01*
X007859Y009206D01*
X007710Y009355D01*
X007659Y009477D01*
X007608Y009355D01*
X007459Y009206D01*
X007264Y009125D01*
X007054Y009125D01*
X006859Y009206D01*
X006710Y009355D01*
X006629Y009550D01*
X006629Y009761D01*
X006710Y009955D01*
X006859Y010104D01*
X007054Y010185D01*
X007264Y010185D01*
X007459Y010104D01*
X007608Y009955D01*
X007659Y009833D01*
X007710Y009955D01*
X007859Y010104D01*
X008054Y010185D01*
X008264Y010185D01*
X008459Y010104D01*
X008608Y009955D01*
X008659Y009833D01*
X008710Y009955D01*
X008859Y010104D01*
X009054Y010185D01*
X009264Y010185D01*
X009459Y010104D01*
X009608Y009955D01*
X009659Y009833D01*
X009710Y009955D01*
X009859Y010104D01*
X010054Y010185D01*
X010264Y010185D01*
X010459Y010104D01*
X010608Y009955D01*
X010659Y009833D01*
X010710Y009955D01*
X010859Y010104D01*
X011054Y010185D01*
X011264Y010185D01*
X011459Y010104D01*
X011608Y009955D01*
X011659Y009833D01*
X011710Y009955D01*
X011859Y010104D01*
X012054Y010185D01*
X012264Y010185D01*
X012459Y010104D01*
X012608Y009955D01*
X012689Y009761D01*
X012689Y009550D01*
X012608Y009355D01*
X012459Y009206D01*
X012264Y009125D01*
X012087Y009125D01*
X012087Y009125D01*
X017061Y009125D01*
X017175Y009078D01*
X017262Y008991D01*
X019067Y007185D01*
X019264Y007185D01*
X019459Y007104D01*
X019608Y006955D01*
X019659Y006833D01*
X019710Y006955D01*
X019859Y007104D01*
X020054Y007185D01*
X020264Y007185D01*
X020459Y007104D01*
X020608Y006955D01*
X020689Y006761D01*
X020689Y006550D01*
X020608Y006355D01*
X020459Y006206D01*
X020264Y006125D01*
X020054Y006125D01*
X019859Y006206D01*
X019710Y006355D01*
X019659Y006477D01*
X019608Y006355D01*
X019459Y006206D01*
X019264Y006125D01*
X019054Y006125D01*
X018859Y006206D01*
X018710Y006355D01*
X018659Y006477D01*
X018608Y006355D01*
X018509Y006256D01*
X018509Y005024D01*
X019207Y004325D01*
X019282Y004325D01*
X019510Y004231D01*
X019685Y004056D01*
X019637Y004104D02*
X020181Y004104D01*
X020083Y004006D02*
X019989Y003778D01*
X019989Y003532D01*
X020083Y003304D01*
X020258Y003129D01*
X020292Y003115D01*
X020183Y003006D01*
X020089Y002778D01*
X020089Y002532D01*
X020183Y002304D01*
X020292Y002195D01*
X020258Y002181D01*
X020083Y002006D01*
X019989Y001778D01*
X019989Y001532D01*
X020083Y001304D01*
X020258Y001129D01*
X020486Y001035D01*
X020732Y001035D01*
X020960Y001129D01*
X021135Y001304D01*
X021229Y001532D01*
X021229Y001778D01*
X021135Y002006D01*
X021026Y002115D01*
X021060Y002129D01*
X021235Y002304D01*
X021329Y002532D01*
X021329Y002778D01*
X021235Y003006D01*
X021060Y003181D01*
X021026Y003195D01*
X021135Y003304D01*
X021229Y003532D01*
X021229Y003778D01*
X021135Y004006D01*
X021708Y004006D01*
X021719Y003973D02*
X021753Y003906D01*
X021797Y003846D01*
X021850Y003793D01*
X021910Y003749D01*
X021977Y003715D01*
X022048Y003692D01*
X022122Y003680D01*
X022140Y003680D01*
X022140Y004136D01*
X022178Y004136D01*
X022178Y003680D01*
X022196Y003680D01*
X022270Y003692D01*
X022341Y003715D01*
X022408Y003749D01*
X022468Y003793D01*
X022521Y003846D01*
X022565Y003906D01*
X022599Y003973D01*
X022605Y003990D01*
X022672Y003829D01*
X022833Y003668D01*
X023045Y003580D01*
X023273Y003580D01*
X023485Y003668D01*
X023646Y003829D01*
X023734Y004041D01*
X023734Y004269D01*
X023646Y004481D01*
X023485Y004643D01*
X023273Y004730D01*
X023045Y004730D01*
X022833Y004643D01*
X022672Y004481D01*
X022605Y004320D01*
X022599Y004337D01*
X022565Y004404D01*
X022521Y004465D01*
X022468Y004517D01*
X022408Y004561D01*
X022341Y004595D01*
X022270Y004618D01*
X022196Y004630D01*
X022178Y004630D01*
X022178Y004174D01*
X022140Y004174D01*
X022140Y004136D01*
X021684Y004136D01*
X021684Y004118D01*
X021696Y004044D01*
X021719Y003973D01*
X021752Y003907D02*
X021176Y003907D01*
X021217Y003809D02*
X021834Y003809D01*
X021992Y003710D02*
X021229Y003710D01*
X021229Y003611D02*
X022969Y003611D01*
X022791Y003710D02*
X022326Y003710D01*
X022178Y003710D02*
X022140Y003710D01*
X022140Y003809D02*
X022178Y003809D01*
X022178Y003907D02*
X022140Y003907D01*
X022140Y004006D02*
X022178Y004006D01*
X022178Y004104D02*
X022140Y004104D01*
X022140Y004174D02*
X021684Y004174D01*
X021684Y004192D01*
X021696Y004266D01*
X021719Y004337D01*
X021753Y004404D01*
X021797Y004465D01*
X021850Y004517D01*
X021910Y004561D01*
X021977Y004595D01*
X022048Y004618D01*
X022122Y004630D01*
X022140Y004630D01*
X022140Y004174D01*
X022140Y004203D02*
X022178Y004203D01*
X022178Y004301D02*
X022140Y004301D01*
X022140Y004400D02*
X022178Y004400D01*
X022178Y004498D02*
X022140Y004498D01*
X022140Y004597D02*
X022178Y004597D01*
X022337Y004597D02*
X022788Y004597D01*
X022689Y004498D02*
X022488Y004498D01*
X022567Y004400D02*
X022638Y004400D01*
X022961Y004695D02*
X020989Y004695D01*
X020989Y004597D02*
X021982Y004597D01*
X021831Y004498D02*
X020989Y004498D01*
X020989Y004400D02*
X021751Y004400D01*
X021707Y004301D02*
X020989Y004301D01*
X020989Y004203D02*
X021686Y004203D01*
X021686Y004104D02*
X021037Y004104D01*
X020989Y004152D02*
X020989Y005807D01*
X022375Y007192D01*
X022462Y007279D01*
X022509Y007393D01*
X022509Y009887D01*
X022855Y010232D01*
X022942Y010319D01*
X022989Y010433D01*
X022989Y010753D01*
X022989Y010877D01*
X022942Y010991D01*
X022625Y011308D01*
X022646Y011329D01*
X022734Y011541D01*
X022734Y011769D01*
X022646Y011981D01*
X022485Y012143D01*
X022541Y012086D02*
X022989Y012086D01*
X023007Y011988D02*
X022640Y011988D01*
X022685Y011889D02*
X023048Y011889D01*
X023097Y011791D02*
X022725Y011791D01*
X022734Y011692D02*
X023195Y011692D01*
X023271Y011593D02*
X022734Y011593D01*
X022715Y011495D02*
X023179Y011495D01*
X023138Y011396D02*
X022674Y011396D01*
X022635Y011298D02*
X023097Y011298D01*
X023089Y011199D02*
X022733Y011199D01*
X022832Y011101D02*
X023089Y011101D01*
X023101Y011002D02*
X022930Y011002D01*
X022978Y010904D02*
X023142Y010904D01*
X023183Y010805D02*
X022989Y010805D01*
X022989Y010707D02*
X023281Y010707D01*
X023185Y010608D02*
X022989Y010608D01*
X022989Y010509D02*
X023087Y010509D01*
X023044Y010411D02*
X022980Y010411D01*
X023003Y010312D02*
X022935Y010312D01*
X022989Y010214D02*
X022836Y010214D01*
X022738Y010115D02*
X022989Y010115D01*
X022995Y010017D02*
X022639Y010017D01*
X022541Y009918D02*
X023036Y009918D01*
X023077Y009820D02*
X022509Y009820D01*
X022509Y009721D02*
X023166Y009721D01*
X023275Y009623D02*
X022509Y009623D01*
X022509Y009524D02*
X024009Y009524D01*
X024009Y009425D02*
X022509Y009425D01*
X022509Y009327D02*
X024009Y009327D01*
X024009Y009228D02*
X022509Y009228D01*
X022509Y009130D02*
X024009Y009130D01*
X024009Y009031D02*
X022509Y009031D01*
X022509Y008933D02*
X024009Y008933D01*
X024009Y008834D02*
X022509Y008834D01*
X022509Y008736D02*
X024009Y008736D01*
X024009Y008637D02*
X023490Y008637D01*
X023485Y008643D02*
X023273Y008730D01*
X023045Y008730D01*
X022833Y008643D01*
X022672Y008481D01*
X022584Y008269D01*
X022584Y008041D01*
X022672Y007829D01*
X022833Y007668D01*
X023045Y007580D01*
X023273Y007580D01*
X023485Y007668D01*
X023646Y007829D01*
X023734Y008041D01*
X023734Y008269D01*
X023646Y008481D01*
X023485Y008643D01*
X023589Y008539D02*
X024009Y008539D01*
X024009Y008440D02*
X023663Y008440D01*
X023704Y008341D02*
X024009Y008341D01*
X024009Y008243D02*
X023734Y008243D01*
X023734Y008144D02*
X024009Y008144D01*
X024009Y008046D02*
X023734Y008046D01*
X023695Y007947D02*
X024009Y007947D01*
X024009Y007849D02*
X023655Y007849D01*
X023567Y007750D02*
X024009Y007750D01*
X024009Y007652D02*
X023446Y007652D01*
X022872Y007652D02*
X022509Y007652D01*
X022509Y007750D02*
X022751Y007750D01*
X022664Y007849D02*
X022509Y007849D01*
X022509Y007947D02*
X022623Y007947D01*
X022584Y008046D02*
X022509Y008046D01*
X022509Y008144D02*
X022584Y008144D01*
X022584Y008243D02*
X022509Y008243D01*
X022509Y008341D02*
X022614Y008341D01*
X022655Y008440D02*
X022509Y008440D01*
X022509Y008539D02*
X022729Y008539D01*
X022828Y008637D02*
X022509Y008637D01*
X021889Y008637D02*
X017615Y008637D01*
X017517Y008736D02*
X021889Y008736D01*
X021889Y008834D02*
X017418Y008834D01*
X017320Y008933D02*
X021889Y008933D01*
X021889Y009031D02*
X017221Y009031D01*
X017276Y009130D02*
X018042Y009130D01*
X017836Y009228D02*
X017482Y009228D01*
X017580Y009327D02*
X017738Y009327D01*
X017681Y009425D02*
X017638Y009425D01*
X017661Y009918D02*
X017694Y009918D01*
X017759Y010017D02*
X017771Y010017D01*
X017858Y010115D02*
X017885Y010115D01*
X017956Y010214D02*
X020980Y010214D01*
X020977Y010215D02*
X021048Y010192D01*
X021122Y010180D01*
X021140Y010180D01*
X021140Y010636D01*
X020684Y010636D01*
X020684Y010618D01*
X020696Y010544D01*
X020719Y010473D01*
X020753Y010406D01*
X020797Y010346D01*
X020850Y010293D01*
X020910Y010249D01*
X020977Y010215D01*
X021140Y010214D02*
X021178Y010214D01*
X021178Y010312D02*
X021140Y010312D01*
X021140Y010411D02*
X021178Y010411D01*
X021178Y010509D02*
X021140Y010509D01*
X021140Y010608D02*
X021178Y010608D01*
X021140Y010674D02*
X020684Y010674D01*
X020684Y010692D01*
X020696Y010766D01*
X020719Y010837D01*
X020753Y010904D01*
X020797Y010965D01*
X020850Y011017D01*
X020910Y011061D01*
X020977Y011095D01*
X021048Y011118D01*
X021122Y011130D01*
X021140Y011130D01*
X021140Y010674D01*
X021140Y010707D02*
X021178Y010707D01*
X021178Y010805D02*
X021140Y010805D01*
X021140Y010904D02*
X021178Y010904D01*
X021178Y011002D02*
X021140Y011002D01*
X021140Y011101D02*
X021178Y011101D01*
X021140Y011180D02*
X021140Y011636D01*
X020684Y011636D01*
X020684Y011618D01*
X020696Y011544D01*
X020719Y011473D01*
X020753Y011406D01*
X020797Y011346D01*
X020850Y011293D01*
X020910Y011249D01*
X020977Y011215D01*
X021048Y011192D01*
X021122Y011180D01*
X021140Y011180D01*
X021140Y011199D02*
X021178Y011199D01*
X021178Y011298D02*
X021140Y011298D01*
X021140Y011396D02*
X021178Y011396D01*
X021178Y011495D02*
X021140Y011495D01*
X021140Y011593D02*
X021178Y011593D01*
X021140Y011674D02*
X020684Y011674D01*
X020684Y011692D01*
X018429Y011692D01*
X018429Y011791D02*
X020704Y011791D01*
X020696Y011766D02*
X020684Y011692D01*
X020696Y011766D02*
X020719Y011837D01*
X020753Y011904D01*
X020797Y011965D01*
X020850Y012017D01*
X020910Y012061D01*
X020977Y012095D01*
X021048Y012118D01*
X021122Y012130D01*
X021140Y012130D01*
X021140Y011674D01*
X021140Y011692D02*
X021178Y011692D01*
X021178Y011791D02*
X021140Y011791D01*
X021140Y011889D02*
X021178Y011889D01*
X021178Y011988D02*
X021140Y011988D01*
X021140Y012086D02*
X021178Y012086D01*
X021359Y012086D02*
X021777Y012086D01*
X021678Y011988D02*
X021498Y011988D01*
X021573Y011889D02*
X021634Y011889D01*
X021644Y011396D02*
X021558Y011396D01*
X021473Y011298D02*
X021703Y011298D01*
X021802Y011199D02*
X021293Y011199D01*
X021325Y011101D02*
X021791Y011101D01*
X021693Y011002D02*
X021484Y011002D01*
X021566Y010904D02*
X021640Y010904D01*
X021638Y010411D02*
X021568Y010411D01*
X021488Y010312D02*
X021689Y010312D01*
X021787Y010214D02*
X021338Y010214D01*
X020830Y010312D02*
X018055Y010312D01*
X018153Y010411D02*
X020750Y010411D01*
X020707Y010509D02*
X018252Y010509D01*
X018350Y010608D02*
X020686Y010608D01*
X020686Y010707D02*
X018410Y010707D01*
X018429Y010805D02*
X020708Y010805D01*
X020753Y010904D02*
X018429Y010904D01*
X018429Y011002D02*
X020834Y011002D01*
X020993Y011101D02*
X018429Y011101D01*
X018429Y011199D02*
X021025Y011199D01*
X020845Y011298D02*
X018429Y011298D01*
X018429Y011396D02*
X020760Y011396D01*
X020712Y011495D02*
X018429Y011495D01*
X018429Y011593D02*
X020688Y011593D01*
X020745Y011889D02*
X019900Y011889D01*
X020020Y011988D02*
X020820Y011988D01*
X020959Y012086D02*
X020086Y012086D01*
X020125Y012185D02*
X021935Y012185D01*
X022045Y013080D02*
X022273Y013080D01*
X022485Y013168D01*
X022646Y013329D01*
X022734Y013541D01*
X022734Y013769D01*
X022646Y013981D01*
X022485Y014143D01*
X022273Y014230D01*
X022045Y014230D01*
X021833Y014143D01*
X021672Y013981D01*
X021605Y013820D01*
X021599Y013837D01*
X021565Y013904D01*
X021521Y013965D01*
X021468Y014017D01*
X021408Y014061D01*
X021341Y014095D01*
X021270Y014118D01*
X021196Y014130D01*
X021178Y014130D01*
X021178Y013674D01*
X021140Y013674D01*
X021140Y013636D01*
X021178Y013636D01*
X021178Y013180D01*
X021196Y013180D01*
X021270Y013192D01*
X021341Y013215D01*
X021408Y013249D01*
X021468Y013293D01*
X021521Y013346D01*
X021565Y013406D01*
X021599Y013473D01*
X021605Y013490D01*
X021672Y013329D01*
X021833Y013168D01*
X022045Y013080D01*
X021831Y013170D02*
X020239Y013170D01*
X020239Y013072D02*
X023089Y013072D01*
X023089Y013170D02*
X022487Y013170D01*
X022586Y013269D02*
X023089Y013269D01*
X023126Y013367D02*
X022662Y013367D01*
X022703Y013466D02*
X023167Y013466D01*
X023241Y013564D02*
X022734Y013564D01*
X022734Y013663D02*
X023340Y013663D01*
X023553Y013761D02*
X022734Y013761D01*
X022697Y013860D02*
X024009Y013860D01*
X024009Y013958D02*
X022656Y013958D01*
X022570Y014057D02*
X024009Y014057D01*
X024009Y014156D02*
X022453Y014156D01*
X021865Y014156D02*
X020224Y014156D01*
X020239Y014057D02*
X020904Y014057D01*
X020910Y014061D02*
X020850Y014017D01*
X020797Y013965D01*
X020753Y013904D01*
X020719Y013837D01*
X020696Y013766D01*
X020684Y013692D01*
X020684Y013674D01*
X021140Y013674D01*
X021140Y014130D01*
X021122Y014130D01*
X021048Y014118D01*
X020977Y014095D01*
X020910Y014061D01*
X020792Y013958D02*
X020239Y013958D01*
X020227Y013860D02*
X020730Y013860D01*
X020695Y013761D02*
X020186Y013761D01*
X020137Y013663D02*
X021140Y013663D01*
X021140Y013636D02*
X020684Y013636D01*
X020684Y013618D01*
X020696Y013544D01*
X020719Y013473D01*
X020753Y013406D01*
X020797Y013346D01*
X020850Y013293D01*
X020910Y013249D01*
X020977Y013215D01*
X021048Y013192D01*
X021122Y013180D01*
X021140Y013180D01*
X021140Y013636D01*
X021140Y013564D02*
X021178Y013564D01*
X021178Y013466D02*
X021140Y013466D01*
X021140Y013367D02*
X021178Y013367D01*
X021178Y013269D02*
X021140Y013269D01*
X020883Y013269D02*
X020239Y013269D01*
X020199Y013367D02*
X020781Y013367D01*
X020722Y013466D02*
X020158Y013466D01*
X020070Y013564D02*
X020692Y013564D01*
X021140Y013761D02*
X021178Y013761D01*
X021178Y013860D02*
X021140Y013860D01*
X021140Y013958D02*
X021178Y013958D01*
X021178Y014057D02*
X021140Y014057D01*
X021414Y014057D02*
X021748Y014057D01*
X021662Y013958D02*
X021526Y013958D01*
X021588Y013860D02*
X021622Y013860D01*
X021596Y013466D02*
X021615Y013466D01*
X021656Y013367D02*
X021537Y013367D01*
X021435Y013269D02*
X021732Y013269D01*
X023113Y012973D02*
X020211Y012973D01*
X020171Y012874D02*
X023154Y012874D01*
X023211Y012776D02*
X020100Y012776D01*
X020002Y012677D02*
X023255Y012677D01*
X023156Y012579D02*
X020053Y012579D01*
X020107Y012480D02*
X023073Y012480D01*
X023032Y012382D02*
X020133Y012382D01*
X019689Y012185D02*
X019629Y012185D01*
X019629Y012086D02*
X019689Y012086D01*
X019689Y011988D02*
X019629Y011988D01*
X019629Y011889D02*
X019689Y011889D01*
X019418Y011889D02*
X018429Y011889D01*
X018429Y011988D02*
X019298Y011988D01*
X019232Y012086D02*
X018429Y012086D01*
X018429Y012185D02*
X019193Y012185D01*
X017474Y010608D02*
X017458Y010608D01*
X017375Y010509D02*
X002625Y010509D01*
X002681Y010411D02*
X017276Y010411D01*
X017178Y010312D02*
X002722Y010312D01*
X002739Y010214D02*
X017079Y010214D01*
X016885Y010115D02*
X016433Y010115D01*
X016547Y010017D02*
X016771Y010017D01*
X016694Y009918D02*
X016624Y009918D01*
X016638Y009425D02*
X016681Y009425D01*
X016738Y009327D02*
X016580Y009327D01*
X016482Y009228D02*
X016836Y009228D01*
X017042Y009130D02*
X016276Y009130D01*
X016042Y009130D02*
X015276Y009130D01*
X015482Y009228D02*
X015836Y009228D01*
X015738Y009327D02*
X015580Y009327D01*
X015638Y009425D02*
X015681Y009425D01*
X015694Y009918D02*
X015624Y009918D01*
X015547Y010017D02*
X015771Y010017D01*
X015885Y010115D02*
X015433Y010115D01*
X014885Y010115D02*
X014433Y010115D01*
X014547Y010017D02*
X014771Y010017D01*
X014694Y009918D02*
X014624Y009918D01*
X014638Y009425D02*
X014681Y009425D01*
X014738Y009327D02*
X014580Y009327D01*
X014482Y009228D02*
X014836Y009228D01*
X015042Y009130D02*
X014276Y009130D01*
X014042Y009130D02*
X012276Y009130D01*
X012482Y009228D02*
X013105Y009228D01*
X013125Y009225D02*
X013058Y009236D01*
X012994Y009257D01*
X012934Y009287D01*
X012879Y009327D01*
X012580Y009327D01*
X012638Y009425D02*
X012794Y009425D01*
X012791Y009430D02*
X012831Y009375D01*
X012879Y009327D01*
X012791Y009430D02*
X012761Y009490D01*
X012740Y009554D01*
X012729Y009621D01*
X012729Y009625D01*
X013129Y009625D01*
X013189Y009625D01*
X013189Y009225D01*
X013193Y009225D01*
X013260Y009236D01*
X013324Y009257D01*
X013384Y009287D01*
X013439Y009327D01*
X013738Y009327D01*
X013680Y009425D02*
X013524Y009425D01*
X013527Y009430D02*
X013558Y009490D01*
X013578Y009554D01*
X013589Y009621D01*
X013589Y009625D01*
X013189Y009625D01*
X013189Y009685D01*
X013589Y009685D01*
X013589Y009689D01*
X013578Y009756D01*
X013558Y009820D01*
X013654Y009820D01*
X013558Y009820D02*
X013527Y009880D01*
X013487Y009935D01*
X013439Y009983D01*
X013384Y010023D01*
X013324Y010054D01*
X013260Y010074D01*
X013193Y010085D01*
X013189Y010085D01*
X013189Y009685D01*
X013129Y009685D01*
X013129Y009625D01*
X013129Y009225D01*
X013125Y009225D01*
X013129Y009228D02*
X013189Y009228D01*
X013214Y009228D02*
X013836Y009228D01*
X013640Y009524D02*
X013569Y009524D01*
X013589Y009623D02*
X013629Y009623D01*
X013629Y009721D02*
X013584Y009721D01*
X013499Y009918D02*
X013694Y009918D01*
X013771Y010017D02*
X013393Y010017D01*
X013189Y010017D02*
X013129Y010017D01*
X013129Y010085D02*
X013125Y010085D01*
X013058Y010074D01*
X012994Y010054D01*
X012934Y010023D01*
X012879Y009983D01*
X012831Y009935D01*
X012791Y009880D01*
X012761Y009820D01*
X012740Y009756D01*
X012729Y009689D01*
X012729Y009685D01*
X013129Y009685D01*
X013129Y010085D01*
X013129Y009918D02*
X013189Y009918D01*
X013189Y009820D02*
X013129Y009820D01*
X013129Y009721D02*
X013189Y009721D01*
X013189Y009623D02*
X013129Y009623D01*
X013129Y009524D02*
X013189Y009524D01*
X013189Y009425D02*
X013129Y009425D01*
X013129Y009327D02*
X013189Y009327D01*
X013439Y009327D02*
X013487Y009375D01*
X013527Y009430D01*
X013885Y010115D02*
X012433Y010115D01*
X012547Y010017D02*
X012925Y010017D01*
X012819Y009918D02*
X012624Y009918D01*
X012665Y009820D02*
X012760Y009820D01*
X012734Y009721D02*
X012689Y009721D01*
X012689Y009623D02*
X012729Y009623D01*
X012749Y009524D02*
X012678Y009524D01*
X011885Y010115D02*
X011433Y010115D01*
X011547Y010017D02*
X011771Y010017D01*
X011694Y009918D02*
X011624Y009918D01*
X010885Y010115D02*
X010433Y010115D01*
X010547Y010017D02*
X010771Y010017D01*
X010694Y009918D02*
X010624Y009918D01*
X010638Y009425D02*
X010680Y009425D01*
X010738Y009327D02*
X010580Y009327D01*
X010482Y009228D02*
X010836Y009228D01*
X011035Y009130D02*
X010276Y009130D01*
X010042Y009130D02*
X009276Y009130D01*
X009482Y009228D02*
X009836Y009228D01*
X009738Y009327D02*
X009580Y009327D01*
X009638Y009425D02*
X009680Y009425D01*
X009694Y009918D02*
X009624Y009918D01*
X009547Y010017D02*
X009771Y010017D01*
X009885Y010115D02*
X009433Y010115D01*
X008885Y010115D02*
X008433Y010115D01*
X008547Y010017D02*
X008771Y010017D01*
X008694Y009918D02*
X008624Y009918D01*
X008638Y009425D02*
X008680Y009425D01*
X008738Y009327D02*
X008580Y009327D01*
X008482Y009228D02*
X008836Y009228D01*
X009042Y009130D02*
X008276Y009130D01*
X008042Y009130D02*
X007276Y009130D01*
X007482Y009228D02*
X007836Y009228D01*
X007738Y009327D02*
X007580Y009327D01*
X007638Y009425D02*
X007680Y009425D01*
X007694Y009918D02*
X007624Y009918D01*
X007547Y010017D02*
X007771Y010017D01*
X007885Y010115D02*
X007433Y010115D01*
X006885Y010115D02*
X002739Y010115D01*
X002729Y010017D02*
X006771Y010017D01*
X006694Y009918D02*
X006037Y009918D01*
X006193Y009820D02*
X006654Y009820D01*
X006629Y009721D02*
X006291Y009721D01*
X006390Y009623D02*
X006629Y009623D01*
X006640Y009524D02*
X006489Y009524D01*
X006587Y009425D02*
X006680Y009425D01*
X006686Y009327D02*
X006738Y009327D01*
X006784Y009228D02*
X006836Y009228D01*
X006883Y009130D02*
X007042Y009130D01*
X006499Y008637D02*
X006234Y008637D01*
X006233Y008539D02*
X006617Y008539D01*
X006400Y008736D02*
X006234Y008736D01*
X006207Y008834D02*
X006302Y008834D01*
X006203Y008933D02*
X006166Y008933D01*
X006104Y009031D02*
X006096Y009031D01*
X006006Y009130D02*
X005997Y009130D01*
X005907Y009228D02*
X005778Y009228D01*
X005541Y009228D02*
X004971Y009228D01*
X004872Y009130D02*
X005321Y009130D01*
X005222Y009031D02*
X004774Y009031D01*
X004675Y008933D02*
X005152Y008933D01*
X005111Y008834D02*
X004576Y008834D01*
X004478Y008736D02*
X005084Y008736D01*
X005084Y008637D02*
X004379Y008637D01*
X004281Y008539D02*
X005085Y008539D01*
X005126Y008440D02*
X004182Y008440D01*
X004084Y008341D02*
X005167Y008341D01*
X005258Y008243D02*
X003985Y008243D01*
X003887Y008144D02*
X005338Y008144D01*
X005237Y008046D02*
X003788Y008046D01*
X003690Y007947D02*
X005158Y007947D01*
X005117Y007849D02*
X003591Y007849D01*
X003493Y007750D02*
X005084Y007750D01*
X005084Y007652D02*
X003394Y007652D01*
X003295Y007553D02*
X005084Y007553D01*
X005040Y007455D02*
X003197Y007455D01*
X003098Y007356D02*
X004942Y007356D01*
X004471Y007258D02*
X003000Y007258D01*
X002901Y007159D02*
X004345Y007159D01*
X004246Y007060D02*
X002803Y007060D01*
X002707Y006962D02*
X004147Y006962D01*
X004049Y006863D02*
X002666Y006863D01*
X002589Y006765D02*
X003950Y006765D01*
X003852Y006666D02*
X002490Y006666D01*
X002607Y006568D02*
X003767Y006568D01*
X003729Y006469D02*
X002761Y006469D01*
X002860Y006371D02*
X003729Y006371D01*
X003729Y006272D02*
X002902Y006272D01*
X002943Y006174D02*
X003729Y006174D01*
X003729Y006075D02*
X002949Y006075D01*
X002949Y005976D02*
X003729Y005976D01*
X003729Y005878D02*
X002927Y005878D01*
X002886Y005779D02*
X003729Y005779D01*
X003729Y005681D02*
X002821Y005681D01*
X002722Y005582D02*
X003729Y005582D01*
X003729Y005484D02*
X002513Y005484D01*
X002245Y005484D02*
X001329Y005484D01*
X001329Y005582D02*
X002036Y005582D01*
X001937Y005681D02*
X001329Y005681D01*
X001329Y005779D02*
X001872Y005779D01*
X001831Y005878D02*
X001329Y005878D01*
X001329Y005976D02*
X001809Y005976D01*
X001809Y006075D02*
X001329Y006075D01*
X001329Y006174D02*
X001815Y006174D01*
X001856Y006272D02*
X001329Y006272D01*
X001329Y006371D02*
X001898Y006371D01*
X001997Y006469D02*
X001329Y006469D01*
X001329Y006568D02*
X002151Y006568D01*
X001828Y006666D02*
X001329Y006666D01*
X001329Y006765D02*
X001729Y006765D01*
X001652Y006863D02*
X001329Y006863D01*
X001329Y006962D02*
X001611Y006962D01*
X001579Y007060D02*
X001329Y007060D01*
X001329Y007159D02*
X001579Y007159D01*
X001579Y007258D02*
X001329Y007258D01*
X001329Y007356D02*
X001615Y007356D01*
X001655Y007455D02*
X001329Y007455D01*
X001329Y007553D02*
X001737Y007553D01*
X001842Y007652D02*
X001329Y007652D01*
X001329Y007750D02*
X001744Y007750D01*
X001658Y007849D02*
X001329Y007849D01*
X001329Y007947D02*
X001617Y007947D01*
X001579Y008046D02*
X001329Y008046D01*
X001329Y008144D02*
X001579Y008144D01*
X001579Y008243D02*
X001329Y008243D01*
X001329Y008341D02*
X001609Y008341D01*
X001649Y008440D02*
X001329Y008440D01*
X001329Y008539D02*
X001722Y008539D01*
X001821Y008637D02*
X001329Y008637D01*
X001329Y008736D02*
X001758Y008736D01*
X001664Y008834D02*
X001329Y008834D01*
X001329Y008933D02*
X001623Y008933D01*
X001583Y009031D02*
X001329Y009031D01*
X001329Y009130D02*
X001579Y009130D01*
X001579Y009228D02*
X001329Y009228D01*
X001329Y009327D02*
X001602Y009327D01*
X001643Y009425D02*
X001329Y009425D01*
X001329Y009524D02*
X001708Y009524D01*
X001806Y009623D02*
X001329Y009623D01*
X001329Y009721D02*
X001773Y009721D01*
X001674Y009820D02*
X001329Y009820D01*
X001329Y009918D02*
X001629Y009918D01*
X001589Y010017D02*
X001329Y010017D01*
X001329Y010115D02*
X001579Y010115D01*
X001579Y010214D02*
X001329Y010214D01*
X001329Y010312D02*
X001596Y010312D01*
X001637Y010411D02*
X001329Y010411D01*
X001329Y010509D02*
X001693Y010509D01*
X001792Y010608D02*
X001329Y010608D01*
X001329Y010707D02*
X001787Y010707D01*
X001689Y010805D02*
X001329Y010805D01*
X001329Y010904D02*
X001635Y010904D01*
X001595Y011002D02*
X001329Y011002D01*
X001329Y011101D02*
X001579Y011101D01*
X001579Y011199D02*
X001329Y011199D01*
X001329Y011298D02*
X001590Y011298D01*
X001631Y011396D02*
X001329Y011396D01*
X001329Y011495D02*
X001679Y011495D01*
X001777Y011593D02*
X001329Y011593D01*
X001329Y011692D02*
X001802Y011692D01*
X001703Y011791D02*
X001329Y011791D01*
X001329Y011889D02*
X001641Y011889D01*
X001601Y011988D02*
X001329Y011988D01*
X001329Y012086D02*
X001579Y012086D01*
X001579Y012185D02*
X001329Y012185D01*
X001329Y012283D02*
X001584Y012283D01*
X001625Y012382D02*
X001329Y012382D01*
X001329Y012480D02*
X001666Y012480D01*
X001763Y012579D02*
X001329Y012579D01*
X001329Y012677D02*
X001904Y012677D01*
X001864Y012776D02*
X001329Y012776D01*
X001329Y012874D02*
X001770Y012874D01*
X001713Y012973D02*
X001329Y012973D01*
X001329Y013072D02*
X001686Y013072D01*
X001691Y013269D02*
X001329Y013269D01*
X001329Y013367D02*
X001728Y013367D01*
X001791Y013466D02*
X001329Y013466D01*
X001329Y013564D02*
X001906Y013564D01*
X002130Y013564D02*
X002188Y013564D01*
X002188Y013466D02*
X002130Y013466D01*
X002130Y013367D02*
X002188Y013367D01*
X002188Y013269D02*
X002130Y013269D01*
X002130Y013170D02*
X001329Y013170D01*
X001329Y013663D02*
X005882Y013663D01*
X005833Y013643D02*
X005672Y013481D01*
X005584Y013269D01*
X002627Y013269D01*
X002590Y013367D02*
X005625Y013367D01*
X005584Y013269D02*
X005584Y013041D01*
X005672Y012829D01*
X005833Y012668D01*
X005994Y012601D01*
X005977Y012595D01*
X005910Y012561D01*
X005850Y012517D01*
X005797Y012465D01*
X005753Y012404D01*
X005719Y012337D01*
X005696Y012266D01*
X005684Y012192D01*
X005684Y012174D01*
X006140Y012174D01*
X006140Y012136D01*
X006178Y012136D01*
X006178Y011680D01*
X006196Y011680D01*
X006270Y011692D01*
X006341Y011715D01*
X006408Y011749D01*
X006468Y011793D01*
X006521Y011846D01*
X006565Y011906D01*
X006599Y011973D01*
X006622Y012044D01*
X006634Y012118D01*
X006634Y012136D01*
X006178Y012136D01*
X006178Y012174D01*
X006634Y012174D01*
X006634Y012192D01*
X006622Y012266D01*
X006599Y012337D01*
X006565Y012404D01*
X006521Y012465D01*
X006468Y012517D01*
X006408Y012561D01*
X006341Y012595D01*
X006324Y012601D01*
X006485Y012668D01*
X006646Y012829D01*
X006734Y013041D01*
X006734Y013269D01*
X007889Y013269D01*
X007889Y013367D02*
X006694Y013367D01*
X006734Y013269D02*
X006646Y013481D01*
X006485Y013643D01*
X006273Y013730D01*
X006045Y013730D01*
X005833Y013643D01*
X005755Y013564D02*
X002412Y013564D01*
X002527Y013466D02*
X005665Y013466D01*
X005584Y013170D02*
X002188Y013170D01*
X002632Y013072D02*
X005584Y013072D01*
X005612Y012973D02*
X002605Y012973D01*
X002548Y012874D02*
X005653Y012874D01*
X005725Y012776D02*
X002454Y012776D01*
X002414Y012677D02*
X005824Y012677D01*
X005944Y012579D02*
X002555Y012579D01*
X002652Y012480D02*
X005813Y012480D01*
X005741Y012382D02*
X002693Y012382D01*
X002734Y012283D02*
X005701Y012283D01*
X005684Y012185D02*
X002739Y012185D01*
X002739Y012086D02*
X005689Y012086D01*
X005684Y012118D02*
X005696Y012044D01*
X005719Y011973D01*
X005753Y011906D01*
X005797Y011846D01*
X005850Y011793D01*
X005910Y011749D01*
X005977Y011715D01*
X006048Y011692D01*
X006122Y011680D01*
X006140Y011680D01*
X006140Y012136D01*
X005684Y012136D01*
X005684Y012118D01*
X005714Y011988D02*
X002717Y011988D01*
X002677Y011889D02*
X005765Y011889D01*
X005853Y011791D02*
X002615Y011791D01*
X002516Y011692D02*
X006047Y011692D01*
X006140Y011692D02*
X006178Y011692D01*
X006271Y011692D02*
X007889Y011692D01*
X007889Y011791D02*
X006465Y011791D01*
X006553Y011889D02*
X007889Y011889D01*
X007889Y011988D02*
X006604Y011988D01*
X006629Y012086D02*
X007889Y012086D01*
X007889Y012185D02*
X006634Y012185D01*
X006617Y012283D02*
X007889Y012283D01*
X007889Y012382D02*
X006577Y012382D01*
X006506Y012480D02*
X007889Y012480D01*
X007889Y012579D02*
X006374Y012579D01*
X006495Y012677D02*
X007889Y012677D01*
X007889Y012776D02*
X006593Y012776D01*
X006665Y012874D02*
X007889Y012874D01*
X007889Y012973D02*
X006706Y012973D01*
X006734Y013072D02*
X007889Y013072D01*
X007889Y013170D02*
X006734Y013170D01*
X006653Y013466D02*
X007889Y013466D01*
X007889Y013564D02*
X006563Y013564D01*
X006436Y013663D02*
X006963Y013663D01*
X006803Y013761D02*
X001329Y013761D01*
X001329Y013860D02*
X006708Y013860D01*
X006667Y013958D02*
X001329Y013958D01*
X001329Y014057D02*
X002483Y014057D01*
X002536Y014035D02*
X002308Y014129D01*
X002133Y014304D01*
X002039Y014532D01*
X002039Y014778D01*
X002133Y015006D01*
X002308Y015181D01*
X002500Y015260D01*
X002459Y015273D01*
X002386Y015310D01*
X002320Y015358D01*
X002262Y015416D01*
X002214Y015483D01*
X002177Y015555D01*
X002152Y015633D01*
X002140Y015705D01*
X002609Y015705D01*
X002609Y015805D01*
X002140Y015805D01*
X002152Y015877D01*
X002177Y015955D01*
X002214Y016028D01*
X002262Y016094D01*
X002320Y016152D01*
X002386Y016200D01*
X002459Y016237D01*
X002537Y016262D01*
X002609Y016274D01*
X002609Y015805D01*
X002709Y015805D01*
X003178Y015805D01*
X003166Y015877D01*
X003141Y015955D01*
X003104Y016028D01*
X012388Y016028D01*
X012289Y016126D02*
X003023Y016126D01*
X002998Y016152D02*
X002932Y016200D01*
X002859Y016237D01*
X002781Y016262D01*
X002709Y016274D01*
X002709Y015805D01*
X002709Y015705D01*
X003178Y015705D01*
X003166Y015633D01*
X003141Y015555D01*
X003104Y015483D01*
X003056Y015416D01*
X002998Y015358D01*
X002932Y015310D01*
X002859Y015273D01*
X002818Y015260D01*
X003010Y015181D01*
X003185Y015006D01*
X003279Y014778D01*
X003279Y014532D01*
X003185Y014304D01*
X003010Y014129D01*
X002782Y014035D01*
X002536Y014035D01*
X002282Y014156D02*
X001329Y014156D01*
X001329Y014254D02*
X002183Y014254D01*
X002113Y014353D02*
X001329Y014353D01*
X001329Y014451D02*
X002072Y014451D01*
X002039Y014550D02*
X001329Y014550D01*
X001329Y014648D02*
X002039Y014648D01*
X002039Y014747D02*
X001329Y014747D01*
X001329Y014845D02*
X002067Y014845D01*
X002108Y014944D02*
X001329Y014944D01*
X001329Y015042D02*
X002170Y015042D01*
X002268Y015141D02*
X001329Y015141D01*
X001329Y015240D02*
X002450Y015240D01*
X002348Y015338D02*
X001329Y015338D01*
X001329Y015437D02*
X002248Y015437D01*
X002187Y015535D02*
X001329Y015535D01*
X001329Y015634D02*
X002152Y015634D01*
X002145Y015831D02*
X001329Y015831D01*
X001329Y015929D02*
X002169Y015929D01*
X002214Y016028D02*
X001329Y016028D01*
X001329Y016126D02*
X002295Y016126D01*
X002436Y016225D02*
X001329Y016225D01*
X001329Y016324D02*
X012092Y016324D01*
X011994Y016422D02*
X001329Y016422D01*
X001329Y016521D02*
X011895Y016521D01*
X012191Y016225D02*
X002882Y016225D01*
X002998Y016152D02*
X003056Y016094D01*
X003104Y016028D01*
X003149Y015929D02*
X012486Y015929D01*
X012585Y015831D02*
X003174Y015831D01*
X003166Y015634D02*
X004824Y015634D01*
X004833Y015643D02*
X004672Y015481D01*
X004584Y015269D01*
X004584Y015041D01*
X004672Y014829D01*
X004833Y014668D01*
X005045Y014580D01*
X005273Y014580D01*
X005485Y014668D01*
X005646Y014829D01*
X005659Y014860D01*
X005672Y014829D01*
X005833Y014668D01*
X006045Y014580D01*
X006273Y014580D01*
X006485Y014668D01*
X006646Y014829D01*
X006734Y015041D01*
X006734Y015269D01*
X006646Y015481D01*
X006485Y015643D01*
X006273Y015730D01*
X006045Y015730D01*
X005833Y015643D01*
X005672Y015481D01*
X005659Y015451D01*
X005646Y015481D01*
X005485Y015643D01*
X005273Y015730D01*
X005045Y015730D01*
X004833Y015643D01*
X004726Y015535D02*
X003131Y015535D01*
X003070Y015437D02*
X004653Y015437D01*
X004612Y015338D02*
X002970Y015338D01*
X002868Y015240D02*
X004584Y015240D01*
X004584Y015141D02*
X003050Y015141D01*
X003149Y015042D02*
X004584Y015042D01*
X004624Y014944D02*
X003211Y014944D01*
X003251Y014845D02*
X004665Y014845D01*
X004754Y014747D02*
X003279Y014747D01*
X003279Y014648D02*
X004880Y014648D01*
X005438Y014648D02*
X005880Y014648D01*
X005754Y014747D02*
X005564Y014747D01*
X005653Y014845D02*
X005665Y014845D01*
X005726Y015535D02*
X005592Y015535D01*
X005494Y015634D02*
X005824Y015634D01*
X006494Y015634D02*
X012782Y015634D01*
X012684Y015732D02*
X002709Y015732D01*
X002709Y015831D02*
X002609Y015831D01*
X002609Y015929D02*
X002709Y015929D01*
X002709Y016028D02*
X002609Y016028D01*
X002609Y016126D02*
X002709Y016126D01*
X002709Y016225D02*
X002609Y016225D01*
X002359Y016673D02*
X002432Y016710D01*
X002498Y016758D01*
X002556Y016816D01*
X005628Y016816D01*
X005587Y016915D02*
X002620Y016915D01*
X002604Y016883D02*
X002641Y016955D01*
X002666Y017033D01*
X002679Y017114D01*
X002679Y017116D01*
X002198Y017116D01*
X002198Y016635D01*
X002200Y016635D01*
X002281Y016648D01*
X002359Y016673D01*
X002442Y016718D02*
X005720Y016718D01*
X005833Y016619D02*
X001329Y016619D01*
X001329Y016718D02*
X001876Y016718D01*
X001886Y016710D02*
X001959Y016673D01*
X002037Y016648D01*
X002118Y016635D01*
X002120Y016635D01*
X002120Y017116D01*
X002198Y017116D01*
X002198Y017194D01*
X002120Y017194D01*
X002120Y017116D01*
X001639Y017116D01*
X001639Y017114D01*
X001652Y017033D01*
X001677Y016955D01*
X001714Y016883D01*
X001762Y016816D01*
X001820Y016758D01*
X001886Y016710D01*
X001763Y016816D02*
X001329Y016816D01*
X001329Y016915D02*
X001698Y016915D01*
X001658Y017013D02*
X001329Y017013D01*
X001329Y017112D02*
X001639Y017112D01*
X001639Y017194D02*
X002120Y017194D01*
X002120Y017675D01*
X002118Y017675D01*
X002037Y017662D01*
X001959Y017637D01*
X001886Y017600D01*
X001820Y017552D01*
X001762Y017494D01*
X001714Y017428D01*
X001677Y017355D01*
X001652Y017277D01*
X001639Y017196D01*
X001639Y017194D01*
X001641Y017210D02*
X001329Y017210D01*
X001329Y017309D02*
X001662Y017309D01*
X001704Y017407D02*
X001329Y017407D01*
X001329Y017506D02*
X001775Y017506D01*
X001896Y017605D02*
X001329Y017605D01*
X001329Y017703D02*
X005862Y017703D01*
X005732Y017605D02*
X002422Y017605D01*
X002198Y017605D02*
X002120Y017605D01*
X002120Y017506D02*
X002198Y017506D01*
X002198Y017407D02*
X002120Y017407D01*
X002120Y017309D02*
X002198Y017309D01*
X002198Y017210D02*
X002120Y017210D01*
X002120Y017112D02*
X002198Y017112D01*
X002198Y017013D02*
X002120Y017013D01*
X002120Y016915D02*
X002198Y016915D01*
X002198Y016816D02*
X002120Y016816D01*
X002120Y016718D02*
X002198Y016718D01*
X002556Y016816D02*
X002604Y016883D01*
X002660Y017013D02*
X005547Y017013D01*
X005539Y017112D02*
X002679Y017112D01*
X002609Y015732D02*
X001329Y015732D01*
X002835Y014057D02*
X006629Y014057D01*
X006629Y014156D02*
X003036Y014156D01*
X003135Y014254D02*
X006629Y014254D01*
X006667Y014353D02*
X003205Y014353D01*
X003246Y014451D02*
X006708Y014451D01*
X006804Y014550D02*
X003279Y014550D01*
X005539Y017278D02*
X005633Y017506D01*
X005077Y018196D02*
X012462Y018196D01*
X012348Y018294D02*
X005175Y018294D01*
X005185Y018304D02*
X005279Y018532D01*
X005279Y018778D01*
X005185Y019006D01*
X005036Y019155D01*
X005185Y019304D01*
X005279Y019532D01*
X005279Y019778D01*
X005185Y020006D01*
X005010Y020181D01*
X004782Y020275D01*
X004697Y020275D01*
X004677Y020296D01*
X004685Y020304D01*
X004779Y020532D01*
X004779Y020778D01*
X004685Y021006D01*
X004510Y021181D01*
X004282Y021275D01*
X004036Y021275D01*
X003808Y021181D01*
X003633Y021006D01*
X003539Y020778D01*
X003539Y020532D01*
X003633Y020304D01*
X003808Y020129D01*
X004036Y020035D01*
X004061Y020035D01*
X004121Y019975D01*
X004039Y019778D01*
X004039Y019532D01*
X004133Y019304D01*
X004282Y019155D01*
X004133Y019006D01*
X004039Y018778D01*
X004039Y018532D01*
X004133Y018304D01*
X004308Y018129D01*
X004536Y018035D01*
X004782Y018035D01*
X005010Y018129D01*
X005185Y018304D01*
X005221Y018393D02*
X012262Y018393D01*
X012213Y018491D02*
X005262Y018491D01*
X005279Y018590D02*
X007021Y018590D01*
X007045Y018580D02*
X007273Y018580D01*
X007485Y018668D01*
X007646Y018829D01*
X007713Y018990D01*
X007719Y018973D01*
X007753Y018906D01*
X007797Y018846D01*
X007850Y018793D01*
X007910Y018749D01*
X007977Y018715D01*
X008048Y018692D01*
X008122Y018680D01*
X008140Y018680D01*
X008140Y019136D01*
X008178Y019136D01*
X008178Y018680D01*
X008196Y018680D01*
X008270Y018692D01*
X008341Y018715D01*
X008408Y018749D01*
X008468Y018793D01*
X008521Y018846D01*
X008565Y018906D01*
X008599Y018973D01*
X008622Y019044D01*
X008634Y019118D01*
X008634Y019136D01*
X008178Y019136D01*
X008178Y019174D01*
X008634Y019174D01*
X008634Y019192D01*
X008622Y019266D01*
X008599Y019337D01*
X008565Y019404D01*
X008521Y019465D01*
X008468Y019517D01*
X008408Y019561D01*
X008341Y019595D01*
X008270Y019618D01*
X008196Y019630D01*
X008178Y019630D01*
X008178Y019174D01*
X008140Y019174D01*
X008140Y019630D01*
X008122Y019630D01*
X008048Y019618D01*
X007977Y019595D01*
X007910Y019561D01*
X007850Y019517D01*
X007797Y019465D01*
X007753Y019404D01*
X007719Y019337D01*
X007713Y019320D01*
X007646Y019481D01*
X007485Y019643D01*
X007273Y019730D01*
X007045Y019730D01*
X006833Y019643D01*
X006672Y019481D01*
X006584Y019269D01*
X006584Y019041D01*
X006672Y018829D01*
X006833Y018668D01*
X007045Y018580D01*
X007297Y018590D02*
X012188Y018590D01*
X012184Y018674D02*
X012640Y018674D01*
X012640Y019130D01*
X012622Y019130D01*
X012548Y019118D01*
X012477Y019095D01*
X012410Y019061D01*
X012350Y019017D01*
X012297Y018965D01*
X012253Y018904D01*
X012219Y018837D01*
X012196Y018766D01*
X012184Y018692D01*
X012184Y018674D01*
X012184Y018689D02*
X008250Y018689D01*
X008178Y018689D02*
X008140Y018689D01*
X008068Y018689D02*
X007506Y018689D01*
X007604Y018787D02*
X007857Y018787D01*
X007768Y018886D02*
X007670Y018886D01*
X007711Y018984D02*
X007715Y018984D01*
X007689Y019378D02*
X007740Y019378D01*
X007809Y019477D02*
X007648Y019477D01*
X007552Y019575D02*
X007938Y019575D01*
X008140Y019575D02*
X008178Y019575D01*
X008178Y019477D02*
X008140Y019477D01*
X008140Y019378D02*
X008178Y019378D01*
X008178Y019280D02*
X008140Y019280D01*
X008140Y019181D02*
X008178Y019181D01*
X008178Y019083D02*
X008140Y019083D01*
X008140Y018984D02*
X008178Y018984D01*
X008178Y018886D02*
X008140Y018886D01*
X008140Y018787D02*
X008178Y018787D01*
X008461Y018787D02*
X012203Y018787D01*
X012243Y018886D02*
X008550Y018886D01*
X008603Y018984D02*
X012316Y018984D01*
X012452Y019083D02*
X010780Y019083D01*
X010773Y019080D02*
X010985Y019168D01*
X011146Y019329D01*
X011213Y019490D01*
X011219Y019473D01*
X011253Y019406D01*
X011297Y019346D01*
X011350Y019293D01*
X011410Y019249D01*
X011477Y019215D01*
X011548Y019192D01*
X011622Y019180D01*
X011640Y019180D01*
X011640Y019636D01*
X011678Y019636D01*
X011678Y019180D01*
X011696Y019180D01*
X011770Y019192D01*
X011841Y019215D01*
X011908Y019249D01*
X011968Y019293D01*
X012021Y019346D01*
X012065Y019406D01*
X012099Y019473D01*
X012122Y019544D01*
X012134Y019618D01*
X012134Y019636D01*
X011678Y019636D01*
X011678Y019674D01*
X014129Y019674D01*
X014129Y019773D02*
X012120Y019773D01*
X012122Y019766D02*
X012099Y019837D01*
X012065Y019904D01*
X012021Y019965D01*
X011968Y020017D01*
X011908Y020061D01*
X011841Y020095D01*
X011770Y020118D01*
X011696Y020130D01*
X011678Y020130D01*
X011678Y019674D01*
X012134Y019674D01*
X012134Y019692D01*
X012122Y019766D01*
X012082Y019871D02*
X014129Y019871D01*
X014129Y019970D02*
X012016Y019970D01*
X011895Y020068D02*
X014129Y020068D01*
X014129Y020167D02*
X010926Y020167D01*
X010985Y020143D02*
X010773Y020230D01*
X010545Y020230D01*
X010333Y020143D01*
X010172Y019981D01*
X010084Y019769D01*
X010084Y019541D01*
X010172Y019329D01*
X010333Y019168D01*
X010545Y019080D01*
X010773Y019080D01*
X010538Y019083D02*
X008628Y019083D01*
X008634Y019181D02*
X010320Y019181D01*
X010221Y019280D02*
X008618Y019280D01*
X008578Y019378D02*
X010151Y019378D01*
X010110Y019477D02*
X008509Y019477D01*
X008380Y019575D02*
X010084Y019575D01*
X010084Y019674D02*
X007409Y019674D01*
X007282Y020035D02*
X007036Y020035D01*
X006808Y020129D01*
X006633Y020304D01*
X006539Y020532D01*
X006539Y020778D01*
X006633Y021006D01*
X006808Y021181D01*
X007036Y021275D01*
X007282Y021275D01*
X007324Y021258D01*
X007729Y021664D01*
X007729Y022758D01*
X007683Y022804D01*
X007659Y022863D01*
X007635Y022804D01*
X007460Y022629D01*
X007232Y022535D01*
X006986Y022535D01*
X006758Y022629D01*
X006583Y022804D01*
X006489Y023032D01*
X006489Y023278D01*
X006583Y023506D01*
X006758Y023681D01*
X006986Y023775D01*
X007232Y023775D01*
X007460Y023681D01*
X007635Y023506D01*
X007659Y023447D01*
X007683Y023506D01*
X007858Y023681D01*
X008086Y023775D01*
X008332Y023775D01*
X008560Y023681D01*
X008735Y023506D01*
X008829Y023278D01*
X008829Y023032D01*
X008735Y022804D01*
X008560Y022629D01*
X008349Y022542D01*
X008349Y021473D01*
X008302Y021359D01*
X008215Y021272D01*
X007762Y020820D01*
X007779Y020778D01*
X007779Y020532D01*
X007685Y020304D01*
X007510Y020129D01*
X007282Y020035D01*
X007362Y020068D02*
X010259Y020068D01*
X010167Y019970D02*
X005200Y019970D01*
X005241Y019871D02*
X010126Y019871D01*
X010085Y019773D02*
X005279Y019773D01*
X005279Y019674D02*
X006909Y019674D01*
X006766Y019575D02*
X005279Y019575D01*
X005256Y019477D02*
X006670Y019477D01*
X006629Y019378D02*
X005215Y019378D01*
X005161Y019280D02*
X006588Y019280D01*
X006584Y019181D02*
X005062Y019181D01*
X005108Y019083D02*
X006584Y019083D01*
X006607Y018984D02*
X005194Y018984D01*
X005235Y018886D02*
X006648Y018886D01*
X006714Y018787D02*
X005275Y018787D01*
X005279Y018689D02*
X006812Y018689D01*
X006456Y017703D02*
X007362Y017703D01*
X007232Y017605D02*
X006586Y017605D01*
X007133Y017506D02*
X007039Y017278D01*
X007039Y017112D02*
X006779Y017112D01*
X006771Y017013D02*
X007047Y017013D01*
X007087Y016915D02*
X006731Y016915D01*
X006690Y016816D02*
X007128Y016816D01*
X007220Y016718D02*
X006598Y016718D01*
X006485Y016619D02*
X007333Y016619D01*
X007985Y016619D02*
X011333Y016619D01*
X011220Y016718D02*
X008098Y016718D01*
X008190Y016816D02*
X011128Y016816D01*
X011087Y016915D02*
X008231Y016915D01*
X008271Y017013D02*
X011047Y017013D01*
X011039Y017112D02*
X008279Y017112D01*
X008086Y017605D02*
X011232Y017605D01*
X011133Y017506D02*
X011039Y017278D01*
X011362Y017703D02*
X007956Y017703D01*
X006592Y015535D02*
X012881Y015535D01*
X012979Y015437D02*
X006665Y015437D01*
X006706Y015338D02*
X012152Y015338D01*
X012025Y015240D02*
X006734Y015240D01*
X006734Y015141D02*
X011927Y015141D01*
X011828Y015042D02*
X006734Y015042D01*
X006694Y014944D02*
X011729Y014944D01*
X011631Y014845D02*
X006653Y014845D01*
X006564Y014747D02*
X011532Y014747D01*
X011434Y014648D02*
X010353Y014648D01*
X010514Y014550D02*
X011335Y014550D01*
X011237Y014451D02*
X010610Y014451D01*
X010651Y014353D02*
X011138Y014353D01*
X011040Y014254D02*
X010689Y014254D01*
X010689Y014156D02*
X010941Y014156D01*
X010843Y014057D02*
X010689Y014057D01*
X010651Y013958D02*
X010744Y013958D01*
X010646Y013860D02*
X010610Y013860D01*
X010547Y013761D02*
X010515Y013761D01*
X010448Y013663D02*
X010355Y013663D01*
X010349Y013564D02*
X010350Y013564D01*
X010832Y013170D02*
X011084Y013170D01*
X011084Y013072D02*
X010734Y013072D01*
X010635Y012973D02*
X011112Y012973D01*
X011084Y013041D02*
X011084Y013269D01*
X010931Y013269D01*
X011030Y013367D02*
X011125Y013367D01*
X011128Y013466D02*
X011165Y013466D01*
X011172Y013481D02*
X011084Y013269D01*
X011084Y013041D02*
X011172Y012829D01*
X011333Y012668D01*
X011494Y012601D01*
X011477Y012595D01*
X011410Y012561D01*
X011350Y012517D01*
X011297Y012465D01*
X011253Y012404D01*
X011219Y012337D01*
X011196Y012266D01*
X011184Y012192D01*
X011184Y012174D01*
X011640Y012174D01*
X011640Y012136D01*
X011678Y012136D01*
X011678Y011680D01*
X011696Y011680D01*
X011770Y011692D01*
X011841Y011715D01*
X011908Y011749D01*
X011968Y011793D01*
X012021Y011846D01*
X012065Y011906D01*
X012099Y011973D01*
X012122Y012044D01*
X012134Y012118D01*
X012134Y012136D01*
X011678Y012136D01*
X011678Y012174D01*
X012134Y012174D01*
X012134Y012192D01*
X012122Y012266D01*
X012099Y012337D01*
X012065Y012404D01*
X012021Y012465D01*
X011968Y012517D01*
X011908Y012561D01*
X011841Y012595D01*
X011824Y012601D01*
X011985Y012668D01*
X012146Y012829D01*
X012234Y013041D01*
X012234Y013269D01*
X015889Y013269D01*
X015889Y013367D02*
X012194Y013367D01*
X012234Y013269D02*
X012146Y013481D01*
X011985Y013643D01*
X011773Y013730D01*
X011545Y013730D01*
X011333Y013643D01*
X011172Y013481D01*
X011227Y013564D02*
X011255Y013564D01*
X011325Y013663D02*
X011382Y013663D01*
X011424Y013761D02*
X012303Y013761D01*
X012359Y013706D02*
X012210Y013855D01*
X012129Y014050D01*
X012129Y014261D01*
X012210Y014455D01*
X012359Y014604D01*
X012554Y014685D01*
X012764Y014685D01*
X012959Y014604D01*
X013108Y014455D01*
X013189Y014261D01*
X013189Y014050D01*
X013108Y013855D01*
X012959Y013706D01*
X012764Y013625D01*
X012554Y013625D01*
X012359Y013706D01*
X012463Y013663D02*
X011936Y013663D01*
X012063Y013564D02*
X015889Y013564D01*
X015889Y013466D02*
X012153Y013466D01*
X012234Y013170D02*
X015889Y013170D01*
X015890Y013072D02*
X012234Y013072D01*
X012206Y012973D02*
X015931Y012973D01*
X016021Y012874D02*
X012165Y012874D01*
X012093Y012776D02*
X016120Y012776D01*
X016218Y012677D02*
X011995Y012677D01*
X011874Y012579D02*
X016317Y012579D01*
X016415Y012480D02*
X012006Y012480D01*
X012077Y012382D02*
X016489Y012382D01*
X016446Y011692D02*
X013594Y011692D01*
X013970Y011593D02*
X014348Y011593D01*
X014249Y011495D02*
X014069Y011495D01*
X014133Y011396D02*
X014185Y011396D01*
X014190Y010904D02*
X014129Y010904D01*
X014059Y010805D02*
X014260Y010805D01*
X014358Y010707D02*
X013960Y010707D01*
X013358Y010707D02*
X012960Y010707D01*
X013059Y010805D02*
X013260Y010805D01*
X013190Y010904D02*
X013129Y010904D01*
X012358Y010707D02*
X009460Y010707D01*
X009559Y010805D02*
X009909Y010805D01*
X009934Y010787D02*
X009994Y010757D01*
X010058Y010736D01*
X010125Y010725D01*
X010129Y010725D01*
X010129Y011125D01*
X010189Y011125D01*
X010189Y010725D01*
X010193Y010725D01*
X010260Y010736D01*
X010324Y010757D01*
X010384Y010787D01*
X010439Y010827D01*
X010487Y010875D01*
X010527Y010930D01*
X010558Y010990D01*
X010578Y011054D01*
X010589Y011121D01*
X010589Y011125D01*
X010189Y011125D01*
X010189Y011185D01*
X010589Y011185D01*
X010589Y011189D01*
X010578Y011256D01*
X010558Y011320D01*
X010527Y011380D01*
X010487Y011435D01*
X010439Y011483D01*
X010384Y011523D01*
X010324Y011554D01*
X010260Y011574D01*
X010193Y011585D01*
X010189Y011585D01*
X010189Y011185D01*
X010129Y011185D01*
X010129Y011125D01*
X009729Y011125D01*
X009729Y011121D01*
X009740Y011054D01*
X009761Y010990D01*
X009791Y010930D01*
X009831Y010875D01*
X009879Y010827D01*
X009934Y010787D01*
X009810Y010904D02*
X009629Y010904D01*
X009669Y011002D02*
X009757Y011002D01*
X009732Y011101D02*
X009689Y011101D01*
X009729Y011185D02*
X010129Y011185D01*
X010129Y011585D01*
X010125Y011585D01*
X010058Y011574D01*
X009994Y011554D01*
X009934Y011523D01*
X009879Y011483D01*
X009831Y011435D01*
X009791Y011380D01*
X009761Y011320D01*
X009740Y011256D01*
X009729Y011189D01*
X009729Y011185D01*
X009731Y011199D02*
X009689Y011199D01*
X009680Y011298D02*
X009753Y011298D01*
X009779Y011396D02*
X009803Y011396D01*
X009877Y011495D02*
X009895Y011495D01*
X009976Y011593D02*
X012348Y011593D01*
X012249Y011495D02*
X010423Y011495D01*
X010515Y011396D02*
X012185Y011396D01*
X012144Y011298D02*
X010565Y011298D01*
X010587Y011199D02*
X012129Y011199D01*
X012129Y011101D02*
X010586Y011101D01*
X010561Y011002D02*
X012149Y011002D01*
X012190Y010904D02*
X010508Y010904D01*
X010409Y010805D02*
X012260Y010805D01*
X012718Y011692D02*
X011771Y011692D01*
X011678Y011692D02*
X011640Y011692D01*
X011640Y011680D02*
X011640Y012136D01*
X011184Y012136D01*
X011184Y012118D01*
X011196Y012044D01*
X011219Y011973D01*
X011253Y011906D01*
X011297Y011846D01*
X011350Y011793D01*
X011410Y011749D01*
X011477Y011715D01*
X011548Y011692D01*
X011622Y011680D01*
X011640Y011680D01*
X011547Y011692D02*
X010074Y011692D01*
X010173Y011791D02*
X011353Y011791D01*
X011265Y011889D02*
X010271Y011889D01*
X010330Y011988D02*
X011214Y011988D01*
X011189Y012086D02*
X010349Y012086D01*
X010349Y012185D02*
X011184Y012185D01*
X011201Y012283D02*
X010349Y012283D01*
X010349Y012382D02*
X011241Y012382D01*
X011313Y012480D02*
X010349Y012480D01*
X010349Y012579D02*
X011444Y012579D01*
X011324Y012677D02*
X010349Y012677D01*
X010438Y012776D02*
X011225Y012776D01*
X011153Y012874D02*
X010537Y012874D01*
X011522Y013860D02*
X012208Y013860D01*
X012167Y013958D02*
X011621Y013958D01*
X011719Y014057D02*
X012129Y014057D01*
X012129Y014156D02*
X011818Y014156D01*
X011916Y014254D02*
X012129Y014254D01*
X012167Y014353D02*
X012015Y014353D01*
X012114Y014451D02*
X012208Y014451D01*
X012212Y014550D02*
X012304Y014550D01*
X012311Y014648D02*
X012465Y014648D01*
X012853Y014648D02*
X013847Y014648D01*
X013824Y014554D02*
X013760Y014574D01*
X013693Y014585D01*
X013689Y014585D01*
X013689Y014185D01*
X014089Y014185D01*
X014089Y014189D01*
X014078Y014256D01*
X014058Y014320D01*
X014027Y014380D01*
X013987Y014435D01*
X013939Y014483D01*
X013884Y014523D01*
X013824Y014554D01*
X013832Y014550D02*
X013946Y014550D01*
X013971Y014451D02*
X014045Y014451D01*
X014041Y014353D02*
X014143Y014353D01*
X014129Y014254D02*
X014079Y014254D01*
X014129Y014156D02*
X013689Y014156D01*
X013689Y014185D02*
X013689Y014125D01*
X013689Y013725D01*
X013693Y013725D01*
X013760Y013736D01*
X013824Y013757D01*
X013884Y013787D01*
X013939Y013827D01*
X013987Y013875D01*
X014027Y013930D01*
X014058Y013990D01*
X014078Y014054D01*
X014089Y014121D01*
X014089Y014125D01*
X013689Y014125D01*
X013629Y014125D01*
X013629Y013725D01*
X013625Y013725D01*
X013558Y013736D01*
X013494Y013757D01*
X013434Y013787D01*
X013379Y013827D01*
X013331Y013875D01*
X013291Y013930D01*
X013261Y013990D01*
X013240Y014054D01*
X013229Y014121D01*
X013229Y014125D01*
X013629Y014125D01*
X013629Y014185D01*
X013229Y014185D01*
X013229Y014189D01*
X013240Y014256D01*
X013261Y014320D01*
X013291Y014380D01*
X013331Y014435D01*
X013379Y014483D01*
X013434Y014523D01*
X013494Y014554D01*
X013558Y014574D01*
X013625Y014585D01*
X013629Y014585D01*
X013629Y014185D01*
X013689Y014185D01*
X013629Y014156D02*
X013189Y014156D01*
X013189Y014254D02*
X013239Y014254D01*
X013277Y014353D02*
X013151Y014353D01*
X013110Y014451D02*
X013347Y014451D01*
X013486Y014550D02*
X013014Y014550D01*
X013189Y014057D02*
X013239Y014057D01*
X013277Y013958D02*
X013151Y013958D01*
X013110Y013860D02*
X013346Y013860D01*
X013485Y013761D02*
X013015Y013761D01*
X012856Y013663D02*
X014463Y013663D01*
X014303Y013761D02*
X013833Y013761D01*
X013689Y013761D02*
X013629Y013761D01*
X013629Y013860D02*
X013689Y013860D01*
X013689Y013958D02*
X013629Y013958D01*
X013629Y014057D02*
X013689Y014057D01*
X013689Y014254D02*
X013629Y014254D01*
X013629Y014353D02*
X013689Y014353D01*
X013689Y014451D02*
X013629Y014451D01*
X013629Y014550D02*
X013689Y014550D01*
X014079Y014057D02*
X014129Y014057D01*
X014167Y013958D02*
X014041Y013958D01*
X013972Y013860D02*
X014208Y013860D01*
X014856Y013663D02*
X015463Y013663D01*
X015303Y013761D02*
X015015Y013761D01*
X015110Y013860D02*
X015208Y013860D01*
X015167Y013958D02*
X015151Y013958D01*
X015159Y014333D02*
X015108Y014455D01*
X014959Y014604D01*
X014764Y014685D01*
X014687Y014685D01*
X014142Y015231D01*
X014055Y015318D01*
X013941Y015365D01*
X013929Y015365D01*
X013929Y015366D01*
X014006Y015338D02*
X016449Y015338D01*
X016449Y015264D02*
X016023Y014838D01*
X015936Y014751D01*
X015889Y014637D01*
X015889Y014633D01*
X015764Y014685D01*
X015554Y014685D01*
X015359Y014604D01*
X015210Y014455D01*
X015159Y014333D01*
X015151Y014353D02*
X015167Y014353D01*
X015208Y014451D02*
X015110Y014451D01*
X015014Y014550D02*
X015304Y014550D01*
X015465Y014648D02*
X014853Y014648D01*
X014626Y014747D02*
X015935Y014747D01*
X015894Y014648D02*
X015853Y014648D01*
X016031Y014845D02*
X014527Y014845D01*
X014429Y014944D02*
X016129Y014944D01*
X016228Y015042D02*
X014330Y015042D01*
X014232Y015141D02*
X016327Y015141D01*
X016425Y015240D02*
X014133Y015240D01*
X013929Y015535D02*
X015536Y015535D01*
X015304Y015634D02*
X013892Y015634D01*
X013838Y015732D02*
X015205Y015732D01*
X015122Y015831D02*
X013740Y015831D01*
X013363Y015929D02*
X015081Y015929D01*
X015041Y016028D02*
X013265Y016028D01*
X013166Y016126D02*
X015039Y016126D01*
X015039Y016225D02*
X013068Y016225D01*
X012969Y016324D02*
X015058Y016324D01*
X015099Y016422D02*
X012870Y016422D01*
X012772Y016521D02*
X015148Y016521D01*
X015246Y016619D02*
X012673Y016619D01*
X012575Y016718D02*
X015320Y016718D01*
X015228Y016816D02*
X012476Y016816D01*
X012378Y016915D02*
X015187Y016915D01*
X015147Y017013D02*
X012279Y017013D01*
X012279Y017112D02*
X012468Y017112D01*
X012291Y017210D02*
X012279Y017210D01*
X012084Y017703D02*
X011956Y017703D01*
X012097Y017802D02*
X001329Y017802D01*
X001329Y017900D02*
X012138Y017900D01*
X012189Y017999D02*
X001329Y017999D01*
X001329Y018097D02*
X004386Y018097D01*
X004241Y018196D02*
X001329Y018196D01*
X001329Y018294D02*
X004143Y018294D01*
X004097Y018393D02*
X001329Y018393D01*
X001329Y018491D02*
X004056Y018491D01*
X004039Y018590D02*
X001329Y018590D01*
X001329Y018689D02*
X001929Y018689D01*
X001959Y018673D02*
X002037Y018648D01*
X002109Y018637D01*
X002109Y019105D01*
X002209Y019105D01*
X002209Y018637D01*
X002281Y018648D01*
X002359Y018673D01*
X002432Y018710D01*
X002498Y018758D01*
X002556Y018816D01*
X002604Y018883D01*
X002641Y018955D01*
X002666Y019033D01*
X002678Y019105D01*
X002209Y019105D01*
X002209Y019205D01*
X002678Y019205D01*
X002666Y019277D01*
X002641Y019355D01*
X002604Y019428D01*
X002556Y019494D01*
X002498Y019552D01*
X002434Y019598D01*
X002510Y019629D01*
X002685Y019804D01*
X002779Y020032D01*
X002779Y020278D01*
X002685Y020506D01*
X002510Y020681D01*
X002282Y020775D01*
X002036Y020775D01*
X001808Y020681D01*
X001633Y020506D01*
X001539Y020278D01*
X001539Y020032D01*
X001633Y019804D01*
X001808Y019629D01*
X001884Y019598D01*
X001820Y019552D01*
X001762Y019494D01*
X001714Y019428D01*
X001677Y019355D01*
X001652Y019277D01*
X001640Y019205D01*
X002109Y019205D01*
X002109Y019105D01*
X001640Y019105D01*
X001652Y019033D01*
X001677Y018955D01*
X001714Y018883D01*
X001762Y018816D01*
X001820Y018758D01*
X001886Y018710D01*
X001959Y018673D01*
X002109Y018689D02*
X002209Y018689D01*
X002209Y018787D02*
X002109Y018787D01*
X002109Y018886D02*
X002209Y018886D01*
X002209Y018984D02*
X002109Y018984D01*
X002109Y019083D02*
X002209Y019083D01*
X002209Y019181D02*
X004256Y019181D01*
X004210Y019083D02*
X002674Y019083D01*
X002650Y018984D02*
X004124Y018984D01*
X004083Y018886D02*
X002605Y018886D01*
X002526Y018787D02*
X004043Y018787D01*
X004039Y018689D02*
X002389Y018689D01*
X002109Y019181D02*
X001329Y019181D01*
X001329Y019083D02*
X001644Y019083D01*
X001668Y018984D02*
X001329Y018984D01*
X001329Y018886D02*
X001713Y018886D01*
X001792Y018787D02*
X001329Y018787D01*
X001329Y019280D02*
X001653Y019280D01*
X001689Y019378D02*
X001329Y019378D01*
X001329Y019477D02*
X001750Y019477D01*
X001853Y019575D02*
X001329Y019575D01*
X001329Y019674D02*
X001763Y019674D01*
X001665Y019773D02*
X001329Y019773D01*
X001329Y019871D02*
X001606Y019871D01*
X001565Y019970D02*
X001329Y019970D01*
X001329Y020068D02*
X001539Y020068D01*
X001539Y020167D02*
X001329Y020167D01*
X001329Y020265D02*
X001539Y020265D01*
X001574Y020364D02*
X001329Y020364D01*
X001329Y020462D02*
X001615Y020462D01*
X001688Y020561D02*
X001329Y020561D01*
X001329Y020659D02*
X001787Y020659D01*
X001994Y020758D02*
X001329Y020758D01*
X001329Y020856D02*
X003571Y020856D01*
X003539Y020758D02*
X002324Y020758D01*
X002532Y020659D02*
X003539Y020659D01*
X003539Y020561D02*
X002630Y020561D01*
X002703Y020462D02*
X003568Y020462D01*
X003609Y020364D02*
X002744Y020364D01*
X002779Y020265D02*
X003672Y020265D01*
X003771Y020167D02*
X002779Y020167D01*
X002779Y020068D02*
X003956Y020068D01*
X004118Y019970D02*
X002753Y019970D01*
X002712Y019871D02*
X004077Y019871D01*
X004039Y019773D02*
X002653Y019773D01*
X002555Y019674D02*
X004039Y019674D01*
X004039Y019575D02*
X002465Y019575D01*
X002568Y019477D02*
X004062Y019477D01*
X004103Y019378D02*
X002629Y019378D01*
X002665Y019280D02*
X004158Y019280D01*
X005024Y020167D02*
X006771Y020167D01*
X006672Y020265D02*
X004806Y020265D01*
X004709Y020364D02*
X006609Y020364D01*
X006568Y020462D02*
X004750Y020462D01*
X004779Y020561D02*
X006539Y020561D01*
X006539Y020659D02*
X004779Y020659D01*
X004779Y020758D02*
X006539Y020758D01*
X006571Y020856D02*
X004747Y020856D01*
X004706Y020955D02*
X006612Y020955D01*
X006681Y021054D02*
X004637Y021054D01*
X004539Y021152D02*
X006779Y021152D01*
X006977Y021251D02*
X004341Y021251D01*
X003977Y021251D02*
X001329Y021251D01*
X001329Y021349D02*
X007415Y021349D01*
X007513Y021448D02*
X001329Y021448D01*
X001329Y021546D02*
X007612Y021546D01*
X007710Y021645D02*
X001329Y021645D01*
X001329Y021743D02*
X007729Y021743D01*
X007729Y021842D02*
X001329Y021842D01*
X001329Y021940D02*
X007729Y021940D01*
X007729Y022039D02*
X001329Y022039D01*
X001329Y022138D02*
X007729Y022138D01*
X007729Y022236D02*
X002882Y022236D01*
X002825Y022215D02*
X003136Y022329D01*
X003136Y022329D01*
X003390Y022542D01*
X003556Y022829D01*
X003614Y023155D01*
X003556Y023482D01*
X003390Y023769D01*
X003136Y023982D01*
X002825Y024095D01*
X002825Y024095D01*
X002746Y024095D01*
X002659Y024095D01*
X002652Y024095D01*
X002572Y024095D01*
X002493Y024095D01*
X002182Y023982D01*
X002182Y023982D01*
X001928Y023769D01*
X001928Y023769D01*
X001928Y023769D01*
X001762Y023482D01*
X001762Y023482D01*
X001705Y023155D01*
X001762Y022829D01*
X001762Y022829D01*
X001928Y022542D01*
X001928Y022542D01*
X002182Y022329D01*
X002493Y022215D01*
X002493Y022215D01*
X002659Y022215D01*
X002825Y022215D01*
X002825Y022215D01*
X003144Y022335D02*
X007729Y022335D01*
X007729Y022433D02*
X003261Y022433D01*
X003378Y022532D02*
X007729Y022532D01*
X007729Y022630D02*
X007461Y022630D01*
X007560Y022729D02*
X007729Y022729D01*
X007674Y022827D02*
X007644Y022827D01*
X007624Y023517D02*
X007694Y023517D01*
X007793Y023616D02*
X007525Y023616D01*
X007379Y023714D02*
X007939Y023714D01*
X008479Y023714D02*
X015039Y023714D01*
X015039Y023616D02*
X008625Y023616D01*
X008724Y023517D02*
X015066Y023517D01*
X015107Y023419D02*
X008771Y023419D01*
X008812Y023320D02*
X015167Y023320D01*
X015266Y023222D02*
X008829Y023222D01*
X008829Y023123D02*
X015329Y023123D01*
X015329Y023024D02*
X008826Y023024D01*
X008785Y022926D02*
X015329Y022926D01*
X015329Y022827D02*
X008744Y022827D01*
X008660Y022729D02*
X015329Y022729D01*
X015256Y022630D02*
X012990Y022630D01*
X012982Y022638D02*
X012772Y022725D01*
X012546Y022725D01*
X012336Y022638D01*
X012176Y022478D01*
X012104Y022305D01*
X012095Y022336D01*
X012061Y022401D01*
X012018Y022461D01*
X011965Y022514D01*
X011905Y022557D01*
X011839Y022591D01*
X011769Y022614D01*
X011709Y022623D01*
X011709Y022205D01*
X011609Y022205D01*
X011609Y022623D01*
X011549Y022614D01*
X011479Y022591D01*
X011413Y022557D01*
X011353Y022514D01*
X011301Y022461D01*
X011257Y022401D01*
X011224Y022336D01*
X011214Y022305D01*
X011142Y022478D01*
X010982Y022638D01*
X010772Y022725D01*
X010546Y022725D01*
X010336Y022638D01*
X010176Y022478D01*
X010089Y022269D01*
X010089Y022042D01*
X010176Y021832D01*
X010336Y021672D01*
X010546Y021585D01*
X010772Y021585D01*
X010982Y021672D01*
X011142Y021832D01*
X011214Y022005D01*
X011224Y021975D01*
X011257Y021909D01*
X011301Y021849D01*
X011353Y021797D01*
X011413Y021753D01*
X011479Y021720D01*
X011549Y021697D01*
X011609Y021687D01*
X011609Y022105D01*
X011709Y022105D01*
X011709Y021687D01*
X011769Y021697D01*
X011839Y021720D01*
X011905Y021753D01*
X011965Y021797D01*
X012018Y021849D01*
X012061Y021909D01*
X012095Y021975D01*
X012104Y022005D01*
X012176Y021832D01*
X012336Y021672D01*
X012546Y021585D01*
X012772Y021585D01*
X012982Y021672D01*
X013142Y021832D01*
X013229Y022042D01*
X013229Y022269D01*
X013142Y022478D01*
X012982Y022638D01*
X013089Y022532D02*
X015157Y022532D01*
X015059Y022433D02*
X013161Y022433D01*
X013202Y022335D02*
X014960Y022335D01*
X014862Y022236D02*
X013229Y022236D01*
X013229Y022138D02*
X014763Y022138D01*
X014665Y022039D02*
X013228Y022039D01*
X013187Y021940D02*
X014566Y021940D01*
X014467Y021842D02*
X013146Y021842D01*
X013053Y021743D02*
X014369Y021743D01*
X014270Y021645D02*
X012917Y021645D01*
X012401Y021645D02*
X010917Y021645D01*
X011053Y021743D02*
X011432Y021743D01*
X011308Y021842D02*
X011146Y021842D01*
X011187Y021940D02*
X011241Y021940D01*
X011609Y021940D02*
X011709Y021940D01*
X011709Y021842D02*
X011609Y021842D01*
X011609Y021743D02*
X011709Y021743D01*
X011886Y021743D02*
X012265Y021743D01*
X012172Y021842D02*
X012011Y021842D01*
X012077Y021940D02*
X012131Y021940D01*
X012116Y022335D02*
X012095Y022335D01*
X012038Y022433D02*
X012157Y022433D01*
X012230Y022532D02*
X011940Y022532D01*
X011709Y022532D02*
X011609Y022532D01*
X011609Y022433D02*
X011709Y022433D01*
X011709Y022335D02*
X011609Y022335D01*
X011609Y022236D02*
X011709Y022236D01*
X011709Y022039D02*
X011609Y022039D01*
X011223Y022335D02*
X011202Y022335D01*
X011161Y022433D02*
X011280Y022433D01*
X011378Y022532D02*
X011089Y022532D01*
X010990Y022630D02*
X012328Y022630D01*
X010401Y021645D02*
X008349Y021645D01*
X008349Y021743D02*
X010265Y021743D01*
X010172Y021842D02*
X008349Y021842D01*
X008349Y021940D02*
X010131Y021940D01*
X010090Y022039D02*
X008349Y022039D01*
X008349Y022138D02*
X010089Y022138D01*
X010089Y022236D02*
X008349Y022236D01*
X008349Y022335D02*
X010116Y022335D01*
X010157Y022433D02*
X008349Y022433D01*
X008349Y022532D02*
X010230Y022532D01*
X010328Y022630D02*
X008561Y022630D01*
X008349Y021546D02*
X014174Y021546D01*
X014134Y021448D02*
X008338Y021448D01*
X008292Y021349D02*
X014129Y021349D01*
X014129Y021251D02*
X008193Y021251D01*
X008094Y021152D02*
X014129Y021152D01*
X014129Y021054D02*
X007996Y021054D01*
X007897Y020955D02*
X014129Y020955D01*
X014129Y020856D02*
X007799Y020856D01*
X007779Y020758D02*
X014129Y020758D01*
X014129Y020659D02*
X007779Y020659D01*
X007779Y020561D02*
X014129Y020561D01*
X014129Y020462D02*
X007750Y020462D01*
X007709Y020364D02*
X014129Y020364D01*
X014129Y020265D02*
X007646Y020265D01*
X007547Y020167D02*
X010392Y020167D01*
X010985Y020143D02*
X011146Y019981D01*
X011213Y019820D01*
X011219Y019837D01*
X011253Y019904D01*
X011297Y019965D01*
X011350Y020017D01*
X011410Y020061D01*
X011477Y020095D01*
X011548Y020118D01*
X011622Y020130D01*
X011640Y020130D01*
X011640Y019674D01*
X011678Y019674D01*
X011678Y019773D02*
X011640Y019773D01*
X011640Y019871D02*
X011678Y019871D01*
X011678Y019970D02*
X011640Y019970D01*
X011640Y020068D02*
X011678Y020068D01*
X011423Y020068D02*
X011059Y020068D01*
X011151Y019970D02*
X011302Y019970D01*
X011236Y019871D02*
X011192Y019871D01*
X011208Y019477D02*
X011217Y019477D01*
X011167Y019378D02*
X011273Y019378D01*
X011367Y019280D02*
X011097Y019280D01*
X010998Y019181D02*
X011614Y019181D01*
X011640Y019181D02*
X011678Y019181D01*
X011704Y019181D02*
X014129Y019181D01*
X014129Y019083D02*
X012866Y019083D01*
X013002Y018984D02*
X014129Y018984D01*
X014129Y018886D02*
X013075Y018886D01*
X013116Y018787D02*
X014129Y018787D01*
X014129Y018689D02*
X013134Y018689D01*
X013130Y018590D02*
X014129Y018590D01*
X014129Y018491D02*
X013105Y018491D01*
X013056Y018393D02*
X014129Y018393D01*
X014129Y018294D02*
X012970Y018294D01*
X012856Y018196D02*
X014129Y018196D01*
X014136Y018097D02*
X013030Y018097D01*
X013129Y017999D02*
X014177Y017999D01*
X014276Y017900D02*
X013180Y017900D01*
X013221Y017802D02*
X014374Y017802D01*
X014473Y017703D02*
X013234Y017703D01*
X013234Y017605D02*
X014571Y017605D01*
X014670Y017506D02*
X013220Y017506D01*
X013179Y017407D02*
X014768Y017407D01*
X014867Y017309D02*
X013126Y017309D01*
X013028Y017210D02*
X014965Y017210D01*
X015064Y017112D02*
X012850Y017112D01*
X012288Y018097D02*
X004932Y018097D01*
X005123Y020068D02*
X006956Y020068D01*
X006757Y022630D02*
X006061Y022630D01*
X006060Y022629D02*
X006235Y022804D01*
X006329Y023032D01*
X006329Y023278D01*
X006235Y023506D01*
X006060Y023681D01*
X005832Y023775D01*
X005586Y023775D01*
X005358Y023681D01*
X005183Y023506D01*
X005159Y023447D01*
X005135Y023506D01*
X004960Y023681D01*
X004732Y023775D01*
X004486Y023775D01*
X004258Y023681D01*
X004083Y023506D01*
X003989Y023278D01*
X003989Y023032D01*
X004083Y022804D01*
X004258Y022629D01*
X004486Y022535D01*
X004732Y022535D01*
X004960Y022629D01*
X005135Y022804D01*
X005159Y022863D01*
X005183Y022804D01*
X005358Y022629D01*
X005586Y022535D01*
X005832Y022535D01*
X006060Y022629D01*
X006160Y022729D02*
X006659Y022729D01*
X006574Y022827D02*
X006244Y022827D01*
X006285Y022926D02*
X006533Y022926D01*
X006492Y023024D02*
X006326Y023024D01*
X006329Y023123D02*
X006489Y023123D01*
X006489Y023222D02*
X006329Y023222D01*
X006312Y023320D02*
X006506Y023320D01*
X006547Y023419D02*
X006271Y023419D01*
X006224Y023517D02*
X006594Y023517D01*
X006693Y023616D02*
X006125Y023616D01*
X005979Y023714D02*
X006839Y023714D01*
X005439Y023714D02*
X004879Y023714D01*
X005025Y023616D02*
X005293Y023616D01*
X005194Y023517D02*
X005124Y023517D01*
X005144Y022827D02*
X005174Y022827D01*
X005259Y022729D02*
X005060Y022729D01*
X004961Y022630D02*
X005357Y022630D01*
X004339Y023714D02*
X003422Y023714D01*
X003390Y023769D02*
X003390Y023769D01*
X003338Y023813D02*
X015039Y023813D01*
X015073Y023911D02*
X003220Y023911D01*
X003136Y023982D02*
X003136Y023982D01*
X003059Y024010D02*
X015114Y024010D01*
X015186Y024108D02*
X001329Y024108D01*
X001329Y024010D02*
X002259Y024010D01*
X002098Y023911D02*
X001329Y023911D01*
X001329Y023813D02*
X001981Y023813D01*
X001897Y023714D02*
X001329Y023714D01*
X001329Y023616D02*
X001840Y023616D01*
X001783Y023517D02*
X001329Y023517D01*
X001329Y023419D02*
X001751Y023419D01*
X001734Y023320D02*
X001329Y023320D01*
X001329Y023222D02*
X001716Y023222D01*
X001705Y023155D02*
X001705Y023155D01*
X001710Y023123D02*
X001329Y023123D01*
X001329Y023024D02*
X001728Y023024D01*
X001745Y022926D02*
X001329Y022926D01*
X001329Y022827D02*
X001763Y022827D01*
X001820Y022729D02*
X001329Y022729D01*
X001329Y022630D02*
X001877Y022630D01*
X001940Y022532D02*
X001329Y022532D01*
X001329Y022433D02*
X002057Y022433D01*
X002174Y022335D02*
X001329Y022335D01*
X001329Y022236D02*
X002436Y022236D01*
X002182Y022329D02*
X002182Y022329D01*
X003390Y022542D02*
X003390Y022542D01*
X003390Y022542D01*
X003441Y022630D02*
X004257Y022630D01*
X004159Y022729D02*
X003498Y022729D01*
X003555Y022827D02*
X004074Y022827D01*
X004033Y022926D02*
X003573Y022926D01*
X003556Y022829D02*
X003556Y022829D01*
X003590Y023024D02*
X003992Y023024D01*
X003989Y023123D02*
X003608Y023123D01*
X003614Y023155D02*
X003614Y023155D01*
X003602Y023222D02*
X003989Y023222D01*
X004006Y023320D02*
X003584Y023320D01*
X003567Y023419D02*
X004047Y023419D01*
X004094Y023517D02*
X003535Y023517D01*
X003556Y023482D02*
X003556Y023482D01*
X003479Y023616D02*
X004193Y023616D01*
X002493Y024095D02*
X002493Y024095D01*
X001329Y024207D02*
X015284Y024207D01*
X015488Y024306D02*
X001329Y024306D01*
X001329Y024404D02*
X024009Y024404D01*
X024009Y024306D02*
X019830Y024306D01*
X020034Y024207D02*
X024009Y024207D01*
X024009Y024108D02*
X020133Y024108D01*
X020204Y024010D02*
X022259Y024010D01*
X022182Y023982D02*
X022493Y024095D01*
X022493Y024095D01*
X022572Y024095D01*
X022624Y024095D01*
X022659Y024095D01*
X022746Y024095D01*
X022825Y024095D01*
X022825Y024095D01*
X023136Y023982D01*
X023136Y023982D01*
X023390Y023769D01*
X023390Y023769D01*
X023556Y023482D01*
X023556Y023482D01*
X023614Y023155D01*
X023614Y023155D01*
X023556Y022829D01*
X023556Y022829D01*
X023390Y022542D01*
X023390Y022542D01*
X023390Y022542D01*
X023136Y022329D01*
X022825Y022215D01*
X022746Y022215D01*
X022659Y022215D01*
X022572Y022215D01*
X022493Y022215D01*
X022493Y022215D01*
X022182Y022329D01*
X022182Y022329D01*
X021928Y022542D01*
X021928Y022542D01*
X021762Y022829D01*
X021762Y022829D01*
X021705Y023155D01*
X021705Y023155D01*
X021762Y023482D01*
X021762Y023482D01*
X021928Y023769D01*
X021928Y023769D01*
X021928Y023769D01*
X022182Y023982D01*
X022182Y023982D01*
X022098Y023911D02*
X020245Y023911D01*
X020279Y023813D02*
X021981Y023813D01*
X021897Y023714D02*
X020279Y023714D01*
X020279Y023616D02*
X021840Y023616D01*
X021783Y023517D02*
X020252Y023517D01*
X020211Y023419D02*
X021751Y023419D01*
X021734Y023320D02*
X020151Y023320D01*
X020052Y023222D02*
X021716Y023222D01*
X021710Y023123D02*
X019949Y023123D01*
X019949Y023024D02*
X021728Y023024D01*
X021745Y022926D02*
X019949Y022926D01*
X019949Y022827D02*
X021763Y022827D01*
X021820Y022729D02*
X019949Y022729D01*
X019949Y022630D02*
X021877Y022630D01*
X021940Y022532D02*
X019949Y022532D01*
X019949Y022433D02*
X022057Y022433D01*
X022174Y022335D02*
X019949Y022335D01*
X019949Y022236D02*
X022436Y022236D01*
X022882Y022236D02*
X024009Y022236D01*
X024009Y022138D02*
X019949Y022138D01*
X019949Y022039D02*
X024009Y022039D01*
X024009Y021940D02*
X019949Y021940D01*
X019949Y021842D02*
X024009Y021842D01*
X024009Y021743D02*
X023459Y021743D01*
X023382Y021775D02*
X023610Y021681D01*
X023785Y021506D01*
X023879Y021278D01*
X023879Y021032D01*
X023785Y020804D01*
X023610Y020629D01*
X023576Y020615D01*
X023685Y020506D01*
X023779Y020278D01*
X023779Y020032D01*
X023685Y019804D01*
X023510Y019629D01*
X023490Y019621D01*
X023532Y019600D01*
X023598Y019552D01*
X023656Y019494D01*
X023704Y019428D01*
X023741Y019355D01*
X023766Y019277D01*
X023778Y019205D01*
X023309Y019205D01*
X023309Y019105D01*
X023778Y019105D01*
X023766Y019033D01*
X023741Y018955D01*
X023704Y018883D01*
X023656Y018816D01*
X023598Y018758D01*
X023532Y018710D01*
X023490Y018689D01*
X023510Y018681D01*
X023685Y018506D01*
X023779Y018278D01*
X023779Y018032D01*
X023685Y017804D01*
X023576Y017695D01*
X023610Y017681D01*
X023785Y017506D01*
X023686Y017605D02*
X024009Y017605D01*
X024009Y017703D02*
X023584Y017703D01*
X023682Y017802D02*
X024009Y017802D01*
X024009Y017900D02*
X023724Y017900D01*
X023765Y017999D02*
X024009Y017999D01*
X024009Y018097D02*
X023779Y018097D01*
X023779Y018196D02*
X024009Y018196D01*
X024009Y018294D02*
X023772Y018294D01*
X023732Y018393D02*
X024009Y018393D01*
X024009Y018491D02*
X023691Y018491D01*
X023601Y018590D02*
X024009Y018590D01*
X024009Y018689D02*
X023491Y018689D01*
X023626Y018787D02*
X024009Y018787D01*
X024009Y018886D02*
X023705Y018886D01*
X023750Y018984D02*
X024009Y018984D01*
X024009Y019083D02*
X023774Y019083D01*
X023765Y019280D02*
X024009Y019280D01*
X024009Y019378D02*
X023729Y019378D01*
X023668Y019477D02*
X024009Y019477D01*
X024009Y019575D02*
X023565Y019575D01*
X023555Y019674D02*
X024009Y019674D01*
X024009Y019773D02*
X023653Y019773D01*
X023712Y019871D02*
X024009Y019871D01*
X024009Y019970D02*
X023753Y019970D01*
X023779Y020068D02*
X024009Y020068D01*
X024009Y020167D02*
X023779Y020167D01*
X023779Y020265D02*
X024009Y020265D01*
X024009Y020364D02*
X023744Y020364D01*
X023703Y020462D02*
X024009Y020462D01*
X024009Y020561D02*
X023630Y020561D01*
X023640Y020659D02*
X024009Y020659D01*
X024009Y020758D02*
X023739Y020758D01*
X023806Y020856D02*
X024009Y020856D01*
X024009Y020955D02*
X023847Y020955D01*
X023879Y021054D02*
X024009Y021054D01*
X024009Y021152D02*
X023879Y021152D01*
X023879Y021251D02*
X024009Y021251D01*
X024009Y021349D02*
X023850Y021349D01*
X023809Y021448D02*
X024009Y021448D01*
X024009Y021546D02*
X023745Y021546D01*
X023646Y021645D02*
X024009Y021645D01*
X023382Y021775D02*
X023136Y021775D01*
X022908Y021681D01*
X022733Y021506D01*
X022639Y021278D01*
X022639Y021032D01*
X022733Y020804D01*
X022842Y020695D01*
X022808Y020681D01*
X022633Y020506D01*
X022539Y020278D01*
X022539Y020032D01*
X022633Y019804D01*
X022808Y019629D01*
X022948Y019572D01*
X022920Y019552D01*
X022862Y019494D01*
X022814Y019428D01*
X022777Y019355D01*
X022752Y019277D01*
X022740Y019205D01*
X023209Y019205D01*
X023209Y019105D01*
X022740Y019105D01*
X022752Y019033D01*
X022777Y018955D01*
X022814Y018883D01*
X022862Y018816D01*
X022920Y018758D01*
X022948Y018739D01*
X022808Y018681D01*
X022633Y018506D01*
X022539Y018278D01*
X022539Y018032D01*
X022633Y017804D01*
X022808Y017629D01*
X022842Y017615D01*
X022733Y017506D01*
X022832Y017605D02*
X021186Y017605D01*
X021084Y017703D02*
X022734Y017703D01*
X022636Y017802D02*
X021182Y017802D01*
X021224Y017900D02*
X022594Y017900D01*
X022553Y017999D02*
X021265Y017999D01*
X021279Y018097D02*
X022539Y018097D01*
X022539Y018196D02*
X021279Y018196D01*
X021272Y018294D02*
X022546Y018294D01*
X022586Y018393D02*
X021232Y018393D01*
X021191Y018491D02*
X022627Y018491D01*
X022717Y018590D02*
X021101Y018590D01*
X020991Y018689D02*
X022827Y018689D01*
X022892Y018787D02*
X021126Y018787D01*
X021205Y018886D02*
X022813Y018886D01*
X022768Y018984D02*
X021250Y018984D01*
X021274Y019083D02*
X022744Y019083D01*
X022753Y019280D02*
X021265Y019280D01*
X021229Y019378D02*
X022789Y019378D01*
X022850Y019477D02*
X021168Y019477D01*
X021065Y019575D02*
X022938Y019575D01*
X022763Y019674D02*
X021055Y019674D01*
X021153Y019773D02*
X022665Y019773D01*
X022606Y019871D02*
X021212Y019871D01*
X021253Y019970D02*
X022565Y019970D01*
X022539Y020068D02*
X021279Y020068D01*
X021279Y020167D02*
X022539Y020167D01*
X022539Y020265D02*
X021279Y020265D01*
X021244Y020364D02*
X022574Y020364D01*
X022615Y020462D02*
X021203Y020462D01*
X021130Y020561D02*
X022688Y020561D01*
X022787Y020659D02*
X021140Y020659D01*
X021239Y020758D02*
X022779Y020758D01*
X022712Y020856D02*
X021306Y020856D01*
X021347Y020955D02*
X022671Y020955D01*
X022639Y021054D02*
X021379Y021054D01*
X021379Y021152D02*
X022639Y021152D01*
X022639Y021251D02*
X021379Y021251D01*
X021350Y021349D02*
X022668Y021349D01*
X022709Y021448D02*
X021309Y021448D01*
X021245Y021546D02*
X022773Y021546D01*
X022872Y021645D02*
X021146Y021645D01*
X020959Y021743D02*
X023059Y021743D01*
X023144Y022335D02*
X024009Y022335D01*
X024009Y022433D02*
X023261Y022433D01*
X023378Y022532D02*
X024009Y022532D01*
X024009Y022630D02*
X023441Y022630D01*
X023498Y022729D02*
X024009Y022729D01*
X024009Y022827D02*
X023555Y022827D01*
X023573Y022926D02*
X024009Y022926D01*
X024009Y023024D02*
X023590Y023024D01*
X023608Y023123D02*
X024009Y023123D01*
X024009Y023222D02*
X023602Y023222D01*
X023584Y023320D02*
X024009Y023320D01*
X024009Y023419D02*
X023567Y023419D01*
X023535Y023517D02*
X024009Y023517D01*
X024009Y023616D02*
X023479Y023616D01*
X023422Y023714D02*
X024009Y023714D01*
X024009Y023813D02*
X023338Y023813D01*
X023220Y023911D02*
X024009Y023911D01*
X024009Y024010D02*
X023059Y024010D01*
X020559Y021743D02*
X019949Y021743D01*
X019949Y021645D02*
X020372Y021645D01*
X020273Y021546D02*
X019949Y021546D01*
X019949Y021448D02*
X020209Y021448D01*
X020168Y021349D02*
X019949Y021349D01*
X019949Y021251D02*
X020139Y021251D01*
X020139Y021152D02*
X019949Y021152D01*
X019949Y021054D02*
X020139Y021054D01*
X020171Y020955D02*
X019949Y020955D01*
X019949Y020856D02*
X020212Y020856D01*
X020279Y020758D02*
X019949Y020758D01*
X019949Y020659D02*
X020287Y020659D01*
X020188Y020561D02*
X019949Y020561D01*
X019949Y020462D02*
X020115Y020462D01*
X020074Y020364D02*
X019949Y020364D01*
X019949Y020265D02*
X020039Y020265D01*
X020039Y020167D02*
X019949Y020167D01*
X019949Y020068D02*
X020039Y020068D01*
X019955Y019970D02*
X019949Y019970D01*
X020438Y019575D02*
X020438Y019575D01*
X020350Y019477D02*
X020339Y019477D01*
X020289Y019378D02*
X020241Y019378D01*
X020253Y019280D02*
X020142Y019280D01*
X020044Y019181D02*
X020709Y019181D01*
X020809Y019181D02*
X023209Y019181D01*
X023309Y019181D02*
X024009Y019181D01*
X020392Y018787D02*
X019949Y018787D01*
X019949Y018689D02*
X020327Y018689D01*
X020217Y018590D02*
X019949Y018590D01*
X019949Y018491D02*
X020127Y018491D01*
X020086Y018393D02*
X019949Y018393D01*
X019949Y018294D02*
X020046Y018294D01*
X020039Y018196D02*
X019949Y018196D01*
X019949Y018097D02*
X020039Y018097D01*
X020053Y017999D02*
X019949Y017999D01*
X019949Y017900D02*
X020094Y017900D01*
X020136Y017802D02*
X019949Y017802D01*
X019949Y017703D02*
X020234Y017703D01*
X020332Y017605D02*
X019949Y017605D01*
X020233Y017506D02*
X020139Y017278D01*
X020139Y017112D02*
X019949Y017112D01*
X019949Y017013D02*
X020147Y017013D01*
X020187Y016915D02*
X019949Y016915D01*
X019949Y016816D02*
X020228Y016816D01*
X020320Y016718D02*
X019949Y016718D01*
X019949Y016619D02*
X020246Y016619D01*
X020148Y016521D02*
X019949Y016521D01*
X019949Y016422D02*
X020099Y016422D01*
X020058Y016324D02*
X019949Y016324D01*
X019949Y016225D02*
X020039Y016225D01*
X020039Y016126D02*
X019949Y016126D01*
X019949Y016028D02*
X020041Y016028D01*
X020081Y015929D02*
X019949Y015929D01*
X019949Y015831D02*
X020122Y015831D01*
X020205Y015732D02*
X019949Y015732D01*
X019949Y015634D02*
X020304Y015634D01*
X019949Y015338D02*
X024009Y015338D01*
X024009Y015240D02*
X019949Y015240D01*
X019949Y015141D02*
X024009Y015141D01*
X024009Y015042D02*
X019949Y015042D01*
X019949Y014944D02*
X024009Y014944D01*
X024009Y014845D02*
X019949Y014845D01*
X019949Y014747D02*
X024009Y014747D01*
X024009Y014648D02*
X019949Y014648D01*
X019949Y014550D02*
X024009Y014550D01*
X024009Y014451D02*
X020033Y014451D01*
X020132Y014353D02*
X024009Y014353D01*
X024009Y014254D02*
X020184Y014254D01*
X018923Y015535D02*
X018282Y015535D01*
X018514Y015634D02*
X018929Y015634D01*
X018929Y015732D02*
X018613Y015732D01*
X018696Y015831D02*
X018929Y015831D01*
X018929Y015929D02*
X018737Y015929D01*
X018777Y016028D02*
X018929Y016028D01*
X018929Y016126D02*
X018779Y016126D01*
X018779Y016225D02*
X018929Y016225D01*
X018929Y016324D02*
X018760Y016324D01*
X018720Y016422D02*
X018929Y016422D01*
X018929Y016521D02*
X018670Y016521D01*
X018585Y016619D02*
X018929Y016619D01*
X018929Y016718D02*
X018698Y016718D01*
X018790Y016816D02*
X018929Y016816D01*
X018929Y016915D02*
X018831Y016915D01*
X018871Y017013D02*
X018929Y017013D01*
X018929Y017112D02*
X018879Y017112D01*
X018879Y017210D02*
X018929Y017210D01*
X018879Y017278D02*
X018785Y017506D01*
X018686Y017605D02*
X018929Y017605D01*
X018929Y017703D02*
X018584Y017703D01*
X018682Y017802D02*
X018929Y017802D01*
X018929Y017900D02*
X018724Y017900D01*
X018765Y017999D02*
X018929Y017999D01*
X018929Y018097D02*
X018779Y018097D01*
X018779Y018196D02*
X018929Y018196D01*
X018929Y018294D02*
X018772Y018294D01*
X018732Y018393D02*
X018929Y018393D01*
X018929Y018491D02*
X018691Y018491D01*
X018601Y018590D02*
X018929Y018590D01*
X018929Y018689D02*
X018491Y018689D01*
X018626Y018787D02*
X018929Y018787D01*
X018929Y018886D02*
X018705Y018886D01*
X018750Y018984D02*
X018929Y018984D01*
X018929Y019083D02*
X018774Y019083D01*
X018929Y019181D02*
X018309Y019181D01*
X018209Y019181D02*
X017469Y019181D01*
X017469Y019083D02*
X017744Y019083D01*
X017740Y019105D02*
X017752Y019033D01*
X017777Y018955D01*
X017814Y018883D01*
X017862Y018816D01*
X017920Y018758D01*
X017948Y018739D01*
X017808Y018681D01*
X017633Y018506D01*
X017539Y018278D01*
X017539Y018032D01*
X017633Y017804D01*
X017808Y017629D01*
X017842Y017615D01*
X017733Y017506D01*
X017832Y017605D02*
X017469Y017605D01*
X017469Y017703D02*
X017734Y017703D01*
X017636Y017802D02*
X017469Y017802D01*
X017469Y017900D02*
X017594Y017900D01*
X017553Y017999D02*
X017469Y017999D01*
X017469Y018097D02*
X017539Y018097D01*
X017539Y018196D02*
X017469Y018196D01*
X017469Y018294D02*
X017546Y018294D01*
X017586Y018393D02*
X017469Y018393D01*
X017469Y018491D02*
X017627Y018491D01*
X017717Y018590D02*
X017469Y018590D01*
X017469Y018689D02*
X017827Y018689D01*
X017892Y018787D02*
X017469Y018787D01*
X017469Y018886D02*
X017813Y018886D01*
X017768Y018984D02*
X017469Y018984D01*
X017469Y019280D02*
X017753Y019280D01*
X017752Y019277D02*
X017740Y019205D01*
X018209Y019205D01*
X018209Y019105D01*
X017740Y019105D01*
X017752Y019277D02*
X017777Y019355D01*
X017814Y019428D01*
X017862Y019494D01*
X017920Y019552D01*
X017948Y019572D01*
X017808Y019629D01*
X017633Y019804D01*
X017539Y020032D01*
X017539Y020278D01*
X017633Y020506D01*
X017808Y020681D01*
X017842Y020695D01*
X017733Y020804D01*
X017639Y021032D01*
X017639Y021278D01*
X017733Y021506D01*
X017908Y021681D01*
X018136Y021775D01*
X018382Y021775D01*
X018646Y021645D02*
X019329Y021645D01*
X019329Y021546D02*
X018745Y021546D01*
X018809Y021448D02*
X019329Y021448D01*
X019329Y021349D02*
X018850Y021349D01*
X018879Y021251D02*
X019329Y021251D01*
X019329Y021152D02*
X018879Y021152D01*
X018879Y021054D02*
X019329Y021054D01*
X019329Y020955D02*
X018847Y020955D01*
X018806Y020856D02*
X019329Y020856D01*
X019329Y020758D02*
X018739Y020758D01*
X018640Y020659D02*
X019329Y020659D01*
X019329Y020561D02*
X018630Y020561D01*
X018703Y020462D02*
X019329Y020462D01*
X019329Y020364D02*
X018744Y020364D01*
X018779Y020265D02*
X019329Y020265D01*
X019329Y020167D02*
X018779Y020167D01*
X018779Y020068D02*
X019329Y020068D01*
X019329Y019970D02*
X018753Y019970D01*
X018712Y019871D02*
X019329Y019871D01*
X019278Y019773D02*
X018653Y019773D01*
X018555Y019674D02*
X019180Y019674D01*
X019081Y019575D02*
X018565Y019575D01*
X018668Y019477D02*
X018982Y019477D01*
X018938Y019378D02*
X018729Y019378D01*
X018765Y019280D02*
X018929Y019280D01*
X017938Y019575D02*
X017469Y019575D01*
X017469Y019477D02*
X017850Y019477D01*
X017789Y019378D02*
X017469Y019378D01*
X017469Y019674D02*
X017763Y019674D01*
X017665Y019773D02*
X017469Y019773D01*
X017469Y019871D02*
X017606Y019871D01*
X017565Y019970D02*
X017469Y019970D01*
X017469Y020068D02*
X017539Y020068D01*
X017539Y020167D02*
X017469Y020167D01*
X017469Y020265D02*
X017539Y020265D01*
X017574Y020364D02*
X017469Y020364D01*
X017469Y020462D02*
X017615Y020462D01*
X017688Y020561D02*
X017469Y020561D01*
X017469Y020659D02*
X017787Y020659D01*
X017779Y020758D02*
X017469Y020758D01*
X017469Y020856D02*
X017712Y020856D01*
X017671Y020955D02*
X017469Y020955D01*
X017469Y021054D02*
X017639Y021054D01*
X017639Y021152D02*
X017469Y021152D01*
X017473Y021251D02*
X017639Y021251D01*
X017668Y021349D02*
X017572Y021349D01*
X017670Y021448D02*
X017709Y021448D01*
X017769Y021546D02*
X017773Y021546D01*
X017867Y021645D02*
X017872Y021645D01*
X017966Y021743D02*
X018059Y021743D01*
X017329Y022304D02*
X016583Y021558D01*
X016496Y021471D01*
X016449Y021357D01*
X016449Y015264D01*
X015889Y013663D02*
X015856Y013663D01*
X015693Y011585D02*
X015689Y011585D01*
X015689Y011185D01*
X016089Y011185D01*
X016089Y011189D01*
X016078Y011256D01*
X016058Y011320D01*
X016027Y011380D01*
X015987Y011435D01*
X015939Y011483D01*
X015884Y011523D01*
X015824Y011554D01*
X015760Y011574D01*
X015693Y011585D01*
X015629Y011585D02*
X015629Y011185D01*
X015629Y011125D01*
X015689Y011125D01*
X015689Y010725D01*
X015693Y010725D01*
X015760Y010736D01*
X015824Y010757D01*
X015884Y010787D01*
X015939Y010827D01*
X015987Y010875D01*
X016027Y010930D01*
X016058Y010990D01*
X016078Y011054D01*
X016089Y011121D01*
X016089Y011125D01*
X015689Y011125D01*
X015689Y011185D01*
X015629Y011185D01*
X015229Y011185D01*
X015229Y011189D01*
X015240Y011256D01*
X015261Y011320D01*
X015291Y011380D01*
X015331Y011435D01*
X015379Y011483D01*
X015434Y011523D01*
X015494Y011554D01*
X015558Y011574D01*
X015625Y011585D01*
X015629Y011585D01*
X015629Y011495D02*
X015689Y011495D01*
X015689Y011396D02*
X015629Y011396D01*
X015629Y011298D02*
X015689Y011298D01*
X015689Y011199D02*
X015629Y011199D01*
X015629Y011125D02*
X015229Y011125D01*
X015229Y011121D01*
X015240Y011054D01*
X015261Y010990D01*
X015291Y010930D01*
X015331Y010875D01*
X015379Y010827D01*
X015434Y010787D01*
X015494Y010757D01*
X015558Y010736D01*
X015625Y010725D01*
X015629Y010725D01*
X015629Y011125D01*
X015629Y011101D02*
X015689Y011101D01*
X015689Y011002D02*
X015629Y011002D01*
X015629Y010904D02*
X015689Y010904D01*
X015689Y010805D02*
X015629Y010805D01*
X015409Y010805D02*
X015059Y010805D01*
X015129Y010904D02*
X015310Y010904D01*
X015257Y011002D02*
X015169Y011002D01*
X015189Y011101D02*
X015232Y011101D01*
X015231Y011199D02*
X015189Y011199D01*
X015174Y011298D02*
X015253Y011298D01*
X015303Y011396D02*
X015133Y011396D01*
X015069Y011495D02*
X015395Y011495D01*
X014970Y011593D02*
X016601Y011593D01*
X016629Y011495D02*
X015923Y011495D01*
X016015Y011396D02*
X016588Y011396D01*
X016547Y011298D02*
X016065Y011298D01*
X016087Y011199D02*
X016539Y011199D01*
X016539Y011101D02*
X016086Y011101D01*
X016061Y011002D02*
X016551Y011002D01*
X016592Y010904D02*
X016008Y010904D01*
X015909Y010805D02*
X016633Y010805D01*
X016731Y010707D02*
X014960Y010707D01*
X016860Y010608D02*
X002526Y010608D01*
X002531Y010707D02*
X006858Y010707D01*
X006760Y010805D02*
X002629Y010805D01*
X002683Y010904D02*
X006690Y010904D01*
X006649Y011002D02*
X002723Y011002D01*
X002739Y011101D02*
X006629Y011101D01*
X006629Y011199D02*
X002739Y011199D01*
X002728Y011298D02*
X006644Y011298D01*
X006685Y011396D02*
X002687Y011396D01*
X002639Y011495D02*
X006749Y011495D01*
X006848Y011593D02*
X002541Y011593D01*
X002689Y009918D02*
X004841Y009918D01*
X004685Y009820D02*
X002644Y009820D01*
X002545Y009721D02*
X004587Y009721D01*
X004488Y009623D02*
X002512Y009623D01*
X002610Y009524D02*
X004390Y009524D01*
X004291Y009425D02*
X002675Y009425D01*
X002716Y009327D02*
X004192Y009327D01*
X004094Y009228D02*
X002739Y009228D01*
X002739Y009130D02*
X003995Y009130D01*
X003897Y009031D02*
X002736Y009031D01*
X002695Y008933D02*
X003798Y008933D01*
X003700Y008834D02*
X002654Y008834D01*
X002560Y008736D02*
X003601Y008736D01*
X003503Y008637D02*
X002497Y008637D01*
X002596Y008539D02*
X003404Y008539D01*
X003306Y008440D02*
X002669Y008440D01*
X002710Y008341D02*
X003207Y008341D01*
X003109Y008243D02*
X002739Y008243D01*
X002739Y008144D02*
X003010Y008144D01*
X002911Y008046D02*
X002739Y008046D01*
X002701Y007947D02*
X002813Y007947D01*
X002714Y007849D02*
X002660Y007849D01*
X002616Y007750D02*
X002574Y007750D01*
X002517Y007652D02*
X002476Y007652D01*
X004349Y006287D02*
X004727Y006665D01*
X005061Y006665D01*
X005175Y006712D01*
X005262Y006799D01*
X005349Y006887D01*
X005349Y006726D01*
X005418Y006560D01*
X005544Y006434D01*
X005710Y006365D01*
X005811Y006365D01*
X006484Y005691D01*
X006282Y005775D01*
X006036Y005775D01*
X005808Y005681D01*
X005381Y005681D01*
X005422Y005722D02*
X005509Y005932D01*
X005509Y006159D01*
X005422Y006368D01*
X005262Y006528D01*
X005052Y006615D01*
X004826Y006615D01*
X004616Y006528D01*
X004456Y006368D01*
X004369Y006159D01*
X004369Y005932D01*
X004456Y005722D01*
X004616Y005562D01*
X004826Y005475D01*
X005052Y005475D01*
X005262Y005562D01*
X005422Y005722D01*
X005446Y005779D02*
X006396Y005779D01*
X006298Y005878D02*
X005487Y005878D01*
X005509Y005976D02*
X006199Y005976D01*
X006101Y006075D02*
X005509Y006075D01*
X005503Y006174D02*
X006002Y006174D01*
X005904Y006272D02*
X005462Y006272D01*
X005420Y006371D02*
X005696Y006371D01*
X005509Y006469D02*
X005321Y006469D01*
X005414Y006568D02*
X005167Y006568D01*
X005063Y006666D02*
X005374Y006666D01*
X005349Y006765D02*
X005227Y006765D01*
X005326Y006863D02*
X005349Y006863D01*
X004711Y006568D02*
X004630Y006568D01*
X004557Y006469D02*
X004531Y006469D01*
X004458Y006371D02*
X004433Y006371D01*
X004416Y006272D02*
X004349Y006272D01*
X004349Y006287D02*
X004349Y004144D01*
X004717Y003775D01*
X004782Y003775D01*
X005010Y003681D01*
X005159Y003532D01*
X005308Y003681D01*
X005536Y003775D01*
X005782Y003775D01*
X005824Y003758D01*
X007121Y005055D01*
X006695Y005480D01*
X006779Y005278D01*
X006779Y005032D01*
X006685Y004804D01*
X006510Y004629D01*
X006282Y004535D01*
X006036Y004535D01*
X005808Y004629D01*
X005633Y004804D01*
X005539Y005032D01*
X005539Y005278D01*
X005633Y005506D01*
X005808Y005681D01*
X005709Y005582D02*
X005282Y005582D01*
X005073Y005484D02*
X005624Y005484D01*
X005583Y005385D02*
X004349Y005385D01*
X004349Y005287D02*
X005542Y005287D01*
X005539Y005188D02*
X004349Y005188D01*
X004349Y005090D02*
X005539Y005090D01*
X005556Y004991D02*
X004349Y004991D01*
X004349Y004892D02*
X005597Y004892D01*
X005643Y004794D02*
X004349Y004794D01*
X004349Y004695D02*
X004748Y004695D01*
X004759Y004701D02*
X004693Y004667D01*
X004633Y004624D01*
X004581Y004571D01*
X004537Y004511D01*
X004504Y004446D01*
X004481Y004375D01*
X004471Y004315D01*
X004889Y004315D01*
X004889Y004215D01*
X004989Y004215D01*
X004989Y003797D01*
X005049Y003807D01*
X005119Y003830D01*
X005185Y003863D01*
X005245Y003907D01*
X005298Y003959D01*
X005341Y004019D01*
X005375Y004085D01*
X005397Y004155D01*
X005407Y004215D01*
X004989Y004215D01*
X004989Y004315D01*
X005407Y004315D01*
X005397Y004375D01*
X005375Y004446D01*
X005341Y004511D01*
X005298Y004571D01*
X005245Y004624D01*
X005185Y004667D01*
X005119Y004701D01*
X005049Y004724D01*
X004989Y004733D01*
X004989Y004315D01*
X004889Y004315D01*
X004889Y004733D01*
X004829Y004724D01*
X004759Y004701D01*
X004889Y004695D02*
X004989Y004695D01*
X004989Y004597D02*
X004889Y004597D01*
X004889Y004498D02*
X004989Y004498D01*
X004989Y004400D02*
X004889Y004400D01*
X004889Y004301D02*
X004349Y004301D01*
X004349Y004203D02*
X004473Y004203D01*
X004471Y004215D02*
X004481Y004155D01*
X004504Y004085D01*
X004537Y004019D01*
X004581Y003959D01*
X004633Y003907D01*
X004693Y003863D01*
X004759Y003830D01*
X004829Y003807D01*
X004889Y003797D01*
X004889Y004215D01*
X004471Y004215D01*
X004497Y004104D02*
X004388Y004104D01*
X004487Y004006D02*
X004547Y004006D01*
X004585Y003907D02*
X004632Y003907D01*
X004684Y003809D02*
X004823Y003809D01*
X004889Y003809D02*
X004989Y003809D01*
X005055Y003809D02*
X005874Y003809D01*
X005973Y003907D02*
X005246Y003907D01*
X005331Y004006D02*
X006071Y004006D01*
X006170Y004104D02*
X005381Y004104D01*
X005405Y004203D02*
X006268Y004203D01*
X006367Y004301D02*
X004989Y004301D01*
X004989Y004203D02*
X004889Y004203D01*
X004889Y004104D02*
X004989Y004104D01*
X004989Y004006D02*
X004889Y004006D01*
X004889Y003907D02*
X004989Y003907D01*
X004940Y003710D02*
X005379Y003710D01*
X005239Y003611D02*
X005080Y003611D01*
X005389Y004400D02*
X006465Y004400D01*
X006564Y004498D02*
X005348Y004498D01*
X005272Y004597D02*
X005887Y004597D01*
X005742Y004695D02*
X005130Y004695D01*
X004606Y004597D02*
X004349Y004597D01*
X004349Y004498D02*
X004530Y004498D01*
X004489Y004400D02*
X004349Y004400D01*
X003807Y003809D02*
X002495Y003809D01*
X002489Y003807D02*
X002559Y003830D01*
X002625Y003863D01*
X002685Y003907D01*
X002738Y003959D01*
X002781Y004019D01*
X002815Y004085D01*
X002837Y004155D01*
X002847Y004215D01*
X002429Y004215D01*
X002429Y003797D01*
X002489Y003807D01*
X002429Y003809D02*
X002329Y003809D01*
X002329Y003797D02*
X002329Y004215D01*
X002429Y004215D01*
X002429Y004315D01*
X002847Y004315D01*
X002837Y004375D01*
X002815Y004446D01*
X002781Y004511D01*
X002738Y004571D01*
X002685Y004624D01*
X002625Y004667D01*
X002559Y004701D01*
X002489Y004724D01*
X002429Y004733D01*
X002429Y004315D01*
X002329Y004315D01*
X002329Y004215D01*
X001911Y004215D01*
X001921Y004155D01*
X001944Y004085D01*
X001977Y004019D01*
X002021Y003959D01*
X002073Y003907D01*
X002133Y003863D01*
X002199Y003830D01*
X002269Y003807D01*
X002329Y003797D01*
X002263Y003809D02*
X001329Y003809D01*
X001329Y003907D02*
X002072Y003907D01*
X001987Y004006D02*
X001329Y004006D01*
X001329Y004104D02*
X001937Y004104D01*
X001913Y004203D02*
X001329Y004203D01*
X001329Y004301D02*
X002329Y004301D01*
X002329Y004315D02*
X001911Y004315D01*
X001921Y004375D01*
X001944Y004446D01*
X001977Y004511D01*
X002021Y004571D01*
X002073Y004624D01*
X002133Y004667D01*
X002199Y004701D01*
X002269Y004724D01*
X002329Y004733D01*
X002329Y004315D01*
X002329Y004400D02*
X002429Y004400D01*
X002429Y004498D02*
X002329Y004498D01*
X002329Y004597D02*
X002429Y004597D01*
X002429Y004695D02*
X002329Y004695D01*
X002188Y004695D02*
X001329Y004695D01*
X001329Y004597D02*
X002046Y004597D01*
X001970Y004498D02*
X001329Y004498D01*
X001329Y004400D02*
X001929Y004400D01*
X002329Y004203D02*
X002429Y004203D01*
X002429Y004301D02*
X003729Y004301D01*
X003729Y004203D02*
X002845Y004203D01*
X002821Y004104D02*
X003729Y004104D01*
X003729Y004006D02*
X002771Y004006D01*
X002686Y003907D02*
X003748Y003907D01*
X003906Y003710D02*
X001329Y003710D01*
X001329Y003611D02*
X004004Y003611D01*
X004103Y003513D02*
X001329Y003513D01*
X001329Y003414D02*
X004095Y003414D01*
X004055Y003316D02*
X001329Y003316D01*
X001329Y003217D02*
X004039Y003217D01*
X004039Y003119D02*
X001329Y003119D01*
X001329Y003020D02*
X002288Y003020D01*
X002182Y002982D02*
X002493Y003095D01*
X002572Y003095D01*
X002659Y003095D01*
X002825Y003095D01*
X002825Y003095D01*
X003136Y002982D01*
X003136Y002982D01*
X003390Y002769D01*
X003390Y002769D01*
X003556Y002482D01*
X003556Y002482D01*
X003614Y002155D01*
X003614Y002155D01*
X003556Y001829D01*
X003556Y001829D01*
X003390Y001542D01*
X010665Y001542D01*
X010643Y001641D02*
X003447Y001641D01*
X003504Y001739D02*
X011109Y001739D01*
X011109Y001641D02*
X011209Y001641D01*
X011209Y001542D02*
X011109Y001542D01*
X011109Y001443D02*
X011209Y001443D01*
X011209Y001345D02*
X011109Y001345D01*
X011109Y001246D02*
X011209Y001246D01*
X011404Y001246D02*
X011782Y001246D01*
X011708Y001345D02*
X011534Y001345D01*
X011609Y001443D02*
X011665Y001443D01*
X011911Y001148D02*
X001329Y001148D01*
X001329Y001246D02*
X002407Y001246D01*
X002493Y001215D02*
X002572Y001215D01*
X002659Y001215D01*
X002825Y001215D01*
X003136Y001329D01*
X003136Y001329D01*
X003390Y001542D01*
X003390Y001542D01*
X003390Y001542D01*
X003273Y001443D02*
X010709Y001443D01*
X010784Y001345D02*
X003156Y001345D01*
X002911Y001246D02*
X010914Y001246D01*
X010655Y001838D02*
X003558Y001838D01*
X003575Y001936D02*
X010693Y001936D01*
X010756Y002035D02*
X003592Y002035D01*
X003610Y002133D02*
X010864Y002133D01*
X010756Y002232D02*
X003600Y002232D01*
X003583Y002330D02*
X010657Y002330D01*
X010602Y002429D02*
X003565Y002429D01*
X003529Y002527D02*
X010562Y002527D01*
X010539Y002626D02*
X008002Y002626D01*
X008105Y002725D02*
X008367Y002725D01*
X008257Y002823D02*
X008193Y002823D01*
X008609Y002823D02*
X008709Y002823D01*
X008709Y002725D02*
X008609Y002725D01*
X008609Y002922D02*
X008709Y002922D01*
X008709Y003020D02*
X008609Y003020D01*
X008709Y003119D02*
X009609Y003119D01*
X009609Y003217D02*
X009709Y003217D01*
X009709Y003119D02*
X010696Y003119D01*
X010770Y003217D02*
X010176Y003217D01*
X010154Y003316D02*
X010672Y003316D01*
X010608Y003414D02*
X010111Y003414D01*
X010037Y003513D02*
X010568Y003513D01*
X010539Y003611D02*
X009909Y003611D01*
X009709Y003611D02*
X009609Y003611D01*
X009609Y003513D02*
X009709Y003513D01*
X009709Y003414D02*
X009609Y003414D01*
X009609Y003316D02*
X009709Y003316D01*
X009409Y003611D02*
X008909Y003611D01*
X009037Y003513D02*
X009281Y003513D01*
X009208Y003414D02*
X009111Y003414D01*
X009154Y003316D02*
X009165Y003316D01*
X009194Y002922D02*
X009124Y002922D01*
X009061Y002823D02*
X009257Y002823D01*
X009367Y002725D02*
X008951Y002725D01*
X008709Y003217D02*
X008609Y003217D01*
X008609Y003316D02*
X008709Y003316D01*
X008709Y003414D02*
X008609Y003414D01*
X008609Y003513D02*
X008709Y003513D01*
X008709Y003611D02*
X008609Y003611D01*
X008409Y003611D02*
X008080Y003611D01*
X008178Y003513D02*
X008281Y003513D01*
X007940Y003710D02*
X010539Y003710D01*
X010539Y003809D02*
X006751Y003809D01*
X006849Y003907D02*
X010572Y003907D01*
X010612Y004006D02*
X006948Y004006D01*
X007046Y004104D02*
X010681Y004104D01*
X010780Y004203D02*
X007145Y004203D01*
X007244Y004301D02*
X010978Y004301D01*
X011197Y004498D02*
X007441Y004498D01*
X007539Y004597D02*
X008887Y004597D01*
X008808Y004629D02*
X009036Y004535D01*
X009282Y004535D01*
X009510Y004629D01*
X009685Y004804D01*
X009779Y005032D01*
X009779Y005278D01*
X009685Y005506D01*
X009510Y005681D01*
X009897Y005681D01*
X009856Y005779D02*
X008722Y005779D01*
X008808Y005681D02*
X008633Y005506D01*
X008539Y005278D01*
X008539Y005032D01*
X008633Y004804D01*
X008808Y004629D01*
X008742Y004695D02*
X007638Y004695D01*
X007736Y004794D02*
X008643Y004794D01*
X008597Y004892D02*
X007835Y004892D01*
X007933Y004991D02*
X008556Y004991D01*
X008539Y005090D02*
X008032Y005090D01*
X008130Y005188D02*
X008539Y005188D01*
X008542Y005287D02*
X008229Y005287D01*
X008327Y005385D02*
X008583Y005385D01*
X008624Y005484D02*
X008426Y005484D01*
X008525Y005582D02*
X008709Y005582D01*
X008623Y005681D02*
X008808Y005681D01*
X009036Y005775D01*
X009282Y005775D01*
X009510Y005681D01*
X009609Y005582D02*
X009995Y005582D01*
X009694Y005484D02*
X010369Y005484D01*
X010372Y005385D02*
X009735Y005385D01*
X009776Y005287D02*
X010413Y005287D01*
X010508Y005188D02*
X009779Y005188D01*
X009779Y005090D02*
X010606Y005090D01*
X010705Y004991D02*
X009762Y004991D01*
X009721Y004892D02*
X010803Y004892D01*
X010902Y004794D02*
X009675Y004794D01*
X009576Y004695D02*
X011000Y004695D01*
X011099Y004597D02*
X009431Y004597D01*
X009829Y005878D02*
X008820Y005878D01*
X008919Y005976D02*
X009799Y005976D01*
X009701Y006075D02*
X009017Y006075D01*
X009381Y006174D02*
X009602Y006174D01*
X009526Y007060D02*
X009503Y007060D01*
X009625Y007159D02*
X009328Y007159D01*
X008991Y007159D02*
X008328Y007159D01*
X008503Y007060D02*
X008815Y007060D01*
X008716Y006962D02*
X008602Y006962D01*
X008646Y006863D02*
X008672Y006863D01*
X007991Y007159D02*
X007328Y007159D01*
X007503Y007060D02*
X007815Y007060D01*
X007716Y006962D02*
X007602Y006962D01*
X007646Y006863D02*
X007672Y006863D01*
X007656Y006469D02*
X007662Y006469D01*
X007703Y006371D02*
X007615Y006371D01*
X007526Y006272D02*
X007793Y006272D01*
X007937Y006174D02*
X007381Y006174D01*
X007175Y005878D02*
X007944Y005878D01*
X008042Y005976D02*
X007076Y005976D01*
X006978Y006075D02*
X008141Y006075D01*
X007845Y005779D02*
X007273Y005779D01*
X007372Y005681D02*
X007746Y005681D01*
X007648Y005582D02*
X007470Y005582D01*
X006988Y005188D02*
X006779Y005188D01*
X006779Y005090D02*
X007086Y005090D01*
X007057Y004991D02*
X006762Y004991D01*
X006721Y004892D02*
X006958Y004892D01*
X006860Y004794D02*
X006675Y004794D01*
X006761Y004695D02*
X006576Y004695D01*
X006662Y004597D02*
X006431Y004597D01*
X006776Y005287D02*
X006889Y005287D01*
X006791Y005385D02*
X006735Y005385D01*
X006879Y006174D02*
X006937Y006174D01*
X006793Y006272D02*
X006780Y006272D01*
X006703Y006371D02*
X006682Y006371D01*
X006662Y006469D02*
X006583Y006469D01*
X006629Y006568D02*
X006485Y006568D01*
X006386Y006666D02*
X006629Y006666D01*
X006631Y006765D02*
X006288Y006765D01*
X006249Y006863D02*
X006672Y006863D01*
X006716Y006962D02*
X006225Y006962D01*
X006184Y007060D02*
X006815Y007060D01*
X006991Y007159D02*
X006092Y007159D01*
X006075Y007258D02*
X009723Y007258D01*
X009822Y007356D02*
X006158Y007356D01*
X006198Y007455D02*
X009920Y007455D01*
X010019Y007553D02*
X006234Y007553D01*
X006234Y007652D02*
X010117Y007652D01*
X010216Y007750D02*
X006234Y007750D01*
X006201Y007849D02*
X010314Y007849D01*
X010413Y007947D02*
X006160Y007947D01*
X006081Y008046D02*
X010511Y008046D01*
X010610Y008144D02*
X005980Y008144D01*
X006060Y008243D02*
X010709Y008243D01*
X010807Y008341D02*
X006151Y008341D01*
X006192Y008440D02*
X010906Y008440D01*
X011388Y008046D02*
X017330Y008046D01*
X017231Y008144D02*
X011487Y008144D01*
X011547Y008205D02*
X011649Y008205D01*
X011814Y008274D01*
X011941Y008400D01*
X011984Y008505D01*
X012021Y008505D01*
X016871Y008505D01*
X018191Y007185D01*
X018054Y007185D01*
X017859Y007104D01*
X017710Y006955D01*
X017659Y006833D01*
X017608Y006955D01*
X017459Y007104D01*
X017264Y007185D01*
X017054Y007185D01*
X016859Y007104D01*
X016710Y006955D01*
X016659Y006833D01*
X016608Y006955D01*
X016459Y007104D01*
X016264Y007185D01*
X016054Y007185D01*
X015859Y007104D01*
X015710Y006955D01*
X015659Y006833D01*
X015608Y006955D01*
X015459Y007104D01*
X015264Y007185D01*
X015054Y007185D01*
X014859Y007104D01*
X014710Y006955D01*
X014629Y006761D01*
X014629Y006550D01*
X014710Y006355D01*
X014859Y006206D01*
X015054Y006125D01*
X015264Y006125D01*
X015459Y006206D01*
X015608Y006355D01*
X015659Y006477D01*
X015710Y006355D01*
X015859Y006206D01*
X016054Y006125D01*
X016264Y006125D01*
X016459Y006206D01*
X016608Y006355D01*
X016659Y006477D01*
X016710Y006355D01*
X016849Y006216D01*
X016849Y005037D01*
X016849Y004913D01*
X016896Y004799D01*
X017433Y004263D01*
X017282Y004325D01*
X017036Y004325D01*
X016808Y004231D01*
X016633Y004056D01*
X016619Y004022D01*
X016510Y004131D01*
X016282Y004225D01*
X016267Y004225D01*
X015575Y004918D01*
X015461Y004965D01*
X015337Y004965D01*
X013607Y004965D01*
X013455Y005117D01*
X013545Y005080D01*
X013773Y005080D01*
X013985Y005168D01*
X014146Y005329D01*
X014213Y005490D01*
X014219Y005473D01*
X014253Y005406D01*
X014297Y005346D01*
X014350Y005293D01*
X014410Y005249D01*
X014477Y005215D01*
X014548Y005192D01*
X014622Y005180D01*
X014640Y005180D01*
X014640Y005636D01*
X014678Y005636D01*
X014678Y005180D01*
X014696Y005180D01*
X014770Y005192D01*
X014841Y005215D01*
X014908Y005249D01*
X014968Y005293D01*
X015021Y005346D01*
X015065Y005406D01*
X015099Y005473D01*
X015122Y005544D01*
X015134Y005618D01*
X015134Y005636D01*
X014678Y005636D01*
X014678Y005674D01*
X015134Y005674D01*
X015134Y005692D01*
X015122Y005766D01*
X015099Y005837D01*
X015065Y005904D01*
X015021Y005965D01*
X014968Y006017D01*
X014908Y006061D01*
X014841Y006095D01*
X014770Y006118D01*
X014696Y006130D01*
X014678Y006130D01*
X014678Y005674D01*
X014640Y005674D01*
X014640Y006130D01*
X014622Y006130D01*
X014548Y006118D01*
X014477Y006095D01*
X014410Y006061D01*
X014350Y006017D01*
X014297Y005965D01*
X014253Y005904D01*
X014219Y005837D01*
X014213Y005820D01*
X014146Y005981D01*
X013985Y006143D01*
X013773Y006230D01*
X013545Y006230D01*
X013333Y006143D01*
X013172Y005981D01*
X013084Y005769D01*
X013084Y005541D01*
X013172Y005329D01*
X013296Y005205D01*
X013245Y005205D01*
X013174Y005277D01*
X013009Y005345D01*
X012830Y005345D01*
X012664Y005277D01*
X012538Y005150D01*
X012492Y005040D01*
X012029Y005504D01*
X012029Y006135D01*
X012054Y006125D01*
X012264Y006125D01*
X012459Y006206D01*
X012608Y006355D01*
X012659Y006477D01*
X012710Y006355D01*
X012859Y006206D01*
X013054Y006125D01*
X013264Y006125D01*
X013459Y006206D01*
X013608Y006355D01*
X013689Y006550D01*
X013689Y006761D01*
X013608Y006955D01*
X013459Y007104D01*
X013264Y007185D01*
X013054Y007185D01*
X012859Y007104D01*
X012710Y006955D01*
X012659Y006833D01*
X012608Y006955D01*
X012459Y007104D01*
X012264Y007185D01*
X012054Y007185D01*
X011859Y007104D01*
X011823Y007069D01*
X011609Y007283D01*
X011609Y007385D01*
X011541Y007550D01*
X011414Y007677D01*
X011249Y007745D01*
X011087Y007745D01*
X011547Y008205D01*
X011740Y008243D02*
X017133Y008243D01*
X017034Y008341D02*
X011882Y008341D01*
X011957Y008440D02*
X016936Y008440D01*
X017428Y007947D02*
X011290Y007947D01*
X011191Y007849D02*
X017527Y007849D01*
X017626Y007750D02*
X011093Y007750D01*
X011439Y007652D02*
X017724Y007652D01*
X017823Y007553D02*
X011537Y007553D01*
X011580Y007455D02*
X017921Y007455D01*
X018020Y007356D02*
X011609Y007356D01*
X011635Y007258D02*
X018118Y007258D01*
X017991Y007159D02*
X017328Y007159D01*
X017503Y007060D02*
X017815Y007060D01*
X017716Y006962D02*
X017602Y006962D01*
X017646Y006863D02*
X017672Y006863D01*
X016991Y007159D02*
X016328Y007159D01*
X016503Y007060D02*
X016815Y007060D01*
X016716Y006962D02*
X016602Y006962D01*
X016646Y006863D02*
X016672Y006863D01*
X016656Y006469D02*
X016662Y006469D01*
X016703Y006371D02*
X016615Y006371D01*
X016526Y006272D02*
X016793Y006272D01*
X016849Y006174D02*
X016381Y006174D01*
X015937Y006174D02*
X015381Y006174D01*
X015526Y006272D02*
X015793Y006272D01*
X015703Y006371D02*
X015615Y006371D01*
X015656Y006469D02*
X015662Y006469D01*
X015646Y006863D02*
X015672Y006863D01*
X015716Y006962D02*
X015602Y006962D01*
X015503Y007060D02*
X015815Y007060D01*
X015991Y007159D02*
X015328Y007159D01*
X014991Y007159D02*
X013328Y007159D01*
X013503Y007060D02*
X014015Y007060D01*
X013994Y007054D02*
X013934Y007023D01*
X013879Y006983D01*
X013831Y006935D01*
X013791Y006880D01*
X013761Y006820D01*
X013740Y006756D01*
X013729Y006689D01*
X013729Y006685D01*
X014129Y006685D01*
X014129Y006625D01*
X014189Y006625D01*
X014189Y006225D01*
X014193Y006225D01*
X014260Y006236D01*
X014324Y006257D01*
X014384Y006287D01*
X014439Y006327D01*
X014487Y006375D01*
X014527Y006430D01*
X014558Y006490D01*
X014578Y006554D01*
X014589Y006621D01*
X014589Y006625D01*
X014189Y006625D01*
X014189Y006685D01*
X014589Y006685D01*
X014589Y006689D01*
X014578Y006756D01*
X014558Y006820D01*
X014527Y006880D01*
X014487Y006935D01*
X014439Y006983D01*
X014384Y007023D01*
X014324Y007054D01*
X014260Y007074D01*
X014193Y007085D01*
X014189Y007085D01*
X014189Y006685D01*
X014129Y006685D01*
X014129Y007085D01*
X014125Y007085D01*
X014058Y007074D01*
X013994Y007054D01*
X014129Y007060D02*
X014189Y007060D01*
X014189Y006962D02*
X014129Y006962D01*
X014129Y006863D02*
X014189Y006863D01*
X014189Y006765D02*
X014129Y006765D01*
X014129Y006666D02*
X013689Y006666D01*
X013729Y006625D02*
X013729Y006621D01*
X013740Y006554D01*
X013761Y006490D01*
X013791Y006430D01*
X013831Y006375D01*
X013879Y006327D01*
X013934Y006287D01*
X013994Y006257D01*
X014058Y006236D01*
X014125Y006225D01*
X014129Y006225D01*
X014129Y006625D01*
X013729Y006625D01*
X013738Y006568D02*
X013689Y006568D01*
X013656Y006469D02*
X013771Y006469D01*
X013835Y006371D02*
X013615Y006371D01*
X013526Y006272D02*
X013964Y006272D01*
X013910Y006174D02*
X014937Y006174D01*
X014881Y006075D02*
X016849Y006075D01*
X016849Y005976D02*
X015009Y005976D01*
X015079Y005878D02*
X016849Y005878D01*
X016849Y005779D02*
X015118Y005779D01*
X015134Y005681D02*
X016849Y005681D01*
X016849Y005582D02*
X015128Y005582D01*
X015103Y005484D02*
X016849Y005484D01*
X016849Y005385D02*
X015050Y005385D01*
X014960Y005287D02*
X016849Y005287D01*
X016849Y005188D02*
X014747Y005188D01*
X014678Y005188D02*
X014640Y005188D01*
X014571Y005188D02*
X014005Y005188D01*
X014104Y005287D02*
X014358Y005287D01*
X014268Y005385D02*
X014170Y005385D01*
X014210Y005484D02*
X014215Y005484D01*
X014189Y005878D02*
X014239Y005878D01*
X014309Y005976D02*
X014148Y005976D01*
X014052Y006075D02*
X014437Y006075D01*
X014640Y006075D02*
X014678Y006075D01*
X014678Y005976D02*
X014640Y005976D01*
X014640Y005878D02*
X014678Y005878D01*
X014678Y005779D02*
X014640Y005779D01*
X014640Y005681D02*
X014678Y005681D01*
X014678Y005582D02*
X014640Y005582D01*
X014640Y005484D02*
X014678Y005484D01*
X014678Y005385D02*
X014640Y005385D01*
X014640Y005287D02*
X014678Y005287D01*
X015600Y004892D02*
X016858Y004892D01*
X016849Y004991D02*
X013581Y004991D01*
X013522Y005090D02*
X013483Y005090D01*
X013796Y005090D02*
X016849Y005090D01*
X016902Y004794D02*
X015699Y004794D01*
X015797Y004695D02*
X017000Y004695D01*
X017099Y004597D02*
X015896Y004597D01*
X015994Y004498D02*
X017197Y004498D01*
X017296Y004400D02*
X016093Y004400D01*
X016191Y004301D02*
X016978Y004301D01*
X016780Y004203D02*
X016336Y004203D01*
X016537Y004104D02*
X016681Y004104D01*
X017340Y004301D02*
X017395Y004301D01*
X018541Y004991D02*
X020369Y004991D01*
X020369Y004892D02*
X018640Y004892D01*
X018739Y004794D02*
X020369Y004794D01*
X020369Y004695D02*
X018837Y004695D01*
X018936Y004597D02*
X020369Y004597D01*
X020369Y004498D02*
X019034Y004498D01*
X019133Y004400D02*
X020369Y004400D01*
X020369Y004301D02*
X019340Y004301D01*
X019538Y004203D02*
X020311Y004203D01*
X020042Y003907D02*
X019746Y003907D01*
X019779Y003809D02*
X020002Y003809D01*
X019989Y003710D02*
X019779Y003710D01*
X019779Y003611D02*
X019989Y003611D01*
X019997Y003513D02*
X019750Y003513D01*
X019710Y003414D02*
X020038Y003414D01*
X020078Y003316D02*
X019647Y003316D01*
X019548Y003217D02*
X020170Y003217D01*
X020284Y003119D02*
X019622Y003119D01*
X019700Y003020D02*
X020197Y003020D01*
X020148Y002922D02*
X019740Y002922D01*
X019779Y002823D02*
X020108Y002823D01*
X020089Y002725D02*
X019779Y002725D01*
X019779Y002626D02*
X020089Y002626D01*
X020091Y002527D02*
X019756Y002527D01*
X019716Y002429D02*
X020132Y002429D01*
X020172Y002330D02*
X019661Y002330D01*
X019563Y002232D02*
X020256Y002232D01*
X020210Y002133D02*
X019454Y002133D01*
X019562Y002035D02*
X020112Y002035D01*
X020054Y001936D02*
X019625Y001936D01*
X019663Y001838D02*
X020014Y001838D01*
X019989Y001739D02*
X019209Y001739D01*
X019209Y001641D02*
X019109Y001641D01*
X019109Y001542D02*
X019209Y001542D01*
X019209Y001443D02*
X019109Y001443D01*
X019109Y001345D02*
X019209Y001345D01*
X019209Y001246D02*
X019109Y001246D01*
X018914Y001246D02*
X018536Y001246D01*
X018610Y001345D02*
X018784Y001345D01*
X018709Y001443D02*
X018653Y001443D01*
X018407Y001148D02*
X020239Y001148D01*
X020141Y001246D02*
X019404Y001246D01*
X019534Y001345D02*
X020066Y001345D01*
X020026Y001443D02*
X019609Y001443D01*
X019653Y001542D02*
X019989Y001542D01*
X019989Y001641D02*
X019675Y001641D01*
X020451Y001049D02*
X001329Y001049D01*
X001329Y000951D02*
X024009Y000951D01*
X024009Y001049D02*
X020767Y001049D01*
X020979Y001148D02*
X024009Y001148D01*
X024009Y001246D02*
X022911Y001246D01*
X022825Y001215D02*
X023136Y001329D01*
X023136Y001329D01*
X023390Y001542D01*
X024009Y001542D01*
X024009Y001641D02*
X023447Y001641D01*
X023504Y001739D02*
X024009Y001739D01*
X024009Y001838D02*
X023558Y001838D01*
X023556Y001829D02*
X023614Y002155D01*
X023556Y002482D01*
X023390Y002769D01*
X023136Y002982D01*
X022825Y003095D01*
X022825Y003095D01*
X022746Y003095D01*
X022659Y003095D01*
X022649Y003095D01*
X022572Y003095D01*
X022493Y003095D01*
X022182Y002982D01*
X022182Y002982D01*
X021928Y002769D01*
X021928Y002769D01*
X021928Y002769D01*
X021762Y002482D01*
X021762Y002482D01*
X021705Y002155D01*
X021762Y001829D01*
X021762Y001829D01*
X021928Y001542D01*
X021229Y001542D01*
X021229Y001641D02*
X021871Y001641D01*
X021814Y001739D02*
X021229Y001739D01*
X021205Y001838D02*
X021761Y001838D01*
X021743Y001936D02*
X021164Y001936D01*
X021106Y002035D02*
X021726Y002035D01*
X021708Y002133D02*
X021064Y002133D01*
X021163Y002232D02*
X021718Y002232D01*
X021705Y002155D02*
X021705Y002155D01*
X021735Y002330D02*
X021246Y002330D01*
X021286Y002429D02*
X021753Y002429D01*
X021789Y002527D02*
X021327Y002527D01*
X021329Y002626D02*
X021846Y002626D01*
X021902Y002725D02*
X021329Y002725D01*
X021311Y002823D02*
X021993Y002823D01*
X022110Y002922D02*
X021270Y002922D01*
X021221Y003020D02*
X022287Y003020D01*
X022493Y003095D02*
X022493Y003095D01*
X023031Y003020D02*
X024009Y003020D01*
X024009Y002922D02*
X023208Y002922D01*
X023136Y002982D02*
X023136Y002982D01*
X023325Y002823D02*
X024009Y002823D01*
X024009Y002725D02*
X023416Y002725D01*
X023390Y002769D02*
X023390Y002769D01*
X023473Y002626D02*
X024009Y002626D01*
X024009Y002527D02*
X023529Y002527D01*
X023556Y002482D02*
X023556Y002482D01*
X023565Y002429D02*
X024009Y002429D01*
X024009Y002330D02*
X023583Y002330D01*
X023600Y002232D02*
X024009Y002232D01*
X024009Y002133D02*
X023610Y002133D01*
X023614Y002155D02*
X023614Y002155D01*
X023592Y002035D02*
X024009Y002035D01*
X024009Y001936D02*
X023575Y001936D01*
X023556Y001829D02*
X023556Y001829D01*
X023390Y001542D01*
X023390Y001542D01*
X023390Y001542D01*
X023273Y001443D02*
X024009Y001443D01*
X024009Y001345D02*
X023156Y001345D01*
X022825Y001215D02*
X022825Y001215D01*
X022746Y001215D01*
X022659Y001215D01*
X022493Y001215D01*
X022493Y001215D01*
X022182Y001329D01*
X022182Y001329D01*
X021928Y001542D01*
X021928Y001542D01*
X022045Y001443D02*
X021192Y001443D01*
X021152Y001345D02*
X022162Y001345D01*
X022407Y001246D02*
X021077Y001246D01*
X021122Y003119D02*
X024009Y003119D01*
X024009Y003217D02*
X021048Y003217D01*
X021140Y003316D02*
X024009Y003316D01*
X024009Y003414D02*
X021180Y003414D01*
X021221Y003513D02*
X024009Y003513D01*
X024009Y003611D02*
X023349Y003611D01*
X023527Y003710D02*
X024009Y003710D01*
X024009Y003809D02*
X023626Y003809D01*
X023679Y003907D02*
X024009Y003907D01*
X024009Y004006D02*
X023719Y004006D01*
X023734Y004104D02*
X024009Y004104D01*
X024009Y004203D02*
X023734Y004203D01*
X023721Y004301D02*
X024009Y004301D01*
X024009Y004400D02*
X023680Y004400D01*
X023629Y004498D02*
X024009Y004498D01*
X024009Y004597D02*
X023530Y004597D01*
X023357Y004695D02*
X024009Y004695D01*
X024009Y004794D02*
X020989Y004794D01*
X020989Y004892D02*
X024009Y004892D01*
X024009Y004991D02*
X020989Y004991D01*
X020989Y005090D02*
X024009Y005090D01*
X024009Y005188D02*
X020989Y005188D01*
X020989Y005287D02*
X024009Y005287D01*
X024009Y005385D02*
X020989Y005385D01*
X020989Y005484D02*
X024009Y005484D01*
X024009Y005582D02*
X023279Y005582D01*
X023273Y005580D02*
X023485Y005668D01*
X023646Y005829D01*
X023734Y006041D01*
X023734Y006269D01*
X023646Y006481D01*
X023485Y006643D01*
X023273Y006730D01*
X023045Y006730D01*
X022833Y006643D01*
X022672Y006481D01*
X022584Y006269D01*
X022584Y006041D01*
X022672Y005829D01*
X022833Y005668D01*
X023045Y005580D01*
X023273Y005580D01*
X023039Y005582D02*
X020989Y005582D01*
X020989Y005681D02*
X022820Y005681D01*
X022722Y005779D02*
X020989Y005779D01*
X021060Y005878D02*
X022651Y005878D01*
X022611Y005976D02*
X021159Y005976D01*
X021257Y006075D02*
X022584Y006075D01*
X022584Y006174D02*
X021356Y006174D01*
X021454Y006272D02*
X022585Y006272D01*
X022626Y006371D02*
X021553Y006371D01*
X021651Y006469D02*
X022667Y006469D01*
X022758Y006568D02*
X021750Y006568D01*
X021849Y006666D02*
X022891Y006666D01*
X023428Y006666D02*
X024009Y006666D01*
X024009Y006568D02*
X023560Y006568D01*
X023651Y006469D02*
X024009Y006469D01*
X024009Y006371D02*
X023692Y006371D01*
X023733Y006272D02*
X024009Y006272D01*
X024009Y006174D02*
X023734Y006174D01*
X023734Y006075D02*
X024009Y006075D01*
X024009Y005976D02*
X023707Y005976D01*
X023667Y005878D02*
X024009Y005878D01*
X024009Y005779D02*
X023596Y005779D01*
X023498Y005681D02*
X024009Y005681D01*
X024009Y006765D02*
X021947Y006765D01*
X022046Y006863D02*
X024009Y006863D01*
X024009Y006962D02*
X022144Y006962D01*
X022243Y007060D02*
X024009Y007060D01*
X024009Y007159D02*
X022341Y007159D01*
X022440Y007258D02*
X024009Y007258D01*
X024009Y007356D02*
X022494Y007356D01*
X022509Y007455D02*
X024009Y007455D01*
X024009Y007553D02*
X022509Y007553D01*
X021889Y007652D02*
X018601Y007652D01*
X018502Y007750D02*
X021889Y007750D01*
X021889Y007849D02*
X018404Y007849D01*
X018305Y007947D02*
X021889Y007947D01*
X021889Y008046D02*
X018207Y008046D01*
X018108Y008144D02*
X021889Y008144D01*
X021889Y008243D02*
X018010Y008243D01*
X017911Y008341D02*
X021889Y008341D01*
X021889Y008440D02*
X017812Y008440D01*
X017714Y008539D02*
X021889Y008539D01*
X021889Y009130D02*
X020276Y009130D01*
X020482Y009228D02*
X021889Y009228D01*
X021889Y009327D02*
X020580Y009327D01*
X020638Y009425D02*
X021889Y009425D01*
X021889Y009524D02*
X020678Y009524D01*
X020689Y009623D02*
X021889Y009623D01*
X021889Y009721D02*
X020689Y009721D01*
X020665Y009820D02*
X021889Y009820D01*
X021889Y009918D02*
X020624Y009918D01*
X020547Y010017D02*
X021889Y010017D01*
X021905Y010115D02*
X020433Y010115D01*
X019885Y010115D02*
X019433Y010115D01*
X019547Y010017D02*
X019771Y010017D01*
X019694Y009918D02*
X019624Y009918D01*
X019638Y009425D02*
X019681Y009425D01*
X019738Y009327D02*
X019580Y009327D01*
X019482Y009228D02*
X019836Y009228D01*
X020042Y009130D02*
X019276Y009130D01*
X019042Y009130D02*
X018276Y009130D01*
X018482Y009228D02*
X018836Y009228D01*
X018738Y009327D02*
X018580Y009327D01*
X018638Y009425D02*
X018681Y009425D01*
X018694Y009918D02*
X018624Y009918D01*
X018547Y010017D02*
X018771Y010017D01*
X018885Y010115D02*
X018433Y010115D01*
X018699Y007553D02*
X021859Y007553D01*
X021760Y007455D02*
X018798Y007455D01*
X018896Y007356D02*
X021662Y007356D01*
X021563Y007258D02*
X018995Y007258D01*
X019328Y007159D02*
X019991Y007159D01*
X019815Y007060D02*
X019503Y007060D01*
X019602Y006962D02*
X019716Y006962D01*
X019672Y006863D02*
X019646Y006863D01*
X019656Y006469D02*
X019662Y006469D01*
X019703Y006371D02*
X019615Y006371D01*
X019526Y006272D02*
X019793Y006272D01*
X019937Y006174D02*
X019381Y006174D01*
X018937Y006174D02*
X018509Y006174D01*
X018509Y006075D02*
X020401Y006075D01*
X020381Y006174D02*
X020479Y006174D01*
X020526Y006272D02*
X020578Y006272D01*
X020615Y006371D02*
X020676Y006371D01*
X020656Y006469D02*
X020775Y006469D01*
X020689Y006568D02*
X020873Y006568D01*
X020972Y006666D02*
X020689Y006666D01*
X020687Y006765D02*
X021070Y006765D01*
X021169Y006863D02*
X020646Y006863D01*
X020602Y006962D02*
X021267Y006962D01*
X021366Y007060D02*
X020503Y007060D01*
X020328Y007159D02*
X021465Y007159D01*
X020369Y005976D02*
X018509Y005976D01*
X018509Y005878D02*
X020369Y005878D01*
X020369Y005779D02*
X018509Y005779D01*
X018509Y005681D02*
X020369Y005681D01*
X020369Y005582D02*
X018509Y005582D01*
X018509Y005484D02*
X020369Y005484D01*
X020369Y005385D02*
X018509Y005385D01*
X018509Y005287D02*
X020369Y005287D01*
X020369Y005188D02*
X018509Y005188D01*
X018509Y005090D02*
X020369Y005090D01*
X020989Y004152D02*
X021135Y004006D01*
X022484Y003809D02*
X022692Y003809D01*
X022639Y003907D02*
X022566Y003907D01*
X024009Y000852D02*
X001329Y000852D01*
X001329Y001345D02*
X002162Y001345D01*
X002182Y001329D02*
X002182Y001329D01*
X002493Y001215D01*
X002493Y001215D01*
X002182Y001329D02*
X001928Y001542D01*
X001329Y001542D01*
X001329Y001641D02*
X001871Y001641D01*
X001814Y001739D02*
X001329Y001739D01*
X001329Y001838D02*
X001761Y001838D01*
X001762Y001829D02*
X001762Y001829D01*
X001705Y002155D01*
X001705Y002155D01*
X001762Y002482D01*
X001762Y002482D01*
X001928Y002769D01*
X001928Y002769D01*
X001928Y002769D01*
X002182Y002982D01*
X002182Y002982D01*
X002110Y002922D02*
X001329Y002922D01*
X001329Y002823D02*
X001993Y002823D01*
X001902Y002725D02*
X001329Y002725D01*
X001329Y002626D02*
X001846Y002626D01*
X001789Y002527D02*
X001329Y002527D01*
X001329Y002429D02*
X001753Y002429D01*
X001735Y002330D02*
X001329Y002330D01*
X001329Y002232D02*
X001718Y002232D01*
X001708Y002133D02*
X001329Y002133D01*
X001329Y002035D02*
X001726Y002035D01*
X001743Y001936D02*
X001329Y001936D01*
X001762Y001829D02*
X001928Y001542D01*
X001928Y001542D01*
X002045Y001443D02*
X001329Y001443D01*
X002825Y001215D02*
X002825Y001215D01*
X003473Y002626D02*
X004316Y002626D01*
X004213Y002725D02*
X003416Y002725D01*
X003325Y002823D02*
X004125Y002823D01*
X004085Y002922D02*
X003208Y002922D01*
X003031Y003020D02*
X004044Y003020D01*
X005002Y002626D02*
X005316Y002626D01*
X005213Y002725D02*
X005105Y002725D01*
X006002Y002626D02*
X006316Y002626D01*
X006213Y002725D02*
X006105Y002725D01*
X007002Y002626D02*
X007316Y002626D01*
X007213Y002725D02*
X007105Y002725D01*
X007080Y003611D02*
X007239Y003611D01*
X007379Y003710D02*
X006940Y003710D01*
X007342Y004400D02*
X011296Y004400D01*
X011340Y004301D02*
X011395Y004301D01*
X012344Y005188D02*
X012576Y005188D01*
X012513Y005090D02*
X012443Y005090D01*
X012246Y005287D02*
X012689Y005287D01*
X013108Y005484D02*
X012049Y005484D01*
X012029Y005582D02*
X013084Y005582D01*
X013084Y005681D02*
X012029Y005681D01*
X012029Y005779D02*
X013088Y005779D01*
X013129Y005878D02*
X012029Y005878D01*
X012029Y005976D02*
X013170Y005976D01*
X013266Y006075D02*
X012029Y006075D01*
X012381Y006174D02*
X012937Y006174D01*
X012793Y006272D02*
X012526Y006272D01*
X012615Y006371D02*
X012703Y006371D01*
X012662Y006469D02*
X012656Y006469D01*
X012646Y006863D02*
X012672Y006863D01*
X012716Y006962D02*
X012602Y006962D01*
X012503Y007060D02*
X012815Y007060D01*
X012991Y007159D02*
X012328Y007159D01*
X011991Y007159D02*
X011734Y007159D01*
X012147Y005385D02*
X013148Y005385D01*
X013150Y005287D02*
X013214Y005287D01*
X013381Y006174D02*
X013408Y006174D01*
X013687Y006765D02*
X013743Y006765D01*
X013783Y006863D02*
X013646Y006863D01*
X013602Y006962D02*
X013858Y006962D01*
X014189Y006666D02*
X014629Y006666D01*
X014629Y006568D02*
X014581Y006568D01*
X014547Y006469D02*
X014662Y006469D01*
X014703Y006371D02*
X014483Y006371D01*
X014354Y006272D02*
X014793Y006272D01*
X014631Y006765D02*
X014576Y006765D01*
X014536Y006863D02*
X014672Y006863D01*
X014716Y006962D02*
X014460Y006962D01*
X014303Y007060D02*
X014815Y007060D01*
X014189Y006568D02*
X014129Y006568D01*
X014129Y006469D02*
X014189Y006469D01*
X014189Y006371D02*
X014129Y006371D01*
X014129Y006272D02*
X014189Y006272D01*
X010618Y003020D02*
X010162Y003020D01*
X010124Y002922D02*
X010578Y002922D01*
X010539Y002823D02*
X010061Y002823D01*
X009951Y002725D02*
X010539Y002725D01*
X009709Y002725D02*
X009609Y002725D01*
X009609Y002823D02*
X009709Y002823D01*
X009709Y002922D02*
X009609Y002922D01*
X009609Y003020D02*
X009709Y003020D01*
X012109Y001542D02*
X012209Y001542D01*
X012209Y001443D02*
X012109Y001443D01*
X012109Y001345D02*
X012209Y001345D01*
X012209Y001246D02*
X012109Y001246D01*
X012109Y001148D02*
X012209Y001148D01*
X012407Y001148D02*
X013911Y001148D01*
X013782Y001246D02*
X013404Y001246D01*
X013534Y001345D02*
X013708Y001345D01*
X013665Y001443D02*
X013609Y001443D01*
X013209Y001443D02*
X013109Y001443D01*
X013109Y001345D02*
X013209Y001345D01*
X013209Y001246D02*
X013109Y001246D01*
X012914Y001246D02*
X012536Y001246D01*
X012610Y001345D02*
X012784Y001345D01*
X012709Y001443D02*
X012653Y001443D01*
X013109Y001542D02*
X013209Y001542D01*
X013209Y001641D02*
X013109Y001641D01*
X014109Y001542D02*
X014209Y001542D01*
X014209Y001443D02*
X014109Y001443D01*
X014109Y001345D02*
X014209Y001345D01*
X014209Y001246D02*
X014109Y001246D01*
X014109Y001148D02*
X014209Y001148D01*
X014407Y001148D02*
X015911Y001148D01*
X015782Y001246D02*
X015404Y001246D01*
X015534Y001345D02*
X015708Y001345D01*
X015665Y001443D02*
X015609Y001443D01*
X015209Y001443D02*
X015109Y001443D01*
X015109Y001345D02*
X015209Y001345D01*
X015209Y001246D02*
X015109Y001246D01*
X014914Y001246D02*
X014536Y001246D01*
X014610Y001345D02*
X014784Y001345D01*
X014709Y001443D02*
X014653Y001443D01*
X015109Y001542D02*
X015209Y001542D01*
X015209Y001641D02*
X015109Y001641D01*
X016109Y001542D02*
X016209Y001542D01*
X016209Y001443D02*
X016109Y001443D01*
X016109Y001345D02*
X016209Y001345D01*
X016209Y001246D02*
X016109Y001246D01*
X016109Y001148D02*
X016209Y001148D01*
X016407Y001148D02*
X017911Y001148D01*
X017782Y001246D02*
X017404Y001246D01*
X017534Y001345D02*
X017708Y001345D01*
X017665Y001443D02*
X017609Y001443D01*
X017209Y001443D02*
X017109Y001443D01*
X017109Y001345D02*
X017209Y001345D01*
X017209Y001246D02*
X017109Y001246D01*
X016914Y001246D02*
X016536Y001246D01*
X016610Y001345D02*
X016784Y001345D01*
X016709Y001443D02*
X016653Y001443D01*
X017109Y001542D02*
X017209Y001542D01*
X017209Y001641D02*
X017109Y001641D01*
X018109Y001542D02*
X018209Y001542D01*
X018209Y001443D02*
X018109Y001443D01*
X018109Y001345D02*
X018209Y001345D01*
X018209Y001246D02*
X018109Y001246D01*
X018109Y001148D02*
X018209Y001148D01*
X018526Y006272D02*
X018793Y006272D01*
X018703Y006371D02*
X018615Y006371D01*
X018656Y006469D02*
X018662Y006469D01*
X023944Y009623D02*
X024009Y009623D01*
X024009Y013761D02*
X023865Y013761D01*
X020313Y018886D02*
X019949Y018886D01*
X019949Y018984D02*
X020268Y018984D01*
X020244Y019083D02*
X019949Y019083D01*
X017065Y022039D02*
X015861Y022039D01*
X015763Y021940D02*
X016966Y021940D01*
X016867Y021842D02*
X015664Y021842D01*
X015636Y021775D02*
X015570Y021748D01*
X016825Y023003D01*
X017010Y023079D01*
X017185Y023254D01*
X017199Y023288D01*
X017308Y023179D01*
X017329Y023171D01*
X017329Y022304D01*
X017329Y022335D02*
X016157Y022335D01*
X016255Y022433D02*
X017329Y022433D01*
X017329Y022532D02*
X016354Y022532D01*
X016453Y022630D02*
X017329Y022630D01*
X017329Y022729D02*
X016551Y022729D01*
X016650Y022827D02*
X017329Y022827D01*
X017329Y022926D02*
X016748Y022926D01*
X016877Y023024D02*
X017329Y023024D01*
X017329Y023123D02*
X017054Y023123D01*
X017152Y023222D02*
X017266Y023222D01*
X017186Y024108D02*
X017033Y024108D01*
X016826Y024207D02*
X017284Y024207D01*
X017488Y024306D02*
X015830Y024306D01*
X016034Y024207D02*
X016492Y024207D01*
X016286Y024108D02*
X016133Y024108D01*
X017830Y024306D02*
X019488Y024306D01*
X019284Y024207D02*
X018826Y024207D01*
X019033Y024108D02*
X019186Y024108D01*
X018492Y024207D02*
X018034Y024207D01*
X018133Y024108D02*
X018286Y024108D01*
X017262Y022236D02*
X016058Y022236D01*
X015960Y022138D02*
X017163Y022138D01*
X016769Y021743D02*
X015959Y021743D01*
X015882Y021775D02*
X016110Y021681D01*
X016285Y021506D01*
X016379Y021278D01*
X016379Y021032D01*
X016285Y020804D01*
X016110Y020629D01*
X016076Y020615D01*
X016185Y020506D01*
X016279Y020278D01*
X016279Y020032D01*
X016185Y019804D01*
X016010Y019629D01*
X015990Y019621D01*
X016032Y019600D01*
X016098Y019552D01*
X016156Y019494D01*
X016204Y019428D01*
X016241Y019355D01*
X016266Y019277D01*
X016278Y019205D01*
X015809Y019205D01*
X015809Y019105D01*
X016278Y019105D01*
X016266Y019033D01*
X016241Y018955D01*
X016204Y018883D01*
X016156Y018816D01*
X016098Y018758D01*
X016032Y018710D01*
X015990Y018689D01*
X016010Y018681D01*
X016185Y018506D01*
X016279Y018278D01*
X016279Y018032D01*
X016185Y017804D01*
X016076Y017695D01*
X016110Y017681D01*
X016285Y017506D01*
X016186Y017605D02*
X016449Y017605D01*
X016449Y017703D02*
X016084Y017703D01*
X016182Y017802D02*
X016449Y017802D01*
X016449Y017900D02*
X016224Y017900D01*
X016265Y017999D02*
X016449Y017999D01*
X016449Y018097D02*
X016279Y018097D01*
X016279Y018196D02*
X016449Y018196D01*
X016449Y018294D02*
X016272Y018294D01*
X016232Y018393D02*
X016449Y018393D01*
X016449Y018491D02*
X016191Y018491D01*
X016101Y018590D02*
X016449Y018590D01*
X016449Y018689D02*
X015991Y018689D01*
X016126Y018787D02*
X016449Y018787D01*
X016449Y018886D02*
X016205Y018886D01*
X016250Y018984D02*
X016449Y018984D01*
X016449Y019083D02*
X016274Y019083D01*
X016265Y019280D02*
X016449Y019280D01*
X016449Y019378D02*
X016229Y019378D01*
X016168Y019477D02*
X016449Y019477D01*
X016449Y019575D02*
X016065Y019575D01*
X016055Y019674D02*
X016449Y019674D01*
X016449Y019773D02*
X016153Y019773D01*
X016212Y019871D02*
X016449Y019871D01*
X016449Y019970D02*
X016253Y019970D01*
X016279Y020068D02*
X016449Y020068D01*
X016449Y020167D02*
X016279Y020167D01*
X016279Y020265D02*
X016449Y020265D01*
X016449Y020364D02*
X016244Y020364D01*
X016203Y020462D02*
X016449Y020462D01*
X016449Y020561D02*
X016130Y020561D01*
X016140Y020659D02*
X016449Y020659D01*
X016449Y020758D02*
X016239Y020758D01*
X016306Y020856D02*
X016449Y020856D01*
X016449Y020955D02*
X016347Y020955D01*
X016379Y021054D02*
X016449Y021054D01*
X016449Y021152D02*
X016379Y021152D01*
X016379Y021251D02*
X016449Y021251D01*
X016449Y021349D02*
X016350Y021349D01*
X016309Y021448D02*
X016487Y021448D01*
X016572Y021546D02*
X016245Y021546D01*
X016146Y021645D02*
X016670Y021645D01*
X015882Y021775D02*
X015636Y021775D01*
X015166Y021344D02*
X015139Y021278D01*
X015139Y021032D01*
X015233Y020804D01*
X015342Y020695D01*
X015308Y020681D01*
X015133Y020506D01*
X015039Y020278D01*
X015039Y020032D01*
X015133Y019804D01*
X015308Y019629D01*
X015448Y019572D01*
X015420Y019552D01*
X015362Y019494D01*
X015314Y019428D01*
X015277Y019355D01*
X015252Y019277D01*
X015240Y019205D01*
X015709Y019205D01*
X015709Y019105D01*
X015240Y019105D01*
X015252Y019033D01*
X015277Y018955D01*
X015314Y018883D01*
X015362Y018816D01*
X015420Y018758D01*
X015448Y018739D01*
X015438Y018735D01*
X014989Y019184D01*
X014989Y021167D01*
X015166Y021344D01*
X015139Y021251D02*
X015073Y021251D01*
X015139Y021152D02*
X014989Y021152D01*
X014989Y021054D02*
X015139Y021054D01*
X015171Y020955D02*
X014989Y020955D01*
X014989Y020856D02*
X015212Y020856D01*
X015279Y020758D02*
X014989Y020758D01*
X014989Y020659D02*
X015287Y020659D01*
X015188Y020561D02*
X014989Y020561D01*
X014989Y020462D02*
X015115Y020462D01*
X015074Y020364D02*
X014989Y020364D01*
X014989Y020265D02*
X015039Y020265D01*
X015039Y020167D02*
X014989Y020167D01*
X014989Y020068D02*
X015039Y020068D01*
X015065Y019970D02*
X014989Y019970D01*
X014989Y019871D02*
X015106Y019871D01*
X015165Y019773D02*
X014989Y019773D01*
X014989Y019674D02*
X015263Y019674D01*
X015438Y019575D02*
X014989Y019575D01*
X014989Y019477D02*
X015350Y019477D01*
X015289Y019378D02*
X014989Y019378D01*
X014989Y019280D02*
X015253Y019280D01*
X015244Y019083D02*
X015090Y019083D01*
X014991Y019181D02*
X015709Y019181D01*
X015809Y019181D02*
X016449Y019181D01*
X015392Y018787D02*
X015385Y018787D01*
X015313Y018886D02*
X015287Y018886D01*
X015268Y018984D02*
X015188Y018984D01*
X014129Y019280D02*
X011951Y019280D01*
X012045Y019378D02*
X014129Y019378D01*
X014129Y019477D02*
X012101Y019477D01*
X012127Y019575D02*
X014129Y019575D01*
X012678Y019083D02*
X012640Y019083D01*
X012640Y018984D02*
X012678Y018984D01*
X012678Y018886D02*
X012640Y018886D01*
X012640Y018787D02*
X012678Y018787D01*
X012678Y018689D02*
X012640Y018689D01*
X011678Y019280D02*
X011640Y019280D01*
X011640Y019378D02*
X011678Y019378D01*
X011678Y019477D02*
X011640Y019477D01*
X011640Y019575D02*
X011678Y019575D01*
X009965Y014648D02*
X009353Y014648D01*
X009514Y014550D02*
X009804Y014550D01*
X009708Y014451D02*
X009610Y014451D01*
X009651Y014353D02*
X009667Y014353D01*
X008965Y014648D02*
X008353Y014648D01*
X008514Y014550D02*
X008804Y014550D01*
X008708Y014451D02*
X008610Y014451D01*
X008651Y014353D02*
X008667Y014353D01*
X007965Y014648D02*
X007353Y014648D01*
X007514Y014550D02*
X007804Y014550D01*
X007708Y014451D02*
X007610Y014451D01*
X007651Y014353D02*
X007667Y014353D01*
X007651Y013958D02*
X007667Y013958D01*
X007708Y013860D02*
X007610Y013860D01*
X007515Y013761D02*
X007803Y013761D01*
X007889Y013663D02*
X007356Y013663D01*
X006965Y014648D02*
X006438Y014648D01*
X006178Y012086D02*
X006140Y012086D01*
X006140Y011988D02*
X006178Y011988D01*
X006178Y011889D02*
X006140Y011889D01*
X006140Y011791D02*
X006178Y011791D01*
X007470Y011593D02*
X007848Y011593D01*
X007749Y011495D02*
X007569Y011495D01*
X007559Y010805D02*
X007760Y010805D01*
X007858Y010707D02*
X007460Y010707D01*
X008460Y010707D02*
X008858Y010707D01*
X008760Y010805D02*
X008559Y010805D01*
X008629Y010904D02*
X008690Y010904D01*
X010129Y010904D02*
X010189Y010904D01*
X010189Y011002D02*
X010129Y011002D01*
X010129Y011101D02*
X010189Y011101D01*
X010189Y011199D02*
X010129Y011199D01*
X010129Y011298D02*
X010189Y011298D01*
X010189Y011396D02*
X010129Y011396D01*
X010129Y011495D02*
X010189Y011495D01*
X010189Y010805D02*
X010129Y010805D01*
X011640Y011791D02*
X011678Y011791D01*
X011678Y011889D02*
X011640Y011889D01*
X011640Y011988D02*
X011678Y011988D01*
X011678Y012086D02*
X011640Y012086D01*
X011965Y011791D02*
X012816Y011791D01*
X012915Y011889D02*
X012053Y011889D01*
X012104Y011988D02*
X013013Y011988D01*
X013112Y012086D02*
X012129Y012086D01*
X012134Y012185D02*
X013210Y012185D01*
X013316Y012283D02*
X012117Y012283D01*
X004805Y005484D02*
X004349Y005484D01*
X004349Y005582D02*
X004596Y005582D01*
X004497Y005681D02*
X004349Y005681D01*
X004349Y005779D02*
X004432Y005779D01*
X004391Y005878D02*
X004349Y005878D01*
X004349Y005976D02*
X004369Y005976D01*
X004369Y006075D02*
X004349Y006075D01*
X004349Y006174D02*
X004375Y006174D01*
X003729Y005385D02*
X001329Y005385D01*
X001329Y005287D02*
X003729Y005287D01*
X003729Y005188D02*
X001329Y005188D01*
X001329Y005090D02*
X003729Y005090D01*
X003729Y004991D02*
X001329Y004991D01*
X001329Y004892D02*
X003729Y004892D01*
X003729Y004794D02*
X001329Y004794D01*
X002329Y004104D02*
X002429Y004104D01*
X002429Y004006D02*
X002329Y004006D01*
X002329Y003907D02*
X002429Y003907D01*
X002829Y004400D02*
X003729Y004400D01*
X003729Y004498D02*
X002788Y004498D01*
X002712Y004597D02*
X003729Y004597D01*
X003729Y004695D02*
X002570Y004695D01*
X003612Y020955D02*
X001329Y020955D01*
X001329Y021054D02*
X003681Y021054D01*
X003779Y021152D02*
X001329Y021152D01*
D18*
X013479Y015455D03*
X016759Y012015D03*
X019239Y015215D03*
X011559Y008655D03*
X011159Y007295D03*
X010679Y006975D03*
X010279Y005935D03*
X012919Y004895D03*
X005799Y006815D03*
M02*
