%
M48
M72
T01C0.0200
T02C0.0276
T03C0.0315
T04C0.0320
T05C0.0354
T06C0.0400
T07C0.1300
%
T01
X5399Y10622
X13159Y5742
X14279Y14062
T02
X13159Y14082
X13159Y15082
X12659Y18582
X12659Y19582
X11659Y20582
X10659Y20582
X8159Y20082
X7159Y20082
X7659Y15082
X7659Y14082
X6159Y15082
X5159Y15082
X14159Y6082
X15159Y6082
X22159Y5082
X23159Y5082
X23159Y7082
X23159Y9082
X23159Y11082
X22159Y11082
X21159Y23582
X21159Y24582
X19659Y24082
X18659Y24082
X5659Y3582
X4659Y3582
T03
X6159Y7082
X6159Y8082
X6159Y9082
X6159Y10082
X6159Y11082
X6159Y12082
X6159Y13082
T04
X8659Y12082
X9659Y12082
X10659Y12082
X11659Y12082
X11159Y10082
X10159Y10082
X9159Y10082
X8159Y10082
X8159Y7082
X9159Y7082
X10159Y7082
X11159Y7082
X12159Y7082
X13159Y7082
X14159Y7082
X15159Y7082
X16159Y7082
X17159Y7082
X18159Y7082
X19159Y7082
X20159Y7082
X21159Y7082
X21159Y10082
X20159Y10082
X19159Y10082
X18159Y10082
X17159Y10082
X16159Y10082
X15159Y10082
X14159Y10082
X13159Y10082
X12159Y10082
X14159Y12082
X15159Y12082
X16159Y12082
X17159Y12082
X18159Y12082
X19159Y12082
X20159Y12082
X21159Y12082
X22159Y12082
X23159Y12082
X23159Y15082
X22159Y15082
X21159Y15082
X20159Y15082
X19159Y15082
X18159Y15082
X17159Y15082
X16159Y15082
X15159Y15082
X14159Y15082
X11659Y15082
X10659Y15082
X9659Y15082
X8659Y15082
X4659Y19582
X4659Y20582
X16659Y23232
X16659Y24082
X16659Y24932
T05
X11659Y18082
X7659Y18082
X6159Y17582
X7159Y21582
X4159Y21582
X2159Y17582
X4659Y2582
X7659Y2582
T06
X10159Y2632
X10159Y3632
X10159Y4632
X11159Y4532
X11159Y3532
X11159Y2532
X12159Y2632
X12159Y3632
X12159Y4632
X13159Y4532
X13159Y3532
X13159Y2532
X14159Y2632
X14159Y3632
X14159Y4582
X15159Y4482
X15159Y3532
X15159Y2532
X16159Y2632
X16159Y3632
X16159Y4582
X17159Y4482
X17159Y3532
X17159Y2532
X18159Y2632
X18159Y3632
X18159Y4582
X19159Y4482
X19159Y3532
X19159Y2532
X20609Y2582
X20709Y3582
X20609Y4582
X20659Y17082
X20759Y18082
X20659Y19082
X20759Y20082
X20659Y21082
X20759Y22082
X18259Y22082
X18159Y21082
X18259Y20082
X18159Y19082
X18259Y18082
X18159Y17082
X15659Y17082
X15759Y18082
X15659Y19082
X15759Y20082
X15659Y21082
X15759Y22082
X12659Y23082
X11659Y23082
X10659Y23082
X8209Y24082
X7109Y24082
X5709Y24082
X4609Y24082
X2159Y21082
X2159Y20082
X2659Y16182
X2659Y15082
X4159Y13082
X4159Y12082
X4159Y11082
X4159Y10082
X4159Y9082
X4159Y8082
X4939Y6472
X4939Y4692
X2379Y4692
X2379Y6472
X23159Y17082
X23259Y18082
X23159Y19082
X23259Y20082
X23159Y21082
X23259Y22082
T07
X2659Y3082
X2659Y24082
X11659Y24482
X22659Y24082
X22659Y3082
M30
