G75*
G70*
%OFA0B0*%
%FSLAX24Y24*%
%IPPOS*%
%LPD*%
%AMOC8*
5,1,8,0,0,1.08239X$1,22.5*
%
%ADD10C,0.0560*%
%ADD11C,0.0650*%
%ADD12R,0.0650X0.0650*%
%ADD13C,0.0860*%
%ADD14C,0.0740*%
%ADD15C,0.0640*%
%ADD16C,0.1400*%
%ADD17C,0.0100*%
%ADD18C,0.0400*%
%ADD19C,0.0320*%
%ADD20C,0.0120*%
D10*
X007879Y004655D02*
X008439Y004655D01*
X008439Y005655D02*
X007879Y005655D01*
X007879Y006655D02*
X008439Y006655D01*
X008439Y007655D02*
X007879Y007655D01*
X007879Y008655D02*
X008439Y008655D01*
X008439Y009655D02*
X007879Y009655D01*
X007879Y010655D02*
X008439Y010655D01*
X008439Y011655D02*
X007879Y011655D01*
X007879Y012655D02*
X008439Y012655D01*
X008439Y013655D02*
X007879Y013655D01*
X007879Y014655D02*
X008439Y014655D01*
X008439Y015655D02*
X007879Y015655D01*
X007879Y016655D02*
X008439Y016655D01*
X008439Y017655D02*
X007879Y017655D01*
X010879Y017655D02*
X011439Y017655D01*
X011439Y016655D02*
X010879Y016655D01*
X010879Y015655D02*
X011439Y015655D01*
X011439Y014655D02*
X010879Y014655D01*
X010879Y013655D02*
X011439Y013655D01*
X011439Y012655D02*
X010879Y012655D01*
X010879Y011655D02*
X011439Y011655D01*
X011439Y010655D02*
X010879Y010655D01*
X010879Y009655D02*
X011439Y009655D01*
X011439Y008655D02*
X010879Y008655D01*
X010879Y007655D02*
X011439Y007655D01*
X011439Y006655D02*
X010879Y006655D01*
X010879Y005655D02*
X011439Y005655D01*
X011439Y004655D02*
X010879Y004655D01*
X012879Y008655D02*
X013439Y008655D01*
X013439Y009655D02*
X012879Y009655D01*
X012879Y010655D02*
X013439Y010655D01*
X013439Y011655D02*
X012879Y011655D01*
X012879Y012655D02*
X013439Y012655D01*
X013439Y013655D02*
X012879Y013655D01*
X012879Y014655D02*
X013439Y014655D01*
X013439Y015655D02*
X012879Y015655D01*
X015879Y015655D02*
X016439Y015655D01*
X016439Y014655D02*
X015879Y014655D01*
X015879Y013655D02*
X016439Y013655D01*
X016439Y012655D02*
X015879Y012655D01*
X015879Y011655D02*
X016439Y011655D01*
X016439Y010655D02*
X015879Y010655D01*
X015879Y009655D02*
X016439Y009655D01*
X016439Y008655D02*
X015879Y008655D01*
X017159Y007935D02*
X017159Y007375D01*
X018159Y007375D02*
X018159Y007935D01*
X019159Y007935D02*
X019159Y007375D01*
X020159Y007375D02*
X020159Y007935D01*
X021159Y007935D02*
X021159Y007375D01*
X022159Y007375D02*
X022159Y007935D01*
X023159Y007935D02*
X023159Y007375D01*
X024159Y007375D02*
X024159Y007935D01*
X024643Y009275D02*
X025039Y009671D01*
X024332Y010378D02*
X023936Y009982D01*
X023229Y010689D02*
X023625Y011085D01*
X022918Y011792D02*
X022522Y011396D01*
X021815Y012104D02*
X022211Y012499D01*
X021503Y013207D02*
X021108Y012811D01*
X020400Y013518D02*
X020796Y013914D01*
X020089Y014621D02*
X019693Y014225D01*
X018986Y014932D02*
X019382Y015328D01*
X018675Y016035D02*
X018279Y015639D01*
X018159Y017375D02*
X018159Y017935D01*
X019159Y017935D02*
X019159Y017375D01*
X020159Y017375D02*
X020159Y017935D01*
X021159Y017935D02*
X021159Y017375D01*
X022159Y017375D02*
X022159Y017935D01*
X023159Y017935D02*
X023159Y017375D01*
X023159Y020375D02*
X023159Y020935D01*
X022159Y020935D02*
X022159Y020375D01*
X021159Y020375D02*
X021159Y020935D01*
X020159Y020935D02*
X020159Y020375D01*
X019159Y020375D02*
X019159Y020935D01*
X018159Y020935D02*
X018159Y020375D01*
X017159Y020375D02*
X017159Y020935D01*
X016159Y020935D02*
X016159Y020375D01*
X016159Y017935D02*
X016159Y017375D01*
X017159Y017375D02*
X017159Y017935D01*
X017159Y004935D02*
X017159Y004375D01*
X018159Y004375D02*
X018159Y004935D01*
X019159Y004935D02*
X019159Y004375D01*
X020159Y004375D02*
X020159Y004935D01*
X021159Y004935D02*
X021159Y004375D01*
X022159Y004375D02*
X022159Y004935D01*
X023159Y004935D02*
X023159Y004375D01*
X024159Y004375D02*
X024159Y004935D01*
D11*
X019159Y002155D03*
X015659Y001655D03*
X016159Y005655D03*
X016159Y006655D03*
X014659Y007655D03*
X013659Y007655D03*
X006659Y009155D03*
X005659Y009155D03*
X006659Y010655D03*
X006659Y011655D03*
X003659Y008155D03*
X006159Y007155D03*
X006159Y005155D03*
X005659Y003155D03*
X006659Y003155D03*
X015159Y019655D03*
X015159Y020655D03*
X012659Y020155D03*
X004659Y022655D03*
X004659Y023655D03*
X028159Y012655D03*
D12*
X029159Y012655D03*
X020159Y002155D03*
X015659Y002655D03*
X002659Y008155D03*
X012659Y019155D03*
D13*
X028229Y019655D02*
X029089Y019655D01*
X029089Y017655D02*
X028229Y017655D01*
X028229Y015655D02*
X029089Y015655D01*
X029089Y009655D02*
X028229Y009655D01*
X028229Y007655D02*
X029089Y007655D01*
X029089Y005655D02*
X028229Y005655D01*
X028229Y003655D02*
X029089Y003655D01*
X029089Y001655D02*
X028229Y001655D01*
X028229Y021655D02*
X029089Y021655D01*
X029089Y023655D02*
X028229Y023655D01*
D14*
X016659Y023055D03*
X015659Y023155D03*
X014659Y023055D03*
X013659Y023155D03*
X012659Y023055D03*
X011659Y023155D03*
X010159Y020155D03*
X006659Y018655D03*
X005659Y018655D03*
X006159Y020155D03*
X003659Y020155D03*
X003659Y019155D03*
X003659Y018155D03*
X003659Y017155D03*
X003659Y016155D03*
X005659Y014655D03*
X006659Y014655D03*
X003659Y012155D03*
X002659Y012155D03*
X002659Y011155D03*
X003659Y011155D03*
X003659Y010155D03*
X002659Y010155D03*
X002659Y006155D03*
X003659Y006155D03*
X003659Y005155D03*
X002659Y005155D03*
X002659Y004155D03*
X003659Y004155D03*
X012659Y002255D03*
X012659Y006255D03*
X003659Y021155D03*
D15*
X006559Y021765D02*
X007199Y021765D01*
X009119Y021765D02*
X009759Y021765D01*
X009759Y023545D02*
X009119Y023545D01*
X007199Y023545D02*
X006559Y023545D01*
D16*
X025409Y023642D03*
X025409Y021342D03*
X025409Y018068D03*
X025409Y015768D03*
D17*
X001329Y024481D02*
X001329Y000825D01*
X031009Y000825D01*
X031009Y024481D01*
X025866Y024481D01*
X025947Y024447D01*
X026214Y024180D01*
X026359Y023831D01*
X026359Y023453D01*
X026214Y023104D01*
X025947Y022837D01*
X025598Y022692D01*
X025220Y022692D01*
X025004Y022782D01*
X023815Y021592D01*
X023701Y021545D01*
X023577Y021545D01*
X022627Y021545D01*
X022823Y021349D01*
X022824Y021349D01*
X022823Y021349D02*
X022859Y021384D01*
X023054Y021465D01*
X023264Y021465D01*
X023459Y021384D01*
X023608Y021235D01*
X023689Y021041D01*
X023689Y020270D01*
X023608Y020075D01*
X023459Y019926D01*
X023264Y019845D01*
X023054Y019845D01*
X022859Y019926D01*
X022710Y020075D01*
X022659Y020197D01*
X022608Y020075D01*
X022459Y019926D01*
X022264Y019845D01*
X022054Y019845D01*
X021859Y019926D01*
X021710Y020075D01*
X021659Y020197D01*
X021629Y020125D01*
X021969Y019785D01*
X025229Y019785D01*
X026669Y021225D01*
X026669Y022014D01*
X026669Y022177D01*
X026731Y022327D01*
X027663Y023259D01*
X027653Y023270D01*
X027549Y023520D01*
X027549Y023790D01*
X027653Y024040D01*
X027844Y024232D01*
X028094Y024335D01*
X029224Y024335D01*
X029474Y024232D01*
X029666Y024040D01*
X029769Y023790D01*
X029769Y023520D01*
X029666Y023270D01*
X029474Y023079D01*
X029224Y022975D01*
X028539Y022975D01*
X027489Y021925D01*
X027489Y020974D01*
X027427Y020823D01*
X027311Y020708D01*
X025631Y019028D01*
X025603Y019016D01*
X025947Y018873D01*
X026214Y018606D01*
X026359Y018257D01*
X026359Y017879D01*
X026214Y017530D01*
X025947Y017263D01*
X025598Y017118D01*
X025220Y017118D01*
X024871Y017263D01*
X024604Y017530D01*
X024459Y017879D01*
X024459Y018257D01*
X024604Y018606D01*
X024871Y018873D01*
X025092Y018965D01*
X021717Y018965D01*
X021567Y019028D01*
X021451Y019143D01*
X020811Y019783D01*
X020749Y019934D01*
X020749Y020036D01*
X020710Y020075D01*
X020629Y020270D01*
X020629Y021041D01*
X020710Y021235D01*
X020859Y021384D01*
X021054Y021465D01*
X021264Y021465D01*
X021459Y021384D01*
X021608Y021235D01*
X021659Y021113D01*
X021710Y021235D01*
X021859Y021384D01*
X021896Y021400D01*
X021831Y021465D01*
X015287Y021465D01*
X014509Y020687D01*
X014509Y018753D01*
X014462Y018639D01*
X014375Y018552D01*
X011833Y016011D01*
X011888Y015955D01*
X011969Y015761D01*
X011969Y015550D01*
X011888Y015355D01*
X011739Y015206D01*
X011617Y015155D01*
X011739Y015104D01*
X011888Y014955D01*
X011892Y014946D01*
X012336Y015391D01*
X012392Y015446D01*
X012349Y015550D01*
X012349Y015761D01*
X012430Y015955D01*
X012579Y016104D01*
X012774Y016185D01*
X013544Y016185D01*
X013739Y016104D01*
X013888Y015955D01*
X013904Y015918D01*
X015629Y017644D01*
X015629Y018041D01*
X015710Y018235D01*
X015859Y018384D01*
X016054Y018465D01*
X016264Y018465D01*
X016459Y018384D01*
X016608Y018235D01*
X016659Y018113D01*
X016710Y018235D01*
X016859Y018384D01*
X017054Y018465D01*
X017264Y018465D01*
X017459Y018384D01*
X017608Y018235D01*
X017659Y018113D01*
X017710Y018235D01*
X017859Y018384D01*
X018054Y018465D01*
X018264Y018465D01*
X018459Y018384D01*
X018608Y018235D01*
X018689Y018041D01*
X018689Y017465D01*
X018729Y017425D01*
X018729Y017625D01*
X019129Y017625D01*
X019129Y017685D01*
X018729Y017685D01*
X018729Y017969D01*
X018740Y018036D01*
X018761Y018100D01*
X018791Y018160D01*
X018831Y018215D01*
X018879Y018263D01*
X018934Y018303D01*
X018994Y018334D01*
X019058Y018354D01*
X019125Y018365D01*
X019129Y018365D01*
X019129Y017685D01*
X019189Y017685D01*
X019589Y017685D01*
X019589Y017969D01*
X019578Y018036D01*
X019558Y018100D01*
X019527Y018160D01*
X019487Y018215D01*
X019439Y018263D01*
X019384Y018303D01*
X019324Y018334D01*
X019260Y018354D01*
X019193Y018365D01*
X019189Y018365D01*
X019189Y017685D01*
X019189Y017625D01*
X019589Y017625D01*
X019589Y017341D01*
X019578Y017274D01*
X019558Y017210D01*
X019527Y017150D01*
X019487Y017095D01*
X019439Y017047D01*
X019412Y017027D01*
X019471Y017003D01*
X019889Y016585D01*
X022917Y016585D01*
X023081Y016585D01*
X023231Y016523D01*
X025009Y014745D01*
X027149Y014745D01*
X027663Y015259D01*
X027653Y015270D01*
X027549Y015520D01*
X027549Y015790D01*
X027653Y016040D01*
X027844Y016232D01*
X028094Y016335D01*
X029224Y016335D01*
X029474Y016232D01*
X029666Y016040D01*
X029769Y015790D01*
X029769Y015520D01*
X029666Y015270D01*
X029474Y015079D01*
X029224Y014975D01*
X028539Y014975D01*
X027551Y013988D01*
X027401Y013925D01*
X027237Y013925D01*
X024757Y013925D01*
X024607Y013988D01*
X024491Y014103D01*
X024491Y014103D01*
X022829Y015765D01*
X019801Y015765D01*
X019694Y015765D01*
X019831Y015628D01*
X019912Y015433D01*
X019912Y015222D01*
X019861Y015100D01*
X019984Y015151D01*
X020195Y015151D01*
X020389Y015070D01*
X020539Y014921D01*
X020619Y014726D01*
X020619Y014515D01*
X020568Y014393D01*
X020691Y014444D01*
X020902Y014444D01*
X021097Y014363D01*
X021246Y014214D01*
X021326Y014019D01*
X021326Y013808D01*
X021276Y013686D01*
X021398Y013737D01*
X021609Y013737D01*
X021804Y013656D01*
X021953Y013507D01*
X022033Y013312D01*
X022033Y013101D01*
X021983Y012979D01*
X022105Y013029D01*
X022316Y013029D01*
X022511Y012949D01*
X022660Y012800D01*
X022741Y012605D01*
X022741Y012394D01*
X022690Y012272D01*
X022812Y012322D01*
X023023Y012322D01*
X023218Y012242D01*
X023367Y012093D01*
X023448Y011898D01*
X023448Y011687D01*
X023397Y011565D01*
X023519Y011615D01*
X023730Y011615D01*
X023925Y011535D01*
X024074Y011385D01*
X024155Y011191D01*
X024155Y010980D01*
X024104Y010857D01*
X024226Y010908D01*
X024437Y010908D01*
X024632Y010827D01*
X024781Y010678D01*
X024862Y010484D01*
X024862Y010273D01*
X024811Y010150D01*
X024934Y010201D01*
X025144Y010201D01*
X025339Y010120D01*
X025488Y009971D01*
X025569Y009776D01*
X025569Y009566D01*
X025488Y009371D01*
X024943Y008826D01*
X024749Y008745D01*
X024538Y008745D01*
X024343Y008826D01*
X024336Y008833D01*
X024055Y008552D01*
X023941Y008505D01*
X023817Y008505D01*
X023267Y008505D01*
X023335Y008438D01*
X023338Y008435D01*
X023459Y008384D01*
X023608Y008235D01*
X023659Y008113D01*
X023710Y008235D01*
X023859Y008384D01*
X024054Y008465D01*
X024264Y008465D01*
X024459Y008384D01*
X024608Y008235D01*
X024689Y008041D01*
X024689Y007270D01*
X024608Y007075D01*
X024459Y006926D01*
X024264Y006845D01*
X024054Y006845D01*
X023859Y006926D01*
X023710Y007075D01*
X023659Y007197D01*
X023608Y007075D01*
X023459Y006926D01*
X023264Y006845D01*
X023054Y006845D01*
X022859Y006926D01*
X022710Y007075D01*
X022659Y007197D01*
X022629Y007125D01*
X023409Y006345D01*
X024437Y006345D01*
X024601Y006345D01*
X024751Y006283D01*
X024989Y006045D01*
X024989Y008414D01*
X024989Y008577D01*
X025051Y008727D01*
X028590Y012266D01*
X028584Y012280D01*
X028584Y012443D01*
X028565Y012406D01*
X028521Y012346D01*
X028468Y012293D01*
X028408Y012249D01*
X028341Y012215D01*
X028270Y012192D01*
X028196Y012180D01*
X028178Y012180D01*
X028178Y012636D01*
X028140Y012636D01*
X028140Y012180D01*
X028122Y012180D01*
X028048Y012192D01*
X027977Y012215D01*
X027910Y012249D01*
X027850Y012293D01*
X027797Y012346D01*
X027753Y012406D01*
X027719Y012473D01*
X027696Y012544D01*
X027684Y012618D01*
X027684Y012636D01*
X028140Y012636D01*
X028140Y012674D01*
X027684Y012674D01*
X027684Y012692D01*
X027696Y012766D01*
X027719Y012837D01*
X027753Y012904D01*
X027797Y012965D01*
X027850Y013017D01*
X027910Y013061D01*
X027977Y013095D01*
X028048Y013118D01*
X028122Y013130D01*
X028140Y013130D01*
X028140Y012674D01*
X028178Y012674D01*
X028178Y013130D01*
X028196Y013130D01*
X028270Y013118D01*
X028341Y013095D01*
X028408Y013061D01*
X028468Y013017D01*
X028521Y012965D01*
X028565Y012904D01*
X028584Y012867D01*
X028584Y013030D01*
X028622Y013122D01*
X028692Y013192D01*
X028784Y013230D01*
X029534Y013230D01*
X029626Y013192D01*
X029696Y013122D01*
X029734Y013030D01*
X029734Y012280D01*
X029696Y012189D01*
X029626Y012118D01*
X029534Y012080D01*
X029530Y012080D01*
X029507Y012023D01*
X029391Y011908D01*
X025809Y008325D01*
X025809Y007367D01*
X025950Y007425D01*
X026129Y007425D01*
X026294Y007357D01*
X026421Y007230D01*
X026489Y007065D01*
X026489Y006886D01*
X026449Y006789D01*
X026449Y006505D01*
X026749Y006205D01*
X026749Y008094D01*
X026749Y008257D01*
X026811Y008407D01*
X027663Y009259D01*
X027653Y009270D01*
X027549Y009520D01*
X027549Y009790D01*
X027653Y010040D01*
X027844Y010232D01*
X028094Y010335D01*
X029224Y010335D01*
X029474Y010232D01*
X029666Y010040D01*
X029769Y009790D01*
X029769Y009520D01*
X029666Y009270D01*
X029474Y009079D01*
X029224Y008975D01*
X028539Y008975D01*
X027569Y008005D01*
X027569Y007839D01*
X027653Y008040D01*
X027844Y008232D01*
X028094Y008335D01*
X029224Y008335D01*
X029474Y008232D01*
X029666Y008040D01*
X029769Y007790D01*
X029769Y007520D01*
X029666Y007270D01*
X029474Y007079D01*
X029224Y006975D01*
X028094Y006975D01*
X027844Y007079D01*
X027653Y007270D01*
X027569Y007472D01*
X027569Y006201D01*
X027609Y006105D01*
X027609Y005926D01*
X027541Y005760D01*
X027414Y005634D01*
X027348Y005606D01*
X028619Y004335D01*
X029224Y004335D01*
X029474Y004232D01*
X029666Y004040D01*
X029769Y003790D01*
X029769Y003520D01*
X029666Y003270D01*
X029474Y003079D01*
X029224Y002975D01*
X028094Y002975D01*
X028034Y003000D01*
X028699Y002335D01*
X029224Y002335D01*
X029474Y002232D01*
X031009Y002232D01*
X031009Y002330D02*
X029236Y002330D01*
X029474Y002232D02*
X029666Y002040D01*
X029769Y001790D01*
X029769Y001520D01*
X029666Y001270D01*
X029474Y001079D01*
X029224Y000975D01*
X028094Y000975D01*
X027844Y001079D01*
X027653Y001270D01*
X027549Y001520D01*
X027549Y001790D01*
X027653Y002040D01*
X027743Y002131D01*
X024349Y005525D01*
X023207Y005525D01*
X023270Y005463D01*
X023459Y005384D01*
X023608Y005235D01*
X023659Y005113D01*
X023710Y005235D01*
X023859Y005384D01*
X024054Y005465D01*
X024264Y005465D01*
X024459Y005384D01*
X024608Y005235D01*
X024689Y005041D01*
X024689Y004270D01*
X024608Y004075D01*
X024459Y003926D01*
X024264Y003845D01*
X024054Y003845D01*
X023859Y003926D01*
X023710Y004075D01*
X023659Y004197D01*
X023608Y004075D01*
X023459Y003926D01*
X023413Y003907D01*
X023471Y003883D01*
X024117Y003237D01*
X024214Y003197D01*
X024341Y003070D01*
X024409Y002905D01*
X024409Y002726D01*
X024341Y002560D01*
X024214Y002434D01*
X024049Y002365D01*
X023870Y002365D01*
X023704Y002434D01*
X023578Y002560D01*
X023538Y002657D01*
X023069Y003125D01*
X022689Y003125D01*
X022671Y003108D01*
X022641Y003095D01*
X022659Y003095D01*
X022746Y003095D01*
X022825Y003095D01*
X022825Y003095D01*
X023136Y002982D01*
X023136Y002982D01*
X023390Y002769D01*
X023390Y002769D01*
X023556Y002482D01*
X023556Y002482D01*
X023614Y002155D01*
X023614Y002155D01*
X023556Y001829D01*
X023556Y001829D01*
X023390Y001542D01*
X027549Y001542D01*
X027549Y001641D02*
X023447Y001641D01*
X023504Y001739D02*
X027549Y001739D01*
X027569Y001838D02*
X023558Y001838D01*
X023575Y001936D02*
X027609Y001936D01*
X027650Y002035D02*
X023592Y002035D01*
X023610Y002133D02*
X027741Y002133D01*
X027643Y002232D02*
X023600Y002232D01*
X023583Y002330D02*
X027544Y002330D01*
X027445Y002429D02*
X024203Y002429D01*
X024308Y002527D02*
X027347Y002527D01*
X027248Y002626D02*
X024368Y002626D01*
X024409Y002725D02*
X027150Y002725D01*
X027051Y002823D02*
X024409Y002823D01*
X024402Y002922D02*
X026953Y002922D01*
X026854Y003020D02*
X024361Y003020D01*
X024292Y003119D02*
X026756Y003119D01*
X026657Y003217D02*
X024164Y003217D01*
X024038Y003316D02*
X026559Y003316D01*
X026460Y003414D02*
X023940Y003414D01*
X023841Y003513D02*
X026361Y003513D01*
X026263Y003611D02*
X023743Y003611D01*
X023644Y003710D02*
X026164Y003710D01*
X026066Y003809D02*
X023545Y003809D01*
X023414Y003907D02*
X023904Y003907D01*
X023779Y004006D02*
X023539Y004006D01*
X023620Y004104D02*
X023698Y004104D01*
X024414Y003907D02*
X025967Y003907D01*
X025869Y004006D02*
X024539Y004006D01*
X024620Y004104D02*
X025770Y004104D01*
X025672Y004203D02*
X024661Y004203D01*
X024689Y004301D02*
X025573Y004301D01*
X025475Y004400D02*
X024689Y004400D01*
X024689Y004498D02*
X025376Y004498D01*
X025277Y004597D02*
X024689Y004597D01*
X024689Y004695D02*
X025179Y004695D01*
X025080Y004794D02*
X024689Y004794D01*
X024689Y004892D02*
X024982Y004892D01*
X024883Y004991D02*
X024689Y004991D01*
X024669Y005090D02*
X024785Y005090D01*
X024686Y005188D02*
X024628Y005188D01*
X024588Y005287D02*
X024557Y005287D01*
X024489Y005385D02*
X024457Y005385D01*
X024391Y005484D02*
X023249Y005484D01*
X023457Y005385D02*
X023861Y005385D01*
X023761Y005287D02*
X023557Y005287D01*
X023628Y005188D02*
X023690Y005188D01*
X022684Y005172D02*
X022659Y005113D01*
X022608Y005235D01*
X022459Y005384D01*
X022264Y005465D01*
X022054Y005465D01*
X021859Y005384D01*
X021710Y005235D01*
X021629Y005041D01*
X021629Y004270D01*
X021710Y004075D01*
X021859Y003926D01*
X022005Y003865D01*
X020049Y003865D01*
X019676Y004238D01*
X019689Y004270D01*
X019689Y005041D01*
X019608Y005235D01*
X019459Y005384D01*
X019264Y005465D01*
X019054Y005465D01*
X018859Y005384D01*
X018710Y005235D01*
X018659Y005113D01*
X018608Y005235D01*
X018459Y005384D01*
X018264Y005465D01*
X018054Y005465D01*
X017859Y005384D01*
X017710Y005235D01*
X017659Y005113D01*
X017608Y005235D01*
X017459Y005384D01*
X017264Y005465D01*
X017054Y005465D01*
X016859Y005384D01*
X016710Y005235D01*
X016629Y005041D01*
X016629Y004270D01*
X016710Y004075D01*
X016859Y003926D01*
X017054Y003845D01*
X017264Y003845D01*
X017412Y003906D01*
X017351Y003845D01*
X016807Y003845D01*
X014489Y006164D01*
X014489Y006265D01*
X014901Y006265D01*
X015015Y006312D01*
X015102Y006399D01*
X015663Y006961D01*
X015584Y006769D01*
X015584Y006541D01*
X015672Y006329D01*
X015833Y006168D01*
X015994Y006101D01*
X015977Y006095D01*
X015910Y006061D01*
X015850Y006017D01*
X015797Y005965D01*
X015753Y005904D01*
X015719Y005837D01*
X015696Y005766D01*
X015684Y005692D01*
X015684Y005674D01*
X016140Y005674D01*
X016140Y005636D01*
X016178Y005636D01*
X016178Y005180D01*
X016196Y005180D01*
X016270Y005192D01*
X016341Y005215D01*
X016408Y005249D01*
X016468Y005293D01*
X016521Y005346D01*
X016565Y005406D01*
X016599Y005473D01*
X016622Y005544D01*
X016634Y005618D01*
X016634Y005636D01*
X016178Y005636D01*
X016178Y005674D01*
X016634Y005674D01*
X016634Y005692D01*
X016622Y005766D01*
X016599Y005837D01*
X016565Y005904D01*
X016521Y005965D01*
X016468Y006017D01*
X016408Y006061D01*
X016341Y006095D01*
X016324Y006101D01*
X016485Y006168D01*
X016646Y006329D01*
X016734Y006541D01*
X016734Y006769D01*
X016646Y006981D01*
X016485Y007143D01*
X016273Y007230D01*
X016045Y007230D01*
X015833Y007143D01*
X015830Y007139D01*
X015869Y007233D01*
X015869Y007357D01*
X015869Y007837D01*
X015822Y007951D01*
X015735Y008038D01*
X015309Y008464D01*
X015309Y009837D01*
X015262Y009951D01*
X015175Y010038D01*
X013873Y011340D01*
X013888Y011355D01*
X013969Y011550D01*
X013969Y011761D01*
X013888Y011955D01*
X013739Y012104D01*
X013617Y012155D01*
X013739Y012206D01*
X013888Y012355D01*
X013969Y012550D01*
X013969Y012761D01*
X013888Y012955D01*
X013739Y013104D01*
X013617Y013155D01*
X013739Y013206D01*
X013888Y013355D01*
X013969Y013550D01*
X013969Y013761D01*
X013888Y013955D01*
X013739Y014104D01*
X013617Y014155D01*
X013739Y014206D01*
X013888Y014355D01*
X013969Y014550D01*
X015349Y014550D01*
X015430Y014355D01*
X015579Y014206D01*
X015701Y014155D01*
X015579Y014104D01*
X015430Y013955D01*
X015349Y013761D01*
X015349Y013550D01*
X015430Y013355D01*
X015579Y013206D01*
X015701Y013155D01*
X015579Y013104D01*
X015430Y012955D01*
X015349Y012761D01*
X015349Y012550D01*
X015430Y012355D01*
X015579Y012206D01*
X015701Y012155D01*
X015579Y012104D01*
X015430Y011955D01*
X015349Y011761D01*
X015349Y011550D01*
X015430Y011355D01*
X015579Y011206D01*
X015701Y011155D01*
X015579Y011104D01*
X015430Y010955D01*
X015349Y010761D01*
X015349Y010550D01*
X015430Y010355D01*
X015579Y010206D01*
X015701Y010155D01*
X015579Y010104D01*
X015430Y009955D01*
X015349Y009761D01*
X015349Y009550D01*
X015430Y009355D01*
X015579Y009206D01*
X015701Y009155D01*
X015579Y009104D01*
X015430Y008955D01*
X015349Y008761D01*
X015349Y008550D01*
X015430Y008355D01*
X015579Y008206D01*
X015774Y008125D01*
X016544Y008125D01*
X016689Y008185D01*
X016629Y008041D01*
X016629Y007270D01*
X016710Y007075D01*
X016859Y006926D01*
X017054Y006845D01*
X017264Y006845D01*
X017459Y006926D01*
X017608Y007075D01*
X017659Y007197D01*
X017710Y007075D01*
X017859Y006926D01*
X018054Y006845D01*
X018264Y006845D01*
X018396Y006900D01*
X018423Y006872D01*
X018983Y006312D01*
X019097Y006265D01*
X019221Y006265D01*
X021591Y006265D01*
X022684Y005172D01*
X022668Y005188D02*
X022628Y005188D01*
X022569Y005287D02*
X022557Y005287D01*
X022471Y005385D02*
X022457Y005385D01*
X022372Y005484D02*
X016603Y005484D01*
X016628Y005582D02*
X022273Y005582D01*
X022175Y005681D02*
X016634Y005681D01*
X016618Y005779D02*
X022076Y005779D01*
X021978Y005878D02*
X016579Y005878D01*
X016509Y005976D02*
X021879Y005976D01*
X021781Y006075D02*
X016381Y006075D01*
X016491Y006174D02*
X021682Y006174D01*
X021795Y006879D02*
X021781Y006885D01*
X019361Y006885D01*
X019459Y006926D01*
X019608Y007075D01*
X019689Y007270D01*
X019689Y008041D01*
X019608Y008235D01*
X019459Y008384D01*
X019264Y008465D01*
X019054Y008465D01*
X018909Y008405D01*
X018909Y009305D01*
X020193Y009305D01*
X020264Y009234D01*
X020430Y009165D01*
X020609Y009165D01*
X020774Y009234D01*
X020901Y009360D01*
X020969Y009526D01*
X020969Y009705D01*
X020901Y009870D01*
X020774Y009997D01*
X020609Y010065D01*
X020430Y010065D01*
X020264Y009997D01*
X020193Y009925D01*
X018909Y009925D01*
X018909Y011633D01*
X018909Y011757D01*
X018862Y011871D01*
X016967Y013766D01*
X016888Y013955D01*
X016739Y014104D01*
X016617Y014155D01*
X016704Y014191D01*
X022383Y008512D01*
X022695Y008200D01*
X022659Y008113D01*
X022608Y008235D01*
X022459Y008384D01*
X022264Y008465D01*
X022054Y008465D01*
X021859Y008384D01*
X021710Y008235D01*
X021629Y008041D01*
X021629Y007270D01*
X021710Y007075D01*
X021789Y006996D01*
X021789Y006894D01*
X021795Y006879D01*
X021789Y006962D02*
X021279Y006962D01*
X021260Y006956D02*
X021324Y006977D01*
X021384Y007007D01*
X021439Y007047D01*
X021487Y007095D01*
X021527Y007150D01*
X021558Y007210D01*
X021578Y007274D01*
X021589Y007341D01*
X021589Y007625D01*
X021189Y007625D01*
X021189Y006945D01*
X021193Y006945D01*
X021260Y006956D01*
X021189Y006962D02*
X021129Y006962D01*
X021129Y006945D02*
X021129Y007625D01*
X021189Y007625D01*
X021189Y007685D01*
X021589Y007685D01*
X021589Y007969D01*
X021578Y008036D01*
X021558Y008100D01*
X021527Y008160D01*
X021487Y008215D01*
X021439Y008263D01*
X021384Y008303D01*
X021324Y008334D01*
X021260Y008354D01*
X021193Y008365D01*
X021189Y008365D01*
X021189Y007685D01*
X021129Y007685D01*
X021129Y007625D01*
X020729Y007625D01*
X020729Y007341D01*
X020740Y007274D01*
X020761Y007210D01*
X020791Y007150D01*
X020831Y007095D01*
X020879Y007047D01*
X020934Y007007D01*
X020994Y006977D01*
X021058Y006956D01*
X021125Y006945D01*
X021129Y006945D01*
X021039Y006962D02*
X020279Y006962D01*
X020260Y006956D02*
X020324Y006977D01*
X020384Y007007D01*
X020439Y007047D01*
X020487Y007095D01*
X020527Y007150D01*
X020558Y007210D01*
X020578Y007274D01*
X020589Y007341D01*
X020589Y007625D01*
X020189Y007625D01*
X020189Y006945D01*
X020193Y006945D01*
X020260Y006956D01*
X020189Y006962D02*
X020129Y006962D01*
X020129Y006945D02*
X020129Y007625D01*
X020189Y007625D01*
X020189Y007685D01*
X020589Y007685D01*
X020589Y007969D01*
X020578Y008036D01*
X020558Y008100D01*
X020527Y008160D01*
X020487Y008215D01*
X020439Y008263D01*
X020384Y008303D01*
X020324Y008334D01*
X020260Y008354D01*
X020193Y008365D01*
X020189Y008365D01*
X020189Y007685D01*
X020129Y007685D01*
X020129Y007625D01*
X019729Y007625D01*
X019729Y007341D01*
X019740Y007274D01*
X019761Y007210D01*
X019791Y007150D01*
X019831Y007095D01*
X019879Y007047D01*
X019934Y007007D01*
X019994Y006977D01*
X020058Y006956D01*
X020125Y006945D01*
X020129Y006945D01*
X020039Y006962D02*
X019495Y006962D01*
X019594Y007060D02*
X019866Y007060D01*
X019787Y007159D02*
X019643Y007159D01*
X019684Y007258D02*
X019745Y007258D01*
X019729Y007356D02*
X019689Y007356D01*
X019689Y007455D02*
X019729Y007455D01*
X019729Y007553D02*
X019689Y007553D01*
X019689Y007652D02*
X020129Y007652D01*
X020129Y007685D02*
X019729Y007685D01*
X019729Y007969D01*
X019740Y008036D01*
X019761Y008100D01*
X019791Y008160D01*
X019831Y008215D01*
X019879Y008263D01*
X019934Y008303D01*
X019994Y008334D01*
X020058Y008354D01*
X020125Y008365D01*
X020129Y008365D01*
X020129Y007685D01*
X020129Y007750D02*
X020189Y007750D01*
X020189Y007652D02*
X021129Y007652D01*
X021129Y007685D02*
X020729Y007685D01*
X020729Y007969D01*
X020740Y008036D01*
X020761Y008100D01*
X020791Y008160D01*
X020831Y008215D01*
X020879Y008263D01*
X020934Y008303D01*
X020994Y008334D01*
X021058Y008354D01*
X021125Y008365D01*
X021129Y008365D01*
X021129Y007685D01*
X021129Y007750D02*
X021189Y007750D01*
X021189Y007652D02*
X021629Y007652D01*
X021629Y007750D02*
X021589Y007750D01*
X021589Y007849D02*
X021629Y007849D01*
X021629Y007947D02*
X021589Y007947D01*
X021575Y008046D02*
X021631Y008046D01*
X021672Y008144D02*
X021535Y008144D01*
X021459Y008243D02*
X021717Y008243D01*
X021816Y008341D02*
X021300Y008341D01*
X021189Y008341D02*
X021129Y008341D01*
X021129Y008243D02*
X021189Y008243D01*
X021189Y008144D02*
X021129Y008144D01*
X021129Y008046D02*
X021189Y008046D01*
X021189Y007947D02*
X021129Y007947D01*
X021129Y007849D02*
X021189Y007849D01*
X020729Y007849D02*
X020589Y007849D01*
X020589Y007947D02*
X020729Y007947D01*
X020743Y008046D02*
X020575Y008046D01*
X020535Y008144D02*
X020783Y008144D01*
X020859Y008243D02*
X020459Y008243D01*
X020300Y008341D02*
X021018Y008341D01*
X020729Y007750D02*
X020589Y007750D01*
X020589Y007553D02*
X020729Y007553D01*
X020729Y007455D02*
X020589Y007455D01*
X020589Y007356D02*
X020729Y007356D01*
X020745Y007258D02*
X020573Y007258D01*
X020531Y007159D02*
X020787Y007159D01*
X020866Y007060D02*
X020452Y007060D01*
X020189Y007060D02*
X020129Y007060D01*
X020129Y007159D02*
X020189Y007159D01*
X020189Y007258D02*
X020129Y007258D01*
X020129Y007356D02*
X020189Y007356D01*
X020189Y007455D02*
X020129Y007455D01*
X020129Y007553D02*
X020189Y007553D01*
X019729Y007750D02*
X019689Y007750D01*
X019689Y007849D02*
X019729Y007849D01*
X019729Y007947D02*
X019689Y007947D01*
X019687Y008046D02*
X019743Y008046D01*
X019783Y008144D02*
X019646Y008144D01*
X019601Y008243D02*
X019859Y008243D01*
X020018Y008341D02*
X019502Y008341D01*
X019325Y008440D02*
X021993Y008440D01*
X022259Y008637D02*
X018909Y008637D01*
X018909Y008539D02*
X022357Y008539D01*
X022325Y008440D02*
X022456Y008440D01*
X022502Y008341D02*
X022554Y008341D01*
X022601Y008243D02*
X022653Y008243D01*
X022646Y008144D02*
X022672Y008144D01*
X023332Y008440D02*
X023993Y008440D01*
X024021Y008539D02*
X024989Y008539D01*
X024989Y008440D02*
X024325Y008440D01*
X024502Y008341D02*
X024989Y008341D01*
X024989Y008243D02*
X024601Y008243D01*
X024646Y008144D02*
X024989Y008144D01*
X024989Y008046D02*
X024687Y008046D01*
X024689Y007947D02*
X024989Y007947D01*
X024989Y007849D02*
X024689Y007849D01*
X024689Y007750D02*
X024989Y007750D01*
X024989Y007652D02*
X024689Y007652D01*
X024689Y007553D02*
X024989Y007553D01*
X024989Y007455D02*
X024689Y007455D01*
X024689Y007356D02*
X024989Y007356D01*
X024989Y007258D02*
X024684Y007258D01*
X024643Y007159D02*
X024989Y007159D01*
X024989Y007060D02*
X024594Y007060D01*
X024495Y006962D02*
X024989Y006962D01*
X024989Y006863D02*
X024308Y006863D01*
X024010Y006863D02*
X023308Y006863D01*
X023495Y006962D02*
X023823Y006962D01*
X023724Y007060D02*
X023594Y007060D01*
X023643Y007159D02*
X023675Y007159D01*
X023010Y006863D02*
X022891Y006863D01*
X022823Y006962D02*
X022792Y006962D01*
X022724Y007060D02*
X022693Y007060D01*
X022675Y007159D02*
X022643Y007159D01*
X022989Y006765D02*
X024989Y006765D01*
X024989Y006666D02*
X023088Y006666D01*
X023186Y006568D02*
X024989Y006568D01*
X024989Y006469D02*
X023285Y006469D01*
X023383Y006371D02*
X024989Y006371D01*
X024989Y006272D02*
X024762Y006272D01*
X024860Y006174D02*
X024989Y006174D01*
X024989Y006075D02*
X024959Y006075D01*
X026393Y007258D02*
X026749Y007258D01*
X026749Y007356D02*
X026294Y007356D01*
X026450Y007159D02*
X026749Y007159D01*
X026749Y007060D02*
X026489Y007060D01*
X026489Y006962D02*
X026749Y006962D01*
X026749Y006863D02*
X026480Y006863D01*
X026449Y006765D02*
X026749Y006765D01*
X026749Y006666D02*
X026449Y006666D01*
X026449Y006568D02*
X026749Y006568D01*
X026749Y006469D02*
X026485Y006469D01*
X026583Y006371D02*
X026749Y006371D01*
X026749Y006272D02*
X026682Y006272D01*
X027569Y006272D02*
X031009Y006272D01*
X031009Y006174D02*
X029349Y006174D01*
X029312Y006193D02*
X029225Y006221D01*
X029135Y006235D01*
X028709Y006235D01*
X028709Y005705D01*
X029668Y005705D01*
X029655Y005791D01*
X029627Y005878D01*
X029585Y005959D01*
X029531Y006033D01*
X029467Y006097D01*
X029393Y006151D01*
X029312Y006193D01*
X029489Y006075D02*
X031009Y006075D01*
X031009Y005976D02*
X029572Y005976D01*
X029626Y005878D02*
X031009Y005878D01*
X031009Y005779D02*
X029657Y005779D01*
X029668Y005605D02*
X028709Y005605D01*
X028709Y005075D01*
X029135Y005075D01*
X029225Y005089D01*
X029312Y005118D01*
X029393Y005159D01*
X029467Y005213D01*
X029531Y005277D01*
X029585Y005351D01*
X029627Y005432D01*
X029655Y005519D01*
X029668Y005605D01*
X029665Y005582D02*
X031009Y005582D01*
X031009Y005484D02*
X029643Y005484D01*
X029602Y005385D02*
X031009Y005385D01*
X031009Y005287D02*
X029538Y005287D01*
X029433Y005188D02*
X031009Y005188D01*
X031009Y005090D02*
X029225Y005090D01*
X028709Y005090D02*
X028609Y005090D01*
X028609Y005075D02*
X028609Y005605D01*
X028709Y005605D01*
X028709Y005705D01*
X028609Y005705D01*
X028609Y005605D01*
X027650Y005605D01*
X027663Y005519D01*
X027692Y005432D01*
X027733Y005351D01*
X027787Y005277D01*
X027851Y005213D01*
X027925Y005159D01*
X028006Y005118D01*
X028093Y005089D01*
X028183Y005075D01*
X028609Y005075D01*
X028609Y005188D02*
X028709Y005188D01*
X028709Y005287D02*
X028609Y005287D01*
X028609Y005385D02*
X028709Y005385D01*
X028709Y005484D02*
X028609Y005484D01*
X028609Y005582D02*
X028709Y005582D01*
X028709Y005681D02*
X031009Y005681D01*
X031009Y006371D02*
X027569Y006371D01*
X027569Y006469D02*
X031009Y006469D01*
X031009Y006568D02*
X027569Y006568D01*
X027569Y006666D02*
X031009Y006666D01*
X031009Y006765D02*
X027569Y006765D01*
X027569Y006863D02*
X031009Y006863D01*
X031009Y006962D02*
X027569Y006962D01*
X027569Y007060D02*
X027888Y007060D01*
X027764Y007159D02*
X027569Y007159D01*
X027569Y007258D02*
X027665Y007258D01*
X027617Y007356D02*
X027569Y007356D01*
X027569Y007455D02*
X027576Y007455D01*
X027569Y007849D02*
X027573Y007849D01*
X027569Y007947D02*
X027614Y007947D01*
X027610Y008046D02*
X027658Y008046D01*
X027708Y008144D02*
X027757Y008144D01*
X027807Y008243D02*
X027871Y008243D01*
X027905Y008341D02*
X031009Y008341D01*
X031009Y008243D02*
X029447Y008243D01*
X029561Y008144D02*
X031009Y008144D01*
X031009Y008046D02*
X029660Y008046D01*
X029704Y007947D02*
X031009Y007947D01*
X031009Y007849D02*
X029745Y007849D01*
X029769Y007750D02*
X031009Y007750D01*
X031009Y007652D02*
X029769Y007652D01*
X029769Y007553D02*
X031009Y007553D01*
X031009Y007455D02*
X029742Y007455D01*
X029701Y007356D02*
X031009Y007356D01*
X031009Y007258D02*
X029653Y007258D01*
X029555Y007159D02*
X031009Y007159D01*
X031009Y007060D02*
X029430Y007060D01*
X028709Y006174D02*
X028609Y006174D01*
X028609Y006235D02*
X028183Y006235D01*
X028093Y006221D01*
X028006Y006193D01*
X027925Y006151D01*
X027851Y006097D01*
X027787Y006033D01*
X027733Y005959D01*
X027692Y005878D01*
X027589Y005878D01*
X027609Y005976D02*
X027746Y005976D01*
X027692Y005878D02*
X027663Y005791D01*
X027650Y005705D01*
X028609Y005705D01*
X028609Y006235D01*
X028609Y006075D02*
X028709Y006075D01*
X028709Y005976D02*
X028609Y005976D01*
X028609Y005878D02*
X028709Y005878D01*
X028709Y005779D02*
X028609Y005779D01*
X028609Y005681D02*
X027461Y005681D01*
X027548Y005779D02*
X027662Y005779D01*
X027653Y005582D02*
X027372Y005582D01*
X027470Y005484D02*
X027675Y005484D01*
X027716Y005385D02*
X027569Y005385D01*
X027667Y005287D02*
X027780Y005287D01*
X027766Y005188D02*
X027885Y005188D01*
X027864Y005090D02*
X028093Y005090D01*
X027963Y004991D02*
X031009Y004991D01*
X031009Y004892D02*
X028061Y004892D01*
X028160Y004794D02*
X031009Y004794D01*
X031009Y004695D02*
X028259Y004695D01*
X028357Y004597D02*
X031009Y004597D01*
X031009Y004498D02*
X028456Y004498D01*
X028554Y004400D02*
X031009Y004400D01*
X031009Y004301D02*
X029306Y004301D01*
X029503Y004203D02*
X031009Y004203D01*
X031009Y004104D02*
X029602Y004104D01*
X029680Y004006D02*
X031009Y004006D01*
X031009Y003907D02*
X029721Y003907D01*
X029762Y003809D02*
X031009Y003809D01*
X031009Y003710D02*
X029769Y003710D01*
X029769Y003611D02*
X031009Y003611D01*
X031009Y003513D02*
X029766Y003513D01*
X029725Y003414D02*
X031009Y003414D01*
X031009Y003316D02*
X029684Y003316D01*
X029613Y003217D02*
X031009Y003217D01*
X031009Y003119D02*
X029514Y003119D01*
X029333Y003020D02*
X031009Y003020D01*
X031009Y002922D02*
X028112Y002922D01*
X028211Y002823D02*
X031009Y002823D01*
X031009Y002725D02*
X028309Y002725D01*
X028408Y002626D02*
X031009Y002626D01*
X031009Y002527D02*
X028506Y002527D01*
X028605Y002429D02*
X031009Y002429D01*
X031009Y002133D02*
X029573Y002133D01*
X029668Y002035D02*
X031009Y002035D01*
X031009Y001936D02*
X029709Y001936D01*
X029749Y001838D02*
X031009Y001838D01*
X031009Y001739D02*
X029769Y001739D01*
X029769Y001641D02*
X031009Y001641D01*
X031009Y001542D02*
X029769Y001542D01*
X029737Y001443D02*
X031009Y001443D01*
X031009Y001345D02*
X029697Y001345D01*
X029642Y001246D02*
X031009Y001246D01*
X031009Y001148D02*
X029543Y001148D01*
X029403Y001049D02*
X031009Y001049D01*
X031009Y000951D02*
X001329Y000951D01*
X001329Y001049D02*
X027915Y001049D01*
X027775Y001148D02*
X001329Y001148D01*
X001329Y001246D02*
X002407Y001246D01*
X002493Y001215D02*
X002659Y001215D01*
X002746Y001215D01*
X002825Y001215D01*
X003136Y001329D01*
X003136Y001329D01*
X003390Y001542D01*
X015196Y001542D01*
X015196Y001544D02*
X015219Y001473D01*
X015253Y001406D01*
X015297Y001346D01*
X015350Y001293D01*
X015410Y001249D01*
X015477Y001215D01*
X015548Y001192D01*
X015622Y001180D01*
X015640Y001180D01*
X015640Y001636D01*
X015678Y001636D01*
X015678Y001180D01*
X015696Y001180D01*
X015770Y001192D01*
X015841Y001215D01*
X015908Y001249D01*
X015968Y001293D01*
X016021Y001346D01*
X016065Y001406D01*
X016099Y001473D01*
X016122Y001544D01*
X016134Y001618D01*
X016134Y001636D01*
X015678Y001636D01*
X015678Y001674D01*
X016134Y001674D01*
X016134Y001692D01*
X016122Y001766D01*
X016099Y001837D01*
X016065Y001904D01*
X016021Y001965D01*
X015968Y002017D01*
X015908Y002061D01*
X015871Y002080D01*
X016034Y002080D01*
X016126Y002118D01*
X016196Y002189D01*
X016234Y002280D01*
X016234Y003030D01*
X016196Y003122D01*
X016126Y003192D01*
X016034Y003230D01*
X015284Y003230D01*
X015192Y003192D01*
X015122Y003122D01*
X015084Y003030D01*
X015084Y002280D01*
X015122Y002189D01*
X015192Y002118D01*
X015284Y002080D01*
X015447Y002080D01*
X015410Y002061D01*
X015350Y002017D01*
X015297Y001965D01*
X015253Y001904D01*
X015219Y001837D01*
X015196Y001766D01*
X015184Y001692D01*
X015184Y001674D01*
X015640Y001674D01*
X015640Y001636D01*
X015184Y001636D01*
X015184Y001618D01*
X015196Y001544D01*
X015234Y001443D02*
X003273Y001443D01*
X003156Y001345D02*
X015297Y001345D01*
X015415Y001246D02*
X002911Y001246D01*
X002825Y001215D02*
X002825Y001215D01*
X002493Y001215D02*
X002493Y001215D01*
X002182Y001329D01*
X002182Y001329D01*
X001928Y001542D01*
X001329Y001542D01*
X001329Y001641D02*
X001871Y001641D01*
X001814Y001739D02*
X001329Y001739D01*
X001329Y001838D02*
X001761Y001838D01*
X001762Y001829D02*
X001762Y001829D01*
X001705Y002155D01*
X001705Y002155D01*
X001762Y002482D01*
X001762Y002482D01*
X001928Y002769D01*
X001928Y002769D01*
X001928Y002769D01*
X002182Y002982D01*
X002182Y002982D01*
X002493Y003095D01*
X002493Y003095D01*
X002572Y003095D01*
X002645Y003095D01*
X002659Y003095D01*
X002746Y003095D01*
X002825Y003095D01*
X002825Y003095D01*
X003136Y002982D01*
X003136Y002982D01*
X003390Y002769D01*
X003390Y002769D01*
X003556Y002482D01*
X003556Y002482D01*
X003614Y002155D01*
X003614Y002155D01*
X003556Y001829D01*
X003556Y001829D01*
X003390Y001542D01*
X003390Y001542D01*
X003390Y001542D01*
X003447Y001641D02*
X012523Y001641D01*
X012536Y001635D02*
X012782Y001635D01*
X013010Y001729D01*
X013185Y001904D01*
X013279Y002132D01*
X013279Y002378D01*
X013185Y002606D01*
X013010Y002781D01*
X012782Y002875D01*
X012536Y002875D01*
X012308Y002781D01*
X012133Y002606D01*
X012039Y002378D01*
X012039Y002132D01*
X012133Y001904D01*
X012308Y001729D01*
X012536Y001635D01*
X012298Y001739D02*
X003504Y001739D01*
X003558Y001838D02*
X012200Y001838D01*
X012120Y001936D02*
X003575Y001936D01*
X003592Y002035D02*
X012079Y002035D01*
X012039Y002133D02*
X003610Y002133D01*
X003600Y002232D02*
X012039Y002232D01*
X012039Y002330D02*
X003583Y002330D01*
X003565Y002429D02*
X012060Y002429D01*
X012101Y002527D02*
X003529Y002527D01*
X003473Y002626D02*
X006434Y002626D01*
X006333Y002668D02*
X006545Y002580D01*
X006773Y002580D01*
X006985Y002668D01*
X007146Y002829D01*
X007234Y003041D01*
X007234Y003269D01*
X007146Y003481D01*
X006985Y003643D01*
X006773Y003730D01*
X006545Y003730D01*
X006333Y003643D01*
X006172Y003481D01*
X006105Y003320D01*
X006099Y003337D01*
X006065Y003404D01*
X006021Y003465D01*
X005968Y003517D01*
X005908Y003561D01*
X005841Y003595D01*
X005770Y003618D01*
X005696Y003630D01*
X005678Y003630D01*
X005678Y003174D01*
X005640Y003174D01*
X005640Y003136D01*
X005678Y003136D01*
X005678Y002680D01*
X005696Y002680D01*
X005770Y002692D01*
X005841Y002715D01*
X005908Y002749D01*
X005968Y002793D01*
X006021Y002846D01*
X006065Y002906D01*
X006099Y002973D01*
X006105Y002990D01*
X006172Y002829D01*
X006333Y002668D01*
X006276Y002725D02*
X005860Y002725D01*
X005999Y002823D02*
X006178Y002823D01*
X006133Y002922D02*
X006073Y002922D01*
X005678Y002922D02*
X005640Y002922D01*
X005640Y003020D02*
X005678Y003020D01*
X005678Y003119D02*
X005640Y003119D01*
X005640Y003136D02*
X005640Y002680D01*
X005622Y002680D01*
X005548Y002692D01*
X005477Y002715D01*
X005410Y002749D01*
X005350Y002793D01*
X005297Y002846D01*
X005253Y002906D01*
X005219Y002973D01*
X005196Y003044D01*
X005184Y003118D01*
X005184Y003136D01*
X005640Y003136D01*
X005640Y003174D02*
X005184Y003174D01*
X005184Y003192D01*
X005196Y003266D01*
X005219Y003337D01*
X005253Y003404D01*
X005297Y003465D01*
X005350Y003517D01*
X005410Y003561D01*
X005477Y003595D01*
X005548Y003618D01*
X005622Y003630D01*
X005640Y003630D01*
X005640Y003174D01*
X005640Y003217D02*
X005678Y003217D01*
X005678Y003316D02*
X005640Y003316D01*
X005640Y003414D02*
X005678Y003414D01*
X005678Y003513D02*
X005640Y003513D01*
X005640Y003611D02*
X005678Y003611D01*
X005792Y003611D02*
X006302Y003611D01*
X006204Y003513D02*
X005973Y003513D01*
X006058Y003414D02*
X006144Y003414D01*
X006496Y003710D02*
X003931Y003710D01*
X003932Y003710D02*
X003998Y003758D01*
X004056Y003816D01*
X004104Y003883D01*
X004141Y003955D01*
X004166Y004033D01*
X004178Y004105D01*
X003709Y004105D01*
X003709Y003637D01*
X003781Y003648D01*
X003859Y003673D01*
X003932Y003710D01*
X004048Y003809D02*
X006847Y003809D01*
X006822Y003710D02*
X006946Y003710D01*
X007016Y003611D02*
X007044Y003611D01*
X007114Y003513D02*
X007143Y003513D01*
X007143Y003512D02*
X007257Y003465D01*
X007381Y003465D01*
X008821Y003465D01*
X008935Y003512D01*
X009022Y003599D01*
X009022Y003600D02*
X009582Y004159D01*
X009629Y004273D01*
X009629Y004397D01*
X009629Y004527D01*
X009660Y004558D01*
X009729Y004489D01*
X009729Y004317D01*
X009729Y004193D01*
X009776Y004079D01*
X010256Y003599D01*
X010343Y003512D01*
X010457Y003465D01*
X015553Y003465D01*
X015624Y003394D01*
X015790Y003325D01*
X015969Y003325D01*
X016134Y003394D01*
X016258Y003518D01*
X016416Y003359D01*
X016503Y003272D01*
X016617Y003225D01*
X017417Y003225D01*
X017541Y003225D01*
X017655Y003272D01*
X018227Y003845D01*
X018264Y003845D01*
X018459Y003926D01*
X018608Y004075D01*
X018659Y004197D01*
X018710Y004075D01*
X018790Y003995D01*
X018811Y003943D01*
X019531Y003223D01*
X019647Y003108D01*
X019797Y003045D01*
X022356Y003045D01*
X022182Y002982D01*
X022182Y002982D01*
X021928Y002769D01*
X021928Y002769D01*
X021928Y002769D01*
X021762Y002482D01*
X021762Y002482D01*
X021705Y002155D01*
X021762Y001829D01*
X021762Y001829D01*
X021928Y001542D01*
X016122Y001542D01*
X016084Y001443D02*
X022045Y001443D01*
X022162Y001345D02*
X016021Y001345D01*
X015903Y001246D02*
X022407Y001246D01*
X022493Y001215D02*
X022659Y001215D01*
X022746Y001215D01*
X022825Y001215D01*
X023136Y001329D01*
X023136Y001329D01*
X023390Y001542D01*
X023390Y001542D01*
X023390Y001542D01*
X023273Y001443D02*
X027581Y001443D01*
X027621Y001345D02*
X023156Y001345D01*
X022911Y001246D02*
X027676Y001246D01*
X031009Y000852D02*
X001329Y000852D01*
X001329Y001345D02*
X002162Y001345D01*
X002045Y001443D02*
X001329Y001443D01*
X001329Y001936D02*
X001743Y001936D01*
X001726Y002035D02*
X001329Y002035D01*
X001329Y002133D02*
X001708Y002133D01*
X001718Y002232D02*
X001329Y002232D01*
X001329Y002330D02*
X001735Y002330D01*
X001753Y002429D02*
X001329Y002429D01*
X001329Y002527D02*
X001789Y002527D01*
X001846Y002626D02*
X001329Y002626D01*
X001329Y002725D02*
X001902Y002725D01*
X001993Y002823D02*
X001329Y002823D01*
X001329Y002922D02*
X002110Y002922D01*
X002287Y003020D02*
X001329Y003020D01*
X001329Y003119D02*
X005184Y003119D01*
X005188Y003217D02*
X001329Y003217D01*
X001329Y003316D02*
X005212Y003316D01*
X005260Y003414D02*
X001329Y003414D01*
X001329Y003513D02*
X005345Y003513D01*
X005526Y003611D02*
X001329Y003611D01*
X001329Y003710D02*
X002387Y003710D01*
X002386Y003710D02*
X002459Y003673D01*
X002537Y003648D01*
X002609Y003637D01*
X002609Y004105D01*
X002709Y004105D01*
X002709Y003637D01*
X002781Y003648D01*
X002859Y003673D01*
X002932Y003710D01*
X002998Y003758D01*
X003056Y003816D01*
X003104Y003883D01*
X003141Y003955D01*
X003159Y004011D01*
X003177Y003955D01*
X003214Y003883D01*
X003262Y003816D01*
X003320Y003758D01*
X003386Y003710D01*
X003459Y003673D01*
X003537Y003648D01*
X003609Y003637D01*
X003609Y004105D01*
X003709Y004105D01*
X003709Y004205D01*
X004178Y004205D01*
X004166Y004277D01*
X004141Y004355D01*
X004104Y004428D01*
X004056Y004494D01*
X003998Y004552D01*
X003934Y004598D01*
X004010Y004629D01*
X004185Y004804D01*
X004279Y005032D01*
X004279Y005278D01*
X004185Y005506D01*
X004036Y005655D01*
X004185Y005804D01*
X004279Y006032D01*
X004279Y006278D01*
X004185Y006506D01*
X004010Y006681D01*
X003782Y006775D01*
X003536Y006775D01*
X003308Y006681D01*
X003159Y006532D01*
X003010Y006681D01*
X002782Y006775D01*
X002536Y006775D01*
X002308Y006681D01*
X002133Y006506D01*
X002039Y006278D01*
X002039Y006032D01*
X002133Y005804D01*
X002282Y005655D01*
X002133Y005506D01*
X002039Y005278D01*
X002039Y005032D01*
X002133Y004804D01*
X002308Y004629D01*
X002384Y004598D01*
X002320Y004552D01*
X002262Y004494D01*
X002214Y004428D01*
X002177Y004355D01*
X002152Y004277D01*
X002140Y004205D01*
X002609Y004205D01*
X002609Y004105D01*
X002140Y004105D01*
X002152Y004033D01*
X002177Y003955D01*
X002214Y003883D01*
X002262Y003816D01*
X002320Y003758D01*
X002386Y003710D01*
X002270Y003809D02*
X001329Y003809D01*
X001329Y003907D02*
X002202Y003907D01*
X002161Y004006D02*
X001329Y004006D01*
X001329Y004104D02*
X002141Y004104D01*
X002160Y004301D02*
X001329Y004301D01*
X001329Y004203D02*
X002609Y004203D01*
X002609Y004104D02*
X002709Y004104D01*
X002709Y004105D02*
X002709Y004205D01*
X003140Y004205D01*
X003609Y004205D01*
X003609Y004105D01*
X003140Y004105D01*
X002709Y004105D01*
X002709Y004203D02*
X003609Y004203D01*
X003609Y004104D02*
X003709Y004104D01*
X003709Y004006D02*
X003609Y004006D01*
X003609Y003907D02*
X003709Y003907D01*
X003709Y003809D02*
X003609Y003809D01*
X003609Y003710D02*
X003709Y003710D01*
X003387Y003710D02*
X002931Y003710D01*
X003048Y003809D02*
X003270Y003809D01*
X003202Y003907D02*
X003116Y003907D01*
X003157Y004006D02*
X003161Y004006D01*
X002709Y004006D02*
X002609Y004006D01*
X002609Y003907D02*
X002709Y003907D01*
X002709Y003809D02*
X002609Y003809D01*
X002609Y003710D02*
X002709Y003710D01*
X003031Y003020D02*
X005203Y003020D01*
X005245Y002922D02*
X003208Y002922D01*
X003325Y002823D02*
X005319Y002823D01*
X005458Y002725D02*
X003416Y002725D01*
X001762Y001829D02*
X001928Y001542D01*
X001928Y001542D01*
X004116Y003907D02*
X006749Y003907D01*
X006711Y003945D02*
X007143Y003512D01*
X007174Y003414D02*
X015603Y003414D01*
X016065Y003217D02*
X019537Y003217D01*
X019636Y003119D02*
X016197Y003119D01*
X016234Y003020D02*
X022288Y003020D01*
X022110Y002922D02*
X016234Y002922D01*
X016234Y002823D02*
X021993Y002823D01*
X021902Y002725D02*
X020547Y002725D01*
X020534Y002730D02*
X019784Y002730D01*
X019692Y002692D01*
X019622Y002622D01*
X019584Y002530D01*
X019584Y002367D01*
X019565Y002404D01*
X019521Y002465D01*
X019468Y002517D01*
X019408Y002561D01*
X019341Y002595D01*
X019270Y002618D01*
X019196Y002630D01*
X019178Y002630D01*
X019178Y002174D01*
X019140Y002174D01*
X019140Y002136D01*
X019178Y002136D01*
X019178Y001680D01*
X019196Y001680D01*
X019270Y001692D01*
X019341Y001715D01*
X019408Y001749D01*
X019468Y001793D01*
X019521Y001846D01*
X019565Y001906D01*
X019584Y001943D01*
X019584Y001780D01*
X019622Y001689D01*
X019692Y001618D01*
X019784Y001580D01*
X020534Y001580D01*
X020626Y001618D01*
X020696Y001689D01*
X020734Y001780D01*
X020734Y002530D01*
X020696Y002622D01*
X020626Y002692D01*
X020534Y002730D01*
X020692Y002626D02*
X021846Y002626D01*
X021789Y002527D02*
X020734Y002527D01*
X020734Y002429D02*
X021753Y002429D01*
X021735Y002330D02*
X020734Y002330D01*
X020734Y002232D02*
X021718Y002232D01*
X021705Y002155D02*
X021705Y002155D01*
X021708Y002133D02*
X020734Y002133D01*
X020734Y002035D02*
X021726Y002035D01*
X021743Y001936D02*
X020734Y001936D01*
X020734Y001838D02*
X021761Y001838D01*
X021814Y001739D02*
X020717Y001739D01*
X020648Y001641D02*
X021871Y001641D01*
X021928Y001542D02*
X021928Y001542D01*
X022182Y001329D01*
X022493Y001215D01*
X022493Y001215D01*
X022182Y001329D02*
X022182Y001329D01*
X022825Y001215D02*
X022825Y001215D01*
X023565Y002429D02*
X023716Y002429D01*
X023610Y002527D02*
X023529Y002527D01*
X023550Y002626D02*
X023473Y002626D01*
X023470Y002725D02*
X023416Y002725D01*
X023371Y002823D02*
X023325Y002823D01*
X023273Y002922D02*
X023208Y002922D01*
X023174Y003020D02*
X023031Y003020D01*
X023076Y003119D02*
X022682Y003119D01*
X021904Y003907D02*
X020007Y003907D01*
X020058Y003956D02*
X019994Y003977D01*
X019934Y004007D01*
X019879Y004047D01*
X019831Y004095D01*
X019791Y004150D01*
X019761Y004210D01*
X019740Y004274D01*
X019729Y004341D01*
X019729Y004625D01*
X020129Y004625D01*
X020189Y004625D01*
X020189Y003945D01*
X020193Y003945D01*
X020260Y003956D01*
X020324Y003977D01*
X020384Y004007D01*
X020439Y004047D01*
X020487Y004095D01*
X020527Y004150D01*
X020558Y004210D01*
X020578Y004274D01*
X020589Y004341D01*
X020589Y004625D01*
X020189Y004625D01*
X020189Y004685D01*
X020589Y004685D01*
X020589Y004969D01*
X020578Y005036D01*
X020558Y005100D01*
X020527Y005160D01*
X020487Y005215D01*
X020439Y005263D01*
X020384Y005303D01*
X020324Y005334D01*
X020260Y005354D01*
X020193Y005365D01*
X020189Y005365D01*
X020189Y004685D01*
X020129Y004685D01*
X020129Y004625D01*
X020129Y003945D01*
X020125Y003945D01*
X020058Y003956D01*
X020129Y004006D02*
X020189Y004006D01*
X020189Y004104D02*
X020129Y004104D01*
X020129Y004203D02*
X020189Y004203D01*
X020189Y004301D02*
X020129Y004301D01*
X020129Y004400D02*
X020189Y004400D01*
X020189Y004498D02*
X020129Y004498D01*
X020129Y004597D02*
X020189Y004597D01*
X020189Y004695D02*
X020129Y004695D01*
X020129Y004685D02*
X020129Y005365D01*
X020125Y005365D01*
X020058Y005354D01*
X019994Y005334D01*
X019934Y005303D01*
X019879Y005263D01*
X019831Y005215D01*
X019791Y005160D01*
X019761Y005100D01*
X019740Y005036D01*
X019729Y004969D01*
X019729Y004685D01*
X020129Y004685D01*
X020129Y004794D02*
X020189Y004794D01*
X020189Y004892D02*
X020129Y004892D01*
X020129Y004991D02*
X020189Y004991D01*
X020189Y005090D02*
X020129Y005090D01*
X020129Y005188D02*
X020189Y005188D01*
X020189Y005287D02*
X020129Y005287D01*
X019911Y005287D02*
X019557Y005287D01*
X019628Y005188D02*
X019811Y005188D01*
X019757Y005090D02*
X019669Y005090D01*
X019689Y004991D02*
X019733Y004991D01*
X019729Y004892D02*
X019689Y004892D01*
X019689Y004794D02*
X019729Y004794D01*
X019729Y004695D02*
X019689Y004695D01*
X019689Y004597D02*
X019729Y004597D01*
X019729Y004498D02*
X019689Y004498D01*
X019689Y004400D02*
X019729Y004400D01*
X019735Y004301D02*
X019689Y004301D01*
X019711Y004203D02*
X019764Y004203D01*
X019810Y004104D02*
X019824Y004104D01*
X019908Y004006D02*
X019937Y004006D01*
X020381Y004006D02*
X020937Y004006D01*
X020934Y004007D02*
X020994Y003977D01*
X021058Y003956D01*
X021125Y003945D01*
X021129Y003945D01*
X021129Y004625D01*
X021189Y004625D01*
X021189Y003945D01*
X021193Y003945D01*
X021260Y003956D01*
X021324Y003977D01*
X021384Y004007D01*
X021439Y004047D01*
X021487Y004095D01*
X021527Y004150D01*
X021558Y004210D01*
X021578Y004274D01*
X021589Y004341D01*
X021589Y004625D01*
X021189Y004625D01*
X021189Y004685D01*
X021589Y004685D01*
X021589Y004969D01*
X021578Y005036D01*
X021558Y005100D01*
X021527Y005160D01*
X021487Y005215D01*
X021439Y005263D01*
X021384Y005303D01*
X021324Y005334D01*
X021260Y005354D01*
X021193Y005365D01*
X021189Y005365D01*
X021189Y004685D01*
X021129Y004685D01*
X021129Y004625D01*
X020729Y004625D01*
X020729Y004341D01*
X020740Y004274D01*
X020761Y004210D01*
X020791Y004150D01*
X020831Y004095D01*
X020879Y004047D01*
X020934Y004007D01*
X020824Y004104D02*
X020494Y004104D01*
X020554Y004203D02*
X020764Y004203D01*
X020735Y004301D02*
X020583Y004301D01*
X020589Y004400D02*
X020729Y004400D01*
X020729Y004498D02*
X020589Y004498D01*
X020589Y004597D02*
X020729Y004597D01*
X020729Y004685D02*
X021129Y004685D01*
X021129Y005365D01*
X021125Y005365D01*
X021058Y005354D01*
X020994Y005334D01*
X020934Y005303D01*
X020879Y005263D01*
X020831Y005215D01*
X020791Y005160D01*
X020761Y005100D01*
X020740Y005036D01*
X020729Y004969D01*
X020729Y004685D01*
X020729Y004695D02*
X020589Y004695D01*
X020589Y004794D02*
X020729Y004794D01*
X020729Y004892D02*
X020589Y004892D01*
X020586Y004991D02*
X020733Y004991D01*
X020757Y005090D02*
X020561Y005090D01*
X020507Y005188D02*
X020811Y005188D01*
X020911Y005287D02*
X020407Y005287D01*
X021129Y005287D02*
X021189Y005287D01*
X021189Y005188D02*
X021129Y005188D01*
X021129Y005090D02*
X021189Y005090D01*
X021189Y004991D02*
X021129Y004991D01*
X021129Y004892D02*
X021189Y004892D01*
X021189Y004794D02*
X021129Y004794D01*
X021129Y004695D02*
X021189Y004695D01*
X021189Y004597D02*
X021129Y004597D01*
X021129Y004498D02*
X021189Y004498D01*
X021189Y004400D02*
X021129Y004400D01*
X021129Y004301D02*
X021189Y004301D01*
X021189Y004203D02*
X021129Y004203D01*
X021129Y004104D02*
X021189Y004104D01*
X021189Y004006D02*
X021129Y004006D01*
X021381Y004006D02*
X021779Y004006D01*
X021698Y004104D02*
X021494Y004104D01*
X021554Y004203D02*
X021657Y004203D01*
X021629Y004301D02*
X021583Y004301D01*
X021589Y004400D02*
X021629Y004400D01*
X021629Y004498D02*
X021589Y004498D01*
X021589Y004597D02*
X021629Y004597D01*
X021629Y004695D02*
X021589Y004695D01*
X021589Y004794D02*
X021629Y004794D01*
X021629Y004892D02*
X021589Y004892D01*
X021586Y004991D02*
X021629Y004991D01*
X021649Y005090D02*
X021561Y005090D01*
X021507Y005188D02*
X021690Y005188D01*
X021761Y005287D02*
X021407Y005287D01*
X021861Y005385D02*
X019457Y005385D01*
X018861Y005385D02*
X018457Y005385D01*
X018557Y005287D02*
X018761Y005287D01*
X018690Y005188D02*
X018628Y005188D01*
X017861Y005385D02*
X017457Y005385D01*
X017557Y005287D02*
X017761Y005287D01*
X017690Y005188D02*
X017628Y005188D01*
X016861Y005385D02*
X016550Y005385D01*
X016460Y005287D02*
X016761Y005287D01*
X016690Y005188D02*
X016247Y005188D01*
X016178Y005188D02*
X016140Y005188D01*
X016140Y005180D02*
X016140Y005636D01*
X015684Y005636D01*
X015684Y005618D01*
X015696Y005544D01*
X015719Y005473D01*
X015753Y005406D01*
X015797Y005346D01*
X015850Y005293D01*
X015910Y005249D01*
X015977Y005215D01*
X016048Y005192D01*
X016122Y005180D01*
X016140Y005180D01*
X016071Y005188D02*
X015464Y005188D01*
X015366Y005287D02*
X015858Y005287D01*
X015768Y005385D02*
X015267Y005385D01*
X015169Y005484D02*
X015715Y005484D01*
X015690Y005582D02*
X015070Y005582D01*
X014972Y005681D02*
X015684Y005681D01*
X015700Y005779D02*
X014873Y005779D01*
X014775Y005878D02*
X015739Y005878D01*
X015809Y005976D02*
X014676Y005976D01*
X014578Y006075D02*
X015937Y006075D01*
X015827Y006174D02*
X014489Y006174D01*
X014489Y006265D02*
X014489Y006265D01*
X014918Y006272D02*
X015729Y006272D01*
X015654Y006371D02*
X015073Y006371D01*
X015171Y006469D02*
X015614Y006469D01*
X015584Y006568D02*
X015270Y006568D01*
X015369Y006666D02*
X015584Y006666D01*
X015584Y006765D02*
X015467Y006765D01*
X015566Y006863D02*
X015623Y006863D01*
X015838Y007159D02*
X015873Y007159D01*
X015869Y007258D02*
X016634Y007258D01*
X016629Y007356D02*
X015869Y007356D01*
X015869Y007455D02*
X016629Y007455D01*
X016629Y007553D02*
X015869Y007553D01*
X015869Y007652D02*
X016629Y007652D01*
X016629Y007750D02*
X015869Y007750D01*
X015864Y007849D02*
X016629Y007849D01*
X016629Y007947D02*
X015823Y007947D01*
X015727Y008046D02*
X016631Y008046D01*
X016591Y008144D02*
X016672Y008144D01*
X015727Y008144D02*
X015628Y008144D01*
X015542Y008243D02*
X015530Y008243D01*
X015443Y008341D02*
X015431Y008341D01*
X015394Y008440D02*
X015332Y008440D01*
X015309Y008539D02*
X015354Y008539D01*
X015349Y008637D02*
X015309Y008637D01*
X015309Y008736D02*
X015349Y008736D01*
X015380Y008834D02*
X015309Y008834D01*
X015309Y008933D02*
X015420Y008933D01*
X015506Y009031D02*
X015309Y009031D01*
X015309Y009130D02*
X015640Y009130D01*
X015556Y009228D02*
X015309Y009228D01*
X015309Y009327D02*
X015458Y009327D01*
X015400Y009425D02*
X015309Y009425D01*
X015309Y009524D02*
X015360Y009524D01*
X015349Y009623D02*
X015309Y009623D01*
X015309Y009721D02*
X015349Y009721D01*
X015374Y009820D02*
X015309Y009820D01*
X015275Y009918D02*
X015414Y009918D01*
X015491Y010017D02*
X015196Y010017D01*
X015097Y010115D02*
X015605Y010115D01*
X015571Y010214D02*
X014999Y010214D01*
X014900Y010312D02*
X015472Y010312D01*
X015406Y010411D02*
X014802Y010411D01*
X014703Y010509D02*
X015366Y010509D01*
X015349Y010608D02*
X014605Y010608D01*
X014506Y010707D02*
X015349Y010707D01*
X015368Y010805D02*
X014407Y010805D01*
X014309Y010904D02*
X015408Y010904D01*
X015477Y011002D02*
X014210Y011002D01*
X014112Y011101D02*
X015575Y011101D01*
X015595Y011199D02*
X014013Y011199D01*
X013915Y011298D02*
X015487Y011298D01*
X015413Y011396D02*
X013906Y011396D01*
X013946Y011495D02*
X015372Y011495D01*
X015349Y011593D02*
X013969Y011593D01*
X013969Y011692D02*
X015349Y011692D01*
X015361Y011791D02*
X013957Y011791D01*
X013916Y011889D02*
X015402Y011889D01*
X015462Y011988D02*
X013856Y011988D01*
X013758Y012086D02*
X015561Y012086D01*
X015630Y012185D02*
X013688Y012185D01*
X013817Y012283D02*
X015501Y012283D01*
X015419Y012382D02*
X013899Y012382D01*
X013940Y012480D02*
X015378Y012480D01*
X015349Y012579D02*
X013969Y012579D01*
X013969Y012677D02*
X015349Y012677D01*
X015355Y012776D02*
X013963Y012776D01*
X013922Y012874D02*
X015396Y012874D01*
X015447Y012973D02*
X013871Y012973D01*
X013772Y013072D02*
X015546Y013072D01*
X015665Y013170D02*
X013653Y013170D01*
X013802Y013269D02*
X015516Y013269D01*
X015425Y013367D02*
X013893Y013367D01*
X013934Y013466D02*
X015384Y013466D01*
X015349Y013564D02*
X013969Y013564D01*
X013969Y013663D02*
X015349Y013663D01*
X015349Y013761D02*
X013969Y013761D01*
X013928Y013860D02*
X015390Y013860D01*
X015433Y013958D02*
X013885Y013958D01*
X013787Y014057D02*
X015531Y014057D01*
X015700Y014156D02*
X013618Y014156D01*
X013788Y014254D02*
X015531Y014254D01*
X015432Y014353D02*
X013886Y014353D01*
X013928Y014451D02*
X015390Y014451D01*
X015349Y014550D02*
X015349Y014761D01*
X015430Y014955D01*
X015579Y015104D01*
X015774Y015185D01*
X016544Y015185D01*
X016739Y015104D01*
X016888Y014955D01*
X016939Y014834D01*
X016942Y014831D01*
X022647Y009125D01*
X022661Y009125D01*
X023751Y009125D01*
X024104Y009478D01*
X024041Y009452D01*
X023830Y009452D01*
X023636Y009533D01*
X023487Y009682D01*
X023406Y009877D01*
X023406Y010088D01*
X023457Y010210D01*
X023334Y010159D01*
X023123Y010159D01*
X022929Y010240D01*
X022780Y010389D01*
X022699Y010584D01*
X022699Y010795D01*
X022750Y010917D01*
X022627Y010866D01*
X022416Y010866D01*
X022221Y010947D01*
X022072Y011096D01*
X021992Y011291D01*
X021992Y011502D01*
X022042Y011624D01*
X021920Y011574D01*
X021709Y011574D01*
X021514Y011654D01*
X021365Y011803D01*
X021285Y011998D01*
X021285Y012209D01*
X021335Y012331D01*
X021213Y012281D01*
X021002Y012281D01*
X020807Y012361D01*
X020658Y012510D01*
X020578Y012705D01*
X020578Y012916D01*
X020628Y013038D01*
X020506Y012988D01*
X020295Y012988D01*
X020108Y013065D01*
X020057Y013065D01*
X019257Y013065D01*
X019143Y013112D01*
X019056Y013199D01*
X017376Y014879D01*
X017329Y014993D01*
X017329Y015117D01*
X017329Y015167D01*
X016983Y015512D01*
X016983Y015512D01*
X016896Y015599D01*
X016861Y015685D01*
X016189Y015685D01*
X016189Y015625D01*
X016189Y015225D01*
X016473Y015225D01*
X016540Y015236D01*
X016604Y015257D01*
X016664Y015287D01*
X016719Y015327D01*
X016767Y015375D01*
X016807Y015430D01*
X016838Y015490D01*
X016858Y015554D01*
X016869Y015621D01*
X016869Y015625D01*
X016189Y015625D01*
X016129Y015625D01*
X016129Y015225D01*
X015845Y015225D01*
X015778Y015236D01*
X015714Y015257D01*
X015654Y015287D01*
X015599Y015327D01*
X015551Y015375D01*
X015511Y015430D01*
X015481Y015490D01*
X015460Y015554D01*
X015449Y015621D01*
X015449Y015625D01*
X016129Y015625D01*
X016129Y015685D01*
X015449Y015685D01*
X015449Y015689D01*
X015460Y015756D01*
X015481Y015820D01*
X015511Y015880D01*
X015551Y015935D01*
X015599Y015983D01*
X015654Y016023D01*
X015714Y016054D01*
X015778Y016074D01*
X015845Y016085D01*
X016129Y016085D01*
X016129Y015685D01*
X016189Y015685D01*
X016189Y016085D01*
X016473Y016085D01*
X016540Y016074D01*
X016604Y016054D01*
X016664Y016023D01*
X016719Y015983D01*
X016767Y015935D01*
X016807Y015880D01*
X016838Y015820D01*
X016849Y015785D01*
X016849Y016936D01*
X016710Y017075D01*
X016659Y017197D01*
X016608Y017075D01*
X016459Y016926D01*
X016264Y016845D01*
X016054Y016845D01*
X015859Y016926D01*
X015823Y016961D01*
X013853Y014991D01*
X013888Y014955D01*
X013969Y014761D01*
X013969Y014550D01*
X013969Y014648D02*
X015349Y014648D01*
X015349Y014747D02*
X013969Y014747D01*
X013934Y014845D02*
X015384Y014845D01*
X015425Y014944D02*
X013893Y014944D01*
X013905Y015042D02*
X015517Y015042D01*
X015667Y015141D02*
X014003Y015141D01*
X014102Y015240D02*
X015767Y015240D01*
X015588Y015338D02*
X014200Y015338D01*
X014299Y015437D02*
X015508Y015437D01*
X015466Y015535D02*
X014397Y015535D01*
X014496Y015634D02*
X016129Y015634D01*
X016189Y015634D02*
X016882Y015634D01*
X016852Y015535D02*
X016961Y015535D01*
X017059Y015437D02*
X016810Y015437D01*
X016730Y015338D02*
X017158Y015338D01*
X017256Y015240D02*
X016551Y015240D01*
X016651Y015141D02*
X017329Y015141D01*
X017329Y015042D02*
X016801Y015042D01*
X016893Y014944D02*
X017350Y014944D01*
X017410Y014845D02*
X016934Y014845D01*
X017026Y014747D02*
X017509Y014747D01*
X017607Y014648D02*
X017124Y014648D01*
X017223Y014550D02*
X017706Y014550D01*
X017805Y014451D02*
X017321Y014451D01*
X017420Y014353D02*
X017903Y014353D01*
X018002Y014254D02*
X017518Y014254D01*
X017617Y014156D02*
X018100Y014156D01*
X018199Y014057D02*
X017716Y014057D01*
X017814Y013958D02*
X018297Y013958D01*
X018396Y013860D02*
X017913Y013860D01*
X018011Y013761D02*
X018494Y013761D01*
X018593Y013663D02*
X018110Y013663D01*
X018208Y013564D02*
X018691Y013564D01*
X018790Y013466D02*
X018307Y013466D01*
X018405Y013367D02*
X018889Y013367D01*
X018987Y013269D02*
X018504Y013269D01*
X018602Y013170D02*
X019086Y013170D01*
X019242Y013072D02*
X018701Y013072D01*
X018799Y012973D02*
X020601Y012973D01*
X020578Y012874D02*
X018898Y012874D01*
X018997Y012776D02*
X020578Y012776D01*
X020589Y012677D02*
X019095Y012677D01*
X019194Y012579D02*
X020630Y012579D01*
X020688Y012480D02*
X019292Y012480D01*
X019391Y012382D02*
X020787Y012382D01*
X020996Y012283D02*
X019489Y012283D01*
X019588Y012185D02*
X021285Y012185D01*
X021285Y012086D02*
X019686Y012086D01*
X019785Y011988D02*
X021289Y011988D01*
X021330Y011889D02*
X019883Y011889D01*
X019982Y011791D02*
X021378Y011791D01*
X021477Y011692D02*
X020081Y011692D01*
X020179Y011593D02*
X021661Y011593D01*
X021968Y011593D02*
X022030Y011593D01*
X021992Y011495D02*
X020278Y011495D01*
X020376Y011396D02*
X021992Y011396D01*
X021992Y011298D02*
X020475Y011298D01*
X020573Y011199D02*
X022030Y011199D01*
X022071Y011101D02*
X020672Y011101D01*
X020770Y011002D02*
X022166Y011002D01*
X022327Y010904D02*
X020869Y010904D01*
X020967Y010805D02*
X022703Y010805D01*
X022699Y010707D02*
X021066Y010707D01*
X021165Y010608D02*
X022699Y010608D01*
X022730Y010509D02*
X021263Y010509D01*
X021362Y010411D02*
X022770Y010411D01*
X022856Y010312D02*
X021460Y010312D01*
X021559Y010214D02*
X022992Y010214D01*
X023417Y010115D02*
X021657Y010115D01*
X021756Y010017D02*
X023406Y010017D01*
X023406Y009918D02*
X021854Y009918D01*
X021953Y009820D02*
X023430Y009820D01*
X023470Y009721D02*
X022051Y009721D01*
X022150Y009623D02*
X023546Y009623D01*
X023657Y009524D02*
X022249Y009524D01*
X022347Y009425D02*
X024051Y009425D01*
X023952Y009327D02*
X022446Y009327D01*
X022544Y009228D02*
X023854Y009228D01*
X023755Y009130D02*
X022643Y009130D01*
X022160Y008736D02*
X018909Y008736D01*
X018909Y008834D02*
X022062Y008834D01*
X021963Y008933D02*
X018909Y008933D01*
X018909Y009031D02*
X021864Y009031D01*
X021766Y009130D02*
X018909Y009130D01*
X018909Y009228D02*
X020277Y009228D01*
X020761Y009228D02*
X021667Y009228D01*
X021569Y009327D02*
X020867Y009327D01*
X020928Y009425D02*
X021470Y009425D01*
X021372Y009524D02*
X020968Y009524D01*
X020969Y009623D02*
X021273Y009623D01*
X021175Y009721D02*
X020962Y009721D01*
X020921Y009820D02*
X021076Y009820D01*
X020978Y009918D02*
X020852Y009918D01*
X020879Y010017D02*
X020725Y010017D01*
X020780Y010115D02*
X018909Y010115D01*
X018909Y010017D02*
X020313Y010017D01*
X020583Y010312D02*
X018909Y010312D01*
X018909Y010214D02*
X020682Y010214D01*
X020485Y010411D02*
X018909Y010411D01*
X018909Y010509D02*
X020386Y010509D01*
X020288Y010608D02*
X018909Y010608D01*
X018909Y010707D02*
X020189Y010707D01*
X020091Y010805D02*
X018909Y010805D01*
X018909Y010904D02*
X019992Y010904D01*
X019894Y011002D02*
X018909Y011002D01*
X018909Y011101D02*
X019795Y011101D01*
X019696Y011199D02*
X018909Y011199D01*
X018909Y011298D02*
X019598Y011298D01*
X019499Y011396D02*
X018909Y011396D01*
X018909Y011495D02*
X019401Y011495D01*
X019302Y011593D02*
X018909Y011593D01*
X018909Y011692D02*
X019204Y011692D01*
X019105Y011791D02*
X018895Y011791D01*
X018843Y011889D02*
X019007Y011889D01*
X018908Y011988D02*
X018745Y011988D01*
X018810Y012086D02*
X018646Y012086D01*
X018711Y012185D02*
X018548Y012185D01*
X018613Y012283D02*
X018449Y012283D01*
X018514Y012382D02*
X018351Y012382D01*
X018415Y012480D02*
X018252Y012480D01*
X018317Y012579D02*
X018154Y012579D01*
X018218Y012677D02*
X018055Y012677D01*
X018120Y012776D02*
X017957Y012776D01*
X018021Y012874D02*
X017858Y012874D01*
X017923Y012973D02*
X017759Y012973D01*
X017824Y013072D02*
X017661Y013072D01*
X017726Y013170D02*
X017562Y013170D01*
X017627Y013269D02*
X017464Y013269D01*
X017529Y013367D02*
X017365Y013367D01*
X017430Y013466D02*
X017267Y013466D01*
X017331Y013564D02*
X017168Y013564D01*
X017233Y013663D02*
X017070Y013663D01*
X017134Y013761D02*
X016971Y013761D01*
X016928Y013860D02*
X017036Y013860D01*
X016937Y013958D02*
X016885Y013958D01*
X016839Y014057D02*
X016787Y014057D01*
X016740Y014156D02*
X016618Y014156D01*
X017949Y015184D02*
X019447Y013685D01*
X019896Y013685D01*
X019921Y013746D01*
X019799Y013695D01*
X019588Y013695D01*
X019393Y013776D01*
X019244Y013925D01*
X019163Y014119D01*
X019163Y014330D01*
X019214Y014453D01*
X019092Y014402D01*
X018881Y014402D01*
X018686Y014483D01*
X018537Y014632D01*
X018456Y014827D01*
X018456Y015037D01*
X018537Y015232D01*
X019082Y015777D01*
X019277Y015858D01*
X019456Y015858D01*
X019069Y016245D01*
X019050Y016245D01*
X019073Y016200D01*
X019094Y016136D01*
X019105Y016069D01*
X019105Y016001D01*
X019094Y015934D01*
X019073Y015870D01*
X019043Y015810D01*
X019003Y015755D01*
X018802Y015554D01*
X018520Y015837D01*
X018477Y015794D01*
X018760Y015512D01*
X018559Y015311D01*
X018504Y015271D01*
X018444Y015241D01*
X018380Y015220D01*
X018313Y015209D01*
X018245Y015209D01*
X018178Y015220D01*
X018114Y015241D01*
X018054Y015271D01*
X017999Y015311D01*
X017996Y015314D01*
X018477Y015794D01*
X018434Y015837D01*
X017954Y015356D01*
X017951Y015359D01*
X017944Y015369D01*
X017949Y015357D01*
X017949Y015184D01*
X017949Y015240D02*
X018117Y015240D01*
X018021Y015338D02*
X017949Y015338D01*
X018034Y015437D02*
X018119Y015437D01*
X018133Y015535D02*
X018218Y015535D01*
X018231Y015634D02*
X018316Y015634D01*
X018330Y015732D02*
X018415Y015732D01*
X018428Y015831D02*
X018441Y015831D01*
X018434Y015837D02*
X018152Y016120D01*
X017951Y015919D01*
X017911Y015864D01*
X017881Y015804D01*
X017860Y015740D01*
X017849Y015673D01*
X017849Y015605D01*
X017860Y015538D01*
X017872Y015500D01*
X017815Y015558D01*
X017469Y015903D01*
X017469Y016936D01*
X017608Y017075D01*
X017659Y017197D01*
X017710Y017075D01*
X017859Y016926D01*
X018054Y016845D01*
X018149Y016845D01*
X018548Y016446D01*
X018510Y016434D01*
X018450Y016403D01*
X018395Y016363D01*
X018194Y016162D01*
X018477Y015880D01*
X018434Y015837D01*
X018514Y015831D02*
X018526Y015831D01*
X018539Y015732D02*
X018624Y015732D01*
X018638Y015634D02*
X018723Y015634D01*
X018736Y015535D02*
X018840Y015535D01*
X018882Y015634D02*
X018938Y015634D01*
X018980Y015732D02*
X019037Y015732D01*
X019053Y015831D02*
X019211Y015831D01*
X019093Y015929D02*
X019385Y015929D01*
X019286Y016028D02*
X019105Y016028D01*
X019096Y016126D02*
X019188Y016126D01*
X019089Y016225D02*
X019061Y016225D01*
X018487Y016422D02*
X017469Y016422D01*
X017469Y016324D02*
X018355Y016324D01*
X018257Y016225D02*
X017469Y016225D01*
X017469Y016126D02*
X018230Y016126D01*
X018244Y016028D02*
X018329Y016028D01*
X018342Y015929D02*
X018427Y015929D01*
X018060Y016028D02*
X017469Y016028D01*
X017469Y015929D02*
X017961Y015929D01*
X017894Y015831D02*
X017542Y015831D01*
X017640Y015732D02*
X017859Y015732D01*
X017849Y015634D02*
X017739Y015634D01*
X017837Y015535D02*
X017861Y015535D01*
X018441Y015240D02*
X018544Y015240D01*
X018586Y015338D02*
X018643Y015338D01*
X018685Y015437D02*
X018741Y015437D01*
X018499Y015141D02*
X017992Y015141D01*
X018090Y015042D02*
X018458Y015042D01*
X018456Y014944D02*
X018189Y014944D01*
X018287Y014845D02*
X018456Y014845D01*
X018489Y014747D02*
X018386Y014747D01*
X018484Y014648D02*
X018530Y014648D01*
X018583Y014550D02*
X018619Y014550D01*
X018681Y014451D02*
X018762Y014451D01*
X018780Y014353D02*
X019173Y014353D01*
X019163Y014254D02*
X018878Y014254D01*
X018977Y014156D02*
X019163Y014156D01*
X019189Y014057D02*
X019076Y014057D01*
X019174Y013958D02*
X019230Y013958D01*
X019273Y013860D02*
X019309Y013860D01*
X019371Y013761D02*
X019427Y013761D01*
X019213Y014451D02*
X019210Y014451D01*
X019878Y015141D02*
X019960Y015141D01*
X019912Y015240D02*
X023355Y015240D01*
X023256Y015338D02*
X019912Y015338D01*
X019911Y015437D02*
X023158Y015437D01*
X023059Y015535D02*
X019870Y015535D01*
X019826Y015634D02*
X022961Y015634D01*
X022862Y015732D02*
X019727Y015732D01*
X020218Y015141D02*
X023453Y015141D01*
X023552Y015042D02*
X020417Y015042D01*
X020516Y014944D02*
X023650Y014944D01*
X023749Y014845D02*
X020570Y014845D01*
X020611Y014747D02*
X023848Y014747D01*
X023946Y014648D02*
X020619Y014648D01*
X020619Y014550D02*
X024045Y014550D01*
X024143Y014451D02*
X020593Y014451D01*
X021107Y014353D02*
X024242Y014353D01*
X024340Y014254D02*
X021205Y014254D01*
X021270Y014156D02*
X024439Y014156D01*
X024537Y014057D02*
X021311Y014057D01*
X021326Y013958D02*
X024677Y013958D01*
X025007Y014747D02*
X027151Y014747D01*
X027250Y014845D02*
X025664Y014845D01*
X025598Y014818D02*
X025947Y014963D01*
X026214Y015230D01*
X026359Y015579D01*
X026359Y015957D01*
X026214Y016306D01*
X025947Y016573D01*
X025598Y016718D01*
X025220Y016718D01*
X024871Y016573D01*
X024604Y016306D01*
X024459Y015957D01*
X024459Y015579D01*
X024604Y015230D01*
X024871Y014963D01*
X025220Y014818D01*
X025598Y014818D01*
X025902Y014944D02*
X027348Y014944D01*
X027447Y015042D02*
X026027Y015042D01*
X026125Y015141D02*
X027545Y015141D01*
X027644Y015240D02*
X026218Y015240D01*
X026259Y015338D02*
X027624Y015338D01*
X027584Y015437D02*
X026300Y015437D01*
X026341Y015535D02*
X027549Y015535D01*
X027549Y015634D02*
X026359Y015634D01*
X026359Y015732D02*
X027549Y015732D01*
X027566Y015831D02*
X026359Y015831D01*
X026359Y015929D02*
X027607Y015929D01*
X027647Y016028D02*
X026330Y016028D01*
X026289Y016126D02*
X027739Y016126D01*
X027837Y016225D02*
X026248Y016225D01*
X026197Y016324D02*
X028066Y016324D01*
X028094Y016975D02*
X027844Y017079D01*
X027653Y017270D01*
X027549Y017520D01*
X027549Y017790D01*
X027653Y018040D01*
X027844Y018232D01*
X028094Y018335D01*
X029224Y018335D01*
X029474Y018232D01*
X029666Y018040D01*
X029769Y017790D01*
X029769Y017520D01*
X029666Y017270D01*
X029474Y017079D01*
X029224Y016975D01*
X028094Y016975D01*
X028002Y017013D02*
X023547Y017013D01*
X023608Y017075D02*
X023689Y017270D01*
X023689Y018041D01*
X023608Y018235D01*
X023459Y018384D01*
X023264Y018465D01*
X023054Y018465D01*
X022859Y018384D01*
X022710Y018235D01*
X022659Y018113D01*
X022608Y018235D01*
X022459Y018384D01*
X022264Y018465D01*
X022054Y018465D01*
X021859Y018384D01*
X021710Y018235D01*
X021659Y018113D01*
X021608Y018235D01*
X021459Y018384D01*
X021264Y018465D01*
X021054Y018465D01*
X020859Y018384D01*
X020710Y018235D01*
X020629Y018041D01*
X020629Y017270D01*
X020710Y017075D01*
X020859Y016926D01*
X021054Y016845D01*
X021264Y016845D01*
X021459Y016926D01*
X021608Y017075D01*
X021659Y017197D01*
X021710Y017075D01*
X021859Y016926D01*
X022054Y016845D01*
X022264Y016845D01*
X022459Y016926D01*
X022608Y017075D01*
X022659Y017197D01*
X022710Y017075D01*
X022859Y016926D01*
X023054Y016845D01*
X023264Y016845D01*
X023459Y016926D01*
X023608Y017075D01*
X023624Y017112D02*
X027811Y017112D01*
X027712Y017210D02*
X025821Y017210D01*
X025993Y017309D02*
X027636Y017309D01*
X027596Y017407D02*
X026092Y017407D01*
X026190Y017506D02*
X027555Y017506D01*
X027549Y017605D02*
X026245Y017605D01*
X026286Y017703D02*
X027549Y017703D01*
X027554Y017802D02*
X026327Y017802D01*
X026359Y017900D02*
X027595Y017900D01*
X027635Y017999D02*
X026359Y017999D01*
X026359Y018097D02*
X027710Y018097D01*
X027808Y018196D02*
X026359Y018196D01*
X026344Y018294D02*
X027996Y018294D01*
X028135Y019083D02*
X025686Y019083D01*
X025680Y018984D02*
X031009Y018984D01*
X031009Y018886D02*
X025918Y018886D01*
X026034Y018787D02*
X031009Y018787D01*
X031009Y018689D02*
X026132Y018689D01*
X026221Y018590D02*
X031009Y018590D01*
X031009Y018491D02*
X026262Y018491D01*
X026303Y018393D02*
X031009Y018393D01*
X031009Y018294D02*
X029323Y018294D01*
X029510Y018196D02*
X031009Y018196D01*
X031009Y018097D02*
X029609Y018097D01*
X029683Y017999D02*
X031009Y017999D01*
X031009Y017900D02*
X029724Y017900D01*
X029764Y017802D02*
X031009Y017802D01*
X031009Y017703D02*
X029769Y017703D01*
X029769Y017605D02*
X031009Y017605D01*
X031009Y017506D02*
X029763Y017506D01*
X029722Y017407D02*
X031009Y017407D01*
X031009Y017309D02*
X029682Y017309D01*
X029606Y017210D02*
X031009Y017210D01*
X031009Y017112D02*
X029507Y017112D01*
X029316Y017013D02*
X031009Y017013D01*
X031009Y016915D02*
X023433Y016915D01*
X023233Y016521D02*
X024818Y016521D01*
X024719Y016422D02*
X023332Y016422D01*
X023430Y016324D02*
X024621Y016324D01*
X024570Y016225D02*
X023529Y016225D01*
X023628Y016126D02*
X024529Y016126D01*
X024488Y016028D02*
X023726Y016028D01*
X023825Y015929D02*
X024459Y015929D01*
X024459Y015831D02*
X023923Y015831D01*
X024022Y015732D02*
X024459Y015732D01*
X024459Y015634D02*
X024120Y015634D01*
X024219Y015535D02*
X024477Y015535D01*
X024518Y015437D02*
X024317Y015437D01*
X024416Y015338D02*
X024559Y015338D01*
X024600Y015240D02*
X024514Y015240D01*
X024613Y015141D02*
X024693Y015141D01*
X024711Y015042D02*
X024791Y015042D01*
X024810Y014944D02*
X024916Y014944D01*
X024909Y014845D02*
X025154Y014845D01*
X026099Y016422D02*
X031009Y016422D01*
X031009Y016324D02*
X029252Y016324D01*
X029481Y016225D02*
X031009Y016225D01*
X031009Y016126D02*
X029579Y016126D01*
X029671Y016028D02*
X031009Y016028D01*
X031009Y015929D02*
X029711Y015929D01*
X029752Y015831D02*
X031009Y015831D01*
X031009Y015732D02*
X029769Y015732D01*
X029769Y015634D02*
X031009Y015634D01*
X031009Y015535D02*
X029769Y015535D01*
X029735Y015437D02*
X031009Y015437D01*
X031009Y015338D02*
X029694Y015338D01*
X029635Y015240D02*
X031009Y015240D01*
X031009Y015141D02*
X029537Y015141D01*
X029387Y015042D02*
X031009Y015042D01*
X031009Y014944D02*
X028508Y014944D01*
X028409Y014845D02*
X031009Y014845D01*
X031009Y014747D02*
X028311Y014747D01*
X028212Y014648D02*
X031009Y014648D01*
X031009Y014550D02*
X028113Y014550D01*
X028015Y014451D02*
X031009Y014451D01*
X031009Y014353D02*
X027916Y014353D01*
X027818Y014254D02*
X031009Y014254D01*
X031009Y014156D02*
X027719Y014156D01*
X027621Y014057D02*
X031009Y014057D01*
X031009Y013958D02*
X027481Y013958D01*
X027930Y013072D02*
X022021Y013072D01*
X022033Y013170D02*
X028671Y013170D01*
X028601Y013072D02*
X028388Y013072D01*
X028513Y012973D02*
X028584Y012973D01*
X028580Y012874D02*
X028584Y012874D01*
X028178Y012874D02*
X028140Y012874D01*
X028140Y012776D02*
X028178Y012776D01*
X028178Y012677D02*
X028140Y012677D01*
X028140Y012579D02*
X028178Y012579D01*
X028178Y012480D02*
X028140Y012480D01*
X028140Y012382D02*
X028178Y012382D01*
X028178Y012283D02*
X028140Y012283D01*
X028140Y012185D02*
X028178Y012185D01*
X028225Y012185D02*
X028509Y012185D01*
X028455Y012283D02*
X028584Y012283D01*
X028584Y012382D02*
X028548Y012382D01*
X028410Y012086D02*
X023370Y012086D01*
X023410Y011988D02*
X028312Y011988D01*
X028213Y011889D02*
X023448Y011889D01*
X023448Y011791D02*
X028115Y011791D01*
X028016Y011692D02*
X023448Y011692D01*
X023467Y011593D02*
X023409Y011593D01*
X023783Y011593D02*
X027918Y011593D01*
X027819Y011495D02*
X023965Y011495D01*
X024063Y011396D02*
X027721Y011396D01*
X027622Y011298D02*
X024110Y011298D01*
X024151Y011199D02*
X027523Y011199D01*
X027425Y011101D02*
X024155Y011101D01*
X024155Y011002D02*
X027326Y011002D01*
X027228Y010904D02*
X024448Y010904D01*
X024654Y010805D02*
X027129Y010805D01*
X027031Y010707D02*
X024753Y010707D01*
X024810Y010608D02*
X026932Y010608D01*
X026834Y010509D02*
X024851Y010509D01*
X024862Y010411D02*
X026735Y010411D01*
X026637Y010312D02*
X024862Y010312D01*
X024837Y010214D02*
X026538Y010214D01*
X026439Y010115D02*
X025344Y010115D01*
X025443Y010017D02*
X026341Y010017D01*
X026242Y009918D02*
X025510Y009918D01*
X025551Y009820D02*
X026144Y009820D01*
X026045Y009721D02*
X025569Y009721D01*
X025569Y009623D02*
X025947Y009623D01*
X025848Y009524D02*
X025552Y009524D01*
X025511Y009425D02*
X025750Y009425D01*
X025651Y009327D02*
X025444Y009327D01*
X025346Y009228D02*
X025553Y009228D01*
X025454Y009130D02*
X025247Y009130D01*
X025149Y009031D02*
X025355Y009031D01*
X025257Y008933D02*
X025050Y008933D01*
X024952Y008834D02*
X025158Y008834D01*
X025060Y008736D02*
X024238Y008736D01*
X024139Y008637D02*
X025014Y008637D01*
X025825Y008341D02*
X026784Y008341D01*
X026749Y008243D02*
X025809Y008243D01*
X025809Y008144D02*
X026749Y008144D01*
X026749Y008046D02*
X025809Y008046D01*
X025809Y007947D02*
X026749Y007947D01*
X026749Y007849D02*
X025809Y007849D01*
X025809Y007750D02*
X026749Y007750D01*
X026749Y007652D02*
X025809Y007652D01*
X025809Y007553D02*
X026749Y007553D01*
X026749Y007455D02*
X025809Y007455D01*
X025924Y008440D02*
X026844Y008440D01*
X026943Y008539D02*
X026022Y008539D01*
X026121Y008637D02*
X027041Y008637D01*
X027140Y008736D02*
X026219Y008736D01*
X026318Y008834D02*
X027238Y008834D01*
X027337Y008933D02*
X026416Y008933D01*
X026515Y009031D02*
X027435Y009031D01*
X027534Y009130D02*
X026614Y009130D01*
X026712Y009228D02*
X027633Y009228D01*
X027629Y009327D02*
X026811Y009327D01*
X026909Y009425D02*
X027588Y009425D01*
X027549Y009524D02*
X027008Y009524D01*
X027106Y009623D02*
X027549Y009623D01*
X027549Y009721D02*
X027205Y009721D01*
X027303Y009820D02*
X027561Y009820D01*
X027602Y009918D02*
X027402Y009918D01*
X027500Y010017D02*
X027643Y010017D01*
X027599Y010115D02*
X027728Y010115D01*
X027698Y010214D02*
X027826Y010214D01*
X027796Y010312D02*
X028039Y010312D01*
X027895Y010411D02*
X031009Y010411D01*
X031009Y010509D02*
X027993Y010509D01*
X028092Y010608D02*
X031009Y010608D01*
X031009Y010707D02*
X028190Y010707D01*
X028289Y010805D02*
X031009Y010805D01*
X031009Y010904D02*
X028387Y010904D01*
X028486Y011002D02*
X031009Y011002D01*
X031009Y011101D02*
X028584Y011101D01*
X028683Y011199D02*
X031009Y011199D01*
X031009Y011298D02*
X028782Y011298D01*
X028880Y011396D02*
X031009Y011396D01*
X031009Y011495D02*
X028979Y011495D01*
X029077Y011593D02*
X031009Y011593D01*
X031009Y011692D02*
X029176Y011692D01*
X029274Y011791D02*
X031009Y011791D01*
X031009Y011889D02*
X029373Y011889D01*
X029471Y011988D02*
X031009Y011988D01*
X031009Y012086D02*
X029548Y012086D01*
X029692Y012185D02*
X031009Y012185D01*
X031009Y012283D02*
X029734Y012283D01*
X029734Y012382D02*
X031009Y012382D01*
X031009Y012480D02*
X029734Y012480D01*
X029734Y012579D02*
X031009Y012579D01*
X031009Y012677D02*
X029734Y012677D01*
X029734Y012776D02*
X031009Y012776D01*
X031009Y012874D02*
X029734Y012874D01*
X029734Y012973D02*
X031009Y012973D01*
X031009Y013072D02*
X029717Y013072D01*
X029648Y013170D02*
X031009Y013170D01*
X031009Y013269D02*
X022033Y013269D01*
X022011Y013367D02*
X031009Y013367D01*
X031009Y013466D02*
X021970Y013466D01*
X021895Y013564D02*
X031009Y013564D01*
X031009Y013663D02*
X021787Y013663D01*
X021326Y013860D02*
X031009Y013860D01*
X031009Y013761D02*
X021307Y013761D01*
X022452Y012973D02*
X027805Y012973D01*
X027738Y012874D02*
X022585Y012874D01*
X022670Y012776D02*
X027699Y012776D01*
X027684Y012677D02*
X022711Y012677D01*
X022741Y012579D02*
X027690Y012579D01*
X027716Y012480D02*
X022741Y012480D01*
X022735Y012382D02*
X027770Y012382D01*
X027863Y012283D02*
X023118Y012283D01*
X023275Y012185D02*
X028093Y012185D01*
X028140Y012973D02*
X028178Y012973D01*
X028178Y013072D02*
X028140Y013072D01*
X029279Y010312D02*
X031009Y010312D01*
X031009Y010214D02*
X029492Y010214D01*
X029591Y010115D02*
X031009Y010115D01*
X031009Y010017D02*
X029675Y010017D01*
X029716Y009918D02*
X031009Y009918D01*
X031009Y009820D02*
X029757Y009820D01*
X029769Y009721D02*
X031009Y009721D01*
X031009Y009623D02*
X029769Y009623D01*
X029769Y009524D02*
X031009Y009524D01*
X031009Y009425D02*
X029730Y009425D01*
X029689Y009327D02*
X031009Y009327D01*
X031009Y009228D02*
X029624Y009228D01*
X029525Y009130D02*
X031009Y009130D01*
X031009Y009031D02*
X029360Y009031D01*
X028496Y008933D02*
X031009Y008933D01*
X031009Y008834D02*
X028398Y008834D01*
X028299Y008736D02*
X031009Y008736D01*
X031009Y008637D02*
X028201Y008637D01*
X028102Y008539D02*
X031009Y008539D01*
X031009Y008440D02*
X028004Y008440D01*
X027969Y006174D02*
X027580Y006174D01*
X027609Y006075D02*
X027829Y006075D01*
X023816Y008341D02*
X023502Y008341D01*
X023601Y008243D02*
X023717Y008243D01*
X023672Y008144D02*
X023646Y008144D01*
X021675Y007159D02*
X021531Y007159D01*
X021573Y007258D02*
X021634Y007258D01*
X021629Y007356D02*
X021589Y007356D01*
X021589Y007455D02*
X021629Y007455D01*
X021629Y007553D02*
X021589Y007553D01*
X021189Y007553D02*
X021129Y007553D01*
X021129Y007455D02*
X021189Y007455D01*
X021189Y007356D02*
X021129Y007356D01*
X021129Y007258D02*
X021189Y007258D01*
X021189Y007159D02*
X021129Y007159D01*
X021129Y007060D02*
X021189Y007060D01*
X021452Y007060D02*
X021724Y007060D01*
X020189Y007849D02*
X020129Y007849D01*
X020129Y007947D02*
X020189Y007947D01*
X020189Y008046D02*
X020129Y008046D01*
X020129Y008144D02*
X020189Y008144D01*
X020189Y008243D02*
X020129Y008243D01*
X020129Y008341D02*
X020189Y008341D01*
X018993Y008440D02*
X018909Y008440D01*
X017675Y007159D02*
X017643Y007159D01*
X017594Y007060D02*
X017724Y007060D01*
X017823Y006962D02*
X017495Y006962D01*
X017308Y006863D02*
X018010Y006863D01*
X018308Y006863D02*
X018432Y006863D01*
X018531Y006765D02*
X016734Y006765D01*
X016734Y006666D02*
X018629Y006666D01*
X018728Y006568D02*
X016734Y006568D01*
X016704Y006469D02*
X018827Y006469D01*
X018925Y006371D02*
X016664Y006371D01*
X016589Y006272D02*
X019081Y006272D01*
X017010Y006863D02*
X016695Y006863D01*
X016654Y006962D02*
X016823Y006962D01*
X016724Y007060D02*
X016567Y007060D01*
X016675Y007159D02*
X016445Y007159D01*
X015249Y007424D02*
X014711Y006885D01*
X012981Y006885D01*
X012857Y006885D01*
X012808Y006865D01*
X012782Y006875D01*
X012536Y006875D01*
X012308Y006781D01*
X012133Y006606D01*
X012039Y006378D01*
X012039Y006132D01*
X012133Y005904D01*
X012308Y005729D01*
X012536Y005635D01*
X012782Y005635D01*
X013010Y005729D01*
X013185Y005904D01*
X013279Y006132D01*
X013279Y006265D01*
X013589Y006265D01*
X013589Y006265D01*
X013589Y006086D01*
X013658Y005920D01*
X013784Y005794D01*
X013950Y005725D01*
X014051Y005725D01*
X015622Y004154D01*
X015553Y004085D01*
X010647Y004085D01*
X010349Y004384D01*
X010349Y004489D01*
X010367Y004507D01*
X010430Y004355D01*
X010579Y004206D01*
X010774Y004125D01*
X011544Y004125D01*
X011739Y004206D01*
X011888Y004355D01*
X011969Y004550D01*
X011969Y004761D01*
X011888Y004955D01*
X011739Y005104D01*
X011617Y005155D01*
X011739Y005206D01*
X011888Y005355D01*
X011969Y005550D01*
X011969Y005761D01*
X011888Y005955D01*
X011739Y006104D01*
X011617Y006155D01*
X011739Y006206D01*
X011888Y006355D01*
X011969Y006550D01*
X011969Y006761D01*
X011888Y006955D01*
X011739Y007104D01*
X011617Y007155D01*
X011739Y007206D01*
X011888Y007355D01*
X011969Y007550D01*
X011969Y007761D01*
X011888Y007955D01*
X011739Y008104D01*
X011617Y008155D01*
X011739Y008206D01*
X011888Y008355D01*
X011969Y008550D01*
X011969Y008761D01*
X011888Y008955D01*
X011739Y009104D01*
X011617Y009155D01*
X011718Y009197D01*
X012349Y008565D01*
X012349Y008550D01*
X012430Y008355D01*
X012579Y008206D01*
X012774Y008125D01*
X013544Y008125D01*
X013739Y008206D01*
X013888Y008355D01*
X013969Y008550D01*
X013969Y008761D01*
X013888Y008955D01*
X013739Y009104D01*
X013617Y009155D01*
X013739Y009206D01*
X013888Y009355D01*
X013969Y009550D01*
X013969Y009761D01*
X013888Y009955D01*
X013739Y010104D01*
X013617Y010155D01*
X013739Y010206D01*
X013888Y010355D01*
X013915Y010420D01*
X014689Y009647D01*
X014689Y008397D01*
X014689Y008273D01*
X014707Y008230D01*
X014545Y008230D01*
X014333Y008143D01*
X014172Y007981D01*
X014105Y007820D01*
X014099Y007837D01*
X014065Y007904D01*
X014021Y007965D01*
X013968Y008017D01*
X013908Y008061D01*
X013841Y008095D01*
X013770Y008118D01*
X013696Y008130D01*
X013678Y008130D01*
X013678Y007674D01*
X013640Y007674D01*
X013640Y007636D01*
X013678Y007636D01*
X013678Y007180D01*
X013696Y007180D01*
X013770Y007192D01*
X013841Y007215D01*
X013908Y007249D01*
X013968Y007293D01*
X014021Y007346D01*
X014065Y007406D01*
X014099Y007473D01*
X014105Y007490D01*
X014172Y007329D01*
X014333Y007168D01*
X014545Y007080D01*
X014773Y007080D01*
X014985Y007168D01*
X015146Y007329D01*
X015234Y007541D01*
X015234Y007662D01*
X015249Y007647D01*
X015249Y007424D01*
X015249Y007455D02*
X015198Y007455D01*
X015182Y007356D02*
X015158Y007356D01*
X015083Y007258D02*
X015075Y007258D01*
X014985Y007159D02*
X014964Y007159D01*
X014886Y007060D02*
X011783Y007060D01*
X011882Y006962D02*
X014787Y006962D01*
X014354Y007159D02*
X011626Y007159D01*
X011791Y007258D02*
X013398Y007258D01*
X013410Y007249D02*
X013477Y007215D01*
X013548Y007192D01*
X013622Y007180D01*
X013640Y007180D01*
X013640Y007636D01*
X013184Y007636D01*
X013184Y007618D01*
X013196Y007544D01*
X013219Y007473D01*
X013253Y007406D01*
X013297Y007346D01*
X013350Y007293D01*
X013410Y007249D01*
X013289Y007356D02*
X011889Y007356D01*
X011930Y007455D02*
X013228Y007455D01*
X013194Y007553D02*
X011969Y007553D01*
X011969Y007652D02*
X013640Y007652D01*
X013640Y007674D02*
X013184Y007674D01*
X013184Y007692D01*
X013196Y007766D01*
X013219Y007837D01*
X013253Y007904D01*
X013297Y007965D01*
X013350Y008017D01*
X013410Y008061D01*
X013477Y008095D01*
X013548Y008118D01*
X013622Y008130D01*
X013640Y008130D01*
X013640Y007674D01*
X013640Y007750D02*
X013678Y007750D01*
X013678Y007849D02*
X013640Y007849D01*
X013640Y007947D02*
X013678Y007947D01*
X013678Y008046D02*
X013640Y008046D01*
X013591Y008144D02*
X014338Y008144D01*
X014237Y008046D02*
X013929Y008046D01*
X014034Y007947D02*
X014158Y007947D01*
X014117Y007849D02*
X014093Y007849D01*
X013776Y008243D02*
X014702Y008243D01*
X014689Y008341D02*
X013875Y008341D01*
X013924Y008440D02*
X014689Y008440D01*
X014689Y008539D02*
X013964Y008539D01*
X013969Y008637D02*
X014689Y008637D01*
X014689Y008736D02*
X013969Y008736D01*
X013939Y008834D02*
X014689Y008834D01*
X014689Y008933D02*
X013898Y008933D01*
X013812Y009031D02*
X014689Y009031D01*
X014689Y009130D02*
X013678Y009130D01*
X013762Y009228D02*
X014689Y009228D01*
X014689Y009327D02*
X013860Y009327D01*
X013918Y009425D02*
X014689Y009425D01*
X014689Y009524D02*
X013958Y009524D01*
X013969Y009623D02*
X014689Y009623D01*
X014615Y009721D02*
X013969Y009721D01*
X013945Y009820D02*
X014516Y009820D01*
X014418Y009918D02*
X013904Y009918D01*
X013827Y010017D02*
X014319Y010017D01*
X014220Y010115D02*
X013713Y010115D01*
X013747Y010214D02*
X014122Y010214D01*
X014023Y010312D02*
X013846Y010312D01*
X013911Y010411D02*
X013925Y010411D01*
X012701Y010155D02*
X012579Y010104D01*
X012430Y009955D01*
X012349Y009761D01*
X012349Y009725D01*
X012111Y009963D01*
X011961Y010025D01*
X011819Y010025D01*
X011739Y010104D01*
X011617Y010155D01*
X011739Y010206D01*
X011888Y010355D01*
X011969Y010550D01*
X011969Y010761D01*
X011888Y010955D01*
X011739Y011104D01*
X011544Y011185D01*
X010774Y011185D01*
X010579Y011104D01*
X010430Y010955D01*
X010349Y010761D01*
X010349Y010550D01*
X010430Y010355D01*
X010579Y010206D01*
X010701Y010155D01*
X010579Y010104D01*
X010430Y009955D01*
X010349Y009761D01*
X010349Y009550D01*
X010430Y009355D01*
X010579Y009206D01*
X010701Y009155D01*
X010579Y009104D01*
X010430Y008955D01*
X010349Y008761D01*
X010349Y008550D01*
X010430Y008355D01*
X010579Y008206D01*
X010701Y008155D01*
X010579Y008104D01*
X010430Y007955D01*
X010349Y007761D01*
X010349Y007550D01*
X010430Y007355D01*
X010579Y007206D01*
X010701Y007155D01*
X010579Y007104D01*
X010430Y006955D01*
X010349Y006761D01*
X010349Y006550D01*
X010430Y006355D01*
X010579Y006206D01*
X010701Y006155D01*
X010579Y006104D01*
X010430Y005955D01*
X010417Y005925D01*
X010341Y005925D01*
X010337Y005925D01*
X010349Y005953D01*
X010349Y012205D01*
X010369Y012205D01*
X010518Y012267D01*
X010579Y012206D01*
X010774Y012125D01*
X011544Y012125D01*
X011739Y012206D01*
X011888Y012355D01*
X011969Y012550D01*
X011969Y012761D01*
X011942Y012825D01*
X012057Y012825D01*
X012181Y012825D01*
X012295Y012872D01*
X012614Y013191D01*
X012701Y013155D01*
X012579Y013104D01*
X012430Y012955D01*
X012349Y012761D01*
X012349Y012550D01*
X012430Y012355D01*
X012579Y012206D01*
X012701Y012155D01*
X012579Y012104D01*
X012502Y012028D01*
X012454Y012077D01*
X012289Y012145D01*
X012110Y012145D01*
X011944Y012077D01*
X011818Y011950D01*
X011795Y011896D01*
X011767Y011935D01*
X011719Y011983D01*
X011664Y012023D01*
X011604Y012054D01*
X011540Y012074D01*
X011473Y012085D01*
X011189Y012085D01*
X011189Y011685D01*
X011129Y011685D01*
X011129Y011625D01*
X011189Y011625D01*
X011189Y011225D01*
X011473Y011225D01*
X011540Y011236D01*
X011604Y011257D01*
X011664Y011287D01*
X011719Y011327D01*
X011767Y011375D01*
X011807Y011430D01*
X011815Y011446D01*
X011818Y011440D01*
X011944Y011314D01*
X012110Y011245D01*
X012211Y011245D01*
X012465Y010991D01*
X012430Y010955D01*
X012349Y010761D01*
X012349Y010550D01*
X012430Y010355D01*
X012579Y010206D01*
X012701Y010155D01*
X012605Y010115D02*
X011713Y010115D01*
X011747Y010214D02*
X012571Y010214D01*
X012472Y010312D02*
X011846Y010312D01*
X011912Y010411D02*
X012406Y010411D01*
X012366Y010509D02*
X011952Y010509D01*
X011969Y010608D02*
X012349Y010608D01*
X012349Y010707D02*
X011969Y010707D01*
X011951Y010805D02*
X012368Y010805D01*
X012408Y010904D02*
X011910Y010904D01*
X011841Y011002D02*
X012454Y011002D01*
X012355Y011101D02*
X011743Y011101D01*
X011679Y011298D02*
X011982Y011298D01*
X011861Y011396D02*
X011783Y011396D01*
X012256Y011199D02*
X010349Y011199D01*
X010349Y011101D02*
X010575Y011101D01*
X010477Y011002D02*
X010349Y011002D01*
X010349Y010904D02*
X010408Y010904D01*
X010368Y010805D02*
X010349Y010805D01*
X010349Y010707D02*
X010349Y010707D01*
X010349Y010608D02*
X010349Y010608D01*
X010349Y010509D02*
X010366Y010509D01*
X010349Y010411D02*
X010406Y010411D01*
X010349Y010312D02*
X010472Y010312D01*
X010571Y010214D02*
X010349Y010214D01*
X010349Y010115D02*
X010605Y010115D01*
X010491Y010017D02*
X010349Y010017D01*
X010349Y009918D02*
X010414Y009918D01*
X010374Y009820D02*
X010349Y009820D01*
X010349Y009721D02*
X010349Y009721D01*
X010349Y009623D02*
X010349Y009623D01*
X010349Y009524D02*
X010360Y009524D01*
X010349Y009425D02*
X010400Y009425D01*
X010349Y009327D02*
X010458Y009327D01*
X010556Y009228D02*
X010349Y009228D01*
X010349Y009130D02*
X010640Y009130D01*
X010506Y009031D02*
X010349Y009031D01*
X010349Y008933D02*
X010420Y008933D01*
X010380Y008834D02*
X010349Y008834D01*
X010349Y008736D02*
X010349Y008736D01*
X010349Y008637D02*
X010349Y008637D01*
X010349Y008539D02*
X010354Y008539D01*
X010349Y008440D02*
X010394Y008440D01*
X010349Y008341D02*
X010443Y008341D01*
X010349Y008243D02*
X010542Y008243D01*
X010676Y008144D02*
X010349Y008144D01*
X010349Y008046D02*
X010520Y008046D01*
X010426Y007947D02*
X010349Y007947D01*
X010349Y007849D02*
X010386Y007849D01*
X010349Y007750D02*
X010349Y007750D01*
X010349Y007652D02*
X010349Y007652D01*
X010349Y007553D02*
X010349Y007553D01*
X010349Y007455D02*
X010388Y007455D01*
X010349Y007356D02*
X010429Y007356D01*
X010349Y007258D02*
X010527Y007258D01*
X010692Y007159D02*
X010349Y007159D01*
X010349Y007060D02*
X010535Y007060D01*
X010436Y006962D02*
X010349Y006962D01*
X010349Y006863D02*
X010392Y006863D01*
X010351Y006765D02*
X010349Y006765D01*
X010349Y006666D02*
X010349Y006666D01*
X010349Y006568D02*
X010349Y006568D01*
X010349Y006469D02*
X010382Y006469D01*
X010349Y006371D02*
X010423Y006371D01*
X010349Y006272D02*
X010513Y006272D01*
X010657Y006174D02*
X010349Y006174D01*
X010349Y006075D02*
X010549Y006075D01*
X010451Y005976D02*
X010349Y005976D01*
X009729Y006144D02*
X008704Y005119D01*
X008617Y005155D01*
X008739Y005206D01*
X008888Y005355D01*
X008969Y005550D01*
X008969Y005761D01*
X008888Y005955D01*
X008739Y006104D01*
X008617Y006155D01*
X008739Y006206D01*
X008888Y006355D01*
X008969Y006550D01*
X008969Y006761D01*
X008888Y006955D01*
X008739Y007104D01*
X008617Y007155D01*
X008739Y007206D01*
X008888Y007355D01*
X008969Y007550D01*
X008969Y007761D01*
X008888Y007955D01*
X008739Y008104D01*
X008617Y008155D01*
X008739Y008206D01*
X008888Y008355D01*
X008969Y008550D01*
X008969Y008761D01*
X008888Y008955D01*
X008739Y009104D01*
X008617Y009155D01*
X008739Y009206D01*
X008888Y009355D01*
X008969Y009550D01*
X008969Y009761D01*
X008888Y009955D01*
X008739Y010104D01*
X008544Y010185D01*
X007774Y010185D01*
X007579Y010104D01*
X007430Y009955D01*
X007349Y009761D01*
X007349Y009550D01*
X007430Y009355D01*
X007579Y009206D01*
X007701Y009155D01*
X007579Y009104D01*
X007430Y008955D01*
X007349Y008761D01*
X007349Y008550D01*
X007430Y008355D01*
X007485Y008300D01*
X006903Y007718D01*
X006816Y007631D01*
X006769Y007517D01*
X006769Y006224D01*
X006275Y005729D01*
X006273Y005730D01*
X006045Y005730D01*
X005833Y005643D01*
X005672Y005481D01*
X005584Y005269D01*
X005584Y005041D01*
X005672Y004829D01*
X005833Y004668D01*
X006045Y004580D01*
X006273Y004580D01*
X006485Y004668D01*
X006646Y004829D01*
X006734Y005041D01*
X006734Y005269D01*
X006722Y005299D01*
X007342Y005919D01*
X007389Y006033D01*
X007389Y006157D01*
X007389Y006453D01*
X007430Y006355D01*
X007579Y006206D01*
X007701Y006155D01*
X007579Y006104D01*
X007430Y005955D01*
X007349Y005761D01*
X007349Y005550D01*
X007430Y005355D01*
X007579Y005206D01*
X007701Y005155D01*
X007579Y005104D01*
X007430Y004955D01*
X007349Y004761D01*
X007349Y004550D01*
X007430Y004355D01*
X007579Y004206D01*
X007774Y004125D01*
X008544Y004125D01*
X008739Y004206D01*
X008888Y004355D01*
X008939Y004476D01*
X008942Y004479D01*
X008942Y004480D02*
X009009Y004547D01*
X009009Y004464D01*
X008631Y004085D01*
X007447Y004085D01*
X007102Y004431D01*
X007015Y004518D01*
X006901Y004565D01*
X005927Y004565D01*
X004909Y005584D01*
X004909Y008273D01*
X004909Y008397D01*
X004862Y008511D01*
X003902Y009471D01*
X003815Y009558D01*
X003701Y009605D01*
X002487Y009605D01*
X002370Y009722D01*
X002386Y009710D01*
X002459Y009673D01*
X002537Y009648D01*
X002609Y009637D01*
X002609Y010105D01*
X002709Y010105D01*
X002709Y009637D01*
X002781Y009648D01*
X002859Y009673D01*
X002932Y009710D01*
X002998Y009758D01*
X003056Y009816D01*
X003104Y009883D01*
X003141Y009955D01*
X003159Y010011D01*
X003177Y009955D01*
X003214Y009883D01*
X003262Y009816D01*
X003320Y009758D01*
X003386Y009710D01*
X003459Y009673D01*
X003537Y009648D01*
X003609Y009637D01*
X003609Y010105D01*
X003709Y010105D01*
X003709Y009637D01*
X003781Y009648D01*
X003859Y009673D01*
X003932Y009710D01*
X003998Y009758D01*
X004056Y009816D01*
X004104Y009883D01*
X004141Y009955D01*
X004166Y010033D01*
X004178Y010105D01*
X003709Y010105D01*
X003709Y010205D01*
X004178Y010205D01*
X004166Y010277D01*
X004141Y010355D01*
X004104Y010428D01*
X004056Y010494D01*
X003998Y010552D01*
X003934Y010598D01*
X004010Y010629D01*
X004185Y010804D01*
X004185Y010805D01*
X006208Y010805D01*
X006219Y010837D02*
X006196Y010766D01*
X006184Y010692D01*
X006184Y010674D01*
X006640Y010674D01*
X006640Y010636D01*
X006678Y010636D01*
X006678Y010180D01*
X006696Y010180D01*
X006770Y010192D01*
X006841Y010215D01*
X006908Y010249D01*
X006968Y010293D01*
X007021Y010346D01*
X007065Y010406D01*
X007099Y010473D01*
X007122Y010544D01*
X007134Y010618D01*
X007134Y010636D01*
X006678Y010636D01*
X006678Y010674D01*
X007134Y010674D01*
X007134Y010692D01*
X007122Y010766D01*
X007099Y010837D01*
X007065Y010904D01*
X007021Y010965D01*
X006968Y011017D01*
X006908Y011061D01*
X006841Y011095D01*
X006824Y011101D01*
X006985Y011168D01*
X007146Y011329D01*
X007234Y011541D01*
X007234Y011769D01*
X007146Y011981D01*
X006985Y012143D01*
X006773Y012230D01*
X006545Y012230D01*
X006333Y012143D01*
X006252Y012061D01*
X006207Y012043D01*
X006091Y011927D01*
X005789Y011625D01*
X004066Y011625D01*
X004036Y011655D01*
X004185Y011804D01*
X004279Y012032D01*
X004279Y012278D01*
X004185Y012506D01*
X004010Y012681D01*
X003782Y012775D01*
X003536Y012775D01*
X003308Y012681D01*
X003159Y012532D01*
X003010Y012681D01*
X002782Y012775D01*
X002536Y012775D01*
X002308Y012681D01*
X002133Y012506D01*
X002050Y012304D01*
X002016Y012271D01*
X001456Y011711D01*
X001409Y011597D01*
X001409Y011473D01*
X001409Y009873D01*
X001456Y009759D01*
X001543Y009672D01*
X002183Y009032D01*
X002297Y008985D01*
X002421Y008985D01*
X003511Y008985D01*
X004289Y008207D01*
X004289Y005393D01*
X004336Y005279D01*
X004423Y005192D01*
X005623Y003992D01*
X005737Y003945D01*
X005861Y003945D01*
X006711Y003945D01*
X007231Y004301D02*
X007483Y004301D01*
X007411Y004400D02*
X007133Y004400D01*
X007034Y004498D02*
X007370Y004498D01*
X007349Y004597D02*
X006314Y004597D01*
X006513Y004695D02*
X007349Y004695D01*
X007363Y004794D02*
X006611Y004794D01*
X006673Y004892D02*
X007404Y004892D01*
X007465Y004991D02*
X006713Y004991D01*
X006734Y005090D02*
X007564Y005090D01*
X007621Y005188D02*
X006734Y005188D01*
X006727Y005287D02*
X007498Y005287D01*
X007417Y005385D02*
X006808Y005385D01*
X006906Y005484D02*
X007376Y005484D01*
X007349Y005582D02*
X007005Y005582D01*
X007103Y005681D02*
X007349Y005681D01*
X007357Y005779D02*
X007202Y005779D01*
X007300Y005878D02*
X007398Y005878D01*
X007365Y005976D02*
X007451Y005976D01*
X007389Y006075D02*
X007549Y006075D01*
X007657Y006174D02*
X007389Y006174D01*
X007389Y006272D02*
X007513Y006272D01*
X007423Y006371D02*
X007389Y006371D01*
X006769Y006371D02*
X004909Y006371D01*
X004909Y006469D02*
X006769Y006469D01*
X006769Y006568D02*
X004909Y006568D01*
X004909Y006666D02*
X005837Y006666D01*
X005833Y006668D02*
X006045Y006580D01*
X006273Y006580D01*
X006485Y006668D01*
X006646Y006829D01*
X006734Y007041D01*
X006734Y007269D01*
X006646Y007481D01*
X006485Y007643D01*
X006273Y007730D01*
X006045Y007730D01*
X005833Y007643D01*
X005672Y007481D01*
X005584Y007269D01*
X005584Y007041D01*
X005672Y006829D01*
X005833Y006668D01*
X005736Y006765D02*
X004909Y006765D01*
X004909Y006863D02*
X005657Y006863D01*
X005617Y006962D02*
X004909Y006962D01*
X004909Y007060D02*
X005584Y007060D01*
X005584Y007159D02*
X004909Y007159D01*
X004909Y007258D02*
X005584Y007258D01*
X005620Y007356D02*
X004909Y007356D01*
X004909Y007455D02*
X005661Y007455D01*
X005744Y007553D02*
X004909Y007553D01*
X004909Y007652D02*
X005855Y007652D01*
X006463Y007652D02*
X006837Y007652D01*
X006784Y007553D02*
X006574Y007553D01*
X006657Y007455D02*
X006769Y007455D01*
X006769Y007356D02*
X006698Y007356D01*
X006734Y007258D02*
X006769Y007258D01*
X006769Y007159D02*
X006734Y007159D01*
X006734Y007060D02*
X006769Y007060D01*
X006769Y006962D02*
X006701Y006962D01*
X006661Y006863D02*
X006769Y006863D01*
X006769Y006765D02*
X006582Y006765D01*
X006481Y006666D02*
X006769Y006666D01*
X006769Y006272D02*
X004909Y006272D01*
X004909Y006174D02*
X006719Y006174D01*
X006621Y006075D02*
X004909Y006075D01*
X004909Y005976D02*
X006522Y005976D01*
X006424Y005878D02*
X004909Y005878D01*
X004909Y005779D02*
X006325Y005779D01*
X005926Y005681D02*
X004909Y005681D01*
X004910Y005582D02*
X005773Y005582D01*
X005674Y005484D02*
X005009Y005484D01*
X005107Y005385D02*
X005632Y005385D01*
X005591Y005287D02*
X005206Y005287D01*
X005304Y005188D02*
X005584Y005188D01*
X005584Y005090D02*
X005403Y005090D01*
X005501Y004991D02*
X005605Y004991D01*
X005600Y004892D02*
X005645Y004892D01*
X005699Y004794D02*
X005707Y004794D01*
X005797Y004695D02*
X005806Y004695D01*
X005896Y004597D02*
X006004Y004597D01*
X005512Y004104D02*
X004177Y004104D01*
X004157Y004006D02*
X005610Y004006D01*
X005413Y004203D02*
X003709Y004203D01*
X004051Y004498D02*
X005117Y004498D01*
X005019Y004597D02*
X003936Y004597D01*
X004076Y004695D02*
X004920Y004695D01*
X004822Y004794D02*
X004175Y004794D01*
X004221Y004892D02*
X004723Y004892D01*
X004625Y004991D02*
X004262Y004991D01*
X004279Y005090D02*
X004526Y005090D01*
X004428Y005188D02*
X004279Y005188D01*
X004276Y005287D02*
X004333Y005287D01*
X004292Y005385D02*
X004235Y005385D01*
X004194Y005484D02*
X004289Y005484D01*
X004289Y005582D02*
X004109Y005582D01*
X004062Y005681D02*
X004289Y005681D01*
X004289Y005779D02*
X004160Y005779D01*
X004215Y005878D02*
X004289Y005878D01*
X004289Y005976D02*
X004256Y005976D01*
X004279Y006075D02*
X004289Y006075D01*
X004279Y006174D02*
X004289Y006174D01*
X004279Y006272D02*
X004289Y006272D01*
X004289Y006371D02*
X004241Y006371D01*
X004200Y006469D02*
X004289Y006469D01*
X004289Y006568D02*
X004123Y006568D01*
X004025Y006666D02*
X004289Y006666D01*
X004289Y006765D02*
X003807Y006765D01*
X003511Y006765D02*
X002807Y006765D01*
X003025Y006666D02*
X003293Y006666D01*
X003195Y006568D02*
X003123Y006568D01*
X002511Y006765D02*
X001329Y006765D01*
X001329Y006863D02*
X004289Y006863D01*
X004289Y006962D02*
X001329Y006962D01*
X001329Y007060D02*
X004289Y007060D01*
X004289Y007159D02*
X001329Y007159D01*
X001329Y007258D02*
X004289Y007258D01*
X004289Y007356D02*
X001329Y007356D01*
X001329Y007455D02*
X004289Y007455D01*
X004289Y007553D02*
X001329Y007553D01*
X001329Y007652D02*
X002159Y007652D01*
X002192Y007618D02*
X002284Y007580D01*
X003034Y007580D01*
X003126Y007618D01*
X003196Y007689D01*
X003234Y007780D01*
X003234Y007943D01*
X003253Y007906D01*
X003297Y007846D01*
X003350Y007793D01*
X003410Y007749D01*
X003477Y007715D01*
X003548Y007692D01*
X003622Y007680D01*
X003640Y007680D01*
X003640Y008136D01*
X003678Y008136D01*
X003678Y007680D01*
X003696Y007680D01*
X003770Y007692D01*
X003841Y007715D01*
X003908Y007749D01*
X003968Y007793D01*
X004021Y007846D01*
X004065Y007906D01*
X004099Y007973D01*
X004122Y008044D01*
X004134Y008118D01*
X004134Y008136D01*
X003678Y008136D01*
X003678Y008174D01*
X004134Y008174D01*
X004134Y008192D01*
X004122Y008266D01*
X004099Y008337D01*
X004065Y008404D01*
X004021Y008465D01*
X003968Y008517D01*
X003908Y008561D01*
X003841Y008595D01*
X003770Y008618D01*
X003696Y008630D01*
X003678Y008630D01*
X003678Y008174D01*
X003640Y008174D01*
X003640Y008630D01*
X003622Y008630D01*
X003548Y008618D01*
X003477Y008595D01*
X003410Y008561D01*
X003350Y008517D01*
X003297Y008465D01*
X003253Y008404D01*
X003234Y008367D01*
X003234Y008530D01*
X003196Y008622D01*
X003126Y008692D01*
X003034Y008730D01*
X002284Y008730D01*
X002192Y008692D01*
X002122Y008622D01*
X002084Y008530D01*
X002084Y007780D01*
X002122Y007689D01*
X002192Y007618D01*
X002097Y007750D02*
X001329Y007750D01*
X001329Y007849D02*
X002084Y007849D01*
X002084Y007947D02*
X001329Y007947D01*
X001329Y008046D02*
X002084Y008046D01*
X002084Y008144D02*
X001329Y008144D01*
X001329Y008243D02*
X002084Y008243D01*
X002084Y008341D02*
X001329Y008341D01*
X001329Y008440D02*
X002084Y008440D01*
X002088Y008539D02*
X001329Y008539D01*
X001329Y008637D02*
X002138Y008637D01*
X002186Y009031D02*
X001329Y009031D01*
X001329Y008933D02*
X003563Y008933D01*
X003662Y008834D02*
X001329Y008834D01*
X001329Y008736D02*
X003760Y008736D01*
X003859Y008637D02*
X003181Y008637D01*
X003230Y008539D02*
X003379Y008539D01*
X003279Y008440D02*
X003234Y008440D01*
X003640Y008440D02*
X003678Y008440D01*
X003678Y008341D02*
X003640Y008341D01*
X003640Y008243D02*
X003678Y008243D01*
X003678Y008144D02*
X004289Y008144D01*
X004289Y008046D02*
X004123Y008046D01*
X004086Y007947D02*
X004289Y007947D01*
X004289Y007849D02*
X004024Y007849D01*
X003910Y007750D02*
X004289Y007750D01*
X004289Y007652D02*
X003159Y007652D01*
X003221Y007750D02*
X003408Y007750D01*
X003294Y007849D02*
X003234Y007849D01*
X003640Y007849D02*
X003678Y007849D01*
X003678Y007947D02*
X003640Y007947D01*
X003640Y008046D02*
X003678Y008046D01*
X003678Y007750D02*
X003640Y007750D01*
X004126Y008243D02*
X004253Y008243D01*
X004154Y008341D02*
X004097Y008341D01*
X004056Y008440D02*
X004039Y008440D01*
X003957Y008539D02*
X003939Y008539D01*
X003678Y008539D02*
X003640Y008539D01*
X004341Y009031D02*
X005200Y009031D01*
X005196Y009044D02*
X005219Y008973D01*
X005253Y008906D01*
X005297Y008846D01*
X005350Y008793D01*
X005410Y008749D01*
X005477Y008715D01*
X005548Y008692D01*
X005622Y008680D01*
X005640Y008680D01*
X005640Y009136D01*
X005678Y009136D01*
X005678Y008680D01*
X005696Y008680D01*
X005770Y008692D01*
X005841Y008715D01*
X005908Y008749D01*
X005968Y008793D01*
X006021Y008846D01*
X006065Y008906D01*
X006099Y008973D01*
X006105Y008990D01*
X006172Y008829D01*
X006333Y008668D01*
X006545Y008580D01*
X006773Y008580D01*
X006985Y008668D01*
X007146Y008829D01*
X007234Y009041D01*
X007234Y009269D01*
X007146Y009481D01*
X006985Y009643D01*
X006773Y009730D01*
X006545Y009730D01*
X006333Y009643D01*
X006172Y009481D01*
X006105Y009320D01*
X006099Y009337D01*
X006065Y009404D01*
X006021Y009465D01*
X005968Y009517D01*
X005908Y009561D01*
X005841Y009595D01*
X005770Y009618D01*
X005696Y009630D01*
X005678Y009630D01*
X005678Y009174D01*
X005640Y009174D01*
X005640Y009136D01*
X005184Y009136D01*
X005184Y009118D01*
X005196Y009044D01*
X005184Y009130D02*
X004243Y009130D01*
X004144Y009228D02*
X005190Y009228D01*
X005184Y009192D02*
X005184Y009174D01*
X005640Y009174D01*
X005640Y009630D01*
X005622Y009630D01*
X005548Y009618D01*
X005477Y009595D01*
X005410Y009561D01*
X005350Y009517D01*
X005297Y009465D01*
X005253Y009404D01*
X005219Y009337D01*
X005196Y009266D01*
X005184Y009192D01*
X005215Y009327D02*
X004046Y009327D01*
X003947Y009425D02*
X005268Y009425D01*
X005359Y009524D02*
X003849Y009524D01*
X003946Y009721D02*
X006523Y009721D01*
X006313Y009623D02*
X005744Y009623D01*
X005678Y009623D02*
X005640Y009623D01*
X005574Y009623D02*
X002470Y009623D01*
X002372Y009721D02*
X002371Y009721D01*
X002226Y009866D02*
X002029Y010064D01*
X002029Y011407D01*
X002280Y011658D01*
X002282Y011655D01*
X002133Y011506D01*
X002039Y011278D01*
X002039Y011032D01*
X002133Y010804D01*
X002308Y010629D01*
X002384Y010598D01*
X002320Y010552D01*
X002262Y010494D01*
X002214Y010428D01*
X002177Y010355D01*
X002152Y010277D01*
X002140Y010205D01*
X002609Y010205D01*
X002609Y010105D01*
X002140Y010105D01*
X002152Y010033D01*
X002177Y009955D01*
X002214Y009883D01*
X002226Y009866D01*
X002196Y009918D02*
X002174Y009918D01*
X002157Y010017D02*
X002076Y010017D01*
X002029Y010115D02*
X002609Y010115D01*
X002609Y010017D02*
X002709Y010017D01*
X002709Y010105D02*
X002709Y010205D01*
X003140Y010205D01*
X003609Y010205D01*
X003609Y010105D01*
X003140Y010105D01*
X002709Y010105D01*
X002709Y010115D02*
X003609Y010115D01*
X003609Y010017D02*
X003709Y010017D01*
X003709Y010115D02*
X007605Y010115D01*
X007491Y010017D02*
X004161Y010017D01*
X004122Y009918D02*
X007414Y009918D01*
X007374Y009820D02*
X004058Y009820D01*
X003709Y009820D02*
X003609Y009820D01*
X003609Y009918D02*
X003709Y009918D01*
X003709Y009721D02*
X003609Y009721D01*
X003372Y009721D02*
X002946Y009721D01*
X003058Y009820D02*
X003260Y009820D01*
X003196Y009918D02*
X003122Y009918D01*
X002709Y009918D02*
X002609Y009918D01*
X002609Y009820D02*
X002709Y009820D01*
X002709Y009721D02*
X002609Y009721D01*
X002142Y010214D02*
X002029Y010214D01*
X002029Y010312D02*
X002163Y010312D01*
X002206Y010411D02*
X002029Y010411D01*
X002029Y010509D02*
X002278Y010509D01*
X002360Y010608D02*
X002029Y010608D01*
X002029Y010707D02*
X002231Y010707D01*
X002133Y010805D02*
X002029Y010805D01*
X002029Y010904D02*
X002092Y010904D01*
X002051Y011002D02*
X002029Y011002D01*
X002029Y011101D02*
X002039Y011101D01*
X002029Y011199D02*
X002039Y011199D01*
X002029Y011298D02*
X002047Y011298D01*
X002029Y011396D02*
X002088Y011396D01*
X002117Y011495D02*
X002129Y011495D01*
X002216Y011593D02*
X002221Y011593D01*
X001635Y011889D02*
X001329Y011889D01*
X001329Y011791D02*
X001536Y011791D01*
X001449Y011692D02*
X001329Y011692D01*
X001329Y011593D02*
X001409Y011593D01*
X001409Y011495D02*
X001329Y011495D01*
X001329Y011396D02*
X001409Y011396D01*
X001409Y011298D02*
X001329Y011298D01*
X001329Y011199D02*
X001409Y011199D01*
X001409Y011101D02*
X001329Y011101D01*
X001329Y011002D02*
X001409Y011002D01*
X001409Y010904D02*
X001329Y010904D01*
X001329Y010805D02*
X001409Y010805D01*
X001409Y010707D02*
X001329Y010707D01*
X001329Y010608D02*
X001409Y010608D01*
X001409Y010509D02*
X001329Y010509D01*
X001329Y010411D02*
X001409Y010411D01*
X001409Y010312D02*
X001329Y010312D01*
X001329Y010214D02*
X001409Y010214D01*
X001409Y010115D02*
X001329Y010115D01*
X001329Y010017D02*
X001409Y010017D01*
X001409Y009918D02*
X001329Y009918D01*
X001329Y009820D02*
X001431Y009820D01*
X001495Y009721D02*
X001329Y009721D01*
X001329Y009623D02*
X001593Y009623D01*
X001692Y009524D02*
X001329Y009524D01*
X001329Y009425D02*
X001790Y009425D01*
X001889Y009327D02*
X001329Y009327D01*
X001329Y009228D02*
X001987Y009228D01*
X002086Y009130D02*
X001329Y009130D01*
X003958Y010608D02*
X006186Y010608D01*
X006184Y010618D02*
X006196Y010544D01*
X006219Y010473D01*
X006253Y010406D01*
X006297Y010346D01*
X006350Y010293D01*
X006410Y010249D01*
X006477Y010215D01*
X006548Y010192D01*
X006622Y010180D01*
X006640Y010180D01*
X006640Y010636D01*
X006184Y010636D01*
X006184Y010618D01*
X006186Y010707D02*
X004087Y010707D01*
X004185Y010805D02*
X005877Y010805D01*
X006041Y010805D01*
X006191Y010868D01*
X006445Y011121D01*
X006494Y011101D01*
X006477Y011095D01*
X006410Y011061D01*
X006350Y011017D01*
X006297Y010965D01*
X006253Y010904D01*
X006219Y010837D01*
X006227Y010904D02*
X006253Y010904D01*
X006326Y011002D02*
X006334Y011002D01*
X006424Y011101D02*
X006493Y011101D01*
X006825Y011101D02*
X009329Y011101D01*
X009329Y011199D02*
X008723Y011199D01*
X008739Y011206D02*
X008888Y011355D01*
X008969Y011550D01*
X008969Y011761D01*
X008888Y011955D01*
X008739Y012104D01*
X008617Y012155D01*
X008739Y012206D01*
X008879Y012345D01*
X009141Y012345D01*
X009255Y012392D01*
X009260Y012398D01*
X009329Y012329D01*
X009329Y008021D01*
X009258Y007950D01*
X009189Y007785D01*
X009189Y007606D01*
X009258Y007440D01*
X009384Y007314D01*
X009550Y007245D01*
X009729Y007245D01*
X009729Y006144D01*
X009729Y006174D02*
X008661Y006174D01*
X008769Y006075D02*
X009661Y006075D01*
X009562Y005976D02*
X008867Y005976D01*
X008920Y005878D02*
X009464Y005878D01*
X009365Y005779D02*
X008961Y005779D01*
X008969Y005681D02*
X009266Y005681D01*
X009168Y005582D02*
X008969Y005582D01*
X008942Y005484D02*
X009069Y005484D01*
X008971Y005385D02*
X008901Y005385D01*
X008872Y005287D02*
X008820Y005287D01*
X008774Y005188D02*
X008697Y005188D01*
X008961Y004498D02*
X009009Y004498D01*
X008942Y004479D02*
X008942Y004480D01*
X008945Y004400D02*
X008907Y004400D01*
X008847Y004301D02*
X008835Y004301D01*
X008748Y004203D02*
X008732Y004203D01*
X008650Y004104D02*
X007428Y004104D01*
X007330Y004203D02*
X007586Y004203D01*
X007215Y003316D02*
X016460Y003316D01*
X016361Y003414D02*
X016155Y003414D01*
X016253Y003513D02*
X016263Y003513D01*
X016745Y003907D02*
X016904Y003907D01*
X016779Y004006D02*
X016647Y004006D01*
X016698Y004104D02*
X016548Y004104D01*
X016450Y004203D02*
X016657Y004203D01*
X016629Y004301D02*
X016351Y004301D01*
X016253Y004400D02*
X016629Y004400D01*
X016629Y004498D02*
X016154Y004498D01*
X016056Y004597D02*
X016629Y004597D01*
X016629Y004695D02*
X015957Y004695D01*
X015859Y004794D02*
X016629Y004794D01*
X016629Y004892D02*
X015760Y004892D01*
X015661Y004991D02*
X016629Y004991D01*
X016649Y005090D02*
X015563Y005090D01*
X016140Y005287D02*
X016178Y005287D01*
X016178Y005385D02*
X016140Y005385D01*
X016140Y005484D02*
X016178Y005484D01*
X016178Y005582D02*
X016140Y005582D01*
X015179Y004597D02*
X011969Y004597D01*
X011969Y004695D02*
X015080Y004695D01*
X014982Y004794D02*
X011955Y004794D01*
X011914Y004892D02*
X014883Y004892D01*
X014785Y004991D02*
X011853Y004991D01*
X011754Y005090D02*
X014686Y005090D01*
X014588Y005188D02*
X011697Y005188D01*
X011820Y005287D02*
X014489Y005287D01*
X014391Y005385D02*
X011901Y005385D01*
X011942Y005484D02*
X014292Y005484D01*
X014193Y005582D02*
X011969Y005582D01*
X011969Y005681D02*
X012425Y005681D01*
X012258Y005779D02*
X011961Y005779D01*
X011920Y005878D02*
X012159Y005878D01*
X012103Y005976D02*
X011867Y005976D01*
X011769Y006075D02*
X012063Y006075D01*
X012039Y006174D02*
X011661Y006174D01*
X011806Y006272D02*
X012039Y006272D01*
X012039Y006371D02*
X011895Y006371D01*
X011936Y006469D02*
X012077Y006469D01*
X012117Y006568D02*
X011969Y006568D01*
X011969Y006666D02*
X012193Y006666D01*
X012292Y006765D02*
X011967Y006765D01*
X011926Y006863D02*
X012507Y006863D01*
X013279Y006174D02*
X013589Y006174D01*
X013593Y006075D02*
X013255Y006075D01*
X013215Y005976D02*
X013634Y005976D01*
X013700Y005878D02*
X013159Y005878D01*
X013060Y005779D02*
X013819Y005779D01*
X014095Y005681D02*
X012893Y005681D01*
X011948Y004498D02*
X015277Y004498D01*
X015376Y004400D02*
X011907Y004400D01*
X011835Y004301D02*
X015475Y004301D01*
X015573Y004203D02*
X011732Y004203D01*
X010628Y004104D02*
X015572Y004104D01*
X015253Y003217D02*
X007234Y003217D01*
X007234Y003119D02*
X015121Y003119D01*
X015084Y003020D02*
X007225Y003020D01*
X007185Y002922D02*
X015084Y002922D01*
X015084Y002823D02*
X012908Y002823D01*
X013066Y002725D02*
X015084Y002725D01*
X015084Y002626D02*
X013165Y002626D01*
X013217Y002527D02*
X015084Y002527D01*
X015084Y002429D02*
X013258Y002429D01*
X013279Y002330D02*
X015084Y002330D01*
X015104Y002232D02*
X013279Y002232D01*
X013279Y002133D02*
X015177Y002133D01*
X015373Y002035D02*
X013239Y002035D01*
X013198Y001936D02*
X015276Y001936D01*
X015219Y001838D02*
X013118Y001838D01*
X013020Y001739D02*
X015191Y001739D01*
X015640Y001641D02*
X012795Y001641D01*
X012153Y002626D02*
X006884Y002626D01*
X007042Y002725D02*
X012252Y002725D01*
X012410Y002823D02*
X007140Y002823D01*
X005678Y002823D02*
X005640Y002823D01*
X005640Y002725D02*
X005678Y002725D01*
X005315Y004301D02*
X004158Y004301D01*
X004118Y004400D02*
X005216Y004400D01*
X002382Y004597D02*
X001329Y004597D01*
X001329Y004695D02*
X002242Y004695D01*
X002143Y004794D02*
X001329Y004794D01*
X001329Y004892D02*
X002097Y004892D01*
X002056Y004991D02*
X001329Y004991D01*
X001329Y005090D02*
X002039Y005090D01*
X002039Y005188D02*
X001329Y005188D01*
X001329Y005287D02*
X002042Y005287D01*
X002083Y005385D02*
X001329Y005385D01*
X001329Y005484D02*
X002124Y005484D01*
X002209Y005582D02*
X001329Y005582D01*
X001329Y005681D02*
X002256Y005681D01*
X002158Y005779D02*
X001329Y005779D01*
X001329Y005878D02*
X002103Y005878D01*
X002062Y005976D02*
X001329Y005976D01*
X001329Y006075D02*
X002039Y006075D01*
X002039Y006174D02*
X001329Y006174D01*
X001329Y006272D02*
X002039Y006272D01*
X002077Y006371D02*
X001329Y006371D01*
X001329Y006469D02*
X002118Y006469D01*
X002195Y006568D02*
X001329Y006568D01*
X001329Y006666D02*
X002293Y006666D01*
X004909Y007750D02*
X006936Y007750D01*
X007034Y007849D02*
X004909Y007849D01*
X004909Y007947D02*
X007133Y007947D01*
X007231Y008046D02*
X004909Y008046D01*
X004909Y008144D02*
X007330Y008144D01*
X007429Y008243D02*
X004909Y008243D01*
X004909Y008341D02*
X007443Y008341D01*
X007394Y008440D02*
X004891Y008440D01*
X004834Y008539D02*
X007354Y008539D01*
X007349Y008637D02*
X006911Y008637D01*
X007053Y008736D02*
X007349Y008736D01*
X007380Y008834D02*
X007148Y008834D01*
X007189Y008933D02*
X007420Y008933D01*
X007506Y009031D02*
X007230Y009031D01*
X007234Y009130D02*
X007640Y009130D01*
X007556Y009228D02*
X007234Y009228D01*
X007210Y009327D02*
X007458Y009327D01*
X007400Y009425D02*
X007169Y009425D01*
X007103Y009524D02*
X007360Y009524D01*
X007349Y009623D02*
X007005Y009623D01*
X006795Y009721D02*
X007349Y009721D01*
X007654Y010287D02*
X007599Y010327D01*
X007551Y010375D01*
X007511Y010430D01*
X007481Y010490D01*
X007460Y010554D01*
X007449Y010621D01*
X007449Y010625D01*
X008129Y010625D01*
X008189Y010625D01*
X008189Y010225D01*
X008473Y010225D01*
X008540Y010236D01*
X008604Y010257D01*
X008664Y010287D01*
X008719Y010327D01*
X008767Y010375D01*
X008807Y010430D01*
X008838Y010490D01*
X008858Y010554D01*
X008869Y010621D01*
X008869Y010625D01*
X008189Y010625D01*
X008189Y010685D01*
X008869Y010685D01*
X008869Y010689D01*
X008858Y010756D01*
X008838Y010820D01*
X008807Y010880D01*
X008767Y010935D01*
X008719Y010983D01*
X008664Y011023D01*
X008604Y011054D01*
X008540Y011074D01*
X008473Y011085D01*
X008189Y011085D01*
X008189Y010685D01*
X008129Y010685D01*
X008129Y010625D01*
X008129Y010225D01*
X007845Y010225D01*
X007778Y010236D01*
X007714Y010257D01*
X007654Y010287D01*
X007619Y010312D02*
X006988Y010312D01*
X007068Y010411D02*
X007525Y010411D01*
X007474Y010509D02*
X007111Y010509D01*
X007132Y010608D02*
X007451Y010608D01*
X007449Y010685D02*
X008129Y010685D01*
X008129Y011085D01*
X007845Y011085D01*
X007778Y011074D01*
X007714Y011054D01*
X007654Y011023D01*
X007599Y010983D01*
X007551Y010935D01*
X007511Y010880D01*
X007481Y010820D01*
X007460Y010756D01*
X007449Y010689D01*
X007449Y010685D01*
X007452Y010707D02*
X007132Y010707D01*
X007110Y010805D02*
X007476Y010805D01*
X007528Y010904D02*
X007066Y010904D01*
X006984Y011002D02*
X007625Y011002D01*
X007774Y011125D02*
X007579Y011206D01*
X007430Y011355D01*
X007349Y011550D01*
X007349Y011761D01*
X007430Y011955D01*
X007579Y012104D01*
X007701Y012155D01*
X007579Y012206D01*
X007430Y012355D01*
X007349Y012550D01*
X007349Y012761D01*
X007430Y012955D01*
X007579Y013104D01*
X007701Y013155D01*
X007579Y013206D01*
X007430Y013355D01*
X007349Y013550D01*
X007349Y013761D01*
X007430Y013955D01*
X007579Y014104D01*
X007701Y014155D01*
X007579Y014206D01*
X007430Y014355D01*
X007349Y014550D01*
X007279Y014550D01*
X007279Y014532D02*
X007279Y014778D01*
X007268Y014805D01*
X007367Y014905D01*
X007409Y014905D01*
X007349Y014761D01*
X007349Y014550D01*
X007279Y014532D02*
X007185Y014304D01*
X007010Y014129D01*
X006782Y014035D01*
X006536Y014035D01*
X006308Y014129D01*
X006159Y014278D01*
X006010Y014129D01*
X005782Y014035D01*
X005536Y014035D01*
X005308Y014129D01*
X005133Y014304D01*
X005039Y014532D01*
X005039Y014778D01*
X005133Y015006D01*
X005308Y015181D01*
X005536Y015275D01*
X005782Y015275D01*
X006010Y015181D01*
X006159Y015032D01*
X006308Y015181D01*
X006536Y015275D01*
X006782Y015275D01*
X006838Y015252D01*
X007063Y015478D01*
X007177Y015525D01*
X007301Y015525D01*
X007359Y015525D01*
X007349Y015550D01*
X007349Y015761D01*
X007430Y015955D01*
X007579Y016104D01*
X007701Y016155D01*
X007579Y016206D01*
X007430Y016355D01*
X007349Y016550D01*
X007349Y016761D01*
X007430Y016955D01*
X007579Y017104D01*
X007701Y017155D01*
X007579Y017206D01*
X007430Y017355D01*
X007349Y017550D01*
X007349Y017761D01*
X007430Y017955D01*
X007579Y018104D01*
X007774Y018185D01*
X008544Y018185D01*
X008739Y018104D01*
X008888Y017955D01*
X008969Y017761D01*
X008969Y017550D01*
X008888Y017355D01*
X008739Y017206D01*
X008617Y017155D01*
X008739Y017104D01*
X008888Y016955D01*
X008969Y016761D01*
X008969Y016550D01*
X008888Y016355D01*
X008739Y016206D01*
X008617Y016155D01*
X008739Y016104D01*
X008888Y015955D01*
X008969Y015761D01*
X008969Y015550D01*
X008888Y015355D01*
X008853Y015320D01*
X008860Y015312D01*
X008984Y015437D01*
X008922Y015437D01*
X008984Y015437D02*
X009150Y015505D01*
X009329Y015505D01*
X009494Y015437D01*
X009582Y015437D01*
X009538Y015392D02*
X009494Y015437D01*
X009538Y015392D02*
X010465Y016320D01*
X010430Y016355D01*
X010351Y016545D01*
X009776Y017119D01*
X009729Y017233D01*
X009729Y017357D01*
X009729Y019073D01*
X009729Y019197D01*
X009776Y019311D01*
X010011Y019545D01*
X009808Y019629D01*
X009633Y019804D01*
X009539Y020032D01*
X009539Y020278D01*
X009633Y020506D01*
X009808Y020681D01*
X010036Y020775D01*
X010282Y020775D01*
X010510Y020681D01*
X010609Y020582D01*
X010609Y020993D01*
X010609Y021117D01*
X010656Y021231D01*
X012132Y022707D01*
X012119Y022738D01*
X012010Y022629D01*
X011782Y022535D01*
X011536Y022535D01*
X011308Y022629D01*
X011133Y022804D01*
X011039Y023032D01*
X011039Y023278D01*
X011133Y023506D01*
X011308Y023681D01*
X011536Y023775D01*
X011782Y023775D01*
X012010Y023681D01*
X012185Y023506D01*
X012199Y023472D01*
X012308Y023581D01*
X012536Y023675D01*
X012782Y023675D01*
X013010Y023581D01*
X013119Y023472D01*
X013133Y023506D01*
X013308Y023681D01*
X013536Y023775D01*
X013782Y023775D01*
X014010Y023681D01*
X014185Y023506D01*
X014243Y023366D01*
X014262Y023394D01*
X014320Y023452D01*
X014386Y023500D01*
X014459Y023537D01*
X014537Y023562D01*
X014609Y023574D01*
X014609Y023105D01*
X014709Y023105D01*
X014709Y023574D01*
X014781Y023562D01*
X014859Y023537D01*
X014932Y023500D01*
X014998Y023452D01*
X015056Y023394D01*
X015076Y023366D01*
X015133Y023506D01*
X015308Y023681D01*
X015536Y023775D01*
X015782Y023775D01*
X016010Y023681D01*
X016185Y023506D01*
X016199Y023472D01*
X016308Y023581D01*
X016536Y023675D01*
X016782Y023675D01*
X017010Y023581D01*
X017185Y023406D01*
X017279Y023178D01*
X017279Y022932D01*
X017185Y022704D01*
X017010Y022529D01*
X016782Y022435D01*
X016536Y022435D01*
X016308Y022529D01*
X016133Y022704D01*
X016119Y022738D01*
X016097Y022716D01*
X016487Y022325D01*
X022191Y022325D01*
X022182Y022329D01*
X022182Y022329D01*
X021928Y022542D01*
X021928Y022542D01*
X021762Y022829D01*
X021705Y023155D01*
X021705Y023155D01*
X021762Y023482D01*
X021762Y023482D01*
X021928Y023769D01*
X021928Y023769D01*
X021928Y023769D01*
X022182Y023982D01*
X022182Y023982D01*
X022493Y024095D01*
X022493Y024095D01*
X022572Y024095D01*
X022656Y024095D01*
X022659Y024095D01*
X022746Y024095D01*
X022825Y024095D01*
X022825Y024095D01*
X023136Y023982D01*
X023136Y023982D01*
X023390Y023769D01*
X023390Y023769D01*
X023556Y023482D01*
X023556Y023482D01*
X023614Y023155D01*
X023614Y023155D01*
X023556Y022829D01*
X023556Y022829D01*
X023390Y022542D01*
X023390Y022542D01*
X023390Y022542D01*
X023136Y022329D01*
X023136Y022329D01*
X022825Y022215D01*
X022825Y022215D01*
X022659Y022215D01*
X022572Y022215D01*
X022517Y022215D01*
X022567Y022165D01*
X023511Y022165D01*
X024559Y023213D01*
X024459Y023453D01*
X024459Y023831D01*
X024604Y024180D01*
X024871Y024447D01*
X024952Y024481D01*
X001329Y024481D01*
X001329Y024404D02*
X024827Y024404D01*
X024729Y024306D02*
X001329Y024306D01*
X001329Y024207D02*
X004489Y024207D01*
X004545Y024230D02*
X004333Y024143D01*
X004172Y023981D01*
X004084Y023769D01*
X004084Y023541D01*
X004172Y023329D01*
X004333Y023168D01*
X004364Y023155D01*
X004333Y023143D01*
X004172Y022981D01*
X004084Y022769D01*
X004084Y022541D01*
X004172Y022329D01*
X004333Y022168D01*
X004545Y022080D01*
X004773Y022080D01*
X004985Y022168D01*
X005146Y022329D01*
X005234Y022541D01*
X005234Y022769D01*
X005146Y022981D01*
X004985Y023143D01*
X004954Y023155D01*
X004985Y023168D01*
X005146Y023329D01*
X005234Y023541D01*
X005234Y023769D01*
X005146Y023981D01*
X004985Y024143D01*
X004773Y024230D01*
X004545Y024230D01*
X004299Y024108D02*
X001329Y024108D01*
X001329Y024010D02*
X002259Y024010D01*
X002182Y023982D02*
X002493Y024095D01*
X002493Y024095D01*
X002659Y024095D01*
X002746Y024095D01*
X002825Y024095D01*
X002825Y024095D01*
X003136Y023982D01*
X003136Y023982D01*
X003390Y023769D01*
X003390Y023769D01*
X003556Y023482D01*
X003556Y023482D01*
X003614Y023155D01*
X003614Y023155D01*
X003556Y022829D01*
X003556Y022829D01*
X003390Y022542D01*
X003390Y022542D01*
X003390Y022542D01*
X003136Y022329D01*
X003136Y022329D01*
X002825Y022215D01*
X002825Y022215D01*
X002659Y022215D01*
X002572Y022215D01*
X002493Y022215D01*
X002493Y022215D01*
X002182Y022329D01*
X002182Y022329D01*
X001928Y022542D01*
X001928Y022542D01*
X001762Y022829D01*
X001762Y022829D01*
X001705Y023155D01*
X001705Y023155D01*
X001762Y023482D01*
X001762Y023482D01*
X001928Y023769D01*
X001928Y023769D01*
X001928Y023769D01*
X002182Y023982D01*
X002182Y023982D01*
X002098Y023911D02*
X001329Y023911D01*
X001329Y023813D02*
X001981Y023813D01*
X001897Y023714D02*
X001329Y023714D01*
X001329Y023616D02*
X001840Y023616D01*
X001783Y023517D02*
X001329Y023517D01*
X001329Y023419D02*
X001751Y023419D01*
X001734Y023320D02*
X001329Y023320D01*
X001329Y023222D02*
X001716Y023222D01*
X001710Y023123D02*
X001329Y023123D01*
X001329Y023024D02*
X001728Y023024D01*
X001745Y022926D02*
X001329Y022926D01*
X001329Y022827D02*
X001763Y022827D01*
X001820Y022729D02*
X001329Y022729D01*
X001329Y022630D02*
X001877Y022630D01*
X001940Y022532D02*
X001329Y022532D01*
X001329Y022433D02*
X002057Y022433D01*
X002174Y022335D02*
X001329Y022335D01*
X001329Y022236D02*
X002436Y022236D01*
X002882Y022236D02*
X004265Y022236D01*
X004169Y022335D02*
X003144Y022335D01*
X003261Y022433D02*
X004129Y022433D01*
X004088Y022532D02*
X003378Y022532D01*
X003441Y022630D02*
X004084Y022630D01*
X004084Y022729D02*
X003498Y022729D01*
X003555Y022827D02*
X004108Y022827D01*
X004149Y022926D02*
X003573Y022926D01*
X003590Y023024D02*
X004215Y023024D01*
X004314Y023123D02*
X003608Y023123D01*
X003602Y023222D02*
X004279Y023222D01*
X004181Y023320D02*
X003584Y023320D01*
X003567Y023419D02*
X004135Y023419D01*
X004094Y023517D02*
X003535Y023517D01*
X003478Y023616D02*
X004084Y023616D01*
X004084Y023714D02*
X003422Y023714D01*
X003338Y023813D02*
X004102Y023813D01*
X004143Y023911D02*
X003220Y023911D01*
X003059Y024010D02*
X004201Y024010D01*
X004829Y024207D02*
X024630Y024207D01*
X024574Y024108D02*
X005019Y024108D01*
X005117Y024010D02*
X006489Y024010D01*
X006522Y024015D02*
X006449Y024004D01*
X006379Y023981D01*
X006313Y023947D01*
X006253Y023904D01*
X006201Y023851D01*
X006157Y023791D01*
X006124Y023726D01*
X006101Y023655D01*
X006091Y023595D01*
X006829Y023595D01*
X006829Y023495D01*
X006929Y023495D01*
X006929Y023075D01*
X007236Y023075D01*
X007309Y023087D01*
X007379Y023110D01*
X007445Y023143D01*
X007505Y023187D01*
X007558Y023239D01*
X007601Y023299D01*
X007635Y023365D01*
X007657Y023435D01*
X007667Y023495D01*
X006929Y023495D01*
X006929Y023595D01*
X007667Y023595D01*
X007657Y023655D01*
X007635Y023726D01*
X007601Y023791D01*
X007558Y023851D01*
X007505Y023904D01*
X007445Y023947D01*
X007379Y023981D01*
X007309Y024004D01*
X007236Y024015D01*
X006929Y024015D01*
X006929Y023595D01*
X006829Y023595D01*
X006829Y024015D01*
X006522Y024015D01*
X006264Y023911D02*
X005175Y023911D01*
X005216Y023813D02*
X006173Y023813D01*
X006120Y023714D02*
X005234Y023714D01*
X005234Y023616D02*
X006094Y023616D01*
X006091Y023495D02*
X006101Y023435D01*
X006124Y023365D01*
X006157Y023299D01*
X006201Y023239D01*
X006253Y023187D01*
X006313Y023143D01*
X006379Y023110D01*
X006449Y023087D01*
X006522Y023075D01*
X006829Y023075D01*
X006829Y023495D01*
X006091Y023495D01*
X006106Y023419D02*
X005183Y023419D01*
X005224Y023517D02*
X006829Y023517D01*
X006829Y023419D02*
X006929Y023419D01*
X006929Y023517D02*
X009389Y023517D01*
X009389Y023495D02*
X008651Y023495D01*
X008661Y023435D01*
X008684Y023365D01*
X008717Y023299D01*
X008761Y023239D01*
X008813Y023187D01*
X008873Y023143D01*
X008939Y023110D01*
X009009Y023087D01*
X009082Y023075D01*
X009389Y023075D01*
X009389Y023495D01*
X009489Y023495D01*
X009489Y023075D01*
X009796Y023075D01*
X009869Y023087D01*
X009939Y023110D01*
X010005Y023143D01*
X010065Y023187D01*
X010118Y023239D01*
X010161Y023299D01*
X010195Y023365D01*
X010217Y023435D01*
X010227Y023495D01*
X009489Y023495D01*
X009489Y023595D01*
X010227Y023595D01*
X010217Y023655D01*
X010195Y023726D01*
X010161Y023791D01*
X010118Y023851D01*
X010065Y023904D01*
X010005Y023947D01*
X009939Y023981D01*
X009869Y024004D01*
X009796Y024015D01*
X009489Y024015D01*
X009489Y023595D01*
X009389Y023595D01*
X009389Y023495D01*
X009389Y023419D02*
X009489Y023419D01*
X009489Y023517D02*
X011144Y023517D01*
X011097Y023419D02*
X010212Y023419D01*
X010172Y023320D02*
X011056Y023320D01*
X011039Y023222D02*
X010100Y023222D01*
X009966Y023123D02*
X011039Y023123D01*
X011042Y023024D02*
X005103Y023024D01*
X005169Y022926D02*
X011083Y022926D01*
X011124Y022827D02*
X005210Y022827D01*
X005234Y022729D02*
X011209Y022729D01*
X011307Y022630D02*
X005234Y022630D01*
X005230Y022532D02*
X011957Y022532D01*
X012011Y022630D02*
X012056Y022630D01*
X012110Y022729D02*
X012123Y022729D01*
X011859Y022433D02*
X005189Y022433D01*
X005149Y022335D02*
X006445Y022335D01*
X006446Y022335D02*
X006236Y022248D01*
X006076Y022088D01*
X005989Y021879D01*
X005989Y021652D01*
X006076Y021442D01*
X006236Y021282D01*
X006446Y021195D01*
X007312Y021195D01*
X007522Y021282D01*
X007682Y021442D01*
X007769Y021652D01*
X007769Y021879D01*
X007682Y022088D01*
X007522Y022248D01*
X007312Y022335D01*
X006446Y022335D01*
X006224Y022236D02*
X005053Y022236D01*
X004912Y022138D02*
X006125Y022138D01*
X006056Y022039D02*
X001329Y022039D01*
X001329Y022138D02*
X004406Y022138D01*
X004010Y021681D02*
X003782Y021775D01*
X003536Y021775D01*
X003308Y021681D01*
X003133Y021506D01*
X003039Y021278D01*
X003039Y021032D01*
X003133Y020804D01*
X003282Y020655D01*
X003133Y020506D01*
X003039Y020278D01*
X003039Y020032D01*
X003133Y019804D01*
X003282Y019655D01*
X003133Y019506D01*
X003039Y019278D01*
X003039Y019032D01*
X003133Y018804D01*
X003282Y018655D01*
X003133Y018506D01*
X003039Y018278D01*
X003039Y018032D01*
X003133Y017804D01*
X003308Y017629D01*
X003384Y017598D01*
X003320Y017552D01*
X003262Y017494D01*
X003214Y017428D01*
X003177Y017355D01*
X003152Y017277D01*
X003140Y017205D01*
X003609Y017205D01*
X003609Y017105D01*
X003709Y017105D01*
X003709Y016674D01*
X003709Y016205D01*
X004178Y016205D01*
X004166Y016277D01*
X004141Y016355D01*
X004104Y016428D01*
X004056Y016494D01*
X003998Y016552D01*
X003932Y016600D01*
X003859Y016637D01*
X003803Y016655D01*
X003859Y016673D01*
X003932Y016710D01*
X003998Y016758D01*
X004056Y016816D01*
X005122Y016816D01*
X005023Y016718D02*
X003942Y016718D01*
X003894Y016619D02*
X004925Y016619D01*
X004826Y016521D02*
X004029Y016521D01*
X004107Y016422D02*
X004728Y016422D01*
X004629Y016324D02*
X004151Y016324D01*
X004174Y016225D02*
X004531Y016225D01*
X004432Y016126D02*
X003709Y016126D01*
X003709Y016105D02*
X003709Y016205D01*
X003609Y016205D01*
X003609Y016105D01*
X003709Y016105D01*
X003709Y015637D01*
X003781Y015648D01*
X003859Y015673D01*
X003932Y015710D01*
X003998Y015758D01*
X004056Y015816D01*
X004104Y015883D01*
X004141Y015955D01*
X004166Y016033D01*
X004178Y016105D01*
X003709Y016105D01*
X003709Y016028D02*
X003609Y016028D01*
X003609Y016105D02*
X003609Y015637D01*
X003537Y015648D01*
X003478Y015667D01*
X003504Y015605D01*
X003911Y015605D01*
X005222Y016916D01*
X005098Y017040D01*
X005029Y017206D01*
X005029Y017385D01*
X005053Y017443D01*
X004423Y018072D01*
X004336Y018159D01*
X004289Y018273D01*
X004289Y019407D01*
X004038Y019658D01*
X004036Y019655D01*
X004185Y019506D01*
X004279Y019278D01*
X004279Y019032D01*
X004185Y018804D01*
X004036Y018655D01*
X004185Y018506D01*
X004279Y018278D01*
X004279Y018032D01*
X004185Y017804D01*
X004010Y017629D01*
X003934Y017598D01*
X003998Y017552D01*
X004056Y017494D01*
X004104Y017428D01*
X004141Y017355D01*
X004166Y017277D01*
X004178Y017205D01*
X003709Y017205D01*
X003709Y017105D01*
X004178Y017105D01*
X004166Y017033D01*
X004141Y016955D01*
X004104Y016883D01*
X004056Y016816D01*
X004120Y016915D02*
X005220Y016915D01*
X005124Y017013D02*
X004160Y017013D01*
X004177Y017210D02*
X005029Y017210D01*
X005029Y017309D02*
X004156Y017309D01*
X004114Y017407D02*
X005039Y017407D01*
X004990Y017506D02*
X004044Y017506D01*
X003950Y017605D02*
X004891Y017605D01*
X004793Y017703D02*
X004084Y017703D01*
X004182Y017802D02*
X004694Y017802D01*
X004596Y017900D02*
X004224Y017900D01*
X004265Y017999D02*
X004497Y017999D01*
X004398Y018097D02*
X004279Y018097D01*
X004279Y018196D02*
X004321Y018196D01*
X004289Y018294D02*
X004272Y018294D01*
X004289Y018393D02*
X004232Y018393D01*
X004191Y018491D02*
X004289Y018491D01*
X004289Y018590D02*
X004101Y018590D01*
X004069Y018689D02*
X004289Y018689D01*
X004289Y018787D02*
X004168Y018787D01*
X004218Y018886D02*
X004289Y018886D01*
X004289Y018984D02*
X004259Y018984D01*
X004279Y019083D02*
X004289Y019083D01*
X004279Y019181D02*
X004289Y019181D01*
X004278Y019280D02*
X004289Y019280D01*
X004289Y019378D02*
X004238Y019378D01*
X004219Y019477D02*
X004197Y019477D01*
X004120Y019575D02*
X004116Y019575D01*
X004603Y019970D02*
X005565Y019970D01*
X005539Y020032D02*
X005633Y019804D01*
X005808Y019629D01*
X006036Y019535D01*
X006282Y019535D01*
X006510Y019629D01*
X006685Y019804D01*
X006779Y020032D01*
X006779Y020278D01*
X006685Y020506D01*
X006510Y020681D01*
X006282Y020775D01*
X006036Y020775D01*
X005808Y020681D01*
X005633Y020506D01*
X005539Y020278D01*
X005539Y020032D01*
X005539Y020068D02*
X004504Y020068D01*
X004406Y020167D02*
X005539Y020167D01*
X005539Y020265D02*
X004307Y020265D01*
X004302Y020271D02*
X004268Y020304D01*
X004185Y020506D01*
X004036Y020655D01*
X004185Y020804D01*
X004279Y021032D01*
X004279Y021278D01*
X004185Y021506D01*
X004010Y021681D01*
X004046Y021645D02*
X005992Y021645D01*
X005989Y021743D02*
X003859Y021743D01*
X004145Y021546D02*
X006033Y021546D01*
X006074Y021448D02*
X004209Y021448D01*
X004250Y021349D02*
X006169Y021349D01*
X006311Y021251D02*
X004279Y021251D01*
X004279Y021152D02*
X010624Y021152D01*
X010609Y021054D02*
X004279Y021054D01*
X004247Y020955D02*
X010609Y020955D01*
X010609Y020856D02*
X004206Y020856D01*
X004139Y020758D02*
X005994Y020758D01*
X005787Y020659D02*
X004040Y020659D01*
X004130Y020561D02*
X005688Y020561D01*
X005615Y020462D02*
X004203Y020462D01*
X004244Y020364D02*
X005574Y020364D01*
X005606Y019871D02*
X004701Y019871D01*
X004800Y019773D02*
X005665Y019773D01*
X005763Y019674D02*
X004877Y019674D01*
X004862Y019711D02*
X004302Y020271D01*
X004862Y019711D02*
X004909Y019597D01*
X004909Y019473D01*
X004909Y018464D01*
X005669Y017703D01*
X005734Y017677D01*
X005858Y017552D01*
X006369Y018064D01*
X006369Y018104D01*
X006308Y018129D01*
X006159Y018278D01*
X006010Y018129D01*
X005782Y018035D01*
X005536Y018035D01*
X005308Y018129D01*
X005133Y018304D01*
X005039Y018532D01*
X005039Y018778D01*
X005133Y019006D01*
X005308Y019181D01*
X005536Y019275D01*
X005782Y019275D01*
X006010Y019181D01*
X006159Y019032D01*
X006308Y019181D01*
X006536Y019275D01*
X006782Y019275D01*
X007010Y019181D01*
X007185Y019006D01*
X007279Y018778D01*
X007279Y018532D01*
X007185Y018304D01*
X007010Y018129D01*
X006989Y018121D01*
X006989Y017873D01*
X006942Y017759D01*
X006855Y017672D01*
X004215Y015032D01*
X004101Y014985D01*
X003977Y014985D01*
X003177Y014985D01*
X003129Y015005D01*
X002990Y015005D01*
X002824Y015074D01*
X002698Y015200D01*
X002629Y015366D01*
X002629Y015545D01*
X002698Y015710D01*
X002824Y015837D01*
X002990Y015905D01*
X003169Y015905D01*
X003212Y015887D01*
X003177Y015955D01*
X003152Y016033D01*
X003140Y016105D01*
X003609Y016105D01*
X003609Y016126D02*
X001329Y016126D01*
X001329Y016028D02*
X003154Y016028D01*
X003190Y015929D02*
X001329Y015929D01*
X001329Y015831D02*
X002818Y015831D01*
X002720Y015732D02*
X001329Y015732D01*
X001329Y015634D02*
X002666Y015634D01*
X002629Y015535D02*
X001329Y015535D01*
X001329Y015437D02*
X002629Y015437D01*
X002640Y015338D02*
X001329Y015338D01*
X001329Y015240D02*
X002681Y015240D01*
X002757Y015141D02*
X001329Y015141D01*
X001329Y015042D02*
X002899Y015042D01*
X003492Y015634D02*
X003939Y015634D01*
X003962Y015732D02*
X004038Y015732D01*
X004066Y015831D02*
X004136Y015831D01*
X004128Y015929D02*
X004235Y015929D01*
X004164Y016028D02*
X004333Y016028D01*
X004816Y015634D02*
X007349Y015634D01*
X007349Y015732D02*
X004915Y015732D01*
X005013Y015831D02*
X007378Y015831D01*
X007419Y015929D02*
X005112Y015929D01*
X005210Y016028D02*
X007502Y016028D01*
X007632Y016126D02*
X005309Y016126D01*
X005407Y016225D02*
X007560Y016225D01*
X007461Y016324D02*
X005506Y016324D01*
X005604Y016422D02*
X007402Y016422D01*
X007361Y016521D02*
X005703Y016521D01*
X005801Y016619D02*
X007349Y016619D01*
X007349Y016718D02*
X005900Y016718D01*
X005999Y016816D02*
X007372Y016816D01*
X007413Y016915D02*
X006097Y016915D01*
X006196Y017013D02*
X007488Y017013D01*
X007597Y017112D02*
X006294Y017112D01*
X006393Y017210D02*
X007574Y017210D01*
X007476Y017309D02*
X006491Y017309D01*
X006590Y017407D02*
X007408Y017407D01*
X007367Y017506D02*
X006688Y017506D01*
X006787Y017605D02*
X007349Y017605D01*
X007349Y017703D02*
X006885Y017703D01*
X006959Y017802D02*
X007366Y017802D01*
X007407Y017900D02*
X006989Y017900D01*
X006989Y017999D02*
X007473Y017999D01*
X007572Y018097D02*
X006989Y018097D01*
X007077Y018196D02*
X009729Y018196D01*
X009729Y018294D02*
X007175Y018294D01*
X007221Y018393D02*
X009729Y018393D01*
X009729Y018491D02*
X007262Y018491D01*
X007279Y018590D02*
X009729Y018590D01*
X009729Y018689D02*
X007279Y018689D01*
X007275Y018787D02*
X009729Y018787D01*
X009729Y018886D02*
X007235Y018886D01*
X007194Y018984D02*
X009729Y018984D01*
X009729Y019083D02*
X007108Y019083D01*
X007009Y019181D02*
X009729Y019181D01*
X009763Y019280D02*
X004909Y019280D01*
X004909Y019378D02*
X009844Y019378D01*
X009942Y019477D02*
X004909Y019477D01*
X004909Y019575D02*
X005938Y019575D01*
X006009Y019181D02*
X006309Y019181D01*
X006210Y019083D02*
X006108Y019083D01*
X006380Y019575D02*
X009938Y019575D01*
X009763Y019674D02*
X006555Y019674D01*
X006653Y019773D02*
X009665Y019773D01*
X009606Y019871D02*
X006712Y019871D01*
X006753Y019970D02*
X009565Y019970D01*
X009539Y020068D02*
X006779Y020068D01*
X006779Y020167D02*
X009539Y020167D01*
X009539Y020265D02*
X006779Y020265D01*
X006744Y020364D02*
X009574Y020364D01*
X009615Y020462D02*
X006703Y020462D01*
X006630Y020561D02*
X009688Y020561D01*
X009787Y020659D02*
X006532Y020659D01*
X006324Y020758D02*
X009994Y020758D01*
X010324Y020758D02*
X010609Y020758D01*
X010609Y020659D02*
X010532Y020659D01*
X010676Y021251D02*
X010007Y021251D01*
X010082Y021282D02*
X009872Y021195D01*
X009006Y021195D01*
X008796Y021282D01*
X008636Y021442D01*
X008549Y021652D01*
X008549Y021879D01*
X008636Y022088D01*
X008796Y022248D01*
X009006Y022335D01*
X009872Y022335D01*
X010082Y022248D01*
X010242Y022088D01*
X010329Y021879D01*
X010329Y021652D01*
X010242Y021442D01*
X010082Y021282D01*
X010149Y021349D02*
X010775Y021349D01*
X010873Y021448D02*
X010245Y021448D01*
X010285Y021546D02*
X010972Y021546D01*
X011070Y021645D02*
X010326Y021645D01*
X010329Y021743D02*
X011169Y021743D01*
X011268Y021842D02*
X010329Y021842D01*
X010303Y021940D02*
X011366Y021940D01*
X011465Y022039D02*
X010263Y022039D01*
X010193Y022138D02*
X011563Y022138D01*
X011662Y022236D02*
X010094Y022236D01*
X009874Y022335D02*
X011760Y022335D01*
X012174Y023517D02*
X012244Y023517D01*
X012392Y023616D02*
X012075Y023616D01*
X011929Y023714D02*
X013389Y023714D01*
X013243Y023616D02*
X012926Y023616D01*
X013074Y023517D02*
X013144Y023517D01*
X013929Y023714D02*
X015389Y023714D01*
X015243Y023616D02*
X014075Y023616D01*
X014174Y023517D02*
X014421Y023517D01*
X014287Y023419D02*
X014221Y023419D01*
X014609Y023419D02*
X014709Y023419D01*
X014709Y023517D02*
X014609Y023517D01*
X014609Y023320D02*
X014709Y023320D01*
X014709Y023222D02*
X014609Y023222D01*
X014609Y023123D02*
X014709Y023123D01*
X014709Y023005D02*
X014609Y023005D01*
X014609Y022537D01*
X014537Y022548D01*
X014459Y022573D01*
X014386Y022610D01*
X014320Y022658D01*
X014262Y022716D01*
X014214Y022783D01*
X014193Y022824D01*
X014185Y022804D01*
X014010Y022629D01*
X013949Y022604D01*
X013949Y022433D01*
X015503Y022433D01*
X015456Y022479D02*
X015851Y022085D01*
X015097Y022085D01*
X014983Y022038D01*
X014896Y021951D01*
X013936Y020991D01*
X013889Y020877D01*
X013889Y020753D01*
X013889Y018944D01*
X011892Y016946D01*
X011888Y016955D01*
X011739Y017104D01*
X011617Y017155D01*
X011739Y017206D01*
X011888Y017355D01*
X011969Y017550D01*
X011969Y017761D01*
X011888Y017955D01*
X011739Y018104D01*
X011544Y018185D01*
X011469Y018185D01*
X011469Y019887D01*
X013815Y022232D01*
X013902Y022319D01*
X013949Y022433D01*
X013949Y022532D02*
X015435Y022532D01*
X015456Y022479D02*
X015412Y022586D01*
X015308Y022629D01*
X015133Y022804D01*
X015125Y022824D01*
X015104Y022783D01*
X015056Y022716D01*
X014998Y022658D01*
X014932Y022610D01*
X014859Y022573D01*
X014781Y022548D01*
X014709Y022537D01*
X014709Y023005D01*
X014709Y022926D02*
X014609Y022926D01*
X014609Y022827D02*
X014709Y022827D01*
X014709Y022729D02*
X014609Y022729D01*
X014609Y022630D02*
X014709Y022630D01*
X014959Y022630D02*
X015307Y022630D01*
X015209Y022729D02*
X015065Y022729D01*
X015601Y022335D02*
X013908Y022335D01*
X013818Y022236D02*
X015700Y022236D01*
X015798Y022138D02*
X013720Y022138D01*
X013621Y022039D02*
X014986Y022039D01*
X014886Y021940D02*
X013523Y021940D01*
X013424Y021842D02*
X014787Y021842D01*
X014689Y021743D02*
X013326Y021743D01*
X013227Y021645D02*
X014590Y021645D01*
X014492Y021546D02*
X013129Y021546D01*
X013030Y021448D02*
X014393Y021448D01*
X014295Y021349D02*
X012932Y021349D01*
X012833Y021251D02*
X014196Y021251D01*
X014098Y021152D02*
X012734Y021152D01*
X012636Y021054D02*
X013999Y021054D01*
X013921Y020955D02*
X012537Y020955D01*
X012439Y020856D02*
X013889Y020856D01*
X013889Y020758D02*
X012340Y020758D01*
X012242Y020659D02*
X013889Y020659D01*
X013889Y020561D02*
X012909Y020561D01*
X012908Y020561D02*
X012841Y020595D01*
X012770Y020618D01*
X012696Y020630D01*
X012678Y020630D01*
X012678Y020174D01*
X013134Y020174D01*
X013134Y020192D01*
X013122Y020266D01*
X013099Y020337D01*
X013065Y020404D01*
X013021Y020465D01*
X012968Y020517D01*
X012908Y020561D01*
X013023Y020462D02*
X013889Y020462D01*
X013889Y020364D02*
X013086Y020364D01*
X013123Y020265D02*
X013889Y020265D01*
X013889Y020167D02*
X012678Y020167D01*
X012678Y020174D02*
X012678Y020136D01*
X013134Y020136D01*
X013134Y020118D01*
X013122Y020044D01*
X013099Y019973D01*
X013065Y019906D01*
X013021Y019846D01*
X012968Y019793D01*
X012908Y019749D01*
X012871Y019730D01*
X013034Y019730D01*
X013126Y019692D01*
X013196Y019622D01*
X013234Y019530D01*
X013234Y018780D01*
X013196Y018689D01*
X013634Y018689D01*
X013733Y018787D02*
X013234Y018787D01*
X013234Y018886D02*
X013831Y018886D01*
X013889Y018984D02*
X013234Y018984D01*
X013234Y019083D02*
X013889Y019083D01*
X013889Y019181D02*
X013234Y019181D01*
X013234Y019280D02*
X013889Y019280D01*
X013889Y019378D02*
X013234Y019378D01*
X013234Y019477D02*
X013889Y019477D01*
X013889Y019575D02*
X013215Y019575D01*
X013144Y019674D02*
X013889Y019674D01*
X013889Y019773D02*
X012941Y019773D01*
X013040Y019871D02*
X013889Y019871D01*
X013889Y019970D02*
X013098Y019970D01*
X013126Y020068D02*
X013889Y020068D01*
X014509Y020068D02*
X014759Y020068D01*
X014833Y020143D02*
X014672Y019981D01*
X014584Y019769D01*
X014584Y019541D01*
X014672Y019329D01*
X014833Y019168D01*
X015045Y019080D01*
X015273Y019080D01*
X015485Y019168D01*
X015646Y019329D01*
X015734Y019541D01*
X015734Y019769D01*
X015646Y019981D01*
X015485Y020143D01*
X015324Y020209D01*
X015341Y020215D01*
X015408Y020249D01*
X015468Y020293D01*
X015521Y020346D01*
X015565Y020406D01*
X015599Y020473D01*
X015622Y020544D01*
X015629Y020587D01*
X015629Y020270D01*
X015710Y020075D01*
X015859Y019926D01*
X016054Y019845D01*
X016264Y019845D01*
X016459Y019926D01*
X016608Y020075D01*
X016659Y020197D01*
X016710Y020075D01*
X016859Y019926D01*
X017054Y019845D01*
X017264Y019845D01*
X017459Y019926D01*
X017608Y020075D01*
X017659Y020197D01*
X017710Y020075D01*
X017859Y019926D01*
X018054Y019845D01*
X018264Y019845D01*
X018459Y019926D01*
X018608Y020075D01*
X018689Y020270D01*
X018689Y021041D01*
X018608Y021235D01*
X018459Y021384D01*
X018264Y021465D01*
X018054Y021465D01*
X017859Y021384D01*
X017710Y021235D01*
X017659Y021113D01*
X017608Y021235D01*
X017459Y021384D01*
X017264Y021465D01*
X017054Y021465D01*
X016859Y021384D01*
X016710Y021235D01*
X016659Y021113D01*
X016608Y021235D01*
X016459Y021384D01*
X016264Y021465D01*
X016054Y021465D01*
X015859Y021384D01*
X015710Y021235D01*
X015629Y021041D01*
X015629Y020724D01*
X015622Y020766D01*
X015599Y020837D01*
X015565Y020904D01*
X015521Y020965D01*
X015468Y021017D01*
X015408Y021061D01*
X015341Y021095D01*
X015270Y021118D01*
X015196Y021130D01*
X015178Y021130D01*
X015178Y020674D01*
X015140Y020674D01*
X015140Y020636D01*
X014684Y020636D01*
X014684Y020618D01*
X014696Y020544D01*
X014719Y020473D01*
X014753Y020406D01*
X014797Y020346D01*
X014850Y020293D01*
X014910Y020249D01*
X014977Y020215D01*
X014994Y020209D01*
X014833Y020143D01*
X014892Y020167D02*
X014509Y020167D01*
X014509Y020265D02*
X014888Y020265D01*
X014784Y020364D02*
X014509Y020364D01*
X014509Y020462D02*
X014724Y020462D01*
X014693Y020561D02*
X014509Y020561D01*
X014509Y020659D02*
X015140Y020659D01*
X015140Y020674D02*
X014684Y020674D01*
X014684Y020692D01*
X014696Y020766D01*
X014719Y020837D01*
X014753Y020904D01*
X014797Y020965D01*
X014850Y021017D01*
X014910Y021061D01*
X014977Y021095D01*
X015048Y021118D01*
X015122Y021130D01*
X015140Y021130D01*
X015140Y020674D01*
X015140Y020758D02*
X015178Y020758D01*
X015178Y020856D02*
X015140Y020856D01*
X015140Y020955D02*
X015178Y020955D01*
X015178Y021054D02*
X015140Y021054D01*
X014974Y021152D02*
X015675Y021152D01*
X015634Y021054D02*
X015419Y021054D01*
X015528Y020955D02*
X015629Y020955D01*
X015629Y020856D02*
X015590Y020856D01*
X015624Y020758D02*
X015629Y020758D01*
X015625Y020561D02*
X015629Y020561D01*
X015629Y020462D02*
X015594Y020462D01*
X015629Y020364D02*
X015534Y020364D01*
X015631Y020265D02*
X015431Y020265D01*
X015426Y020167D02*
X015672Y020167D01*
X015716Y020068D02*
X015559Y020068D01*
X015651Y019970D02*
X015815Y019970D01*
X015692Y019871D02*
X015991Y019871D01*
X015733Y019773D02*
X020822Y019773D01*
X020775Y019871D02*
X018327Y019871D01*
X018503Y019970D02*
X019016Y019970D01*
X018994Y019977D02*
X019058Y019956D01*
X019125Y019945D01*
X019129Y019945D01*
X019129Y020625D01*
X019189Y020625D01*
X019189Y019945D01*
X019193Y019945D01*
X019260Y019956D01*
X019324Y019977D01*
X019384Y020007D01*
X019439Y020047D01*
X019487Y020095D01*
X019527Y020150D01*
X019558Y020210D01*
X019578Y020274D01*
X019589Y020341D01*
X019589Y020625D01*
X019189Y020625D01*
X019189Y020685D01*
X019589Y020685D01*
X019589Y020969D01*
X019578Y021036D01*
X019558Y021100D01*
X019527Y021160D01*
X019487Y021215D01*
X019439Y021263D01*
X019384Y021303D01*
X019324Y021334D01*
X019260Y021354D01*
X019193Y021365D01*
X019189Y021365D01*
X019189Y020685D01*
X019129Y020685D01*
X019129Y020625D01*
X018729Y020625D01*
X018729Y020341D01*
X018740Y020274D01*
X018761Y020210D01*
X018791Y020150D01*
X018831Y020095D01*
X018879Y020047D01*
X018934Y020007D01*
X018994Y019977D01*
X019129Y019970D02*
X019189Y019970D01*
X019189Y020068D02*
X019129Y020068D01*
X019129Y020167D02*
X019189Y020167D01*
X019189Y020265D02*
X019129Y020265D01*
X019129Y020364D02*
X019189Y020364D01*
X019189Y020462D02*
X019129Y020462D01*
X019129Y020561D02*
X019189Y020561D01*
X019189Y020659D02*
X020129Y020659D01*
X020129Y020685D02*
X020129Y020625D01*
X020189Y020625D01*
X020189Y019945D01*
X020193Y019945D01*
X020260Y019956D01*
X020324Y019977D01*
X020384Y020007D01*
X020439Y020047D01*
X020487Y020095D01*
X020527Y020150D01*
X020558Y020210D01*
X020578Y020274D01*
X020589Y020341D01*
X020589Y020625D01*
X020189Y020625D01*
X020189Y020685D01*
X020589Y020685D01*
X020589Y020969D01*
X020578Y021036D01*
X020558Y021100D01*
X020527Y021160D01*
X020487Y021215D01*
X020439Y021263D01*
X020384Y021303D01*
X020324Y021334D01*
X020260Y021354D01*
X020193Y021365D01*
X020189Y021365D01*
X020189Y020685D01*
X020129Y020685D01*
X019729Y020685D01*
X019729Y020969D01*
X019740Y021036D01*
X019761Y021100D01*
X019791Y021160D01*
X019831Y021215D01*
X019879Y021263D01*
X019934Y021303D01*
X019994Y021334D01*
X020058Y021354D01*
X020125Y021365D01*
X020129Y021365D01*
X020129Y020685D01*
X020129Y020625D02*
X019729Y020625D01*
X019729Y020341D01*
X019740Y020274D01*
X019761Y020210D01*
X019791Y020150D01*
X019831Y020095D01*
X019879Y020047D01*
X019934Y020007D01*
X019994Y019977D01*
X020058Y019956D01*
X020125Y019945D01*
X020129Y019945D01*
X020129Y020625D01*
X020129Y020561D02*
X020189Y020561D01*
X020189Y020659D02*
X020629Y020659D01*
X020629Y020561D02*
X020589Y020561D01*
X020589Y020462D02*
X020629Y020462D01*
X020629Y020364D02*
X020589Y020364D01*
X020575Y020265D02*
X020631Y020265D01*
X020672Y020167D02*
X020535Y020167D01*
X020460Y020068D02*
X020716Y020068D01*
X020749Y019970D02*
X020302Y019970D01*
X020189Y019970D02*
X020129Y019970D01*
X020129Y020068D02*
X020189Y020068D01*
X020189Y020167D02*
X020129Y020167D01*
X020129Y020265D02*
X020189Y020265D01*
X020189Y020364D02*
X020129Y020364D01*
X020129Y020462D02*
X020189Y020462D01*
X019729Y020462D02*
X019589Y020462D01*
X019589Y020364D02*
X019729Y020364D01*
X019743Y020265D02*
X019575Y020265D01*
X019535Y020167D02*
X019783Y020167D01*
X019858Y020068D02*
X019460Y020068D01*
X019302Y019970D02*
X020016Y019970D01*
X019729Y020561D02*
X019589Y020561D01*
X019589Y020758D02*
X019729Y020758D01*
X019729Y020856D02*
X019589Y020856D01*
X019589Y020955D02*
X019729Y020955D01*
X019745Y021054D02*
X019573Y021054D01*
X019531Y021152D02*
X019787Y021152D01*
X019866Y021251D02*
X019452Y021251D01*
X019276Y021349D02*
X020042Y021349D01*
X020129Y021349D02*
X020189Y021349D01*
X020276Y021349D02*
X020824Y021349D01*
X020725Y021251D02*
X020452Y021251D01*
X020531Y021152D02*
X020675Y021152D01*
X020634Y021054D02*
X020573Y021054D01*
X020589Y020955D02*
X020629Y020955D01*
X020629Y020856D02*
X020589Y020856D01*
X020589Y020758D02*
X020629Y020758D01*
X020189Y020758D02*
X020129Y020758D01*
X020129Y020856D02*
X020189Y020856D01*
X020189Y020955D02*
X020129Y020955D01*
X020129Y021054D02*
X020189Y021054D01*
X020189Y021152D02*
X020129Y021152D01*
X020129Y021251D02*
X020189Y021251D01*
X021012Y021448D02*
X018306Y021448D01*
X018494Y021349D02*
X019042Y021349D01*
X019058Y021354D02*
X018994Y021334D01*
X018934Y021303D01*
X018879Y021263D01*
X018831Y021215D01*
X018791Y021160D01*
X018761Y021100D01*
X018740Y021036D01*
X018729Y020969D01*
X018729Y020685D01*
X019129Y020685D01*
X019129Y021365D01*
X019125Y021365D01*
X019058Y021354D01*
X019129Y021349D02*
X019189Y021349D01*
X019189Y021251D02*
X019129Y021251D01*
X019129Y021152D02*
X019189Y021152D01*
X019189Y021054D02*
X019129Y021054D01*
X019129Y020955D02*
X019189Y020955D01*
X019189Y020856D02*
X019129Y020856D01*
X019129Y020758D02*
X019189Y020758D01*
X019129Y020659D02*
X018689Y020659D01*
X018689Y020561D02*
X018729Y020561D01*
X018729Y020462D02*
X018689Y020462D01*
X018689Y020364D02*
X018729Y020364D01*
X018743Y020265D02*
X018687Y020265D01*
X018646Y020167D02*
X018783Y020167D01*
X018858Y020068D02*
X018602Y020068D01*
X017991Y019871D02*
X017327Y019871D01*
X017503Y019970D02*
X017815Y019970D01*
X017716Y020068D02*
X017602Y020068D01*
X017646Y020167D02*
X017672Y020167D01*
X016991Y019871D02*
X016327Y019871D01*
X016503Y019970D02*
X016815Y019970D01*
X016716Y020068D02*
X016602Y020068D01*
X016646Y020167D02*
X016672Y020167D01*
X015734Y019674D02*
X020920Y019674D01*
X021019Y019575D02*
X015734Y019575D01*
X015708Y019477D02*
X021117Y019477D01*
X021216Y019378D02*
X015667Y019378D01*
X015597Y019280D02*
X021315Y019280D01*
X021413Y019181D02*
X015498Y019181D01*
X015280Y019083D02*
X021512Y019083D01*
X021671Y018984D02*
X014509Y018984D01*
X014509Y018886D02*
X024900Y018886D01*
X024785Y018787D02*
X014509Y018787D01*
X014482Y018689D02*
X024686Y018689D01*
X024597Y018590D02*
X014412Y018590D01*
X014314Y018491D02*
X024556Y018491D01*
X024515Y018393D02*
X023439Y018393D01*
X023549Y018294D02*
X024475Y018294D01*
X024459Y018196D02*
X023625Y018196D01*
X023666Y018097D02*
X024459Y018097D01*
X024459Y017999D02*
X023689Y017999D01*
X023689Y017900D02*
X024459Y017900D01*
X024491Y017802D02*
X023689Y017802D01*
X023689Y017703D02*
X024532Y017703D01*
X024573Y017605D02*
X023689Y017605D01*
X023689Y017506D02*
X024628Y017506D01*
X024726Y017407D02*
X023689Y017407D01*
X023689Y017309D02*
X024825Y017309D01*
X024997Y017210D02*
X023664Y017210D01*
X022885Y016915D02*
X022433Y016915D01*
X022547Y017013D02*
X022771Y017013D01*
X022694Y017112D02*
X022624Y017112D01*
X021885Y016915D02*
X021433Y016915D01*
X021547Y017013D02*
X021771Y017013D01*
X021694Y017112D02*
X021624Y017112D01*
X020885Y016915D02*
X019559Y016915D01*
X019658Y016816D02*
X031009Y016816D01*
X031009Y016718D02*
X025599Y016718D01*
X025837Y016619D02*
X031009Y016619D01*
X031009Y016521D02*
X026000Y016521D01*
X025219Y016718D02*
X019756Y016718D01*
X019855Y016619D02*
X024981Y016619D01*
X022879Y018393D02*
X022439Y018393D01*
X022549Y018294D02*
X022769Y018294D01*
X022693Y018196D02*
X022625Y018196D01*
X021879Y018393D02*
X021439Y018393D01*
X021549Y018294D02*
X021769Y018294D01*
X021693Y018196D02*
X021625Y018196D01*
X020879Y018393D02*
X018439Y018393D01*
X018549Y018294D02*
X018922Y018294D01*
X018817Y018196D02*
X018625Y018196D01*
X018666Y018097D02*
X018760Y018097D01*
X018734Y017999D02*
X018689Y017999D01*
X018689Y017900D02*
X018729Y017900D01*
X018729Y017802D02*
X018689Y017802D01*
X018689Y017703D02*
X018729Y017703D01*
X018729Y017605D02*
X018689Y017605D01*
X018689Y017506D02*
X018729Y017506D01*
X019129Y017703D02*
X019189Y017703D01*
X019189Y017802D02*
X019129Y017802D01*
X019129Y017900D02*
X019189Y017900D01*
X019189Y017999D02*
X019129Y017999D01*
X019129Y018097D02*
X019189Y018097D01*
X019189Y018196D02*
X019129Y018196D01*
X019129Y018294D02*
X019189Y018294D01*
X019396Y018294D02*
X019922Y018294D01*
X019934Y018303D02*
X019879Y018263D01*
X019831Y018215D01*
X019791Y018160D01*
X019761Y018100D01*
X019740Y018036D01*
X019729Y017969D01*
X019729Y017685D01*
X020129Y017685D01*
X020129Y017625D01*
X020189Y017625D01*
X020189Y016945D01*
X020193Y016945D01*
X020260Y016956D01*
X020324Y016977D01*
X020384Y017007D01*
X020439Y017047D01*
X020487Y017095D01*
X020527Y017150D01*
X020558Y017210D01*
X020578Y017274D01*
X020589Y017341D01*
X020589Y017625D01*
X020189Y017625D01*
X020189Y017685D01*
X020589Y017685D01*
X020589Y017969D01*
X020578Y018036D01*
X020558Y018100D01*
X020527Y018160D01*
X020487Y018215D01*
X020439Y018263D01*
X020384Y018303D01*
X020324Y018334D01*
X020260Y018354D01*
X020193Y018365D01*
X020189Y018365D01*
X020189Y017685D01*
X020129Y017685D01*
X020129Y018365D01*
X020125Y018365D01*
X020058Y018354D01*
X019994Y018334D01*
X019934Y018303D01*
X019817Y018196D02*
X019501Y018196D01*
X019558Y018097D02*
X019760Y018097D01*
X019734Y017999D02*
X019584Y017999D01*
X019589Y017900D02*
X019729Y017900D01*
X019729Y017802D02*
X019589Y017802D01*
X019589Y017703D02*
X019729Y017703D01*
X019729Y017625D02*
X019729Y017341D01*
X019740Y017274D01*
X019761Y017210D01*
X019791Y017150D01*
X019831Y017095D01*
X019879Y017047D01*
X019934Y017007D01*
X019994Y016977D01*
X020058Y016956D01*
X020125Y016945D01*
X020129Y016945D01*
X020129Y017625D01*
X019729Y017625D01*
X019729Y017605D02*
X019589Y017605D01*
X019589Y017506D02*
X019729Y017506D01*
X019729Y017407D02*
X019589Y017407D01*
X019584Y017309D02*
X019734Y017309D01*
X019760Y017210D02*
X019558Y017210D01*
X019499Y017112D02*
X019819Y017112D01*
X019925Y017013D02*
X019446Y017013D01*
X020129Y017013D02*
X020189Y017013D01*
X020189Y017112D02*
X020129Y017112D01*
X020129Y017210D02*
X020189Y017210D01*
X020189Y017309D02*
X020129Y017309D01*
X020129Y017407D02*
X020189Y017407D01*
X020189Y017506D02*
X020129Y017506D01*
X020129Y017605D02*
X020189Y017605D01*
X020189Y017703D02*
X020129Y017703D01*
X020129Y017802D02*
X020189Y017802D01*
X020189Y017900D02*
X020129Y017900D01*
X020129Y017999D02*
X020189Y017999D01*
X020189Y018097D02*
X020129Y018097D01*
X020129Y018196D02*
X020189Y018196D01*
X020189Y018294D02*
X020129Y018294D01*
X020396Y018294D02*
X020769Y018294D01*
X020693Y018196D02*
X020501Y018196D01*
X020558Y018097D02*
X020653Y018097D01*
X020629Y017999D02*
X020584Y017999D01*
X020589Y017900D02*
X020629Y017900D01*
X020629Y017802D02*
X020589Y017802D01*
X020589Y017703D02*
X020629Y017703D01*
X020629Y017605D02*
X020589Y017605D01*
X020589Y017506D02*
X020629Y017506D01*
X020629Y017407D02*
X020589Y017407D01*
X020584Y017309D02*
X020629Y017309D01*
X020654Y017210D02*
X020558Y017210D01*
X020499Y017112D02*
X020694Y017112D01*
X020771Y017013D02*
X020393Y017013D01*
X018474Y016521D02*
X017469Y016521D01*
X017469Y016619D02*
X018375Y016619D01*
X018277Y016718D02*
X017469Y016718D01*
X017469Y016816D02*
X018178Y016816D01*
X017885Y016915D02*
X017469Y016915D01*
X017547Y017013D02*
X017771Y017013D01*
X017694Y017112D02*
X017624Y017112D01*
X016849Y016915D02*
X016433Y016915D01*
X016547Y017013D02*
X016771Y017013D01*
X016694Y017112D02*
X016624Y017112D01*
X016849Y016816D02*
X015679Y016816D01*
X015777Y016915D02*
X015885Y016915D01*
X015580Y016718D02*
X016849Y016718D01*
X016849Y016619D02*
X015481Y016619D01*
X015383Y016521D02*
X016849Y016521D01*
X016849Y016422D02*
X015284Y016422D01*
X015186Y016324D02*
X016849Y016324D01*
X016849Y016225D02*
X015087Y016225D01*
X014989Y016126D02*
X016849Y016126D01*
X016849Y016028D02*
X016655Y016028D01*
X016771Y015929D02*
X016849Y015929D01*
X016849Y015831D02*
X016832Y015831D01*
X016189Y015831D02*
X016129Y015831D01*
X016129Y015929D02*
X016189Y015929D01*
X016189Y016028D02*
X016129Y016028D01*
X016129Y015732D02*
X016189Y015732D01*
X016189Y015535D02*
X016129Y015535D01*
X016129Y015437D02*
X016189Y015437D01*
X016189Y015338D02*
X016129Y015338D01*
X016129Y015240D02*
X016189Y015240D01*
X015456Y015732D02*
X014595Y015732D01*
X014693Y015831D02*
X015486Y015831D01*
X015547Y015929D02*
X014792Y015929D01*
X014890Y016028D02*
X015664Y016028D01*
X014802Y016816D02*
X012639Y016816D01*
X012737Y016915D02*
X014900Y016915D01*
X014999Y017013D02*
X012836Y017013D01*
X012934Y017112D02*
X015097Y017112D01*
X015196Y017210D02*
X013033Y017210D01*
X013131Y017309D02*
X015294Y017309D01*
X015393Y017407D02*
X013230Y017407D01*
X013328Y017506D02*
X015492Y017506D01*
X015590Y017605D02*
X013427Y017605D01*
X013525Y017703D02*
X015629Y017703D01*
X015629Y017802D02*
X013624Y017802D01*
X013722Y017900D02*
X015629Y017900D01*
X015629Y017999D02*
X013821Y017999D01*
X013920Y018097D02*
X015653Y018097D01*
X015693Y018196D02*
X014018Y018196D01*
X014117Y018294D02*
X015769Y018294D01*
X015879Y018393D02*
X014215Y018393D01*
X013536Y018590D02*
X013058Y018590D01*
X013034Y018580D02*
X013126Y018618D01*
X013196Y018689D01*
X013034Y018580D02*
X012284Y018580D01*
X012192Y018618D01*
X012122Y018689D01*
X011469Y018689D01*
X011469Y018787D02*
X012084Y018787D01*
X012084Y018780D02*
X012122Y018689D01*
X012084Y018780D02*
X012084Y019530D01*
X012122Y019622D01*
X012192Y019692D01*
X012284Y019730D01*
X012447Y019730D01*
X012410Y019749D01*
X012350Y019793D01*
X012297Y019846D01*
X012253Y019906D01*
X012219Y019973D01*
X012196Y020044D01*
X012184Y020118D01*
X012184Y020136D01*
X012640Y020136D01*
X012640Y020174D01*
X012184Y020174D01*
X012184Y020192D01*
X012196Y020266D01*
X012219Y020337D01*
X012253Y020404D01*
X012297Y020465D01*
X012350Y020517D01*
X012410Y020561D01*
X012477Y020595D01*
X012548Y020618D01*
X012622Y020630D01*
X012640Y020630D01*
X012640Y020174D01*
X012678Y020174D01*
X012640Y020167D02*
X011749Y020167D01*
X011848Y020265D02*
X012196Y020265D01*
X012232Y020364D02*
X011946Y020364D01*
X012045Y020462D02*
X012295Y020462D01*
X012409Y020561D02*
X012143Y020561D01*
X012640Y020561D02*
X012678Y020561D01*
X012678Y020462D02*
X012640Y020462D01*
X012640Y020364D02*
X012678Y020364D01*
X012678Y020265D02*
X012640Y020265D01*
X012192Y020068D02*
X011650Y020068D01*
X011552Y019970D02*
X012220Y019970D01*
X012278Y019871D02*
X011469Y019871D01*
X011469Y019773D02*
X012377Y019773D01*
X012174Y019674D02*
X011469Y019674D01*
X011469Y019575D02*
X012103Y019575D01*
X012084Y019477D02*
X011469Y019477D01*
X011469Y019378D02*
X012084Y019378D01*
X012084Y019280D02*
X011469Y019280D01*
X011469Y019181D02*
X012084Y019181D01*
X012084Y019083D02*
X011469Y019083D01*
X011469Y018984D02*
X012084Y018984D01*
X012084Y018886D02*
X011469Y018886D01*
X011469Y018590D02*
X012260Y018590D01*
X011746Y018097D02*
X013043Y018097D01*
X012944Y017999D02*
X011845Y017999D01*
X011911Y017900D02*
X012846Y017900D01*
X012747Y017802D02*
X011952Y017802D01*
X011969Y017703D02*
X012649Y017703D01*
X012550Y017605D02*
X011969Y017605D01*
X011951Y017506D02*
X012452Y017506D01*
X012353Y017407D02*
X011910Y017407D01*
X011842Y017309D02*
X012255Y017309D01*
X012156Y017210D02*
X011744Y017210D01*
X011721Y017112D02*
X012057Y017112D01*
X011959Y017013D02*
X011830Y017013D01*
X012343Y016521D02*
X014506Y016521D01*
X014605Y016619D02*
X012441Y016619D01*
X012540Y016718D02*
X014703Y016718D01*
X014408Y016422D02*
X012244Y016422D01*
X012146Y016324D02*
X014309Y016324D01*
X014211Y016225D02*
X012047Y016225D01*
X011949Y016126D02*
X012632Y016126D01*
X012502Y016028D02*
X011850Y016028D01*
X011899Y015929D02*
X012419Y015929D01*
X012378Y015831D02*
X011940Y015831D01*
X011969Y015732D02*
X012349Y015732D01*
X012349Y015634D02*
X011969Y015634D01*
X011963Y015535D02*
X012355Y015535D01*
X012382Y015437D02*
X011922Y015437D01*
X011872Y015338D02*
X012284Y015338D01*
X012185Y015240D02*
X011773Y015240D01*
X011651Y015141D02*
X012087Y015141D01*
X011988Y015042D02*
X011801Y015042D01*
X010461Y016324D02*
X008857Y016324D01*
X008916Y016422D02*
X010402Y016422D01*
X010361Y016521D02*
X008957Y016521D01*
X008969Y016619D02*
X010277Y016619D01*
X010178Y016718D02*
X008969Y016718D01*
X008946Y016816D02*
X010080Y016816D01*
X009981Y016915D02*
X008905Y016915D01*
X008830Y017013D02*
X009882Y017013D01*
X009784Y017112D02*
X008721Y017112D01*
X008744Y017210D02*
X009739Y017210D01*
X009729Y017309D02*
X008842Y017309D01*
X008910Y017407D02*
X009729Y017407D01*
X009729Y017506D02*
X008951Y017506D01*
X008969Y017605D02*
X009729Y017605D01*
X009729Y017703D02*
X008969Y017703D01*
X008952Y017802D02*
X009729Y017802D01*
X009729Y017900D02*
X008911Y017900D01*
X008845Y017999D02*
X009729Y017999D01*
X009729Y018097D02*
X008746Y018097D01*
X008758Y016225D02*
X010371Y016225D01*
X010272Y016126D02*
X008686Y016126D01*
X008816Y016028D02*
X010173Y016028D01*
X010075Y015929D02*
X008899Y015929D01*
X008940Y015831D02*
X009976Y015831D01*
X009878Y015732D02*
X008969Y015732D01*
X008969Y015634D02*
X009779Y015634D01*
X009681Y015535D02*
X008963Y015535D01*
X008886Y015338D02*
X008871Y015338D01*
X007355Y015535D02*
X004717Y015535D01*
X004619Y015437D02*
X007022Y015437D01*
X006924Y015338D02*
X004520Y015338D01*
X004422Y015240D02*
X005450Y015240D01*
X005268Y015141D02*
X004323Y015141D01*
X004225Y015042D02*
X005170Y015042D01*
X005108Y014944D02*
X001329Y014944D01*
X001329Y014845D02*
X005067Y014845D01*
X005039Y014747D02*
X001329Y014747D01*
X001329Y014648D02*
X005039Y014648D01*
X005039Y014550D02*
X001329Y014550D01*
X001329Y014451D02*
X005072Y014451D01*
X005113Y014353D02*
X001329Y014353D01*
X001329Y014254D02*
X005183Y014254D01*
X005282Y014156D02*
X001329Y014156D01*
X001329Y014057D02*
X005483Y014057D01*
X005835Y014057D02*
X006483Y014057D01*
X006282Y014156D02*
X006036Y014156D01*
X006135Y014254D02*
X006183Y014254D01*
X006835Y014057D02*
X007531Y014057D01*
X007433Y013958D02*
X001329Y013958D01*
X001329Y013860D02*
X007390Y013860D01*
X007349Y013761D02*
X001329Y013761D01*
X001329Y013663D02*
X007349Y013663D01*
X007349Y013564D02*
X001329Y013564D01*
X001329Y013466D02*
X007384Y013466D01*
X007425Y013367D02*
X001329Y013367D01*
X001329Y013269D02*
X007516Y013269D01*
X007665Y013170D02*
X001329Y013170D01*
X001329Y013072D02*
X007546Y013072D01*
X007447Y012973D02*
X001329Y012973D01*
X001329Y012874D02*
X007396Y012874D01*
X007355Y012776D02*
X001329Y012776D01*
X001329Y012677D02*
X002305Y012677D01*
X002206Y012579D02*
X001329Y012579D01*
X001329Y012480D02*
X002123Y012480D01*
X002082Y012382D02*
X001329Y012382D01*
X001329Y012283D02*
X002029Y012283D01*
X001930Y012185D02*
X001329Y012185D01*
X001329Y012086D02*
X001832Y012086D01*
X001733Y011988D02*
X001329Y011988D01*
X003014Y012677D02*
X003305Y012677D01*
X003206Y012579D02*
X003112Y012579D01*
X004014Y012677D02*
X007349Y012677D01*
X007349Y012579D02*
X004112Y012579D01*
X004195Y012480D02*
X007378Y012480D01*
X007419Y012382D02*
X004236Y012382D01*
X004277Y012283D02*
X007501Y012283D01*
X007630Y012185D02*
X006883Y012185D01*
X007041Y012086D02*
X007561Y012086D01*
X007462Y011988D02*
X007140Y011988D01*
X007185Y011889D02*
X007402Y011889D01*
X007361Y011791D02*
X007225Y011791D01*
X007234Y011692D02*
X007349Y011692D01*
X007349Y011593D02*
X007234Y011593D01*
X007215Y011495D02*
X007372Y011495D01*
X007413Y011396D02*
X007174Y011396D01*
X007115Y011298D02*
X007487Y011298D01*
X007595Y011199D02*
X007016Y011199D01*
X007774Y011125D02*
X008544Y011125D01*
X008739Y011206D01*
X008831Y011298D02*
X009329Y011298D01*
X009329Y011396D02*
X008906Y011396D01*
X008946Y011495D02*
X009329Y011495D01*
X009329Y011593D02*
X008969Y011593D01*
X008969Y011692D02*
X009329Y011692D01*
X009329Y011791D02*
X008957Y011791D01*
X008916Y011889D02*
X009329Y011889D01*
X009329Y011988D02*
X008856Y011988D01*
X008758Y012086D02*
X009329Y012086D01*
X009329Y012185D02*
X008688Y012185D01*
X008817Y012283D02*
X009329Y012283D01*
X009276Y012382D02*
X009229Y012382D01*
X010349Y012185D02*
X010630Y012185D01*
X010714Y012054D02*
X010654Y012023D01*
X010599Y011983D01*
X010551Y011935D01*
X010511Y011880D01*
X010481Y011820D01*
X010460Y011756D01*
X010449Y011689D01*
X010449Y011685D01*
X011129Y011685D01*
X011129Y012085D01*
X010845Y012085D01*
X010778Y012074D01*
X010714Y012054D01*
X010605Y011988D02*
X010349Y011988D01*
X010349Y012086D02*
X011967Y012086D01*
X011855Y011988D02*
X011713Y011988D01*
X011688Y012185D02*
X012630Y012185D01*
X012561Y012086D02*
X012431Y012086D01*
X012501Y012283D02*
X011817Y012283D01*
X011899Y012382D02*
X012419Y012382D01*
X012378Y012480D02*
X011940Y012480D01*
X011969Y012579D02*
X012349Y012579D01*
X012349Y012677D02*
X011969Y012677D01*
X011963Y012776D02*
X012355Y012776D01*
X012396Y012874D02*
X012297Y012874D01*
X012395Y012973D02*
X012447Y012973D01*
X012494Y013072D02*
X012546Y013072D01*
X012592Y013170D02*
X012665Y013170D01*
X011189Y011988D02*
X011129Y011988D01*
X011129Y011889D02*
X011189Y011889D01*
X011189Y011791D02*
X011129Y011791D01*
X011129Y011692D02*
X011189Y011692D01*
X011129Y011625D02*
X010449Y011625D01*
X010449Y011621D01*
X010460Y011554D01*
X010481Y011490D01*
X010511Y011430D01*
X010551Y011375D01*
X010599Y011327D01*
X010654Y011287D01*
X010714Y011257D01*
X010778Y011236D01*
X010845Y011225D01*
X011129Y011225D01*
X011129Y011625D01*
X011129Y011593D02*
X011189Y011593D01*
X011189Y011495D02*
X011129Y011495D01*
X011129Y011396D02*
X011189Y011396D01*
X011189Y011298D02*
X011129Y011298D01*
X010639Y011298D02*
X010349Y011298D01*
X010349Y011396D02*
X010536Y011396D01*
X010479Y011495D02*
X010349Y011495D01*
X010349Y011593D02*
X010453Y011593D01*
X010450Y011692D02*
X010349Y011692D01*
X010349Y011791D02*
X010471Y011791D01*
X010518Y011889D02*
X010349Y011889D01*
X009329Y011002D02*
X008693Y011002D01*
X008790Y010904D02*
X009329Y010904D01*
X009329Y010805D02*
X008842Y010805D01*
X008866Y010707D02*
X009329Y010707D01*
X009329Y010608D02*
X008867Y010608D01*
X008844Y010509D02*
X009329Y010509D01*
X009329Y010411D02*
X008793Y010411D01*
X008699Y010312D02*
X009329Y010312D01*
X009329Y010214D02*
X006838Y010214D01*
X006678Y010214D02*
X006640Y010214D01*
X006640Y010312D02*
X006678Y010312D01*
X006678Y010411D02*
X006640Y010411D01*
X006640Y010509D02*
X006678Y010509D01*
X006678Y010608D02*
X006640Y010608D01*
X006480Y010214D02*
X004176Y010214D01*
X004155Y010312D02*
X006330Y010312D01*
X006250Y010411D02*
X004112Y010411D01*
X004040Y010509D02*
X006207Y010509D01*
X006215Y009524D02*
X005959Y009524D01*
X006050Y009425D02*
X006149Y009425D01*
X006108Y009327D02*
X006103Y009327D01*
X006079Y008933D02*
X006129Y008933D01*
X006170Y008834D02*
X006010Y008834D01*
X005882Y008736D02*
X006265Y008736D01*
X006407Y008637D02*
X004735Y008637D01*
X004637Y008736D02*
X005436Y008736D01*
X005308Y008834D02*
X004538Y008834D01*
X004440Y008933D02*
X005239Y008933D01*
X005640Y008933D02*
X005678Y008933D01*
X005678Y009031D02*
X005640Y009031D01*
X005640Y009130D02*
X005678Y009130D01*
X005678Y009228D02*
X005640Y009228D01*
X005640Y009327D02*
X005678Y009327D01*
X005678Y009425D02*
X005640Y009425D01*
X005640Y009524D02*
X005678Y009524D01*
X005678Y008834D02*
X005640Y008834D01*
X005640Y008736D02*
X005678Y008736D01*
X008129Y010312D02*
X008189Y010312D01*
X008189Y010411D02*
X008129Y010411D01*
X008129Y010509D02*
X008189Y010509D01*
X008189Y010608D02*
X008129Y010608D01*
X008129Y010707D02*
X008189Y010707D01*
X008189Y010805D02*
X008129Y010805D01*
X008129Y010904D02*
X008189Y010904D01*
X008189Y011002D02*
X008129Y011002D01*
X008713Y010115D02*
X009329Y010115D01*
X009329Y010017D02*
X008827Y010017D01*
X008904Y009918D02*
X009329Y009918D01*
X009329Y009820D02*
X008945Y009820D01*
X008969Y009721D02*
X009329Y009721D01*
X009329Y009623D02*
X008969Y009623D01*
X008958Y009524D02*
X009329Y009524D01*
X009329Y009425D02*
X008918Y009425D01*
X008860Y009327D02*
X009329Y009327D01*
X009329Y009228D02*
X008762Y009228D01*
X008678Y009130D02*
X009329Y009130D01*
X009329Y009031D02*
X008812Y009031D01*
X008898Y008933D02*
X009329Y008933D01*
X009329Y008834D02*
X008939Y008834D01*
X008969Y008736D02*
X009329Y008736D01*
X009329Y008637D02*
X008969Y008637D01*
X008964Y008539D02*
X009329Y008539D01*
X009329Y008440D02*
X008924Y008440D01*
X008875Y008341D02*
X009329Y008341D01*
X009329Y008243D02*
X008776Y008243D01*
X008643Y008144D02*
X009329Y008144D01*
X009329Y008046D02*
X008798Y008046D01*
X008892Y007947D02*
X009256Y007947D01*
X009216Y007849D02*
X008932Y007849D01*
X008969Y007750D02*
X009189Y007750D01*
X009189Y007652D02*
X008969Y007652D01*
X008969Y007553D02*
X009211Y007553D01*
X009252Y007455D02*
X008930Y007455D01*
X008889Y007356D02*
X009342Y007356D01*
X009520Y007258D02*
X008791Y007258D01*
X008626Y007159D02*
X009729Y007159D01*
X009729Y007245D02*
X009729Y007245D01*
X009729Y007060D02*
X008783Y007060D01*
X008882Y006962D02*
X009729Y006962D01*
X009729Y006863D02*
X008926Y006863D01*
X008967Y006765D02*
X009729Y006765D01*
X009729Y006666D02*
X008969Y006666D01*
X008969Y006568D02*
X009729Y006568D01*
X009729Y006469D02*
X008936Y006469D01*
X008895Y006371D02*
X009729Y006371D01*
X009729Y006272D02*
X008806Y006272D01*
X009629Y004498D02*
X009719Y004498D01*
X009729Y004400D02*
X009629Y004400D01*
X009629Y004301D02*
X009729Y004301D01*
X009729Y004203D02*
X009600Y004203D01*
X009526Y004104D02*
X009766Y004104D01*
X009850Y004006D02*
X009428Y004006D01*
X009329Y003907D02*
X009949Y003907D01*
X010047Y003809D02*
X009231Y003809D01*
X009132Y003710D02*
X010146Y003710D01*
X010244Y003611D02*
X009034Y003611D01*
X009022Y003599D02*
X009022Y003600D01*
X008935Y003513D02*
X010343Y003513D01*
X010530Y004203D02*
X010586Y004203D01*
X010483Y004301D02*
X010431Y004301D01*
X010411Y004400D02*
X010349Y004400D01*
X010359Y004498D02*
X010370Y004498D01*
X013640Y007258D02*
X013678Y007258D01*
X013678Y007356D02*
X013640Y007356D01*
X013640Y007455D02*
X013678Y007455D01*
X013678Y007553D02*
X013640Y007553D01*
X013920Y007258D02*
X014243Y007258D01*
X014161Y007356D02*
X014029Y007356D01*
X014090Y007455D02*
X014120Y007455D01*
X013389Y008046D02*
X011798Y008046D01*
X011892Y007947D02*
X013284Y007947D01*
X013225Y007849D02*
X011932Y007849D01*
X011969Y007750D02*
X013193Y007750D01*
X012727Y008144D02*
X011643Y008144D01*
X011776Y008243D02*
X012542Y008243D01*
X012443Y008341D02*
X011875Y008341D01*
X011924Y008440D02*
X012394Y008440D01*
X012354Y008539D02*
X011964Y008539D01*
X011969Y008637D02*
X012277Y008637D01*
X012179Y008736D02*
X011969Y008736D01*
X011939Y008834D02*
X012080Y008834D01*
X011982Y008933D02*
X011898Y008933D01*
X011883Y009031D02*
X011812Y009031D01*
X011785Y009130D02*
X011678Y009130D01*
X012254Y009820D02*
X012374Y009820D01*
X012414Y009918D02*
X012156Y009918D01*
X011981Y010017D02*
X012491Y010017D01*
X015234Y007652D02*
X015244Y007652D01*
X015234Y007553D02*
X015249Y007553D01*
X018620Y004104D02*
X018698Y004104D01*
X018779Y004006D02*
X018539Y004006D01*
X018414Y003907D02*
X018847Y003907D01*
X018946Y003809D02*
X018191Y003809D01*
X018092Y003710D02*
X019044Y003710D01*
X019143Y003611D02*
X017994Y003611D01*
X017895Y003513D02*
X019241Y003513D01*
X019340Y003414D02*
X017797Y003414D01*
X017698Y003316D02*
X019439Y003316D01*
X019771Y002725D02*
X016234Y002725D01*
X016234Y002626D02*
X019096Y002626D01*
X019122Y002630D02*
X019048Y002618D01*
X018977Y002595D01*
X018910Y002561D01*
X018850Y002517D01*
X018797Y002465D01*
X018753Y002404D01*
X018719Y002337D01*
X018696Y002266D01*
X018684Y002192D01*
X018684Y002174D01*
X019140Y002174D01*
X019140Y002630D01*
X019122Y002630D01*
X019140Y002626D02*
X019178Y002626D01*
X019222Y002626D02*
X019626Y002626D01*
X019584Y002527D02*
X019455Y002527D01*
X019547Y002429D02*
X019584Y002429D01*
X019178Y002429D02*
X019140Y002429D01*
X019140Y002527D02*
X019178Y002527D01*
X019178Y002330D02*
X019140Y002330D01*
X019140Y002232D02*
X019178Y002232D01*
X019178Y002133D02*
X019140Y002133D01*
X019140Y002136D02*
X019140Y001680D01*
X019122Y001680D01*
X019048Y001692D01*
X018977Y001715D01*
X018910Y001749D01*
X018850Y001793D01*
X018797Y001846D01*
X018753Y001906D01*
X018719Y001973D01*
X018696Y002044D01*
X018684Y002118D01*
X018684Y002136D01*
X019140Y002136D01*
X019140Y002035D02*
X019178Y002035D01*
X019178Y001936D02*
X019140Y001936D01*
X019140Y001838D02*
X019178Y001838D01*
X019178Y001739D02*
X019140Y001739D01*
X018929Y001739D02*
X016127Y001739D01*
X016099Y001838D02*
X018805Y001838D01*
X018737Y001936D02*
X016042Y001936D01*
X015945Y002035D02*
X018699Y002035D01*
X018684Y002133D02*
X016141Y002133D01*
X016214Y002232D02*
X018690Y002232D01*
X018717Y002330D02*
X016234Y002330D01*
X016234Y002429D02*
X018771Y002429D01*
X018863Y002527D02*
X016234Y002527D01*
X015678Y001641D02*
X019670Y001641D01*
X019601Y001739D02*
X019389Y001739D01*
X019513Y001838D02*
X019584Y001838D01*
X019581Y001936D02*
X019584Y001936D01*
X015678Y001542D02*
X015640Y001542D01*
X015640Y001443D02*
X015678Y001443D01*
X015678Y001345D02*
X015640Y001345D01*
X015640Y001246D02*
X015678Y001246D01*
X022717Y010904D02*
X022744Y010904D01*
X024123Y010904D02*
X024215Y010904D01*
X022718Y012283D02*
X022695Y012283D01*
X021315Y012283D02*
X021219Y012283D01*
X014112Y016126D02*
X013686Y016126D01*
X013816Y016028D02*
X014013Y016028D01*
X013915Y015929D02*
X013899Y015929D01*
X013141Y018196D02*
X011469Y018196D01*
X011469Y018294D02*
X013240Y018294D01*
X013339Y018393D02*
X011469Y018393D01*
X011469Y018491D02*
X013437Y018491D01*
X014509Y019083D02*
X015038Y019083D01*
X014820Y019181D02*
X014509Y019181D01*
X014509Y019280D02*
X014721Y019280D01*
X014651Y019378D02*
X014509Y019378D01*
X014509Y019477D02*
X014610Y019477D01*
X014584Y019575D02*
X014509Y019575D01*
X014509Y019674D02*
X014584Y019674D01*
X014585Y019773D02*
X014509Y019773D01*
X014509Y019871D02*
X014626Y019871D01*
X014667Y019970D02*
X014509Y019970D01*
X014580Y020758D02*
X014694Y020758D01*
X014679Y020856D02*
X014729Y020856D01*
X014777Y020955D02*
X014790Y020955D01*
X014876Y021054D02*
X014899Y021054D01*
X015073Y021251D02*
X015725Y021251D01*
X015824Y021349D02*
X015172Y021349D01*
X015270Y021448D02*
X016012Y021448D01*
X016306Y021448D02*
X017012Y021448D01*
X016824Y021349D02*
X016494Y021349D01*
X016593Y021251D02*
X016725Y021251D01*
X016675Y021152D02*
X016643Y021152D01*
X017306Y021448D02*
X018012Y021448D01*
X017824Y021349D02*
X017494Y021349D01*
X017593Y021251D02*
X017725Y021251D01*
X017675Y021152D02*
X017643Y021152D01*
X018593Y021251D02*
X018866Y021251D01*
X018787Y021152D02*
X018643Y021152D01*
X018684Y021054D02*
X018745Y021054D01*
X018729Y020955D02*
X018689Y020955D01*
X018689Y020856D02*
X018729Y020856D01*
X018729Y020758D02*
X018689Y020758D01*
X017012Y022532D02*
X021940Y022532D01*
X021877Y022630D02*
X017111Y022630D01*
X017195Y022729D02*
X021820Y022729D01*
X021763Y022827D02*
X017236Y022827D01*
X017277Y022926D02*
X021745Y022926D01*
X021728Y023024D02*
X017279Y023024D01*
X017279Y023123D02*
X021710Y023123D01*
X021716Y023222D02*
X017261Y023222D01*
X017220Y023320D02*
X021734Y023320D01*
X021751Y023419D02*
X017172Y023419D01*
X017074Y023517D02*
X021783Y023517D01*
X021840Y023616D02*
X016926Y023616D01*
X016392Y023616D02*
X016075Y023616D01*
X016174Y023517D02*
X016244Y023517D01*
X015929Y023714D02*
X021897Y023714D01*
X021981Y023813D02*
X010145Y023813D01*
X010198Y023714D02*
X011389Y023714D01*
X011243Y023616D02*
X010224Y023616D01*
X010055Y023911D02*
X022098Y023911D01*
X022259Y024010D02*
X009829Y024010D01*
X009489Y024010D02*
X009389Y024010D01*
X009389Y024015D02*
X009082Y024015D01*
X009009Y024004D01*
X008939Y023981D01*
X008873Y023947D01*
X008813Y023904D01*
X008761Y023851D01*
X008717Y023791D01*
X008684Y023726D01*
X008661Y023655D01*
X008651Y023595D01*
X009389Y023595D01*
X009389Y024015D01*
X009389Y023911D02*
X009489Y023911D01*
X009489Y023813D02*
X009389Y023813D01*
X009389Y023714D02*
X009489Y023714D01*
X009489Y023616D02*
X009389Y023616D01*
X009389Y023320D02*
X009489Y023320D01*
X009489Y023222D02*
X009389Y023222D01*
X009389Y023123D02*
X009489Y023123D01*
X008912Y023123D02*
X007406Y023123D01*
X007540Y023222D02*
X008778Y023222D01*
X008706Y023320D02*
X007612Y023320D01*
X007652Y023419D02*
X008666Y023419D01*
X008654Y023616D02*
X007664Y023616D01*
X007638Y023714D02*
X008680Y023714D01*
X008733Y023813D02*
X007585Y023813D01*
X007495Y023911D02*
X008824Y023911D01*
X009049Y024010D02*
X007269Y024010D01*
X006929Y024010D02*
X006829Y024010D01*
X006829Y023911D02*
X006929Y023911D01*
X006929Y023813D02*
X006829Y023813D01*
X006829Y023714D02*
X006929Y023714D01*
X006929Y023616D02*
X006829Y023616D01*
X006829Y023320D02*
X006929Y023320D01*
X006929Y023222D02*
X006829Y023222D01*
X006829Y023123D02*
X006929Y023123D01*
X006352Y023123D02*
X005004Y023123D01*
X005039Y023222D02*
X006218Y023222D01*
X006146Y023320D02*
X005137Y023320D01*
X006015Y021940D02*
X001329Y021940D01*
X001329Y021842D02*
X005989Y021842D01*
X007314Y022335D02*
X009005Y022335D01*
X008784Y022236D02*
X007534Y022236D01*
X007633Y022138D02*
X008685Y022138D01*
X008616Y022039D02*
X007703Y022039D01*
X007743Y021940D02*
X008575Y021940D01*
X008549Y021842D02*
X007769Y021842D01*
X007769Y021743D02*
X008549Y021743D01*
X008552Y021645D02*
X007766Y021645D01*
X007725Y021546D02*
X008593Y021546D01*
X008634Y021448D02*
X007685Y021448D01*
X007589Y021349D02*
X008729Y021349D01*
X008871Y021251D02*
X007447Y021251D01*
X005309Y019181D02*
X004909Y019181D01*
X004909Y019083D02*
X005210Y019083D01*
X005124Y018984D02*
X004909Y018984D01*
X004909Y018886D02*
X005083Y018886D01*
X005043Y018787D02*
X004909Y018787D01*
X004909Y018689D02*
X005039Y018689D01*
X005039Y018590D02*
X004909Y018590D01*
X004909Y018491D02*
X005056Y018491D01*
X005097Y018393D02*
X004980Y018393D01*
X005078Y018294D02*
X005143Y018294D01*
X005177Y018196D02*
X005241Y018196D01*
X005275Y018097D02*
X005386Y018097D01*
X005374Y017999D02*
X006304Y017999D01*
X006369Y018097D02*
X005932Y018097D01*
X006077Y018196D02*
X006241Y018196D01*
X006206Y017900D02*
X005472Y017900D01*
X005571Y017802D02*
X006107Y017802D01*
X006009Y017703D02*
X005670Y017703D01*
X005806Y017605D02*
X005910Y017605D01*
X005068Y017112D02*
X003709Y017112D01*
X003709Y017013D02*
X003609Y017013D01*
X003609Y017105D02*
X003609Y016674D01*
X003609Y016205D01*
X003140Y016205D01*
X003152Y016277D01*
X003177Y016355D01*
X003214Y016428D01*
X003262Y016494D01*
X003320Y016552D01*
X003386Y016600D01*
X003459Y016637D01*
X003515Y016655D01*
X003459Y016673D01*
X003386Y016710D01*
X003320Y016758D01*
X003262Y016816D01*
X003214Y016883D01*
X003177Y016955D01*
X003152Y017033D01*
X003140Y017105D01*
X003609Y017105D01*
X003609Y017112D02*
X001329Y017112D01*
X001329Y017210D02*
X003141Y017210D01*
X003162Y017309D02*
X001329Y017309D01*
X001329Y017407D02*
X003204Y017407D01*
X003275Y017506D02*
X001329Y017506D01*
X001329Y017605D02*
X003368Y017605D01*
X003234Y017703D02*
X001329Y017703D01*
X001329Y017802D02*
X003136Y017802D01*
X003094Y017900D02*
X001329Y017900D01*
X001329Y017999D02*
X003053Y017999D01*
X003039Y018097D02*
X001329Y018097D01*
X001329Y018196D02*
X003039Y018196D01*
X003046Y018294D02*
X001329Y018294D01*
X001329Y018393D02*
X003086Y018393D01*
X003127Y018491D02*
X001329Y018491D01*
X001329Y018590D02*
X003217Y018590D01*
X003249Y018689D02*
X001329Y018689D01*
X001329Y018787D02*
X003150Y018787D01*
X003100Y018886D02*
X001329Y018886D01*
X001329Y018984D02*
X003059Y018984D01*
X003039Y019083D02*
X001329Y019083D01*
X001329Y019181D02*
X003039Y019181D01*
X003040Y019280D02*
X001329Y019280D01*
X001329Y019378D02*
X003080Y019378D01*
X003121Y019477D02*
X001329Y019477D01*
X001329Y019575D02*
X003203Y019575D01*
X003263Y019674D02*
X001329Y019674D01*
X001329Y019773D02*
X003165Y019773D01*
X003106Y019871D02*
X001329Y019871D01*
X001329Y019970D02*
X003065Y019970D01*
X003039Y020068D02*
X001329Y020068D01*
X001329Y020167D02*
X003039Y020167D01*
X003039Y020265D02*
X001329Y020265D01*
X001329Y020364D02*
X003074Y020364D01*
X003115Y020462D02*
X001329Y020462D01*
X001329Y020561D02*
X003188Y020561D01*
X003278Y020659D02*
X001329Y020659D01*
X001329Y020758D02*
X003179Y020758D01*
X003112Y020856D02*
X001329Y020856D01*
X001329Y020955D02*
X003071Y020955D01*
X003039Y021054D02*
X001329Y021054D01*
X001329Y021152D02*
X003039Y021152D01*
X003039Y021251D02*
X001329Y021251D01*
X001329Y021349D02*
X003068Y021349D01*
X003109Y021448D02*
X001329Y021448D01*
X001329Y021546D02*
X003173Y021546D01*
X003272Y021645D02*
X001329Y021645D01*
X001329Y021743D02*
X003459Y021743D01*
X003158Y017013D02*
X001329Y017013D01*
X001329Y016915D02*
X003198Y016915D01*
X003263Y016816D02*
X001329Y016816D01*
X001329Y016718D02*
X003376Y016718D01*
X003424Y016619D02*
X001329Y016619D01*
X001329Y016521D02*
X003289Y016521D01*
X003211Y016422D02*
X001329Y016422D01*
X001329Y016324D02*
X003167Y016324D01*
X003144Y016225D02*
X001329Y016225D01*
X003609Y016225D02*
X003709Y016225D01*
X003709Y016324D02*
X003609Y016324D01*
X003609Y016422D02*
X003709Y016422D01*
X003709Y016521D02*
X003609Y016521D01*
X003609Y016619D02*
X003709Y016619D01*
X003709Y016718D02*
X003609Y016718D01*
X003609Y016816D02*
X003709Y016816D01*
X003709Y016915D02*
X003609Y016915D01*
X003609Y015929D02*
X003709Y015929D01*
X003709Y015831D02*
X003609Y015831D01*
X003609Y015732D02*
X003709Y015732D01*
X005868Y015240D02*
X006450Y015240D01*
X006268Y015141D02*
X006050Y015141D01*
X006149Y015042D02*
X006170Y015042D01*
X007279Y014747D02*
X007349Y014747D01*
X007349Y014648D02*
X007279Y014648D01*
X007308Y014845D02*
X007384Y014845D01*
X007390Y014451D02*
X007246Y014451D01*
X007205Y014353D02*
X007432Y014353D01*
X007531Y014254D02*
X007135Y014254D01*
X007036Y014156D02*
X007700Y014156D01*
X006435Y012185D02*
X004279Y012185D01*
X004279Y012086D02*
X006277Y012086D01*
X006152Y011988D02*
X004261Y011988D01*
X004220Y011889D02*
X006053Y011889D01*
X005955Y011791D02*
X004171Y011791D01*
X004073Y011692D02*
X005856Y011692D01*
X002267Y004498D02*
X001329Y004498D01*
X001329Y004400D02*
X002200Y004400D01*
X016625Y018196D02*
X016693Y018196D01*
X016769Y018294D02*
X016549Y018294D01*
X016439Y018393D02*
X016879Y018393D01*
X017439Y018393D02*
X017879Y018393D01*
X017769Y018294D02*
X017549Y018294D01*
X017625Y018196D02*
X017693Y018196D01*
X021593Y021251D02*
X021725Y021251D01*
X021675Y021152D02*
X021643Y021152D01*
X021494Y021349D02*
X021824Y021349D01*
X021848Y021448D02*
X021306Y021448D01*
X022057Y022433D02*
X016379Y022433D01*
X016306Y022532D02*
X016281Y022532D01*
X016207Y022630D02*
X016182Y022630D01*
X016123Y022729D02*
X016110Y022729D01*
X016478Y022335D02*
X022174Y022335D01*
X022882Y022236D02*
X023582Y022236D01*
X023680Y022335D02*
X023144Y022335D01*
X023261Y022433D02*
X023779Y022433D01*
X023877Y022532D02*
X023378Y022532D01*
X023441Y022630D02*
X023976Y022630D01*
X024074Y022729D02*
X023498Y022729D01*
X023555Y022827D02*
X024173Y022827D01*
X024271Y022926D02*
X023573Y022926D01*
X023590Y023024D02*
X024370Y023024D01*
X024469Y023123D02*
X023608Y023123D01*
X023602Y023222D02*
X024555Y023222D01*
X024514Y023320D02*
X023584Y023320D01*
X023567Y023419D02*
X024473Y023419D01*
X024459Y023517D02*
X023535Y023517D01*
X023479Y023616D02*
X024459Y023616D01*
X024459Y023714D02*
X023422Y023714D01*
X023338Y023813D02*
X024459Y023813D01*
X024492Y023911D02*
X023220Y023911D01*
X023059Y024010D02*
X024533Y024010D01*
X025991Y024404D02*
X031009Y024404D01*
X031009Y024306D02*
X029296Y024306D01*
X029499Y024207D02*
X031009Y024207D01*
X031009Y024108D02*
X029597Y024108D01*
X029678Y024010D02*
X031009Y024010D01*
X031009Y023911D02*
X029719Y023911D01*
X029760Y023813D02*
X031009Y023813D01*
X031009Y023714D02*
X029769Y023714D01*
X029769Y023616D02*
X031009Y023616D01*
X031009Y023517D02*
X029768Y023517D01*
X029727Y023419D02*
X031009Y023419D01*
X031009Y023320D02*
X029686Y023320D01*
X029617Y023222D02*
X031009Y023222D01*
X031009Y023123D02*
X029519Y023123D01*
X029343Y023024D02*
X031009Y023024D01*
X031009Y022926D02*
X028490Y022926D01*
X028391Y022827D02*
X031009Y022827D01*
X031009Y022729D02*
X028293Y022729D01*
X028194Y022630D02*
X031009Y022630D01*
X031009Y022532D02*
X028095Y022532D01*
X027997Y022433D02*
X031009Y022433D01*
X031009Y022335D02*
X029225Y022335D01*
X029224Y022335D02*
X028094Y022335D01*
X027844Y022232D01*
X027653Y022040D01*
X027549Y021790D01*
X027549Y021520D01*
X027653Y021270D01*
X027844Y021079D01*
X028094Y020975D01*
X029224Y020975D01*
X029474Y021079D01*
X029666Y021270D01*
X029769Y021520D01*
X029769Y021790D01*
X029666Y022040D01*
X029474Y022232D01*
X029224Y022335D01*
X029463Y022236D02*
X031009Y022236D01*
X031009Y022138D02*
X029568Y022138D01*
X029666Y022039D02*
X031009Y022039D01*
X031009Y021940D02*
X029707Y021940D01*
X029748Y021842D02*
X031009Y021842D01*
X031009Y021743D02*
X029769Y021743D01*
X029769Y021645D02*
X031009Y021645D01*
X031009Y021546D02*
X029769Y021546D01*
X029739Y021448D02*
X031009Y021448D01*
X031009Y021349D02*
X029698Y021349D01*
X029646Y021251D02*
X031009Y021251D01*
X031009Y021152D02*
X029548Y021152D01*
X029414Y021054D02*
X031009Y021054D01*
X031009Y020955D02*
X027481Y020955D01*
X027489Y021054D02*
X027904Y021054D01*
X027770Y021152D02*
X027489Y021152D01*
X027489Y021251D02*
X027672Y021251D01*
X027620Y021349D02*
X027489Y021349D01*
X027489Y021448D02*
X027579Y021448D01*
X027549Y021546D02*
X027489Y021546D01*
X027489Y021645D02*
X027549Y021645D01*
X027549Y021743D02*
X027489Y021743D01*
X027489Y021842D02*
X027570Y021842D01*
X027611Y021940D02*
X027504Y021940D01*
X027603Y022039D02*
X027652Y022039D01*
X027701Y022138D02*
X027750Y022138D01*
X027800Y022236D02*
X027855Y022236D01*
X027898Y022335D02*
X028093Y022335D01*
X027429Y023024D02*
X026135Y023024D01*
X026222Y023123D02*
X027527Y023123D01*
X027626Y023222D02*
X026263Y023222D01*
X026304Y023320D02*
X027632Y023320D01*
X027591Y023419D02*
X026345Y023419D01*
X026359Y023517D02*
X027550Y023517D01*
X027549Y023616D02*
X026359Y023616D01*
X026359Y023714D02*
X027549Y023714D01*
X027558Y023813D02*
X026359Y023813D01*
X026326Y023911D02*
X027599Y023911D01*
X027640Y024010D02*
X026285Y024010D01*
X026244Y024108D02*
X027721Y024108D01*
X027819Y024207D02*
X026188Y024207D01*
X026089Y024306D02*
X028022Y024306D01*
X027330Y022926D02*
X026036Y022926D01*
X025925Y022827D02*
X027232Y022827D01*
X027133Y022729D02*
X025687Y022729D01*
X025598Y022292D02*
X025220Y022292D01*
X024871Y022147D01*
X024604Y021880D01*
X024459Y021531D01*
X024459Y021153D01*
X024604Y020804D01*
X024871Y020537D01*
X025220Y020392D01*
X025598Y020392D01*
X025947Y020537D01*
X026214Y020804D01*
X026359Y021153D01*
X026359Y021531D01*
X026214Y021880D01*
X025947Y022147D01*
X025598Y022292D01*
X025733Y022236D02*
X026694Y022236D01*
X026669Y022138D02*
X025957Y022138D01*
X026056Y022039D02*
X026669Y022039D01*
X026669Y021940D02*
X026154Y021940D01*
X026230Y021842D02*
X026669Y021842D01*
X026669Y021743D02*
X026271Y021743D01*
X026312Y021645D02*
X026669Y021645D01*
X026669Y021546D02*
X026353Y021546D01*
X026359Y021448D02*
X026669Y021448D01*
X026669Y021349D02*
X026359Y021349D01*
X026359Y021251D02*
X026669Y021251D01*
X026596Y021152D02*
X026359Y021152D01*
X026318Y021054D02*
X026498Y021054D01*
X026399Y020955D02*
X026277Y020955D01*
X026301Y020856D02*
X026236Y020856D01*
X026202Y020758D02*
X026168Y020758D01*
X026104Y020659D02*
X026070Y020659D01*
X026005Y020561D02*
X025971Y020561D01*
X025906Y020462D02*
X025767Y020462D01*
X025808Y020364D02*
X023689Y020364D01*
X023689Y020462D02*
X025051Y020462D01*
X024847Y020561D02*
X023689Y020561D01*
X023689Y020659D02*
X024748Y020659D01*
X024650Y020758D02*
X023689Y020758D01*
X023689Y020856D02*
X024582Y020856D01*
X024541Y020955D02*
X023689Y020955D01*
X023684Y021054D02*
X024500Y021054D01*
X024459Y021152D02*
X023643Y021152D01*
X023593Y021251D02*
X024459Y021251D01*
X024459Y021349D02*
X023494Y021349D01*
X023306Y021448D02*
X024459Y021448D01*
X024465Y021546D02*
X023704Y021546D01*
X023867Y021645D02*
X024506Y021645D01*
X024547Y021743D02*
X023966Y021743D01*
X024064Y021842D02*
X024588Y021842D01*
X024664Y021940D02*
X024163Y021940D01*
X024261Y022039D02*
X024762Y022039D01*
X024861Y022138D02*
X024360Y022138D01*
X024458Y022236D02*
X025085Y022236D01*
X024655Y022433D02*
X026837Y022433D01*
X026739Y022335D02*
X024557Y022335D01*
X024754Y022532D02*
X026936Y022532D01*
X027034Y022630D02*
X024853Y022630D01*
X024951Y022729D02*
X025131Y022729D01*
X023012Y021448D02*
X022725Y021448D01*
X023687Y020265D02*
X025709Y020265D01*
X025611Y020167D02*
X023646Y020167D01*
X023602Y020068D02*
X025512Y020068D01*
X025414Y019970D02*
X023503Y019970D01*
X023327Y019871D02*
X025315Y019871D01*
X025884Y019280D02*
X027785Y019280D01*
X027787Y019277D02*
X027851Y019213D01*
X027925Y019159D01*
X028006Y019118D01*
X028093Y019089D01*
X028183Y019075D01*
X028609Y019075D01*
X028609Y019605D01*
X028709Y019605D01*
X028709Y019075D01*
X029135Y019075D01*
X029225Y019089D01*
X029312Y019118D01*
X029393Y019159D01*
X029467Y019213D01*
X029531Y019277D01*
X029585Y019351D01*
X029627Y019432D01*
X029655Y019519D01*
X029668Y019605D01*
X028709Y019605D01*
X028709Y019705D01*
X029668Y019705D01*
X029655Y019791D01*
X029627Y019878D01*
X029585Y019959D01*
X029531Y020033D01*
X029467Y020097D01*
X029393Y020151D01*
X029312Y020193D01*
X029225Y020221D01*
X029135Y020235D01*
X028709Y020235D01*
X028709Y019705D01*
X028609Y019705D01*
X028609Y019605D01*
X027650Y019605D01*
X027663Y019519D01*
X027692Y019432D01*
X027733Y019351D01*
X027787Y019277D01*
X027719Y019378D02*
X025982Y019378D01*
X026081Y019477D02*
X027677Y019477D01*
X027654Y019575D02*
X026179Y019575D01*
X026278Y019674D02*
X028609Y019674D01*
X028609Y019705D02*
X027650Y019705D01*
X027663Y019791D01*
X027692Y019878D01*
X027733Y019959D01*
X027787Y020033D01*
X027851Y020097D01*
X027925Y020151D01*
X028006Y020193D01*
X028093Y020221D01*
X028183Y020235D01*
X028609Y020235D01*
X028609Y019705D01*
X028609Y019773D02*
X028709Y019773D01*
X028709Y019871D02*
X028609Y019871D01*
X028609Y019970D02*
X028709Y019970D01*
X028709Y020068D02*
X028609Y020068D01*
X028609Y020167D02*
X028709Y020167D01*
X028709Y019674D02*
X031009Y019674D01*
X031009Y019773D02*
X029658Y019773D01*
X029629Y019871D02*
X031009Y019871D01*
X031009Y019970D02*
X029577Y019970D01*
X029496Y020068D02*
X031009Y020068D01*
X031009Y020167D02*
X029363Y020167D01*
X029664Y019575D02*
X031009Y019575D01*
X031009Y019477D02*
X029641Y019477D01*
X029599Y019378D02*
X031009Y019378D01*
X031009Y019280D02*
X029533Y019280D01*
X029424Y019181D02*
X031009Y019181D01*
X031009Y019083D02*
X029183Y019083D01*
X028709Y019083D02*
X028609Y019083D01*
X028609Y019181D02*
X028709Y019181D01*
X028709Y019280D02*
X028609Y019280D01*
X028609Y019378D02*
X028709Y019378D01*
X028709Y019477D02*
X028609Y019477D01*
X028609Y019575D02*
X028709Y019575D01*
X027894Y019181D02*
X025785Y019181D01*
X026376Y019773D02*
X027660Y019773D01*
X027689Y019871D02*
X026475Y019871D01*
X026573Y019970D02*
X027741Y019970D01*
X027822Y020068D02*
X026672Y020068D01*
X026770Y020167D02*
X027956Y020167D01*
X027263Y020659D02*
X031009Y020659D01*
X031009Y020561D02*
X027165Y020561D01*
X027066Y020462D02*
X031009Y020462D01*
X031009Y020364D02*
X026968Y020364D01*
X026869Y020265D02*
X031009Y020265D01*
X031009Y020758D02*
X027362Y020758D01*
X027441Y020856D02*
X031009Y020856D01*
X022991Y019871D02*
X022327Y019871D01*
X022503Y019970D02*
X022815Y019970D01*
X022716Y020068D02*
X022602Y020068D01*
X022646Y020167D02*
X022672Y020167D01*
X021991Y019871D02*
X021883Y019871D01*
X021815Y019970D02*
X021784Y019970D01*
X021716Y020068D02*
X021686Y020068D01*
X021672Y020167D02*
X021646Y020167D01*
X015097Y023419D02*
X015031Y023419D01*
X015144Y023517D02*
X014898Y023517D01*
X014253Y022729D02*
X014110Y022729D01*
X014011Y022630D02*
X014359Y022630D01*
D18*
X005479Y017295D03*
X003079Y015455D03*
X008999Y012175D03*
X009639Y012655D03*
X010279Y012655D03*
X010279Y013695D03*
X009239Y015055D03*
X012199Y011695D03*
X009639Y007695D03*
X010039Y004815D03*
X012999Y004255D03*
X014039Y006175D03*
X015879Y003775D03*
X020519Y009615D03*
X019719Y010895D03*
X020439Y011615D03*
X026039Y006975D03*
X025399Y005855D03*
X027159Y006015D03*
X023959Y002815D03*
D19*
X023239Y003535D01*
X022519Y003535D01*
X022439Y003455D01*
X019879Y003455D01*
X019159Y004175D01*
X019159Y004655D01*
X022199Y006975D02*
X023239Y005935D01*
X024519Y005935D01*
X028599Y001855D01*
X028599Y001695D01*
X028659Y001655D01*
X028659Y003655D02*
X028679Y003695D01*
X026039Y006335D01*
X026039Y006975D01*
X025399Y005855D02*
X025399Y008495D01*
X029159Y012255D01*
X029159Y012655D01*
X027319Y014335D02*
X028599Y015615D01*
X028659Y015655D01*
X027319Y014335D02*
X024839Y014335D01*
X022999Y016175D01*
X019719Y016175D01*
X019239Y016655D01*
X018919Y016655D01*
X018199Y017375D01*
X018199Y017615D01*
X018159Y017655D01*
X021159Y020015D02*
X021799Y019375D01*
X025399Y019375D01*
X027079Y021055D01*
X027079Y022095D01*
X028599Y023615D01*
X028659Y023655D01*
X021159Y020655D02*
X021159Y020015D01*
X028599Y009615D02*
X028659Y009655D01*
X028599Y009615D02*
X027159Y008175D01*
X027159Y006015D01*
X022199Y006975D02*
X022199Y007615D01*
X022159Y007655D01*
X013159Y008655D02*
X012839Y008655D01*
X011879Y009615D01*
X011159Y009615D01*
X011159Y009655D01*
X006659Y011655D02*
X006599Y011695D01*
X006439Y011695D01*
X005959Y011215D01*
X003719Y011215D01*
X003659Y011155D01*
D20*
X002659Y012155D02*
X002599Y012095D01*
X002279Y012095D01*
X001719Y011535D01*
X001719Y009935D01*
X002359Y009295D01*
X003639Y009295D01*
X004599Y008335D01*
X004599Y005455D01*
X005799Y004255D01*
X006839Y004255D01*
X007319Y003775D01*
X008759Y003775D01*
X009319Y004335D01*
X009319Y004655D01*
X010279Y005615D01*
X011159Y005615D01*
X011159Y005655D01*
X010039Y006015D02*
X010039Y012415D01*
X010279Y012655D01*
X009639Y012655D02*
X009639Y007695D01*
X008119Y008495D02*
X007079Y007455D01*
X007079Y006095D01*
X006199Y005215D01*
X006159Y005155D01*
X008159Y004655D02*
X008679Y004655D01*
X010039Y006015D01*
X010039Y004815D02*
X010039Y004255D01*
X010519Y003775D01*
X015879Y003775D01*
X016679Y003535D02*
X017479Y003535D01*
X018119Y004175D01*
X018119Y004655D01*
X018159Y004655D01*
X016679Y003535D02*
X014039Y006175D01*
X014839Y006575D02*
X012919Y006575D01*
X012599Y006255D01*
X012659Y006255D01*
X014839Y006575D02*
X015559Y007295D01*
X015559Y007775D01*
X014999Y008335D01*
X014999Y009775D01*
X013159Y011615D01*
X013159Y011655D01*
X013159Y010735D02*
X012199Y011695D01*
X013159Y010735D02*
X013159Y010655D01*
X012119Y013135D02*
X012599Y013615D01*
X013159Y013615D01*
X013159Y013655D01*
X012119Y013135D02*
X009559Y013135D01*
X009079Y012655D01*
X008159Y012655D01*
X009079Y014655D02*
X008519Y015215D01*
X007239Y015215D01*
X006679Y014655D01*
X006659Y014655D01*
X009079Y014655D02*
X011159Y014655D01*
X010759Y014175D02*
X011559Y014175D01*
X012599Y015215D01*
X013639Y015215D01*
X016119Y017695D01*
X016159Y017655D01*
X017159Y017655D02*
X017159Y015775D01*
X017639Y015295D01*
X017639Y015055D01*
X019319Y013375D01*
X020119Y013375D01*
X020519Y013775D01*
X020598Y013716D01*
X018599Y011695D02*
X016679Y013615D01*
X016199Y013615D01*
X016159Y013655D01*
X016159Y012655D02*
X016679Y012655D01*
X018039Y011295D01*
X018039Y007775D01*
X018159Y007655D01*
X018599Y007135D02*
X018599Y009615D01*
X020519Y009615D01*
X018599Y009615D02*
X018599Y011695D01*
X016679Y014655D02*
X016159Y014655D01*
X016679Y014655D02*
X022559Y008775D01*
X022599Y008815D01*
X023879Y008815D01*
X024519Y009455D01*
X024839Y009455D01*
X024841Y009473D01*
X023159Y008175D02*
X023159Y007655D01*
X023159Y008175D02*
X022559Y008775D01*
X021719Y006575D02*
X019159Y006575D01*
X018599Y007135D01*
X021719Y006575D02*
X023159Y005135D01*
X023159Y004655D01*
X010759Y014175D02*
X010279Y013695D01*
X009639Y015055D02*
X009239Y015055D01*
X009639Y015055D02*
X010759Y016175D01*
X011559Y016175D01*
X014199Y018815D01*
X014199Y020815D01*
X015159Y021775D01*
X021959Y021775D01*
X023079Y020655D01*
X023159Y020655D01*
X023639Y021855D02*
X022439Y021855D01*
X022279Y022015D01*
X016359Y022015D01*
X015719Y022655D01*
X015719Y023135D01*
X015659Y023155D01*
X013659Y023155D02*
X013639Y023135D01*
X013639Y022495D01*
X011159Y020015D01*
X011159Y017655D01*
X011159Y016655D02*
X010679Y016655D01*
X010039Y017295D01*
X010039Y019135D01*
X010919Y020015D01*
X010919Y021055D01*
X012599Y022735D01*
X012599Y023055D01*
X012659Y023055D01*
X006679Y018655D02*
X006659Y018655D01*
X006679Y018655D02*
X006679Y017935D01*
X004039Y015295D01*
X003239Y015295D01*
X003079Y015455D01*
X005479Y017295D02*
X005479Y017455D01*
X004599Y018335D01*
X004599Y019535D01*
X004039Y020095D01*
X003719Y020095D01*
X003659Y020155D01*
X008119Y008655D02*
X008159Y008655D01*
X008119Y008655D02*
X008119Y008495D01*
X023639Y021855D02*
X025399Y023615D01*
X025409Y023642D01*
M02*
