G75*
G70*
%OFA0B0*%
%FSLAX24Y24*%
%IPPOS*%
%LPD*%
%AMOC8*
5,1,8,0,0,1.08239X$1,22.5*
%
%ADD10C,0.0640*%
%ADD11C,0.0730*%
%ADD12R,0.0730X0.0730*%
%ADD13C,0.0720*%
%ADD14C,0.0940*%
%ADD15C,0.0820*%
%ADD16C,0.1380*%
%ADD17R,0.0820X0.0820*%
D10*
X007375Y005655D02*
X007935Y005655D01*
X007935Y006655D02*
X007375Y006655D01*
X007375Y007655D02*
X007935Y007655D01*
X007935Y008655D02*
X007375Y008655D01*
X007375Y009655D02*
X007935Y009655D01*
X007935Y010655D02*
X007375Y010655D01*
X007375Y011655D02*
X007935Y011655D01*
X007935Y012655D02*
X007375Y012655D01*
X007375Y013655D02*
X007935Y013655D01*
X007935Y014655D02*
X007375Y014655D01*
X007375Y015655D02*
X007935Y015655D01*
X007935Y016655D02*
X007375Y016655D01*
X007375Y017655D02*
X007935Y017655D01*
X007935Y018655D02*
X007375Y018655D01*
X010375Y018655D02*
X010935Y018655D01*
X010935Y017655D02*
X010375Y017655D01*
X010375Y016655D02*
X010935Y016655D01*
X010935Y015655D02*
X010375Y015655D01*
X010375Y014655D02*
X010935Y014655D01*
X010935Y013655D02*
X010375Y013655D01*
X010375Y012655D02*
X010935Y012655D01*
X010935Y011655D02*
X010375Y011655D01*
X010375Y010655D02*
X010935Y010655D01*
X010935Y009655D02*
X010375Y009655D01*
X010375Y008655D02*
X010935Y008655D01*
X010935Y007655D02*
X010375Y007655D01*
X010375Y006655D02*
X010935Y006655D01*
X010935Y005655D02*
X010375Y005655D01*
X012875Y009655D02*
X013435Y009655D01*
X013435Y010655D02*
X012875Y010655D01*
X012875Y011655D02*
X013435Y011655D01*
X013435Y012655D02*
X012875Y012655D01*
X012875Y013655D02*
X013435Y013655D01*
X013435Y014655D02*
X012875Y014655D01*
X012875Y015655D02*
X013435Y015655D01*
X013435Y016655D02*
X012875Y016655D01*
X015155Y017875D02*
X015155Y018435D01*
X016155Y018435D02*
X016155Y017875D01*
X017155Y017875D02*
X017155Y018435D01*
X018155Y018435D02*
X018155Y017875D01*
X019155Y017875D02*
X019155Y018435D01*
X020155Y018435D02*
X020155Y017875D01*
X021155Y017875D02*
X021155Y018435D01*
X022155Y018435D02*
X022155Y017875D01*
X018878Y015828D02*
X018482Y015432D01*
X017775Y016139D02*
X018171Y016535D01*
X019585Y015121D02*
X019189Y014725D01*
X019896Y014018D02*
X020292Y014414D01*
X020999Y013707D02*
X020604Y013311D01*
X021311Y012604D02*
X021707Y012999D01*
X022414Y012292D02*
X022018Y011896D01*
X022725Y011189D02*
X023121Y011585D01*
X023828Y010878D02*
X023432Y010482D01*
X024139Y009775D02*
X024535Y010171D01*
X023655Y008435D02*
X023655Y007875D01*
X022655Y007875D02*
X022655Y008435D01*
X021655Y008435D02*
X021655Y007875D01*
X020655Y007875D02*
X020655Y008435D01*
X019655Y008435D02*
X019655Y007875D01*
X018655Y007875D02*
X018655Y008435D01*
X017655Y008435D02*
X017655Y007875D01*
X016655Y007875D02*
X016655Y008435D01*
X016435Y009655D02*
X015875Y009655D01*
X015875Y010655D02*
X016435Y010655D01*
X016435Y011655D02*
X015875Y011655D01*
X015875Y012655D02*
X016435Y012655D01*
X016435Y013655D02*
X015875Y013655D01*
X015875Y014655D02*
X016435Y014655D01*
X016435Y015655D02*
X015875Y015655D01*
X015875Y016655D02*
X016435Y016655D01*
X016155Y020875D02*
X016155Y021435D01*
X015155Y021435D02*
X015155Y020875D01*
X017155Y020875D02*
X017155Y021435D01*
X018155Y021435D02*
X018155Y020875D01*
X019155Y020875D02*
X019155Y021435D01*
X020155Y021435D02*
X020155Y020875D01*
X021155Y020875D02*
X021155Y021435D01*
X022155Y021435D02*
X022155Y020875D01*
X021655Y005435D02*
X021655Y004875D01*
X022655Y004875D02*
X022655Y005435D01*
X023655Y005435D02*
X023655Y004875D01*
X020655Y004875D02*
X020655Y005435D01*
X019655Y005435D02*
X019655Y004875D01*
X018655Y004875D02*
X018655Y005435D01*
X017655Y005435D02*
X017655Y004875D01*
X016655Y004875D02*
X016655Y005435D01*
D11*
X015655Y006155D03*
X015655Y007155D03*
X013655Y008655D03*
X012655Y008655D03*
X015155Y003155D03*
X018655Y002655D03*
X026155Y002655D03*
X026155Y001655D03*
X026155Y003655D03*
X026155Y004655D03*
X026155Y006655D03*
X026155Y007655D03*
X026155Y008655D03*
X026155Y009655D03*
X025655Y012655D03*
X026155Y015655D03*
X026155Y016655D03*
X026155Y017655D03*
X026155Y018655D03*
X026155Y020655D03*
X026155Y021655D03*
X026155Y022655D03*
X026155Y023655D03*
X016155Y022655D03*
X015155Y022655D03*
X013155Y022155D03*
X004155Y022655D03*
X004155Y023655D03*
X004655Y012655D03*
X005655Y012655D03*
X004155Y011655D03*
X004155Y010655D03*
X004155Y009655D03*
X004155Y008655D03*
X005655Y008655D03*
X005655Y010655D03*
X007655Y002655D03*
D12*
X006655Y002655D03*
X015155Y004155D03*
X019655Y002655D03*
X026655Y012655D03*
X013155Y021155D03*
D13*
X009255Y022265D02*
X008615Y022265D01*
X006695Y022265D02*
X006055Y022265D01*
X006055Y024045D02*
X006695Y024045D01*
X008615Y024045D02*
X009255Y024045D01*
X003975Y006155D02*
X003335Y006155D01*
X002475Y006155D02*
X001835Y006155D01*
X001835Y005155D02*
X002475Y005155D01*
X003335Y005155D02*
X003975Y005155D01*
X003975Y004155D02*
X003335Y004155D01*
X002475Y004155D02*
X001835Y004155D01*
D14*
X027725Y003655D02*
X028585Y003655D01*
X028585Y001655D02*
X027725Y001655D01*
X027725Y005655D02*
X028585Y005655D01*
X028585Y007655D02*
X027725Y007655D01*
X027725Y009655D02*
X028585Y009655D01*
X028585Y015655D02*
X027725Y015655D01*
X027725Y017655D02*
X028585Y017655D01*
X028585Y019655D02*
X027725Y019655D01*
X027725Y021655D02*
X028585Y021655D01*
X028585Y023655D02*
X027725Y023655D01*
D15*
X024755Y024155D03*
X024655Y023155D03*
X024755Y022155D03*
X024655Y021155D03*
X024755Y020155D03*
X024655Y019155D03*
X029155Y012105D03*
X012155Y006255D03*
X012155Y002255D03*
X003155Y007655D03*
X001655Y007655D03*
X001655Y011655D03*
X003155Y011655D03*
X003155Y016155D03*
X003155Y017155D03*
X003155Y018155D03*
X003155Y019155D03*
X003155Y020155D03*
X003155Y021155D03*
X005655Y021155D03*
X009655Y021155D03*
D16*
X002155Y002155D03*
X022155Y002155D03*
X022155Y023155D03*
X002155Y023155D03*
D17*
X029155Y013205D03*
M02*
