G75*
G70*
%OFA0B0*%
%FSLAX24Y24*%
%IPPOS*%
%LPD*%
%AMOC8*
5,1,8,0,0,1.08239X$1,22.5*
%
%ADD10C,0.0080*%
%ADD11C,0.0050*%
%ADD12C,0.0030*%
%ADD13C,0.0060*%
%ADD14C,0.0040*%
%ADD15C,0.0010*%
%ADD16C,0.0020*%
D10*
X005875Y002655D02*
X005877Y002726D01*
X005883Y002797D01*
X005893Y002868D01*
X005907Y002937D01*
X005924Y003006D01*
X005946Y003074D01*
X005971Y003141D01*
X006000Y003206D01*
X006032Y003269D01*
X006068Y003331D01*
X006107Y003390D01*
X006150Y003447D01*
X006195Y003502D01*
X006244Y003554D01*
X006295Y003603D01*
X006349Y003649D01*
X006406Y003693D01*
X006464Y003733D01*
X006525Y003769D01*
X006588Y003803D01*
X006653Y003832D01*
X006719Y003858D01*
X006787Y003881D01*
X006855Y003899D01*
X006925Y003914D01*
X006995Y003925D01*
X007066Y003932D01*
X007137Y003935D01*
X007208Y003934D01*
X007279Y003929D01*
X007350Y003920D01*
X007420Y003907D01*
X007489Y003891D01*
X007557Y003870D01*
X007624Y003846D01*
X007690Y003818D01*
X007753Y003786D01*
X007815Y003751D01*
X007875Y003713D01*
X007933Y003671D01*
X007988Y003627D01*
X008041Y003579D01*
X008091Y003528D01*
X008138Y003475D01*
X008182Y003419D01*
X008223Y003361D01*
X008261Y003300D01*
X008295Y003238D01*
X008325Y003173D01*
X008352Y003108D01*
X008376Y003040D01*
X008395Y002972D01*
X008411Y002903D01*
X008423Y002832D01*
X008431Y002762D01*
X008435Y002691D01*
X008435Y002619D01*
X008431Y002548D01*
X008423Y002478D01*
X008411Y002407D01*
X008395Y002338D01*
X008376Y002270D01*
X008352Y002202D01*
X008325Y002137D01*
X008295Y002072D01*
X008261Y002010D01*
X008223Y001949D01*
X008182Y001891D01*
X008138Y001835D01*
X008091Y001782D01*
X008041Y001731D01*
X007988Y001683D01*
X007933Y001639D01*
X007875Y001597D01*
X007815Y001559D01*
X007753Y001524D01*
X007690Y001492D01*
X007624Y001464D01*
X007557Y001440D01*
X007489Y001419D01*
X007420Y001403D01*
X007350Y001390D01*
X007279Y001381D01*
X007208Y001376D01*
X007137Y001375D01*
X007066Y001378D01*
X006995Y001385D01*
X006925Y001396D01*
X006855Y001411D01*
X006787Y001429D01*
X006719Y001452D01*
X006653Y001478D01*
X006588Y001507D01*
X006525Y001541D01*
X006464Y001577D01*
X006406Y001617D01*
X006349Y001661D01*
X006295Y001707D01*
X006244Y001756D01*
X006195Y001808D01*
X006150Y001863D01*
X006107Y001920D01*
X006068Y001979D01*
X006032Y002041D01*
X006000Y002104D01*
X005971Y002169D01*
X005946Y002236D01*
X005924Y002304D01*
X005907Y002373D01*
X005893Y002442D01*
X005883Y002513D01*
X005877Y002584D01*
X005875Y002655D01*
X007405Y002155D02*
X007905Y002155D01*
X011683Y003015D02*
X011683Y005495D01*
X012628Y005495D01*
X012628Y003015D01*
X011683Y003015D01*
X014655Y002905D02*
X014655Y003405D01*
X013875Y003655D02*
X013877Y003726D01*
X013883Y003797D01*
X013893Y003868D01*
X013907Y003937D01*
X013924Y004006D01*
X013946Y004074D01*
X013971Y004141D01*
X014000Y004206D01*
X014032Y004269D01*
X014068Y004331D01*
X014107Y004390D01*
X014150Y004447D01*
X014195Y004502D01*
X014244Y004554D01*
X014295Y004603D01*
X014349Y004649D01*
X014406Y004693D01*
X014464Y004733D01*
X014525Y004769D01*
X014588Y004803D01*
X014653Y004832D01*
X014719Y004858D01*
X014787Y004881D01*
X014855Y004899D01*
X014925Y004914D01*
X014995Y004925D01*
X015066Y004932D01*
X015137Y004935D01*
X015208Y004934D01*
X015279Y004929D01*
X015350Y004920D01*
X015420Y004907D01*
X015489Y004891D01*
X015557Y004870D01*
X015624Y004846D01*
X015690Y004818D01*
X015753Y004786D01*
X015815Y004751D01*
X015875Y004713D01*
X015933Y004671D01*
X015988Y004627D01*
X016041Y004579D01*
X016091Y004528D01*
X016138Y004475D01*
X016182Y004419D01*
X016223Y004361D01*
X016261Y004300D01*
X016295Y004238D01*
X016325Y004173D01*
X016352Y004108D01*
X016376Y004040D01*
X016395Y003972D01*
X016411Y003903D01*
X016423Y003832D01*
X016431Y003762D01*
X016435Y003691D01*
X016435Y003619D01*
X016431Y003548D01*
X016423Y003478D01*
X016411Y003407D01*
X016395Y003338D01*
X016376Y003270D01*
X016352Y003202D01*
X016325Y003137D01*
X016295Y003072D01*
X016261Y003010D01*
X016223Y002949D01*
X016182Y002891D01*
X016138Y002835D01*
X016091Y002782D01*
X016041Y002731D01*
X015988Y002683D01*
X015933Y002639D01*
X015875Y002597D01*
X015815Y002559D01*
X015753Y002524D01*
X015690Y002492D01*
X015624Y002464D01*
X015557Y002440D01*
X015489Y002419D01*
X015420Y002403D01*
X015350Y002390D01*
X015279Y002381D01*
X015208Y002376D01*
X015137Y002375D01*
X015066Y002378D01*
X014995Y002385D01*
X014925Y002396D01*
X014855Y002411D01*
X014787Y002429D01*
X014719Y002452D01*
X014653Y002478D01*
X014588Y002507D01*
X014525Y002541D01*
X014464Y002577D01*
X014406Y002617D01*
X014349Y002661D01*
X014295Y002707D01*
X014244Y002756D01*
X014195Y002808D01*
X014150Y002863D01*
X014107Y002920D01*
X014068Y002979D01*
X014032Y003041D01*
X014000Y003104D01*
X013971Y003169D01*
X013946Y003236D01*
X013924Y003304D01*
X013907Y003373D01*
X013893Y003442D01*
X013883Y003513D01*
X013877Y003584D01*
X013875Y003655D01*
X015405Y006655D02*
X015905Y006655D01*
X013155Y008405D02*
X013155Y008905D01*
X006555Y008305D02*
X006555Y011005D01*
X006553Y011064D01*
X006547Y011122D01*
X006538Y011181D01*
X006524Y011238D01*
X006507Y011294D01*
X006486Y011349D01*
X006462Y011403D01*
X006434Y011455D01*
X006403Y011505D01*
X006369Y011553D01*
X006332Y011598D01*
X006291Y011641D01*
X006248Y011682D01*
X006203Y011719D01*
X006155Y011753D01*
X006105Y011784D01*
X006053Y011812D01*
X005999Y011836D01*
X005944Y011857D01*
X005888Y011874D01*
X005831Y011888D01*
X005772Y011897D01*
X005714Y011903D01*
X005655Y011905D01*
X005596Y011903D01*
X005538Y011897D01*
X005479Y011888D01*
X005422Y011874D01*
X005366Y011857D01*
X005311Y011836D01*
X005257Y011812D01*
X005205Y011784D01*
X005155Y011753D01*
X005107Y011719D01*
X005062Y011682D01*
X005019Y011641D01*
X004978Y011598D01*
X004941Y011553D01*
X004907Y011505D01*
X004876Y011455D01*
X004848Y011403D01*
X004824Y011349D01*
X004803Y011294D01*
X004786Y011238D01*
X004772Y011181D01*
X004763Y011122D01*
X004757Y011064D01*
X004755Y011005D01*
X004755Y008305D01*
X004757Y008246D01*
X004763Y008188D01*
X004772Y008129D01*
X004786Y008072D01*
X004803Y008016D01*
X004824Y007961D01*
X004848Y007907D01*
X004876Y007855D01*
X004907Y007805D01*
X004941Y007757D01*
X004978Y007712D01*
X005019Y007669D01*
X005062Y007628D01*
X005107Y007591D01*
X005155Y007557D01*
X005205Y007526D01*
X005257Y007498D01*
X005311Y007474D01*
X005366Y007453D01*
X005422Y007436D01*
X005479Y007422D01*
X005538Y007413D01*
X005596Y007407D01*
X005655Y007405D01*
X005714Y007407D01*
X005772Y007413D01*
X005831Y007422D01*
X005888Y007436D01*
X005944Y007453D01*
X005999Y007474D01*
X006053Y007498D01*
X006105Y007526D01*
X006155Y007557D01*
X006203Y007591D01*
X006248Y007628D01*
X006291Y007669D01*
X006332Y007712D01*
X006369Y007757D01*
X006403Y007805D01*
X006434Y007855D01*
X006462Y007907D01*
X006486Y007961D01*
X006507Y008016D01*
X006524Y008072D01*
X006538Y008129D01*
X006547Y008188D01*
X006553Y008246D01*
X006555Y008305D01*
X004405Y009155D02*
X003905Y009155D01*
X003628Y008415D02*
X003628Y010895D01*
X002683Y010895D01*
X002683Y008415D01*
X003628Y008415D01*
X002128Y008415D02*
X002128Y010895D01*
X001183Y010895D01*
X001183Y008415D01*
X002128Y008415D01*
X003905Y011155D02*
X004405Y011155D01*
X005155Y012405D02*
X005155Y012905D01*
X003405Y015655D02*
X002905Y015655D01*
X002655Y015905D01*
X002655Y016405D01*
X002905Y016655D01*
X002655Y016905D01*
X002655Y017405D01*
X002905Y017655D01*
X002655Y017905D01*
X002655Y018405D01*
X002905Y018655D01*
X002655Y018905D01*
X002655Y019405D01*
X002905Y019655D01*
X002655Y019905D01*
X002655Y020405D01*
X002905Y020655D01*
X002655Y020905D01*
X002655Y021405D01*
X002905Y021655D01*
X003405Y021655D01*
X003655Y021405D01*
X003655Y020905D01*
X003405Y020655D01*
X003655Y020405D01*
X003655Y019905D01*
X003405Y019655D01*
X003655Y019405D01*
X003655Y018905D01*
X003405Y018655D01*
X003655Y018405D01*
X003655Y017905D01*
X003405Y017655D01*
X003655Y017405D01*
X003655Y016905D01*
X003405Y016655D01*
X003655Y016405D01*
X003655Y015905D01*
X003405Y015655D01*
X002396Y015695D02*
X002186Y015905D01*
X002116Y015835D02*
X002396Y016115D01*
X002116Y016115D02*
X002116Y015695D01*
X001936Y015695D02*
X001655Y015695D01*
X001655Y016115D01*
X001475Y016045D02*
X001475Y015975D01*
X001405Y015905D01*
X001195Y015905D01*
X001195Y015695D02*
X001405Y015695D01*
X001475Y015765D01*
X001475Y015835D01*
X001405Y015905D01*
X001475Y016045D02*
X001405Y016115D01*
X001195Y016115D01*
X001195Y015695D01*
X006415Y020683D02*
X008895Y020683D01*
X008895Y021628D01*
X006415Y021628D01*
X006415Y020683D01*
X004405Y023155D02*
X003905Y023155D01*
X002396Y021615D02*
X002396Y021195D01*
X002116Y021615D01*
X002116Y021195D01*
X001936Y021195D02*
X001796Y021335D01*
X001866Y021335D02*
X001655Y021335D01*
X001655Y021195D02*
X001655Y021615D01*
X001866Y021615D01*
X001936Y021545D01*
X001936Y021405D01*
X001866Y021335D01*
X001475Y021265D02*
X001475Y021405D01*
X001335Y021405D01*
X001195Y021545D02*
X001195Y021265D01*
X001265Y021195D01*
X001405Y021195D01*
X001475Y021265D01*
X001475Y021545D02*
X001405Y021615D01*
X001265Y021615D01*
X001195Y021545D01*
X011875Y021655D02*
X011877Y021726D01*
X011883Y021797D01*
X011893Y021868D01*
X011907Y021937D01*
X011924Y022006D01*
X011946Y022074D01*
X011971Y022141D01*
X012000Y022206D01*
X012032Y022269D01*
X012068Y022331D01*
X012107Y022390D01*
X012150Y022447D01*
X012195Y022502D01*
X012244Y022554D01*
X012295Y022603D01*
X012349Y022649D01*
X012406Y022693D01*
X012464Y022733D01*
X012525Y022769D01*
X012588Y022803D01*
X012653Y022832D01*
X012719Y022858D01*
X012787Y022881D01*
X012855Y022899D01*
X012925Y022914D01*
X012995Y022925D01*
X013066Y022932D01*
X013137Y022935D01*
X013208Y022934D01*
X013279Y022929D01*
X013350Y022920D01*
X013420Y022907D01*
X013489Y022891D01*
X013557Y022870D01*
X013624Y022846D01*
X013690Y022818D01*
X013753Y022786D01*
X013815Y022751D01*
X013875Y022713D01*
X013933Y022671D01*
X013988Y022627D01*
X014041Y022579D01*
X014091Y022528D01*
X014138Y022475D01*
X014182Y022419D01*
X014223Y022361D01*
X014261Y022300D01*
X014295Y022238D01*
X014325Y022173D01*
X014352Y022108D01*
X014376Y022040D01*
X014395Y021972D01*
X014411Y021903D01*
X014423Y021832D01*
X014431Y021762D01*
X014435Y021691D01*
X014435Y021619D01*
X014431Y021548D01*
X014423Y021478D01*
X014411Y021407D01*
X014395Y021338D01*
X014376Y021270D01*
X014352Y021202D01*
X014325Y021137D01*
X014295Y021072D01*
X014261Y021010D01*
X014223Y020949D01*
X014182Y020891D01*
X014138Y020835D01*
X014091Y020782D01*
X014041Y020731D01*
X013988Y020683D01*
X013933Y020639D01*
X013875Y020597D01*
X013815Y020559D01*
X013753Y020524D01*
X013690Y020492D01*
X013624Y020464D01*
X013557Y020440D01*
X013489Y020419D01*
X013420Y020403D01*
X013350Y020390D01*
X013279Y020381D01*
X013208Y020376D01*
X013137Y020375D01*
X013066Y020378D01*
X012995Y020385D01*
X012925Y020396D01*
X012855Y020411D01*
X012787Y020429D01*
X012719Y020452D01*
X012653Y020478D01*
X012588Y020507D01*
X012525Y020541D01*
X012464Y020577D01*
X012406Y020617D01*
X012349Y020661D01*
X012295Y020707D01*
X012244Y020756D01*
X012195Y020808D01*
X012150Y020863D01*
X012107Y020920D01*
X012068Y020979D01*
X012032Y021041D01*
X012000Y021104D01*
X011971Y021169D01*
X011946Y021236D01*
X011924Y021304D01*
X011907Y021373D01*
X011893Y021442D01*
X011883Y021513D01*
X011877Y021584D01*
X011875Y021655D01*
X013655Y021905D02*
X013655Y022405D01*
X015655Y022405D02*
X015655Y022905D01*
X025905Y023155D02*
X026405Y023155D01*
X026405Y021155D02*
X025905Y021155D01*
X025905Y018155D02*
X026405Y018155D01*
X026405Y016155D02*
X025905Y016155D01*
X025905Y013155D02*
X025405Y013155D01*
X024875Y012655D02*
X024877Y012726D01*
X024883Y012797D01*
X024893Y012868D01*
X024907Y012937D01*
X024924Y013006D01*
X024946Y013074D01*
X024971Y013141D01*
X025000Y013206D01*
X025032Y013269D01*
X025068Y013331D01*
X025107Y013390D01*
X025150Y013447D01*
X025195Y013502D01*
X025244Y013554D01*
X025295Y013603D01*
X025349Y013649D01*
X025406Y013693D01*
X025464Y013733D01*
X025525Y013769D01*
X025588Y013803D01*
X025653Y013832D01*
X025719Y013858D01*
X025787Y013881D01*
X025855Y013899D01*
X025925Y013914D01*
X025995Y013925D01*
X026066Y013932D01*
X026137Y013935D01*
X026208Y013934D01*
X026279Y013929D01*
X026350Y013920D01*
X026420Y013907D01*
X026489Y013891D01*
X026557Y013870D01*
X026624Y013846D01*
X026690Y013818D01*
X026753Y013786D01*
X026815Y013751D01*
X026875Y013713D01*
X026933Y013671D01*
X026988Y013627D01*
X027041Y013579D01*
X027091Y013528D01*
X027138Y013475D01*
X027182Y013419D01*
X027223Y013361D01*
X027261Y013300D01*
X027295Y013238D01*
X027325Y013173D01*
X027352Y013108D01*
X027376Y013040D01*
X027395Y012972D01*
X027411Y012903D01*
X027423Y012832D01*
X027431Y012762D01*
X027435Y012691D01*
X027435Y012619D01*
X027431Y012548D01*
X027423Y012478D01*
X027411Y012407D01*
X027395Y012338D01*
X027376Y012270D01*
X027352Y012202D01*
X027325Y012137D01*
X027295Y012072D01*
X027261Y012010D01*
X027223Y011949D01*
X027182Y011891D01*
X027138Y011835D01*
X027091Y011782D01*
X027041Y011731D01*
X026988Y011683D01*
X026933Y011639D01*
X026875Y011597D01*
X026815Y011559D01*
X026753Y011524D01*
X026690Y011492D01*
X026624Y011464D01*
X026557Y011440D01*
X026489Y011419D01*
X026420Y011403D01*
X026350Y011390D01*
X026279Y011381D01*
X026208Y011376D01*
X026137Y011375D01*
X026066Y011378D01*
X025995Y011385D01*
X025925Y011396D01*
X025855Y011411D01*
X025787Y011429D01*
X025719Y011452D01*
X025653Y011478D01*
X025588Y011507D01*
X025525Y011541D01*
X025464Y011577D01*
X025406Y011617D01*
X025349Y011661D01*
X025295Y011707D01*
X025244Y011756D01*
X025195Y011808D01*
X025150Y011863D01*
X025107Y011920D01*
X025068Y011979D01*
X025032Y012041D01*
X025000Y012104D01*
X024971Y012169D01*
X024946Y012236D01*
X024924Y012304D01*
X024907Y012373D01*
X024893Y012442D01*
X024883Y012513D01*
X024877Y012584D01*
X024875Y012655D01*
X025905Y009155D02*
X026405Y009155D01*
X026405Y007155D02*
X025905Y007155D01*
X025905Y004155D02*
X026405Y004155D01*
X026405Y002155D02*
X025905Y002155D01*
X017875Y002655D02*
X017877Y002726D01*
X017883Y002797D01*
X017893Y002868D01*
X017907Y002937D01*
X017924Y003006D01*
X017946Y003074D01*
X017971Y003141D01*
X018000Y003206D01*
X018032Y003269D01*
X018068Y003331D01*
X018107Y003390D01*
X018150Y003447D01*
X018195Y003502D01*
X018244Y003554D01*
X018295Y003603D01*
X018349Y003649D01*
X018406Y003693D01*
X018464Y003733D01*
X018525Y003769D01*
X018588Y003803D01*
X018653Y003832D01*
X018719Y003858D01*
X018787Y003881D01*
X018855Y003899D01*
X018925Y003914D01*
X018995Y003925D01*
X019066Y003932D01*
X019137Y003935D01*
X019208Y003934D01*
X019279Y003929D01*
X019350Y003920D01*
X019420Y003907D01*
X019489Y003891D01*
X019557Y003870D01*
X019624Y003846D01*
X019690Y003818D01*
X019753Y003786D01*
X019815Y003751D01*
X019875Y003713D01*
X019933Y003671D01*
X019988Y003627D01*
X020041Y003579D01*
X020091Y003528D01*
X020138Y003475D01*
X020182Y003419D01*
X020223Y003361D01*
X020261Y003300D01*
X020295Y003238D01*
X020325Y003173D01*
X020352Y003108D01*
X020376Y003040D01*
X020395Y002972D01*
X020411Y002903D01*
X020423Y002832D01*
X020431Y002762D01*
X020435Y002691D01*
X020435Y002619D01*
X020431Y002548D01*
X020423Y002478D01*
X020411Y002407D01*
X020395Y002338D01*
X020376Y002270D01*
X020352Y002202D01*
X020325Y002137D01*
X020295Y002072D01*
X020261Y002010D01*
X020223Y001949D01*
X020182Y001891D01*
X020138Y001835D01*
X020091Y001782D01*
X020041Y001731D01*
X019988Y001683D01*
X019933Y001639D01*
X019875Y001597D01*
X019815Y001559D01*
X019753Y001524D01*
X019690Y001492D01*
X019624Y001464D01*
X019557Y001440D01*
X019489Y001419D01*
X019420Y001403D01*
X019350Y001390D01*
X019279Y001381D01*
X019208Y001376D01*
X019137Y001375D01*
X019066Y001378D01*
X018995Y001385D01*
X018925Y001396D01*
X018855Y001411D01*
X018787Y001429D01*
X018719Y001452D01*
X018653Y001478D01*
X018588Y001507D01*
X018525Y001541D01*
X018464Y001577D01*
X018406Y001617D01*
X018349Y001661D01*
X018295Y001707D01*
X018244Y001756D01*
X018195Y001808D01*
X018150Y001863D01*
X018107Y001920D01*
X018068Y001979D01*
X018032Y002041D01*
X018000Y002104D01*
X017971Y002169D01*
X017946Y002236D01*
X017924Y002304D01*
X017907Y002373D01*
X017893Y002442D01*
X017883Y002513D01*
X017877Y002584D01*
X017875Y002655D01*
X018405Y003155D02*
X018905Y003155D01*
D11*
X012280Y003380D02*
X012280Y003560D01*
X012280Y003470D02*
X012010Y003470D01*
X012100Y003380D01*
X012055Y003675D02*
X012010Y003720D01*
X012010Y003810D01*
X012055Y003855D01*
X012235Y003675D01*
X012280Y003720D01*
X012280Y003810D01*
X012235Y003855D01*
X012055Y003855D01*
X012010Y003969D02*
X012280Y003969D01*
X012190Y003969D02*
X012100Y004104D01*
X012190Y003969D02*
X012280Y004104D01*
X012235Y003675D02*
X012055Y003675D01*
X003280Y008780D02*
X003280Y008960D01*
X003280Y008870D02*
X003010Y008870D01*
X003100Y008780D01*
X003010Y009075D02*
X003100Y009165D01*
X003010Y009255D01*
X003280Y009255D01*
X003280Y009075D02*
X003010Y009075D01*
X001780Y009075D02*
X001510Y009075D01*
X001600Y009165D01*
X001510Y009255D01*
X001780Y009255D01*
X001780Y008960D02*
X001780Y008780D01*
X001780Y008870D02*
X001510Y008870D01*
X001600Y008780D01*
X001330Y012980D02*
X001330Y013064D01*
X001330Y013022D02*
X001080Y013022D01*
X001080Y012980D02*
X001080Y013064D01*
X001163Y013164D02*
X001080Y013248D01*
X001330Y013248D01*
X001330Y013331D02*
X001330Y013164D01*
X001288Y013440D02*
X001122Y013440D01*
X001080Y013482D01*
X001080Y013566D01*
X001122Y013607D01*
X001288Y013607D02*
X001330Y013566D01*
X001330Y013482D01*
X001288Y013440D01*
X001330Y013993D02*
X001163Y013993D01*
X001080Y014076D01*
X001163Y014160D01*
X001330Y014160D01*
X001288Y014269D02*
X001205Y014269D01*
X001163Y014311D01*
X001163Y014436D01*
X001080Y014436D02*
X001330Y014436D01*
X001330Y014311D01*
X001288Y014269D01*
X001205Y014160D02*
X001205Y013993D01*
X001205Y014545D02*
X001163Y014587D01*
X001163Y014712D01*
X001080Y014712D02*
X001330Y014712D01*
X001330Y014587D01*
X001288Y014545D01*
X001205Y014545D01*
X001247Y014822D02*
X001163Y014905D01*
X001163Y014947D01*
X001163Y014822D02*
X001330Y014822D01*
X006780Y021030D02*
X006960Y021030D01*
X006870Y021030D02*
X006870Y021300D01*
X006780Y021210D01*
X007075Y021255D02*
X007075Y021075D01*
X007255Y021255D01*
X007255Y021075D01*
X007210Y021030D01*
X007120Y021030D01*
X007075Y021075D01*
X007075Y021255D02*
X007120Y021300D01*
X007210Y021300D01*
X007255Y021255D01*
X007369Y021300D02*
X007369Y021030D01*
X007369Y021120D02*
X007550Y021300D01*
X007414Y021165D02*
X007550Y021030D01*
X017690Y014155D02*
X017903Y014367D01*
X018009Y014261D01*
X018009Y014190D01*
X017938Y014120D01*
X017867Y014120D01*
X017761Y014226D01*
X018024Y014033D02*
X018095Y014033D01*
X018166Y013963D01*
X018166Y013892D01*
X018060Y013786D01*
X018181Y013735D02*
X018181Y013664D01*
X018252Y013593D01*
X018323Y013593D01*
X018394Y013664D01*
X018394Y013735D01*
X018323Y013806D01*
X018252Y013806D01*
X018181Y013735D01*
X017918Y013927D02*
X018131Y014140D01*
X018515Y013613D02*
X018622Y013507D01*
X018622Y013436D01*
X018515Y013330D01*
X018602Y013244D02*
X018673Y013173D01*
X018637Y013208D02*
X018779Y013350D01*
X018743Y013385D01*
X018849Y013421D02*
X018885Y013456D01*
X018860Y013198D02*
X018789Y013127D01*
X018789Y013056D01*
X018895Y012950D01*
X018982Y012864D02*
X019088Y012758D01*
X019158Y012758D01*
X019194Y012793D01*
X019194Y012864D01*
X019088Y012970D01*
X019037Y013092D02*
X018931Y013198D01*
X018860Y013198D01*
X018982Y012864D02*
X019194Y013076D01*
X019300Y012970D01*
X019300Y012899D01*
X019265Y012864D01*
X019194Y012864D01*
X019316Y012742D02*
X019245Y012671D01*
X019245Y012601D01*
X019316Y012530D01*
X019386Y012530D01*
X019457Y012601D01*
X019457Y012671D01*
X019386Y012742D01*
X019316Y012742D01*
X019579Y012550D02*
X019649Y012479D01*
X019649Y012550D02*
X019508Y012408D01*
X019508Y012337D01*
X019267Y012003D02*
X019196Y012003D01*
X019267Y012003D02*
X019338Y011932D01*
X019338Y011861D01*
X019303Y011826D01*
X019020Y011826D01*
X019161Y011684D01*
X019283Y011633D02*
X019566Y011633D01*
X019424Y011492D01*
X019354Y011492D01*
X019283Y011563D01*
X019283Y011633D01*
X019424Y011775D01*
X019495Y011775D01*
X019566Y011704D01*
X019566Y011633D01*
X019652Y011547D02*
X019723Y011547D01*
X019794Y011476D01*
X019794Y011405D01*
X019511Y011405D01*
X019511Y011335D01*
X019581Y011264D01*
X019652Y011264D01*
X019794Y011405D01*
X019845Y011284D02*
X019986Y011284D01*
X019774Y011071D01*
X019845Y011001D02*
X019703Y011142D01*
X019511Y011405D02*
X019652Y011547D01*
X019888Y011957D02*
X020100Y012028D01*
X020186Y011942D02*
X020328Y011942D01*
X020116Y011730D01*
X020045Y011800D02*
X020186Y011659D01*
X020273Y011573D02*
X020308Y011537D01*
X020343Y011573D01*
X020308Y011608D01*
X020273Y011573D01*
X020386Y011459D02*
X020528Y011317D01*
X020457Y011388D02*
X020670Y011600D01*
X020528Y011600D01*
X019888Y011957D02*
X019958Y012170D01*
X018812Y012246D02*
X018705Y012140D01*
X018812Y012246D02*
X018812Y012317D01*
X018741Y012388D01*
X018670Y012388D01*
X018619Y012509D02*
X018513Y012616D01*
X018442Y012616D01*
X018371Y012545D01*
X018371Y012474D01*
X018478Y012368D01*
X018564Y012282D02*
X018776Y012494D01*
X018394Y012735D02*
X018358Y012770D01*
X018217Y012770D01*
X018146Y012699D02*
X018288Y012841D01*
X018166Y012892D02*
X018060Y012786D01*
X017954Y012892D01*
X017954Y012963D01*
X018024Y012963D01*
X018131Y012856D01*
X018166Y012892D02*
X018166Y012963D01*
X018095Y013033D01*
X018044Y013226D02*
X017832Y013014D01*
X017690Y013155D02*
X017903Y013367D01*
X017903Y013226D01*
X018044Y013226D01*
X018374Y013471D02*
X018515Y013613D01*
X020265Y010793D02*
X020406Y010651D01*
X020614Y010231D02*
X020721Y010125D01*
X020791Y010125D01*
X020933Y010266D01*
X020933Y010337D01*
X020827Y010443D01*
X020614Y010231D01*
X020878Y010038D02*
X020878Y009967D01*
X020948Y009897D01*
X021019Y009897D01*
X021054Y009932D01*
X021054Y010003D01*
X020984Y010074D01*
X020984Y010144D01*
X021019Y010180D01*
X021090Y010180D01*
X021161Y010109D01*
X021161Y010038D01*
X026655Y010655D02*
X030155Y010655D01*
X030155Y004155D01*
X030155Y005155D02*
X030155Y000655D01*
X026655Y000655D01*
X026655Y005155D01*
X026655Y004155D02*
X026655Y010655D01*
X028155Y011655D02*
X028155Y012155D01*
X028655Y012155D01*
X028655Y013155D01*
X028155Y013155D01*
X028155Y013655D01*
X030355Y013655D01*
X030355Y011655D01*
X028155Y011655D01*
X028155Y012155D02*
X028155Y013155D01*
X028280Y013680D02*
X028380Y013780D01*
X028380Y013980D01*
X028502Y013830D02*
X028703Y013830D01*
X028602Y013930D02*
X028602Y013730D01*
X028280Y013680D02*
X028180Y013780D01*
X028180Y013980D01*
X026655Y014655D02*
X030155Y014655D01*
X030155Y019155D01*
X030155Y018155D02*
X030155Y024655D01*
X026655Y024655D01*
X026655Y018155D01*
X025655Y018655D02*
X025655Y019155D01*
X025155Y019155D01*
X025155Y024155D01*
X025655Y024155D01*
X025655Y019155D01*
X025655Y018655D02*
X023455Y018655D01*
X023455Y024655D01*
X025655Y024655D01*
X025655Y024155D01*
X026655Y019155D02*
X026655Y014655D01*
D12*
X024690Y013783D02*
X024583Y013676D01*
X024370Y013676D01*
X024370Y013567D02*
X024423Y013460D01*
X024530Y013354D01*
X024530Y013514D01*
X024583Y013567D01*
X024637Y013567D01*
X024690Y013514D01*
X024690Y013407D01*
X024637Y013354D01*
X024530Y013354D01*
X024690Y013245D02*
X024690Y013031D01*
X024690Y013138D02*
X024370Y013138D01*
X024477Y013031D01*
X024370Y012923D02*
X024690Y012709D01*
X024530Y012494D02*
X024530Y012387D01*
X024477Y012278D02*
X024690Y012278D01*
X024690Y012118D01*
X024637Y012065D01*
X024477Y012065D01*
X024423Y011956D02*
X024637Y011742D01*
X024690Y011742D01*
X024690Y011580D02*
X024370Y011580D01*
X024530Y011420D01*
X024530Y011634D01*
X024370Y011742D02*
X024370Y011956D01*
X024423Y011956D01*
X024370Y012387D02*
X024370Y012600D01*
X024370Y012387D02*
X024690Y012387D01*
X024690Y013783D02*
X024583Y013889D01*
X024370Y013889D01*
X013939Y023277D02*
X013833Y023170D01*
X013726Y023277D01*
X013726Y023490D01*
X013617Y023490D02*
X013510Y023437D01*
X013404Y023330D01*
X013564Y023330D01*
X013617Y023277D01*
X013617Y023223D01*
X013564Y023170D01*
X013457Y023170D01*
X013404Y023223D01*
X013404Y023330D01*
X013295Y023490D02*
X013081Y023170D01*
X012866Y023330D02*
X012759Y023330D01*
X012650Y023384D02*
X012650Y023170D01*
X012490Y023170D01*
X012437Y023223D01*
X012437Y023384D01*
X012328Y023437D02*
X012275Y023490D01*
X012168Y023490D01*
X012115Y023437D01*
X012115Y023223D01*
X012328Y023437D01*
X012328Y023223D01*
X012275Y023170D01*
X012168Y023170D01*
X012115Y023223D01*
X012006Y023223D02*
X011952Y023170D01*
X011846Y023170D01*
X011792Y023223D01*
X012006Y023437D01*
X012006Y023223D01*
X011792Y023223D02*
X011792Y023437D01*
X011846Y023490D01*
X011952Y023490D01*
X012006Y023437D01*
X011684Y023170D02*
X011470Y023170D01*
X011577Y023170D02*
X011577Y023490D01*
X011470Y023384D01*
X012759Y023490D02*
X012759Y023170D01*
X012759Y023490D02*
X012973Y023490D01*
X013939Y023490D02*
X013939Y023277D01*
X003340Y015055D02*
X003340Y014998D01*
X003312Y014970D01*
X003198Y015084D01*
X003312Y015084D01*
X003340Y015055D01*
X003312Y014970D02*
X003198Y014970D01*
X003170Y014998D01*
X003170Y015055D01*
X003198Y015084D01*
X003698Y014602D02*
X003727Y014602D01*
X003755Y014573D01*
X003755Y014488D01*
X003783Y014418D02*
X003812Y014418D01*
X003840Y014389D01*
X003840Y014333D01*
X003812Y014304D01*
X003755Y014333D02*
X003755Y014389D01*
X003783Y014418D01*
X003698Y014418D02*
X003670Y014389D01*
X003670Y014333D01*
X003698Y014304D01*
X003727Y014304D01*
X003755Y014333D01*
X003840Y014234D02*
X003840Y014120D01*
X003670Y014120D01*
X003670Y014488D02*
X003670Y014573D01*
X003698Y014602D01*
X003755Y014573D02*
X003783Y014602D01*
X003812Y014602D01*
X003840Y014573D01*
X003840Y014488D01*
X003670Y014488D01*
X003698Y013652D02*
X003727Y013652D01*
X003755Y013623D01*
X003755Y013538D01*
X003783Y013468D02*
X003812Y013468D01*
X003840Y013439D01*
X003840Y013383D01*
X003812Y013354D01*
X003755Y013383D02*
X003755Y013439D01*
X003783Y013468D01*
X003698Y013468D02*
X003670Y013439D01*
X003670Y013383D01*
X003698Y013354D01*
X003727Y013354D01*
X003755Y013383D01*
X003670Y013284D02*
X003840Y013284D01*
X003840Y013170D02*
X003670Y013170D01*
X003727Y013227D01*
X003670Y013284D01*
X003670Y013538D02*
X003670Y013623D01*
X003698Y013652D01*
X003755Y013623D02*
X003783Y013652D01*
X003812Y013652D01*
X003840Y013623D01*
X003840Y013538D01*
X003670Y013538D01*
X001840Y014970D02*
X001840Y015084D01*
X001840Y015027D02*
X001670Y015027D01*
X001727Y014970D01*
X001920Y018488D02*
X001920Y018702D01*
X001920Y018811D02*
X001920Y019024D01*
X001920Y018917D02*
X002240Y018917D01*
X002240Y019133D02*
X001920Y019133D01*
X001920Y019293D01*
X001973Y019346D01*
X002187Y019346D01*
X002240Y019293D01*
X002240Y019133D01*
X002240Y019455D02*
X002240Y019562D01*
X002240Y019509D02*
X001920Y019509D01*
X001920Y019562D02*
X001920Y019455D01*
X002080Y018595D02*
X002080Y018488D01*
X002240Y018488D02*
X001920Y018488D01*
X005370Y003569D02*
X005563Y003569D01*
X005660Y003472D01*
X005563Y003375D01*
X005370Y003375D01*
X005370Y003274D02*
X005418Y003178D01*
X005515Y003081D01*
X005515Y003226D01*
X005563Y003274D01*
X005612Y003274D01*
X005660Y003226D01*
X005660Y003129D01*
X005612Y003081D01*
X005515Y003081D01*
X005370Y002980D02*
X005660Y002786D01*
X005515Y002588D02*
X005515Y002491D01*
X005467Y002390D02*
X005660Y002390D01*
X005660Y002245D01*
X005612Y002197D01*
X005467Y002197D01*
X005418Y002096D02*
X005612Y001902D01*
X005660Y001951D01*
X005660Y002047D01*
X005612Y002096D01*
X005418Y002096D01*
X005370Y002047D01*
X005370Y001951D01*
X005418Y001902D01*
X005612Y001902D01*
X005612Y001801D02*
X005660Y001753D01*
X005660Y001656D01*
X005612Y001608D01*
X005418Y001801D01*
X005612Y001801D01*
X005612Y001608D02*
X005418Y001608D01*
X005370Y001656D01*
X005370Y001753D01*
X005418Y001801D01*
X005660Y001506D02*
X005660Y001313D01*
X005660Y001410D02*
X005370Y001410D01*
X005467Y001313D01*
X005370Y002491D02*
X005370Y002685D01*
X005370Y002491D02*
X005660Y002491D01*
X013642Y002084D02*
X013749Y002190D01*
X013749Y001870D01*
X013855Y001870D02*
X013642Y001870D01*
X013964Y001923D02*
X013964Y002137D01*
X014018Y002190D01*
X014124Y002190D01*
X014178Y002137D01*
X013964Y001923D01*
X014018Y001870D01*
X014124Y001870D01*
X014178Y001923D01*
X014178Y002137D01*
X014286Y002137D02*
X014340Y002190D01*
X014447Y002190D01*
X014500Y002137D01*
X014286Y001923D01*
X014340Y001870D01*
X014447Y001870D01*
X014500Y001923D01*
X014500Y002137D01*
X014609Y002084D02*
X014609Y001923D01*
X014662Y001870D01*
X014822Y001870D01*
X014822Y002084D01*
X014931Y002030D02*
X015038Y002030D01*
X014931Y001870D02*
X014931Y002190D01*
X015144Y002190D01*
X015467Y002190D02*
X015253Y001870D01*
X015575Y001923D02*
X015629Y001870D01*
X015736Y001870D01*
X015789Y001923D01*
X015789Y001977D01*
X015736Y002030D01*
X015575Y002030D01*
X015575Y001923D01*
X015575Y002030D02*
X015682Y002137D01*
X015789Y002190D01*
X015898Y002190D02*
X015898Y001977D01*
X016004Y001870D01*
X016111Y001977D01*
X016111Y002190D01*
X014286Y002137D02*
X014286Y001923D01*
X018420Y001130D02*
X018634Y001130D01*
X018742Y001023D02*
X018742Y000970D01*
X018742Y001023D02*
X018956Y001237D01*
X018956Y001290D01*
X018742Y001290D01*
X018580Y001290D02*
X018420Y001130D01*
X018580Y000970D02*
X018580Y001290D01*
X019065Y001184D02*
X019065Y001023D01*
X019118Y000970D01*
X019278Y000970D01*
X019278Y001184D01*
X019387Y001130D02*
X019494Y001130D01*
X019600Y001290D02*
X019387Y001290D01*
X019387Y000970D01*
X019709Y000970D02*
X019923Y001290D01*
X020031Y001184D02*
X020138Y001290D01*
X020138Y000970D01*
X020031Y000970D02*
X020245Y000970D01*
X020354Y001023D02*
X020407Y000970D01*
X020514Y000970D01*
X020567Y001023D01*
X020567Y001077D01*
X020514Y001130D01*
X020354Y001130D01*
X020354Y001023D01*
X020354Y001130D02*
X020460Y001237D01*
X020567Y001290D01*
X020676Y001290D02*
X020676Y001077D01*
X020783Y000970D01*
X020889Y001077D01*
X020889Y001290D01*
D13*
X001905Y003655D02*
X001655Y003905D01*
X001655Y004405D01*
X001905Y004655D01*
X001655Y004905D01*
X001655Y005405D01*
X001905Y005655D01*
X001655Y005905D01*
X001655Y006405D01*
X001905Y006655D01*
X002405Y006655D01*
X002655Y006405D01*
X002655Y005905D01*
X002405Y005655D01*
X002655Y005405D01*
X002655Y004905D01*
X002405Y004655D01*
X002655Y004405D01*
X002655Y003905D01*
X002405Y003655D01*
X001905Y003655D01*
X001905Y004655D02*
X002405Y004655D01*
X003155Y004405D02*
X003405Y004655D01*
X003155Y004905D01*
X003155Y005405D01*
X003405Y005655D01*
X003155Y005905D01*
X003155Y006405D01*
X003405Y006655D01*
X003905Y006655D01*
X004155Y006405D01*
X004155Y005905D01*
X003905Y005655D01*
X004155Y005405D01*
X004155Y004905D01*
X003905Y004655D01*
X004155Y004405D01*
X004155Y003905D01*
X003905Y003655D01*
X003405Y003655D01*
X003155Y003905D01*
X003155Y004405D01*
X003405Y004655D02*
X003905Y004655D01*
X003905Y005655D02*
X003405Y005655D01*
X002405Y005655D02*
X001905Y005655D01*
X008055Y004855D02*
X010255Y004855D01*
X010255Y019455D01*
X009405Y019455D01*
X009403Y019425D01*
X009398Y019395D01*
X009389Y019366D01*
X009376Y019339D01*
X009361Y019313D01*
X009342Y019289D01*
X009321Y019268D01*
X009297Y019249D01*
X009271Y019234D01*
X009244Y019221D01*
X009215Y019212D01*
X009185Y019207D01*
X009155Y019205D01*
X009125Y019207D01*
X009095Y019212D01*
X009066Y019221D01*
X009039Y019234D01*
X009013Y019249D01*
X008989Y019268D01*
X008968Y019289D01*
X008949Y019313D01*
X008934Y019339D01*
X008921Y019366D01*
X008912Y019395D01*
X008907Y019425D01*
X008905Y019455D01*
X008055Y019455D01*
X008055Y004855D01*
X013505Y009155D02*
X014255Y009155D01*
X014257Y009194D01*
X014263Y009233D01*
X014272Y009271D01*
X014285Y009308D01*
X014302Y009344D01*
X014322Y009377D01*
X014346Y009409D01*
X014372Y009438D01*
X014401Y009464D01*
X014433Y009488D01*
X014466Y009508D01*
X014502Y009525D01*
X014539Y009538D01*
X014577Y009547D01*
X014616Y009553D01*
X014655Y009555D01*
X014694Y009553D01*
X014733Y009547D01*
X014771Y009538D01*
X014808Y009525D01*
X014844Y009508D01*
X014877Y009488D01*
X014909Y009464D01*
X014938Y009438D01*
X014964Y009409D01*
X014988Y009377D01*
X015008Y009344D01*
X015025Y009308D01*
X015038Y009271D01*
X015047Y009233D01*
X015053Y009194D01*
X015055Y009155D01*
X015805Y009155D01*
X015805Y017155D01*
X013505Y017155D01*
X013505Y009155D01*
X016155Y007805D02*
X016155Y007055D01*
X016194Y007053D01*
X016233Y007047D01*
X016271Y007038D01*
X016308Y007025D01*
X016344Y007008D01*
X016377Y006988D01*
X016409Y006964D01*
X016438Y006938D01*
X016464Y006909D01*
X016488Y006877D01*
X016508Y006844D01*
X016525Y006808D01*
X016538Y006771D01*
X016547Y006733D01*
X016553Y006694D01*
X016555Y006655D01*
X016553Y006616D01*
X016547Y006577D01*
X016538Y006539D01*
X016525Y006502D01*
X016508Y006466D01*
X016488Y006433D01*
X016464Y006401D01*
X016438Y006372D01*
X016409Y006346D01*
X016377Y006322D01*
X016344Y006302D01*
X016308Y006285D01*
X016271Y006272D01*
X016233Y006263D01*
X016194Y006257D01*
X016155Y006255D01*
X016155Y005505D01*
X024155Y005505D01*
X024155Y007805D01*
X016155Y007805D01*
X017973Y015630D02*
X024337Y009266D01*
X025044Y009973D01*
X018680Y016337D01*
X017973Y017044D01*
X017973Y016691D01*
X017973Y017044D02*
X017266Y016337D01*
X017973Y015630D01*
X018680Y016337D01*
X018327Y016337D01*
X017973Y015984D02*
X017973Y015630D01*
X017620Y016337D02*
X017266Y016337D01*
X014655Y018505D02*
X014655Y019255D01*
X014694Y019257D01*
X014733Y019263D01*
X014771Y019272D01*
X014808Y019285D01*
X014844Y019302D01*
X014877Y019322D01*
X014909Y019346D01*
X014938Y019372D01*
X014964Y019401D01*
X014988Y019433D01*
X015008Y019466D01*
X015025Y019502D01*
X015038Y019539D01*
X015047Y019577D01*
X015053Y019616D01*
X015055Y019655D01*
X015053Y019694D01*
X015047Y019733D01*
X015038Y019771D01*
X015025Y019808D01*
X015008Y019844D01*
X014988Y019877D01*
X014964Y019909D01*
X014938Y019938D01*
X014909Y019964D01*
X014877Y019988D01*
X014844Y020008D01*
X014808Y020025D01*
X014771Y020038D01*
X014733Y020047D01*
X014694Y020053D01*
X014655Y020055D01*
X014655Y020805D01*
X022655Y020805D01*
X022655Y018505D01*
X014655Y018505D01*
X008955Y022855D02*
X008955Y023455D01*
X008855Y023455D01*
X008855Y023555D01*
X008855Y022855D02*
X008855Y022755D01*
X008855Y022855D02*
X008955Y022855D01*
X008505Y021955D02*
X008155Y021955D01*
X007155Y021955D01*
X006805Y021955D01*
X006455Y022755D02*
X006455Y022855D01*
X006355Y022855D01*
X006355Y023455D01*
X006455Y023455D01*
X006455Y023555D01*
X006805Y024355D02*
X007205Y024355D01*
X008155Y024355D01*
X008505Y024355D01*
X007555Y023155D02*
X007557Y023175D01*
X007563Y023193D01*
X007572Y023211D01*
X007584Y023226D01*
X007599Y023238D01*
X007617Y023247D01*
X007635Y023253D01*
X007655Y023255D01*
X007675Y023253D01*
X007693Y023247D01*
X007711Y023238D01*
X007726Y023226D01*
X007738Y023211D01*
X007747Y023193D01*
X007753Y023175D01*
X007755Y023155D01*
X007753Y023135D01*
X007747Y023117D01*
X007738Y023099D01*
X007726Y023084D01*
X007711Y023072D01*
X007693Y023063D01*
X007675Y023057D01*
X007655Y023055D01*
X007635Y023057D01*
X007617Y023063D01*
X007599Y023072D01*
X007584Y023084D01*
X007572Y023099D01*
X007563Y023117D01*
X007557Y023135D01*
X007555Y023155D01*
X006955Y023155D02*
X006957Y023207D01*
X006963Y023259D01*
X006973Y023311D01*
X006986Y023361D01*
X007003Y023411D01*
X007024Y023459D01*
X007049Y023505D01*
X007077Y023549D01*
X007108Y023591D01*
X007142Y023631D01*
X007179Y023668D01*
X007219Y023702D01*
X007261Y023733D01*
X007305Y023761D01*
X007351Y023786D01*
X007399Y023807D01*
X007449Y023824D01*
X007499Y023837D01*
X007551Y023847D01*
X007603Y023853D01*
X007655Y023855D01*
X007707Y023853D01*
X007759Y023847D01*
X007811Y023837D01*
X007861Y023824D01*
X007911Y023807D01*
X007959Y023786D01*
X008005Y023761D01*
X008049Y023733D01*
X008091Y023702D01*
X008131Y023668D01*
X008168Y023631D01*
X008202Y023591D01*
X008233Y023549D01*
X008261Y023505D01*
X008286Y023459D01*
X008307Y023411D01*
X008324Y023361D01*
X008337Y023311D01*
X008347Y023259D01*
X008353Y023207D01*
X008355Y023155D01*
X008353Y023103D01*
X008347Y023051D01*
X008337Y022999D01*
X008324Y022949D01*
X008307Y022899D01*
X008286Y022851D01*
X008261Y022805D01*
X008233Y022761D01*
X008202Y022719D01*
X008168Y022679D01*
X008131Y022642D01*
X008091Y022608D01*
X008049Y022577D01*
X008005Y022549D01*
X007959Y022524D01*
X007911Y022503D01*
X007861Y022486D01*
X007811Y022473D01*
X007759Y022463D01*
X007707Y022457D01*
X007655Y022455D01*
X007603Y022457D01*
X007551Y022463D01*
X007499Y022473D01*
X007449Y022486D01*
X007399Y022503D01*
X007351Y022524D01*
X007305Y022549D01*
X007261Y022577D01*
X007219Y022608D01*
X007179Y022642D01*
X007142Y022679D01*
X007108Y022719D01*
X007077Y022761D01*
X007049Y022805D01*
X007024Y022851D01*
X007003Y022899D01*
X006986Y022949D01*
X006973Y022999D01*
X006963Y023051D01*
X006957Y023103D01*
X006955Y023155D01*
X003355Y014755D02*
X001655Y014755D01*
X001638Y014753D01*
X001621Y014749D01*
X001605Y014742D01*
X001591Y014732D01*
X001578Y014719D01*
X001568Y014705D01*
X001561Y014689D01*
X001557Y014672D01*
X001555Y014655D01*
X001555Y014055D01*
X001557Y014038D01*
X001561Y014021D01*
X001568Y014005D01*
X001578Y013991D01*
X001591Y013978D01*
X001605Y013968D01*
X001621Y013961D01*
X001638Y013957D01*
X001655Y013955D01*
X003355Y013955D01*
X003372Y013957D01*
X003389Y013961D01*
X003405Y013968D01*
X003419Y013978D01*
X003432Y013991D01*
X003442Y014005D01*
X003449Y014021D01*
X003453Y014038D01*
X003455Y014055D01*
X003455Y014655D01*
X003453Y014672D01*
X003449Y014689D01*
X003442Y014705D01*
X003432Y014719D01*
X003419Y014732D01*
X003405Y014742D01*
X003389Y014749D01*
X003372Y014753D01*
X003355Y014755D01*
X003355Y013755D02*
X001655Y013755D01*
X001638Y013753D01*
X001621Y013749D01*
X001605Y013742D01*
X001591Y013732D01*
X001578Y013719D01*
X001568Y013705D01*
X001561Y013689D01*
X001557Y013672D01*
X001555Y013655D01*
X001555Y013055D01*
X001557Y013038D01*
X001561Y013021D01*
X001568Y013005D01*
X001578Y012991D01*
X001591Y012978D01*
X001605Y012968D01*
X001621Y012961D01*
X001638Y012957D01*
X001655Y012955D01*
X003355Y012955D01*
X003372Y012957D01*
X003389Y012961D01*
X003405Y012968D01*
X003419Y012978D01*
X003432Y012991D01*
X003442Y013005D01*
X003449Y013021D01*
X003453Y013038D01*
X003455Y013055D01*
X003455Y013655D01*
X003453Y013672D01*
X003449Y013689D01*
X003442Y013705D01*
X003432Y013719D01*
X003419Y013732D01*
X003405Y013742D01*
X003389Y013749D01*
X003372Y013753D01*
X003355Y013755D01*
D14*
X006128Y010760D02*
X006335Y010553D01*
X006335Y010760D01*
X006128Y010760D02*
X006128Y010553D01*
X006180Y010437D02*
X006180Y010231D01*
X006335Y010231D02*
X006025Y010231D01*
X006025Y010115D02*
X006335Y010115D01*
X006335Y009908D02*
X006025Y009908D01*
X006128Y010012D01*
X006025Y010115D01*
X006025Y009793D02*
X006077Y009689D01*
X006180Y009586D01*
X006180Y009741D01*
X006232Y009793D01*
X006283Y009793D01*
X006335Y009741D01*
X006335Y009638D01*
X006283Y009586D01*
X006180Y009586D01*
X006335Y009471D02*
X006335Y009264D01*
X006335Y009367D02*
X006025Y009367D01*
X006128Y009264D01*
X006025Y010437D02*
X006335Y010437D01*
X004955Y006039D02*
X004955Y005833D01*
X004748Y006039D01*
X004697Y006039D01*
X004645Y005988D01*
X004645Y005884D01*
X004697Y005833D01*
X005007Y005717D02*
X005007Y005510D01*
X004903Y005395D02*
X004697Y005395D01*
X004645Y005343D01*
X004645Y005240D01*
X004697Y005188D01*
X004903Y005188D01*
X004955Y005240D01*
X004955Y005343D01*
X004903Y005395D01*
X004852Y005073D02*
X004645Y005073D01*
X004852Y005073D02*
X004955Y004969D01*
X004852Y004866D01*
X004645Y004866D01*
X004697Y004751D02*
X004800Y004751D01*
X004852Y004699D01*
X004852Y004544D01*
X004852Y004647D02*
X004955Y004751D01*
X004955Y004544D02*
X004645Y004544D01*
X004645Y004699D01*
X004697Y004751D01*
X004645Y004428D02*
X004645Y004221D01*
X004955Y004221D01*
X004955Y004428D01*
X004800Y004325D02*
X004800Y004221D01*
X004852Y004106D02*
X004903Y004106D01*
X004955Y004054D01*
X004955Y003951D01*
X004903Y003899D01*
X004800Y003951D02*
X004800Y004054D01*
X004852Y004106D01*
X004697Y004106D02*
X004645Y004054D01*
X004645Y003951D01*
X004697Y003899D01*
X004748Y003899D01*
X004800Y003951D01*
X001205Y004001D02*
X001153Y003949D01*
X001205Y004001D02*
X001205Y004104D01*
X001153Y004156D01*
X001102Y004156D01*
X001050Y004104D01*
X001050Y004001D01*
X000998Y003949D01*
X000947Y003949D01*
X000895Y004001D01*
X000895Y004104D01*
X000947Y004156D01*
X000895Y004271D02*
X001205Y004271D01*
X001205Y004478D01*
X001205Y004594D02*
X000895Y004594D01*
X000895Y004749D01*
X000947Y004801D01*
X001050Y004801D01*
X001102Y004749D01*
X001102Y004594D01*
X001102Y004697D02*
X001205Y004801D01*
X001102Y004916D02*
X000895Y004916D01*
X001102Y004916D02*
X001205Y005019D01*
X001102Y005123D01*
X000895Y005123D01*
X000947Y005238D02*
X001153Y005238D01*
X001205Y005290D01*
X001205Y005393D01*
X001153Y005445D01*
X000947Y005445D01*
X000895Y005393D01*
X000895Y005290D01*
X000947Y005238D01*
X001257Y005560D02*
X001257Y005767D01*
X001205Y005883D02*
X001205Y006089D01*
X001205Y005986D02*
X000895Y005986D01*
X000998Y005883D01*
X000895Y004478D02*
X000895Y004271D01*
X001050Y004271D02*
X001050Y004375D01*
X009028Y015202D02*
X008925Y015306D01*
X009028Y015409D01*
X009235Y015409D01*
X009080Y015409D02*
X009080Y015202D01*
X009028Y015202D02*
X009235Y015202D01*
X008925Y015525D02*
X008925Y015731D01*
X008925Y015628D02*
X009235Y015628D01*
X009183Y015847D02*
X009235Y015899D01*
X009235Y016002D01*
X009183Y016054D01*
X008977Y016054D01*
X008925Y016002D01*
X008925Y015899D01*
X008977Y015847D01*
X009028Y015847D01*
X009080Y015899D01*
X009080Y016054D01*
X009183Y016169D02*
X008977Y016376D01*
X009183Y016376D01*
X009235Y016324D01*
X009235Y016221D01*
X009183Y016169D01*
X008977Y016169D01*
X008925Y016221D01*
X008925Y016324D01*
X008977Y016376D01*
X008977Y016491D02*
X009028Y016491D01*
X009080Y016543D01*
X009080Y016646D01*
X009132Y016698D01*
X009183Y016698D01*
X009235Y016646D01*
X009235Y016543D01*
X009183Y016491D01*
X008977Y016491D02*
X008925Y016543D01*
X008925Y016646D01*
X008977Y016698D01*
X009080Y016814D02*
X009080Y017020D01*
X009080Y017136D02*
X009080Y017343D01*
X009183Y017458D02*
X009235Y017510D01*
X009235Y017613D01*
X009183Y017665D01*
X009132Y017665D01*
X009080Y017613D01*
X009080Y017561D01*
X009080Y017613D02*
X009028Y017665D01*
X008977Y017665D01*
X008925Y017613D01*
X008925Y017510D01*
X008977Y017458D01*
X008925Y017291D02*
X009080Y017136D01*
X009235Y017291D02*
X008925Y017291D01*
X008925Y016969D02*
X009080Y016814D01*
X009235Y016969D02*
X008925Y016969D01*
X008977Y017780D02*
X008925Y017832D01*
X008925Y017935D01*
X008977Y017987D01*
X009028Y017987D01*
X009080Y017935D01*
X009132Y017987D01*
X009183Y017987D01*
X009235Y017935D01*
X009235Y017832D01*
X009183Y017780D01*
X009080Y017884D02*
X009080Y017935D01*
X009132Y018103D02*
X009132Y018258D01*
X009080Y018309D01*
X008977Y018309D01*
X008925Y018258D01*
X008925Y018103D01*
X009235Y018103D01*
X005485Y022764D02*
X005175Y022764D01*
X005175Y022919D01*
X005227Y022971D01*
X005330Y022971D01*
X005382Y022919D01*
X005382Y022764D01*
X005382Y022867D02*
X005485Y022971D01*
X005485Y023086D02*
X005485Y023293D01*
X005433Y023408D02*
X005485Y023460D01*
X005485Y023563D01*
X005433Y023615D01*
X005382Y023615D01*
X005330Y023563D01*
X005330Y023460D01*
X005278Y023408D01*
X005227Y023408D01*
X005175Y023460D01*
X005175Y023563D01*
X005227Y023615D01*
X005175Y023731D02*
X005485Y023731D01*
X005485Y023937D01*
X005330Y023834D02*
X005330Y023731D01*
X005175Y023731D02*
X005175Y023937D01*
X005175Y024053D02*
X005175Y024260D01*
X005175Y024156D02*
X005485Y024156D01*
X005175Y023293D02*
X005175Y023086D01*
X005485Y023086D01*
X005330Y023086D02*
X005330Y023189D01*
X015725Y019735D02*
X015725Y019425D01*
X015932Y019425D01*
X016047Y019425D02*
X016254Y019632D01*
X016254Y019684D01*
X016202Y019735D01*
X016099Y019735D01*
X016047Y019684D01*
X016047Y019425D02*
X016254Y019425D01*
X016370Y019477D02*
X016421Y019425D01*
X016525Y019425D01*
X016576Y019477D01*
X016576Y019684D01*
X016525Y019735D01*
X016421Y019735D01*
X016370Y019684D01*
X016370Y019632D01*
X016421Y019580D01*
X016576Y019580D01*
X016692Y019477D02*
X016744Y019425D01*
X016847Y019425D01*
X016899Y019477D01*
X016899Y019529D01*
X016847Y019580D01*
X016795Y019580D01*
X016847Y019580D02*
X016899Y019632D01*
X016899Y019684D01*
X016847Y019735D01*
X016744Y019735D01*
X016692Y019684D01*
X017014Y019735D02*
X017014Y019425D01*
X017169Y019425D01*
X017221Y019477D01*
X017221Y019684D01*
X017169Y019735D01*
X017014Y019735D01*
X014885Y013010D02*
X014575Y013010D01*
X014575Y012803D02*
X014885Y013010D01*
X014885Y012803D02*
X014575Y012803D01*
X014575Y012688D02*
X014575Y012481D01*
X014730Y012481D01*
X014678Y012584D01*
X014678Y012636D01*
X014730Y012688D01*
X014833Y012688D01*
X014885Y012636D01*
X014885Y012533D01*
X014833Y012481D01*
X014833Y012365D02*
X014627Y012365D01*
X014575Y012314D01*
X014575Y012210D01*
X014627Y012159D01*
X014678Y012159D01*
X014730Y012210D01*
X014730Y012365D01*
X014833Y012365D02*
X014885Y012314D01*
X014885Y012210D01*
X014833Y012159D01*
X014833Y012043D02*
X014885Y011991D01*
X014885Y011888D01*
X014833Y011836D01*
X014730Y011836D02*
X014678Y011940D01*
X014678Y011991D01*
X014730Y012043D01*
X014833Y012043D01*
X014730Y011836D02*
X014575Y011836D01*
X014575Y012043D01*
X014575Y011721D02*
X014575Y011514D01*
X014575Y011617D02*
X014885Y011617D01*
X014833Y011399D02*
X014885Y011347D01*
X014885Y011244D01*
X014833Y011192D01*
X014627Y011192D01*
X014575Y011244D01*
X014575Y011347D01*
X014627Y011399D01*
X014575Y011076D02*
X014885Y011076D01*
X014730Y011076D02*
X014730Y010870D01*
X014730Y010754D02*
X014730Y010547D01*
X014575Y010702D01*
X014885Y010702D01*
X014885Y010870D02*
X014575Y010870D01*
X014575Y010432D02*
X014627Y010432D01*
X014833Y010225D01*
X014885Y010225D01*
X014575Y010225D02*
X014575Y010432D01*
X017225Y006735D02*
X017225Y006425D01*
X017432Y006425D01*
X017547Y006425D02*
X017754Y006632D01*
X017754Y006684D01*
X017702Y006735D01*
X017599Y006735D01*
X017547Y006684D01*
X017547Y006425D02*
X017754Y006425D01*
X017870Y006477D02*
X017921Y006425D01*
X018025Y006425D01*
X018076Y006477D01*
X018076Y006684D01*
X018025Y006735D01*
X017921Y006735D01*
X017870Y006684D01*
X017870Y006632D01*
X017921Y006580D01*
X018076Y006580D01*
X018192Y006477D02*
X018244Y006425D01*
X018347Y006425D01*
X018399Y006477D01*
X018399Y006529D01*
X018347Y006580D01*
X018295Y006580D01*
X018347Y006580D02*
X018399Y006632D01*
X018399Y006684D01*
X018347Y006735D01*
X018244Y006735D01*
X018192Y006684D01*
X018514Y006735D02*
X018514Y006425D01*
X018669Y006425D01*
X018721Y006477D01*
X018721Y006684D01*
X018669Y006735D01*
X018514Y006735D01*
D15*
X015160Y006740D02*
X015160Y006816D01*
X015060Y006816D01*
X015085Y006863D02*
X015085Y006913D01*
X015010Y006863D02*
X015010Y006963D01*
X015010Y006863D02*
X015160Y006863D01*
X015160Y006740D02*
X015135Y006715D01*
X015060Y006715D01*
X015010Y006618D02*
X015160Y006618D01*
X015160Y006568D02*
X015160Y006668D01*
X015060Y006568D02*
X015010Y006618D01*
X015135Y006519D02*
X015160Y006519D01*
X015160Y006494D01*
X015135Y006494D01*
X015135Y006519D01*
X015135Y006447D02*
X015160Y006422D01*
X015160Y006372D01*
X015135Y006347D01*
X015035Y006447D01*
X015135Y006447D01*
X015135Y006347D02*
X015035Y006347D01*
X015010Y006372D01*
X015010Y006422D01*
X015035Y006447D01*
X011963Y008500D02*
X011963Y008650D01*
X012063Y008650D01*
X012013Y008575D02*
X011963Y008575D01*
X011916Y008600D02*
X011916Y008500D01*
X011840Y008500D01*
X011815Y008525D01*
X011815Y008600D01*
X011718Y008650D02*
X011718Y008500D01*
X011668Y008500D02*
X011768Y008500D01*
X011668Y008600D02*
X011718Y008650D01*
X011619Y008525D02*
X011619Y008500D01*
X011594Y008500D01*
X011594Y008525D01*
X011619Y008525D01*
X011547Y008525D02*
X011522Y008500D01*
X011472Y008500D01*
X011447Y008525D01*
X011547Y008625D01*
X011547Y008525D01*
X011447Y008525D02*
X011447Y008625D01*
X011472Y008650D01*
X011522Y008650D01*
X011547Y008625D01*
X025560Y008922D02*
X025560Y008972D01*
X025585Y008997D01*
X025685Y008897D01*
X025710Y008922D01*
X025710Y008972D01*
X025685Y008997D01*
X025585Y008997D01*
X025560Y008922D02*
X025585Y008897D01*
X025685Y008897D01*
X025685Y009044D02*
X025685Y009069D01*
X025710Y009069D01*
X025710Y009044D01*
X025685Y009044D01*
X025710Y009118D02*
X025710Y009218D01*
X025710Y009168D02*
X025560Y009168D01*
X025610Y009118D01*
X025610Y009265D02*
X025685Y009265D01*
X025710Y009290D01*
X025710Y009366D01*
X025610Y009366D01*
X025635Y009413D02*
X025635Y009463D01*
X025560Y009413D02*
X025560Y009513D01*
X025560Y009413D02*
X025710Y009413D01*
X025560Y007513D02*
X025560Y007413D01*
X025710Y007413D01*
X025710Y007366D02*
X025610Y007366D01*
X025635Y007413D02*
X025635Y007463D01*
X025710Y007366D02*
X025710Y007290D01*
X025685Y007265D01*
X025610Y007265D01*
X025560Y007168D02*
X025710Y007168D01*
X025710Y007118D02*
X025710Y007218D01*
X025610Y007118D02*
X025560Y007168D01*
X025685Y007069D02*
X025710Y007069D01*
X025710Y007044D01*
X025685Y007044D01*
X025685Y007069D01*
X025685Y006997D02*
X025710Y006972D01*
X025710Y006922D01*
X025685Y006897D01*
X025585Y006997D01*
X025685Y006997D01*
X025685Y006897D02*
X025585Y006897D01*
X025560Y006922D01*
X025560Y006972D01*
X025585Y006997D01*
X025500Y004526D02*
X025500Y004426D01*
X025650Y004426D01*
X025650Y004379D02*
X025550Y004379D01*
X025575Y004426D02*
X025575Y004476D01*
X025650Y004379D02*
X025650Y004303D01*
X025625Y004278D01*
X025550Y004278D01*
X025500Y004181D02*
X025650Y004181D01*
X025650Y004131D02*
X025650Y004231D01*
X025550Y004131D02*
X025500Y004181D01*
X025625Y004082D02*
X025650Y004082D01*
X025650Y004057D01*
X025625Y004057D01*
X025625Y004082D01*
X025625Y004010D02*
X025650Y003985D01*
X025650Y003935D01*
X025625Y003910D01*
X025525Y004010D01*
X025625Y004010D01*
X025625Y003910D02*
X025525Y003910D01*
X025500Y003935D01*
X025500Y003985D01*
X025525Y004010D01*
X025500Y002526D02*
X025500Y002426D01*
X025650Y002426D01*
X025650Y002379D02*
X025550Y002379D01*
X025575Y002426D02*
X025575Y002476D01*
X025650Y002379D02*
X025650Y002303D01*
X025625Y002278D01*
X025550Y002278D01*
X025500Y002181D02*
X025650Y002181D01*
X025650Y002131D02*
X025650Y002231D01*
X025550Y002131D02*
X025500Y002181D01*
X025625Y002082D02*
X025650Y002082D01*
X025650Y002057D01*
X025625Y002057D01*
X025625Y002082D01*
X025625Y002010D02*
X025650Y001985D01*
X025650Y001935D01*
X025625Y001910D01*
X025525Y002010D01*
X025625Y002010D01*
X025625Y001910D02*
X025525Y001910D01*
X025500Y001935D01*
X025500Y001985D01*
X025525Y002010D01*
X025525Y015910D02*
X025500Y015935D01*
X025500Y015985D01*
X025525Y016010D01*
X025625Y015910D01*
X025650Y015935D01*
X025650Y015985D01*
X025625Y016010D01*
X025525Y016010D01*
X025525Y015910D02*
X025625Y015910D01*
X025625Y016057D02*
X025625Y016082D01*
X025650Y016082D01*
X025650Y016057D01*
X025625Y016057D01*
X025650Y016131D02*
X025650Y016231D01*
X025650Y016181D02*
X025500Y016181D01*
X025550Y016131D01*
X025550Y016278D02*
X025625Y016278D01*
X025650Y016303D01*
X025650Y016379D01*
X025550Y016379D01*
X025575Y016426D02*
X025575Y016476D01*
X025500Y016426D02*
X025500Y016526D01*
X025500Y016426D02*
X025650Y016426D01*
X025625Y017810D02*
X025525Y017910D01*
X025625Y017910D01*
X025650Y017885D01*
X025650Y017835D01*
X025625Y017810D01*
X025525Y017810D01*
X025500Y017835D01*
X025500Y017885D01*
X025525Y017910D01*
X025625Y017957D02*
X025625Y017982D01*
X025650Y017982D01*
X025650Y017957D01*
X025625Y017957D01*
X025650Y018031D02*
X025650Y018131D01*
X025650Y018081D02*
X025500Y018081D01*
X025550Y018031D01*
X025550Y018178D02*
X025625Y018178D01*
X025650Y018203D01*
X025650Y018279D01*
X025550Y018279D01*
X025575Y018326D02*
X025575Y018376D01*
X025500Y018326D02*
X025500Y018426D01*
X025500Y018326D02*
X025650Y018326D01*
X025685Y020897D02*
X025585Y020997D01*
X025685Y020997D01*
X025710Y020972D01*
X025710Y020922D01*
X025685Y020897D01*
X025585Y020897D01*
X025560Y020922D01*
X025560Y020972D01*
X025585Y020997D01*
X025685Y021044D02*
X025685Y021069D01*
X025710Y021069D01*
X025710Y021044D01*
X025685Y021044D01*
X025710Y021118D02*
X025710Y021218D01*
X025710Y021168D02*
X025560Y021168D01*
X025610Y021118D01*
X025610Y021265D02*
X025685Y021265D01*
X025710Y021290D01*
X025710Y021366D01*
X025610Y021366D01*
X025635Y021413D02*
X025635Y021463D01*
X025560Y021413D02*
X025560Y021513D01*
X025560Y021413D02*
X025710Y021413D01*
X025685Y022897D02*
X025585Y022997D01*
X025685Y022997D01*
X025710Y022972D01*
X025710Y022922D01*
X025685Y022897D01*
X025585Y022897D01*
X025560Y022922D01*
X025560Y022972D01*
X025585Y022997D01*
X025685Y023044D02*
X025685Y023069D01*
X025710Y023069D01*
X025710Y023044D01*
X025685Y023044D01*
X025710Y023118D02*
X025710Y023218D01*
X025710Y023168D02*
X025560Y023168D01*
X025610Y023118D01*
X025610Y023265D02*
X025685Y023265D01*
X025710Y023290D01*
X025710Y023366D01*
X025610Y023366D01*
X025635Y023413D02*
X025635Y023463D01*
X025560Y023413D02*
X025560Y023513D01*
X025560Y023413D02*
X025710Y023413D01*
X016026Y023360D02*
X015926Y023360D01*
X015926Y023210D01*
X015879Y023210D02*
X015879Y023310D01*
X015926Y023285D02*
X015976Y023285D01*
X015879Y023210D02*
X015803Y023210D01*
X015778Y023235D01*
X015778Y023310D01*
X015681Y023360D02*
X015681Y023210D01*
X015631Y023210D02*
X015731Y023210D01*
X015631Y023310D02*
X015681Y023360D01*
X015582Y023235D02*
X015582Y023210D01*
X015557Y023210D01*
X015557Y023235D01*
X015582Y023235D01*
X015510Y023235D02*
X015485Y023210D01*
X015435Y023210D01*
X015410Y023235D01*
X015510Y023335D01*
X015510Y023235D01*
X015410Y023235D02*
X015410Y023335D01*
X015435Y023360D01*
X015485Y023360D01*
X015510Y023335D01*
D16*
X008155Y024255D02*
X008155Y024355D01*
X008155Y024255D02*
X007205Y024255D01*
X007205Y024355D01*
X007155Y022055D02*
X007155Y021955D01*
X007155Y022055D02*
X008155Y022055D01*
X008155Y021955D01*
M02*
