G75*
G70*
%OFA0B0*%
%FSLAX24Y24*%
%IPPOS*%
%LPD*%
%AMOC8*
5,1,8,0,0,1.08239X$1,22.5*
%
%ADD10C,0.0000*%
%ADD11C,0.0560*%
%ADD12C,0.0650*%
%ADD13R,0.0650X0.0650*%
%ADD14C,0.0860*%
%ADD15C,0.0740*%
%ADD16C,0.0640*%
%ADD17R,0.0460X0.0630*%
%ADD18C,0.1400*%
%ADD19C,0.0100*%
%ADD20C,0.0320*%
%ADD21C,0.0400*%
%ADD22C,0.0120*%
D10*
X001159Y000655D02*
X001159Y024651D01*
X031179Y024651D01*
X031179Y000655D01*
X001159Y000655D01*
X002009Y002155D02*
X002011Y002205D01*
X002017Y002255D01*
X002027Y002305D01*
X002040Y002353D01*
X002057Y002401D01*
X002078Y002447D01*
X002102Y002491D01*
X002130Y002533D01*
X002161Y002573D01*
X002195Y002610D01*
X002232Y002645D01*
X002271Y002676D01*
X002312Y002705D01*
X002356Y002730D01*
X002402Y002752D01*
X002449Y002770D01*
X002497Y002784D01*
X002546Y002795D01*
X002596Y002802D01*
X002646Y002805D01*
X002697Y002804D01*
X002747Y002799D01*
X002797Y002790D01*
X002845Y002778D01*
X002893Y002761D01*
X002939Y002741D01*
X002984Y002718D01*
X003027Y002691D01*
X003067Y002661D01*
X003105Y002628D01*
X003140Y002592D01*
X003173Y002553D01*
X003202Y002512D01*
X003228Y002469D01*
X003251Y002424D01*
X003270Y002377D01*
X003285Y002329D01*
X003297Y002280D01*
X003305Y002230D01*
X003309Y002180D01*
X003309Y002130D01*
X003305Y002080D01*
X003297Y002030D01*
X003285Y001981D01*
X003270Y001933D01*
X003251Y001886D01*
X003228Y001841D01*
X003202Y001798D01*
X003173Y001757D01*
X003140Y001718D01*
X003105Y001682D01*
X003067Y001649D01*
X003027Y001619D01*
X002984Y001592D01*
X002939Y001569D01*
X002893Y001549D01*
X002845Y001532D01*
X002797Y001520D01*
X002747Y001511D01*
X002697Y001506D01*
X002646Y001505D01*
X002596Y001508D01*
X002546Y001515D01*
X002497Y001526D01*
X002449Y001540D01*
X002402Y001558D01*
X002356Y001580D01*
X002312Y001605D01*
X002271Y001634D01*
X002232Y001665D01*
X002195Y001700D01*
X002161Y001737D01*
X002130Y001777D01*
X002102Y001819D01*
X002078Y001863D01*
X002057Y001909D01*
X002040Y001957D01*
X002027Y002005D01*
X002017Y002055D01*
X002011Y002105D01*
X002009Y002155D01*
X022009Y002155D02*
X022011Y002205D01*
X022017Y002255D01*
X022027Y002305D01*
X022040Y002353D01*
X022057Y002401D01*
X022078Y002447D01*
X022102Y002491D01*
X022130Y002533D01*
X022161Y002573D01*
X022195Y002610D01*
X022232Y002645D01*
X022271Y002676D01*
X022312Y002705D01*
X022356Y002730D01*
X022402Y002752D01*
X022449Y002770D01*
X022497Y002784D01*
X022546Y002795D01*
X022596Y002802D01*
X022646Y002805D01*
X022697Y002804D01*
X022747Y002799D01*
X022797Y002790D01*
X022845Y002778D01*
X022893Y002761D01*
X022939Y002741D01*
X022984Y002718D01*
X023027Y002691D01*
X023067Y002661D01*
X023105Y002628D01*
X023140Y002592D01*
X023173Y002553D01*
X023202Y002512D01*
X023228Y002469D01*
X023251Y002424D01*
X023270Y002377D01*
X023285Y002329D01*
X023297Y002280D01*
X023305Y002230D01*
X023309Y002180D01*
X023309Y002130D01*
X023305Y002080D01*
X023297Y002030D01*
X023285Y001981D01*
X023270Y001933D01*
X023251Y001886D01*
X023228Y001841D01*
X023202Y001798D01*
X023173Y001757D01*
X023140Y001718D01*
X023105Y001682D01*
X023067Y001649D01*
X023027Y001619D01*
X022984Y001592D01*
X022939Y001569D01*
X022893Y001549D01*
X022845Y001532D01*
X022797Y001520D01*
X022747Y001511D01*
X022697Y001506D01*
X022646Y001505D01*
X022596Y001508D01*
X022546Y001515D01*
X022497Y001526D01*
X022449Y001540D01*
X022402Y001558D01*
X022356Y001580D01*
X022312Y001605D01*
X022271Y001634D01*
X022232Y001665D01*
X022195Y001700D01*
X022161Y001737D01*
X022130Y001777D01*
X022102Y001819D01*
X022078Y001863D01*
X022057Y001909D01*
X022040Y001957D01*
X022027Y002005D01*
X022017Y002055D01*
X022011Y002105D01*
X022009Y002155D01*
X022009Y023155D02*
X022011Y023205D01*
X022017Y023255D01*
X022027Y023305D01*
X022040Y023353D01*
X022057Y023401D01*
X022078Y023447D01*
X022102Y023491D01*
X022130Y023533D01*
X022161Y023573D01*
X022195Y023610D01*
X022232Y023645D01*
X022271Y023676D01*
X022312Y023705D01*
X022356Y023730D01*
X022402Y023752D01*
X022449Y023770D01*
X022497Y023784D01*
X022546Y023795D01*
X022596Y023802D01*
X022646Y023805D01*
X022697Y023804D01*
X022747Y023799D01*
X022797Y023790D01*
X022845Y023778D01*
X022893Y023761D01*
X022939Y023741D01*
X022984Y023718D01*
X023027Y023691D01*
X023067Y023661D01*
X023105Y023628D01*
X023140Y023592D01*
X023173Y023553D01*
X023202Y023512D01*
X023228Y023469D01*
X023251Y023424D01*
X023270Y023377D01*
X023285Y023329D01*
X023297Y023280D01*
X023305Y023230D01*
X023309Y023180D01*
X023309Y023130D01*
X023305Y023080D01*
X023297Y023030D01*
X023285Y022981D01*
X023270Y022933D01*
X023251Y022886D01*
X023228Y022841D01*
X023202Y022798D01*
X023173Y022757D01*
X023140Y022718D01*
X023105Y022682D01*
X023067Y022649D01*
X023027Y022619D01*
X022984Y022592D01*
X022939Y022569D01*
X022893Y022549D01*
X022845Y022532D01*
X022797Y022520D01*
X022747Y022511D01*
X022697Y022506D01*
X022646Y022505D01*
X022596Y022508D01*
X022546Y022515D01*
X022497Y022526D01*
X022449Y022540D01*
X022402Y022558D01*
X022356Y022580D01*
X022312Y022605D01*
X022271Y022634D01*
X022232Y022665D01*
X022195Y022700D01*
X022161Y022737D01*
X022130Y022777D01*
X022102Y022819D01*
X022078Y022863D01*
X022057Y022909D01*
X022040Y022957D01*
X022027Y023005D01*
X022017Y023055D01*
X022011Y023105D01*
X022009Y023155D01*
X002009Y023155D02*
X002011Y023205D01*
X002017Y023255D01*
X002027Y023305D01*
X002040Y023353D01*
X002057Y023401D01*
X002078Y023447D01*
X002102Y023491D01*
X002130Y023533D01*
X002161Y023573D01*
X002195Y023610D01*
X002232Y023645D01*
X002271Y023676D01*
X002312Y023705D01*
X002356Y023730D01*
X002402Y023752D01*
X002449Y023770D01*
X002497Y023784D01*
X002546Y023795D01*
X002596Y023802D01*
X002646Y023805D01*
X002697Y023804D01*
X002747Y023799D01*
X002797Y023790D01*
X002845Y023778D01*
X002893Y023761D01*
X002939Y023741D01*
X002984Y023718D01*
X003027Y023691D01*
X003067Y023661D01*
X003105Y023628D01*
X003140Y023592D01*
X003173Y023553D01*
X003202Y023512D01*
X003228Y023469D01*
X003251Y023424D01*
X003270Y023377D01*
X003285Y023329D01*
X003297Y023280D01*
X003305Y023230D01*
X003309Y023180D01*
X003309Y023130D01*
X003305Y023080D01*
X003297Y023030D01*
X003285Y022981D01*
X003270Y022933D01*
X003251Y022886D01*
X003228Y022841D01*
X003202Y022798D01*
X003173Y022757D01*
X003140Y022718D01*
X003105Y022682D01*
X003067Y022649D01*
X003027Y022619D01*
X002984Y022592D01*
X002939Y022569D01*
X002893Y022549D01*
X002845Y022532D01*
X002797Y022520D01*
X002747Y022511D01*
X002697Y022506D01*
X002646Y022505D01*
X002596Y022508D01*
X002546Y022515D01*
X002497Y022526D01*
X002449Y022540D01*
X002402Y022558D01*
X002356Y022580D01*
X002312Y022605D01*
X002271Y022634D01*
X002232Y022665D01*
X002195Y022700D01*
X002161Y022737D01*
X002130Y022777D01*
X002102Y022819D01*
X002078Y022863D01*
X002057Y022909D01*
X002040Y022957D01*
X002027Y023005D01*
X002017Y023055D01*
X002011Y023105D01*
X002009Y023155D01*
D11*
X007879Y017655D02*
X008439Y017655D01*
X008439Y016655D02*
X007879Y016655D01*
X007879Y015655D02*
X008439Y015655D01*
X008439Y014655D02*
X007879Y014655D01*
X007879Y013655D02*
X008439Y013655D01*
X008439Y012655D02*
X007879Y012655D01*
X007879Y011655D02*
X008439Y011655D01*
X008439Y010655D02*
X007879Y010655D01*
X007879Y009655D02*
X008439Y009655D01*
X008439Y008655D02*
X007879Y008655D01*
X007879Y007655D02*
X008439Y007655D01*
X008439Y006655D02*
X007879Y006655D01*
X007879Y005655D02*
X008439Y005655D01*
X008439Y004655D02*
X007879Y004655D01*
X010879Y004655D02*
X011439Y004655D01*
X011439Y005655D02*
X010879Y005655D01*
X010879Y006655D02*
X011439Y006655D01*
X011439Y007655D02*
X010879Y007655D01*
X010879Y008655D02*
X011439Y008655D01*
X011439Y009655D02*
X010879Y009655D01*
X010879Y010655D02*
X011439Y010655D01*
X011439Y011655D02*
X010879Y011655D01*
X010879Y012655D02*
X011439Y012655D01*
X011439Y013655D02*
X010879Y013655D01*
X010879Y014655D02*
X011439Y014655D01*
X011439Y015655D02*
X010879Y015655D01*
X010879Y016655D02*
X011439Y016655D01*
X011439Y017655D02*
X010879Y017655D01*
X012879Y015655D02*
X013439Y015655D01*
X013439Y014655D02*
X012879Y014655D01*
X012879Y013655D02*
X013439Y013655D01*
X013439Y012655D02*
X012879Y012655D01*
X012879Y011655D02*
X013439Y011655D01*
X013439Y010655D02*
X012879Y010655D01*
X012879Y009655D02*
X013439Y009655D01*
X013439Y008655D02*
X012879Y008655D01*
X015879Y008655D02*
X016439Y008655D01*
X017159Y007935D02*
X017159Y007375D01*
X018159Y007375D02*
X018159Y007935D01*
X019159Y007935D02*
X019159Y007375D01*
X020159Y007375D02*
X020159Y007935D01*
X021159Y007935D02*
X021159Y007375D01*
X022159Y007375D02*
X022159Y007935D01*
X023159Y007935D02*
X023159Y007375D01*
X024159Y007375D02*
X024159Y007935D01*
X024643Y009275D02*
X025039Y009671D01*
X024332Y010378D02*
X023936Y009982D01*
X023229Y010689D02*
X023625Y011085D01*
X022918Y011792D02*
X022522Y011396D01*
X021815Y012104D02*
X022211Y012499D01*
X021503Y013207D02*
X021108Y012811D01*
X020400Y013518D02*
X020796Y013914D01*
X020089Y014621D02*
X019693Y014225D01*
X018986Y014932D02*
X019382Y015328D01*
X018675Y016035D02*
X018279Y015639D01*
X016439Y015655D02*
X015879Y015655D01*
X015879Y014655D02*
X016439Y014655D01*
X016439Y013655D02*
X015879Y013655D01*
X015879Y012655D02*
X016439Y012655D01*
X016439Y011655D02*
X015879Y011655D01*
X015879Y010655D02*
X016439Y010655D01*
X016439Y009655D02*
X015879Y009655D01*
X017159Y004935D02*
X017159Y004375D01*
X018159Y004375D02*
X018159Y004935D01*
X019159Y004935D02*
X019159Y004375D01*
X020159Y004375D02*
X020159Y004935D01*
X021159Y004935D02*
X021159Y004375D01*
X022159Y004375D02*
X022159Y004935D01*
X023159Y004935D02*
X023159Y004375D01*
X024159Y004375D02*
X024159Y004935D01*
X023159Y017375D02*
X023159Y017935D01*
X022159Y017935D02*
X022159Y017375D01*
X021159Y017375D02*
X021159Y017935D01*
X020159Y017935D02*
X020159Y017375D01*
X019159Y017375D02*
X019159Y017935D01*
X018159Y017935D02*
X018159Y017375D01*
X017159Y017375D02*
X017159Y017935D01*
X016159Y017935D02*
X016159Y017375D01*
X016159Y020375D02*
X016159Y020935D01*
X017159Y020935D02*
X017159Y020375D01*
X018159Y020375D02*
X018159Y020935D01*
X019159Y020935D02*
X019159Y020375D01*
X020159Y020375D02*
X020159Y020935D01*
X021159Y020935D02*
X021159Y020375D01*
X022159Y020375D02*
X022159Y020935D01*
X023159Y020935D02*
X023159Y020375D01*
D12*
X015159Y020655D03*
X015159Y019655D03*
X012659Y020155D03*
X004659Y022655D03*
X004659Y023655D03*
X006659Y011655D03*
X006659Y010655D03*
X006659Y009155D03*
X005659Y009155D03*
X003659Y008155D03*
X006159Y007155D03*
X006159Y005155D03*
X005659Y003155D03*
X006659Y003155D03*
X013659Y007655D03*
X014659Y007655D03*
X016159Y006655D03*
X016159Y005655D03*
X019159Y002155D03*
X015659Y001655D03*
X028159Y012655D03*
D13*
X029159Y012655D03*
X020159Y002155D03*
X015659Y002655D03*
X002659Y008155D03*
X012659Y019155D03*
D14*
X028229Y019655D02*
X029089Y019655D01*
X029089Y017655D02*
X028229Y017655D01*
X028229Y015655D02*
X029089Y015655D01*
X029089Y009655D02*
X028229Y009655D01*
X028229Y007655D02*
X029089Y007655D01*
X029089Y005655D02*
X028229Y005655D01*
X028229Y003655D02*
X029089Y003655D01*
X029089Y001655D02*
X028229Y001655D01*
X028229Y021655D02*
X029089Y021655D01*
X029089Y023655D02*
X028229Y023655D01*
D15*
X016659Y023055D03*
X015659Y023155D03*
X014659Y023055D03*
X013659Y023155D03*
X012659Y023055D03*
X011659Y023155D03*
X010159Y020155D03*
X006659Y018655D03*
X005659Y018655D03*
X006159Y020155D03*
X003659Y020155D03*
X003659Y019155D03*
X003659Y018155D03*
X003659Y017155D03*
X003659Y016155D03*
X005659Y014655D03*
X006659Y014655D03*
X003659Y012155D03*
X002659Y012155D03*
X002659Y011155D03*
X003659Y011155D03*
X003659Y010155D03*
X002659Y010155D03*
X002659Y006155D03*
X003659Y006155D03*
X003659Y005155D03*
X002659Y005155D03*
X002659Y004155D03*
X003659Y004155D03*
X012659Y002255D03*
X012659Y006255D03*
X003659Y021155D03*
D16*
X006559Y021765D02*
X007199Y021765D01*
X009119Y021765D02*
X009759Y021765D01*
X009759Y023545D02*
X009119Y023545D01*
X007199Y023545D02*
X006559Y023545D01*
D17*
X003609Y014855D03*
X003009Y014855D03*
X002409Y014855D03*
X002409Y013705D03*
X003009Y013705D03*
X003609Y013705D03*
D18*
X025409Y015768D03*
X025409Y018068D03*
X025409Y021342D03*
X025409Y023642D03*
D19*
X024533Y024010D02*
X009829Y024010D01*
X009796Y024015D02*
X009489Y024015D01*
X009489Y023595D01*
X010227Y023595D01*
X010217Y023655D01*
X010195Y023726D01*
X010161Y023791D01*
X010118Y023851D01*
X010065Y023904D01*
X010005Y023947D01*
X009939Y023981D01*
X009869Y024004D01*
X009796Y024015D01*
X010055Y023911D02*
X022342Y023911D01*
X022195Y023850D02*
X022496Y023975D01*
X022496Y023975D01*
X022622Y023975D01*
X022656Y023975D01*
X022659Y023975D01*
X022696Y023975D01*
X022822Y023975D01*
X022822Y023975D01*
X023124Y023850D01*
X023124Y023850D01*
X023354Y023620D01*
X023354Y023620D01*
X023479Y023318D01*
X023479Y023318D01*
X023479Y022992D01*
X023479Y022992D01*
X023354Y022691D01*
X023354Y022691D01*
X023124Y022460D01*
X023124Y022460D01*
X022846Y022345D01*
X023477Y022345D01*
X023641Y022345D01*
X023791Y022283D01*
X024271Y021803D01*
X024387Y021687D01*
X024449Y021537D01*
X024449Y020905D01*
X024929Y020425D01*
X025141Y020425D01*
X024871Y020537D01*
X024604Y020804D01*
X024459Y021153D01*
X024459Y021531D01*
X024604Y021880D01*
X024871Y022147D01*
X025220Y022292D01*
X025598Y022292D01*
X025947Y022147D01*
X026214Y021880D01*
X026359Y021531D01*
X026359Y021153D01*
X026214Y020804D01*
X025947Y020537D01*
X025678Y020425D01*
X026829Y020425D01*
X027663Y021259D01*
X027653Y021270D01*
X027549Y021520D01*
X027549Y021790D01*
X027653Y022040D01*
X027844Y022232D01*
X028094Y022335D01*
X029224Y022335D01*
X029474Y022232D01*
X029666Y022040D01*
X029769Y021790D01*
X029769Y021520D01*
X029666Y021270D01*
X029474Y021079D01*
X029224Y020975D01*
X028539Y020975D01*
X027347Y019783D01*
X027347Y019783D01*
X027231Y019668D01*
X027214Y019660D01*
X028539Y018335D01*
X029224Y018335D01*
X029474Y018232D01*
X029666Y018040D01*
X029769Y017790D01*
X029769Y017520D01*
X029666Y017270D01*
X029474Y017079D01*
X029224Y016975D01*
X028094Y016975D01*
X027844Y017079D01*
X027653Y017270D01*
X027549Y017520D01*
X027549Y017790D01*
X027653Y018040D01*
X027663Y018051D01*
X026749Y018965D01*
X025726Y018965D01*
X025947Y018873D01*
X026214Y018606D01*
X026359Y018257D01*
X026359Y017879D01*
X026264Y017650D01*
X027187Y016727D01*
X027249Y016577D01*
X027249Y016414D01*
X027249Y015625D01*
X029507Y013367D01*
X031029Y013367D01*
X031029Y013269D02*
X029547Y013269D01*
X029569Y013217D02*
X029507Y013367D01*
X029408Y013466D02*
X031029Y013466D01*
X031029Y013564D02*
X029310Y013564D01*
X029211Y013663D02*
X031029Y013663D01*
X031029Y013761D02*
X029113Y013761D01*
X029014Y013860D02*
X031029Y013860D01*
X031029Y013958D02*
X028915Y013958D01*
X028817Y014057D02*
X031029Y014057D01*
X031029Y014156D02*
X028718Y014156D01*
X028620Y014254D02*
X031029Y014254D01*
X031029Y014353D02*
X028521Y014353D01*
X028423Y014451D02*
X031029Y014451D01*
X031029Y014550D02*
X028324Y014550D01*
X028226Y014648D02*
X031029Y014648D01*
X031029Y014747D02*
X028127Y014747D01*
X028029Y014845D02*
X031029Y014845D01*
X031029Y014944D02*
X027930Y014944D01*
X027931Y015042D02*
X027831Y015042D01*
X027844Y015079D02*
X028094Y014975D01*
X029224Y014975D01*
X029474Y015079D01*
X029666Y015270D01*
X029769Y015520D01*
X029769Y015790D01*
X029666Y016040D01*
X029474Y016232D01*
X029224Y016335D01*
X028094Y016335D01*
X027844Y016232D01*
X027653Y016040D01*
X027549Y015790D01*
X027549Y015520D01*
X027653Y015270D01*
X027844Y015079D01*
X027781Y015141D02*
X027733Y015141D01*
X027683Y015240D02*
X027634Y015240D01*
X027624Y015338D02*
X027536Y015338D01*
X027584Y015437D02*
X027437Y015437D01*
X027339Y015535D02*
X027549Y015535D01*
X027549Y015634D02*
X027249Y015634D01*
X027249Y015732D02*
X027549Y015732D01*
X027566Y015831D02*
X027249Y015831D01*
X027249Y015929D02*
X027607Y015929D01*
X027647Y016028D02*
X027249Y016028D01*
X027249Y016126D02*
X027739Y016126D01*
X027837Y016225D02*
X027249Y016225D01*
X027249Y016324D02*
X028066Y016324D01*
X028002Y017013D02*
X026901Y017013D01*
X026999Y016915D02*
X031029Y016915D01*
X031029Y017013D02*
X029316Y017013D01*
X029507Y017112D02*
X031029Y017112D01*
X031029Y017210D02*
X029606Y017210D01*
X029682Y017309D02*
X031029Y017309D01*
X031029Y017407D02*
X029722Y017407D01*
X029763Y017506D02*
X031029Y017506D01*
X031029Y017605D02*
X029769Y017605D01*
X029769Y017703D02*
X031029Y017703D01*
X031029Y017802D02*
X029764Y017802D01*
X029724Y017900D02*
X031029Y017900D01*
X031029Y017999D02*
X029683Y017999D01*
X029609Y018097D02*
X031029Y018097D01*
X031029Y018196D02*
X029510Y018196D01*
X029323Y018294D02*
X031029Y018294D01*
X031029Y018393D02*
X028481Y018393D01*
X028382Y018491D02*
X031029Y018491D01*
X031029Y018590D02*
X028284Y018590D01*
X028185Y018689D02*
X031029Y018689D01*
X031029Y018787D02*
X028087Y018787D01*
X027988Y018886D02*
X031029Y018886D01*
X031029Y018984D02*
X027890Y018984D01*
X027791Y019083D02*
X028135Y019083D01*
X028093Y019089D02*
X028183Y019075D01*
X028609Y019075D01*
X028609Y019605D01*
X028709Y019605D01*
X028709Y019075D01*
X029135Y019075D01*
X029225Y019089D01*
X029312Y019118D01*
X029393Y019159D01*
X029467Y019213D01*
X029531Y019277D01*
X029585Y019351D01*
X029627Y019432D01*
X029655Y019519D01*
X029668Y019605D01*
X028709Y019605D01*
X028709Y019705D01*
X029668Y019705D01*
X029655Y019791D01*
X029627Y019878D01*
X029585Y019959D01*
X029531Y020033D01*
X029467Y020097D01*
X029393Y020151D01*
X029312Y020193D01*
X029225Y020221D01*
X029135Y020235D01*
X028709Y020235D01*
X028709Y019705D01*
X028609Y019705D01*
X028609Y019605D01*
X027650Y019605D01*
X027663Y019519D01*
X027692Y019432D01*
X027733Y019351D01*
X027787Y019277D01*
X027851Y019213D01*
X027925Y019159D01*
X028006Y019118D01*
X028093Y019089D01*
X027894Y019181D02*
X027693Y019181D01*
X027785Y019280D02*
X027594Y019280D01*
X027496Y019378D02*
X027719Y019378D01*
X027677Y019477D02*
X027397Y019477D01*
X027299Y019575D02*
X027654Y019575D01*
X027650Y019705D02*
X028609Y019705D01*
X028609Y020235D01*
X028183Y020235D01*
X028093Y020221D01*
X028006Y020193D01*
X027925Y020151D01*
X027851Y020097D01*
X027787Y020033D01*
X027733Y019959D01*
X027692Y019878D01*
X027663Y019791D01*
X027650Y019705D01*
X027660Y019773D02*
X027336Y019773D01*
X027435Y019871D02*
X027689Y019871D01*
X027741Y019970D02*
X027533Y019970D01*
X027632Y020068D02*
X027822Y020068D01*
X027730Y020167D02*
X027956Y020167D01*
X027829Y020265D02*
X031029Y020265D01*
X031029Y020167D02*
X029363Y020167D01*
X029496Y020068D02*
X031029Y020068D01*
X031029Y019970D02*
X029577Y019970D01*
X029629Y019871D02*
X031029Y019871D01*
X031029Y019773D02*
X029658Y019773D01*
X029664Y019575D02*
X031029Y019575D01*
X031029Y019477D02*
X029641Y019477D01*
X029599Y019378D02*
X031029Y019378D01*
X031029Y019280D02*
X029533Y019280D01*
X029424Y019181D02*
X031029Y019181D01*
X031029Y019083D02*
X029183Y019083D01*
X028709Y019083D02*
X028609Y019083D01*
X028609Y019181D02*
X028709Y019181D01*
X028709Y019280D02*
X028609Y019280D01*
X028609Y019378D02*
X028709Y019378D01*
X028709Y019477D02*
X028609Y019477D01*
X028609Y019575D02*
X028709Y019575D01*
X028709Y019674D02*
X031029Y019674D01*
X031029Y020364D02*
X027927Y020364D01*
X028026Y020462D02*
X031029Y020462D01*
X031029Y020561D02*
X028125Y020561D01*
X028223Y020659D02*
X031029Y020659D01*
X031029Y020758D02*
X028322Y020758D01*
X028420Y020856D02*
X031029Y020856D01*
X031029Y020955D02*
X028519Y020955D01*
X028609Y020167D02*
X028709Y020167D01*
X028709Y020068D02*
X028609Y020068D01*
X028609Y019970D02*
X028709Y019970D01*
X028709Y019871D02*
X028609Y019871D01*
X028609Y019773D02*
X028709Y019773D01*
X028609Y019674D02*
X027238Y019674D01*
X026866Y020462D02*
X025767Y020462D01*
X025971Y020561D02*
X026965Y020561D01*
X027064Y020659D02*
X026070Y020659D01*
X026168Y020758D02*
X027162Y020758D01*
X027261Y020856D02*
X026236Y020856D01*
X026277Y020955D02*
X027359Y020955D01*
X027458Y021054D02*
X026318Y021054D01*
X026359Y021152D02*
X027556Y021152D01*
X027655Y021251D02*
X026359Y021251D01*
X026359Y021349D02*
X027620Y021349D01*
X027579Y021448D02*
X026359Y021448D01*
X026353Y021546D02*
X027549Y021546D01*
X027549Y021645D02*
X026312Y021645D01*
X026271Y021743D02*
X027549Y021743D01*
X027570Y021842D02*
X026230Y021842D01*
X026154Y021940D02*
X027611Y021940D01*
X027652Y022039D02*
X026056Y022039D01*
X025957Y022138D02*
X027750Y022138D01*
X027855Y022236D02*
X025733Y022236D01*
X025598Y022692D02*
X025220Y022692D01*
X024871Y022837D01*
X024604Y023104D01*
X024459Y023453D01*
X024459Y023831D01*
X024604Y024180D01*
X024871Y024447D01*
X025001Y024501D01*
X001309Y024501D01*
X001309Y013225D01*
X001327Y013243D01*
X001929Y013845D01*
X001929Y014070D01*
X001949Y014118D01*
X001949Y014442D01*
X001929Y014490D01*
X001929Y015220D01*
X001949Y015268D01*
X001949Y017134D01*
X001949Y017297D01*
X002011Y017447D01*
X003051Y018487D01*
X003051Y018487D01*
X003167Y018603D01*
X003274Y018647D01*
X003282Y018655D01*
X003133Y018804D01*
X003039Y019032D01*
X003039Y019278D01*
X003133Y019506D01*
X003282Y019655D01*
X003133Y019804D01*
X003039Y020032D01*
X003039Y020278D01*
X003133Y020506D01*
X003282Y020655D01*
X003133Y020804D01*
X003039Y021032D01*
X003039Y021278D01*
X003133Y021506D01*
X003308Y021681D01*
X003409Y021723D01*
X003409Y022797D01*
X003456Y022911D01*
X003543Y022998D01*
X004085Y023539D01*
X004084Y023541D01*
X004084Y023769D01*
X004172Y023981D01*
X004333Y024143D01*
X004545Y024230D01*
X004773Y024230D01*
X004985Y024143D01*
X005146Y023981D01*
X005234Y023769D01*
X005234Y023541D01*
X005146Y023329D01*
X004985Y023168D01*
X004954Y023155D01*
X004985Y023143D01*
X005146Y022981D01*
X005234Y022769D01*
X005234Y022541D01*
X005233Y022539D01*
X005687Y022085D01*
X006075Y022085D01*
X006076Y022088D01*
X006236Y022248D01*
X006446Y022335D01*
X007312Y022335D01*
X007522Y022248D01*
X007682Y022088D01*
X007769Y021879D01*
X007769Y021652D01*
X007682Y021442D01*
X007522Y021282D01*
X007312Y021195D01*
X007149Y021195D01*
X007149Y020957D01*
X007149Y020833D01*
X007102Y020719D01*
X006744Y020362D01*
X006779Y020278D01*
X006779Y020273D01*
X006782Y020271D01*
X007159Y019893D01*
X008672Y021406D01*
X008636Y021442D01*
X008549Y021652D01*
X008549Y021879D01*
X008636Y022088D01*
X008796Y022248D01*
X009006Y022335D01*
X009872Y022335D01*
X010082Y022248D01*
X010242Y022088D01*
X010329Y021879D01*
X010329Y021652D01*
X010242Y021442D01*
X010082Y021282D01*
X009872Y021195D01*
X009337Y021195D01*
X007597Y019455D01*
X008382Y018671D01*
X008429Y018557D01*
X008429Y018433D01*
X008429Y018185D01*
X008544Y018185D01*
X008739Y018104D01*
X008888Y017955D01*
X008969Y017761D01*
X008969Y017550D01*
X008888Y017355D01*
X008853Y017320D01*
X009495Y016678D01*
X009495Y016678D01*
X009582Y016591D01*
X009629Y016477D01*
X009629Y015664D01*
X010403Y014890D01*
X010430Y014955D01*
X010579Y015104D01*
X010701Y015155D01*
X010579Y015206D01*
X010430Y015355D01*
X010349Y015550D01*
X010349Y015761D01*
X010430Y015955D01*
X010579Y016104D01*
X010701Y016155D01*
X010579Y016206D01*
X010430Y016355D01*
X010349Y016550D01*
X010349Y016761D01*
X010430Y016955D01*
X010579Y017104D01*
X010701Y017155D01*
X010579Y017206D01*
X010430Y017355D01*
X010349Y017550D01*
X010349Y017761D01*
X010430Y017955D01*
X010579Y018104D01*
X010774Y018185D01*
X011544Y018185D01*
X011739Y018104D01*
X011888Y017955D01*
X011969Y017761D01*
X011969Y017550D01*
X011888Y017355D01*
X011739Y017206D01*
X011617Y017155D01*
X011739Y017104D01*
X011888Y016955D01*
X011969Y016761D01*
X011969Y016550D01*
X011888Y016355D01*
X011739Y016206D01*
X011617Y016155D01*
X011739Y016104D01*
X011888Y015955D01*
X011969Y015761D01*
X011969Y015550D01*
X011888Y015355D01*
X011739Y015206D01*
X011617Y015155D01*
X011739Y015104D01*
X011888Y014955D01*
X011969Y014761D01*
X011969Y014550D01*
X012349Y014550D01*
X012430Y014355D01*
X012579Y014206D01*
X012701Y014155D01*
X012579Y014104D01*
X012430Y013955D01*
X012349Y013761D01*
X012349Y013550D01*
X012430Y013355D01*
X012579Y013206D01*
X012701Y013155D01*
X012579Y013104D01*
X012430Y012955D01*
X012356Y012777D01*
X011833Y013300D01*
X011888Y013355D01*
X011969Y013550D01*
X011969Y013761D01*
X011888Y013955D01*
X011739Y014104D01*
X011617Y014155D01*
X011739Y014206D01*
X011888Y014355D01*
X011969Y014550D01*
X011969Y014648D02*
X012349Y014648D01*
X012349Y014550D02*
X012349Y014761D01*
X012430Y014955D01*
X012579Y015104D01*
X012701Y015155D01*
X012579Y015206D01*
X012430Y015355D01*
X012349Y015550D01*
X012349Y015761D01*
X012430Y015955D01*
X012579Y016104D01*
X012774Y016185D01*
X013544Y016185D01*
X013739Y016104D01*
X013888Y015955D01*
X013969Y015761D01*
X013969Y015550D01*
X013888Y015355D01*
X013739Y015206D01*
X013617Y015155D01*
X013689Y015125D01*
X014029Y015465D01*
X014029Y016805D01*
X013247Y017588D01*
X013247Y017588D01*
X013131Y017703D01*
X011969Y017703D01*
X011969Y017605D02*
X013230Y017605D01*
X013131Y017703D02*
X013131Y017703D01*
X012447Y018388D01*
X012331Y018503D01*
X012299Y018580D01*
X012284Y018580D01*
X012192Y018618D01*
X012122Y018689D01*
X008364Y018689D01*
X008415Y018590D02*
X012260Y018590D01*
X012343Y018491D02*
X008429Y018491D01*
X008429Y018393D02*
X012441Y018393D01*
X012540Y018294D02*
X008429Y018294D01*
X008429Y018196D02*
X012639Y018196D01*
X012737Y018097D02*
X011746Y018097D01*
X011845Y017999D02*
X012836Y017999D01*
X012934Y017900D02*
X011911Y017900D01*
X011952Y017802D02*
X013033Y017802D01*
X013328Y017506D02*
X011951Y017506D01*
X011910Y017407D02*
X013427Y017407D01*
X013525Y017309D02*
X011842Y017309D01*
X011744Y017210D02*
X013624Y017210D01*
X013722Y017112D02*
X011721Y017112D01*
X011830Y017013D02*
X013821Y017013D01*
X013920Y016915D02*
X011905Y016915D01*
X011946Y016816D02*
X014018Y016816D01*
X014029Y016718D02*
X011969Y016718D01*
X011969Y016619D02*
X014029Y016619D01*
X014029Y016521D02*
X011957Y016521D01*
X011916Y016422D02*
X014029Y016422D01*
X014029Y016324D02*
X011857Y016324D01*
X011758Y016225D02*
X014029Y016225D01*
X014029Y016126D02*
X013686Y016126D01*
X013816Y016028D02*
X014029Y016028D01*
X014029Y015929D02*
X013899Y015929D01*
X013940Y015831D02*
X014029Y015831D01*
X014029Y015732D02*
X013969Y015732D01*
X013969Y015634D02*
X014029Y015634D01*
X014029Y015535D02*
X013963Y015535D01*
X014001Y015437D02*
X013922Y015437D01*
X013902Y015338D02*
X013872Y015338D01*
X013804Y015240D02*
X013773Y015240D01*
X013705Y015141D02*
X013651Y015141D01*
X012667Y015141D02*
X011651Y015141D01*
X011773Y015240D02*
X012545Y015240D01*
X012447Y015338D02*
X011872Y015338D01*
X011922Y015437D02*
X012396Y015437D01*
X012355Y015535D02*
X011963Y015535D01*
X011969Y015634D02*
X012349Y015634D01*
X012349Y015732D02*
X011969Y015732D01*
X011940Y015831D02*
X012378Y015831D01*
X012419Y015929D02*
X011899Y015929D01*
X011816Y016028D02*
X012502Y016028D01*
X012632Y016126D02*
X011686Y016126D01*
X010632Y016126D02*
X009629Y016126D01*
X009629Y016028D02*
X010502Y016028D01*
X010419Y015929D02*
X009629Y015929D01*
X009629Y015831D02*
X010378Y015831D01*
X010349Y015732D02*
X009629Y015732D01*
X009659Y015634D02*
X010349Y015634D01*
X010355Y015535D02*
X009757Y015535D01*
X009856Y015437D02*
X010396Y015437D01*
X010447Y015338D02*
X009954Y015338D01*
X010053Y015240D02*
X010545Y015240D01*
X010667Y015141D02*
X010152Y015141D01*
X010250Y015042D02*
X010517Y015042D01*
X010425Y014944D02*
X010349Y014944D01*
X009866Y014550D02*
X009629Y014550D01*
X009629Y014648D02*
X009768Y014648D01*
X009669Y014747D02*
X009629Y014747D01*
X009629Y014787D02*
X010271Y014145D01*
X010190Y014145D01*
X010024Y014077D01*
X009898Y013950D01*
X009829Y013785D01*
X009829Y013684D01*
X009376Y013231D01*
X009329Y013117D01*
X009329Y012993D01*
X009329Y012981D01*
X009258Y012910D01*
X009189Y012745D01*
X009189Y012566D01*
X009258Y012400D01*
X009384Y012274D01*
X009550Y012205D01*
X009729Y012205D01*
X009894Y012274D01*
X009959Y012339D01*
X010024Y012274D01*
X010190Y012205D01*
X010369Y012205D01*
X010518Y012267D01*
X010579Y012206D01*
X010774Y012125D01*
X011544Y012125D01*
X011739Y012206D01*
X011888Y012355D01*
X011889Y012357D01*
X011889Y012021D01*
X011818Y011950D01*
X011795Y011896D01*
X011767Y011935D01*
X011719Y011983D01*
X011664Y012023D01*
X011604Y012054D01*
X011540Y012074D01*
X011473Y012085D01*
X011189Y012085D01*
X011189Y011685D01*
X011129Y011685D01*
X011129Y011625D01*
X011189Y011625D01*
X011189Y011225D01*
X011473Y011225D01*
X011540Y011236D01*
X011604Y011257D01*
X011664Y011287D01*
X011719Y011327D01*
X011767Y011375D01*
X011807Y011430D01*
X011815Y011446D01*
X011818Y011440D01*
X011944Y011314D01*
X012110Y011245D01*
X012289Y011245D01*
X012454Y011314D01*
X012462Y011322D01*
X012485Y011300D01*
X011962Y010777D01*
X011888Y010955D01*
X011739Y011104D01*
X011544Y011185D01*
X010774Y011185D01*
X010742Y011172D01*
X009951Y011963D01*
X009801Y012025D01*
X009637Y012025D01*
X008819Y012025D01*
X008739Y012104D01*
X008617Y012155D01*
X008739Y012206D01*
X008888Y012355D01*
X008969Y012550D01*
X008969Y012761D01*
X008888Y012955D01*
X008739Y013104D01*
X008617Y013155D01*
X008739Y013206D01*
X008888Y013355D01*
X008967Y013545D01*
X009495Y014072D01*
X009582Y014159D01*
X009629Y014273D01*
X009629Y014787D01*
X009629Y014451D02*
X009965Y014451D01*
X010063Y014353D02*
X009629Y014353D01*
X009621Y014254D02*
X010162Y014254D01*
X010260Y014156D02*
X009578Y014156D01*
X009479Y014057D02*
X010005Y014057D01*
X009906Y013958D02*
X009381Y013958D01*
X009282Y013860D02*
X009860Y013860D01*
X009829Y013761D02*
X009184Y013761D01*
X009085Y013663D02*
X009808Y013663D01*
X009710Y013564D02*
X008987Y013564D01*
X008934Y013466D02*
X009611Y013466D01*
X009513Y013367D02*
X008893Y013367D01*
X008802Y013269D02*
X009414Y013269D01*
X009351Y013170D02*
X008653Y013170D01*
X008772Y013072D02*
X009329Y013072D01*
X009321Y012973D02*
X008871Y012973D01*
X008922Y012874D02*
X009243Y012874D01*
X009202Y012776D02*
X008963Y012776D01*
X008969Y012677D02*
X009189Y012677D01*
X009189Y012579D02*
X008969Y012579D01*
X008940Y012480D02*
X009224Y012480D01*
X009276Y012382D02*
X008899Y012382D01*
X008817Y012283D02*
X009375Y012283D01*
X009904Y012283D02*
X010015Y012283D01*
X009891Y011988D02*
X010605Y011988D01*
X010599Y011983D02*
X010551Y011935D01*
X010511Y011880D01*
X010481Y011820D01*
X010460Y011756D01*
X010449Y011689D01*
X010449Y011685D01*
X011129Y011685D01*
X011129Y012085D01*
X010845Y012085D01*
X010778Y012074D01*
X010714Y012054D01*
X010654Y012023D01*
X010599Y011983D01*
X010518Y011889D02*
X010025Y011889D01*
X010123Y011791D02*
X010471Y011791D01*
X010450Y011692D02*
X010222Y011692D01*
X010321Y011593D02*
X010453Y011593D01*
X010449Y011621D02*
X010460Y011554D01*
X010481Y011490D01*
X010511Y011430D01*
X010551Y011375D01*
X010599Y011327D01*
X010654Y011287D01*
X010714Y011257D01*
X010778Y011236D01*
X010845Y011225D01*
X011129Y011225D01*
X011129Y011625D01*
X010449Y011625D01*
X010449Y011621D01*
X010419Y011495D02*
X010479Y011495D01*
X010518Y011396D02*
X010536Y011396D01*
X010616Y011298D02*
X010639Y011298D01*
X010715Y011199D02*
X012385Y011199D01*
X012416Y011298D02*
X012483Y011298D01*
X012286Y011101D02*
X011743Y011101D01*
X011841Y011002D02*
X012188Y011002D01*
X012089Y010904D02*
X011910Y010904D01*
X011951Y010805D02*
X011991Y010805D01*
X011982Y011298D02*
X011679Y011298D01*
X011783Y011396D02*
X011861Y011396D01*
X011855Y011988D02*
X011713Y011988D01*
X011688Y012185D02*
X011889Y012185D01*
X011889Y012283D02*
X011817Y012283D01*
X011889Y012086D02*
X008758Y012086D01*
X008688Y012185D02*
X010630Y012185D01*
X011129Y011988D02*
X011189Y011988D01*
X011189Y011889D02*
X011129Y011889D01*
X011129Y011791D02*
X011189Y011791D01*
X011189Y011692D02*
X011129Y011692D01*
X011129Y011593D02*
X011189Y011593D01*
X011189Y011495D02*
X011129Y011495D01*
X011129Y011396D02*
X011189Y011396D01*
X011189Y011298D02*
X011129Y011298D01*
X010331Y010423D02*
X010447Y010308D01*
X010499Y010286D01*
X010579Y010206D01*
X010701Y010155D01*
X010579Y010104D01*
X010430Y009955D01*
X010349Y009761D01*
X010349Y009550D01*
X010430Y009355D01*
X010579Y009206D01*
X010701Y009155D01*
X010579Y009104D01*
X010430Y008955D01*
X010349Y008761D01*
X010349Y008550D01*
X010430Y008355D01*
X010579Y008206D01*
X010701Y008155D01*
X010579Y008104D01*
X010430Y007955D01*
X010349Y007761D01*
X010349Y007550D01*
X010430Y007355D01*
X010579Y007206D01*
X010701Y007155D01*
X010642Y007131D01*
X010089Y007684D01*
X010089Y007785D01*
X010021Y007950D01*
X009894Y008077D01*
X009729Y008145D01*
X009550Y008145D01*
X009384Y008077D01*
X009258Y007950D01*
X009189Y007785D01*
X009189Y007606D01*
X009233Y007499D01*
X008967Y007766D01*
X008888Y007955D01*
X008739Y008104D01*
X008617Y008155D01*
X008739Y008206D01*
X008888Y008355D01*
X008969Y008550D01*
X008969Y008761D01*
X008888Y008955D01*
X008739Y009104D01*
X008617Y009155D01*
X008739Y009206D01*
X008888Y009355D01*
X008969Y009550D01*
X008969Y009761D01*
X008888Y009955D01*
X008739Y010104D01*
X008544Y010185D01*
X007774Y010185D01*
X007579Y010104D01*
X007430Y009955D01*
X007417Y009925D01*
X007303Y009878D01*
X007026Y009601D01*
X006985Y009643D01*
X006773Y009730D01*
X006545Y009730D01*
X006333Y009643D01*
X006172Y009481D01*
X006105Y009320D01*
X006099Y009337D01*
X006065Y009404D01*
X006021Y009465D01*
X005968Y009517D01*
X005908Y009561D01*
X005841Y009595D01*
X005770Y009618D01*
X005696Y009630D01*
X005678Y009630D01*
X005678Y009174D01*
X005640Y009174D01*
X005640Y009136D01*
X005678Y009136D01*
X005678Y008680D01*
X005696Y008680D01*
X005770Y008692D01*
X005841Y008715D01*
X005908Y008749D01*
X005968Y008793D01*
X006021Y008846D01*
X006065Y008906D01*
X006099Y008973D01*
X006105Y008990D01*
X006172Y008829D01*
X006333Y008668D01*
X006449Y008620D01*
X006449Y007904D01*
X006275Y007729D01*
X006273Y007730D01*
X006045Y007730D01*
X005833Y007643D01*
X005672Y007481D01*
X005584Y007269D01*
X005584Y007041D01*
X005672Y006829D01*
X005833Y006668D01*
X006045Y006580D01*
X006273Y006580D01*
X006485Y006668D01*
X006646Y006829D01*
X006734Y007041D01*
X006734Y007269D01*
X006722Y007299D01*
X006935Y007512D01*
X007022Y007599D01*
X007069Y007713D01*
X007069Y008752D01*
X007146Y008829D01*
X007162Y008867D01*
X007175Y008872D01*
X007262Y008959D01*
X007543Y009241D01*
X007579Y009206D01*
X007701Y009155D01*
X007579Y009104D01*
X007430Y008955D01*
X007349Y008761D01*
X007349Y008550D01*
X007430Y008355D01*
X007579Y008206D01*
X007701Y008155D01*
X007579Y008104D01*
X007430Y007955D01*
X007349Y007761D01*
X007349Y007550D01*
X007430Y007355D01*
X007579Y007206D01*
X007701Y007155D01*
X007579Y007104D01*
X007430Y006955D01*
X007349Y006761D01*
X007349Y006550D01*
X007430Y006355D01*
X007485Y006300D01*
X006903Y005718D01*
X006816Y005631D01*
X006769Y005517D01*
X006769Y004683D01*
X006635Y004818D01*
X006646Y004829D01*
X006734Y005041D01*
X006734Y005269D01*
X006646Y005481D01*
X006485Y005643D01*
X006273Y005730D01*
X006045Y005730D01*
X005833Y005643D01*
X005672Y005481D01*
X005584Y005269D01*
X005584Y005041D01*
X005672Y004829D01*
X005833Y004668D01*
X005961Y004615D01*
X006023Y004552D01*
X006289Y004287D01*
X006289Y003598D01*
X006172Y003481D01*
X006105Y003320D01*
X006099Y003337D01*
X006065Y003404D01*
X006021Y003465D01*
X005968Y003517D01*
X005908Y003561D01*
X005841Y003595D01*
X005770Y003618D01*
X005696Y003630D01*
X005678Y003630D01*
X005678Y003174D01*
X005640Y003174D01*
X005640Y003136D01*
X005678Y003136D01*
X005678Y002680D01*
X005696Y002680D01*
X005770Y002692D01*
X005841Y002715D01*
X005908Y002749D01*
X005968Y002793D01*
X006021Y002846D01*
X006065Y002906D01*
X006099Y002973D01*
X006105Y002990D01*
X006172Y002829D01*
X006333Y002668D01*
X006545Y002580D01*
X006773Y002580D01*
X006985Y002668D01*
X007146Y002829D01*
X007234Y003041D01*
X007234Y003269D01*
X007146Y003481D01*
X006985Y003643D01*
X006909Y003674D01*
X006909Y003987D01*
X009936Y000959D01*
X010023Y000872D01*
X010137Y000825D01*
X014951Y000825D01*
X014971Y000805D01*
X001309Y000805D01*
X001309Y010565D01*
X001309Y010494D01*
X001309Y009694D01*
X001371Y009543D01*
X001487Y009428D01*
X002189Y008725D01*
X002189Y008689D01*
X002122Y008622D01*
X002084Y008530D01*
X002084Y007840D01*
X001371Y007127D01*
X001309Y006977D01*
X001309Y006814D01*
X001309Y005934D01*
X001371Y005783D01*
X001487Y005668D01*
X002039Y005115D01*
X002039Y005032D01*
X002133Y004804D01*
X002308Y004629D01*
X002384Y004598D01*
X002320Y004552D01*
X002262Y004494D01*
X002214Y004428D01*
X002177Y004355D01*
X002152Y004277D01*
X002140Y004205D01*
X002609Y004205D01*
X002609Y004105D01*
X002709Y004105D01*
X002709Y003637D01*
X002781Y003648D01*
X002859Y003673D01*
X002932Y003710D01*
X002998Y003758D01*
X003056Y003816D01*
X003104Y003883D01*
X003141Y003955D01*
X003159Y004011D01*
X003177Y003955D01*
X003214Y003883D01*
X003262Y003816D01*
X003320Y003758D01*
X003386Y003710D01*
X003459Y003673D01*
X003537Y003648D01*
X003609Y003637D01*
X003609Y004105D01*
X003709Y004105D01*
X003709Y003637D01*
X003781Y003648D01*
X003859Y003673D01*
X003932Y003710D01*
X003998Y003758D01*
X004056Y003816D01*
X004104Y003883D01*
X004141Y003955D01*
X004166Y004033D01*
X004178Y004105D01*
X003709Y004105D01*
X003709Y004205D01*
X004178Y004205D01*
X004166Y004277D01*
X004141Y004355D01*
X004104Y004428D01*
X004056Y004494D01*
X003998Y004552D01*
X003934Y004598D01*
X004010Y004629D01*
X004185Y004804D01*
X004279Y005032D01*
X004279Y005278D01*
X004185Y005506D01*
X004036Y005655D01*
X004185Y005804D01*
X004279Y006032D01*
X004279Y006278D01*
X004185Y006506D01*
X004010Y006681D01*
X003782Y006775D01*
X003536Y006775D01*
X003308Y006681D01*
X003159Y006532D01*
X003010Y006681D01*
X002782Y006775D01*
X002536Y006775D01*
X002308Y006681D01*
X002133Y006506D01*
X002129Y006496D01*
X002129Y006725D01*
X002984Y007580D01*
X003034Y007580D01*
X003126Y007618D01*
X003196Y007689D01*
X003234Y007780D01*
X003234Y007943D01*
X003253Y007906D01*
X003297Y007846D01*
X003350Y007793D01*
X003410Y007749D01*
X003477Y007715D01*
X003548Y007692D01*
X003622Y007680D01*
X003640Y007680D01*
X003640Y008136D01*
X003678Y008136D01*
X003678Y007680D01*
X003696Y007680D01*
X003770Y007692D01*
X003841Y007715D01*
X003908Y007749D01*
X003968Y007793D01*
X004021Y007846D01*
X004065Y007906D01*
X004099Y007973D01*
X004122Y008044D01*
X004134Y008118D01*
X004134Y008136D01*
X003678Y008136D01*
X003678Y008174D01*
X004134Y008174D01*
X004134Y008192D01*
X004122Y008266D01*
X004099Y008337D01*
X004065Y008404D01*
X004021Y008465D01*
X003968Y008517D01*
X003908Y008561D01*
X003841Y008595D01*
X003770Y008618D01*
X003696Y008630D01*
X003678Y008630D01*
X003678Y008174D01*
X003640Y008174D01*
X003640Y008630D01*
X003622Y008630D01*
X003548Y008618D01*
X003477Y008595D01*
X003410Y008561D01*
X003350Y008517D01*
X003297Y008465D01*
X003253Y008404D01*
X003234Y008367D01*
X003234Y008530D01*
X003196Y008622D01*
X003126Y008692D01*
X003034Y008730D01*
X003009Y008730D01*
X003009Y008814D01*
X003009Y008977D01*
X002947Y009127D01*
X002129Y009945D01*
X002129Y010405D01*
X002147Y010423D01*
X002340Y010616D01*
X002384Y010598D01*
X002320Y010552D01*
X002262Y010494D01*
X002214Y010428D01*
X002177Y010355D01*
X002152Y010277D01*
X002140Y010205D01*
X002609Y010205D01*
X002609Y010105D01*
X002709Y010105D01*
X002709Y009637D01*
X002781Y009648D01*
X002859Y009673D01*
X002932Y009710D01*
X002998Y009758D01*
X003056Y009816D01*
X003104Y009883D01*
X003141Y009955D01*
X003159Y010011D01*
X003177Y009955D01*
X003214Y009883D01*
X003262Y009816D01*
X003320Y009758D01*
X003386Y009710D01*
X003459Y009673D01*
X003537Y009648D01*
X003609Y009637D01*
X003609Y010105D01*
X003709Y010105D01*
X003709Y009637D01*
X003781Y009648D01*
X003859Y009673D01*
X003932Y009710D01*
X003998Y009758D01*
X004056Y009816D01*
X004104Y009883D01*
X004141Y009955D01*
X004166Y010033D01*
X004178Y010105D01*
X003709Y010105D01*
X003709Y010205D01*
X004178Y010205D01*
X004166Y010277D01*
X004141Y010355D01*
X004104Y010428D01*
X004056Y010494D01*
X003998Y010552D01*
X003934Y010598D01*
X004010Y010629D01*
X004185Y010804D01*
X004279Y011032D01*
X004279Y011278D01*
X004185Y011506D01*
X004036Y011655D01*
X004185Y011804D01*
X004279Y012032D01*
X004279Y012278D01*
X004185Y012506D01*
X004104Y012587D01*
X004215Y012632D01*
X005617Y014035D01*
X005782Y014035D01*
X006010Y014129D01*
X006159Y014278D01*
X006308Y014129D01*
X006536Y014035D01*
X006782Y014035D01*
X007010Y014129D01*
X007185Y014304D01*
X007279Y014532D01*
X007279Y014778D01*
X007185Y015006D01*
X007010Y015181D01*
X006782Y015275D01*
X006536Y015275D01*
X006308Y015181D01*
X006159Y015032D01*
X006010Y015181D01*
X005782Y015275D01*
X005536Y015275D01*
X005308Y015181D01*
X005133Y015006D01*
X005039Y014778D01*
X005039Y014532D01*
X005097Y014392D01*
X003911Y013205D01*
X003607Y013205D01*
X003559Y013253D01*
X003559Y013655D01*
X003659Y013655D01*
X003659Y013240D01*
X003859Y013240D01*
X003897Y013250D01*
X003931Y013270D01*
X003959Y013298D01*
X003979Y013332D01*
X003989Y013370D01*
X003989Y013655D01*
X003659Y013655D01*
X003659Y013755D01*
X003989Y013755D01*
X003989Y014040D01*
X003979Y014078D01*
X003959Y014112D01*
X003931Y014140D01*
X003897Y014160D01*
X003859Y014170D01*
X003659Y014170D01*
X003659Y013755D01*
X003559Y013755D01*
X003559Y014170D01*
X003443Y014170D01*
X003381Y014232D01*
X003289Y014270D01*
X002769Y014270D01*
X002769Y014290D01*
X003289Y014290D01*
X003381Y014328D01*
X003443Y014390D01*
X003559Y014390D01*
X003559Y014805D01*
X003659Y014805D01*
X003659Y014390D01*
X003859Y014390D01*
X003897Y014400D01*
X003931Y014420D01*
X003959Y014448D01*
X003979Y014482D01*
X003989Y014520D01*
X003989Y014805D01*
X003659Y014805D01*
X003659Y014905D01*
X003989Y014905D01*
X003989Y015190D01*
X003979Y015228D01*
X003959Y015262D01*
X003931Y015290D01*
X003897Y015310D01*
X003859Y015320D01*
X003659Y015320D01*
X003659Y014905D01*
X003559Y014905D01*
X003559Y015320D01*
X003510Y015320D01*
X003529Y015366D01*
X003529Y015545D01*
X003478Y015667D01*
X003537Y015648D01*
X003609Y015637D01*
X003609Y016105D01*
X003709Y016105D01*
X003709Y015637D01*
X003781Y015648D01*
X003859Y015673D01*
X003932Y015710D01*
X003998Y015758D01*
X004056Y015816D01*
X004104Y015883D01*
X004141Y015955D01*
X004166Y016033D01*
X004178Y016105D01*
X003709Y016105D01*
X003709Y016205D01*
X004178Y016205D01*
X004166Y016277D01*
X004141Y016355D01*
X004104Y016428D01*
X004056Y016494D01*
X003998Y016552D01*
X003932Y016600D01*
X003859Y016637D01*
X003803Y016655D01*
X003859Y016673D01*
X003932Y016710D01*
X003998Y016758D01*
X004056Y016816D01*
X005520Y016816D01*
X005491Y016845D02*
X006903Y015432D01*
X007017Y015385D01*
X007141Y015385D01*
X007417Y015385D01*
X007430Y015355D01*
X007579Y015206D01*
X007701Y015155D01*
X007579Y015104D01*
X007430Y014955D01*
X007349Y014761D01*
X007349Y014550D01*
X007279Y014550D01*
X007349Y014550D02*
X007430Y014355D01*
X007579Y014206D01*
X007701Y014155D01*
X007579Y014104D01*
X007430Y013955D01*
X007349Y013761D01*
X007349Y013550D01*
X007430Y013355D01*
X007579Y013206D01*
X007701Y013155D01*
X007579Y013104D01*
X007430Y012955D01*
X007349Y012761D01*
X007349Y012550D01*
X007430Y012355D01*
X007579Y012206D01*
X007701Y012155D01*
X007580Y012105D01*
X007022Y012105D01*
X006985Y012143D01*
X006773Y012230D01*
X006545Y012230D01*
X006333Y012143D01*
X006172Y011981D01*
X006084Y011769D01*
X006084Y011541D01*
X006172Y011329D01*
X006333Y011168D01*
X006494Y011101D01*
X006477Y011095D01*
X006410Y011061D01*
X006350Y011017D01*
X006297Y010965D01*
X006253Y010904D01*
X006219Y010837D01*
X006196Y010766D01*
X006184Y010692D01*
X006184Y010674D01*
X006640Y010674D01*
X006640Y010636D01*
X006678Y010636D01*
X006678Y010180D01*
X006696Y010180D01*
X006770Y010192D01*
X006841Y010215D01*
X006908Y010249D01*
X006968Y010293D01*
X007021Y010346D01*
X007065Y010406D01*
X007099Y010473D01*
X007122Y010544D01*
X007134Y010618D01*
X007134Y010636D01*
X006678Y010636D01*
X006678Y010674D01*
X007134Y010674D01*
X007134Y010692D01*
X007122Y010766D01*
X007099Y010837D01*
X007065Y010904D01*
X007021Y010965D01*
X006968Y011017D01*
X006908Y011061D01*
X006841Y011095D01*
X006824Y011101D01*
X006985Y011168D01*
X007102Y011285D01*
X007499Y011285D01*
X007579Y011206D01*
X007774Y011125D01*
X008544Y011125D01*
X008738Y011205D01*
X009549Y011205D01*
X010331Y010423D01*
X010343Y010411D02*
X008793Y010411D01*
X008807Y010430D02*
X008838Y010490D01*
X008858Y010554D01*
X008869Y010621D01*
X008869Y010625D01*
X008189Y010625D01*
X008189Y010225D01*
X008473Y010225D01*
X008540Y010236D01*
X008604Y010257D01*
X008664Y010287D01*
X008719Y010327D01*
X008767Y010375D01*
X008807Y010430D01*
X008844Y010509D02*
X010245Y010509D01*
X010146Y010608D02*
X008867Y010608D01*
X008869Y010685D02*
X008869Y010689D01*
X008858Y010756D01*
X008838Y010820D01*
X008807Y010880D01*
X008767Y010935D01*
X008719Y010983D01*
X008664Y011023D01*
X008604Y011054D01*
X008540Y011074D01*
X008473Y011085D01*
X008189Y011085D01*
X008189Y010685D01*
X008869Y010685D01*
X008866Y010707D02*
X010048Y010707D01*
X009949Y010805D02*
X008842Y010805D01*
X008790Y010904D02*
X009851Y010904D01*
X009752Y011002D02*
X008693Y011002D01*
X008723Y011199D02*
X009555Y011199D01*
X009654Y011101D02*
X006825Y011101D01*
X006984Y011002D02*
X007625Y011002D01*
X007599Y010983D02*
X007551Y010935D01*
X007511Y010880D01*
X007481Y010820D01*
X007460Y010756D01*
X007449Y010689D01*
X007449Y010685D01*
X008129Y010685D01*
X008129Y010625D01*
X008189Y010625D01*
X008189Y010685D01*
X008129Y010685D01*
X008129Y011085D01*
X007845Y011085D01*
X007778Y011074D01*
X007714Y011054D01*
X007654Y011023D01*
X007599Y010983D01*
X007528Y010904D02*
X007066Y010904D01*
X007110Y010805D02*
X007476Y010805D01*
X007452Y010707D02*
X007132Y010707D01*
X007132Y010608D02*
X007451Y010608D01*
X007449Y010621D02*
X007460Y010554D01*
X007481Y010490D01*
X007511Y010430D01*
X007551Y010375D01*
X007599Y010327D01*
X007654Y010287D01*
X007714Y010257D01*
X007778Y010236D01*
X007845Y010225D01*
X008129Y010225D01*
X008129Y010625D01*
X007449Y010625D01*
X007449Y010621D01*
X007474Y010509D02*
X007111Y010509D01*
X007068Y010411D02*
X007525Y010411D01*
X007619Y010312D02*
X006988Y010312D01*
X006838Y010214D02*
X010571Y010214D01*
X010605Y010115D02*
X008713Y010115D01*
X008827Y010017D02*
X010491Y010017D01*
X010414Y009918D02*
X008904Y009918D01*
X008945Y009820D02*
X010374Y009820D01*
X010349Y009721D02*
X008969Y009721D01*
X008969Y009623D02*
X010349Y009623D01*
X010360Y009524D02*
X008958Y009524D01*
X008918Y009425D02*
X010400Y009425D01*
X010458Y009327D02*
X008860Y009327D01*
X008762Y009228D02*
X010556Y009228D01*
X010640Y009130D02*
X008678Y009130D01*
X008812Y009031D02*
X010506Y009031D01*
X010420Y008933D02*
X008898Y008933D01*
X008939Y008834D02*
X010380Y008834D01*
X010349Y008736D02*
X008969Y008736D01*
X008969Y008637D02*
X010349Y008637D01*
X010354Y008539D02*
X008964Y008539D01*
X008924Y008440D02*
X010394Y008440D01*
X010443Y008341D02*
X008875Y008341D01*
X008776Y008243D02*
X010542Y008243D01*
X010676Y008144D02*
X009730Y008144D01*
X009548Y008144D02*
X008643Y008144D01*
X008798Y008046D02*
X009353Y008046D01*
X009256Y007947D02*
X008892Y007947D01*
X008932Y007849D02*
X009216Y007849D01*
X009189Y007750D02*
X008982Y007750D01*
X009081Y007652D02*
X009189Y007652D01*
X009179Y007553D02*
X009211Y007553D01*
X009925Y008046D02*
X010520Y008046D01*
X010426Y007947D02*
X010022Y007947D01*
X010062Y007849D02*
X010386Y007849D01*
X010349Y007750D02*
X010089Y007750D01*
X010121Y007652D02*
X010349Y007652D01*
X010349Y007553D02*
X010219Y007553D01*
X010318Y007455D02*
X010388Y007455D01*
X010416Y007356D02*
X010429Y007356D01*
X010515Y007258D02*
X010527Y007258D01*
X010614Y007159D02*
X010692Y007159D01*
X012589Y008064D02*
X012589Y008202D01*
X012774Y008125D01*
X013544Y008125D01*
X013739Y008206D01*
X013779Y008245D01*
X013789Y008245D01*
X013887Y008148D01*
X014137Y007897D01*
X014105Y007820D01*
X014099Y007837D01*
X014065Y007904D01*
X014021Y007965D01*
X013968Y008017D01*
X013908Y008061D01*
X013841Y008095D01*
X013770Y008118D01*
X013696Y008130D01*
X013678Y008130D01*
X013678Y007674D01*
X013640Y007674D01*
X013640Y007636D01*
X013678Y007636D01*
X013678Y007180D01*
X013696Y007180D01*
X013770Y007192D01*
X013841Y007215D01*
X013908Y007249D01*
X013968Y007293D01*
X014021Y007346D01*
X014065Y007406D01*
X014099Y007473D01*
X014105Y007490D01*
X014172Y007329D01*
X014333Y007168D01*
X014545Y007080D01*
X014773Y007080D01*
X014845Y007110D01*
X014899Y007055D01*
X014347Y006503D01*
X014294Y006557D01*
X014129Y006625D01*
X014027Y006625D01*
X013386Y007266D01*
X013410Y007249D01*
X013477Y007215D01*
X013548Y007192D01*
X013622Y007180D01*
X013640Y007180D01*
X013640Y007636D01*
X013184Y007636D01*
X013184Y007618D01*
X013196Y007544D01*
X013219Y007473D01*
X013253Y007406D01*
X013270Y007382D01*
X012589Y008064D01*
X012607Y008046D02*
X013389Y008046D01*
X013410Y008061D02*
X013350Y008017D01*
X013297Y007965D01*
X013253Y007904D01*
X013219Y007837D01*
X013196Y007766D01*
X013184Y007692D01*
X013184Y007674D01*
X013640Y007674D01*
X013640Y008130D01*
X013622Y008130D01*
X013548Y008118D01*
X013477Y008095D01*
X013410Y008061D01*
X013284Y007947D02*
X012705Y007947D01*
X012804Y007849D02*
X013225Y007849D01*
X013193Y007750D02*
X012902Y007750D01*
X013001Y007652D02*
X013640Y007652D01*
X013640Y007750D02*
X013678Y007750D01*
X013678Y007849D02*
X013640Y007849D01*
X013640Y007947D02*
X013678Y007947D01*
X013678Y008046D02*
X013640Y008046D01*
X013591Y008144D02*
X013890Y008144D01*
X013887Y008148D02*
X013887Y008148D01*
X013929Y008046D02*
X013989Y008046D01*
X014034Y007947D02*
X014087Y007947D01*
X014093Y007849D02*
X014117Y007849D01*
X013791Y008243D02*
X013776Y008243D01*
X013678Y007553D02*
X013640Y007553D01*
X013640Y007455D02*
X013678Y007455D01*
X013678Y007356D02*
X013640Y007356D01*
X013640Y007258D02*
X013678Y007258D01*
X013494Y007159D02*
X014354Y007159D01*
X014243Y007258D02*
X013920Y007258D01*
X014029Y007356D02*
X014161Y007356D01*
X014120Y007455D02*
X014090Y007455D01*
X013691Y006962D02*
X014806Y006962D01*
X014894Y007060D02*
X013592Y007060D01*
X013398Y007258D02*
X013395Y007258D01*
X013228Y007455D02*
X013198Y007455D01*
X013194Y007553D02*
X013099Y007553D01*
X013789Y006863D02*
X014708Y006863D01*
X014609Y006765D02*
X013888Y006765D01*
X013986Y006666D02*
X014510Y006666D01*
X014412Y006568D02*
X014267Y006568D01*
X013589Y006187D02*
X013589Y006086D01*
X013658Y005920D01*
X013784Y005794D01*
X013950Y005725D01*
X014129Y005725D01*
X014189Y005750D01*
X014189Y003065D01*
X013401Y003065D01*
X013237Y003065D01*
X013087Y003003D01*
X012907Y002823D01*
X012782Y002875D01*
X012536Y002875D01*
X012308Y002781D01*
X012133Y002606D01*
X012039Y002378D01*
X012039Y002132D01*
X012133Y001904D01*
X012308Y001729D01*
X012536Y001635D01*
X012782Y001635D01*
X013010Y001729D01*
X013185Y001904D01*
X013211Y001967D01*
X013267Y002023D01*
X013489Y002245D01*
X014517Y002245D01*
X015099Y002245D01*
X015122Y002189D01*
X015192Y002118D01*
X015284Y002080D01*
X015447Y002080D01*
X015410Y002061D01*
X015350Y002017D01*
X015297Y001965D01*
X015253Y001904D01*
X015219Y001837D01*
X015196Y001766D01*
X015184Y001692D01*
X015184Y001674D01*
X015640Y001674D01*
X015640Y001636D01*
X015678Y001636D01*
X015678Y001180D01*
X015696Y001180D01*
X015770Y001192D01*
X015841Y001215D01*
X015908Y001249D01*
X015968Y001293D01*
X016021Y001346D01*
X016065Y001406D01*
X016099Y001473D01*
X016122Y001544D01*
X016134Y001618D01*
X016134Y001636D01*
X015678Y001636D01*
X015678Y001674D01*
X016134Y001674D01*
X016134Y001692D01*
X016122Y001766D01*
X016099Y001837D01*
X016065Y001904D01*
X016021Y001965D01*
X015968Y002017D01*
X015908Y002061D01*
X015871Y002080D01*
X016034Y002080D01*
X016126Y002118D01*
X016196Y002189D01*
X016234Y002280D01*
X016234Y003030D01*
X016196Y003122D01*
X016126Y003192D01*
X016034Y003230D01*
X015284Y003230D01*
X015192Y003192D01*
X015122Y003122D01*
X015099Y003065D01*
X015009Y003065D01*
X015009Y006005D01*
X015479Y006475D01*
X015567Y006388D01*
X015664Y006347D01*
X015672Y006329D01*
X015833Y006168D01*
X015994Y006101D01*
X015977Y006095D01*
X015910Y006061D01*
X015850Y006017D01*
X015797Y005965D01*
X015753Y005904D01*
X015719Y005837D01*
X015696Y005766D01*
X015684Y005692D01*
X015684Y005674D01*
X016140Y005674D01*
X016140Y005636D01*
X016178Y005636D01*
X016178Y005180D01*
X016196Y005180D01*
X016270Y005192D01*
X016341Y005215D01*
X016408Y005249D01*
X016468Y005293D01*
X016521Y005346D01*
X016565Y005406D01*
X016599Y005473D01*
X016622Y005544D01*
X016634Y005618D01*
X016634Y005636D01*
X016178Y005636D01*
X016178Y005674D01*
X016634Y005674D01*
X016634Y005692D01*
X016622Y005766D01*
X016599Y005837D01*
X016565Y005904D01*
X016521Y005965D01*
X016468Y006017D01*
X016408Y006061D01*
X016341Y006095D01*
X016324Y006101D01*
X016485Y006168D01*
X016646Y006329D01*
X016734Y006541D01*
X016734Y006610D01*
X016994Y006870D01*
X017054Y006845D01*
X017264Y006845D01*
X017459Y006926D01*
X017608Y007075D01*
X017659Y007197D01*
X017710Y007075D01*
X017859Y006926D01*
X018054Y006845D01*
X018264Y006845D01*
X018289Y006855D01*
X018289Y005824D01*
X017943Y005478D01*
X017856Y005391D01*
X017850Y005376D01*
X017710Y005235D01*
X017659Y005113D01*
X017608Y005235D01*
X017459Y005384D01*
X017264Y005465D01*
X017054Y005465D01*
X016859Y005384D01*
X016710Y005235D01*
X016629Y005041D01*
X016629Y004937D01*
X016583Y004918D01*
X016496Y004831D01*
X016496Y004831D01*
X015891Y004225D01*
X015790Y004225D01*
X015624Y004157D01*
X015498Y004030D01*
X015429Y003865D01*
X015429Y003686D01*
X015498Y003520D01*
X015624Y003394D01*
X015790Y003325D01*
X015969Y003325D01*
X016134Y003394D01*
X016261Y003520D01*
X016329Y003686D01*
X016329Y003787D01*
X016683Y004140D01*
X016710Y004075D01*
X016859Y003926D01*
X017054Y003845D01*
X017264Y003845D01*
X017459Y003926D01*
X017608Y004075D01*
X017659Y004197D01*
X017710Y004075D01*
X017859Y003926D01*
X018054Y003845D01*
X018264Y003845D01*
X018289Y003855D01*
X018289Y003584D01*
X015831Y001125D01*
X015527Y001125D01*
X015386Y001266D01*
X015410Y001249D01*
X015477Y001215D01*
X015548Y001192D01*
X015622Y001180D01*
X015640Y001180D01*
X015640Y001636D01*
X015184Y001636D01*
X015184Y001618D01*
X015196Y001544D01*
X015219Y001473D01*
X015253Y001406D01*
X015270Y001382D01*
X015255Y001398D01*
X015141Y001445D01*
X015017Y001445D01*
X010327Y001445D01*
X007389Y004384D01*
X007389Y004453D01*
X007430Y004355D01*
X007579Y004206D01*
X007774Y004125D01*
X008544Y004125D01*
X008739Y004206D01*
X008888Y004355D01*
X008969Y004550D01*
X008969Y004761D01*
X008888Y004955D01*
X008739Y005104D01*
X008617Y005155D01*
X008676Y005180D01*
X010256Y003599D01*
X010343Y003512D01*
X010457Y003465D01*
X011737Y003465D01*
X011861Y003465D01*
X011975Y003512D01*
X012855Y004392D01*
X012942Y004479D01*
X012989Y004593D01*
X012989Y005721D01*
X013010Y005729D01*
X013185Y005904D01*
X013279Y006132D01*
X013279Y006378D01*
X013195Y006580D01*
X013589Y006187D01*
X013589Y006174D02*
X013279Y006174D01*
X013279Y006272D02*
X013504Y006272D01*
X013405Y006371D02*
X013279Y006371D01*
X013307Y006469D02*
X013241Y006469D01*
X013208Y006568D02*
X013201Y006568D01*
X013255Y006075D02*
X013593Y006075D01*
X013634Y005976D02*
X013215Y005976D01*
X013159Y005878D02*
X013700Y005878D01*
X013819Y005779D02*
X013060Y005779D01*
X012989Y005681D02*
X014189Y005681D01*
X014189Y005582D02*
X012989Y005582D01*
X012989Y005484D02*
X014189Y005484D01*
X014189Y005385D02*
X012989Y005385D01*
X012989Y005287D02*
X014189Y005287D01*
X014189Y005188D02*
X012989Y005188D01*
X012989Y005090D02*
X014189Y005090D01*
X014189Y004991D02*
X012989Y004991D01*
X012989Y004892D02*
X014189Y004892D01*
X014189Y004794D02*
X012989Y004794D01*
X012989Y004695D02*
X014189Y004695D01*
X014189Y004597D02*
X012989Y004597D01*
X012950Y004498D02*
X014189Y004498D01*
X014189Y004400D02*
X012862Y004400D01*
X012764Y004301D02*
X014189Y004301D01*
X014189Y004203D02*
X012665Y004203D01*
X012566Y004104D02*
X014189Y004104D01*
X014189Y004006D02*
X012468Y004006D01*
X012369Y003907D02*
X014189Y003907D01*
X014189Y003809D02*
X012271Y003809D01*
X012172Y003710D02*
X014189Y003710D01*
X014189Y003611D02*
X012074Y003611D01*
X011975Y003513D02*
X014189Y003513D01*
X014189Y003414D02*
X008358Y003414D01*
X008457Y003316D02*
X014189Y003316D01*
X014189Y003217D02*
X008555Y003217D01*
X008654Y003119D02*
X014189Y003119D01*
X015009Y003119D02*
X015121Y003119D01*
X015009Y003217D02*
X015253Y003217D01*
X015009Y003316D02*
X018021Y003316D01*
X017923Y003217D02*
X016065Y003217D01*
X016197Y003119D02*
X017824Y003119D01*
X017726Y003020D02*
X016234Y003020D01*
X016234Y002922D02*
X017627Y002922D01*
X017529Y002823D02*
X016234Y002823D01*
X016234Y002725D02*
X017430Y002725D01*
X017332Y002626D02*
X016234Y002626D01*
X016234Y002527D02*
X017233Y002527D01*
X017134Y002429D02*
X016234Y002429D01*
X016234Y002330D02*
X017036Y002330D01*
X016937Y002232D02*
X016214Y002232D01*
X016141Y002133D02*
X016839Y002133D01*
X016740Y002035D02*
X015945Y002035D01*
X016042Y001936D02*
X016642Y001936D01*
X016543Y001838D02*
X016099Y001838D01*
X016127Y001739D02*
X016445Y001739D01*
X016346Y001641D02*
X015678Y001641D01*
X015640Y001641D02*
X012795Y001641D01*
X013020Y001739D02*
X015191Y001739D01*
X015219Y001838D02*
X013118Y001838D01*
X013198Y001936D02*
X015276Y001936D01*
X015373Y002035D02*
X013278Y002035D01*
X013377Y002133D02*
X015177Y002133D01*
X015104Y002232D02*
X013476Y002232D01*
X013006Y002922D02*
X008851Y002922D01*
X008752Y003020D02*
X013129Y003020D01*
X012410Y002823D02*
X008949Y002823D01*
X009048Y002725D02*
X012252Y002725D01*
X012153Y002626D02*
X009147Y002626D01*
X009245Y002527D02*
X012101Y002527D01*
X012060Y002429D02*
X009344Y002429D01*
X009442Y002330D02*
X012039Y002330D01*
X012039Y002232D02*
X009541Y002232D01*
X009639Y002133D02*
X012039Y002133D01*
X012079Y002035D02*
X009738Y002035D01*
X009836Y001936D02*
X012120Y001936D01*
X012200Y001838D02*
X009935Y001838D01*
X010033Y001739D02*
X012298Y001739D01*
X012523Y001641D02*
X010132Y001641D01*
X010231Y001542D02*
X015196Y001542D01*
X015234Y001443D02*
X015145Y001443D01*
X015406Y001246D02*
X015415Y001246D01*
X015505Y001148D02*
X015853Y001148D01*
X015903Y001246D02*
X015952Y001246D01*
X016021Y001345D02*
X016050Y001345D01*
X016084Y001443D02*
X016149Y001443D01*
X016122Y001542D02*
X016248Y001542D01*
X015678Y001542D02*
X015640Y001542D01*
X015640Y001443D02*
X015678Y001443D01*
X015678Y001345D02*
X015640Y001345D01*
X015640Y001246D02*
X015678Y001246D01*
X016387Y000805D02*
X018775Y003192D01*
X018862Y003279D01*
X018909Y003393D01*
X018909Y003905D01*
X019054Y003845D01*
X019264Y003845D01*
X019459Y003926D01*
X019608Y004075D01*
X019689Y004270D01*
X019689Y005041D01*
X019608Y005235D01*
X019459Y005384D01*
X019281Y005458D01*
X020007Y006185D01*
X022429Y006185D01*
X021851Y005607D01*
X021789Y005457D01*
X021789Y005315D01*
X021710Y005235D01*
X021629Y005041D01*
X021629Y004270D01*
X021710Y004075D01*
X021859Y003926D01*
X022005Y003865D01*
X021961Y003865D01*
X021797Y003865D01*
X021647Y003803D01*
X020562Y002718D01*
X020534Y002730D01*
X019784Y002730D01*
X019692Y002692D01*
X019622Y002622D01*
X019584Y002530D01*
X019584Y002367D01*
X019565Y002404D01*
X019521Y002465D01*
X019468Y002517D01*
X019408Y002561D01*
X019341Y002595D01*
X019270Y002618D01*
X019196Y002630D01*
X019178Y002630D01*
X019178Y002174D01*
X019140Y002174D01*
X019140Y002136D01*
X019178Y002136D01*
X019178Y001680D01*
X019196Y001680D01*
X019270Y001692D01*
X019341Y001715D01*
X019408Y001749D01*
X019468Y001793D01*
X019521Y001846D01*
X019565Y001906D01*
X019584Y001943D01*
X019584Y001780D01*
X019622Y001689D01*
X019692Y001618D01*
X019784Y001580D01*
X020534Y001580D01*
X020626Y001618D01*
X020696Y001689D01*
X020734Y001780D01*
X020734Y001787D01*
X020831Y001828D01*
X020947Y001943D01*
X022049Y003045D01*
X022589Y003045D01*
X022607Y003028D01*
X022734Y002975D01*
X022696Y002975D01*
X022659Y002975D01*
X022649Y002975D01*
X022622Y002975D01*
X022496Y002975D01*
X022195Y002850D01*
X022195Y002850D01*
X021964Y002620D01*
X021964Y002620D01*
X021839Y002318D01*
X021839Y001992D01*
X021964Y001691D01*
X021964Y001691D01*
X022195Y001460D01*
X022496Y001335D01*
X022659Y001335D01*
X022696Y001335D01*
X022822Y001335D01*
X022822Y001335D01*
X023124Y001460D01*
X023354Y001691D01*
X023479Y001992D01*
X023479Y002318D01*
X023479Y002318D01*
X023354Y002620D01*
X023124Y002850D01*
X023124Y002850D01*
X022846Y002965D01*
X022921Y002965D01*
X023534Y002965D01*
X023509Y002905D01*
X023509Y002726D01*
X023578Y002560D01*
X023704Y002434D01*
X023870Y002365D01*
X024049Y002365D01*
X024214Y002434D01*
X024341Y002560D01*
X024381Y002657D01*
X027317Y005594D01*
X027414Y005634D01*
X027541Y005760D01*
X027609Y005926D01*
X027609Y006105D01*
X027541Y006270D01*
X027414Y006397D01*
X027348Y006424D01*
X027956Y007032D01*
X028094Y006975D01*
X029224Y006975D01*
X029474Y007079D01*
X029666Y007270D01*
X029769Y007520D01*
X029769Y007790D01*
X029666Y008040D01*
X029474Y008232D01*
X029224Y008335D01*
X028094Y008335D01*
X027844Y008232D01*
X027653Y008040D01*
X027549Y007790D01*
X027549Y007785D01*
X026589Y006825D01*
X026464Y006825D01*
X026489Y006886D01*
X026489Y007065D01*
X026421Y007230D01*
X026294Y007357D01*
X026197Y007397D01*
X024819Y008775D01*
X024943Y008826D01*
X025488Y009371D01*
X025569Y009566D01*
X025569Y009776D01*
X025488Y009971D01*
X025339Y010120D01*
X025144Y010201D01*
X024934Y010201D01*
X024811Y010150D01*
X024862Y010273D01*
X024862Y010484D01*
X024781Y010678D01*
X024632Y010827D01*
X024437Y010908D01*
X024226Y010908D01*
X024104Y010857D01*
X024155Y010980D01*
X024155Y011191D01*
X024074Y011385D01*
X023925Y011535D01*
X023730Y011615D01*
X023519Y011615D01*
X023397Y011565D01*
X023448Y011687D01*
X023448Y011898D01*
X023367Y012093D01*
X023218Y012242D01*
X023023Y012322D01*
X022812Y012322D01*
X022690Y012272D01*
X022741Y012394D01*
X022741Y012605D01*
X022660Y012800D01*
X022511Y012949D01*
X022316Y013029D01*
X022105Y013029D01*
X021983Y012979D01*
X022033Y013101D01*
X022033Y013312D01*
X021953Y013507D01*
X021804Y013656D01*
X021609Y013737D01*
X021398Y013737D01*
X021276Y013686D01*
X021326Y013808D01*
X021326Y014019D01*
X021246Y014214D01*
X021097Y014363D01*
X020902Y014444D01*
X020691Y014444D01*
X020568Y014393D01*
X020619Y014515D01*
X020619Y014726D01*
X020575Y014833D01*
X022382Y016639D01*
X022429Y016753D01*
X022429Y016877D01*
X022429Y016913D01*
X022459Y016926D01*
X022608Y017075D01*
X022659Y017197D01*
X022710Y017075D01*
X022859Y016926D01*
X023054Y016845D01*
X023264Y016845D01*
X023459Y016926D01*
X023608Y017075D01*
X023689Y017270D01*
X023689Y017285D01*
X024849Y017285D01*
X024871Y017263D01*
X025220Y017118D01*
X025598Y017118D01*
X025625Y017129D01*
X026429Y016325D01*
X026429Y015374D01*
X026491Y015223D01*
X026607Y015108D01*
X028614Y013101D01*
X028584Y013030D01*
X028584Y012867D01*
X028565Y012904D01*
X028521Y012965D01*
X028468Y013017D01*
X028408Y013061D01*
X028341Y013095D01*
X028270Y013118D01*
X028196Y013130D01*
X028178Y013130D01*
X028178Y012674D01*
X028140Y012674D01*
X028140Y012636D01*
X028178Y012636D01*
X028178Y012180D01*
X028196Y012180D01*
X028270Y012192D01*
X028341Y012215D01*
X028408Y012249D01*
X028468Y012293D01*
X028521Y012346D01*
X028565Y012406D01*
X028584Y012443D01*
X028584Y012280D01*
X028622Y012189D01*
X028692Y012118D01*
X028784Y012080D01*
X029534Y012080D01*
X029626Y012118D01*
X029696Y012189D01*
X029734Y012280D01*
X029734Y013030D01*
X029696Y013122D01*
X029626Y013192D01*
X029569Y013215D01*
X029569Y013217D01*
X029648Y013170D02*
X031029Y013170D01*
X031029Y013072D02*
X029717Y013072D01*
X029734Y012973D02*
X031029Y012973D01*
X031029Y012874D02*
X029734Y012874D01*
X029734Y012776D02*
X031029Y012776D01*
X031029Y012677D02*
X029734Y012677D01*
X029734Y012579D02*
X031029Y012579D01*
X031029Y012480D02*
X029734Y012480D01*
X029734Y012382D02*
X031029Y012382D01*
X031029Y012283D02*
X029734Y012283D01*
X029692Y012185D02*
X031029Y012185D01*
X031029Y012086D02*
X029548Y012086D01*
X028770Y012086D02*
X023370Y012086D01*
X023410Y011988D02*
X031029Y011988D01*
X031029Y011889D02*
X023448Y011889D01*
X023448Y011791D02*
X031029Y011791D01*
X031029Y011692D02*
X023448Y011692D01*
X023467Y011593D02*
X023409Y011593D01*
X023783Y011593D02*
X031029Y011593D01*
X031029Y011495D02*
X023965Y011495D01*
X024063Y011396D02*
X031029Y011396D01*
X031029Y011298D02*
X024110Y011298D01*
X024151Y011199D02*
X031029Y011199D01*
X031029Y011101D02*
X024155Y011101D01*
X024155Y011002D02*
X031029Y011002D01*
X031029Y010904D02*
X024448Y010904D01*
X024654Y010805D02*
X031029Y010805D01*
X031029Y010707D02*
X024753Y010707D01*
X024810Y010608D02*
X031029Y010608D01*
X031029Y010509D02*
X024851Y010509D01*
X024862Y010411D02*
X031029Y010411D01*
X031029Y010312D02*
X029279Y010312D01*
X029224Y010335D02*
X029474Y010232D01*
X029666Y010040D01*
X029769Y009790D01*
X029769Y009520D01*
X029666Y009270D01*
X029474Y009079D01*
X029224Y008975D01*
X028094Y008975D01*
X027844Y009079D01*
X027653Y009270D01*
X027549Y009520D01*
X027549Y009790D01*
X027653Y010040D01*
X027844Y010232D01*
X028094Y010335D01*
X029224Y010335D01*
X029492Y010214D02*
X031029Y010214D01*
X031029Y010115D02*
X029591Y010115D01*
X029675Y010017D02*
X031029Y010017D01*
X031029Y009918D02*
X029716Y009918D01*
X029757Y009820D02*
X031029Y009820D01*
X031029Y009721D02*
X029769Y009721D01*
X029769Y009623D02*
X031029Y009623D01*
X031029Y009524D02*
X029769Y009524D01*
X029730Y009425D02*
X031029Y009425D01*
X031029Y009327D02*
X029689Y009327D01*
X029624Y009228D02*
X031029Y009228D01*
X031029Y009130D02*
X029525Y009130D01*
X029360Y009031D02*
X031029Y009031D01*
X031029Y008933D02*
X025050Y008933D01*
X025149Y009031D02*
X027958Y009031D01*
X027793Y009130D02*
X025247Y009130D01*
X025346Y009228D02*
X027694Y009228D01*
X027629Y009327D02*
X025444Y009327D01*
X025511Y009425D02*
X027588Y009425D01*
X027549Y009524D02*
X025552Y009524D01*
X025569Y009623D02*
X027549Y009623D01*
X027549Y009721D02*
X025569Y009721D01*
X025551Y009820D02*
X027561Y009820D01*
X027602Y009918D02*
X025510Y009918D01*
X025443Y010017D02*
X027643Y010017D01*
X027728Y010115D02*
X025344Y010115D01*
X024837Y010214D02*
X027826Y010214D01*
X028039Y010312D02*
X024862Y010312D01*
X024215Y010904D02*
X024123Y010904D01*
X023275Y012185D02*
X028093Y012185D01*
X028122Y012180D02*
X028140Y012180D01*
X028140Y012636D01*
X027684Y012636D01*
X027684Y012618D01*
X027696Y012544D01*
X027719Y012473D01*
X027753Y012406D01*
X027797Y012346D01*
X027850Y012293D01*
X027910Y012249D01*
X027977Y012215D01*
X028048Y012192D01*
X028122Y012180D01*
X028140Y012185D02*
X028178Y012185D01*
X028225Y012185D02*
X028626Y012185D01*
X028584Y012283D02*
X028455Y012283D01*
X028548Y012382D02*
X028584Y012382D01*
X028178Y012382D02*
X028140Y012382D01*
X028140Y012480D02*
X028178Y012480D01*
X028178Y012579D02*
X028140Y012579D01*
X028140Y012674D02*
X027684Y012674D01*
X027684Y012692D01*
X027696Y012766D01*
X027719Y012837D01*
X027753Y012904D01*
X027797Y012965D01*
X027850Y013017D01*
X027910Y013061D01*
X027977Y013095D01*
X028048Y013118D01*
X028122Y013130D01*
X028140Y013130D01*
X028140Y012674D01*
X028140Y012677D02*
X028178Y012677D01*
X028178Y012776D02*
X028140Y012776D01*
X028140Y012874D02*
X028178Y012874D01*
X028178Y012973D02*
X028140Y012973D01*
X028140Y013072D02*
X028178Y013072D01*
X028388Y013072D02*
X028601Y013072D01*
X028584Y012973D02*
X028513Y012973D01*
X028580Y012874D02*
X028584Y012874D01*
X028544Y013170D02*
X022033Y013170D01*
X022033Y013269D02*
X028446Y013269D01*
X028347Y013367D02*
X022011Y013367D01*
X021970Y013466D02*
X028249Y013466D01*
X028150Y013564D02*
X021895Y013564D01*
X021787Y013663D02*
X028051Y013663D01*
X027953Y013761D02*
X021307Y013761D01*
X021326Y013860D02*
X027854Y013860D01*
X027756Y013958D02*
X021326Y013958D01*
X021311Y014057D02*
X027657Y014057D01*
X027559Y014156D02*
X021270Y014156D01*
X021205Y014254D02*
X027460Y014254D01*
X027362Y014353D02*
X021107Y014353D01*
X020593Y014451D02*
X027263Y014451D01*
X027165Y014550D02*
X020619Y014550D01*
X020619Y014648D02*
X027066Y014648D01*
X026968Y014747D02*
X020611Y014747D01*
X020588Y014845D02*
X025154Y014845D01*
X025220Y014818D02*
X025598Y014818D01*
X025947Y014963D01*
X026214Y015230D01*
X026359Y015579D01*
X026359Y015957D01*
X026214Y016306D01*
X025947Y016573D01*
X025598Y016718D01*
X025220Y016718D01*
X024871Y016573D01*
X024604Y016306D01*
X024459Y015957D01*
X024459Y015579D01*
X024604Y015230D01*
X024871Y014963D01*
X025220Y014818D01*
X024916Y014944D02*
X020686Y014944D01*
X020785Y015042D02*
X024791Y015042D01*
X024693Y015141D02*
X020883Y015141D01*
X020982Y015240D02*
X024600Y015240D01*
X024559Y015338D02*
X021080Y015338D01*
X021179Y015437D02*
X024518Y015437D01*
X024477Y015535D02*
X021277Y015535D01*
X021376Y015634D02*
X024459Y015634D01*
X024459Y015732D02*
X021475Y015732D01*
X021573Y015831D02*
X024459Y015831D01*
X024459Y015929D02*
X021672Y015929D01*
X021770Y016028D02*
X024488Y016028D01*
X024529Y016126D02*
X021869Y016126D01*
X021967Y016225D02*
X024570Y016225D01*
X024621Y016324D02*
X022066Y016324D01*
X022164Y016422D02*
X024719Y016422D01*
X024818Y016521D02*
X022263Y016521D01*
X022361Y016619D02*
X024981Y016619D01*
X025219Y016718D02*
X022414Y016718D01*
X022429Y016816D02*
X025938Y016816D01*
X026037Y016718D02*
X025599Y016718D01*
X025837Y016619D02*
X026135Y016619D01*
X026234Y016521D02*
X026000Y016521D01*
X026099Y016422D02*
X026332Y016422D01*
X026429Y016324D02*
X026197Y016324D01*
X026248Y016225D02*
X026429Y016225D01*
X026429Y016126D02*
X026289Y016126D01*
X026330Y016028D02*
X026429Y016028D01*
X026429Y015929D02*
X026359Y015929D01*
X026359Y015831D02*
X026429Y015831D01*
X026429Y015732D02*
X026359Y015732D01*
X026359Y015634D02*
X026429Y015634D01*
X026429Y015535D02*
X026341Y015535D01*
X026300Y015437D02*
X026429Y015437D01*
X026444Y015338D02*
X026259Y015338D01*
X026218Y015240D02*
X026485Y015240D01*
X026573Y015141D02*
X026125Y015141D01*
X026027Y015042D02*
X026672Y015042D01*
X026770Y014944D02*
X025902Y014944D01*
X025664Y014845D02*
X026869Y014845D01*
X027249Y016422D02*
X031029Y016422D01*
X031029Y016324D02*
X029252Y016324D01*
X029481Y016225D02*
X031029Y016225D01*
X031029Y016126D02*
X029579Y016126D01*
X029671Y016028D02*
X031029Y016028D01*
X031029Y015929D02*
X029711Y015929D01*
X029752Y015831D02*
X031029Y015831D01*
X031029Y015732D02*
X029769Y015732D01*
X029769Y015634D02*
X031029Y015634D01*
X031029Y015535D02*
X029769Y015535D01*
X029735Y015437D02*
X031029Y015437D01*
X031029Y015338D02*
X029694Y015338D01*
X029635Y015240D02*
X031029Y015240D01*
X031029Y015141D02*
X029537Y015141D01*
X029387Y015042D02*
X031029Y015042D01*
X031029Y016521D02*
X027249Y016521D01*
X027231Y016619D02*
X031029Y016619D01*
X031029Y016718D02*
X027191Y016718D01*
X027098Y016816D02*
X031029Y016816D01*
X027811Y017112D02*
X026802Y017112D01*
X026704Y017210D02*
X027712Y017210D01*
X027636Y017309D02*
X026605Y017309D01*
X026506Y017407D02*
X027596Y017407D01*
X027555Y017506D02*
X026408Y017506D01*
X026309Y017605D02*
X027549Y017605D01*
X027549Y017703D02*
X026286Y017703D01*
X026327Y017802D02*
X027554Y017802D01*
X027595Y017900D02*
X026359Y017900D01*
X026359Y017999D02*
X027635Y017999D01*
X027617Y018097D02*
X026359Y018097D01*
X026359Y018196D02*
X027519Y018196D01*
X027420Y018294D02*
X026344Y018294D01*
X026303Y018393D02*
X027321Y018393D01*
X027223Y018491D02*
X026262Y018491D01*
X026221Y018590D02*
X027124Y018590D01*
X027026Y018689D02*
X026132Y018689D01*
X026034Y018787D02*
X026927Y018787D01*
X026829Y018886D02*
X025918Y018886D01*
X025051Y020462D02*
X024892Y020462D01*
X024847Y020561D02*
X024793Y020561D01*
X024748Y020659D02*
X024695Y020659D01*
X024650Y020758D02*
X024596Y020758D01*
X024582Y020856D02*
X024497Y020856D01*
X024541Y020955D02*
X024449Y020955D01*
X024449Y021054D02*
X024500Y021054D01*
X024459Y021152D02*
X024449Y021152D01*
X024449Y021251D02*
X024459Y021251D01*
X024449Y021349D02*
X024459Y021349D01*
X024449Y021448D02*
X024459Y021448D01*
X024445Y021546D02*
X024465Y021546D01*
X024506Y021645D02*
X024404Y021645D01*
X024331Y021743D02*
X024547Y021743D01*
X024588Y021842D02*
X024232Y021842D01*
X024133Y021940D02*
X024664Y021940D01*
X024762Y022039D02*
X024035Y022039D01*
X023936Y022138D02*
X024861Y022138D01*
X025085Y022236D02*
X023838Y022236D01*
X023666Y022335D02*
X028093Y022335D01*
X028094Y022975D02*
X027844Y023079D01*
X027653Y023270D01*
X027549Y023520D01*
X027549Y023790D01*
X027653Y024040D01*
X027844Y024232D01*
X028094Y024335D01*
X029224Y024335D01*
X029474Y024232D01*
X029666Y024040D01*
X029769Y023790D01*
X029769Y023520D01*
X029666Y023270D01*
X029474Y023079D01*
X029224Y022975D01*
X028094Y022975D01*
X027975Y023024D02*
X026135Y023024D01*
X026214Y023104D02*
X026359Y023453D01*
X026359Y023831D01*
X026214Y024180D01*
X025947Y024447D01*
X025817Y024501D01*
X031029Y024501D01*
X031029Y000805D01*
X016387Y000805D01*
X016434Y000852D02*
X031029Y000852D01*
X031029Y000951D02*
X016533Y000951D01*
X016632Y001049D02*
X027915Y001049D01*
X027844Y001079D02*
X028094Y000975D01*
X029224Y000975D01*
X029474Y001079D01*
X029666Y001270D01*
X029769Y001520D01*
X029769Y001790D01*
X029666Y002040D01*
X029474Y002232D01*
X031029Y002232D01*
X031029Y002330D02*
X029236Y002330D01*
X029224Y002335D02*
X028094Y002335D01*
X027844Y002232D01*
X027653Y002040D01*
X027549Y001790D01*
X027549Y001520D01*
X027653Y001270D01*
X027844Y001079D01*
X027775Y001148D02*
X016730Y001148D01*
X016829Y001246D02*
X027676Y001246D01*
X027621Y001345D02*
X022846Y001345D01*
X023084Y001443D02*
X027581Y001443D01*
X027549Y001542D02*
X023206Y001542D01*
X023124Y001460D02*
X023124Y001460D01*
X023304Y001641D02*
X027549Y001641D01*
X027549Y001739D02*
X023374Y001739D01*
X023354Y001691D02*
X023354Y001691D01*
X023415Y001838D02*
X027569Y001838D01*
X027609Y001936D02*
X023456Y001936D01*
X023479Y001992D02*
X023479Y001992D01*
X023479Y002035D02*
X027650Y002035D01*
X027746Y002133D02*
X023479Y002133D01*
X023479Y002232D02*
X027844Y002232D01*
X028082Y002330D02*
X023474Y002330D01*
X023433Y002429D02*
X023716Y002429D01*
X023610Y002527D02*
X023392Y002527D01*
X023354Y002620D02*
X023354Y002620D01*
X023348Y002626D02*
X023550Y002626D01*
X023509Y002725D02*
X023249Y002725D01*
X023151Y002823D02*
X023509Y002823D01*
X023516Y002922D02*
X022951Y002922D01*
X022625Y003020D02*
X022024Y003020D01*
X021925Y002922D02*
X022367Y002922D01*
X022496Y002975D02*
X022496Y002975D01*
X022167Y002823D02*
X021827Y002823D01*
X021728Y002725D02*
X022069Y002725D01*
X021970Y002626D02*
X021630Y002626D01*
X021531Y002527D02*
X021926Y002527D01*
X021885Y002429D02*
X021433Y002429D01*
X021334Y002330D02*
X021844Y002330D01*
X021839Y002318D02*
X021839Y002318D01*
X021839Y002232D02*
X021236Y002232D01*
X021137Y002133D02*
X021839Y002133D01*
X021839Y002035D02*
X021038Y002035D01*
X020940Y001936D02*
X021862Y001936D01*
X021839Y001992D02*
X021839Y001992D01*
X021903Y001838D02*
X020841Y001838D01*
X020717Y001739D02*
X021944Y001739D01*
X022014Y001641D02*
X020648Y001641D01*
X019670Y001641D02*
X017223Y001641D01*
X017321Y001739D02*
X018929Y001739D01*
X018910Y001749D02*
X018977Y001715D01*
X019048Y001692D01*
X019122Y001680D01*
X019140Y001680D01*
X019140Y002136D01*
X018684Y002136D01*
X018684Y002118D01*
X018696Y002044D01*
X018719Y001973D01*
X018753Y001906D01*
X018797Y001846D01*
X018850Y001793D01*
X018910Y001749D01*
X018805Y001838D02*
X017420Y001838D01*
X017518Y001936D02*
X018737Y001936D01*
X018699Y002035D02*
X017617Y002035D01*
X017716Y002133D02*
X018684Y002133D01*
X018684Y002174D02*
X019140Y002174D01*
X019140Y002630D01*
X019122Y002630D01*
X019048Y002618D01*
X018977Y002595D01*
X018910Y002561D01*
X018850Y002517D01*
X018797Y002465D01*
X018753Y002404D01*
X018719Y002337D01*
X018696Y002266D01*
X018684Y002192D01*
X018684Y002174D01*
X018690Y002232D02*
X017814Y002232D01*
X017913Y002330D02*
X018717Y002330D01*
X018771Y002429D02*
X018011Y002429D01*
X018110Y002527D02*
X018863Y002527D01*
X019096Y002626D02*
X018208Y002626D01*
X018307Y002725D02*
X019771Y002725D01*
X019626Y002626D02*
X019222Y002626D01*
X019178Y002626D02*
X019140Y002626D01*
X019140Y002527D02*
X019178Y002527D01*
X019178Y002429D02*
X019140Y002429D01*
X019140Y002330D02*
X019178Y002330D01*
X019178Y002232D02*
X019140Y002232D01*
X019140Y002133D02*
X019178Y002133D01*
X019178Y002035D02*
X019140Y002035D01*
X019140Y001936D02*
X019178Y001936D01*
X019178Y001838D02*
X019140Y001838D01*
X019140Y001739D02*
X019178Y001739D01*
X019389Y001739D02*
X019601Y001739D01*
X019584Y001838D02*
X019513Y001838D01*
X019581Y001936D02*
X019584Y001936D01*
X019584Y002429D02*
X019547Y002429D01*
X019584Y002527D02*
X019455Y002527D01*
X018800Y003217D02*
X021061Y003217D01*
X020963Y003119D02*
X018701Y003119D01*
X018602Y003020D02*
X020864Y003020D01*
X020766Y002922D02*
X018504Y002922D01*
X018405Y002823D02*
X020667Y002823D01*
X020569Y002725D02*
X020547Y002725D01*
X021160Y003316D02*
X018877Y003316D01*
X018909Y003414D02*
X021259Y003414D01*
X021357Y003513D02*
X018909Y003513D01*
X018909Y003611D02*
X021456Y003611D01*
X021554Y003710D02*
X018909Y003710D01*
X018909Y003809D02*
X021661Y003809D01*
X021779Y004006D02*
X021381Y004006D01*
X021384Y004007D02*
X021439Y004047D01*
X021487Y004095D01*
X021527Y004150D01*
X021558Y004210D01*
X021578Y004274D01*
X021589Y004341D01*
X021589Y004625D01*
X021189Y004625D01*
X021189Y003945D01*
X021193Y003945D01*
X021260Y003956D01*
X021324Y003977D01*
X021384Y004007D01*
X021494Y004104D02*
X021698Y004104D01*
X021657Y004203D02*
X021554Y004203D01*
X021583Y004301D02*
X021629Y004301D01*
X021629Y004400D02*
X021589Y004400D01*
X021589Y004498D02*
X021629Y004498D01*
X021629Y004597D02*
X021589Y004597D01*
X021589Y004685D02*
X021589Y004969D01*
X021578Y005036D01*
X021558Y005100D01*
X021527Y005160D01*
X021487Y005215D01*
X021439Y005263D01*
X021384Y005303D01*
X021324Y005334D01*
X021260Y005354D01*
X021193Y005365D01*
X021189Y005365D01*
X021189Y004685D01*
X021589Y004685D01*
X021589Y004695D02*
X021629Y004695D01*
X021629Y004794D02*
X021589Y004794D01*
X021589Y004892D02*
X021629Y004892D01*
X021629Y004991D02*
X021586Y004991D01*
X021561Y005090D02*
X021649Y005090D01*
X021690Y005188D02*
X021507Y005188D01*
X021407Y005287D02*
X021761Y005287D01*
X021789Y005385D02*
X019457Y005385D01*
X019557Y005287D02*
X019911Y005287D01*
X019934Y005303D02*
X019879Y005263D01*
X019831Y005215D01*
X019791Y005160D01*
X019761Y005100D01*
X019740Y005036D01*
X019729Y004969D01*
X019729Y004685D01*
X020129Y004685D01*
X020129Y004625D01*
X020189Y004625D01*
X020189Y003945D01*
X020193Y003945D01*
X020260Y003956D01*
X020324Y003977D01*
X020384Y004007D01*
X020439Y004047D01*
X020487Y004095D01*
X020527Y004150D01*
X020558Y004210D01*
X020578Y004274D01*
X020589Y004341D01*
X020589Y004625D01*
X020189Y004625D01*
X020189Y004685D01*
X020589Y004685D01*
X020589Y004969D01*
X020578Y005036D01*
X020558Y005100D01*
X020527Y005160D01*
X020487Y005215D01*
X020439Y005263D01*
X020384Y005303D01*
X020324Y005334D01*
X020260Y005354D01*
X020193Y005365D01*
X020189Y005365D01*
X020189Y004685D01*
X020129Y004685D01*
X020129Y005365D01*
X020125Y005365D01*
X020058Y005354D01*
X019994Y005334D01*
X019934Y005303D01*
X019811Y005188D02*
X019628Y005188D01*
X019669Y005090D02*
X019757Y005090D01*
X019733Y004991D02*
X019689Y004991D01*
X019689Y004892D02*
X019729Y004892D01*
X019729Y004794D02*
X019689Y004794D01*
X019689Y004695D02*
X019729Y004695D01*
X019729Y004625D02*
X019729Y004341D01*
X019740Y004274D01*
X019761Y004210D01*
X019791Y004150D01*
X019831Y004095D01*
X019879Y004047D01*
X019934Y004007D01*
X019994Y003977D01*
X020058Y003956D01*
X020125Y003945D01*
X020129Y003945D01*
X020129Y004625D01*
X019729Y004625D01*
X019729Y004597D02*
X019689Y004597D01*
X019689Y004498D02*
X019729Y004498D01*
X019729Y004400D02*
X019689Y004400D01*
X019689Y004301D02*
X019735Y004301D01*
X019764Y004203D02*
X019661Y004203D01*
X019620Y004104D02*
X019824Y004104D01*
X019937Y004006D02*
X019539Y004006D01*
X019414Y003907D02*
X021904Y003907D01*
X021189Y004006D02*
X021129Y004006D01*
X021129Y003945D02*
X021129Y004625D01*
X021189Y004625D01*
X021189Y004685D01*
X021129Y004685D01*
X021129Y004625D01*
X020729Y004625D01*
X020729Y004341D01*
X020740Y004274D01*
X020761Y004210D01*
X020791Y004150D01*
X020831Y004095D01*
X020879Y004047D01*
X020934Y004007D01*
X020994Y003977D01*
X021058Y003956D01*
X021125Y003945D01*
X021129Y003945D01*
X021129Y004104D02*
X021189Y004104D01*
X021189Y004203D02*
X021129Y004203D01*
X021129Y004301D02*
X021189Y004301D01*
X021189Y004400D02*
X021129Y004400D01*
X021129Y004498D02*
X021189Y004498D01*
X021189Y004597D02*
X021129Y004597D01*
X021129Y004685D02*
X020729Y004685D01*
X020729Y004969D01*
X020740Y005036D01*
X020761Y005100D01*
X020791Y005160D01*
X020831Y005215D01*
X020879Y005263D01*
X020934Y005303D01*
X020994Y005334D01*
X021058Y005354D01*
X021125Y005365D01*
X021129Y005365D01*
X021129Y004685D01*
X021129Y004695D02*
X021189Y004695D01*
X021189Y004794D02*
X021129Y004794D01*
X021129Y004892D02*
X021189Y004892D01*
X021189Y004991D02*
X021129Y004991D01*
X021129Y005090D02*
X021189Y005090D01*
X021189Y005188D02*
X021129Y005188D01*
X021129Y005287D02*
X021189Y005287D01*
X020911Y005287D02*
X020407Y005287D01*
X020507Y005188D02*
X020811Y005188D01*
X020757Y005090D02*
X020561Y005090D01*
X020586Y004991D02*
X020733Y004991D01*
X020729Y004892D02*
X020589Y004892D01*
X020589Y004794D02*
X020729Y004794D01*
X020729Y004695D02*
X020589Y004695D01*
X020589Y004597D02*
X020729Y004597D01*
X020729Y004498D02*
X020589Y004498D01*
X020589Y004400D02*
X020729Y004400D01*
X020735Y004301D02*
X020583Y004301D01*
X020554Y004203D02*
X020764Y004203D01*
X020824Y004104D02*
X020494Y004104D01*
X020381Y004006D02*
X020937Y004006D01*
X020189Y004006D02*
X020129Y004006D01*
X020129Y004104D02*
X020189Y004104D01*
X020189Y004203D02*
X020129Y004203D01*
X020129Y004301D02*
X020189Y004301D01*
X020189Y004400D02*
X020129Y004400D01*
X020129Y004498D02*
X020189Y004498D01*
X020189Y004597D02*
X020129Y004597D01*
X020129Y004695D02*
X020189Y004695D01*
X020189Y004794D02*
X020129Y004794D01*
X020129Y004892D02*
X020189Y004892D01*
X020189Y004991D02*
X020129Y004991D01*
X020129Y005090D02*
X020189Y005090D01*
X020189Y005188D02*
X020129Y005188D01*
X020129Y005287D02*
X020189Y005287D01*
X019602Y005779D02*
X022024Y005779D01*
X022122Y005878D02*
X019700Y005878D01*
X019799Y005976D02*
X022221Y005976D01*
X022319Y006075D02*
X019897Y006075D01*
X019996Y006174D02*
X022418Y006174D01*
X022551Y006805D02*
X019817Y006805D01*
X019703Y006758D01*
X019616Y006671D01*
X018909Y005963D01*
X018909Y006905D01*
X019054Y006845D01*
X019264Y006845D01*
X019459Y006926D01*
X019608Y007075D01*
X019689Y007270D01*
X019689Y008041D01*
X019664Y008100D01*
X020049Y008485D01*
X023869Y008485D01*
X023937Y008417D01*
X023859Y008384D01*
X023710Y008235D01*
X023659Y008113D01*
X023608Y008235D01*
X023459Y008384D01*
X023264Y008465D01*
X023054Y008465D01*
X022859Y008384D01*
X022710Y008235D01*
X022659Y008113D01*
X022608Y008235D01*
X022459Y008384D01*
X022264Y008465D01*
X022054Y008465D01*
X021859Y008384D01*
X021710Y008235D01*
X021629Y008041D01*
X021629Y007270D01*
X021710Y007075D01*
X021859Y006926D01*
X022054Y006845D01*
X022264Y006845D01*
X022459Y006926D01*
X022608Y007075D01*
X022659Y007197D01*
X022710Y007075D01*
X022765Y007020D01*
X022551Y006805D01*
X022609Y006863D02*
X022308Y006863D01*
X022495Y006962D02*
X022707Y006962D01*
X022724Y007060D02*
X022594Y007060D01*
X022643Y007159D02*
X022675Y007159D01*
X022010Y006863D02*
X019308Y006863D01*
X019495Y006962D02*
X020039Y006962D01*
X020058Y006956D02*
X019994Y006977D01*
X019934Y007007D01*
X019879Y007047D01*
X019831Y007095D01*
X019791Y007150D01*
X019761Y007210D01*
X019740Y007274D01*
X019729Y007341D01*
X019729Y007625D01*
X020129Y007625D01*
X020189Y007625D01*
X020189Y006945D01*
X020193Y006945D01*
X020260Y006956D01*
X020324Y006977D01*
X020384Y007007D01*
X020439Y007047D01*
X020487Y007095D01*
X020527Y007150D01*
X020558Y007210D01*
X020578Y007274D01*
X020589Y007341D01*
X020589Y007625D01*
X020189Y007625D01*
X020189Y007685D01*
X020589Y007685D01*
X020589Y007969D01*
X020578Y008036D01*
X020558Y008100D01*
X020527Y008160D01*
X020487Y008215D01*
X020439Y008263D01*
X020384Y008303D01*
X020324Y008334D01*
X020260Y008354D01*
X020193Y008365D01*
X020189Y008365D01*
X020189Y007685D01*
X020129Y007685D01*
X020129Y007625D01*
X020129Y006945D01*
X020125Y006945D01*
X020058Y006956D01*
X020129Y006962D02*
X020189Y006962D01*
X020279Y006962D02*
X021039Y006962D01*
X021058Y006956D02*
X021125Y006945D01*
X021129Y006945D01*
X021129Y007625D01*
X021189Y007625D01*
X021189Y006945D01*
X021193Y006945D01*
X021260Y006956D01*
X021324Y006977D01*
X021384Y007007D01*
X021439Y007047D01*
X021487Y007095D01*
X021527Y007150D01*
X021558Y007210D01*
X021578Y007274D01*
X021589Y007341D01*
X021589Y007625D01*
X021189Y007625D01*
X021189Y007685D01*
X021589Y007685D01*
X021589Y007969D01*
X021578Y008036D01*
X021558Y008100D01*
X021527Y008160D01*
X021487Y008215D01*
X021439Y008263D01*
X021384Y008303D01*
X021324Y008334D01*
X021260Y008354D01*
X021193Y008365D01*
X021189Y008365D01*
X021189Y007685D01*
X021129Y007685D01*
X021129Y007625D01*
X020729Y007625D01*
X020729Y007341D01*
X020740Y007274D01*
X020761Y007210D01*
X020791Y007150D01*
X020831Y007095D01*
X020879Y007047D01*
X020934Y007007D01*
X020994Y006977D01*
X021058Y006956D01*
X021129Y006962D02*
X021189Y006962D01*
X021279Y006962D02*
X021823Y006962D01*
X021724Y007060D02*
X021452Y007060D01*
X021531Y007159D02*
X021675Y007159D01*
X021634Y007258D02*
X021573Y007258D01*
X021589Y007356D02*
X021629Y007356D01*
X021629Y007455D02*
X021589Y007455D01*
X021589Y007553D02*
X021629Y007553D01*
X021629Y007652D02*
X021189Y007652D01*
X021129Y007652D02*
X020189Y007652D01*
X020129Y007652D02*
X019689Y007652D01*
X019729Y007685D02*
X019729Y007969D01*
X019740Y008036D01*
X019761Y008100D01*
X019791Y008160D01*
X019831Y008215D01*
X019879Y008263D01*
X019934Y008303D01*
X019994Y008334D01*
X020058Y008354D01*
X020125Y008365D01*
X020129Y008365D01*
X020129Y007685D01*
X019729Y007685D01*
X019729Y007750D02*
X019689Y007750D01*
X019689Y007849D02*
X019729Y007849D01*
X019729Y007947D02*
X019689Y007947D01*
X019687Y008046D02*
X019743Y008046D01*
X019708Y008144D02*
X019783Y008144D01*
X019807Y008243D02*
X019859Y008243D01*
X019905Y008341D02*
X020018Y008341D01*
X020004Y008440D02*
X021993Y008440D01*
X021816Y008341D02*
X021300Y008341D01*
X021189Y008341D02*
X021129Y008341D01*
X021129Y008365D02*
X021125Y008365D01*
X021058Y008354D01*
X020994Y008334D01*
X020934Y008303D01*
X020879Y008263D01*
X020831Y008215D01*
X020791Y008160D01*
X020761Y008100D01*
X020740Y008036D01*
X020729Y007969D01*
X020729Y007685D01*
X021129Y007685D01*
X021129Y008365D01*
X021018Y008341D02*
X020300Y008341D01*
X020189Y008341D02*
X020129Y008341D01*
X020129Y008243D02*
X020189Y008243D01*
X020189Y008144D02*
X020129Y008144D01*
X020129Y008046D02*
X020189Y008046D01*
X020189Y007947D02*
X020129Y007947D01*
X020129Y007849D02*
X020189Y007849D01*
X020189Y007750D02*
X020129Y007750D01*
X020129Y007553D02*
X020189Y007553D01*
X020189Y007455D02*
X020129Y007455D01*
X020129Y007356D02*
X020189Y007356D01*
X020189Y007258D02*
X020129Y007258D01*
X020129Y007159D02*
X020189Y007159D01*
X020189Y007060D02*
X020129Y007060D01*
X019866Y007060D02*
X019594Y007060D01*
X019643Y007159D02*
X019787Y007159D01*
X019745Y007258D02*
X019684Y007258D01*
X019689Y007356D02*
X019729Y007356D01*
X019729Y007455D02*
X019689Y007455D01*
X019689Y007553D02*
X019729Y007553D01*
X020589Y007553D02*
X020729Y007553D01*
X020729Y007455D02*
X020589Y007455D01*
X020589Y007356D02*
X020729Y007356D01*
X020745Y007258D02*
X020573Y007258D01*
X020531Y007159D02*
X020787Y007159D01*
X020866Y007060D02*
X020452Y007060D01*
X021129Y007060D02*
X021189Y007060D01*
X021189Y007159D02*
X021129Y007159D01*
X021129Y007258D02*
X021189Y007258D01*
X021189Y007356D02*
X021129Y007356D01*
X021129Y007455D02*
X021189Y007455D01*
X021189Y007553D02*
X021129Y007553D01*
X021129Y007750D02*
X021189Y007750D01*
X021189Y007849D02*
X021129Y007849D01*
X021129Y007947D02*
X021189Y007947D01*
X021189Y008046D02*
X021129Y008046D01*
X021129Y008144D02*
X021189Y008144D01*
X021189Y008243D02*
X021129Y008243D01*
X020859Y008243D02*
X020459Y008243D01*
X020535Y008144D02*
X020783Y008144D01*
X020743Y008046D02*
X020575Y008046D01*
X020589Y007947D02*
X020729Y007947D01*
X020729Y007849D02*
X020589Y007849D01*
X020589Y007750D02*
X020729Y007750D01*
X021589Y007750D02*
X021629Y007750D01*
X021629Y007849D02*
X021589Y007849D01*
X021589Y007947D02*
X021629Y007947D01*
X021631Y008046D02*
X021575Y008046D01*
X021535Y008144D02*
X021672Y008144D01*
X021717Y008243D02*
X021459Y008243D01*
X022325Y008440D02*
X022993Y008440D01*
X022816Y008341D02*
X022502Y008341D01*
X022601Y008243D02*
X022717Y008243D01*
X022672Y008144D02*
X022646Y008144D01*
X023325Y008440D02*
X023914Y008440D01*
X023816Y008341D02*
X023502Y008341D01*
X023601Y008243D02*
X023717Y008243D01*
X023672Y008144D02*
X023646Y008144D01*
X024858Y008736D02*
X031029Y008736D01*
X031029Y008834D02*
X024952Y008834D01*
X024957Y008637D02*
X031029Y008637D01*
X031029Y008539D02*
X025055Y008539D01*
X025154Y008440D02*
X031029Y008440D01*
X031029Y008341D02*
X025252Y008341D01*
X025351Y008243D02*
X027871Y008243D01*
X027757Y008144D02*
X025450Y008144D01*
X025548Y008046D02*
X027658Y008046D01*
X027614Y007947D02*
X025647Y007947D01*
X025745Y007849D02*
X027573Y007849D01*
X027514Y007750D02*
X025844Y007750D01*
X025942Y007652D02*
X027416Y007652D01*
X027317Y007553D02*
X026041Y007553D01*
X026139Y007455D02*
X027219Y007455D01*
X027120Y007356D02*
X026294Y007356D01*
X026393Y007258D02*
X027022Y007258D01*
X026923Y007159D02*
X026450Y007159D01*
X026489Y007060D02*
X026825Y007060D01*
X026726Y006962D02*
X026489Y006962D01*
X026480Y006863D02*
X026627Y006863D01*
X027393Y006469D02*
X031029Y006469D01*
X031029Y006371D02*
X027440Y006371D01*
X027538Y006272D02*
X031029Y006272D01*
X031029Y006174D02*
X029349Y006174D01*
X029312Y006193D02*
X029225Y006221D01*
X029135Y006235D01*
X028709Y006235D01*
X028709Y005705D01*
X029668Y005705D01*
X029655Y005791D01*
X029627Y005878D01*
X029585Y005959D01*
X029531Y006033D01*
X029467Y006097D01*
X029393Y006151D01*
X029312Y006193D01*
X029489Y006075D02*
X031029Y006075D01*
X031029Y005976D02*
X029572Y005976D01*
X029626Y005878D02*
X031029Y005878D01*
X031029Y005779D02*
X029657Y005779D01*
X029668Y005605D02*
X028709Y005605D01*
X028709Y005075D01*
X029135Y005075D01*
X029225Y005089D01*
X029312Y005118D01*
X029393Y005159D01*
X029467Y005213D01*
X029531Y005277D01*
X029585Y005351D01*
X029627Y005432D01*
X029655Y005519D01*
X029668Y005605D01*
X029665Y005582D02*
X031029Y005582D01*
X031029Y005484D02*
X029643Y005484D01*
X029602Y005385D02*
X031029Y005385D01*
X031029Y005287D02*
X029538Y005287D01*
X029433Y005188D02*
X031029Y005188D01*
X031029Y005090D02*
X029225Y005090D01*
X028709Y005090D02*
X028609Y005090D01*
X028609Y005075D02*
X028609Y005605D01*
X028709Y005605D01*
X028709Y005705D01*
X028609Y005705D01*
X028609Y005605D01*
X027650Y005605D01*
X027663Y005519D01*
X027692Y005432D01*
X027733Y005351D01*
X027787Y005277D01*
X027851Y005213D01*
X027925Y005159D01*
X028006Y005118D01*
X028093Y005089D01*
X028183Y005075D01*
X028609Y005075D01*
X028609Y005188D02*
X028709Y005188D01*
X028709Y005287D02*
X028609Y005287D01*
X028609Y005385D02*
X028709Y005385D01*
X028709Y005484D02*
X028609Y005484D01*
X028609Y005582D02*
X028709Y005582D01*
X028709Y005681D02*
X031029Y005681D01*
X031029Y004991D02*
X026715Y004991D01*
X026813Y005090D02*
X028093Y005090D01*
X027885Y005188D02*
X026912Y005188D01*
X027010Y005287D02*
X027780Y005287D01*
X027716Y005385D02*
X027109Y005385D01*
X027207Y005484D02*
X027675Y005484D01*
X027653Y005582D02*
X027306Y005582D01*
X027461Y005681D02*
X028609Y005681D01*
X028609Y005705D02*
X027650Y005705D01*
X027663Y005791D01*
X027692Y005878D01*
X027589Y005878D01*
X027609Y005976D02*
X027746Y005976D01*
X027733Y005959D02*
X027692Y005878D01*
X027733Y005959D02*
X027787Y006033D01*
X027851Y006097D01*
X027925Y006151D01*
X028006Y006193D01*
X028093Y006221D01*
X028183Y006235D01*
X028609Y006235D01*
X028609Y005705D01*
X028609Y005779D02*
X028709Y005779D01*
X028709Y005878D02*
X028609Y005878D01*
X028609Y005976D02*
X028709Y005976D01*
X028709Y006075D02*
X028609Y006075D01*
X028609Y006174D02*
X028709Y006174D01*
X027969Y006174D02*
X027580Y006174D01*
X027609Y006075D02*
X027829Y006075D01*
X027491Y006568D02*
X031029Y006568D01*
X031029Y006666D02*
X027590Y006666D01*
X027689Y006765D02*
X031029Y006765D01*
X031029Y006863D02*
X027787Y006863D01*
X027886Y006962D02*
X031029Y006962D01*
X031029Y007060D02*
X029430Y007060D01*
X029555Y007159D02*
X031029Y007159D01*
X031029Y007258D02*
X029653Y007258D01*
X029701Y007356D02*
X031029Y007356D01*
X031029Y007455D02*
X029742Y007455D01*
X029769Y007553D02*
X031029Y007553D01*
X031029Y007652D02*
X029769Y007652D01*
X029769Y007750D02*
X031029Y007750D01*
X031029Y007849D02*
X029745Y007849D01*
X029704Y007947D02*
X031029Y007947D01*
X031029Y008046D02*
X029660Y008046D01*
X029561Y008144D02*
X031029Y008144D01*
X031029Y008243D02*
X029447Y008243D01*
X027662Y005779D02*
X027548Y005779D01*
X026616Y004892D02*
X031029Y004892D01*
X031029Y004794D02*
X026518Y004794D01*
X026419Y004695D02*
X031029Y004695D01*
X031029Y004597D02*
X026321Y004597D01*
X026222Y004498D02*
X031029Y004498D01*
X031029Y004400D02*
X026124Y004400D01*
X026025Y004301D02*
X028012Y004301D01*
X028094Y004335D02*
X027844Y004232D01*
X027653Y004040D01*
X027549Y003790D01*
X027549Y003520D01*
X027653Y003270D01*
X027844Y003079D01*
X028094Y002975D01*
X029224Y002975D01*
X029474Y003079D01*
X029666Y003270D01*
X029769Y003520D01*
X029769Y003790D01*
X029666Y004040D01*
X029474Y004232D01*
X029224Y004335D01*
X028094Y004335D01*
X027815Y004203D02*
X025926Y004203D01*
X025828Y004104D02*
X027716Y004104D01*
X027638Y004006D02*
X025729Y004006D01*
X025631Y003907D02*
X027597Y003907D01*
X027557Y003809D02*
X025532Y003809D01*
X025434Y003710D02*
X027549Y003710D01*
X027549Y003611D02*
X025335Y003611D01*
X025237Y003513D02*
X027552Y003513D01*
X027593Y003414D02*
X025138Y003414D01*
X025040Y003316D02*
X027634Y003316D01*
X027705Y003217D02*
X024941Y003217D01*
X024842Y003119D02*
X027804Y003119D01*
X027985Y003020D02*
X024744Y003020D01*
X024645Y002922D02*
X031029Y002922D01*
X031029Y003020D02*
X029333Y003020D01*
X029514Y003119D02*
X031029Y003119D01*
X031029Y003217D02*
X029613Y003217D01*
X029684Y003316D02*
X031029Y003316D01*
X031029Y003414D02*
X029725Y003414D01*
X029766Y003513D02*
X031029Y003513D01*
X031029Y003611D02*
X029769Y003611D01*
X029769Y003710D02*
X031029Y003710D01*
X031029Y003809D02*
X029762Y003809D01*
X029721Y003907D02*
X031029Y003907D01*
X031029Y004006D02*
X029680Y004006D01*
X029602Y004104D02*
X031029Y004104D01*
X031029Y004203D02*
X029503Y004203D01*
X029306Y004301D02*
X031029Y004301D01*
X031029Y002823D02*
X024547Y002823D01*
X024448Y002725D02*
X031029Y002725D01*
X031029Y002626D02*
X024368Y002626D01*
X024308Y002527D02*
X031029Y002527D01*
X031029Y002429D02*
X024203Y002429D01*
X022496Y001335D02*
X022496Y001335D01*
X022472Y001345D02*
X016927Y001345D01*
X017026Y001443D02*
X022234Y001443D01*
X022195Y001460D02*
X022195Y001460D01*
X022112Y001542D02*
X017124Y001542D01*
X016155Y003414D02*
X018120Y003414D01*
X018218Y003513D02*
X016253Y003513D01*
X016298Y003611D02*
X018289Y003611D01*
X018289Y003710D02*
X016329Y003710D01*
X016351Y003809D02*
X018289Y003809D01*
X017904Y003907D02*
X017414Y003907D01*
X017539Y004006D02*
X017779Y004006D01*
X017698Y004104D02*
X017620Y004104D01*
X016904Y003907D02*
X016449Y003907D01*
X016548Y004006D02*
X016779Y004006D01*
X016698Y004104D02*
X016646Y004104D01*
X016164Y004498D02*
X015009Y004498D01*
X015009Y004400D02*
X016065Y004400D01*
X015967Y004301D02*
X015009Y004301D01*
X015009Y004203D02*
X015735Y004203D01*
X015572Y004104D02*
X015009Y004104D01*
X015009Y004006D02*
X015487Y004006D01*
X015447Y003907D02*
X015009Y003907D01*
X015009Y003809D02*
X015429Y003809D01*
X015429Y003710D02*
X015009Y003710D01*
X015009Y003611D02*
X015460Y003611D01*
X015505Y003513D02*
X015009Y003513D01*
X015009Y003414D02*
X015603Y003414D01*
X015009Y004597D02*
X016262Y004597D01*
X016361Y004695D02*
X015009Y004695D01*
X015009Y004794D02*
X016460Y004794D01*
X016558Y004892D02*
X015009Y004892D01*
X015009Y004991D02*
X016629Y004991D01*
X016649Y005090D02*
X015009Y005090D01*
X015009Y005188D02*
X016071Y005188D01*
X016048Y005192D02*
X016122Y005180D01*
X016140Y005180D01*
X016140Y005636D01*
X015684Y005636D01*
X015684Y005618D01*
X015696Y005544D01*
X015719Y005473D01*
X015753Y005406D01*
X015797Y005346D01*
X015850Y005293D01*
X015910Y005249D01*
X015977Y005215D01*
X016048Y005192D01*
X016140Y005188D02*
X016178Y005188D01*
X016247Y005188D02*
X016690Y005188D01*
X016761Y005287D02*
X016460Y005287D01*
X016550Y005385D02*
X016861Y005385D01*
X016603Y005484D02*
X017949Y005484D01*
X017854Y005385D02*
X017457Y005385D01*
X017557Y005287D02*
X017761Y005287D01*
X017690Y005188D02*
X017628Y005188D01*
X018048Y005582D02*
X016628Y005582D01*
X016634Y005681D02*
X018146Y005681D01*
X018245Y005779D02*
X016618Y005779D01*
X016579Y005878D02*
X018289Y005878D01*
X018289Y005976D02*
X016509Y005976D01*
X016381Y006075D02*
X018289Y006075D01*
X018289Y006174D02*
X016491Y006174D01*
X016589Y006272D02*
X018289Y006272D01*
X018289Y006371D02*
X016664Y006371D01*
X016704Y006469D02*
X018289Y006469D01*
X018289Y006568D02*
X016734Y006568D01*
X016790Y006666D02*
X018289Y006666D01*
X018289Y006765D02*
X016889Y006765D01*
X016987Y006863D02*
X017010Y006863D01*
X017308Y006863D02*
X018010Y006863D01*
X017823Y006962D02*
X017495Y006962D01*
X017594Y007060D02*
X017724Y007060D01*
X017675Y007159D02*
X017643Y007159D01*
X017659Y008113D02*
X017608Y008235D01*
X017459Y008384D01*
X017264Y008465D01*
X017054Y008465D01*
X016975Y008432D01*
X017022Y008479D01*
X020875Y012333D01*
X021002Y012281D01*
X021213Y012281D01*
X021335Y012331D01*
X021285Y012209D01*
X021285Y011998D01*
X021325Y011900D01*
X017936Y008511D01*
X017889Y008397D01*
X017859Y008384D01*
X017710Y008235D01*
X017659Y008113D01*
X017646Y008144D02*
X017672Y008144D01*
X017717Y008243D02*
X017601Y008243D01*
X017502Y008341D02*
X017816Y008341D01*
X017907Y008440D02*
X017325Y008440D01*
X017179Y008637D02*
X018063Y008637D01*
X018161Y008736D02*
X017278Y008736D01*
X017377Y008834D02*
X018260Y008834D01*
X018358Y008933D02*
X017475Y008933D01*
X017574Y009031D02*
X018457Y009031D01*
X018555Y009130D02*
X017672Y009130D01*
X017771Y009228D02*
X018654Y009228D01*
X018753Y009327D02*
X017869Y009327D01*
X017968Y009425D02*
X018851Y009425D01*
X018950Y009524D02*
X018066Y009524D01*
X018165Y009623D02*
X019048Y009623D01*
X019147Y009721D02*
X018263Y009721D01*
X018362Y009820D02*
X019245Y009820D01*
X019344Y009918D02*
X018461Y009918D01*
X018559Y010017D02*
X019442Y010017D01*
X019541Y010115D02*
X018658Y010115D01*
X018756Y010214D02*
X019639Y010214D01*
X019738Y010312D02*
X018855Y010312D01*
X018953Y010411D02*
X019836Y010411D01*
X019935Y010509D02*
X019052Y010509D01*
X019150Y010608D02*
X020034Y010608D01*
X020132Y010707D02*
X019249Y010707D01*
X019347Y010805D02*
X020231Y010805D01*
X020329Y010904D02*
X019446Y010904D01*
X019544Y011002D02*
X020428Y011002D01*
X020526Y011101D02*
X019643Y011101D01*
X019742Y011199D02*
X020625Y011199D01*
X020723Y011298D02*
X019840Y011298D01*
X019939Y011396D02*
X020822Y011396D01*
X020920Y011495D02*
X020037Y011495D01*
X020136Y011593D02*
X021019Y011593D01*
X021118Y011692D02*
X020234Y011692D01*
X020333Y011791D02*
X021216Y011791D01*
X021315Y011889D02*
X020431Y011889D01*
X020530Y011988D02*
X021289Y011988D01*
X021285Y012086D02*
X020628Y012086D01*
X020727Y012185D02*
X021285Y012185D01*
X021315Y012283D02*
X021219Y012283D01*
X020996Y012283D02*
X020826Y012283D01*
X022021Y013072D02*
X027930Y013072D01*
X027805Y012973D02*
X022452Y012973D01*
X022585Y012874D02*
X027738Y012874D01*
X027699Y012776D02*
X022670Y012776D01*
X022711Y012677D02*
X027684Y012677D01*
X027690Y012579D02*
X022741Y012579D01*
X022741Y012480D02*
X027716Y012480D01*
X027770Y012382D02*
X022735Y012382D01*
X022718Y012283D02*
X022695Y012283D01*
X023118Y012283D02*
X027863Y012283D01*
X028140Y012283D02*
X028178Y012283D01*
X025840Y016915D02*
X023433Y016915D01*
X023547Y017013D02*
X025741Y017013D01*
X025642Y017112D02*
X023624Y017112D01*
X023664Y017210D02*
X024997Y017210D01*
X022885Y016915D02*
X022433Y016915D01*
X022547Y017013D02*
X022771Y017013D01*
X022694Y017112D02*
X022624Y017112D01*
X021809Y016976D02*
X021809Y016944D01*
X020016Y015151D01*
X019984Y015151D01*
X019861Y015100D01*
X019912Y015222D01*
X019912Y015433D01*
X019831Y015628D01*
X019682Y015777D01*
X019488Y015858D01*
X019277Y015858D01*
X019082Y015777D01*
X018537Y015232D01*
X018456Y015037D01*
X018456Y014827D01*
X018459Y014820D01*
X018449Y014797D01*
X018449Y014683D01*
X017789Y015344D01*
X017789Y015757D01*
X017742Y015871D01*
X017655Y015958D01*
X016909Y016704D01*
X016909Y016905D01*
X017054Y016845D01*
X017264Y016845D01*
X017459Y016926D01*
X017608Y017075D01*
X017659Y017197D01*
X017710Y017075D01*
X017859Y016926D01*
X018054Y016845D01*
X018264Y016845D01*
X018459Y016926D01*
X018608Y017075D01*
X018689Y017270D01*
X018689Y018041D01*
X018608Y018235D01*
X018459Y018384D01*
X018264Y018465D01*
X018054Y018465D01*
X017859Y018384D01*
X017710Y018235D01*
X017659Y018113D01*
X017608Y018235D01*
X017459Y018384D01*
X017422Y018400D01*
X017527Y018505D01*
X020786Y018505D01*
X020749Y018417D01*
X020749Y018275D01*
X020710Y018235D01*
X020629Y018041D01*
X020629Y017270D01*
X020710Y017075D01*
X020859Y016926D01*
X021054Y016845D01*
X021264Y016845D01*
X021459Y016926D01*
X021608Y017075D01*
X021659Y017197D01*
X021710Y017075D01*
X021809Y016976D01*
X021771Y017013D02*
X021547Y017013D01*
X021624Y017112D02*
X021694Y017112D01*
X021780Y016915D02*
X021433Y016915D01*
X021583Y016718D02*
X016909Y016718D01*
X016909Y016816D02*
X021682Y016816D01*
X021485Y016619D02*
X016993Y016619D01*
X017092Y016521D02*
X021386Y016521D01*
X021288Y016422D02*
X018863Y016422D01*
X018840Y016434D02*
X018776Y016454D01*
X018709Y016465D01*
X018641Y016465D01*
X018574Y016454D01*
X018510Y016434D01*
X018450Y016403D01*
X018395Y016363D01*
X018194Y016162D01*
X018477Y015880D01*
X018434Y015837D01*
X018477Y015794D01*
X018520Y015837D01*
X018802Y015554D01*
X019003Y015755D01*
X019043Y015810D01*
X019073Y015870D01*
X019094Y015934D01*
X019105Y016001D01*
X019105Y016069D01*
X019094Y016136D01*
X019073Y016200D01*
X019043Y016260D01*
X019003Y016315D01*
X019000Y016318D01*
X018520Y015837D01*
X018477Y015880D01*
X018958Y016360D01*
X018955Y016363D01*
X018900Y016403D01*
X018840Y016434D01*
X018921Y016324D02*
X021189Y016324D01*
X021091Y016225D02*
X019061Y016225D01*
X019096Y016126D02*
X020992Y016126D01*
X020893Y016028D02*
X019105Y016028D01*
X019093Y015929D02*
X020795Y015929D01*
X020696Y015831D02*
X019553Y015831D01*
X019727Y015732D02*
X020598Y015732D01*
X020499Y015634D02*
X019826Y015634D01*
X019870Y015535D02*
X020401Y015535D01*
X020302Y015437D02*
X019911Y015437D01*
X019912Y015338D02*
X020204Y015338D01*
X020105Y015240D02*
X019912Y015240D01*
X019878Y015141D02*
X019960Y015141D01*
X019211Y015831D02*
X019053Y015831D01*
X019037Y015732D02*
X018980Y015732D01*
X018938Y015634D02*
X018882Y015634D01*
X018840Y015535D02*
X018736Y015535D01*
X018760Y015512D02*
X018477Y015794D01*
X017996Y015314D01*
X017999Y015311D01*
X018054Y015271D01*
X018114Y015241D01*
X018178Y015220D01*
X018245Y015209D01*
X018313Y015209D01*
X018380Y015220D01*
X018444Y015241D01*
X018504Y015271D01*
X018559Y015311D01*
X018760Y015512D01*
X018741Y015437D02*
X018685Y015437D01*
X018643Y015338D02*
X018586Y015338D01*
X018544Y015240D02*
X018441Y015240D01*
X018499Y015141D02*
X017992Y015141D01*
X018090Y015042D02*
X018458Y015042D01*
X018456Y014944D02*
X018189Y014944D01*
X018287Y014845D02*
X018456Y014845D01*
X018449Y014747D02*
X018386Y014747D01*
X018117Y015240D02*
X017893Y015240D01*
X017954Y015356D02*
X018434Y015837D01*
X018152Y016120D01*
X017951Y015919D01*
X017911Y015864D01*
X017881Y015804D01*
X017860Y015740D01*
X017849Y015673D01*
X017849Y015605D01*
X017860Y015538D01*
X017881Y015474D01*
X017911Y015414D01*
X017951Y015359D01*
X017954Y015356D01*
X018021Y015338D02*
X017794Y015338D01*
X017789Y015437D02*
X017900Y015437D01*
X017861Y015535D02*
X017789Y015535D01*
X017789Y015634D02*
X017849Y015634D01*
X017859Y015732D02*
X017789Y015732D01*
X017758Y015831D02*
X017894Y015831D01*
X017961Y015929D02*
X017683Y015929D01*
X017585Y016028D02*
X018060Y016028D01*
X018244Y016028D02*
X018329Y016028D01*
X018342Y015929D02*
X018427Y015929D01*
X018428Y015831D02*
X018441Y015831D01*
X018514Y015831D02*
X018526Y015831D01*
X018527Y015929D02*
X018612Y015929D01*
X018625Y016028D02*
X018710Y016028D01*
X018724Y016126D02*
X018809Y016126D01*
X018822Y016225D02*
X018907Y016225D01*
X018487Y016422D02*
X017190Y016422D01*
X017289Y016324D02*
X018355Y016324D01*
X018257Y016225D02*
X017388Y016225D01*
X017486Y016126D02*
X018230Y016126D01*
X018330Y015732D02*
X018415Y015732D01*
X018539Y015732D02*
X018624Y015732D01*
X018638Y015634D02*
X018723Y015634D01*
X018316Y015634D02*
X018231Y015634D01*
X018218Y015535D02*
X018133Y015535D01*
X018119Y015437D02*
X018034Y015437D01*
X017410Y014845D02*
X016934Y014845D01*
X016969Y014761D02*
X016888Y014955D01*
X016739Y015104D01*
X016544Y015185D01*
X015774Y015185D01*
X015579Y015104D01*
X015430Y014955D01*
X015349Y014761D01*
X015349Y014550D01*
X015309Y014550D01*
X015349Y014550D02*
X015430Y014355D01*
X015579Y014206D01*
X015701Y014155D01*
X015579Y014104D01*
X015430Y013955D01*
X015349Y013761D01*
X015349Y013550D01*
X015430Y013355D01*
X015579Y013206D01*
X015701Y013155D01*
X015579Y013104D01*
X015430Y012955D01*
X015349Y012761D01*
X015349Y012550D01*
X015430Y012355D01*
X015579Y012206D01*
X015701Y012155D01*
X015579Y012104D01*
X015430Y011955D01*
X015349Y011761D01*
X015349Y011550D01*
X015430Y011355D01*
X015579Y011206D01*
X015701Y011155D01*
X015579Y011104D01*
X015430Y010955D01*
X015349Y010761D01*
X015349Y010550D01*
X015430Y010355D01*
X015579Y010206D01*
X015701Y010155D01*
X015579Y010104D01*
X015430Y009955D01*
X015349Y009761D01*
X015349Y009550D01*
X015430Y009355D01*
X015579Y009206D01*
X015701Y009155D01*
X015614Y009119D01*
X015309Y009424D01*
X015309Y017887D01*
X017270Y019847D01*
X017459Y019926D01*
X017608Y020075D01*
X017659Y020197D01*
X017710Y020075D01*
X017859Y019926D01*
X018054Y019845D01*
X018264Y019845D01*
X018459Y019926D01*
X018608Y020075D01*
X018689Y020270D01*
X018689Y021041D01*
X018664Y021100D01*
X019089Y021525D01*
X023389Y021525D01*
X023629Y021285D01*
X023629Y021185D01*
X023608Y021235D01*
X023459Y021384D01*
X023264Y021465D01*
X023054Y021465D01*
X022859Y021384D01*
X022710Y021235D01*
X022659Y021113D01*
X022608Y021235D01*
X022459Y021384D01*
X022264Y021465D01*
X022054Y021465D01*
X021859Y021384D01*
X021710Y021235D01*
X021659Y021113D01*
X021608Y021235D01*
X021459Y021384D01*
X021264Y021465D01*
X021054Y021465D01*
X020859Y021384D01*
X020710Y021235D01*
X020629Y021041D01*
X020629Y020270D01*
X020710Y020075D01*
X020859Y019926D01*
X021054Y019845D01*
X021264Y019845D01*
X021459Y019926D01*
X021608Y020075D01*
X021659Y020197D01*
X021695Y020110D01*
X020711Y019125D01*
X017461Y019125D01*
X017337Y019125D01*
X017223Y019078D01*
X016495Y018349D01*
X016459Y018384D01*
X016264Y018465D01*
X016054Y018465D01*
X015859Y018384D01*
X015710Y018235D01*
X015629Y018041D01*
X015629Y017270D01*
X015710Y017075D01*
X015859Y016926D01*
X016054Y016845D01*
X016264Y016845D01*
X016289Y016855D01*
X016289Y016637D01*
X016289Y016513D01*
X016336Y016399D01*
X017169Y015567D01*
X017169Y015277D01*
X017169Y015153D01*
X017216Y015039D01*
X018401Y013855D01*
X016676Y012131D01*
X016617Y012155D01*
X016739Y012206D01*
X016888Y012355D01*
X016969Y012550D01*
X016969Y012761D01*
X016888Y012955D01*
X016739Y013104D01*
X016617Y013155D01*
X016739Y013206D01*
X016888Y013355D01*
X016969Y013550D01*
X016969Y013761D01*
X016888Y013955D01*
X016739Y014104D01*
X016617Y014155D01*
X016739Y014206D01*
X016888Y014355D01*
X016969Y014550D01*
X017706Y014550D01*
X017607Y014648D02*
X016969Y014648D01*
X016969Y014550D02*
X016969Y014761D01*
X016969Y014747D02*
X017509Y014747D01*
X017312Y014944D02*
X016893Y014944D01*
X016801Y015042D02*
X017215Y015042D01*
X017174Y015141D02*
X016651Y015141D01*
X016604Y015257D02*
X016540Y015236D01*
X016473Y015225D01*
X016189Y015225D01*
X016189Y015625D01*
X016129Y015625D01*
X016129Y015225D01*
X015845Y015225D01*
X015778Y015236D01*
X015714Y015257D01*
X015654Y015287D01*
X015599Y015327D01*
X015551Y015375D01*
X015511Y015430D01*
X015481Y015490D01*
X015460Y015554D01*
X015449Y015621D01*
X015449Y015625D01*
X016129Y015625D01*
X016129Y015685D01*
X015449Y015685D01*
X015449Y015689D01*
X015460Y015756D01*
X015481Y015820D01*
X015511Y015880D01*
X015551Y015935D01*
X015599Y015983D01*
X015654Y016023D01*
X015714Y016054D01*
X015778Y016074D01*
X015845Y016085D01*
X016129Y016085D01*
X016129Y015685D01*
X016189Y015685D01*
X016869Y015685D01*
X016869Y015689D01*
X016858Y015756D01*
X016838Y015820D01*
X016807Y015880D01*
X016767Y015935D01*
X016719Y015983D01*
X016664Y016023D01*
X016604Y016054D01*
X016540Y016074D01*
X016473Y016085D01*
X016189Y016085D01*
X016189Y015685D01*
X016189Y015625D01*
X016869Y015625D01*
X016869Y015621D01*
X016858Y015554D01*
X016838Y015490D01*
X016807Y015430D01*
X016767Y015375D01*
X016719Y015327D01*
X016664Y015287D01*
X016604Y015257D01*
X016551Y015240D02*
X017169Y015240D01*
X017169Y015338D02*
X016730Y015338D01*
X016810Y015437D02*
X017169Y015437D01*
X017169Y015535D02*
X016852Y015535D01*
X016862Y015732D02*
X017004Y015732D01*
X017102Y015634D02*
X016189Y015634D01*
X016129Y015634D02*
X015309Y015634D01*
X015309Y015732D02*
X015456Y015732D01*
X015486Y015831D02*
X015309Y015831D01*
X015309Y015929D02*
X015547Y015929D01*
X015664Y016028D02*
X015309Y016028D01*
X015309Y016126D02*
X016609Y016126D01*
X016655Y016028D02*
X016708Y016028D01*
X016771Y015929D02*
X016806Y015929D01*
X016832Y015831D02*
X016905Y015831D01*
X016511Y016225D02*
X015309Y016225D01*
X015309Y016324D02*
X016412Y016324D01*
X016327Y016422D02*
X015309Y016422D01*
X015309Y016521D02*
X016289Y016521D01*
X016289Y016619D02*
X015309Y016619D01*
X015309Y016718D02*
X016289Y016718D01*
X016289Y016816D02*
X015309Y016816D01*
X015309Y016915D02*
X015885Y016915D01*
X015771Y017013D02*
X015309Y017013D01*
X015309Y017112D02*
X015694Y017112D01*
X015654Y017210D02*
X015309Y017210D01*
X015309Y017309D02*
X015629Y017309D01*
X015629Y017407D02*
X015309Y017407D01*
X015309Y017506D02*
X015629Y017506D01*
X015629Y017605D02*
X015309Y017605D01*
X015309Y017703D02*
X015629Y017703D01*
X015629Y017802D02*
X015309Y017802D01*
X015323Y017900D02*
X015629Y017900D01*
X015629Y017999D02*
X015421Y017999D01*
X015520Y018097D02*
X015653Y018097D01*
X015618Y018196D02*
X015693Y018196D01*
X015717Y018294D02*
X015769Y018294D01*
X015815Y018393D02*
X015879Y018393D01*
X015914Y018491D02*
X016637Y018491D01*
X016539Y018393D02*
X016439Y018393D01*
X016736Y018590D02*
X016012Y018590D01*
X016111Y018689D02*
X016834Y018689D01*
X016933Y018787D02*
X016209Y018787D01*
X016308Y018886D02*
X017031Y018886D01*
X017130Y018984D02*
X016406Y018984D01*
X016505Y019083D02*
X017235Y019083D01*
X016899Y019477D02*
X021062Y019477D01*
X020964Y019378D02*
X016801Y019378D01*
X016702Y019280D02*
X020865Y019280D01*
X020767Y019181D02*
X016604Y019181D01*
X016998Y019575D02*
X021161Y019575D01*
X021260Y019674D02*
X017096Y019674D01*
X017195Y019773D02*
X021358Y019773D01*
X021327Y019871D02*
X021457Y019871D01*
X021503Y019970D02*
X021555Y019970D01*
X021602Y020068D02*
X021654Y020068D01*
X021646Y020167D02*
X021672Y020167D01*
X020991Y019871D02*
X018327Y019871D01*
X018503Y019970D02*
X019016Y019970D01*
X018994Y019977D02*
X019058Y019956D01*
X019125Y019945D01*
X019129Y019945D01*
X019129Y020625D01*
X019189Y020625D01*
X019189Y019945D01*
X019193Y019945D01*
X019260Y019956D01*
X019324Y019977D01*
X019384Y020007D01*
X019439Y020047D01*
X019487Y020095D01*
X019527Y020150D01*
X019558Y020210D01*
X019578Y020274D01*
X019589Y020341D01*
X019589Y020625D01*
X019189Y020625D01*
X019189Y020685D01*
X019589Y020685D01*
X019589Y020969D01*
X019578Y021036D01*
X019558Y021100D01*
X019527Y021160D01*
X019487Y021215D01*
X019439Y021263D01*
X019384Y021303D01*
X019324Y021334D01*
X019260Y021354D01*
X019193Y021365D01*
X019189Y021365D01*
X019189Y020685D01*
X019129Y020685D01*
X019129Y020625D01*
X018729Y020625D01*
X018729Y020341D01*
X018740Y020274D01*
X018761Y020210D01*
X018791Y020150D01*
X018831Y020095D01*
X018879Y020047D01*
X018934Y020007D01*
X018994Y019977D01*
X019129Y019970D02*
X019189Y019970D01*
X019189Y020068D02*
X019129Y020068D01*
X019129Y020167D02*
X019189Y020167D01*
X019189Y020265D02*
X019129Y020265D01*
X019129Y020364D02*
X019189Y020364D01*
X019189Y020462D02*
X019129Y020462D01*
X019129Y020561D02*
X019189Y020561D01*
X019189Y020659D02*
X020129Y020659D01*
X020129Y020685D02*
X020129Y020625D01*
X020189Y020625D01*
X020189Y019945D01*
X020193Y019945D01*
X020260Y019956D01*
X020324Y019977D01*
X020384Y020007D01*
X020439Y020047D01*
X020487Y020095D01*
X020527Y020150D01*
X020558Y020210D01*
X020578Y020274D01*
X020589Y020341D01*
X020589Y020625D01*
X020189Y020625D01*
X020189Y020685D01*
X020589Y020685D01*
X020589Y020969D01*
X020578Y021036D01*
X020558Y021100D01*
X020527Y021160D01*
X020487Y021215D01*
X020439Y021263D01*
X020384Y021303D01*
X020324Y021334D01*
X020260Y021354D01*
X020193Y021365D01*
X020189Y021365D01*
X020189Y020685D01*
X020129Y020685D01*
X019729Y020685D01*
X019729Y020969D01*
X019740Y021036D01*
X019761Y021100D01*
X019791Y021160D01*
X019831Y021215D01*
X019879Y021263D01*
X019934Y021303D01*
X019994Y021334D01*
X020058Y021354D01*
X020125Y021365D01*
X020129Y021365D01*
X020129Y020685D01*
X020129Y020625D02*
X019729Y020625D01*
X019729Y020341D01*
X019740Y020274D01*
X019761Y020210D01*
X019791Y020150D01*
X019831Y020095D01*
X019879Y020047D01*
X019934Y020007D01*
X019994Y019977D01*
X020058Y019956D01*
X020125Y019945D01*
X020129Y019945D01*
X020129Y020625D01*
X020129Y020561D02*
X020189Y020561D01*
X020189Y020659D02*
X020629Y020659D01*
X020629Y020561D02*
X020589Y020561D01*
X020589Y020462D02*
X020629Y020462D01*
X020629Y020364D02*
X020589Y020364D01*
X020575Y020265D02*
X020631Y020265D01*
X020672Y020167D02*
X020535Y020167D01*
X020460Y020068D02*
X020716Y020068D01*
X020815Y019970D02*
X020302Y019970D01*
X020189Y019970D02*
X020129Y019970D01*
X020129Y020068D02*
X020189Y020068D01*
X020189Y020167D02*
X020129Y020167D01*
X020129Y020265D02*
X020189Y020265D01*
X020189Y020364D02*
X020129Y020364D01*
X020129Y020462D02*
X020189Y020462D01*
X019729Y020462D02*
X019589Y020462D01*
X019589Y020364D02*
X019729Y020364D01*
X019743Y020265D02*
X019575Y020265D01*
X019535Y020167D02*
X019783Y020167D01*
X019858Y020068D02*
X019460Y020068D01*
X019302Y019970D02*
X020016Y019970D01*
X019729Y020561D02*
X019589Y020561D01*
X019589Y020758D02*
X019729Y020758D01*
X019729Y020856D02*
X019589Y020856D01*
X019589Y020955D02*
X019729Y020955D01*
X019745Y021054D02*
X019573Y021054D01*
X019531Y021152D02*
X019787Y021152D01*
X019866Y021251D02*
X019452Y021251D01*
X019276Y021349D02*
X020042Y021349D01*
X020129Y021349D02*
X020189Y021349D01*
X020276Y021349D02*
X020824Y021349D01*
X020725Y021251D02*
X020452Y021251D01*
X020531Y021152D02*
X020675Y021152D01*
X020634Y021054D02*
X020573Y021054D01*
X020589Y020955D02*
X020629Y020955D01*
X020629Y020856D02*
X020589Y020856D01*
X020589Y020758D02*
X020629Y020758D01*
X020189Y020758D02*
X020129Y020758D01*
X020129Y020856D02*
X020189Y020856D01*
X020189Y020955D02*
X020129Y020955D01*
X020129Y021054D02*
X020189Y021054D01*
X020189Y021152D02*
X020129Y021152D01*
X020129Y021251D02*
X020189Y021251D01*
X021012Y021448D02*
X019011Y021448D01*
X019042Y021349D02*
X018913Y021349D01*
X018934Y021303D02*
X018879Y021263D01*
X018831Y021215D01*
X018791Y021160D01*
X018761Y021100D01*
X018740Y021036D01*
X018729Y020969D01*
X018729Y020685D01*
X019129Y020685D01*
X019129Y021365D01*
X019125Y021365D01*
X019058Y021354D01*
X018994Y021334D01*
X018934Y021303D01*
X018866Y021251D02*
X018814Y021251D01*
X018787Y021152D02*
X018716Y021152D01*
X018745Y021054D02*
X018684Y021054D01*
X018689Y020955D02*
X018729Y020955D01*
X018729Y020856D02*
X018689Y020856D01*
X018689Y020758D02*
X018729Y020758D01*
X018689Y020659D02*
X019129Y020659D01*
X019129Y020758D02*
X019189Y020758D01*
X019189Y020856D02*
X019129Y020856D01*
X019129Y020955D02*
X019189Y020955D01*
X019189Y021054D02*
X019129Y021054D01*
X019129Y021152D02*
X019189Y021152D01*
X019189Y021251D02*
X019129Y021251D01*
X019129Y021349D02*
X019189Y021349D01*
X018729Y020561D02*
X018689Y020561D01*
X018689Y020462D02*
X018729Y020462D01*
X018729Y020364D02*
X018689Y020364D01*
X018687Y020265D02*
X018743Y020265D01*
X018783Y020167D02*
X018646Y020167D01*
X018602Y020068D02*
X018858Y020068D01*
X017991Y019871D02*
X017327Y019871D01*
X017503Y019970D02*
X017815Y019970D01*
X017716Y020068D02*
X017602Y020068D01*
X017646Y020167D02*
X017672Y020167D01*
X017659Y021113D02*
X017608Y021235D01*
X017459Y021384D01*
X017264Y021465D01*
X017054Y021465D01*
X016859Y021384D01*
X016710Y021235D01*
X016659Y021113D01*
X016617Y021214D01*
X016947Y021543D01*
X017009Y021694D01*
X017009Y021857D01*
X017009Y022529D01*
X017010Y022529D01*
X017185Y022704D01*
X017279Y022932D01*
X017279Y023178D01*
X017185Y023406D01*
X017010Y023581D01*
X016782Y023675D01*
X016536Y023675D01*
X016308Y023581D01*
X016199Y023472D01*
X016185Y023506D01*
X016010Y023681D01*
X015782Y023775D01*
X015536Y023775D01*
X015308Y023681D01*
X015133Y023506D01*
X015076Y023366D01*
X015056Y023394D01*
X014998Y023452D01*
X014932Y023500D01*
X014859Y023537D01*
X014781Y023562D01*
X014709Y023574D01*
X014709Y023105D01*
X014609Y023105D01*
X014609Y023574D01*
X014537Y023562D01*
X014459Y023537D01*
X014386Y023500D01*
X014320Y023452D01*
X014262Y023394D01*
X014243Y023366D01*
X014185Y023506D01*
X014010Y023681D01*
X013782Y023775D01*
X013536Y023775D01*
X013308Y023681D01*
X013133Y023506D01*
X013119Y023472D01*
X013010Y023581D01*
X012782Y023675D01*
X012536Y023675D01*
X012308Y023581D01*
X012199Y023472D01*
X012185Y023506D01*
X012010Y023681D01*
X011782Y023775D01*
X011536Y023775D01*
X011308Y023681D01*
X011133Y023506D01*
X011039Y023278D01*
X011039Y023032D01*
X011133Y022804D01*
X011308Y022629D01*
X011536Y022535D01*
X011782Y022535D01*
X012010Y022629D01*
X012119Y022738D01*
X012133Y022704D01*
X012308Y022529D01*
X012536Y022435D01*
X012782Y022435D01*
X013010Y022529D01*
X013185Y022704D01*
X013199Y022738D01*
X013308Y022629D01*
X013536Y022535D01*
X013782Y022535D01*
X014010Y022629D01*
X014185Y022804D01*
X014193Y022824D01*
X014214Y022783D01*
X014262Y022716D01*
X014320Y022658D01*
X014386Y022610D01*
X014459Y022573D01*
X014537Y022548D01*
X014609Y022537D01*
X014609Y023005D01*
X014709Y023005D01*
X014709Y022537D01*
X014781Y022548D01*
X014859Y022573D01*
X014932Y022610D01*
X014998Y022658D01*
X015056Y022716D01*
X015104Y022783D01*
X015125Y022824D01*
X015133Y022804D01*
X015308Y022629D01*
X015536Y022535D01*
X015782Y022535D01*
X016010Y022629D01*
X016119Y022738D01*
X016133Y022704D01*
X016189Y022648D01*
X016189Y021945D01*
X015967Y021723D01*
X015851Y021607D01*
X015789Y021457D01*
X015789Y021315D01*
X015710Y021235D01*
X015629Y021041D01*
X015629Y020724D01*
X015622Y020766D01*
X015599Y020837D01*
X015565Y020904D01*
X015521Y020965D01*
X015468Y021017D01*
X015408Y021061D01*
X015341Y021095D01*
X015270Y021118D01*
X015196Y021130D01*
X015178Y021130D01*
X015178Y020674D01*
X015140Y020674D01*
X015140Y020636D01*
X014684Y020636D01*
X014684Y020618D01*
X014696Y020544D01*
X014719Y020473D01*
X014753Y020406D01*
X014797Y020346D01*
X014850Y020293D01*
X014910Y020249D01*
X014977Y020215D01*
X014994Y020209D01*
X014833Y020143D01*
X014672Y019981D01*
X014584Y019769D01*
X014584Y019620D01*
X013479Y018515D01*
X013228Y018766D01*
X013234Y018780D01*
X013234Y019530D01*
X013196Y019622D01*
X013126Y019692D01*
X013034Y019730D01*
X012871Y019730D01*
X012908Y019749D01*
X012968Y019793D01*
X013021Y019846D01*
X013065Y019906D01*
X013099Y019973D01*
X013122Y020044D01*
X013134Y020118D01*
X013134Y020136D01*
X012678Y020136D01*
X012678Y020174D01*
X013134Y020174D01*
X013134Y020192D01*
X013122Y020266D01*
X013099Y020337D01*
X013065Y020404D01*
X013021Y020465D01*
X012968Y020517D01*
X012908Y020561D01*
X012841Y020595D01*
X012770Y020618D01*
X012696Y020630D01*
X012678Y020630D01*
X012678Y020174D01*
X012640Y020174D01*
X012640Y020136D01*
X012184Y020136D01*
X012184Y020118D01*
X012196Y020044D01*
X012219Y019973D01*
X012253Y019906D01*
X012297Y019846D01*
X012350Y019793D01*
X012410Y019749D01*
X012447Y019730D01*
X012344Y019730D01*
X011631Y020443D01*
X011481Y020505D01*
X011317Y020505D01*
X010685Y020505D01*
X010685Y020506D01*
X010510Y020681D01*
X010282Y020775D01*
X010036Y020775D01*
X009808Y020681D01*
X009633Y020506D01*
X009539Y020278D01*
X009539Y020032D01*
X009633Y019804D01*
X009808Y019629D01*
X010036Y019535D01*
X010282Y019535D01*
X010510Y019629D01*
X010566Y019685D01*
X011229Y019685D01*
X012084Y018830D01*
X012084Y018780D01*
X012122Y018689D01*
X012084Y018787D02*
X008265Y018787D01*
X008167Y018886D02*
X012029Y018886D01*
X011930Y018984D02*
X008068Y018984D01*
X007970Y019083D02*
X011832Y019083D01*
X011733Y019181D02*
X007871Y019181D01*
X007773Y019280D02*
X011635Y019280D01*
X011536Y019378D02*
X007674Y019378D01*
X007619Y019477D02*
X011437Y019477D01*
X011339Y019575D02*
X010380Y019575D01*
X010555Y019674D02*
X011240Y019674D01*
X011907Y020167D02*
X012640Y020167D01*
X012640Y020174D02*
X012184Y020174D01*
X012184Y020192D01*
X012196Y020266D01*
X012219Y020337D01*
X012253Y020404D01*
X012297Y020465D01*
X012350Y020517D01*
X012410Y020561D01*
X012477Y020595D01*
X012548Y020618D01*
X012622Y020630D01*
X012640Y020630D01*
X012640Y020174D01*
X012678Y020167D02*
X014892Y020167D01*
X014888Y020265D02*
X013123Y020265D01*
X013086Y020364D02*
X014784Y020364D01*
X014724Y020462D02*
X013023Y020462D01*
X012909Y020561D02*
X014693Y020561D01*
X014684Y020674D02*
X015140Y020674D01*
X015140Y021130D01*
X015122Y021130D01*
X015048Y021118D01*
X014977Y021095D01*
X014910Y021061D01*
X014850Y021017D01*
X014797Y020965D01*
X014753Y020904D01*
X014719Y020837D01*
X014696Y020766D01*
X014684Y020692D01*
X014684Y020674D01*
X014694Y020758D02*
X010324Y020758D01*
X010532Y020659D02*
X015140Y020659D01*
X015140Y020758D02*
X015178Y020758D01*
X015178Y020856D02*
X015140Y020856D01*
X015140Y020955D02*
X015178Y020955D01*
X015178Y021054D02*
X015140Y021054D01*
X014899Y021054D02*
X009196Y021054D01*
X009294Y021152D02*
X015675Y021152D01*
X015634Y021054D02*
X015419Y021054D01*
X015528Y020955D02*
X015629Y020955D01*
X015629Y020856D02*
X015590Y020856D01*
X015624Y020758D02*
X015629Y020758D01*
X015725Y021251D02*
X010007Y021251D01*
X010149Y021349D02*
X015789Y021349D01*
X015789Y021448D02*
X010245Y021448D01*
X010285Y021546D02*
X015826Y021546D01*
X015889Y021645D02*
X010326Y021645D01*
X010329Y021743D02*
X015988Y021743D01*
X016086Y021842D02*
X010329Y021842D01*
X010303Y021940D02*
X016185Y021940D01*
X016189Y022039D02*
X010263Y022039D01*
X010193Y022138D02*
X016189Y022138D01*
X016189Y022236D02*
X010094Y022236D01*
X009874Y022335D02*
X016189Y022335D01*
X016189Y022433D02*
X005339Y022433D01*
X005241Y022532D02*
X012306Y022532D01*
X012207Y022630D02*
X012011Y022630D01*
X012110Y022729D02*
X012123Y022729D01*
X013012Y022532D02*
X016189Y022532D01*
X016189Y022630D02*
X016011Y022630D01*
X016110Y022729D02*
X016123Y022729D01*
X015307Y022630D02*
X014959Y022630D01*
X015065Y022729D02*
X015209Y022729D01*
X014709Y022729D02*
X014609Y022729D01*
X014609Y022827D02*
X014709Y022827D01*
X014709Y022926D02*
X014609Y022926D01*
X014609Y023123D02*
X014709Y023123D01*
X014709Y023222D02*
X014609Y023222D01*
X014609Y023320D02*
X014709Y023320D01*
X014709Y023419D02*
X014609Y023419D01*
X014609Y023517D02*
X014709Y023517D01*
X014898Y023517D02*
X015144Y023517D01*
X015097Y023419D02*
X015031Y023419D01*
X015243Y023616D02*
X014075Y023616D01*
X014174Y023517D02*
X014421Y023517D01*
X014287Y023419D02*
X014221Y023419D01*
X013929Y023714D02*
X015389Y023714D01*
X015929Y023714D02*
X022059Y023714D01*
X021964Y023620D02*
X021839Y023318D01*
X021839Y022992D01*
X021964Y022691D01*
X021964Y022691D01*
X022195Y022460D01*
X022472Y022345D01*
X018837Y022345D01*
X018687Y022283D01*
X018571Y022167D01*
X017851Y021447D01*
X017802Y021327D01*
X017710Y021235D01*
X017659Y021113D01*
X017643Y021152D02*
X017675Y021152D01*
X017725Y021251D02*
X017593Y021251D01*
X017494Y021349D02*
X017811Y021349D01*
X017852Y021448D02*
X017306Y021448D01*
X017012Y021448D02*
X016851Y021448D01*
X016824Y021349D02*
X016753Y021349D01*
X016725Y021251D02*
X016654Y021251D01*
X016643Y021152D02*
X016675Y021152D01*
X016948Y021546D02*
X017950Y021546D01*
X018049Y021645D02*
X016989Y021645D01*
X017009Y021743D02*
X018148Y021743D01*
X018246Y021842D02*
X017009Y021842D01*
X017009Y021940D02*
X018345Y021940D01*
X018443Y022039D02*
X017009Y022039D01*
X017009Y022138D02*
X018542Y022138D01*
X018640Y022236D02*
X017009Y022236D01*
X017009Y022335D02*
X018812Y022335D01*
X017277Y022926D02*
X021866Y022926D01*
X021839Y022992D02*
X021839Y022992D01*
X021839Y023024D02*
X017279Y023024D01*
X017279Y023123D02*
X021839Y023123D01*
X021839Y023222D02*
X017261Y023222D01*
X017220Y023320D02*
X021840Y023320D01*
X021839Y023318D02*
X021839Y023318D01*
X021881Y023419D02*
X017172Y023419D01*
X017074Y023517D02*
X021921Y023517D01*
X021962Y023616D02*
X016926Y023616D01*
X016392Y023616D02*
X016075Y023616D01*
X016174Y023517D02*
X016244Y023517D01*
X017236Y022827D02*
X021907Y022827D01*
X021948Y022729D02*
X017195Y022729D01*
X017111Y022630D02*
X022024Y022630D01*
X022123Y022532D02*
X017012Y022532D01*
X017009Y022433D02*
X022259Y022433D01*
X022195Y022460D02*
X022195Y022460D01*
X023059Y022433D02*
X031029Y022433D01*
X031029Y022335D02*
X029225Y022335D01*
X029463Y022236D02*
X031029Y022236D01*
X031029Y022138D02*
X029568Y022138D01*
X029666Y022039D02*
X031029Y022039D01*
X031029Y021940D02*
X029707Y021940D01*
X029748Y021842D02*
X031029Y021842D01*
X031029Y021743D02*
X029769Y021743D01*
X029769Y021645D02*
X031029Y021645D01*
X031029Y021546D02*
X029769Y021546D01*
X029739Y021448D02*
X031029Y021448D01*
X031029Y021349D02*
X029698Y021349D01*
X029646Y021251D02*
X031029Y021251D01*
X031029Y021152D02*
X029548Y021152D01*
X029414Y021054D02*
X031029Y021054D01*
X031029Y022532D02*
X023195Y022532D01*
X023294Y022630D02*
X031029Y022630D01*
X031029Y022729D02*
X025687Y022729D01*
X025598Y022692D02*
X025947Y022837D01*
X026214Y023104D01*
X026222Y023123D02*
X027799Y023123D01*
X027701Y023222D02*
X026263Y023222D01*
X026304Y023320D02*
X027632Y023320D01*
X027591Y023419D02*
X026345Y023419D01*
X026359Y023517D02*
X027550Y023517D01*
X027549Y023616D02*
X026359Y023616D01*
X026359Y023714D02*
X027549Y023714D01*
X027558Y023813D02*
X026359Y023813D01*
X026326Y023911D02*
X027599Y023911D01*
X027640Y024010D02*
X026285Y024010D01*
X026244Y024108D02*
X027721Y024108D01*
X027819Y024207D02*
X026188Y024207D01*
X026089Y024306D02*
X028022Y024306D01*
X029296Y024306D02*
X031029Y024306D01*
X031029Y024404D02*
X025991Y024404D01*
X024827Y024404D02*
X001309Y024404D01*
X001309Y024306D02*
X024729Y024306D01*
X024630Y024207D02*
X004829Y024207D01*
X005019Y024108D02*
X024574Y024108D01*
X024492Y023911D02*
X022976Y023911D01*
X023161Y023813D02*
X024459Y023813D01*
X024459Y023714D02*
X023260Y023714D01*
X023356Y023616D02*
X024459Y023616D01*
X024459Y023517D02*
X023397Y023517D01*
X023437Y023419D02*
X024473Y023419D01*
X024514Y023320D02*
X023478Y023320D01*
X023479Y023222D02*
X024555Y023222D01*
X024596Y023123D02*
X023479Y023123D01*
X023479Y023024D02*
X024683Y023024D01*
X024782Y022926D02*
X023452Y022926D01*
X023411Y022827D02*
X024894Y022827D01*
X025131Y022729D02*
X023370Y022729D01*
X022195Y023850D02*
X021964Y023620D01*
X021964Y023620D01*
X022157Y023813D02*
X010145Y023813D01*
X010198Y023714D02*
X011389Y023714D01*
X011243Y023616D02*
X010224Y023616D01*
X010227Y023495D02*
X009489Y023495D01*
X009489Y023075D01*
X009796Y023075D01*
X009869Y023087D01*
X009939Y023110D01*
X010005Y023143D01*
X010065Y023187D01*
X010118Y023239D01*
X010161Y023299D01*
X010195Y023365D01*
X010217Y023435D01*
X010227Y023495D01*
X010212Y023419D02*
X011097Y023419D01*
X011056Y023320D02*
X010172Y023320D01*
X010100Y023222D02*
X011039Y023222D01*
X011039Y023123D02*
X009966Y023123D01*
X009489Y023123D02*
X009389Y023123D01*
X009389Y023075D02*
X009389Y023495D01*
X009489Y023495D01*
X009489Y023595D01*
X009389Y023595D01*
X009389Y023495D01*
X008651Y023495D01*
X008661Y023435D01*
X008684Y023365D01*
X008717Y023299D01*
X008761Y023239D01*
X008813Y023187D01*
X008873Y023143D01*
X008939Y023110D01*
X009009Y023087D01*
X009082Y023075D01*
X009389Y023075D01*
X009389Y023222D02*
X009489Y023222D01*
X009489Y023320D02*
X009389Y023320D01*
X009389Y023419D02*
X009489Y023419D01*
X009489Y023517D02*
X011144Y023517D01*
X011042Y023024D02*
X005103Y023024D01*
X005169Y022926D02*
X011083Y022926D01*
X011124Y022827D02*
X005210Y022827D01*
X005234Y022729D02*
X011209Y022729D01*
X011307Y022630D02*
X005234Y022630D01*
X005438Y022335D02*
X006445Y022335D01*
X006224Y022236D02*
X005536Y022236D01*
X005635Y022138D02*
X006125Y022138D01*
X007314Y022335D02*
X009005Y022335D01*
X008784Y022236D02*
X007534Y022236D01*
X007633Y022138D02*
X008685Y022138D01*
X008616Y022039D02*
X007703Y022039D01*
X007743Y021940D02*
X008575Y021940D01*
X008549Y021842D02*
X007769Y021842D01*
X007769Y021743D02*
X008549Y021743D01*
X008552Y021645D02*
X007766Y021645D01*
X007725Y021546D02*
X008593Y021546D01*
X008634Y021448D02*
X007685Y021448D01*
X007589Y021349D02*
X008615Y021349D01*
X008516Y021251D02*
X007447Y021251D01*
X007149Y021152D02*
X008418Y021152D01*
X008319Y021054D02*
X007149Y021054D01*
X007149Y020955D02*
X008221Y020955D01*
X008122Y020856D02*
X007149Y020856D01*
X007118Y020758D02*
X008024Y020758D01*
X007925Y020659D02*
X007042Y020659D01*
X006943Y020561D02*
X007826Y020561D01*
X007728Y020462D02*
X006845Y020462D01*
X006746Y020364D02*
X007629Y020364D01*
X007531Y020265D02*
X006787Y020265D01*
X006886Y020167D02*
X007432Y020167D01*
X007334Y020068D02*
X006984Y020068D01*
X007083Y019970D02*
X007235Y019970D01*
X007718Y019575D02*
X009938Y019575D01*
X009763Y019674D02*
X007816Y019674D01*
X007915Y019773D02*
X009665Y019773D01*
X009606Y019871D02*
X008013Y019871D01*
X008112Y019970D02*
X009565Y019970D01*
X009539Y020068D02*
X008210Y020068D01*
X008309Y020167D02*
X009539Y020167D01*
X009539Y020265D02*
X008408Y020265D01*
X008506Y020364D02*
X009574Y020364D01*
X009615Y020462D02*
X008605Y020462D01*
X008703Y020561D02*
X009688Y020561D01*
X009787Y020659D02*
X008802Y020659D01*
X008900Y020758D02*
X009994Y020758D01*
X010630Y020561D02*
X012409Y020561D01*
X012295Y020462D02*
X011584Y020462D01*
X011710Y020364D02*
X012232Y020364D01*
X012196Y020265D02*
X011809Y020265D01*
X012006Y020068D02*
X012192Y020068D01*
X012220Y019970D02*
X012104Y019970D01*
X012203Y019871D02*
X012278Y019871D01*
X012301Y019773D02*
X012377Y019773D01*
X012640Y020265D02*
X012678Y020265D01*
X012678Y020364D02*
X012640Y020364D01*
X012640Y020462D02*
X012678Y020462D01*
X012678Y020561D02*
X012640Y020561D01*
X013126Y020068D02*
X014759Y020068D01*
X014667Y019970D02*
X013098Y019970D01*
X013040Y019871D02*
X014626Y019871D01*
X014585Y019773D02*
X012941Y019773D01*
X013144Y019674D02*
X014584Y019674D01*
X014540Y019575D02*
X013215Y019575D01*
X013234Y019477D02*
X014441Y019477D01*
X014342Y019378D02*
X013234Y019378D01*
X013234Y019280D02*
X014244Y019280D01*
X014145Y019181D02*
X013234Y019181D01*
X013234Y019083D02*
X014047Y019083D01*
X013948Y018984D02*
X013234Y018984D01*
X013234Y018886D02*
X013850Y018886D01*
X013751Y018787D02*
X013234Y018787D01*
X013305Y018689D02*
X013653Y018689D01*
X013554Y018590D02*
X013404Y018590D01*
X014729Y020856D02*
X008999Y020856D01*
X009097Y020955D02*
X014790Y020955D01*
X014709Y022630D02*
X014609Y022630D01*
X014359Y022630D02*
X014011Y022630D01*
X014110Y022729D02*
X014253Y022729D01*
X013307Y022630D02*
X013111Y022630D01*
X013195Y022729D02*
X013209Y022729D01*
X013144Y023517D02*
X013074Y023517D01*
X012926Y023616D02*
X013243Y023616D01*
X013389Y023714D02*
X011929Y023714D01*
X012075Y023616D02*
X012392Y023616D01*
X012244Y023517D02*
X012174Y023517D01*
X009489Y023616D02*
X009389Y023616D01*
X009389Y023595D02*
X009389Y024015D01*
X009082Y024015D01*
X009009Y024004D01*
X008939Y023981D01*
X008873Y023947D01*
X008813Y023904D01*
X008761Y023851D01*
X008717Y023791D01*
X008684Y023726D01*
X008661Y023655D01*
X008651Y023595D01*
X009389Y023595D01*
X009389Y023517D02*
X006929Y023517D01*
X006929Y023495D02*
X006929Y023595D01*
X007667Y023595D01*
X007657Y023655D01*
X007635Y023726D01*
X007601Y023791D01*
X007558Y023851D01*
X007505Y023904D01*
X007445Y023947D01*
X007379Y023981D01*
X007309Y024004D01*
X007236Y024015D01*
X006929Y024015D01*
X006929Y023595D01*
X006829Y023595D01*
X006829Y023495D01*
X006929Y023495D01*
X006929Y023075D01*
X007236Y023075D01*
X007309Y023087D01*
X007379Y023110D01*
X007445Y023143D01*
X007505Y023187D01*
X007558Y023239D01*
X007601Y023299D01*
X007635Y023365D01*
X007657Y023435D01*
X007667Y023495D01*
X006929Y023495D01*
X006929Y023419D02*
X006829Y023419D01*
X006829Y023495D02*
X006829Y023075D01*
X006522Y023075D01*
X006449Y023087D01*
X006379Y023110D01*
X006313Y023143D01*
X006253Y023187D01*
X006201Y023239D01*
X006157Y023299D01*
X006124Y023365D01*
X006101Y023435D01*
X006091Y023495D01*
X006829Y023495D01*
X006829Y023517D02*
X005224Y023517D01*
X005234Y023616D02*
X006094Y023616D01*
X006091Y023595D02*
X006829Y023595D01*
X006829Y024015D01*
X006522Y024015D01*
X006449Y024004D01*
X006379Y023981D01*
X006313Y023947D01*
X006253Y023904D01*
X006201Y023851D01*
X006157Y023791D01*
X006124Y023726D01*
X006101Y023655D01*
X006091Y023595D01*
X006120Y023714D02*
X005234Y023714D01*
X005216Y023813D02*
X006173Y023813D01*
X006264Y023911D02*
X005175Y023911D01*
X005117Y024010D02*
X006489Y024010D01*
X006829Y024010D02*
X006929Y024010D01*
X006929Y023911D02*
X006829Y023911D01*
X006829Y023813D02*
X006929Y023813D01*
X006929Y023714D02*
X006829Y023714D01*
X006829Y023616D02*
X006929Y023616D01*
X006929Y023320D02*
X006829Y023320D01*
X006829Y023222D02*
X006929Y023222D01*
X006929Y023123D02*
X006829Y023123D01*
X006352Y023123D02*
X005004Y023123D01*
X005039Y023222D02*
X006218Y023222D01*
X006146Y023320D02*
X005137Y023320D01*
X005183Y023419D02*
X006106Y023419D01*
X007269Y024010D02*
X009049Y024010D01*
X008824Y023911D02*
X007495Y023911D01*
X007585Y023813D02*
X008733Y023813D01*
X008680Y023714D02*
X007638Y023714D01*
X007664Y023616D02*
X008654Y023616D01*
X008666Y023419D02*
X007652Y023419D01*
X007612Y023320D02*
X008706Y023320D01*
X008778Y023222D02*
X007540Y023222D01*
X007406Y023123D02*
X008912Y023123D01*
X009389Y023714D02*
X009489Y023714D01*
X009489Y023813D02*
X009389Y023813D01*
X009389Y023911D02*
X009489Y023911D01*
X009489Y024010D02*
X009389Y024010D01*
X004489Y024207D02*
X001309Y024207D01*
X001309Y024108D02*
X004299Y024108D01*
X004201Y024010D02*
X001309Y024010D01*
X001309Y023911D02*
X002342Y023911D01*
X002195Y023850D02*
X002496Y023975D01*
X002496Y023975D01*
X002659Y023975D01*
X002696Y023975D01*
X002822Y023975D01*
X003124Y023850D01*
X003124Y023850D01*
X003354Y023620D01*
X003354Y023620D01*
X003479Y023318D01*
X003479Y023318D01*
X003479Y022992D01*
X003479Y022992D01*
X003354Y022691D01*
X003354Y022691D01*
X003124Y022460D01*
X003124Y022460D01*
X002822Y022335D01*
X002822Y022335D01*
X002659Y022335D01*
X002622Y022335D01*
X002496Y022335D01*
X002496Y022335D01*
X002195Y022460D01*
X002195Y022460D01*
X001964Y022691D01*
X001964Y022691D01*
X001839Y022992D01*
X001839Y022992D01*
X001839Y023318D01*
X001839Y023318D01*
X001964Y023620D01*
X001964Y023620D01*
X002195Y023850D01*
X002195Y023850D01*
X002157Y023813D02*
X001309Y023813D01*
X001309Y023714D02*
X002059Y023714D01*
X001962Y023616D02*
X001309Y023616D01*
X001309Y023517D02*
X001921Y023517D01*
X001881Y023419D02*
X001309Y023419D01*
X001309Y023320D02*
X001840Y023320D01*
X001839Y023222D02*
X001309Y023222D01*
X001309Y023123D02*
X001839Y023123D01*
X001839Y023024D02*
X001309Y023024D01*
X001309Y022926D02*
X001866Y022926D01*
X001907Y022827D02*
X001309Y022827D01*
X001309Y022729D02*
X001948Y022729D01*
X002024Y022630D02*
X001309Y022630D01*
X001309Y022532D02*
X002123Y022532D01*
X002259Y022433D02*
X001309Y022433D01*
X001309Y022335D02*
X003409Y022335D01*
X003409Y022433D02*
X003059Y022433D01*
X003195Y022532D02*
X003409Y022532D01*
X003409Y022630D02*
X003294Y022630D01*
X003370Y022729D02*
X003409Y022729D01*
X003411Y022827D02*
X003422Y022827D01*
X003452Y022926D02*
X003471Y022926D01*
X003479Y023024D02*
X003570Y023024D01*
X003479Y023123D02*
X003669Y023123D01*
X003767Y023222D02*
X003479Y023222D01*
X003478Y023320D02*
X003866Y023320D01*
X003964Y023419D02*
X003437Y023419D01*
X003397Y023517D02*
X004063Y023517D01*
X004084Y023616D02*
X003356Y023616D01*
X003260Y023714D02*
X004084Y023714D01*
X004102Y023813D02*
X003161Y023813D01*
X002976Y023911D02*
X004143Y023911D01*
X003409Y022236D02*
X001309Y022236D01*
X001309Y022138D02*
X003409Y022138D01*
X003409Y022039D02*
X001309Y022039D01*
X001309Y021940D02*
X003409Y021940D01*
X003409Y021842D02*
X001309Y021842D01*
X001309Y021743D02*
X003409Y021743D01*
X003272Y021645D02*
X001309Y021645D01*
X001309Y021546D02*
X003173Y021546D01*
X003109Y021448D02*
X001309Y021448D01*
X001309Y021349D02*
X003068Y021349D01*
X003039Y021251D02*
X001309Y021251D01*
X001309Y021152D02*
X003039Y021152D01*
X003039Y021054D02*
X001309Y021054D01*
X001309Y020955D02*
X003071Y020955D01*
X003112Y020856D02*
X001309Y020856D01*
X001309Y020758D02*
X003179Y020758D01*
X003278Y020659D02*
X001309Y020659D01*
X001309Y020561D02*
X003188Y020561D01*
X003115Y020462D02*
X001309Y020462D01*
X001309Y020364D02*
X003074Y020364D01*
X003039Y020265D02*
X001309Y020265D01*
X001309Y020167D02*
X003039Y020167D01*
X003039Y020068D02*
X001309Y020068D01*
X001309Y019970D02*
X003065Y019970D01*
X003106Y019871D02*
X001309Y019871D01*
X001309Y019773D02*
X003165Y019773D01*
X003263Y019674D02*
X001309Y019674D01*
X001309Y019575D02*
X003203Y019575D01*
X003121Y019477D02*
X001309Y019477D01*
X001309Y019378D02*
X003080Y019378D01*
X003040Y019280D02*
X001309Y019280D01*
X001309Y019181D02*
X003039Y019181D01*
X003039Y019083D02*
X001309Y019083D01*
X001309Y018984D02*
X003059Y018984D01*
X003100Y018886D02*
X001309Y018886D01*
X001309Y018787D02*
X003150Y018787D01*
X003249Y018689D02*
X001309Y018689D01*
X001309Y018590D02*
X003154Y018590D01*
X003056Y018491D02*
X001309Y018491D01*
X001309Y018393D02*
X002957Y018393D01*
X002859Y018294D02*
X001309Y018294D01*
X001309Y018196D02*
X002760Y018196D01*
X002661Y018097D02*
X001309Y018097D01*
X001309Y017999D02*
X002563Y017999D01*
X002464Y017900D02*
X001309Y017900D01*
X001309Y017802D02*
X002366Y017802D01*
X002267Y017703D02*
X001309Y017703D01*
X001309Y017605D02*
X002169Y017605D01*
X002070Y017506D02*
X001309Y017506D01*
X001309Y017407D02*
X001995Y017407D01*
X001954Y017309D02*
X001309Y017309D01*
X001309Y017210D02*
X001949Y017210D01*
X001949Y017112D02*
X001309Y017112D01*
X001309Y017013D02*
X001949Y017013D01*
X001949Y016915D02*
X001309Y016915D01*
X001309Y016816D02*
X001949Y016816D01*
X001949Y016718D02*
X001309Y016718D01*
X001309Y016619D02*
X001949Y016619D01*
X001949Y016521D02*
X001309Y016521D01*
X001309Y016422D02*
X001949Y016422D01*
X001949Y016324D02*
X001309Y016324D01*
X001309Y016225D02*
X001949Y016225D01*
X001949Y016126D02*
X001309Y016126D01*
X001309Y016028D02*
X001949Y016028D01*
X001949Y015929D02*
X001309Y015929D01*
X001309Y015831D02*
X001949Y015831D01*
X001949Y015732D02*
X001309Y015732D01*
X001309Y015634D02*
X001949Y015634D01*
X001949Y015535D02*
X001309Y015535D01*
X001309Y015437D02*
X001949Y015437D01*
X001949Y015338D02*
X001309Y015338D01*
X001309Y015240D02*
X001937Y015240D01*
X001929Y015141D02*
X001309Y015141D01*
X001309Y015042D02*
X001929Y015042D01*
X001929Y014944D02*
X001309Y014944D01*
X001309Y014845D02*
X001929Y014845D01*
X001929Y014747D02*
X001309Y014747D01*
X001309Y014648D02*
X001929Y014648D01*
X001929Y014550D02*
X001309Y014550D01*
X001309Y014451D02*
X001945Y014451D01*
X001949Y014353D02*
X001309Y014353D01*
X001309Y014254D02*
X001949Y014254D01*
X001949Y014156D02*
X001309Y014156D01*
X001309Y014057D02*
X001929Y014057D01*
X001929Y013958D02*
X001309Y013958D01*
X001309Y013860D02*
X001929Y013860D01*
X001846Y013761D02*
X001309Y013761D01*
X001309Y013663D02*
X001747Y013663D01*
X001648Y013564D02*
X001309Y013564D01*
X001309Y013466D02*
X001550Y013466D01*
X001451Y013367D02*
X001309Y013367D01*
X001309Y013269D02*
X001353Y013269D01*
X003327Y014254D02*
X004960Y014254D01*
X005058Y014353D02*
X003405Y014353D01*
X003559Y014451D02*
X003659Y014451D01*
X003659Y014550D02*
X003559Y014550D01*
X003559Y014648D02*
X003659Y014648D01*
X003659Y014747D02*
X003559Y014747D01*
X003659Y014845D02*
X005067Y014845D01*
X005039Y014747D02*
X003989Y014747D01*
X003989Y014648D02*
X005039Y014648D01*
X005039Y014550D02*
X003989Y014550D01*
X003961Y014451D02*
X005072Y014451D01*
X004861Y014156D02*
X003904Y014156D01*
X003984Y014057D02*
X004763Y014057D01*
X004664Y013958D02*
X003989Y013958D01*
X003989Y013860D02*
X004565Y013860D01*
X004467Y013761D02*
X003989Y013761D01*
X003989Y013564D02*
X004270Y013564D01*
X004171Y013466D02*
X003989Y013466D01*
X003988Y013367D02*
X004073Y013367D01*
X003974Y013269D02*
X003929Y013269D01*
X003659Y013269D02*
X003559Y013269D01*
X003559Y013367D02*
X003659Y013367D01*
X003659Y013466D02*
X003559Y013466D01*
X003559Y013564D02*
X003659Y013564D01*
X003659Y013663D02*
X004368Y013663D01*
X004752Y013170D02*
X007665Y013170D01*
X007546Y013072D02*
X004654Y013072D01*
X004555Y012973D02*
X007447Y012973D01*
X007396Y012874D02*
X004457Y012874D01*
X004358Y012776D02*
X007355Y012776D01*
X007349Y012677D02*
X004260Y012677D01*
X004112Y012579D02*
X007349Y012579D01*
X007378Y012480D02*
X004195Y012480D01*
X004236Y012382D02*
X007419Y012382D01*
X007501Y012283D02*
X004277Y012283D01*
X004279Y012185D02*
X006435Y012185D01*
X006277Y012086D02*
X004279Y012086D01*
X004261Y011988D02*
X006178Y011988D01*
X006134Y011889D02*
X004220Y011889D01*
X004171Y011791D02*
X006093Y011791D01*
X006084Y011692D02*
X004073Y011692D01*
X004098Y011593D02*
X006084Y011593D01*
X006103Y011495D02*
X004189Y011495D01*
X004230Y011396D02*
X006144Y011396D01*
X006203Y011298D02*
X004271Y011298D01*
X004279Y011199D02*
X006302Y011199D01*
X006334Y011002D02*
X004267Y011002D01*
X004279Y011101D02*
X006493Y011101D01*
X006253Y010904D02*
X004226Y010904D01*
X004185Y010805D02*
X006208Y010805D01*
X006186Y010707D02*
X004087Y010707D01*
X003958Y010608D02*
X006186Y010608D01*
X006184Y010618D02*
X006196Y010544D01*
X006219Y010473D01*
X006253Y010406D01*
X006297Y010346D01*
X006350Y010293D01*
X006410Y010249D01*
X006477Y010215D01*
X006548Y010192D01*
X006622Y010180D01*
X006640Y010180D01*
X006640Y010636D01*
X006184Y010636D01*
X006184Y010618D01*
X006207Y010509D02*
X004040Y010509D01*
X004112Y010411D02*
X006250Y010411D01*
X006330Y010312D02*
X004155Y010312D01*
X004176Y010214D02*
X006480Y010214D01*
X006640Y010214D02*
X006678Y010214D01*
X006678Y010312D02*
X006640Y010312D01*
X006640Y010411D02*
X006678Y010411D01*
X006678Y010509D02*
X006640Y010509D01*
X006640Y010608D02*
X006678Y010608D01*
X007016Y011199D02*
X007595Y011199D01*
X008129Y011002D02*
X008189Y011002D01*
X008189Y010904D02*
X008129Y010904D01*
X008129Y010805D02*
X008189Y010805D01*
X008189Y010707D02*
X008129Y010707D01*
X008129Y010608D02*
X008189Y010608D01*
X008189Y010509D02*
X008129Y010509D01*
X008129Y010411D02*
X008189Y010411D01*
X008189Y010312D02*
X008129Y010312D01*
X007605Y010115D02*
X003709Y010115D01*
X003709Y010017D02*
X003609Y010017D01*
X003609Y010105D02*
X003140Y010105D01*
X002709Y010105D01*
X002709Y010205D01*
X003140Y010205D01*
X003609Y010205D01*
X003609Y010105D01*
X003609Y010115D02*
X002709Y010115D01*
X002709Y010017D02*
X002609Y010017D01*
X002609Y010105D02*
X002609Y009637D01*
X002537Y009648D01*
X002459Y009673D01*
X002386Y009710D01*
X002320Y009758D01*
X002262Y009816D01*
X002214Y009883D01*
X002177Y009955D01*
X002152Y010033D01*
X002140Y010105D01*
X002609Y010105D01*
X002609Y010115D02*
X002129Y010115D01*
X002129Y010017D02*
X002157Y010017D01*
X002156Y009918D02*
X002196Y009918D01*
X002254Y009820D02*
X002260Y009820D01*
X002353Y009721D02*
X002372Y009721D01*
X002451Y009623D02*
X005574Y009623D01*
X005548Y009618D02*
X005477Y009595D01*
X005410Y009561D01*
X005350Y009517D01*
X005297Y009465D01*
X005253Y009404D01*
X005219Y009337D01*
X005196Y009266D01*
X005184Y009192D01*
X005184Y009174D01*
X005640Y009174D01*
X005640Y009630D01*
X005622Y009630D01*
X005548Y009618D01*
X005640Y009623D02*
X005678Y009623D01*
X005744Y009623D02*
X006313Y009623D01*
X006215Y009524D02*
X005959Y009524D01*
X006050Y009425D02*
X006149Y009425D01*
X006108Y009327D02*
X006103Y009327D01*
X006079Y008933D02*
X006129Y008933D01*
X006170Y008834D02*
X006010Y008834D01*
X005882Y008736D02*
X006265Y008736D01*
X006407Y008637D02*
X003181Y008637D01*
X003230Y008539D02*
X003379Y008539D01*
X003279Y008440D02*
X003234Y008440D01*
X003009Y008736D02*
X005436Y008736D01*
X005410Y008749D02*
X005477Y008715D01*
X005548Y008692D01*
X005622Y008680D01*
X005640Y008680D01*
X005640Y009136D01*
X005184Y009136D01*
X005184Y009118D01*
X005196Y009044D01*
X005219Y008973D01*
X005253Y008906D01*
X005297Y008846D01*
X005350Y008793D01*
X005410Y008749D01*
X005308Y008834D02*
X003009Y008834D01*
X003009Y008933D02*
X005239Y008933D01*
X005200Y009031D02*
X002986Y009031D01*
X002944Y009130D02*
X005184Y009130D01*
X005190Y009228D02*
X002846Y009228D01*
X002747Y009327D02*
X005215Y009327D01*
X005268Y009425D02*
X002648Y009425D01*
X002550Y009524D02*
X005359Y009524D01*
X005640Y009524D02*
X005678Y009524D01*
X005678Y009425D02*
X005640Y009425D01*
X005640Y009327D02*
X005678Y009327D01*
X005678Y009228D02*
X005640Y009228D01*
X005640Y009130D02*
X005678Y009130D01*
X005678Y009031D02*
X005640Y009031D01*
X005640Y008933D02*
X005678Y008933D01*
X005678Y008834D02*
X005640Y008834D01*
X005640Y008736D02*
X005678Y008736D01*
X006449Y008539D02*
X003939Y008539D01*
X004039Y008440D02*
X006449Y008440D01*
X006449Y008341D02*
X004097Y008341D01*
X004126Y008243D02*
X006449Y008243D01*
X006449Y008144D02*
X003678Y008144D01*
X003678Y008046D02*
X003640Y008046D01*
X003640Y007947D02*
X003678Y007947D01*
X003678Y007849D02*
X003640Y007849D01*
X003640Y007750D02*
X003678Y007750D01*
X003910Y007750D02*
X006296Y007750D01*
X006394Y007849D02*
X004024Y007849D01*
X004086Y007947D02*
X006449Y007947D01*
X006449Y008046D02*
X004123Y008046D01*
X003678Y008243D02*
X003640Y008243D01*
X003640Y008341D02*
X003678Y008341D01*
X003678Y008440D02*
X003640Y008440D01*
X003640Y008539D02*
X003678Y008539D01*
X003294Y007849D02*
X003234Y007849D01*
X003221Y007750D02*
X003408Y007750D01*
X003159Y007652D02*
X005855Y007652D01*
X005744Y007553D02*
X002957Y007553D01*
X002858Y007455D02*
X005661Y007455D01*
X005620Y007356D02*
X002760Y007356D01*
X002661Y007258D02*
X005584Y007258D01*
X005584Y007159D02*
X002563Y007159D01*
X002464Y007060D02*
X005584Y007060D01*
X005617Y006962D02*
X002366Y006962D01*
X002267Y006863D02*
X005657Y006863D01*
X005736Y006765D02*
X003807Y006765D01*
X004025Y006666D02*
X005837Y006666D01*
X006481Y006666D02*
X007349Y006666D01*
X007349Y006568D02*
X004123Y006568D01*
X004200Y006469D02*
X007382Y006469D01*
X007423Y006371D02*
X004241Y006371D01*
X004279Y006272D02*
X007458Y006272D01*
X007359Y006174D02*
X004279Y006174D01*
X004279Y006075D02*
X007261Y006075D01*
X007162Y005976D02*
X004256Y005976D01*
X004215Y005878D02*
X007064Y005878D01*
X006965Y005779D02*
X004160Y005779D01*
X004062Y005681D02*
X005926Y005681D01*
X005773Y005582D02*
X004109Y005582D01*
X004194Y005484D02*
X005674Y005484D01*
X005632Y005385D02*
X004235Y005385D01*
X004276Y005287D02*
X005591Y005287D01*
X005584Y005188D02*
X004279Y005188D01*
X004279Y005090D02*
X005584Y005090D01*
X005605Y004991D02*
X004262Y004991D01*
X004221Y004892D02*
X005645Y004892D01*
X005707Y004794D02*
X004175Y004794D01*
X004076Y004695D02*
X005806Y004695D01*
X005979Y004597D02*
X003936Y004597D01*
X004051Y004498D02*
X006077Y004498D01*
X006176Y004400D02*
X004118Y004400D01*
X004158Y004301D02*
X006275Y004301D01*
X006289Y004203D02*
X003709Y004203D01*
X003709Y004104D02*
X003609Y004104D01*
X003609Y004105D02*
X003178Y004105D01*
X002709Y004105D01*
X002709Y004205D01*
X003178Y004205D01*
X003609Y004205D01*
X003609Y004105D01*
X003609Y004203D02*
X002709Y004203D01*
X002709Y004104D02*
X002609Y004104D01*
X002609Y004105D02*
X002609Y003637D01*
X002537Y003648D01*
X002459Y003673D01*
X002386Y003710D01*
X002320Y003758D01*
X002262Y003816D01*
X002214Y003883D01*
X002177Y003955D01*
X002152Y004033D01*
X002140Y004105D01*
X002609Y004105D01*
X002609Y004203D02*
X001309Y004203D01*
X001309Y004301D02*
X002160Y004301D01*
X002200Y004400D02*
X001309Y004400D01*
X001309Y004498D02*
X002267Y004498D01*
X002382Y004597D02*
X001309Y004597D01*
X001309Y004695D02*
X002242Y004695D01*
X002143Y004794D02*
X001309Y004794D01*
X001309Y004892D02*
X002097Y004892D01*
X002056Y004991D02*
X001309Y004991D01*
X001309Y005090D02*
X002039Y005090D01*
X001966Y005188D02*
X001309Y005188D01*
X001309Y005287D02*
X001868Y005287D01*
X001769Y005385D02*
X001309Y005385D01*
X001309Y005484D02*
X001671Y005484D01*
X001572Y005582D02*
X001309Y005582D01*
X001309Y005681D02*
X001474Y005681D01*
X001375Y005779D02*
X001309Y005779D01*
X001309Y005878D02*
X001332Y005878D01*
X001309Y005976D02*
X001309Y005976D01*
X001309Y006075D02*
X001309Y006075D01*
X001309Y006174D02*
X001309Y006174D01*
X001309Y006272D02*
X001309Y006272D01*
X001309Y006371D02*
X001309Y006371D01*
X001309Y006469D02*
X001309Y006469D01*
X001309Y006568D02*
X001309Y006568D01*
X001309Y006666D02*
X001309Y006666D01*
X001309Y006765D02*
X001309Y006765D01*
X001309Y006863D02*
X001309Y006863D01*
X001309Y006962D02*
X001309Y006962D01*
X001309Y007060D02*
X001344Y007060D01*
X001309Y007159D02*
X001403Y007159D01*
X001309Y007258D02*
X001502Y007258D01*
X001600Y007356D02*
X001309Y007356D01*
X001309Y007455D02*
X001699Y007455D01*
X001797Y007553D02*
X001309Y007553D01*
X001309Y007652D02*
X001896Y007652D01*
X001994Y007750D02*
X001309Y007750D01*
X001309Y007849D02*
X002084Y007849D01*
X002084Y007947D02*
X001309Y007947D01*
X001309Y008046D02*
X002084Y008046D01*
X002084Y008144D02*
X001309Y008144D01*
X001309Y008243D02*
X002084Y008243D01*
X002084Y008341D02*
X001309Y008341D01*
X001309Y008440D02*
X002084Y008440D01*
X002088Y008539D02*
X001309Y008539D01*
X001309Y008637D02*
X002138Y008637D01*
X002179Y008736D02*
X001309Y008736D01*
X001309Y008834D02*
X002080Y008834D01*
X001982Y008933D02*
X001309Y008933D01*
X001309Y009031D02*
X001883Y009031D01*
X001784Y009130D02*
X001309Y009130D01*
X001309Y009228D02*
X001686Y009228D01*
X001587Y009327D02*
X001309Y009327D01*
X001309Y009425D02*
X001489Y009425D01*
X001390Y009524D02*
X001309Y009524D01*
X001309Y009623D02*
X001338Y009623D01*
X001309Y009721D02*
X001309Y009721D01*
X001309Y009820D02*
X001309Y009820D01*
X001309Y009918D02*
X001309Y009918D01*
X001309Y010017D02*
X001309Y010017D01*
X001309Y010115D02*
X001309Y010115D01*
X001309Y010214D02*
X001309Y010214D01*
X001309Y010312D02*
X001309Y010312D01*
X001309Y010411D02*
X001309Y010411D01*
X001309Y010509D02*
X001309Y010509D01*
X001309Y010565D02*
X001309Y010565D01*
X002135Y010411D02*
X002206Y010411D01*
X002147Y010423D02*
X002147Y010423D01*
X002129Y010312D02*
X002163Y010312D01*
X002142Y010214D02*
X002129Y010214D01*
X002233Y010509D02*
X002278Y010509D01*
X002332Y010608D02*
X002360Y010608D01*
X002609Y009918D02*
X002709Y009918D01*
X002709Y009820D02*
X002609Y009820D01*
X002609Y009721D02*
X002709Y009721D01*
X002946Y009721D02*
X003372Y009721D01*
X003260Y009820D02*
X003058Y009820D01*
X003122Y009918D02*
X003196Y009918D01*
X003609Y009918D02*
X003709Y009918D01*
X003709Y009820D02*
X003609Y009820D01*
X003609Y009721D02*
X003709Y009721D01*
X003946Y009721D02*
X006523Y009721D01*
X006795Y009721D02*
X007147Y009721D01*
X007245Y009820D02*
X004058Y009820D01*
X004122Y009918D02*
X007401Y009918D01*
X007491Y010017D02*
X004161Y010017D01*
X007005Y009623D02*
X007048Y009623D01*
X007531Y009228D02*
X007556Y009228D01*
X007640Y009130D02*
X007432Y009130D01*
X007506Y009031D02*
X007334Y009031D01*
X007420Y008933D02*
X007235Y008933D01*
X007148Y008834D02*
X007380Y008834D01*
X007349Y008736D02*
X007069Y008736D01*
X007069Y008637D02*
X007349Y008637D01*
X007354Y008539D02*
X007069Y008539D01*
X007069Y008440D02*
X007394Y008440D01*
X007443Y008341D02*
X007069Y008341D01*
X007069Y008243D02*
X007542Y008243D01*
X007675Y008144D02*
X007069Y008144D01*
X007069Y008046D02*
X007520Y008046D01*
X007426Y007947D02*
X007069Y007947D01*
X007069Y007849D02*
X007386Y007849D01*
X007349Y007750D02*
X007069Y007750D01*
X007043Y007652D02*
X007349Y007652D01*
X007349Y007553D02*
X006975Y007553D01*
X006877Y007455D02*
X007388Y007455D01*
X007429Y007356D02*
X006778Y007356D01*
X006734Y007258D02*
X007527Y007258D01*
X007692Y007159D02*
X006734Y007159D01*
X006734Y007060D02*
X007535Y007060D01*
X007436Y006962D02*
X006701Y006962D01*
X006661Y006863D02*
X007392Y006863D01*
X007351Y006765D02*
X006582Y006765D01*
X006392Y005681D02*
X006866Y005681D01*
X006796Y005582D02*
X006545Y005582D01*
X006644Y005484D02*
X006769Y005484D01*
X006769Y005385D02*
X006686Y005385D01*
X006727Y005287D02*
X006769Y005287D01*
X006769Y005188D02*
X006734Y005188D01*
X006734Y005090D02*
X006769Y005090D01*
X006769Y004991D02*
X006713Y004991D01*
X006673Y004892D02*
X006769Y004892D01*
X006769Y004794D02*
X006659Y004794D01*
X006757Y004695D02*
X006769Y004695D01*
X007389Y004400D02*
X007411Y004400D01*
X007471Y004301D02*
X007483Y004301D01*
X007570Y004203D02*
X007586Y004203D01*
X007668Y004104D02*
X009752Y004104D01*
X009850Y004006D02*
X007767Y004006D01*
X007865Y003907D02*
X009949Y003907D01*
X010047Y003809D02*
X007964Y003809D01*
X008063Y003710D02*
X010146Y003710D01*
X010244Y003611D02*
X008161Y003611D01*
X008260Y003513D02*
X010343Y003513D01*
X009653Y004203D02*
X008732Y004203D01*
X008835Y004301D02*
X009555Y004301D01*
X009456Y004400D02*
X008907Y004400D01*
X008948Y004498D02*
X009357Y004498D01*
X009259Y004597D02*
X008969Y004597D01*
X008969Y004695D02*
X009160Y004695D01*
X009062Y004794D02*
X008955Y004794D01*
X008963Y004892D02*
X008914Y004892D01*
X008865Y004991D02*
X008853Y004991D01*
X008766Y005090D02*
X008754Y005090D01*
X007087Y003809D02*
X006909Y003809D01*
X006909Y003907D02*
X006989Y003907D01*
X006909Y003710D02*
X007186Y003710D01*
X007284Y003611D02*
X007016Y003611D01*
X007114Y003513D02*
X007383Y003513D01*
X007481Y003414D02*
X007174Y003414D01*
X007215Y003316D02*
X007580Y003316D01*
X007679Y003217D02*
X007234Y003217D01*
X007234Y003119D02*
X007777Y003119D01*
X007876Y003020D02*
X007225Y003020D01*
X007185Y002922D02*
X007974Y002922D01*
X008073Y002823D02*
X007140Y002823D01*
X007042Y002725D02*
X008171Y002725D01*
X008270Y002626D02*
X006884Y002626D01*
X006434Y002626D02*
X003348Y002626D01*
X003354Y002620D02*
X003124Y002850D01*
X003124Y002850D01*
X002822Y002975D01*
X002696Y002975D01*
X002659Y002975D01*
X002644Y002975D01*
X002622Y002975D01*
X002496Y002975D01*
X002195Y002850D01*
X002195Y002850D01*
X001964Y002620D01*
X001964Y002620D01*
X001839Y002318D01*
X001839Y001992D01*
X001964Y001691D01*
X001964Y001691D01*
X002195Y001460D01*
X002496Y001335D01*
X002659Y001335D01*
X002696Y001335D01*
X002822Y001335D01*
X002822Y001335D01*
X003124Y001460D01*
X003354Y001691D01*
X003479Y001992D01*
X003479Y002318D01*
X003479Y002318D01*
X003354Y002620D01*
X003354Y002620D01*
X003392Y002527D02*
X008368Y002527D01*
X008467Y002429D02*
X003433Y002429D01*
X003474Y002330D02*
X008565Y002330D01*
X008664Y002232D02*
X003479Y002232D01*
X003479Y002133D02*
X008762Y002133D01*
X008861Y002035D02*
X003479Y002035D01*
X003479Y001992D02*
X003479Y001992D01*
X003456Y001936D02*
X008960Y001936D01*
X009058Y001838D02*
X003415Y001838D01*
X003374Y001739D02*
X009157Y001739D01*
X009255Y001641D02*
X003304Y001641D01*
X003354Y001691D02*
X003354Y001691D01*
X003354Y001691D01*
X003206Y001542D02*
X009354Y001542D01*
X009452Y001443D02*
X003084Y001443D01*
X003124Y001460D02*
X003124Y001460D01*
X002846Y001345D02*
X009551Y001345D01*
X009649Y001246D02*
X001309Y001246D01*
X001309Y001148D02*
X009748Y001148D01*
X009846Y001049D02*
X001309Y001049D01*
X001309Y000951D02*
X009945Y000951D01*
X010072Y000852D02*
X001309Y000852D01*
X001309Y001345D02*
X002472Y001345D01*
X002496Y001335D02*
X002496Y001335D01*
X002234Y001443D02*
X001309Y001443D01*
X001309Y001542D02*
X002112Y001542D01*
X002195Y001460D02*
X002195Y001460D01*
X002014Y001641D02*
X001309Y001641D01*
X001309Y001739D02*
X001944Y001739D01*
X001903Y001838D02*
X001309Y001838D01*
X001309Y001936D02*
X001862Y001936D01*
X001839Y001992D02*
X001839Y001992D01*
X001839Y002035D02*
X001309Y002035D01*
X001309Y002133D02*
X001839Y002133D01*
X001839Y002232D02*
X001309Y002232D01*
X001309Y002330D02*
X001844Y002330D01*
X001839Y002318D02*
X001839Y002318D01*
X001885Y002429D02*
X001309Y002429D01*
X001309Y002527D02*
X001926Y002527D01*
X001970Y002626D02*
X001309Y002626D01*
X001309Y002725D02*
X002069Y002725D01*
X002167Y002823D02*
X001309Y002823D01*
X001309Y002922D02*
X002367Y002922D01*
X002496Y002975D02*
X002496Y002975D01*
X002822Y002975D02*
X002822Y002975D01*
X002951Y002922D02*
X005245Y002922D01*
X005253Y002906D02*
X005297Y002846D01*
X005350Y002793D01*
X005410Y002749D01*
X005477Y002715D01*
X005548Y002692D01*
X005622Y002680D01*
X005640Y002680D01*
X005640Y003136D01*
X005184Y003136D01*
X005184Y003118D01*
X005196Y003044D01*
X005219Y002973D01*
X005253Y002906D01*
X005319Y002823D02*
X003151Y002823D01*
X003249Y002725D02*
X005458Y002725D01*
X005640Y002725D02*
X005678Y002725D01*
X005678Y002823D02*
X005640Y002823D01*
X005640Y002922D02*
X005678Y002922D01*
X005678Y003020D02*
X005640Y003020D01*
X005640Y003119D02*
X005678Y003119D01*
X005640Y003174D02*
X005184Y003174D01*
X005184Y003192D01*
X005196Y003266D01*
X005219Y003337D01*
X005253Y003404D01*
X005297Y003465D01*
X005350Y003517D01*
X005410Y003561D01*
X005477Y003595D01*
X005548Y003618D01*
X005622Y003630D01*
X005640Y003630D01*
X005640Y003174D01*
X005640Y003217D02*
X005678Y003217D01*
X005678Y003316D02*
X005640Y003316D01*
X005640Y003414D02*
X005678Y003414D01*
X005678Y003513D02*
X005640Y003513D01*
X005640Y003611D02*
X005678Y003611D01*
X005792Y003611D02*
X006289Y003611D01*
X006289Y003710D02*
X003931Y003710D01*
X004048Y003809D02*
X006289Y003809D01*
X006289Y003907D02*
X004116Y003907D01*
X004157Y004006D02*
X006289Y004006D01*
X006289Y004104D02*
X004177Y004104D01*
X003709Y004006D02*
X003609Y004006D01*
X003609Y003907D02*
X003709Y003907D01*
X003709Y003809D02*
X003609Y003809D01*
X003609Y003710D02*
X003709Y003710D01*
X003387Y003710D02*
X002931Y003710D01*
X003048Y003809D02*
X003270Y003809D01*
X003202Y003907D02*
X003116Y003907D01*
X003157Y004006D02*
X003161Y004006D01*
X002709Y004006D02*
X002609Y004006D01*
X002609Y003907D02*
X002709Y003907D01*
X002709Y003809D02*
X002609Y003809D01*
X002609Y003710D02*
X002709Y003710D01*
X002387Y003710D02*
X001309Y003710D01*
X001309Y003809D02*
X002270Y003809D01*
X002202Y003907D02*
X001309Y003907D01*
X001309Y004006D02*
X002161Y004006D01*
X002141Y004104D02*
X001309Y004104D01*
X001309Y003611D02*
X005526Y003611D01*
X005345Y003513D02*
X001309Y003513D01*
X001309Y003414D02*
X005260Y003414D01*
X005212Y003316D02*
X001309Y003316D01*
X001309Y003217D02*
X005188Y003217D01*
X005184Y003119D02*
X001309Y003119D01*
X001309Y003020D02*
X005203Y003020D01*
X005860Y002725D02*
X006276Y002725D01*
X006178Y002823D02*
X005999Y002823D01*
X006073Y002922D02*
X006133Y002922D01*
X006144Y003414D02*
X006058Y003414D01*
X005973Y003513D02*
X006204Y003513D01*
X003195Y006568D02*
X003123Y006568D01*
X003025Y006666D02*
X003293Y006666D01*
X003511Y006765D02*
X002807Y006765D01*
X002511Y006765D02*
X002169Y006765D01*
X002129Y006666D02*
X002293Y006666D01*
X002195Y006568D02*
X002129Y006568D01*
X008699Y010312D02*
X010442Y010312D01*
X012589Y008144D02*
X012727Y008144D01*
X015309Y009425D02*
X015400Y009425D01*
X015406Y009327D02*
X015458Y009327D01*
X015504Y009228D02*
X015556Y009228D01*
X015603Y009130D02*
X015640Y009130D01*
X015360Y009524D02*
X015309Y009524D01*
X015309Y009623D02*
X015349Y009623D01*
X015349Y009721D02*
X015309Y009721D01*
X015309Y009820D02*
X015374Y009820D01*
X015414Y009918D02*
X015309Y009918D01*
X015309Y010017D02*
X015491Y010017D01*
X015605Y010115D02*
X015309Y010115D01*
X015309Y010214D02*
X015571Y010214D01*
X015472Y010312D02*
X015309Y010312D01*
X015309Y010411D02*
X015406Y010411D01*
X015366Y010509D02*
X015309Y010509D01*
X015309Y010608D02*
X015349Y010608D01*
X015349Y010707D02*
X015309Y010707D01*
X015309Y010805D02*
X015368Y010805D01*
X015408Y010904D02*
X015309Y010904D01*
X015309Y011002D02*
X015477Y011002D01*
X015575Y011101D02*
X015309Y011101D01*
X015309Y011199D02*
X015595Y011199D01*
X015487Y011298D02*
X015309Y011298D01*
X015309Y011396D02*
X015413Y011396D01*
X015372Y011495D02*
X015309Y011495D01*
X015309Y011593D02*
X015349Y011593D01*
X015349Y011692D02*
X015309Y011692D01*
X015309Y011791D02*
X015361Y011791D01*
X015402Y011889D02*
X015309Y011889D01*
X015309Y011988D02*
X015462Y011988D01*
X015561Y012086D02*
X015309Y012086D01*
X015309Y012185D02*
X015630Y012185D01*
X015501Y012283D02*
X015309Y012283D01*
X015309Y012382D02*
X015419Y012382D01*
X015378Y012480D02*
X015309Y012480D01*
X015309Y012579D02*
X015349Y012579D01*
X015349Y012677D02*
X015309Y012677D01*
X015309Y012776D02*
X015355Y012776D01*
X015396Y012874D02*
X015309Y012874D01*
X015309Y012973D02*
X015447Y012973D01*
X015546Y013072D02*
X015309Y013072D01*
X015309Y013170D02*
X015665Y013170D01*
X015516Y013269D02*
X015309Y013269D01*
X015309Y013367D02*
X015425Y013367D01*
X015384Y013466D02*
X015309Y013466D01*
X015309Y013564D02*
X015349Y013564D01*
X015349Y013663D02*
X015309Y013663D01*
X015309Y013761D02*
X015349Y013761D01*
X015309Y013860D02*
X015390Y013860D01*
X015433Y013958D02*
X015309Y013958D01*
X015309Y014057D02*
X015531Y014057D01*
X015700Y014156D02*
X015309Y014156D01*
X015309Y014254D02*
X015531Y014254D01*
X015432Y014353D02*
X015309Y014353D01*
X015309Y014451D02*
X015390Y014451D01*
X015349Y014648D02*
X015309Y014648D01*
X015309Y014747D02*
X015349Y014747D01*
X015384Y014845D02*
X015309Y014845D01*
X015309Y014944D02*
X015425Y014944D01*
X015517Y015042D02*
X015309Y015042D01*
X015309Y015141D02*
X015667Y015141D01*
X015767Y015240D02*
X015309Y015240D01*
X015309Y015338D02*
X015588Y015338D01*
X015508Y015437D02*
X015309Y015437D01*
X015309Y015535D02*
X015466Y015535D01*
X016129Y015535D02*
X016189Y015535D01*
X016189Y015437D02*
X016129Y015437D01*
X016129Y015338D02*
X016189Y015338D01*
X016189Y015240D02*
X016129Y015240D01*
X016129Y015732D02*
X016189Y015732D01*
X016189Y015831D02*
X016129Y015831D01*
X016129Y015929D02*
X016189Y015929D01*
X016189Y016028D02*
X016129Y016028D01*
X017433Y016915D02*
X017885Y016915D01*
X017771Y017013D02*
X017547Y017013D01*
X017624Y017112D02*
X017694Y017112D01*
X018433Y016915D02*
X020885Y016915D01*
X020771Y017013D02*
X020393Y017013D01*
X020384Y017007D02*
X020439Y017047D01*
X020487Y017095D01*
X020527Y017150D01*
X020558Y017210D01*
X020578Y017274D01*
X020589Y017341D01*
X020589Y017625D01*
X020189Y017625D01*
X020189Y016945D01*
X020193Y016945D01*
X020260Y016956D01*
X020324Y016977D01*
X020384Y017007D01*
X020499Y017112D02*
X020694Y017112D01*
X020654Y017210D02*
X020558Y017210D01*
X020584Y017309D02*
X020629Y017309D01*
X020629Y017407D02*
X020589Y017407D01*
X020589Y017506D02*
X020629Y017506D01*
X020629Y017605D02*
X020589Y017605D01*
X020589Y017685D02*
X020589Y017969D01*
X020578Y018036D01*
X020558Y018100D01*
X020527Y018160D01*
X020487Y018215D01*
X020439Y018263D01*
X020384Y018303D01*
X020324Y018334D01*
X020260Y018354D01*
X020193Y018365D01*
X020189Y018365D01*
X020189Y017685D01*
X020589Y017685D01*
X020589Y017703D02*
X020629Y017703D01*
X020629Y017802D02*
X020589Y017802D01*
X020589Y017900D02*
X020629Y017900D01*
X020629Y017999D02*
X020584Y017999D01*
X020558Y018097D02*
X020653Y018097D01*
X020693Y018196D02*
X020501Y018196D01*
X020396Y018294D02*
X020749Y018294D01*
X020749Y018393D02*
X018439Y018393D01*
X018549Y018294D02*
X018922Y018294D01*
X018934Y018303D02*
X018879Y018263D01*
X018831Y018215D01*
X018791Y018160D01*
X018761Y018100D01*
X018740Y018036D01*
X018729Y017969D01*
X018729Y017685D01*
X019129Y017685D01*
X019129Y017625D01*
X019189Y017625D01*
X019189Y016945D01*
X019193Y016945D01*
X019260Y016956D01*
X019324Y016977D01*
X019384Y017007D01*
X019439Y017047D01*
X019487Y017095D01*
X019527Y017150D01*
X019558Y017210D01*
X019578Y017274D01*
X019589Y017341D01*
X019589Y017625D01*
X019189Y017625D01*
X019189Y017685D01*
X019589Y017685D01*
X019589Y017969D01*
X019578Y018036D01*
X019558Y018100D01*
X019527Y018160D01*
X019487Y018215D01*
X019439Y018263D01*
X019384Y018303D01*
X019324Y018334D01*
X019260Y018354D01*
X019193Y018365D01*
X019189Y018365D01*
X019189Y017685D01*
X019129Y017685D01*
X019129Y018365D01*
X019125Y018365D01*
X019058Y018354D01*
X018994Y018334D01*
X018934Y018303D01*
X018817Y018196D02*
X018625Y018196D01*
X018666Y018097D02*
X018760Y018097D01*
X018734Y017999D02*
X018689Y017999D01*
X018689Y017900D02*
X018729Y017900D01*
X018729Y017802D02*
X018689Y017802D01*
X018689Y017703D02*
X018729Y017703D01*
X018729Y017625D02*
X018729Y017341D01*
X018740Y017274D01*
X018761Y017210D01*
X018791Y017150D01*
X018831Y017095D01*
X018879Y017047D01*
X018934Y017007D01*
X018994Y016977D01*
X019058Y016956D01*
X019125Y016945D01*
X019129Y016945D01*
X019129Y017625D01*
X018729Y017625D01*
X018729Y017605D02*
X018689Y017605D01*
X018689Y017506D02*
X018729Y017506D01*
X018729Y017407D02*
X018689Y017407D01*
X018689Y017309D02*
X018734Y017309D01*
X018760Y017210D02*
X018664Y017210D01*
X018624Y017112D02*
X018819Y017112D01*
X018925Y017013D02*
X018547Y017013D01*
X019129Y017013D02*
X019189Y017013D01*
X019189Y017112D02*
X019129Y017112D01*
X019129Y017210D02*
X019189Y017210D01*
X019189Y017309D02*
X019129Y017309D01*
X019129Y017407D02*
X019189Y017407D01*
X019189Y017506D02*
X019129Y017506D01*
X019129Y017605D02*
X019189Y017605D01*
X019189Y017703D02*
X019129Y017703D01*
X019129Y017802D02*
X019189Y017802D01*
X019189Y017900D02*
X019129Y017900D01*
X019129Y017999D02*
X019189Y017999D01*
X019189Y018097D02*
X019129Y018097D01*
X019129Y018196D02*
X019189Y018196D01*
X019189Y018294D02*
X019129Y018294D01*
X019396Y018294D02*
X019922Y018294D01*
X019934Y018303D02*
X019879Y018263D01*
X019831Y018215D01*
X019791Y018160D01*
X019761Y018100D01*
X019740Y018036D01*
X019729Y017969D01*
X019729Y017685D01*
X020129Y017685D01*
X020129Y017625D01*
X020189Y017625D01*
X020189Y017685D01*
X020129Y017685D01*
X020129Y018365D01*
X020125Y018365D01*
X020058Y018354D01*
X019994Y018334D01*
X019934Y018303D01*
X019817Y018196D02*
X019501Y018196D01*
X019558Y018097D02*
X019760Y018097D01*
X019734Y017999D02*
X019584Y017999D01*
X019589Y017900D02*
X019729Y017900D01*
X019729Y017802D02*
X019589Y017802D01*
X019589Y017703D02*
X019729Y017703D01*
X019729Y017625D02*
X019729Y017341D01*
X019740Y017274D01*
X019761Y017210D01*
X019791Y017150D01*
X019831Y017095D01*
X019879Y017047D01*
X019934Y017007D01*
X019994Y016977D01*
X020058Y016956D01*
X020125Y016945D01*
X020129Y016945D01*
X020129Y017625D01*
X019729Y017625D01*
X019729Y017605D02*
X019589Y017605D01*
X019589Y017506D02*
X019729Y017506D01*
X019729Y017407D02*
X019589Y017407D01*
X019584Y017309D02*
X019734Y017309D01*
X019760Y017210D02*
X019558Y017210D01*
X019499Y017112D02*
X019819Y017112D01*
X019925Y017013D02*
X019393Y017013D01*
X020129Y017013D02*
X020189Y017013D01*
X020189Y017112D02*
X020129Y017112D01*
X020129Y017210D02*
X020189Y017210D01*
X020189Y017309D02*
X020129Y017309D01*
X020129Y017407D02*
X020189Y017407D01*
X020189Y017506D02*
X020129Y017506D01*
X020129Y017605D02*
X020189Y017605D01*
X020189Y017703D02*
X020129Y017703D01*
X020129Y017802D02*
X020189Y017802D01*
X020189Y017900D02*
X020129Y017900D01*
X020129Y017999D02*
X020189Y017999D01*
X020189Y018097D02*
X020129Y018097D01*
X020129Y018196D02*
X020189Y018196D01*
X020189Y018294D02*
X020129Y018294D01*
X020780Y018491D02*
X017514Y018491D01*
X017439Y018393D02*
X017879Y018393D01*
X017769Y018294D02*
X017549Y018294D01*
X017625Y018196D02*
X017693Y018196D01*
X021593Y021251D02*
X021725Y021251D01*
X021675Y021152D02*
X021643Y021152D01*
X021494Y021349D02*
X021824Y021349D01*
X022012Y021448D02*
X021306Y021448D01*
X022306Y021448D02*
X023012Y021448D01*
X022824Y021349D02*
X022494Y021349D01*
X022593Y021251D02*
X022725Y021251D01*
X022675Y021152D02*
X022643Y021152D01*
X023306Y021448D02*
X023467Y021448D01*
X023494Y021349D02*
X023565Y021349D01*
X023593Y021251D02*
X023629Y021251D01*
X025925Y022827D02*
X031029Y022827D01*
X031029Y022926D02*
X026036Y022926D01*
X029343Y023024D02*
X031029Y023024D01*
X031029Y023123D02*
X029519Y023123D01*
X029617Y023222D02*
X031029Y023222D01*
X031029Y023320D02*
X029686Y023320D01*
X029727Y023419D02*
X031029Y023419D01*
X031029Y023517D02*
X029768Y023517D01*
X029769Y023616D02*
X031029Y023616D01*
X031029Y023714D02*
X029769Y023714D01*
X029760Y023813D02*
X031029Y023813D01*
X031029Y023911D02*
X029719Y023911D01*
X029678Y024010D02*
X031029Y024010D01*
X031029Y024108D02*
X029597Y024108D01*
X029499Y024207D02*
X031029Y024207D01*
X022195Y023850D02*
X022195Y023850D01*
X012517Y015042D02*
X011801Y015042D01*
X011893Y014944D02*
X012425Y014944D01*
X012384Y014845D02*
X011934Y014845D01*
X011969Y014747D02*
X012349Y014747D01*
X012390Y014451D02*
X011928Y014451D01*
X011886Y014353D02*
X012432Y014353D01*
X012531Y014254D02*
X011788Y014254D01*
X011618Y014156D02*
X012700Y014156D01*
X012531Y014057D02*
X011787Y014057D01*
X011885Y013958D02*
X012433Y013958D01*
X012390Y013860D02*
X011928Y013860D01*
X011969Y013761D02*
X012349Y013761D01*
X012349Y013663D02*
X011969Y013663D01*
X011969Y013564D02*
X012349Y013564D01*
X012384Y013466D02*
X011934Y013466D01*
X011893Y013367D02*
X012425Y013367D01*
X012516Y013269D02*
X011864Y013269D01*
X011962Y013170D02*
X012665Y013170D01*
X012546Y013072D02*
X012061Y013072D01*
X012159Y012973D02*
X012447Y012973D01*
X012396Y012874D02*
X012258Y012874D01*
X010560Y016225D02*
X009629Y016225D01*
X009629Y016324D02*
X010461Y016324D01*
X010402Y016422D02*
X009629Y016422D01*
X009611Y016521D02*
X010361Y016521D01*
X010349Y016619D02*
X009553Y016619D01*
X009455Y016718D02*
X010349Y016718D01*
X010372Y016816D02*
X009356Y016816D01*
X009258Y016915D02*
X010413Y016915D01*
X010488Y017013D02*
X009159Y017013D01*
X009061Y017112D02*
X010597Y017112D01*
X010574Y017210D02*
X008962Y017210D01*
X008864Y017309D02*
X010476Y017309D01*
X010408Y017407D02*
X008910Y017407D01*
X008951Y017506D02*
X010367Y017506D01*
X010349Y017605D02*
X008969Y017605D01*
X008969Y017703D02*
X010349Y017703D01*
X010366Y017802D02*
X008952Y017802D01*
X008911Y017900D02*
X010407Y017900D01*
X010473Y017999D02*
X008845Y017999D01*
X008746Y018097D02*
X010572Y018097D01*
X007545Y015240D02*
X006868Y015240D01*
X006899Y015437D02*
X003529Y015437D01*
X003529Y015535D02*
X006801Y015535D01*
X006702Y015634D02*
X003492Y015634D01*
X003609Y015732D02*
X003709Y015732D01*
X003709Y015831D02*
X003609Y015831D01*
X003609Y015929D02*
X003709Y015929D01*
X003709Y016028D02*
X003609Y016028D01*
X003609Y016105D02*
X003140Y016105D01*
X003152Y016033D01*
X003177Y015955D01*
X003212Y015887D01*
X003169Y015905D01*
X002990Y015905D01*
X002824Y015837D01*
X002769Y015781D01*
X002769Y017045D01*
X003340Y017616D01*
X003384Y017598D01*
X003320Y017552D01*
X003262Y017494D01*
X003214Y017428D01*
X003177Y017355D01*
X003152Y017277D01*
X003140Y017205D01*
X003609Y017205D01*
X003609Y017105D01*
X003709Y017105D01*
X003709Y016674D01*
X003709Y016205D01*
X003609Y016205D01*
X003609Y016105D01*
X003609Y016126D02*
X002769Y016126D01*
X002769Y016028D02*
X003154Y016028D01*
X003190Y015929D02*
X002769Y015929D01*
X002769Y015831D02*
X002818Y015831D01*
X002769Y016225D02*
X003144Y016225D01*
X003140Y016205D02*
X003609Y016205D01*
X003609Y016674D01*
X003609Y017105D01*
X003140Y017105D01*
X003152Y017033D01*
X003177Y016955D01*
X003214Y016883D01*
X003262Y016816D01*
X003320Y016758D01*
X003386Y016710D01*
X003459Y016673D01*
X003515Y016655D01*
X003459Y016637D01*
X003386Y016600D01*
X003320Y016552D01*
X003262Y016494D01*
X003214Y016428D01*
X003177Y016355D01*
X003152Y016277D01*
X003140Y016205D01*
X003167Y016324D02*
X002769Y016324D01*
X002769Y016422D02*
X003211Y016422D01*
X003289Y016521D02*
X002769Y016521D01*
X002769Y016619D02*
X003424Y016619D01*
X003376Y016718D02*
X002769Y016718D01*
X002769Y016816D02*
X003263Y016816D01*
X003198Y016915D02*
X002769Y016915D01*
X002769Y017013D02*
X003158Y017013D01*
X003141Y017210D02*
X002934Y017210D01*
X002836Y017112D02*
X003609Y017112D01*
X003609Y017013D02*
X003709Y017013D01*
X003709Y017105D02*
X003709Y017205D01*
X004178Y017205D01*
X004166Y017277D01*
X004141Y017355D01*
X004104Y017428D01*
X004056Y017494D01*
X003998Y017552D01*
X003934Y017598D01*
X004010Y017629D01*
X004185Y017804D01*
X004279Y018032D01*
X004279Y018137D01*
X004983Y017432D01*
X005039Y017409D01*
X005029Y017385D01*
X005029Y017206D01*
X005098Y017040D01*
X005224Y016914D01*
X005390Y016845D01*
X005491Y016845D01*
X005618Y016718D02*
X003942Y016718D01*
X003894Y016619D02*
X005717Y016619D01*
X005815Y016521D02*
X004029Y016521D01*
X004107Y016422D02*
X005914Y016422D01*
X006012Y016324D02*
X004151Y016324D01*
X004174Y016225D02*
X006111Y016225D01*
X006209Y016126D02*
X003709Y016126D01*
X003709Y016225D02*
X003609Y016225D01*
X003609Y016324D02*
X003709Y016324D01*
X003709Y016422D02*
X003609Y016422D01*
X003609Y016521D02*
X003709Y016521D01*
X003709Y016619D02*
X003609Y016619D01*
X003609Y016718D02*
X003709Y016718D01*
X003709Y016816D02*
X003609Y016816D01*
X003609Y016915D02*
X003709Y016915D01*
X003709Y017105D02*
X004178Y017105D01*
X004166Y017033D01*
X004141Y016955D01*
X004104Y016883D01*
X004056Y016816D01*
X004120Y016915D02*
X005223Y016915D01*
X005124Y017013D02*
X004160Y017013D01*
X004177Y017210D02*
X005029Y017210D01*
X005029Y017309D02*
X004156Y017309D01*
X004114Y017407D02*
X005039Y017407D01*
X004910Y017506D02*
X004044Y017506D01*
X003950Y017605D02*
X004811Y017605D01*
X004713Y017703D02*
X004084Y017703D01*
X004182Y017802D02*
X004614Y017802D01*
X004516Y017900D02*
X004224Y017900D01*
X004265Y017999D02*
X004417Y017999D01*
X004318Y018097D02*
X004279Y018097D01*
X003368Y017605D02*
X003328Y017605D01*
X003275Y017506D02*
X003230Y017506D01*
X003204Y017407D02*
X003131Y017407D01*
X003162Y017309D02*
X003033Y017309D01*
X003709Y017112D02*
X005068Y017112D01*
X004164Y016028D02*
X006308Y016028D01*
X006406Y015929D02*
X004128Y015929D01*
X004066Y015831D02*
X006505Y015831D01*
X006604Y015732D02*
X003962Y015732D01*
X003972Y015240D02*
X005450Y015240D01*
X005268Y015141D02*
X003989Y015141D01*
X003989Y015042D02*
X005170Y015042D01*
X005108Y014944D02*
X003989Y014944D01*
X003659Y014944D02*
X003559Y014944D01*
X003559Y015042D02*
X003659Y015042D01*
X003659Y015141D02*
X003559Y015141D01*
X003559Y015240D02*
X003659Y015240D01*
X003518Y015338D02*
X007447Y015338D01*
X007667Y015141D02*
X007050Y015141D01*
X007149Y015042D02*
X007517Y015042D01*
X007425Y014944D02*
X007211Y014944D01*
X007251Y014845D02*
X007384Y014845D01*
X007349Y014747D02*
X007279Y014747D01*
X007279Y014648D02*
X007349Y014648D01*
X007390Y014451D02*
X007246Y014451D01*
X007205Y014353D02*
X007432Y014353D01*
X007531Y014254D02*
X007135Y014254D01*
X007036Y014156D02*
X007700Y014156D01*
X007531Y014057D02*
X006835Y014057D01*
X006483Y014057D02*
X005835Y014057D01*
X006036Y014156D02*
X006282Y014156D01*
X006183Y014254D02*
X006135Y014254D01*
X005541Y013958D02*
X007433Y013958D01*
X007390Y013860D02*
X005442Y013860D01*
X005344Y013761D02*
X007349Y013761D01*
X007349Y013663D02*
X005245Y013663D01*
X005147Y013564D02*
X007349Y013564D01*
X007384Y013466D02*
X005048Y013466D01*
X004949Y013367D02*
X007425Y013367D01*
X007516Y013269D02*
X004851Y013269D01*
X003659Y013761D02*
X003559Y013761D01*
X003559Y013860D02*
X003659Y013860D01*
X003659Y013958D02*
X003559Y013958D01*
X003559Y014057D02*
X003659Y014057D01*
X003659Y014156D02*
X003559Y014156D01*
X005868Y015240D02*
X006450Y015240D01*
X006268Y015141D02*
X006050Y015141D01*
X006149Y015042D02*
X006170Y015042D01*
X006883Y012185D02*
X007630Y012185D01*
X015079Y006075D02*
X015937Y006075D01*
X015827Y006174D02*
X015177Y006174D01*
X015276Y006272D02*
X015729Y006272D01*
X015608Y006371D02*
X015374Y006371D01*
X015473Y006469D02*
X015485Y006469D01*
X015809Y005976D02*
X015009Y005976D01*
X015009Y005878D02*
X015739Y005878D01*
X015700Y005779D02*
X015009Y005779D01*
X015009Y005681D02*
X015684Y005681D01*
X015690Y005582D02*
X015009Y005582D01*
X015009Y005484D02*
X015715Y005484D01*
X015768Y005385D02*
X015009Y005385D01*
X015009Y005287D02*
X015858Y005287D01*
X016140Y005287D02*
X016178Y005287D01*
X016178Y005385D02*
X016140Y005385D01*
X016140Y005484D02*
X016178Y005484D01*
X016178Y005582D02*
X016140Y005582D01*
X018909Y005976D02*
X018922Y005976D01*
X018909Y006075D02*
X019021Y006075D01*
X019119Y006174D02*
X018909Y006174D01*
X018909Y006272D02*
X019218Y006272D01*
X019316Y006371D02*
X018909Y006371D01*
X018909Y006469D02*
X019415Y006469D01*
X019513Y006568D02*
X018909Y006568D01*
X018909Y006666D02*
X019612Y006666D01*
X019720Y006765D02*
X018909Y006765D01*
X018909Y006863D02*
X019010Y006863D01*
X019503Y005681D02*
X021925Y005681D01*
X021841Y005582D02*
X019405Y005582D01*
X019306Y005484D02*
X021800Y005484D01*
X017964Y008539D02*
X017081Y008539D01*
X016993Y008440D02*
X016982Y008440D01*
X016730Y012185D02*
X016688Y012185D01*
X016817Y012283D02*
X016829Y012283D01*
X016899Y012382D02*
X016927Y012382D01*
X016940Y012480D02*
X017026Y012480D01*
X016969Y012579D02*
X017124Y012579D01*
X017223Y012677D02*
X016969Y012677D01*
X016963Y012776D02*
X017322Y012776D01*
X017420Y012874D02*
X016922Y012874D01*
X016871Y012973D02*
X017519Y012973D01*
X017617Y013072D02*
X016772Y013072D01*
X016653Y013170D02*
X017716Y013170D01*
X017814Y013269D02*
X016802Y013269D01*
X016893Y013367D02*
X017913Y013367D01*
X018011Y013466D02*
X016934Y013466D01*
X016969Y013564D02*
X018110Y013564D01*
X018208Y013663D02*
X016969Y013663D01*
X016969Y013761D02*
X018307Y013761D01*
X018396Y013860D02*
X016928Y013860D01*
X016885Y013958D02*
X018297Y013958D01*
X018199Y014057D02*
X016787Y014057D01*
X016618Y014156D02*
X018100Y014156D01*
X018002Y014254D02*
X016788Y014254D01*
X016886Y014353D02*
X017903Y014353D01*
X017805Y014451D02*
X016928Y014451D01*
X029224Y002335D02*
X029474Y002232D01*
X029573Y002133D02*
X031029Y002133D01*
X031029Y002035D02*
X029668Y002035D01*
X029709Y001936D02*
X031029Y001936D01*
X031029Y001838D02*
X029749Y001838D01*
X029769Y001739D02*
X031029Y001739D01*
X031029Y001641D02*
X029769Y001641D01*
X029769Y001542D02*
X031029Y001542D01*
X031029Y001443D02*
X029737Y001443D01*
X029697Y001345D02*
X031029Y001345D01*
X031029Y001246D02*
X029642Y001246D01*
X029543Y001148D02*
X031029Y001148D01*
X031029Y001049D02*
X029403Y001049D01*
D20*
X025399Y005855D02*
X024279Y004735D01*
X024159Y004655D01*
X024119Y004655D01*
X024119Y003935D01*
X023559Y003375D01*
X022839Y003375D01*
X022759Y003455D01*
X021879Y003455D01*
X020599Y002175D01*
X020199Y002175D01*
X020159Y002155D01*
X022159Y004655D02*
X022199Y004655D01*
X022199Y005375D01*
X023239Y006415D01*
X026759Y006415D01*
X027959Y007615D01*
X028599Y007615D01*
X028659Y007655D01*
X027159Y006015D02*
X023959Y002815D01*
X026039Y006975D02*
X024439Y008575D01*
X024359Y008575D01*
X024039Y008895D01*
X019879Y008895D01*
X019159Y008175D01*
X019159Y007655D01*
X017159Y007615D02*
X017159Y007655D01*
X017159Y007615D02*
X016199Y006655D01*
X016159Y006655D01*
X016039Y006735D01*
X015799Y006735D01*
X015479Y007055D01*
X014599Y006175D01*
X014599Y002655D01*
X015659Y002655D01*
X014599Y002655D02*
X013319Y002655D01*
X012919Y002255D01*
X012659Y002255D01*
X015479Y007055D02*
X014759Y007775D01*
X014659Y007655D01*
X014599Y007695D01*
X014599Y008015D01*
X014119Y008495D01*
X014439Y008815D01*
X014439Y014015D01*
X013799Y014655D01*
X014439Y015295D01*
X014439Y016975D01*
X013479Y017935D01*
X015079Y019535D01*
X015159Y019655D01*
X015159Y019615D01*
X015399Y019615D01*
X016119Y020335D01*
X016119Y020655D01*
X016159Y020655D01*
X016199Y020735D01*
X016199Y021375D01*
X016599Y021775D01*
X016599Y023055D01*
X016659Y023055D01*
X018199Y021215D02*
X018919Y021935D01*
X023559Y021935D01*
X024039Y021455D01*
X024039Y020735D01*
X024759Y020015D01*
X026999Y020015D01*
X028599Y021615D01*
X028659Y021655D01*
X026919Y019375D02*
X028599Y017695D01*
X028659Y017655D01*
X026839Y016495D02*
X025399Y017935D01*
X025409Y018068D01*
X025399Y018015D01*
X025079Y017695D01*
X023159Y017695D01*
X023159Y017655D01*
X022199Y019375D02*
X021159Y018335D01*
X021159Y017655D01*
X022199Y019375D02*
X026919Y019375D01*
X026839Y016495D02*
X026839Y015455D01*
X029159Y013135D01*
X029159Y012655D01*
X020439Y011615D02*
X019719Y010895D01*
X014119Y008495D02*
X013959Y008655D01*
X013159Y008655D01*
X011159Y009655D02*
X011159Y010655D01*
X010679Y010655D01*
X009719Y011615D01*
X008279Y011615D01*
X008159Y011655D01*
X008119Y011695D01*
X006679Y011695D01*
X006659Y011655D01*
X003659Y011155D02*
X003639Y011135D01*
X002759Y011135D01*
X002659Y011155D01*
X002599Y011215D01*
X002359Y011215D01*
X001799Y010655D01*
X001559Y010895D01*
X001559Y012895D01*
X002279Y013615D01*
X002409Y013705D01*
X002359Y013775D01*
X002359Y014815D01*
X002409Y014855D01*
X002359Y014975D01*
X002359Y017215D01*
X003399Y018255D01*
X003559Y018255D01*
X003659Y018155D01*
X010159Y020155D02*
X010199Y020095D01*
X011399Y020095D01*
X012599Y018895D01*
X012659Y019155D01*
X012679Y019135D01*
X012679Y018735D01*
X013479Y017935D01*
X013799Y014655D02*
X013159Y014655D01*
X018159Y020655D02*
X018199Y020655D01*
X018199Y021215D01*
X002599Y008895D02*
X001719Y009775D01*
X001719Y010575D01*
X001799Y010655D01*
X002599Y008895D02*
X002599Y008175D01*
X002659Y008155D01*
X002759Y008095D01*
X002759Y007935D01*
X001719Y006895D01*
X001719Y006015D01*
X002519Y005215D01*
X002659Y005155D01*
X002679Y005135D01*
X003639Y005135D01*
X003659Y005155D01*
D21*
X009639Y007695D03*
X010039Y004815D03*
X012999Y004255D03*
X014039Y006175D03*
X015879Y003775D03*
X020519Y009615D03*
X019719Y010895D03*
X020439Y011615D03*
X026039Y006975D03*
X025399Y005855D03*
X027159Y006015D03*
X023959Y002815D03*
X012199Y011695D03*
X010279Y012655D03*
X009639Y012655D03*
X008999Y012175D03*
X010279Y013695D03*
X009239Y015055D03*
X005479Y017295D03*
X003079Y015455D03*
D22*
X003079Y014895D01*
X003009Y014855D01*
X003009Y013705D02*
X003079Y013695D01*
X003079Y013295D01*
X003479Y012895D01*
X004039Y012895D01*
X005639Y014495D01*
X005639Y014655D01*
X005659Y014655D01*
X007079Y015695D02*
X005479Y017295D01*
X005159Y017695D02*
X003719Y019135D01*
X003659Y019155D01*
X005639Y018655D02*
X005639Y018335D01*
X006759Y017215D01*
X008519Y017215D01*
X009319Y016415D01*
X009319Y015535D01*
X011159Y013695D01*
X011159Y013655D01*
X010759Y013135D02*
X011559Y013135D01*
X012199Y012495D01*
X012199Y011695D01*
X012839Y011215D02*
X013639Y011215D01*
X013879Y011455D01*
X013879Y011855D01*
X013159Y012575D01*
X013159Y012655D01*
X012839Y011215D02*
X012039Y010415D01*
X012039Y008575D01*
X011159Y007695D01*
X011159Y007655D01*
X012279Y007935D02*
X014039Y006175D01*
X012679Y006255D02*
X012659Y006255D01*
X012679Y006255D02*
X012679Y004655D01*
X011799Y003775D01*
X010519Y003775D01*
X008679Y005615D01*
X008199Y005615D01*
X008159Y005655D01*
X008119Y006495D02*
X007079Y005455D01*
X007079Y004255D01*
X010199Y001135D01*
X015079Y001135D01*
X015399Y000815D01*
X015959Y000815D01*
X018599Y003455D01*
X018599Y005215D01*
X019879Y006495D01*
X022679Y006495D01*
X023079Y006895D01*
X023319Y006895D01*
X024119Y007695D01*
X024159Y007655D01*
X022199Y009615D02*
X020519Y009615D01*
X020359Y010015D02*
X018599Y008255D01*
X018599Y005695D01*
X018119Y005215D01*
X018119Y004655D01*
X018159Y004655D01*
X017159Y004655D02*
X016759Y004655D01*
X015879Y003775D01*
X011159Y006655D02*
X010679Y006655D01*
X009639Y007695D01*
X008679Y007615D02*
X010039Y006255D01*
X010039Y004815D01*
X008119Y006495D02*
X008119Y006655D01*
X008159Y006655D01*
X008199Y007615D02*
X008159Y007655D01*
X008199Y007615D02*
X008679Y007615D01*
X006759Y007775D02*
X006759Y009135D01*
X006659Y009155D01*
X006679Y009135D01*
X006759Y009135D01*
X006999Y009135D01*
X007479Y009615D01*
X008119Y009615D01*
X008159Y009655D01*
X006759Y007775D02*
X006199Y007215D01*
X006159Y007155D01*
X006159Y005155D02*
X006199Y005135D01*
X006199Y004815D01*
X006599Y004415D01*
X006599Y003215D01*
X006659Y003155D01*
X012279Y007935D02*
X012279Y008895D01*
X012999Y009615D01*
X013159Y009615D01*
X013159Y009655D01*
X014999Y009295D02*
X015639Y008655D01*
X016159Y008655D01*
X016759Y008655D01*
X021079Y012975D01*
X021239Y012975D01*
X021305Y013009D01*
X020519Y013535D02*
X020519Y013695D01*
X020598Y013716D01*
X020519Y013535D02*
X016679Y009695D01*
X016199Y009695D01*
X016159Y009655D01*
X014999Y009295D02*
X014999Y018015D01*
X017159Y020175D01*
X017159Y020655D01*
X017399Y018815D02*
X016599Y018015D01*
X016599Y016575D01*
X017479Y015695D01*
X017479Y015215D01*
X018759Y013935D01*
X018759Y013775D01*
X016679Y011695D01*
X016199Y011695D01*
X016159Y011655D01*
X016159Y010655D02*
X016679Y010655D01*
X019559Y013535D01*
X019559Y014095D01*
X019879Y014415D01*
X019891Y014423D01*
X019959Y014495D01*
X019959Y014655D01*
X022119Y016815D01*
X022119Y017615D01*
X022159Y017655D01*
X020839Y018815D02*
X017399Y018815D01*
X020839Y018815D02*
X022119Y020095D01*
X022119Y020655D01*
X022159Y020655D01*
X019184Y015130D02*
X019159Y015135D01*
X018759Y014735D01*
X018759Y013935D01*
X021959Y012255D02*
X021959Y012095D01*
X018199Y008335D01*
X018199Y007695D01*
X018159Y007655D01*
X020359Y010015D02*
X021159Y010015D01*
X022679Y011535D01*
X022720Y011594D01*
X023427Y010887D02*
X023399Y010815D01*
X022199Y009615D01*
X021959Y012255D02*
X022013Y012302D01*
X010759Y013135D02*
X010279Y012655D01*
X009639Y012655D02*
X009639Y013055D01*
X010279Y013695D01*
X009319Y014335D02*
X009319Y014975D01*
X009239Y015055D01*
X009319Y014335D02*
X008679Y013695D01*
X008199Y013695D01*
X008159Y013655D01*
X008159Y015655D02*
X008119Y015695D01*
X007079Y015695D01*
X006999Y016655D02*
X008159Y016655D01*
X008159Y017655D02*
X008119Y017695D01*
X008119Y018495D01*
X007159Y019455D01*
X009399Y021695D01*
X009439Y021765D01*
X006879Y021765D02*
X006839Y021695D01*
X006839Y020895D01*
X006119Y020175D01*
X006159Y020155D01*
X006199Y020095D01*
X006519Y020095D01*
X007159Y019455D01*
X005659Y018655D02*
X005639Y018655D01*
X005959Y017695D02*
X005159Y017695D01*
X005959Y017695D02*
X006999Y016655D01*
X003659Y021155D02*
X003719Y021215D01*
X003719Y022735D01*
X004599Y023615D01*
X004659Y023655D01*
X004679Y022655D02*
X004659Y022655D01*
X004679Y022655D02*
X005559Y021775D01*
X006839Y021775D01*
X006879Y021765D01*
M02*
