G75*
G70*
%OFA0B0*%
%FSLAX24Y24*%
%IPPOS*%
%LPD*%
%AMOC8*
5,1,8,0,0,1.08239X$1,22.5*
%
%ADD10C,0.0560*%
%ADD11C,0.0650*%
%ADD12R,0.0650X0.0650*%
%ADD13C,0.0640*%
%ADD14C,0.0860*%
%ADD15C,0.0740*%
%ADD16C,0.0100*%
%ADD17C,0.0320*%
%ADD18C,0.0400*%
%ADD19C,0.0120*%
D10*
X005375Y005655D02*
X005935Y005655D01*
X005935Y006655D02*
X005375Y006655D01*
X005375Y007655D02*
X005935Y007655D01*
X005935Y008655D02*
X005375Y008655D01*
X005375Y009655D02*
X005935Y009655D01*
X005935Y010655D02*
X005375Y010655D01*
X005375Y011655D02*
X005935Y011655D01*
X005935Y012655D02*
X005375Y012655D01*
X005375Y013655D02*
X005935Y013655D01*
X005935Y014655D02*
X005375Y014655D01*
X005375Y015655D02*
X005935Y015655D01*
X005935Y016655D02*
X005375Y016655D01*
X005375Y017655D02*
X005935Y017655D01*
X005935Y018655D02*
X005375Y018655D01*
X008375Y018655D02*
X008935Y018655D01*
X008935Y017655D02*
X008375Y017655D01*
X008375Y016655D02*
X008935Y016655D01*
X008935Y015655D02*
X008375Y015655D01*
X008375Y014655D02*
X008935Y014655D01*
X008935Y013655D02*
X008375Y013655D01*
X008375Y012655D02*
X008935Y012655D01*
X008935Y011655D02*
X008375Y011655D01*
X008375Y010655D02*
X008935Y010655D01*
X008935Y009655D02*
X008375Y009655D01*
X008375Y008655D02*
X008935Y008655D01*
X008935Y007655D02*
X008375Y007655D01*
X008375Y006655D02*
X008935Y006655D01*
X008935Y005655D02*
X008375Y005655D01*
X011375Y009655D02*
X011935Y009655D01*
X011935Y010655D02*
X011375Y010655D01*
X011375Y011655D02*
X011935Y011655D01*
X011935Y012655D02*
X011375Y012655D01*
X011375Y013655D02*
X011935Y013655D01*
X011935Y014655D02*
X011375Y014655D01*
X011375Y015655D02*
X011935Y015655D01*
X011935Y016655D02*
X011375Y016655D01*
X014375Y016655D02*
X014935Y016655D01*
X014935Y015655D02*
X014375Y015655D01*
X014375Y014655D02*
X014935Y014655D01*
X014935Y013655D02*
X014375Y013655D01*
X014375Y012655D02*
X014935Y012655D01*
X014935Y011655D02*
X014375Y011655D01*
X014375Y010655D02*
X014935Y010655D01*
X014935Y009655D02*
X014375Y009655D01*
X016655Y008435D02*
X016655Y007875D01*
X017655Y007875D02*
X017655Y008435D01*
X018655Y008435D02*
X018655Y007875D01*
X019655Y007875D02*
X019655Y008435D01*
X020655Y008435D02*
X020655Y007875D01*
X021655Y007875D02*
X021655Y008435D01*
X022655Y008435D02*
X022655Y007875D01*
X023655Y007875D02*
X023655Y008435D01*
X022639Y009775D02*
X023035Y010171D01*
X022328Y010878D02*
X021932Y010482D01*
X021225Y011189D02*
X021621Y011585D01*
X020914Y012292D02*
X020518Y011896D01*
X019811Y012604D02*
X020207Y012999D01*
X019499Y013707D02*
X019104Y013311D01*
X018396Y014018D02*
X018792Y014414D01*
X018085Y015121D02*
X017689Y014725D01*
X016982Y015432D02*
X017378Y015828D01*
X016671Y016535D02*
X016275Y016139D01*
X017155Y017875D02*
X017155Y018435D01*
X018155Y018435D02*
X018155Y017875D01*
X019155Y017875D02*
X019155Y018435D01*
X020155Y018435D02*
X020155Y017875D01*
X021155Y017875D02*
X021155Y018435D01*
X022155Y018435D02*
X022155Y017875D01*
X023155Y017875D02*
X023155Y018435D01*
X024155Y018435D02*
X024155Y017875D01*
X024155Y020875D02*
X024155Y021435D01*
X023155Y021435D02*
X023155Y020875D01*
X022155Y020875D02*
X022155Y021435D01*
X021155Y021435D02*
X021155Y020875D01*
X020155Y020875D02*
X020155Y021435D01*
X019155Y021435D02*
X019155Y020875D01*
X018155Y020875D02*
X018155Y021435D01*
X017155Y021435D02*
X017155Y020875D01*
X016655Y005435D02*
X016655Y004875D01*
X017655Y004875D02*
X017655Y005435D01*
X018655Y005435D02*
X018655Y004875D01*
X019655Y004875D02*
X019655Y005435D01*
X020655Y005435D02*
X020655Y004875D01*
X021655Y004875D02*
X021655Y005435D01*
X022655Y005435D02*
X022655Y004875D01*
X023655Y004875D02*
X023655Y005435D01*
D11*
X026155Y004655D03*
X026155Y003655D03*
X026155Y002655D03*
X026155Y001655D03*
X026155Y006655D03*
X026155Y007655D03*
X026155Y008655D03*
X026155Y009655D03*
X024155Y012655D03*
X026155Y015655D03*
X026155Y016655D03*
X026155Y017655D03*
X026155Y018655D03*
X026155Y020655D03*
X026155Y021655D03*
X026155Y022655D03*
X026155Y023655D03*
X016155Y020155D03*
X016155Y019155D03*
X012655Y022155D03*
X004155Y022655D03*
X004155Y023655D03*
X004155Y013655D03*
X004155Y012655D03*
X003155Y011155D03*
X001655Y011155D03*
X001655Y012155D03*
X001655Y009155D03*
X001655Y008155D03*
X003155Y009155D03*
X007655Y002655D03*
X013655Y003655D03*
X015655Y006155D03*
X015655Y007155D03*
X013655Y008655D03*
X012655Y008655D03*
X018655Y002655D03*
D12*
X019655Y002655D03*
X013655Y004655D03*
X006655Y002655D03*
X025155Y012655D03*
X012655Y021155D03*
D13*
X010255Y022265D02*
X009615Y022265D01*
X007695Y022265D02*
X007055Y022265D01*
X007055Y024045D02*
X007695Y024045D01*
X009615Y024045D02*
X010255Y024045D01*
X003975Y006155D02*
X003335Y006155D01*
X002475Y006155D02*
X001835Y006155D01*
X001835Y005155D02*
X002475Y005155D01*
X003335Y005155D02*
X003975Y005155D01*
X003975Y004155D02*
X003335Y004155D01*
X002475Y004155D02*
X001835Y004155D01*
D14*
X027725Y003655D02*
X028585Y003655D01*
X028585Y001655D02*
X027725Y001655D01*
X027725Y005655D02*
X028585Y005655D01*
X028585Y007655D02*
X027725Y007655D01*
X027725Y009655D02*
X028585Y009655D01*
X028585Y015655D02*
X027725Y015655D01*
X027725Y017655D02*
X028585Y017655D01*
X028585Y019655D02*
X027725Y019655D01*
X027725Y021655D02*
X028585Y021655D01*
X028585Y023655D02*
X027725Y023655D01*
D15*
X020155Y023055D03*
X019155Y023155D03*
X018155Y023055D03*
X017155Y023155D03*
X016155Y023055D03*
X015155Y023155D03*
X010655Y020655D03*
X006655Y020655D03*
X003155Y020155D03*
X003155Y021155D03*
X003155Y019155D03*
X003155Y018155D03*
X003155Y017155D03*
X003155Y016155D03*
X011155Y006255D03*
X011155Y002255D03*
D16*
X000865Y000865D02*
X000865Y024441D01*
X006702Y024441D01*
X006606Y024345D01*
X006525Y024151D01*
X006525Y023940D01*
X006606Y023745D01*
X006755Y023596D01*
X006950Y023515D01*
X007801Y023515D01*
X007995Y023596D01*
X008144Y023745D01*
X008225Y023940D01*
X008225Y024151D01*
X008144Y024345D01*
X008049Y024441D01*
X009262Y024441D01*
X009166Y024345D01*
X009085Y024151D01*
X009085Y023940D01*
X009166Y023745D01*
X009315Y023596D01*
X009510Y023515D01*
X010361Y023515D01*
X010555Y023596D01*
X010704Y023745D01*
X010785Y023940D01*
X010785Y024151D01*
X010704Y024345D01*
X010609Y024441D01*
X030465Y024441D01*
X030465Y000865D01*
X000865Y000865D01*
X000865Y000951D02*
X030465Y000951D01*
X030465Y001049D02*
X028899Y001049D01*
X028970Y001079D02*
X028720Y000975D01*
X027590Y000975D01*
X027340Y001079D01*
X027149Y001270D01*
X027045Y001520D01*
X027045Y001790D01*
X027149Y002040D01*
X027340Y002232D01*
X027590Y002335D01*
X028720Y002335D01*
X028970Y002232D01*
X030465Y002232D01*
X030465Y002330D02*
X028732Y002330D01*
X028970Y002232D02*
X029162Y002040D01*
X029265Y001790D01*
X029265Y001520D01*
X029162Y001270D01*
X028970Y001079D01*
X029039Y001148D02*
X030465Y001148D01*
X030465Y001246D02*
X029138Y001246D01*
X029193Y001345D02*
X030465Y001345D01*
X030465Y001443D02*
X029233Y001443D01*
X029265Y001542D02*
X030465Y001542D01*
X030465Y001641D02*
X029265Y001641D01*
X029265Y001739D02*
X030465Y001739D01*
X030465Y001838D02*
X029246Y001838D01*
X029205Y001936D02*
X030465Y001936D01*
X030465Y002035D02*
X029164Y002035D01*
X029069Y002133D02*
X030465Y002133D01*
X030465Y002429D02*
X026640Y002429D01*
X026609Y002352D02*
X026690Y002549D01*
X026690Y002762D01*
X026609Y002958D01*
X026458Y003109D01*
X026398Y003133D01*
X026481Y003168D01*
X026643Y003329D01*
X026730Y003541D01*
X026730Y003769D01*
X026643Y003981D01*
X026481Y004143D01*
X026398Y004177D01*
X026458Y004202D01*
X026609Y004352D01*
X026690Y004549D01*
X026690Y004762D01*
X026609Y004958D01*
X026458Y005109D01*
X026262Y005190D01*
X026049Y005190D01*
X025852Y005109D01*
X025702Y004958D01*
X025620Y004762D01*
X025620Y004549D01*
X025702Y004352D01*
X025852Y004202D01*
X025912Y004177D01*
X025829Y004143D01*
X025668Y003981D01*
X025580Y003769D01*
X025580Y003541D01*
X025668Y003329D01*
X025829Y003168D01*
X025912Y003133D01*
X025852Y003109D01*
X025702Y002958D01*
X025620Y002762D01*
X025620Y002549D01*
X025702Y002352D01*
X025852Y002202D01*
X025912Y002177D01*
X025885Y002165D01*
X025545Y002505D01*
X025545Y005377D01*
X025483Y005527D01*
X025367Y005643D01*
X024517Y006493D01*
X024487Y006565D01*
X025054Y006565D01*
X025217Y006565D01*
X025367Y006628D01*
X025885Y007145D01*
X025912Y007133D01*
X025852Y007109D01*
X025702Y006958D01*
X025620Y006762D01*
X025620Y006549D01*
X025702Y006352D01*
X025852Y006202D01*
X026049Y006120D01*
X026262Y006120D01*
X026458Y006202D01*
X026609Y006352D01*
X026690Y006549D01*
X026690Y006762D01*
X026609Y006958D01*
X026458Y007109D01*
X026398Y007133D01*
X026481Y007168D01*
X026643Y007329D01*
X026730Y007541D01*
X026730Y007769D01*
X026643Y007981D01*
X026481Y008143D01*
X026398Y008177D01*
X026458Y008202D01*
X026609Y008352D01*
X026690Y008549D01*
X026690Y008762D01*
X026609Y008958D01*
X026458Y009109D01*
X026398Y009133D01*
X026481Y009168D01*
X026643Y009329D01*
X026730Y009541D01*
X026730Y009769D01*
X026643Y009981D01*
X026481Y010143D01*
X026269Y010230D01*
X026041Y010230D01*
X025829Y010143D01*
X025668Y009981D01*
X025580Y009769D01*
X025580Y009541D01*
X025668Y009329D01*
X025829Y009168D01*
X025912Y009133D01*
X025852Y009109D01*
X025702Y008958D01*
X025620Y008762D01*
X025620Y008549D01*
X025702Y008352D01*
X025852Y008202D01*
X025892Y008185D01*
X025854Y008185D01*
X025703Y008123D01*
X025588Y008007D01*
X024965Y007385D01*
X022814Y007385D01*
X022663Y007323D01*
X022548Y007207D01*
X022025Y006685D01*
X022025Y007496D01*
X022104Y007575D01*
X022177Y007750D01*
X022240Y007598D01*
X022378Y007460D01*
X022558Y007385D01*
X022753Y007385D01*
X022933Y007460D01*
X023070Y007598D01*
X023145Y007778D01*
X023145Y008533D01*
X023070Y008713D01*
X022933Y008850D01*
X022753Y008925D01*
X022558Y008925D01*
X022378Y008850D01*
X022240Y008713D01*
X022177Y008561D01*
X022104Y008735D01*
X021955Y008884D01*
X021761Y008965D01*
X021550Y008965D01*
X021355Y008884D01*
X021206Y008735D01*
X021133Y008561D01*
X021070Y008713D01*
X020933Y008850D01*
X020753Y008925D01*
X020558Y008925D01*
X020378Y008850D01*
X020240Y008713D01*
X020165Y008533D01*
X020165Y007778D01*
X020240Y007598D01*
X020378Y007460D01*
X020558Y007385D01*
X020753Y007385D01*
X020933Y007460D01*
X021070Y007598D01*
X021133Y007750D01*
X021205Y007577D01*
X021205Y006719D01*
X021200Y006717D01*
X021074Y006590D01*
X021005Y006425D01*
X021005Y006246D01*
X021074Y006080D01*
X021200Y005954D01*
X021307Y005909D01*
X021285Y005857D01*
X021285Y005815D01*
X021206Y005735D01*
X021133Y005561D01*
X021070Y005713D01*
X020933Y005850D01*
X020753Y005925D01*
X020558Y005925D01*
X020378Y005850D01*
X020240Y005713D01*
X020165Y005533D01*
X020165Y004778D01*
X020240Y004598D01*
X020378Y004460D01*
X020558Y004385D01*
X020753Y004385D01*
X020933Y004460D01*
X021070Y004598D01*
X021133Y004750D01*
X021206Y004575D01*
X021355Y004426D01*
X021502Y004365D01*
X019887Y004365D01*
X019833Y004419D01*
X019933Y004460D01*
X020070Y004598D01*
X020145Y004778D01*
X020145Y005533D01*
X020070Y005713D01*
X019933Y005850D01*
X019753Y005925D01*
X019558Y005925D01*
X019485Y005895D01*
X019485Y007415D01*
X019558Y007385D01*
X019753Y007385D01*
X019933Y007460D01*
X020070Y007598D01*
X020145Y007778D01*
X020145Y008533D01*
X020070Y008713D01*
X019933Y008850D01*
X019753Y008925D01*
X019558Y008925D01*
X019539Y008917D01*
X020128Y009506D01*
X021321Y010699D01*
X021322Y010699D01*
X021502Y010774D01*
X022036Y011308D01*
X022111Y011488D01*
X022111Y011683D01*
X022036Y011863D01*
X021898Y012001D01*
X021718Y012075D01*
X021523Y012075D01*
X021343Y012001D01*
X020810Y011467D01*
X020735Y011287D01*
X020735Y011092D01*
X020798Y010940D01*
X020069Y010210D01*
X019937Y010265D01*
X019774Y010265D01*
X019623Y010203D01*
X019508Y010087D01*
X019445Y009937D01*
X019445Y009774D01*
X019500Y009642D01*
X019062Y009204D01*
X018986Y009128D01*
X018945Y009029D01*
X018945Y008889D01*
X018761Y008965D01*
X018550Y008965D01*
X018365Y008889D01*
X018365Y009343D01*
X020428Y011406D01*
X020615Y011406D01*
X020795Y011481D01*
X021329Y012015D01*
X021404Y012195D01*
X021404Y012390D01*
X021329Y012570D01*
X021191Y012708D01*
X021011Y012782D01*
X020816Y012782D01*
X020636Y012708D01*
X020102Y012174D01*
X020028Y011994D01*
X020028Y011799D01*
X020036Y011778D01*
X017965Y009707D01*
X017965Y010143D01*
X018288Y010466D01*
X018364Y010542D01*
X018364Y010542D01*
X019955Y012133D01*
X020088Y012188D01*
X020622Y012722D01*
X020697Y012902D01*
X020697Y013097D01*
X020622Y013277D01*
X020484Y013415D01*
X020304Y013489D01*
X020109Y013489D01*
X019929Y013415D01*
X019395Y012881D01*
X019321Y012701D01*
X019321Y012506D01*
X019392Y012334D01*
X018229Y011170D01*
X018097Y011225D01*
X017934Y011225D01*
X017783Y011163D01*
X017668Y011047D01*
X017605Y010897D01*
X017605Y010734D01*
X017660Y010602D01*
X017466Y010408D01*
X017425Y010309D01*
X017425Y010201D01*
X017425Y008870D01*
X017378Y008850D01*
X017240Y008713D01*
X017165Y008533D01*
X017165Y007778D01*
X017240Y007598D01*
X017378Y007460D01*
X017449Y007430D01*
X017055Y007037D01*
X016625Y007467D01*
X016625Y008125D01*
X016225Y008125D01*
X016225Y007867D01*
X015928Y008164D01*
X015829Y008205D01*
X015721Y008205D01*
X015567Y008205D01*
X014607Y009165D01*
X015033Y009165D01*
X015213Y009240D01*
X015350Y009378D01*
X015401Y009499D01*
X018812Y012910D01*
X018826Y012895D01*
X019006Y012821D01*
X019201Y012821D01*
X019381Y012895D01*
X019915Y013429D01*
X019989Y013609D01*
X019989Y013804D01*
X019915Y013984D01*
X019777Y014122D01*
X019597Y014197D01*
X019402Y014197D01*
X019222Y014122D01*
X018688Y013588D01*
X018661Y013523D01*
X015210Y010072D01*
X015033Y010145D01*
X014278Y010145D01*
X014098Y010070D01*
X013960Y009933D01*
X013924Y009848D01*
X012964Y010808D01*
X012888Y010884D01*
X012789Y010925D01*
X012354Y010925D01*
X012350Y010933D01*
X012213Y011070D01*
X012033Y011145D01*
X011278Y011145D01*
X011098Y011070D01*
X010960Y010933D01*
X010885Y010753D01*
X010885Y010558D01*
X010960Y010378D01*
X011098Y010240D01*
X011278Y010165D01*
X012033Y010165D01*
X012213Y010240D01*
X012350Y010378D01*
X012354Y010385D01*
X012623Y010385D01*
X015226Y007782D01*
X015302Y007706D01*
X015401Y007665D01*
X015663Y007665D01*
X015699Y007629D01*
X015692Y007630D01*
X015674Y007630D01*
X015674Y007174D01*
X016130Y007174D01*
X016130Y007192D01*
X016129Y007199D01*
X016826Y006502D01*
X016902Y006426D01*
X017265Y006063D01*
X017265Y005738D01*
X017240Y005713D01*
X017165Y005533D01*
X017165Y004778D01*
X017240Y004598D01*
X017378Y004460D01*
X017558Y004385D01*
X017753Y004385D01*
X017933Y004460D01*
X018070Y004598D01*
X018133Y004750D01*
X018206Y004575D01*
X018355Y004426D01*
X018550Y004345D01*
X018761Y004345D01*
X018955Y004426D01*
X019009Y004479D01*
X019062Y004426D01*
X019622Y003866D01*
X019721Y003825D01*
X019829Y003825D01*
X020525Y003825D01*
X019930Y003230D01*
X019280Y003230D01*
X019189Y003192D01*
X019118Y003122D01*
X019080Y003030D01*
X019080Y002987D01*
X018958Y003109D01*
X018762Y003190D01*
X018549Y003190D01*
X018352Y003109D01*
X018202Y002958D01*
X018120Y002762D01*
X018120Y002549D01*
X018202Y002352D01*
X018352Y002202D01*
X018549Y002120D01*
X018762Y002120D01*
X018958Y002202D01*
X019080Y002324D01*
X019080Y002280D01*
X019118Y002189D01*
X019189Y002118D01*
X019280Y002080D01*
X020030Y002080D01*
X020122Y002118D01*
X020192Y002189D01*
X020230Y002280D01*
X020230Y002370D01*
X021065Y003205D01*
X022817Y003205D01*
X022967Y003268D01*
X023083Y003383D01*
X023963Y004263D01*
X024025Y004414D01*
X024025Y004496D01*
X024104Y004575D01*
X024185Y004770D01*
X024185Y005541D01*
X024104Y005735D01*
X023955Y005884D01*
X023761Y005965D01*
X023550Y005965D01*
X023355Y005884D01*
X023206Y005735D01*
X023133Y005561D01*
X023070Y005713D01*
X022933Y005850D01*
X022753Y005925D01*
X022558Y005925D01*
X022378Y005850D01*
X022240Y005713D01*
X022177Y005561D01*
X022143Y005643D01*
X023065Y006565D01*
X023703Y006565D01*
X023645Y006425D01*
X023645Y006246D01*
X023714Y006080D01*
X023840Y005954D01*
X023937Y005914D01*
X024725Y005125D01*
X024725Y002254D01*
X024788Y002103D01*
X024903Y001988D01*
X025588Y001303D01*
X025703Y001188D01*
X025854Y001125D01*
X025932Y001125D01*
X026041Y001080D01*
X026269Y001080D01*
X026481Y001168D01*
X026643Y001329D01*
X026730Y001541D01*
X026730Y001769D01*
X026643Y001981D01*
X026481Y002143D01*
X026398Y002177D01*
X026458Y002202D01*
X026609Y002352D01*
X026587Y002330D02*
X027578Y002330D01*
X027341Y002232D02*
X026488Y002232D01*
X026490Y002133D02*
X027242Y002133D01*
X027146Y002035D02*
X026589Y002035D01*
X026661Y001936D02*
X027106Y001936D01*
X027065Y001838D02*
X026702Y001838D01*
X026730Y001739D02*
X027045Y001739D01*
X027045Y001641D02*
X026730Y001641D01*
X026730Y001542D02*
X027045Y001542D01*
X027077Y001443D02*
X026690Y001443D01*
X026649Y001345D02*
X027118Y001345D01*
X027172Y001246D02*
X026560Y001246D01*
X026433Y001148D02*
X027271Y001148D01*
X027411Y001049D02*
X000865Y001049D01*
X000865Y001148D02*
X025799Y001148D01*
X025644Y001246D02*
X022524Y001246D01*
X022653Y001293D02*
X022328Y001175D01*
X022328Y001175D01*
X022205Y001175D01*
X022205Y001175D01*
X022172Y001175D01*
X022155Y001175D01*
X022105Y001175D01*
X022105Y001175D01*
X021982Y001175D01*
X021982Y001175D01*
X021658Y001293D01*
X021658Y001293D01*
X021393Y001515D01*
X021393Y001516D01*
X021220Y001815D01*
X021220Y001815D01*
X021160Y002155D01*
X021160Y002155D01*
X021220Y002495D01*
X021220Y002495D01*
X021393Y002795D01*
X021393Y002795D01*
X021658Y003017D01*
X021982Y003135D01*
X021982Y003135D01*
X022105Y003135D01*
X022105Y003135D01*
X022155Y003135D01*
X022205Y003135D01*
X022205Y003135D01*
X022328Y003135D01*
X022328Y003135D01*
X022653Y003017D01*
X022653Y003017D01*
X022917Y002795D01*
X022917Y002795D01*
X023090Y002495D01*
X023090Y002495D01*
X023150Y002155D01*
X023150Y002155D01*
X023090Y001815D01*
X023090Y001815D01*
X022917Y001516D01*
X022917Y001515D01*
X022917Y001515D01*
X022653Y001293D01*
X022653Y001293D01*
X022714Y001345D02*
X025546Y001345D01*
X025588Y001303D02*
X025588Y001303D01*
X025447Y001443D02*
X022831Y001443D01*
X022933Y001542D02*
X025348Y001542D01*
X025250Y001641D02*
X022990Y001641D01*
X023046Y001739D02*
X025151Y001739D01*
X025053Y001838D02*
X023094Y001838D01*
X023112Y001936D02*
X024954Y001936D01*
X024903Y001988D02*
X024903Y001988D01*
X024856Y002035D02*
X023129Y002035D01*
X023146Y002133D02*
X024775Y002133D01*
X024734Y002232D02*
X023137Y002232D01*
X023119Y002330D02*
X024725Y002330D01*
X024725Y002429D02*
X023102Y002429D01*
X023072Y002527D02*
X024725Y002527D01*
X024725Y002626D02*
X023015Y002626D01*
X022958Y002725D02*
X024725Y002725D01*
X024725Y002823D02*
X022884Y002823D01*
X022766Y002922D02*
X024725Y002922D01*
X024725Y003020D02*
X022644Y003020D01*
X022846Y003217D02*
X024725Y003217D01*
X024725Y003119D02*
X022373Y003119D01*
X021938Y003119D02*
X020979Y003119D01*
X020880Y003020D02*
X021667Y003020D01*
X021544Y002922D02*
X020781Y002922D01*
X020683Y002823D02*
X021427Y002823D01*
X021352Y002725D02*
X020584Y002725D01*
X020486Y002626D02*
X021295Y002626D01*
X021239Y002527D02*
X020387Y002527D01*
X020289Y002429D02*
X021208Y002429D01*
X021191Y002330D02*
X020230Y002330D01*
X020210Y002232D02*
X021174Y002232D01*
X021164Y002133D02*
X020137Y002133D01*
X019173Y002133D02*
X018793Y002133D01*
X018988Y002232D02*
X019100Y002232D01*
X018517Y002133D02*
X011662Y002133D01*
X011675Y002214D01*
X011675Y002216D01*
X011194Y002216D01*
X011194Y001735D01*
X011196Y001735D01*
X011277Y001748D01*
X011355Y001773D01*
X011428Y001810D01*
X011494Y001858D01*
X011552Y001916D01*
X011600Y001983D01*
X011637Y002055D01*
X011662Y002133D01*
X011626Y002035D02*
X021181Y002035D01*
X021199Y001936D02*
X011566Y001936D01*
X011465Y001838D02*
X021216Y001838D01*
X021264Y001739D02*
X011221Y001739D01*
X011194Y001739D02*
X011116Y001739D01*
X011116Y001735D02*
X011116Y002216D01*
X010635Y002216D01*
X010635Y002214D01*
X010648Y002133D01*
X007793Y002133D01*
X007762Y002120D02*
X007958Y002202D01*
X008109Y002352D01*
X008190Y002549D01*
X008190Y002762D01*
X008109Y002958D01*
X007958Y003109D01*
X007762Y003190D01*
X007549Y003190D01*
X007352Y003109D01*
X007202Y002958D01*
X007130Y002785D01*
X007130Y003000D01*
X007120Y003038D01*
X007100Y003072D01*
X007072Y003100D01*
X007038Y003120D01*
X007000Y003130D01*
X006674Y003130D01*
X006674Y002674D01*
X006636Y002674D01*
X006636Y002636D01*
X006180Y002636D01*
X006180Y002310D01*
X006190Y002272D01*
X006210Y002238D01*
X006238Y002210D01*
X006272Y002190D01*
X006310Y002180D01*
X006636Y002180D01*
X006636Y002636D01*
X006674Y002636D01*
X006674Y002180D01*
X007000Y002180D01*
X007038Y002190D01*
X007072Y002210D01*
X007100Y002238D01*
X007120Y002272D01*
X007130Y002310D01*
X007130Y002525D01*
X007202Y002352D01*
X007352Y002202D01*
X007549Y002120D01*
X007762Y002120D01*
X007517Y002133D02*
X003146Y002133D01*
X003150Y002155D02*
X003150Y002155D01*
X003090Y001815D01*
X003090Y001815D01*
X002917Y001516D01*
X002917Y001515D01*
X002917Y001515D01*
X002653Y001293D01*
X002653Y001293D01*
X002328Y001175D01*
X002328Y001175D01*
X002205Y001175D01*
X002205Y001175D01*
X002171Y001175D01*
X002155Y001175D01*
X002105Y001175D01*
X002105Y001175D01*
X001982Y001175D01*
X001982Y001175D01*
X001658Y001293D01*
X001658Y001293D01*
X001393Y001515D01*
X001393Y001516D01*
X001220Y001815D01*
X001220Y001815D01*
X001160Y002155D01*
X001160Y002155D01*
X001220Y002495D01*
X001220Y002495D01*
X001393Y002795D01*
X001393Y002795D01*
X001658Y003017D01*
X001658Y003017D01*
X001982Y003135D01*
X001982Y003135D01*
X002105Y003135D01*
X002105Y003135D01*
X002152Y003135D01*
X002155Y003135D01*
X002199Y003135D01*
X002205Y003135D01*
X002205Y003135D01*
X002328Y003135D01*
X002328Y003135D01*
X002653Y003017D01*
X002653Y003017D01*
X002917Y002795D01*
X002917Y002795D01*
X003090Y002495D01*
X003090Y002495D01*
X003150Y002155D01*
X003137Y002232D02*
X006216Y002232D01*
X006180Y002330D02*
X003119Y002330D01*
X003102Y002429D02*
X006180Y002429D01*
X006180Y002527D02*
X003072Y002527D01*
X003015Y002626D02*
X006180Y002626D01*
X006180Y002674D02*
X006636Y002674D01*
X006636Y003130D01*
X006310Y003130D01*
X006272Y003120D01*
X006238Y003100D01*
X006210Y003072D01*
X006190Y003038D01*
X006180Y003000D01*
X006180Y002674D01*
X006180Y002725D02*
X002958Y002725D01*
X002884Y002823D02*
X006180Y002823D01*
X006180Y002922D02*
X002766Y002922D01*
X002822Y003066D02*
X002921Y003025D01*
X003029Y003025D01*
X004229Y003025D01*
X004328Y003066D01*
X004404Y003142D01*
X004527Y003265D01*
X007989Y003265D01*
X008088Y003306D01*
X008164Y003382D01*
X009924Y005142D01*
X009965Y005241D01*
X009965Y005349D01*
X009965Y006069D01*
X009924Y006168D01*
X009848Y006244D01*
X009425Y006667D01*
X009425Y006753D01*
X009350Y006933D01*
X009213Y007070D01*
X009033Y007145D01*
X008278Y007145D01*
X008098Y007070D01*
X007960Y006933D01*
X007885Y006753D01*
X007885Y006558D01*
X007960Y006378D01*
X008098Y006240D01*
X008278Y006165D01*
X009033Y006165D01*
X009125Y006203D01*
X009425Y005903D01*
X009425Y005407D01*
X007823Y003805D01*
X004469Y003805D01*
X004375Y003805D01*
X004424Y003855D01*
X004505Y004050D01*
X004505Y004261D01*
X004424Y004455D01*
X004275Y004604D01*
X004081Y004685D01*
X003230Y004685D01*
X003035Y004604D01*
X002905Y004475D01*
X002775Y004604D01*
X002581Y004685D01*
X001730Y004685D01*
X001535Y004604D01*
X001386Y004455D01*
X001305Y004261D01*
X001305Y004050D01*
X001386Y003855D01*
X001535Y003706D01*
X001730Y003625D01*
X002263Y003625D01*
X002822Y003066D01*
X002770Y003119D02*
X002373Y003119D01*
X002573Y003316D02*
X000865Y003316D01*
X000865Y003414D02*
X002474Y003414D01*
X002376Y003513D02*
X000865Y003513D01*
X000865Y003611D02*
X002277Y003611D01*
X002671Y003217D02*
X000865Y003217D01*
X000865Y003119D02*
X001937Y003119D01*
X001667Y003020D02*
X000865Y003020D01*
X000865Y002922D02*
X001544Y002922D01*
X001427Y002823D02*
X000865Y002823D01*
X000865Y002725D02*
X001352Y002725D01*
X001393Y002795D02*
X001393Y002795D01*
X001295Y002626D02*
X000865Y002626D01*
X000865Y002527D02*
X001239Y002527D01*
X001208Y002429D02*
X000865Y002429D01*
X000865Y002330D02*
X001191Y002330D01*
X001174Y002232D02*
X000865Y002232D01*
X000865Y002133D02*
X001164Y002133D01*
X001181Y002035D02*
X000865Y002035D01*
X000865Y001936D02*
X001199Y001936D01*
X001216Y001838D02*
X000865Y001838D01*
X000865Y001739D02*
X001264Y001739D01*
X001321Y001641D02*
X000865Y001641D01*
X000865Y001542D02*
X001378Y001542D01*
X001479Y001443D02*
X000865Y001443D01*
X000865Y001345D02*
X001596Y001345D01*
X001787Y001246D02*
X000865Y001246D01*
X002524Y001246D02*
X021787Y001246D01*
X021596Y001345D02*
X002714Y001345D01*
X002831Y001443D02*
X021479Y001443D01*
X021378Y001542D02*
X002933Y001542D01*
X002990Y001641D02*
X021321Y001641D01*
X020016Y003316D02*
X015138Y003316D01*
X015236Y003414D02*
X020115Y003414D01*
X020213Y003513D02*
X015335Y003513D01*
X015433Y003611D02*
X020312Y003611D01*
X020410Y003710D02*
X015532Y003710D01*
X015630Y003809D02*
X020509Y003809D01*
X020522Y004400D02*
X019852Y004400D01*
X019971Y004498D02*
X020339Y004498D01*
X020240Y004597D02*
X020070Y004597D01*
X020111Y004695D02*
X020199Y004695D01*
X020165Y004794D02*
X020145Y004794D01*
X020145Y004892D02*
X020165Y004892D01*
X020165Y004991D02*
X020145Y004991D01*
X020145Y005090D02*
X020165Y005090D01*
X020165Y005188D02*
X020145Y005188D01*
X020145Y005287D02*
X020165Y005287D01*
X020165Y005385D02*
X020145Y005385D01*
X020145Y005484D02*
X020165Y005484D01*
X020186Y005582D02*
X020124Y005582D01*
X020084Y005681D02*
X020227Y005681D01*
X020306Y005779D02*
X020004Y005779D01*
X019866Y005878D02*
X020444Y005878D01*
X020866Y005878D02*
X021294Y005878D01*
X021250Y005779D02*
X021004Y005779D01*
X021084Y005681D02*
X021183Y005681D01*
X021142Y005582D02*
X021124Y005582D01*
X021177Y005976D02*
X019485Y005976D01*
X019485Y006075D02*
X021079Y006075D01*
X021035Y006174D02*
X019485Y006174D01*
X019485Y006272D02*
X021005Y006272D01*
X021005Y006371D02*
X019485Y006371D01*
X019485Y006469D02*
X021024Y006469D01*
X021064Y006568D02*
X019485Y006568D01*
X019485Y006666D02*
X021150Y006666D01*
X021205Y006765D02*
X019485Y006765D01*
X019485Y006863D02*
X021205Y006863D01*
X021205Y006962D02*
X019485Y006962D01*
X019485Y007060D02*
X021205Y007060D01*
X021205Y007159D02*
X019485Y007159D01*
X019485Y007258D02*
X021205Y007258D01*
X021205Y007356D02*
X019485Y007356D01*
X019920Y007455D02*
X020390Y007455D01*
X020284Y007553D02*
X020026Y007553D01*
X020093Y007652D02*
X020217Y007652D01*
X020176Y007750D02*
X020134Y007750D01*
X020145Y007849D02*
X020165Y007849D01*
X020165Y007947D02*
X020145Y007947D01*
X020145Y008046D02*
X020165Y008046D01*
X020165Y008144D02*
X020145Y008144D01*
X020145Y008243D02*
X020165Y008243D01*
X020165Y008341D02*
X020145Y008341D01*
X020145Y008440D02*
X020165Y008440D01*
X020168Y008539D02*
X020143Y008539D01*
X020102Y008637D02*
X020208Y008637D01*
X020263Y008736D02*
X020047Y008736D01*
X019949Y008834D02*
X020361Y008834D01*
X020949Y008834D02*
X021305Y008834D01*
X021206Y008736D02*
X021047Y008736D01*
X021102Y008637D02*
X021165Y008637D01*
X021472Y008933D02*
X019555Y008933D01*
X019653Y009031D02*
X021939Y009031D01*
X021908Y009063D02*
X022023Y008948D01*
X022174Y008885D01*
X022337Y008885D01*
X022487Y008948D01*
X022565Y009025D01*
X022783Y009025D01*
X023198Y008611D01*
X023165Y008533D01*
X023165Y007778D01*
X023240Y007598D01*
X023378Y007460D01*
X023558Y007385D01*
X023753Y007385D01*
X023933Y007460D01*
X024070Y007598D01*
X024145Y007778D01*
X024145Y008533D01*
X024070Y008713D01*
X023933Y008850D01*
X023753Y008925D01*
X023647Y008925D01*
X023064Y009508D01*
X023450Y009893D01*
X023525Y010074D01*
X023525Y010269D01*
X023450Y010449D01*
X023313Y010586D01*
X023132Y010661D01*
X022938Y010661D01*
X022757Y010586D01*
X022224Y010053D01*
X022149Y009873D01*
X022149Y009695D01*
X022023Y009643D01*
X021908Y009527D01*
X021845Y009377D01*
X021845Y009214D01*
X021908Y009063D01*
X021880Y009130D02*
X019752Y009130D01*
X019850Y009228D02*
X021845Y009228D01*
X021845Y009327D02*
X019949Y009327D01*
X020047Y009425D02*
X021865Y009425D01*
X021906Y009524D02*
X020146Y009524D01*
X020128Y009506D02*
X020128Y009506D01*
X020244Y009623D02*
X022003Y009623D01*
X022149Y009721D02*
X020343Y009721D01*
X020441Y009820D02*
X022149Y009820D01*
X022168Y009918D02*
X020540Y009918D01*
X020639Y010017D02*
X021775Y010017D01*
X021835Y009992D02*
X022029Y009992D01*
X022210Y010067D01*
X022743Y010601D01*
X022818Y010781D01*
X022818Y010976D01*
X022743Y011156D01*
X022605Y011294D01*
X022425Y011368D01*
X022230Y011368D01*
X022050Y011294D01*
X021517Y010760D01*
X021442Y010580D01*
X021442Y010385D01*
X021517Y010205D01*
X021654Y010067D01*
X021835Y009992D01*
X022088Y010017D02*
X022209Y010017D01*
X022258Y010115D02*
X022286Y010115D01*
X022356Y010214D02*
X022385Y010214D01*
X022455Y010312D02*
X022483Y010312D01*
X022554Y010411D02*
X022582Y010411D01*
X022652Y010509D02*
X022680Y010509D01*
X022746Y010608D02*
X022810Y010608D01*
X022787Y010707D02*
X030465Y010707D01*
X030465Y010805D02*
X022818Y010805D01*
X022818Y010904D02*
X030465Y010904D01*
X030465Y011002D02*
X022807Y011002D01*
X022766Y011101D02*
X030465Y011101D01*
X030465Y011199D02*
X022700Y011199D01*
X022595Y011298D02*
X030465Y011298D01*
X030465Y011396D02*
X022073Y011396D01*
X022061Y011298D02*
X022026Y011298D01*
X021956Y011199D02*
X021928Y011199D01*
X021857Y011101D02*
X021829Y011101D01*
X021759Y011002D02*
X021731Y011002D01*
X021660Y010904D02*
X021632Y010904D01*
X021562Y010805D02*
X021534Y010805D01*
X021495Y010707D02*
X021340Y010707D01*
X021230Y010608D02*
X021454Y010608D01*
X021442Y010509D02*
X021131Y010509D01*
X021033Y010411D02*
X021442Y010411D01*
X021472Y010312D02*
X020934Y010312D01*
X020836Y010214D02*
X021513Y010214D01*
X021606Y010115D02*
X020737Y010115D01*
X020368Y010509D02*
X019531Y010509D01*
X019433Y010411D02*
X020269Y010411D01*
X020171Y010312D02*
X019334Y010312D01*
X019236Y010214D02*
X019650Y010214D01*
X019535Y010115D02*
X019137Y010115D01*
X019039Y010017D02*
X019478Y010017D01*
X019445Y009918D02*
X018940Y009918D01*
X018841Y009820D02*
X019445Y009820D01*
X019467Y009721D02*
X018743Y009721D01*
X018644Y009623D02*
X019481Y009623D01*
X019382Y009524D02*
X018546Y009524D01*
X018447Y009425D02*
X019284Y009425D01*
X019185Y009327D02*
X018365Y009327D01*
X018365Y009228D02*
X019087Y009228D01*
X019062Y009204D02*
X019062Y009204D01*
X018988Y009130D02*
X018365Y009130D01*
X018365Y009031D02*
X018946Y009031D01*
X018945Y008933D02*
X018839Y008933D01*
X018472Y008933D02*
X018365Y008933D01*
X017979Y009721D02*
X017965Y009721D01*
X017965Y009820D02*
X018078Y009820D01*
X018176Y009918D02*
X017965Y009918D01*
X017965Y010017D02*
X018275Y010017D01*
X018374Y010115D02*
X017965Y010115D01*
X018036Y010214D02*
X018472Y010214D01*
X018571Y010312D02*
X018134Y010312D01*
X018233Y010411D02*
X018669Y010411D01*
X018768Y010509D02*
X018331Y010509D01*
X018288Y010466D02*
X018288Y010466D01*
X018430Y010608D02*
X018866Y010608D01*
X018965Y010707D02*
X018528Y010707D01*
X018627Y010805D02*
X019063Y010805D01*
X019162Y010904D02*
X018725Y010904D01*
X018824Y011002D02*
X019260Y011002D01*
X019359Y011101D02*
X018922Y011101D01*
X019021Y011199D02*
X019457Y011199D01*
X019556Y011298D02*
X019120Y011298D01*
X019218Y011396D02*
X019655Y011396D01*
X019753Y011495D02*
X019317Y011495D01*
X019415Y011593D02*
X019852Y011593D01*
X019950Y011692D02*
X019514Y011692D01*
X019612Y011791D02*
X020031Y011791D01*
X020028Y011889D02*
X019711Y011889D01*
X019809Y011988D02*
X020028Y011988D01*
X020066Y012086D02*
X019908Y012086D01*
X020080Y012185D02*
X020113Y012185D01*
X020183Y012283D02*
X020212Y012283D01*
X020282Y012382D02*
X020310Y012382D01*
X020380Y012480D02*
X020409Y012480D01*
X020479Y012579D02*
X020507Y012579D01*
X020577Y012677D02*
X020606Y012677D01*
X020644Y012776D02*
X020801Y012776D01*
X020685Y012874D02*
X023667Y012874D01*
X023702Y012958D02*
X023620Y012762D01*
X023620Y012549D01*
X023702Y012352D01*
X023852Y012202D01*
X024049Y012120D01*
X024262Y012120D01*
X024458Y012202D01*
X024580Y012324D01*
X024580Y012280D01*
X024618Y012189D01*
X024689Y012118D01*
X024780Y012080D01*
X025530Y012080D01*
X025622Y012118D01*
X025692Y012189D01*
X025730Y012280D01*
X025730Y013030D01*
X025692Y013122D01*
X025622Y013192D01*
X025545Y013224D01*
X025545Y017214D01*
X025545Y017377D01*
X025545Y021989D01*
X025585Y022086D01*
X025585Y022265D01*
X025517Y022430D01*
X025390Y022557D01*
X025225Y022625D01*
X025046Y022625D01*
X024880Y022557D01*
X024754Y022430D01*
X024685Y022265D01*
X024685Y022086D01*
X024725Y021989D01*
X024725Y018125D01*
X024685Y018165D01*
X024685Y018541D01*
X024604Y018735D01*
X024455Y018884D01*
X024261Y018965D01*
X024050Y018965D01*
X023855Y018884D01*
X023706Y018735D01*
X023633Y018561D01*
X023570Y018713D01*
X023433Y018850D01*
X023253Y018925D01*
X023058Y018925D01*
X022878Y018850D01*
X022740Y018713D01*
X022677Y018561D01*
X022604Y018735D01*
X022455Y018884D01*
X022261Y018965D01*
X022050Y018965D01*
X021855Y018884D01*
X021706Y018735D01*
X021633Y018561D01*
X021570Y018713D01*
X021433Y018850D01*
X021253Y018925D01*
X021058Y018925D01*
X020878Y018850D01*
X020740Y018713D01*
X020665Y018533D01*
X020665Y017778D01*
X020740Y017598D01*
X020878Y017460D01*
X021058Y017385D01*
X021253Y017385D01*
X021433Y017460D01*
X021570Y017598D01*
X021633Y017750D01*
X021706Y017575D01*
X021855Y017426D01*
X022050Y017345D01*
X022261Y017345D01*
X022455Y017426D01*
X022604Y017575D01*
X022677Y017750D01*
X022715Y017657D01*
X020543Y015485D01*
X018414Y015485D01*
X018363Y015536D01*
X018183Y015611D01*
X017988Y015611D01*
X017808Y015536D01*
X017274Y015002D01*
X017199Y014822D01*
X017199Y014627D01*
X017274Y014447D01*
X017350Y014372D01*
X015097Y012119D01*
X015033Y012145D01*
X014278Y012145D01*
X014098Y012070D01*
X013960Y011933D01*
X013885Y011753D01*
X013885Y011558D01*
X013960Y011378D01*
X014098Y011240D01*
X014278Y011165D01*
X015033Y011165D01*
X015213Y011240D01*
X015350Y011378D01*
X015425Y011558D01*
X015425Y011683D01*
X017848Y014106D01*
X017924Y014182D01*
X017965Y014281D01*
X017965Y014309D01*
X017967Y014310D01*
X018501Y014843D01*
X018543Y014945D01*
X020709Y014945D01*
X020808Y014986D01*
X020884Y015062D01*
X023207Y017385D01*
X023253Y017385D01*
X023433Y017460D01*
X023570Y017598D01*
X023633Y017750D01*
X023706Y017575D01*
X023855Y017426D01*
X024050Y017345D01*
X024261Y017345D01*
X024320Y017370D01*
X024708Y016983D01*
X024725Y016965D01*
X024725Y013207D01*
X024689Y013192D01*
X024618Y013122D01*
X024580Y013030D01*
X024580Y012987D01*
X024458Y013109D01*
X024262Y013190D01*
X024049Y013190D01*
X023852Y013109D01*
X023702Y012958D01*
X023716Y012973D02*
X020697Y012973D01*
X020697Y013072D02*
X023815Y013072D01*
X024001Y013170D02*
X020666Y013170D01*
X020625Y013269D02*
X024725Y013269D01*
X024725Y013367D02*
X020532Y013367D01*
X020361Y013466D02*
X024725Y013466D01*
X024725Y013564D02*
X019971Y013564D01*
X019989Y013663D02*
X024725Y013663D01*
X024725Y013761D02*
X019989Y013761D01*
X019966Y013860D02*
X024725Y013860D01*
X024725Y013958D02*
X019926Y013958D01*
X019842Y014057D02*
X024725Y014057D01*
X024725Y014156D02*
X019696Y014156D01*
X019303Y014156D02*
X019216Y014156D01*
X019208Y014136D02*
X019282Y014316D01*
X019282Y014511D01*
X019208Y014691D01*
X019070Y014829D01*
X018890Y014904D01*
X018695Y014904D01*
X018515Y014829D01*
X017981Y014295D01*
X017906Y014115D01*
X017906Y013920D01*
X017916Y013898D01*
X015125Y011107D01*
X015033Y011145D01*
X014278Y011145D01*
X014098Y011070D01*
X013960Y010933D01*
X013885Y010753D01*
X013885Y010558D01*
X013960Y010378D01*
X014098Y010240D01*
X014278Y010165D01*
X015033Y010165D01*
X015213Y010240D01*
X015350Y010378D01*
X015425Y010558D01*
X015425Y010643D01*
X018310Y013528D01*
X018494Y013528D01*
X018674Y013602D01*
X019208Y014136D01*
X019157Y014057D02*
X019129Y014057D01*
X019058Y013958D02*
X019030Y013958D01*
X018960Y013860D02*
X018932Y013860D01*
X018861Y013761D02*
X018833Y013761D01*
X018763Y013663D02*
X018734Y013663D01*
X018678Y013564D02*
X018582Y013564D01*
X018604Y013466D02*
X018248Y013466D01*
X018149Y013367D02*
X018505Y013367D01*
X018407Y013269D02*
X018050Y013269D01*
X017952Y013170D02*
X018308Y013170D01*
X018210Y013072D02*
X017853Y013072D01*
X017755Y012973D02*
X018111Y012973D01*
X018013Y012874D02*
X017656Y012874D01*
X017558Y012776D02*
X017914Y012776D01*
X017816Y012677D02*
X017459Y012677D01*
X017361Y012579D02*
X017717Y012579D01*
X017619Y012480D02*
X017262Y012480D01*
X017164Y012382D02*
X017520Y012382D01*
X017421Y012283D02*
X017065Y012283D01*
X016966Y012185D02*
X017323Y012185D01*
X017224Y012086D02*
X016868Y012086D01*
X016769Y011988D02*
X017126Y011988D01*
X017027Y011889D02*
X016671Y011889D01*
X016572Y011791D02*
X016929Y011791D01*
X016830Y011692D02*
X016474Y011692D01*
X016375Y011593D02*
X016732Y011593D01*
X016633Y011495D02*
X016277Y011495D01*
X016178Y011396D02*
X016535Y011396D01*
X016436Y011298D02*
X016080Y011298D01*
X015981Y011199D02*
X016337Y011199D01*
X016239Y011101D02*
X015883Y011101D01*
X015784Y011002D02*
X016140Y011002D01*
X016042Y010904D02*
X015685Y010904D01*
X015587Y010805D02*
X015943Y010805D01*
X015845Y010707D02*
X015488Y010707D01*
X015425Y010608D02*
X015746Y010608D01*
X015648Y010509D02*
X015405Y010509D01*
X015364Y010411D02*
X015549Y010411D01*
X015451Y010312D02*
X015285Y010312D01*
X015352Y010214D02*
X015150Y010214D01*
X015104Y010115D02*
X015254Y010115D01*
X015623Y009721D02*
X017425Y009721D01*
X017425Y009623D02*
X015524Y009623D01*
X015426Y009524D02*
X017425Y009524D01*
X017425Y009425D02*
X015370Y009425D01*
X015300Y009327D02*
X017425Y009327D01*
X017425Y009228D02*
X015185Y009228D01*
X014839Y008933D02*
X017425Y008933D01*
X017425Y009031D02*
X014741Y009031D01*
X014642Y009130D02*
X017425Y009130D01*
X017361Y008834D02*
X016818Y008834D01*
X016820Y008834D02*
X016756Y008854D01*
X016689Y008865D01*
X016685Y008865D01*
X016685Y008185D01*
X016625Y008185D01*
X016625Y008125D01*
X016685Y008125D01*
X016685Y007445D01*
X016689Y007445D01*
X016756Y007456D01*
X016820Y007477D01*
X016880Y007507D01*
X016935Y007547D01*
X016983Y007595D01*
X017023Y007650D01*
X017054Y007710D01*
X017074Y007774D01*
X017085Y007841D01*
X017085Y008125D01*
X016685Y008125D01*
X016685Y008185D01*
X017085Y008185D01*
X017085Y008469D01*
X017074Y008536D01*
X017054Y008600D01*
X017023Y008660D01*
X016983Y008715D01*
X016935Y008763D01*
X016880Y008803D01*
X016820Y008834D01*
X016685Y008834D02*
X016625Y008834D01*
X016625Y008865D02*
X016621Y008865D01*
X016554Y008854D01*
X016490Y008834D01*
X016430Y008803D01*
X016375Y008763D01*
X016327Y008715D01*
X016287Y008660D01*
X016257Y008600D01*
X016236Y008536D01*
X016225Y008469D01*
X016225Y008185D01*
X016625Y008185D01*
X016625Y008865D01*
X016625Y008736D02*
X016685Y008736D01*
X016685Y008637D02*
X016625Y008637D01*
X016625Y008539D02*
X016685Y008539D01*
X016685Y008440D02*
X016625Y008440D01*
X016625Y008341D02*
X016685Y008341D01*
X016685Y008243D02*
X016625Y008243D01*
X016625Y008144D02*
X015948Y008144D01*
X016046Y008046D02*
X016225Y008046D01*
X016225Y007947D02*
X016145Y007947D01*
X016225Y008243D02*
X015529Y008243D01*
X015431Y008341D02*
X016225Y008341D01*
X016225Y008440D02*
X015332Y008440D01*
X015233Y008539D02*
X016237Y008539D01*
X016275Y008637D02*
X015135Y008637D01*
X015036Y008736D02*
X016348Y008736D01*
X016492Y008834D02*
X014938Y008834D01*
X014568Y008440D02*
X014079Y008440D01*
X014095Y008473D02*
X014118Y008544D01*
X014130Y008618D01*
X014130Y008636D01*
X013674Y008636D01*
X013674Y008180D01*
X013692Y008180D01*
X013766Y008192D01*
X013837Y008215D01*
X013904Y008249D01*
X013965Y008293D01*
X014017Y008346D01*
X014061Y008406D01*
X014095Y008473D01*
X014117Y008539D02*
X014470Y008539D01*
X014371Y008637D02*
X013674Y008637D01*
X013674Y008636D02*
X013674Y008674D01*
X014130Y008674D01*
X014130Y008692D01*
X014118Y008766D01*
X014095Y008837D01*
X014061Y008904D01*
X014017Y008965D01*
X013965Y009017D01*
X013904Y009061D01*
X013837Y009095D01*
X013766Y009118D01*
X013692Y009130D01*
X013674Y009130D01*
X013674Y008674D01*
X013636Y008674D01*
X013636Y009130D01*
X013618Y009130D01*
X013544Y009118D01*
X013473Y009095D01*
X013406Y009061D01*
X013346Y009017D01*
X013293Y008965D01*
X013249Y008904D01*
X013215Y008837D01*
X013192Y008766D01*
X013190Y008755D01*
X013190Y008762D01*
X013109Y008958D01*
X012958Y009109D01*
X012762Y009190D01*
X012549Y009190D01*
X012352Y009109D01*
X012202Y008958D01*
X012120Y008762D01*
X012120Y008549D01*
X012202Y008352D01*
X012352Y008202D01*
X012549Y008120D01*
X012762Y008120D01*
X012958Y008202D01*
X013109Y008352D01*
X013190Y008549D01*
X013190Y008555D01*
X013192Y008544D01*
X013215Y008473D01*
X013249Y008406D01*
X013293Y008346D01*
X013346Y008293D01*
X013406Y008249D01*
X013473Y008215D01*
X013544Y008192D01*
X013618Y008180D01*
X013636Y008180D01*
X013636Y008636D01*
X013674Y008636D01*
X013674Y008539D02*
X013636Y008539D01*
X013636Y008440D02*
X013674Y008440D01*
X013674Y008341D02*
X013636Y008341D01*
X013636Y008243D02*
X013674Y008243D01*
X013892Y008243D02*
X014765Y008243D01*
X014667Y008341D02*
X014013Y008341D01*
X014123Y008736D02*
X014273Y008736D01*
X014174Y008834D02*
X014096Y008834D01*
X014076Y008933D02*
X014041Y008933D01*
X013977Y009031D02*
X013945Y009031D01*
X013879Y009130D02*
X013694Y009130D01*
X013674Y009130D02*
X013636Y009130D01*
X013616Y009130D02*
X012907Y009130D01*
X013035Y009031D02*
X013365Y009031D01*
X013270Y008933D02*
X013119Y008933D01*
X013160Y008834D02*
X013214Y008834D01*
X013194Y008539D02*
X013186Y008539D01*
X013145Y008440D02*
X013232Y008440D01*
X013297Y008341D02*
X013098Y008341D01*
X013000Y008243D02*
X013418Y008243D01*
X013636Y008736D02*
X013674Y008736D01*
X013674Y008834D02*
X013636Y008834D01*
X013636Y008933D02*
X013674Y008933D01*
X013674Y009031D02*
X013636Y009031D01*
X013780Y009228D02*
X011990Y009228D01*
X011969Y009225D02*
X012036Y009236D01*
X012100Y009257D01*
X012160Y009287D01*
X012215Y009327D01*
X013681Y009327D01*
X013583Y009425D02*
X012300Y009425D01*
X012303Y009430D02*
X012334Y009490D01*
X012354Y009554D01*
X012365Y009621D01*
X012365Y009625D01*
X011685Y009625D01*
X011685Y009225D01*
X011969Y009225D01*
X012215Y009327D02*
X012263Y009375D01*
X012303Y009430D01*
X012345Y009524D02*
X013484Y009524D01*
X013386Y009623D02*
X012365Y009623D01*
X012365Y009685D02*
X012365Y009689D01*
X012354Y009756D01*
X012334Y009820D01*
X013189Y009820D01*
X013090Y009918D02*
X012275Y009918D01*
X012263Y009935D02*
X012215Y009983D01*
X012160Y010023D01*
X012100Y010054D01*
X012036Y010074D01*
X011969Y010085D01*
X011685Y010085D01*
X011685Y009685D01*
X011625Y009685D01*
X011625Y009625D01*
X011685Y009625D01*
X011685Y009685D01*
X012365Y009685D01*
X012360Y009721D02*
X013287Y009721D01*
X012992Y010017D02*
X012169Y010017D01*
X012263Y009935D02*
X012303Y009880D01*
X012334Y009820D01*
X012150Y010214D02*
X012795Y010214D01*
X012893Y010115D02*
X010845Y010115D01*
X010845Y010017D02*
X011141Y010017D01*
X011150Y010023D02*
X011095Y009983D01*
X011047Y009935D01*
X011007Y009880D01*
X010977Y009820D01*
X010956Y009756D01*
X010945Y009689D01*
X010945Y009685D01*
X011625Y009685D01*
X011625Y010085D01*
X011341Y010085D01*
X011274Y010074D01*
X011210Y010054D01*
X011150Y010023D01*
X011035Y009918D02*
X010845Y009918D01*
X010845Y009820D02*
X010976Y009820D01*
X010950Y009721D02*
X010845Y009721D01*
X010845Y009623D02*
X010945Y009623D01*
X010945Y009621D02*
X010956Y009554D01*
X010977Y009490D01*
X011007Y009430D01*
X011047Y009375D01*
X011095Y009327D01*
X011150Y009287D01*
X011210Y009257D01*
X011274Y009236D01*
X011341Y009225D01*
X011625Y009225D01*
X011625Y009625D01*
X010945Y009625D01*
X010945Y009621D01*
X010966Y009524D02*
X010845Y009524D01*
X010845Y009425D02*
X011010Y009425D01*
X011095Y009327D02*
X010845Y009327D01*
X010845Y009228D02*
X011321Y009228D01*
X011625Y009228D02*
X011685Y009228D01*
X011685Y009327D02*
X011625Y009327D01*
X011625Y009425D02*
X011685Y009425D01*
X011685Y009524D02*
X011625Y009524D01*
X011625Y009623D02*
X011685Y009623D01*
X011685Y009721D02*
X011625Y009721D01*
X011625Y009820D02*
X011685Y009820D01*
X011685Y009918D02*
X011625Y009918D01*
X011625Y010017D02*
X011685Y010017D01*
X011160Y010214D02*
X010845Y010214D01*
X010845Y010312D02*
X011025Y010312D01*
X010946Y010411D02*
X010845Y010411D01*
X010845Y010509D02*
X010905Y010509D01*
X010885Y010608D02*
X010845Y010608D01*
X010845Y010707D02*
X010885Y010707D01*
X010907Y010805D02*
X010845Y010805D01*
X010845Y010904D02*
X010948Y010904D01*
X011029Y011002D02*
X010845Y011002D01*
X010845Y011101D02*
X011171Y011101D01*
X011195Y011199D02*
X010845Y011199D01*
X010845Y011298D02*
X011039Y011298D01*
X011098Y011240D02*
X011278Y011165D01*
X012033Y011165D01*
X012213Y011240D01*
X012350Y011378D01*
X012425Y011558D01*
X012425Y011753D01*
X012350Y011933D01*
X012213Y012070D01*
X012033Y012145D01*
X011278Y012145D01*
X011098Y012070D01*
X010960Y011933D01*
X010885Y011753D01*
X010885Y011558D01*
X010960Y011378D01*
X011098Y011240D01*
X010952Y011396D02*
X010845Y011396D01*
X010845Y011495D02*
X010911Y011495D01*
X010885Y011593D02*
X010845Y011593D01*
X010845Y011692D02*
X010885Y011692D01*
X010901Y011791D02*
X010845Y011791D01*
X010845Y011823D02*
X011214Y012192D01*
X011278Y012165D01*
X012033Y012165D01*
X012213Y012240D01*
X012350Y012378D01*
X012425Y012558D01*
X012425Y012753D01*
X012350Y012933D01*
X012213Y013070D01*
X012033Y013145D01*
X011278Y013145D01*
X011098Y013070D01*
X010960Y012933D01*
X010885Y012753D01*
X010885Y012627D01*
X010422Y012164D01*
X010346Y012088D01*
X010305Y011989D01*
X010305Y007307D01*
X009292Y008320D01*
X009350Y008378D01*
X009425Y008558D01*
X009425Y008753D01*
X009350Y008933D01*
X010305Y008933D01*
X010305Y009031D02*
X009252Y009031D01*
X009213Y009070D02*
X009350Y008933D01*
X009391Y008834D02*
X010305Y008834D01*
X010305Y008736D02*
X009425Y008736D01*
X009425Y008637D02*
X010305Y008637D01*
X010305Y008539D02*
X009417Y008539D01*
X009376Y008440D02*
X010305Y008440D01*
X010305Y008341D02*
X009314Y008341D01*
X009369Y008243D02*
X010305Y008243D01*
X010305Y008144D02*
X009468Y008144D01*
X009566Y008046D02*
X010305Y008046D01*
X010305Y007947D02*
X009665Y007947D01*
X009763Y007849D02*
X010305Y007849D01*
X010305Y007750D02*
X009862Y007750D01*
X009960Y007652D02*
X010305Y007652D01*
X010305Y007553D02*
X010059Y007553D01*
X010157Y007455D02*
X010305Y007455D01*
X010305Y007356D02*
X010256Y007356D01*
X009886Y006962D02*
X009321Y006962D01*
X009379Y006863D02*
X009985Y006863D01*
X009985Y005909D01*
X009985Y005801D01*
X010026Y005702D01*
X013066Y002662D01*
X013142Y002586D01*
X013241Y002545D01*
X014201Y002545D01*
X014309Y002545D01*
X014408Y002586D01*
X016330Y004508D01*
X016378Y004460D01*
X016558Y004385D01*
X016753Y004385D01*
X016933Y004460D01*
X017070Y004598D01*
X017145Y004778D01*
X017145Y005533D01*
X017070Y005713D01*
X016933Y005850D01*
X016753Y005925D01*
X016558Y005925D01*
X016378Y005850D01*
X016240Y005713D01*
X016165Y005533D01*
X016165Y005107D01*
X014143Y003085D01*
X013407Y003085D01*
X010525Y005967D01*
X010525Y006563D01*
X010617Y006471D01*
X010575Y006370D01*
X010575Y006140D01*
X010663Y005927D01*
X010827Y005763D01*
X011040Y005675D01*
X011270Y005675D01*
X011484Y005763D01*
X011647Y005927D01*
X011735Y006140D01*
X011735Y006370D01*
X011647Y006584D01*
X011484Y006747D01*
X011270Y006835D01*
X011040Y006835D01*
X011024Y006828D01*
X010845Y007007D01*
X010845Y011823D01*
X010911Y011889D02*
X010942Y011889D01*
X011009Y011988D02*
X011015Y011988D01*
X011108Y012086D02*
X011135Y012086D01*
X011206Y012185D02*
X011230Y012185D01*
X010837Y012579D02*
X009425Y012579D01*
X009425Y012558D02*
X009425Y012753D01*
X009350Y012933D01*
X009213Y013070D01*
X009033Y013145D01*
X008278Y013145D01*
X008098Y013070D01*
X007960Y012933D01*
X007885Y012753D01*
X007885Y012558D01*
X007960Y012378D01*
X008098Y012240D01*
X008278Y012165D01*
X009033Y012165D01*
X009213Y012240D01*
X009350Y012378D01*
X009425Y012558D01*
X009393Y012480D02*
X010739Y012480D01*
X010640Y012382D02*
X009352Y012382D01*
X009256Y012283D02*
X010541Y012283D01*
X010443Y012185D02*
X009080Y012185D01*
X009036Y012074D02*
X008969Y012085D01*
X008685Y012085D01*
X008685Y011685D01*
X008625Y011685D01*
X008625Y011625D01*
X008685Y011625D01*
X008685Y011225D01*
X008969Y011225D01*
X009036Y011236D01*
X009100Y011257D01*
X009160Y011287D01*
X009215Y011327D01*
X009263Y011375D01*
X009303Y011430D01*
X009334Y011490D01*
X009354Y011554D01*
X009365Y011621D01*
X009365Y011625D01*
X008685Y011625D01*
X008685Y011685D01*
X009365Y011685D01*
X009365Y011689D01*
X009354Y011756D01*
X009334Y011820D01*
X009303Y011880D01*
X009263Y011935D01*
X009215Y011983D01*
X009160Y012023D01*
X009100Y012054D01*
X009036Y012074D01*
X009209Y011988D02*
X010305Y011988D01*
X010305Y011889D02*
X009297Y011889D01*
X009343Y011791D02*
X010305Y011791D01*
X010305Y011692D02*
X009365Y011692D01*
X009361Y011593D02*
X010305Y011593D01*
X010305Y011495D02*
X009335Y011495D01*
X009279Y011396D02*
X010305Y011396D01*
X010305Y011298D02*
X009175Y011298D01*
X009100Y011054D02*
X009036Y011074D01*
X008969Y011085D01*
X008685Y011085D01*
X008685Y010685D01*
X008625Y010685D01*
X008625Y010625D01*
X008685Y010625D01*
X008685Y010225D01*
X008969Y010225D01*
X009036Y010236D01*
X009100Y010257D01*
X009160Y010287D01*
X009215Y010327D01*
X009263Y010375D01*
X009303Y010430D01*
X009334Y010490D01*
X009354Y010554D01*
X009365Y010621D01*
X009365Y010625D01*
X008685Y010625D01*
X008685Y010685D01*
X009365Y010685D01*
X009365Y010689D01*
X009354Y010756D01*
X009334Y010820D01*
X009303Y010880D01*
X009263Y010935D01*
X009215Y010983D01*
X009160Y011023D01*
X009100Y011054D01*
X009189Y011002D02*
X010305Y011002D01*
X010305Y010904D02*
X009286Y010904D01*
X009339Y010805D02*
X010305Y010805D01*
X010305Y010707D02*
X009362Y010707D01*
X009363Y010608D02*
X010305Y010608D01*
X010305Y010509D02*
X009340Y010509D01*
X009289Y010411D02*
X010305Y010411D01*
X010305Y010312D02*
X009195Y010312D01*
X009105Y010115D02*
X010305Y010115D01*
X010305Y010017D02*
X009266Y010017D01*
X009213Y010070D02*
X009350Y009933D01*
X009425Y009753D01*
X009425Y009558D01*
X009350Y009378D01*
X009213Y009240D01*
X009033Y009165D01*
X008278Y009165D01*
X008098Y009240D01*
X007960Y009378D01*
X007885Y009558D01*
X007885Y009753D01*
X007960Y009933D01*
X008098Y010070D01*
X008278Y010145D01*
X009033Y010145D01*
X009213Y010070D01*
X009356Y009918D02*
X010305Y009918D01*
X010305Y009820D02*
X009397Y009820D01*
X009425Y009721D02*
X010305Y009721D01*
X010305Y009623D02*
X009425Y009623D01*
X009411Y009524D02*
X010305Y009524D01*
X010305Y009425D02*
X009370Y009425D01*
X009300Y009327D02*
X010305Y009327D01*
X010305Y009228D02*
X009185Y009228D01*
X009069Y009130D02*
X010305Y009130D01*
X010845Y009130D02*
X012403Y009130D01*
X012275Y009031D02*
X010845Y009031D01*
X010845Y008933D02*
X012191Y008933D01*
X012150Y008834D02*
X010845Y008834D01*
X010845Y008736D02*
X012120Y008736D01*
X012120Y008637D02*
X010845Y008637D01*
X010845Y008539D02*
X012124Y008539D01*
X012165Y008440D02*
X010845Y008440D01*
X010845Y008341D02*
X012212Y008341D01*
X012311Y008243D02*
X010845Y008243D01*
X010845Y008144D02*
X012490Y008144D01*
X012820Y008144D02*
X014864Y008144D01*
X014963Y008046D02*
X010845Y008046D01*
X010845Y007947D02*
X015061Y007947D01*
X015160Y007849D02*
X010845Y007849D01*
X010845Y007750D02*
X015258Y007750D01*
X015395Y007553D02*
X010845Y007553D01*
X010845Y007455D02*
X015286Y007455D01*
X015293Y007465D02*
X015249Y007404D01*
X015215Y007337D01*
X015192Y007266D01*
X015180Y007192D01*
X015180Y007174D01*
X015636Y007174D01*
X015636Y007136D01*
X015180Y007136D01*
X015180Y007118D01*
X015192Y007044D01*
X015215Y006973D01*
X015249Y006906D01*
X015293Y006846D01*
X015346Y006793D01*
X015406Y006749D01*
X015473Y006715D01*
X015544Y006692D01*
X015555Y006690D01*
X015549Y006690D01*
X015352Y006609D01*
X015202Y006458D01*
X015120Y006262D01*
X015120Y006049D01*
X015202Y005852D01*
X015352Y005702D01*
X015549Y005620D01*
X015762Y005620D01*
X015958Y005702D01*
X016109Y005852D01*
X016190Y006049D01*
X016190Y006262D01*
X016109Y006458D01*
X015958Y006609D01*
X015762Y006690D01*
X015755Y006690D01*
X015766Y006692D01*
X015837Y006715D01*
X015904Y006749D01*
X015965Y006793D01*
X016017Y006846D01*
X016061Y006906D01*
X016095Y006973D01*
X016118Y007044D01*
X016130Y007118D01*
X016130Y007136D01*
X015674Y007136D01*
X015674Y007174D01*
X015636Y007174D01*
X015636Y007630D01*
X015618Y007630D01*
X015544Y007618D01*
X015473Y007595D01*
X015406Y007561D01*
X015346Y007517D01*
X015293Y007465D01*
X015224Y007356D02*
X010845Y007356D01*
X010845Y007258D02*
X015190Y007258D01*
X015189Y007060D02*
X010845Y007060D01*
X010845Y007159D02*
X015636Y007159D01*
X015674Y007159D02*
X016169Y007159D01*
X016121Y007060D02*
X016268Y007060D01*
X016366Y006962D02*
X016090Y006962D01*
X016030Y006863D02*
X016465Y006863D01*
X016564Y006765D02*
X015926Y006765D01*
X015819Y006666D02*
X016662Y006666D01*
X016761Y006568D02*
X015999Y006568D01*
X016098Y006469D02*
X016859Y006469D01*
X016902Y006426D02*
X016902Y006426D01*
X016958Y006371D02*
X016145Y006371D01*
X016186Y006272D02*
X017056Y006272D01*
X017155Y006174D02*
X016190Y006174D01*
X016190Y006075D02*
X017253Y006075D01*
X017265Y005976D02*
X016160Y005976D01*
X016119Y005878D02*
X016444Y005878D01*
X016306Y005779D02*
X016036Y005779D01*
X015908Y005681D02*
X016227Y005681D01*
X016186Y005582D02*
X010910Y005582D01*
X011008Y005484D02*
X016165Y005484D01*
X016165Y005385D02*
X011107Y005385D01*
X011205Y005287D02*
X016165Y005287D01*
X016165Y005188D02*
X011304Y005188D01*
X011402Y005090D02*
X013227Y005090D01*
X013238Y005100D02*
X013210Y005072D01*
X013190Y005038D01*
X013180Y005000D01*
X013180Y004674D01*
X013636Y004674D01*
X013636Y004636D01*
X013180Y004636D01*
X013180Y004310D01*
X013190Y004272D01*
X013210Y004238D01*
X013238Y004210D01*
X013272Y004190D01*
X013310Y004180D01*
X013525Y004180D01*
X013352Y004109D01*
X013202Y003958D01*
X013120Y003762D01*
X013120Y003549D01*
X013202Y003352D01*
X013352Y003202D01*
X013549Y003120D01*
X013762Y003120D01*
X013958Y003202D01*
X014109Y003352D01*
X014190Y003549D01*
X014190Y003762D01*
X014109Y003958D01*
X013958Y004109D01*
X013786Y004180D01*
X014000Y004180D01*
X014038Y004190D01*
X014072Y004210D01*
X014100Y004238D01*
X014120Y004272D01*
X014130Y004310D01*
X014130Y004636D01*
X013674Y004636D01*
X013674Y004674D01*
X013636Y004674D01*
X013636Y005130D01*
X013310Y005130D01*
X013272Y005120D01*
X013238Y005100D01*
X013180Y004991D02*
X011501Y004991D01*
X011600Y004892D02*
X013180Y004892D01*
X013180Y004794D02*
X011698Y004794D01*
X011797Y004695D02*
X013180Y004695D01*
X013180Y004597D02*
X011895Y004597D01*
X011994Y004498D02*
X013180Y004498D01*
X013180Y004400D02*
X012092Y004400D01*
X012191Y004301D02*
X013183Y004301D01*
X013251Y004203D02*
X012289Y004203D01*
X012388Y004104D02*
X013348Y004104D01*
X013249Y004006D02*
X012486Y004006D01*
X012585Y003907D02*
X013180Y003907D01*
X013140Y003809D02*
X012684Y003809D01*
X012782Y003710D02*
X013120Y003710D01*
X013120Y003611D02*
X012881Y003611D01*
X012979Y003513D02*
X013135Y003513D01*
X013176Y003414D02*
X013078Y003414D01*
X013176Y003316D02*
X013238Y003316D01*
X013275Y003217D02*
X013336Y003217D01*
X013373Y003119D02*
X014177Y003119D01*
X014275Y003217D02*
X013974Y003217D01*
X014072Y003316D02*
X014374Y003316D01*
X014473Y003414D02*
X014134Y003414D01*
X014175Y003513D02*
X014571Y003513D01*
X014670Y003611D02*
X014190Y003611D01*
X014190Y003710D02*
X014768Y003710D01*
X014867Y003809D02*
X014171Y003809D01*
X014130Y003907D02*
X014965Y003907D01*
X015064Y004006D02*
X014061Y004006D01*
X013963Y004104D02*
X015162Y004104D01*
X015261Y004203D02*
X014059Y004203D01*
X014128Y004301D02*
X015359Y004301D01*
X015458Y004400D02*
X014130Y004400D01*
X014130Y004498D02*
X015557Y004498D01*
X015655Y004597D02*
X014130Y004597D01*
X014130Y004674D02*
X014130Y005000D01*
X014120Y005038D01*
X014100Y005072D01*
X014072Y005100D01*
X014038Y005120D01*
X014000Y005130D01*
X013674Y005130D01*
X013674Y004674D01*
X014130Y004674D01*
X014130Y004695D02*
X015754Y004695D01*
X015852Y004794D02*
X014130Y004794D01*
X014130Y004892D02*
X015951Y004892D01*
X016049Y004991D02*
X014130Y004991D01*
X014083Y005090D02*
X016148Y005090D01*
X016320Y004498D02*
X016339Y004498D01*
X016222Y004400D02*
X016522Y004400D01*
X016788Y004400D02*
X017522Y004400D01*
X017339Y004498D02*
X016971Y004498D01*
X017070Y004597D02*
X017240Y004597D01*
X017199Y004695D02*
X017111Y004695D01*
X017145Y004794D02*
X017165Y004794D01*
X017165Y004892D02*
X017145Y004892D01*
X017145Y004991D02*
X017165Y004991D01*
X017165Y005090D02*
X017145Y005090D01*
X017145Y005188D02*
X017165Y005188D01*
X017165Y005287D02*
X017145Y005287D01*
X017145Y005385D02*
X017165Y005385D01*
X017165Y005484D02*
X017145Y005484D01*
X017124Y005582D02*
X017186Y005582D01*
X017227Y005681D02*
X017084Y005681D01*
X017004Y005779D02*
X017265Y005779D01*
X017265Y005878D02*
X016866Y005878D01*
X017032Y007060D02*
X017079Y007060D01*
X017177Y007159D02*
X016933Y007159D01*
X016834Y007258D02*
X017276Y007258D01*
X017374Y007356D02*
X016736Y007356D01*
X016749Y007455D02*
X017390Y007455D01*
X017284Y007553D02*
X016941Y007553D01*
X017024Y007652D02*
X017217Y007652D01*
X017176Y007750D02*
X017067Y007750D01*
X017085Y007849D02*
X017165Y007849D01*
X017165Y007947D02*
X017085Y007947D01*
X017085Y008046D02*
X017165Y008046D01*
X017165Y008144D02*
X016685Y008144D01*
X016685Y008046D02*
X016625Y008046D01*
X016625Y007947D02*
X016685Y007947D01*
X016685Y007849D02*
X016625Y007849D01*
X016625Y007750D02*
X016685Y007750D01*
X016685Y007652D02*
X016625Y007652D01*
X016625Y007553D02*
X016685Y007553D01*
X016685Y007455D02*
X016637Y007455D01*
X017085Y008243D02*
X017165Y008243D01*
X017165Y008341D02*
X017085Y008341D01*
X017085Y008440D02*
X017165Y008440D01*
X017168Y008539D02*
X017074Y008539D01*
X017035Y008637D02*
X017208Y008637D01*
X017263Y008736D02*
X016963Y008736D01*
X017425Y009820D02*
X015721Y009820D01*
X015820Y009918D02*
X017425Y009918D01*
X017425Y010017D02*
X015919Y010017D01*
X016017Y010115D02*
X017425Y010115D01*
X017425Y010214D02*
X016116Y010214D01*
X016214Y010312D02*
X017427Y010312D01*
X017469Y010411D02*
X016313Y010411D01*
X016411Y010509D02*
X017568Y010509D01*
X017657Y010608D02*
X016510Y010608D01*
X016608Y010707D02*
X017616Y010707D01*
X017605Y010805D02*
X016707Y010805D01*
X016805Y010904D02*
X017608Y010904D01*
X017649Y011002D02*
X016904Y011002D01*
X017002Y011101D02*
X017721Y011101D01*
X017871Y011199D02*
X017101Y011199D01*
X017200Y011298D02*
X018356Y011298D01*
X018455Y011396D02*
X017298Y011396D01*
X017397Y011495D02*
X018553Y011495D01*
X018652Y011593D02*
X017495Y011593D01*
X017594Y011692D02*
X018750Y011692D01*
X018849Y011791D02*
X017692Y011791D01*
X017791Y011889D02*
X018947Y011889D01*
X019046Y011988D02*
X017889Y011988D01*
X017988Y012086D02*
X019144Y012086D01*
X019243Y012185D02*
X018086Y012185D01*
X018185Y012283D02*
X019341Y012283D01*
X019372Y012382D02*
X018284Y012382D01*
X018382Y012480D02*
X019331Y012480D01*
X019321Y012579D02*
X018481Y012579D01*
X018579Y012677D02*
X019321Y012677D01*
X019352Y012776D02*
X018678Y012776D01*
X018776Y012874D02*
X018876Y012874D01*
X019331Y012874D02*
X019393Y012874D01*
X019459Y012973D02*
X019487Y012973D01*
X019557Y013072D02*
X019586Y013072D01*
X019656Y013170D02*
X019684Y013170D01*
X019754Y013269D02*
X019783Y013269D01*
X019853Y013367D02*
X019881Y013367D01*
X019930Y013466D02*
X020052Y013466D01*
X019257Y014254D02*
X024725Y014254D01*
X024725Y014353D02*
X019282Y014353D01*
X019282Y014451D02*
X024725Y014451D01*
X024725Y014550D02*
X019266Y014550D01*
X019226Y014648D02*
X024725Y014648D01*
X024725Y014747D02*
X019152Y014747D01*
X019031Y014845D02*
X024725Y014845D01*
X024725Y014944D02*
X018542Y014944D01*
X018554Y014845D02*
X018501Y014845D01*
X018433Y014747D02*
X018404Y014747D01*
X018334Y014648D02*
X018306Y014648D01*
X018235Y014550D02*
X018207Y014550D01*
X018137Y014451D02*
X018109Y014451D01*
X018038Y014353D02*
X018010Y014353D01*
X017964Y014254D02*
X017954Y014254D01*
X017923Y014156D02*
X017897Y014156D01*
X017906Y014057D02*
X017799Y014057D01*
X017700Y013958D02*
X017906Y013958D01*
X017878Y013860D02*
X017602Y013860D01*
X017503Y013761D02*
X017780Y013761D01*
X017681Y013663D02*
X017405Y013663D01*
X017306Y013564D02*
X017583Y013564D01*
X017484Y013466D02*
X017208Y013466D01*
X017109Y013367D02*
X017385Y013367D01*
X017287Y013269D02*
X017010Y013269D01*
X016912Y013170D02*
X017188Y013170D01*
X017090Y013072D02*
X016813Y013072D01*
X016715Y012973D02*
X016991Y012973D01*
X016893Y012874D02*
X016616Y012874D01*
X016518Y012776D02*
X016794Y012776D01*
X016696Y012677D02*
X016419Y012677D01*
X016321Y012579D02*
X016597Y012579D01*
X016499Y012480D02*
X016222Y012480D01*
X016124Y012382D02*
X016400Y012382D01*
X016301Y012283D02*
X016025Y012283D01*
X015926Y012185D02*
X016203Y012185D01*
X016104Y012086D02*
X015828Y012086D01*
X015729Y011988D02*
X016006Y011988D01*
X015907Y011889D02*
X015631Y011889D01*
X015532Y011791D02*
X015809Y011791D01*
X015710Y011692D02*
X015434Y011692D01*
X015425Y011593D02*
X015612Y011593D01*
X015513Y011495D02*
X015399Y011495D01*
X015415Y011396D02*
X015358Y011396D01*
X015316Y011298D02*
X015271Y011298D01*
X015217Y011199D02*
X015115Y011199D01*
X014195Y011199D02*
X012115Y011199D01*
X012140Y011101D02*
X014171Y011101D01*
X014029Y011002D02*
X012281Y011002D01*
X012271Y011298D02*
X014039Y011298D01*
X013952Y011396D02*
X012358Y011396D01*
X012399Y011495D02*
X013911Y011495D01*
X013885Y011593D02*
X012425Y011593D01*
X012425Y011692D02*
X013885Y011692D01*
X013901Y011791D02*
X012409Y011791D01*
X012369Y011889D02*
X013942Y011889D01*
X014015Y011988D02*
X012296Y011988D01*
X012175Y012086D02*
X014135Y012086D01*
X014230Y012185D02*
X012080Y012185D01*
X012256Y012283D02*
X014054Y012283D01*
X014098Y012240D02*
X014278Y012165D01*
X015033Y012165D01*
X015213Y012240D01*
X015350Y012378D01*
X015425Y012558D01*
X015425Y012643D01*
X017048Y014266D01*
X017124Y014342D01*
X017165Y014441D01*
X017165Y014977D01*
X017260Y015017D01*
X017794Y015550D01*
X017841Y015665D01*
X018069Y015665D01*
X018168Y015706D01*
X018244Y015782D01*
X019909Y017447D01*
X020058Y017385D01*
X020253Y017385D01*
X020433Y017460D01*
X020570Y017598D01*
X020645Y017778D01*
X020645Y018533D01*
X020570Y018713D01*
X020433Y018850D01*
X020376Y018874D01*
X020447Y018945D01*
X021749Y018945D01*
X021848Y018986D01*
X021924Y019062D01*
X023247Y020385D01*
X023253Y020385D01*
X023433Y020460D01*
X023570Y020598D01*
X023645Y020778D01*
X023645Y021533D01*
X023570Y021713D01*
X023451Y021832D01*
X024985Y023365D01*
X025653Y023365D01*
X025668Y023329D01*
X025829Y023168D01*
X025912Y023133D01*
X025852Y023109D01*
X025702Y022958D01*
X025620Y022762D01*
X025620Y022549D01*
X025702Y022352D01*
X025852Y022202D01*
X025912Y022177D01*
X025829Y022143D01*
X025668Y021981D01*
X025580Y021769D01*
X025580Y021541D01*
X025668Y021329D01*
X025829Y021168D01*
X025912Y021133D01*
X025852Y021109D01*
X025702Y020958D01*
X025620Y020762D01*
X025620Y020549D01*
X025702Y020352D01*
X025852Y020202D01*
X026049Y020120D01*
X026262Y020120D01*
X026458Y020202D01*
X026609Y020352D01*
X026690Y020549D01*
X026690Y020762D01*
X026609Y020958D01*
X026458Y021109D01*
X026398Y021133D01*
X026481Y021168D01*
X026643Y021329D01*
X026730Y021541D01*
X026730Y021769D01*
X026643Y021981D01*
X026481Y022143D01*
X026398Y022177D01*
X026458Y022202D01*
X026609Y022352D01*
X026690Y022549D01*
X026690Y022762D01*
X026609Y022958D01*
X026458Y023109D01*
X026398Y023133D01*
X026481Y023168D01*
X026643Y023329D01*
X026730Y023541D01*
X026730Y023769D01*
X026643Y023981D01*
X026481Y024143D01*
X026269Y024230D01*
X026041Y024230D01*
X025932Y024185D01*
X025854Y024185D01*
X024734Y024185D01*
X024583Y024123D01*
X024468Y024007D01*
X022965Y022505D01*
X022905Y022505D01*
X022917Y022515D01*
X022917Y022515D01*
X022917Y022516D02*
X023090Y022815D01*
X023150Y023155D01*
X023150Y023155D01*
X023090Y023495D01*
X023090Y023495D01*
X022917Y023795D01*
X022653Y024017D01*
X022653Y024017D01*
X022328Y024135D01*
X022328Y024135D01*
X022205Y024135D01*
X022155Y024135D01*
X022154Y024135D01*
X022105Y024135D01*
X021982Y024135D01*
X021658Y024017D01*
X021658Y024017D01*
X021393Y023795D01*
X021393Y023795D01*
X021220Y023495D01*
X021160Y023155D01*
X021220Y022815D01*
X021220Y022815D01*
X021393Y022516D01*
X021393Y022515D01*
X021658Y022293D01*
X021982Y022175D01*
X022105Y022175D01*
X022126Y022175D01*
X022155Y022175D01*
X022205Y022175D01*
X022328Y022175D01*
X022434Y022214D01*
X022185Y021965D01*
X022050Y021965D01*
X021855Y021884D01*
X021706Y021735D01*
X021633Y021561D01*
X021570Y021713D01*
X021433Y021850D01*
X021253Y021925D01*
X021058Y021925D01*
X020878Y021850D01*
X020740Y021713D01*
X020665Y021533D01*
X020665Y020778D01*
X020740Y020598D01*
X020878Y020460D01*
X021058Y020385D01*
X021253Y020385D01*
X021433Y020460D01*
X021570Y020598D01*
X021633Y020750D01*
X021706Y020575D01*
X021855Y020426D01*
X022050Y020345D01*
X022261Y020345D01*
X022455Y020426D01*
X022604Y020575D01*
X022677Y020750D01*
X022727Y020629D01*
X021583Y019485D01*
X020389Y019485D01*
X020281Y019485D01*
X020182Y019444D01*
X019542Y018804D01*
X019539Y018801D01*
X019455Y018884D01*
X019261Y018965D01*
X019050Y018965D01*
X018855Y018884D01*
X018706Y018735D01*
X018633Y018561D01*
X018570Y018713D01*
X018433Y018850D01*
X018253Y018925D01*
X018058Y018925D01*
X017878Y018850D01*
X017740Y018713D01*
X017665Y018533D01*
X017665Y017778D01*
X017740Y017598D01*
X017878Y017460D01*
X018058Y017385D01*
X018253Y017385D01*
X018433Y017460D01*
X018570Y017598D01*
X018633Y017750D01*
X018706Y017575D01*
X018855Y017426D01*
X019045Y017347D01*
X017903Y016205D01*
X017694Y016205D01*
X017656Y016243D01*
X017476Y016318D01*
X017281Y016318D01*
X017101Y016243D01*
X016567Y015710D01*
X016492Y015529D01*
X016492Y015335D01*
X016567Y015154D01*
X016625Y015096D01*
X016625Y014607D01*
X015125Y013107D01*
X015033Y013145D01*
X014278Y013145D01*
X014098Y013070D01*
X013960Y012933D01*
X013885Y012753D01*
X013885Y012558D01*
X013960Y012378D01*
X014098Y012240D01*
X013958Y012382D02*
X012352Y012382D01*
X012393Y012480D02*
X013917Y012480D01*
X013885Y012579D02*
X012425Y012579D01*
X012425Y012677D02*
X013885Y012677D01*
X013895Y012776D02*
X012415Y012776D01*
X012375Y012874D02*
X013936Y012874D01*
X014000Y012973D02*
X012310Y012973D01*
X012210Y013072D02*
X014100Y013072D01*
X014098Y013240D02*
X014278Y013165D01*
X015033Y013165D01*
X015213Y013240D01*
X015350Y013378D01*
X015425Y013558D01*
X015425Y013753D01*
X015350Y013933D01*
X015213Y014070D01*
X015033Y014145D01*
X014278Y014145D01*
X014098Y014070D01*
X013960Y013933D01*
X013885Y013753D01*
X013885Y013558D01*
X013960Y013378D01*
X014098Y013240D01*
X014069Y013269D02*
X012242Y013269D01*
X012213Y013240D02*
X012350Y013378D01*
X012425Y013558D01*
X012425Y013753D01*
X012350Y013933D01*
X012213Y014070D01*
X012033Y014145D01*
X011278Y014145D01*
X011098Y014070D01*
X010960Y013933D01*
X010885Y013753D01*
X010885Y013558D01*
X010960Y013378D01*
X011098Y013240D01*
X011278Y013165D01*
X012033Y013165D01*
X012213Y013240D01*
X012340Y013367D02*
X013970Y013367D01*
X013923Y013466D02*
X012387Y013466D01*
X012425Y013564D02*
X013885Y013564D01*
X013885Y013663D02*
X012425Y013663D01*
X012421Y013761D02*
X013889Y013761D01*
X013930Y013860D02*
X012381Y013860D01*
X012325Y013958D02*
X013986Y013958D01*
X014084Y014057D02*
X012226Y014057D01*
X012213Y014240D02*
X012350Y014378D01*
X012425Y014558D01*
X012425Y014753D01*
X012350Y014933D01*
X012213Y015070D01*
X012033Y015145D01*
X011278Y015145D01*
X011098Y015070D01*
X010960Y014933D01*
X010885Y014753D01*
X010885Y014558D01*
X010960Y014378D01*
X011098Y014240D01*
X011278Y014165D01*
X012033Y014165D01*
X012213Y014240D01*
X012227Y014254D02*
X014083Y014254D01*
X014098Y014240D02*
X014278Y014165D01*
X015033Y014165D01*
X015213Y014240D01*
X015350Y014378D01*
X015425Y014558D01*
X015425Y014753D01*
X015350Y014933D01*
X015213Y015070D01*
X015033Y015145D01*
X014278Y015145D01*
X014098Y015070D01*
X013960Y014933D01*
X013885Y014753D01*
X013885Y014558D01*
X013960Y014378D01*
X014098Y014240D01*
X013985Y014353D02*
X012326Y014353D01*
X012381Y014451D02*
X013929Y014451D01*
X013888Y014550D02*
X012422Y014550D01*
X012425Y014648D02*
X013885Y014648D01*
X013885Y014747D02*
X012425Y014747D01*
X012387Y014845D02*
X013924Y014845D01*
X013971Y014944D02*
X012339Y014944D01*
X012241Y015042D02*
X014069Y015042D01*
X014098Y015240D02*
X012048Y015240D01*
X012036Y015236D02*
X012100Y015257D01*
X012160Y015287D01*
X012215Y015327D01*
X012263Y015375D01*
X012303Y015430D01*
X012334Y015490D01*
X012354Y015554D01*
X012365Y015621D01*
X012365Y015625D01*
X011685Y015625D01*
X011685Y015225D01*
X011969Y015225D01*
X012036Y015236D01*
X012042Y015141D02*
X014268Y015141D01*
X014278Y015165D02*
X014098Y015240D01*
X013960Y015378D01*
X013885Y015558D01*
X013885Y015753D01*
X013960Y015933D01*
X014098Y016070D01*
X014278Y016145D01*
X015033Y016145D01*
X015213Y016070D01*
X015350Y015933D01*
X015425Y015753D01*
X015425Y015558D01*
X015350Y015378D01*
X015213Y015240D01*
X015033Y015165D01*
X014278Y015165D01*
X013999Y015338D02*
X012226Y015338D01*
X012306Y015437D02*
X013935Y015437D01*
X013894Y015535D02*
X012348Y015535D01*
X012365Y015685D02*
X012365Y015689D01*
X012354Y015756D01*
X012334Y015820D01*
X012303Y015880D01*
X012263Y015935D01*
X012215Y015983D01*
X012160Y016023D01*
X012100Y016054D01*
X012036Y016074D01*
X011969Y016085D01*
X011685Y016085D01*
X011685Y015685D01*
X011625Y015685D01*
X011625Y015625D01*
X011685Y015625D01*
X011685Y015685D01*
X012365Y015685D01*
X012358Y015732D02*
X013885Y015732D01*
X013885Y015634D02*
X011685Y015634D01*
X011625Y015634D02*
X009425Y015634D01*
X009425Y015558D02*
X009425Y015753D01*
X009350Y015933D01*
X009213Y016070D01*
X009033Y016145D01*
X008278Y016145D01*
X008098Y016070D01*
X007960Y015933D01*
X007885Y015753D01*
X007885Y015558D01*
X007960Y015378D01*
X008098Y015240D01*
X006212Y015240D01*
X006213Y015240D02*
X006350Y015378D01*
X006425Y015558D01*
X006425Y015753D01*
X006350Y015933D01*
X006213Y016070D01*
X006033Y016145D01*
X005278Y016145D01*
X005098Y016070D01*
X004960Y015933D01*
X004885Y015753D01*
X004885Y015558D01*
X004960Y015378D01*
X005098Y015240D01*
X000865Y015240D01*
X000865Y015338D02*
X004999Y015338D01*
X004935Y015437D02*
X000865Y015437D01*
X000865Y015535D02*
X004894Y015535D01*
X004885Y015634D02*
X003412Y015634D01*
X003484Y015663D02*
X003647Y015827D01*
X003735Y016040D01*
X003735Y016270D01*
X003647Y016484D01*
X003484Y016647D01*
X003463Y016655D01*
X003484Y016663D01*
X003647Y016827D01*
X003735Y017040D01*
X003735Y017270D01*
X003647Y017484D01*
X003484Y017647D01*
X003384Y017688D01*
X003428Y017710D01*
X003494Y017758D01*
X003552Y017816D01*
X003600Y017883D01*
X003637Y017955D01*
X003662Y018033D01*
X003674Y018105D01*
X003205Y018105D01*
X003205Y018205D01*
X003674Y018205D01*
X003662Y018277D01*
X003637Y018355D01*
X003600Y018428D01*
X003552Y018494D01*
X003494Y018552D01*
X003428Y018600D01*
X003384Y018622D01*
X003484Y018663D01*
X003647Y018827D01*
X003735Y019040D01*
X003735Y019270D01*
X003647Y019484D01*
X003484Y019647D01*
X003463Y019655D01*
X003484Y019663D01*
X003494Y019674D01*
X003494Y019674D01*
X003745Y019423D01*
X003745Y017881D01*
X003786Y017782D01*
X003862Y017706D01*
X004885Y016683D01*
X004885Y016558D01*
X004960Y016378D01*
X005098Y016240D01*
X005278Y016165D01*
X006033Y016165D01*
X006213Y016240D01*
X006350Y016378D01*
X006425Y016558D01*
X006425Y016753D01*
X006350Y016933D01*
X006213Y017070D01*
X006033Y017145D01*
X005278Y017145D01*
X005214Y017119D01*
X004285Y018047D01*
X004285Y019481D01*
X004285Y019589D01*
X004244Y019688D01*
X003735Y020197D01*
X003735Y020270D01*
X003647Y020484D01*
X003484Y020647D01*
X003463Y020655D01*
X003484Y020663D01*
X003647Y020827D01*
X003735Y021040D01*
X003735Y021270D01*
X003647Y021484D01*
X003484Y021647D01*
X003270Y021735D01*
X003040Y021735D01*
X002827Y021647D01*
X002663Y021484D01*
X002575Y021270D01*
X002575Y021040D01*
X002663Y020827D01*
X002827Y020663D01*
X002847Y020655D01*
X002827Y020647D01*
X002663Y020484D01*
X002575Y020270D01*
X002575Y020040D01*
X002663Y019827D01*
X002827Y019663D01*
X002847Y019655D01*
X002827Y019647D01*
X002663Y019484D01*
X002575Y019270D01*
X002575Y019040D01*
X002663Y018827D01*
X002827Y018663D01*
X002926Y018622D01*
X002883Y018600D01*
X002816Y018552D01*
X002758Y018494D01*
X002710Y018428D01*
X002673Y018355D01*
X002648Y018277D01*
X002637Y018205D01*
X003105Y018205D01*
X003105Y018105D01*
X002637Y018105D01*
X002648Y018033D01*
X002673Y017955D01*
X002710Y017883D01*
X002758Y017816D01*
X002816Y017758D01*
X002883Y017710D01*
X002926Y017688D01*
X002827Y017647D01*
X002663Y017484D01*
X002575Y017270D01*
X002575Y017040D01*
X002663Y016827D01*
X002827Y016663D01*
X002847Y016655D01*
X002827Y016647D01*
X002663Y016484D01*
X002575Y016270D01*
X002575Y016040D01*
X002663Y015827D01*
X002827Y015663D01*
X003040Y015575D01*
X003270Y015575D01*
X003484Y015663D01*
X003552Y015732D02*
X004885Y015732D01*
X004918Y015831D02*
X003649Y015831D01*
X003689Y015929D02*
X004958Y015929D01*
X005055Y016028D02*
X003730Y016028D01*
X003735Y016126D02*
X005233Y016126D01*
X005133Y016225D02*
X003735Y016225D01*
X003713Y016324D02*
X005014Y016324D01*
X004941Y016422D02*
X003672Y016422D01*
X003610Y016521D02*
X004900Y016521D01*
X004885Y016619D02*
X003511Y016619D01*
X003538Y016718D02*
X004851Y016718D01*
X004752Y016816D02*
X003636Y016816D01*
X003683Y016915D02*
X004654Y016915D01*
X004555Y017013D02*
X003724Y017013D01*
X003735Y017112D02*
X004457Y017112D01*
X004358Y017210D02*
X003735Y017210D01*
X003719Y017309D02*
X004259Y017309D01*
X004161Y017407D02*
X003678Y017407D01*
X003624Y017506D02*
X004062Y017506D01*
X003964Y017605D02*
X003526Y017605D01*
X003413Y017703D02*
X003865Y017703D01*
X003778Y017802D02*
X003537Y017802D01*
X003609Y017900D02*
X003745Y017900D01*
X003745Y017999D02*
X003651Y017999D01*
X003672Y018097D02*
X003745Y018097D01*
X003745Y018196D02*
X003205Y018196D01*
X003105Y018196D02*
X000865Y018196D01*
X000865Y018294D02*
X002654Y018294D01*
X002693Y018393D02*
X000865Y018393D01*
X000865Y018491D02*
X002757Y018491D01*
X002869Y018590D02*
X000865Y018590D01*
X000865Y018689D02*
X002801Y018689D01*
X002703Y018787D02*
X000865Y018787D01*
X000865Y018886D02*
X002639Y018886D01*
X002598Y018984D02*
X000865Y018984D01*
X000865Y019083D02*
X002575Y019083D01*
X002575Y019181D02*
X000865Y019181D01*
X000865Y019280D02*
X002579Y019280D01*
X002620Y019378D02*
X000865Y019378D01*
X000865Y019477D02*
X002661Y019477D01*
X002755Y019575D02*
X000865Y019575D01*
X000865Y019674D02*
X002816Y019674D01*
X002717Y019773D02*
X000865Y019773D01*
X000865Y019871D02*
X002645Y019871D01*
X002604Y019970D02*
X000865Y019970D01*
X000865Y020068D02*
X002575Y020068D01*
X002575Y020167D02*
X000865Y020167D01*
X000865Y020265D02*
X002575Y020265D01*
X002614Y020364D02*
X000865Y020364D01*
X000865Y020462D02*
X002655Y020462D01*
X002741Y020561D02*
X000865Y020561D01*
X000865Y020659D02*
X002836Y020659D01*
X002732Y020758D02*
X000865Y020758D01*
X000865Y020856D02*
X002651Y020856D01*
X002610Y020955D02*
X000865Y020955D01*
X000865Y021054D02*
X002575Y021054D01*
X002575Y021152D02*
X000865Y021152D01*
X000865Y021251D02*
X002575Y021251D01*
X002608Y021349D02*
X000865Y021349D01*
X000865Y021448D02*
X002649Y021448D01*
X002726Y021546D02*
X000865Y021546D01*
X000865Y021645D02*
X002825Y021645D01*
X003486Y021645D02*
X012489Y021645D01*
X012525Y021630D02*
X012310Y021630D01*
X012272Y021620D01*
X012238Y021600D01*
X012210Y021572D01*
X012190Y021538D01*
X012180Y021500D01*
X012180Y021174D01*
X012636Y021174D01*
X012636Y021136D01*
X012674Y021136D01*
X012674Y020680D01*
X013000Y020680D01*
X013038Y020690D01*
X013072Y020710D01*
X013100Y020738D01*
X013120Y020772D01*
X013130Y020810D01*
X013130Y021136D01*
X012674Y021136D01*
X012674Y021174D01*
X013130Y021174D01*
X013130Y021500D01*
X013120Y021538D01*
X013100Y021572D01*
X013072Y021600D01*
X013038Y021620D01*
X013000Y021630D01*
X012786Y021630D01*
X012958Y021702D01*
X013109Y021852D01*
X013190Y022049D01*
X013190Y022262D01*
X013109Y022458D01*
X012958Y022609D01*
X012762Y022690D01*
X012549Y022690D01*
X012352Y022609D01*
X012202Y022458D01*
X012120Y022262D01*
X012120Y022049D01*
X012202Y021852D01*
X012352Y021702D01*
X012525Y021630D01*
X012310Y021743D02*
X010381Y021743D01*
X010361Y021735D02*
X010555Y021816D01*
X010704Y021965D01*
X010785Y022160D01*
X010785Y022371D01*
X010704Y022565D01*
X010555Y022714D01*
X010361Y022795D01*
X009510Y022795D01*
X009315Y022714D01*
X009166Y022565D01*
X009085Y022371D01*
X009085Y022160D01*
X009166Y021965D01*
X009315Y021816D01*
X009510Y021735D01*
X010361Y021735D01*
X010581Y021842D02*
X012212Y021842D01*
X012165Y021940D02*
X010680Y021940D01*
X010735Y022039D02*
X012124Y022039D01*
X012120Y022138D02*
X010776Y022138D01*
X010785Y022236D02*
X012120Y022236D01*
X012150Y022335D02*
X010785Y022335D01*
X010759Y022433D02*
X012191Y022433D01*
X012275Y022532D02*
X010718Y022532D01*
X010639Y022630D02*
X012404Y022630D01*
X012906Y022630D02*
X014907Y022630D01*
X014827Y022663D02*
X015040Y022575D01*
X015270Y022575D01*
X015484Y022663D01*
X015629Y022809D01*
X015663Y022727D01*
X015827Y022563D01*
X016040Y022475D01*
X016270Y022475D01*
X016484Y022563D01*
X016647Y022727D01*
X016681Y022809D01*
X016714Y022776D01*
X012863Y018925D01*
X009354Y018925D01*
X009350Y018933D01*
X009213Y019070D01*
X009033Y019145D01*
X008278Y019145D01*
X008098Y019070D01*
X007960Y018933D01*
X007885Y018753D01*
X007885Y018558D01*
X007960Y018378D01*
X008098Y018240D01*
X008278Y018165D01*
X009033Y018165D01*
X009213Y018240D01*
X009350Y018378D01*
X009354Y018385D01*
X012921Y018385D01*
X013029Y018385D01*
X013128Y018426D01*
X017281Y022580D01*
X017484Y022663D01*
X017629Y022809D01*
X017663Y022727D01*
X017827Y022563D01*
X018040Y022475D01*
X018270Y022475D01*
X018484Y022563D01*
X018647Y022727D01*
X018664Y022769D01*
X018804Y022629D01*
X019032Y022535D01*
X019278Y022535D01*
X019506Y022629D01*
X019681Y022804D01*
X019689Y022824D01*
X019710Y022783D01*
X019758Y022716D01*
X019816Y022658D01*
X019883Y022610D01*
X019955Y022573D01*
X020033Y022548D01*
X020105Y022537D01*
X020105Y023005D01*
X020205Y023005D01*
X020205Y022537D01*
X020277Y022548D01*
X020355Y022573D01*
X020428Y022610D01*
X020494Y022658D01*
X020552Y022716D01*
X020600Y022783D01*
X020637Y022855D01*
X020662Y022933D01*
X020674Y023005D01*
X020205Y023005D01*
X020205Y023105D01*
X020674Y023105D01*
X020662Y023177D01*
X020637Y023255D01*
X020600Y023328D01*
X020552Y023394D01*
X020494Y023452D01*
X020428Y023500D01*
X020355Y023537D01*
X020277Y023562D01*
X020205Y023574D01*
X020205Y023105D01*
X020105Y023105D01*
X020105Y023574D01*
X020033Y023562D01*
X019955Y023537D01*
X019883Y023500D01*
X019816Y023452D01*
X019758Y023394D01*
X019739Y023366D01*
X019681Y023506D01*
X019506Y023681D01*
X019278Y023775D01*
X019032Y023775D01*
X018804Y023681D01*
X018629Y023506D01*
X018599Y023432D01*
X018484Y023547D01*
X018270Y023635D01*
X018040Y023635D01*
X017827Y023547D01*
X017681Y023401D01*
X017647Y023484D01*
X017484Y023647D01*
X017270Y023735D01*
X017040Y023735D01*
X016827Y023647D01*
X016663Y023484D01*
X016629Y023401D01*
X016484Y023547D01*
X016270Y023635D01*
X016040Y023635D01*
X015827Y023547D01*
X015681Y023401D01*
X015647Y023484D01*
X015484Y023647D01*
X015270Y023735D01*
X015040Y023735D01*
X014827Y023647D01*
X014663Y023484D01*
X014575Y023270D01*
X014575Y023040D01*
X014663Y022827D01*
X004663Y022827D01*
X004690Y022762D02*
X004609Y022958D01*
X004458Y023109D01*
X004346Y023155D01*
X004458Y023202D01*
X004609Y023352D01*
X004690Y023549D01*
X004690Y023762D01*
X004609Y023958D01*
X004458Y024109D01*
X004262Y024190D01*
X004049Y024190D01*
X003852Y024109D01*
X003702Y023958D01*
X003620Y023762D01*
X003620Y023549D01*
X003702Y023352D01*
X003852Y023202D01*
X003964Y023155D01*
X003852Y023109D01*
X003702Y022958D01*
X003620Y022762D01*
X003620Y022549D01*
X003702Y022352D01*
X003852Y022202D01*
X004049Y022120D01*
X004262Y022120D01*
X004458Y022202D01*
X004609Y022352D01*
X004690Y022549D01*
X004690Y022762D01*
X004690Y022729D02*
X006790Y022729D01*
X006755Y022714D02*
X006606Y022565D01*
X006525Y022371D01*
X006525Y022160D01*
X006606Y021965D01*
X006755Y021816D01*
X006950Y021735D01*
X007801Y021735D01*
X007995Y021816D01*
X008144Y021965D01*
X008225Y022160D01*
X008225Y022371D01*
X008144Y022565D01*
X007995Y022714D01*
X007801Y022795D01*
X006950Y022795D01*
X006755Y022714D01*
X006671Y022630D02*
X004690Y022630D01*
X004683Y022532D02*
X006592Y022532D01*
X006551Y022433D02*
X004642Y022433D01*
X004591Y022335D02*
X006525Y022335D01*
X006525Y022236D02*
X004493Y022236D01*
X004304Y022138D02*
X006534Y022138D01*
X006575Y022039D02*
X000865Y022039D01*
X000865Y022138D02*
X004007Y022138D01*
X003818Y022236D02*
X002495Y022236D01*
X002653Y022293D02*
X002328Y022175D01*
X002328Y022175D01*
X002205Y022175D01*
X002205Y022175D01*
X002155Y022175D01*
X002130Y022175D01*
X002105Y022175D01*
X002105Y022175D01*
X001982Y022175D01*
X001982Y022175D01*
X001658Y022293D01*
X001658Y022293D01*
X001393Y022515D01*
X001393Y022516D01*
X001220Y022815D01*
X001220Y022815D01*
X001160Y023155D01*
X001160Y023155D01*
X001220Y023495D01*
X001220Y023495D01*
X001393Y023795D01*
X001393Y023795D01*
X001658Y024017D01*
X001658Y024017D01*
X001982Y024135D01*
X001982Y024135D01*
X002105Y024135D01*
X002105Y024135D01*
X002154Y024135D01*
X002155Y024135D01*
X002205Y024135D01*
X002205Y024135D01*
X002328Y024135D01*
X002328Y024135D01*
X002653Y024017D01*
X002653Y024017D01*
X002917Y023795D01*
X002917Y023795D01*
X003090Y023495D01*
X003090Y023495D01*
X003150Y023155D01*
X003150Y023155D01*
X003090Y022815D01*
X003090Y022815D01*
X002917Y022516D01*
X002917Y022515D01*
X002917Y022515D01*
X002653Y022293D01*
X002653Y022293D01*
X002702Y022335D02*
X003719Y022335D01*
X003668Y022433D02*
X002819Y022433D01*
X002927Y022532D02*
X003627Y022532D01*
X003620Y022630D02*
X002984Y022630D01*
X003041Y022729D02*
X003620Y022729D01*
X003647Y022827D02*
X003092Y022827D01*
X003110Y022926D02*
X003688Y022926D01*
X003768Y023024D02*
X003127Y023024D01*
X003144Y023123D02*
X003887Y023123D01*
X003832Y023222D02*
X003138Y023222D01*
X003121Y023320D02*
X003734Y023320D01*
X003674Y023419D02*
X003104Y023419D01*
X003078Y023517D02*
X003633Y023517D01*
X003620Y023616D02*
X003021Y023616D01*
X002964Y023714D02*
X003620Y023714D01*
X003641Y023813D02*
X002896Y023813D01*
X002778Y023911D02*
X003682Y023911D01*
X003753Y024010D02*
X002661Y024010D01*
X002401Y024108D02*
X003852Y024108D01*
X004458Y024108D02*
X006525Y024108D01*
X006525Y024010D02*
X004557Y024010D01*
X004628Y023911D02*
X006537Y023911D01*
X006578Y023813D02*
X004669Y023813D01*
X004690Y023714D02*
X006636Y023714D01*
X006735Y023616D02*
X004690Y023616D01*
X004677Y023517D02*
X006945Y023517D01*
X006549Y024207D02*
X000865Y024207D01*
X000865Y024306D02*
X006589Y024306D01*
X006665Y024404D02*
X000865Y024404D01*
X000865Y024108D02*
X001909Y024108D01*
X001649Y024010D02*
X000865Y024010D01*
X000865Y023911D02*
X001532Y023911D01*
X001414Y023813D02*
X000865Y023813D01*
X000865Y023714D02*
X001346Y023714D01*
X001393Y023795D02*
X001393Y023795D01*
X001290Y023616D02*
X000865Y023616D01*
X000865Y023517D02*
X001233Y023517D01*
X001207Y023419D02*
X000865Y023419D01*
X000865Y023320D02*
X001189Y023320D01*
X001172Y023222D02*
X000865Y023222D01*
X000865Y023123D02*
X001166Y023123D01*
X001183Y023024D02*
X000865Y023024D01*
X000865Y022926D02*
X001200Y022926D01*
X001218Y022827D02*
X000865Y022827D01*
X000865Y022729D02*
X001270Y022729D01*
X001327Y022630D02*
X000865Y022630D01*
X000865Y022532D02*
X001383Y022532D01*
X001491Y022433D02*
X000865Y022433D01*
X000865Y022335D02*
X001608Y022335D01*
X001815Y022236D02*
X000865Y022236D01*
X000865Y021940D02*
X006630Y021940D01*
X006729Y021842D02*
X000865Y021842D01*
X000865Y021743D02*
X006930Y021743D01*
X006770Y021235D02*
X006540Y021235D01*
X006327Y021147D01*
X006163Y020984D01*
X006075Y020770D01*
X006075Y020540D01*
X006163Y020327D01*
X006327Y020163D01*
X006540Y020075D01*
X006770Y020075D01*
X006984Y020163D01*
X007147Y020327D01*
X007235Y020540D01*
X007235Y020770D01*
X007147Y020984D01*
X006984Y021147D01*
X006770Y021235D01*
X006971Y021152D02*
X010502Y021152D01*
X010533Y021162D02*
X010455Y021137D01*
X010383Y021100D01*
X010316Y021052D01*
X010258Y020994D01*
X010210Y020928D01*
X010173Y020855D01*
X010148Y020777D01*
X010135Y020696D01*
X010135Y020694D01*
X010616Y020694D01*
X010616Y020616D01*
X010694Y020616D01*
X010694Y020135D01*
X010696Y020135D01*
X010777Y020148D01*
X010855Y020173D01*
X010928Y020210D01*
X010994Y020258D01*
X011052Y020316D01*
X011100Y020383D01*
X011137Y020455D01*
X011162Y020533D01*
X011175Y020614D01*
X011175Y020616D01*
X010694Y020616D01*
X010694Y020694D01*
X011175Y020694D01*
X011175Y020696D01*
X011162Y020777D01*
X011137Y020855D01*
X011100Y020928D01*
X011052Y020994D01*
X010994Y021052D01*
X010928Y021100D01*
X010855Y021137D01*
X010777Y021162D01*
X010696Y021175D01*
X010694Y021175D01*
X010694Y020694D01*
X010616Y020694D01*
X010616Y021175D01*
X010614Y021175D01*
X010533Y021162D01*
X010616Y021152D02*
X010694Y021152D01*
X010694Y021054D02*
X010616Y021054D01*
X010616Y020955D02*
X010694Y020955D01*
X010694Y020856D02*
X010616Y020856D01*
X010616Y020758D02*
X010694Y020758D01*
X010694Y020659D02*
X014598Y020659D01*
X014499Y020561D02*
X011167Y020561D01*
X011139Y020462D02*
X014401Y020462D01*
X014302Y020364D02*
X011086Y020364D01*
X011001Y020265D02*
X014203Y020265D01*
X014105Y020167D02*
X010835Y020167D01*
X010694Y020167D02*
X010616Y020167D01*
X010616Y020135D02*
X010616Y020616D01*
X010135Y020616D01*
X010135Y020614D01*
X010148Y020533D01*
X010173Y020455D01*
X010210Y020383D01*
X010258Y020316D01*
X010316Y020258D01*
X010383Y020210D01*
X010455Y020173D01*
X010533Y020148D01*
X010614Y020135D01*
X010616Y020135D01*
X010616Y020265D02*
X010694Y020265D01*
X010694Y020364D02*
X010616Y020364D01*
X010616Y020462D02*
X010694Y020462D01*
X010694Y020561D02*
X010616Y020561D01*
X010616Y020659D02*
X007235Y020659D01*
X007235Y020561D02*
X010144Y020561D01*
X010171Y020462D02*
X007203Y020462D01*
X007162Y020364D02*
X010224Y020364D01*
X010310Y020265D02*
X007085Y020265D01*
X006987Y020167D02*
X010476Y020167D01*
X010145Y020758D02*
X007235Y020758D01*
X007199Y020856D02*
X010174Y020856D01*
X010230Y020955D02*
X007159Y020955D01*
X007077Y021054D02*
X010319Y021054D01*
X010808Y021152D02*
X012636Y021152D01*
X012636Y021136D02*
X012180Y021136D01*
X012180Y020810D01*
X012190Y020772D01*
X012210Y020738D01*
X012238Y020710D01*
X012272Y020690D01*
X012310Y020680D01*
X012636Y020680D01*
X012636Y021136D01*
X012674Y021152D02*
X015090Y021152D01*
X014992Y021054D02*
X013130Y021054D01*
X013130Y020955D02*
X014893Y020955D01*
X014795Y020856D02*
X013130Y020856D01*
X013112Y020758D02*
X014696Y020758D01*
X015164Y020462D02*
X015706Y020462D01*
X015702Y020458D02*
X015620Y020262D01*
X015620Y020049D01*
X015702Y019852D01*
X015852Y019702D01*
X016049Y019620D01*
X016055Y019620D01*
X016044Y019618D01*
X015973Y019595D01*
X015906Y019561D01*
X015846Y019517D01*
X015793Y019465D01*
X015749Y019404D01*
X015715Y019337D01*
X015692Y019266D01*
X015680Y019192D01*
X015680Y019174D01*
X016136Y019174D01*
X016136Y019136D01*
X015680Y019136D01*
X015680Y019118D01*
X015692Y019044D01*
X015715Y018973D01*
X015749Y018906D01*
X015793Y018846D01*
X015846Y018793D01*
X015906Y018749D01*
X015973Y018715D01*
X016044Y018692D01*
X016118Y018680D01*
X016136Y018680D01*
X016136Y019136D01*
X016174Y019136D01*
X016174Y018680D01*
X016192Y018680D01*
X016266Y018692D01*
X016337Y018715D01*
X016404Y018749D01*
X016465Y018793D01*
X016517Y018846D01*
X016561Y018906D01*
X016595Y018973D01*
X016618Y019044D01*
X016630Y019118D01*
X016630Y019136D01*
X016174Y019136D01*
X016174Y019174D01*
X016630Y019174D01*
X016630Y019192D01*
X016618Y019266D01*
X016595Y019337D01*
X016561Y019404D01*
X016517Y019465D01*
X016465Y019517D01*
X016404Y019561D01*
X016337Y019595D01*
X016266Y019618D01*
X016255Y019620D01*
X016262Y019620D01*
X016458Y019702D01*
X016609Y019852D01*
X016690Y020049D01*
X016690Y020262D01*
X016609Y020458D01*
X016458Y020609D01*
X016262Y020690D01*
X016049Y020690D01*
X015852Y020609D01*
X015702Y020458D01*
X015662Y020364D02*
X015066Y020364D01*
X014967Y020265D02*
X015622Y020265D01*
X015620Y020167D02*
X014869Y020167D01*
X014770Y020068D02*
X015620Y020068D01*
X015653Y019970D02*
X014671Y019970D01*
X014573Y019871D02*
X015694Y019871D01*
X015781Y019773D02*
X014474Y019773D01*
X014376Y019674D02*
X015919Y019674D01*
X015934Y019575D02*
X014277Y019575D01*
X014179Y019477D02*
X015805Y019477D01*
X015736Y019378D02*
X014080Y019378D01*
X013982Y019280D02*
X015696Y019280D01*
X015680Y019181D02*
X013883Y019181D01*
X013785Y019083D02*
X015686Y019083D01*
X015711Y018984D02*
X013686Y018984D01*
X013587Y018886D02*
X015764Y018886D01*
X015854Y018787D02*
X013489Y018787D01*
X013390Y018689D02*
X016064Y018689D01*
X016136Y018689D02*
X016174Y018689D01*
X016246Y018689D02*
X016730Y018689D01*
X016740Y018713D02*
X016665Y018533D01*
X016665Y017778D01*
X016740Y017598D01*
X016878Y017460D01*
X017058Y017385D01*
X017253Y017385D01*
X017433Y017460D01*
X017570Y017598D01*
X017645Y017778D01*
X017645Y018533D01*
X017570Y018713D01*
X017433Y018850D01*
X017253Y018925D01*
X017058Y018925D01*
X016878Y018850D01*
X016740Y018713D01*
X016814Y018787D02*
X016457Y018787D01*
X016546Y018886D02*
X016962Y018886D01*
X016599Y018984D02*
X019722Y018984D01*
X019624Y018886D02*
X019452Y018886D01*
X019821Y019083D02*
X016625Y019083D01*
X016630Y019181D02*
X019919Y019181D01*
X020018Y019280D02*
X016614Y019280D01*
X016574Y019378D02*
X020117Y019378D01*
X020262Y019477D02*
X016505Y019477D01*
X016376Y019575D02*
X021674Y019575D01*
X021772Y019674D02*
X016391Y019674D01*
X016529Y019773D02*
X021871Y019773D01*
X021969Y019871D02*
X016616Y019871D01*
X016657Y019970D02*
X022068Y019970D01*
X022166Y020068D02*
X016690Y020068D01*
X016690Y020167D02*
X022265Y020167D01*
X022363Y020265D02*
X016689Y020265D01*
X016648Y020364D02*
X019005Y020364D01*
X019050Y020345D02*
X019261Y020345D01*
X019455Y020426D01*
X019604Y020575D01*
X019677Y020750D01*
X019740Y020598D01*
X019878Y020460D01*
X020058Y020385D01*
X020253Y020385D01*
X020433Y020460D01*
X020570Y020598D01*
X020645Y020778D01*
X020645Y021533D01*
X020570Y021713D01*
X020433Y021850D01*
X020253Y021925D01*
X020058Y021925D01*
X019878Y021850D01*
X019740Y021713D01*
X019677Y021561D01*
X019604Y021735D01*
X019455Y021884D01*
X019261Y021965D01*
X019050Y021965D01*
X018855Y021884D01*
X018706Y021735D01*
X018633Y021561D01*
X018570Y021713D01*
X018433Y021850D01*
X018253Y021925D01*
X018058Y021925D01*
X017878Y021850D01*
X017740Y021713D01*
X017665Y021533D01*
X017665Y020778D01*
X017740Y020598D01*
X017878Y020460D01*
X018058Y020385D01*
X018253Y020385D01*
X018433Y020460D01*
X018570Y020598D01*
X018633Y020750D01*
X018706Y020575D01*
X018855Y020426D01*
X019050Y020345D01*
X019306Y020364D02*
X022005Y020364D01*
X021818Y020462D02*
X021435Y020462D01*
X021534Y020561D02*
X021720Y020561D01*
X021671Y020659D02*
X021596Y020659D01*
X020875Y020462D02*
X020435Y020462D01*
X020534Y020561D02*
X020776Y020561D01*
X020714Y020659D02*
X020596Y020659D01*
X020637Y020758D02*
X020673Y020758D01*
X020665Y020856D02*
X020645Y020856D01*
X020645Y020955D02*
X020665Y020955D01*
X020665Y021054D02*
X020645Y021054D01*
X020645Y021152D02*
X020665Y021152D01*
X020665Y021251D02*
X020645Y021251D01*
X020645Y021349D02*
X020665Y021349D01*
X020665Y021448D02*
X020645Y021448D01*
X020639Y021546D02*
X020671Y021546D01*
X020712Y021645D02*
X020599Y021645D01*
X020540Y021743D02*
X020770Y021743D01*
X020869Y021842D02*
X020441Y021842D01*
X019869Y021842D02*
X019498Y021842D01*
X019596Y021743D02*
X019770Y021743D01*
X019712Y021645D02*
X019642Y021645D01*
X019320Y021940D02*
X021990Y021940D01*
X021812Y021842D02*
X021441Y021842D01*
X021540Y021743D02*
X021714Y021743D01*
X021668Y021645D02*
X021599Y021645D01*
X021982Y022175D02*
X021982Y022175D01*
X022105Y022175D02*
X022105Y022175D01*
X022205Y022175D02*
X022205Y022175D01*
X022259Y022039D02*
X016741Y022039D01*
X016839Y022138D02*
X022358Y022138D01*
X021815Y022236D02*
X016938Y022236D01*
X017036Y022335D02*
X021608Y022335D01*
X021658Y022293D02*
X021658Y022293D01*
X021491Y022433D02*
X017135Y022433D01*
X017234Y022532D02*
X017903Y022532D01*
X017760Y022630D02*
X017404Y022630D01*
X017549Y022729D02*
X017662Y022729D01*
X017674Y023419D02*
X017698Y023419D01*
X017613Y023517D02*
X017797Y023517D01*
X017993Y023616D02*
X017515Y023616D01*
X017321Y023714D02*
X018885Y023714D01*
X018739Y023616D02*
X018317Y023616D01*
X018513Y023517D02*
X018640Y023517D01*
X018648Y022729D02*
X018705Y022729D01*
X018803Y022630D02*
X018550Y022630D01*
X018407Y022532D02*
X021383Y022532D01*
X021327Y022630D02*
X020455Y022630D01*
X020561Y022729D02*
X021270Y022729D01*
X021218Y022827D02*
X020623Y022827D01*
X020660Y022926D02*
X021200Y022926D01*
X021183Y023024D02*
X020205Y023024D01*
X020205Y022926D02*
X020105Y022926D01*
X020105Y022827D02*
X020205Y022827D01*
X020205Y022729D02*
X020105Y022729D01*
X020105Y022630D02*
X020205Y022630D01*
X019855Y022630D02*
X019507Y022630D01*
X019606Y022729D02*
X019749Y022729D01*
X020105Y023123D02*
X020205Y023123D01*
X020205Y023222D02*
X020105Y023222D01*
X020105Y023320D02*
X020205Y023320D01*
X020205Y023419D02*
X020105Y023419D01*
X020105Y023517D02*
X020205Y023517D01*
X020394Y023517D02*
X021233Y023517D01*
X021220Y023495D02*
X021220Y023495D01*
X021207Y023419D02*
X020527Y023419D01*
X020604Y023320D02*
X021189Y023320D01*
X021172Y023222D02*
X020648Y023222D01*
X020671Y023123D02*
X021166Y023123D01*
X021160Y023155D02*
X021160Y023155D01*
X021290Y023616D02*
X019571Y023616D01*
X019670Y023517D02*
X019917Y023517D01*
X019783Y023419D02*
X019717Y023419D01*
X019425Y023714D02*
X021346Y023714D01*
X021393Y023795D02*
X021393Y023795D01*
X021414Y023813D02*
X010733Y023813D01*
X010773Y023911D02*
X021532Y023911D01*
X021649Y024010D02*
X010785Y024010D01*
X010785Y024108D02*
X021909Y024108D01*
X021982Y024135D02*
X021982Y024135D01*
X022105Y024135D02*
X022105Y024135D01*
X022205Y024135D02*
X022205Y024135D01*
X022401Y024108D02*
X024569Y024108D01*
X024470Y024010D02*
X022661Y024010D01*
X022778Y023911D02*
X024372Y023911D01*
X024273Y023813D02*
X022896Y023813D01*
X022917Y023795D02*
X022917Y023795D01*
X022964Y023714D02*
X024174Y023714D01*
X024076Y023616D02*
X023021Y023616D01*
X023078Y023517D02*
X023977Y023517D01*
X023879Y023419D02*
X023104Y023419D01*
X023121Y023320D02*
X023780Y023320D01*
X023682Y023222D02*
X023138Y023222D01*
X023144Y023123D02*
X023583Y023123D01*
X023485Y023024D02*
X023127Y023024D01*
X023110Y022926D02*
X023386Y022926D01*
X023288Y022827D02*
X023092Y022827D01*
X023090Y022815D02*
X023090Y022815D01*
X023041Y022729D02*
X023189Y022729D01*
X023090Y022630D02*
X022984Y022630D01*
X022992Y022532D02*
X022927Y022532D01*
X022917Y022516D02*
X022917Y022515D01*
X023560Y021940D02*
X024725Y021940D01*
X024725Y021842D02*
X024441Y021842D01*
X024433Y021850D02*
X024253Y021925D01*
X024058Y021925D01*
X023878Y021850D01*
X023740Y021713D01*
X023665Y021533D01*
X023665Y020778D01*
X023740Y020598D01*
X023878Y020460D01*
X024058Y020385D01*
X024253Y020385D01*
X024433Y020460D01*
X024570Y020598D01*
X024645Y020778D01*
X024645Y021533D01*
X024570Y021713D01*
X024433Y021850D01*
X024540Y021743D02*
X024725Y021743D01*
X024725Y021645D02*
X024599Y021645D01*
X024639Y021546D02*
X024725Y021546D01*
X024725Y021448D02*
X024645Y021448D01*
X024645Y021349D02*
X024725Y021349D01*
X024725Y021251D02*
X024645Y021251D01*
X024645Y021152D02*
X024725Y021152D01*
X024725Y021054D02*
X024645Y021054D01*
X024645Y020955D02*
X024725Y020955D01*
X024725Y020856D02*
X024645Y020856D01*
X024637Y020758D02*
X024725Y020758D01*
X024725Y020659D02*
X024596Y020659D01*
X024534Y020561D02*
X024725Y020561D01*
X024725Y020462D02*
X024435Y020462D01*
X024725Y020364D02*
X023226Y020364D01*
X023127Y020265D02*
X024725Y020265D01*
X024725Y020167D02*
X023028Y020167D01*
X022930Y020068D02*
X024725Y020068D01*
X024725Y019970D02*
X022831Y019970D01*
X022733Y019871D02*
X024725Y019871D01*
X024725Y019773D02*
X022634Y019773D01*
X022536Y019674D02*
X024725Y019674D01*
X024725Y019575D02*
X022437Y019575D01*
X022339Y019477D02*
X024725Y019477D01*
X024725Y019378D02*
X022240Y019378D01*
X022142Y019280D02*
X024725Y019280D01*
X024725Y019181D02*
X022043Y019181D01*
X021944Y019083D02*
X024725Y019083D01*
X024725Y018984D02*
X021843Y018984D01*
X021858Y018886D02*
X021348Y018886D01*
X021496Y018787D02*
X021758Y018787D01*
X021686Y018689D02*
X021580Y018689D01*
X021621Y018590D02*
X021646Y018590D01*
X022452Y018886D02*
X022962Y018886D01*
X022814Y018787D02*
X022553Y018787D01*
X022624Y018689D02*
X022730Y018689D01*
X022689Y018590D02*
X022665Y018590D01*
X023348Y018886D02*
X023858Y018886D01*
X023758Y018787D02*
X023496Y018787D01*
X023580Y018689D02*
X023686Y018689D01*
X023646Y018590D02*
X023621Y018590D01*
X024452Y018886D02*
X024725Y018886D01*
X024725Y018787D02*
X024553Y018787D01*
X024624Y018689D02*
X024725Y018689D01*
X024725Y018590D02*
X024665Y018590D01*
X024685Y018491D02*
X024725Y018491D01*
X024725Y018393D02*
X024685Y018393D01*
X024685Y018294D02*
X024725Y018294D01*
X024725Y018196D02*
X024685Y018196D01*
X025545Y018196D02*
X025866Y018196D01*
X025852Y018202D02*
X025912Y018177D01*
X025829Y018143D01*
X025668Y017981D01*
X025580Y017769D01*
X025580Y017541D01*
X025668Y017329D01*
X025829Y017168D01*
X025912Y017133D01*
X025852Y017109D01*
X025702Y016958D01*
X025620Y016762D01*
X025620Y016549D01*
X025702Y016352D01*
X025852Y016202D01*
X025912Y016177D01*
X025829Y016143D01*
X025668Y015981D01*
X025580Y015769D01*
X025580Y015541D01*
X025668Y015329D01*
X025829Y015168D01*
X026041Y015080D01*
X026269Y015080D01*
X026481Y015168D01*
X026643Y015329D01*
X026730Y015541D01*
X026730Y015769D01*
X026643Y015981D01*
X026481Y016143D01*
X026398Y016177D01*
X026458Y016202D01*
X026609Y016352D01*
X026690Y016549D01*
X026690Y016762D01*
X026609Y016958D01*
X026458Y017109D01*
X026398Y017133D01*
X026481Y017168D01*
X026643Y017329D01*
X026730Y017541D01*
X026730Y017769D01*
X026643Y017981D01*
X026481Y018143D01*
X026398Y018177D01*
X026458Y018202D01*
X026609Y018352D01*
X026690Y018549D01*
X026690Y018762D01*
X026609Y018958D01*
X026458Y019109D01*
X026262Y019190D01*
X026049Y019190D01*
X025852Y019109D01*
X025702Y018958D01*
X025620Y018762D01*
X025620Y018549D01*
X025702Y018352D01*
X025852Y018202D01*
X025784Y018097D02*
X025545Y018097D01*
X025545Y017999D02*
X025686Y017999D01*
X025634Y017900D02*
X025545Y017900D01*
X025545Y017802D02*
X025593Y017802D01*
X025580Y017703D02*
X025545Y017703D01*
X025545Y017605D02*
X025580Y017605D01*
X025594Y017506D02*
X025545Y017506D01*
X025545Y017407D02*
X025635Y017407D01*
X025688Y017309D02*
X025545Y017309D01*
X025545Y017210D02*
X025787Y017210D01*
X025860Y017112D02*
X025545Y017112D01*
X025545Y017013D02*
X025757Y017013D01*
X025684Y016915D02*
X025545Y016915D01*
X025545Y016816D02*
X025643Y016816D01*
X025620Y016718D02*
X025545Y016718D01*
X025545Y016619D02*
X025620Y016619D01*
X025632Y016521D02*
X025545Y016521D01*
X025545Y016422D02*
X025673Y016422D01*
X025730Y016324D02*
X025545Y016324D01*
X025545Y016225D02*
X025829Y016225D01*
X025813Y016126D02*
X025545Y016126D01*
X025545Y016028D02*
X025715Y016028D01*
X025646Y015929D02*
X025545Y015929D01*
X025545Y015831D02*
X025606Y015831D01*
X025580Y015732D02*
X025545Y015732D01*
X025545Y015634D02*
X025580Y015634D01*
X025582Y015535D02*
X025545Y015535D01*
X025545Y015437D02*
X025623Y015437D01*
X025664Y015338D02*
X025545Y015338D01*
X025545Y015240D02*
X025757Y015240D01*
X025894Y015141D02*
X025545Y015141D01*
X025545Y015042D02*
X027427Y015042D01*
X027340Y015079D02*
X027590Y014975D01*
X028720Y014975D01*
X028970Y015079D01*
X029162Y015270D01*
X029265Y015520D01*
X029265Y015790D01*
X029162Y016040D01*
X028970Y016232D01*
X028720Y016335D01*
X027590Y016335D01*
X027340Y016232D01*
X027149Y016040D01*
X027045Y015790D01*
X027045Y015520D01*
X027149Y015270D01*
X027340Y015079D01*
X027278Y015141D02*
X026416Y015141D01*
X026553Y015240D02*
X027179Y015240D01*
X027120Y015338D02*
X026646Y015338D01*
X026687Y015437D02*
X027080Y015437D01*
X027045Y015535D02*
X026728Y015535D01*
X026730Y015634D02*
X027045Y015634D01*
X027045Y015732D02*
X026730Y015732D01*
X026705Y015831D02*
X027062Y015831D01*
X027103Y015929D02*
X026664Y015929D01*
X026596Y016028D02*
X027144Y016028D01*
X027235Y016126D02*
X026497Y016126D01*
X026482Y016225D02*
X027333Y016225D01*
X027562Y016324D02*
X026580Y016324D01*
X026638Y016422D02*
X030465Y016422D01*
X030465Y016324D02*
X028748Y016324D01*
X028977Y016225D02*
X030465Y016225D01*
X030465Y016126D02*
X029075Y016126D01*
X029167Y016028D02*
X030465Y016028D01*
X030465Y015929D02*
X029208Y015929D01*
X029248Y015831D02*
X030465Y015831D01*
X030465Y015732D02*
X029265Y015732D01*
X029265Y015634D02*
X030465Y015634D01*
X030465Y015535D02*
X029265Y015535D01*
X029231Y015437D02*
X030465Y015437D01*
X030465Y015338D02*
X029190Y015338D01*
X029131Y015240D02*
X030465Y015240D01*
X030465Y015141D02*
X029033Y015141D01*
X028883Y015042D02*
X030465Y015042D01*
X030465Y014944D02*
X025545Y014944D01*
X025545Y014845D02*
X030465Y014845D01*
X030465Y014747D02*
X025545Y014747D01*
X025545Y014648D02*
X030465Y014648D01*
X030465Y014550D02*
X025545Y014550D01*
X025545Y014451D02*
X030465Y014451D01*
X030465Y014353D02*
X025545Y014353D01*
X025545Y014254D02*
X030465Y014254D01*
X030465Y014156D02*
X025545Y014156D01*
X025545Y014057D02*
X030465Y014057D01*
X030465Y013958D02*
X025545Y013958D01*
X025545Y013860D02*
X030465Y013860D01*
X030465Y013761D02*
X025545Y013761D01*
X025545Y013663D02*
X030465Y013663D01*
X030465Y013564D02*
X025545Y013564D01*
X025545Y013466D02*
X030465Y013466D01*
X030465Y013367D02*
X025545Y013367D01*
X025545Y013269D02*
X030465Y013269D01*
X030465Y013170D02*
X025644Y013170D01*
X025713Y013072D02*
X030465Y013072D01*
X030465Y012973D02*
X025730Y012973D01*
X025730Y012874D02*
X030465Y012874D01*
X030465Y012776D02*
X025730Y012776D01*
X025730Y012677D02*
X030465Y012677D01*
X030465Y012579D02*
X025730Y012579D01*
X025730Y012480D02*
X030465Y012480D01*
X030465Y012382D02*
X025730Y012382D01*
X025730Y012283D02*
X030465Y012283D01*
X030465Y012185D02*
X025688Y012185D01*
X025544Y012086D02*
X030465Y012086D01*
X030465Y011988D02*
X021911Y011988D01*
X022010Y011889D02*
X030465Y011889D01*
X030465Y011791D02*
X022066Y011791D01*
X022107Y011692D02*
X030465Y011692D01*
X030465Y011593D02*
X022111Y011593D01*
X022111Y011495D02*
X030465Y011495D01*
X030465Y010608D02*
X023261Y010608D01*
X023390Y010509D02*
X030465Y010509D01*
X030465Y010411D02*
X023466Y010411D01*
X023507Y010312D02*
X027535Y010312D01*
X027590Y010335D02*
X027340Y010232D01*
X027149Y010040D01*
X027045Y009790D01*
X027045Y009520D01*
X027149Y009270D01*
X027340Y009079D01*
X027590Y008975D01*
X028720Y008975D01*
X028970Y009079D01*
X029162Y009270D01*
X029265Y009520D01*
X029265Y009790D01*
X029162Y010040D01*
X028970Y010232D01*
X028720Y010335D01*
X027590Y010335D01*
X027322Y010214D02*
X026309Y010214D01*
X026508Y010115D02*
X027224Y010115D01*
X027139Y010017D02*
X026607Y010017D01*
X026669Y009918D02*
X027098Y009918D01*
X027057Y009820D02*
X026709Y009820D01*
X026730Y009721D02*
X027045Y009721D01*
X027045Y009623D02*
X026730Y009623D01*
X026723Y009524D02*
X027045Y009524D01*
X027084Y009425D02*
X026682Y009425D01*
X026640Y009327D02*
X027125Y009327D01*
X027190Y009228D02*
X026542Y009228D01*
X026407Y009130D02*
X027289Y009130D01*
X027454Y009031D02*
X026535Y009031D01*
X026619Y008933D02*
X030465Y008933D01*
X030465Y009031D02*
X028856Y009031D01*
X029021Y009130D02*
X030465Y009130D01*
X030465Y009228D02*
X029120Y009228D01*
X029185Y009327D02*
X030465Y009327D01*
X030465Y009425D02*
X029226Y009425D01*
X029265Y009524D02*
X030465Y009524D01*
X030465Y009623D02*
X029265Y009623D01*
X029265Y009721D02*
X030465Y009721D01*
X030465Y009820D02*
X029253Y009820D01*
X029212Y009918D02*
X030465Y009918D01*
X030465Y010017D02*
X029171Y010017D01*
X029087Y010115D02*
X030465Y010115D01*
X030465Y010214D02*
X028988Y010214D01*
X028775Y010312D02*
X030465Y010312D01*
X030465Y008834D02*
X026660Y008834D01*
X026690Y008736D02*
X030465Y008736D01*
X030465Y008637D02*
X026690Y008637D01*
X026686Y008539D02*
X030465Y008539D01*
X030465Y008440D02*
X026645Y008440D01*
X026598Y008341D02*
X030465Y008341D01*
X030465Y008243D02*
X028943Y008243D01*
X028970Y008232D02*
X028720Y008335D01*
X027590Y008335D01*
X027340Y008232D01*
X027149Y008040D01*
X027045Y007790D01*
X027045Y007520D01*
X027149Y007270D01*
X027340Y007079D01*
X027590Y006975D01*
X028720Y006975D01*
X028970Y007079D01*
X029162Y007270D01*
X029265Y007520D01*
X029265Y007790D01*
X029162Y008040D01*
X028970Y008232D01*
X029057Y008144D02*
X030465Y008144D01*
X030465Y008046D02*
X029156Y008046D01*
X029200Y007947D02*
X030465Y007947D01*
X030465Y007849D02*
X029241Y007849D01*
X029265Y007750D02*
X030465Y007750D01*
X030465Y007652D02*
X029265Y007652D01*
X029265Y007553D02*
X030465Y007553D01*
X030465Y007455D02*
X029238Y007455D01*
X029197Y007356D02*
X030465Y007356D01*
X030465Y007258D02*
X029149Y007258D01*
X029051Y007159D02*
X030465Y007159D01*
X030465Y007060D02*
X028926Y007060D01*
X028712Y006295D02*
X027598Y006295D01*
X027363Y006198D01*
X027183Y006018D01*
X027085Y005782D01*
X027085Y005528D01*
X027183Y005293D01*
X027363Y005113D01*
X027598Y005015D01*
X028712Y005015D01*
X028948Y005113D01*
X029128Y005293D01*
X029225Y005528D01*
X029225Y005782D01*
X029128Y006018D01*
X028948Y006198D01*
X028712Y006295D01*
X028768Y006272D02*
X030465Y006272D01*
X030465Y006174D02*
X028972Y006174D01*
X029070Y006075D02*
X030465Y006075D01*
X030465Y005976D02*
X029145Y005976D01*
X029186Y005878D02*
X030465Y005878D01*
X030465Y005779D02*
X029225Y005779D01*
X029225Y005681D02*
X030465Y005681D01*
X030465Y005582D02*
X029225Y005582D01*
X029207Y005484D02*
X030465Y005484D01*
X030465Y005385D02*
X029166Y005385D01*
X029122Y005287D02*
X030465Y005287D01*
X030465Y005188D02*
X029023Y005188D01*
X028892Y005090D02*
X030465Y005090D01*
X030465Y004991D02*
X026576Y004991D01*
X026636Y004892D02*
X030465Y004892D01*
X030465Y004794D02*
X026677Y004794D01*
X026690Y004695D02*
X030465Y004695D01*
X030465Y004597D02*
X026690Y004597D01*
X026669Y004498D02*
X030465Y004498D01*
X030465Y004400D02*
X026628Y004400D01*
X026558Y004301D02*
X027508Y004301D01*
X027590Y004335D02*
X027340Y004232D01*
X027149Y004040D01*
X027045Y003790D01*
X027045Y003520D01*
X027149Y003270D01*
X027340Y003079D01*
X027590Y002975D01*
X028720Y002975D01*
X028970Y003079D01*
X029162Y003270D01*
X029265Y003520D01*
X029265Y003790D01*
X029162Y004040D01*
X028970Y004232D01*
X028720Y004335D01*
X027590Y004335D01*
X027311Y004203D02*
X026459Y004203D01*
X026519Y004104D02*
X027212Y004104D01*
X027134Y004006D02*
X026618Y004006D01*
X026673Y003907D02*
X027093Y003907D01*
X027053Y003809D02*
X026714Y003809D01*
X026730Y003710D02*
X027045Y003710D01*
X027045Y003611D02*
X026730Y003611D01*
X026719Y003513D02*
X027048Y003513D01*
X027089Y003414D02*
X026678Y003414D01*
X026629Y003316D02*
X027130Y003316D01*
X027201Y003217D02*
X026530Y003217D01*
X026434Y003119D02*
X027300Y003119D01*
X027481Y003020D02*
X026547Y003020D01*
X026624Y002922D02*
X030465Y002922D01*
X030465Y003020D02*
X028829Y003020D01*
X029010Y003119D02*
X030465Y003119D01*
X030465Y003217D02*
X029109Y003217D01*
X029181Y003316D02*
X030465Y003316D01*
X030465Y003414D02*
X029221Y003414D01*
X029262Y003513D02*
X030465Y003513D01*
X030465Y003611D02*
X029265Y003611D01*
X029265Y003710D02*
X030465Y003710D01*
X030465Y003809D02*
X029258Y003809D01*
X029217Y003907D02*
X030465Y003907D01*
X030465Y004006D02*
X029176Y004006D01*
X029098Y004104D02*
X030465Y004104D01*
X030465Y004203D02*
X028999Y004203D01*
X028802Y004301D02*
X030465Y004301D01*
X030465Y002823D02*
X026665Y002823D01*
X026690Y002725D02*
X030465Y002725D01*
X030465Y002626D02*
X026690Y002626D01*
X026681Y002527D02*
X030465Y002527D01*
X027418Y005090D02*
X026477Y005090D01*
X026266Y005188D02*
X027287Y005188D01*
X027188Y005287D02*
X025545Y005287D01*
X025542Y005385D02*
X027144Y005385D01*
X027103Y005484D02*
X025501Y005484D01*
X025428Y005582D02*
X027085Y005582D01*
X027085Y005681D02*
X025329Y005681D01*
X025231Y005779D02*
X027085Y005779D01*
X027125Y005878D02*
X025132Y005878D01*
X025034Y005976D02*
X027166Y005976D01*
X027240Y006075D02*
X024935Y006075D01*
X024836Y006174D02*
X025920Y006174D01*
X025782Y006272D02*
X024738Y006272D01*
X024639Y006371D02*
X025694Y006371D01*
X025653Y006469D02*
X024541Y006469D01*
X025223Y006568D02*
X025620Y006568D01*
X025620Y006666D02*
X025406Y006666D01*
X025505Y006765D02*
X025621Y006765D01*
X025603Y006863D02*
X025662Y006863D01*
X025702Y006962D02*
X025705Y006962D01*
X025800Y007060D02*
X025804Y007060D01*
X026460Y007159D02*
X027260Y007159D01*
X027161Y007258D02*
X026571Y007258D01*
X026654Y007356D02*
X027113Y007356D01*
X027072Y007455D02*
X026694Y007455D01*
X026730Y007553D02*
X027045Y007553D01*
X027045Y007652D02*
X026730Y007652D01*
X026730Y007750D02*
X027045Y007750D01*
X027069Y007849D02*
X026697Y007849D01*
X026656Y007947D02*
X027110Y007947D01*
X027154Y008046D02*
X026578Y008046D01*
X026476Y008144D02*
X027253Y008144D01*
X027367Y008243D02*
X026500Y008243D01*
X025811Y008243D02*
X024145Y008243D01*
X024145Y008341D02*
X025712Y008341D01*
X025665Y008440D02*
X024145Y008440D01*
X024143Y008539D02*
X025624Y008539D01*
X025620Y008637D02*
X024102Y008637D01*
X024047Y008736D02*
X025620Y008736D01*
X025650Y008834D02*
X023949Y008834D01*
X023639Y008933D02*
X025691Y008933D01*
X025775Y009031D02*
X023541Y009031D01*
X023442Y009130D02*
X025903Y009130D01*
X025769Y009228D02*
X023344Y009228D01*
X023245Y009327D02*
X025670Y009327D01*
X025628Y009425D02*
X023147Y009425D01*
X023081Y009524D02*
X025587Y009524D01*
X025580Y009623D02*
X023179Y009623D01*
X023278Y009721D02*
X025580Y009721D01*
X025601Y009820D02*
X023377Y009820D01*
X023461Y009918D02*
X025642Y009918D01*
X025704Y010017D02*
X023501Y010017D01*
X023525Y010115D02*
X025802Y010115D01*
X026001Y010214D02*
X023525Y010214D01*
X022876Y008933D02*
X022452Y008933D01*
X022361Y008834D02*
X022006Y008834D01*
X022059Y008933D02*
X021839Y008933D01*
X022104Y008736D02*
X022263Y008736D01*
X022208Y008637D02*
X022145Y008637D01*
X022949Y008834D02*
X022974Y008834D01*
X023047Y008736D02*
X023073Y008736D01*
X023102Y008637D02*
X023171Y008637D01*
X023168Y008539D02*
X023143Y008539D01*
X023145Y008440D02*
X023165Y008440D01*
X023165Y008341D02*
X023145Y008341D01*
X023145Y008243D02*
X023165Y008243D01*
X023165Y008144D02*
X023145Y008144D01*
X023145Y008046D02*
X023165Y008046D01*
X023165Y007947D02*
X023145Y007947D01*
X023145Y007849D02*
X023165Y007849D01*
X023176Y007750D02*
X023134Y007750D01*
X023093Y007652D02*
X023217Y007652D01*
X023284Y007553D02*
X023026Y007553D01*
X022920Y007455D02*
X023390Y007455D01*
X023920Y007455D02*
X025035Y007455D01*
X025133Y007553D02*
X024026Y007553D01*
X024093Y007652D02*
X025232Y007652D01*
X025330Y007750D02*
X024134Y007750D01*
X024145Y007849D02*
X025429Y007849D01*
X025528Y007947D02*
X024145Y007947D01*
X024145Y008046D02*
X025626Y008046D01*
X025755Y008144D02*
X024145Y008144D01*
X022744Y007356D02*
X022025Y007356D01*
X022025Y007258D02*
X022598Y007258D01*
X022499Y007159D02*
X022025Y007159D01*
X022025Y007060D02*
X022401Y007060D01*
X022302Y006962D02*
X022025Y006962D01*
X022025Y006863D02*
X022204Y006863D01*
X022105Y006765D02*
X022025Y006765D01*
X022673Y006174D02*
X023675Y006174D01*
X023645Y006272D02*
X022772Y006272D01*
X022870Y006371D02*
X023645Y006371D01*
X023664Y006469D02*
X022969Y006469D01*
X022575Y006075D02*
X023719Y006075D01*
X023817Y005976D02*
X022476Y005976D01*
X022444Y005878D02*
X022378Y005878D01*
X022306Y005779D02*
X022279Y005779D01*
X022227Y005681D02*
X022181Y005681D01*
X022168Y005582D02*
X022186Y005582D01*
X022866Y005878D02*
X023348Y005878D01*
X023250Y005779D02*
X023004Y005779D01*
X023084Y005681D02*
X023183Y005681D01*
X023142Y005582D02*
X023124Y005582D01*
X023962Y005878D02*
X023972Y005878D01*
X024060Y005779D02*
X024071Y005779D01*
X024127Y005681D02*
X024170Y005681D01*
X024168Y005582D02*
X024268Y005582D01*
X024185Y005484D02*
X024367Y005484D01*
X024465Y005385D02*
X024185Y005385D01*
X024185Y005287D02*
X024564Y005287D01*
X024662Y005188D02*
X024185Y005188D01*
X024185Y005090D02*
X024725Y005090D01*
X024725Y004991D02*
X024185Y004991D01*
X024185Y004892D02*
X024725Y004892D01*
X024725Y004794D02*
X024185Y004794D01*
X024154Y004695D02*
X024725Y004695D01*
X024725Y004597D02*
X024114Y004597D01*
X024028Y004498D02*
X024725Y004498D01*
X024725Y004400D02*
X024019Y004400D01*
X023979Y004301D02*
X024725Y004301D01*
X024725Y004203D02*
X023902Y004203D01*
X023804Y004104D02*
X024725Y004104D01*
X024725Y004006D02*
X023705Y004006D01*
X023607Y003907D02*
X024725Y003907D01*
X024725Y003809D02*
X023508Y003809D01*
X023410Y003710D02*
X024725Y003710D01*
X024725Y003611D02*
X023311Y003611D01*
X023213Y003513D02*
X024725Y003513D01*
X024725Y003414D02*
X023114Y003414D01*
X023016Y003316D02*
X024725Y003316D01*
X025545Y003316D02*
X025681Y003316D01*
X025632Y003414D02*
X025545Y003414D01*
X025545Y003513D02*
X025592Y003513D01*
X025580Y003611D02*
X025545Y003611D01*
X025545Y003710D02*
X025580Y003710D01*
X025596Y003809D02*
X025545Y003809D01*
X025545Y003907D02*
X025637Y003907D01*
X025692Y004006D02*
X025545Y004006D01*
X025545Y004104D02*
X025791Y004104D01*
X025851Y004203D02*
X025545Y004203D01*
X025545Y004301D02*
X025752Y004301D01*
X025682Y004400D02*
X025545Y004400D01*
X025545Y004498D02*
X025641Y004498D01*
X025620Y004597D02*
X025545Y004597D01*
X025545Y004695D02*
X025620Y004695D01*
X025634Y004794D02*
X025545Y004794D01*
X025545Y004892D02*
X025674Y004892D01*
X025734Y004991D02*
X025545Y004991D01*
X025545Y005090D02*
X025833Y005090D01*
X026044Y005188D02*
X025545Y005188D01*
X026390Y006174D02*
X027338Y006174D01*
X027542Y006272D02*
X026529Y006272D01*
X026616Y006371D02*
X030465Y006371D01*
X030465Y006469D02*
X026657Y006469D01*
X026690Y006568D02*
X030465Y006568D01*
X030465Y006666D02*
X026690Y006666D01*
X026689Y006765D02*
X030465Y006765D01*
X030465Y006863D02*
X026648Y006863D01*
X026605Y006962D02*
X030465Y006962D01*
X027384Y007060D02*
X026506Y007060D01*
X022390Y007455D02*
X022025Y007455D01*
X022083Y007553D02*
X022284Y007553D01*
X022217Y007652D02*
X022136Y007652D01*
X021205Y007553D02*
X021026Y007553D01*
X021093Y007652D02*
X021174Y007652D01*
X021205Y007455D02*
X020920Y007455D01*
X021111Y004695D02*
X021156Y004695D01*
X021197Y004597D02*
X021070Y004597D01*
X020971Y004498D02*
X021282Y004498D01*
X021418Y004400D02*
X020788Y004400D01*
X019581Y003907D02*
X015729Y003907D01*
X015827Y004006D02*
X019483Y004006D01*
X019384Y004104D02*
X015926Y004104D01*
X016024Y004203D02*
X019286Y004203D01*
X019187Y004301D02*
X016123Y004301D01*
X015039Y003217D02*
X019249Y003217D01*
X019117Y003119D02*
X018934Y003119D01*
X019047Y003020D02*
X019080Y003020D01*
X018376Y003119D02*
X014940Y003119D01*
X014842Y003020D02*
X018264Y003020D01*
X018186Y002922D02*
X014743Y002922D01*
X014645Y002823D02*
X018146Y002823D01*
X018120Y002725D02*
X014546Y002725D01*
X014448Y002626D02*
X018120Y002626D01*
X018129Y002527D02*
X011600Y002527D01*
X011600Y002528D02*
X011552Y002594D01*
X011494Y002652D01*
X011428Y002700D01*
X011355Y002737D01*
X011277Y002762D01*
X011196Y002775D01*
X011194Y002775D01*
X011194Y002294D01*
X011116Y002294D01*
X011116Y002216D01*
X011194Y002216D01*
X011194Y002294D01*
X011675Y002294D01*
X011675Y002296D01*
X011662Y002377D01*
X011637Y002455D01*
X011600Y002528D01*
X011645Y002429D02*
X018170Y002429D01*
X018223Y002330D02*
X011670Y002330D01*
X011520Y002626D02*
X013102Y002626D01*
X013004Y002725D02*
X011379Y002725D01*
X011194Y002725D02*
X011116Y002725D01*
X011114Y002775D02*
X011033Y002762D01*
X010955Y002737D01*
X010883Y002700D01*
X010816Y002652D01*
X010758Y002594D01*
X010710Y002528D01*
X010673Y002455D01*
X010648Y002377D01*
X010635Y002296D01*
X010635Y002294D01*
X011116Y002294D01*
X011116Y002775D01*
X011114Y002775D01*
X011116Y002626D02*
X011194Y002626D01*
X011194Y002527D02*
X011116Y002527D01*
X011116Y002429D02*
X011194Y002429D01*
X011194Y002330D02*
X011116Y002330D01*
X011116Y002232D02*
X007988Y002232D01*
X008087Y002330D02*
X010641Y002330D01*
X010665Y002429D02*
X008140Y002429D01*
X008181Y002527D02*
X010710Y002527D01*
X010791Y002626D02*
X008190Y002626D01*
X008190Y002725D02*
X010931Y002725D01*
X011194Y002232D02*
X018322Y002232D01*
X018418Y004400D02*
X017788Y004400D01*
X017971Y004498D02*
X018282Y004498D01*
X018197Y004597D02*
X018070Y004597D01*
X018111Y004695D02*
X018156Y004695D01*
X018892Y004400D02*
X019089Y004400D01*
X015674Y007258D02*
X015636Y007258D01*
X015636Y007356D02*
X015674Y007356D01*
X015674Y007455D02*
X015636Y007455D01*
X015636Y007553D02*
X015674Y007553D01*
X015677Y007652D02*
X010845Y007652D01*
X010890Y006962D02*
X015220Y006962D01*
X015280Y006863D02*
X010989Y006863D01*
X011440Y006765D02*
X015384Y006765D01*
X015491Y006666D02*
X011564Y006666D01*
X011653Y006568D02*
X015311Y006568D01*
X015213Y006469D02*
X011694Y006469D01*
X011735Y006371D02*
X015165Y006371D01*
X015125Y006272D02*
X011735Y006272D01*
X011735Y006174D02*
X015120Y006174D01*
X015120Y006075D02*
X011708Y006075D01*
X011667Y005976D02*
X015150Y005976D01*
X015191Y005878D02*
X011598Y005878D01*
X011500Y005779D02*
X015274Y005779D01*
X015402Y005681D02*
X011284Y005681D01*
X011026Y005681D02*
X010811Y005681D01*
X010811Y005779D02*
X010713Y005779D01*
X010712Y005878D02*
X010614Y005878D01*
X010643Y005976D02*
X010525Y005976D01*
X010525Y006075D02*
X010602Y006075D01*
X010575Y006174D02*
X010525Y006174D01*
X010525Y006272D02*
X010575Y006272D01*
X010575Y006371D02*
X010525Y006371D01*
X010525Y006469D02*
X010616Y006469D01*
X009985Y006469D02*
X009623Y006469D01*
X009721Y006371D02*
X009985Y006371D01*
X009985Y006272D02*
X009820Y006272D01*
X009918Y006174D02*
X009985Y006174D01*
X009985Y006075D02*
X009963Y006075D01*
X009965Y005976D02*
X009985Y005976D01*
X009985Y005878D02*
X009965Y005878D01*
X009965Y005779D02*
X009994Y005779D01*
X009965Y005681D02*
X010048Y005681D01*
X009965Y005582D02*
X010146Y005582D01*
X010245Y005484D02*
X009965Y005484D01*
X009965Y005385D02*
X010343Y005385D01*
X010442Y005287D02*
X009965Y005287D01*
X009943Y005188D02*
X010540Y005188D01*
X010639Y005090D02*
X009871Y005090D01*
X009773Y004991D02*
X010737Y004991D01*
X010836Y004892D02*
X009674Y004892D01*
X009576Y004794D02*
X010934Y004794D01*
X011033Y004695D02*
X009477Y004695D01*
X009379Y004597D02*
X011132Y004597D01*
X011230Y004498D02*
X009280Y004498D01*
X009182Y004400D02*
X011329Y004400D01*
X011427Y004301D02*
X009083Y004301D01*
X008984Y004203D02*
X011526Y004203D01*
X011624Y004104D02*
X008886Y004104D01*
X008787Y004006D02*
X011723Y004006D01*
X011821Y003907D02*
X008689Y003907D01*
X008590Y003809D02*
X011920Y003809D01*
X012018Y003710D02*
X008492Y003710D01*
X008393Y003611D02*
X012117Y003611D01*
X012216Y003513D02*
X008295Y003513D01*
X008196Y003414D02*
X012314Y003414D01*
X012413Y003316D02*
X008098Y003316D01*
X007934Y003119D02*
X012610Y003119D01*
X012511Y003217D02*
X004479Y003217D01*
X004381Y003119D02*
X006270Y003119D01*
X006186Y003020D02*
X002644Y003020D01*
X003129Y002035D02*
X010684Y002035D01*
X010673Y002055D02*
X010710Y001983D01*
X010758Y001916D01*
X010816Y001858D01*
X010883Y001810D01*
X010955Y001773D01*
X011033Y001748D01*
X011114Y001735D01*
X011116Y001735D01*
X011089Y001739D02*
X003046Y001739D01*
X003094Y001838D02*
X010845Y001838D01*
X010744Y001936D02*
X003112Y001936D01*
X004378Y003809D02*
X007827Y003809D01*
X007925Y003907D02*
X004446Y003907D01*
X004487Y004006D02*
X008024Y004006D01*
X008122Y004104D02*
X004505Y004104D01*
X004505Y004203D02*
X008221Y004203D01*
X008319Y004301D02*
X004488Y004301D01*
X004447Y004400D02*
X008418Y004400D01*
X008516Y004498D02*
X004381Y004498D01*
X004283Y004597D02*
X008615Y004597D01*
X008714Y004695D02*
X006437Y004695D01*
X006408Y004666D02*
X006484Y004742D01*
X007087Y005345D01*
X007992Y005345D01*
X008098Y005240D01*
X008278Y005165D01*
X009033Y005165D01*
X009213Y005240D01*
X009350Y005378D01*
X009425Y005558D01*
X009425Y005753D01*
X009350Y005933D01*
X009213Y006070D01*
X009033Y006145D01*
X008278Y006145D01*
X008098Y006070D01*
X007960Y005933D01*
X007940Y005885D01*
X007029Y005885D01*
X006921Y005885D01*
X006822Y005844D01*
X006143Y005165D01*
X005407Y005165D01*
X005407Y005165D01*
X006033Y005165D01*
X006213Y005240D01*
X006350Y005378D01*
X006425Y005558D01*
X006425Y005643D01*
X007768Y006986D01*
X007844Y007062D01*
X007885Y007161D01*
X007885Y007305D01*
X007959Y007379D01*
X007960Y007378D01*
X008098Y007240D01*
X008278Y007165D01*
X009033Y007165D01*
X009213Y007240D01*
X009350Y007378D01*
X009386Y007463D01*
X009985Y006863D01*
X009985Y006765D02*
X009420Y006765D01*
X009426Y006666D02*
X009985Y006666D01*
X009985Y006568D02*
X009524Y006568D01*
X009155Y006174D02*
X009053Y006174D01*
X009202Y006075D02*
X009253Y006075D01*
X009307Y005976D02*
X009352Y005976D01*
X009373Y005878D02*
X009425Y005878D01*
X009414Y005779D02*
X009425Y005779D01*
X009425Y005681D02*
X009425Y005681D01*
X009425Y005582D02*
X009425Y005582D01*
X009425Y005484D02*
X009394Y005484D01*
X009403Y005385D02*
X009354Y005385D01*
X009305Y005287D02*
X009260Y005287D01*
X009206Y005188D02*
X009088Y005188D01*
X009108Y005090D02*
X006831Y005090D01*
X006930Y005188D02*
X008222Y005188D01*
X008051Y005287D02*
X007028Y005287D01*
X006733Y004991D02*
X009009Y004991D01*
X008911Y004892D02*
X006634Y004892D01*
X006536Y004794D02*
X008812Y004794D01*
X008004Y005976D02*
X006758Y005976D01*
X006660Y005878D02*
X006904Y005878D01*
X006758Y005779D02*
X006561Y005779D01*
X006463Y005681D02*
X006659Y005681D01*
X006560Y005582D02*
X006425Y005582D01*
X006394Y005484D02*
X006462Y005484D01*
X006363Y005385D02*
X006354Y005385D01*
X006265Y005287D02*
X006260Y005287D01*
X006166Y005188D02*
X006088Y005188D01*
X006309Y004625D02*
X006408Y004666D01*
X006309Y004625D02*
X005349Y004625D01*
X005241Y004625D01*
X005142Y004666D01*
X004153Y005655D01*
X004081Y005625D01*
X003230Y005625D01*
X003035Y005706D01*
X002905Y005836D01*
X002775Y005706D01*
X002581Y005625D01*
X001730Y005625D01*
X001535Y005706D01*
X001386Y005855D01*
X001305Y006050D01*
X001305Y006261D01*
X001386Y006455D01*
X001535Y006604D01*
X001730Y006685D01*
X002581Y006685D01*
X002775Y006604D01*
X002905Y006475D01*
X003035Y006604D01*
X003230Y006685D01*
X004081Y006685D01*
X004275Y006604D01*
X004424Y006455D01*
X004505Y006261D01*
X004505Y006067D01*
X004885Y005687D01*
X004885Y005753D01*
X004960Y005933D01*
X005098Y006070D01*
X005278Y006145D01*
X006033Y006145D01*
X006125Y006107D01*
X007334Y007316D01*
X007268Y007383D01*
X007205Y007534D01*
X007205Y007697D01*
X007268Y007847D01*
X007383Y007963D01*
X007534Y008025D01*
X007697Y008025D01*
X007847Y007963D01*
X007936Y007874D01*
X007960Y007933D01*
X008038Y008011D01*
X007663Y008385D01*
X006354Y008385D01*
X006350Y008378D01*
X006213Y008240D01*
X006033Y008165D01*
X005278Y008165D01*
X005098Y008240D01*
X004960Y008378D01*
X004885Y008558D01*
X004885Y008753D01*
X004960Y008933D01*
X003642Y008933D01*
X003609Y008852D02*
X003690Y009049D01*
X003690Y009262D01*
X003609Y009458D01*
X003458Y009609D01*
X003262Y009690D01*
X003049Y009690D01*
X002852Y009609D01*
X002702Y009458D01*
X002620Y009262D01*
X002620Y009049D01*
X002702Y008852D01*
X002852Y008702D01*
X003049Y008620D01*
X003262Y008620D01*
X003458Y008702D01*
X003609Y008852D01*
X003591Y008834D02*
X004919Y008834D01*
X004885Y008736D02*
X003492Y008736D01*
X003303Y008637D02*
X004885Y008637D01*
X004893Y008539D02*
X002028Y008539D01*
X001958Y008609D02*
X001846Y008655D01*
X001958Y008702D01*
X002109Y008852D01*
X002190Y009049D01*
X002190Y009262D01*
X002109Y009458D01*
X001958Y009609D01*
X001762Y009690D01*
X001549Y009690D01*
X001352Y009609D01*
X001202Y009458D01*
X001120Y009262D01*
X001120Y009049D01*
X001202Y008852D01*
X001352Y008702D01*
X001464Y008655D01*
X001352Y008609D01*
X001202Y008458D01*
X001120Y008262D01*
X001120Y008049D01*
X001202Y007852D01*
X001352Y007702D01*
X001549Y007620D01*
X001762Y007620D01*
X001958Y007702D01*
X002109Y007852D01*
X002190Y008049D01*
X002190Y008262D01*
X002109Y008458D01*
X001958Y008609D01*
X001889Y008637D02*
X003008Y008637D01*
X002818Y008736D02*
X001992Y008736D01*
X002091Y008834D02*
X002719Y008834D01*
X002668Y008933D02*
X002142Y008933D01*
X002183Y009031D02*
X002627Y009031D01*
X002620Y009130D02*
X002190Y009130D01*
X002190Y009228D02*
X002620Y009228D01*
X002647Y009327D02*
X002163Y009327D01*
X002122Y009425D02*
X002688Y009425D01*
X002767Y009524D02*
X002043Y009524D01*
X001925Y009623D02*
X002886Y009623D01*
X003425Y009623D02*
X004885Y009623D01*
X004885Y009558D02*
X004960Y009378D01*
X005098Y009240D01*
X005278Y009165D01*
X006033Y009165D01*
X006213Y009240D01*
X006350Y009378D01*
X006425Y009558D01*
X006425Y009753D01*
X006350Y009933D01*
X006213Y010070D01*
X006033Y010145D01*
X005278Y010145D01*
X005098Y010070D01*
X004960Y009933D01*
X004885Y009753D01*
X004885Y009558D01*
X004899Y009524D02*
X003543Y009524D01*
X003622Y009425D02*
X004940Y009425D01*
X005010Y009327D02*
X003663Y009327D01*
X003690Y009228D02*
X005125Y009228D01*
X005241Y009130D02*
X003690Y009130D01*
X003683Y009031D02*
X005058Y009031D01*
X005098Y009070D02*
X004960Y008933D01*
X005098Y009070D02*
X005278Y009145D01*
X006033Y009145D01*
X006213Y009070D01*
X006350Y008933D01*
X007960Y008933D01*
X007936Y008876D01*
X007928Y008884D01*
X007829Y008925D01*
X006354Y008925D01*
X006350Y008933D01*
X006252Y009031D02*
X008058Y009031D01*
X008098Y009070D02*
X007960Y008933D01*
X008098Y009070D02*
X008278Y009145D01*
X009033Y009145D01*
X009213Y009070D01*
X008241Y009130D02*
X006069Y009130D01*
X006185Y009228D02*
X008125Y009228D01*
X008010Y009327D02*
X006300Y009327D01*
X006370Y009425D02*
X007940Y009425D01*
X007899Y009524D02*
X006411Y009524D01*
X006425Y009623D02*
X007885Y009623D01*
X007885Y009721D02*
X006425Y009721D01*
X006397Y009820D02*
X007913Y009820D01*
X007954Y009918D02*
X006356Y009918D01*
X006266Y010017D02*
X008044Y010017D01*
X008206Y010115D02*
X006105Y010115D01*
X006033Y010165D02*
X006213Y010240D01*
X006350Y010378D01*
X006425Y010558D01*
X006425Y010753D01*
X006350Y010933D01*
X006213Y011070D01*
X006033Y011145D01*
X005278Y011145D01*
X005098Y011070D01*
X004960Y010933D01*
X004885Y010753D01*
X004885Y010558D01*
X004960Y010378D01*
X005098Y010240D01*
X005278Y010165D01*
X006033Y010165D01*
X006150Y010214D02*
X010305Y010214D01*
X010305Y011101D02*
X006140Y011101D01*
X006115Y011199D02*
X010305Y011199D01*
X010345Y012086D02*
X006175Y012086D01*
X006213Y012070D02*
X006033Y012145D01*
X005278Y012145D01*
X005098Y012070D01*
X004960Y011933D01*
X004885Y011753D01*
X004885Y011558D01*
X004960Y011378D01*
X005098Y011240D01*
X005278Y011165D01*
X006033Y011165D01*
X006213Y011240D01*
X006350Y011378D01*
X006425Y011558D01*
X006425Y011753D01*
X006350Y011933D01*
X006213Y012070D01*
X006296Y011988D02*
X008101Y011988D01*
X008095Y011983D02*
X008047Y011935D01*
X008007Y011880D01*
X007977Y011820D01*
X007956Y011756D01*
X007945Y011689D01*
X007945Y011685D01*
X008625Y011685D01*
X008625Y012085D01*
X008341Y012085D01*
X008274Y012074D01*
X008210Y012054D01*
X008150Y012023D01*
X008095Y011983D01*
X008014Y011889D02*
X006369Y011889D01*
X006409Y011791D02*
X007967Y011791D01*
X007946Y011692D02*
X006425Y011692D01*
X006425Y011593D02*
X007949Y011593D01*
X007945Y011621D02*
X007956Y011554D01*
X007977Y011490D01*
X008007Y011430D01*
X008047Y011375D01*
X008095Y011327D01*
X008150Y011287D01*
X008210Y011257D01*
X008274Y011236D01*
X008341Y011225D01*
X008625Y011225D01*
X008625Y011625D01*
X007945Y011625D01*
X007945Y011621D01*
X007975Y011495D02*
X006399Y011495D01*
X006358Y011396D02*
X008032Y011396D01*
X008135Y011298D02*
X006271Y011298D01*
X006281Y011002D02*
X008121Y011002D01*
X008095Y010983D02*
X008047Y010935D01*
X008007Y010880D01*
X007977Y010820D01*
X007956Y010756D01*
X007945Y010689D01*
X007945Y010685D01*
X008625Y010685D01*
X008625Y011085D01*
X008341Y011085D01*
X008274Y011074D01*
X008210Y011054D01*
X008150Y011023D01*
X008095Y010983D01*
X008024Y010904D02*
X006363Y010904D01*
X006403Y010805D02*
X007972Y010805D01*
X007948Y010707D02*
X006425Y010707D01*
X006425Y010608D02*
X007947Y010608D01*
X007945Y010621D02*
X007956Y010554D01*
X007977Y010490D01*
X008007Y010430D01*
X008047Y010375D01*
X008095Y010327D01*
X008150Y010287D01*
X008210Y010257D01*
X008274Y010236D01*
X008341Y010225D01*
X008625Y010225D01*
X008625Y010625D01*
X007945Y010625D01*
X007945Y010621D01*
X007970Y010509D02*
X006405Y010509D01*
X006364Y010411D02*
X008021Y010411D01*
X008115Y010312D02*
X006285Y010312D01*
X005206Y010115D02*
X000865Y010115D01*
X000865Y010017D02*
X005044Y010017D01*
X004954Y009918D02*
X000865Y009918D01*
X000865Y009820D02*
X004913Y009820D01*
X004885Y009721D02*
X000865Y009721D01*
X000865Y009623D02*
X001386Y009623D01*
X001267Y009524D02*
X000865Y009524D01*
X000865Y009425D02*
X001188Y009425D01*
X001147Y009327D02*
X000865Y009327D01*
X000865Y009228D02*
X001120Y009228D01*
X001120Y009130D02*
X000865Y009130D01*
X000865Y009031D02*
X001127Y009031D01*
X001168Y008933D02*
X000865Y008933D01*
X000865Y008834D02*
X001219Y008834D01*
X001318Y008736D02*
X000865Y008736D01*
X000865Y008637D02*
X001421Y008637D01*
X001282Y008539D02*
X000865Y008539D01*
X000865Y008440D02*
X001194Y008440D01*
X001153Y008341D02*
X000865Y008341D01*
X000865Y008243D02*
X001120Y008243D01*
X001120Y008144D02*
X000865Y008144D01*
X000865Y008046D02*
X001121Y008046D01*
X001162Y007947D02*
X000865Y007947D01*
X000865Y007849D02*
X001205Y007849D01*
X001303Y007750D02*
X000865Y007750D01*
X000865Y007652D02*
X001472Y007652D01*
X001838Y007652D02*
X004885Y007652D01*
X004885Y007558D02*
X004960Y007378D01*
X005098Y007240D01*
X005278Y007165D01*
X006033Y007165D01*
X006213Y007240D01*
X006350Y007378D01*
X006425Y007558D01*
X006425Y007753D01*
X006350Y007933D01*
X006213Y008070D01*
X006033Y008145D01*
X005278Y008145D01*
X005098Y008070D01*
X004960Y007933D01*
X004885Y007753D01*
X004885Y007558D01*
X004887Y007553D02*
X000865Y007553D01*
X000865Y007455D02*
X004928Y007455D01*
X004981Y007356D02*
X000865Y007356D01*
X000865Y007258D02*
X005080Y007258D01*
X005098Y007070D02*
X004960Y006933D01*
X004885Y006753D01*
X004885Y006558D01*
X004960Y006378D01*
X005098Y006240D01*
X005278Y006165D01*
X006033Y006165D01*
X006213Y006240D01*
X006350Y006378D01*
X006425Y006558D01*
X006425Y006753D01*
X006350Y006933D01*
X006213Y007070D01*
X006033Y007145D01*
X005278Y007145D01*
X005098Y007070D01*
X005087Y007060D02*
X000865Y007060D01*
X000865Y006962D02*
X004989Y006962D01*
X004931Y006863D02*
X000865Y006863D01*
X000865Y006765D02*
X004890Y006765D01*
X004885Y006666D02*
X004126Y006666D01*
X004312Y006568D02*
X004885Y006568D01*
X004922Y006469D02*
X004411Y006469D01*
X004459Y006371D02*
X004967Y006371D01*
X005065Y006272D02*
X004500Y006272D01*
X004505Y006174D02*
X005257Y006174D01*
X005108Y006075D02*
X004505Y006075D01*
X004596Y005976D02*
X005004Y005976D01*
X004937Y005878D02*
X004694Y005878D01*
X004793Y005779D02*
X004896Y005779D01*
X004423Y005385D02*
X004385Y005385D01*
X004377Y005401D02*
X004334Y005461D01*
X004281Y005514D01*
X004221Y005557D01*
X004156Y005591D01*
X004085Y005614D01*
X004012Y005625D01*
X003705Y005625D01*
X003705Y005205D01*
X003605Y005205D01*
X003605Y005105D01*
X003705Y005105D01*
X003705Y004685D01*
X004012Y004685D01*
X004085Y004697D01*
X004156Y004720D01*
X004221Y004753D01*
X004281Y004797D01*
X004334Y004849D01*
X004377Y004909D01*
X004411Y004975D01*
X004434Y005045D01*
X004443Y005105D01*
X003705Y005105D01*
X003705Y005205D01*
X004443Y005205D01*
X004434Y005265D01*
X004411Y005336D01*
X004377Y005401D01*
X004325Y005484D02*
X004311Y005484D01*
X004226Y005582D02*
X004172Y005582D01*
X004427Y005287D02*
X004522Y005287D01*
X004620Y005188D02*
X003705Y005188D01*
X003705Y005090D02*
X003605Y005090D01*
X003605Y005105D02*
X003605Y004685D01*
X003298Y004685D01*
X003225Y004697D01*
X003155Y004720D01*
X003089Y004753D01*
X003029Y004797D01*
X002977Y004849D01*
X002933Y004909D01*
X002905Y004964D01*
X002877Y004909D01*
X002834Y004849D01*
X002781Y004797D01*
X002721Y004753D01*
X002656Y004720D01*
X002585Y004697D01*
X002512Y004685D01*
X002205Y004685D01*
X002205Y005105D01*
X002105Y005105D01*
X002105Y004685D01*
X001798Y004685D01*
X001725Y004697D01*
X001655Y004720D01*
X001589Y004753D01*
X001529Y004797D01*
X001477Y004849D01*
X001433Y004909D01*
X001400Y004975D01*
X001377Y005045D01*
X001367Y005105D01*
X002105Y005105D01*
X002105Y005205D01*
X001367Y005205D01*
X001377Y005265D01*
X001400Y005336D01*
X001433Y005401D01*
X001477Y005461D01*
X001529Y005514D01*
X001589Y005557D01*
X001655Y005591D01*
X001725Y005614D01*
X001798Y005625D01*
X002105Y005625D01*
X002105Y005205D01*
X002205Y005205D01*
X002205Y005625D01*
X002512Y005625D01*
X002585Y005614D01*
X002656Y005591D01*
X002721Y005557D01*
X002781Y005514D01*
X002834Y005461D01*
X002877Y005401D01*
X002905Y005346D01*
X002933Y005401D01*
X002977Y005461D01*
X003029Y005514D01*
X003089Y005557D01*
X003155Y005591D01*
X003225Y005614D01*
X003298Y005625D01*
X003605Y005625D01*
X003605Y005205D01*
X002943Y005205D01*
X002205Y005205D01*
X002205Y005105D01*
X002943Y005105D01*
X003605Y005105D01*
X003605Y005188D02*
X002205Y005188D01*
X002205Y005090D02*
X002105Y005090D01*
X002105Y005188D02*
X000865Y005188D01*
X000865Y005090D02*
X001370Y005090D01*
X001394Y004991D02*
X000865Y004991D01*
X000865Y004892D02*
X001445Y004892D01*
X001533Y004794D02*
X000865Y004794D01*
X000865Y004695D02*
X001733Y004695D01*
X001527Y004597D02*
X000865Y004597D01*
X000865Y004498D02*
X001429Y004498D01*
X001363Y004400D02*
X000865Y004400D01*
X000865Y004301D02*
X001322Y004301D01*
X001305Y004203D02*
X000865Y004203D01*
X000865Y004104D02*
X001305Y004104D01*
X001323Y004006D02*
X000865Y004006D01*
X000865Y003907D02*
X001364Y003907D01*
X001432Y003809D02*
X000865Y003809D01*
X000865Y003710D02*
X001531Y003710D01*
X002105Y004695D02*
X002205Y004695D01*
X002205Y004794D02*
X002105Y004794D01*
X002105Y004892D02*
X002205Y004892D01*
X002205Y004991D02*
X002105Y004991D01*
X002105Y005287D02*
X002205Y005287D01*
X002205Y005385D02*
X002105Y005385D01*
X002105Y005484D02*
X002205Y005484D01*
X002205Y005582D02*
X002105Y005582D01*
X001638Y005582D02*
X000865Y005582D01*
X000865Y005484D02*
X001499Y005484D01*
X001425Y005385D02*
X000865Y005385D01*
X000865Y005287D02*
X001384Y005287D01*
X001595Y005681D02*
X000865Y005681D01*
X000865Y005779D02*
X001461Y005779D01*
X001376Y005878D02*
X000865Y005878D01*
X000865Y005976D02*
X001335Y005976D01*
X001305Y006075D02*
X000865Y006075D01*
X000865Y006174D02*
X001305Y006174D01*
X001310Y006272D02*
X000865Y006272D01*
X000865Y006371D02*
X001351Y006371D01*
X001400Y006469D02*
X000865Y006469D01*
X000865Y006568D02*
X001498Y006568D01*
X001684Y006666D02*
X000865Y006666D01*
X000865Y007159D02*
X007177Y007159D01*
X007079Y007060D02*
X006223Y007060D01*
X006321Y006962D02*
X006980Y006962D01*
X006882Y006863D02*
X006379Y006863D01*
X006420Y006765D02*
X006783Y006765D01*
X006684Y006666D02*
X006425Y006666D01*
X006425Y006568D02*
X006586Y006568D01*
X006487Y006469D02*
X006388Y006469D01*
X006389Y006371D02*
X006344Y006371D01*
X006290Y006272D02*
X006245Y006272D01*
X006192Y006174D02*
X006053Y006174D01*
X006857Y006075D02*
X008108Y006075D01*
X008257Y006174D02*
X006955Y006174D01*
X007054Y006272D02*
X008065Y006272D01*
X007967Y006371D02*
X007152Y006371D01*
X007251Y006469D02*
X007922Y006469D01*
X007885Y006568D02*
X007350Y006568D01*
X007448Y006666D02*
X007885Y006666D01*
X007890Y006765D02*
X007547Y006765D01*
X007645Y006863D02*
X007931Y006863D01*
X007989Y006962D02*
X007744Y006962D01*
X007842Y007060D02*
X008087Y007060D01*
X008080Y007258D02*
X007885Y007258D01*
X007884Y007159D02*
X009689Y007159D01*
X009591Y007258D02*
X009230Y007258D01*
X009329Y007356D02*
X009492Y007356D01*
X009394Y007455D02*
X009382Y007455D01*
X009223Y007060D02*
X009788Y007060D01*
X007981Y007356D02*
X007936Y007356D01*
X007294Y007356D02*
X006329Y007356D01*
X006382Y007455D02*
X007238Y007455D01*
X007205Y007553D02*
X006423Y007553D01*
X006425Y007652D02*
X007205Y007652D01*
X007227Y007750D02*
X006425Y007750D01*
X006385Y007849D02*
X007269Y007849D01*
X007368Y007947D02*
X006336Y007947D01*
X006237Y008046D02*
X008003Y008046D01*
X007974Y007947D02*
X007863Y007947D01*
X007904Y008144D02*
X006034Y008144D01*
X006216Y008243D02*
X007805Y008243D01*
X007707Y008341D02*
X006314Y008341D01*
X005276Y008144D02*
X002190Y008144D01*
X002189Y008046D02*
X005073Y008046D01*
X004974Y007947D02*
X002148Y007947D01*
X002105Y007849D02*
X004925Y007849D01*
X004885Y007750D02*
X002007Y007750D01*
X002190Y008243D02*
X005094Y008243D01*
X004996Y008341D02*
X002157Y008341D01*
X002116Y008440D02*
X004934Y008440D01*
X006230Y007258D02*
X007276Y007258D01*
X004916Y004892D02*
X004365Y004892D01*
X004416Y004991D02*
X004817Y004991D01*
X004719Y005090D02*
X004441Y005090D01*
X004278Y004794D02*
X005014Y004794D01*
X005113Y004695D02*
X004077Y004695D01*
X003705Y004695D02*
X003605Y004695D01*
X003605Y004794D02*
X003705Y004794D01*
X003705Y004892D02*
X003605Y004892D01*
X003605Y004991D02*
X003705Y004991D01*
X003705Y005287D02*
X003605Y005287D01*
X003605Y005385D02*
X003705Y005385D01*
X003705Y005484D02*
X003605Y005484D01*
X003605Y005582D02*
X003705Y005582D01*
X003138Y005582D02*
X002672Y005582D01*
X002715Y005681D02*
X003095Y005681D01*
X002961Y005779D02*
X002849Y005779D01*
X002811Y005484D02*
X002999Y005484D01*
X002925Y005385D02*
X002885Y005385D01*
X002865Y004892D02*
X002945Y004892D01*
X003033Y004794D02*
X002778Y004794D01*
X002783Y004597D02*
X003027Y004597D01*
X002929Y004498D02*
X002881Y004498D01*
X002577Y004695D02*
X003233Y004695D01*
X002998Y006568D02*
X002812Y006568D01*
X002626Y006666D02*
X003184Y006666D01*
X005160Y010214D02*
X000865Y010214D01*
X000865Y010312D02*
X005025Y010312D01*
X004946Y010411D02*
X000865Y010411D01*
X000865Y010509D02*
X004905Y010509D01*
X004885Y010608D02*
X000865Y010608D01*
X000865Y010707D02*
X001347Y010707D01*
X001352Y010702D02*
X001549Y010620D01*
X001762Y010620D01*
X001958Y010702D01*
X002109Y010852D01*
X002190Y011049D01*
X002190Y011262D01*
X002109Y011458D01*
X001958Y011609D01*
X001846Y011655D01*
X001958Y011702D01*
X002109Y011852D01*
X002190Y012049D01*
X002190Y012262D01*
X002109Y012458D01*
X001958Y012609D01*
X001762Y012690D01*
X001549Y012690D01*
X001352Y012609D01*
X001202Y012458D01*
X001120Y012262D01*
X001120Y012049D01*
X001202Y011852D01*
X001352Y011702D01*
X001464Y011655D01*
X001352Y011609D01*
X001202Y011458D01*
X001120Y011262D01*
X001120Y011049D01*
X001202Y010852D01*
X001352Y010702D01*
X001249Y010805D02*
X000865Y010805D01*
X000865Y010904D02*
X001180Y010904D01*
X001139Y011002D02*
X000865Y011002D01*
X000865Y011101D02*
X001120Y011101D01*
X001120Y011199D02*
X000865Y011199D01*
X000865Y011298D02*
X001135Y011298D01*
X001176Y011396D02*
X000865Y011396D01*
X000865Y011495D02*
X001238Y011495D01*
X001337Y011593D02*
X000865Y011593D01*
X000865Y011692D02*
X001375Y011692D01*
X001263Y011791D02*
X000865Y011791D01*
X000865Y011889D02*
X001186Y011889D01*
X001145Y011988D02*
X000865Y011988D01*
X000865Y012086D02*
X001120Y012086D01*
X001120Y012185D02*
X000865Y012185D01*
X000865Y012283D02*
X001129Y012283D01*
X001170Y012382D02*
X000865Y012382D01*
X000865Y012480D02*
X001224Y012480D01*
X001322Y012579D02*
X000865Y012579D01*
X000865Y012677D02*
X001518Y012677D01*
X001792Y012677D02*
X003620Y012677D01*
X003620Y012762D02*
X003620Y012549D01*
X003702Y012352D01*
X003852Y012202D01*
X004049Y012120D01*
X004262Y012120D01*
X004458Y012202D01*
X004609Y012352D01*
X004690Y012549D01*
X004690Y012762D01*
X004609Y012958D01*
X004458Y013109D01*
X004262Y013190D01*
X004255Y013190D01*
X004266Y013192D01*
X004337Y013215D01*
X004404Y013249D01*
X004465Y013293D01*
X004517Y013346D01*
X004561Y013406D01*
X004595Y013473D01*
X004618Y013544D01*
X004630Y013618D01*
X004630Y013636D01*
X004174Y013636D01*
X004174Y013674D01*
X004630Y013674D01*
X004630Y013692D01*
X004618Y013766D01*
X004595Y013837D01*
X004561Y013904D01*
X004517Y013965D01*
X004465Y014017D01*
X004404Y014061D01*
X004337Y014095D01*
X004266Y014118D01*
X004192Y014130D01*
X004174Y014130D01*
X004174Y013674D01*
X004136Y013674D01*
X004136Y013636D01*
X003680Y013636D01*
X003680Y013618D01*
X003692Y013544D01*
X003715Y013473D01*
X003749Y013406D01*
X003793Y013346D01*
X003846Y013293D01*
X003906Y013249D01*
X003973Y013215D01*
X004044Y013192D01*
X004055Y013190D01*
X004049Y013190D01*
X003852Y013109D01*
X003702Y012958D01*
X003620Y012762D01*
X003626Y012776D02*
X000865Y012776D01*
X000865Y012874D02*
X003667Y012874D01*
X003716Y012973D02*
X000865Y012973D01*
X000865Y013072D02*
X003815Y013072D01*
X003879Y013269D02*
X000865Y013269D01*
X000865Y013367D02*
X003777Y013367D01*
X003718Y013466D02*
X000865Y013466D01*
X000865Y013564D02*
X003689Y013564D01*
X003680Y013674D02*
X004136Y013674D01*
X004136Y014130D01*
X004118Y014130D01*
X004044Y014118D01*
X003973Y014095D01*
X003906Y014061D01*
X003846Y014017D01*
X003793Y013965D01*
X003749Y013904D01*
X003715Y013837D01*
X003692Y013766D01*
X003680Y013692D01*
X003680Y013674D01*
X003691Y013761D02*
X000865Y013761D01*
X000865Y013663D02*
X004136Y013663D01*
X004174Y013663D02*
X004885Y013663D01*
X004885Y013753D02*
X004885Y013558D01*
X004960Y013378D01*
X005098Y013240D01*
X005278Y013165D01*
X006033Y013165D01*
X006213Y013240D01*
X006350Y013378D01*
X006425Y013558D01*
X006425Y013753D01*
X006350Y013933D01*
X006213Y014070D01*
X006033Y014145D01*
X005278Y014145D01*
X005098Y014070D01*
X004960Y013933D01*
X004885Y013753D01*
X004889Y013761D02*
X004619Y013761D01*
X004584Y013860D02*
X004930Y013860D01*
X004986Y013958D02*
X004522Y013958D01*
X004410Y014057D02*
X005084Y014057D01*
X005098Y014240D02*
X004960Y014378D01*
X004885Y014558D01*
X004885Y014753D01*
X004960Y014933D01*
X005098Y015070D01*
X005278Y015145D01*
X006033Y015145D01*
X006213Y015070D01*
X006350Y014933D01*
X006425Y014753D01*
X006425Y014558D01*
X006350Y014378D01*
X006213Y014240D01*
X006033Y014165D01*
X005278Y014165D01*
X005098Y014240D01*
X005083Y014254D02*
X000865Y014254D01*
X000865Y014156D02*
X016174Y014156D01*
X016272Y014254D02*
X015227Y014254D01*
X015326Y014353D02*
X016371Y014353D01*
X016469Y014451D02*
X015381Y014451D01*
X015422Y014550D02*
X016568Y014550D01*
X016625Y014648D02*
X015425Y014648D01*
X015425Y014747D02*
X016625Y014747D01*
X016625Y014845D02*
X015387Y014845D01*
X015339Y014944D02*
X016625Y014944D01*
X016625Y015042D02*
X015241Y015042D01*
X015212Y015240D02*
X016532Y015240D01*
X016492Y015338D02*
X015311Y015338D01*
X015375Y015437D02*
X016492Y015437D01*
X016495Y015535D02*
X015416Y015535D01*
X015425Y015634D02*
X016535Y015634D01*
X016553Y015724D02*
X016373Y015649D01*
X016178Y015649D01*
X015998Y015724D01*
X015860Y015862D01*
X015785Y016042D01*
X015785Y016237D01*
X015860Y016417D01*
X016393Y016950D01*
X016574Y017025D01*
X016769Y017025D01*
X016949Y016950D01*
X017086Y016813D01*
X017161Y016632D01*
X017161Y016438D01*
X017086Y016257D01*
X016553Y015724D01*
X016561Y015732D02*
X016590Y015732D01*
X016660Y015831D02*
X016688Y015831D01*
X016758Y015929D02*
X016787Y015929D01*
X016857Y016028D02*
X016885Y016028D01*
X016955Y016126D02*
X016984Y016126D01*
X017054Y016225D02*
X017082Y016225D01*
X017114Y016324D02*
X018022Y016324D01*
X018120Y016422D02*
X017155Y016422D01*
X017161Y016521D02*
X018219Y016521D01*
X018317Y016619D02*
X017161Y016619D01*
X017126Y016718D02*
X018416Y016718D01*
X018514Y016816D02*
X017083Y016816D01*
X016984Y016915D02*
X018613Y016915D01*
X018712Y017013D02*
X016797Y017013D01*
X016545Y017013D02*
X015270Y017013D01*
X015213Y017070D02*
X015350Y016933D01*
X015425Y016753D01*
X015425Y016558D01*
X015350Y016378D01*
X015213Y016240D01*
X015033Y016165D01*
X014278Y016165D01*
X014098Y016240D01*
X013960Y016378D01*
X013885Y016558D01*
X013885Y016753D01*
X013960Y016933D01*
X014098Y017070D01*
X014278Y017145D01*
X015033Y017145D01*
X015213Y017070D01*
X015113Y017112D02*
X018810Y017112D01*
X018909Y017210D02*
X009142Y017210D01*
X009213Y017240D02*
X009350Y017378D01*
X009425Y017558D01*
X009425Y017753D01*
X009350Y017933D01*
X009213Y018070D01*
X009033Y018145D01*
X008278Y018145D01*
X008098Y018070D01*
X007960Y017933D01*
X007885Y017753D01*
X007885Y017558D01*
X007960Y017378D01*
X008098Y017240D01*
X008278Y017165D01*
X009033Y017165D01*
X009213Y017240D01*
X009282Y017309D02*
X019007Y017309D01*
X018899Y017407D02*
X018307Y017407D01*
X018479Y017506D02*
X018775Y017506D01*
X018693Y017605D02*
X018573Y017605D01*
X018614Y017703D02*
X018653Y017703D01*
X018004Y017407D02*
X017307Y017407D01*
X017479Y017506D02*
X017831Y017506D01*
X017737Y017605D02*
X017573Y017605D01*
X017614Y017703D02*
X017696Y017703D01*
X017665Y017802D02*
X017645Y017802D01*
X017645Y017900D02*
X017665Y017900D01*
X017665Y017999D02*
X017645Y017999D01*
X017645Y018097D02*
X017665Y018097D01*
X017665Y018196D02*
X017645Y018196D01*
X017645Y018294D02*
X017665Y018294D01*
X017665Y018393D02*
X017645Y018393D01*
X017645Y018491D02*
X017665Y018491D01*
X017689Y018590D02*
X017621Y018590D01*
X017580Y018689D02*
X017730Y018689D01*
X017814Y018787D02*
X017496Y018787D01*
X017348Y018886D02*
X017962Y018886D01*
X018348Y018886D02*
X018858Y018886D01*
X018758Y018787D02*
X018496Y018787D01*
X018580Y018689D02*
X018686Y018689D01*
X018646Y018590D02*
X018621Y018590D01*
X019869Y017407D02*
X020004Y017407D01*
X019771Y017309D02*
X022367Y017309D01*
X022411Y017407D02*
X022466Y017407D01*
X022536Y017506D02*
X022564Y017506D01*
X022617Y017605D02*
X022663Y017605D01*
X022657Y017703D02*
X022696Y017703D01*
X023131Y017309D02*
X024381Y017309D01*
X024480Y017210D02*
X023032Y017210D01*
X022934Y017112D02*
X024579Y017112D01*
X024677Y017013D02*
X022835Y017013D01*
X022737Y016915D02*
X024725Y016915D01*
X024708Y016983D02*
X024708Y016983D01*
X024725Y016816D02*
X022638Y016816D01*
X022539Y016718D02*
X024725Y016718D01*
X024725Y016619D02*
X022441Y016619D01*
X022342Y016521D02*
X024725Y016521D01*
X024725Y016422D02*
X022244Y016422D01*
X022145Y016324D02*
X024725Y016324D01*
X024725Y016225D02*
X022047Y016225D01*
X021948Y016126D02*
X024725Y016126D01*
X024725Y016028D02*
X021850Y016028D01*
X021751Y015929D02*
X024725Y015929D01*
X024725Y015831D02*
X021653Y015831D01*
X021554Y015732D02*
X024725Y015732D01*
X024725Y015634D02*
X021456Y015634D01*
X021357Y015535D02*
X024725Y015535D01*
X024725Y015437D02*
X021258Y015437D01*
X021160Y015338D02*
X024725Y015338D01*
X024725Y015240D02*
X021061Y015240D01*
X020963Y015141D02*
X024725Y015141D01*
X024725Y015042D02*
X020864Y015042D01*
X020593Y015535D02*
X018364Y015535D01*
X018194Y015732D02*
X020790Y015732D01*
X020692Y015634D02*
X017828Y015634D01*
X017807Y015535D02*
X017778Y015535D01*
X017708Y015437D02*
X017680Y015437D01*
X017610Y015338D02*
X017581Y015338D01*
X017511Y015240D02*
X017483Y015240D01*
X017412Y015141D02*
X017384Y015141D01*
X017314Y015042D02*
X017286Y015042D01*
X017250Y014944D02*
X017165Y014944D01*
X017165Y014845D02*
X017209Y014845D01*
X017199Y014747D02*
X017165Y014747D01*
X017165Y014648D02*
X017199Y014648D01*
X017165Y014550D02*
X017232Y014550D01*
X017272Y014451D02*
X017165Y014451D01*
X017128Y014353D02*
X017331Y014353D01*
X017232Y014254D02*
X017036Y014254D01*
X017048Y014266D02*
X017048Y014266D01*
X017134Y014156D02*
X016937Y014156D01*
X016839Y014057D02*
X017035Y014057D01*
X016937Y013958D02*
X016740Y013958D01*
X016642Y013860D02*
X016838Y013860D01*
X016740Y013761D02*
X016543Y013761D01*
X016445Y013663D02*
X016641Y013663D01*
X016543Y013564D02*
X016346Y013564D01*
X016248Y013466D02*
X016444Y013466D01*
X016345Y013367D02*
X016149Y013367D01*
X016247Y013269D02*
X016050Y013269D01*
X015952Y013170D02*
X016148Y013170D01*
X016050Y013072D02*
X015853Y013072D01*
X015755Y012973D02*
X015951Y012973D01*
X015853Y012874D02*
X015656Y012874D01*
X015558Y012776D02*
X015754Y012776D01*
X015656Y012677D02*
X015459Y012677D01*
X015425Y012579D02*
X015557Y012579D01*
X015459Y012480D02*
X015393Y012480D01*
X015360Y012382D02*
X015352Y012382D01*
X015261Y012283D02*
X015256Y012283D01*
X015163Y012185D02*
X015080Y012185D01*
X015045Y013170D02*
X015188Y013170D01*
X015242Y013269D02*
X015287Y013269D01*
X015340Y013367D02*
X015385Y013367D01*
X015387Y013466D02*
X015484Y013466D01*
X015425Y013564D02*
X015583Y013564D01*
X015681Y013663D02*
X015425Y013663D01*
X015421Y013761D02*
X015780Y013761D01*
X015878Y013860D02*
X015381Y013860D01*
X015325Y013958D02*
X015977Y013958D01*
X016075Y014057D02*
X015226Y014057D01*
X015042Y015141D02*
X016580Y015141D01*
X015989Y015732D02*
X015425Y015732D01*
X015393Y015831D02*
X015891Y015831D01*
X015832Y015929D02*
X015352Y015929D01*
X015255Y016028D02*
X015791Y016028D01*
X015785Y016126D02*
X015078Y016126D01*
X015177Y016225D02*
X015785Y016225D01*
X015821Y016324D02*
X015296Y016324D01*
X015369Y016422D02*
X015865Y016422D01*
X015964Y016521D02*
X015410Y016521D01*
X015425Y016619D02*
X016062Y016619D01*
X016161Y016718D02*
X015425Y016718D01*
X015399Y016816D02*
X016259Y016816D01*
X016358Y016915D02*
X015358Y016915D01*
X014197Y017112D02*
X012113Y017112D01*
X012033Y017145D02*
X012213Y017070D01*
X012350Y016933D01*
X012425Y016753D01*
X012425Y016558D01*
X012350Y016378D01*
X012213Y016240D01*
X012033Y016165D01*
X011278Y016165D01*
X011098Y016240D01*
X010960Y016378D01*
X010885Y016558D01*
X010885Y016753D01*
X010960Y016933D01*
X011098Y017070D01*
X011278Y017145D01*
X012033Y017145D01*
X012270Y017013D02*
X014040Y017013D01*
X013952Y016915D02*
X012358Y016915D01*
X012399Y016816D02*
X013911Y016816D01*
X013885Y016718D02*
X012425Y016718D01*
X012425Y016619D02*
X013885Y016619D01*
X013900Y016521D02*
X012410Y016521D01*
X012369Y016422D02*
X013941Y016422D01*
X014014Y016324D02*
X012296Y016324D01*
X012177Y016225D02*
X014133Y016225D01*
X014233Y016126D02*
X009078Y016126D01*
X009033Y016165D02*
X009213Y016240D01*
X009350Y016378D01*
X009425Y016558D01*
X009425Y016753D01*
X009350Y016933D01*
X009213Y017070D01*
X009033Y017145D01*
X008278Y017145D01*
X008098Y017070D01*
X007960Y016933D01*
X007885Y016753D01*
X007885Y016558D01*
X007960Y016378D01*
X008098Y016240D01*
X008278Y016165D01*
X009033Y016165D01*
X009177Y016225D02*
X011133Y016225D01*
X011014Y016324D02*
X009296Y016324D01*
X009369Y016422D02*
X010941Y016422D01*
X010900Y016521D02*
X009410Y016521D01*
X009425Y016619D02*
X010885Y016619D01*
X010885Y016718D02*
X009425Y016718D01*
X009399Y016816D02*
X010911Y016816D01*
X010952Y016915D02*
X009358Y016915D01*
X009270Y017013D02*
X011040Y017013D01*
X011197Y017112D02*
X009113Y017112D01*
X009363Y017407D02*
X017004Y017407D01*
X016831Y017506D02*
X009404Y017506D01*
X009425Y017605D02*
X016737Y017605D01*
X016696Y017703D02*
X009425Y017703D01*
X009405Y017802D02*
X016665Y017802D01*
X016665Y017900D02*
X009364Y017900D01*
X009284Y017999D02*
X016665Y017999D01*
X016665Y018097D02*
X009148Y018097D01*
X009107Y018196D02*
X016665Y018196D01*
X016665Y018294D02*
X009267Y018294D01*
X009299Y018984D02*
X012922Y018984D01*
X013021Y019083D02*
X009183Y019083D01*
X008127Y019083D02*
X006183Y019083D01*
X006213Y019070D02*
X006033Y019145D01*
X005278Y019145D01*
X005098Y019070D01*
X004960Y018933D01*
X004885Y018753D01*
X004885Y018558D01*
X004960Y018378D01*
X005098Y018240D01*
X005278Y018165D01*
X006033Y018165D01*
X006213Y018240D01*
X006350Y018378D01*
X006425Y018558D01*
X006425Y018753D01*
X006350Y018933D01*
X006213Y019070D01*
X006299Y018984D02*
X008011Y018984D01*
X007940Y018886D02*
X006370Y018886D01*
X006411Y018787D02*
X007899Y018787D01*
X007885Y018689D02*
X006425Y018689D01*
X006425Y018590D02*
X007885Y018590D01*
X007913Y018491D02*
X006398Y018491D01*
X006357Y018393D02*
X007953Y018393D01*
X008043Y018294D02*
X006267Y018294D01*
X006107Y018196D02*
X008203Y018196D01*
X008162Y018097D02*
X006148Y018097D01*
X006213Y018070D02*
X006033Y018145D01*
X005278Y018145D01*
X005098Y018070D01*
X004960Y017933D01*
X004885Y017753D01*
X004885Y017558D01*
X004960Y017378D01*
X005098Y017240D01*
X005278Y017165D01*
X006033Y017165D01*
X006213Y017240D01*
X006350Y017378D01*
X006425Y017558D01*
X006425Y017753D01*
X006350Y017933D01*
X006213Y018070D01*
X006284Y017999D02*
X008026Y017999D01*
X007946Y017900D02*
X006364Y017900D01*
X006405Y017802D02*
X007905Y017802D01*
X007885Y017703D02*
X006425Y017703D01*
X006425Y017605D02*
X007885Y017605D01*
X007906Y017506D02*
X006404Y017506D01*
X006363Y017407D02*
X007947Y017407D01*
X008028Y017309D02*
X006282Y017309D01*
X006142Y017210D02*
X008168Y017210D01*
X008197Y017112D02*
X006113Y017112D01*
X006270Y017013D02*
X008040Y017013D01*
X007952Y016915D02*
X006358Y016915D01*
X006399Y016816D02*
X007911Y016816D01*
X007885Y016718D02*
X006425Y016718D01*
X006425Y016619D02*
X007885Y016619D01*
X007900Y016521D02*
X006410Y016521D01*
X006369Y016422D02*
X007941Y016422D01*
X008014Y016324D02*
X006296Y016324D01*
X006177Y016225D02*
X008133Y016225D01*
X008233Y016126D02*
X006078Y016126D01*
X006255Y016028D02*
X008055Y016028D01*
X007958Y015929D02*
X006352Y015929D01*
X006393Y015831D02*
X007918Y015831D01*
X007885Y015732D02*
X006425Y015732D01*
X006425Y015634D02*
X007885Y015634D01*
X007894Y015535D02*
X006416Y015535D01*
X006375Y015437D02*
X007935Y015437D01*
X007999Y015338D02*
X006311Y015338D01*
X006213Y015240D02*
X006033Y015165D01*
X005278Y015165D01*
X005098Y015240D01*
X005268Y015141D02*
X000865Y015141D01*
X000865Y015042D02*
X005069Y015042D01*
X004971Y014944D02*
X000865Y014944D01*
X000865Y014845D02*
X004924Y014845D01*
X004885Y014747D02*
X000865Y014747D01*
X000865Y014648D02*
X004885Y014648D01*
X004888Y014550D02*
X000865Y014550D01*
X000865Y014451D02*
X004929Y014451D01*
X004985Y014353D02*
X000865Y014353D01*
X000865Y014057D02*
X003900Y014057D01*
X003788Y013958D02*
X000865Y013958D01*
X000865Y013860D02*
X003726Y013860D01*
X004136Y013860D02*
X004174Y013860D01*
X004174Y013958D02*
X004136Y013958D01*
X004136Y014057D02*
X004174Y014057D01*
X004174Y013761D02*
X004136Y013761D01*
X004622Y013564D02*
X004885Y013564D01*
X004923Y013466D02*
X004592Y013466D01*
X004533Y013367D02*
X004970Y013367D01*
X005069Y013269D02*
X004431Y013269D01*
X004310Y013170D02*
X005266Y013170D01*
X005274Y013074D02*
X005210Y013054D01*
X005150Y013023D01*
X005095Y012983D01*
X005047Y012935D01*
X005007Y012880D01*
X004977Y012820D01*
X004956Y012756D01*
X004945Y012689D01*
X004945Y012685D01*
X005625Y012685D01*
X005625Y012625D01*
X005685Y012625D01*
X005685Y012225D01*
X005969Y012225D01*
X006036Y012236D01*
X006100Y012257D01*
X006160Y012287D01*
X006215Y012327D01*
X006263Y012375D01*
X006303Y012430D01*
X006334Y012490D01*
X006354Y012554D01*
X006365Y012621D01*
X006365Y012625D01*
X005685Y012625D01*
X005685Y012685D01*
X005625Y012685D01*
X005625Y013085D01*
X005341Y013085D01*
X005274Y013074D01*
X005265Y013072D02*
X004495Y013072D01*
X004594Y012973D02*
X005085Y012973D01*
X005004Y012874D02*
X004643Y012874D01*
X004684Y012776D02*
X004962Y012776D01*
X004945Y012625D02*
X004945Y012621D01*
X004956Y012554D01*
X004977Y012490D01*
X005007Y012430D01*
X005047Y012375D01*
X005095Y012327D01*
X005150Y012287D01*
X005210Y012257D01*
X005274Y012236D01*
X005341Y012225D01*
X005625Y012225D01*
X005625Y012625D01*
X004945Y012625D01*
X004952Y012579D02*
X004690Y012579D01*
X004690Y012677D02*
X005625Y012677D01*
X005685Y012677D02*
X007885Y012677D01*
X007885Y012579D02*
X006358Y012579D01*
X006329Y012480D02*
X007917Y012480D01*
X007958Y012382D02*
X006268Y012382D01*
X006152Y012283D02*
X008054Y012283D01*
X008230Y012185D02*
X004417Y012185D01*
X004540Y012283D02*
X005158Y012283D01*
X005042Y012382D02*
X004621Y012382D01*
X004662Y012480D02*
X004982Y012480D01*
X005135Y012086D02*
X002190Y012086D01*
X002190Y012185D02*
X003893Y012185D01*
X003770Y012283D02*
X002181Y012283D01*
X002140Y012382D02*
X003689Y012382D01*
X003648Y012480D02*
X002086Y012480D01*
X001988Y012579D02*
X003620Y012579D01*
X004001Y013170D02*
X000865Y013170D01*
X002165Y011988D02*
X005015Y011988D01*
X004942Y011889D02*
X002124Y011889D01*
X002047Y011791D02*
X004901Y011791D01*
X004885Y011692D02*
X001935Y011692D01*
X001973Y011593D02*
X002837Y011593D01*
X002852Y011609D02*
X002702Y011458D01*
X002620Y011262D01*
X002620Y011049D01*
X002702Y010852D01*
X002852Y010702D01*
X003049Y010620D01*
X003262Y010620D01*
X003458Y010702D01*
X003609Y010852D01*
X003690Y011049D01*
X003690Y011262D01*
X003609Y011458D01*
X003458Y011609D01*
X003262Y011690D01*
X003049Y011690D01*
X002852Y011609D01*
X002738Y011495D02*
X002072Y011495D01*
X002134Y011396D02*
X002676Y011396D01*
X002635Y011298D02*
X002175Y011298D01*
X002190Y011199D02*
X002620Y011199D01*
X002620Y011101D02*
X002190Y011101D01*
X002171Y011002D02*
X002639Y011002D01*
X002680Y010904D02*
X002130Y010904D01*
X002062Y010805D02*
X002749Y010805D01*
X002847Y010707D02*
X001963Y010707D01*
X003463Y010707D02*
X004885Y010707D01*
X004907Y010805D02*
X003562Y010805D01*
X003630Y010904D02*
X004948Y010904D01*
X005029Y011002D02*
X003671Y011002D01*
X003690Y011101D02*
X005171Y011101D01*
X005195Y011199D02*
X003690Y011199D01*
X003675Y011298D02*
X005039Y011298D01*
X004952Y011396D02*
X003634Y011396D01*
X003572Y011495D02*
X004911Y011495D01*
X004885Y011593D02*
X003473Y011593D01*
X005625Y012283D02*
X005685Y012283D01*
X005685Y012382D02*
X005625Y012382D01*
X005625Y012480D02*
X005685Y012480D01*
X005685Y012579D02*
X005625Y012579D01*
X005685Y012685D02*
X006365Y012685D01*
X006365Y012689D01*
X006354Y012756D01*
X006334Y012820D01*
X006303Y012880D01*
X006263Y012935D01*
X006215Y012983D01*
X006160Y013023D01*
X006100Y013054D01*
X006036Y013074D01*
X005969Y013085D01*
X005685Y013085D01*
X005685Y012685D01*
X005685Y012776D02*
X005625Y012776D01*
X005625Y012874D02*
X005685Y012874D01*
X005685Y012973D02*
X005625Y012973D01*
X005625Y013072D02*
X005685Y013072D01*
X006045Y013072D02*
X008100Y013072D01*
X008000Y012973D02*
X006225Y012973D01*
X006306Y012874D02*
X007936Y012874D01*
X007895Y012776D02*
X006348Y012776D01*
X006045Y013170D02*
X008266Y013170D01*
X008278Y013165D02*
X008098Y013240D01*
X007960Y013378D01*
X007885Y013558D01*
X007885Y013753D01*
X007960Y013933D01*
X008098Y014070D01*
X008278Y014145D01*
X009033Y014145D01*
X009213Y014070D01*
X009350Y013933D01*
X009425Y013753D01*
X009425Y013558D01*
X009350Y013378D01*
X009213Y013240D01*
X009033Y013165D01*
X008278Y013165D01*
X008069Y013269D02*
X006242Y013269D01*
X006340Y013367D02*
X007970Y013367D01*
X007923Y013466D02*
X006387Y013466D01*
X006425Y013564D02*
X007885Y013564D01*
X007885Y013663D02*
X006425Y013663D01*
X006421Y013761D02*
X007889Y013761D01*
X007930Y013860D02*
X006381Y013860D01*
X006325Y013958D02*
X007986Y013958D01*
X008084Y014057D02*
X006226Y014057D01*
X006227Y014254D02*
X008083Y014254D01*
X008098Y014240D02*
X008278Y014165D01*
X009033Y014165D01*
X009213Y014240D01*
X009350Y014378D01*
X009425Y014558D01*
X009425Y014753D01*
X009350Y014933D01*
X009213Y015070D01*
X009033Y015145D01*
X008278Y015145D01*
X008098Y015070D01*
X007960Y014933D01*
X007885Y014753D01*
X007885Y014558D01*
X007960Y014378D01*
X008098Y014240D01*
X007985Y014353D02*
X006326Y014353D01*
X006381Y014451D02*
X007929Y014451D01*
X007888Y014550D02*
X006422Y014550D01*
X006425Y014648D02*
X007885Y014648D01*
X007885Y014747D02*
X006425Y014747D01*
X006387Y014845D02*
X007924Y014845D01*
X007971Y014944D02*
X006339Y014944D01*
X006241Y015042D02*
X008069Y015042D01*
X008098Y015240D02*
X008278Y015165D01*
X009033Y015165D01*
X009213Y015240D01*
X009350Y015378D01*
X009425Y015558D01*
X009416Y015535D02*
X010962Y015535D01*
X010956Y015554D02*
X010977Y015490D01*
X011007Y015430D01*
X011047Y015375D01*
X011095Y015327D01*
X011150Y015287D01*
X011210Y015257D01*
X011274Y015236D01*
X011341Y015225D01*
X011625Y015225D01*
X011625Y015625D01*
X010945Y015625D01*
X010945Y015621D01*
X010956Y015554D01*
X011004Y015437D02*
X009375Y015437D01*
X009311Y015338D02*
X011084Y015338D01*
X011263Y015240D02*
X009212Y015240D01*
X009042Y015141D02*
X011268Y015141D01*
X011069Y015042D02*
X009241Y015042D01*
X009339Y014944D02*
X010971Y014944D01*
X010924Y014845D02*
X009387Y014845D01*
X009425Y014747D02*
X010885Y014747D01*
X010885Y014648D02*
X009425Y014648D01*
X009422Y014550D02*
X010888Y014550D01*
X010929Y014451D02*
X009381Y014451D01*
X009326Y014353D02*
X010985Y014353D01*
X011083Y014254D02*
X009227Y014254D01*
X009226Y014057D02*
X011084Y014057D01*
X010986Y013958D02*
X009325Y013958D01*
X009381Y013860D02*
X010930Y013860D01*
X010889Y013761D02*
X009421Y013761D01*
X009425Y013663D02*
X010885Y013663D01*
X010885Y013564D02*
X009425Y013564D01*
X009387Y013466D02*
X010923Y013466D01*
X010970Y013367D02*
X009340Y013367D01*
X009242Y013269D02*
X011069Y013269D01*
X011100Y013072D02*
X009210Y013072D01*
X009310Y012973D02*
X011000Y012973D01*
X010936Y012874D02*
X009375Y012874D01*
X009415Y012776D02*
X010895Y012776D01*
X010885Y012677D02*
X009425Y012677D01*
X009045Y013170D02*
X011266Y013170D01*
X012045Y013170D02*
X014266Y013170D01*
X011685Y015240D02*
X011625Y015240D01*
X011625Y015338D02*
X011685Y015338D01*
X011685Y015437D02*
X011625Y015437D01*
X011625Y015535D02*
X011685Y015535D01*
X011625Y015685D02*
X010945Y015685D01*
X010945Y015689D01*
X010956Y015756D01*
X010977Y015820D01*
X011007Y015880D01*
X011047Y015935D01*
X011095Y015983D01*
X011150Y016023D01*
X011210Y016054D01*
X011274Y016074D01*
X011341Y016085D01*
X011625Y016085D01*
X011625Y015685D01*
X011625Y015732D02*
X011685Y015732D01*
X011685Y015831D02*
X011625Y015831D01*
X011625Y015929D02*
X011685Y015929D01*
X011685Y016028D02*
X011625Y016028D01*
X011160Y016028D02*
X009255Y016028D01*
X009352Y015929D02*
X011043Y015929D01*
X010982Y015831D02*
X009393Y015831D01*
X009425Y015732D02*
X010952Y015732D01*
X012151Y016028D02*
X014055Y016028D01*
X013958Y015929D02*
X012267Y015929D01*
X012328Y015831D02*
X013918Y015831D01*
X013048Y018393D02*
X016665Y018393D01*
X016665Y018491D02*
X013193Y018491D01*
X013292Y018590D02*
X016689Y018590D01*
X016174Y018787D02*
X016136Y018787D01*
X016136Y018886D02*
X016174Y018886D01*
X016174Y018984D02*
X016136Y018984D01*
X016136Y019083D02*
X016174Y019083D01*
X016604Y020462D02*
X017034Y020462D01*
X017054Y020456D02*
X017121Y020445D01*
X017125Y020445D01*
X017125Y021125D01*
X017185Y021125D01*
X017185Y020445D01*
X017189Y020445D01*
X017256Y020456D01*
X017320Y020477D01*
X017380Y020507D01*
X017435Y020547D01*
X017483Y020595D01*
X017523Y020650D01*
X017554Y020710D01*
X017574Y020774D01*
X017585Y020841D01*
X017585Y021125D01*
X017185Y021125D01*
X017185Y021185D01*
X017585Y021185D01*
X017585Y021469D01*
X017574Y021536D01*
X017554Y021600D01*
X017523Y021660D01*
X017483Y021715D01*
X017435Y021763D01*
X017380Y021803D01*
X017320Y021834D01*
X017256Y021854D01*
X017189Y021865D01*
X017185Y021865D01*
X017185Y021185D01*
X017125Y021185D01*
X017125Y021125D01*
X016725Y021125D01*
X016725Y020841D01*
X016736Y020774D01*
X016757Y020710D01*
X016787Y020650D01*
X016827Y020595D01*
X016875Y020547D01*
X016930Y020507D01*
X016990Y020477D01*
X017054Y020456D01*
X017125Y020462D02*
X017185Y020462D01*
X017276Y020462D02*
X017875Y020462D01*
X017776Y020561D02*
X017449Y020561D01*
X017528Y020659D02*
X017714Y020659D01*
X017673Y020758D02*
X017569Y020758D01*
X017585Y020856D02*
X017665Y020856D01*
X017665Y020955D02*
X017585Y020955D01*
X017585Y021054D02*
X017665Y021054D01*
X017665Y021152D02*
X017185Y021152D01*
X017125Y021152D02*
X015854Y021152D01*
X015755Y021054D02*
X016725Y021054D01*
X016725Y020955D02*
X015657Y020955D01*
X015558Y020856D02*
X016725Y020856D01*
X016741Y020758D02*
X015460Y020758D01*
X015361Y020659D02*
X015975Y020659D01*
X015804Y020561D02*
X015263Y020561D01*
X015189Y021251D02*
X013130Y021251D01*
X013130Y021349D02*
X015287Y021349D01*
X015386Y021448D02*
X013130Y021448D01*
X013115Y021546D02*
X015485Y021546D01*
X015583Y021645D02*
X012821Y021645D01*
X013000Y021743D02*
X015682Y021743D01*
X015780Y021842D02*
X013099Y021842D01*
X013145Y021940D02*
X015879Y021940D01*
X015977Y022039D02*
X013186Y022039D01*
X013190Y022138D02*
X016076Y022138D01*
X016174Y022236D02*
X013190Y022236D01*
X013160Y022335D02*
X016273Y022335D01*
X016371Y022433D02*
X013119Y022433D01*
X013035Y022532D02*
X015903Y022532D01*
X015760Y022630D02*
X015404Y022630D01*
X015549Y022729D02*
X015662Y022729D01*
X015674Y023419D02*
X015698Y023419D01*
X015613Y023517D02*
X015797Y023517D01*
X015993Y023616D02*
X015515Y023616D01*
X015321Y023714D02*
X016989Y023714D01*
X016796Y023616D02*
X016317Y023616D01*
X016513Y023517D02*
X016697Y023517D01*
X016637Y023419D02*
X016612Y023419D01*
X016648Y022729D02*
X016667Y022729D01*
X016569Y022630D02*
X016550Y022630D01*
X016470Y022532D02*
X016407Y022532D01*
X016642Y021940D02*
X018990Y021940D01*
X018812Y021842D02*
X018441Y021842D01*
X018540Y021743D02*
X018714Y021743D01*
X018668Y021645D02*
X018599Y021645D01*
X017869Y021842D02*
X017294Y021842D01*
X017185Y021842D02*
X017125Y021842D01*
X017125Y021865D02*
X017121Y021865D01*
X017054Y021854D01*
X016990Y021834D01*
X016930Y021803D01*
X016875Y021763D01*
X016827Y021715D01*
X016787Y021660D01*
X016757Y021600D01*
X016736Y021536D01*
X016725Y021469D01*
X016725Y021185D01*
X017125Y021185D01*
X017125Y021865D01*
X017016Y021842D02*
X016544Y021842D01*
X016445Y021743D02*
X016855Y021743D01*
X016779Y021645D02*
X016347Y021645D01*
X016248Y021546D02*
X016739Y021546D01*
X016725Y021448D02*
X016150Y021448D01*
X016051Y021349D02*
X016725Y021349D01*
X016725Y021251D02*
X015952Y021251D01*
X016336Y020659D02*
X016782Y020659D01*
X016861Y020561D02*
X016506Y020561D01*
X017125Y020561D02*
X017185Y020561D01*
X017185Y020659D02*
X017125Y020659D01*
X017125Y020758D02*
X017185Y020758D01*
X017185Y020856D02*
X017125Y020856D01*
X017125Y020955D02*
X017185Y020955D01*
X017185Y021054D02*
X017125Y021054D01*
X017125Y021251D02*
X017185Y021251D01*
X017185Y021349D02*
X017125Y021349D01*
X017125Y021448D02*
X017185Y021448D01*
X017185Y021546D02*
X017125Y021546D01*
X017125Y021645D02*
X017185Y021645D01*
X017185Y021743D02*
X017125Y021743D01*
X017455Y021743D02*
X017770Y021743D01*
X017712Y021645D02*
X017531Y021645D01*
X017571Y021546D02*
X017671Y021546D01*
X017665Y021448D02*
X017585Y021448D01*
X017585Y021349D02*
X017665Y021349D01*
X017665Y021251D02*
X017585Y021251D01*
X018435Y020462D02*
X018818Y020462D01*
X018720Y020561D02*
X018534Y020561D01*
X018596Y020659D02*
X018671Y020659D01*
X019492Y020462D02*
X019875Y020462D01*
X019776Y020561D02*
X019590Y020561D01*
X019639Y020659D02*
X019714Y020659D01*
X020387Y018886D02*
X020962Y018886D01*
X020814Y018787D02*
X020496Y018787D01*
X020580Y018689D02*
X020730Y018689D01*
X020689Y018590D02*
X020621Y018590D01*
X020645Y018491D02*
X020665Y018491D01*
X020665Y018393D02*
X020645Y018393D01*
X020645Y018294D02*
X020665Y018294D01*
X020665Y018196D02*
X020645Y018196D01*
X020645Y018097D02*
X020665Y018097D01*
X020665Y017999D02*
X020645Y017999D01*
X020645Y017900D02*
X020665Y017900D01*
X020665Y017802D02*
X020645Y017802D01*
X020614Y017703D02*
X020696Y017703D01*
X020737Y017605D02*
X020573Y017605D01*
X020479Y017506D02*
X020831Y017506D01*
X021004Y017407D02*
X020307Y017407D01*
X019672Y017210D02*
X022269Y017210D01*
X022170Y017112D02*
X019574Y017112D01*
X019475Y017013D02*
X022072Y017013D01*
X021973Y016915D02*
X019377Y016915D01*
X019278Y016816D02*
X021874Y016816D01*
X021776Y016718D02*
X019179Y016718D01*
X019081Y016619D02*
X021677Y016619D01*
X021579Y016521D02*
X018982Y016521D01*
X018884Y016422D02*
X021480Y016422D01*
X021382Y016324D02*
X018785Y016324D01*
X018687Y016225D02*
X021283Y016225D01*
X021185Y016126D02*
X018588Y016126D01*
X018490Y016028D02*
X021086Y016028D01*
X020988Y015929D02*
X018391Y015929D01*
X018293Y015831D02*
X020889Y015831D01*
X021307Y017407D02*
X021899Y017407D01*
X021775Y017506D02*
X021479Y017506D01*
X021573Y017605D02*
X021693Y017605D01*
X021653Y017703D02*
X021614Y017703D01*
X023307Y017407D02*
X023899Y017407D01*
X023775Y017506D02*
X023479Y017506D01*
X023573Y017605D02*
X023693Y017605D01*
X023653Y017703D02*
X023614Y017703D01*
X025545Y018294D02*
X025759Y018294D01*
X025685Y018393D02*
X025545Y018393D01*
X025545Y018491D02*
X025644Y018491D01*
X025620Y018590D02*
X025545Y018590D01*
X025545Y018689D02*
X025620Y018689D01*
X025631Y018787D02*
X025545Y018787D01*
X025545Y018886D02*
X025672Y018886D01*
X025728Y018984D02*
X025545Y018984D01*
X025545Y019083D02*
X025826Y019083D01*
X026027Y019181D02*
X025545Y019181D01*
X025545Y019280D02*
X027195Y019280D01*
X027183Y019293D02*
X027363Y019113D01*
X027598Y019015D01*
X028712Y019015D01*
X028948Y019113D01*
X029128Y019293D01*
X029225Y019528D01*
X029225Y019782D01*
X029128Y020018D01*
X028948Y020198D01*
X028712Y020295D01*
X027598Y020295D01*
X027363Y020198D01*
X027183Y020018D01*
X027085Y019782D01*
X027085Y019528D01*
X027183Y019293D01*
X027147Y019378D02*
X025545Y019378D01*
X025545Y019477D02*
X027106Y019477D01*
X027085Y019575D02*
X025545Y019575D01*
X025545Y019674D02*
X027085Y019674D01*
X027085Y019773D02*
X025545Y019773D01*
X025545Y019871D02*
X027122Y019871D01*
X027163Y019970D02*
X025545Y019970D01*
X025545Y020068D02*
X027233Y020068D01*
X027332Y020167D02*
X026374Y020167D01*
X026522Y020265D02*
X027526Y020265D01*
X027590Y020975D02*
X027340Y021079D01*
X027149Y021270D01*
X027045Y021520D01*
X027045Y021790D01*
X027149Y022040D01*
X027340Y022232D01*
X027590Y022335D01*
X028720Y022335D01*
X028970Y022232D01*
X029162Y022040D01*
X029265Y021790D01*
X029265Y021520D01*
X029162Y021270D01*
X028970Y021079D01*
X028720Y020975D01*
X027590Y020975D01*
X027400Y021054D02*
X026513Y021054D01*
X026443Y021152D02*
X027266Y021152D01*
X027168Y021251D02*
X026564Y021251D01*
X026651Y021349D02*
X027116Y021349D01*
X027075Y021448D02*
X026692Y021448D01*
X026730Y021546D02*
X027045Y021546D01*
X027045Y021645D02*
X026730Y021645D01*
X026730Y021743D02*
X027045Y021743D01*
X027066Y021842D02*
X026700Y021842D01*
X026659Y021940D02*
X027107Y021940D01*
X027148Y022039D02*
X026584Y022039D01*
X026486Y022138D02*
X027246Y022138D01*
X027351Y022236D02*
X026493Y022236D01*
X026591Y022335D02*
X027589Y022335D01*
X027590Y022975D02*
X027340Y023079D01*
X027149Y023270D01*
X027045Y023520D01*
X027045Y023790D01*
X027149Y024040D01*
X027340Y024232D01*
X027590Y024335D01*
X028720Y024335D01*
X028970Y024232D01*
X029162Y024040D01*
X029265Y023790D01*
X029265Y023520D01*
X029162Y023270D01*
X028970Y023079D01*
X028720Y022975D01*
X027590Y022975D01*
X027471Y023024D02*
X026542Y023024D01*
X026622Y022926D02*
X030465Y022926D01*
X030465Y023024D02*
X028839Y023024D01*
X029015Y023123D02*
X030465Y023123D01*
X030465Y023222D02*
X029113Y023222D01*
X029182Y023320D02*
X030465Y023320D01*
X030465Y023419D02*
X029223Y023419D01*
X029264Y023517D02*
X030465Y023517D01*
X030465Y023616D02*
X029265Y023616D01*
X029265Y023714D02*
X030465Y023714D01*
X030465Y023813D02*
X029256Y023813D01*
X029215Y023911D02*
X030465Y023911D01*
X030465Y024010D02*
X029174Y024010D01*
X029093Y024108D02*
X030465Y024108D01*
X030465Y024207D02*
X028995Y024207D01*
X028792Y024306D02*
X030465Y024306D01*
X030465Y024404D02*
X010646Y024404D01*
X010721Y024306D02*
X027518Y024306D01*
X027315Y024207D02*
X026325Y024207D01*
X026515Y024108D02*
X027217Y024108D01*
X027136Y024010D02*
X026614Y024010D01*
X026671Y023911D02*
X027095Y023911D01*
X027054Y023813D02*
X026712Y023813D01*
X026730Y023714D02*
X027045Y023714D01*
X027045Y023616D02*
X026730Y023616D01*
X026720Y023517D02*
X027046Y023517D01*
X027087Y023419D02*
X026679Y023419D01*
X026633Y023320D02*
X027128Y023320D01*
X027197Y023222D02*
X026535Y023222D01*
X026423Y023123D02*
X027296Y023123D01*
X026663Y022827D02*
X030465Y022827D01*
X030465Y022729D02*
X026690Y022729D01*
X026690Y022630D02*
X030465Y022630D01*
X030465Y022532D02*
X026683Y022532D01*
X026642Y022433D02*
X030465Y022433D01*
X030465Y022335D02*
X028721Y022335D01*
X028959Y022236D02*
X030465Y022236D01*
X030465Y022138D02*
X029064Y022138D01*
X029162Y022039D02*
X030465Y022039D01*
X030465Y021940D02*
X029203Y021940D01*
X029244Y021842D02*
X030465Y021842D01*
X030465Y021743D02*
X029265Y021743D01*
X029265Y021645D02*
X030465Y021645D01*
X030465Y021546D02*
X029265Y021546D01*
X029235Y021448D02*
X030465Y021448D01*
X030465Y021349D02*
X029194Y021349D01*
X029142Y021251D02*
X030465Y021251D01*
X030465Y021152D02*
X029044Y021152D01*
X028910Y021054D02*
X030465Y021054D01*
X030465Y020955D02*
X026610Y020955D01*
X026651Y020856D02*
X030465Y020856D01*
X030465Y020758D02*
X026690Y020758D01*
X026690Y020659D02*
X030465Y020659D01*
X030465Y020561D02*
X026690Y020561D01*
X026654Y020462D02*
X030465Y020462D01*
X030465Y020364D02*
X026613Y020364D01*
X025936Y020167D02*
X025545Y020167D01*
X025545Y020265D02*
X025788Y020265D01*
X025697Y020364D02*
X025545Y020364D01*
X025545Y020462D02*
X025656Y020462D01*
X025620Y020561D02*
X025545Y020561D01*
X025545Y020659D02*
X025620Y020659D01*
X025620Y020758D02*
X025545Y020758D01*
X025545Y020856D02*
X025659Y020856D01*
X025700Y020955D02*
X025545Y020955D01*
X025545Y021054D02*
X025797Y021054D01*
X025867Y021152D02*
X025545Y021152D01*
X025545Y021251D02*
X025746Y021251D01*
X025659Y021349D02*
X025545Y021349D01*
X025545Y021448D02*
X025619Y021448D01*
X025580Y021546D02*
X025545Y021546D01*
X025545Y021645D02*
X025580Y021645D01*
X025580Y021743D02*
X025545Y021743D01*
X025545Y021842D02*
X025610Y021842D01*
X025651Y021940D02*
X025545Y021940D01*
X025566Y022039D02*
X025726Y022039D01*
X025824Y022138D02*
X025585Y022138D01*
X025585Y022236D02*
X025818Y022236D01*
X025719Y022335D02*
X025556Y022335D01*
X025513Y022433D02*
X025668Y022433D01*
X025627Y022532D02*
X025415Y022532D01*
X025620Y022630D02*
X024250Y022630D01*
X024152Y022532D02*
X024855Y022532D01*
X024757Y022433D02*
X024053Y022433D01*
X023954Y022335D02*
X024714Y022335D01*
X024685Y022236D02*
X023856Y022236D01*
X023757Y022138D02*
X024685Y022138D01*
X024704Y022039D02*
X023659Y022039D01*
X023462Y021842D02*
X023869Y021842D01*
X023770Y021743D02*
X023540Y021743D01*
X023599Y021645D02*
X023712Y021645D01*
X023671Y021546D02*
X023639Y021546D01*
X023645Y021448D02*
X023665Y021448D01*
X023665Y021349D02*
X023645Y021349D01*
X023645Y021251D02*
X023665Y021251D01*
X023665Y021152D02*
X023645Y021152D01*
X023645Y021054D02*
X023665Y021054D01*
X023665Y020955D02*
X023645Y020955D01*
X023645Y020856D02*
X023665Y020856D01*
X023673Y020758D02*
X023637Y020758D01*
X023596Y020659D02*
X023714Y020659D01*
X023776Y020561D02*
X023534Y020561D01*
X023435Y020462D02*
X023875Y020462D01*
X022714Y020659D02*
X022639Y020659D01*
X022659Y020561D02*
X022590Y020561D01*
X022561Y020462D02*
X022492Y020462D01*
X022462Y020364D02*
X022306Y020364D01*
X024349Y022729D02*
X025620Y022729D01*
X025647Y022827D02*
X024447Y022827D01*
X024546Y022926D02*
X025688Y022926D01*
X025768Y023024D02*
X024644Y023024D01*
X024743Y023123D02*
X025887Y023123D01*
X025775Y023222D02*
X024841Y023222D01*
X024940Y023320D02*
X025677Y023320D01*
X025985Y024207D02*
X010762Y024207D01*
X010674Y023714D02*
X014989Y023714D01*
X014796Y023616D02*
X010575Y023616D01*
X010365Y023517D02*
X014697Y023517D01*
X014636Y023419D02*
X004636Y023419D01*
X004577Y023320D02*
X014596Y023320D01*
X014575Y023222D02*
X004478Y023222D01*
X004423Y023123D02*
X014575Y023123D01*
X014581Y023024D02*
X004542Y023024D01*
X004622Y022926D02*
X014622Y022926D01*
X014663Y022827D02*
X014827Y022663D01*
X014761Y022729D02*
X010521Y022729D01*
X009350Y022729D02*
X007961Y022729D01*
X008079Y022630D02*
X009231Y022630D01*
X009152Y022532D02*
X008158Y022532D01*
X008199Y022433D02*
X009111Y022433D01*
X009085Y022335D02*
X008225Y022335D01*
X008225Y022236D02*
X009085Y022236D01*
X009094Y022138D02*
X008216Y022138D01*
X008175Y022039D02*
X009135Y022039D01*
X009190Y021940D02*
X008120Y021940D01*
X008021Y021842D02*
X009289Y021842D01*
X009490Y021743D02*
X007821Y021743D01*
X006340Y021152D02*
X003735Y021152D01*
X003735Y021054D02*
X006233Y021054D01*
X006152Y020955D02*
X003700Y020955D01*
X003659Y020856D02*
X006111Y020856D01*
X006075Y020758D02*
X003578Y020758D01*
X003474Y020659D02*
X006075Y020659D01*
X006075Y020561D02*
X003570Y020561D01*
X003656Y020462D02*
X006107Y020462D01*
X006148Y020364D02*
X003696Y020364D01*
X003735Y020265D02*
X006225Y020265D01*
X006323Y020167D02*
X003765Y020167D01*
X003864Y020068D02*
X014006Y020068D01*
X013908Y019970D02*
X003962Y019970D01*
X004061Y019871D02*
X013809Y019871D01*
X013711Y019773D02*
X004159Y019773D01*
X004250Y019674D02*
X013612Y019674D01*
X013514Y019575D02*
X004285Y019575D01*
X004285Y019477D02*
X013415Y019477D01*
X013317Y019378D02*
X004285Y019378D01*
X004285Y019280D02*
X013218Y019280D01*
X013119Y019181D02*
X004285Y019181D01*
X004285Y019083D02*
X005127Y019083D01*
X005011Y018984D02*
X004285Y018984D01*
X004285Y018886D02*
X004940Y018886D01*
X004899Y018787D02*
X004285Y018787D01*
X004285Y018689D02*
X004885Y018689D01*
X004885Y018590D02*
X004285Y018590D01*
X004285Y018491D02*
X004913Y018491D01*
X004953Y018393D02*
X004285Y018393D01*
X004285Y018294D02*
X005043Y018294D01*
X005203Y018196D02*
X004285Y018196D01*
X004285Y018097D02*
X005162Y018097D01*
X005026Y017999D02*
X004333Y017999D01*
X004432Y017900D02*
X004946Y017900D01*
X004905Y017802D02*
X004530Y017802D01*
X004629Y017703D02*
X004885Y017703D01*
X004885Y017605D02*
X004727Y017605D01*
X004826Y017506D02*
X004906Y017506D01*
X004925Y017407D02*
X004947Y017407D01*
X005023Y017309D02*
X005028Y017309D01*
X005122Y017210D02*
X005168Y017210D01*
X003745Y018294D02*
X003657Y018294D01*
X003618Y018393D02*
X003745Y018393D01*
X003745Y018491D02*
X003554Y018491D01*
X003441Y018590D02*
X003745Y018590D01*
X003745Y018689D02*
X003509Y018689D01*
X003607Y018787D02*
X003745Y018787D01*
X003745Y018886D02*
X003671Y018886D01*
X003712Y018984D02*
X003745Y018984D01*
X003735Y019083D02*
X003745Y019083D01*
X003735Y019181D02*
X003745Y019181D01*
X003731Y019280D02*
X003745Y019280D01*
X003745Y019378D02*
X003690Y019378D01*
X003691Y019477D02*
X003650Y019477D01*
X003593Y019575D02*
X003555Y019575D01*
X002638Y018097D02*
X000865Y018097D01*
X000865Y017999D02*
X002659Y017999D01*
X002701Y017900D02*
X000865Y017900D01*
X000865Y017802D02*
X002773Y017802D01*
X002897Y017703D02*
X000865Y017703D01*
X000865Y017605D02*
X002784Y017605D01*
X002686Y017506D02*
X000865Y017506D01*
X000865Y017407D02*
X002632Y017407D01*
X002591Y017309D02*
X000865Y017309D01*
X000865Y017210D02*
X002575Y017210D01*
X002575Y017112D02*
X000865Y017112D01*
X000865Y017013D02*
X002586Y017013D01*
X002627Y016915D02*
X000865Y016915D01*
X000865Y016816D02*
X002674Y016816D01*
X002772Y016718D02*
X000865Y016718D01*
X000865Y016619D02*
X002799Y016619D01*
X002700Y016521D02*
X000865Y016521D01*
X000865Y016422D02*
X002638Y016422D01*
X002597Y016324D02*
X000865Y016324D01*
X000865Y016225D02*
X002575Y016225D01*
X002575Y016126D02*
X000865Y016126D01*
X000865Y016028D02*
X002580Y016028D01*
X002621Y015929D02*
X000865Y015929D01*
X000865Y015831D02*
X002662Y015831D01*
X002758Y015732D02*
X000865Y015732D01*
X000865Y015634D02*
X002898Y015634D01*
X006042Y015141D02*
X008268Y015141D01*
X008625Y011988D02*
X008685Y011988D01*
X008685Y011889D02*
X008625Y011889D01*
X008625Y011791D02*
X008685Y011791D01*
X008685Y011692D02*
X008625Y011692D01*
X008625Y011593D02*
X008685Y011593D01*
X008685Y011495D02*
X008625Y011495D01*
X008625Y011396D02*
X008685Y011396D01*
X008685Y011298D02*
X008625Y011298D01*
X008625Y011002D02*
X008685Y011002D01*
X008685Y010904D02*
X008625Y010904D01*
X008625Y010805D02*
X008685Y010805D01*
X008685Y010707D02*
X008625Y010707D01*
X008625Y010608D02*
X008685Y010608D01*
X008685Y010509D02*
X008625Y010509D01*
X008625Y010411D02*
X008685Y010411D01*
X008685Y010312D02*
X008625Y010312D01*
X012285Y010312D02*
X012696Y010312D01*
X013065Y010707D02*
X013885Y010707D01*
X013885Y010608D02*
X013164Y010608D01*
X013263Y010509D02*
X013905Y010509D01*
X013946Y010411D02*
X013361Y010411D01*
X013460Y010312D02*
X014025Y010312D01*
X014160Y010214D02*
X013558Y010214D01*
X013657Y010115D02*
X014206Y010115D01*
X014044Y010017D02*
X013755Y010017D01*
X013854Y009918D02*
X013954Y009918D01*
X013907Y010805D02*
X012967Y010805D01*
X012841Y010904D02*
X013948Y010904D01*
X018159Y011199D02*
X018257Y011199D01*
X019630Y010608D02*
X020466Y010608D01*
X020565Y010707D02*
X019728Y010707D01*
X019827Y010805D02*
X020663Y010805D01*
X020762Y010904D02*
X019925Y010904D01*
X020024Y011002D02*
X020772Y011002D01*
X020735Y011101D02*
X020123Y011101D01*
X020221Y011199D02*
X020735Y011199D01*
X020739Y011298D02*
X020320Y011298D01*
X020418Y011396D02*
X020780Y011396D01*
X020809Y011495D02*
X020837Y011495D01*
X020908Y011593D02*
X020936Y011593D01*
X021006Y011692D02*
X021035Y011692D01*
X021105Y011791D02*
X021133Y011791D01*
X021203Y011889D02*
X021232Y011889D01*
X021302Y011988D02*
X021330Y011988D01*
X021359Y012086D02*
X024766Y012086D01*
X024622Y012185D02*
X024417Y012185D01*
X024540Y012283D02*
X024580Y012283D01*
X023893Y012185D02*
X021399Y012185D01*
X021404Y012283D02*
X023770Y012283D01*
X023689Y012382D02*
X021404Y012382D01*
X021366Y012480D02*
X023648Y012480D01*
X023620Y012579D02*
X021320Y012579D01*
X021222Y012677D02*
X023620Y012677D01*
X023626Y012776D02*
X021027Y012776D01*
X020072Y010214D02*
X020060Y010214D01*
X024310Y013170D02*
X024667Y013170D01*
X024597Y013072D02*
X024495Y013072D01*
X026678Y016521D02*
X030465Y016521D01*
X030465Y016619D02*
X026690Y016619D01*
X026690Y016718D02*
X030465Y016718D01*
X030465Y016816D02*
X026667Y016816D01*
X026627Y016915D02*
X030465Y016915D01*
X030465Y017013D02*
X028813Y017013D01*
X028720Y016975D02*
X028970Y017079D01*
X029162Y017270D01*
X029265Y017520D01*
X029265Y017790D01*
X029162Y018040D01*
X028970Y018232D01*
X028720Y018335D01*
X027590Y018335D01*
X027340Y018232D01*
X027149Y018040D01*
X027045Y017790D01*
X027045Y017520D01*
X027149Y017270D01*
X027340Y017079D01*
X027590Y016975D01*
X028720Y016975D01*
X029004Y017112D02*
X030465Y017112D01*
X030465Y017210D02*
X029102Y017210D01*
X029178Y017309D02*
X030465Y017309D01*
X030465Y017407D02*
X029219Y017407D01*
X029259Y017506D02*
X030465Y017506D01*
X030465Y017605D02*
X029265Y017605D01*
X029265Y017703D02*
X030465Y017703D01*
X030465Y017802D02*
X029260Y017802D01*
X029220Y017900D02*
X030465Y017900D01*
X030465Y017999D02*
X029179Y017999D01*
X029105Y018097D02*
X030465Y018097D01*
X030465Y018196D02*
X029006Y018196D01*
X028819Y018294D02*
X030465Y018294D01*
X030465Y018393D02*
X026626Y018393D01*
X026666Y018491D02*
X030465Y018491D01*
X030465Y018590D02*
X026690Y018590D01*
X026690Y018689D02*
X030465Y018689D01*
X030465Y018787D02*
X026680Y018787D01*
X026639Y018886D02*
X030465Y018886D01*
X030465Y018984D02*
X026583Y018984D01*
X026484Y019083D02*
X027435Y019083D01*
X027294Y019181D02*
X026283Y019181D01*
X026551Y018294D02*
X027492Y018294D01*
X027304Y018196D02*
X026444Y018196D01*
X026526Y018097D02*
X027206Y018097D01*
X027131Y017999D02*
X026625Y017999D01*
X026676Y017900D02*
X027091Y017900D01*
X027050Y017802D02*
X026717Y017802D01*
X026730Y017703D02*
X027045Y017703D01*
X027045Y017605D02*
X026730Y017605D01*
X026716Y017506D02*
X027051Y017506D01*
X027092Y017407D02*
X026675Y017407D01*
X026622Y017309D02*
X027132Y017309D01*
X027208Y017210D02*
X026524Y017210D01*
X026450Y017112D02*
X027307Y017112D01*
X027498Y017013D02*
X026553Y017013D01*
X028876Y019083D02*
X030465Y019083D01*
X030465Y019181D02*
X029016Y019181D01*
X029115Y019280D02*
X030465Y019280D01*
X030465Y019378D02*
X029163Y019378D01*
X029204Y019477D02*
X030465Y019477D01*
X030465Y019575D02*
X029225Y019575D01*
X029225Y019674D02*
X030465Y019674D01*
X030465Y019773D02*
X029225Y019773D01*
X029188Y019871D02*
X030465Y019871D01*
X030465Y019970D02*
X029148Y019970D01*
X029077Y020068D02*
X030465Y020068D01*
X030465Y020167D02*
X028979Y020167D01*
X028784Y020265D02*
X030465Y020265D01*
X017923Y016225D02*
X017674Y016225D01*
X012674Y020758D02*
X012636Y020758D01*
X012636Y020856D02*
X012674Y020856D01*
X012674Y020955D02*
X012636Y020955D01*
X012636Y021054D02*
X012674Y021054D01*
X012180Y021054D02*
X010991Y021054D01*
X011080Y020955D02*
X012180Y020955D01*
X012180Y020856D02*
X011136Y020856D01*
X011165Y020758D02*
X012199Y020758D01*
X012180Y021251D02*
X003735Y021251D01*
X003702Y021349D02*
X012180Y021349D01*
X012180Y021448D02*
X003662Y021448D01*
X003584Y021546D02*
X012195Y021546D01*
X009505Y023517D02*
X007805Y023517D01*
X008015Y023616D02*
X009295Y023616D01*
X009196Y023714D02*
X008114Y023714D01*
X008173Y023813D02*
X009138Y023813D01*
X009097Y023911D02*
X008213Y023911D01*
X008225Y024010D02*
X009085Y024010D01*
X009085Y024108D02*
X008225Y024108D01*
X008202Y024207D02*
X009109Y024207D01*
X009149Y024306D02*
X008161Y024306D01*
X008086Y024404D02*
X009225Y024404D01*
X013636Y005090D02*
X013674Y005090D01*
X013674Y004991D02*
X013636Y004991D01*
X013636Y004892D02*
X013674Y004892D01*
X013674Y004794D02*
X013636Y004794D01*
X013636Y004695D02*
X013674Y004695D01*
X012708Y003020D02*
X008047Y003020D01*
X008124Y002922D02*
X012807Y002922D01*
X012905Y002823D02*
X008165Y002823D01*
X007376Y003119D02*
X007040Y003119D01*
X007125Y003020D02*
X007264Y003020D01*
X007186Y002922D02*
X007130Y002922D01*
X007130Y002823D02*
X007146Y002823D01*
X007130Y002429D02*
X007170Y002429D01*
X007130Y002330D02*
X007223Y002330D01*
X007322Y002232D02*
X007094Y002232D01*
X006674Y002232D02*
X006636Y002232D01*
X006636Y002330D02*
X006674Y002330D01*
X006674Y002429D02*
X006636Y002429D01*
X006636Y002527D02*
X006674Y002527D01*
X006674Y002626D02*
X006636Y002626D01*
X006636Y002725D02*
X006674Y002725D01*
X006674Y002823D02*
X006636Y002823D01*
X006636Y002922D02*
X006674Y002922D01*
X006674Y003020D02*
X006636Y003020D01*
X006636Y003119D02*
X006674Y003119D01*
X010648Y002133D02*
X010673Y002055D01*
X011116Y002035D02*
X011194Y002035D01*
X011194Y002133D02*
X011116Y002133D01*
X011116Y001936D02*
X011194Y001936D01*
X011194Y001838D02*
X011116Y001838D01*
X025545Y002527D02*
X025629Y002527D01*
X025621Y002429D02*
X025670Y002429D01*
X025720Y002330D02*
X025723Y002330D01*
X025818Y002232D02*
X025822Y002232D01*
X025620Y002626D02*
X025545Y002626D01*
X025545Y002725D02*
X025620Y002725D01*
X025646Y002823D02*
X025545Y002823D01*
X025545Y002922D02*
X025686Y002922D01*
X025764Y003020D02*
X025545Y003020D01*
X025545Y003119D02*
X025876Y003119D01*
X025780Y003217D02*
X025545Y003217D01*
D17*
X025135Y002335D02*
X025935Y001535D01*
X026095Y001695D01*
X026155Y001655D01*
X025135Y002335D02*
X025135Y005295D01*
X024095Y006335D01*
X025135Y006975D02*
X022895Y006975D01*
X021695Y005775D01*
X021695Y005215D01*
X021655Y005155D01*
X021455Y006335D02*
X021615Y006495D01*
X021615Y008095D01*
X021655Y008155D01*
X023615Y005135D02*
X023655Y005155D01*
X023615Y005135D02*
X023615Y004495D01*
X022735Y003615D01*
X020895Y003615D01*
X019935Y002655D01*
X019655Y002655D01*
X025135Y006975D02*
X025935Y007775D01*
X026095Y007615D01*
X026155Y007655D01*
X025155Y012655D02*
X025135Y012655D01*
X025135Y017135D01*
X025055Y017215D01*
X025135Y017295D01*
X025135Y022175D01*
X026095Y023615D02*
X026155Y023655D01*
X026095Y023615D02*
X025935Y023775D01*
X024815Y023775D01*
X023135Y022095D01*
X022895Y022095D01*
X022175Y021375D01*
X022175Y021215D01*
X022155Y021155D01*
X024155Y018155D02*
X024175Y018095D01*
X025055Y017215D01*
D18*
X025135Y022175D03*
X018015Y010815D03*
X019855Y009855D03*
X022255Y009295D03*
X021455Y006335D03*
X024095Y006335D03*
X007615Y007615D03*
D19*
X007615Y007215D01*
X006095Y005695D01*
X005695Y005695D01*
X005655Y005655D01*
X005295Y004895D02*
X004095Y006095D01*
X003695Y006095D01*
X003655Y006155D01*
X005295Y004895D02*
X006255Y004895D01*
X006975Y005615D01*
X008655Y005615D01*
X008655Y005655D01*
X009055Y006655D02*
X009695Y006015D01*
X009695Y005295D01*
X007935Y003535D01*
X004415Y003535D01*
X004175Y003295D01*
X002975Y003295D01*
X002175Y004095D01*
X002155Y004155D01*
X005655Y008655D02*
X007775Y008655D01*
X008335Y008095D01*
X009135Y008095D01*
X010255Y006975D01*
X010255Y005855D01*
X013295Y002815D01*
X014255Y002815D01*
X016655Y005215D01*
X016655Y005155D01*
X017535Y005295D02*
X017615Y005215D01*
X017655Y005155D01*
X017535Y005295D02*
X017535Y006175D01*
X017055Y006655D01*
X018095Y007695D01*
X018095Y009455D01*
X020655Y012015D01*
X020716Y012094D01*
X019935Y012495D02*
X019935Y012735D01*
X020009Y012802D01*
X019935Y012495D02*
X018135Y010695D01*
X018015Y010815D01*
X018135Y010695D02*
X017695Y010255D01*
X017695Y008175D01*
X017655Y008155D01*
X017055Y006655D02*
X015775Y007935D01*
X015455Y007935D01*
X012735Y010655D01*
X011655Y010655D01*
X010575Y011935D02*
X010575Y006895D01*
X011215Y006255D01*
X011155Y006255D01*
X009055Y006655D02*
X008655Y006655D01*
X014655Y009655D02*
X014655Y009695D01*
X015215Y009695D01*
X018975Y013455D01*
X019295Y013455D01*
X019302Y013509D01*
X018575Y014175D02*
X018594Y014216D01*
X018575Y014175D02*
X015055Y010655D01*
X014655Y010655D01*
X014655Y011655D02*
X014655Y011695D01*
X015055Y011695D01*
X017695Y014335D01*
X017695Y014735D01*
X017855Y014895D01*
X017887Y014923D01*
X017935Y014975D01*
X018175Y015215D01*
X020655Y015215D01*
X023135Y017695D01*
X023135Y018095D01*
X023155Y018155D01*
X021695Y019215D02*
X020335Y019215D01*
X019695Y018575D01*
X019695Y017615D01*
X018015Y015935D01*
X017455Y015935D01*
X017215Y015695D01*
X017180Y015630D01*
X017135Y015615D01*
X016895Y015375D01*
X016895Y014495D01*
X015055Y012655D01*
X014655Y012655D01*
X011655Y012655D02*
X011295Y012655D01*
X010575Y011935D01*
X005655Y016655D02*
X005295Y016655D01*
X004015Y017935D01*
X004015Y019535D01*
X003455Y020095D01*
X003215Y020095D01*
X003155Y020155D01*
X008655Y018655D02*
X012975Y018655D01*
X017135Y022815D01*
X017135Y023135D01*
X017155Y023155D01*
X021695Y019215D02*
X023135Y020655D01*
X023135Y021135D01*
X023155Y021155D01*
X021423Y011387D02*
X021375Y011375D01*
X021375Y011135D01*
X019975Y009735D01*
X019855Y009855D01*
X019975Y009735D02*
X019215Y008975D01*
X019215Y004655D01*
X019775Y004095D01*
X022015Y004095D01*
X022655Y004735D01*
X022655Y005155D01*
X023655Y008155D02*
X023615Y008175D01*
X023615Y008575D01*
X022895Y009295D01*
X022255Y009295D01*
M02*
