G75*
G70*
%OFA0B0*%
%FSLAX24Y24*%
%IPPOS*%
%LPD*%
%AMOC8*
5,1,8,0,0,1.08239X$1,22.5*
%
%ADD10C,0.0030*%
D10*
X024108Y019330D02*
X024322Y019330D01*
X024431Y019277D02*
X024431Y019490D01*
X024644Y019490D02*
X024644Y019277D01*
X024537Y019170D01*
X024431Y019277D01*
X024215Y019223D02*
X024215Y019437D01*
X024162Y020170D02*
X024108Y020223D01*
X024108Y020437D01*
X024162Y020490D01*
X024322Y020490D01*
X024322Y020170D01*
X024162Y020170D01*
X024000Y020170D02*
X024000Y020384D01*
X023893Y020490D01*
X023786Y020384D01*
X023786Y020170D01*
X023786Y020330D02*
X024000Y020330D01*
X024431Y020277D02*
X024431Y020223D01*
X024484Y020170D01*
X024591Y020170D01*
X024644Y020223D01*
X024591Y020330D02*
X024484Y020330D01*
X024431Y020277D01*
X024431Y020437D02*
X024484Y020490D01*
X024591Y020490D01*
X024644Y020437D01*
X024644Y020384D01*
X024591Y020330D01*
X024591Y021170D02*
X024484Y021170D01*
X024431Y021223D01*
X024431Y021277D01*
X024484Y021330D01*
X024591Y021330D01*
X024644Y021384D01*
X024644Y021437D01*
X024591Y021490D01*
X024484Y021490D01*
X024431Y021437D01*
X024322Y021437D02*
X024322Y021223D01*
X024268Y021170D01*
X024162Y021170D01*
X024108Y021223D01*
X024000Y021170D02*
X023786Y021170D01*
X024000Y021170D02*
X024000Y021490D01*
X024108Y021437D02*
X024162Y021490D01*
X024268Y021490D01*
X024322Y021437D01*
X024591Y021170D02*
X024644Y021223D01*
X024591Y022170D02*
X024484Y022170D01*
X024431Y022223D01*
X024431Y022330D01*
X024537Y022330D01*
X024431Y022437D02*
X024484Y022490D01*
X024591Y022490D01*
X024644Y022437D01*
X024644Y022223D01*
X024591Y022170D01*
X024322Y022170D02*
X024322Y022490D01*
X024108Y022170D01*
X024108Y022490D01*
X024000Y022490D02*
X023839Y022490D01*
X023786Y022437D01*
X023786Y022223D01*
X023839Y022170D01*
X024000Y022170D01*
X024000Y022490D01*
X024215Y023223D02*
X024215Y023437D01*
X024322Y023330D02*
X024108Y023330D01*
X024431Y023277D02*
X024431Y023490D01*
X024644Y023490D02*
X024644Y023277D01*
X024537Y023170D01*
X024431Y023277D01*
X024537Y024170D02*
X024431Y024277D01*
X024431Y024490D01*
X024322Y024437D02*
X024322Y024223D01*
X024268Y024170D01*
X024162Y024170D01*
X024108Y024223D01*
X024000Y024223D02*
X023946Y024170D01*
X023839Y024170D01*
X023786Y024223D01*
X024000Y024223D02*
X024000Y024437D01*
X023946Y024490D01*
X023839Y024490D01*
X023786Y024437D01*
X024108Y024437D02*
X024162Y024490D01*
X024268Y024490D01*
X024322Y024437D01*
X024644Y024490D02*
X024644Y024277D01*
X024537Y024170D01*
M02*
