G75*
G70*
%OFA0B0*%
%FSLAX24Y24*%
%IPPOS*%
%LPD*%
%AMOC8*
5,1,8,0,0,1.08239X$1,22.5*
%
%ADD10C,0.0640*%
%ADD11C,0.0730*%
%ADD12R,0.0730X0.0730*%
%ADD13C,0.0720*%
%ADD14C,0.0940*%
%ADD15C,0.0820*%
%ADD16C,0.1380*%
%ADD17R,0.0540X0.0710*%
%ADD18R,0.0820X0.0820*%
D10*
X007879Y005655D02*
X008439Y005655D01*
X008439Y006655D02*
X007879Y006655D01*
X007879Y007655D02*
X008439Y007655D01*
X008439Y008655D02*
X007879Y008655D01*
X007879Y009655D02*
X008439Y009655D01*
X008439Y010655D02*
X007879Y010655D01*
X007879Y011655D02*
X008439Y011655D01*
X008439Y012655D02*
X007879Y012655D01*
X007879Y013655D02*
X008439Y013655D01*
X008439Y014655D02*
X007879Y014655D01*
X007879Y015655D02*
X008439Y015655D01*
X008439Y016655D02*
X007879Y016655D01*
X007879Y017655D02*
X008439Y017655D01*
X008439Y018655D02*
X007879Y018655D01*
X010879Y018655D02*
X011439Y018655D01*
X011439Y017655D02*
X010879Y017655D01*
X010879Y016655D02*
X011439Y016655D01*
X011439Y015655D02*
X010879Y015655D01*
X010879Y014655D02*
X011439Y014655D01*
X011439Y013655D02*
X010879Y013655D01*
X010879Y012655D02*
X011439Y012655D01*
X011439Y011655D02*
X010879Y011655D01*
X010879Y010655D02*
X011439Y010655D01*
X011439Y009655D02*
X010879Y009655D01*
X010879Y008655D02*
X011439Y008655D01*
X011439Y007655D02*
X010879Y007655D01*
X010879Y006655D02*
X011439Y006655D01*
X011439Y005655D02*
X010879Y005655D01*
X013379Y009655D02*
X013939Y009655D01*
X013939Y010655D02*
X013379Y010655D01*
X013379Y011655D02*
X013939Y011655D01*
X013939Y012655D02*
X013379Y012655D01*
X013379Y013655D02*
X013939Y013655D01*
X013939Y014655D02*
X013379Y014655D01*
X013379Y015655D02*
X013939Y015655D01*
X013939Y016655D02*
X013379Y016655D01*
X015659Y017875D02*
X015659Y018435D01*
X016659Y018435D02*
X016659Y017875D01*
X017659Y017875D02*
X017659Y018435D01*
X018659Y018435D02*
X018659Y017875D01*
X019659Y017875D02*
X019659Y018435D01*
X020659Y018435D02*
X020659Y017875D01*
X021659Y017875D02*
X021659Y018435D01*
X022659Y018435D02*
X022659Y017875D01*
X022659Y020875D02*
X022659Y021435D01*
X021659Y021435D02*
X021659Y020875D01*
X020659Y020875D02*
X020659Y021435D01*
X019659Y021435D02*
X019659Y020875D01*
X018659Y020875D02*
X018659Y021435D01*
X017659Y021435D02*
X017659Y020875D01*
X016659Y020875D02*
X016659Y021435D01*
X015659Y021435D02*
X015659Y020875D01*
X016379Y016655D02*
X016939Y016655D01*
X016939Y015655D02*
X016379Y015655D01*
X016379Y014655D02*
X016939Y014655D01*
X016939Y013655D02*
X016379Y013655D01*
X016379Y012655D02*
X016939Y012655D01*
X016939Y011655D02*
X016379Y011655D01*
X016379Y010655D02*
X016939Y010655D01*
X016939Y009655D02*
X016379Y009655D01*
X017159Y008435D02*
X017159Y007875D01*
X018159Y007875D02*
X018159Y008435D01*
X019159Y008435D02*
X019159Y007875D01*
X020159Y007875D02*
X020159Y008435D01*
X021159Y008435D02*
X021159Y007875D01*
X022159Y007875D02*
X022159Y008435D01*
X023159Y008435D02*
X023159Y007875D01*
X024159Y007875D02*
X024159Y008435D01*
X024643Y009775D02*
X025039Y010171D01*
X024332Y010878D02*
X023936Y010482D01*
X023229Y011189D02*
X023625Y011585D01*
X022918Y012292D02*
X022522Y011896D01*
X021815Y012604D02*
X022211Y012999D01*
X021503Y013707D02*
X021108Y013311D01*
X020400Y014018D02*
X020796Y014414D01*
X020089Y015121D02*
X019693Y014725D01*
X018986Y015432D02*
X019382Y015828D01*
X018675Y016535D02*
X018279Y016139D01*
X018159Y005435D02*
X018159Y004875D01*
X019159Y004875D02*
X019159Y005435D01*
X020159Y005435D02*
X020159Y004875D01*
X021159Y004875D02*
X021159Y005435D01*
X022159Y005435D02*
X022159Y004875D01*
X023159Y004875D02*
X023159Y005435D01*
X024159Y005435D02*
X024159Y004875D01*
X017159Y004875D02*
X017159Y005435D01*
D11*
X016159Y006155D03*
X016159Y007155D03*
X014159Y008655D03*
X013159Y008655D03*
X015659Y003155D03*
X019159Y002655D03*
X026659Y002655D03*
X026659Y001655D03*
X026659Y003655D03*
X026659Y004655D03*
X026659Y006655D03*
X026659Y007655D03*
X026659Y008655D03*
X026659Y009655D03*
X026159Y012655D03*
X026659Y015655D03*
X026659Y016655D03*
X026659Y017655D03*
X026659Y018655D03*
X026659Y020655D03*
X026659Y021655D03*
X026659Y022655D03*
X026659Y023655D03*
X016659Y022655D03*
X015659Y022655D03*
X013659Y022155D03*
X004659Y022655D03*
X004659Y023655D03*
X005159Y012655D03*
X006159Y012655D03*
X004659Y011655D03*
X004659Y010655D03*
X004659Y009655D03*
X004659Y008655D03*
X006159Y008655D03*
X006159Y010655D03*
X008159Y002655D03*
D12*
X007159Y002655D03*
X015659Y004155D03*
X020159Y002655D03*
X027159Y012655D03*
X013659Y021155D03*
D13*
X009759Y022265D02*
X009119Y022265D01*
X007199Y022265D02*
X006559Y022265D01*
X006559Y024045D02*
X007199Y024045D01*
X009119Y024045D02*
X009759Y024045D01*
X004479Y006155D02*
X003839Y006155D01*
X002979Y006155D02*
X002339Y006155D01*
X002339Y005155D02*
X002979Y005155D01*
X003839Y005155D02*
X004479Y005155D01*
X004479Y004155D02*
X003839Y004155D01*
X002979Y004155D02*
X002339Y004155D01*
D14*
X028229Y003655D02*
X029089Y003655D01*
X029089Y001655D02*
X028229Y001655D01*
X028229Y005655D02*
X029089Y005655D01*
X029089Y007655D02*
X028229Y007655D01*
X028229Y009655D02*
X029089Y009655D01*
X029089Y015655D02*
X028229Y015655D01*
X028229Y017655D02*
X029089Y017655D01*
X029089Y019655D02*
X028229Y019655D01*
X028229Y021655D02*
X029089Y021655D01*
X029089Y023655D02*
X028229Y023655D01*
D15*
X025259Y024155D03*
X025159Y023155D03*
X025259Y022155D03*
X025159Y021155D03*
X025259Y020155D03*
X025159Y019155D03*
X029659Y012105D03*
X012659Y006255D03*
X012659Y002255D03*
X003659Y007655D03*
X002159Y007655D03*
X002159Y011655D03*
X003659Y011655D03*
X003659Y016155D03*
X003659Y017155D03*
X003659Y018155D03*
X003659Y019155D03*
X003659Y020155D03*
X003659Y021155D03*
X006159Y021155D03*
X010159Y021155D03*
D16*
X002659Y002155D03*
X022659Y002155D03*
X022659Y023155D03*
X002659Y023155D03*
D17*
X002409Y014355D03*
X003009Y014355D03*
X003609Y014355D03*
X003609Y013355D03*
X003009Y013355D03*
X002409Y013355D03*
D18*
X029659Y013205D03*
M02*
