%
M48
M72
T01C0.0200
T02C0.0276
T03C0.0320
T04C0.0354
T05C0.0400
T06C0.0433
T07C0.1000
T08C0.1300
%
T01
X12679Y5455
X18519Y11695
X18919Y12095
X18839Y13535
X17799Y14495
X17639Y15295
X15239Y12815
X12199Y13695
X8759Y16175
X10199Y17615
X14279Y18335
X15079Y21375
X16519Y22175
X18839Y19535
X25879Y16335
X20839Y11295
X25079Y8575
X24839Y7775
X27399Y9455
X27959Y6655
X22039Y5855
X6039Y17455
X3079Y15455
T02
X6659Y11655
X6659Y10655
X6659Y9155
X5659Y9155
X3659Y8155
X2659Y8155
X6159Y7155
X6159Y5155
X5659Y3155
X6659Y3155
X13659Y7655
X14659Y7655
X16159Y6655
X16159Y5655
X15659Y2655
X15659Y1655
X19159Y2155
X20159Y2155
X26659Y1655
X26659Y2655
X26659Y3655
X26659Y4655
X26659Y6655
X26659Y7655
X26659Y8655
X26659Y9655
X28159Y12655
X29159Y12655
X26659Y15655
X26659Y16655
X26659Y17655
X26659Y18655
X26659Y20655
X26659Y21655
X26659Y22655
X26659Y23655
X14659Y20655
X14659Y19655
X12659Y19655
X12659Y18655
X4659Y22655
X4659Y23655
T03
X8159Y17655
X8159Y16655
X8159Y15655
X8159Y14655
X8159Y13655
X8159Y12655
X8159Y11655
X8159Y10655
X8159Y9655
X8159Y8655
X8159Y7655
X8159Y6655
X8159Y5655
X8159Y4655
X11159Y4655
X11159Y5655
X11159Y6655
X11159Y7655
X11159Y8655
X11159Y9655
X11159Y10655
X11159Y11655
X11159Y12655
X11159Y13655
X11159Y14655
X11159Y15655
X11159Y16655
X11159Y17655
X13659Y15655
X13659Y14655
X13659Y13655
X13659Y12655
X13659Y11655
X13659Y10655
X13659Y9655
X13659Y8655
X16659Y8655
X16659Y9655
X16659Y10655
X16659Y11655
X16659Y12655
X16659Y13655
X16659Y14655
X16659Y15655
X18477Y15837
X19184Y15130
X19891Y14423
X20598Y13716
X21305Y13009
X22013Y12302
X22720Y11594
X23427Y10887
X24134Y10180
X24841Y9473
X24159Y7655
X23159Y7655
X22159Y7655
X21159Y7655
X20159Y7655
X19159Y7655
X18159Y7655
X17159Y7655
X17159Y4655
X18159Y4655
X19159Y4655
X20159Y4655
X21159Y4655
X22159Y4655
X23159Y4655
X24159Y4655
X22659Y17655
X21659Y17655
X20659Y17655
X19659Y17655
X18659Y17655
X17659Y17655
X16659Y17655
X15659Y17655
X15659Y20655
X16659Y20655
X17659Y20655
X18659Y20655
X19659Y20655
X20659Y20655
X21659Y20655
X22659Y20655
T04
X10159Y20155
X6659Y18655
X5659Y18655
X6159Y20155
X5659Y14655
X6659Y14655
X12659Y6255
X12659Y2255
T05
X3659Y4155
X2659Y4155
X2659Y5155
X3659Y5155
X3659Y6155
X2659Y6155
X2659Y10155
X3659Y10155
X3659Y11155
X2659Y11155
X2659Y12155
X3659Y12155
X3659Y16155
X3659Y17155
X3659Y18155
X3659Y19155
X3659Y20155
X3659Y21155
X6879Y21765
X6879Y23545
X9439Y23545
X9439Y21765
X25159Y21155
X25259Y20155
X25159Y19155
X25259Y22155
X25159Y23155
X25259Y24155
T06
X28659Y23655
X28659Y21655
X28659Y19655
X28659Y17655
X28659Y15655
X28659Y9655
X28659Y7655
X28659Y5655
X28659Y3655
X28659Y1655
T07
X19596Y23155
X17296Y23155
X14022Y23155
X11722Y23155
T08
X2659Y2155
X22659Y2155
X22659Y23155
X2659Y23155
M30
