G75*
G70*
%OFA0B0*%
%FSLAX24Y24*%
%IPPOS*%
%LPD*%
%AMOC8*
5,1,8,0,0,1.08239X$1,22.5*
%
%ADD10C,0.0640*%
%ADD11C,0.0730*%
%ADD12R,0.0730X0.0730*%
%ADD13C,0.0720*%
%ADD14C,0.0940*%
%ADD15C,0.0820*%
%ADD16C,0.1380*%
D10*
X005375Y005655D02*
X005935Y005655D01*
X005935Y006655D02*
X005375Y006655D01*
X005375Y007655D02*
X005935Y007655D01*
X005935Y008655D02*
X005375Y008655D01*
X005375Y009655D02*
X005935Y009655D01*
X005935Y010655D02*
X005375Y010655D01*
X005375Y011655D02*
X005935Y011655D01*
X005935Y012655D02*
X005375Y012655D01*
X005375Y013655D02*
X005935Y013655D01*
X005935Y014655D02*
X005375Y014655D01*
X005375Y015655D02*
X005935Y015655D01*
X005935Y016655D02*
X005375Y016655D01*
X005375Y017655D02*
X005935Y017655D01*
X005935Y018655D02*
X005375Y018655D01*
X008375Y018655D02*
X008935Y018655D01*
X008935Y017655D02*
X008375Y017655D01*
X008375Y016655D02*
X008935Y016655D01*
X008935Y015655D02*
X008375Y015655D01*
X008375Y014655D02*
X008935Y014655D01*
X008935Y013655D02*
X008375Y013655D01*
X008375Y012655D02*
X008935Y012655D01*
X008935Y011655D02*
X008375Y011655D01*
X008375Y010655D02*
X008935Y010655D01*
X008935Y009655D02*
X008375Y009655D01*
X008375Y008655D02*
X008935Y008655D01*
X008935Y007655D02*
X008375Y007655D01*
X008375Y006655D02*
X008935Y006655D01*
X008935Y005655D02*
X008375Y005655D01*
X011375Y009655D02*
X011935Y009655D01*
X011935Y010655D02*
X011375Y010655D01*
X011375Y011655D02*
X011935Y011655D01*
X011935Y012655D02*
X011375Y012655D01*
X011375Y013655D02*
X011935Y013655D01*
X011935Y014655D02*
X011375Y014655D01*
X011375Y015655D02*
X011935Y015655D01*
X011935Y016655D02*
X011375Y016655D01*
X014375Y016655D02*
X014935Y016655D01*
X014935Y015655D02*
X014375Y015655D01*
X014375Y014655D02*
X014935Y014655D01*
X014935Y013655D02*
X014375Y013655D01*
X014375Y012655D02*
X014935Y012655D01*
X014935Y011655D02*
X014375Y011655D01*
X014375Y010655D02*
X014935Y010655D01*
X014935Y009655D02*
X014375Y009655D01*
X016655Y008435D02*
X016655Y007875D01*
X017655Y007875D02*
X017655Y008435D01*
X018655Y008435D02*
X018655Y007875D01*
X019655Y007875D02*
X019655Y008435D01*
X020655Y008435D02*
X020655Y007875D01*
X021655Y007875D02*
X021655Y008435D01*
X022655Y008435D02*
X022655Y007875D01*
X023655Y007875D02*
X023655Y008435D01*
X022639Y009775D02*
X023035Y010171D01*
X022328Y010878D02*
X021932Y010482D01*
X021225Y011189D02*
X021621Y011585D01*
X020914Y012292D02*
X020518Y011896D01*
X019811Y012604D02*
X020207Y012999D01*
X019499Y013707D02*
X019104Y013311D01*
X018396Y014018D02*
X018792Y014414D01*
X018085Y015121D02*
X017689Y014725D01*
X016982Y015432D02*
X017378Y015828D01*
X016671Y016535D02*
X016275Y016139D01*
X017155Y017875D02*
X017155Y018435D01*
X018155Y018435D02*
X018155Y017875D01*
X019155Y017875D02*
X019155Y018435D01*
X020155Y018435D02*
X020155Y017875D01*
X021155Y017875D02*
X021155Y018435D01*
X022155Y018435D02*
X022155Y017875D01*
X023155Y017875D02*
X023155Y018435D01*
X024155Y018435D02*
X024155Y017875D01*
X024155Y020875D02*
X024155Y021435D01*
X023155Y021435D02*
X023155Y020875D01*
X022155Y020875D02*
X022155Y021435D01*
X021155Y021435D02*
X021155Y020875D01*
X020155Y020875D02*
X020155Y021435D01*
X019155Y021435D02*
X019155Y020875D01*
X018155Y020875D02*
X018155Y021435D01*
X017155Y021435D02*
X017155Y020875D01*
X016655Y005435D02*
X016655Y004875D01*
X017655Y004875D02*
X017655Y005435D01*
X018655Y005435D02*
X018655Y004875D01*
X019655Y004875D02*
X019655Y005435D01*
X020655Y005435D02*
X020655Y004875D01*
X021655Y004875D02*
X021655Y005435D01*
X022655Y005435D02*
X022655Y004875D01*
X023655Y004875D02*
X023655Y005435D01*
D11*
X026155Y004655D03*
X026155Y003655D03*
X026155Y002655D03*
X026155Y001655D03*
X026155Y006655D03*
X026155Y007655D03*
X026155Y008655D03*
X026155Y009655D03*
X024155Y012655D03*
X026155Y015655D03*
X026155Y016655D03*
X026155Y017655D03*
X026155Y018655D03*
X026155Y020655D03*
X026155Y021655D03*
X026155Y022655D03*
X026155Y023655D03*
X016155Y020155D03*
X016155Y019155D03*
X012655Y022155D03*
X004155Y022655D03*
X004155Y023655D03*
X004155Y013655D03*
X004155Y012655D03*
X003155Y011155D03*
X001655Y011155D03*
X001655Y012155D03*
X001655Y009155D03*
X001655Y008155D03*
X003155Y009155D03*
X007655Y002655D03*
X013655Y003655D03*
X015655Y006155D03*
X015655Y007155D03*
X013655Y008655D03*
X012655Y008655D03*
X018655Y002655D03*
D12*
X019655Y002655D03*
X013655Y004655D03*
X006655Y002655D03*
X025155Y012655D03*
X012655Y021155D03*
D13*
X010255Y022265D02*
X009615Y022265D01*
X007695Y022265D02*
X007055Y022265D01*
X007055Y024045D02*
X007695Y024045D01*
X009615Y024045D02*
X010255Y024045D01*
X003975Y006155D02*
X003335Y006155D01*
X002475Y006155D02*
X001835Y006155D01*
X001835Y005155D02*
X002475Y005155D01*
X003335Y005155D02*
X003975Y005155D01*
X003975Y004155D02*
X003335Y004155D01*
X002475Y004155D02*
X001835Y004155D01*
D14*
X027725Y003655D02*
X028585Y003655D01*
X028585Y001655D02*
X027725Y001655D01*
X027725Y005655D02*
X028585Y005655D01*
X028585Y007655D02*
X027725Y007655D01*
X027725Y009655D02*
X028585Y009655D01*
X028585Y015655D02*
X027725Y015655D01*
X027725Y017655D02*
X028585Y017655D01*
X028585Y019655D02*
X027725Y019655D01*
X027725Y021655D02*
X028585Y021655D01*
X028585Y023655D02*
X027725Y023655D01*
D15*
X020155Y023055D03*
X019155Y023155D03*
X018155Y023055D03*
X017155Y023155D03*
X016155Y023055D03*
X015155Y023155D03*
X010655Y020655D03*
X006655Y020655D03*
X003155Y020155D03*
X003155Y021155D03*
X003155Y019155D03*
X003155Y018155D03*
X003155Y017155D03*
X003155Y016155D03*
X011155Y006255D03*
X011155Y002255D03*
D16*
X002155Y002155D03*
X022155Y002155D03*
X022155Y023155D03*
X002155Y023155D03*
M02*
