%
M48
M72
T01C0.0200
T02C0.0276
T03C0.0320
T04C0.0354
T05C0.0400
T06C0.0433
T07C0.1000
T08C0.1300
%
T01
X9639Y7695
X10039Y4815
X12999Y4255
X14039Y6175
X15879Y3775
X20519Y9615
X19719Y10895
X20439Y11615
X26039Y6975
X25399Y5855
X27159Y6015
X23959Y2815
X12199Y11695
X10279Y12655
X9639Y12655
X8999Y12175
X10279Y13695
X9239Y15055
X5479Y17295
X3079Y15455
T02
X6659Y11655
X6659Y10655
X6659Y9155
X5659Y9155
X3659Y8155
X2659Y8155
X6159Y7155
X6159Y5155
X5659Y3155
X6659Y3155
X13659Y7655
X14659Y7655
X16159Y6655
X16159Y5655
X15659Y2655
X15659Y1655
X19159Y2155
X20159Y2155
X28159Y12655
X29159Y12655
X15159Y19655
X15159Y20655
X12659Y20155
X12659Y19155
X4659Y22655
X4659Y23655
T03
X8159Y17655
X8159Y16655
X8159Y15655
X8159Y14655
X8159Y13655
X8159Y12655
X8159Y11655
X8159Y10655
X8159Y9655
X8159Y8655
X8159Y7655
X8159Y6655
X8159Y5655
X8159Y4655
X11159Y4655
X11159Y5655
X11159Y6655
X11159Y7655
X11159Y8655
X11159Y9655
X11159Y10655
X11159Y11655
X11159Y12655
X11159Y13655
X11159Y14655
X11159Y15655
X11159Y16655
X11159Y17655
X13159Y15655
X13159Y14655
X13159Y13655
X13159Y12655
X13159Y11655
X13159Y10655
X13159Y9655
X13159Y8655
X16159Y8655
X16159Y9655
X16159Y10655
X16159Y11655
X16159Y12655
X16159Y13655
X16159Y14655
X16159Y15655
X16159Y17655
X17159Y17655
X18159Y17655
X19159Y17655
X20159Y17655
X21159Y17655
X22159Y17655
X23159Y17655
X23159Y20655
X22159Y20655
X21159Y20655
X20159Y20655
X19159Y20655
X18159Y20655
X17159Y20655
X16159Y20655
X18477Y15837
X19184Y15130
X19891Y14423
X20598Y13716
X21305Y13009
X22013Y12302
X22720Y11594
X23427Y10887
X24134Y10180
X24841Y9473
X24159Y7655
X23159Y7655
X22159Y7655
X21159Y7655
X20159Y7655
X19159Y7655
X18159Y7655
X17159Y7655
X17159Y4655
X18159Y4655
X19159Y4655
X20159Y4655
X21159Y4655
X22159Y4655
X23159Y4655
X24159Y4655
T04
X12659Y6255
X12659Y2255
X6659Y14655
X5659Y14655
X5659Y18655
X6659Y18655
X6159Y20155
X10159Y20155
T05
X9439Y21765
X9439Y23545
X11659Y23155
X12659Y23055
X13659Y23155
X14659Y23055
X15659Y23155
X16659Y23055
X6879Y23545
X6879Y21765
X3659Y21155
X3659Y20155
X3659Y19155
X3659Y18155
X3659Y17155
X3659Y16155
X3659Y12155
X2659Y12155
X2659Y11155
X3659Y11155
X3659Y10155
X2659Y10155
X2659Y6155
X3659Y6155
X3659Y5155
X2659Y5155
X2659Y4155
X3659Y4155
T06
X28659Y3655
X28659Y1655
X28659Y5655
X28659Y7655
X28659Y9655
X28659Y15655
X28659Y17655
X28659Y19655
X28659Y21655
X28659Y23655
T07
X25409Y23642
X25409Y21342
X25409Y18068
X25409Y15768
T08
X2659Y2155
X22659Y2155
X22659Y23155
X2659Y23155
M30
