G75*
G70*
%OFA0B0*%
%FSLAX24Y24*%
%IPPOS*%
%LPD*%
%AMOC8*
5,1,8,0,0,1.08239X$1,22.5*
%
%ADD10C,0.0030*%
%ADD11C,0.0040*%
%ADD12C,0.0020*%
%ADD13C,0.0060*%
%ADD14C,0.0080*%
%ADD15C,0.0010*%
%ADD16C,0.0050*%
D10*
X001697Y003834D02*
X001644Y003888D01*
X001644Y003995D01*
X001697Y004048D01*
X001911Y003834D01*
X001697Y003834D01*
X001697Y004048D02*
X001911Y004048D01*
X001964Y003995D01*
X001964Y003888D01*
X001911Y003834D01*
X001858Y004157D02*
X001644Y004157D01*
X001804Y004157D02*
X001804Y004370D01*
X001858Y004370D02*
X001964Y004263D01*
X001858Y004157D01*
X001858Y004370D02*
X001644Y004370D01*
X001244Y005834D02*
X001244Y006048D01*
X001244Y005941D02*
X001564Y005941D01*
X001458Y006048D01*
X001458Y006157D02*
X001244Y006157D01*
X001404Y006157D02*
X001404Y006370D01*
X001458Y006370D02*
X001564Y006263D01*
X001458Y006157D01*
X001458Y006370D02*
X001244Y006370D01*
X002174Y007370D02*
X002368Y007370D01*
X002271Y007370D02*
X002271Y007660D01*
X002174Y007564D01*
X002469Y007612D02*
X002517Y007660D01*
X002614Y007660D01*
X002662Y007612D01*
X002469Y007418D01*
X002517Y007370D01*
X002614Y007370D01*
X002662Y007418D01*
X002662Y007612D01*
X002763Y007612D02*
X002812Y007660D01*
X002908Y007660D01*
X002957Y007612D01*
X002763Y007418D01*
X002812Y007370D01*
X002908Y007370D01*
X002957Y007418D01*
X002957Y007612D01*
X003058Y007564D02*
X003058Y007418D01*
X003106Y007370D01*
X003251Y007370D01*
X003251Y007564D01*
X003353Y007515D02*
X003449Y007515D01*
X003353Y007370D02*
X003353Y007660D01*
X003546Y007660D01*
X003841Y007660D02*
X003647Y007370D01*
X003942Y007418D02*
X003990Y007370D01*
X004087Y007370D01*
X004135Y007418D01*
X004135Y007467D01*
X004087Y007515D01*
X003942Y007515D01*
X003942Y007418D01*
X003942Y007515D02*
X004039Y007612D01*
X004135Y007660D01*
X004237Y007660D02*
X004237Y007467D01*
X004333Y007370D01*
X004430Y007467D01*
X004430Y007660D01*
X002763Y007612D02*
X002763Y007418D01*
X002469Y007418D02*
X002469Y007612D01*
X001961Y009884D02*
X001747Y009884D01*
X001694Y009938D01*
X001694Y010045D01*
X001747Y010098D01*
X001747Y010207D02*
X001961Y010207D01*
X002014Y010260D01*
X002014Y010420D01*
X001694Y010420D01*
X001694Y010260D01*
X001747Y010207D01*
X001908Y010098D02*
X001854Y010045D01*
X001854Y009884D01*
X001961Y009884D02*
X002014Y009938D01*
X002014Y010045D01*
X001961Y010098D01*
X001908Y010098D01*
X001561Y011662D02*
X001347Y011876D01*
X001294Y011822D01*
X001294Y011716D01*
X001347Y011662D01*
X001561Y011662D01*
X001614Y011716D01*
X001614Y011822D01*
X001561Y011876D01*
X001347Y011876D01*
X001294Y011984D02*
X001294Y012198D01*
X001294Y012091D02*
X001614Y012091D01*
X001508Y012198D01*
X001561Y012307D02*
X001614Y012360D01*
X001614Y012520D01*
X001294Y012520D01*
X001294Y012360D01*
X001347Y012307D01*
X001561Y012307D01*
X005474Y015877D02*
X005794Y015877D01*
X005794Y015770D02*
X005794Y015984D01*
X005794Y016092D02*
X005474Y016092D01*
X005581Y016199D01*
X005474Y016306D01*
X005794Y016306D01*
X005474Y015877D02*
X005581Y015770D01*
X006474Y015877D02*
X006794Y015877D01*
X006794Y015770D02*
X006794Y015984D01*
X006794Y016092D02*
X006474Y016092D01*
X006581Y016199D01*
X006474Y016306D01*
X006794Y016306D01*
X006474Y015877D02*
X006581Y015770D01*
X002744Y018067D02*
X002744Y018173D01*
X002744Y018120D02*
X002424Y018120D01*
X002424Y018173D02*
X002424Y018067D01*
X002477Y018282D02*
X002691Y018282D01*
X002744Y018336D01*
X002744Y018496D01*
X002424Y018496D01*
X002424Y018336D01*
X002477Y018282D01*
X002744Y018604D02*
X002744Y018818D01*
X002744Y018711D02*
X002424Y018711D01*
X002744Y018927D02*
X002744Y019140D01*
X002424Y019140D01*
X002584Y019140D02*
X002584Y019033D01*
X001994Y020282D02*
X001674Y020282D01*
X001994Y020496D01*
X001674Y020496D01*
X001674Y020604D02*
X001781Y020711D01*
X001781Y020658D02*
X001781Y020818D01*
X001674Y020818D02*
X001994Y020818D01*
X001994Y020658D01*
X001941Y020604D01*
X001834Y020604D01*
X001781Y020658D01*
X001834Y020927D02*
X001834Y021033D01*
X001834Y020927D02*
X001727Y020927D01*
X001674Y020980D01*
X001674Y021087D01*
X001727Y021140D01*
X001941Y021140D01*
X001994Y021087D01*
X001994Y020980D01*
X001941Y020927D01*
X005674Y021759D02*
X005674Y021919D01*
X005727Y021972D01*
X005834Y021972D01*
X005887Y021919D01*
X005887Y021759D01*
X005887Y021866D02*
X005994Y021972D01*
X005994Y022081D02*
X005674Y022081D01*
X005674Y022295D01*
X005727Y022403D02*
X005674Y022457D01*
X005674Y022563D01*
X005727Y022617D01*
X005834Y022563D02*
X005887Y022617D01*
X005941Y022617D01*
X005994Y022563D01*
X005994Y022457D01*
X005941Y022403D01*
X005834Y022457D02*
X005834Y022563D01*
X005834Y022457D02*
X005781Y022403D01*
X005727Y022403D01*
X005834Y022188D02*
X005834Y022081D01*
X005994Y022081D02*
X005994Y022295D01*
X005994Y022726D02*
X005674Y022726D01*
X005674Y022939D01*
X005674Y023048D02*
X005674Y023261D01*
X005674Y023154D02*
X005994Y023154D01*
X005994Y022939D02*
X005994Y022726D01*
X005834Y022726D02*
X005834Y022832D01*
X005994Y021759D02*
X005674Y021759D01*
X007274Y020234D02*
X007381Y020340D01*
X007381Y020020D01*
X007274Y020020D02*
X007488Y020020D01*
X007596Y020073D02*
X007810Y020287D01*
X007810Y020073D01*
X007756Y020020D01*
X007650Y020020D01*
X007596Y020073D01*
X007596Y020287D01*
X007650Y020340D01*
X007756Y020340D01*
X007810Y020287D01*
X007919Y020340D02*
X007919Y020020D01*
X007919Y020127D02*
X008132Y020340D01*
X007972Y020180D02*
X008132Y020020D01*
X010974Y019995D02*
X011294Y019781D01*
X011134Y019566D02*
X011134Y019459D01*
X011081Y019350D02*
X011294Y019350D01*
X011294Y019190D01*
X011241Y019137D01*
X011081Y019137D01*
X011027Y019028D02*
X011241Y018815D01*
X011294Y018868D01*
X011294Y018975D01*
X011241Y019028D01*
X011027Y019028D01*
X010974Y018975D01*
X010974Y018868D01*
X011027Y018815D01*
X011241Y018815D01*
X011241Y018706D02*
X011027Y018706D01*
X011241Y018492D01*
X011294Y018546D01*
X011294Y018652D01*
X011241Y018706D01*
X011241Y018492D02*
X011027Y018492D01*
X010974Y018546D01*
X010974Y018652D01*
X011027Y018706D01*
X011294Y018384D02*
X011294Y018170D01*
X011294Y018277D02*
X010974Y018277D01*
X011081Y018170D01*
X010974Y019459D02*
X010974Y019673D01*
X010974Y019459D02*
X011294Y019459D01*
X011241Y020104D02*
X011134Y020104D01*
X011134Y020264D01*
X011187Y020317D01*
X011241Y020317D01*
X011294Y020264D01*
X011294Y020157D01*
X011241Y020104D01*
X011134Y020104D02*
X011027Y020210D01*
X010974Y020317D01*
X010974Y020426D02*
X011187Y020426D01*
X011294Y020533D01*
X011187Y020639D01*
X010974Y020639D01*
X017882Y015014D02*
X018033Y014863D01*
X017958Y014938D02*
X018184Y015165D01*
X018033Y015165D01*
X018299Y014975D02*
X018148Y014824D01*
X018450Y014824D01*
X018299Y014673D01*
X018223Y014673D01*
X018148Y014748D01*
X018148Y014824D01*
X018299Y014975D02*
X018374Y014975D01*
X018450Y014899D01*
X018450Y014824D01*
X018526Y014747D02*
X018376Y014596D01*
X018677Y014596D01*
X018526Y014445D01*
X018451Y014445D01*
X018376Y014520D01*
X018376Y014596D01*
X018526Y014747D02*
X018602Y014747D01*
X018677Y014671D01*
X018677Y014596D01*
X018792Y014557D02*
X018566Y014330D01*
X018641Y014406D02*
X018943Y014406D01*
X018717Y014406D02*
X018717Y014179D01*
X015394Y013512D02*
X015074Y013512D01*
X015074Y013298D02*
X015394Y013512D01*
X015394Y013298D02*
X015074Y013298D01*
X015074Y013189D02*
X015074Y012976D01*
X015234Y012976D01*
X015181Y013083D01*
X015181Y013136D01*
X015234Y013189D01*
X015341Y013189D01*
X015394Y013136D01*
X015394Y013029D01*
X015341Y012976D01*
X015341Y012867D02*
X015127Y012867D01*
X015074Y012814D01*
X015074Y012707D01*
X015127Y012654D01*
X015181Y012654D01*
X015234Y012707D01*
X015234Y012867D01*
X015341Y012867D02*
X015394Y012814D01*
X015394Y012707D01*
X015341Y012654D01*
X015341Y012545D02*
X015234Y012545D01*
X015181Y012491D01*
X015181Y012438D01*
X015234Y012331D01*
X015074Y012331D01*
X015074Y012545D01*
X015341Y012545D02*
X015394Y012491D01*
X015394Y012385D01*
X015341Y012331D01*
X015394Y012116D02*
X015074Y012116D01*
X015074Y012009D02*
X015074Y012223D01*
X015127Y011900D02*
X015074Y011847D01*
X015074Y011740D01*
X015127Y011687D01*
X015341Y011687D01*
X015394Y011740D01*
X015394Y011847D01*
X015341Y011900D01*
X015394Y011578D02*
X015074Y011578D01*
X015234Y011578D02*
X015234Y011365D01*
X015234Y011256D02*
X015234Y011042D01*
X015074Y011202D01*
X015394Y011202D01*
X015394Y011365D02*
X015074Y011365D01*
X015074Y010934D02*
X015127Y010934D01*
X015341Y010720D01*
X015394Y010720D01*
X015074Y010720D02*
X015074Y010934D01*
X009744Y010969D02*
X009424Y010969D01*
X009584Y010809D01*
X009584Y011022D01*
X009584Y011131D02*
X009584Y011344D01*
X009691Y011453D02*
X009744Y011506D01*
X009744Y011613D01*
X009691Y011667D01*
X009637Y011667D01*
X009584Y011613D01*
X009584Y011560D01*
X009584Y011613D02*
X009531Y011667D01*
X009477Y011667D01*
X009424Y011613D01*
X009424Y011506D01*
X009477Y011453D01*
X009424Y011291D02*
X009584Y011131D01*
X009744Y011291D02*
X009424Y011291D01*
X009477Y011775D02*
X009424Y011829D01*
X009424Y011935D01*
X009477Y011989D01*
X009531Y011989D01*
X009584Y011935D01*
X009637Y011989D01*
X009691Y011989D01*
X009744Y011935D01*
X009744Y011829D01*
X009691Y011775D01*
X009584Y011882D02*
X009584Y011935D01*
X009637Y012098D02*
X009637Y012258D01*
X009584Y012311D01*
X009477Y012311D01*
X009424Y012258D01*
X009424Y012098D01*
X009744Y012098D01*
X009691Y010700D02*
X009744Y010646D01*
X009744Y010540D01*
X009691Y010486D01*
X009691Y010378D02*
X009744Y010324D01*
X009744Y010217D01*
X009691Y010164D01*
X009477Y010378D01*
X009691Y010378D01*
X009531Y010486D02*
X009584Y010540D01*
X009584Y010646D01*
X009637Y010700D01*
X009691Y010700D01*
X009477Y010700D02*
X009424Y010646D01*
X009424Y010540D01*
X009477Y010486D01*
X009531Y010486D01*
X009477Y010378D02*
X009424Y010324D01*
X009424Y010217D01*
X009477Y010164D01*
X009691Y010164D01*
X009691Y010055D02*
X009477Y010055D01*
X009424Y010002D01*
X009424Y009895D01*
X009477Y009842D01*
X009531Y009842D01*
X009584Y009895D01*
X009584Y010055D01*
X009691Y010055D02*
X009744Y010002D01*
X009744Y009895D01*
X009691Y009842D01*
X009744Y009626D02*
X009424Y009626D01*
X009424Y009520D02*
X009424Y009733D01*
X009531Y009411D02*
X009744Y009411D01*
X009584Y009411D02*
X009584Y009197D01*
X009531Y009197D02*
X009744Y009197D01*
X009531Y009197D02*
X009424Y009304D01*
X009531Y009411D01*
X006894Y006861D02*
X006894Y006648D01*
X006681Y006861D01*
X006681Y006648D01*
X006734Y006539D02*
X006734Y006326D01*
X006894Y006326D02*
X006574Y006326D01*
X006574Y006217D02*
X006894Y006217D01*
X006894Y006003D02*
X006574Y006003D01*
X006681Y006110D01*
X006574Y006217D01*
X006574Y006539D02*
X006894Y006539D01*
X006841Y005895D02*
X006787Y005895D01*
X006734Y005841D01*
X006734Y005681D01*
X006841Y005681D01*
X006894Y005734D01*
X006894Y005841D01*
X006841Y005895D01*
X006627Y005788D02*
X006734Y005681D01*
X006627Y005788D02*
X006574Y005895D01*
X006894Y005572D02*
X006894Y005359D01*
X006894Y005466D02*
X006574Y005466D01*
X006681Y005359D01*
X012504Y003959D02*
X012794Y003959D01*
X012697Y003959D02*
X012601Y004105D01*
X012697Y003959D02*
X012794Y004105D01*
X012746Y003858D02*
X012552Y003858D01*
X012746Y003665D01*
X012794Y003713D01*
X012794Y003810D01*
X012746Y003858D01*
X012746Y003665D02*
X012552Y003665D01*
X012504Y003713D01*
X012504Y003810D01*
X012552Y003858D01*
X012794Y003564D02*
X012794Y003370D01*
X012794Y003467D02*
X012504Y003467D01*
X012601Y003370D01*
X014253Y000690D02*
X014253Y000370D01*
X014359Y000370D02*
X014146Y000370D01*
X014146Y000584D02*
X014253Y000690D01*
X014468Y000637D02*
X014468Y000423D01*
X014682Y000637D01*
X014682Y000423D01*
X014628Y000370D01*
X014521Y000370D01*
X014468Y000423D01*
X014468Y000637D02*
X014521Y000690D01*
X014628Y000690D01*
X014682Y000637D01*
X014790Y000637D02*
X014844Y000690D01*
X014950Y000690D01*
X015004Y000637D01*
X014790Y000423D01*
X014844Y000370D01*
X014950Y000370D01*
X015004Y000423D01*
X015004Y000637D01*
X015113Y000584D02*
X015113Y000423D01*
X015166Y000370D01*
X015326Y000370D01*
X015326Y000584D01*
X015435Y000530D02*
X015542Y000530D01*
X015648Y000690D02*
X015435Y000690D01*
X015435Y000370D01*
X015757Y000370D02*
X015971Y000690D01*
X016079Y000530D02*
X016239Y000530D01*
X016293Y000477D01*
X016293Y000423D01*
X016239Y000370D01*
X016133Y000370D01*
X016079Y000423D01*
X016079Y000530D01*
X016186Y000637D01*
X016293Y000690D01*
X016402Y000690D02*
X016402Y000477D01*
X016508Y000370D01*
X016615Y000477D01*
X016615Y000690D01*
X014790Y000637D02*
X014790Y000423D01*
X018924Y000630D02*
X019138Y000630D01*
X019246Y000523D02*
X019246Y000470D01*
X019246Y000523D02*
X019460Y000737D01*
X019460Y000790D01*
X019246Y000790D01*
X019084Y000790D02*
X018924Y000630D01*
X019084Y000470D02*
X019084Y000790D01*
X019569Y000684D02*
X019569Y000523D01*
X019622Y000470D01*
X019782Y000470D01*
X019782Y000684D01*
X019891Y000630D02*
X019998Y000630D01*
X020104Y000790D02*
X019891Y000790D01*
X019891Y000470D01*
X020213Y000470D02*
X020427Y000790D01*
X020535Y000684D02*
X020642Y000790D01*
X020642Y000470D01*
X020535Y000470D02*
X020749Y000470D01*
X020858Y000523D02*
X020911Y000470D01*
X021018Y000470D01*
X021071Y000523D01*
X021071Y000577D01*
X021018Y000630D01*
X020858Y000630D01*
X020858Y000523D01*
X020858Y000630D02*
X020964Y000737D01*
X021071Y000790D01*
X021180Y000790D02*
X021180Y000577D01*
X021286Y000470D01*
X021393Y000577D01*
X021393Y000790D01*
X021173Y005920D02*
X021227Y005973D01*
X021227Y006187D01*
X021173Y006240D01*
X021013Y006240D01*
X021013Y005920D01*
X021173Y005920D01*
X020904Y005973D02*
X020851Y005920D01*
X020744Y005920D01*
X020691Y005973D01*
X020582Y005973D02*
X020582Y006187D01*
X020529Y006240D01*
X020422Y006240D01*
X020369Y006187D01*
X020369Y006134D01*
X020422Y006080D01*
X020582Y006080D01*
X020582Y005973D02*
X020529Y005920D01*
X020422Y005920D01*
X020369Y005973D01*
X020260Y005920D02*
X020046Y005920D01*
X020260Y006134D01*
X020260Y006187D01*
X020206Y006240D01*
X020100Y006240D01*
X020046Y006187D01*
X019938Y005920D02*
X019724Y005920D01*
X019724Y006240D01*
X020691Y006187D02*
X020744Y006240D01*
X020851Y006240D01*
X020904Y006187D01*
X020904Y006134D01*
X020851Y006080D01*
X020904Y006027D01*
X020904Y005973D01*
X020851Y006080D02*
X020798Y006080D01*
X026874Y011580D02*
X027034Y011420D01*
X027034Y011634D01*
X027141Y011742D02*
X027194Y011742D01*
X027141Y011742D02*
X026927Y011956D01*
X026874Y011956D01*
X026874Y011742D01*
X026874Y011580D02*
X027194Y011580D01*
X027141Y012065D02*
X026981Y012065D01*
X027141Y012065D02*
X027194Y012118D01*
X027194Y012278D01*
X026981Y012278D01*
X027034Y012387D02*
X027034Y012494D01*
X026874Y012600D02*
X026874Y012387D01*
X027194Y012387D01*
X027194Y012709D02*
X026874Y012923D01*
X026981Y013031D02*
X026874Y013138D01*
X027194Y013138D01*
X027194Y013031D02*
X027194Y013245D01*
X027141Y013354D02*
X027194Y013407D01*
X027194Y013514D01*
X027141Y013567D01*
X027087Y013567D01*
X027034Y013514D01*
X027034Y013354D01*
X027141Y013354D01*
X027034Y013354D02*
X026927Y013460D01*
X026874Y013567D01*
X026874Y013676D02*
X027087Y013676D01*
X027194Y013783D01*
X027087Y013889D01*
X026874Y013889D01*
X024459Y018873D02*
X024459Y019087D01*
X024565Y018980D02*
X024352Y018980D01*
X024243Y018927D02*
X024243Y019140D01*
X024243Y018927D02*
X024136Y018820D01*
X024030Y018927D01*
X024030Y019140D01*
X024029Y019820D02*
X024190Y019820D01*
X024243Y019873D01*
X024243Y020087D01*
X024190Y020140D01*
X024029Y020140D01*
X024029Y019820D01*
X023921Y019873D02*
X023867Y019820D01*
X023761Y019820D01*
X023707Y019873D01*
X023761Y019980D02*
X023867Y019980D01*
X023921Y019927D01*
X023921Y019873D01*
X023761Y019980D02*
X023707Y020034D01*
X023707Y020087D01*
X023761Y020140D01*
X023867Y020140D01*
X023921Y020087D01*
X024352Y020034D02*
X024352Y019820D01*
X024352Y019980D02*
X024565Y019980D01*
X024565Y020034D02*
X024565Y019820D01*
X024565Y020034D02*
X024458Y020140D01*
X024352Y020034D01*
X024352Y020820D02*
X024565Y020820D01*
X024352Y020820D02*
X024352Y021140D01*
X024243Y021087D02*
X024190Y021140D01*
X024083Y021140D01*
X024029Y021087D01*
X024029Y020873D01*
X024083Y020820D01*
X024190Y020820D01*
X024243Y020873D01*
X023921Y020873D02*
X023867Y020820D01*
X023761Y020820D01*
X023707Y020873D01*
X023761Y020980D02*
X023867Y020980D01*
X023921Y020927D01*
X023921Y020873D01*
X023761Y020980D02*
X023707Y021034D01*
X023707Y021087D01*
X023761Y021140D01*
X023867Y021140D01*
X023921Y021087D01*
X023867Y021820D02*
X023761Y021820D01*
X023707Y021873D01*
X023707Y022087D01*
X023761Y022140D01*
X023867Y022140D01*
X023921Y022087D01*
X023921Y021980D02*
X023814Y021980D01*
X023921Y021980D02*
X023921Y021873D01*
X023867Y021820D01*
X024029Y021820D02*
X024029Y022140D01*
X024243Y021820D01*
X024243Y022140D01*
X024352Y022140D02*
X024512Y022140D01*
X024565Y022087D01*
X024565Y021873D01*
X024512Y021820D01*
X024352Y021820D01*
X024352Y022140D01*
X024136Y022820D02*
X024243Y022927D01*
X024243Y023140D01*
X024352Y022980D02*
X024565Y022980D01*
X024459Y023087D02*
X024459Y022873D01*
X024136Y022820D02*
X024030Y022927D01*
X024030Y023140D01*
X024083Y023820D02*
X024190Y023820D01*
X024243Y023873D01*
X024352Y023873D02*
X024405Y023820D01*
X024512Y023820D01*
X024565Y023873D01*
X024352Y023873D02*
X024352Y024087D01*
X024405Y024140D01*
X024512Y024140D01*
X024565Y024087D01*
X024243Y024087D02*
X024190Y024140D01*
X024083Y024140D01*
X024029Y024087D01*
X024029Y023873D01*
X024083Y023820D01*
X023921Y023927D02*
X023921Y024140D01*
X023921Y023927D02*
X023814Y023820D01*
X023707Y023927D01*
X023707Y024140D01*
X019673Y019240D02*
X019513Y019240D01*
X019513Y018920D01*
X019673Y018920D01*
X019727Y018973D01*
X019727Y019187D01*
X019673Y019240D01*
X019404Y019187D02*
X019404Y019134D01*
X019351Y019080D01*
X019404Y019027D01*
X019404Y018973D01*
X019351Y018920D01*
X019244Y018920D01*
X019191Y018973D01*
X019082Y018973D02*
X019082Y019187D01*
X019029Y019240D01*
X018922Y019240D01*
X018869Y019187D01*
X018869Y019134D01*
X018922Y019080D01*
X019082Y019080D01*
X019082Y018973D02*
X019029Y018920D01*
X018922Y018920D01*
X018869Y018973D01*
X018760Y018920D02*
X018546Y018920D01*
X018760Y019134D01*
X018760Y019187D01*
X018706Y019240D01*
X018600Y019240D01*
X018546Y019187D01*
X018438Y018920D02*
X018224Y018920D01*
X018224Y019240D01*
X019191Y019187D02*
X019244Y019240D01*
X019351Y019240D01*
X019404Y019187D01*
X019351Y019080D02*
X019298Y019080D01*
X001994Y017140D02*
X001994Y016980D01*
X001941Y016927D01*
X001888Y016927D01*
X001834Y016980D01*
X001834Y017140D01*
X001674Y017140D02*
X001674Y016980D01*
X001727Y016927D01*
X001781Y016927D01*
X001834Y016980D01*
X001674Y017140D02*
X001994Y017140D01*
X001994Y016818D02*
X001674Y016818D01*
X001674Y016604D01*
X001674Y016496D02*
X001994Y016496D01*
X001834Y016442D02*
X001674Y016282D01*
X001781Y016496D02*
X001994Y016282D01*
D11*
X020687Y015655D02*
X021013Y015981D01*
X021013Y015764D01*
X021230Y015764D01*
X020904Y015438D01*
X021067Y015384D02*
X021176Y015384D01*
X021338Y015221D01*
X021393Y015275D02*
X021230Y015113D01*
X021067Y015275D01*
X021067Y015384D01*
X021284Y015492D02*
X021393Y015384D01*
X021393Y015275D01*
X021555Y015221D02*
X021338Y015004D01*
X021447Y015112D02*
X021664Y015113D01*
X021718Y015058D01*
X021772Y014895D02*
X021664Y014787D01*
X021664Y014678D01*
X021827Y014516D01*
X021935Y014407D02*
X022261Y014733D01*
X022206Y014570D02*
X022315Y014461D01*
X022315Y014353D01*
X022152Y014190D01*
X022098Y014570D02*
X022206Y014570D01*
X022044Y014733D02*
X021881Y014895D01*
X021772Y014895D01*
X022393Y015450D02*
X022501Y015341D01*
X022610Y015341D01*
X022718Y015450D01*
X022718Y015558D01*
X022610Y015667D01*
X022501Y015667D01*
X022393Y015558D01*
X022393Y015450D01*
X022230Y015613D02*
X022393Y015775D01*
X022393Y015884D01*
X022284Y015992D01*
X022176Y015992D01*
X022067Y016101D02*
X021959Y016101D01*
X021796Y016264D01*
X021687Y016155D02*
X022013Y016481D01*
X022176Y016318D01*
X022176Y016209D01*
X022067Y016101D01*
X022338Y016155D02*
X022013Y015830D01*
X022664Y015178D02*
X022881Y015395D01*
X023044Y015233D01*
X023044Y015124D01*
X022881Y014961D01*
X022989Y014853D02*
X023098Y014744D01*
X023044Y014799D02*
X023261Y015016D01*
X023206Y015070D01*
X023369Y015124D02*
X023423Y015178D01*
X023369Y014799D02*
X023261Y014690D01*
X023261Y014582D01*
X023423Y014419D01*
X023532Y014310D02*
X023695Y014148D01*
X023803Y014148D01*
X023857Y014202D01*
X023857Y014310D01*
X023695Y014473D01*
X023640Y014636D02*
X023478Y014799D01*
X023369Y014799D01*
X023857Y014636D02*
X024020Y014473D01*
X024020Y014365D01*
X023966Y014310D01*
X023857Y014310D01*
X024020Y014148D02*
X023912Y014039D01*
X023912Y013931D01*
X024020Y013822D01*
X024129Y013822D01*
X024237Y013931D01*
X024237Y014039D01*
X024129Y014148D01*
X024020Y014148D01*
X024400Y013876D02*
X024508Y013768D01*
X024508Y013876D02*
X024291Y013659D01*
X024291Y013551D01*
X023997Y012996D02*
X023780Y012996D01*
X023725Y013159D02*
X023291Y013159D01*
X023291Y013051D01*
X023400Y012942D01*
X023508Y012942D01*
X023725Y013159D01*
X023725Y013268D01*
X023617Y013376D01*
X023508Y013376D01*
X023291Y013159D01*
X023183Y013268D02*
X023074Y013268D01*
X022966Y013376D01*
X022966Y013485D01*
X023400Y013485D01*
X023183Y013268D01*
X023400Y013485D02*
X023400Y013593D01*
X023291Y013702D01*
X023183Y013702D01*
X022966Y013485D01*
X022803Y013539D02*
X022586Y013756D01*
X023020Y013756D01*
X023074Y013810D01*
X023074Y013919D01*
X022966Y014027D01*
X022857Y014027D01*
X023532Y014310D02*
X023857Y014636D01*
X024942Y013334D02*
X024834Y013008D01*
X025159Y013117D01*
X025268Y013008D02*
X025485Y013008D01*
X025159Y012683D01*
X025051Y012791D02*
X025268Y012574D01*
X025376Y012466D02*
X025431Y012411D01*
X025485Y012466D01*
X025431Y012520D01*
X025376Y012466D01*
X025539Y012303D02*
X025756Y012086D01*
X025648Y012194D02*
X025973Y012520D01*
X025756Y012520D01*
X025190Y011803D02*
X025353Y011640D01*
X025353Y011531D01*
X025136Y011314D01*
X025027Y011314D01*
X024865Y011477D01*
X025190Y011803D01*
X025461Y011423D02*
X025407Y011369D01*
X025407Y011260D01*
X025516Y011152D01*
X025516Y011043D01*
X025461Y010989D01*
X025353Y010989D01*
X025244Y011097D01*
X025244Y011206D01*
X025461Y011423D02*
X025570Y011423D01*
X025678Y011314D01*
X025678Y011206D01*
X024593Y012074D02*
X024376Y012291D01*
X023780Y012562D02*
X023563Y012779D01*
X023671Y012671D02*
X023997Y012996D01*
X030679Y016254D02*
X030832Y016408D01*
X030679Y016561D01*
X031139Y016561D01*
X031139Y016715D02*
X030832Y017022D01*
X030755Y017022D01*
X030679Y016945D01*
X030679Y016791D01*
X030755Y016715D01*
X031139Y016715D02*
X031139Y017022D01*
X031139Y016254D02*
X030679Y016254D01*
X030755Y019044D02*
X031062Y019044D01*
X031139Y019121D01*
X031139Y019274D01*
X031062Y019351D01*
X030909Y019351D01*
X030909Y019197D01*
X030755Y019044D02*
X030679Y019121D01*
X030679Y019274D01*
X030755Y019351D01*
X030679Y019504D02*
X031139Y019811D01*
X030679Y019811D01*
X030679Y019965D02*
X030679Y020195D01*
X030755Y020272D01*
X031062Y020272D01*
X031139Y020195D01*
X031139Y019965D01*
X030679Y019965D01*
X030679Y019504D02*
X031139Y019504D01*
X031139Y022254D02*
X030679Y022254D01*
X030832Y022408D01*
X030679Y022561D01*
X031139Y022561D01*
X031139Y022715D02*
X031139Y023022D01*
X031139Y022868D02*
X030679Y022868D01*
X030832Y022715D01*
X030832Y009022D02*
X030909Y008945D01*
X030986Y009022D01*
X031062Y009022D01*
X031139Y008945D01*
X031139Y008791D01*
X031062Y008715D01*
X031139Y008561D02*
X030679Y008561D01*
X030832Y008408D01*
X030679Y008254D01*
X031139Y008254D01*
X030755Y008715D02*
X030679Y008791D01*
X030679Y008945D01*
X030755Y009022D01*
X030832Y009022D01*
X030909Y008945D02*
X030909Y008868D01*
X031062Y006222D02*
X030755Y006222D01*
X030679Y006145D01*
X030679Y005915D01*
X031139Y005915D01*
X031139Y006145D01*
X031062Y006222D01*
X031139Y005761D02*
X030679Y005761D01*
X030679Y005454D02*
X031139Y005761D01*
X031139Y005454D02*
X030679Y005454D01*
X030755Y005301D02*
X030679Y005224D01*
X030679Y005071D01*
X030755Y004994D01*
X031062Y004994D01*
X031139Y005071D01*
X031139Y005224D01*
X031062Y005301D01*
X030909Y005301D01*
X030909Y005147D01*
X030909Y003022D02*
X030909Y002715D01*
X030679Y002945D01*
X031139Y002945D01*
X031139Y002561D02*
X030679Y002561D01*
X030832Y002408D01*
X030679Y002254D01*
X031139Y002254D01*
D12*
X008659Y021455D02*
X008659Y021555D01*
X007659Y021555D01*
X007659Y021455D01*
X007709Y023755D02*
X007709Y023855D01*
X007709Y023755D02*
X008659Y023755D01*
X008659Y023855D01*
X001749Y015345D02*
X001749Y015252D01*
X001749Y015298D02*
X001469Y015298D01*
X001469Y015252D02*
X001469Y015345D01*
X001469Y015161D02*
X001469Y014974D01*
X001469Y015068D02*
X001749Y015068D01*
X001656Y015161D01*
X001703Y014885D02*
X001516Y014885D01*
X001469Y014838D01*
X001469Y014745D01*
X001516Y014698D01*
X001703Y014698D02*
X001749Y014745D01*
X001749Y014838D01*
X001703Y014885D01*
X001656Y014332D02*
X001469Y014332D01*
X001609Y014332D02*
X001609Y014146D01*
X001656Y014146D02*
X001469Y014146D01*
X001516Y014056D02*
X001609Y014056D01*
X001656Y014009D01*
X001656Y013869D01*
X001749Y013869D02*
X001469Y013869D01*
X001469Y014009D01*
X001516Y014056D01*
X001656Y014146D02*
X001749Y014239D01*
X001656Y014332D01*
X001609Y013780D02*
X001516Y013780D01*
X001469Y013733D01*
X001469Y013593D01*
X001749Y013593D01*
X001656Y013593D02*
X001656Y013733D01*
X001609Y013780D01*
X001562Y013504D02*
X001656Y013410D01*
X001656Y013364D01*
X001656Y013504D02*
X001469Y013504D01*
X002419Y013295D02*
X002419Y013175D01*
X002419Y013235D02*
X002599Y013235D01*
X002539Y013295D01*
X003669Y013265D02*
X003699Y013295D01*
X003819Y013175D01*
X003699Y013175D01*
X003669Y013205D01*
X003669Y013265D01*
X003699Y013295D02*
X003819Y013295D01*
X003849Y013265D01*
X003849Y013205D01*
X003819Y013175D01*
X004199Y013607D02*
X004169Y013637D01*
X004169Y013727D01*
X004349Y013727D01*
X004349Y013637D01*
X004319Y013607D01*
X004289Y013607D01*
X004259Y013637D01*
X004259Y013727D01*
X004229Y013791D02*
X004199Y013791D01*
X004169Y013821D01*
X004169Y013881D01*
X004199Y013911D01*
X004259Y013881D02*
X004259Y013821D01*
X004229Y013791D01*
X004319Y013791D02*
X004349Y013821D01*
X004349Y013881D01*
X004319Y013911D01*
X004289Y013911D01*
X004259Y013881D01*
X004349Y013975D02*
X004169Y013975D01*
X004169Y014095D02*
X004349Y014095D01*
X004289Y014035D01*
X004349Y013975D01*
X004259Y013637D02*
X004229Y013607D01*
X004199Y013607D01*
X004199Y014607D02*
X004169Y014637D01*
X004169Y014727D01*
X004349Y014727D01*
X004349Y014637D01*
X004319Y014607D01*
X004289Y014607D01*
X004259Y014637D01*
X004259Y014727D01*
X004229Y014791D02*
X004199Y014791D01*
X004169Y014821D01*
X004169Y014881D01*
X004199Y014911D01*
X004259Y014881D02*
X004259Y014821D01*
X004229Y014791D01*
X004319Y014791D02*
X004349Y014821D01*
X004349Y014881D01*
X004319Y014911D01*
X004289Y014911D01*
X004259Y014881D01*
X004169Y014975D02*
X004169Y015095D01*
X004349Y015095D01*
X004259Y014637D02*
X004229Y014607D01*
X004199Y014607D01*
D13*
X003959Y014555D02*
X003959Y015155D01*
X003957Y015172D01*
X003953Y015189D01*
X003946Y015205D01*
X003936Y015219D01*
X003923Y015232D01*
X003909Y015242D01*
X003893Y015249D01*
X003876Y015253D01*
X003859Y015255D01*
X002159Y015255D01*
X002142Y015253D01*
X002125Y015249D01*
X002109Y015242D01*
X002095Y015232D01*
X002082Y015219D01*
X002072Y015205D01*
X002065Y015189D01*
X002061Y015172D01*
X002059Y015155D01*
X002059Y014555D01*
X002061Y014538D01*
X002065Y014521D01*
X002072Y014505D01*
X002082Y014491D01*
X002095Y014478D01*
X002109Y014468D01*
X002125Y014461D01*
X002142Y014457D01*
X002159Y014455D01*
X003859Y014455D01*
X003876Y014457D01*
X003893Y014461D01*
X003909Y014468D01*
X003923Y014478D01*
X003936Y014491D01*
X003946Y014505D01*
X003953Y014521D01*
X003957Y014538D01*
X003959Y014555D01*
X003859Y014255D02*
X002159Y014255D01*
X002142Y014253D01*
X002125Y014249D01*
X002109Y014242D01*
X002095Y014232D01*
X002082Y014219D01*
X002072Y014205D01*
X002065Y014189D01*
X002061Y014172D01*
X002059Y014155D01*
X002059Y013555D01*
X002061Y013538D01*
X002065Y013521D01*
X002072Y013505D01*
X002082Y013491D01*
X002095Y013478D01*
X002109Y013468D01*
X002125Y013461D01*
X002142Y013457D01*
X002159Y013455D01*
X003859Y013455D01*
X003876Y013457D01*
X003893Y013461D01*
X003909Y013468D01*
X003923Y013478D01*
X003936Y013491D01*
X003946Y013505D01*
X003953Y013521D01*
X003957Y013538D01*
X003959Y013555D01*
X003959Y014155D01*
X003957Y014172D01*
X003953Y014189D01*
X003946Y014205D01*
X003936Y014219D01*
X003923Y014232D01*
X003909Y014242D01*
X003893Y014249D01*
X003876Y014253D01*
X003859Y014255D01*
X008559Y018455D02*
X008559Y003855D01*
X010759Y003855D01*
X010759Y018455D01*
X009909Y018455D01*
X009907Y018425D01*
X009902Y018395D01*
X009893Y018366D01*
X009880Y018339D01*
X009865Y018313D01*
X009846Y018289D01*
X009825Y018268D01*
X009801Y018249D01*
X009775Y018234D01*
X009748Y018221D01*
X009719Y018212D01*
X009689Y018207D01*
X009659Y018205D01*
X009629Y018207D01*
X009599Y018212D01*
X009570Y018221D01*
X009543Y018234D01*
X009517Y018249D01*
X009493Y018268D01*
X009472Y018289D01*
X009453Y018313D01*
X009438Y018339D01*
X009425Y018366D01*
X009416Y018395D01*
X009411Y018425D01*
X009409Y018455D01*
X008559Y018455D01*
X008659Y021455D02*
X007659Y021455D01*
X007309Y021455D01*
X006959Y022255D02*
X006959Y022355D01*
X006859Y022355D01*
X006859Y022955D01*
X006959Y022955D01*
X006959Y023055D01*
X007309Y023855D02*
X007709Y023855D01*
X008659Y023855D01*
X009009Y023855D01*
X009359Y023055D02*
X009359Y022955D01*
X009459Y022955D01*
X009459Y022355D01*
X009359Y022355D01*
X009359Y022255D01*
X009009Y021455D02*
X008659Y021455D01*
X008059Y022655D02*
X008061Y022675D01*
X008067Y022693D01*
X008076Y022711D01*
X008088Y022726D01*
X008103Y022738D01*
X008121Y022747D01*
X008139Y022753D01*
X008159Y022755D01*
X008179Y022753D01*
X008197Y022747D01*
X008215Y022738D01*
X008230Y022726D01*
X008242Y022711D01*
X008251Y022693D01*
X008257Y022675D01*
X008259Y022655D01*
X008257Y022635D01*
X008251Y022617D01*
X008242Y022599D01*
X008230Y022584D01*
X008215Y022572D01*
X008197Y022563D01*
X008179Y022557D01*
X008159Y022555D01*
X008139Y022557D01*
X008121Y022563D01*
X008103Y022572D01*
X008088Y022584D01*
X008076Y022599D01*
X008067Y022617D01*
X008061Y022635D01*
X008059Y022655D01*
X007459Y022655D02*
X007461Y022707D01*
X007467Y022759D01*
X007477Y022811D01*
X007490Y022861D01*
X007507Y022911D01*
X007528Y022959D01*
X007553Y023005D01*
X007581Y023049D01*
X007612Y023091D01*
X007646Y023131D01*
X007683Y023168D01*
X007723Y023202D01*
X007765Y023233D01*
X007809Y023261D01*
X007855Y023286D01*
X007903Y023307D01*
X007953Y023324D01*
X008003Y023337D01*
X008055Y023347D01*
X008107Y023353D01*
X008159Y023355D01*
X008211Y023353D01*
X008263Y023347D01*
X008315Y023337D01*
X008365Y023324D01*
X008415Y023307D01*
X008463Y023286D01*
X008509Y023261D01*
X008553Y023233D01*
X008595Y023202D01*
X008635Y023168D01*
X008672Y023131D01*
X008706Y023091D01*
X008737Y023049D01*
X008765Y023005D01*
X008790Y022959D01*
X008811Y022911D01*
X008828Y022861D01*
X008841Y022811D01*
X008851Y022759D01*
X008857Y022707D01*
X008859Y022655D01*
X008857Y022603D01*
X008851Y022551D01*
X008841Y022499D01*
X008828Y022449D01*
X008811Y022399D01*
X008790Y022351D01*
X008765Y022305D01*
X008737Y022261D01*
X008706Y022219D01*
X008672Y022179D01*
X008635Y022142D01*
X008595Y022108D01*
X008553Y022077D01*
X008509Y022049D01*
X008463Y022024D01*
X008415Y022003D01*
X008365Y021986D01*
X008315Y021973D01*
X008263Y021963D01*
X008211Y021957D01*
X008159Y021955D01*
X008107Y021957D01*
X008055Y021963D01*
X008003Y021973D01*
X007953Y021986D01*
X007903Y022003D01*
X007855Y022024D01*
X007809Y022049D01*
X007765Y022077D01*
X007723Y022108D01*
X007683Y022142D01*
X007646Y022179D01*
X007612Y022219D01*
X007581Y022261D01*
X007553Y022305D01*
X007528Y022351D01*
X007507Y022399D01*
X007490Y022449D01*
X007477Y022499D01*
X007467Y022551D01*
X007461Y022603D01*
X007459Y022655D01*
X015159Y020305D02*
X015159Y019555D01*
X015198Y019553D01*
X015237Y019547D01*
X015275Y019538D01*
X015312Y019525D01*
X015348Y019508D01*
X015381Y019488D01*
X015413Y019464D01*
X015442Y019438D01*
X015468Y019409D01*
X015492Y019377D01*
X015512Y019344D01*
X015529Y019308D01*
X015542Y019271D01*
X015551Y019233D01*
X015557Y019194D01*
X015559Y019155D01*
X015557Y019116D01*
X015551Y019077D01*
X015542Y019039D01*
X015529Y019002D01*
X015512Y018966D01*
X015492Y018933D01*
X015468Y018901D01*
X015442Y018872D01*
X015413Y018846D01*
X015381Y018822D01*
X015348Y018802D01*
X015312Y018785D01*
X015275Y018772D01*
X015237Y018763D01*
X015198Y018757D01*
X015159Y018755D01*
X015159Y018005D01*
X023159Y018005D01*
X023159Y020305D01*
X015159Y020305D01*
X018477Y016544D02*
X019184Y015837D01*
X018477Y015130D01*
X024841Y008766D01*
X025548Y009473D01*
X019184Y015837D01*
X018831Y015837D01*
X018477Y015484D02*
X018477Y015130D01*
X017770Y015837D01*
X018124Y015837D01*
X017770Y015837D02*
X018477Y016544D01*
X018477Y016191D01*
X016309Y016155D02*
X014009Y016155D01*
X014009Y008155D01*
X014759Y008155D01*
X014761Y008194D01*
X014767Y008233D01*
X014776Y008271D01*
X014789Y008308D01*
X014806Y008344D01*
X014826Y008377D01*
X014850Y008409D01*
X014876Y008438D01*
X014905Y008464D01*
X014937Y008488D01*
X014970Y008508D01*
X015006Y008525D01*
X015043Y008538D01*
X015081Y008547D01*
X015120Y008553D01*
X015159Y008555D01*
X015198Y008553D01*
X015237Y008547D01*
X015275Y008538D01*
X015312Y008525D01*
X015348Y008508D01*
X015381Y008488D01*
X015413Y008464D01*
X015442Y008438D01*
X015468Y008409D01*
X015492Y008377D01*
X015512Y008344D01*
X015529Y008308D01*
X015542Y008271D01*
X015551Y008233D01*
X015557Y008194D01*
X015559Y008155D01*
X016309Y008155D01*
X016309Y016155D01*
X016659Y007305D02*
X016659Y006555D01*
X016698Y006553D01*
X016737Y006547D01*
X016775Y006538D01*
X016812Y006525D01*
X016848Y006508D01*
X016881Y006488D01*
X016913Y006464D01*
X016942Y006438D01*
X016968Y006409D01*
X016992Y006377D01*
X017012Y006344D01*
X017029Y006308D01*
X017042Y006271D01*
X017051Y006233D01*
X017057Y006194D01*
X017059Y006155D01*
X017057Y006116D01*
X017051Y006077D01*
X017042Y006039D01*
X017029Y006002D01*
X017012Y005966D01*
X016992Y005933D01*
X016968Y005901D01*
X016942Y005872D01*
X016913Y005846D01*
X016881Y005822D01*
X016848Y005802D01*
X016812Y005785D01*
X016775Y005772D01*
X016737Y005763D01*
X016698Y005757D01*
X016659Y005755D01*
X016659Y005005D01*
X024659Y005005D01*
X024659Y007305D01*
X016659Y007305D01*
D14*
X002909Y003655D02*
X002409Y003655D01*
X002159Y003905D01*
X002159Y004405D01*
X002409Y004655D01*
X002159Y004905D01*
X002159Y005405D01*
X002409Y005655D01*
X002159Y005905D01*
X002159Y006405D01*
X002409Y006655D01*
X002909Y006655D01*
X003159Y006405D01*
X003159Y005905D01*
X003409Y005655D01*
X003159Y005405D01*
X003159Y004905D01*
X003409Y004655D01*
X003159Y004405D01*
X003159Y003905D01*
X003409Y003655D01*
X003909Y003655D01*
X004159Y003905D01*
X004159Y004405D01*
X003909Y004655D01*
X004159Y004905D01*
X004159Y005405D01*
X003909Y005655D01*
X004159Y005905D01*
X004159Y006405D01*
X003909Y006655D01*
X003409Y006655D01*
X003159Y006405D01*
X003159Y005905D01*
X002909Y005655D01*
X003159Y005405D01*
X003159Y004905D01*
X002909Y004655D01*
X003159Y004405D01*
X003159Y003905D01*
X002909Y003655D01*
X005259Y004805D02*
X005259Y007505D01*
X005261Y007564D01*
X005267Y007622D01*
X005276Y007681D01*
X005290Y007738D01*
X005307Y007794D01*
X005328Y007849D01*
X005352Y007903D01*
X005380Y007955D01*
X005411Y008005D01*
X005445Y008053D01*
X005482Y008098D01*
X005523Y008141D01*
X005566Y008182D01*
X005611Y008219D01*
X005659Y008253D01*
X005709Y008284D01*
X005761Y008312D01*
X005815Y008336D01*
X005870Y008357D01*
X005926Y008374D01*
X005983Y008388D01*
X006042Y008397D01*
X006100Y008403D01*
X006159Y008405D01*
X006218Y008403D01*
X006276Y008397D01*
X006335Y008388D01*
X006392Y008374D01*
X006448Y008357D01*
X006503Y008336D01*
X006557Y008312D01*
X006609Y008284D01*
X006659Y008253D01*
X006707Y008219D01*
X006752Y008182D01*
X006795Y008141D01*
X006836Y008098D01*
X006873Y008053D01*
X006907Y008005D01*
X006938Y007955D01*
X006966Y007903D01*
X006990Y007849D01*
X007011Y007794D01*
X007028Y007738D01*
X007042Y007681D01*
X007051Y007622D01*
X007057Y007564D01*
X007059Y007505D01*
X007059Y004805D01*
X007057Y004746D01*
X007051Y004688D01*
X007042Y004629D01*
X007028Y004572D01*
X007011Y004516D01*
X006990Y004461D01*
X006966Y004407D01*
X006938Y004355D01*
X006907Y004305D01*
X006873Y004257D01*
X006836Y004212D01*
X006795Y004169D01*
X006752Y004128D01*
X006707Y004091D01*
X006659Y004057D01*
X006609Y004026D01*
X006557Y003998D01*
X006503Y003974D01*
X006448Y003953D01*
X006392Y003936D01*
X006335Y003922D01*
X006276Y003913D01*
X006218Y003907D01*
X006159Y003905D01*
X006100Y003907D01*
X006042Y003913D01*
X005983Y003922D01*
X005926Y003936D01*
X005870Y003953D01*
X005815Y003974D01*
X005761Y003998D01*
X005709Y004026D01*
X005659Y004057D01*
X005611Y004091D01*
X005566Y004128D01*
X005523Y004169D01*
X005482Y004212D01*
X005445Y004257D01*
X005411Y004305D01*
X005380Y004355D01*
X005352Y004407D01*
X005328Y004461D01*
X005307Y004516D01*
X005290Y004572D01*
X005276Y004629D01*
X005267Y004688D01*
X005261Y004746D01*
X005259Y004805D01*
X006159Y003405D02*
X006159Y002905D01*
X003909Y007655D02*
X003409Y007655D01*
X001879Y008155D02*
X001881Y008226D01*
X001887Y008297D01*
X001897Y008368D01*
X001911Y008437D01*
X001928Y008506D01*
X001950Y008574D01*
X001975Y008641D01*
X002004Y008706D01*
X002036Y008769D01*
X002072Y008831D01*
X002111Y008890D01*
X002154Y008947D01*
X002199Y009002D01*
X002248Y009054D01*
X002299Y009103D01*
X002353Y009149D01*
X002410Y009193D01*
X002468Y009233D01*
X002529Y009269D01*
X002592Y009303D01*
X002657Y009332D01*
X002723Y009358D01*
X002791Y009381D01*
X002859Y009399D01*
X002929Y009414D01*
X002999Y009425D01*
X003070Y009432D01*
X003141Y009435D01*
X003212Y009434D01*
X003283Y009429D01*
X003354Y009420D01*
X003424Y009407D01*
X003493Y009391D01*
X003561Y009370D01*
X003628Y009346D01*
X003694Y009318D01*
X003757Y009286D01*
X003819Y009251D01*
X003879Y009213D01*
X003937Y009171D01*
X003992Y009127D01*
X004045Y009079D01*
X004095Y009028D01*
X004142Y008975D01*
X004186Y008919D01*
X004227Y008861D01*
X004265Y008800D01*
X004299Y008738D01*
X004329Y008673D01*
X004356Y008608D01*
X004380Y008540D01*
X004399Y008472D01*
X004415Y008403D01*
X004427Y008332D01*
X004435Y008262D01*
X004439Y008191D01*
X004439Y008119D01*
X004435Y008048D01*
X004427Y007978D01*
X004415Y007907D01*
X004399Y007838D01*
X004380Y007770D01*
X004356Y007702D01*
X004329Y007637D01*
X004299Y007572D01*
X004265Y007510D01*
X004227Y007449D01*
X004186Y007391D01*
X004142Y007335D01*
X004095Y007282D01*
X004045Y007231D01*
X003992Y007183D01*
X003937Y007139D01*
X003879Y007097D01*
X003819Y007059D01*
X003757Y007024D01*
X003694Y006992D01*
X003628Y006964D01*
X003561Y006940D01*
X003493Y006919D01*
X003424Y006903D01*
X003354Y006890D01*
X003283Y006881D01*
X003212Y006876D01*
X003141Y006875D01*
X003070Y006878D01*
X002999Y006885D01*
X002929Y006896D01*
X002859Y006911D01*
X002791Y006929D01*
X002723Y006952D01*
X002657Y006978D01*
X002592Y007007D01*
X002529Y007041D01*
X002468Y007077D01*
X002410Y007117D01*
X002353Y007161D01*
X002299Y007207D01*
X002248Y007256D01*
X002199Y007308D01*
X002154Y007363D01*
X002111Y007420D01*
X002072Y007479D01*
X002036Y007541D01*
X002004Y007604D01*
X001975Y007669D01*
X001950Y007736D01*
X001928Y007804D01*
X001911Y007873D01*
X001897Y007942D01*
X001887Y008013D01*
X001881Y008084D01*
X001879Y008155D01*
X002409Y009655D02*
X002909Y009655D01*
X003159Y009905D01*
X003159Y010405D01*
X003409Y010655D01*
X003159Y010905D01*
X003159Y011405D01*
X003409Y011655D01*
X003159Y011905D01*
X003159Y012405D01*
X003409Y012655D01*
X003909Y012655D01*
X004159Y012405D01*
X004159Y011905D01*
X003909Y011655D01*
X004159Y011405D01*
X004159Y010905D01*
X003909Y010655D01*
X004159Y010405D01*
X004159Y009905D01*
X003909Y009655D01*
X003409Y009655D01*
X003159Y009905D01*
X003159Y010405D01*
X002909Y010655D01*
X003159Y010905D01*
X003159Y011405D01*
X002909Y011655D01*
X003159Y011905D01*
X003159Y012405D01*
X002909Y012655D01*
X002409Y012655D01*
X002159Y012405D01*
X002159Y011905D01*
X002409Y011655D01*
X002159Y011405D01*
X002159Y010905D01*
X002409Y010655D01*
X002159Y010405D01*
X002159Y009905D01*
X002409Y009655D01*
X006159Y009405D02*
X006159Y008905D01*
X006409Y011155D02*
X006909Y011155D01*
X007131Y015415D02*
X006187Y015415D01*
X006187Y017895D01*
X007131Y017895D01*
X007131Y015415D01*
X006131Y015415D02*
X006131Y017895D01*
X005187Y017895D01*
X005187Y015415D01*
X006131Y015415D01*
X004159Y015905D02*
X003909Y015655D01*
X003409Y015655D01*
X003159Y015905D01*
X003159Y016405D01*
X003409Y016655D01*
X003159Y016905D01*
X003159Y017405D01*
X003409Y017655D01*
X003159Y017905D01*
X003159Y018405D01*
X003409Y018655D01*
X003159Y018905D01*
X003159Y019405D01*
X003409Y019655D01*
X003159Y019905D01*
X003159Y020405D01*
X003409Y020655D01*
X003159Y020905D01*
X003159Y021405D01*
X003409Y021655D01*
X003909Y021655D01*
X004159Y021405D01*
X004159Y020905D01*
X003909Y020655D01*
X004159Y020405D01*
X004159Y019905D01*
X003909Y019655D01*
X004159Y019405D01*
X004159Y018905D01*
X003909Y018655D01*
X004159Y018405D01*
X004159Y017905D01*
X003909Y017655D01*
X004159Y017405D01*
X004159Y016905D01*
X003909Y016655D01*
X004159Y016405D01*
X004159Y015905D01*
X006919Y019683D02*
X009399Y019683D01*
X009399Y020628D01*
X006919Y020628D01*
X006919Y019683D01*
X004909Y023155D02*
X004409Y023155D01*
X011672Y021885D02*
X014072Y021885D01*
X014072Y024425D01*
X014042Y024425D02*
X011672Y024425D01*
X011672Y021885D01*
X013159Y019905D02*
X013159Y019405D01*
X011379Y019155D02*
X011381Y019226D01*
X011387Y019297D01*
X011397Y019368D01*
X011411Y019437D01*
X011428Y019506D01*
X011450Y019574D01*
X011475Y019641D01*
X011504Y019706D01*
X011536Y019769D01*
X011572Y019831D01*
X011611Y019890D01*
X011654Y019947D01*
X011699Y020002D01*
X011748Y020054D01*
X011799Y020103D01*
X011853Y020149D01*
X011910Y020193D01*
X011968Y020233D01*
X012029Y020269D01*
X012092Y020303D01*
X012157Y020332D01*
X012223Y020358D01*
X012291Y020381D01*
X012359Y020399D01*
X012429Y020414D01*
X012499Y020425D01*
X012570Y020432D01*
X012641Y020435D01*
X012712Y020434D01*
X012783Y020429D01*
X012854Y020420D01*
X012924Y020407D01*
X012993Y020391D01*
X013061Y020370D01*
X013128Y020346D01*
X013194Y020318D01*
X013257Y020286D01*
X013319Y020251D01*
X013379Y020213D01*
X013437Y020171D01*
X013492Y020127D01*
X013545Y020079D01*
X013595Y020028D01*
X013642Y019975D01*
X013686Y019919D01*
X013727Y019861D01*
X013765Y019800D01*
X013799Y019738D01*
X013829Y019673D01*
X013856Y019608D01*
X013880Y019540D01*
X013899Y019472D01*
X013915Y019403D01*
X013927Y019332D01*
X013935Y019262D01*
X013939Y019191D01*
X013939Y019119D01*
X013935Y019048D01*
X013927Y018978D01*
X013915Y018907D01*
X013899Y018838D01*
X013880Y018770D01*
X013856Y018702D01*
X013829Y018637D01*
X013799Y018572D01*
X013765Y018510D01*
X013727Y018449D01*
X013686Y018391D01*
X013642Y018335D01*
X013595Y018282D01*
X013545Y018231D01*
X013492Y018183D01*
X013437Y018139D01*
X013379Y018097D01*
X013319Y018059D01*
X013257Y018024D01*
X013194Y017992D01*
X013128Y017964D01*
X013061Y017940D01*
X012993Y017919D01*
X012924Y017903D01*
X012854Y017890D01*
X012783Y017881D01*
X012712Y017876D01*
X012641Y017875D01*
X012570Y017878D01*
X012499Y017885D01*
X012429Y017896D01*
X012359Y017911D01*
X012291Y017929D01*
X012223Y017952D01*
X012157Y017978D01*
X012092Y018007D01*
X012029Y018041D01*
X011968Y018077D01*
X011910Y018117D01*
X011853Y018161D01*
X011799Y018207D01*
X011748Y018256D01*
X011699Y018308D01*
X011654Y018363D01*
X011611Y018420D01*
X011572Y018479D01*
X011536Y018541D01*
X011504Y018604D01*
X011475Y018669D01*
X011450Y018736D01*
X011428Y018804D01*
X011411Y018873D01*
X011397Y018942D01*
X011387Y019013D01*
X011381Y019084D01*
X011379Y019155D01*
X014409Y020155D02*
X014909Y020155D01*
X017246Y021885D02*
X017246Y024425D01*
X019646Y024425D01*
X019646Y021885D01*
X017276Y021885D01*
X026409Y021155D02*
X026909Y021155D01*
X026909Y023155D02*
X026409Y023155D01*
X026409Y018155D02*
X026909Y018155D01*
X026909Y016155D02*
X026409Y016155D01*
X027909Y013155D02*
X028409Y013155D01*
X027379Y012655D02*
X027381Y012726D01*
X027387Y012797D01*
X027397Y012868D01*
X027411Y012937D01*
X027428Y013006D01*
X027450Y013074D01*
X027475Y013141D01*
X027504Y013206D01*
X027536Y013269D01*
X027572Y013331D01*
X027611Y013390D01*
X027654Y013447D01*
X027699Y013502D01*
X027748Y013554D01*
X027799Y013603D01*
X027853Y013649D01*
X027910Y013693D01*
X027968Y013733D01*
X028029Y013769D01*
X028092Y013803D01*
X028157Y013832D01*
X028223Y013858D01*
X028291Y013881D01*
X028359Y013899D01*
X028429Y013914D01*
X028499Y013925D01*
X028570Y013932D01*
X028641Y013935D01*
X028712Y013934D01*
X028783Y013929D01*
X028854Y013920D01*
X028924Y013907D01*
X028993Y013891D01*
X029061Y013870D01*
X029128Y013846D01*
X029194Y013818D01*
X029257Y013786D01*
X029319Y013751D01*
X029379Y013713D01*
X029437Y013671D01*
X029492Y013627D01*
X029545Y013579D01*
X029595Y013528D01*
X029642Y013475D01*
X029686Y013419D01*
X029727Y013361D01*
X029765Y013300D01*
X029799Y013238D01*
X029829Y013173D01*
X029856Y013108D01*
X029880Y013040D01*
X029899Y012972D01*
X029915Y012903D01*
X029927Y012832D01*
X029935Y012762D01*
X029939Y012691D01*
X029939Y012619D01*
X029935Y012548D01*
X029927Y012478D01*
X029915Y012407D01*
X029899Y012338D01*
X029880Y012270D01*
X029856Y012202D01*
X029829Y012137D01*
X029799Y012072D01*
X029765Y012010D01*
X029727Y011949D01*
X029686Y011891D01*
X029642Y011835D01*
X029595Y011782D01*
X029545Y011731D01*
X029492Y011683D01*
X029437Y011639D01*
X029379Y011597D01*
X029319Y011559D01*
X029257Y011524D01*
X029194Y011492D01*
X029128Y011464D01*
X029061Y011440D01*
X028993Y011419D01*
X028924Y011403D01*
X028854Y011390D01*
X028783Y011381D01*
X028712Y011376D01*
X028641Y011375D01*
X028570Y011378D01*
X028499Y011385D01*
X028429Y011396D01*
X028359Y011411D01*
X028291Y011429D01*
X028223Y011452D01*
X028157Y011478D01*
X028092Y011507D01*
X028029Y011541D01*
X027968Y011577D01*
X027910Y011617D01*
X027853Y011661D01*
X027799Y011707D01*
X027748Y011756D01*
X027699Y011808D01*
X027654Y011863D01*
X027611Y011920D01*
X027572Y011979D01*
X027536Y012041D01*
X027504Y012104D01*
X027475Y012169D01*
X027450Y012236D01*
X027428Y012304D01*
X027411Y012373D01*
X027397Y012442D01*
X027387Y012513D01*
X027381Y012584D01*
X027379Y012655D01*
X026909Y009155D02*
X026409Y009155D01*
X026409Y007155D02*
X026909Y007155D01*
X026909Y004155D02*
X026409Y004155D01*
X026409Y002155D02*
X026909Y002155D01*
X018379Y002155D02*
X018381Y002226D01*
X018387Y002297D01*
X018397Y002368D01*
X018411Y002437D01*
X018428Y002506D01*
X018450Y002574D01*
X018475Y002641D01*
X018504Y002706D01*
X018536Y002769D01*
X018572Y002831D01*
X018611Y002890D01*
X018654Y002947D01*
X018699Y003002D01*
X018748Y003054D01*
X018799Y003103D01*
X018853Y003149D01*
X018910Y003193D01*
X018968Y003233D01*
X019029Y003269D01*
X019092Y003303D01*
X019157Y003332D01*
X019223Y003358D01*
X019291Y003381D01*
X019359Y003399D01*
X019429Y003414D01*
X019499Y003425D01*
X019570Y003432D01*
X019641Y003435D01*
X019712Y003434D01*
X019783Y003429D01*
X019854Y003420D01*
X019924Y003407D01*
X019993Y003391D01*
X020061Y003370D01*
X020128Y003346D01*
X020194Y003318D01*
X020257Y003286D01*
X020319Y003251D01*
X020379Y003213D01*
X020437Y003171D01*
X020492Y003127D01*
X020545Y003079D01*
X020595Y003028D01*
X020642Y002975D01*
X020686Y002919D01*
X020727Y002861D01*
X020765Y002800D01*
X020799Y002738D01*
X020829Y002673D01*
X020856Y002608D01*
X020880Y002540D01*
X020899Y002472D01*
X020915Y002403D01*
X020927Y002332D01*
X020935Y002262D01*
X020939Y002191D01*
X020939Y002119D01*
X020935Y002048D01*
X020927Y001978D01*
X020915Y001907D01*
X020899Y001838D01*
X020880Y001770D01*
X020856Y001702D01*
X020829Y001637D01*
X020799Y001572D01*
X020765Y001510D01*
X020727Y001449D01*
X020686Y001391D01*
X020642Y001335D01*
X020595Y001282D01*
X020545Y001231D01*
X020492Y001183D01*
X020437Y001139D01*
X020379Y001097D01*
X020319Y001059D01*
X020257Y001024D01*
X020194Y000992D01*
X020128Y000964D01*
X020061Y000940D01*
X019993Y000919D01*
X019924Y000903D01*
X019854Y000890D01*
X019783Y000881D01*
X019712Y000876D01*
X019641Y000875D01*
X019570Y000878D01*
X019499Y000885D01*
X019429Y000896D01*
X019359Y000911D01*
X019291Y000929D01*
X019223Y000952D01*
X019157Y000978D01*
X019092Y001007D01*
X019029Y001041D01*
X018968Y001077D01*
X018910Y001117D01*
X018853Y001161D01*
X018799Y001207D01*
X018748Y001256D01*
X018699Y001308D01*
X018654Y001363D01*
X018611Y001420D01*
X018572Y001479D01*
X018536Y001541D01*
X018504Y001604D01*
X018475Y001669D01*
X018450Y001736D01*
X018428Y001804D01*
X018411Y001873D01*
X018397Y001942D01*
X018387Y002013D01*
X018381Y002084D01*
X018379Y002155D01*
X018909Y002655D02*
X019409Y002655D01*
X014379Y002155D02*
X014381Y002226D01*
X014387Y002297D01*
X014397Y002368D01*
X014411Y002437D01*
X014428Y002506D01*
X014450Y002574D01*
X014475Y002641D01*
X014504Y002706D01*
X014536Y002769D01*
X014572Y002831D01*
X014611Y002890D01*
X014654Y002947D01*
X014699Y003002D01*
X014748Y003054D01*
X014799Y003103D01*
X014853Y003149D01*
X014910Y003193D01*
X014968Y003233D01*
X015029Y003269D01*
X015092Y003303D01*
X015157Y003332D01*
X015223Y003358D01*
X015291Y003381D01*
X015359Y003399D01*
X015429Y003414D01*
X015499Y003425D01*
X015570Y003432D01*
X015641Y003435D01*
X015712Y003434D01*
X015783Y003429D01*
X015854Y003420D01*
X015924Y003407D01*
X015993Y003391D01*
X016061Y003370D01*
X016128Y003346D01*
X016194Y003318D01*
X016257Y003286D01*
X016319Y003251D01*
X016379Y003213D01*
X016437Y003171D01*
X016492Y003127D01*
X016545Y003079D01*
X016595Y003028D01*
X016642Y002975D01*
X016686Y002919D01*
X016727Y002861D01*
X016765Y002800D01*
X016799Y002738D01*
X016829Y002673D01*
X016856Y002608D01*
X016880Y002540D01*
X016899Y002472D01*
X016915Y002403D01*
X016927Y002332D01*
X016935Y002262D01*
X016939Y002191D01*
X016939Y002119D01*
X016935Y002048D01*
X016927Y001978D01*
X016915Y001907D01*
X016899Y001838D01*
X016880Y001770D01*
X016856Y001702D01*
X016829Y001637D01*
X016799Y001572D01*
X016765Y001510D01*
X016727Y001449D01*
X016686Y001391D01*
X016642Y001335D01*
X016595Y001282D01*
X016545Y001231D01*
X016492Y001183D01*
X016437Y001139D01*
X016379Y001097D01*
X016319Y001059D01*
X016257Y001024D01*
X016194Y000992D01*
X016128Y000964D01*
X016061Y000940D01*
X015993Y000919D01*
X015924Y000903D01*
X015854Y000890D01*
X015783Y000881D01*
X015712Y000876D01*
X015641Y000875D01*
X015570Y000878D01*
X015499Y000885D01*
X015429Y000896D01*
X015359Y000911D01*
X015291Y000929D01*
X015223Y000952D01*
X015157Y000978D01*
X015092Y001007D01*
X015029Y001041D01*
X014968Y001077D01*
X014910Y001117D01*
X014853Y001161D01*
X014799Y001207D01*
X014748Y001256D01*
X014699Y001308D01*
X014654Y001363D01*
X014611Y001420D01*
X014572Y001479D01*
X014536Y001541D01*
X014504Y001604D01*
X014475Y001669D01*
X014450Y001736D01*
X014428Y001804D01*
X014411Y001873D01*
X014397Y001942D01*
X014387Y002013D01*
X014381Y002084D01*
X014379Y002155D01*
X015159Y001905D02*
X015159Y001405D01*
X013131Y003015D02*
X013131Y005495D01*
X012187Y005495D01*
X012187Y003015D01*
X013131Y003015D01*
X015909Y006155D02*
X016409Y006155D01*
X014159Y007405D02*
X014159Y007905D01*
D15*
X013067Y007650D02*
X012967Y007650D01*
X012967Y007500D01*
X012919Y007500D02*
X012919Y007600D01*
X012967Y007575D02*
X013017Y007575D01*
X012919Y007500D02*
X012844Y007500D01*
X012819Y007525D01*
X012819Y007600D01*
X012722Y007650D02*
X012722Y007500D01*
X012672Y007500D02*
X012772Y007500D01*
X012672Y007600D02*
X012722Y007650D01*
X012623Y007525D02*
X012623Y007500D01*
X012598Y007500D01*
X012598Y007525D01*
X012623Y007525D01*
X012551Y007525D02*
X012526Y007500D01*
X012476Y007500D01*
X012451Y007525D01*
X012551Y007625D01*
X012551Y007525D01*
X012451Y007525D02*
X012451Y007625D01*
X012476Y007650D01*
X012526Y007650D01*
X012551Y007625D01*
X015514Y006463D02*
X015514Y006363D01*
X015664Y006363D01*
X015664Y006316D02*
X015564Y006316D01*
X015589Y006363D02*
X015589Y006413D01*
X015664Y006316D02*
X015664Y006240D01*
X015639Y006215D01*
X015564Y006215D01*
X015514Y006118D02*
X015664Y006118D01*
X015664Y006068D02*
X015664Y006168D01*
X015564Y006068D02*
X015514Y006118D01*
X015639Y006019D02*
X015664Y006019D01*
X015664Y005994D01*
X015639Y005994D01*
X015639Y006019D01*
X015639Y005947D02*
X015664Y005922D01*
X015664Y005872D01*
X015639Y005847D01*
X015539Y005947D01*
X015639Y005947D01*
X015639Y005847D02*
X015539Y005847D01*
X015514Y005872D01*
X015514Y005922D01*
X015539Y005947D01*
X007254Y010785D02*
X007229Y010760D01*
X007129Y010860D01*
X007229Y010860D01*
X007254Y010835D01*
X007254Y010785D01*
X007229Y010760D02*
X007129Y010760D01*
X007104Y010785D01*
X007104Y010835D01*
X007129Y010860D01*
X007229Y010907D02*
X007229Y010932D01*
X007254Y010932D01*
X007254Y010907D01*
X007229Y010907D01*
X007254Y010981D02*
X007254Y011081D01*
X007254Y011031D02*
X007104Y011031D01*
X007154Y010981D01*
X007154Y011128D02*
X007229Y011128D01*
X007254Y011153D01*
X007254Y011229D01*
X007154Y011229D01*
X007179Y011276D02*
X007179Y011326D01*
X007104Y011276D02*
X007104Y011376D01*
X007104Y011276D02*
X007254Y011276D01*
X006556Y009860D02*
X006456Y009860D01*
X006456Y009710D01*
X006409Y009735D02*
X006384Y009710D01*
X006309Y009710D01*
X006261Y009710D02*
X006161Y009710D01*
X006261Y009810D01*
X006261Y009835D01*
X006236Y009860D01*
X006186Y009860D01*
X006161Y009835D01*
X006114Y009835D02*
X006089Y009860D01*
X006039Y009860D01*
X006014Y009835D01*
X006114Y009835D02*
X006114Y009810D01*
X006014Y009710D01*
X006114Y009710D01*
X006309Y009660D02*
X006309Y009810D01*
X006384Y009810D01*
X006409Y009785D01*
X006409Y009735D01*
X006456Y009785D02*
X006506Y009785D01*
X006416Y002600D02*
X006391Y002575D01*
X006391Y002450D01*
X006366Y002525D02*
X006416Y002525D01*
X006319Y002525D02*
X006319Y002575D01*
X006294Y002600D01*
X006219Y002600D01*
X006219Y002450D01*
X006171Y002450D02*
X006071Y002450D01*
X006171Y002550D01*
X006171Y002575D01*
X006146Y002600D01*
X006096Y002600D01*
X006071Y002575D01*
X006024Y002575D02*
X005999Y002600D01*
X005949Y002600D01*
X005924Y002575D01*
X006024Y002575D02*
X006024Y002550D01*
X005924Y002450D01*
X006024Y002450D01*
X006219Y002500D02*
X006294Y002500D01*
X006319Y002525D01*
X026004Y002426D02*
X026004Y002526D01*
X026079Y002476D02*
X026079Y002426D01*
X026054Y002379D02*
X026154Y002379D01*
X026154Y002303D01*
X026129Y002278D01*
X026054Y002278D01*
X026004Y002181D02*
X026154Y002181D01*
X026154Y002131D02*
X026154Y002231D01*
X026054Y002131D02*
X026004Y002181D01*
X026129Y002082D02*
X026154Y002082D01*
X026154Y002057D01*
X026129Y002057D01*
X026129Y002082D01*
X026129Y002010D02*
X026029Y002010D01*
X026129Y001910D01*
X026154Y001935D01*
X026154Y001985D01*
X026129Y002010D01*
X026129Y001910D02*
X026029Y001910D01*
X026004Y001935D01*
X026004Y001985D01*
X026029Y002010D01*
X026004Y002426D02*
X026154Y002426D01*
X026129Y003910D02*
X026029Y004010D01*
X026129Y004010D01*
X026154Y003985D01*
X026154Y003935D01*
X026129Y003910D01*
X026029Y003910D01*
X026004Y003935D01*
X026004Y003985D01*
X026029Y004010D01*
X026129Y004057D02*
X026129Y004082D01*
X026154Y004082D01*
X026154Y004057D01*
X026129Y004057D01*
X026154Y004131D02*
X026154Y004231D01*
X026154Y004181D02*
X026004Y004181D01*
X026054Y004131D01*
X026054Y004278D02*
X026129Y004278D01*
X026154Y004303D01*
X026154Y004379D01*
X026054Y004379D01*
X026079Y004426D02*
X026079Y004476D01*
X026004Y004426D02*
X026004Y004526D01*
X026004Y004426D02*
X026154Y004426D01*
X026189Y006897D02*
X026089Y006997D01*
X026189Y006997D01*
X026214Y006972D01*
X026214Y006922D01*
X026189Y006897D01*
X026089Y006897D01*
X026064Y006922D01*
X026064Y006972D01*
X026089Y006997D01*
X026189Y007044D02*
X026189Y007069D01*
X026214Y007069D01*
X026214Y007044D01*
X026189Y007044D01*
X026214Y007118D02*
X026214Y007218D01*
X026214Y007168D02*
X026064Y007168D01*
X026114Y007118D01*
X026114Y007265D02*
X026189Y007265D01*
X026214Y007290D01*
X026214Y007366D01*
X026114Y007366D01*
X026139Y007413D02*
X026139Y007463D01*
X026064Y007413D02*
X026064Y007513D01*
X026064Y007413D02*
X026214Y007413D01*
X026189Y008897D02*
X026089Y008997D01*
X026189Y008997D01*
X026214Y008972D01*
X026214Y008922D01*
X026189Y008897D01*
X026089Y008897D01*
X026064Y008922D01*
X026064Y008972D01*
X026089Y008997D01*
X026189Y009044D02*
X026189Y009069D01*
X026214Y009069D01*
X026214Y009044D01*
X026189Y009044D01*
X026214Y009118D02*
X026214Y009218D01*
X026214Y009168D02*
X026064Y009168D01*
X026114Y009118D01*
X026114Y009265D02*
X026189Y009265D01*
X026214Y009290D01*
X026214Y009366D01*
X026114Y009366D01*
X026139Y009413D02*
X026139Y009463D01*
X026064Y009413D02*
X026064Y009513D01*
X026064Y009413D02*
X026214Y009413D01*
X026129Y015910D02*
X026029Y015910D01*
X026004Y015935D01*
X026004Y015985D01*
X026029Y016010D01*
X026129Y015910D01*
X026154Y015935D01*
X026154Y015985D01*
X026129Y016010D01*
X026029Y016010D01*
X026129Y016057D02*
X026129Y016082D01*
X026154Y016082D01*
X026154Y016057D01*
X026129Y016057D01*
X026154Y016131D02*
X026154Y016231D01*
X026154Y016181D02*
X026004Y016181D01*
X026054Y016131D01*
X026054Y016278D02*
X026129Y016278D01*
X026154Y016303D01*
X026154Y016379D01*
X026054Y016379D01*
X026079Y016426D02*
X026079Y016476D01*
X026004Y016426D02*
X026004Y016526D01*
X026004Y016426D02*
X026154Y016426D01*
X026129Y017810D02*
X026029Y017910D01*
X026129Y017910D01*
X026154Y017885D01*
X026154Y017835D01*
X026129Y017810D01*
X026029Y017810D01*
X026004Y017835D01*
X026004Y017885D01*
X026029Y017910D01*
X026129Y017957D02*
X026129Y017982D01*
X026154Y017982D01*
X026154Y017957D01*
X026129Y017957D01*
X026154Y018031D02*
X026154Y018131D01*
X026154Y018081D02*
X026004Y018081D01*
X026054Y018031D01*
X026054Y018178D02*
X026129Y018178D01*
X026154Y018203D01*
X026154Y018279D01*
X026054Y018279D01*
X026079Y018326D02*
X026079Y018376D01*
X026004Y018326D02*
X026004Y018426D01*
X026004Y018326D02*
X026154Y018326D01*
X026189Y020897D02*
X026089Y020997D01*
X026189Y020997D01*
X026214Y020972D01*
X026214Y020922D01*
X026189Y020897D01*
X026089Y020897D01*
X026064Y020922D01*
X026064Y020972D01*
X026089Y020997D01*
X026189Y021044D02*
X026189Y021069D01*
X026214Y021069D01*
X026214Y021044D01*
X026189Y021044D01*
X026214Y021118D02*
X026214Y021218D01*
X026214Y021168D02*
X026064Y021168D01*
X026114Y021118D01*
X026114Y021265D02*
X026189Y021265D01*
X026214Y021290D01*
X026214Y021366D01*
X026114Y021366D01*
X026139Y021413D02*
X026139Y021463D01*
X026064Y021413D02*
X026064Y021513D01*
X026064Y021413D02*
X026214Y021413D01*
X026189Y022897D02*
X026089Y022997D01*
X026189Y022997D01*
X026214Y022972D01*
X026214Y022922D01*
X026189Y022897D01*
X026089Y022897D01*
X026064Y022922D01*
X026064Y022972D01*
X026089Y022997D01*
X026189Y023044D02*
X026189Y023069D01*
X026214Y023069D01*
X026214Y023044D01*
X026189Y023044D01*
X026214Y023118D02*
X026214Y023218D01*
X026214Y023168D02*
X026064Y023168D01*
X026114Y023118D01*
X026114Y023265D02*
X026189Y023265D01*
X026214Y023290D01*
X026214Y023366D01*
X026114Y023366D01*
X026139Y023413D02*
X026139Y023463D01*
X026064Y023413D02*
X026064Y023513D01*
X026064Y023413D02*
X026214Y023413D01*
X014214Y020363D02*
X014064Y020363D01*
X014064Y020463D01*
X014139Y020413D02*
X014139Y020363D01*
X014114Y020316D02*
X014214Y020316D01*
X014214Y020240D01*
X014189Y020215D01*
X014114Y020215D01*
X014064Y020118D02*
X014214Y020118D01*
X014214Y020068D02*
X014214Y020168D01*
X014114Y020068D02*
X014064Y020118D01*
X014189Y020019D02*
X014214Y020019D01*
X014214Y019994D01*
X014189Y019994D01*
X014189Y020019D01*
X014189Y019947D02*
X014214Y019922D01*
X014214Y019872D01*
X014189Y019847D01*
X014089Y019947D01*
X014189Y019947D01*
X014189Y019847D02*
X014089Y019847D01*
X014064Y019872D01*
X014064Y019922D01*
X014089Y019947D01*
D16*
X023959Y018655D02*
X023959Y024655D01*
X026159Y024655D01*
X026159Y024155D01*
X025659Y024155D01*
X025659Y019155D01*
X026159Y019155D01*
X026159Y018655D01*
X023959Y018655D01*
X026159Y019155D02*
X026159Y024155D01*
X027159Y024655D02*
X030659Y024655D01*
X030659Y018155D01*
X030659Y019155D02*
X030659Y014655D01*
X027159Y014655D01*
X027159Y019155D01*
X027159Y018155D02*
X027159Y024655D01*
X027159Y010655D02*
X030659Y010655D01*
X030659Y004155D01*
X030659Y005155D02*
X030659Y000655D01*
X027159Y000655D01*
X027159Y005155D01*
X027159Y004155D02*
X027159Y010655D01*
M02*
