G75*
G70*
%OFA0B0*%
%FSLAX24Y24*%
%IPPOS*%
%LPD*%
%AMOC8*
5,1,8,0,0,1.08239X$1,22.5*
%
%ADD10C,0.0560*%
%ADD11C,0.0650*%
%ADD12R,0.0650X0.0650*%
%ADD13C,0.0640*%
%ADD14C,0.0860*%
%ADD15C,0.0740*%
%ADD16R,0.0740X0.0740*%
%ADD17C,0.0100*%
%ADD18C,0.0120*%
%ADD19C,0.0400*%
%ADD20C,0.0320*%
D10*
X007375Y005655D02*
X007935Y005655D01*
X007935Y006655D02*
X007375Y006655D01*
X007375Y007655D02*
X007935Y007655D01*
X007935Y008655D02*
X007375Y008655D01*
X007375Y009655D02*
X007935Y009655D01*
X007935Y010655D02*
X007375Y010655D01*
X007375Y011655D02*
X007935Y011655D01*
X007935Y012655D02*
X007375Y012655D01*
X007375Y013655D02*
X007935Y013655D01*
X007935Y014655D02*
X007375Y014655D01*
X007375Y015655D02*
X007935Y015655D01*
X007935Y016655D02*
X007375Y016655D01*
X007375Y017655D02*
X007935Y017655D01*
X007935Y018655D02*
X007375Y018655D01*
X010375Y018655D02*
X010935Y018655D01*
X010935Y017655D02*
X010375Y017655D01*
X010375Y016655D02*
X010935Y016655D01*
X010935Y015655D02*
X010375Y015655D01*
X010375Y014655D02*
X010935Y014655D01*
X010935Y013655D02*
X010375Y013655D01*
X010375Y012655D02*
X010935Y012655D01*
X010935Y011655D02*
X010375Y011655D01*
X010375Y010655D02*
X010935Y010655D01*
X010935Y009655D02*
X010375Y009655D01*
X010375Y008655D02*
X010935Y008655D01*
X010935Y007655D02*
X010375Y007655D01*
X010375Y006655D02*
X010935Y006655D01*
X010935Y005655D02*
X010375Y005655D01*
X012875Y009655D02*
X013435Y009655D01*
X013435Y010655D02*
X012875Y010655D01*
X012875Y011655D02*
X013435Y011655D01*
X013435Y012655D02*
X012875Y012655D01*
X012875Y013655D02*
X013435Y013655D01*
X013435Y014655D02*
X012875Y014655D01*
X012875Y015655D02*
X013435Y015655D01*
X013435Y016655D02*
X012875Y016655D01*
X015155Y017875D02*
X015155Y018435D01*
X016155Y018435D02*
X016155Y017875D01*
X017155Y017875D02*
X017155Y018435D01*
X018155Y018435D02*
X018155Y017875D01*
X019155Y017875D02*
X019155Y018435D01*
X020155Y018435D02*
X020155Y017875D01*
X021155Y017875D02*
X021155Y018435D01*
X022155Y018435D02*
X022155Y017875D01*
X018878Y015828D02*
X018482Y015432D01*
X017775Y016139D02*
X018171Y016535D01*
X019585Y015121D02*
X019189Y014725D01*
X019896Y014018D02*
X020292Y014414D01*
X020999Y013707D02*
X020604Y013311D01*
X021311Y012604D02*
X021707Y012999D01*
X022414Y012292D02*
X022018Y011896D01*
X022725Y011189D02*
X023121Y011585D01*
X023828Y010878D02*
X023432Y010482D01*
X024139Y009775D02*
X024535Y010171D01*
X023655Y008435D02*
X023655Y007875D01*
X022655Y007875D02*
X022655Y008435D01*
X021655Y008435D02*
X021655Y007875D01*
X020655Y007875D02*
X020655Y008435D01*
X019655Y008435D02*
X019655Y007875D01*
X018655Y007875D02*
X018655Y008435D01*
X017655Y008435D02*
X017655Y007875D01*
X016655Y007875D02*
X016655Y008435D01*
X016435Y009655D02*
X015875Y009655D01*
X015875Y010655D02*
X016435Y010655D01*
X016435Y011655D02*
X015875Y011655D01*
X015875Y012655D02*
X016435Y012655D01*
X016435Y013655D02*
X015875Y013655D01*
X015875Y014655D02*
X016435Y014655D01*
X016435Y015655D02*
X015875Y015655D01*
X015875Y016655D02*
X016435Y016655D01*
X016155Y020875D02*
X016155Y021435D01*
X015155Y021435D02*
X015155Y020875D01*
X017155Y020875D02*
X017155Y021435D01*
X018155Y021435D02*
X018155Y020875D01*
X019155Y020875D02*
X019155Y021435D01*
X020155Y021435D02*
X020155Y020875D01*
X021155Y020875D02*
X021155Y021435D01*
X022155Y021435D02*
X022155Y020875D01*
X021655Y005435D02*
X021655Y004875D01*
X022655Y004875D02*
X022655Y005435D01*
X023655Y005435D02*
X023655Y004875D01*
X020655Y004875D02*
X020655Y005435D01*
X019655Y005435D02*
X019655Y004875D01*
X018655Y004875D02*
X018655Y005435D01*
X017655Y005435D02*
X017655Y004875D01*
X016655Y004875D02*
X016655Y005435D01*
D11*
X015655Y006155D03*
X015655Y007155D03*
X013655Y008655D03*
X012655Y008655D03*
X015155Y003155D03*
X018655Y002655D03*
X026155Y002655D03*
X026155Y001655D03*
X026155Y003655D03*
X026155Y004655D03*
X026155Y006655D03*
X026155Y007655D03*
X026155Y008655D03*
X026155Y009655D03*
X025655Y012655D03*
X026155Y015655D03*
X026155Y016655D03*
X026155Y017655D03*
X026155Y018655D03*
X026155Y020655D03*
X026155Y021655D03*
X026155Y022655D03*
X026155Y023655D03*
X016155Y022655D03*
X015155Y022655D03*
X013155Y022155D03*
X004155Y022655D03*
X004155Y023655D03*
X004655Y012655D03*
X005655Y012655D03*
X004155Y011655D03*
X004155Y010655D03*
X004155Y009655D03*
X004155Y008655D03*
X005655Y008655D03*
X005655Y010655D03*
X007655Y002655D03*
D12*
X006655Y002655D03*
X015155Y004155D03*
X019655Y002655D03*
X026655Y012655D03*
X013155Y021155D03*
D13*
X009255Y022265D02*
X008615Y022265D01*
X006695Y022265D02*
X006055Y022265D01*
X006055Y024045D02*
X006695Y024045D01*
X008615Y024045D02*
X009255Y024045D01*
X003975Y006155D02*
X003335Y006155D01*
X002475Y006155D02*
X001835Y006155D01*
X001835Y005155D02*
X002475Y005155D01*
X003335Y005155D02*
X003975Y005155D01*
X003975Y004155D02*
X003335Y004155D01*
X002475Y004155D02*
X001835Y004155D01*
D14*
X027725Y003655D02*
X028585Y003655D01*
X028585Y001655D02*
X027725Y001655D01*
X027725Y005655D02*
X028585Y005655D01*
X028585Y007655D02*
X027725Y007655D01*
X027725Y009655D02*
X028585Y009655D01*
X028585Y015655D02*
X027725Y015655D01*
X027725Y017655D02*
X028585Y017655D01*
X028585Y019655D02*
X027725Y019655D01*
X027725Y021655D02*
X028585Y021655D01*
X028585Y023655D02*
X027725Y023655D01*
D15*
X024755Y024155D03*
X024655Y023155D03*
X024755Y022155D03*
X024655Y021155D03*
X024755Y020155D03*
X024655Y019155D03*
X029155Y012105D03*
X012155Y006255D03*
X012155Y002255D03*
X003155Y007655D03*
X001655Y007655D03*
X001655Y011655D03*
X003155Y011655D03*
X003155Y016155D03*
X003155Y017155D03*
X003155Y018155D03*
X003155Y019155D03*
X003155Y020155D03*
X003155Y021155D03*
X005655Y021155D03*
X009655Y021155D03*
D16*
X029155Y013205D03*
D17*
X000865Y003503D02*
X000865Y000865D01*
X030465Y000865D01*
X030465Y024441D01*
X025190Y024441D01*
X025200Y024428D01*
X025237Y024355D01*
X025262Y024277D01*
X025274Y024205D01*
X024805Y024205D01*
X024805Y024105D01*
X025274Y024105D01*
X025262Y024033D01*
X025237Y023955D01*
X025200Y023883D01*
X025152Y023816D01*
X025094Y023758D01*
X025028Y023710D01*
X024986Y023689D01*
X025006Y023681D01*
X025181Y023506D01*
X025275Y023278D01*
X025275Y023032D01*
X025181Y022804D01*
X025041Y022664D01*
X025084Y022647D01*
X025247Y022484D01*
X025335Y022270D01*
X025335Y022040D01*
X025247Y021827D01*
X025084Y021663D01*
X025001Y021629D01*
X025147Y021484D01*
X025235Y021270D01*
X025235Y021040D01*
X025147Y020827D01*
X025001Y020681D01*
X025084Y020647D01*
X025247Y020484D01*
X025335Y020270D01*
X025335Y020040D01*
X025247Y019827D01*
X025084Y019663D01*
X025001Y019629D01*
X025147Y019484D01*
X025216Y019316D01*
X026029Y020128D01*
X025852Y020202D01*
X025702Y020352D01*
X025620Y020549D01*
X025620Y020762D01*
X025702Y020958D01*
X025852Y021109D01*
X025912Y021133D01*
X025829Y021168D01*
X025668Y021329D01*
X025580Y021541D01*
X025580Y021769D01*
X025668Y021981D01*
X025829Y022143D01*
X025912Y022177D01*
X025852Y022202D01*
X025702Y022352D01*
X025620Y022549D01*
X025620Y022762D01*
X025702Y022958D01*
X025852Y023109D01*
X025912Y023133D01*
X025829Y023168D01*
X025668Y023329D01*
X025580Y023541D01*
X025580Y023769D01*
X025668Y023981D01*
X025829Y024143D01*
X026041Y024230D01*
X026269Y024230D01*
X026481Y024143D01*
X026643Y023981D01*
X026730Y023769D01*
X026730Y023640D01*
X027335Y023035D01*
X027367Y023067D01*
X027340Y023079D01*
X027149Y023270D01*
X027045Y023520D01*
X027045Y023790D01*
X027149Y024040D01*
X027340Y024232D01*
X027590Y024335D01*
X028720Y024335D01*
X028970Y024232D01*
X029162Y024040D01*
X029265Y023790D01*
X029265Y023520D01*
X029162Y023270D01*
X028970Y023079D01*
X028720Y022975D01*
X028435Y022975D01*
X028327Y022868D01*
X027795Y022335D01*
X028720Y022335D01*
X028970Y022232D01*
X029162Y022040D01*
X029265Y021790D01*
X029265Y021520D01*
X029162Y021270D01*
X029131Y021239D01*
X030043Y020327D01*
X030105Y020177D01*
X030105Y020014D01*
X030105Y015134D01*
X030043Y014983D01*
X029927Y014868D01*
X029207Y014148D01*
X029057Y014085D01*
X028894Y014085D01*
X026045Y014085D01*
X026887Y013243D01*
X026900Y013230D01*
X027030Y013230D01*
X027122Y013192D01*
X027192Y013122D01*
X027215Y013065D01*
X027217Y013065D01*
X027367Y013003D01*
X027483Y012887D01*
X027535Y012835D01*
X028183Y013483D01*
X028334Y013545D01*
X028497Y013545D01*
X028535Y013545D01*
X028535Y013625D01*
X028573Y013717D01*
X028644Y013787D01*
X028735Y013825D01*
X029575Y013825D01*
X029667Y013787D01*
X029737Y013717D01*
X029775Y013625D01*
X029775Y012785D01*
X029737Y012694D01*
X029667Y012623D01*
X029575Y012585D01*
X029495Y012585D01*
X029647Y012434D01*
X029735Y012220D01*
X029735Y011990D01*
X029647Y011777D01*
X029484Y011613D01*
X029270Y011525D01*
X029040Y011525D01*
X028827Y011613D01*
X028663Y011777D01*
X028575Y011990D01*
X028575Y012220D01*
X028663Y012434D01*
X028815Y012585D01*
X028735Y012585D01*
X028644Y012623D01*
X028573Y012694D01*
X028567Y012708D01*
X028115Y012255D01*
X030043Y010327D01*
X030105Y010177D01*
X030105Y010014D01*
X030105Y007134D01*
X030043Y006983D01*
X029927Y006868D01*
X029927Y006868D01*
X029557Y006497D01*
X029517Y006400D01*
X029390Y006274D01*
X029225Y006205D01*
X029046Y006205D01*
X028880Y006274D01*
X028754Y006400D01*
X028685Y006566D01*
X028685Y006745D01*
X028754Y006910D01*
X028880Y007037D01*
X028977Y007077D01*
X029285Y007385D01*
X029285Y009925D01*
X027303Y011908D01*
X027303Y011908D01*
X027188Y012023D01*
X027188Y012023D01*
X027101Y012110D01*
X027030Y012080D01*
X026280Y012080D01*
X026189Y012118D01*
X026118Y012189D01*
X026080Y012280D01*
X026080Y012324D01*
X025958Y012202D01*
X025762Y012120D01*
X025549Y012120D01*
X025352Y012202D01*
X025202Y012352D01*
X025120Y012549D01*
X025120Y012762D01*
X025202Y012958D01*
X025352Y013109D01*
X025549Y013190D01*
X025762Y013190D01*
X025794Y013177D01*
X023588Y015383D01*
X023525Y015534D01*
X023525Y015697D01*
X023525Y016149D01*
X023514Y016177D01*
X022320Y017370D01*
X022261Y017345D01*
X022050Y017345D01*
X021855Y017426D01*
X021706Y017575D01*
X021633Y017750D01*
X021570Y017598D01*
X021433Y017460D01*
X021405Y017448D01*
X021405Y016869D01*
X021405Y016761D01*
X021364Y016662D01*
X020030Y015328D01*
X020075Y015218D01*
X020075Y015023D01*
X020001Y014843D01*
X019467Y014310D01*
X019287Y014235D01*
X019092Y014235D01*
X018912Y014310D01*
X018774Y014447D01*
X018699Y014627D01*
X018699Y014822D01*
X018774Y015002D01*
X019308Y015536D01*
X019488Y015611D01*
X019549Y015611D01*
X020865Y016927D01*
X020865Y017472D01*
X020740Y017598D01*
X020677Y017750D01*
X020604Y017575D01*
X020455Y017426D01*
X020261Y017345D01*
X020050Y017345D01*
X019885Y017413D01*
X019885Y016629D01*
X019885Y016521D01*
X019844Y016422D01*
X019362Y015940D01*
X019368Y015925D01*
X019368Y015730D01*
X019294Y015550D01*
X018760Y015017D01*
X018580Y014942D01*
X018385Y014942D01*
X018205Y015017D01*
X018067Y015154D01*
X017992Y015335D01*
X017992Y015529D01*
X018067Y015710D01*
X018601Y016243D01*
X018781Y016318D01*
X018976Y016318D01*
X018976Y016318D01*
X019345Y016687D01*
X019345Y017424D01*
X019253Y017385D01*
X019058Y017385D01*
X018878Y017460D01*
X018740Y017598D01*
X018665Y017778D01*
X018665Y018533D01*
X018740Y018713D01*
X018878Y018850D01*
X019058Y018925D01*
X019253Y018925D01*
X019345Y018887D01*
X019345Y019578D01*
X019217Y019525D01*
X019054Y019525D01*
X018903Y019588D01*
X018825Y019665D01*
X015647Y019665D01*
X013448Y017466D01*
X013349Y017425D01*
X013241Y017425D01*
X011370Y017425D01*
X011350Y017378D01*
X011213Y017240D01*
X011033Y017165D01*
X010278Y017165D01*
X010098Y017240D01*
X009960Y017378D01*
X009885Y017558D01*
X009885Y017753D01*
X009960Y017933D01*
X010098Y018070D01*
X010278Y018145D01*
X011033Y018145D01*
X011213Y018070D01*
X011318Y017965D01*
X013183Y017965D01*
X015306Y020088D01*
X015382Y020164D01*
X015481Y020205D01*
X018825Y020205D01*
X018903Y020283D01*
X019054Y020345D01*
X019217Y020345D01*
X019345Y020292D01*
X019345Y020423D01*
X019253Y020385D01*
X019058Y020385D01*
X018878Y020460D01*
X018740Y020598D01*
X018665Y020778D01*
X018665Y021533D01*
X018740Y021713D01*
X018878Y021850D01*
X019058Y021925D01*
X019253Y021925D01*
X019402Y021863D01*
X019462Y021924D01*
X020022Y022484D01*
X020121Y022525D01*
X020229Y022525D01*
X020323Y022525D01*
X020303Y022545D01*
X017685Y022545D01*
X017607Y022468D01*
X017457Y022405D01*
X017294Y022405D01*
X017143Y022468D01*
X017028Y022583D01*
X016965Y022734D01*
X016965Y022897D01*
X017028Y023047D01*
X017143Y023163D01*
X017294Y023225D01*
X017457Y023225D01*
X017607Y023163D01*
X017685Y023085D01*
X020083Y023085D01*
X019903Y023265D01*
X013487Y023265D01*
X010925Y020703D01*
X010925Y019145D01*
X011033Y019145D01*
X011213Y019070D01*
X011350Y018933D01*
X011425Y018753D01*
X011425Y018558D01*
X011350Y018378D01*
X011213Y018240D01*
X011033Y018165D01*
X010278Y018165D01*
X010098Y018240D01*
X009960Y018378D01*
X009885Y018558D01*
X009885Y018753D01*
X009960Y018933D01*
X010098Y019070D01*
X010278Y019145D01*
X010385Y019145D01*
X010385Y020761D01*
X010385Y020869D01*
X010426Y020968D01*
X013146Y023688D01*
X013222Y023764D01*
X013321Y023805D01*
X019961Y023805D01*
X020069Y023805D01*
X020168Y023764D01*
X021361Y022571D01*
X021220Y022815D01*
X021220Y022815D01*
X021160Y023155D01*
X021160Y023155D01*
X021220Y023495D01*
X021220Y023495D01*
X021393Y023795D01*
X021393Y023795D01*
X021658Y024017D01*
X021658Y024017D01*
X021982Y024135D01*
X021982Y024135D01*
X022105Y024135D01*
X022105Y024135D01*
X022154Y024135D01*
X022155Y024135D01*
X022205Y024135D01*
X022205Y024135D01*
X022328Y024135D01*
X022328Y024135D01*
X022653Y024017D01*
X022653Y024017D01*
X022917Y023795D01*
X022917Y023795D01*
X023090Y023495D01*
X023090Y023495D01*
X023150Y023155D01*
X023150Y023155D01*
X023090Y022815D01*
X023090Y022815D01*
X022917Y022516D01*
X022917Y022515D01*
X022917Y022515D01*
X022653Y022293D01*
X022653Y022293D01*
X022328Y022175D01*
X022205Y022175D01*
X022205Y022175D01*
X022155Y022175D01*
X022126Y022175D01*
X022105Y022175D01*
X022105Y022175D01*
X021982Y022175D01*
X021982Y022175D01*
X021658Y022293D01*
X021658Y022293D01*
X021540Y022392D01*
X021807Y022125D01*
X023641Y022125D01*
X023749Y022125D01*
X023848Y022084D01*
X024306Y021626D01*
X024327Y021647D01*
X024409Y021681D01*
X024263Y021827D01*
X024175Y022040D01*
X024175Y022270D01*
X024263Y022484D01*
X024378Y022599D01*
X024304Y022629D01*
X024129Y022804D01*
X024035Y023032D01*
X024035Y023278D01*
X024129Y023506D01*
X024304Y023681D01*
X024444Y023739D01*
X024416Y023758D01*
X024358Y023816D01*
X024310Y023883D01*
X024273Y023955D01*
X024248Y024033D01*
X024237Y024105D01*
X024705Y024105D01*
X024705Y024205D01*
X024237Y024205D01*
X024248Y024277D01*
X024273Y024355D01*
X024310Y024428D01*
X024320Y024441D01*
X009609Y024441D01*
X009704Y024345D01*
X009785Y024151D01*
X009785Y023940D01*
X009704Y023745D01*
X009555Y023596D01*
X009361Y023515D01*
X008510Y023515D01*
X008315Y023596D01*
X008166Y023745D01*
X008085Y023940D01*
X008085Y024151D01*
X008166Y024345D01*
X008262Y024441D01*
X007049Y024441D01*
X007144Y024345D01*
X007225Y024151D01*
X007225Y023940D01*
X007144Y023745D01*
X006995Y023596D01*
X006801Y023515D01*
X005950Y023515D01*
X005755Y023596D01*
X005606Y023745D01*
X005525Y023940D01*
X005525Y024151D01*
X005606Y024345D01*
X005702Y024441D01*
X000865Y024441D01*
X000865Y009967D01*
X002305Y011407D01*
X002305Y011801D01*
X002305Y011843D01*
X002234Y011772D01*
X002235Y011770D01*
X002235Y011540D01*
X002147Y011327D01*
X001984Y011163D01*
X001770Y011075D01*
X001540Y011075D01*
X001327Y011163D01*
X001163Y011327D01*
X001075Y011540D01*
X001075Y011770D01*
X001163Y011984D01*
X001327Y012147D01*
X001540Y012235D01*
X001770Y012235D01*
X001886Y012187D01*
X004022Y014324D01*
X004121Y014365D01*
X004229Y014365D01*
X006972Y014365D01*
X006960Y014378D01*
X006885Y014558D01*
X006885Y014753D01*
X006960Y014933D01*
X007098Y015070D01*
X007278Y015145D01*
X008033Y015145D01*
X008213Y015070D01*
X008350Y014933D01*
X008386Y014848D01*
X008422Y014884D01*
X008521Y014925D01*
X008629Y014925D01*
X009957Y014925D01*
X009960Y014933D01*
X010098Y015070D01*
X010278Y015145D01*
X011033Y015145D01*
X011213Y015070D01*
X011350Y014933D01*
X011425Y014753D01*
X011425Y014558D01*
X011350Y014378D01*
X011338Y014365D01*
X011903Y014365D01*
X012346Y014808D01*
X012422Y014884D01*
X012443Y014893D01*
X012460Y014933D01*
X012598Y015070D01*
X012778Y015145D01*
X013533Y015145D01*
X013713Y015070D01*
X013850Y014933D01*
X013925Y014753D01*
X013925Y014558D01*
X013850Y014378D01*
X013713Y014240D01*
X013533Y014165D01*
X012778Y014165D01*
X012598Y014240D01*
X012570Y014268D01*
X012168Y013866D01*
X012069Y013825D01*
X011961Y013825D01*
X011395Y013825D01*
X011425Y013753D01*
X011425Y013558D01*
X011350Y013378D01*
X011213Y013240D01*
X011033Y013165D01*
X010278Y013165D01*
X010098Y013240D01*
X009960Y013378D01*
X009924Y013464D01*
X009829Y013425D01*
X009721Y013425D01*
X008370Y013425D01*
X008350Y013378D01*
X008213Y013240D01*
X008033Y013165D01*
X007278Y013165D01*
X007098Y013240D01*
X006960Y013378D01*
X006885Y013558D01*
X006885Y013753D01*
X006915Y013825D01*
X004287Y013825D01*
X003186Y012724D01*
X003287Y012683D01*
X003403Y012567D01*
X003465Y012417D01*
X003465Y012254D01*
X003430Y012169D01*
X003484Y012147D01*
X003647Y011984D01*
X003679Y011905D01*
X003702Y011958D01*
X003852Y012109D01*
X004049Y012190D01*
X004262Y012190D01*
X004458Y012109D01*
X004609Y011958D01*
X004690Y011762D01*
X004690Y011549D01*
X004609Y011352D01*
X004458Y011202D01*
X004346Y011155D01*
X004458Y011109D01*
X004609Y010958D01*
X004690Y010762D01*
X004690Y010549D01*
X004609Y010352D01*
X004458Y010202D01*
X004346Y010155D01*
X004458Y010109D01*
X004609Y009958D01*
X004690Y009762D01*
X004690Y009549D01*
X004609Y009352D01*
X004458Y009202D01*
X004346Y009155D01*
X004458Y009109D01*
X004609Y008958D01*
X004690Y008762D01*
X004690Y008549D01*
X004609Y008352D01*
X004458Y008202D01*
X004262Y008120D01*
X004049Y008120D01*
X003852Y008202D01*
X003702Y008352D01*
X003620Y008549D01*
X003620Y008762D01*
X003702Y008958D01*
X003852Y009109D01*
X003964Y009155D01*
X003852Y009202D01*
X003702Y009352D01*
X003620Y009549D01*
X003620Y009762D01*
X003702Y009958D01*
X003852Y010109D01*
X003964Y010155D01*
X003852Y010202D01*
X003702Y010352D01*
X003620Y010549D01*
X003620Y010762D01*
X003702Y010958D01*
X003852Y011109D01*
X003964Y011155D01*
X003852Y011202D01*
X003702Y011352D01*
X003679Y011405D01*
X003647Y011327D01*
X003484Y011163D01*
X003270Y011075D01*
X003040Y011075D01*
X002827Y011163D01*
X002817Y011173D01*
X002804Y011142D01*
X001085Y009423D01*
X001085Y007794D01*
X001163Y007984D01*
X001327Y008147D01*
X001540Y008235D01*
X001770Y008235D01*
X001984Y008147D01*
X002147Y007984D01*
X002235Y007770D01*
X002235Y007540D01*
X002147Y007327D01*
X001984Y007163D01*
X001770Y007075D01*
X001540Y007075D01*
X001327Y007163D01*
X001163Y007327D01*
X001085Y007516D01*
X001085Y004047D01*
X001667Y003465D01*
X001777Y003465D01*
X001927Y003403D01*
X002043Y003287D01*
X002105Y003137D01*
X002105Y003135D01*
X002105Y003135D01*
X002105Y003135D01*
X002152Y003135D01*
X002155Y003135D01*
X002199Y003135D01*
X002205Y003135D01*
X002205Y003135D01*
X002328Y003135D01*
X002328Y003135D01*
X002653Y003017D01*
X002653Y003017D01*
X002917Y002795D01*
X002917Y002795D01*
X003090Y002495D01*
X003090Y002495D01*
X003150Y002155D01*
X003150Y002155D01*
X003090Y001815D01*
X003090Y001815D01*
X002917Y001516D01*
X002917Y001515D01*
X002917Y001515D01*
X002653Y001293D01*
X002653Y001293D01*
X002328Y001175D01*
X002328Y001175D01*
X002205Y001175D01*
X002205Y001175D01*
X002171Y001175D01*
X002155Y001175D01*
X002105Y001175D01*
X002105Y001175D01*
X001982Y001175D01*
X001982Y001175D01*
X001658Y001293D01*
X001658Y001293D01*
X001393Y001515D01*
X001393Y001516D01*
X001220Y001815D01*
X001220Y001815D01*
X001160Y002155D01*
X001160Y002155D01*
X001220Y002495D01*
X001220Y002495D01*
X001387Y002784D01*
X001348Y002823D01*
X001285Y002974D01*
X001285Y003083D01*
X000865Y003503D01*
X000865Y003414D02*
X000954Y003414D01*
X000865Y003316D02*
X001053Y003316D01*
X001151Y003217D02*
X000865Y003217D01*
X000865Y003119D02*
X001250Y003119D01*
X001285Y003020D02*
X000865Y003020D01*
X000865Y002922D02*
X001307Y002922D01*
X001347Y002823D02*
X000865Y002823D01*
X000865Y002725D02*
X001352Y002725D01*
X001295Y002626D02*
X000865Y002626D01*
X000865Y002527D02*
X001239Y002527D01*
X001208Y002429D02*
X000865Y002429D01*
X000865Y002330D02*
X001191Y002330D01*
X001174Y002232D02*
X000865Y002232D01*
X000865Y002133D02*
X001164Y002133D01*
X001181Y002035D02*
X000865Y002035D01*
X000865Y001936D02*
X001199Y001936D01*
X001216Y001838D02*
X000865Y001838D01*
X000865Y001739D02*
X001264Y001739D01*
X001321Y001641D02*
X000865Y001641D01*
X000865Y001542D02*
X001378Y001542D01*
X001479Y001443D02*
X000865Y001443D01*
X000865Y001345D02*
X001596Y001345D01*
X001787Y001246D02*
X000865Y001246D01*
X000865Y001148D02*
X025799Y001148D01*
X025854Y001125D02*
X025932Y001125D01*
X026041Y001080D01*
X026269Y001080D01*
X026481Y001168D01*
X026643Y001329D01*
X026730Y001541D01*
X026730Y001769D01*
X026643Y001981D01*
X026481Y002143D01*
X026398Y002177D01*
X026458Y002202D01*
X026609Y002352D01*
X026690Y002549D01*
X026690Y002762D01*
X026609Y002958D01*
X026458Y003109D01*
X026398Y003133D01*
X026481Y003168D01*
X026643Y003329D01*
X026730Y003541D01*
X026730Y003769D01*
X026643Y003981D01*
X026481Y004143D01*
X026398Y004177D01*
X026458Y004202D01*
X026609Y004352D01*
X026690Y004549D01*
X026690Y004762D01*
X026609Y004958D01*
X026458Y005109D01*
X026262Y005190D01*
X026049Y005190D01*
X025852Y005109D01*
X025702Y004958D01*
X025620Y004762D01*
X025620Y004549D01*
X025702Y004352D01*
X025852Y004202D01*
X025912Y004177D01*
X025829Y004143D01*
X025668Y003981D01*
X025580Y003769D01*
X025580Y003541D01*
X025668Y003329D01*
X025829Y003168D01*
X025912Y003133D01*
X025852Y003109D01*
X025702Y002958D01*
X025620Y002762D01*
X025620Y002549D01*
X025702Y002352D01*
X025852Y002202D01*
X025912Y002177D01*
X025885Y002165D01*
X025545Y002505D01*
X025545Y005377D01*
X025483Y005527D01*
X025367Y005643D01*
X024517Y006493D01*
X024487Y006565D01*
X025054Y006565D01*
X025217Y006565D01*
X025367Y006628D01*
X025885Y007145D01*
X025912Y007133D01*
X025852Y007109D01*
X025702Y006958D01*
X025620Y006762D01*
X025620Y006549D01*
X025702Y006352D01*
X025852Y006202D01*
X026049Y006120D01*
X026262Y006120D01*
X026458Y006202D01*
X026609Y006352D01*
X026622Y006385D01*
X026943Y006385D01*
X027247Y006082D01*
X027183Y006018D01*
X027085Y005782D01*
X027085Y005528D01*
X027183Y005293D01*
X027363Y005113D01*
X027598Y005015D01*
X028712Y005015D01*
X028948Y005113D01*
X029128Y005293D01*
X029225Y005528D01*
X029225Y005782D01*
X029128Y006018D01*
X028948Y006198D01*
X028712Y006295D01*
X027797Y006295D01*
X027284Y006808D01*
X027208Y006884D01*
X027109Y006925D01*
X026622Y006925D01*
X026609Y006958D01*
X026458Y007109D01*
X026398Y007133D01*
X026481Y007168D01*
X026643Y007329D01*
X026730Y007541D01*
X026730Y007769D01*
X026643Y007981D01*
X026481Y008143D01*
X026398Y008177D01*
X026458Y008202D01*
X026609Y008352D01*
X026690Y008549D01*
X026690Y008762D01*
X026609Y008958D01*
X026458Y009109D01*
X026398Y009133D01*
X026481Y009168D01*
X026643Y009329D01*
X026730Y009541D01*
X026730Y009769D01*
X026643Y009981D01*
X026481Y010143D01*
X026269Y010230D01*
X026041Y010230D01*
X025829Y010143D01*
X025668Y009981D01*
X025580Y009769D01*
X025580Y009541D01*
X025668Y009329D01*
X025829Y009168D01*
X025912Y009133D01*
X025852Y009109D01*
X025702Y008958D01*
X025620Y008762D01*
X025620Y008549D01*
X025702Y008352D01*
X025852Y008202D01*
X025892Y008185D01*
X025854Y008185D01*
X025703Y008123D01*
X025588Y008007D01*
X024965Y007385D01*
X022814Y007385D01*
X022663Y007323D01*
X022548Y007207D01*
X022025Y006685D01*
X022025Y007496D01*
X022104Y007575D01*
X022177Y007750D01*
X022240Y007598D01*
X022378Y007460D01*
X022558Y007385D01*
X022753Y007385D01*
X022933Y007460D01*
X023070Y007598D01*
X023145Y007778D01*
X023145Y008533D01*
X023101Y008639D01*
X023842Y009380D01*
X023862Y009360D01*
X024042Y009285D01*
X024237Y009285D01*
X024417Y009360D01*
X024950Y009893D01*
X025025Y010074D01*
X025025Y010269D01*
X024950Y010449D01*
X024813Y010586D01*
X024632Y010661D01*
X024438Y010661D01*
X024257Y010586D01*
X023724Y010053D01*
X023705Y010006D01*
X022623Y008925D01*
X022558Y008925D01*
X022378Y008850D01*
X022240Y008713D01*
X022177Y008561D01*
X022104Y008735D01*
X021955Y008884D01*
X021761Y008965D01*
X021550Y008965D01*
X021355Y008884D01*
X021206Y008735D01*
X021133Y008561D01*
X021070Y008713D01*
X020933Y008850D01*
X020862Y008880D01*
X021568Y009586D01*
X021644Y009662D01*
X022681Y010699D01*
X022822Y010699D01*
X023002Y010774D01*
X023536Y011308D01*
X023611Y011488D01*
X023611Y011683D01*
X023536Y011863D01*
X023398Y012001D01*
X023218Y012075D01*
X023023Y012075D01*
X022843Y012001D01*
X022310Y011467D01*
X022235Y011287D01*
X022235Y011092D01*
X022257Y011039D01*
X022061Y010843D01*
X022043Y010887D01*
X021927Y011003D01*
X021777Y011065D01*
X021667Y011065D01*
X019067Y013665D01*
X019556Y013665D01*
X019619Y013602D01*
X019799Y013528D01*
X019994Y013528D01*
X020174Y013602D01*
X020708Y014136D01*
X020782Y014316D01*
X020782Y014511D01*
X020708Y014691D01*
X020570Y014829D01*
X020390Y014904D01*
X020195Y014904D01*
X020015Y014829D01*
X019481Y014295D01*
X019444Y014205D01*
X019007Y014205D01*
X017485Y015727D01*
X017485Y015736D01*
X017498Y015724D01*
X017678Y015649D01*
X017873Y015649D01*
X018053Y015724D01*
X018586Y016257D01*
X018661Y016438D01*
X018661Y016632D01*
X018586Y016813D01*
X018449Y016950D01*
X018269Y017025D01*
X018074Y017025D01*
X017893Y016950D01*
X017485Y016542D01*
X017485Y016549D01*
X017444Y016648D01*
X017368Y016724D01*
X016532Y017560D01*
X016570Y017598D01*
X016633Y017750D01*
X016706Y017575D01*
X016855Y017426D01*
X017050Y017345D01*
X017261Y017345D01*
X017455Y017426D01*
X017604Y017575D01*
X017677Y017750D01*
X017740Y017598D01*
X017878Y017460D01*
X018058Y017385D01*
X018253Y017385D01*
X018433Y017460D01*
X018570Y017598D01*
X018645Y017778D01*
X018645Y018533D01*
X018570Y018713D01*
X018433Y018850D01*
X018253Y018925D01*
X018058Y018925D01*
X017878Y018850D01*
X017740Y018713D01*
X017677Y018561D01*
X017604Y018735D01*
X017455Y018884D01*
X017261Y018965D01*
X017050Y018965D01*
X016855Y018884D01*
X016706Y018735D01*
X016633Y018561D01*
X016570Y018713D01*
X016433Y018850D01*
X016253Y018925D01*
X016058Y018925D01*
X015878Y018850D01*
X015740Y018713D01*
X015665Y018533D01*
X015665Y017778D01*
X015740Y017598D01*
X015878Y017460D01*
X015922Y017441D01*
X015946Y017382D01*
X016183Y017145D01*
X015778Y017145D01*
X015598Y017070D01*
X015460Y016933D01*
X015385Y016753D01*
X015385Y016558D01*
X015460Y016378D01*
X015598Y016240D01*
X015778Y016165D01*
X016533Y016165D01*
X016713Y016240D01*
X016850Y016378D01*
X016880Y016449D01*
X016945Y016383D01*
X016945Y015787D01*
X016888Y015844D01*
X016887Y015844D01*
X016850Y015933D01*
X016713Y016070D01*
X016533Y016145D01*
X015778Y016145D01*
X015598Y016070D01*
X015460Y015933D01*
X015385Y015753D01*
X015385Y015558D01*
X015460Y015378D01*
X015598Y015240D01*
X015325Y015240D01*
X015325Y015338D02*
X015499Y015338D01*
X015435Y015437D02*
X015325Y015437D01*
X015325Y015535D02*
X015394Y015535D01*
X015385Y015634D02*
X015325Y015634D01*
X015325Y015732D02*
X015385Y015732D01*
X015418Y015831D02*
X015325Y015831D01*
X015325Y015929D02*
X015458Y015929D01*
X015555Y016028D02*
X015325Y016028D01*
X015325Y016126D02*
X015733Y016126D01*
X015633Y016225D02*
X015325Y016225D01*
X015325Y016324D02*
X015514Y016324D01*
X015441Y016422D02*
X015325Y016422D01*
X015325Y016521D02*
X015400Y016521D01*
X015385Y016619D02*
X015325Y016619D01*
X015325Y016718D02*
X015385Y016718D01*
X015411Y016816D02*
X015325Y016816D01*
X015325Y016915D02*
X015452Y016915D01*
X015540Y017013D02*
X015325Y017013D01*
X015325Y017112D02*
X015697Y017112D01*
X016019Y017309D02*
X015325Y017309D01*
X015325Y017407D02*
X015936Y017407D01*
X015831Y017506D02*
X015479Y017506D01*
X015433Y017460D02*
X015570Y017598D01*
X015645Y017778D01*
X015645Y018533D01*
X015570Y018713D01*
X015433Y018850D01*
X015253Y018925D01*
X015058Y018925D01*
X014878Y018850D01*
X014740Y018713D01*
X014665Y018533D01*
X014665Y017778D01*
X014740Y017598D01*
X014785Y017552D01*
X014785Y009087D01*
X013503Y007805D01*
X012485Y007805D01*
X012407Y007883D01*
X012257Y007945D01*
X012094Y007945D01*
X012045Y007925D01*
X012045Y011583D01*
X012671Y012209D01*
X012778Y012165D01*
X013533Y012165D01*
X013713Y012240D01*
X013850Y012378D01*
X013925Y012558D01*
X013925Y012753D01*
X013850Y012933D01*
X013713Y013070D01*
X013533Y013145D01*
X012778Y013145D01*
X012598Y013070D01*
X012460Y012933D01*
X012385Y012753D01*
X012385Y012687D01*
X011622Y011924D01*
X011546Y011848D01*
X011505Y011749D01*
X011505Y007067D01*
X011272Y007300D01*
X011350Y007378D01*
X011425Y007558D01*
X011425Y007753D01*
X011350Y007933D01*
X011213Y008070D01*
X011033Y008145D01*
X010278Y008145D01*
X010098Y008070D01*
X009960Y007933D01*
X009924Y007846D01*
X009829Y007885D01*
X009721Y007885D01*
X008370Y007885D01*
X008350Y007933D01*
X008213Y008070D01*
X008033Y008145D01*
X007278Y008145D01*
X007098Y008070D01*
X006960Y007933D01*
X006885Y007753D01*
X006885Y007558D01*
X006960Y007378D01*
X007098Y007240D01*
X007278Y007165D01*
X008033Y007165D01*
X008213Y007240D01*
X008318Y007345D01*
X009663Y007345D01*
X010018Y006991D01*
X009960Y006933D01*
X009885Y006753D01*
X009885Y006558D01*
X009960Y006378D01*
X010098Y006240D01*
X010278Y006165D01*
X010763Y006165D01*
X010783Y006145D01*
X010278Y006145D01*
X010098Y006070D01*
X009960Y005933D01*
X009940Y005885D01*
X009029Y005885D01*
X008921Y005885D01*
X008822Y005844D01*
X008143Y005165D01*
X005407Y005165D01*
X004505Y006067D01*
X004505Y006261D01*
X004424Y006455D01*
X004275Y006604D01*
X004081Y006685D01*
X003230Y006685D01*
X003035Y006604D01*
X002905Y006475D01*
X002775Y006604D01*
X002581Y006685D01*
X001730Y006685D01*
X001535Y006604D01*
X001386Y006455D01*
X001305Y006261D01*
X001305Y006050D01*
X001386Y005855D01*
X001535Y005706D01*
X001730Y005625D01*
X002581Y005625D01*
X002775Y005706D01*
X002905Y005836D01*
X003035Y005706D01*
X003230Y005625D01*
X004081Y005625D01*
X004153Y005655D01*
X005142Y004666D01*
X005241Y004625D01*
X005349Y004625D01*
X008309Y004625D01*
X008408Y004666D01*
X008484Y004742D01*
X009087Y005345D01*
X009992Y005345D01*
X010098Y005240D01*
X010278Y005165D01*
X010703Y005165D01*
X009343Y003805D01*
X004469Y003805D01*
X004375Y003805D01*
X004424Y003855D01*
X004505Y004050D01*
X004505Y004261D01*
X004424Y004455D01*
X004275Y004604D01*
X004081Y004685D01*
X003230Y004685D01*
X003035Y004604D01*
X002905Y004475D01*
X002775Y004604D01*
X002581Y004685D01*
X001730Y004685D01*
X001535Y004604D01*
X001386Y004455D01*
X001305Y004261D01*
X001305Y004050D01*
X001386Y003855D01*
X001535Y003706D01*
X001730Y003625D01*
X002263Y003625D01*
X002822Y003066D01*
X002921Y003025D01*
X003029Y003025D01*
X004229Y003025D01*
X004328Y003066D01*
X004404Y003142D01*
X004527Y003265D01*
X009509Y003265D01*
X009608Y003306D01*
X009684Y003382D01*
X011604Y005302D01*
X011645Y005401D01*
X011645Y005509D01*
X011645Y005603D01*
X012026Y005222D01*
X012102Y005146D01*
X012201Y005105D01*
X012521Y005105D01*
X012629Y005105D01*
X012728Y005146D01*
X016527Y008945D01*
X016825Y008945D01*
X016903Y008868D01*
X017054Y008805D01*
X017217Y008805D01*
X017265Y008825D01*
X017265Y008738D01*
X017240Y008713D01*
X017165Y008533D01*
X017165Y007778D01*
X017240Y007598D01*
X017378Y007460D01*
X017558Y007385D01*
X017753Y007385D01*
X017933Y007460D01*
X018070Y007598D01*
X018133Y007750D01*
X018206Y007575D01*
X018355Y007426D01*
X018550Y007345D01*
X018761Y007345D01*
X018955Y007426D01*
X019104Y007575D01*
X019177Y007750D01*
X019240Y007598D01*
X019378Y007460D01*
X019395Y007452D01*
X019395Y005858D01*
X019378Y005850D01*
X019240Y005713D01*
X019177Y005561D01*
X019104Y005735D01*
X018955Y005884D01*
X018761Y005965D01*
X018550Y005965D01*
X018355Y005884D01*
X018206Y005735D01*
X018133Y005561D01*
X018070Y005713D01*
X017933Y005850D01*
X017753Y005925D01*
X017558Y005925D01*
X017378Y005850D01*
X017240Y005713D01*
X017165Y005533D01*
X017165Y004778D01*
X017240Y004598D01*
X017378Y004460D01*
X017558Y004385D01*
X017753Y004385D01*
X017933Y004460D01*
X018070Y004598D01*
X018133Y004750D01*
X018206Y004575D01*
X018355Y004426D01*
X018550Y004345D01*
X018761Y004345D01*
X018955Y004426D01*
X019104Y004575D01*
X019177Y004750D01*
X019240Y004598D01*
X019378Y004460D01*
X019558Y004385D01*
X019753Y004385D01*
X019933Y004460D01*
X020001Y004528D01*
X020742Y003786D01*
X020841Y003745D01*
X020949Y003745D01*
X021989Y003745D01*
X022088Y003786D01*
X022164Y003862D01*
X022687Y004385D01*
X022753Y004385D01*
X022933Y004460D01*
X023070Y004598D01*
X023133Y004750D01*
X023206Y004575D01*
X023355Y004426D01*
X023550Y004345D01*
X023761Y004345D01*
X023955Y004426D01*
X024104Y004575D01*
X024185Y004770D01*
X024185Y005541D01*
X024104Y005735D01*
X023955Y005884D01*
X023761Y005965D01*
X023550Y005965D01*
X023355Y005884D01*
X023206Y005735D01*
X023133Y005561D01*
X023070Y005713D01*
X022933Y005850D01*
X022753Y005925D01*
X022558Y005925D01*
X022378Y005850D01*
X022240Y005713D01*
X022177Y005561D01*
X022143Y005643D01*
X023065Y006565D01*
X023703Y006565D01*
X023645Y006425D01*
X023645Y006246D01*
X023714Y006080D01*
X023840Y005954D01*
X023937Y005914D01*
X024725Y005125D01*
X024725Y002417D01*
X024725Y002254D01*
X024788Y002103D01*
X025588Y001303D01*
X025703Y001188D01*
X025854Y001125D01*
X025644Y001246D02*
X022524Y001246D01*
X022653Y001293D02*
X022328Y001175D01*
X022328Y001175D01*
X022205Y001175D01*
X022205Y001175D01*
X022172Y001175D01*
X022155Y001175D01*
X022105Y001175D01*
X022105Y001175D01*
X021982Y001175D01*
X021982Y001175D01*
X021658Y001293D01*
X021658Y001293D01*
X021393Y001515D01*
X021393Y001516D01*
X021220Y001815D01*
X021220Y001815D01*
X021160Y002155D01*
X021160Y002155D01*
X021220Y002495D01*
X021220Y002495D01*
X021393Y002795D01*
X021393Y002795D01*
X021658Y003017D01*
X021982Y003135D01*
X021982Y003135D01*
X022105Y003135D01*
X022105Y003135D01*
X022155Y003135D01*
X022205Y003135D01*
X022205Y003135D01*
X022328Y003135D01*
X022328Y003135D01*
X022653Y003017D01*
X022653Y003017D01*
X022917Y002795D01*
X022917Y002795D01*
X023090Y002495D01*
X023090Y002495D01*
X023150Y002155D01*
X023150Y002155D01*
X023090Y001815D01*
X023090Y001815D01*
X022917Y001516D01*
X022917Y001515D01*
X022917Y001515D01*
X022653Y001293D01*
X022653Y001293D01*
X022714Y001345D02*
X025545Y001345D01*
X025588Y001303D02*
X025588Y001303D01*
X025447Y001443D02*
X022831Y001443D01*
X022933Y001542D02*
X025348Y001542D01*
X025250Y001641D02*
X022990Y001641D01*
X023046Y001739D02*
X025151Y001739D01*
X025053Y001838D02*
X023094Y001838D01*
X023112Y001936D02*
X024954Y001936D01*
X024856Y002035D02*
X023129Y002035D01*
X023146Y002133D02*
X024775Y002133D01*
X024734Y002232D02*
X023137Y002232D01*
X023119Y002330D02*
X024725Y002330D01*
X024725Y002429D02*
X023102Y002429D01*
X023072Y002527D02*
X024725Y002527D01*
X024725Y002626D02*
X023015Y002626D01*
X022958Y002725D02*
X024725Y002725D01*
X024725Y002823D02*
X022884Y002823D01*
X022766Y002922D02*
X024725Y002922D01*
X024725Y003020D02*
X022644Y003020D01*
X022373Y003119D02*
X024725Y003119D01*
X024725Y003217D02*
X020061Y003217D01*
X020030Y003230D02*
X020122Y003192D01*
X020192Y003122D01*
X020230Y003030D01*
X020230Y002280D01*
X020192Y002189D01*
X020122Y002118D01*
X020030Y002080D01*
X019280Y002080D01*
X019189Y002118D01*
X019118Y002189D01*
X019080Y002280D01*
X019080Y002324D01*
X018958Y002202D01*
X018762Y002120D01*
X018549Y002120D01*
X018352Y002202D01*
X018202Y002352D01*
X018120Y002549D01*
X018120Y002762D01*
X018202Y002958D01*
X018352Y003109D01*
X018549Y003190D01*
X018762Y003190D01*
X018958Y003109D01*
X019080Y002987D01*
X019080Y003030D01*
X019118Y003122D01*
X019189Y003192D01*
X019280Y003230D01*
X020030Y003230D01*
X020193Y003119D02*
X021938Y003119D01*
X021667Y003020D02*
X020230Y003020D01*
X020230Y002922D02*
X021544Y002922D01*
X021427Y002823D02*
X020230Y002823D01*
X020230Y002725D02*
X021352Y002725D01*
X021295Y002626D02*
X020230Y002626D01*
X020230Y002527D02*
X021239Y002527D01*
X021208Y002429D02*
X020230Y002429D01*
X020230Y002330D02*
X021191Y002330D01*
X021174Y002232D02*
X020210Y002232D01*
X020137Y002133D02*
X021164Y002133D01*
X021181Y002035D02*
X012626Y002035D01*
X012637Y002055D02*
X012600Y001983D01*
X012552Y001916D01*
X012494Y001858D01*
X012428Y001810D01*
X012355Y001773D01*
X012277Y001748D01*
X012196Y001735D01*
X012194Y001735D01*
X012194Y002216D01*
X012116Y002216D01*
X011635Y002216D01*
X011635Y002214D01*
X011648Y002133D01*
X007793Y002133D01*
X007762Y002120D02*
X007958Y002202D01*
X008109Y002352D01*
X008190Y002549D01*
X008190Y002762D01*
X008109Y002958D01*
X007958Y003109D01*
X007762Y003190D01*
X007549Y003190D01*
X007352Y003109D01*
X007202Y002958D01*
X007130Y002785D01*
X007130Y003000D01*
X007120Y003038D01*
X007100Y003072D01*
X007072Y003100D01*
X007038Y003120D01*
X007000Y003130D01*
X006674Y003130D01*
X006674Y002674D01*
X006636Y002674D01*
X006636Y002636D01*
X006180Y002636D01*
X006180Y002310D01*
X006190Y002272D01*
X006210Y002238D01*
X006238Y002210D01*
X006272Y002190D01*
X006310Y002180D01*
X006636Y002180D01*
X006636Y002636D01*
X006674Y002636D01*
X006674Y002180D01*
X007000Y002180D01*
X007038Y002190D01*
X007072Y002210D01*
X007100Y002238D01*
X007120Y002272D01*
X007130Y002310D01*
X007130Y002525D01*
X007202Y002352D01*
X007352Y002202D01*
X007549Y002120D01*
X007762Y002120D01*
X007517Y002133D02*
X003146Y002133D01*
X003137Y002232D02*
X006216Y002232D01*
X006180Y002330D02*
X003119Y002330D01*
X003102Y002429D02*
X006180Y002429D01*
X006180Y002527D02*
X003072Y002527D01*
X003015Y002626D02*
X006180Y002626D01*
X006180Y002674D02*
X006636Y002674D01*
X006636Y003130D01*
X006310Y003130D01*
X006272Y003120D01*
X006238Y003100D01*
X006210Y003072D01*
X006190Y003038D01*
X006180Y003000D01*
X006180Y002674D01*
X006180Y002725D02*
X002958Y002725D01*
X002884Y002823D02*
X006180Y002823D01*
X006180Y002922D02*
X002766Y002922D01*
X002644Y003020D02*
X006186Y003020D01*
X006270Y003119D02*
X004381Y003119D01*
X004479Y003217D02*
X014620Y003217D01*
X014620Y003262D02*
X014620Y003049D01*
X014702Y002852D01*
X014852Y002702D01*
X015049Y002620D01*
X015262Y002620D01*
X015458Y002702D01*
X015609Y002852D01*
X015690Y003049D01*
X015690Y003262D01*
X015609Y003458D01*
X015458Y003609D01*
X015286Y003680D01*
X015500Y003680D01*
X015538Y003690D01*
X015572Y003710D01*
X024725Y003710D01*
X024725Y003809D02*
X022110Y003809D01*
X022209Y003907D02*
X024725Y003907D01*
X024725Y004006D02*
X022307Y004006D01*
X022406Y004104D02*
X024725Y004104D01*
X024725Y004203D02*
X022504Y004203D01*
X022603Y004301D02*
X024725Y004301D01*
X024725Y004400D02*
X023892Y004400D01*
X024028Y004498D02*
X024725Y004498D01*
X024725Y004597D02*
X024114Y004597D01*
X024154Y004695D02*
X024725Y004695D01*
X024725Y004794D02*
X024185Y004794D01*
X024185Y004892D02*
X024725Y004892D01*
X024725Y004991D02*
X024185Y004991D01*
X024185Y005090D02*
X024725Y005090D01*
X024662Y005188D02*
X024185Y005188D01*
X024185Y005287D02*
X024564Y005287D01*
X024465Y005385D02*
X024185Y005385D01*
X024185Y005484D02*
X024367Y005484D01*
X024268Y005582D02*
X024168Y005582D01*
X024170Y005681D02*
X024127Y005681D01*
X024071Y005779D02*
X024060Y005779D01*
X023973Y005878D02*
X023962Y005878D01*
X023817Y005976D02*
X022476Y005976D01*
X022444Y005878D02*
X022378Y005878D01*
X022306Y005779D02*
X022279Y005779D01*
X022227Y005681D02*
X022181Y005681D01*
X022168Y005582D02*
X022186Y005582D01*
X022575Y006075D02*
X023719Y006075D01*
X023675Y006174D02*
X022673Y006174D01*
X022772Y006272D02*
X023645Y006272D01*
X023645Y006371D02*
X022870Y006371D01*
X022969Y006469D02*
X023664Y006469D01*
X023348Y005878D02*
X022866Y005878D01*
X023004Y005779D02*
X023250Y005779D01*
X023183Y005681D02*
X023084Y005681D01*
X023124Y005582D02*
X023142Y005582D01*
X023111Y004695D02*
X023156Y004695D01*
X023197Y004597D02*
X023070Y004597D01*
X022971Y004498D02*
X023282Y004498D01*
X023418Y004400D02*
X022788Y004400D01*
X024725Y003611D02*
X015451Y003611D01*
X015554Y003513D02*
X024725Y003513D01*
X024725Y003414D02*
X015627Y003414D01*
X015668Y003316D02*
X024725Y003316D01*
X025545Y003316D02*
X025681Y003316D01*
X025632Y003414D02*
X025545Y003414D01*
X025545Y003513D02*
X025592Y003513D01*
X025580Y003611D02*
X025545Y003611D01*
X025545Y003710D02*
X025580Y003710D01*
X025596Y003809D02*
X025545Y003809D01*
X025545Y003907D02*
X025637Y003907D01*
X025692Y004006D02*
X025545Y004006D01*
X025545Y004104D02*
X025791Y004104D01*
X025851Y004203D02*
X025545Y004203D01*
X025545Y004301D02*
X025752Y004301D01*
X025682Y004400D02*
X025545Y004400D01*
X025545Y004498D02*
X025641Y004498D01*
X025620Y004597D02*
X025545Y004597D01*
X025545Y004695D02*
X025620Y004695D01*
X025634Y004794D02*
X025545Y004794D01*
X025545Y004892D02*
X025674Y004892D01*
X025734Y004991D02*
X025545Y004991D01*
X025545Y005090D02*
X025833Y005090D01*
X026044Y005188D02*
X025545Y005188D01*
X025545Y005287D02*
X027188Y005287D01*
X027144Y005385D02*
X025542Y005385D01*
X025501Y005484D02*
X027103Y005484D01*
X027085Y005582D02*
X025428Y005582D01*
X025367Y005643D02*
X025367Y005643D01*
X025329Y005681D02*
X027085Y005681D01*
X027085Y005779D02*
X025231Y005779D01*
X025132Y005878D02*
X027125Y005878D01*
X027166Y005976D02*
X025034Y005976D01*
X024935Y006075D02*
X027240Y006075D01*
X027155Y006174D02*
X026390Y006174D01*
X026529Y006272D02*
X027056Y006272D01*
X026958Y006371D02*
X026616Y006371D01*
X025920Y006174D02*
X024836Y006174D01*
X024738Y006272D02*
X025782Y006272D01*
X025694Y006371D02*
X024639Y006371D01*
X024541Y006469D02*
X025653Y006469D01*
X025620Y006568D02*
X025223Y006568D01*
X025406Y006666D02*
X025620Y006666D01*
X025621Y006765D02*
X025505Y006765D01*
X025603Y006863D02*
X025662Y006863D01*
X025702Y006962D02*
X025705Y006962D01*
X025800Y007060D02*
X025804Y007060D01*
X026460Y007159D02*
X027260Y007159D01*
X027340Y007079D02*
X027149Y007270D01*
X027045Y007520D01*
X027045Y007790D01*
X027149Y008040D01*
X027340Y008232D01*
X027590Y008335D01*
X028720Y008335D01*
X028970Y008232D01*
X029162Y008040D01*
X029265Y007790D01*
X029265Y007520D01*
X029162Y007270D01*
X028970Y007079D01*
X028720Y006975D01*
X027590Y006975D01*
X027340Y007079D01*
X027384Y007060D02*
X026506Y007060D01*
X026605Y006962D02*
X028806Y006962D01*
X028734Y006863D02*
X027229Y006863D01*
X027327Y006765D02*
X028694Y006765D01*
X028685Y006666D02*
X027426Y006666D01*
X027524Y006568D02*
X028685Y006568D01*
X028725Y006469D02*
X027623Y006469D01*
X027721Y006371D02*
X028783Y006371D01*
X028768Y006272D02*
X028884Y006272D01*
X028972Y006174D02*
X030465Y006174D01*
X030465Y006272D02*
X029386Y006272D01*
X029487Y006371D02*
X030465Y006371D01*
X030465Y006469D02*
X029545Y006469D01*
X029627Y006568D02*
X030465Y006568D01*
X030465Y006666D02*
X029726Y006666D01*
X029825Y006765D02*
X030465Y006765D01*
X030465Y006863D02*
X029923Y006863D01*
X030022Y006962D02*
X030465Y006962D01*
X030465Y007060D02*
X030075Y007060D01*
X030105Y007159D02*
X030465Y007159D01*
X030465Y007258D02*
X030105Y007258D01*
X030105Y007356D02*
X030465Y007356D01*
X030465Y007455D02*
X030105Y007455D01*
X030105Y007553D02*
X030465Y007553D01*
X030465Y007652D02*
X030105Y007652D01*
X030105Y007750D02*
X030465Y007750D01*
X030465Y007849D02*
X030105Y007849D01*
X030105Y007947D02*
X030465Y007947D01*
X030465Y008046D02*
X030105Y008046D01*
X030105Y008144D02*
X030465Y008144D01*
X030465Y008243D02*
X030105Y008243D01*
X030105Y008341D02*
X030465Y008341D01*
X030465Y008440D02*
X030105Y008440D01*
X030105Y008539D02*
X030465Y008539D01*
X030465Y008637D02*
X030105Y008637D01*
X030105Y008736D02*
X030465Y008736D01*
X030465Y008834D02*
X030105Y008834D01*
X030105Y008933D02*
X030465Y008933D01*
X030465Y009031D02*
X030105Y009031D01*
X030105Y009130D02*
X030465Y009130D01*
X030465Y009228D02*
X030105Y009228D01*
X030105Y009327D02*
X030465Y009327D01*
X030465Y009425D02*
X030105Y009425D01*
X030105Y009524D02*
X030465Y009524D01*
X030465Y009623D02*
X030105Y009623D01*
X030105Y009721D02*
X030465Y009721D01*
X030465Y009820D02*
X030105Y009820D01*
X030105Y009918D02*
X030465Y009918D01*
X030465Y010017D02*
X030105Y010017D01*
X030105Y010115D02*
X030465Y010115D01*
X030465Y010214D02*
X030090Y010214D01*
X030049Y010312D02*
X030465Y010312D01*
X030465Y010411D02*
X029959Y010411D01*
X029861Y010509D02*
X030465Y010509D01*
X030465Y010608D02*
X029762Y010608D01*
X029663Y010707D02*
X030465Y010707D01*
X030465Y010805D02*
X029565Y010805D01*
X029466Y010904D02*
X030465Y010904D01*
X030465Y011002D02*
X029368Y011002D01*
X029269Y011101D02*
X030465Y011101D01*
X030465Y011199D02*
X029171Y011199D01*
X029072Y011298D02*
X030465Y011298D01*
X030465Y011396D02*
X028974Y011396D01*
X028875Y011495D02*
X030465Y011495D01*
X030465Y011593D02*
X029435Y011593D01*
X029562Y011692D02*
X030465Y011692D01*
X030465Y011791D02*
X029653Y011791D01*
X029693Y011889D02*
X030465Y011889D01*
X030465Y011988D02*
X029734Y011988D01*
X029735Y012086D02*
X030465Y012086D01*
X030465Y012185D02*
X029735Y012185D01*
X029709Y012283D02*
X030465Y012283D01*
X030465Y012382D02*
X029668Y012382D01*
X029600Y012480D02*
X030465Y012480D01*
X030465Y012579D02*
X029502Y012579D01*
X029721Y012677D02*
X030465Y012677D01*
X030465Y012776D02*
X029771Y012776D01*
X029775Y012874D02*
X030465Y012874D01*
X030465Y012973D02*
X029775Y012973D01*
X029775Y013072D02*
X030465Y013072D01*
X030465Y013170D02*
X029775Y013170D01*
X029775Y013269D02*
X030465Y013269D01*
X030465Y013367D02*
X029775Y013367D01*
X029775Y013466D02*
X030465Y013466D01*
X030465Y013564D02*
X029775Y013564D01*
X029759Y013663D02*
X030465Y013663D01*
X030465Y013761D02*
X029692Y013761D01*
X029215Y014156D02*
X030465Y014156D01*
X030465Y014254D02*
X029314Y014254D01*
X029412Y014353D02*
X030465Y014353D01*
X030465Y014451D02*
X029511Y014451D01*
X029610Y014550D02*
X030465Y014550D01*
X030465Y014648D02*
X029708Y014648D01*
X029807Y014747D02*
X030465Y014747D01*
X030465Y014845D02*
X029905Y014845D01*
X030004Y014944D02*
X030465Y014944D01*
X030465Y015042D02*
X030067Y015042D01*
X030105Y015141D02*
X030465Y015141D01*
X030465Y015240D02*
X030105Y015240D01*
X030105Y015338D02*
X030465Y015338D01*
X030465Y015437D02*
X030105Y015437D01*
X030105Y015535D02*
X030465Y015535D01*
X030465Y015634D02*
X030105Y015634D01*
X030105Y015732D02*
X030465Y015732D01*
X030465Y015831D02*
X030105Y015831D01*
X030105Y015929D02*
X030465Y015929D01*
X030465Y016028D02*
X030105Y016028D01*
X030105Y016126D02*
X030465Y016126D01*
X030465Y016225D02*
X030105Y016225D01*
X030105Y016324D02*
X030465Y016324D01*
X030465Y016422D02*
X030105Y016422D01*
X030105Y016521D02*
X030465Y016521D01*
X030465Y016619D02*
X030105Y016619D01*
X030105Y016718D02*
X030465Y016718D01*
X030465Y016816D02*
X030105Y016816D01*
X030105Y016915D02*
X030465Y016915D01*
X030465Y017013D02*
X030105Y017013D01*
X030105Y017112D02*
X030465Y017112D01*
X030465Y017210D02*
X030105Y017210D01*
X030105Y017309D02*
X030465Y017309D01*
X030465Y017407D02*
X030105Y017407D01*
X030105Y017506D02*
X030465Y017506D01*
X030465Y017605D02*
X030105Y017605D01*
X030105Y017703D02*
X030465Y017703D01*
X030465Y017802D02*
X030105Y017802D01*
X030105Y017900D02*
X030465Y017900D01*
X030465Y017999D02*
X030105Y017999D01*
X030105Y018097D02*
X030465Y018097D01*
X030465Y018196D02*
X030105Y018196D01*
X030105Y018294D02*
X030465Y018294D01*
X030465Y018393D02*
X030105Y018393D01*
X030105Y018491D02*
X030465Y018491D01*
X030465Y018590D02*
X030105Y018590D01*
X030105Y018689D02*
X030465Y018689D01*
X030465Y018787D02*
X030105Y018787D01*
X030105Y018886D02*
X030465Y018886D01*
X030465Y018984D02*
X030105Y018984D01*
X030105Y019083D02*
X030465Y019083D01*
X030465Y019181D02*
X030105Y019181D01*
X030105Y019280D02*
X030465Y019280D01*
X030465Y019378D02*
X030105Y019378D01*
X030105Y019477D02*
X030465Y019477D01*
X030465Y019575D02*
X030105Y019575D01*
X030105Y019674D02*
X030465Y019674D01*
X030465Y019773D02*
X030105Y019773D01*
X030105Y019871D02*
X030465Y019871D01*
X030465Y019970D02*
X030105Y019970D01*
X030105Y020068D02*
X030465Y020068D01*
X030465Y020167D02*
X030105Y020167D01*
X030068Y020265D02*
X030465Y020265D01*
X030465Y020364D02*
X030006Y020364D01*
X029908Y020462D02*
X030465Y020462D01*
X030465Y020561D02*
X029809Y020561D01*
X029711Y020659D02*
X030465Y020659D01*
X030465Y020758D02*
X029612Y020758D01*
X029514Y020856D02*
X030465Y020856D01*
X030465Y020955D02*
X029415Y020955D01*
X029316Y021054D02*
X030465Y021054D01*
X030465Y021152D02*
X029218Y021152D01*
X029142Y021251D02*
X030465Y021251D01*
X030465Y021349D02*
X029194Y021349D01*
X029235Y021448D02*
X030465Y021448D01*
X030465Y021546D02*
X029265Y021546D01*
X029265Y021645D02*
X030465Y021645D01*
X030465Y021743D02*
X029265Y021743D01*
X029244Y021842D02*
X030465Y021842D01*
X030465Y021940D02*
X029203Y021940D01*
X029162Y022039D02*
X030465Y022039D01*
X030465Y022138D02*
X029064Y022138D01*
X028959Y022236D02*
X030465Y022236D01*
X030465Y022335D02*
X028721Y022335D01*
X028287Y022827D02*
X030465Y022827D01*
X030465Y022729D02*
X028189Y022729D01*
X028090Y022630D02*
X030465Y022630D01*
X030465Y022532D02*
X027991Y022532D01*
X027893Y022433D02*
X030465Y022433D01*
X030465Y022926D02*
X028386Y022926D01*
X028839Y023024D02*
X030465Y023024D01*
X030465Y023123D02*
X029015Y023123D01*
X029113Y023222D02*
X030465Y023222D01*
X030465Y023320D02*
X029182Y023320D01*
X029223Y023419D02*
X030465Y023419D01*
X030465Y023517D02*
X029264Y023517D01*
X029265Y023616D02*
X030465Y023616D01*
X030465Y023714D02*
X029265Y023714D01*
X029256Y023813D02*
X030465Y023813D01*
X030465Y023911D02*
X029215Y023911D01*
X029174Y024010D02*
X030465Y024010D01*
X030465Y024108D02*
X029093Y024108D01*
X028995Y024207D02*
X030465Y024207D01*
X030465Y024306D02*
X028792Y024306D01*
X027518Y024306D02*
X025253Y024306D01*
X025273Y024207D02*
X025985Y024207D01*
X025795Y024108D02*
X024805Y024108D01*
X024705Y024108D02*
X022401Y024108D01*
X022661Y024010D02*
X024256Y024010D01*
X024296Y023911D02*
X022778Y023911D01*
X022896Y023813D02*
X024362Y023813D01*
X024385Y023714D02*
X022964Y023714D01*
X023021Y023616D02*
X024239Y023616D01*
X024140Y023517D02*
X023078Y023517D01*
X023104Y023419D02*
X024093Y023419D01*
X024052Y023320D02*
X023121Y023320D01*
X023138Y023222D02*
X024035Y023222D01*
X024035Y023123D02*
X023144Y023123D01*
X023127Y023024D02*
X024038Y023024D01*
X024079Y022926D02*
X023110Y022926D01*
X023092Y022827D02*
X024120Y022827D01*
X024205Y022729D02*
X023041Y022729D01*
X022984Y022630D02*
X024303Y022630D01*
X024312Y022532D02*
X022927Y022532D01*
X022819Y022433D02*
X024243Y022433D01*
X024202Y022335D02*
X022702Y022335D01*
X022495Y022236D02*
X024175Y022236D01*
X024175Y022138D02*
X021794Y022138D01*
X021815Y022236D02*
X021696Y022236D01*
X021608Y022335D02*
X021597Y022335D01*
X021327Y022630D02*
X021302Y022630D01*
X021270Y022729D02*
X021203Y022729D01*
X021218Y022827D02*
X021105Y022827D01*
X021200Y022926D02*
X021006Y022926D01*
X020908Y023024D02*
X021183Y023024D01*
X021166Y023123D02*
X020809Y023123D01*
X020710Y023222D02*
X021172Y023222D01*
X021189Y023320D02*
X020612Y023320D01*
X020513Y023419D02*
X021207Y023419D01*
X021233Y023517D02*
X020415Y023517D01*
X020316Y023616D02*
X021290Y023616D01*
X021346Y023714D02*
X020218Y023714D01*
X019947Y023222D02*
X017465Y023222D01*
X017285Y023222D02*
X013443Y023222D01*
X013345Y023123D02*
X015073Y023123D01*
X015044Y023118D02*
X014973Y023095D01*
X014906Y023061D01*
X014846Y023017D01*
X014793Y022965D01*
X014749Y022904D01*
X014715Y022837D01*
X014692Y022766D01*
X014680Y022692D01*
X014680Y022674D01*
X015136Y022674D01*
X015136Y022636D01*
X015174Y022636D01*
X015174Y022180D01*
X015192Y022180D01*
X015266Y022192D01*
X015337Y022215D01*
X015404Y022249D01*
X015465Y022293D01*
X015517Y022346D01*
X015561Y022406D01*
X015595Y022473D01*
X015618Y022544D01*
X015620Y022555D01*
X015620Y022549D01*
X015702Y022352D01*
X015852Y022202D01*
X016049Y022120D01*
X016262Y022120D01*
X016458Y022202D01*
X016609Y022352D01*
X016690Y022549D01*
X016690Y022762D01*
X016609Y022958D01*
X016458Y023109D01*
X016262Y023190D01*
X016049Y023190D01*
X015852Y023109D01*
X015702Y022958D01*
X015620Y022762D01*
X015620Y022755D01*
X015618Y022766D01*
X015595Y022837D01*
X015561Y022904D01*
X015517Y022965D01*
X015465Y023017D01*
X015404Y023061D01*
X015337Y023095D01*
X015266Y023118D01*
X015192Y023130D01*
X015174Y023130D01*
X015174Y022674D01*
X015136Y022674D01*
X015136Y023130D01*
X015118Y023130D01*
X015044Y023118D01*
X015136Y023123D02*
X015174Y023123D01*
X015237Y023123D02*
X015887Y023123D01*
X015768Y023024D02*
X015455Y023024D01*
X015545Y022926D02*
X015688Y022926D01*
X015647Y022827D02*
X015599Y022827D01*
X015614Y022532D02*
X015627Y022532D01*
X015668Y022433D02*
X015575Y022433D01*
X015506Y022335D02*
X015719Y022335D01*
X015818Y022236D02*
X015379Y022236D01*
X015174Y022236D02*
X015136Y022236D01*
X015136Y022180D02*
X015136Y022636D01*
X014680Y022636D01*
X014680Y022618D01*
X014692Y022544D01*
X014715Y022473D01*
X014749Y022406D01*
X014793Y022346D01*
X014846Y022293D01*
X014906Y022249D01*
X014973Y022215D01*
X015044Y022192D01*
X015118Y022180D01*
X015136Y022180D01*
X015136Y022335D02*
X015174Y022335D01*
X015174Y022433D02*
X015136Y022433D01*
X015136Y022532D02*
X015174Y022532D01*
X015174Y022630D02*
X015136Y022630D01*
X015136Y022729D02*
X015174Y022729D01*
X015174Y022827D02*
X015136Y022827D01*
X015136Y022926D02*
X015174Y022926D01*
X015174Y023024D02*
X015136Y023024D01*
X014855Y023024D02*
X013246Y023024D01*
X013148Y022926D02*
X014765Y022926D01*
X014712Y022827D02*
X013049Y022827D01*
X013049Y022690D02*
X012852Y022609D01*
X012702Y022458D01*
X012620Y022262D01*
X012620Y022049D01*
X012702Y021852D01*
X012852Y021702D01*
X013025Y021630D01*
X012810Y021630D01*
X012772Y021620D01*
X012738Y021600D01*
X012710Y021572D01*
X012690Y021538D01*
X012680Y021500D01*
X012680Y021174D01*
X013136Y021174D01*
X013136Y021136D01*
X013174Y021136D01*
X013174Y020680D01*
X013500Y020680D01*
X013538Y020690D01*
X013572Y020710D01*
X013600Y020738D01*
X013620Y020772D01*
X013630Y020810D01*
X013630Y021136D01*
X013174Y021136D01*
X013174Y021174D01*
X013630Y021174D01*
X013630Y021500D01*
X013620Y021538D01*
X013600Y021572D01*
X013572Y021600D01*
X013538Y021620D01*
X013500Y021630D01*
X013286Y021630D01*
X013458Y021702D01*
X013609Y021852D01*
X013690Y022049D01*
X013690Y022262D01*
X013609Y022458D01*
X013458Y022609D01*
X013262Y022690D01*
X013049Y022690D01*
X012951Y022729D02*
X014686Y022729D01*
X014680Y022630D02*
X013406Y022630D01*
X013535Y022532D02*
X014696Y022532D01*
X014735Y022433D02*
X013619Y022433D01*
X013660Y022335D02*
X014804Y022335D01*
X014931Y022236D02*
X013690Y022236D01*
X013690Y022138D02*
X016007Y022138D01*
X016058Y021925D02*
X015878Y021850D01*
X015740Y021713D01*
X015665Y021533D01*
X015665Y020778D01*
X015740Y020598D01*
X015878Y020460D01*
X016058Y020385D01*
X016253Y020385D01*
X016433Y020460D01*
X016570Y020598D01*
X016633Y020750D01*
X016706Y020575D01*
X016855Y020426D01*
X017050Y020345D01*
X017261Y020345D01*
X017455Y020426D01*
X017604Y020575D01*
X017677Y020750D01*
X017740Y020598D01*
X017878Y020460D01*
X018058Y020385D01*
X018253Y020385D01*
X018433Y020460D01*
X018570Y020598D01*
X018645Y020778D01*
X018645Y021533D01*
X018570Y021713D01*
X018433Y021850D01*
X018253Y021925D01*
X018058Y021925D01*
X017878Y021850D01*
X017740Y021713D01*
X017677Y021561D01*
X017604Y021735D01*
X017455Y021884D01*
X017261Y021965D01*
X017050Y021965D01*
X016855Y021884D01*
X016706Y021735D01*
X016633Y021561D01*
X016570Y021713D01*
X016433Y021850D01*
X016253Y021925D01*
X016058Y021925D01*
X015869Y021842D02*
X015294Y021842D01*
X015320Y021834D02*
X015256Y021854D01*
X015189Y021865D01*
X015185Y021865D01*
X015185Y021185D01*
X015585Y021185D01*
X015585Y021469D01*
X015574Y021536D01*
X015554Y021600D01*
X015523Y021660D01*
X015483Y021715D01*
X015435Y021763D01*
X015380Y021803D01*
X015320Y021834D01*
X015185Y021842D02*
X015125Y021842D01*
X015125Y021865D02*
X015121Y021865D01*
X015054Y021854D01*
X014990Y021834D01*
X014930Y021803D01*
X014875Y021763D01*
X014827Y021715D01*
X014787Y021660D01*
X014757Y021600D01*
X014736Y021536D01*
X014725Y021469D01*
X014725Y021185D01*
X015125Y021185D01*
X015125Y021125D01*
X015185Y021125D01*
X015185Y020445D01*
X015189Y020445D01*
X015256Y020456D01*
X015320Y020477D01*
X015380Y020507D01*
X015435Y020547D01*
X015483Y020595D01*
X015523Y020650D01*
X015554Y020710D01*
X015574Y020774D01*
X015585Y020841D01*
X015585Y021125D01*
X015185Y021125D01*
X015185Y021185D01*
X015125Y021185D01*
X015125Y021865D01*
X015016Y021842D02*
X013599Y021842D01*
X013645Y021940D02*
X016990Y021940D01*
X016812Y021842D02*
X016441Y021842D01*
X016540Y021743D02*
X016714Y021743D01*
X016668Y021645D02*
X016599Y021645D01*
X016304Y022138D02*
X019676Y022138D01*
X019774Y022236D02*
X016493Y022236D01*
X016591Y022335D02*
X019873Y022335D01*
X019971Y022433D02*
X017524Y022433D01*
X017672Y022532D02*
X020317Y022532D01*
X020045Y023123D02*
X017647Y023123D01*
X017103Y023123D02*
X016423Y023123D01*
X016542Y023024D02*
X017018Y023024D01*
X016977Y022926D02*
X016622Y022926D01*
X016663Y022827D02*
X016965Y022827D01*
X016967Y022729D02*
X016690Y022729D01*
X016690Y022630D02*
X017008Y022630D01*
X017079Y022532D02*
X016683Y022532D01*
X016642Y022433D02*
X017226Y022433D01*
X017320Y021940D02*
X019479Y021940D01*
X019577Y022039D02*
X013686Y022039D01*
X013500Y021743D02*
X014855Y021743D01*
X014779Y021645D02*
X013321Y021645D01*
X013615Y021546D02*
X014739Y021546D01*
X014725Y021448D02*
X013630Y021448D01*
X013630Y021349D02*
X014725Y021349D01*
X014725Y021251D02*
X013630Y021251D01*
X013630Y021054D02*
X014725Y021054D01*
X014725Y021125D02*
X014725Y020841D01*
X014736Y020774D01*
X014757Y020710D01*
X014787Y020650D01*
X014827Y020595D01*
X014875Y020547D01*
X014930Y020507D01*
X014990Y020477D01*
X015054Y020456D01*
X015121Y020445D01*
X015125Y020445D01*
X015125Y021125D01*
X014725Y021125D01*
X014725Y020955D02*
X013630Y020955D01*
X013630Y020856D02*
X014725Y020856D01*
X014741Y020758D02*
X013612Y020758D01*
X013174Y020758D02*
X013136Y020758D01*
X013136Y020680D02*
X013136Y021136D01*
X012680Y021136D01*
X012680Y020810D01*
X012690Y020772D01*
X012710Y020738D01*
X012738Y020710D01*
X012772Y020690D01*
X012810Y020680D01*
X013136Y020680D01*
X013136Y020856D02*
X013174Y020856D01*
X013174Y020955D02*
X013136Y020955D01*
X013136Y021054D02*
X013174Y021054D01*
X013174Y021152D02*
X015125Y021152D01*
X015185Y021152D02*
X015665Y021152D01*
X015665Y021054D02*
X015585Y021054D01*
X015585Y020955D02*
X015665Y020955D01*
X015665Y020856D02*
X015585Y020856D01*
X015569Y020758D02*
X015673Y020758D01*
X015714Y020659D02*
X015528Y020659D01*
X015449Y020561D02*
X015776Y020561D01*
X015875Y020462D02*
X015276Y020462D01*
X015185Y020462D02*
X015125Y020462D01*
X015034Y020462D02*
X010925Y020462D01*
X010925Y020364D02*
X017005Y020364D01*
X016818Y020462D02*
X016435Y020462D01*
X016534Y020561D02*
X016720Y020561D01*
X016671Y020659D02*
X016596Y020659D01*
X017306Y020364D02*
X019345Y020364D01*
X018885Y020265D02*
X010925Y020265D01*
X010925Y020167D02*
X015389Y020167D01*
X015286Y020068D02*
X010925Y020068D01*
X010925Y019970D02*
X015188Y019970D01*
X015089Y019871D02*
X010925Y019871D01*
X010925Y019773D02*
X014991Y019773D01*
X014892Y019674D02*
X010925Y019674D01*
X010925Y019575D02*
X014794Y019575D01*
X014695Y019477D02*
X010925Y019477D01*
X010925Y019378D02*
X014597Y019378D01*
X014498Y019280D02*
X010925Y019280D01*
X010925Y019181D02*
X014399Y019181D01*
X014301Y019083D02*
X011183Y019083D01*
X011299Y018984D02*
X014202Y018984D01*
X014104Y018886D02*
X011370Y018886D01*
X011411Y018787D02*
X014005Y018787D01*
X013907Y018689D02*
X011425Y018689D01*
X011425Y018590D02*
X013808Y018590D01*
X013710Y018491D02*
X011398Y018491D01*
X011357Y018393D02*
X013611Y018393D01*
X013513Y018294D02*
X011267Y018294D01*
X011107Y018196D02*
X013414Y018196D01*
X013315Y018097D02*
X011148Y018097D01*
X011284Y017999D02*
X013217Y017999D01*
X013586Y017605D02*
X014737Y017605D01*
X014696Y017703D02*
X013685Y017703D01*
X013783Y017802D02*
X014665Y017802D01*
X014665Y017900D02*
X013882Y017900D01*
X013981Y017999D02*
X014665Y017999D01*
X014665Y018097D02*
X014079Y018097D01*
X014178Y018196D02*
X014665Y018196D01*
X014665Y018294D02*
X014276Y018294D01*
X014375Y018393D02*
X014665Y018393D01*
X014665Y018491D02*
X014473Y018491D01*
X014572Y018590D02*
X014689Y018590D01*
X014670Y018689D02*
X014730Y018689D01*
X014769Y018787D02*
X014814Y018787D01*
X014867Y018886D02*
X014962Y018886D01*
X014966Y018984D02*
X019345Y018984D01*
X019345Y019083D02*
X015065Y019083D01*
X015163Y019181D02*
X019345Y019181D01*
X019345Y019280D02*
X015262Y019280D01*
X015360Y019378D02*
X019345Y019378D01*
X019345Y019477D02*
X015459Y019477D01*
X015557Y019575D02*
X018932Y019575D01*
X019338Y019575D02*
X019345Y019575D01*
X018962Y018886D02*
X018348Y018886D01*
X018496Y018787D02*
X018814Y018787D01*
X018730Y018689D02*
X018580Y018689D01*
X018621Y018590D02*
X018689Y018590D01*
X018665Y018491D02*
X018645Y018491D01*
X018645Y018393D02*
X018665Y018393D01*
X018665Y018294D02*
X018645Y018294D01*
X018645Y018196D02*
X018665Y018196D01*
X018665Y018097D02*
X018645Y018097D01*
X018645Y017999D02*
X018665Y017999D01*
X018665Y017900D02*
X018645Y017900D01*
X018645Y017802D02*
X018665Y017802D01*
X018696Y017703D02*
X018614Y017703D01*
X018573Y017605D02*
X018737Y017605D01*
X018831Y017506D02*
X018479Y017506D01*
X018307Y017407D02*
X019004Y017407D01*
X019306Y017407D02*
X019345Y017407D01*
X019345Y017309D02*
X016783Y017309D01*
X016685Y017407D02*
X016899Y017407D01*
X016775Y017506D02*
X016586Y017506D01*
X016573Y017605D02*
X016693Y017605D01*
X016653Y017703D02*
X016614Y017703D01*
X016882Y017210D02*
X019345Y017210D01*
X019345Y017112D02*
X016980Y017112D01*
X017079Y017013D02*
X018045Y017013D01*
X017858Y016915D02*
X017177Y016915D01*
X017276Y016816D02*
X017759Y016816D01*
X017661Y016718D02*
X017374Y016718D01*
X017456Y016619D02*
X017562Y016619D01*
X016945Y016324D02*
X016796Y016324D01*
X016869Y016422D02*
X016906Y016422D01*
X016945Y016225D02*
X016677Y016225D01*
X016578Y016126D02*
X016945Y016126D01*
X016945Y016028D02*
X016755Y016028D01*
X016852Y015929D02*
X016945Y015929D01*
X016945Y015831D02*
X016901Y015831D01*
X017485Y015732D02*
X017489Y015732D01*
X017578Y015634D02*
X018035Y015634D01*
X018061Y015732D02*
X018090Y015732D01*
X018160Y015831D02*
X018188Y015831D01*
X018258Y015929D02*
X018287Y015929D01*
X018357Y016028D02*
X018385Y016028D01*
X018455Y016126D02*
X018484Y016126D01*
X018554Y016225D02*
X018582Y016225D01*
X018614Y016324D02*
X018982Y016324D01*
X019080Y016422D02*
X018655Y016422D01*
X018661Y016521D02*
X019179Y016521D01*
X019277Y016619D02*
X018661Y016619D01*
X018626Y016718D02*
X019345Y016718D01*
X019345Y016816D02*
X018583Y016816D01*
X018484Y016915D02*
X019345Y016915D01*
X019345Y017013D02*
X018297Y017013D01*
X018004Y017407D02*
X017411Y017407D01*
X017536Y017506D02*
X017831Y017506D01*
X017737Y017605D02*
X017617Y017605D01*
X017657Y017703D02*
X017696Y017703D01*
X017665Y018590D02*
X017689Y018590D01*
X017730Y018689D02*
X017624Y018689D01*
X017553Y018787D02*
X017814Y018787D01*
X017962Y018886D02*
X017452Y018886D01*
X016858Y018886D02*
X016348Y018886D01*
X016496Y018787D02*
X016758Y018787D01*
X016686Y018689D02*
X016580Y018689D01*
X016621Y018590D02*
X016646Y018590D01*
X015962Y018886D02*
X015348Y018886D01*
X015496Y018787D02*
X015814Y018787D01*
X015730Y018689D02*
X015580Y018689D01*
X015621Y018590D02*
X015689Y018590D01*
X015665Y018491D02*
X015645Y018491D01*
X015645Y018393D02*
X015665Y018393D01*
X015665Y018294D02*
X015645Y018294D01*
X015645Y018196D02*
X015665Y018196D01*
X015665Y018097D02*
X015645Y018097D01*
X015645Y017999D02*
X015665Y017999D01*
X015665Y017900D02*
X015645Y017900D01*
X015645Y017802D02*
X015665Y017802D01*
X015696Y017703D02*
X015614Y017703D01*
X015573Y017605D02*
X015737Y017605D01*
X015433Y017460D02*
X015325Y017415D01*
X015325Y008921D01*
X015284Y008822D01*
X015208Y008746D01*
X013768Y007306D01*
X013669Y007265D01*
X013561Y007265D01*
X012485Y007265D01*
X012407Y007188D01*
X012257Y007125D01*
X012094Y007125D01*
X012045Y007145D01*
X012045Y007007D01*
X012217Y006835D01*
X012270Y006835D01*
X012484Y006747D01*
X012647Y006584D01*
X012735Y006370D01*
X012735Y006140D01*
X012647Y005927D01*
X012484Y005763D01*
X012317Y005695D01*
X012367Y005645D01*
X012463Y005645D01*
X015983Y009165D01*
X015778Y009165D01*
X015598Y009240D01*
X015460Y009378D01*
X015385Y009558D01*
X015385Y009753D01*
X015460Y009933D01*
X015598Y010070D01*
X015778Y010145D01*
X016533Y010145D01*
X016713Y010070D01*
X016850Y009933D01*
X016925Y009753D01*
X016925Y009572D01*
X017054Y009625D01*
X017217Y009625D01*
X017265Y009605D01*
X017265Y012543D01*
X016611Y013198D01*
X016533Y013165D01*
X015778Y013165D01*
X015598Y013240D01*
X015460Y013378D01*
X015385Y013558D01*
X015385Y013753D01*
X015460Y013933D01*
X015598Y014070D01*
X015778Y014145D01*
X016533Y014145D01*
X016713Y014070D01*
X016850Y013933D01*
X016925Y013753D01*
X016925Y013647D01*
X017688Y012884D01*
X017764Y012808D01*
X017805Y012709D01*
X017805Y008903D01*
X017933Y008850D01*
X018070Y008713D01*
X018133Y008561D01*
X018206Y008735D01*
X018355Y008884D01*
X018550Y008965D01*
X018761Y008965D01*
X018955Y008884D01*
X019104Y008735D01*
X019177Y008561D01*
X019240Y008713D01*
X019378Y008850D01*
X019558Y008925D01*
X019753Y008925D01*
X019933Y008850D01*
X020001Y008782D01*
X021033Y009815D01*
X016639Y014209D01*
X016533Y014165D01*
X015778Y014165D01*
X015598Y014240D01*
X015460Y014378D01*
X015385Y014558D01*
X015385Y014753D01*
X015460Y014933D01*
X015598Y015070D01*
X015778Y015145D01*
X016533Y015145D01*
X016713Y015070D01*
X016850Y014933D01*
X016925Y014753D01*
X016925Y014687D01*
X021415Y010197D01*
X021507Y010289D01*
X021463Y010308D01*
X021348Y010423D01*
X021285Y010574D01*
X021285Y010683D01*
X016721Y015248D01*
X016713Y015240D01*
X016533Y015165D01*
X015778Y015165D01*
X015598Y015240D01*
X015768Y015141D02*
X015325Y015141D01*
X015325Y015042D02*
X015569Y015042D01*
X015471Y014944D02*
X015325Y014944D01*
X015325Y014845D02*
X015424Y014845D01*
X015385Y014747D02*
X015325Y014747D01*
X015325Y014648D02*
X015385Y014648D01*
X015388Y014550D02*
X015325Y014550D01*
X015325Y014451D02*
X015429Y014451D01*
X015485Y014353D02*
X015325Y014353D01*
X015325Y014254D02*
X015583Y014254D01*
X015584Y014057D02*
X015325Y014057D01*
X015325Y014156D02*
X016693Y014156D01*
X016726Y014057D02*
X016791Y014057D01*
X016825Y013958D02*
X016890Y013958D01*
X016881Y013860D02*
X016988Y013860D01*
X016921Y013761D02*
X017087Y013761D01*
X017186Y013663D02*
X016925Y013663D01*
X017008Y013564D02*
X017284Y013564D01*
X017383Y013466D02*
X017106Y013466D01*
X017205Y013367D02*
X017481Y013367D01*
X017580Y013269D02*
X017303Y013269D01*
X017402Y013170D02*
X017678Y013170D01*
X017777Y013072D02*
X017500Y013072D01*
X017599Y012973D02*
X017875Y012973D01*
X017974Y012874D02*
X017698Y012874D01*
X017777Y012776D02*
X018072Y012776D01*
X018171Y012677D02*
X017805Y012677D01*
X017805Y012579D02*
X018270Y012579D01*
X018368Y012480D02*
X017805Y012480D01*
X017805Y012382D02*
X018467Y012382D01*
X018565Y012283D02*
X017805Y012283D01*
X017805Y012185D02*
X018664Y012185D01*
X018762Y012086D02*
X017805Y012086D01*
X017805Y011988D02*
X018861Y011988D01*
X018959Y011889D02*
X017805Y011889D01*
X017805Y011791D02*
X019058Y011791D01*
X019156Y011692D02*
X017805Y011692D01*
X017805Y011593D02*
X019255Y011593D01*
X019354Y011495D02*
X017805Y011495D01*
X017805Y011396D02*
X019452Y011396D01*
X019551Y011298D02*
X017805Y011298D01*
X017805Y011199D02*
X019649Y011199D01*
X019748Y011101D02*
X017805Y011101D01*
X017805Y011002D02*
X019846Y011002D01*
X019945Y010904D02*
X017805Y010904D01*
X017805Y010805D02*
X020043Y010805D01*
X020142Y010707D02*
X017805Y010707D01*
X017805Y010608D02*
X020240Y010608D01*
X020339Y010509D02*
X017805Y010509D01*
X017805Y010411D02*
X020437Y010411D01*
X020536Y010312D02*
X017805Y010312D01*
X017805Y010214D02*
X020635Y010214D01*
X020733Y010115D02*
X017805Y010115D01*
X017805Y010017D02*
X020832Y010017D01*
X020930Y009918D02*
X017805Y009918D01*
X017805Y009820D02*
X021029Y009820D01*
X020939Y009721D02*
X017805Y009721D01*
X017805Y009623D02*
X020841Y009623D01*
X020742Y009524D02*
X017805Y009524D01*
X017805Y009425D02*
X020644Y009425D01*
X020545Y009327D02*
X017805Y009327D01*
X017805Y009228D02*
X020447Y009228D01*
X020348Y009130D02*
X017805Y009130D01*
X017805Y009031D02*
X020250Y009031D01*
X020151Y008933D02*
X018839Y008933D01*
X019006Y008834D02*
X019361Y008834D01*
X019263Y008736D02*
X019104Y008736D01*
X019145Y008637D02*
X019208Y008637D01*
X019655Y008155D02*
X019655Y005155D01*
X019186Y005582D02*
X019168Y005582D01*
X019127Y005681D02*
X019227Y005681D01*
X019306Y005779D02*
X019060Y005779D01*
X018962Y005878D02*
X019395Y005878D01*
X019395Y005976D02*
X016160Y005976D01*
X016190Y006049D02*
X016190Y006262D01*
X016109Y006458D01*
X015958Y006609D01*
X015762Y006690D01*
X015755Y006690D01*
X015766Y006692D01*
X015837Y006715D01*
X015904Y006749D01*
X015965Y006793D01*
X016017Y006846D01*
X016061Y006906D01*
X016095Y006973D01*
X016118Y007044D01*
X016130Y007118D01*
X016130Y007136D01*
X015674Y007136D01*
X015674Y007174D01*
X015636Y007174D01*
X015636Y007136D01*
X015180Y007136D01*
X015180Y007118D01*
X015192Y007044D01*
X015215Y006973D01*
X015249Y006906D01*
X015293Y006846D01*
X015346Y006793D01*
X015406Y006749D01*
X015473Y006715D01*
X015544Y006692D01*
X015555Y006690D01*
X015549Y006690D01*
X015352Y006609D01*
X015202Y006458D01*
X015120Y006262D01*
X015120Y006049D01*
X015202Y005852D01*
X015352Y005702D01*
X015549Y005620D01*
X015762Y005620D01*
X015958Y005702D01*
X016109Y005852D01*
X016190Y006049D01*
X016190Y006075D02*
X019395Y006075D01*
X019395Y006174D02*
X016190Y006174D01*
X016186Y006272D02*
X019395Y006272D01*
X019395Y006371D02*
X016145Y006371D01*
X016098Y006469D02*
X019395Y006469D01*
X019395Y006568D02*
X015999Y006568D01*
X015819Y006666D02*
X019395Y006666D01*
X019395Y006765D02*
X015926Y006765D01*
X016030Y006863D02*
X019395Y006863D01*
X019395Y006962D02*
X016090Y006962D01*
X016121Y007060D02*
X019395Y007060D01*
X019395Y007159D02*
X015674Y007159D01*
X015674Y007174D02*
X016130Y007174D01*
X016130Y007192D01*
X016118Y007266D01*
X016095Y007337D01*
X016061Y007404D01*
X016017Y007465D01*
X015965Y007517D01*
X015904Y007561D01*
X015837Y007595D01*
X015766Y007618D01*
X015692Y007630D01*
X015674Y007630D01*
X015674Y007174D01*
X015636Y007174D02*
X015636Y007630D01*
X015618Y007630D01*
X015544Y007618D01*
X015473Y007595D01*
X015406Y007561D01*
X015346Y007517D01*
X015293Y007465D01*
X015249Y007404D01*
X015215Y007337D01*
X015192Y007266D01*
X015180Y007192D01*
X015180Y007174D01*
X015636Y007174D01*
X015636Y007159D02*
X014741Y007159D01*
X014839Y007258D02*
X015190Y007258D01*
X015224Y007356D02*
X014938Y007356D01*
X015036Y007455D02*
X015286Y007455D01*
X015395Y007553D02*
X015135Y007553D01*
X015234Y007652D02*
X016286Y007652D01*
X016287Y007650D02*
X016327Y007595D01*
X016375Y007547D01*
X016430Y007507D01*
X016490Y007477D01*
X016554Y007456D01*
X016621Y007445D01*
X016625Y007445D01*
X016625Y008125D01*
X016685Y008125D01*
X016685Y007445D01*
X016689Y007445D01*
X016756Y007456D01*
X016820Y007477D01*
X016880Y007507D01*
X016935Y007547D01*
X016983Y007595D01*
X017023Y007650D01*
X017054Y007710D01*
X017074Y007774D01*
X017085Y007841D01*
X017085Y008125D01*
X016685Y008125D01*
X016685Y008185D01*
X017085Y008185D01*
X017085Y008469D01*
X017074Y008536D01*
X017054Y008600D01*
X017023Y008660D01*
X016983Y008715D01*
X016935Y008763D01*
X016880Y008803D01*
X016820Y008834D01*
X016756Y008854D01*
X016689Y008865D01*
X016685Y008865D01*
X016685Y008185D01*
X016625Y008185D01*
X016625Y008125D01*
X016225Y008125D01*
X016225Y007841D01*
X016236Y007774D01*
X016257Y007710D01*
X016287Y007650D01*
X016244Y007750D02*
X015332Y007750D01*
X015431Y007849D02*
X016225Y007849D01*
X016225Y007947D02*
X015529Y007947D01*
X015628Y008046D02*
X016225Y008046D01*
X016225Y008185D02*
X016625Y008185D01*
X016625Y008865D01*
X016621Y008865D01*
X016554Y008854D01*
X016490Y008834D01*
X016430Y008803D01*
X016375Y008763D01*
X016327Y008715D01*
X016287Y008660D01*
X016257Y008600D01*
X016236Y008536D01*
X016225Y008469D01*
X016225Y008185D01*
X016225Y008243D02*
X015825Y008243D01*
X015923Y008341D02*
X016225Y008341D01*
X016225Y008440D02*
X016022Y008440D01*
X016120Y008539D02*
X016237Y008539D01*
X016219Y008637D02*
X016275Y008637D01*
X016317Y008736D02*
X016348Y008736D01*
X016416Y008834D02*
X016492Y008834D01*
X016515Y008933D02*
X016838Y008933D01*
X016818Y008834D02*
X016983Y008834D01*
X016963Y008736D02*
X017263Y008736D01*
X017208Y008637D02*
X017035Y008637D01*
X017074Y008539D02*
X017168Y008539D01*
X017165Y008440D02*
X017085Y008440D01*
X017085Y008341D02*
X017165Y008341D01*
X017165Y008243D02*
X017085Y008243D01*
X017165Y008144D02*
X016685Y008144D01*
X016625Y008144D02*
X015726Y008144D01*
X015357Y008539D02*
X015000Y008539D01*
X015099Y008637D02*
X015455Y008637D01*
X015554Y008736D02*
X015197Y008736D01*
X015289Y008834D02*
X015652Y008834D01*
X015751Y008933D02*
X015325Y008933D01*
X015325Y009031D02*
X015850Y009031D01*
X015948Y009130D02*
X015325Y009130D01*
X015325Y009228D02*
X015625Y009228D01*
X015510Y009327D02*
X015325Y009327D01*
X015325Y009425D02*
X015440Y009425D01*
X015399Y009524D02*
X015325Y009524D01*
X015325Y009623D02*
X015385Y009623D01*
X015385Y009721D02*
X015325Y009721D01*
X015325Y009820D02*
X015413Y009820D01*
X015454Y009918D02*
X015325Y009918D01*
X015325Y010017D02*
X015544Y010017D01*
X015706Y010115D02*
X015325Y010115D01*
X015325Y010214D02*
X015660Y010214D01*
X015598Y010240D02*
X015778Y010165D01*
X016533Y010165D01*
X016713Y010240D01*
X016850Y010378D01*
X016925Y010558D01*
X016925Y010753D01*
X016850Y010933D01*
X016713Y011070D01*
X016533Y011145D01*
X015778Y011145D01*
X015598Y011070D01*
X015460Y010933D01*
X015385Y010753D01*
X015385Y010558D01*
X015460Y010378D01*
X015598Y010240D01*
X015525Y010312D02*
X015325Y010312D01*
X015325Y010411D02*
X015446Y010411D01*
X015405Y010509D02*
X015325Y010509D01*
X015325Y010608D02*
X015385Y010608D01*
X015385Y010707D02*
X015325Y010707D01*
X015325Y010805D02*
X015407Y010805D01*
X015448Y010904D02*
X015325Y010904D01*
X015325Y011002D02*
X015529Y011002D01*
X015671Y011101D02*
X015325Y011101D01*
X015325Y011199D02*
X015695Y011199D01*
X015778Y011165D02*
X015598Y011240D01*
X015460Y011378D01*
X015385Y011558D01*
X015385Y011753D01*
X015460Y011933D01*
X015598Y012070D01*
X015778Y012145D01*
X016533Y012145D01*
X016713Y012070D01*
X016850Y011933D01*
X016925Y011753D01*
X016925Y011558D01*
X016850Y011378D01*
X016713Y011240D01*
X016533Y011165D01*
X015778Y011165D01*
X015539Y011298D02*
X015325Y011298D01*
X015325Y011396D02*
X015452Y011396D01*
X015411Y011495D02*
X015325Y011495D01*
X015325Y011593D02*
X015385Y011593D01*
X015385Y011692D02*
X015325Y011692D01*
X015325Y011791D02*
X015401Y011791D01*
X015442Y011889D02*
X015325Y011889D01*
X015325Y011988D02*
X015515Y011988D01*
X015635Y012086D02*
X015325Y012086D01*
X015325Y012185D02*
X015730Y012185D01*
X015778Y012165D02*
X015598Y012240D01*
X015460Y012378D01*
X015385Y012558D01*
X015385Y012753D01*
X015460Y012933D01*
X015598Y013070D01*
X015778Y013145D01*
X016533Y013145D01*
X016713Y013070D01*
X016850Y012933D01*
X016925Y012753D01*
X016925Y012558D01*
X016850Y012378D01*
X016713Y012240D01*
X016533Y012165D01*
X015778Y012165D01*
X015554Y012283D02*
X015325Y012283D01*
X015325Y012382D02*
X015458Y012382D01*
X015417Y012480D02*
X015325Y012480D01*
X015325Y012579D02*
X015385Y012579D01*
X015385Y012677D02*
X015325Y012677D01*
X015325Y012776D02*
X015395Y012776D01*
X015436Y012874D02*
X015325Y012874D01*
X015325Y012973D02*
X015500Y012973D01*
X015600Y013072D02*
X015325Y013072D01*
X015325Y013170D02*
X015766Y013170D01*
X015569Y013269D02*
X015325Y013269D01*
X015325Y013367D02*
X015470Y013367D01*
X015423Y013466D02*
X015325Y013466D01*
X015325Y013564D02*
X015385Y013564D01*
X015385Y013663D02*
X015325Y013663D01*
X015325Y013761D02*
X015389Y013761D01*
X015430Y013860D02*
X015325Y013860D01*
X015325Y013958D02*
X015486Y013958D01*
X014785Y013958D02*
X013825Y013958D01*
X013850Y013933D02*
X013713Y014070D01*
X013533Y014145D01*
X012778Y014145D01*
X012598Y014070D01*
X012460Y013933D01*
X012385Y013753D01*
X012385Y013558D01*
X012460Y013378D01*
X012598Y013240D01*
X012778Y013165D01*
X013533Y013165D01*
X013713Y013240D01*
X013850Y013378D01*
X013925Y013558D01*
X013925Y013753D01*
X013850Y013933D01*
X013881Y013860D02*
X014785Y013860D01*
X014785Y013761D02*
X013921Y013761D01*
X013925Y013663D02*
X014785Y013663D01*
X014785Y013564D02*
X013925Y013564D01*
X013887Y013466D02*
X014785Y013466D01*
X014785Y013367D02*
X013840Y013367D01*
X013742Y013269D02*
X014785Y013269D01*
X014785Y013170D02*
X013545Y013170D01*
X013710Y013072D02*
X014785Y013072D01*
X014785Y012973D02*
X013810Y012973D01*
X013875Y012874D02*
X014785Y012874D01*
X014785Y012776D02*
X013915Y012776D01*
X013925Y012677D02*
X014785Y012677D01*
X014785Y012579D02*
X013925Y012579D01*
X013893Y012480D02*
X014785Y012480D01*
X014785Y012382D02*
X013852Y012382D01*
X013756Y012283D02*
X014785Y012283D01*
X014785Y012185D02*
X013580Y012185D01*
X013533Y012145D02*
X012778Y012145D01*
X012598Y012070D01*
X012460Y011933D01*
X012385Y011753D01*
X012385Y011558D01*
X012460Y011378D01*
X012598Y011240D01*
X012778Y011165D01*
X013533Y011165D01*
X013713Y011240D01*
X013850Y011378D01*
X013925Y011558D01*
X013925Y011753D01*
X013850Y011933D01*
X013713Y012070D01*
X013533Y012145D01*
X013675Y012086D02*
X014785Y012086D01*
X014785Y011988D02*
X013796Y011988D01*
X013869Y011889D02*
X014785Y011889D01*
X014785Y011791D02*
X013909Y011791D01*
X013925Y011692D02*
X014785Y011692D01*
X014785Y011593D02*
X013925Y011593D01*
X013899Y011495D02*
X014785Y011495D01*
X014785Y011396D02*
X013858Y011396D01*
X013771Y011298D02*
X014785Y011298D01*
X014785Y011199D02*
X013615Y011199D01*
X013533Y011145D02*
X012778Y011145D01*
X012598Y011070D01*
X012460Y010933D01*
X012385Y010753D01*
X012385Y010558D01*
X012460Y010378D01*
X012598Y010240D01*
X012778Y010165D01*
X013533Y010165D01*
X013713Y010240D01*
X013850Y010378D01*
X013925Y010558D01*
X013925Y010753D01*
X013850Y010933D01*
X013713Y011070D01*
X013533Y011145D01*
X013640Y011101D02*
X014785Y011101D01*
X014785Y011002D02*
X013781Y011002D01*
X013863Y010904D02*
X014785Y010904D01*
X014785Y010805D02*
X013903Y010805D01*
X013925Y010707D02*
X014785Y010707D01*
X014785Y010608D02*
X013925Y010608D01*
X013905Y010509D02*
X014785Y010509D01*
X014785Y010411D02*
X013864Y010411D01*
X013785Y010312D02*
X014785Y010312D01*
X014785Y010214D02*
X013650Y010214D01*
X013600Y010054D02*
X013536Y010074D01*
X013469Y010085D01*
X013185Y010085D01*
X013185Y009685D01*
X013125Y009685D01*
X013125Y009625D01*
X013185Y009625D01*
X013185Y009225D01*
X013469Y009225D01*
X013536Y009236D01*
X013600Y009257D01*
X013660Y009287D01*
X013715Y009327D01*
X014785Y009327D01*
X014785Y009425D02*
X013800Y009425D01*
X013803Y009430D02*
X013834Y009490D01*
X013854Y009554D01*
X013865Y009621D01*
X013865Y009625D01*
X013185Y009625D01*
X013185Y009685D01*
X013865Y009685D01*
X013865Y009689D01*
X013854Y009756D01*
X013834Y009820D01*
X014785Y009820D01*
X014785Y009918D02*
X013775Y009918D01*
X013763Y009935D02*
X013715Y009983D01*
X013660Y010023D01*
X013600Y010054D01*
X013669Y010017D02*
X014785Y010017D01*
X014785Y010115D02*
X012045Y010115D01*
X012045Y010017D02*
X012641Y010017D01*
X012650Y010023D02*
X012595Y009983D01*
X012547Y009935D01*
X012507Y009880D01*
X012477Y009820D01*
X012456Y009756D01*
X012445Y009689D01*
X012445Y009685D01*
X013125Y009685D01*
X013125Y010085D01*
X012841Y010085D01*
X012774Y010074D01*
X012710Y010054D01*
X012650Y010023D01*
X012535Y009918D02*
X012045Y009918D01*
X012045Y009820D02*
X012476Y009820D01*
X012450Y009721D02*
X012045Y009721D01*
X012045Y009623D02*
X012445Y009623D01*
X012445Y009621D02*
X012456Y009554D01*
X012477Y009490D01*
X012507Y009430D01*
X012547Y009375D01*
X012595Y009327D01*
X012650Y009287D01*
X012710Y009257D01*
X012774Y009236D01*
X012841Y009225D01*
X013125Y009225D01*
X013125Y009625D01*
X012445Y009625D01*
X012445Y009621D01*
X012466Y009524D02*
X012045Y009524D01*
X012045Y009425D02*
X012510Y009425D01*
X012595Y009327D02*
X012045Y009327D01*
X012045Y009228D02*
X012821Y009228D01*
X012762Y009190D02*
X012549Y009190D01*
X012352Y009109D01*
X012202Y008958D01*
X012120Y008762D01*
X012120Y008549D01*
X012202Y008352D01*
X012352Y008202D01*
X012549Y008120D01*
X012762Y008120D01*
X012958Y008202D01*
X013109Y008352D01*
X013190Y008549D01*
X013190Y008555D01*
X013192Y008544D01*
X013215Y008473D01*
X013249Y008406D01*
X013293Y008346D01*
X013346Y008293D01*
X013406Y008249D01*
X013473Y008215D01*
X013544Y008192D01*
X013618Y008180D01*
X013636Y008180D01*
X013636Y008636D01*
X013674Y008636D01*
X013674Y008180D01*
X013692Y008180D01*
X013766Y008192D01*
X013837Y008215D01*
X013904Y008249D01*
X013965Y008293D01*
X014017Y008346D01*
X014061Y008406D01*
X014095Y008473D01*
X014118Y008544D01*
X014130Y008618D01*
X014130Y008636D01*
X013674Y008636D01*
X013674Y008674D01*
X014130Y008674D01*
X014130Y008692D01*
X014118Y008766D01*
X014095Y008837D01*
X014061Y008904D01*
X014017Y008965D01*
X013965Y009017D01*
X013904Y009061D01*
X013837Y009095D01*
X013766Y009118D01*
X013692Y009130D01*
X013674Y009130D01*
X013674Y008674D01*
X013636Y008674D01*
X013636Y009130D01*
X013618Y009130D01*
X013544Y009118D01*
X013473Y009095D01*
X013406Y009061D01*
X013346Y009017D01*
X013293Y008965D01*
X013249Y008904D01*
X013215Y008837D01*
X013192Y008766D01*
X013190Y008755D01*
X013190Y008762D01*
X013109Y008958D01*
X012958Y009109D01*
X012762Y009190D01*
X012907Y009130D02*
X013616Y009130D01*
X013636Y009130D02*
X013674Y009130D01*
X013694Y009130D02*
X014785Y009130D01*
X014785Y009228D02*
X013490Y009228D01*
X013365Y009031D02*
X013035Y009031D01*
X013119Y008933D02*
X013270Y008933D01*
X013214Y008834D02*
X013160Y008834D01*
X013186Y008539D02*
X013194Y008539D01*
X013232Y008440D02*
X013145Y008440D01*
X013098Y008341D02*
X013297Y008341D01*
X013418Y008243D02*
X013000Y008243D01*
X012820Y008144D02*
X013843Y008144D01*
X013892Y008243D02*
X013941Y008243D01*
X014013Y008341D02*
X014040Y008341D01*
X014079Y008440D02*
X014138Y008440D01*
X014117Y008539D02*
X014237Y008539D01*
X014335Y008637D02*
X013674Y008637D01*
X013674Y008539D02*
X013636Y008539D01*
X013636Y008440D02*
X013674Y008440D01*
X013674Y008341D02*
X013636Y008341D01*
X013636Y008243D02*
X013674Y008243D01*
X013744Y008046D02*
X012045Y008046D01*
X012045Y008144D02*
X012490Y008144D01*
X012311Y008243D02*
X012045Y008243D01*
X012045Y008341D02*
X012212Y008341D01*
X012165Y008440D02*
X012045Y008440D01*
X012045Y008539D02*
X012124Y008539D01*
X012120Y008637D02*
X012045Y008637D01*
X012045Y008736D02*
X012120Y008736D01*
X012150Y008834D02*
X012045Y008834D01*
X012045Y008933D02*
X012191Y008933D01*
X012275Y009031D02*
X012045Y009031D01*
X012045Y009130D02*
X012403Y009130D01*
X011505Y009130D02*
X011069Y009130D01*
X011033Y009145D02*
X011213Y009070D01*
X011350Y008933D01*
X011505Y008933D01*
X011505Y009031D02*
X011252Y009031D01*
X011350Y008933D02*
X011425Y008753D01*
X011425Y008558D01*
X011350Y008378D01*
X011213Y008240D01*
X011033Y008165D01*
X010278Y008165D01*
X010098Y008240D01*
X009960Y008378D01*
X009885Y008558D01*
X009885Y008753D01*
X009960Y008933D01*
X008350Y008933D01*
X008213Y009070D01*
X008033Y009145D01*
X007278Y009145D01*
X007098Y009070D01*
X006960Y008933D01*
X006119Y008933D01*
X006109Y008958D02*
X005958Y009109D01*
X005762Y009190D01*
X005549Y009190D01*
X005352Y009109D01*
X005202Y008958D01*
X005120Y008762D01*
X005120Y008549D01*
X005202Y008352D01*
X005352Y008202D01*
X005549Y008120D01*
X005762Y008120D01*
X005958Y008202D01*
X006109Y008352D01*
X006190Y008549D01*
X006190Y008762D01*
X006109Y008958D01*
X006035Y009031D02*
X007058Y009031D01*
X006960Y008933D02*
X006885Y008753D01*
X006885Y008558D01*
X006960Y008378D01*
X007098Y008240D01*
X007278Y008165D01*
X008033Y008165D01*
X008213Y008240D01*
X008350Y008378D01*
X008425Y008558D01*
X008425Y008753D01*
X008350Y008933D01*
X008391Y008834D02*
X009919Y008834D01*
X009885Y008736D02*
X008425Y008736D01*
X008425Y008637D02*
X009885Y008637D01*
X009893Y008539D02*
X008417Y008539D01*
X008376Y008440D02*
X009934Y008440D01*
X009996Y008341D02*
X008314Y008341D01*
X008216Y008243D02*
X010094Y008243D01*
X010073Y008046D02*
X008237Y008046D01*
X008336Y007947D02*
X009974Y007947D01*
X009925Y007849D02*
X009916Y007849D01*
X010276Y008144D02*
X008034Y008144D01*
X007276Y008144D02*
X005820Y008144D01*
X006000Y008243D02*
X007094Y008243D01*
X006996Y008341D02*
X006098Y008341D01*
X006145Y008440D02*
X006934Y008440D01*
X006893Y008539D02*
X006186Y008539D01*
X006190Y008637D02*
X006885Y008637D01*
X006885Y008736D02*
X006190Y008736D01*
X006160Y008834D02*
X006919Y008834D01*
X007241Y009130D02*
X005907Y009130D01*
X005403Y009130D02*
X004407Y009130D01*
X004485Y009228D02*
X007125Y009228D01*
X007098Y009240D02*
X007278Y009165D01*
X008033Y009165D01*
X008213Y009240D01*
X008350Y009378D01*
X008425Y009558D01*
X008425Y009753D01*
X008350Y009933D01*
X008213Y010070D01*
X008033Y010145D01*
X007278Y010145D01*
X007098Y010070D01*
X006960Y009933D01*
X006885Y009753D01*
X006885Y009558D01*
X006960Y009378D01*
X007098Y009240D01*
X007010Y009327D02*
X004584Y009327D01*
X004639Y009425D02*
X006940Y009425D01*
X006899Y009524D02*
X004680Y009524D01*
X004690Y009623D02*
X006885Y009623D01*
X006885Y009721D02*
X004690Y009721D01*
X004666Y009820D02*
X006913Y009820D01*
X006954Y009918D02*
X004625Y009918D01*
X004550Y010017D02*
X007044Y010017D01*
X007206Y010115D02*
X004442Y010115D01*
X004470Y010214D02*
X005340Y010214D01*
X005352Y010202D02*
X005202Y010352D01*
X005120Y010549D01*
X005120Y010762D01*
X005202Y010958D01*
X005352Y011109D01*
X005549Y011190D01*
X005762Y011190D01*
X005958Y011109D01*
X006109Y010958D01*
X006190Y010762D01*
X006190Y010549D01*
X006109Y010352D01*
X005958Y010202D01*
X005762Y010120D01*
X005549Y010120D01*
X005352Y010202D01*
X005241Y010312D02*
X004569Y010312D01*
X004633Y010411D02*
X005177Y010411D01*
X005136Y010509D02*
X004674Y010509D01*
X004690Y010608D02*
X005120Y010608D01*
X005120Y010707D02*
X004690Y010707D01*
X004672Y010805D02*
X005138Y010805D01*
X005179Y010904D02*
X004631Y010904D01*
X004565Y011002D02*
X005246Y011002D01*
X005344Y011101D02*
X004466Y011101D01*
X004453Y011199D02*
X007195Y011199D01*
X007278Y011165D02*
X008033Y011165D01*
X008213Y011240D01*
X008350Y011378D01*
X008425Y011558D01*
X008425Y011753D01*
X008350Y011933D01*
X008213Y012070D01*
X008033Y012145D01*
X007278Y012145D01*
X007098Y012070D01*
X006960Y011933D01*
X006885Y011753D01*
X006885Y011558D01*
X006960Y011378D01*
X007098Y011240D01*
X007278Y011165D01*
X007278Y011145D02*
X007098Y011070D01*
X006960Y010933D01*
X006885Y010753D01*
X006885Y010558D01*
X006960Y010378D01*
X007098Y010240D01*
X007278Y010165D01*
X008033Y010165D01*
X008213Y010240D01*
X008350Y010378D01*
X008425Y010558D01*
X008425Y010753D01*
X008350Y010933D01*
X008213Y011070D01*
X008033Y011145D01*
X007278Y011145D01*
X007171Y011101D02*
X005966Y011101D01*
X006065Y011002D02*
X007029Y011002D01*
X006948Y010904D02*
X006131Y010904D01*
X006172Y010805D02*
X006907Y010805D01*
X006885Y010707D02*
X006190Y010707D01*
X006190Y010608D02*
X006885Y010608D01*
X006905Y010509D02*
X006174Y010509D01*
X006133Y010411D02*
X006946Y010411D01*
X007025Y010312D02*
X006069Y010312D01*
X005970Y010214D02*
X007160Y010214D01*
X008105Y010115D02*
X010206Y010115D01*
X010278Y010145D02*
X010098Y010070D01*
X009960Y009933D01*
X009885Y009753D01*
X009885Y009558D01*
X009960Y009378D01*
X010098Y009240D01*
X010278Y009165D01*
X011033Y009165D01*
X011213Y009240D01*
X011350Y009378D01*
X011425Y009558D01*
X011425Y009753D01*
X011350Y009933D01*
X011213Y010070D01*
X011033Y010145D01*
X010278Y010145D01*
X010274Y010236D02*
X010341Y010225D01*
X010625Y010225D01*
X010625Y010625D01*
X010685Y010625D01*
X010685Y010225D01*
X010969Y010225D01*
X011036Y010236D01*
X011100Y010257D01*
X011160Y010287D01*
X011215Y010327D01*
X011263Y010375D01*
X011303Y010430D01*
X011334Y010490D01*
X011354Y010554D01*
X011365Y010621D01*
X011365Y010625D01*
X010685Y010625D01*
X010685Y010685D01*
X010625Y010685D01*
X010625Y010625D01*
X009945Y010625D01*
X009945Y010621D01*
X009956Y010554D01*
X009977Y010490D01*
X010007Y010430D01*
X010047Y010375D01*
X010095Y010327D01*
X010150Y010287D01*
X010210Y010257D01*
X010274Y010236D01*
X010115Y010312D02*
X008285Y010312D01*
X008364Y010411D02*
X010021Y010411D01*
X009970Y010509D02*
X008405Y010509D01*
X008425Y010608D02*
X009947Y010608D01*
X009945Y010685D02*
X010625Y010685D01*
X010625Y011085D01*
X010341Y011085D01*
X010274Y011074D01*
X010210Y011054D01*
X010150Y011023D01*
X010095Y010983D01*
X010047Y010935D01*
X010007Y010880D01*
X009977Y010820D01*
X009956Y010756D01*
X009945Y010689D01*
X009945Y010685D01*
X009948Y010707D02*
X008425Y010707D01*
X008403Y010805D02*
X009972Y010805D01*
X010024Y010904D02*
X008363Y010904D01*
X008281Y011002D02*
X010121Y011002D01*
X010210Y011257D02*
X010150Y011287D01*
X010095Y011327D01*
X010047Y011375D01*
X010007Y011430D01*
X009977Y011490D01*
X009956Y011554D01*
X009945Y011621D01*
X009945Y011625D01*
X010625Y011625D01*
X010685Y011625D01*
X010685Y011225D01*
X010969Y011225D01*
X011036Y011236D01*
X011100Y011257D01*
X011160Y011287D01*
X011215Y011327D01*
X011263Y011375D01*
X011303Y011430D01*
X011334Y011490D01*
X011354Y011554D01*
X011365Y011621D01*
X011365Y011625D01*
X010685Y011625D01*
X010685Y011685D01*
X010625Y011685D01*
X010625Y011625D01*
X010625Y011225D01*
X010341Y011225D01*
X010274Y011236D01*
X010210Y011257D01*
X010135Y011298D02*
X008271Y011298D01*
X008358Y011396D02*
X010032Y011396D01*
X009975Y011495D02*
X008399Y011495D01*
X008425Y011593D02*
X009949Y011593D01*
X009945Y011685D02*
X010625Y011685D01*
X010625Y012085D01*
X010341Y012085D01*
X010274Y012074D01*
X010210Y012054D01*
X010150Y012023D01*
X010095Y011983D01*
X010047Y011935D01*
X010007Y011880D01*
X009977Y011820D01*
X009956Y011756D01*
X009945Y011689D01*
X009945Y011685D01*
X009946Y011692D02*
X008425Y011692D01*
X008409Y011791D02*
X009967Y011791D01*
X010014Y011889D02*
X008369Y011889D01*
X008296Y011988D02*
X010101Y011988D01*
X010230Y012185D02*
X005917Y012185D01*
X005958Y012202D02*
X006109Y012352D01*
X006190Y012549D01*
X006190Y012762D01*
X006109Y012958D01*
X005958Y013109D01*
X005762Y013190D01*
X005549Y013190D01*
X005352Y013109D01*
X005202Y012958D01*
X005120Y012762D01*
X005120Y012755D01*
X005118Y012766D01*
X005095Y012837D01*
X005061Y012904D01*
X005017Y012965D01*
X004965Y013017D01*
X004904Y013061D01*
X004837Y013095D01*
X004766Y013118D01*
X004692Y013130D01*
X004674Y013130D01*
X004674Y012674D01*
X004636Y012674D01*
X004636Y012636D01*
X004674Y012636D01*
X004674Y012180D01*
X004692Y012180D01*
X004766Y012192D01*
X004837Y012215D01*
X004904Y012249D01*
X004965Y012293D01*
X005017Y012346D01*
X005061Y012406D01*
X005095Y012473D01*
X005118Y012544D01*
X005120Y012555D01*
X005120Y012549D01*
X005202Y012352D01*
X005352Y012202D01*
X005549Y012120D01*
X005762Y012120D01*
X005958Y012202D01*
X006040Y012283D02*
X007158Y012283D01*
X007150Y012287D02*
X007210Y012257D01*
X007274Y012236D01*
X007341Y012225D01*
X007625Y012225D01*
X007625Y012625D01*
X007685Y012625D01*
X007685Y012225D01*
X007969Y012225D01*
X008036Y012236D01*
X008100Y012257D01*
X008160Y012287D01*
X008215Y012327D01*
X008263Y012375D01*
X008303Y012430D01*
X008334Y012490D01*
X008354Y012554D01*
X008365Y012621D01*
X008365Y012625D01*
X007685Y012625D01*
X007685Y012685D01*
X007625Y012685D01*
X007625Y012625D01*
X006945Y012625D01*
X006945Y012621D01*
X006956Y012554D01*
X006977Y012490D01*
X007007Y012430D01*
X007047Y012375D01*
X007095Y012327D01*
X007150Y012287D01*
X007042Y012382D02*
X006121Y012382D01*
X006162Y012480D02*
X006982Y012480D01*
X006952Y012579D02*
X006190Y012579D01*
X006190Y012677D02*
X007625Y012677D01*
X007625Y012685D02*
X006945Y012685D01*
X006945Y012689D01*
X006956Y012756D01*
X006977Y012820D01*
X007007Y012880D01*
X007047Y012935D01*
X007095Y012983D01*
X007150Y013023D01*
X007210Y013054D01*
X007274Y013074D01*
X007341Y013085D01*
X007625Y013085D01*
X007625Y012685D01*
X007685Y012685D02*
X007685Y013085D01*
X007969Y013085D01*
X008036Y013074D01*
X008100Y013054D01*
X008160Y013023D01*
X008215Y012983D01*
X008263Y012935D01*
X008303Y012880D01*
X008334Y012820D01*
X008354Y012756D01*
X008365Y012689D01*
X008365Y012685D01*
X007685Y012685D01*
X007685Y012677D02*
X009885Y012677D01*
X009885Y012753D02*
X009885Y012558D01*
X009960Y012378D01*
X010098Y012240D01*
X010278Y012165D01*
X011033Y012165D01*
X011213Y012240D01*
X011350Y012378D01*
X011425Y012558D01*
X011425Y012753D01*
X011350Y012933D01*
X011213Y013070D01*
X011033Y013145D01*
X010278Y013145D01*
X010098Y013070D01*
X009960Y012933D01*
X009885Y012753D01*
X009895Y012776D02*
X008348Y012776D01*
X008306Y012874D02*
X009936Y012874D01*
X010000Y012973D02*
X008225Y012973D01*
X008045Y013072D02*
X010100Y013072D01*
X010266Y013170D02*
X008045Y013170D01*
X008242Y013269D02*
X010069Y013269D01*
X009970Y013367D02*
X008340Y013367D01*
X007685Y013072D02*
X007625Y013072D01*
X007625Y012973D02*
X007685Y012973D01*
X007685Y012874D02*
X007625Y012874D01*
X007625Y012776D02*
X007685Y012776D01*
X007685Y012579D02*
X007625Y012579D01*
X007625Y012480D02*
X007685Y012480D01*
X007685Y012382D02*
X007625Y012382D01*
X007625Y012283D02*
X007685Y012283D01*
X008152Y012283D02*
X010054Y012283D01*
X009958Y012382D02*
X008268Y012382D01*
X008329Y012480D02*
X009917Y012480D01*
X009885Y012579D02*
X008358Y012579D01*
X008175Y012086D02*
X011784Y012086D01*
X011686Y011988D02*
X011209Y011988D01*
X011215Y011983D02*
X011160Y012023D01*
X011100Y012054D01*
X011036Y012074D01*
X010969Y012085D01*
X010685Y012085D01*
X010685Y011685D01*
X011365Y011685D01*
X011365Y011689D01*
X011354Y011756D01*
X011334Y011820D01*
X011303Y011880D01*
X011263Y011935D01*
X011215Y011983D01*
X011297Y011889D02*
X011587Y011889D01*
X011522Y011791D02*
X011343Y011791D01*
X011365Y011692D02*
X011505Y011692D01*
X011505Y011593D02*
X011361Y011593D01*
X011335Y011495D02*
X011505Y011495D01*
X011505Y011396D02*
X011279Y011396D01*
X011175Y011298D02*
X011505Y011298D01*
X011505Y011199D02*
X008115Y011199D01*
X008140Y011101D02*
X011505Y011101D01*
X011505Y011002D02*
X011189Y011002D01*
X011215Y010983D02*
X011160Y011023D01*
X011100Y011054D01*
X011036Y011074D01*
X010969Y011085D01*
X010685Y011085D01*
X010685Y010685D01*
X011365Y010685D01*
X011365Y010689D01*
X011354Y010756D01*
X011334Y010820D01*
X011303Y010880D01*
X011263Y010935D01*
X011215Y010983D01*
X011286Y010904D02*
X011505Y010904D01*
X011505Y010805D02*
X011339Y010805D01*
X011362Y010707D02*
X011505Y010707D01*
X011505Y010608D02*
X011363Y010608D01*
X011340Y010509D02*
X011505Y010509D01*
X011505Y010411D02*
X011289Y010411D01*
X011195Y010312D02*
X011505Y010312D01*
X011505Y010214D02*
X008150Y010214D01*
X008266Y010017D02*
X010044Y010017D01*
X009954Y009918D02*
X008356Y009918D01*
X008397Y009820D02*
X009913Y009820D01*
X009885Y009721D02*
X008425Y009721D01*
X008425Y009623D02*
X009885Y009623D01*
X009899Y009524D02*
X008411Y009524D01*
X008370Y009425D02*
X009940Y009425D01*
X010010Y009327D02*
X008300Y009327D01*
X008185Y009228D02*
X010125Y009228D01*
X010241Y009130D02*
X008069Y009130D01*
X008252Y009031D02*
X010058Y009031D01*
X010098Y009070D02*
X009960Y008933D01*
X010098Y009070D02*
X010278Y009145D01*
X011033Y009145D01*
X011185Y009228D02*
X011505Y009228D01*
X011505Y009327D02*
X011300Y009327D01*
X011370Y009425D02*
X011505Y009425D01*
X011505Y009524D02*
X011411Y009524D01*
X011425Y009623D02*
X011505Y009623D01*
X011505Y009721D02*
X011425Y009721D01*
X011397Y009820D02*
X011505Y009820D01*
X011505Y009918D02*
X011356Y009918D01*
X011266Y010017D02*
X011505Y010017D01*
X011505Y010115D02*
X011105Y010115D01*
X010685Y010312D02*
X010625Y010312D01*
X010625Y010411D02*
X010685Y010411D01*
X010685Y010509D02*
X010625Y010509D01*
X010625Y010608D02*
X010685Y010608D01*
X010685Y010707D02*
X010625Y010707D01*
X010625Y010805D02*
X010685Y010805D01*
X010685Y010904D02*
X010625Y010904D01*
X010625Y011002D02*
X010685Y011002D01*
X010685Y011298D02*
X010625Y011298D01*
X010625Y011396D02*
X010685Y011396D01*
X010685Y011495D02*
X010625Y011495D01*
X010625Y011593D02*
X010685Y011593D01*
X010685Y011692D02*
X010625Y011692D01*
X010625Y011791D02*
X010685Y011791D01*
X010685Y011889D02*
X010625Y011889D01*
X010625Y011988D02*
X010685Y011988D01*
X011080Y012185D02*
X011883Y012185D01*
X011981Y012283D02*
X011256Y012283D01*
X011352Y012382D02*
X012080Y012382D01*
X012179Y012480D02*
X011393Y012480D01*
X011425Y012579D02*
X012277Y012579D01*
X012376Y012677D02*
X011425Y012677D01*
X011415Y012776D02*
X012395Y012776D01*
X012436Y012874D02*
X011375Y012874D01*
X011310Y012973D02*
X012500Y012973D01*
X012600Y013072D02*
X011210Y013072D01*
X011045Y013170D02*
X012766Y013170D01*
X012569Y013269D02*
X011242Y013269D01*
X011340Y013367D02*
X012470Y013367D01*
X012423Y013466D02*
X011387Y013466D01*
X011425Y013564D02*
X012385Y013564D01*
X012385Y013663D02*
X011425Y013663D01*
X011421Y013761D02*
X012389Y013761D01*
X012430Y013860D02*
X012153Y013860D01*
X012260Y013958D02*
X012486Y013958D01*
X012584Y014057D02*
X012359Y014057D01*
X012457Y014156D02*
X014785Y014156D01*
X014785Y014254D02*
X013727Y014254D01*
X013826Y014353D02*
X014785Y014353D01*
X014785Y014451D02*
X013881Y014451D01*
X013922Y014550D02*
X014785Y014550D01*
X014785Y014648D02*
X013925Y014648D01*
X013925Y014747D02*
X014785Y014747D01*
X014785Y014845D02*
X013887Y014845D01*
X013839Y014944D02*
X014785Y014944D01*
X014785Y015042D02*
X013741Y015042D01*
X013542Y015141D02*
X014785Y015141D01*
X014785Y015240D02*
X013548Y015240D01*
X013536Y015236D02*
X013600Y015257D01*
X013660Y015287D01*
X013715Y015327D01*
X013763Y015375D01*
X013803Y015430D01*
X013834Y015490D01*
X013854Y015554D01*
X013865Y015621D01*
X013865Y015625D01*
X013185Y015625D01*
X013185Y015225D01*
X013469Y015225D01*
X013536Y015236D01*
X013726Y015338D02*
X014785Y015338D01*
X014785Y015437D02*
X013806Y015437D01*
X013848Y015535D02*
X014785Y015535D01*
X014785Y015634D02*
X013185Y015634D01*
X013185Y015625D02*
X013185Y015685D01*
X013125Y015685D01*
X013125Y015625D01*
X013185Y015625D01*
X013125Y015625D02*
X013125Y015225D01*
X012841Y015225D01*
X012774Y015236D01*
X012710Y015257D01*
X012650Y015287D01*
X012595Y015327D01*
X012547Y015375D01*
X012507Y015430D01*
X012477Y015490D01*
X012456Y015554D01*
X012445Y015621D01*
X012445Y015625D01*
X013125Y015625D01*
X013125Y015634D02*
X011425Y015634D01*
X011425Y015558D02*
X011425Y015753D01*
X011350Y015933D01*
X011213Y016070D01*
X011033Y016145D01*
X010278Y016145D01*
X010098Y016070D01*
X009960Y015933D01*
X009885Y015753D01*
X009885Y015558D01*
X009960Y015378D01*
X010098Y015240D01*
X008212Y015240D01*
X008213Y015240D02*
X008350Y015378D01*
X008425Y015558D01*
X008425Y015753D01*
X008350Y015933D01*
X008213Y016070D01*
X008033Y016145D01*
X007278Y016145D01*
X007098Y016070D01*
X006960Y015933D01*
X006885Y015753D01*
X006885Y015558D01*
X006960Y015378D01*
X007098Y015240D01*
X000865Y015240D01*
X000865Y015338D02*
X006999Y015338D01*
X006935Y015437D02*
X000865Y015437D01*
X000865Y015535D02*
X006894Y015535D01*
X006885Y015634D02*
X003412Y015634D01*
X003484Y015663D02*
X003647Y015827D01*
X003735Y016040D01*
X003735Y016270D01*
X003647Y016484D01*
X003484Y016647D01*
X003463Y016655D01*
X003484Y016663D01*
X003647Y016827D01*
X003735Y017040D01*
X003735Y017270D01*
X003647Y017484D01*
X003484Y017647D01*
X003384Y017688D01*
X003428Y017710D01*
X003494Y017758D01*
X003552Y017816D01*
X003600Y017883D01*
X003637Y017955D01*
X003662Y018033D01*
X003674Y018105D01*
X003205Y018105D01*
X003205Y018205D01*
X003674Y018205D01*
X003662Y018277D01*
X003637Y018355D01*
X003600Y018428D01*
X003552Y018494D01*
X003494Y018552D01*
X003428Y018600D01*
X003384Y018622D01*
X003484Y018663D01*
X003647Y018827D01*
X003735Y019040D01*
X003735Y019270D01*
X003647Y019484D01*
X003484Y019647D01*
X003463Y019655D01*
X003484Y019663D01*
X003534Y019714D01*
X006746Y016502D01*
X006822Y016426D01*
X006921Y016385D01*
X006957Y016385D01*
X006960Y016378D01*
X007098Y016240D01*
X007278Y016165D01*
X008033Y016165D01*
X008213Y016240D01*
X008350Y016378D01*
X008425Y016558D01*
X008425Y016753D01*
X008350Y016933D01*
X008213Y017070D01*
X008033Y017145D01*
X007278Y017145D01*
X007098Y017070D01*
X007020Y016992D01*
X003764Y020248D01*
X003731Y020281D01*
X003647Y020484D01*
X003484Y020647D01*
X003463Y020655D01*
X003484Y020663D01*
X003647Y020827D01*
X003735Y021040D01*
X003735Y021270D01*
X003647Y021484D01*
X003484Y021647D01*
X003270Y021735D01*
X003040Y021735D01*
X002827Y021647D01*
X002663Y021484D01*
X002575Y021270D01*
X002575Y021040D01*
X002663Y020827D01*
X002827Y020663D01*
X002847Y020655D01*
X002827Y020647D01*
X002663Y020484D01*
X002575Y020270D01*
X002575Y020040D01*
X002663Y019827D01*
X002827Y019663D01*
X002847Y019655D01*
X002827Y019647D01*
X002663Y019484D01*
X002575Y019270D01*
X002575Y019040D01*
X002663Y018827D01*
X002827Y018663D01*
X002926Y018622D01*
X002883Y018600D01*
X002816Y018552D01*
X002758Y018494D01*
X002710Y018428D01*
X002673Y018355D01*
X002648Y018277D01*
X002637Y018205D01*
X003105Y018205D01*
X003105Y018105D01*
X002637Y018105D01*
X002648Y018033D01*
X002673Y017955D01*
X002710Y017883D01*
X002758Y017816D01*
X002816Y017758D01*
X002883Y017710D01*
X002926Y017688D01*
X002827Y017647D01*
X002663Y017484D01*
X002575Y017270D01*
X002575Y017040D01*
X002663Y016827D01*
X002827Y016663D01*
X002847Y016655D01*
X002827Y016647D01*
X002663Y016484D01*
X002575Y016270D01*
X002575Y016040D01*
X002663Y015827D01*
X002827Y015663D01*
X003040Y015575D01*
X003270Y015575D01*
X003484Y015663D01*
X003552Y015732D02*
X006885Y015732D01*
X006918Y015831D02*
X003649Y015831D01*
X003689Y015929D02*
X006958Y015929D01*
X007055Y016028D02*
X003730Y016028D01*
X003735Y016126D02*
X007233Y016126D01*
X007133Y016225D02*
X003735Y016225D01*
X003713Y016324D02*
X007014Y016324D01*
X006832Y016422D02*
X003672Y016422D01*
X003610Y016521D02*
X006728Y016521D01*
X006746Y016502D02*
X006746Y016502D01*
X006629Y016619D02*
X003511Y016619D01*
X003538Y016718D02*
X006531Y016718D01*
X006432Y016816D02*
X003636Y016816D01*
X003683Y016915D02*
X006334Y016915D01*
X006235Y017013D02*
X003724Y017013D01*
X003735Y017112D02*
X006137Y017112D01*
X006038Y017210D02*
X003735Y017210D01*
X003719Y017309D02*
X005939Y017309D01*
X005841Y017407D02*
X003678Y017407D01*
X003624Y017506D02*
X005742Y017506D01*
X005644Y017605D02*
X003526Y017605D01*
X003413Y017703D02*
X005545Y017703D01*
X005447Y017802D02*
X003537Y017802D01*
X003609Y017900D02*
X005348Y017900D01*
X005250Y017999D02*
X003651Y017999D01*
X003672Y018097D02*
X005151Y018097D01*
X005053Y018196D02*
X003205Y018196D01*
X003105Y018196D02*
X000865Y018196D01*
X000865Y018294D02*
X002654Y018294D01*
X002693Y018393D02*
X000865Y018393D01*
X000865Y018491D02*
X002757Y018491D01*
X002869Y018590D02*
X000865Y018590D01*
X000865Y018689D02*
X002801Y018689D01*
X002703Y018787D02*
X000865Y018787D01*
X000865Y018886D02*
X002639Y018886D01*
X002598Y018984D02*
X000865Y018984D01*
X000865Y019083D02*
X002575Y019083D01*
X002575Y019181D02*
X000865Y019181D01*
X000865Y019280D02*
X002579Y019280D01*
X002620Y019378D02*
X000865Y019378D01*
X000865Y019477D02*
X002661Y019477D01*
X002755Y019575D02*
X000865Y019575D01*
X000865Y019674D02*
X002816Y019674D01*
X002717Y019773D02*
X000865Y019773D01*
X000865Y019871D02*
X002645Y019871D01*
X002604Y019970D02*
X000865Y019970D01*
X000865Y020068D02*
X002575Y020068D01*
X002575Y020167D02*
X000865Y020167D01*
X000865Y020265D02*
X002575Y020265D01*
X002614Y020364D02*
X000865Y020364D01*
X000865Y020462D02*
X002655Y020462D01*
X002741Y020561D02*
X000865Y020561D01*
X000865Y020659D02*
X002836Y020659D01*
X002732Y020758D02*
X000865Y020758D01*
X000865Y020856D02*
X002651Y020856D01*
X002610Y020955D02*
X000865Y020955D01*
X000865Y021054D02*
X002575Y021054D01*
X002575Y021152D02*
X000865Y021152D01*
X000865Y021251D02*
X002575Y021251D01*
X002608Y021349D02*
X000865Y021349D01*
X000865Y021448D02*
X002649Y021448D01*
X002726Y021546D02*
X000865Y021546D01*
X000865Y021645D02*
X002825Y021645D01*
X003486Y021645D02*
X005325Y021645D01*
X005327Y021647D02*
X005163Y021484D01*
X005075Y021270D01*
X005075Y021040D01*
X005163Y020827D01*
X005327Y020663D01*
X005540Y020575D01*
X005770Y020575D01*
X005984Y020663D01*
X006147Y020827D01*
X006235Y021040D01*
X006235Y021270D01*
X006147Y021484D01*
X005984Y021647D01*
X005770Y021735D01*
X005540Y021735D01*
X005327Y021647D01*
X005226Y021546D02*
X003584Y021546D01*
X003662Y021448D02*
X005149Y021448D01*
X005108Y021349D02*
X003702Y021349D01*
X003735Y021251D02*
X005075Y021251D01*
X005075Y021152D02*
X003735Y021152D01*
X003735Y021054D02*
X005075Y021054D01*
X005110Y020955D02*
X003700Y020955D01*
X003659Y020856D02*
X005151Y020856D01*
X005232Y020758D02*
X003578Y020758D01*
X003474Y020659D02*
X005336Y020659D01*
X005974Y020659D02*
X009498Y020659D01*
X009533Y020648D02*
X009614Y020635D01*
X009616Y020635D01*
X009616Y021116D01*
X009694Y021116D01*
X009694Y020635D01*
X009696Y020635D01*
X009777Y020648D01*
X009855Y020673D01*
X009928Y020710D01*
X009994Y020758D01*
X010052Y020816D01*
X010100Y020883D01*
X010137Y020955D01*
X010421Y020955D01*
X010385Y020856D02*
X010081Y020856D01*
X010137Y020955D02*
X010162Y021033D01*
X010175Y021114D01*
X010175Y021116D01*
X009694Y021116D01*
X009694Y021194D01*
X010175Y021194D01*
X010175Y021196D01*
X010162Y021277D01*
X010137Y021355D01*
X010100Y021428D01*
X010052Y021494D01*
X009994Y021552D01*
X009928Y021600D01*
X009855Y021637D01*
X009777Y021662D01*
X009696Y021675D01*
X009694Y021675D01*
X009694Y021194D01*
X009616Y021194D01*
X009616Y021116D01*
X009135Y021116D01*
X009135Y021114D01*
X009148Y021033D01*
X009173Y020955D01*
X006200Y020955D01*
X006235Y021054D02*
X009145Y021054D01*
X009173Y020955D02*
X009210Y020883D01*
X009258Y020816D01*
X009316Y020758D01*
X009383Y020710D01*
X009455Y020673D01*
X009533Y020648D01*
X009616Y020659D02*
X009694Y020659D01*
X009694Y020758D02*
X009616Y020758D01*
X009616Y020856D02*
X009694Y020856D01*
X009694Y020955D02*
X009616Y020955D01*
X009616Y021054D02*
X009694Y021054D01*
X009694Y021152D02*
X010610Y021152D01*
X010512Y021054D02*
X010165Y021054D01*
X010166Y021251D02*
X010709Y021251D01*
X010807Y021349D02*
X010139Y021349D01*
X010085Y021448D02*
X010906Y021448D01*
X011004Y021546D02*
X009999Y021546D01*
X009831Y021645D02*
X011103Y021645D01*
X011202Y021743D02*
X009381Y021743D01*
X009361Y021735D02*
X009555Y021816D01*
X009704Y021965D01*
X009785Y022160D01*
X009785Y022371D01*
X009704Y022565D01*
X009555Y022714D01*
X009361Y022795D01*
X008510Y022795D01*
X008315Y022714D01*
X008166Y022565D01*
X008085Y022371D01*
X008085Y022160D01*
X008166Y021965D01*
X008315Y021816D01*
X008510Y021735D01*
X009361Y021735D01*
X009455Y021637D02*
X009383Y021600D01*
X009316Y021552D01*
X009258Y021494D01*
X009210Y021428D01*
X009173Y021355D01*
X009148Y021277D01*
X009135Y021196D01*
X009135Y021194D01*
X009616Y021194D01*
X009616Y021675D01*
X009614Y021675D01*
X009533Y021662D01*
X009455Y021637D01*
X009480Y021645D02*
X005986Y021645D01*
X005950Y021735D02*
X005755Y021816D01*
X005606Y021965D01*
X005525Y022160D01*
X005525Y022371D01*
X005606Y022565D01*
X005755Y022714D01*
X005950Y022795D01*
X006801Y022795D01*
X006995Y022714D01*
X007144Y022565D01*
X007225Y022371D01*
X007225Y022160D01*
X007144Y021965D01*
X006995Y021816D01*
X006801Y021735D01*
X005950Y021735D01*
X005930Y021743D02*
X000865Y021743D01*
X000865Y021842D02*
X005729Y021842D01*
X005630Y021940D02*
X000865Y021940D01*
X000865Y022039D02*
X005575Y022039D01*
X005534Y022138D02*
X004304Y022138D01*
X004262Y022120D02*
X004458Y022202D01*
X004609Y022352D01*
X004690Y022549D01*
X004690Y022762D01*
X004609Y022958D01*
X004458Y023109D01*
X004346Y023155D01*
X004458Y023202D01*
X004609Y023352D01*
X004690Y023549D01*
X004690Y023762D01*
X004609Y023958D01*
X004458Y024109D01*
X004262Y024190D01*
X004049Y024190D01*
X003852Y024109D01*
X003702Y023958D01*
X003620Y023762D01*
X003620Y023549D01*
X003702Y023352D01*
X003852Y023202D01*
X003964Y023155D01*
X003852Y023109D01*
X003702Y022958D01*
X003620Y022762D01*
X003620Y022549D01*
X003702Y022352D01*
X003852Y022202D01*
X004049Y022120D01*
X004262Y022120D01*
X004007Y022138D02*
X000865Y022138D01*
X000865Y022236D02*
X001815Y022236D01*
X001658Y022293D02*
X001982Y022175D01*
X002105Y022175D01*
X002105Y022175D01*
X002130Y022175D01*
X002155Y022175D01*
X002205Y022175D01*
X002328Y022175D01*
X002653Y022293D01*
X002917Y022515D01*
X002917Y022515D01*
X002917Y022516D02*
X003090Y022815D01*
X003150Y023155D01*
X003150Y023155D01*
X003090Y023495D01*
X003090Y023495D01*
X002917Y023795D01*
X002653Y024017D01*
X002653Y024017D01*
X002328Y024135D01*
X002328Y024135D01*
X002205Y024135D01*
X002155Y024135D01*
X002154Y024135D01*
X002105Y024135D01*
X001982Y024135D01*
X001658Y024017D01*
X001658Y024017D01*
X001393Y023795D01*
X001393Y023795D01*
X001220Y023495D01*
X001160Y023155D01*
X001220Y022815D01*
X001220Y022815D01*
X001393Y022516D01*
X001393Y022515D01*
X001658Y022293D01*
X001658Y022293D01*
X001608Y022335D02*
X000865Y022335D01*
X000865Y022433D02*
X001491Y022433D01*
X001383Y022532D02*
X000865Y022532D01*
X000865Y022630D02*
X001327Y022630D01*
X001270Y022729D02*
X000865Y022729D01*
X000865Y022827D02*
X001218Y022827D01*
X001200Y022926D02*
X000865Y022926D01*
X000865Y023024D02*
X001183Y023024D01*
X001166Y023123D02*
X000865Y023123D01*
X000865Y023222D02*
X001172Y023222D01*
X001160Y023155D02*
X001160Y023155D01*
X001189Y023320D02*
X000865Y023320D01*
X000865Y023419D02*
X001207Y023419D01*
X001220Y023495D02*
X001220Y023495D01*
X001233Y023517D02*
X000865Y023517D01*
X000865Y023616D02*
X001290Y023616D01*
X001346Y023714D02*
X000865Y023714D01*
X000865Y023813D02*
X001414Y023813D01*
X001393Y023795D02*
X001393Y023795D01*
X001532Y023911D02*
X000865Y023911D01*
X000865Y024010D02*
X001649Y024010D01*
X001909Y024108D02*
X000865Y024108D01*
X000865Y024207D02*
X005549Y024207D01*
X005525Y024108D02*
X004458Y024108D01*
X004557Y024010D02*
X005525Y024010D01*
X005537Y023911D02*
X004628Y023911D01*
X004669Y023813D02*
X005578Y023813D01*
X005636Y023714D02*
X004690Y023714D01*
X004690Y023616D02*
X005735Y023616D01*
X005945Y023517D02*
X004677Y023517D01*
X004636Y023419D02*
X012877Y023419D01*
X012975Y023517D02*
X009365Y023517D01*
X009575Y023616D02*
X013074Y023616D01*
X013172Y023714D02*
X009674Y023714D01*
X009733Y023813D02*
X021414Y023813D01*
X021393Y023795D02*
X021393Y023795D01*
X021532Y023911D02*
X009773Y023911D01*
X009785Y024010D02*
X021649Y024010D01*
X021909Y024108D02*
X009785Y024108D01*
X009762Y024207D02*
X024237Y024207D01*
X024257Y024306D02*
X009721Y024306D01*
X009646Y024404D02*
X024298Y024404D01*
X025212Y024404D02*
X030465Y024404D01*
X027315Y024207D02*
X026325Y024207D01*
X026515Y024108D02*
X027217Y024108D01*
X027136Y024010D02*
X026614Y024010D01*
X026671Y023911D02*
X027095Y023911D01*
X027054Y023813D02*
X026712Y023813D01*
X026730Y023714D02*
X027045Y023714D01*
X027045Y023616D02*
X026754Y023616D01*
X026853Y023517D02*
X027046Y023517D01*
X027087Y023419D02*
X026951Y023419D01*
X027050Y023320D02*
X027128Y023320D01*
X027148Y023222D02*
X027197Y023222D01*
X027247Y023123D02*
X027296Y023123D01*
X025887Y023123D02*
X025275Y023123D01*
X025275Y023222D02*
X025775Y023222D01*
X025677Y023320D02*
X025258Y023320D01*
X025217Y023419D02*
X025631Y023419D01*
X025590Y023517D02*
X025170Y023517D01*
X025071Y023616D02*
X025580Y023616D01*
X025580Y023714D02*
X025033Y023714D01*
X025148Y023813D02*
X025598Y023813D01*
X025639Y023911D02*
X025214Y023911D01*
X025255Y024010D02*
X025697Y024010D01*
X025768Y023024D02*
X025272Y023024D01*
X025231Y022926D02*
X025688Y022926D01*
X025647Y022827D02*
X025190Y022827D01*
X025106Y022729D02*
X025620Y022729D01*
X025620Y022630D02*
X025100Y022630D01*
X025199Y022532D02*
X025627Y022532D01*
X025668Y022433D02*
X025268Y022433D01*
X025309Y022335D02*
X025719Y022335D01*
X025818Y022236D02*
X025335Y022236D01*
X025335Y022138D02*
X025824Y022138D01*
X025726Y022039D02*
X025335Y022039D01*
X025294Y021940D02*
X025651Y021940D01*
X025610Y021842D02*
X025253Y021842D01*
X025164Y021743D02*
X025580Y021743D01*
X025580Y021645D02*
X025039Y021645D01*
X025084Y021546D02*
X025580Y021546D01*
X025619Y021448D02*
X025162Y021448D01*
X025202Y021349D02*
X025659Y021349D01*
X025746Y021251D02*
X025235Y021251D01*
X025235Y021152D02*
X025867Y021152D01*
X025797Y021054D02*
X025235Y021054D01*
X025200Y020955D02*
X025700Y020955D01*
X025659Y020856D02*
X025159Y020856D01*
X025078Y020758D02*
X025620Y020758D01*
X025620Y020659D02*
X025053Y020659D01*
X025170Y020561D02*
X025620Y020561D01*
X025656Y020462D02*
X025256Y020462D01*
X025296Y020364D02*
X025697Y020364D01*
X025788Y020265D02*
X025335Y020265D01*
X025335Y020167D02*
X025936Y020167D01*
X025968Y020068D02*
X025335Y020068D01*
X025306Y019970D02*
X025870Y019970D01*
X025771Y019871D02*
X025265Y019871D01*
X025193Y019773D02*
X025673Y019773D01*
X025574Y019674D02*
X025094Y019674D01*
X025055Y019575D02*
X025476Y019575D01*
X025377Y019477D02*
X025150Y019477D01*
X025190Y019378D02*
X025279Y019378D01*
X024325Y021645D02*
X024287Y021645D01*
X024347Y021743D02*
X024189Y021743D01*
X024257Y021842D02*
X024090Y021842D01*
X023992Y021940D02*
X024216Y021940D01*
X024175Y022039D02*
X023893Y022039D01*
X018869Y021842D02*
X018441Y021842D01*
X018540Y021743D02*
X018770Y021743D01*
X018712Y021645D02*
X018599Y021645D01*
X018639Y021546D02*
X018671Y021546D01*
X018665Y021448D02*
X018645Y021448D01*
X018645Y021349D02*
X018665Y021349D01*
X018665Y021251D02*
X018645Y021251D01*
X018645Y021152D02*
X018665Y021152D01*
X018665Y021054D02*
X018645Y021054D01*
X018645Y020955D02*
X018665Y020955D01*
X018665Y020856D02*
X018645Y020856D01*
X018637Y020758D02*
X018673Y020758D01*
X018714Y020659D02*
X018596Y020659D01*
X018534Y020561D02*
X018776Y020561D01*
X018875Y020462D02*
X018435Y020462D01*
X017875Y020462D02*
X017492Y020462D01*
X017590Y020561D02*
X017776Y020561D01*
X017714Y020659D02*
X017639Y020659D01*
X017642Y021645D02*
X017712Y021645D01*
X017770Y021743D02*
X017596Y021743D01*
X017498Y021842D02*
X017869Y021842D01*
X015770Y021743D02*
X015455Y021743D01*
X015531Y021645D02*
X015712Y021645D01*
X015671Y021546D02*
X015571Y021546D01*
X015585Y021448D02*
X015665Y021448D01*
X015665Y021349D02*
X015585Y021349D01*
X015585Y021251D02*
X015665Y021251D01*
X015185Y021251D02*
X015125Y021251D01*
X015125Y021349D02*
X015185Y021349D01*
X015185Y021448D02*
X015125Y021448D01*
X015125Y021546D02*
X015185Y021546D01*
X015185Y021645D02*
X015125Y021645D01*
X015125Y021743D02*
X015185Y021743D01*
X015185Y021054D02*
X015125Y021054D01*
X015125Y020955D02*
X015185Y020955D01*
X015185Y020856D02*
X015125Y020856D01*
X015125Y020758D02*
X015185Y020758D01*
X015185Y020659D02*
X015125Y020659D01*
X015125Y020561D02*
X015185Y020561D01*
X014861Y020561D02*
X010925Y020561D01*
X010925Y020659D02*
X014782Y020659D01*
X013136Y021152D02*
X011374Y021152D01*
X011275Y021054D02*
X012680Y021054D01*
X012680Y020955D02*
X011177Y020955D01*
X011078Y020856D02*
X012680Y020856D01*
X012699Y020758D02*
X010980Y020758D01*
X010385Y020758D02*
X009993Y020758D01*
X009812Y020659D02*
X010385Y020659D01*
X010385Y020561D02*
X003570Y020561D01*
X003656Y020462D02*
X010385Y020462D01*
X010385Y020364D02*
X003696Y020364D01*
X003747Y020265D02*
X010385Y020265D01*
X010385Y020167D02*
X003845Y020167D01*
X003764Y020248D02*
X003764Y020248D01*
X003944Y020068D02*
X010385Y020068D01*
X010385Y019970D02*
X004042Y019970D01*
X004141Y019871D02*
X010385Y019871D01*
X010385Y019773D02*
X004239Y019773D01*
X004338Y019674D02*
X010385Y019674D01*
X010385Y019575D02*
X004437Y019575D01*
X004535Y019477D02*
X010385Y019477D01*
X010385Y019378D02*
X004634Y019378D01*
X004732Y019280D02*
X010385Y019280D01*
X010385Y019181D02*
X004831Y019181D01*
X004929Y019083D02*
X007127Y019083D01*
X007098Y019070D02*
X006960Y018933D01*
X006885Y018753D01*
X006885Y018558D01*
X006960Y018378D01*
X007098Y018240D01*
X007278Y018165D01*
X008033Y018165D01*
X008213Y018240D01*
X008350Y018378D01*
X008425Y018558D01*
X008425Y018753D01*
X008350Y018933D01*
X008213Y019070D01*
X008033Y019145D01*
X007278Y019145D01*
X007098Y019070D01*
X007011Y018984D02*
X005028Y018984D01*
X005126Y018886D02*
X006940Y018886D01*
X006899Y018787D02*
X005225Y018787D01*
X005323Y018689D02*
X006885Y018689D01*
X006885Y018590D02*
X005422Y018590D01*
X005521Y018491D02*
X006913Y018491D01*
X006953Y018393D02*
X005619Y018393D01*
X005718Y018294D02*
X007043Y018294D01*
X007203Y018196D02*
X005816Y018196D01*
X005915Y018097D02*
X007162Y018097D01*
X007098Y018070D02*
X006960Y017933D01*
X006885Y017753D01*
X006885Y017558D01*
X006960Y017378D01*
X007098Y017240D01*
X007278Y017165D01*
X008033Y017165D01*
X008213Y017240D01*
X008350Y017378D01*
X008425Y017558D01*
X008425Y017753D01*
X008350Y017933D01*
X008213Y018070D01*
X008033Y018145D01*
X007278Y018145D01*
X007098Y018070D01*
X007026Y017999D02*
X006013Y017999D01*
X006112Y017900D02*
X006946Y017900D01*
X006905Y017802D02*
X006210Y017802D01*
X006309Y017703D02*
X006885Y017703D01*
X006885Y017605D02*
X006407Y017605D01*
X006506Y017506D02*
X006906Y017506D01*
X006947Y017407D02*
X006604Y017407D01*
X006703Y017309D02*
X007028Y017309D01*
X007168Y017210D02*
X006802Y017210D01*
X006900Y017112D02*
X007197Y017112D01*
X007040Y017013D02*
X006999Y017013D01*
X008113Y017112D02*
X010197Y017112D01*
X010278Y017145D02*
X010098Y017070D01*
X009960Y016933D01*
X009885Y016753D01*
X009885Y016558D01*
X009960Y016378D01*
X010098Y016240D01*
X010278Y016165D01*
X011033Y016165D01*
X011213Y016240D01*
X011350Y016378D01*
X011425Y016558D01*
X011425Y016753D01*
X011350Y016933D01*
X011213Y017070D01*
X011033Y017145D01*
X010278Y017145D01*
X010168Y017210D02*
X008142Y017210D01*
X008282Y017309D02*
X010028Y017309D01*
X009947Y017407D02*
X008363Y017407D01*
X008404Y017506D02*
X009906Y017506D01*
X009885Y017605D02*
X008425Y017605D01*
X008425Y017703D02*
X009885Y017703D01*
X009905Y017802D02*
X008405Y017802D01*
X008364Y017900D02*
X009946Y017900D01*
X010026Y017999D02*
X008284Y017999D01*
X008148Y018097D02*
X010162Y018097D01*
X010203Y018196D02*
X008107Y018196D01*
X008267Y018294D02*
X010043Y018294D01*
X009953Y018393D02*
X008357Y018393D01*
X008398Y018491D02*
X009913Y018491D01*
X009885Y018590D02*
X008425Y018590D01*
X008425Y018689D02*
X009885Y018689D01*
X009899Y018787D02*
X008411Y018787D01*
X008370Y018886D02*
X009940Y018886D01*
X010011Y018984D02*
X008299Y018984D01*
X008183Y019083D02*
X010127Y019083D01*
X011363Y017407D02*
X014785Y017407D01*
X014785Y017309D02*
X011282Y017309D01*
X011142Y017210D02*
X014785Y017210D01*
X014785Y017112D02*
X013613Y017112D01*
X013533Y017145D02*
X012778Y017145D01*
X012598Y017070D01*
X012460Y016933D01*
X012385Y016753D01*
X012385Y016558D01*
X012460Y016378D01*
X012598Y016240D01*
X012778Y016165D01*
X013533Y016165D01*
X013713Y016240D01*
X013850Y016378D01*
X013925Y016558D01*
X013925Y016753D01*
X013850Y016933D01*
X013713Y017070D01*
X013533Y017145D01*
X013770Y017013D02*
X014785Y017013D01*
X014785Y016915D02*
X013858Y016915D01*
X013899Y016816D02*
X014785Y016816D01*
X014785Y016718D02*
X013925Y016718D01*
X013925Y016619D02*
X014785Y016619D01*
X014785Y016521D02*
X013910Y016521D01*
X013869Y016422D02*
X014785Y016422D01*
X014785Y016324D02*
X013796Y016324D01*
X013677Y016225D02*
X014785Y016225D01*
X014785Y016126D02*
X011078Y016126D01*
X011177Y016225D02*
X012633Y016225D01*
X012514Y016324D02*
X011296Y016324D01*
X011369Y016422D02*
X012441Y016422D01*
X012400Y016521D02*
X011410Y016521D01*
X011425Y016619D02*
X012385Y016619D01*
X012385Y016718D02*
X011425Y016718D01*
X011399Y016816D02*
X012411Y016816D01*
X012452Y016915D02*
X011358Y016915D01*
X011270Y017013D02*
X012540Y017013D01*
X012697Y017112D02*
X011113Y017112D01*
X010040Y017013D02*
X008270Y017013D01*
X008358Y016915D02*
X009952Y016915D01*
X009911Y016816D02*
X008399Y016816D01*
X008425Y016718D02*
X009885Y016718D01*
X009885Y016619D02*
X008425Y016619D01*
X008410Y016521D02*
X009900Y016521D01*
X009941Y016422D02*
X008369Y016422D01*
X008296Y016324D02*
X010014Y016324D01*
X010133Y016225D02*
X008177Y016225D01*
X008078Y016126D02*
X010233Y016126D01*
X010055Y016028D02*
X008255Y016028D01*
X008352Y015929D02*
X009958Y015929D01*
X009918Y015831D02*
X008393Y015831D01*
X008425Y015732D02*
X009885Y015732D01*
X009885Y015634D02*
X008425Y015634D01*
X008416Y015535D02*
X009894Y015535D01*
X009935Y015437D02*
X008375Y015437D01*
X008311Y015338D02*
X009999Y015338D01*
X010098Y015240D02*
X010278Y015165D01*
X011033Y015165D01*
X011213Y015240D01*
X011350Y015378D01*
X011425Y015558D01*
X011416Y015535D02*
X012462Y015535D01*
X012504Y015437D02*
X011375Y015437D01*
X011311Y015338D02*
X012584Y015338D01*
X012763Y015240D02*
X011212Y015240D01*
X011042Y015141D02*
X012768Y015141D01*
X012569Y015042D02*
X011241Y015042D01*
X011339Y014944D02*
X012471Y014944D01*
X012384Y014845D02*
X011387Y014845D01*
X011425Y014747D02*
X012285Y014747D01*
X012186Y014648D02*
X011425Y014648D01*
X011422Y014550D02*
X012088Y014550D01*
X011989Y014451D02*
X011381Y014451D01*
X010268Y015141D02*
X008042Y015141D01*
X008033Y015165D02*
X008213Y015240D01*
X008033Y015165D02*
X007278Y015165D01*
X007098Y015240D01*
X007268Y015141D02*
X000865Y015141D01*
X000865Y015042D02*
X007069Y015042D01*
X006971Y014944D02*
X000865Y014944D01*
X000865Y014845D02*
X006924Y014845D01*
X006885Y014747D02*
X000865Y014747D01*
X000865Y014648D02*
X006885Y014648D01*
X006888Y014550D02*
X000865Y014550D01*
X000865Y014451D02*
X006929Y014451D01*
X006889Y013761D02*
X004223Y013761D01*
X004125Y013663D02*
X006885Y013663D01*
X006885Y013564D02*
X004026Y013564D01*
X003928Y013466D02*
X006923Y013466D01*
X006970Y013367D02*
X003829Y013367D01*
X003730Y013269D02*
X007069Y013269D01*
X007266Y013170D02*
X005810Y013170D01*
X005995Y013072D02*
X007265Y013072D01*
X007085Y012973D02*
X006094Y012973D01*
X006143Y012874D02*
X007004Y012874D01*
X006962Y012776D02*
X006184Y012776D01*
X005501Y013170D02*
X003632Y013170D01*
X003533Y013072D02*
X004426Y013072D01*
X004406Y013061D02*
X004346Y013017D01*
X004293Y012965D01*
X004249Y012904D01*
X004215Y012837D01*
X004192Y012766D01*
X004180Y012692D01*
X004180Y012674D01*
X004636Y012674D01*
X004636Y013130D01*
X004618Y013130D01*
X004544Y013118D01*
X004473Y013095D01*
X004406Y013061D01*
X004301Y012973D02*
X003435Y012973D01*
X003336Y012874D02*
X004234Y012874D01*
X004195Y012776D02*
X003238Y012776D01*
X003293Y012677D02*
X004180Y012677D01*
X004180Y012636D02*
X004180Y012618D01*
X004192Y012544D01*
X004215Y012473D01*
X004249Y012406D01*
X004293Y012346D01*
X004346Y012293D01*
X004406Y012249D01*
X004473Y012215D01*
X004544Y012192D01*
X004618Y012180D01*
X004636Y012180D01*
X004636Y012636D01*
X004180Y012636D01*
X004186Y012579D02*
X003391Y012579D01*
X003439Y012480D02*
X004212Y012480D01*
X004267Y012382D02*
X003465Y012382D01*
X003465Y012283D02*
X004359Y012283D01*
X004275Y012185D02*
X004589Y012185D01*
X004636Y012185D02*
X004674Y012185D01*
X004721Y012185D02*
X005393Y012185D01*
X005270Y012283D02*
X004951Y012283D01*
X005044Y012382D02*
X005189Y012382D01*
X005148Y012480D02*
X005098Y012480D01*
X005115Y012776D02*
X005126Y012776D01*
X005167Y012874D02*
X005076Y012874D01*
X005009Y012973D02*
X005216Y012973D01*
X005315Y013072D02*
X004884Y013072D01*
X004674Y013072D02*
X004636Y013072D01*
X004636Y012973D02*
X004674Y012973D01*
X004674Y012874D02*
X004636Y012874D01*
X004636Y012776D02*
X004674Y012776D01*
X004674Y012677D02*
X004636Y012677D01*
X004636Y012579D02*
X004674Y012579D01*
X004674Y012480D02*
X004636Y012480D01*
X004636Y012382D02*
X004674Y012382D01*
X004674Y012283D02*
X004636Y012283D01*
X004481Y012086D02*
X007135Y012086D01*
X007015Y011988D02*
X004579Y011988D01*
X004637Y011889D02*
X006942Y011889D01*
X006901Y011791D02*
X004678Y011791D01*
X004690Y011692D02*
X006885Y011692D01*
X006885Y011593D02*
X004690Y011593D01*
X004668Y011495D02*
X006911Y011495D01*
X006952Y011396D02*
X004627Y011396D01*
X004554Y011298D02*
X007039Y011298D01*
X005275Y009031D02*
X004535Y009031D01*
X004619Y008933D02*
X005191Y008933D01*
X005150Y008834D02*
X004660Y008834D01*
X004690Y008736D02*
X005120Y008736D01*
X005120Y008637D02*
X004690Y008637D01*
X004686Y008539D02*
X005124Y008539D01*
X005165Y008440D02*
X004645Y008440D01*
X004598Y008341D02*
X005212Y008341D01*
X005311Y008243D02*
X004500Y008243D01*
X004320Y008144D02*
X005490Y008144D01*
X006885Y007750D02*
X003735Y007750D01*
X003735Y007770D02*
X003647Y007984D01*
X003484Y008147D01*
X003270Y008235D01*
X003040Y008235D01*
X002827Y008147D01*
X002663Y007984D01*
X002575Y007770D01*
X002575Y007540D01*
X002663Y007327D01*
X002827Y007163D01*
X003040Y007075D01*
X003270Y007075D01*
X003484Y007163D01*
X003647Y007327D01*
X003735Y007540D01*
X003735Y007770D01*
X003703Y007849D02*
X006925Y007849D01*
X006974Y007947D02*
X003662Y007947D01*
X003585Y008046D02*
X007073Y008046D01*
X006885Y007652D02*
X003735Y007652D01*
X003735Y007553D02*
X006887Y007553D01*
X006928Y007455D02*
X003700Y007455D01*
X003659Y007356D02*
X006981Y007356D01*
X007080Y007258D02*
X003578Y007258D01*
X003473Y007159D02*
X009849Y007159D01*
X009751Y007258D02*
X008230Y007258D01*
X008213Y007070D02*
X008033Y007145D01*
X007278Y007145D01*
X007098Y007070D01*
X006960Y006933D01*
X006885Y006753D01*
X006885Y006558D01*
X006960Y006378D01*
X007098Y006240D01*
X007278Y006165D01*
X008033Y006165D01*
X008213Y006240D01*
X008350Y006378D01*
X008425Y006558D01*
X008425Y006753D01*
X008350Y006933D01*
X008213Y007070D01*
X008223Y007060D02*
X009948Y007060D01*
X009989Y006962D02*
X008321Y006962D01*
X008379Y006863D02*
X009931Y006863D01*
X009890Y006765D02*
X008420Y006765D01*
X008425Y006666D02*
X009885Y006666D01*
X009885Y006568D02*
X008425Y006568D01*
X008388Y006469D02*
X009922Y006469D01*
X009967Y006371D02*
X008344Y006371D01*
X008245Y006272D02*
X010065Y006272D01*
X010108Y006075D02*
X008202Y006075D01*
X008213Y006070D02*
X008033Y006145D01*
X007278Y006145D01*
X007098Y006070D01*
X006960Y005933D01*
X006885Y005753D01*
X006885Y005558D01*
X006960Y005378D01*
X007098Y005240D01*
X007278Y005165D01*
X008033Y005165D01*
X008213Y005240D01*
X008350Y005378D01*
X008425Y005558D01*
X008425Y005753D01*
X008350Y005933D01*
X008213Y006070D01*
X008307Y005976D02*
X010004Y005976D01*
X010257Y006174D02*
X008053Y006174D01*
X008373Y005878D02*
X008904Y005878D01*
X008758Y005779D02*
X008414Y005779D01*
X008425Y005681D02*
X008659Y005681D01*
X008560Y005582D02*
X008425Y005582D01*
X008394Y005484D02*
X008462Y005484D01*
X008363Y005385D02*
X008354Y005385D01*
X008265Y005287D02*
X008260Y005287D01*
X008166Y005188D02*
X008088Y005188D01*
X008536Y004794D02*
X010332Y004794D01*
X010234Y004695D02*
X008437Y004695D01*
X008634Y004892D02*
X010431Y004892D01*
X010529Y004991D02*
X008733Y004991D01*
X008831Y005090D02*
X010628Y005090D01*
X010222Y005188D02*
X008930Y005188D01*
X009028Y005287D02*
X010051Y005287D01*
X010135Y004597D02*
X004283Y004597D01*
X004381Y004498D02*
X010037Y004498D01*
X009938Y004400D02*
X004447Y004400D01*
X004488Y004301D02*
X009839Y004301D01*
X009741Y004203D02*
X004505Y004203D01*
X004505Y004104D02*
X009642Y004104D01*
X009544Y004006D02*
X004487Y004006D01*
X004446Y003907D02*
X009445Y003907D01*
X009347Y003809D02*
X004378Y003809D01*
X004085Y004697D02*
X004156Y004720D01*
X004221Y004753D01*
X004281Y004797D01*
X004334Y004849D01*
X004377Y004909D01*
X004411Y004975D01*
X004434Y005045D01*
X004443Y005105D01*
X003705Y005105D01*
X003705Y004685D01*
X004012Y004685D01*
X004085Y004697D01*
X004077Y004695D02*
X005113Y004695D01*
X005014Y004794D02*
X004278Y004794D01*
X004365Y004892D02*
X004916Y004892D01*
X004817Y004991D02*
X004416Y004991D01*
X004441Y005090D02*
X004719Y005090D01*
X004620Y005188D02*
X003705Y005188D01*
X003705Y005205D02*
X004443Y005205D01*
X004434Y005265D01*
X004411Y005336D01*
X004377Y005401D01*
X004334Y005461D01*
X004281Y005514D01*
X004221Y005557D01*
X004156Y005591D01*
X004085Y005614D01*
X004012Y005625D01*
X003705Y005625D01*
X003705Y005205D01*
X003605Y005205D01*
X003605Y005105D01*
X003705Y005105D01*
X003705Y005205D01*
X003705Y005287D02*
X003605Y005287D01*
X003605Y005205D02*
X003605Y005625D01*
X003298Y005625D01*
X003225Y005614D01*
X003155Y005591D01*
X003089Y005557D01*
X003029Y005514D01*
X002977Y005461D01*
X002933Y005401D01*
X002905Y005346D01*
X002877Y005401D01*
X002834Y005461D01*
X002781Y005514D01*
X002721Y005557D01*
X002656Y005591D01*
X002585Y005614D01*
X002512Y005625D01*
X002205Y005625D01*
X002205Y005205D01*
X002105Y005205D01*
X002105Y005105D01*
X002205Y005105D01*
X002205Y004685D01*
X002512Y004685D01*
X002585Y004697D01*
X002656Y004720D01*
X002721Y004753D01*
X002781Y004797D01*
X002834Y004849D01*
X002877Y004909D01*
X002905Y004964D01*
X002933Y004909D01*
X002977Y004849D01*
X003029Y004797D01*
X003089Y004753D01*
X003155Y004720D01*
X003225Y004697D01*
X003298Y004685D01*
X003605Y004685D01*
X003605Y005105D01*
X002943Y005105D01*
X002205Y005105D01*
X002205Y005205D01*
X002943Y005205D01*
X003605Y005205D01*
X003605Y005188D02*
X002205Y005188D01*
X002205Y005090D02*
X002105Y005090D01*
X002105Y005105D02*
X002105Y004685D01*
X001798Y004685D01*
X001725Y004697D01*
X001655Y004720D01*
X001589Y004753D01*
X001529Y004797D01*
X001477Y004849D01*
X001433Y004909D01*
X001400Y004975D01*
X001377Y005045D01*
X001367Y005105D01*
X002105Y005105D01*
X002105Y005188D02*
X001085Y005188D01*
X001085Y005090D02*
X001370Y005090D01*
X001394Y004991D02*
X001085Y004991D01*
X001085Y004892D02*
X001445Y004892D01*
X001533Y004794D02*
X001085Y004794D01*
X001085Y004695D02*
X001733Y004695D01*
X001527Y004597D02*
X001085Y004597D01*
X001085Y004498D02*
X001429Y004498D01*
X001363Y004400D02*
X001085Y004400D01*
X001085Y004301D02*
X001322Y004301D01*
X001305Y004203D02*
X001085Y004203D01*
X001085Y004104D02*
X001305Y004104D01*
X001323Y004006D02*
X001126Y004006D01*
X001225Y003907D02*
X001364Y003907D01*
X001324Y003809D02*
X001432Y003809D01*
X001422Y003710D02*
X001531Y003710D01*
X001521Y003611D02*
X002277Y003611D01*
X002376Y003513D02*
X001619Y003513D01*
X001899Y003414D02*
X002474Y003414D01*
X002573Y003316D02*
X002014Y003316D01*
X002072Y003217D02*
X002671Y003217D01*
X002770Y003119D02*
X002373Y003119D01*
X003129Y002035D02*
X011684Y002035D01*
X011673Y002055D02*
X011710Y001983D01*
X011758Y001916D01*
X011816Y001858D01*
X011883Y001810D01*
X011955Y001773D01*
X012033Y001748D01*
X012114Y001735D01*
X012116Y001735D01*
X012116Y002216D01*
X012116Y002294D01*
X011635Y002294D01*
X011635Y002296D01*
X011648Y002377D01*
X011673Y002455D01*
X011710Y002528D01*
X011758Y002594D01*
X011816Y002652D01*
X011883Y002700D01*
X011955Y002737D01*
X012033Y002762D01*
X012114Y002775D01*
X012116Y002775D01*
X012116Y002294D01*
X012194Y002294D01*
X012194Y002775D01*
X012196Y002775D01*
X012277Y002762D01*
X012355Y002737D01*
X012428Y002700D01*
X012494Y002652D01*
X012552Y002594D01*
X012600Y002528D01*
X012637Y002455D01*
X012662Y002377D01*
X012675Y002296D01*
X012675Y002294D01*
X012194Y002294D01*
X012194Y002216D01*
X012675Y002216D01*
X012675Y002214D01*
X012662Y002133D01*
X018517Y002133D01*
X018322Y002232D02*
X012194Y002232D01*
X012116Y002232D02*
X007988Y002232D01*
X008087Y002330D02*
X011641Y002330D01*
X011665Y002429D02*
X008140Y002429D01*
X008181Y002527D02*
X011710Y002527D01*
X011791Y002626D02*
X008190Y002626D01*
X008190Y002725D02*
X011931Y002725D01*
X012116Y002725D02*
X012194Y002725D01*
X012194Y002626D02*
X012116Y002626D01*
X012116Y002527D02*
X012194Y002527D01*
X012194Y002429D02*
X012116Y002429D01*
X012116Y002330D02*
X012194Y002330D01*
X012194Y002133D02*
X012116Y002133D01*
X012116Y002035D02*
X012194Y002035D01*
X012194Y001936D02*
X012116Y001936D01*
X012116Y001838D02*
X012194Y001838D01*
X012194Y001739D02*
X012116Y001739D01*
X012089Y001739D02*
X003046Y001739D01*
X003094Y001838D02*
X011845Y001838D01*
X011744Y001936D02*
X003112Y001936D01*
X002990Y001641D02*
X021321Y001641D01*
X021264Y001739D02*
X012221Y001739D01*
X012465Y001838D02*
X021216Y001838D01*
X021199Y001936D02*
X012566Y001936D01*
X012637Y002055D02*
X012662Y002133D01*
X012670Y002330D02*
X018223Y002330D01*
X018170Y002429D02*
X012645Y002429D01*
X012600Y002527D02*
X018129Y002527D01*
X018120Y002626D02*
X015276Y002626D01*
X015481Y002725D02*
X018120Y002725D01*
X018146Y002823D02*
X015580Y002823D01*
X015637Y002922D02*
X018186Y002922D01*
X018264Y003020D02*
X015678Y003020D01*
X015690Y003119D02*
X018376Y003119D01*
X018934Y003119D02*
X019117Y003119D01*
X019080Y003020D02*
X019047Y003020D01*
X019249Y003217D02*
X015690Y003217D01*
X015572Y003710D02*
X015600Y003738D01*
X015620Y003772D01*
X015630Y003810D01*
X015630Y004136D01*
X015174Y004136D01*
X015174Y004174D01*
X015136Y004174D01*
X015136Y004136D01*
X014680Y004136D01*
X014680Y003810D01*
X014690Y003772D01*
X014710Y003738D01*
X014738Y003710D01*
X014772Y003690D01*
X014810Y003680D01*
X015025Y003680D01*
X014852Y003609D01*
X014702Y003458D01*
X014620Y003262D01*
X014643Y003316D02*
X009618Y003316D01*
X009716Y003414D02*
X014683Y003414D01*
X014756Y003513D02*
X009815Y003513D01*
X009913Y003611D02*
X014859Y003611D01*
X014738Y003710D02*
X010012Y003710D01*
X010110Y003809D02*
X014681Y003809D01*
X014680Y003907D02*
X010209Y003907D01*
X010307Y004006D02*
X014680Y004006D01*
X014680Y004104D02*
X010406Y004104D01*
X010504Y004203D02*
X014680Y004203D01*
X014680Y004174D02*
X014680Y004500D01*
X014690Y004538D01*
X014710Y004572D01*
X014738Y004600D01*
X014772Y004620D01*
X014810Y004630D01*
X015136Y004630D01*
X015136Y004174D01*
X014680Y004174D01*
X014680Y004301D02*
X010603Y004301D01*
X010702Y004400D02*
X014680Y004400D01*
X014680Y004498D02*
X010800Y004498D01*
X010899Y004597D02*
X014735Y004597D01*
X015136Y004597D02*
X015174Y004597D01*
X015174Y004630D02*
X015174Y004174D01*
X015630Y004174D01*
X015630Y004500D01*
X015620Y004538D01*
X015600Y004572D01*
X015572Y004600D01*
X015538Y004620D01*
X015500Y004630D01*
X015174Y004630D01*
X015174Y004498D02*
X015136Y004498D01*
X015136Y004400D02*
X015174Y004400D01*
X015174Y004301D02*
X015136Y004301D01*
X015136Y004203D02*
X015174Y004203D01*
X015630Y004203D02*
X020326Y004203D01*
X020227Y004301D02*
X015630Y004301D01*
X015630Y004400D02*
X016522Y004400D01*
X016558Y004385D02*
X016378Y004460D01*
X016240Y004598D01*
X016165Y004778D01*
X016165Y005533D01*
X016240Y005713D01*
X016378Y005850D01*
X016558Y005925D01*
X016753Y005925D01*
X016933Y005850D01*
X017070Y005713D01*
X017145Y005533D01*
X017145Y004778D01*
X017070Y004598D01*
X016933Y004460D01*
X016753Y004385D01*
X016558Y004385D01*
X016788Y004400D02*
X017522Y004400D01*
X017339Y004498D02*
X016971Y004498D01*
X017070Y004597D02*
X017240Y004597D01*
X017199Y004695D02*
X017111Y004695D01*
X017145Y004794D02*
X017165Y004794D01*
X017165Y004892D02*
X017145Y004892D01*
X017145Y004991D02*
X017165Y004991D01*
X017165Y005090D02*
X017145Y005090D01*
X017145Y005188D02*
X017165Y005188D01*
X017165Y005287D02*
X017145Y005287D01*
X017145Y005385D02*
X017165Y005385D01*
X017165Y005484D02*
X017145Y005484D01*
X017124Y005582D02*
X017186Y005582D01*
X017227Y005681D02*
X017084Y005681D01*
X017004Y005779D02*
X017306Y005779D01*
X017444Y005878D02*
X016866Y005878D01*
X016444Y005878D02*
X016119Y005878D01*
X016036Y005779D02*
X016306Y005779D01*
X016227Y005681D02*
X015908Y005681D01*
X016186Y005582D02*
X013164Y005582D01*
X013066Y005484D02*
X016165Y005484D01*
X016165Y005385D02*
X012967Y005385D01*
X012868Y005287D02*
X016165Y005287D01*
X016165Y005188D02*
X012770Y005188D01*
X012499Y005681D02*
X012331Y005681D01*
X012500Y005779D02*
X012598Y005779D01*
X012598Y005878D02*
X012696Y005878D01*
X012667Y005976D02*
X012795Y005976D01*
X012708Y006075D02*
X012893Y006075D01*
X012992Y006174D02*
X012735Y006174D01*
X012735Y006272D02*
X013090Y006272D01*
X013189Y006371D02*
X012735Y006371D01*
X012694Y006469D02*
X013287Y006469D01*
X013386Y006568D02*
X012653Y006568D01*
X012564Y006666D02*
X013484Y006666D01*
X013583Y006765D02*
X012440Y006765D01*
X012189Y006863D02*
X013682Y006863D01*
X013780Y006962D02*
X012090Y006962D01*
X012045Y007060D02*
X013879Y007060D01*
X013977Y007159D02*
X012338Y007159D01*
X012477Y007258D02*
X014076Y007258D01*
X014174Y007356D02*
X013818Y007356D01*
X013916Y007455D02*
X014273Y007455D01*
X014371Y007553D02*
X014015Y007553D01*
X014114Y007652D02*
X014470Y007652D01*
X014568Y007750D02*
X014212Y007750D01*
X014311Y007849D02*
X014667Y007849D01*
X014766Y007947D02*
X014409Y007947D01*
X014508Y008046D02*
X014864Y008046D01*
X014963Y008144D02*
X014606Y008144D01*
X014705Y008243D02*
X015061Y008243D01*
X015160Y008341D02*
X014803Y008341D01*
X014902Y008440D02*
X015258Y008440D01*
X014729Y009031D02*
X013945Y009031D01*
X014041Y008933D02*
X014631Y008933D01*
X014532Y008834D02*
X014096Y008834D01*
X014123Y008736D02*
X014434Y008736D01*
X013763Y009375D02*
X013803Y009430D01*
X013763Y009375D02*
X013715Y009327D01*
X013845Y009524D02*
X014785Y009524D01*
X014785Y009623D02*
X013865Y009623D01*
X013860Y009721D02*
X014785Y009721D01*
X013834Y009820D02*
X013803Y009880D01*
X013763Y009935D01*
X013185Y009918D02*
X013125Y009918D01*
X013125Y009820D02*
X013185Y009820D01*
X013185Y009721D02*
X013125Y009721D01*
X013125Y009623D02*
X013185Y009623D01*
X013185Y009524D02*
X013125Y009524D01*
X013125Y009425D02*
X013185Y009425D01*
X013185Y009327D02*
X013125Y009327D01*
X013125Y009228D02*
X013185Y009228D01*
X013636Y009031D02*
X013674Y009031D01*
X013674Y008933D02*
X013636Y008933D01*
X013636Y008834D02*
X013674Y008834D01*
X013674Y008736D02*
X013636Y008736D01*
X013646Y007947D02*
X012045Y007947D01*
X011505Y007947D02*
X011336Y007947D01*
X011385Y007849D02*
X011505Y007849D01*
X011505Y007750D02*
X011425Y007750D01*
X011425Y007652D02*
X011505Y007652D01*
X011505Y007553D02*
X011423Y007553D01*
X011382Y007455D02*
X011505Y007455D01*
X011505Y007356D02*
X011329Y007356D01*
X011314Y007258D02*
X011505Y007258D01*
X011505Y007159D02*
X011413Y007159D01*
X011505Y008046D02*
X011237Y008046D01*
X011216Y008243D02*
X011505Y008243D01*
X011505Y008341D02*
X011314Y008341D01*
X011376Y008440D02*
X011505Y008440D01*
X011505Y008539D02*
X011417Y008539D01*
X011425Y008637D02*
X011505Y008637D01*
X011505Y008736D02*
X011425Y008736D01*
X011391Y008834D02*
X011505Y008834D01*
X011505Y008144D02*
X011034Y008144D01*
X012441Y007849D02*
X013547Y007849D01*
X014544Y006962D02*
X015220Y006962D01*
X015189Y007060D02*
X014642Y007060D01*
X014445Y006863D02*
X015280Y006863D01*
X015384Y006765D02*
X014347Y006765D01*
X014248Y006666D02*
X015491Y006666D01*
X015311Y006568D02*
X014150Y006568D01*
X014051Y006469D02*
X015213Y006469D01*
X015165Y006371D02*
X013952Y006371D01*
X013854Y006272D02*
X015125Y006272D01*
X015120Y006174D02*
X013755Y006174D01*
X013657Y006075D02*
X015120Y006075D01*
X015150Y005976D02*
X013558Y005976D01*
X013460Y005878D02*
X015191Y005878D01*
X015274Y005779D02*
X013361Y005779D01*
X013263Y005681D02*
X015402Y005681D01*
X016165Y005090D02*
X011391Y005090D01*
X011490Y005188D02*
X012060Y005188D01*
X011962Y005287D02*
X011588Y005287D01*
X011638Y005385D02*
X011863Y005385D01*
X011765Y005484D02*
X011645Y005484D01*
X011645Y005582D02*
X011666Y005582D01*
X011293Y004991D02*
X016165Y004991D01*
X016165Y004892D02*
X011194Y004892D01*
X011096Y004794D02*
X016165Y004794D01*
X016199Y004695D02*
X010997Y004695D01*
X012379Y002725D02*
X014829Y002725D01*
X014731Y002823D02*
X008165Y002823D01*
X008124Y002922D02*
X014673Y002922D01*
X014632Y003020D02*
X008047Y003020D01*
X007934Y003119D02*
X014620Y003119D01*
X015034Y002626D02*
X012520Y002626D01*
X011648Y002133D02*
X011673Y002055D01*
X015575Y004597D02*
X016240Y004597D01*
X016339Y004498D02*
X015630Y004498D01*
X015630Y004104D02*
X020424Y004104D01*
X020523Y004006D02*
X015630Y004006D01*
X015630Y003907D02*
X020621Y003907D01*
X020720Y003809D02*
X015630Y003809D01*
X017788Y004400D02*
X018418Y004400D01*
X018282Y004498D02*
X017971Y004498D01*
X018070Y004597D02*
X018197Y004597D01*
X018156Y004695D02*
X018111Y004695D01*
X018892Y004400D02*
X019522Y004400D01*
X019339Y004498D02*
X019028Y004498D01*
X019114Y004597D02*
X019240Y004597D01*
X019199Y004695D02*
X019154Y004695D01*
X019788Y004400D02*
X020129Y004400D01*
X020030Y004498D02*
X019971Y004498D01*
X018142Y005582D02*
X018124Y005582D01*
X018084Y005681D02*
X018183Y005681D01*
X018250Y005779D02*
X018004Y005779D01*
X017866Y005878D02*
X018348Y005878D01*
X018523Y007356D02*
X016086Y007356D01*
X016120Y007258D02*
X019395Y007258D01*
X019395Y007356D02*
X018787Y007356D01*
X018984Y007455D02*
X019390Y007455D01*
X019284Y007553D02*
X019083Y007553D01*
X019136Y007652D02*
X019217Y007652D01*
X018326Y007455D02*
X017920Y007455D01*
X018026Y007553D02*
X018228Y007553D01*
X018174Y007652D02*
X018093Y007652D01*
X017390Y007455D02*
X016749Y007455D01*
X016685Y007455D02*
X016625Y007455D01*
X016561Y007455D02*
X016025Y007455D01*
X015915Y007553D02*
X016369Y007553D01*
X016625Y007553D02*
X016685Y007553D01*
X016685Y007652D02*
X016625Y007652D01*
X016625Y007750D02*
X016685Y007750D01*
X016685Y007849D02*
X016625Y007849D01*
X016625Y007947D02*
X016685Y007947D01*
X016685Y008046D02*
X016625Y008046D01*
X016625Y008243D02*
X016685Y008243D01*
X016685Y008341D02*
X016625Y008341D01*
X016625Y008440D02*
X016685Y008440D01*
X016685Y008539D02*
X016625Y008539D01*
X016625Y008637D02*
X016685Y008637D01*
X016685Y008736D02*
X016625Y008736D01*
X016625Y008834D02*
X016685Y008834D01*
X016925Y009623D02*
X017047Y009623D01*
X016925Y009721D02*
X017265Y009721D01*
X017265Y009623D02*
X017223Y009623D01*
X017265Y009820D02*
X016897Y009820D01*
X016856Y009918D02*
X017265Y009918D01*
X017265Y010017D02*
X016766Y010017D01*
X016605Y010115D02*
X017265Y010115D01*
X017265Y010214D02*
X016650Y010214D01*
X016785Y010312D02*
X017265Y010312D01*
X017265Y010411D02*
X016864Y010411D01*
X016905Y010509D02*
X017265Y010509D01*
X017265Y010608D02*
X016925Y010608D01*
X016925Y010707D02*
X017265Y010707D01*
X017265Y010805D02*
X016903Y010805D01*
X016863Y010904D02*
X017265Y010904D01*
X017265Y011002D02*
X016781Y011002D01*
X016640Y011101D02*
X017265Y011101D01*
X017265Y011199D02*
X016615Y011199D01*
X016771Y011298D02*
X017265Y011298D01*
X017265Y011396D02*
X016858Y011396D01*
X016899Y011495D02*
X017265Y011495D01*
X017265Y011593D02*
X016925Y011593D01*
X016925Y011692D02*
X017265Y011692D01*
X017265Y011791D02*
X016909Y011791D01*
X016869Y011889D02*
X017265Y011889D01*
X017265Y011988D02*
X016796Y011988D01*
X016675Y012086D02*
X017265Y012086D01*
X017265Y012185D02*
X016580Y012185D01*
X016756Y012283D02*
X017265Y012283D01*
X017265Y012382D02*
X016852Y012382D01*
X016893Y012480D02*
X017265Y012480D01*
X017230Y012579D02*
X016925Y012579D01*
X016925Y012677D02*
X017131Y012677D01*
X017032Y012776D02*
X016915Y012776D01*
X016934Y012874D02*
X016875Y012874D01*
X016835Y012973D02*
X016810Y012973D01*
X016737Y013072D02*
X016710Y013072D01*
X016638Y013170D02*
X016545Y013170D01*
X017654Y013958D02*
X018010Y013958D01*
X018108Y013860D02*
X017752Y013860D01*
X017851Y013761D02*
X018207Y013761D01*
X018306Y013663D02*
X017949Y013663D01*
X018048Y013564D02*
X018404Y013564D01*
X018503Y013466D02*
X018146Y013466D01*
X018245Y013367D02*
X018601Y013367D01*
X018700Y013269D02*
X018343Y013269D01*
X018442Y013170D02*
X018798Y013170D01*
X018897Y013072D02*
X018540Y013072D01*
X018639Y012973D02*
X018995Y012973D01*
X019094Y012874D02*
X018738Y012874D01*
X018836Y012776D02*
X019192Y012776D01*
X019291Y012677D02*
X018935Y012677D01*
X019033Y012579D02*
X019390Y012579D01*
X019488Y012480D02*
X019132Y012480D01*
X019230Y012382D02*
X019587Y012382D01*
X019685Y012283D02*
X019329Y012283D01*
X019427Y012185D02*
X019784Y012185D01*
X019882Y012086D02*
X019526Y012086D01*
X019624Y011988D02*
X019981Y011988D01*
X020079Y011889D02*
X019723Y011889D01*
X019821Y011791D02*
X020178Y011791D01*
X020276Y011692D02*
X019920Y011692D01*
X020019Y011593D02*
X020375Y011593D01*
X020474Y011495D02*
X020117Y011495D01*
X020216Y011396D02*
X020572Y011396D01*
X020671Y011298D02*
X020314Y011298D01*
X020413Y011199D02*
X020769Y011199D01*
X020868Y011101D02*
X020511Y011101D01*
X020610Y011002D02*
X020966Y011002D01*
X021065Y010904D02*
X020708Y010904D01*
X020807Y010805D02*
X021163Y010805D01*
X021262Y010707D02*
X020905Y010707D01*
X021004Y010608D02*
X021285Y010608D01*
X021312Y010509D02*
X021103Y010509D01*
X021201Y010411D02*
X021359Y010411D01*
X021300Y010312D02*
X021458Y010312D01*
X021432Y010214D02*
X021398Y010214D01*
X021801Y009820D02*
X023518Y009820D01*
X023616Y009918D02*
X021900Y009918D01*
X021999Y010017D02*
X023275Y010017D01*
X023335Y009992D02*
X023529Y009992D01*
X023710Y010067D01*
X024243Y010601D01*
X024318Y010781D01*
X024318Y010976D01*
X024243Y011156D01*
X024105Y011294D01*
X023925Y011368D01*
X023730Y011368D01*
X023550Y011294D01*
X023017Y010760D01*
X022942Y010580D01*
X022942Y010385D01*
X023017Y010205D01*
X023154Y010067D01*
X023335Y009992D01*
X023588Y010017D02*
X023709Y010017D01*
X023758Y010115D02*
X023786Y010115D01*
X023856Y010214D02*
X023885Y010214D01*
X023955Y010312D02*
X023983Y010312D01*
X024054Y010411D02*
X024082Y010411D01*
X024152Y010509D02*
X024180Y010509D01*
X024246Y010608D02*
X024310Y010608D01*
X024287Y010707D02*
X024702Y010707D01*
X024761Y010608D02*
X024800Y010608D01*
X024890Y010509D02*
X024899Y010509D01*
X024966Y010411D02*
X024997Y010411D01*
X025025Y010383D02*
X025025Y009807D01*
X024001Y008782D01*
X023933Y008850D01*
X023753Y008925D01*
X023558Y008925D01*
X023378Y008850D01*
X023240Y008713D01*
X023165Y008533D01*
X023165Y007778D01*
X023240Y007598D01*
X023378Y007460D01*
X023558Y007385D01*
X023753Y007385D01*
X023933Y007460D01*
X024070Y007598D01*
X024145Y007778D01*
X024145Y008163D01*
X025524Y009542D01*
X025565Y009641D01*
X025565Y009749D01*
X025565Y010549D01*
X025524Y010648D01*
X025448Y010724D01*
X022425Y013747D01*
X022425Y013857D01*
X022363Y014007D01*
X022247Y014123D01*
X022097Y014185D01*
X021934Y014185D01*
X021783Y014123D01*
X021668Y014007D01*
X021605Y013857D01*
X021605Y013694D01*
X021668Y013543D01*
X021721Y013489D01*
X021609Y013489D01*
X021429Y013415D01*
X020895Y012881D01*
X020821Y012701D01*
X020821Y012506D01*
X020895Y012326D01*
X021033Y012188D01*
X021213Y012114D01*
X021408Y012114D01*
X021588Y012188D01*
X022122Y012722D01*
X022197Y012902D01*
X022197Y013097D01*
X022122Y013277D01*
X022034Y013365D01*
X022043Y013365D01*
X025025Y010383D01*
X025025Y010312D02*
X025007Y010312D01*
X025025Y010214D02*
X025025Y010214D01*
X025025Y010115D02*
X025025Y010115D01*
X025025Y010017D02*
X025001Y010017D01*
X025025Y009918D02*
X024961Y009918D01*
X025025Y009820D02*
X024877Y009820D01*
X024939Y009721D02*
X024778Y009721D01*
X024841Y009623D02*
X024679Y009623D01*
X024742Y009524D02*
X024581Y009524D01*
X024644Y009425D02*
X024482Y009425D01*
X024545Y009327D02*
X024337Y009327D01*
X024447Y009228D02*
X023690Y009228D01*
X023592Y009130D02*
X024348Y009130D01*
X024250Y009031D02*
X023493Y009031D01*
X023395Y008933D02*
X024151Y008933D01*
X024052Y008834D02*
X023949Y008834D01*
X024422Y008440D02*
X025665Y008440D01*
X025624Y008539D02*
X024520Y008539D01*
X024619Y008637D02*
X025620Y008637D01*
X025620Y008736D02*
X024717Y008736D01*
X024816Y008834D02*
X025650Y008834D01*
X025691Y008933D02*
X024915Y008933D01*
X025013Y009031D02*
X025775Y009031D01*
X025903Y009130D02*
X025112Y009130D01*
X025210Y009228D02*
X025769Y009228D01*
X025670Y009327D02*
X025309Y009327D01*
X025407Y009425D02*
X025628Y009425D01*
X025587Y009524D02*
X025506Y009524D01*
X025557Y009623D02*
X025580Y009623D01*
X025580Y009721D02*
X025565Y009721D01*
X025565Y009820D02*
X025601Y009820D01*
X025565Y009918D02*
X025642Y009918D01*
X025704Y010017D02*
X025565Y010017D01*
X025565Y010115D02*
X025802Y010115D01*
X026001Y010214D02*
X025565Y010214D01*
X025565Y010312D02*
X027535Y010312D01*
X027590Y010335D02*
X027340Y010232D01*
X027149Y010040D01*
X027045Y009790D01*
X027045Y009520D01*
X027149Y009270D01*
X027340Y009079D01*
X027590Y008975D01*
X028720Y008975D01*
X028970Y009079D01*
X029162Y009270D01*
X029265Y009520D01*
X029265Y009790D01*
X029162Y010040D01*
X028970Y010232D01*
X028720Y010335D01*
X027590Y010335D01*
X027322Y010214D02*
X026309Y010214D01*
X026508Y010115D02*
X027224Y010115D01*
X027139Y010017D02*
X026607Y010017D01*
X026669Y009918D02*
X027098Y009918D01*
X027057Y009820D02*
X026709Y009820D01*
X026730Y009721D02*
X027045Y009721D01*
X027045Y009623D02*
X026730Y009623D01*
X026723Y009524D02*
X027045Y009524D01*
X027084Y009425D02*
X026682Y009425D01*
X026640Y009327D02*
X027125Y009327D01*
X027190Y009228D02*
X026542Y009228D01*
X026407Y009130D02*
X027289Y009130D01*
X027454Y009031D02*
X026535Y009031D01*
X026619Y008933D02*
X029285Y008933D01*
X029285Y009031D02*
X028856Y009031D01*
X029021Y009130D02*
X029285Y009130D01*
X029285Y009228D02*
X029120Y009228D01*
X029185Y009327D02*
X029285Y009327D01*
X029285Y009425D02*
X029226Y009425D01*
X029265Y009524D02*
X029285Y009524D01*
X029285Y009623D02*
X029265Y009623D01*
X029265Y009721D02*
X029285Y009721D01*
X029285Y009820D02*
X029253Y009820D01*
X029285Y009918D02*
X029212Y009918D01*
X029194Y010017D02*
X029171Y010017D01*
X029095Y010115D02*
X029087Y010115D01*
X028997Y010214D02*
X028988Y010214D01*
X028898Y010312D02*
X028775Y010312D01*
X028799Y010411D02*
X025565Y010411D01*
X025565Y010509D02*
X028701Y010509D01*
X028602Y010608D02*
X025541Y010608D01*
X025465Y010707D02*
X028504Y010707D01*
X028405Y010805D02*
X025367Y010805D01*
X025268Y010904D02*
X028307Y010904D01*
X028208Y011002D02*
X025170Y011002D01*
X025071Y011101D02*
X028110Y011101D01*
X028011Y011199D02*
X024973Y011199D01*
X024874Y011298D02*
X027913Y011298D01*
X027814Y011396D02*
X024776Y011396D01*
X024677Y011495D02*
X027716Y011495D01*
X027617Y011593D02*
X024579Y011593D01*
X024480Y011692D02*
X027518Y011692D01*
X027420Y011791D02*
X024381Y011791D01*
X024283Y011889D02*
X027321Y011889D01*
X027223Y011988D02*
X024184Y011988D01*
X024086Y012086D02*
X026266Y012086D01*
X026122Y012185D02*
X025917Y012185D01*
X026040Y012283D02*
X026080Y012283D01*
X025393Y012185D02*
X023987Y012185D01*
X023889Y012283D02*
X025270Y012283D01*
X025189Y012382D02*
X023790Y012382D01*
X023692Y012480D02*
X025148Y012480D01*
X025120Y012579D02*
X023593Y012579D01*
X023495Y012677D02*
X025120Y012677D01*
X025126Y012776D02*
X023396Y012776D01*
X023298Y012874D02*
X025167Y012874D01*
X025216Y012973D02*
X023199Y012973D01*
X023100Y013072D02*
X025315Y013072D01*
X025501Y013170D02*
X023002Y013170D01*
X022903Y013269D02*
X025702Y013269D01*
X025603Y013367D02*
X022805Y013367D01*
X022706Y013466D02*
X025505Y013466D01*
X025406Y013564D02*
X022608Y013564D01*
X022509Y013663D02*
X025308Y013663D01*
X025209Y013761D02*
X022425Y013761D01*
X022424Y013860D02*
X025110Y013860D01*
X025012Y013958D02*
X022383Y013958D01*
X022313Y014057D02*
X024913Y014057D01*
X024815Y014156D02*
X022168Y014156D01*
X021862Y014156D02*
X021196Y014156D01*
X021277Y014122D02*
X021097Y014197D01*
X020902Y014197D01*
X020722Y014122D01*
X020188Y013588D01*
X020114Y013408D01*
X020114Y013213D01*
X020188Y013033D01*
X020326Y012895D01*
X020506Y012821D01*
X020701Y012821D01*
X020881Y012895D01*
X021415Y013429D01*
X021489Y013609D01*
X021489Y013804D01*
X021415Y013984D01*
X021277Y014122D01*
X021342Y014057D02*
X021717Y014057D01*
X021647Y013958D02*
X021426Y013958D01*
X021466Y013860D02*
X021606Y013860D01*
X021605Y013761D02*
X021489Y013761D01*
X021489Y013663D02*
X021618Y013663D01*
X021659Y013564D02*
X021471Y013564D01*
X021430Y013466D02*
X021552Y013466D01*
X021381Y013367D02*
X021353Y013367D01*
X021283Y013269D02*
X021254Y013269D01*
X021184Y013170D02*
X021156Y013170D01*
X021086Y013072D02*
X021057Y013072D01*
X020987Y012973D02*
X020959Y012973D01*
X020893Y012874D02*
X020831Y012874D01*
X020852Y012776D02*
X019956Y012776D01*
X019858Y012874D02*
X020376Y012874D01*
X020248Y012973D02*
X019759Y012973D01*
X019660Y013072D02*
X020172Y013072D01*
X020131Y013170D02*
X019562Y013170D01*
X019463Y013269D02*
X020114Y013269D01*
X020114Y013367D02*
X019365Y013367D01*
X019266Y013466D02*
X020137Y013466D01*
X020178Y013564D02*
X020082Y013564D01*
X020234Y013663D02*
X020263Y013663D01*
X020333Y013761D02*
X020361Y013761D01*
X020432Y013860D02*
X020460Y013860D01*
X020530Y013958D02*
X020558Y013958D01*
X020629Y014057D02*
X020657Y014057D01*
X020716Y014156D02*
X020803Y014156D01*
X020757Y014254D02*
X024716Y014254D01*
X024618Y014353D02*
X020782Y014353D01*
X020782Y014451D02*
X024519Y014451D01*
X024421Y014550D02*
X020766Y014550D01*
X020726Y014648D02*
X024322Y014648D01*
X024224Y014747D02*
X020652Y014747D01*
X020531Y014845D02*
X024125Y014845D01*
X024026Y014944D02*
X020042Y014944D01*
X020054Y014845D02*
X020001Y014845D01*
X019933Y014747D02*
X019904Y014747D01*
X019834Y014648D02*
X019806Y014648D01*
X019735Y014550D02*
X019707Y014550D01*
X019637Y014451D02*
X019609Y014451D01*
X019538Y014353D02*
X019510Y014353D01*
X019464Y014254D02*
X019333Y014254D01*
X019046Y014254D02*
X018958Y014254D01*
X018869Y014353D02*
X018859Y014353D01*
X018772Y014451D02*
X018761Y014451D01*
X018732Y014550D02*
X018662Y014550D01*
X018699Y014648D02*
X018564Y014648D01*
X018465Y014747D02*
X018699Y014747D01*
X018709Y014845D02*
X018367Y014845D01*
X018380Y014944D02*
X018268Y014944D01*
X018179Y015042D02*
X018170Y015042D01*
X018080Y015141D02*
X018071Y015141D01*
X018032Y015240D02*
X017972Y015240D01*
X017992Y015338D02*
X017874Y015338D01*
X017775Y015437D02*
X017992Y015437D01*
X017995Y015535D02*
X017677Y015535D01*
X017024Y014944D02*
X016839Y014944D01*
X016887Y014845D02*
X017123Y014845D01*
X017222Y014747D02*
X016925Y014747D01*
X016964Y014648D02*
X017320Y014648D01*
X017419Y014550D02*
X017062Y014550D01*
X017161Y014451D02*
X017517Y014451D01*
X017616Y014353D02*
X017259Y014353D01*
X017358Y014254D02*
X017714Y014254D01*
X017813Y014156D02*
X017456Y014156D01*
X017555Y014057D02*
X017911Y014057D01*
X018584Y014944D02*
X018750Y014944D01*
X018786Y015042D02*
X018814Y015042D01*
X018884Y015141D02*
X018912Y015141D01*
X018983Y015240D02*
X019011Y015240D01*
X019081Y015338D02*
X019110Y015338D01*
X019180Y015437D02*
X019208Y015437D01*
X019278Y015535D02*
X019307Y015535D01*
X019328Y015634D02*
X019572Y015634D01*
X019670Y015732D02*
X019368Y015732D01*
X019368Y015831D02*
X019769Y015831D01*
X019868Y015929D02*
X019366Y015929D01*
X019450Y016028D02*
X019966Y016028D01*
X020065Y016126D02*
X019548Y016126D01*
X019647Y016225D02*
X020163Y016225D01*
X020262Y016324D02*
X019745Y016324D01*
X019844Y016422D02*
X020360Y016422D01*
X020459Y016521D02*
X019885Y016521D01*
X019885Y016619D02*
X020557Y016619D01*
X020656Y016718D02*
X019885Y016718D01*
X019885Y016816D02*
X020754Y016816D01*
X020853Y016915D02*
X019885Y016915D01*
X019885Y017013D02*
X020865Y017013D01*
X020865Y017112D02*
X019885Y017112D01*
X019885Y017210D02*
X020865Y017210D01*
X020865Y017309D02*
X019885Y017309D01*
X019885Y017407D02*
X019899Y017407D01*
X020411Y017407D02*
X020865Y017407D01*
X020831Y017506D02*
X020536Y017506D01*
X020617Y017605D02*
X020737Y017605D01*
X020696Y017703D02*
X020657Y017703D01*
X021405Y017407D02*
X021899Y017407D01*
X021775Y017506D02*
X021479Y017506D01*
X021573Y017605D02*
X021693Y017605D01*
X021653Y017703D02*
X021614Y017703D01*
X021405Y017309D02*
X022381Y017309D01*
X022480Y017210D02*
X021405Y017210D01*
X021405Y017112D02*
X022579Y017112D01*
X022677Y017013D02*
X021405Y017013D01*
X021405Y016915D02*
X022776Y016915D01*
X022874Y016816D02*
X021405Y016816D01*
X021387Y016718D02*
X022973Y016718D01*
X023071Y016619D02*
X021321Y016619D01*
X021222Y016521D02*
X023170Y016521D01*
X023268Y016422D02*
X021124Y016422D01*
X021025Y016324D02*
X023367Y016324D01*
X023465Y016225D02*
X020927Y016225D01*
X020828Y016126D02*
X023525Y016126D01*
X023525Y016028D02*
X020730Y016028D01*
X020631Y015929D02*
X023525Y015929D01*
X023525Y015831D02*
X020533Y015831D01*
X020434Y015732D02*
X023525Y015732D01*
X023525Y015634D02*
X020335Y015634D01*
X020237Y015535D02*
X023525Y015535D01*
X023565Y015437D02*
X020138Y015437D01*
X020040Y015338D02*
X023632Y015338D01*
X023731Y015240D02*
X020066Y015240D01*
X020075Y015141D02*
X023829Y015141D01*
X023928Y015042D02*
X020075Y015042D01*
X019558Y013663D02*
X019069Y013663D01*
X019168Y013564D02*
X019711Y013564D01*
X020055Y012677D02*
X020821Y012677D01*
X020821Y012579D02*
X020153Y012579D01*
X020252Y012480D02*
X020831Y012480D01*
X020872Y012382D02*
X020350Y012382D01*
X020449Y012283D02*
X020938Y012283D01*
X021042Y012185D02*
X020547Y012185D01*
X020646Y012086D02*
X021566Y012086D01*
X021602Y012174D02*
X021528Y011994D01*
X021528Y011799D01*
X021602Y011619D01*
X021740Y011481D01*
X021920Y011406D01*
X022115Y011406D01*
X022295Y011481D01*
X022829Y012015D01*
X022904Y012195D01*
X022904Y012390D01*
X022829Y012570D01*
X022691Y012708D01*
X022511Y012782D01*
X022316Y012782D01*
X022136Y012708D01*
X021602Y012174D01*
X021613Y012185D02*
X021580Y012185D01*
X021683Y012283D02*
X021712Y012283D01*
X021782Y012382D02*
X021810Y012382D01*
X021880Y012480D02*
X021909Y012480D01*
X021979Y012579D02*
X022007Y012579D01*
X022077Y012677D02*
X022106Y012677D01*
X022144Y012776D02*
X022301Y012776D01*
X022185Y012874D02*
X022534Y012874D01*
X022527Y012776D02*
X022632Y012776D01*
X022722Y012677D02*
X022731Y012677D01*
X022820Y012579D02*
X022830Y012579D01*
X022866Y012480D02*
X022928Y012480D01*
X022904Y012382D02*
X023027Y012382D01*
X023125Y012283D02*
X022904Y012283D01*
X022899Y012185D02*
X023224Y012185D01*
X023322Y012086D02*
X022859Y012086D01*
X022830Y011988D02*
X022802Y011988D01*
X022732Y011889D02*
X022703Y011889D01*
X022633Y011791D02*
X022605Y011791D01*
X022535Y011692D02*
X022506Y011692D01*
X022436Y011593D02*
X022408Y011593D01*
X022337Y011495D02*
X022309Y011495D01*
X022280Y011396D02*
X021336Y011396D01*
X021434Y011298D02*
X022239Y011298D01*
X022235Y011199D02*
X021533Y011199D01*
X021631Y011101D02*
X022235Y011101D01*
X022220Y011002D02*
X021928Y011002D01*
X022026Y010904D02*
X022122Y010904D01*
X022491Y010509D02*
X022942Y010509D01*
X022942Y010411D02*
X022393Y010411D01*
X022294Y010312D02*
X022972Y010312D01*
X023013Y010214D02*
X022196Y010214D01*
X022097Y010115D02*
X023106Y010115D01*
X023419Y009721D02*
X021703Y009721D01*
X021604Y009623D02*
X023321Y009623D01*
X023222Y009524D02*
X021506Y009524D01*
X021407Y009425D02*
X023124Y009425D01*
X023025Y009327D02*
X021309Y009327D01*
X021210Y009228D02*
X022927Y009228D01*
X022828Y009130D02*
X021112Y009130D01*
X021013Y009031D02*
X022729Y009031D01*
X022631Y008933D02*
X021839Y008933D01*
X022006Y008834D02*
X022361Y008834D01*
X022263Y008736D02*
X022104Y008736D01*
X022145Y008637D02*
X022208Y008637D01*
X021472Y008933D02*
X020915Y008933D01*
X020949Y008834D02*
X021305Y008834D01*
X021206Y008736D02*
X021047Y008736D01*
X021102Y008637D02*
X021165Y008637D01*
X020052Y008834D02*
X019949Y008834D01*
X018472Y008933D02*
X017805Y008933D01*
X017949Y008834D02*
X018305Y008834D01*
X018206Y008736D02*
X018047Y008736D01*
X018102Y008637D02*
X018165Y008637D01*
X017176Y007750D02*
X017067Y007750D01*
X017085Y007849D02*
X017165Y007849D01*
X017165Y007947D02*
X017085Y007947D01*
X017085Y008046D02*
X017165Y008046D01*
X017217Y007652D02*
X017024Y007652D01*
X016941Y007553D02*
X017284Y007553D01*
X015674Y007553D02*
X015636Y007553D01*
X015636Y007455D02*
X015674Y007455D01*
X015674Y007356D02*
X015636Y007356D01*
X015636Y007258D02*
X015674Y007258D01*
X013185Y010017D02*
X013125Y010017D01*
X012660Y010214D02*
X012045Y010214D01*
X012045Y010312D02*
X012525Y010312D01*
X012446Y010411D02*
X012045Y010411D01*
X012045Y010509D02*
X012405Y010509D01*
X012385Y010608D02*
X012045Y010608D01*
X012045Y010707D02*
X012385Y010707D01*
X012407Y010805D02*
X012045Y010805D01*
X012045Y010904D02*
X012448Y010904D01*
X012529Y011002D02*
X012045Y011002D01*
X012045Y011101D02*
X012671Y011101D01*
X012695Y011199D02*
X012045Y011199D01*
X012045Y011298D02*
X012539Y011298D01*
X012452Y011396D02*
X012045Y011396D01*
X012045Y011495D02*
X012411Y011495D01*
X012385Y011593D02*
X012055Y011593D01*
X012154Y011692D02*
X012385Y011692D01*
X012401Y011791D02*
X012252Y011791D01*
X012351Y011889D02*
X012442Y011889D01*
X012449Y011988D02*
X012515Y011988D01*
X012548Y012086D02*
X012635Y012086D01*
X012646Y012185D02*
X012730Y012185D01*
X012583Y014254D02*
X012556Y014254D01*
X013125Y015240D02*
X013185Y015240D01*
X013185Y015338D02*
X013125Y015338D01*
X013125Y015437D02*
X013185Y015437D01*
X013185Y015535D02*
X013125Y015535D01*
X013125Y015685D02*
X012445Y015685D01*
X012445Y015689D01*
X012456Y015756D01*
X012477Y015820D01*
X012507Y015880D01*
X012547Y015935D01*
X012595Y015983D01*
X012650Y016023D01*
X012710Y016054D01*
X012774Y016074D01*
X012841Y016085D01*
X013125Y016085D01*
X013125Y015685D01*
X013125Y015732D02*
X013185Y015732D01*
X013185Y015685D02*
X013185Y016085D01*
X013469Y016085D01*
X013536Y016074D01*
X013600Y016054D01*
X013660Y016023D01*
X013715Y015983D01*
X013763Y015935D01*
X013803Y015880D01*
X013834Y015820D01*
X013854Y015756D01*
X013865Y015689D01*
X013865Y015685D01*
X013185Y015685D01*
X013185Y015831D02*
X013125Y015831D01*
X013125Y015929D02*
X013185Y015929D01*
X013185Y016028D02*
X013125Y016028D01*
X013651Y016028D02*
X014785Y016028D01*
X014785Y015929D02*
X013767Y015929D01*
X013828Y015831D02*
X014785Y015831D01*
X014785Y015732D02*
X013858Y015732D01*
X012660Y016028D02*
X011255Y016028D01*
X011352Y015929D02*
X012543Y015929D01*
X012482Y015831D02*
X011393Y015831D01*
X011425Y015732D02*
X012452Y015732D01*
X013726Y014057D02*
X014785Y014057D01*
X016542Y015141D02*
X016827Y015141D01*
X016741Y015042D02*
X016926Y015042D01*
X016729Y015240D02*
X016712Y015240D01*
X016118Y017210D02*
X015325Y017210D01*
X014785Y017506D02*
X013488Y017506D01*
X010069Y015042D02*
X008241Y015042D01*
X008339Y014944D02*
X009971Y014944D01*
X004954Y018294D02*
X003657Y018294D01*
X003618Y018393D02*
X004856Y018393D01*
X004757Y018491D02*
X003554Y018491D01*
X003441Y018590D02*
X004658Y018590D01*
X004560Y018689D02*
X003509Y018689D01*
X003607Y018787D02*
X004461Y018787D01*
X004363Y018886D02*
X003671Y018886D01*
X003712Y018984D02*
X004264Y018984D01*
X004166Y019083D02*
X003735Y019083D01*
X003735Y019181D02*
X004067Y019181D01*
X003969Y019280D02*
X003731Y019280D01*
X003690Y019378D02*
X003870Y019378D01*
X003772Y019477D02*
X003650Y019477D01*
X003673Y019575D02*
X003555Y019575D01*
X003574Y019674D02*
X003494Y019674D01*
X002638Y018097D02*
X000865Y018097D01*
X000865Y017999D02*
X002659Y017999D01*
X002701Y017900D02*
X000865Y017900D01*
X000865Y017802D02*
X002773Y017802D01*
X002897Y017703D02*
X000865Y017703D01*
X000865Y017605D02*
X002784Y017605D01*
X002686Y017506D02*
X000865Y017506D01*
X000865Y017407D02*
X002632Y017407D01*
X002591Y017309D02*
X000865Y017309D01*
X000865Y017210D02*
X002575Y017210D01*
X002575Y017112D02*
X000865Y017112D01*
X000865Y017013D02*
X002586Y017013D01*
X002627Y016915D02*
X000865Y016915D01*
X000865Y016816D02*
X002674Y016816D01*
X002772Y016718D02*
X000865Y016718D01*
X000865Y016619D02*
X002799Y016619D01*
X002700Y016521D02*
X000865Y016521D01*
X000865Y016422D02*
X002638Y016422D01*
X002597Y016324D02*
X000865Y016324D01*
X000865Y016225D02*
X002575Y016225D01*
X002575Y016126D02*
X000865Y016126D01*
X000865Y016028D02*
X002580Y016028D01*
X002621Y015929D02*
X000865Y015929D01*
X000865Y015831D02*
X002662Y015831D01*
X002758Y015732D02*
X000865Y015732D01*
X000865Y015634D02*
X002898Y015634D01*
X004091Y014353D02*
X000865Y014353D01*
X000865Y014254D02*
X003952Y014254D01*
X003854Y014156D02*
X000865Y014156D01*
X000865Y014057D02*
X003755Y014057D01*
X003657Y013958D02*
X000865Y013958D01*
X000865Y013860D02*
X003558Y013860D01*
X003460Y013761D02*
X000865Y013761D01*
X000865Y013663D02*
X003361Y013663D01*
X003263Y013564D02*
X000865Y013564D01*
X000865Y013466D02*
X003164Y013466D01*
X003065Y013367D02*
X000865Y013367D01*
X000865Y013269D02*
X002967Y013269D01*
X002868Y013170D02*
X000865Y013170D01*
X000865Y013072D02*
X002770Y013072D01*
X002671Y012973D02*
X000865Y012973D01*
X000865Y012874D02*
X002573Y012874D01*
X002474Y012776D02*
X000865Y012776D01*
X000865Y012677D02*
X002376Y012677D01*
X002277Y012579D02*
X000865Y012579D01*
X000865Y012480D02*
X002179Y012480D01*
X002080Y012382D02*
X000865Y012382D01*
X000865Y012283D02*
X001981Y012283D01*
X002252Y011791D02*
X002305Y011791D01*
X002305Y011692D02*
X002235Y011692D01*
X002235Y011593D02*
X002305Y011593D01*
X002305Y011495D02*
X002216Y011495D01*
X002176Y011396D02*
X002295Y011396D01*
X002196Y011298D02*
X002118Y011298D01*
X002097Y011199D02*
X002019Y011199D01*
X001999Y011101D02*
X001832Y011101D01*
X001900Y011002D02*
X000865Y011002D01*
X000865Y010904D02*
X001802Y010904D01*
X001703Y010805D02*
X000865Y010805D01*
X000865Y010707D02*
X001605Y010707D01*
X001506Y010608D02*
X000865Y010608D01*
X000865Y010509D02*
X001408Y010509D01*
X001309Y010411D02*
X000865Y010411D01*
X000865Y010312D02*
X001211Y010312D01*
X001112Y010214D02*
X000865Y010214D01*
X000865Y010115D02*
X001014Y010115D01*
X000915Y010017D02*
X000865Y010017D01*
X001284Y009623D02*
X003620Y009623D01*
X003620Y009721D02*
X001383Y009721D01*
X001481Y009820D02*
X003644Y009820D01*
X003685Y009918D02*
X001580Y009918D01*
X001679Y010017D02*
X003760Y010017D01*
X003868Y010115D02*
X001777Y010115D01*
X001876Y010214D02*
X003840Y010214D01*
X003741Y010312D02*
X001974Y010312D01*
X002073Y010411D02*
X003677Y010411D01*
X003636Y010509D02*
X002171Y010509D01*
X002270Y010608D02*
X003620Y010608D01*
X003620Y010707D02*
X002368Y010707D01*
X002467Y010805D02*
X003638Y010805D01*
X003679Y010904D02*
X002565Y010904D01*
X002664Y011002D02*
X003746Y011002D01*
X003844Y011101D02*
X003332Y011101D01*
X003519Y011199D02*
X003858Y011199D01*
X003756Y011298D02*
X003618Y011298D01*
X003676Y011396D02*
X003683Y011396D01*
X003643Y011988D02*
X003731Y011988D01*
X003830Y012086D02*
X003544Y012086D01*
X003437Y012185D02*
X004036Y012185D01*
X002978Y011101D02*
X002763Y011101D01*
X001478Y011101D02*
X000865Y011101D01*
X000865Y011199D02*
X001291Y011199D01*
X001192Y011298D02*
X000865Y011298D01*
X000865Y011396D02*
X001134Y011396D01*
X001094Y011495D02*
X000865Y011495D01*
X000865Y011593D02*
X001075Y011593D01*
X001075Y011692D02*
X000865Y011692D01*
X000865Y011791D02*
X001083Y011791D01*
X001124Y011889D02*
X000865Y011889D01*
X000865Y011988D02*
X001167Y011988D01*
X001266Y012086D02*
X000865Y012086D01*
X000865Y012185D02*
X001418Y012185D01*
X001186Y009524D02*
X003630Y009524D01*
X003671Y009425D02*
X001087Y009425D01*
X001085Y009327D02*
X003727Y009327D01*
X003825Y009228D02*
X001085Y009228D01*
X001085Y009130D02*
X003903Y009130D01*
X003775Y009031D02*
X001085Y009031D01*
X001085Y008933D02*
X003691Y008933D01*
X003650Y008834D02*
X001085Y008834D01*
X001085Y008736D02*
X003620Y008736D01*
X003620Y008637D02*
X001085Y008637D01*
X001085Y008539D02*
X003624Y008539D01*
X003665Y008440D02*
X001085Y008440D01*
X001085Y008341D02*
X003712Y008341D01*
X003811Y008243D02*
X001085Y008243D01*
X001085Y008144D02*
X001324Y008144D01*
X001226Y008046D02*
X001085Y008046D01*
X001085Y007947D02*
X001148Y007947D01*
X001108Y007849D02*
X001085Y007849D01*
X001085Y007455D02*
X001110Y007455D01*
X001085Y007356D02*
X001151Y007356D01*
X001085Y007258D02*
X001232Y007258D01*
X001337Y007159D02*
X001085Y007159D01*
X001085Y007060D02*
X007087Y007060D01*
X006989Y006962D02*
X001085Y006962D01*
X001085Y006863D02*
X006931Y006863D01*
X006890Y006765D02*
X001085Y006765D01*
X001085Y006666D02*
X001684Y006666D01*
X001498Y006568D02*
X001085Y006568D01*
X001085Y006469D02*
X001400Y006469D01*
X001351Y006371D02*
X001085Y006371D01*
X001085Y006272D02*
X001310Y006272D01*
X001305Y006174D02*
X001085Y006174D01*
X001085Y006075D02*
X001305Y006075D01*
X001335Y005976D02*
X001085Y005976D01*
X001085Y005878D02*
X001376Y005878D01*
X001461Y005779D02*
X001085Y005779D01*
X001085Y005681D02*
X001595Y005681D01*
X001638Y005582D02*
X001085Y005582D01*
X001085Y005484D02*
X001499Y005484D01*
X001477Y005461D02*
X001433Y005401D01*
X001400Y005336D01*
X001377Y005265D01*
X001367Y005205D01*
X002105Y005205D01*
X002105Y005625D01*
X001798Y005625D01*
X001725Y005614D01*
X001655Y005591D01*
X001589Y005557D01*
X001529Y005514D01*
X001477Y005461D01*
X001425Y005385D02*
X001085Y005385D01*
X001085Y005287D02*
X001384Y005287D01*
X002105Y005287D02*
X002205Y005287D01*
X002205Y005385D02*
X002105Y005385D01*
X002105Y005484D02*
X002205Y005484D01*
X002205Y005582D02*
X002105Y005582D01*
X002672Y005582D02*
X003138Y005582D01*
X003095Y005681D02*
X002715Y005681D01*
X002849Y005779D02*
X002961Y005779D01*
X002999Y005484D02*
X002811Y005484D01*
X002885Y005385D02*
X002925Y005385D01*
X002945Y004892D02*
X002865Y004892D01*
X002778Y004794D02*
X003033Y004794D01*
X003027Y004597D02*
X002783Y004597D01*
X002881Y004498D02*
X002929Y004498D01*
X003233Y004695D02*
X002577Y004695D01*
X002205Y004695D02*
X002105Y004695D01*
X002105Y004794D02*
X002205Y004794D01*
X002205Y004892D02*
X002105Y004892D01*
X002105Y004991D02*
X002205Y004991D01*
X003605Y004991D02*
X003705Y004991D01*
X003705Y004892D02*
X003605Y004892D01*
X003605Y004794D02*
X003705Y004794D01*
X003705Y004695D02*
X003605Y004695D01*
X003605Y005090D02*
X003705Y005090D01*
X003705Y005385D02*
X003605Y005385D01*
X003605Y005484D02*
X003705Y005484D01*
X003705Y005582D02*
X003605Y005582D01*
X004172Y005582D02*
X004226Y005582D01*
X004311Y005484D02*
X004325Y005484D01*
X004385Y005385D02*
X004423Y005385D01*
X004427Y005287D02*
X004522Y005287D01*
X004990Y005582D02*
X006885Y005582D01*
X006885Y005681D02*
X004891Y005681D01*
X004793Y005779D02*
X006896Y005779D01*
X006937Y005878D02*
X004694Y005878D01*
X004596Y005976D02*
X007004Y005976D01*
X007108Y006075D02*
X004505Y006075D01*
X004505Y006174D02*
X007257Y006174D01*
X007065Y006272D02*
X004500Y006272D01*
X004459Y006371D02*
X006967Y006371D01*
X006922Y006469D02*
X004411Y006469D01*
X004312Y006568D02*
X006885Y006568D01*
X006885Y006666D02*
X004126Y006666D01*
X003184Y006666D02*
X002626Y006666D01*
X002812Y006568D02*
X002998Y006568D01*
X002837Y007159D02*
X001973Y007159D01*
X002078Y007258D02*
X002732Y007258D01*
X002651Y007356D02*
X002159Y007356D01*
X002200Y007455D02*
X002610Y007455D01*
X002575Y007553D02*
X002235Y007553D01*
X002235Y007652D02*
X002575Y007652D01*
X002575Y007750D02*
X002235Y007750D01*
X002203Y007849D02*
X002608Y007849D01*
X002648Y007947D02*
X002162Y007947D01*
X002085Y008046D02*
X002726Y008046D01*
X002824Y008144D02*
X001986Y008144D01*
X003486Y008144D02*
X003990Y008144D01*
X005088Y005484D02*
X006916Y005484D01*
X006957Y005385D02*
X005187Y005385D01*
X005285Y005287D02*
X007051Y005287D01*
X007222Y005188D02*
X005384Y005188D01*
X006636Y003119D02*
X006674Y003119D01*
X006674Y003020D02*
X006636Y003020D01*
X006636Y002922D02*
X006674Y002922D01*
X006674Y002823D02*
X006636Y002823D01*
X006636Y002725D02*
X006674Y002725D01*
X006674Y002626D02*
X006636Y002626D01*
X006636Y002527D02*
X006674Y002527D01*
X006674Y002429D02*
X006636Y002429D01*
X006636Y002330D02*
X006674Y002330D01*
X006674Y002232D02*
X006636Y002232D01*
X007094Y002232D02*
X007322Y002232D01*
X007223Y002330D02*
X007130Y002330D01*
X007130Y002429D02*
X007170Y002429D01*
X007146Y002823D02*
X007130Y002823D01*
X007130Y002922D02*
X007186Y002922D01*
X007125Y003020D02*
X007264Y003020D01*
X007376Y003119D02*
X007040Y003119D01*
X002933Y001542D02*
X021378Y001542D01*
X021479Y001443D02*
X002831Y001443D01*
X002714Y001345D02*
X021596Y001345D01*
X021787Y001246D02*
X002524Y001246D01*
X000865Y001049D02*
X027411Y001049D01*
X027340Y001079D02*
X027590Y000975D01*
X028720Y000975D01*
X028970Y001079D01*
X029162Y001270D01*
X029265Y001520D01*
X029265Y001790D01*
X029162Y002040D01*
X028970Y002232D01*
X030465Y002232D01*
X030465Y002330D02*
X028732Y002330D01*
X028720Y002335D02*
X027590Y002335D01*
X027340Y002232D01*
X027149Y002040D01*
X027045Y001790D01*
X027045Y001520D01*
X027149Y001270D01*
X027340Y001079D01*
X027271Y001148D02*
X026433Y001148D01*
X026560Y001246D02*
X027172Y001246D01*
X027118Y001345D02*
X026649Y001345D01*
X026690Y001443D02*
X027077Y001443D01*
X027045Y001542D02*
X026730Y001542D01*
X026730Y001641D02*
X027045Y001641D01*
X027045Y001739D02*
X026730Y001739D01*
X026702Y001838D02*
X027065Y001838D01*
X027106Y001936D02*
X026661Y001936D01*
X026589Y002035D02*
X027146Y002035D01*
X027242Y002133D02*
X026490Y002133D01*
X026488Y002232D02*
X027341Y002232D01*
X027578Y002330D02*
X026587Y002330D01*
X026640Y002429D02*
X030465Y002429D01*
X030465Y002527D02*
X026681Y002527D01*
X026690Y002626D02*
X030465Y002626D01*
X030465Y002725D02*
X026690Y002725D01*
X026665Y002823D02*
X030465Y002823D01*
X030465Y002922D02*
X026624Y002922D01*
X026547Y003020D02*
X027481Y003020D01*
X027590Y002975D02*
X027340Y003079D01*
X027149Y003270D01*
X027045Y003520D01*
X027045Y003790D01*
X027149Y004040D01*
X027340Y004232D01*
X027590Y004335D01*
X028720Y004335D01*
X028970Y004232D01*
X029162Y004040D01*
X029265Y003790D01*
X029265Y003520D01*
X029162Y003270D01*
X028970Y003079D01*
X028720Y002975D01*
X027590Y002975D01*
X027300Y003119D02*
X026434Y003119D01*
X026530Y003217D02*
X027201Y003217D01*
X027130Y003316D02*
X026629Y003316D01*
X026678Y003414D02*
X027089Y003414D01*
X027048Y003513D02*
X026719Y003513D01*
X026730Y003611D02*
X027045Y003611D01*
X027045Y003710D02*
X026730Y003710D01*
X026714Y003809D02*
X027053Y003809D01*
X027093Y003907D02*
X026673Y003907D01*
X026618Y004006D02*
X027134Y004006D01*
X027212Y004104D02*
X026519Y004104D01*
X026459Y004203D02*
X027311Y004203D01*
X027508Y004301D02*
X026558Y004301D01*
X026628Y004400D02*
X030465Y004400D01*
X030465Y004498D02*
X026669Y004498D01*
X026690Y004597D02*
X030465Y004597D01*
X030465Y004695D02*
X026690Y004695D01*
X026677Y004794D02*
X030465Y004794D01*
X030465Y004892D02*
X026636Y004892D01*
X026576Y004991D02*
X030465Y004991D01*
X030465Y005090D02*
X028892Y005090D01*
X029023Y005188D02*
X030465Y005188D01*
X030465Y005287D02*
X029122Y005287D01*
X029166Y005385D02*
X030465Y005385D01*
X030465Y005484D02*
X029207Y005484D01*
X029225Y005582D02*
X030465Y005582D01*
X030465Y005681D02*
X029225Y005681D01*
X029225Y005779D02*
X030465Y005779D01*
X030465Y005878D02*
X029186Y005878D01*
X029145Y005976D02*
X030465Y005976D01*
X030465Y006075D02*
X029070Y006075D01*
X028938Y007060D02*
X028926Y007060D01*
X029051Y007159D02*
X029059Y007159D01*
X029149Y007258D02*
X029158Y007258D01*
X029197Y007356D02*
X029256Y007356D01*
X029238Y007455D02*
X029285Y007455D01*
X029285Y007553D02*
X029265Y007553D01*
X029265Y007652D02*
X029285Y007652D01*
X029285Y007750D02*
X029265Y007750D01*
X029241Y007849D02*
X029285Y007849D01*
X029285Y007947D02*
X029200Y007947D01*
X029156Y008046D02*
X029285Y008046D01*
X029285Y008144D02*
X029057Y008144D01*
X028943Y008243D02*
X029285Y008243D01*
X029285Y008341D02*
X026598Y008341D01*
X026645Y008440D02*
X029285Y008440D01*
X029285Y008539D02*
X026686Y008539D01*
X026690Y008637D02*
X029285Y008637D01*
X029285Y008736D02*
X026690Y008736D01*
X026660Y008834D02*
X029285Y008834D01*
X027367Y008243D02*
X026500Y008243D01*
X026476Y008144D02*
X027253Y008144D01*
X027154Y008046D02*
X026578Y008046D01*
X026656Y007947D02*
X027110Y007947D01*
X027069Y007849D02*
X026697Y007849D01*
X026730Y007750D02*
X027045Y007750D01*
X027045Y007652D02*
X026730Y007652D01*
X026730Y007553D02*
X027045Y007553D01*
X027072Y007455D02*
X026694Y007455D01*
X026654Y007356D02*
X027113Y007356D01*
X027161Y007258D02*
X026571Y007258D01*
X025755Y008144D02*
X024145Y008144D01*
X024145Y008046D02*
X025626Y008046D01*
X025528Y007947D02*
X024145Y007947D01*
X024145Y007849D02*
X025429Y007849D01*
X025330Y007750D02*
X024134Y007750D01*
X024093Y007652D02*
X025232Y007652D01*
X025133Y007553D02*
X024026Y007553D01*
X023920Y007455D02*
X025035Y007455D01*
X025811Y008243D02*
X024225Y008243D01*
X024323Y008341D02*
X025712Y008341D01*
X023941Y009327D02*
X023789Y009327D01*
X023361Y008834D02*
X023296Y008834D01*
X023263Y008736D02*
X023197Y008736D01*
X023208Y008637D02*
X023102Y008637D01*
X023143Y008539D02*
X023168Y008539D01*
X023165Y008440D02*
X023145Y008440D01*
X023145Y008341D02*
X023165Y008341D01*
X023165Y008243D02*
X023145Y008243D01*
X023145Y008144D02*
X023165Y008144D01*
X023165Y008046D02*
X023145Y008046D01*
X023145Y007947D02*
X023165Y007947D01*
X023165Y007849D02*
X023145Y007849D01*
X023134Y007750D02*
X023176Y007750D01*
X023217Y007652D02*
X023093Y007652D01*
X023026Y007553D02*
X023284Y007553D01*
X023390Y007455D02*
X022920Y007455D01*
X022744Y007356D02*
X022025Y007356D01*
X022025Y007258D02*
X022598Y007258D01*
X022499Y007159D02*
X022025Y007159D01*
X022025Y007060D02*
X022401Y007060D01*
X022302Y006962D02*
X022025Y006962D01*
X022025Y006863D02*
X022204Y006863D01*
X022105Y006765D02*
X022025Y006765D01*
X022025Y007455D02*
X022390Y007455D01*
X022284Y007553D02*
X022083Y007553D01*
X022136Y007652D02*
X022217Y007652D01*
X022590Y010608D02*
X022954Y010608D01*
X022995Y010707D02*
X022840Y010707D01*
X023034Y010805D02*
X023062Y010805D01*
X023132Y010904D02*
X023160Y010904D01*
X023231Y011002D02*
X023259Y011002D01*
X023329Y011101D02*
X023357Y011101D01*
X023428Y011199D02*
X023456Y011199D01*
X023526Y011298D02*
X023561Y011298D01*
X023573Y011396D02*
X024012Y011396D01*
X024095Y011298D02*
X024111Y011298D01*
X024200Y011199D02*
X024209Y011199D01*
X024266Y011101D02*
X024308Y011101D01*
X024307Y011002D02*
X024406Y011002D01*
X024318Y010904D02*
X024505Y010904D01*
X024603Y010805D02*
X024318Y010805D01*
X023914Y011495D02*
X023611Y011495D01*
X023611Y011593D02*
X023815Y011593D01*
X023716Y011692D02*
X023607Y011692D01*
X023618Y011791D02*
X023566Y011791D01*
X023519Y011889D02*
X023510Y011889D01*
X023421Y011988D02*
X023411Y011988D01*
X022435Y012973D02*
X022197Y012973D01*
X022197Y013072D02*
X022337Y013072D01*
X022238Y013170D02*
X022166Y013170D01*
X022140Y013269D02*
X022125Y013269D01*
X021528Y011988D02*
X020744Y011988D01*
X020843Y011889D02*
X021528Y011889D01*
X021531Y011791D02*
X020941Y011791D01*
X021040Y011692D02*
X021572Y011692D01*
X021628Y011593D02*
X021139Y011593D01*
X021237Y011495D02*
X021726Y011495D01*
X026073Y014057D02*
X030465Y014057D01*
X030465Y013958D02*
X026172Y013958D01*
X026270Y013860D02*
X030465Y013860D01*
X028809Y012579D02*
X028439Y012579D01*
X028537Y012677D02*
X028589Y012677D01*
X028710Y012480D02*
X028340Y012480D01*
X028242Y012382D02*
X028642Y012382D01*
X028601Y012283D02*
X028143Y012283D01*
X028185Y012185D02*
X028575Y012185D01*
X028575Y012086D02*
X028284Y012086D01*
X028382Y011988D02*
X028576Y011988D01*
X028617Y011889D02*
X028481Y011889D01*
X028579Y011791D02*
X028658Y011791D01*
X028678Y011692D02*
X028748Y011692D01*
X028777Y011593D02*
X028875Y011593D01*
X027124Y012086D02*
X027044Y012086D01*
X027496Y012874D02*
X027575Y012874D01*
X027673Y012973D02*
X027397Y012973D01*
X027213Y013072D02*
X027772Y013072D01*
X027870Y013170D02*
X027144Y013170D01*
X026861Y013269D02*
X027969Y013269D01*
X028067Y013367D02*
X026763Y013367D01*
X026664Y013466D02*
X028166Y013466D01*
X028535Y013564D02*
X026566Y013564D01*
X026467Y013663D02*
X028551Y013663D01*
X028618Y013761D02*
X026369Y013761D01*
X026266Y005188D02*
X027287Y005188D01*
X027418Y005090D02*
X026477Y005090D01*
X025780Y003217D02*
X025545Y003217D01*
X025545Y003119D02*
X025876Y003119D01*
X025764Y003020D02*
X025545Y003020D01*
X025545Y002922D02*
X025686Y002922D01*
X025646Y002823D02*
X025545Y002823D01*
X025545Y002725D02*
X025620Y002725D01*
X025620Y002626D02*
X025545Y002626D01*
X025545Y002527D02*
X025629Y002527D01*
X025621Y002429D02*
X025670Y002429D01*
X025720Y002330D02*
X025723Y002330D01*
X025818Y002232D02*
X025822Y002232D01*
X028720Y002335D02*
X028970Y002232D01*
X029069Y002133D02*
X030465Y002133D01*
X030465Y002035D02*
X029164Y002035D01*
X029205Y001936D02*
X030465Y001936D01*
X030465Y001838D02*
X029246Y001838D01*
X029265Y001739D02*
X030465Y001739D01*
X030465Y001641D02*
X029265Y001641D01*
X029265Y001542D02*
X030465Y001542D01*
X030465Y001443D02*
X029233Y001443D01*
X029193Y001345D02*
X030465Y001345D01*
X030465Y001246D02*
X029138Y001246D01*
X029039Y001148D02*
X030465Y001148D01*
X030465Y001049D02*
X028899Y001049D01*
X030465Y000951D02*
X000865Y000951D01*
X018793Y002133D02*
X019173Y002133D01*
X019100Y002232D02*
X018988Y002232D01*
X028829Y003020D02*
X030465Y003020D01*
X030465Y003119D02*
X029010Y003119D01*
X029109Y003217D02*
X030465Y003217D01*
X030465Y003316D02*
X029181Y003316D01*
X029221Y003414D02*
X030465Y003414D01*
X030465Y003513D02*
X029262Y003513D01*
X029265Y003611D02*
X030465Y003611D01*
X030465Y003710D02*
X029265Y003710D01*
X029258Y003809D02*
X030465Y003809D01*
X030465Y003907D02*
X029217Y003907D01*
X029176Y004006D02*
X030465Y004006D01*
X030465Y004104D02*
X029098Y004104D01*
X028999Y004203D02*
X030465Y004203D01*
X030465Y004301D02*
X028802Y004301D01*
X009317Y020758D02*
X006078Y020758D01*
X006159Y020856D02*
X009229Y020856D01*
X009616Y021152D02*
X006235Y021152D01*
X006235Y021251D02*
X009144Y021251D01*
X009171Y021349D02*
X006202Y021349D01*
X006162Y021448D02*
X009225Y021448D01*
X009311Y021546D02*
X006084Y021546D01*
X006821Y021743D02*
X008490Y021743D01*
X008289Y021842D02*
X007021Y021842D01*
X007120Y021940D02*
X008190Y021940D01*
X008135Y022039D02*
X007175Y022039D01*
X007216Y022138D02*
X008094Y022138D01*
X008085Y022236D02*
X007225Y022236D01*
X007225Y022335D02*
X008085Y022335D01*
X008111Y022433D02*
X007199Y022433D01*
X007158Y022532D02*
X008152Y022532D01*
X008231Y022630D02*
X007079Y022630D01*
X006961Y022729D02*
X008350Y022729D01*
X008505Y023517D02*
X006805Y023517D01*
X007015Y023616D02*
X008295Y023616D01*
X008196Y023714D02*
X007114Y023714D01*
X007173Y023813D02*
X008138Y023813D01*
X008097Y023911D02*
X007213Y023911D01*
X007225Y024010D02*
X008085Y024010D01*
X008085Y024108D02*
X007225Y024108D01*
X007202Y024207D02*
X008109Y024207D01*
X008149Y024306D02*
X007161Y024306D01*
X007086Y024404D02*
X008225Y024404D01*
X009521Y022729D02*
X012187Y022729D01*
X012286Y022827D02*
X004663Y022827D01*
X004690Y022729D02*
X005790Y022729D01*
X005671Y022630D02*
X004690Y022630D01*
X004683Y022532D02*
X005592Y022532D01*
X005551Y022433D02*
X004642Y022433D01*
X004591Y022335D02*
X005525Y022335D01*
X005525Y022236D02*
X004493Y022236D01*
X003818Y022236D02*
X002495Y022236D01*
X002653Y022293D02*
X002653Y022293D01*
X002702Y022335D02*
X003719Y022335D01*
X003668Y022433D02*
X002819Y022433D01*
X002917Y022515D02*
X002917Y022516D01*
X002927Y022532D02*
X003627Y022532D01*
X003620Y022630D02*
X002984Y022630D01*
X003041Y022729D02*
X003620Y022729D01*
X003647Y022827D02*
X003092Y022827D01*
X003090Y022815D02*
X003090Y022815D01*
X003110Y022926D02*
X003688Y022926D01*
X003768Y023024D02*
X003127Y023024D01*
X003144Y023123D02*
X003887Y023123D01*
X003832Y023222D02*
X003138Y023222D01*
X003121Y023320D02*
X003734Y023320D01*
X003674Y023419D02*
X003104Y023419D01*
X003078Y023517D02*
X003633Y023517D01*
X003620Y023616D02*
X003021Y023616D01*
X002964Y023714D02*
X003620Y023714D01*
X003641Y023813D02*
X002896Y023813D01*
X002917Y023795D02*
X002917Y023795D01*
X002778Y023911D02*
X003682Y023911D01*
X003753Y024010D02*
X002661Y024010D01*
X002401Y024108D02*
X003852Y024108D01*
X004577Y023320D02*
X012778Y023320D01*
X012680Y023222D02*
X004478Y023222D01*
X004423Y023123D02*
X012581Y023123D01*
X012483Y023024D02*
X004542Y023024D01*
X004622Y022926D02*
X012384Y022926D01*
X012088Y022630D02*
X009639Y022630D01*
X009718Y022532D02*
X011990Y022532D01*
X011891Y022433D02*
X009759Y022433D01*
X009785Y022335D02*
X011793Y022335D01*
X011694Y022236D02*
X009785Y022236D01*
X009776Y022138D02*
X011596Y022138D01*
X011497Y022039D02*
X009735Y022039D01*
X009680Y021940D02*
X011399Y021940D01*
X011300Y021842D02*
X009581Y021842D01*
X009616Y021645D02*
X009694Y021645D01*
X009694Y021546D02*
X009616Y021546D01*
X009616Y021448D02*
X009694Y021448D01*
X009694Y021349D02*
X009616Y021349D01*
X009616Y021251D02*
X009694Y021251D01*
X011472Y021251D02*
X012680Y021251D01*
X012680Y021349D02*
X011571Y021349D01*
X011670Y021448D02*
X012680Y021448D01*
X012695Y021546D02*
X011768Y021546D01*
X011867Y021645D02*
X012989Y021645D01*
X012810Y021743D02*
X011965Y021743D01*
X012064Y021842D02*
X012712Y021842D01*
X012665Y021940D02*
X012162Y021940D01*
X012261Y022039D02*
X012624Y022039D01*
X012620Y022138D02*
X012359Y022138D01*
X012458Y022236D02*
X012620Y022236D01*
X012650Y022335D02*
X012556Y022335D01*
X012655Y022433D02*
X012691Y022433D01*
X012754Y022532D02*
X012775Y022532D01*
X012852Y022630D02*
X012904Y022630D01*
X005665Y024404D02*
X000865Y024404D01*
X000865Y024306D02*
X005589Y024306D01*
X002328Y022175D02*
X002328Y022175D01*
X002205Y022175D02*
X002205Y022175D01*
X001982Y022175D02*
X001982Y022175D01*
X001982Y024135D02*
X001982Y024135D01*
X002105Y024135D02*
X002105Y024135D01*
X002205Y024135D02*
X002205Y024135D01*
D18*
X003155Y020155D02*
X003215Y020095D01*
X003535Y020095D01*
X006975Y016655D01*
X007655Y016655D01*
X008575Y014655D02*
X008015Y014095D01*
X004175Y014095D01*
X001695Y011615D01*
X001655Y011655D01*
X002575Y011855D02*
X002575Y011295D01*
X000815Y009535D01*
X000815Y003935D01*
X001695Y003055D01*
X002175Y004095D02*
X002975Y003295D01*
X004175Y003295D01*
X004415Y003535D01*
X009455Y003535D01*
X011375Y005455D01*
X011375Y005935D01*
X010655Y006655D01*
X010255Y007135D02*
X011055Y007135D01*
X011615Y006575D01*
X011615Y006015D01*
X012255Y005375D01*
X012575Y005375D01*
X016415Y009215D01*
X017135Y009215D01*
X017535Y008255D02*
X017615Y008175D01*
X017655Y008155D01*
X017535Y008255D02*
X017535Y012655D01*
X016575Y013615D01*
X016175Y013615D01*
X016155Y013655D01*
X016155Y014655D02*
X016575Y014655D01*
X021415Y009815D01*
X020095Y008495D01*
X020095Y004815D01*
X020895Y004015D01*
X021935Y004015D01*
X022655Y004735D01*
X022655Y005155D01*
X022655Y008155D02*
X022655Y008575D01*
X024015Y009935D01*
X024335Y009935D01*
X024337Y009973D01*
X025295Y009695D02*
X023695Y008095D01*
X023655Y008155D01*
X025295Y009695D02*
X025295Y010495D01*
X022015Y013775D01*
X020094Y014216D02*
X020015Y014175D01*
X019775Y013935D01*
X018895Y013935D01*
X017215Y015615D01*
X017215Y016495D01*
X016175Y017535D01*
X016175Y018095D01*
X016155Y018155D01*
X015155Y018155D02*
X015135Y018095D01*
X015055Y018015D01*
X015055Y008975D01*
X013615Y007535D01*
X012175Y007535D01*
X011775Y006895D02*
X012095Y006575D01*
X012095Y006255D01*
X012155Y006255D01*
X011775Y006895D02*
X011775Y011695D01*
X012735Y012655D01*
X013155Y012655D01*
X012015Y014095D02*
X012575Y014655D01*
X013155Y014655D01*
X012015Y014095D02*
X010175Y014095D01*
X009775Y013695D01*
X007695Y013695D01*
X007655Y013655D01*
X008575Y014655D02*
X010655Y014655D01*
X010655Y017655D02*
X010655Y017695D01*
X013295Y017695D01*
X015535Y019935D01*
X019135Y019935D01*
X021155Y021155D02*
X021135Y021215D01*
X021135Y021615D01*
X020495Y022255D01*
X020175Y022255D01*
X019615Y021695D01*
X019615Y016575D01*
X018735Y015695D01*
X018680Y015630D01*
X019455Y015135D02*
X019455Y014975D01*
X019387Y014923D01*
X019455Y015135D02*
X021135Y016815D01*
X021135Y018095D01*
X021155Y018155D01*
X023055Y019935D02*
X024575Y019935D01*
X024735Y020095D01*
X024755Y020155D01*
X024175Y020495D02*
X024095Y020415D01*
X022015Y020415D01*
X021695Y020735D01*
X021695Y021535D01*
X020415Y022815D01*
X017375Y022815D01*
X020015Y023535D02*
X021695Y021855D01*
X023695Y021855D01*
X024335Y021215D01*
X024655Y021215D01*
X024655Y021155D01*
X020015Y023535D02*
X013375Y023535D01*
X010655Y020815D01*
X010655Y018655D01*
X016155Y015655D02*
X016175Y015615D01*
X016735Y015615D01*
X021695Y010655D01*
X021415Y009815D02*
X022975Y011375D01*
X022923Y011387D01*
X026155Y006655D02*
X027055Y006655D01*
X028095Y005615D01*
X028155Y005655D01*
X010655Y005615D02*
X010655Y005655D01*
X010655Y005615D02*
X008975Y005615D01*
X008255Y004895D01*
X005295Y004895D01*
X004095Y006095D01*
X003695Y006095D01*
X003655Y006155D01*
X002155Y004155D02*
X002175Y004095D01*
X007655Y007655D02*
X007695Y007615D01*
X009775Y007615D01*
X010255Y007135D01*
X003055Y012335D02*
X002575Y011855D01*
D19*
X003055Y012335D03*
X001375Y013375D03*
X012175Y007535D03*
X017135Y009215D03*
X021455Y006335D03*
X024095Y006335D03*
X029135Y006655D03*
X021695Y010655D03*
X022015Y013775D03*
X023935Y016335D03*
X025135Y016335D03*
X024495Y017455D03*
X025135Y017695D03*
X023055Y019935D03*
X024175Y020495D03*
X019135Y019935D03*
X017375Y022815D03*
X001695Y003055D03*
D20*
X021455Y006335D02*
X021615Y006495D01*
X021615Y008095D01*
X021655Y008155D01*
X022895Y006975D02*
X025135Y006975D01*
X025935Y007775D01*
X026095Y007615D01*
X026155Y007655D01*
X024095Y006335D02*
X025135Y005295D01*
X025135Y002335D01*
X025935Y001535D01*
X026095Y001695D01*
X026155Y001655D01*
X021655Y005155D02*
X021695Y005215D01*
X021695Y005775D01*
X022895Y006975D01*
X029135Y006655D02*
X029695Y007215D01*
X029695Y010095D01*
X027535Y012255D01*
X028415Y013135D01*
X029135Y013135D01*
X029155Y013205D01*
X028975Y014495D02*
X029695Y015215D01*
X029695Y020095D01*
X028175Y021615D01*
X028155Y021655D01*
X027135Y021055D02*
X026895Y021295D01*
X026895Y022015D01*
X027335Y022455D01*
X026175Y023615D01*
X026155Y023655D01*
X027335Y022455D02*
X028095Y023215D01*
X028095Y023615D01*
X028155Y023655D01*
X027135Y021055D02*
X027135Y020655D01*
X025455Y018975D01*
X025455Y018895D01*
X024735Y018175D01*
X024175Y018175D01*
X022975Y019375D01*
X021375Y019375D01*
X020175Y020575D01*
X020175Y021135D01*
X020155Y021155D01*
X022155Y018155D02*
X022175Y018095D01*
X023935Y016335D01*
X023935Y015615D01*
X026655Y012895D01*
X026655Y012655D01*
X027135Y012655D01*
X027535Y012255D01*
X028975Y014495D02*
X025855Y014495D01*
X024495Y015855D01*
X024495Y017455D01*
X025135Y017695D02*
X025135Y016335D01*
M02*
