G75*
G70*
%OFA0B0*%
%FSLAX24Y24*%
%IPPOS*%
%LPD*%
%AMOC8*
5,1,8,0,0,1.08239X$1,22.5*
%
%ADD10C,0.0050*%
%ADD11C,0.0080*%
D10*
X023608Y019330D02*
X023808Y019330D01*
X023930Y019280D02*
X023930Y019480D01*
X023930Y019280D02*
X024030Y019180D01*
X024130Y019280D01*
X024130Y019480D01*
X023708Y019430D02*
X023708Y019230D01*
X023658Y020180D02*
X023608Y020230D01*
X023608Y020430D01*
X023658Y020480D01*
X023808Y020480D01*
X023808Y020180D01*
X023658Y020180D01*
X023486Y020180D02*
X023486Y020380D01*
X023386Y020480D01*
X023285Y020380D01*
X023285Y020180D01*
X023285Y020330D02*
X023486Y020330D01*
X023930Y020280D02*
X023930Y020230D01*
X023980Y020180D01*
X024080Y020180D01*
X024130Y020230D01*
X024080Y020330D02*
X023980Y020330D01*
X023930Y020280D01*
X023930Y020430D02*
X023980Y020480D01*
X024080Y020480D01*
X024130Y020430D01*
X024130Y020380D01*
X024080Y020330D01*
X024080Y021180D02*
X024130Y021230D01*
X024080Y021180D02*
X023980Y021180D01*
X023930Y021230D01*
X023930Y021280D01*
X023980Y021330D01*
X024080Y021330D01*
X024130Y021380D01*
X024130Y021430D01*
X024080Y021480D01*
X023980Y021480D01*
X023930Y021430D01*
X023808Y021430D02*
X023808Y021230D01*
X023758Y021180D01*
X023658Y021180D01*
X023608Y021230D01*
X023486Y021180D02*
X023486Y021480D01*
X023608Y021430D02*
X023658Y021480D01*
X023758Y021480D01*
X023808Y021430D01*
X023486Y021180D02*
X023285Y021180D01*
X023336Y022180D02*
X023285Y022230D01*
X023285Y022430D01*
X023336Y022480D01*
X023486Y022480D01*
X023486Y022180D01*
X023336Y022180D01*
X023608Y022180D02*
X023608Y022480D01*
X023808Y022480D02*
X023608Y022180D01*
X023808Y022180D02*
X023808Y022480D01*
X023930Y022430D02*
X023980Y022480D01*
X024080Y022480D01*
X024130Y022430D01*
X024130Y022230D01*
X024080Y022180D01*
X023980Y022180D01*
X023930Y022230D01*
X023930Y022330D01*
X024030Y022330D01*
X024030Y023180D02*
X023930Y023280D01*
X023930Y023480D01*
X023808Y023330D02*
X023608Y023330D01*
X023708Y023430D02*
X023708Y023230D01*
X024030Y023180D02*
X024130Y023280D01*
X024130Y023480D01*
X024030Y024180D02*
X023930Y024280D01*
X023930Y024480D01*
X023808Y024430D02*
X023808Y024230D01*
X023758Y024180D01*
X023658Y024180D01*
X023608Y024230D01*
X023486Y024230D02*
X023486Y024430D01*
X023436Y024480D01*
X023336Y024480D01*
X023285Y024430D01*
X023285Y024230D02*
X023336Y024180D01*
X023436Y024180D01*
X023486Y024230D01*
X023608Y024430D02*
X023658Y024480D01*
X023758Y024480D01*
X023808Y024430D01*
X024130Y024480D02*
X024130Y024280D01*
X024030Y024180D01*
D11*
X029195Y023015D02*
X029195Y022735D01*
X029195Y022875D02*
X029615Y022875D01*
X029475Y022735D01*
X029615Y022555D02*
X029195Y022555D01*
X029195Y022274D02*
X029615Y022274D01*
X029475Y022414D01*
X029615Y022555D01*
X029545Y020265D02*
X029615Y020195D01*
X029615Y019985D01*
X029195Y019985D01*
X029195Y020195D01*
X029265Y020265D01*
X029545Y020265D01*
X029615Y019805D02*
X029195Y019805D01*
X029615Y019524D01*
X029195Y019524D01*
X029265Y019344D02*
X029195Y019274D01*
X029195Y019134D01*
X029265Y019064D01*
X029545Y019064D01*
X029615Y019134D01*
X029615Y019274D01*
X029545Y019344D01*
X029405Y019344D02*
X029405Y019204D01*
X029405Y019344D02*
X029265Y019344D01*
X029195Y017015D02*
X029195Y016735D01*
X029475Y017015D01*
X029545Y017015D01*
X029615Y016945D01*
X029615Y016805D01*
X029545Y016735D01*
X029615Y016555D02*
X029195Y016555D01*
X029195Y016274D02*
X029615Y016274D01*
X029475Y016414D01*
X029615Y016555D01*
X029545Y009015D02*
X029475Y009015D01*
X029405Y008945D01*
X029335Y009015D01*
X029265Y009015D01*
X029195Y008945D01*
X029195Y008805D01*
X029265Y008735D01*
X029195Y008555D02*
X029615Y008555D01*
X029475Y008414D01*
X029615Y008274D01*
X029195Y008274D01*
X029545Y008735D02*
X029615Y008805D01*
X029615Y008945D01*
X029545Y009015D01*
X029405Y008945D02*
X029405Y008875D01*
X029265Y006215D02*
X029195Y006145D01*
X029195Y005935D01*
X029615Y005935D01*
X029615Y006145D01*
X029545Y006215D01*
X029265Y006215D01*
X029195Y005755D02*
X029615Y005755D01*
X029615Y005474D02*
X029195Y005755D01*
X029195Y005474D02*
X029615Y005474D01*
X029545Y005294D02*
X029615Y005224D01*
X029615Y005084D01*
X029545Y005014D01*
X029265Y005014D01*
X029195Y005084D01*
X029195Y005224D01*
X029265Y005294D01*
X029405Y005294D01*
X029405Y005154D01*
X029405Y003015D02*
X029405Y002735D01*
X029615Y002945D01*
X029195Y002945D01*
X029195Y002555D02*
X029615Y002555D01*
X029475Y002414D01*
X029615Y002274D01*
X029195Y002274D01*
M02*
