%
M48
M72
T01C0.0200
T02C0.0276
T03C0.0320
T04C0.0354
T05C0.0400
T06C0.0433
T07C0.1300
%
T01
X1695Y3055
X12175Y7535
X17135Y9215
X21455Y6335
X24095Y6335
X29135Y6655
X21695Y10655
X22015Y13775
X23935Y16335
X25135Y16335
X24495Y17455
X25135Y17695
X23055Y19935
X24175Y20495
X19135Y19935
X17375Y22815
X3055Y12335
X1375Y13375
T02
X4155Y11655
X4155Y10655
X4155Y9655
X4155Y8655
X5655Y8655
X5655Y10655
X5655Y12655
X4655Y12655
X12655Y8655
X13655Y8655
X15655Y7155
X15655Y6155
X15155Y4155
X15155Y3155
X18655Y2655
X19655Y2655
X26155Y2655
X26155Y1655
X26155Y3655
X26155Y4655
X26155Y6655
X26155Y7655
X26155Y8655
X26155Y9655
X25655Y12655
X26655Y12655
X26155Y15655
X26155Y16655
X26155Y17655
X26155Y18655
X26155Y20655
X26155Y21655
X26155Y22655
X26155Y23655
X16155Y22655
X15155Y22655
X13155Y22155
X13155Y21155
X4155Y22655
X4155Y23655
X6655Y2655
X7655Y2655
T03
X7655Y5655
X7655Y6655
X7655Y7655
X7655Y8655
X7655Y9655
X7655Y10655
X7655Y11655
X7655Y12655
X7655Y13655
X7655Y14655
X7655Y15655
X7655Y16655
X7655Y17655
X7655Y18655
X10655Y18655
X10655Y17655
X10655Y16655
X10655Y15655
X10655Y14655
X10655Y13655
X10655Y12655
X10655Y11655
X10655Y10655
X10655Y9655
X10655Y8655
X10655Y7655
X10655Y6655
X10655Y5655
X13155Y9655
X13155Y10655
X13155Y11655
X13155Y12655
X13155Y13655
X13155Y14655
X13155Y15655
X13155Y16655
X15155Y18155
X16155Y18155
X17155Y18155
X18155Y18155
X19155Y18155
X20155Y18155
X21155Y18155
X22155Y18155
X22155Y21155
X21155Y21155
X20155Y21155
X19155Y21155
X18155Y21155
X17155Y21155
X16155Y21155
X15155Y21155
X16155Y16655
X16155Y15655
X16155Y14655
X16155Y13655
X16155Y12655
X16155Y11655
X16155Y10655
X16155Y9655
X16655Y8155
X17655Y8155
X18655Y8155
X19655Y8155
X20655Y8155
X21655Y8155
X22655Y8155
X23655Y8155
X24337Y9973
X23630Y10680
X22923Y11387
X22216Y12094
X21509Y12802
X20802Y13509
X20094Y14216
X19387Y14923
X18680Y15630
X17973Y16337
X17655Y5155
X16655Y5155
X18655Y5155
X19655Y5155
X20655Y5155
X21655Y5155
X22655Y5155
X23655Y5155
T04
X12155Y6255
X12155Y2255
X3155Y7655
X1655Y7655
X1655Y11655
X3155Y11655
X5655Y21155
X9655Y21155
T05
X8935Y22265
X8935Y24045
X6375Y24045
X6375Y22265
X3155Y21155
X3155Y20155
X3155Y19155
X3155Y18155
X3155Y17155
X3155Y16155
X3655Y6155
X3655Y5155
X3655Y4155
X2155Y4155
X2155Y5155
X2155Y6155
X24655Y19155
X24755Y20155
X24655Y21155
X24755Y22155
X24655Y23155
X24755Y24155
X29155Y13205
X29155Y12105
T06
X28155Y9655
X28155Y7655
X28155Y5655
X28155Y3655
X28155Y1655
X28155Y15655
X28155Y17655
X28155Y19655
X28155Y21655
X28155Y23655
T07
X2155Y2155
X22155Y2155
X22155Y23155
X2155Y23155
M30
