G75*
G70*
%OFA0B0*%
%FSLAX24Y24*%
%IPPOS*%
%LPD*%
%AMOC8*
5,1,8,0,0,1.08239X$1,22.5*
%
%ADD10C,0.0080*%
%ADD11C,0.0050*%
%ADD12C,0.0030*%
%ADD13C,0.0060*%
%ADD14C,0.0040*%
%ADD15C,0.0010*%
%ADD16C,0.0020*%
D10*
X007909Y002155D02*
X008409Y002155D01*
X006379Y002655D02*
X006381Y002726D01*
X006387Y002797D01*
X006397Y002868D01*
X006411Y002937D01*
X006428Y003006D01*
X006450Y003074D01*
X006475Y003141D01*
X006504Y003206D01*
X006536Y003269D01*
X006572Y003331D01*
X006611Y003390D01*
X006654Y003447D01*
X006699Y003502D01*
X006748Y003554D01*
X006799Y003603D01*
X006853Y003649D01*
X006910Y003693D01*
X006968Y003733D01*
X007029Y003769D01*
X007092Y003803D01*
X007157Y003832D01*
X007223Y003858D01*
X007291Y003881D01*
X007359Y003899D01*
X007429Y003914D01*
X007499Y003925D01*
X007570Y003932D01*
X007641Y003935D01*
X007712Y003934D01*
X007783Y003929D01*
X007854Y003920D01*
X007924Y003907D01*
X007993Y003891D01*
X008061Y003870D01*
X008128Y003846D01*
X008194Y003818D01*
X008257Y003786D01*
X008319Y003751D01*
X008379Y003713D01*
X008437Y003671D01*
X008492Y003627D01*
X008545Y003579D01*
X008595Y003528D01*
X008642Y003475D01*
X008686Y003419D01*
X008727Y003361D01*
X008765Y003300D01*
X008799Y003238D01*
X008829Y003173D01*
X008856Y003108D01*
X008880Y003040D01*
X008899Y002972D01*
X008915Y002903D01*
X008927Y002832D01*
X008935Y002762D01*
X008939Y002691D01*
X008939Y002619D01*
X008935Y002548D01*
X008927Y002478D01*
X008915Y002407D01*
X008899Y002338D01*
X008880Y002270D01*
X008856Y002202D01*
X008829Y002137D01*
X008799Y002072D01*
X008765Y002010D01*
X008727Y001949D01*
X008686Y001891D01*
X008642Y001835D01*
X008595Y001782D01*
X008545Y001731D01*
X008492Y001683D01*
X008437Y001639D01*
X008379Y001597D01*
X008319Y001559D01*
X008257Y001524D01*
X008194Y001492D01*
X008128Y001464D01*
X008061Y001440D01*
X007993Y001419D01*
X007924Y001403D01*
X007854Y001390D01*
X007783Y001381D01*
X007712Y001376D01*
X007641Y001375D01*
X007570Y001378D01*
X007499Y001385D01*
X007429Y001396D01*
X007359Y001411D01*
X007291Y001429D01*
X007223Y001452D01*
X007157Y001478D01*
X007092Y001507D01*
X007029Y001541D01*
X006968Y001577D01*
X006910Y001617D01*
X006853Y001661D01*
X006799Y001707D01*
X006748Y001756D01*
X006699Y001808D01*
X006654Y001863D01*
X006611Y001920D01*
X006572Y001979D01*
X006536Y002041D01*
X006504Y002104D01*
X006475Y002169D01*
X006450Y002236D01*
X006428Y002304D01*
X006411Y002373D01*
X006397Y002442D01*
X006387Y002513D01*
X006381Y002584D01*
X006379Y002655D01*
X012187Y003015D02*
X012187Y005495D01*
X013131Y005495D01*
X013131Y003015D01*
X012187Y003015D01*
X015159Y002905D02*
X015159Y003405D01*
X014379Y003655D02*
X014381Y003726D01*
X014387Y003797D01*
X014397Y003868D01*
X014411Y003937D01*
X014428Y004006D01*
X014450Y004074D01*
X014475Y004141D01*
X014504Y004206D01*
X014536Y004269D01*
X014572Y004331D01*
X014611Y004390D01*
X014654Y004447D01*
X014699Y004502D01*
X014748Y004554D01*
X014799Y004603D01*
X014853Y004649D01*
X014910Y004693D01*
X014968Y004733D01*
X015029Y004769D01*
X015092Y004803D01*
X015157Y004832D01*
X015223Y004858D01*
X015291Y004881D01*
X015359Y004899D01*
X015429Y004914D01*
X015499Y004925D01*
X015570Y004932D01*
X015641Y004935D01*
X015712Y004934D01*
X015783Y004929D01*
X015854Y004920D01*
X015924Y004907D01*
X015993Y004891D01*
X016061Y004870D01*
X016128Y004846D01*
X016194Y004818D01*
X016257Y004786D01*
X016319Y004751D01*
X016379Y004713D01*
X016437Y004671D01*
X016492Y004627D01*
X016545Y004579D01*
X016595Y004528D01*
X016642Y004475D01*
X016686Y004419D01*
X016727Y004361D01*
X016765Y004300D01*
X016799Y004238D01*
X016829Y004173D01*
X016856Y004108D01*
X016880Y004040D01*
X016899Y003972D01*
X016915Y003903D01*
X016927Y003832D01*
X016935Y003762D01*
X016939Y003691D01*
X016939Y003619D01*
X016935Y003548D01*
X016927Y003478D01*
X016915Y003407D01*
X016899Y003338D01*
X016880Y003270D01*
X016856Y003202D01*
X016829Y003137D01*
X016799Y003072D01*
X016765Y003010D01*
X016727Y002949D01*
X016686Y002891D01*
X016642Y002835D01*
X016595Y002782D01*
X016545Y002731D01*
X016492Y002683D01*
X016437Y002639D01*
X016379Y002597D01*
X016319Y002559D01*
X016257Y002524D01*
X016194Y002492D01*
X016128Y002464D01*
X016061Y002440D01*
X015993Y002419D01*
X015924Y002403D01*
X015854Y002390D01*
X015783Y002381D01*
X015712Y002376D01*
X015641Y002375D01*
X015570Y002378D01*
X015499Y002385D01*
X015429Y002396D01*
X015359Y002411D01*
X015291Y002429D01*
X015223Y002452D01*
X015157Y002478D01*
X015092Y002507D01*
X015029Y002541D01*
X014968Y002577D01*
X014910Y002617D01*
X014853Y002661D01*
X014799Y002707D01*
X014748Y002756D01*
X014699Y002808D01*
X014654Y002863D01*
X014611Y002920D01*
X014572Y002979D01*
X014536Y003041D01*
X014504Y003104D01*
X014475Y003169D01*
X014450Y003236D01*
X014428Y003304D01*
X014411Y003373D01*
X014397Y003442D01*
X014387Y003513D01*
X014381Y003584D01*
X014379Y003655D01*
X015909Y006655D02*
X016409Y006655D01*
X013659Y008405D02*
X013659Y008905D01*
X007059Y008305D02*
X007059Y011005D01*
X007057Y011064D01*
X007051Y011122D01*
X007042Y011181D01*
X007028Y011238D01*
X007011Y011294D01*
X006990Y011349D01*
X006966Y011403D01*
X006938Y011455D01*
X006907Y011505D01*
X006873Y011553D01*
X006836Y011598D01*
X006795Y011641D01*
X006752Y011682D01*
X006707Y011719D01*
X006659Y011753D01*
X006609Y011784D01*
X006557Y011812D01*
X006503Y011836D01*
X006448Y011857D01*
X006392Y011874D01*
X006335Y011888D01*
X006276Y011897D01*
X006218Y011903D01*
X006159Y011905D01*
X006100Y011903D01*
X006042Y011897D01*
X005983Y011888D01*
X005926Y011874D01*
X005870Y011857D01*
X005815Y011836D01*
X005761Y011812D01*
X005709Y011784D01*
X005659Y011753D01*
X005611Y011719D01*
X005566Y011682D01*
X005523Y011641D01*
X005482Y011598D01*
X005445Y011553D01*
X005411Y011505D01*
X005380Y011455D01*
X005352Y011403D01*
X005328Y011349D01*
X005307Y011294D01*
X005290Y011238D01*
X005276Y011181D01*
X005267Y011122D01*
X005261Y011064D01*
X005259Y011005D01*
X005259Y008305D01*
X005261Y008246D01*
X005267Y008188D01*
X005276Y008129D01*
X005290Y008072D01*
X005307Y008016D01*
X005328Y007961D01*
X005352Y007907D01*
X005380Y007855D01*
X005411Y007805D01*
X005445Y007757D01*
X005482Y007712D01*
X005523Y007669D01*
X005566Y007628D01*
X005611Y007591D01*
X005659Y007557D01*
X005709Y007526D01*
X005761Y007498D01*
X005815Y007474D01*
X005870Y007453D01*
X005926Y007436D01*
X005983Y007422D01*
X006042Y007413D01*
X006100Y007407D01*
X006159Y007405D01*
X006218Y007407D01*
X006276Y007413D01*
X006335Y007422D01*
X006392Y007436D01*
X006448Y007453D01*
X006503Y007474D01*
X006557Y007498D01*
X006609Y007526D01*
X006659Y007557D01*
X006707Y007591D01*
X006752Y007628D01*
X006795Y007669D01*
X006836Y007712D01*
X006873Y007757D01*
X006907Y007805D01*
X006938Y007855D01*
X006966Y007907D01*
X006990Y007961D01*
X007011Y008016D01*
X007028Y008072D01*
X007042Y008129D01*
X007051Y008188D01*
X007057Y008246D01*
X007059Y008305D01*
X004909Y009155D02*
X004409Y009155D01*
X004131Y008415D02*
X003187Y008415D01*
X003187Y010895D01*
X004131Y010895D01*
X004131Y008415D01*
X002631Y008415D02*
X002631Y010895D01*
X001687Y010895D01*
X001687Y008415D01*
X002631Y008415D01*
X004409Y011155D02*
X004909Y011155D01*
X005659Y012405D02*
X005659Y012905D01*
X003909Y015655D02*
X003409Y015655D01*
X003159Y015905D01*
X003159Y016405D01*
X003409Y016655D01*
X003159Y016905D01*
X003159Y017405D01*
X003409Y017655D01*
X003159Y017905D01*
X003159Y018405D01*
X003409Y018655D01*
X003159Y018905D01*
X003159Y019405D01*
X003409Y019655D01*
X003159Y019905D01*
X003159Y020405D01*
X003409Y020655D01*
X003159Y020905D01*
X003159Y021405D01*
X003409Y021655D01*
X003909Y021655D01*
X004159Y021405D01*
X004159Y020905D01*
X003909Y020655D01*
X004159Y020405D01*
X004159Y019905D01*
X003909Y019655D01*
X004159Y019405D01*
X004159Y018905D01*
X003909Y018655D01*
X004159Y018405D01*
X004159Y017905D01*
X003909Y017655D01*
X004159Y017405D01*
X004159Y016905D01*
X003909Y016655D01*
X004159Y016405D01*
X004159Y015905D01*
X003909Y015655D01*
X002900Y015695D02*
X002690Y015905D01*
X002620Y015835D02*
X002900Y016115D01*
X002620Y016115D02*
X002620Y015695D01*
X002440Y015695D02*
X002159Y015695D01*
X002159Y016115D01*
X001979Y016045D02*
X001909Y016115D01*
X001699Y016115D01*
X001699Y015695D01*
X001909Y015695D01*
X001979Y015765D01*
X001979Y015835D01*
X001909Y015905D01*
X001699Y015905D01*
X001909Y015905D02*
X001979Y015975D01*
X001979Y016045D01*
X006919Y020683D02*
X009399Y020683D01*
X009399Y021628D01*
X006919Y021628D01*
X006919Y020683D01*
X004909Y023155D02*
X004409Y023155D01*
X002900Y021615D02*
X002900Y021195D01*
X002620Y021615D01*
X002620Y021195D01*
X002440Y021195D02*
X002300Y021335D01*
X002370Y021335D02*
X002159Y021335D01*
X002159Y021195D02*
X002159Y021615D01*
X002370Y021615D01*
X002440Y021545D01*
X002440Y021405D01*
X002370Y021335D01*
X001979Y021265D02*
X001979Y021405D01*
X001839Y021405D01*
X001699Y021265D02*
X001769Y021195D01*
X001909Y021195D01*
X001979Y021265D01*
X001699Y021265D02*
X001699Y021545D01*
X001769Y021615D01*
X001909Y021615D01*
X001979Y021545D01*
X012379Y021655D02*
X012381Y021726D01*
X012387Y021797D01*
X012397Y021868D01*
X012411Y021937D01*
X012428Y022006D01*
X012450Y022074D01*
X012475Y022141D01*
X012504Y022206D01*
X012536Y022269D01*
X012572Y022331D01*
X012611Y022390D01*
X012654Y022447D01*
X012699Y022502D01*
X012748Y022554D01*
X012799Y022603D01*
X012853Y022649D01*
X012910Y022693D01*
X012968Y022733D01*
X013029Y022769D01*
X013092Y022803D01*
X013157Y022832D01*
X013223Y022858D01*
X013291Y022881D01*
X013359Y022899D01*
X013429Y022914D01*
X013499Y022925D01*
X013570Y022932D01*
X013641Y022935D01*
X013712Y022934D01*
X013783Y022929D01*
X013854Y022920D01*
X013924Y022907D01*
X013993Y022891D01*
X014061Y022870D01*
X014128Y022846D01*
X014194Y022818D01*
X014257Y022786D01*
X014319Y022751D01*
X014379Y022713D01*
X014437Y022671D01*
X014492Y022627D01*
X014545Y022579D01*
X014595Y022528D01*
X014642Y022475D01*
X014686Y022419D01*
X014727Y022361D01*
X014765Y022300D01*
X014799Y022238D01*
X014829Y022173D01*
X014856Y022108D01*
X014880Y022040D01*
X014899Y021972D01*
X014915Y021903D01*
X014927Y021832D01*
X014935Y021762D01*
X014939Y021691D01*
X014939Y021619D01*
X014935Y021548D01*
X014927Y021478D01*
X014915Y021407D01*
X014899Y021338D01*
X014880Y021270D01*
X014856Y021202D01*
X014829Y021137D01*
X014799Y021072D01*
X014765Y021010D01*
X014727Y020949D01*
X014686Y020891D01*
X014642Y020835D01*
X014595Y020782D01*
X014545Y020731D01*
X014492Y020683D01*
X014437Y020639D01*
X014379Y020597D01*
X014319Y020559D01*
X014257Y020524D01*
X014194Y020492D01*
X014128Y020464D01*
X014061Y020440D01*
X013993Y020419D01*
X013924Y020403D01*
X013854Y020390D01*
X013783Y020381D01*
X013712Y020376D01*
X013641Y020375D01*
X013570Y020378D01*
X013499Y020385D01*
X013429Y020396D01*
X013359Y020411D01*
X013291Y020429D01*
X013223Y020452D01*
X013157Y020478D01*
X013092Y020507D01*
X013029Y020541D01*
X012968Y020577D01*
X012910Y020617D01*
X012853Y020661D01*
X012799Y020707D01*
X012748Y020756D01*
X012699Y020808D01*
X012654Y020863D01*
X012611Y020920D01*
X012572Y020979D01*
X012536Y021041D01*
X012504Y021104D01*
X012475Y021169D01*
X012450Y021236D01*
X012428Y021304D01*
X012411Y021373D01*
X012397Y021442D01*
X012387Y021513D01*
X012381Y021584D01*
X012379Y021655D01*
X014159Y021905D02*
X014159Y022405D01*
X016159Y022405D02*
X016159Y022905D01*
X026409Y023155D02*
X026909Y023155D01*
X026909Y021155D02*
X026409Y021155D01*
X026409Y018155D02*
X026909Y018155D01*
X026909Y016155D02*
X026409Y016155D01*
X026409Y013155D02*
X025909Y013155D01*
X025379Y012655D02*
X025381Y012726D01*
X025387Y012797D01*
X025397Y012868D01*
X025411Y012937D01*
X025428Y013006D01*
X025450Y013074D01*
X025475Y013141D01*
X025504Y013206D01*
X025536Y013269D01*
X025572Y013331D01*
X025611Y013390D01*
X025654Y013447D01*
X025699Y013502D01*
X025748Y013554D01*
X025799Y013603D01*
X025853Y013649D01*
X025910Y013693D01*
X025968Y013733D01*
X026029Y013769D01*
X026092Y013803D01*
X026157Y013832D01*
X026223Y013858D01*
X026291Y013881D01*
X026359Y013899D01*
X026429Y013914D01*
X026499Y013925D01*
X026570Y013932D01*
X026641Y013935D01*
X026712Y013934D01*
X026783Y013929D01*
X026854Y013920D01*
X026924Y013907D01*
X026993Y013891D01*
X027061Y013870D01*
X027128Y013846D01*
X027194Y013818D01*
X027257Y013786D01*
X027319Y013751D01*
X027379Y013713D01*
X027437Y013671D01*
X027492Y013627D01*
X027545Y013579D01*
X027595Y013528D01*
X027642Y013475D01*
X027686Y013419D01*
X027727Y013361D01*
X027765Y013300D01*
X027799Y013238D01*
X027829Y013173D01*
X027856Y013108D01*
X027880Y013040D01*
X027899Y012972D01*
X027915Y012903D01*
X027927Y012832D01*
X027935Y012762D01*
X027939Y012691D01*
X027939Y012619D01*
X027935Y012548D01*
X027927Y012478D01*
X027915Y012407D01*
X027899Y012338D01*
X027880Y012270D01*
X027856Y012202D01*
X027829Y012137D01*
X027799Y012072D01*
X027765Y012010D01*
X027727Y011949D01*
X027686Y011891D01*
X027642Y011835D01*
X027595Y011782D01*
X027545Y011731D01*
X027492Y011683D01*
X027437Y011639D01*
X027379Y011597D01*
X027319Y011559D01*
X027257Y011524D01*
X027194Y011492D01*
X027128Y011464D01*
X027061Y011440D01*
X026993Y011419D01*
X026924Y011403D01*
X026854Y011390D01*
X026783Y011381D01*
X026712Y011376D01*
X026641Y011375D01*
X026570Y011378D01*
X026499Y011385D01*
X026429Y011396D01*
X026359Y011411D01*
X026291Y011429D01*
X026223Y011452D01*
X026157Y011478D01*
X026092Y011507D01*
X026029Y011541D01*
X025968Y011577D01*
X025910Y011617D01*
X025853Y011661D01*
X025799Y011707D01*
X025748Y011756D01*
X025699Y011808D01*
X025654Y011863D01*
X025611Y011920D01*
X025572Y011979D01*
X025536Y012041D01*
X025504Y012104D01*
X025475Y012169D01*
X025450Y012236D01*
X025428Y012304D01*
X025411Y012373D01*
X025397Y012442D01*
X025387Y012513D01*
X025381Y012584D01*
X025379Y012655D01*
X026409Y009155D02*
X026909Y009155D01*
X026909Y007155D02*
X026409Y007155D01*
X026409Y004155D02*
X026909Y004155D01*
X026909Y002155D02*
X026409Y002155D01*
X030699Y002274D02*
X030839Y002414D01*
X030699Y002555D01*
X031119Y002555D01*
X030909Y002735D02*
X030909Y003015D01*
X031119Y002945D02*
X030699Y002945D01*
X030909Y002735D01*
X031119Y002274D02*
X030699Y002274D01*
X030769Y005014D02*
X031049Y005014D01*
X031119Y005084D01*
X031119Y005224D01*
X031049Y005294D01*
X030909Y005294D01*
X030909Y005154D01*
X030769Y005014D02*
X030699Y005084D01*
X030699Y005224D01*
X030769Y005294D01*
X030699Y005474D02*
X031119Y005755D01*
X030699Y005755D01*
X030699Y005935D02*
X030699Y006145D01*
X030769Y006215D01*
X031049Y006215D01*
X031119Y006145D01*
X031119Y005935D01*
X030699Y005935D01*
X030699Y005474D02*
X031119Y005474D01*
X031119Y008274D02*
X030699Y008274D01*
X030839Y008414D01*
X030699Y008555D01*
X031119Y008555D01*
X031049Y008735D02*
X031119Y008805D01*
X031119Y008945D01*
X031049Y009015D01*
X030979Y009015D01*
X030909Y008945D01*
X030909Y008875D01*
X030909Y008945D02*
X030839Y009015D01*
X030769Y009015D01*
X030699Y008945D01*
X030699Y008805D01*
X030769Y008735D01*
X030699Y016274D02*
X030839Y016414D01*
X030699Y016555D01*
X031119Y016555D01*
X031119Y016735D02*
X030839Y017015D01*
X030769Y017015D01*
X030699Y016945D01*
X030699Y016805D01*
X030769Y016735D01*
X031119Y016735D02*
X031119Y017015D01*
X031119Y016274D02*
X030699Y016274D01*
X030769Y019064D02*
X031049Y019064D01*
X031119Y019134D01*
X031119Y019274D01*
X031049Y019344D01*
X030909Y019344D01*
X030909Y019204D01*
X030769Y019064D02*
X030699Y019134D01*
X030699Y019274D01*
X030769Y019344D01*
X030699Y019524D02*
X031119Y019805D01*
X030699Y019805D01*
X030699Y019985D02*
X030699Y020195D01*
X030769Y020265D01*
X031049Y020265D01*
X031119Y020195D01*
X031119Y019985D01*
X030699Y019985D01*
X030699Y019524D02*
X031119Y019524D01*
X031119Y022274D02*
X030699Y022274D01*
X030839Y022414D01*
X030699Y022555D01*
X031119Y022555D01*
X031119Y022735D02*
X031119Y023015D01*
X031119Y022875D02*
X030699Y022875D01*
X030839Y022735D01*
X019409Y003155D02*
X018909Y003155D01*
X018379Y002655D02*
X018381Y002726D01*
X018387Y002797D01*
X018397Y002868D01*
X018411Y002937D01*
X018428Y003006D01*
X018450Y003074D01*
X018475Y003141D01*
X018504Y003206D01*
X018536Y003269D01*
X018572Y003331D01*
X018611Y003390D01*
X018654Y003447D01*
X018699Y003502D01*
X018748Y003554D01*
X018799Y003603D01*
X018853Y003649D01*
X018910Y003693D01*
X018968Y003733D01*
X019029Y003769D01*
X019092Y003803D01*
X019157Y003832D01*
X019223Y003858D01*
X019291Y003881D01*
X019359Y003899D01*
X019429Y003914D01*
X019499Y003925D01*
X019570Y003932D01*
X019641Y003935D01*
X019712Y003934D01*
X019783Y003929D01*
X019854Y003920D01*
X019924Y003907D01*
X019993Y003891D01*
X020061Y003870D01*
X020128Y003846D01*
X020194Y003818D01*
X020257Y003786D01*
X020319Y003751D01*
X020379Y003713D01*
X020437Y003671D01*
X020492Y003627D01*
X020545Y003579D01*
X020595Y003528D01*
X020642Y003475D01*
X020686Y003419D01*
X020727Y003361D01*
X020765Y003300D01*
X020799Y003238D01*
X020829Y003173D01*
X020856Y003108D01*
X020880Y003040D01*
X020899Y002972D01*
X020915Y002903D01*
X020927Y002832D01*
X020935Y002762D01*
X020939Y002691D01*
X020939Y002619D01*
X020935Y002548D01*
X020927Y002478D01*
X020915Y002407D01*
X020899Y002338D01*
X020880Y002270D01*
X020856Y002202D01*
X020829Y002137D01*
X020799Y002072D01*
X020765Y002010D01*
X020727Y001949D01*
X020686Y001891D01*
X020642Y001835D01*
X020595Y001782D01*
X020545Y001731D01*
X020492Y001683D01*
X020437Y001639D01*
X020379Y001597D01*
X020319Y001559D01*
X020257Y001524D01*
X020194Y001492D01*
X020128Y001464D01*
X020061Y001440D01*
X019993Y001419D01*
X019924Y001403D01*
X019854Y001390D01*
X019783Y001381D01*
X019712Y001376D01*
X019641Y001375D01*
X019570Y001378D01*
X019499Y001385D01*
X019429Y001396D01*
X019359Y001411D01*
X019291Y001429D01*
X019223Y001452D01*
X019157Y001478D01*
X019092Y001507D01*
X019029Y001541D01*
X018968Y001577D01*
X018910Y001617D01*
X018853Y001661D01*
X018799Y001707D01*
X018748Y001756D01*
X018699Y001808D01*
X018654Y001863D01*
X018611Y001920D01*
X018572Y001979D01*
X018536Y002041D01*
X018504Y002104D01*
X018475Y002169D01*
X018450Y002236D01*
X018428Y002304D01*
X018411Y002373D01*
X018397Y002442D01*
X018387Y002513D01*
X018381Y002584D01*
X018379Y002655D01*
D11*
X012784Y003380D02*
X012784Y003560D01*
X012784Y003470D02*
X012514Y003470D01*
X012604Y003380D01*
X012559Y003675D02*
X012514Y003720D01*
X012514Y003810D01*
X012559Y003855D01*
X012739Y003675D01*
X012784Y003720D01*
X012784Y003810D01*
X012739Y003855D01*
X012559Y003855D01*
X012514Y003969D02*
X012784Y003969D01*
X012694Y003969D02*
X012604Y004104D01*
X012694Y003969D02*
X012784Y004104D01*
X012739Y003675D02*
X012559Y003675D01*
X021118Y010231D02*
X021224Y010125D01*
X021295Y010125D01*
X021437Y010266D01*
X021437Y010337D01*
X021331Y010443D01*
X021118Y010231D01*
X021381Y010038D02*
X021381Y009967D01*
X021452Y009897D01*
X021523Y009897D01*
X021558Y009932D01*
X021558Y010003D01*
X021488Y010074D01*
X021488Y010144D01*
X021523Y010180D01*
X021594Y010180D01*
X021665Y010109D01*
X021665Y010038D01*
X020910Y010651D02*
X020769Y010793D01*
X020348Y011001D02*
X020207Y011142D01*
X020278Y011071D02*
X020490Y011284D01*
X020348Y011284D01*
X020298Y011405D02*
X020014Y011405D01*
X020014Y011335D01*
X020085Y011264D01*
X020156Y011264D01*
X020298Y011405D01*
X020298Y011476D01*
X020227Y011547D01*
X020156Y011547D01*
X020014Y011405D01*
X019928Y011492D02*
X019857Y011492D01*
X019787Y011563D01*
X019787Y011633D01*
X020070Y011633D01*
X019928Y011492D01*
X019787Y011633D02*
X019928Y011775D01*
X019999Y011775D01*
X020070Y011704D01*
X020070Y011633D01*
X019842Y011861D02*
X019842Y011932D01*
X019771Y012003D01*
X019700Y012003D01*
X019842Y011861D02*
X019806Y011826D01*
X019523Y011826D01*
X019665Y011684D01*
X019209Y012140D02*
X019315Y012246D01*
X019315Y012317D01*
X019245Y012388D01*
X019174Y012388D01*
X019123Y012509D02*
X019017Y012616D01*
X018946Y012616D01*
X018875Y012545D01*
X018875Y012474D01*
X018981Y012368D01*
X019068Y012282D02*
X019280Y012494D01*
X018898Y012735D02*
X018862Y012770D01*
X018721Y012770D01*
X018650Y012699D02*
X018792Y012841D01*
X018670Y012892D02*
X018564Y012786D01*
X018458Y012892D01*
X018458Y012963D01*
X018528Y012963D01*
X018635Y012856D01*
X018670Y012892D02*
X018670Y012963D01*
X018599Y013033D01*
X018548Y013226D02*
X018336Y013014D01*
X018194Y013155D02*
X018407Y013367D01*
X018407Y013226D01*
X018548Y013226D01*
X018878Y013471D02*
X019019Y013613D01*
X019126Y013507D01*
X019126Y013436D01*
X019019Y013330D01*
X019106Y013244D02*
X019176Y013173D01*
X019141Y013208D02*
X019283Y013350D01*
X019247Y013385D01*
X019353Y013421D02*
X019389Y013456D01*
X019364Y013198D02*
X019293Y013127D01*
X019293Y013056D01*
X019399Y012950D01*
X019485Y012864D02*
X019698Y013076D01*
X019804Y012970D01*
X019804Y012899D01*
X019769Y012864D01*
X019698Y012864D01*
X019592Y012970D01*
X019541Y013092D02*
X019435Y013198D01*
X019364Y013198D01*
X019485Y012864D02*
X019592Y012758D01*
X019662Y012758D01*
X019698Y012793D01*
X019698Y012864D01*
X019819Y012742D02*
X019749Y012671D01*
X019749Y012601D01*
X019819Y012530D01*
X019890Y012530D01*
X019961Y012601D01*
X019961Y012671D01*
X019890Y012742D01*
X019819Y012742D01*
X020083Y012550D02*
X020153Y012479D01*
X020153Y012550D02*
X020012Y012408D01*
X020012Y012337D01*
X020462Y012170D02*
X020392Y011957D01*
X020604Y012028D01*
X020690Y011942D02*
X020832Y011942D01*
X020619Y011730D01*
X020549Y011800D02*
X020690Y011659D01*
X020777Y011573D02*
X020812Y011537D01*
X020847Y011573D01*
X020812Y011608D01*
X020777Y011573D01*
X020890Y011459D02*
X021032Y011317D01*
X020961Y011388D02*
X021173Y011600D01*
X021032Y011600D01*
X018898Y013664D02*
X018898Y013735D01*
X018827Y013806D01*
X018756Y013806D01*
X018685Y013735D01*
X018685Y013664D01*
X018756Y013593D01*
X018827Y013593D01*
X018898Y013664D01*
X018670Y013892D02*
X018564Y013786D01*
X018670Y013892D02*
X018670Y013963D01*
X018599Y014033D01*
X018528Y014033D01*
X018442Y014120D02*
X018513Y014190D01*
X018513Y014261D01*
X018407Y014367D01*
X018194Y014155D01*
X018265Y014226D02*
X018371Y014120D01*
X018442Y014120D01*
X018635Y014140D02*
X018422Y013927D01*
X023959Y018655D02*
X023959Y024655D01*
X026159Y024655D01*
X026159Y024155D01*
X025659Y024155D01*
X025659Y019155D01*
X026159Y019155D01*
X026159Y018655D01*
X023959Y018655D01*
X024140Y018830D02*
X024240Y018930D01*
X024240Y019130D01*
X024362Y018980D02*
X024562Y018980D01*
X024462Y019080D02*
X024462Y018880D01*
X024140Y018830D02*
X024040Y018930D01*
X024040Y019130D01*
X024039Y019830D02*
X024190Y019830D01*
X024240Y019880D01*
X024240Y020080D01*
X024190Y020130D01*
X024039Y020130D01*
X024039Y019830D01*
X023917Y019880D02*
X023867Y019830D01*
X023767Y019830D01*
X023717Y019880D01*
X023767Y019980D02*
X023867Y019980D01*
X023917Y019930D01*
X023917Y019880D01*
X023767Y019980D02*
X023717Y020030D01*
X023717Y020080D01*
X023767Y020130D01*
X023867Y020130D01*
X023917Y020080D01*
X024362Y020030D02*
X024362Y019830D01*
X024362Y019980D02*
X024562Y019980D01*
X024562Y020030D02*
X024562Y019830D01*
X024562Y020030D02*
X024462Y020130D01*
X024362Y020030D01*
X024362Y020830D02*
X024562Y020830D01*
X024362Y020830D02*
X024362Y021130D01*
X024240Y021080D02*
X024190Y021130D01*
X024090Y021130D01*
X024039Y021080D01*
X024039Y020880D01*
X024090Y020830D01*
X024190Y020830D01*
X024240Y020880D01*
X023917Y020880D02*
X023917Y020930D01*
X023867Y020980D01*
X023767Y020980D01*
X023717Y021030D01*
X023717Y021080D01*
X023767Y021130D01*
X023867Y021130D01*
X023917Y021080D01*
X023917Y020880D02*
X023867Y020830D01*
X023767Y020830D01*
X023717Y020880D01*
X023767Y021830D02*
X023867Y021830D01*
X023917Y021880D01*
X023917Y021980D01*
X023817Y021980D01*
X023717Y022080D02*
X023717Y021880D01*
X023767Y021830D01*
X023717Y022080D02*
X023767Y022130D01*
X023867Y022130D01*
X023917Y022080D01*
X024039Y022130D02*
X024240Y021830D01*
X024240Y022130D01*
X024362Y022130D02*
X024512Y022130D01*
X024562Y022080D01*
X024562Y021880D01*
X024512Y021830D01*
X024362Y021830D01*
X024362Y022130D01*
X024039Y022130D02*
X024039Y021830D01*
X024140Y022830D02*
X024240Y022930D01*
X024240Y023130D01*
X024362Y022980D02*
X024562Y022980D01*
X024462Y023080D02*
X024462Y022880D01*
X024140Y022830D02*
X024040Y022930D01*
X024040Y023130D01*
X024090Y023830D02*
X024190Y023830D01*
X024240Y023880D01*
X024362Y023880D02*
X024412Y023830D01*
X024512Y023830D01*
X024562Y023880D01*
X024362Y023880D02*
X024362Y024080D01*
X024412Y024130D01*
X024512Y024130D01*
X024562Y024080D01*
X024240Y024080D02*
X024190Y024130D01*
X024090Y024130D01*
X024039Y024080D01*
X024039Y023880D01*
X024090Y023830D01*
X023917Y023930D02*
X023917Y024130D01*
X023717Y024130D02*
X023717Y023930D01*
X023817Y023830D01*
X023917Y023930D01*
X026159Y024155D02*
X026159Y019155D01*
X027159Y019155D02*
X027159Y014655D01*
X030659Y014655D01*
X030659Y019155D01*
X030659Y018155D02*
X030659Y024655D01*
X027159Y024655D01*
X027159Y018155D01*
X028684Y013980D02*
X028684Y013780D01*
X028784Y013680D01*
X028884Y013780D01*
X028884Y013980D01*
X029006Y013830D02*
X029206Y013830D01*
X029106Y013930D02*
X029106Y013730D01*
X028659Y013655D02*
X028659Y013155D01*
X029159Y013155D01*
X029159Y012155D01*
X028659Y012155D01*
X028659Y013155D01*
X028659Y013655D02*
X030859Y013655D01*
X030859Y011655D01*
X028659Y011655D01*
X028659Y012155D01*
X027159Y010655D02*
X030659Y010655D01*
X030659Y004155D01*
X030659Y005155D02*
X030659Y000655D01*
X027159Y000655D01*
X027159Y005155D01*
X027159Y004155D02*
X027159Y010655D01*
X008053Y021030D02*
X007918Y021165D01*
X007873Y021120D02*
X008053Y021300D01*
X007873Y021300D02*
X007873Y021030D01*
X007759Y021075D02*
X007714Y021030D01*
X007624Y021030D01*
X007579Y021075D01*
X007759Y021255D01*
X007759Y021075D01*
X007759Y021255D02*
X007714Y021300D01*
X007624Y021300D01*
X007579Y021255D01*
X007579Y021075D01*
X007464Y021030D02*
X007284Y021030D01*
X007374Y021030D02*
X007374Y021300D01*
X007284Y021210D01*
X001834Y014822D02*
X001667Y014822D01*
X001667Y014905D02*
X001667Y014947D01*
X001667Y014905D02*
X001751Y014822D01*
X001834Y014712D02*
X001584Y014712D01*
X001667Y014712D02*
X001667Y014587D01*
X001709Y014545D01*
X001792Y014545D01*
X001834Y014587D01*
X001834Y014712D01*
X001834Y014436D02*
X001584Y014436D01*
X001667Y014436D02*
X001667Y014311D01*
X001709Y014269D01*
X001792Y014269D01*
X001834Y014311D01*
X001834Y014436D01*
X001834Y014160D02*
X001667Y014160D01*
X001584Y014076D01*
X001667Y013993D01*
X001834Y013993D01*
X001709Y013993D02*
X001709Y014160D01*
X001792Y013607D02*
X001834Y013566D01*
X001834Y013482D01*
X001792Y013440D01*
X001626Y013440D01*
X001584Y013482D01*
X001584Y013566D01*
X001626Y013607D01*
X001834Y013331D02*
X001834Y013164D01*
X001834Y013248D02*
X001584Y013248D01*
X001667Y013164D01*
X001584Y013064D02*
X001584Y012980D01*
X001584Y013022D02*
X001834Y013022D01*
X001834Y012980D02*
X001834Y013064D01*
X002014Y009255D02*
X002284Y009255D01*
X002284Y009075D02*
X002014Y009075D01*
X002104Y009165D01*
X002014Y009255D01*
X002284Y008960D02*
X002284Y008780D01*
X002284Y008870D02*
X002014Y008870D01*
X002104Y008780D01*
X003514Y008870D02*
X003784Y008870D01*
X003784Y008780D02*
X003784Y008960D01*
X003784Y009075D02*
X003514Y009075D01*
X003604Y009165D01*
X003514Y009255D01*
X003784Y009255D01*
X003514Y008870D02*
X003604Y008780D01*
D12*
X004174Y013170D02*
X004231Y013227D01*
X004174Y013284D01*
X004344Y013284D01*
X004316Y013354D02*
X004344Y013383D01*
X004344Y013439D01*
X004316Y013468D01*
X004287Y013468D01*
X004259Y013439D01*
X004259Y013383D01*
X004231Y013354D01*
X004202Y013354D01*
X004174Y013383D01*
X004174Y013439D01*
X004202Y013468D01*
X004174Y013538D02*
X004174Y013623D01*
X004202Y013652D01*
X004231Y013652D01*
X004259Y013623D01*
X004259Y013538D01*
X004344Y013538D02*
X004344Y013623D01*
X004316Y013652D01*
X004287Y013652D01*
X004259Y013623D01*
X004344Y013538D02*
X004174Y013538D01*
X004174Y013170D02*
X004344Y013170D01*
X004344Y014120D02*
X004344Y014234D01*
X004316Y014304D02*
X004344Y014333D01*
X004344Y014389D01*
X004316Y014418D01*
X004287Y014418D01*
X004259Y014389D01*
X004259Y014333D01*
X004231Y014304D01*
X004202Y014304D01*
X004174Y014333D01*
X004174Y014389D01*
X004202Y014418D01*
X004174Y014488D02*
X004174Y014573D01*
X004202Y014602D01*
X004231Y014602D01*
X004259Y014573D01*
X004259Y014488D01*
X004344Y014488D02*
X004344Y014573D01*
X004316Y014602D01*
X004287Y014602D01*
X004259Y014573D01*
X004344Y014488D02*
X004174Y014488D01*
X004174Y014120D02*
X004344Y014120D01*
X003816Y014970D02*
X003702Y015084D01*
X003816Y015084D01*
X003844Y015055D01*
X003844Y014998D01*
X003816Y014970D01*
X003702Y014970D01*
X003674Y014998D01*
X003674Y015055D01*
X003702Y015084D01*
X002344Y015084D02*
X002344Y014970D01*
X002344Y015027D02*
X002174Y015027D01*
X002231Y014970D01*
X002424Y017988D02*
X002424Y018202D01*
X002424Y018311D02*
X002424Y018524D01*
X002424Y018417D02*
X002744Y018417D01*
X002744Y018633D02*
X002424Y018633D01*
X002424Y018793D01*
X002477Y018846D01*
X002691Y018846D01*
X002744Y018793D01*
X002744Y018633D01*
X002744Y018955D02*
X002744Y019062D01*
X002744Y019009D02*
X002424Y019009D01*
X002424Y019062D02*
X002424Y018955D01*
X002584Y018095D02*
X002584Y017988D01*
X002744Y017988D02*
X002424Y017988D01*
X011974Y023170D02*
X012188Y023170D01*
X012081Y023170D02*
X012081Y023490D01*
X011974Y023384D01*
X012296Y023437D02*
X012350Y023490D01*
X012456Y023490D01*
X012510Y023437D01*
X012296Y023223D01*
X012350Y023170D01*
X012456Y023170D01*
X012510Y023223D01*
X012510Y023437D01*
X012619Y023437D02*
X012672Y023490D01*
X012779Y023490D01*
X012832Y023437D01*
X012619Y023223D01*
X012672Y023170D01*
X012779Y023170D01*
X012832Y023223D01*
X012832Y023437D01*
X012941Y023384D02*
X012941Y023223D01*
X012994Y023170D01*
X013154Y023170D01*
X013154Y023384D01*
X013263Y023330D02*
X013370Y023330D01*
X013263Y023170D02*
X013263Y023490D01*
X013477Y023490D01*
X013799Y023490D02*
X013585Y023170D01*
X013908Y023223D02*
X013961Y023170D01*
X014068Y023170D01*
X014121Y023223D01*
X014121Y023277D01*
X014068Y023330D01*
X013908Y023330D01*
X013908Y023223D01*
X013908Y023330D02*
X014014Y023437D01*
X014121Y023490D01*
X014230Y023490D02*
X014230Y023277D01*
X014336Y023170D01*
X014443Y023277D01*
X014443Y023490D01*
X012619Y023437D02*
X012619Y023223D01*
X012296Y023223D02*
X012296Y023437D01*
X024874Y013889D02*
X025087Y013889D01*
X025194Y013783D01*
X025087Y013676D01*
X024874Y013676D01*
X024874Y013567D02*
X024927Y013460D01*
X025034Y013354D01*
X025034Y013514D01*
X025087Y013567D01*
X025141Y013567D01*
X025194Y013514D01*
X025194Y013407D01*
X025141Y013354D01*
X025034Y013354D01*
X025194Y013245D02*
X025194Y013031D01*
X025194Y013138D02*
X024874Y013138D01*
X024981Y013031D01*
X024874Y012923D02*
X025194Y012709D01*
X025034Y012494D02*
X025034Y012387D01*
X024981Y012278D02*
X025194Y012278D01*
X025194Y012118D01*
X025141Y012065D01*
X024981Y012065D01*
X024927Y011956D02*
X025141Y011742D01*
X025194Y011742D01*
X025194Y011580D02*
X024874Y011580D01*
X025034Y011420D01*
X025034Y011634D01*
X024874Y011742D02*
X024874Y011956D01*
X024927Y011956D01*
X024874Y012387D02*
X024874Y012600D01*
X024874Y012387D02*
X025194Y012387D01*
X016615Y002190D02*
X016615Y001977D01*
X016508Y001870D01*
X016402Y001977D01*
X016402Y002190D01*
X016293Y002190D02*
X016186Y002137D01*
X016079Y002030D01*
X016239Y002030D01*
X016293Y001977D01*
X016293Y001923D01*
X016239Y001870D01*
X016133Y001870D01*
X016079Y001923D01*
X016079Y002030D01*
X015971Y002190D02*
X015757Y001870D01*
X015542Y002030D02*
X015435Y002030D01*
X015326Y002084D02*
X015326Y001870D01*
X015166Y001870D01*
X015113Y001923D01*
X015113Y002084D01*
X015004Y002137D02*
X014790Y001923D01*
X014844Y001870D01*
X014950Y001870D01*
X015004Y001923D01*
X015004Y002137D01*
X014950Y002190D01*
X014844Y002190D01*
X014790Y002137D01*
X014790Y001923D01*
X014682Y001923D02*
X014628Y001870D01*
X014521Y001870D01*
X014468Y001923D01*
X014682Y002137D01*
X014682Y001923D01*
X014468Y001923D02*
X014468Y002137D01*
X014521Y002190D01*
X014628Y002190D01*
X014682Y002137D01*
X014359Y001870D02*
X014146Y001870D01*
X014253Y001870D02*
X014253Y002190D01*
X014146Y002084D01*
X015435Y002190D02*
X015435Y001870D01*
X015435Y002190D02*
X015648Y002190D01*
X018924Y001130D02*
X019138Y001130D01*
X019246Y001023D02*
X019246Y000970D01*
X019246Y001023D02*
X019460Y001237D01*
X019460Y001290D01*
X019246Y001290D01*
X019084Y001290D02*
X018924Y001130D01*
X019084Y000970D02*
X019084Y001290D01*
X019569Y001184D02*
X019569Y001023D01*
X019622Y000970D01*
X019782Y000970D01*
X019782Y001184D01*
X019891Y001130D02*
X019998Y001130D01*
X020104Y001290D02*
X019891Y001290D01*
X019891Y000970D01*
X020213Y000970D02*
X020427Y001290D01*
X020535Y001184D02*
X020642Y001290D01*
X020642Y000970D01*
X020535Y000970D02*
X020749Y000970D01*
X020858Y001023D02*
X020911Y000970D01*
X021018Y000970D01*
X021071Y001023D01*
X021071Y001077D01*
X021018Y001130D01*
X020858Y001130D01*
X020858Y001023D01*
X020858Y001130D02*
X020964Y001237D01*
X021071Y001290D01*
X021180Y001290D02*
X021180Y001077D01*
X021286Y000970D01*
X021393Y001077D01*
X021393Y001290D01*
X006164Y001313D02*
X006164Y001506D01*
X006164Y001410D02*
X005874Y001410D01*
X005971Y001313D01*
X005922Y001608D02*
X005874Y001656D01*
X005874Y001753D01*
X005922Y001801D01*
X006116Y001608D01*
X006164Y001656D01*
X006164Y001753D01*
X006116Y001801D01*
X005922Y001801D01*
X005922Y001902D02*
X005874Y001951D01*
X005874Y002047D01*
X005922Y002096D01*
X006116Y001902D01*
X006164Y001951D01*
X006164Y002047D01*
X006116Y002096D01*
X005922Y002096D01*
X005971Y002197D02*
X006116Y002197D01*
X006164Y002245D01*
X006164Y002390D01*
X005971Y002390D01*
X006019Y002491D02*
X006019Y002588D01*
X006164Y002491D02*
X005874Y002491D01*
X005874Y002685D01*
X005874Y002980D02*
X006164Y002786D01*
X006116Y003081D02*
X006019Y003081D01*
X006019Y003226D01*
X006067Y003274D01*
X006116Y003274D01*
X006164Y003226D01*
X006164Y003129D01*
X006116Y003081D01*
X006019Y003081D02*
X005922Y003178D01*
X005874Y003274D01*
X005874Y003375D02*
X006067Y003375D01*
X006164Y003472D01*
X006067Y003569D01*
X005874Y003569D01*
X005922Y001902D02*
X006116Y001902D01*
X006116Y001608D02*
X005922Y001608D01*
D13*
X002409Y003655D02*
X002159Y003905D01*
X002159Y004405D01*
X002409Y004655D01*
X002159Y004905D01*
X002159Y005405D01*
X002409Y005655D01*
X002159Y005905D01*
X002159Y006405D01*
X002409Y006655D01*
X002909Y006655D01*
X003159Y006405D01*
X003159Y005905D01*
X002909Y005655D01*
X003159Y005405D01*
X003159Y004905D01*
X002909Y004655D01*
X003159Y004405D01*
X003159Y003905D01*
X002909Y003655D01*
X002409Y003655D01*
X002409Y004655D02*
X002909Y004655D01*
X003659Y004405D02*
X003909Y004655D01*
X003659Y004905D01*
X003659Y005405D01*
X003909Y005655D01*
X003659Y005905D01*
X003659Y006405D01*
X003909Y006655D01*
X004409Y006655D01*
X004659Y006405D01*
X004659Y005905D01*
X004409Y005655D01*
X004659Y005405D01*
X004659Y004905D01*
X004409Y004655D01*
X004659Y004405D01*
X004659Y003905D01*
X004409Y003655D01*
X003909Y003655D01*
X003659Y003905D01*
X003659Y004405D01*
X003909Y004655D02*
X004409Y004655D01*
X004409Y005655D02*
X003909Y005655D01*
X002909Y005655D02*
X002409Y005655D01*
X008559Y004855D02*
X010759Y004855D01*
X010759Y019455D01*
X009909Y019455D01*
X009907Y019425D01*
X009902Y019395D01*
X009893Y019366D01*
X009880Y019339D01*
X009865Y019313D01*
X009846Y019289D01*
X009825Y019268D01*
X009801Y019249D01*
X009775Y019234D01*
X009748Y019221D01*
X009719Y019212D01*
X009689Y019207D01*
X009659Y019205D01*
X009629Y019207D01*
X009599Y019212D01*
X009570Y019221D01*
X009543Y019234D01*
X009517Y019249D01*
X009493Y019268D01*
X009472Y019289D01*
X009453Y019313D01*
X009438Y019339D01*
X009425Y019366D01*
X009416Y019395D01*
X009411Y019425D01*
X009409Y019455D01*
X008559Y019455D01*
X008559Y004855D01*
X014009Y009155D02*
X014759Y009155D01*
X014761Y009194D01*
X014767Y009233D01*
X014776Y009271D01*
X014789Y009308D01*
X014806Y009344D01*
X014826Y009377D01*
X014850Y009409D01*
X014876Y009438D01*
X014905Y009464D01*
X014937Y009488D01*
X014970Y009508D01*
X015006Y009525D01*
X015043Y009538D01*
X015081Y009547D01*
X015120Y009553D01*
X015159Y009555D01*
X015198Y009553D01*
X015237Y009547D01*
X015275Y009538D01*
X015312Y009525D01*
X015348Y009508D01*
X015381Y009488D01*
X015413Y009464D01*
X015442Y009438D01*
X015468Y009409D01*
X015492Y009377D01*
X015512Y009344D01*
X015529Y009308D01*
X015542Y009271D01*
X015551Y009233D01*
X015557Y009194D01*
X015559Y009155D01*
X016309Y009155D01*
X016309Y017155D01*
X014009Y017155D01*
X014009Y009155D01*
X016659Y007805D02*
X016659Y007055D01*
X016698Y007053D01*
X016737Y007047D01*
X016775Y007038D01*
X016812Y007025D01*
X016848Y007008D01*
X016881Y006988D01*
X016913Y006964D01*
X016942Y006938D01*
X016968Y006909D01*
X016992Y006877D01*
X017012Y006844D01*
X017029Y006808D01*
X017042Y006771D01*
X017051Y006733D01*
X017057Y006694D01*
X017059Y006655D01*
X017057Y006616D01*
X017051Y006577D01*
X017042Y006539D01*
X017029Y006502D01*
X017012Y006466D01*
X016992Y006433D01*
X016968Y006401D01*
X016942Y006372D01*
X016913Y006346D01*
X016881Y006322D01*
X016848Y006302D01*
X016812Y006285D01*
X016775Y006272D01*
X016737Y006263D01*
X016698Y006257D01*
X016659Y006255D01*
X016659Y005505D01*
X024659Y005505D01*
X024659Y007805D01*
X016659Y007805D01*
X018477Y015630D02*
X024841Y009266D01*
X025548Y009973D01*
X019184Y016337D01*
X018477Y017044D01*
X018477Y016691D01*
X018477Y017044D02*
X017770Y016337D01*
X018477Y015630D01*
X019184Y016337D01*
X018831Y016337D01*
X018477Y015984D02*
X018477Y015630D01*
X018124Y016337D02*
X017770Y016337D01*
X015159Y018505D02*
X015159Y019255D01*
X015198Y019257D01*
X015237Y019263D01*
X015275Y019272D01*
X015312Y019285D01*
X015348Y019302D01*
X015381Y019322D01*
X015413Y019346D01*
X015442Y019372D01*
X015468Y019401D01*
X015492Y019433D01*
X015512Y019466D01*
X015529Y019502D01*
X015542Y019539D01*
X015551Y019577D01*
X015557Y019616D01*
X015559Y019655D01*
X015557Y019694D01*
X015551Y019733D01*
X015542Y019771D01*
X015529Y019808D01*
X015512Y019844D01*
X015492Y019877D01*
X015468Y019909D01*
X015442Y019938D01*
X015413Y019964D01*
X015381Y019988D01*
X015348Y020008D01*
X015312Y020025D01*
X015275Y020038D01*
X015237Y020047D01*
X015198Y020053D01*
X015159Y020055D01*
X015159Y020805D01*
X023159Y020805D01*
X023159Y018505D01*
X015159Y018505D01*
X009459Y022855D02*
X009459Y023455D01*
X009359Y023455D01*
X009359Y023555D01*
X009359Y022855D02*
X009359Y022755D01*
X009359Y022855D02*
X009459Y022855D01*
X009009Y021955D02*
X008659Y021955D01*
X007659Y021955D01*
X007309Y021955D01*
X006959Y022755D02*
X006959Y022855D01*
X006859Y022855D01*
X006859Y023455D01*
X006959Y023455D01*
X006959Y023555D01*
X007309Y024355D02*
X007709Y024355D01*
X008659Y024355D01*
X009009Y024355D01*
X008059Y023155D02*
X008061Y023175D01*
X008067Y023193D01*
X008076Y023211D01*
X008088Y023226D01*
X008103Y023238D01*
X008121Y023247D01*
X008139Y023253D01*
X008159Y023255D01*
X008179Y023253D01*
X008197Y023247D01*
X008215Y023238D01*
X008230Y023226D01*
X008242Y023211D01*
X008251Y023193D01*
X008257Y023175D01*
X008259Y023155D01*
X008257Y023135D01*
X008251Y023117D01*
X008242Y023099D01*
X008230Y023084D01*
X008215Y023072D01*
X008197Y023063D01*
X008179Y023057D01*
X008159Y023055D01*
X008139Y023057D01*
X008121Y023063D01*
X008103Y023072D01*
X008088Y023084D01*
X008076Y023099D01*
X008067Y023117D01*
X008061Y023135D01*
X008059Y023155D01*
X007459Y023155D02*
X007461Y023207D01*
X007467Y023259D01*
X007477Y023311D01*
X007490Y023361D01*
X007507Y023411D01*
X007528Y023459D01*
X007553Y023505D01*
X007581Y023549D01*
X007612Y023591D01*
X007646Y023631D01*
X007683Y023668D01*
X007723Y023702D01*
X007765Y023733D01*
X007809Y023761D01*
X007855Y023786D01*
X007903Y023807D01*
X007953Y023824D01*
X008003Y023837D01*
X008055Y023847D01*
X008107Y023853D01*
X008159Y023855D01*
X008211Y023853D01*
X008263Y023847D01*
X008315Y023837D01*
X008365Y023824D01*
X008415Y023807D01*
X008463Y023786D01*
X008509Y023761D01*
X008553Y023733D01*
X008595Y023702D01*
X008635Y023668D01*
X008672Y023631D01*
X008706Y023591D01*
X008737Y023549D01*
X008765Y023505D01*
X008790Y023459D01*
X008811Y023411D01*
X008828Y023361D01*
X008841Y023311D01*
X008851Y023259D01*
X008857Y023207D01*
X008859Y023155D01*
X008857Y023103D01*
X008851Y023051D01*
X008841Y022999D01*
X008828Y022949D01*
X008811Y022899D01*
X008790Y022851D01*
X008765Y022805D01*
X008737Y022761D01*
X008706Y022719D01*
X008672Y022679D01*
X008635Y022642D01*
X008595Y022608D01*
X008553Y022577D01*
X008509Y022549D01*
X008463Y022524D01*
X008415Y022503D01*
X008365Y022486D01*
X008315Y022473D01*
X008263Y022463D01*
X008211Y022457D01*
X008159Y022455D01*
X008107Y022457D01*
X008055Y022463D01*
X008003Y022473D01*
X007953Y022486D01*
X007903Y022503D01*
X007855Y022524D01*
X007809Y022549D01*
X007765Y022577D01*
X007723Y022608D01*
X007683Y022642D01*
X007646Y022679D01*
X007612Y022719D01*
X007581Y022761D01*
X007553Y022805D01*
X007528Y022851D01*
X007507Y022899D01*
X007490Y022949D01*
X007477Y022999D01*
X007467Y023051D01*
X007461Y023103D01*
X007459Y023155D01*
X003859Y014755D02*
X002159Y014755D01*
X002142Y014753D01*
X002125Y014749D01*
X002109Y014742D01*
X002095Y014732D01*
X002082Y014719D01*
X002072Y014705D01*
X002065Y014689D01*
X002061Y014672D01*
X002059Y014655D01*
X002059Y014055D01*
X002061Y014038D01*
X002065Y014021D01*
X002072Y014005D01*
X002082Y013991D01*
X002095Y013978D01*
X002109Y013968D01*
X002125Y013961D01*
X002142Y013957D01*
X002159Y013955D01*
X003859Y013955D01*
X003876Y013957D01*
X003893Y013961D01*
X003909Y013968D01*
X003923Y013978D01*
X003936Y013991D01*
X003946Y014005D01*
X003953Y014021D01*
X003957Y014038D01*
X003959Y014055D01*
X003959Y014655D01*
X003957Y014672D01*
X003953Y014689D01*
X003946Y014705D01*
X003936Y014719D01*
X003923Y014732D01*
X003909Y014742D01*
X003893Y014749D01*
X003876Y014753D01*
X003859Y014755D01*
X003859Y013755D02*
X002159Y013755D01*
X002142Y013753D01*
X002125Y013749D01*
X002109Y013742D01*
X002095Y013732D01*
X002082Y013719D01*
X002072Y013705D01*
X002065Y013689D01*
X002061Y013672D01*
X002059Y013655D01*
X002059Y013055D01*
X002061Y013038D01*
X002065Y013021D01*
X002072Y013005D01*
X002082Y012991D01*
X002095Y012978D01*
X002109Y012968D01*
X002125Y012961D01*
X002142Y012957D01*
X002159Y012955D01*
X003859Y012955D01*
X003876Y012957D01*
X003893Y012961D01*
X003909Y012968D01*
X003923Y012978D01*
X003936Y012991D01*
X003946Y013005D01*
X003953Y013021D01*
X003957Y013038D01*
X003959Y013055D01*
X003959Y013655D01*
X003957Y013672D01*
X003953Y013689D01*
X003946Y013705D01*
X003936Y013719D01*
X003923Y013732D01*
X003909Y013742D01*
X003893Y013749D01*
X003876Y013753D01*
X003859Y013755D01*
D14*
X006632Y010760D02*
X006839Y010553D01*
X006839Y010760D01*
X006632Y010760D02*
X006632Y010553D01*
X006684Y010437D02*
X006684Y010231D01*
X006839Y010231D02*
X006529Y010231D01*
X006529Y010115D02*
X006839Y010115D01*
X006839Y009908D02*
X006529Y009908D01*
X006632Y010012D01*
X006529Y010115D01*
X006529Y009793D02*
X006581Y009689D01*
X006684Y009586D01*
X006684Y009741D01*
X006736Y009793D01*
X006787Y009793D01*
X006839Y009741D01*
X006839Y009638D01*
X006787Y009586D01*
X006684Y009586D01*
X006839Y009471D02*
X006839Y009264D01*
X006839Y009367D02*
X006529Y009367D01*
X006632Y009264D01*
X006529Y010437D02*
X006839Y010437D01*
X005459Y006039D02*
X005459Y005833D01*
X005252Y006039D01*
X005201Y006039D01*
X005149Y005988D01*
X005149Y005884D01*
X005201Y005833D01*
X005511Y005717D02*
X005511Y005510D01*
X005407Y005395D02*
X005459Y005343D01*
X005459Y005240D01*
X005407Y005188D01*
X005201Y005188D01*
X005149Y005240D01*
X005149Y005343D01*
X005201Y005395D01*
X005407Y005395D01*
X005356Y005073D02*
X005149Y005073D01*
X005356Y005073D02*
X005459Y004969D01*
X005356Y004866D01*
X005149Y004866D01*
X005201Y004751D02*
X005304Y004751D01*
X005356Y004699D01*
X005356Y004544D01*
X005459Y004544D02*
X005149Y004544D01*
X005149Y004699D01*
X005201Y004751D01*
X005356Y004647D02*
X005459Y004751D01*
X005459Y004428D02*
X005459Y004221D01*
X005149Y004221D01*
X005149Y004428D01*
X005304Y004325D02*
X005304Y004221D01*
X005356Y004106D02*
X005407Y004106D01*
X005459Y004054D01*
X005459Y003951D01*
X005407Y003899D01*
X005304Y003951D02*
X005304Y004054D01*
X005356Y004106D01*
X005201Y004106D02*
X005149Y004054D01*
X005149Y003951D01*
X005201Y003899D01*
X005252Y003899D01*
X005304Y003951D01*
X001709Y004001D02*
X001657Y003949D01*
X001709Y004001D02*
X001709Y004104D01*
X001657Y004156D01*
X001606Y004156D01*
X001554Y004104D01*
X001554Y004001D01*
X001502Y003949D01*
X001451Y003949D01*
X001399Y004001D01*
X001399Y004104D01*
X001451Y004156D01*
X001399Y004271D02*
X001709Y004271D01*
X001709Y004478D01*
X001709Y004594D02*
X001399Y004594D01*
X001399Y004749D01*
X001451Y004801D01*
X001554Y004801D01*
X001606Y004749D01*
X001606Y004594D01*
X001606Y004697D02*
X001709Y004801D01*
X001606Y004916D02*
X001399Y004916D01*
X001606Y004916D02*
X001709Y005019D01*
X001606Y005123D01*
X001399Y005123D01*
X001451Y005238D02*
X001657Y005238D01*
X001709Y005290D01*
X001709Y005393D01*
X001657Y005445D01*
X001451Y005445D01*
X001399Y005393D01*
X001399Y005290D01*
X001451Y005238D01*
X001761Y005560D02*
X001761Y005767D01*
X001709Y005883D02*
X001709Y006089D01*
X001709Y005986D02*
X001399Y005986D01*
X001502Y005883D01*
X001399Y004478D02*
X001399Y004271D01*
X001554Y004271D02*
X001554Y004375D01*
X009532Y015202D02*
X009429Y015306D01*
X009532Y015409D01*
X009739Y015409D01*
X009584Y015409D02*
X009584Y015202D01*
X009532Y015202D02*
X009739Y015202D01*
X009429Y015525D02*
X009429Y015731D01*
X009429Y015628D02*
X009739Y015628D01*
X009687Y015847D02*
X009739Y015899D01*
X009739Y016002D01*
X009687Y016054D01*
X009481Y016054D01*
X009429Y016002D01*
X009429Y015899D01*
X009481Y015847D01*
X009532Y015847D01*
X009584Y015899D01*
X009584Y016054D01*
X009687Y016169D02*
X009481Y016169D01*
X009429Y016221D01*
X009429Y016324D01*
X009481Y016376D01*
X009687Y016169D01*
X009739Y016221D01*
X009739Y016324D01*
X009687Y016376D01*
X009481Y016376D01*
X009481Y016491D02*
X009532Y016491D01*
X009584Y016543D01*
X009584Y016646D01*
X009636Y016698D01*
X009687Y016698D01*
X009739Y016646D01*
X009739Y016543D01*
X009687Y016491D01*
X009481Y016491D02*
X009429Y016543D01*
X009429Y016646D01*
X009481Y016698D01*
X009584Y016814D02*
X009429Y016969D01*
X009739Y016969D01*
X009584Y017020D02*
X009584Y016814D01*
X009584Y017136D02*
X009429Y017291D01*
X009739Y017291D01*
X009584Y017343D02*
X009584Y017136D01*
X009687Y017458D02*
X009739Y017510D01*
X009739Y017613D01*
X009687Y017665D01*
X009636Y017665D01*
X009584Y017613D01*
X009584Y017561D01*
X009584Y017613D02*
X009532Y017665D01*
X009481Y017665D01*
X009429Y017613D01*
X009429Y017510D01*
X009481Y017458D01*
X009481Y017780D02*
X009429Y017832D01*
X009429Y017935D01*
X009481Y017987D01*
X009532Y017987D01*
X009584Y017935D01*
X009636Y017987D01*
X009687Y017987D01*
X009739Y017935D01*
X009739Y017832D01*
X009687Y017780D01*
X009584Y017884D02*
X009584Y017935D01*
X009636Y018103D02*
X009636Y018258D01*
X009584Y018309D01*
X009481Y018309D01*
X009429Y018258D01*
X009429Y018103D01*
X009739Y018103D01*
X005989Y022764D02*
X005679Y022764D01*
X005679Y022919D01*
X005731Y022971D01*
X005834Y022971D01*
X005886Y022919D01*
X005886Y022764D01*
X005886Y022867D02*
X005989Y022971D01*
X005989Y023086D02*
X005989Y023293D01*
X005937Y023408D02*
X005989Y023460D01*
X005989Y023563D01*
X005937Y023615D01*
X005886Y023615D01*
X005834Y023563D01*
X005834Y023460D01*
X005782Y023408D01*
X005731Y023408D01*
X005679Y023460D01*
X005679Y023563D01*
X005731Y023615D01*
X005679Y023731D02*
X005989Y023731D01*
X005989Y023937D01*
X005834Y023834D02*
X005834Y023731D01*
X005679Y023731D02*
X005679Y023937D01*
X005679Y024053D02*
X005679Y024260D01*
X005679Y024156D02*
X005989Y024156D01*
X005679Y023293D02*
X005679Y023086D01*
X005989Y023086D01*
X005834Y023086D02*
X005834Y023189D01*
X016229Y019735D02*
X016229Y019425D01*
X016436Y019425D01*
X016551Y019425D02*
X016758Y019632D01*
X016758Y019684D01*
X016706Y019735D01*
X016603Y019735D01*
X016551Y019684D01*
X016551Y019425D02*
X016758Y019425D01*
X016874Y019477D02*
X016925Y019425D01*
X017029Y019425D01*
X017080Y019477D01*
X017080Y019684D01*
X017029Y019735D01*
X016925Y019735D01*
X016874Y019684D01*
X016874Y019632D01*
X016925Y019580D01*
X017080Y019580D01*
X017196Y019477D02*
X017247Y019425D01*
X017351Y019425D01*
X017403Y019477D01*
X017403Y019529D01*
X017351Y019580D01*
X017299Y019580D01*
X017351Y019580D02*
X017403Y019632D01*
X017403Y019684D01*
X017351Y019735D01*
X017247Y019735D01*
X017196Y019684D01*
X017518Y019735D02*
X017518Y019425D01*
X017673Y019425D01*
X017725Y019477D01*
X017725Y019684D01*
X017673Y019735D01*
X017518Y019735D01*
X015389Y013010D02*
X015079Y013010D01*
X015079Y012803D02*
X015389Y013010D01*
X015389Y012803D02*
X015079Y012803D01*
X015079Y012688D02*
X015079Y012481D01*
X015234Y012481D01*
X015182Y012584D01*
X015182Y012636D01*
X015234Y012688D01*
X015337Y012688D01*
X015389Y012636D01*
X015389Y012533D01*
X015337Y012481D01*
X015337Y012365D02*
X015131Y012365D01*
X015079Y012314D01*
X015079Y012210D01*
X015131Y012159D01*
X015182Y012159D01*
X015234Y012210D01*
X015234Y012365D01*
X015337Y012365D02*
X015389Y012314D01*
X015389Y012210D01*
X015337Y012159D01*
X015337Y012043D02*
X015389Y011991D01*
X015389Y011888D01*
X015337Y011836D01*
X015234Y011836D02*
X015182Y011940D01*
X015182Y011991D01*
X015234Y012043D01*
X015337Y012043D01*
X015234Y011836D02*
X015079Y011836D01*
X015079Y012043D01*
X015079Y011721D02*
X015079Y011514D01*
X015079Y011617D02*
X015389Y011617D01*
X015337Y011399D02*
X015389Y011347D01*
X015389Y011244D01*
X015337Y011192D01*
X015131Y011192D01*
X015079Y011244D01*
X015079Y011347D01*
X015131Y011399D01*
X015079Y011076D02*
X015389Y011076D01*
X015234Y011076D02*
X015234Y010870D01*
X015234Y010754D02*
X015234Y010547D01*
X015079Y010702D01*
X015389Y010702D01*
X015389Y010870D02*
X015079Y010870D01*
X015079Y010432D02*
X015131Y010432D01*
X015337Y010225D01*
X015389Y010225D01*
X015079Y010225D02*
X015079Y010432D01*
X017729Y006735D02*
X017729Y006425D01*
X017936Y006425D01*
X018051Y006425D02*
X018258Y006632D01*
X018258Y006684D01*
X018206Y006735D01*
X018103Y006735D01*
X018051Y006684D01*
X018051Y006425D02*
X018258Y006425D01*
X018374Y006477D02*
X018425Y006425D01*
X018529Y006425D01*
X018580Y006477D01*
X018580Y006684D01*
X018529Y006735D01*
X018425Y006735D01*
X018374Y006684D01*
X018374Y006632D01*
X018425Y006580D01*
X018580Y006580D01*
X018696Y006477D02*
X018747Y006425D01*
X018851Y006425D01*
X018903Y006477D01*
X018903Y006529D01*
X018851Y006580D01*
X018799Y006580D01*
X018851Y006580D02*
X018903Y006632D01*
X018903Y006684D01*
X018851Y006735D01*
X018747Y006735D01*
X018696Y006684D01*
X019018Y006735D02*
X019018Y006425D01*
X019173Y006425D01*
X019225Y006477D01*
X019225Y006684D01*
X019173Y006735D01*
X019018Y006735D01*
D15*
X015664Y006740D02*
X015664Y006816D01*
X015564Y006816D01*
X015589Y006863D02*
X015589Y006913D01*
X015514Y006863D02*
X015514Y006963D01*
X015514Y006863D02*
X015664Y006863D01*
X015664Y006740D02*
X015639Y006715D01*
X015564Y006715D01*
X015514Y006618D02*
X015664Y006618D01*
X015664Y006568D02*
X015664Y006668D01*
X015564Y006568D02*
X015514Y006618D01*
X015639Y006519D02*
X015664Y006519D01*
X015664Y006494D01*
X015639Y006494D01*
X015639Y006519D01*
X015639Y006447D02*
X015664Y006422D01*
X015664Y006372D01*
X015639Y006347D01*
X015539Y006447D01*
X015639Y006447D01*
X015639Y006347D02*
X015539Y006347D01*
X015514Y006372D01*
X015514Y006422D01*
X015539Y006447D01*
X012467Y008500D02*
X012467Y008650D01*
X012567Y008650D01*
X012517Y008575D02*
X012467Y008575D01*
X012419Y008600D02*
X012419Y008500D01*
X012344Y008500D01*
X012319Y008525D01*
X012319Y008600D01*
X012222Y008650D02*
X012222Y008500D01*
X012172Y008500D02*
X012272Y008500D01*
X012172Y008600D02*
X012222Y008650D01*
X012123Y008525D02*
X012123Y008500D01*
X012098Y008500D01*
X012098Y008525D01*
X012123Y008525D01*
X012051Y008525D02*
X012026Y008500D01*
X011976Y008500D01*
X011951Y008525D01*
X012051Y008625D01*
X012051Y008525D01*
X011951Y008525D02*
X011951Y008625D01*
X011976Y008650D01*
X012026Y008650D01*
X012051Y008625D01*
X026064Y008922D02*
X026064Y008972D01*
X026089Y008997D01*
X026189Y008897D01*
X026214Y008922D01*
X026214Y008972D01*
X026189Y008997D01*
X026089Y008997D01*
X026064Y008922D02*
X026089Y008897D01*
X026189Y008897D01*
X026189Y009044D02*
X026189Y009069D01*
X026214Y009069D01*
X026214Y009044D01*
X026189Y009044D01*
X026214Y009118D02*
X026214Y009218D01*
X026214Y009168D02*
X026064Y009168D01*
X026114Y009118D01*
X026114Y009265D02*
X026189Y009265D01*
X026214Y009290D01*
X026214Y009366D01*
X026114Y009366D01*
X026139Y009413D02*
X026139Y009463D01*
X026064Y009413D02*
X026064Y009513D01*
X026064Y009413D02*
X026214Y009413D01*
X026064Y007513D02*
X026064Y007413D01*
X026214Y007413D01*
X026214Y007366D02*
X026114Y007366D01*
X026139Y007413D02*
X026139Y007463D01*
X026214Y007366D02*
X026214Y007290D01*
X026189Y007265D01*
X026114Y007265D01*
X026064Y007168D02*
X026214Y007168D01*
X026214Y007118D02*
X026214Y007218D01*
X026114Y007118D02*
X026064Y007168D01*
X026189Y007069D02*
X026214Y007069D01*
X026214Y007044D01*
X026189Y007044D01*
X026189Y007069D01*
X026189Y006997D02*
X026214Y006972D01*
X026214Y006922D01*
X026189Y006897D01*
X026089Y006997D01*
X026189Y006997D01*
X026189Y006897D02*
X026089Y006897D01*
X026064Y006922D01*
X026064Y006972D01*
X026089Y006997D01*
X026004Y004526D02*
X026004Y004426D01*
X026154Y004426D01*
X026154Y004379D02*
X026054Y004379D01*
X026079Y004426D02*
X026079Y004476D01*
X026154Y004379D02*
X026154Y004303D01*
X026129Y004278D01*
X026054Y004278D01*
X026004Y004181D02*
X026154Y004181D01*
X026154Y004131D02*
X026154Y004231D01*
X026054Y004131D02*
X026004Y004181D01*
X026129Y004082D02*
X026129Y004057D01*
X026154Y004057D01*
X026154Y004082D01*
X026129Y004082D01*
X026129Y004010D02*
X026029Y004010D01*
X026129Y003910D01*
X026154Y003935D01*
X026154Y003985D01*
X026129Y004010D01*
X026129Y003910D02*
X026029Y003910D01*
X026004Y003935D01*
X026004Y003985D01*
X026029Y004010D01*
X026004Y002526D02*
X026004Y002426D01*
X026154Y002426D01*
X026154Y002379D02*
X026054Y002379D01*
X026079Y002426D02*
X026079Y002476D01*
X026154Y002379D02*
X026154Y002303D01*
X026129Y002278D01*
X026054Y002278D01*
X026004Y002181D02*
X026154Y002181D01*
X026154Y002131D02*
X026154Y002231D01*
X026054Y002131D02*
X026004Y002181D01*
X026129Y002082D02*
X026154Y002082D01*
X026154Y002057D01*
X026129Y002057D01*
X026129Y002082D01*
X026129Y002010D02*
X026029Y002010D01*
X026129Y001910D01*
X026154Y001935D01*
X026154Y001985D01*
X026129Y002010D01*
X026129Y001910D02*
X026029Y001910D01*
X026004Y001935D01*
X026004Y001985D01*
X026029Y002010D01*
X026029Y015910D02*
X026004Y015935D01*
X026004Y015985D01*
X026029Y016010D01*
X026129Y015910D01*
X026154Y015935D01*
X026154Y015985D01*
X026129Y016010D01*
X026029Y016010D01*
X026029Y015910D02*
X026129Y015910D01*
X026129Y016057D02*
X026129Y016082D01*
X026154Y016082D01*
X026154Y016057D01*
X026129Y016057D01*
X026154Y016131D02*
X026154Y016231D01*
X026154Y016181D02*
X026004Y016181D01*
X026054Y016131D01*
X026054Y016278D02*
X026129Y016278D01*
X026154Y016303D01*
X026154Y016379D01*
X026054Y016379D01*
X026079Y016426D02*
X026079Y016476D01*
X026004Y016426D02*
X026004Y016526D01*
X026004Y016426D02*
X026154Y016426D01*
X026129Y017810D02*
X026029Y017810D01*
X026004Y017835D01*
X026004Y017885D01*
X026029Y017910D01*
X026129Y017810D01*
X026154Y017835D01*
X026154Y017885D01*
X026129Y017910D01*
X026029Y017910D01*
X026129Y017957D02*
X026129Y017982D01*
X026154Y017982D01*
X026154Y017957D01*
X026129Y017957D01*
X026154Y018031D02*
X026154Y018131D01*
X026154Y018081D02*
X026004Y018081D01*
X026054Y018031D01*
X026054Y018178D02*
X026129Y018178D01*
X026154Y018203D01*
X026154Y018279D01*
X026054Y018279D01*
X026079Y018326D02*
X026079Y018376D01*
X026004Y018326D02*
X026004Y018426D01*
X026004Y018326D02*
X026154Y018326D01*
X026189Y020897D02*
X026089Y020997D01*
X026189Y020997D01*
X026214Y020972D01*
X026214Y020922D01*
X026189Y020897D01*
X026089Y020897D01*
X026064Y020922D01*
X026064Y020972D01*
X026089Y020997D01*
X026189Y021044D02*
X026189Y021069D01*
X026214Y021069D01*
X026214Y021044D01*
X026189Y021044D01*
X026214Y021118D02*
X026214Y021218D01*
X026214Y021168D02*
X026064Y021168D01*
X026114Y021118D01*
X026114Y021265D02*
X026189Y021265D01*
X026214Y021290D01*
X026214Y021366D01*
X026114Y021366D01*
X026139Y021413D02*
X026139Y021463D01*
X026064Y021413D02*
X026064Y021513D01*
X026064Y021413D02*
X026214Y021413D01*
X026189Y022897D02*
X026089Y022997D01*
X026189Y022997D01*
X026214Y022972D01*
X026214Y022922D01*
X026189Y022897D01*
X026089Y022897D01*
X026064Y022922D01*
X026064Y022972D01*
X026089Y022997D01*
X026189Y023044D02*
X026189Y023069D01*
X026214Y023069D01*
X026214Y023044D01*
X026189Y023044D01*
X026214Y023118D02*
X026214Y023218D01*
X026214Y023168D02*
X026064Y023168D01*
X026114Y023118D01*
X026114Y023265D02*
X026189Y023265D01*
X026214Y023290D01*
X026214Y023366D01*
X026114Y023366D01*
X026139Y023413D02*
X026139Y023463D01*
X026064Y023413D02*
X026064Y023513D01*
X026064Y023413D02*
X026214Y023413D01*
X016530Y023360D02*
X016430Y023360D01*
X016430Y023210D01*
X016382Y023210D02*
X016382Y023310D01*
X016430Y023285D02*
X016480Y023285D01*
X016382Y023210D02*
X016307Y023210D01*
X016282Y023235D01*
X016282Y023310D01*
X016185Y023360D02*
X016185Y023210D01*
X016135Y023210D02*
X016235Y023210D01*
X016135Y023310D02*
X016185Y023360D01*
X016086Y023235D02*
X016086Y023210D01*
X016061Y023210D01*
X016061Y023235D01*
X016086Y023235D01*
X016014Y023235D02*
X015989Y023210D01*
X015939Y023210D01*
X015914Y023235D01*
X016014Y023335D01*
X016014Y023235D01*
X015914Y023235D02*
X015914Y023335D01*
X015939Y023360D01*
X015989Y023360D01*
X016014Y023335D01*
D16*
X008659Y024255D02*
X008659Y024355D01*
X008659Y024255D02*
X007709Y024255D01*
X007709Y024355D01*
X007659Y022055D02*
X007659Y021955D01*
X007659Y022055D02*
X008659Y022055D01*
X008659Y021955D01*
M02*
