%
M48
M72
T01C0.0200
T02C0.0276
T03C0.0320
T04C0.0354
T05C0.0400
T06C0.0433
T07C0.1300
%
T01
X7615Y7615
X18015Y10815
X19855Y9855
X22255Y9295
X21455Y6335
X24095Y6335
X25135Y22175
T02
X26155Y22655
X26155Y21655
X26155Y20655
X26155Y18655
X26155Y17655
X26155Y16655
X26155Y15655
X25155Y12655
X24155Y12655
X26155Y9655
X26155Y8655
X26155Y7655
X26155Y6655
X26155Y4655
X26155Y3655
X26155Y2655
X26155Y1655
X19655Y2655
X18655Y2655
X15655Y6155
X15655Y7155
X13655Y8655
X12655Y8655
X13655Y4655
X13655Y3655
X7655Y2655
X6655Y2655
X1655Y8155
X1655Y9155
X3155Y9155
X3155Y11155
X1655Y11155
X1655Y12155
X4155Y12655
X4155Y13655
X12655Y21155
X12655Y22155
X16155Y20155
X16155Y19155
X26155Y23655
X4155Y23655
X4155Y22655
T03
X5655Y18655
X5655Y17655
X5655Y16655
X5655Y15655
X5655Y14655
X5655Y13655
X5655Y12655
X5655Y11655
X5655Y10655
X5655Y9655
X5655Y8655
X5655Y7655
X5655Y6655
X5655Y5655
X8655Y5655
X8655Y6655
X8655Y7655
X8655Y8655
X8655Y9655
X8655Y10655
X8655Y11655
X8655Y12655
X8655Y13655
X8655Y14655
X8655Y15655
X8655Y16655
X8655Y17655
X8655Y18655
X11655Y16655
X11655Y15655
X11655Y14655
X11655Y13655
X11655Y12655
X11655Y11655
X11655Y10655
X11655Y9655
X14655Y9655
X14655Y10655
X14655Y11655
X14655Y12655
X14655Y13655
X14655Y14655
X14655Y15655
X14655Y16655
X16473Y16337
X17180Y15630
X17887Y14923
X18594Y14216
X19302Y13509
X20009Y12802
X20716Y12094
X21423Y11387
X22130Y10680
X22837Y9973
X22655Y8155
X21655Y8155
X20655Y8155
X19655Y8155
X18655Y8155
X17655Y8155
X16655Y8155
X16655Y5155
X17655Y5155
X18655Y5155
X19655Y5155
X20655Y5155
X21655Y5155
X22655Y5155
X23655Y5155
X23655Y8155
X23155Y18155
X22155Y18155
X21155Y18155
X20155Y18155
X19155Y18155
X18155Y18155
X17155Y18155
X17155Y21155
X18155Y21155
X19155Y21155
X20155Y21155
X21155Y21155
X22155Y21155
X23155Y21155
X24155Y21155
X24155Y18155
T04
X10655Y20655
X6655Y20655
X11155Y6255
X11155Y2255
T05
X3655Y4155
X3655Y5155
X3655Y6155
X2155Y6155
X2155Y5155
X2155Y4155
X3155Y16155
X3155Y17155
X3155Y18155
X3155Y19155
X3155Y20155
X3155Y21155
X7375Y22265
X7375Y24045
X9935Y24045
X9935Y22265
X15155Y23155
X16155Y23055
X17155Y23155
X18155Y23055
X19155Y23155
X20155Y23055
T06
X28155Y23655
X28155Y21655
X28155Y19655
X28155Y17655
X28155Y15655
X28155Y9655
X28155Y7655
X28155Y5655
X28155Y3655
X28155Y1655
T07
X2155Y2155
X22155Y2155
X22155Y23155
X2155Y23155
M30
