G75*
G70*
%OFA0B0*%
%FSLAX24Y24*%
%IPPOS*%
%LPD*%
%AMOC8*
5,1,8,0,0,1.08239X$1,22.5*
%
%ADD10C,0.0000*%
%ADD11C,0.0560*%
%ADD12C,0.0650*%
%ADD13R,0.0650X0.0650*%
%ADD14C,0.0640*%
%ADD15C,0.0860*%
%ADD16C,0.0740*%
%ADD17R,0.0460X0.0630*%
%ADD18R,0.0740X0.0740*%
%ADD19C,0.0120*%
%ADD20C,0.0400*%
%ADD21C,0.0320*%
%ADD22C,0.0100*%
D10*
X001159Y000655D02*
X001159Y024651D01*
X031179Y024651D01*
X031179Y000655D01*
X001159Y000655D01*
X002009Y002155D02*
X002011Y002205D01*
X002017Y002255D01*
X002027Y002305D01*
X002040Y002353D01*
X002057Y002401D01*
X002078Y002447D01*
X002102Y002491D01*
X002130Y002533D01*
X002161Y002573D01*
X002195Y002610D01*
X002232Y002645D01*
X002271Y002676D01*
X002312Y002705D01*
X002356Y002730D01*
X002402Y002752D01*
X002449Y002770D01*
X002497Y002784D01*
X002546Y002795D01*
X002596Y002802D01*
X002646Y002805D01*
X002697Y002804D01*
X002747Y002799D01*
X002797Y002790D01*
X002845Y002778D01*
X002893Y002761D01*
X002939Y002741D01*
X002984Y002718D01*
X003027Y002691D01*
X003067Y002661D01*
X003105Y002628D01*
X003140Y002592D01*
X003173Y002553D01*
X003202Y002512D01*
X003228Y002469D01*
X003251Y002424D01*
X003270Y002377D01*
X003285Y002329D01*
X003297Y002280D01*
X003305Y002230D01*
X003309Y002180D01*
X003309Y002130D01*
X003305Y002080D01*
X003297Y002030D01*
X003285Y001981D01*
X003270Y001933D01*
X003251Y001886D01*
X003228Y001841D01*
X003202Y001798D01*
X003173Y001757D01*
X003140Y001718D01*
X003105Y001682D01*
X003067Y001649D01*
X003027Y001619D01*
X002984Y001592D01*
X002939Y001569D01*
X002893Y001549D01*
X002845Y001532D01*
X002797Y001520D01*
X002747Y001511D01*
X002697Y001506D01*
X002646Y001505D01*
X002596Y001508D01*
X002546Y001515D01*
X002497Y001526D01*
X002449Y001540D01*
X002402Y001558D01*
X002356Y001580D01*
X002312Y001605D01*
X002271Y001634D01*
X002232Y001665D01*
X002195Y001700D01*
X002161Y001737D01*
X002130Y001777D01*
X002102Y001819D01*
X002078Y001863D01*
X002057Y001909D01*
X002040Y001957D01*
X002027Y002005D01*
X002017Y002055D01*
X002011Y002105D01*
X002009Y002155D01*
X022009Y002155D02*
X022011Y002205D01*
X022017Y002255D01*
X022027Y002305D01*
X022040Y002353D01*
X022057Y002401D01*
X022078Y002447D01*
X022102Y002491D01*
X022130Y002533D01*
X022161Y002573D01*
X022195Y002610D01*
X022232Y002645D01*
X022271Y002676D01*
X022312Y002705D01*
X022356Y002730D01*
X022402Y002752D01*
X022449Y002770D01*
X022497Y002784D01*
X022546Y002795D01*
X022596Y002802D01*
X022646Y002805D01*
X022697Y002804D01*
X022747Y002799D01*
X022797Y002790D01*
X022845Y002778D01*
X022893Y002761D01*
X022939Y002741D01*
X022984Y002718D01*
X023027Y002691D01*
X023067Y002661D01*
X023105Y002628D01*
X023140Y002592D01*
X023173Y002553D01*
X023202Y002512D01*
X023228Y002469D01*
X023251Y002424D01*
X023270Y002377D01*
X023285Y002329D01*
X023297Y002280D01*
X023305Y002230D01*
X023309Y002180D01*
X023309Y002130D01*
X023305Y002080D01*
X023297Y002030D01*
X023285Y001981D01*
X023270Y001933D01*
X023251Y001886D01*
X023228Y001841D01*
X023202Y001798D01*
X023173Y001757D01*
X023140Y001718D01*
X023105Y001682D01*
X023067Y001649D01*
X023027Y001619D01*
X022984Y001592D01*
X022939Y001569D01*
X022893Y001549D01*
X022845Y001532D01*
X022797Y001520D01*
X022747Y001511D01*
X022697Y001506D01*
X022646Y001505D01*
X022596Y001508D01*
X022546Y001515D01*
X022497Y001526D01*
X022449Y001540D01*
X022402Y001558D01*
X022356Y001580D01*
X022312Y001605D01*
X022271Y001634D01*
X022232Y001665D01*
X022195Y001700D01*
X022161Y001737D01*
X022130Y001777D01*
X022102Y001819D01*
X022078Y001863D01*
X022057Y001909D01*
X022040Y001957D01*
X022027Y002005D01*
X022017Y002055D01*
X022011Y002105D01*
X022009Y002155D01*
X022009Y023155D02*
X022011Y023205D01*
X022017Y023255D01*
X022027Y023305D01*
X022040Y023353D01*
X022057Y023401D01*
X022078Y023447D01*
X022102Y023491D01*
X022130Y023533D01*
X022161Y023573D01*
X022195Y023610D01*
X022232Y023645D01*
X022271Y023676D01*
X022312Y023705D01*
X022356Y023730D01*
X022402Y023752D01*
X022449Y023770D01*
X022497Y023784D01*
X022546Y023795D01*
X022596Y023802D01*
X022646Y023805D01*
X022697Y023804D01*
X022747Y023799D01*
X022797Y023790D01*
X022845Y023778D01*
X022893Y023761D01*
X022939Y023741D01*
X022984Y023718D01*
X023027Y023691D01*
X023067Y023661D01*
X023105Y023628D01*
X023140Y023592D01*
X023173Y023553D01*
X023202Y023512D01*
X023228Y023469D01*
X023251Y023424D01*
X023270Y023377D01*
X023285Y023329D01*
X023297Y023280D01*
X023305Y023230D01*
X023309Y023180D01*
X023309Y023130D01*
X023305Y023080D01*
X023297Y023030D01*
X023285Y022981D01*
X023270Y022933D01*
X023251Y022886D01*
X023228Y022841D01*
X023202Y022798D01*
X023173Y022757D01*
X023140Y022718D01*
X023105Y022682D01*
X023067Y022649D01*
X023027Y022619D01*
X022984Y022592D01*
X022939Y022569D01*
X022893Y022549D01*
X022845Y022532D01*
X022797Y022520D01*
X022747Y022511D01*
X022697Y022506D01*
X022646Y022505D01*
X022596Y022508D01*
X022546Y022515D01*
X022497Y022526D01*
X022449Y022540D01*
X022402Y022558D01*
X022356Y022580D01*
X022312Y022605D01*
X022271Y022634D01*
X022232Y022665D01*
X022195Y022700D01*
X022161Y022737D01*
X022130Y022777D01*
X022102Y022819D01*
X022078Y022863D01*
X022057Y022909D01*
X022040Y022957D01*
X022027Y023005D01*
X022017Y023055D01*
X022011Y023105D01*
X022009Y023155D01*
X002009Y023155D02*
X002011Y023205D01*
X002017Y023255D01*
X002027Y023305D01*
X002040Y023353D01*
X002057Y023401D01*
X002078Y023447D01*
X002102Y023491D01*
X002130Y023533D01*
X002161Y023573D01*
X002195Y023610D01*
X002232Y023645D01*
X002271Y023676D01*
X002312Y023705D01*
X002356Y023730D01*
X002402Y023752D01*
X002449Y023770D01*
X002497Y023784D01*
X002546Y023795D01*
X002596Y023802D01*
X002646Y023805D01*
X002697Y023804D01*
X002747Y023799D01*
X002797Y023790D01*
X002845Y023778D01*
X002893Y023761D01*
X002939Y023741D01*
X002984Y023718D01*
X003027Y023691D01*
X003067Y023661D01*
X003105Y023628D01*
X003140Y023592D01*
X003173Y023553D01*
X003202Y023512D01*
X003228Y023469D01*
X003251Y023424D01*
X003270Y023377D01*
X003285Y023329D01*
X003297Y023280D01*
X003305Y023230D01*
X003309Y023180D01*
X003309Y023130D01*
X003305Y023080D01*
X003297Y023030D01*
X003285Y022981D01*
X003270Y022933D01*
X003251Y022886D01*
X003228Y022841D01*
X003202Y022798D01*
X003173Y022757D01*
X003140Y022718D01*
X003105Y022682D01*
X003067Y022649D01*
X003027Y022619D01*
X002984Y022592D01*
X002939Y022569D01*
X002893Y022549D01*
X002845Y022532D01*
X002797Y022520D01*
X002747Y022511D01*
X002697Y022506D01*
X002646Y022505D01*
X002596Y022508D01*
X002546Y022515D01*
X002497Y022526D01*
X002449Y022540D01*
X002402Y022558D01*
X002356Y022580D01*
X002312Y022605D01*
X002271Y022634D01*
X002232Y022665D01*
X002195Y022700D01*
X002161Y022737D01*
X002130Y022777D01*
X002102Y022819D01*
X002078Y022863D01*
X002057Y022909D01*
X002040Y022957D01*
X002027Y023005D01*
X002017Y023055D01*
X002011Y023105D01*
X002009Y023155D01*
D11*
X007879Y018655D02*
X008439Y018655D01*
X008439Y017655D02*
X007879Y017655D01*
X007879Y016655D02*
X008439Y016655D01*
X008439Y015655D02*
X007879Y015655D01*
X007879Y014655D02*
X008439Y014655D01*
X008439Y013655D02*
X007879Y013655D01*
X007879Y012655D02*
X008439Y012655D01*
X008439Y011655D02*
X007879Y011655D01*
X007879Y010655D02*
X008439Y010655D01*
X008439Y009655D02*
X007879Y009655D01*
X007879Y008655D02*
X008439Y008655D01*
X008439Y007655D02*
X007879Y007655D01*
X007879Y006655D02*
X008439Y006655D01*
X008439Y005655D02*
X007879Y005655D01*
X010879Y005655D02*
X011439Y005655D01*
X011439Y006655D02*
X010879Y006655D01*
X010879Y007655D02*
X011439Y007655D01*
X011439Y008655D02*
X010879Y008655D01*
X010879Y009655D02*
X011439Y009655D01*
X011439Y010655D02*
X010879Y010655D01*
X010879Y011655D02*
X011439Y011655D01*
X011439Y012655D02*
X010879Y012655D01*
X010879Y013655D02*
X011439Y013655D01*
X011439Y014655D02*
X010879Y014655D01*
X010879Y015655D02*
X011439Y015655D01*
X011439Y016655D02*
X010879Y016655D01*
X010879Y017655D02*
X011439Y017655D01*
X011439Y018655D02*
X010879Y018655D01*
X013379Y016655D02*
X013939Y016655D01*
X013939Y015655D02*
X013379Y015655D01*
X013379Y014655D02*
X013939Y014655D01*
X013939Y013655D02*
X013379Y013655D01*
X013379Y012655D02*
X013939Y012655D01*
X013939Y011655D02*
X013379Y011655D01*
X013379Y010655D02*
X013939Y010655D01*
X013939Y009655D02*
X013379Y009655D01*
X016379Y009655D02*
X016939Y009655D01*
X016939Y010655D02*
X016379Y010655D01*
X016379Y011655D02*
X016939Y011655D01*
X016939Y012655D02*
X016379Y012655D01*
X016379Y013655D02*
X016939Y013655D01*
X016939Y014655D02*
X016379Y014655D01*
X016379Y015655D02*
X016939Y015655D01*
X016939Y016655D02*
X016379Y016655D01*
X016659Y017875D02*
X016659Y018435D01*
X015659Y018435D02*
X015659Y017875D01*
X017659Y017875D02*
X017659Y018435D01*
X018659Y018435D02*
X018659Y017875D01*
X019659Y017875D02*
X019659Y018435D01*
X020659Y018435D02*
X020659Y017875D01*
X021659Y017875D02*
X021659Y018435D01*
X022659Y018435D02*
X022659Y017875D01*
X022659Y020875D02*
X022659Y021435D01*
X021659Y021435D02*
X021659Y020875D01*
X020659Y020875D02*
X020659Y021435D01*
X019659Y021435D02*
X019659Y020875D01*
X018659Y020875D02*
X018659Y021435D01*
X017659Y021435D02*
X017659Y020875D01*
X016659Y020875D02*
X016659Y021435D01*
X015659Y021435D02*
X015659Y020875D01*
X018675Y016535D02*
X018279Y016139D01*
X018986Y015432D02*
X019382Y015828D01*
X020089Y015121D02*
X019693Y014725D01*
X020400Y014018D02*
X020796Y014414D01*
X021503Y013707D02*
X021108Y013311D01*
X021815Y012604D02*
X022211Y012999D01*
X022918Y012292D02*
X022522Y011896D01*
X023229Y011189D02*
X023625Y011585D01*
X024332Y010878D02*
X023936Y010482D01*
X024643Y009775D02*
X025039Y010171D01*
X024159Y008435D02*
X024159Y007875D01*
X023159Y007875D02*
X023159Y008435D01*
X022159Y008435D02*
X022159Y007875D01*
X021159Y007875D02*
X021159Y008435D01*
X020159Y008435D02*
X020159Y007875D01*
X019159Y007875D02*
X019159Y008435D01*
X018159Y008435D02*
X018159Y007875D01*
X017159Y007875D02*
X017159Y008435D01*
X017159Y005435D02*
X017159Y004875D01*
X018159Y004875D02*
X018159Y005435D01*
X019159Y005435D02*
X019159Y004875D01*
X020159Y004875D02*
X020159Y005435D01*
X021159Y005435D02*
X021159Y004875D01*
X022159Y004875D02*
X022159Y005435D01*
X023159Y005435D02*
X023159Y004875D01*
X024159Y004875D02*
X024159Y005435D01*
D12*
X026659Y004655D03*
X026659Y003655D03*
X026659Y002655D03*
X026659Y001655D03*
X026659Y006655D03*
X026659Y007655D03*
X026659Y008655D03*
X026659Y009655D03*
X026159Y012655D03*
X026659Y015655D03*
X026659Y016655D03*
X026659Y017655D03*
X026659Y018655D03*
X026659Y020655D03*
X026659Y021655D03*
X026659Y022655D03*
X026659Y023655D03*
X016659Y022655D03*
X015659Y022655D03*
X013659Y022155D03*
X004659Y022655D03*
X004659Y023655D03*
X005159Y012655D03*
X006159Y012655D03*
X004659Y011655D03*
X004659Y010655D03*
X004659Y009655D03*
X004659Y008655D03*
X006159Y008655D03*
X006159Y010655D03*
X013159Y008655D03*
X014159Y008655D03*
X016159Y007155D03*
X016159Y006155D03*
X015659Y003155D03*
X019159Y002655D03*
X008159Y002655D03*
D13*
X007159Y002655D03*
X015659Y004155D03*
X020159Y002655D03*
X027159Y012655D03*
X013659Y021155D03*
D14*
X009759Y022265D02*
X009119Y022265D01*
X007199Y022265D02*
X006559Y022265D01*
X006559Y024045D02*
X007199Y024045D01*
X009119Y024045D02*
X009759Y024045D01*
X004479Y006155D02*
X003839Y006155D01*
X002979Y006155D02*
X002339Y006155D01*
X002339Y005155D02*
X002979Y005155D01*
X003839Y005155D02*
X004479Y005155D01*
X004479Y004155D02*
X003839Y004155D01*
X002979Y004155D02*
X002339Y004155D01*
D15*
X028229Y003655D02*
X029089Y003655D01*
X029089Y001655D02*
X028229Y001655D01*
X028229Y005655D02*
X029089Y005655D01*
X029089Y007655D02*
X028229Y007655D01*
X028229Y009655D02*
X029089Y009655D01*
X029089Y015655D02*
X028229Y015655D01*
X028229Y017655D02*
X029089Y017655D01*
X029089Y019655D02*
X028229Y019655D01*
X028229Y021655D02*
X029089Y021655D01*
X029089Y023655D02*
X028229Y023655D01*
D16*
X025259Y024155D03*
X025159Y023155D03*
X025259Y022155D03*
X025159Y021155D03*
X025259Y020155D03*
X025159Y019155D03*
X029659Y012105D03*
X012659Y006255D03*
X012659Y002255D03*
X003659Y007655D03*
X002159Y007655D03*
X002159Y011655D03*
X003659Y011655D03*
X003659Y016155D03*
X003659Y017155D03*
X003659Y018155D03*
X003659Y019155D03*
X003659Y020155D03*
X003659Y021155D03*
X006159Y021155D03*
X010159Y021155D03*
D17*
X003609Y014355D03*
X003009Y014355D03*
X002409Y014355D03*
X002409Y013355D03*
X003009Y013355D03*
X003609Y013355D03*
D18*
X029659Y013205D03*
D19*
X024159Y008155D02*
X024119Y008095D01*
X024119Y007615D01*
X025559Y006175D01*
X023159Y005535D02*
X023159Y005155D01*
X023159Y005535D02*
X021879Y006815D01*
X017399Y006815D01*
X015719Y008495D01*
X015719Y014015D01*
X016359Y014655D01*
X016659Y014655D01*
X015879Y014975D02*
X015719Y015135D01*
X015719Y018095D01*
X015659Y018155D01*
X015719Y020415D02*
X016839Y020415D01*
X017079Y020655D01*
X017079Y021695D01*
X017879Y022495D01*
X021239Y022495D01*
X022199Y021535D01*
X022199Y020735D01*
X023079Y019855D01*
X024439Y019855D01*
X025159Y019135D01*
X025159Y019155D01*
X025159Y021155D02*
X025159Y021215D01*
X024839Y021215D01*
X024199Y021855D01*
X022279Y021855D01*
X020759Y023375D01*
X015319Y023375D01*
X014919Y022975D01*
X014919Y021215D01*
X012359Y018655D01*
X011159Y018655D01*
X010199Y018335D02*
X010839Y017695D01*
X011159Y017695D01*
X011159Y017655D01*
X010199Y018335D02*
X010199Y019455D01*
X014919Y024175D01*
X022199Y024175D01*
X022359Y024335D01*
X023159Y024335D01*
X024279Y023215D01*
X024279Y022335D01*
X024599Y022015D01*
X021639Y021535D02*
X021639Y021215D01*
X021659Y021155D01*
X021639Y021535D02*
X020999Y022175D01*
X020599Y022175D01*
X020119Y021695D01*
X020119Y017135D01*
X021639Y016335D02*
X021639Y018095D01*
X021659Y018155D01*
X019184Y015630D02*
X019159Y015615D01*
X018999Y015455D01*
X018999Y014735D01*
X016919Y012655D01*
X016659Y012655D01*
X016679Y011695D02*
X016659Y011655D01*
X016679Y011695D02*
X016999Y011695D01*
X019879Y014575D01*
X019879Y014895D01*
X019891Y014923D01*
X020519Y014255D02*
X020598Y014216D01*
X020519Y014255D02*
X016919Y010655D01*
X016659Y010655D01*
X016679Y009695D02*
X016659Y009655D01*
X016679Y009695D02*
X017319Y009695D01*
X021079Y013455D01*
X021239Y013455D01*
X021305Y013509D01*
X022013Y012802D02*
X021959Y012735D01*
X021959Y012575D01*
X018199Y008815D01*
X018199Y008175D01*
X018159Y008155D01*
X020599Y007775D02*
X020599Y008815D01*
X020599Y007775D02*
X021319Y007055D01*
X022439Y007055D01*
X023159Y007775D01*
X023159Y008155D01*
X020599Y009935D02*
X022679Y012015D01*
X022720Y012094D01*
X014759Y010815D02*
X014759Y007215D01*
X012279Y004735D01*
X010519Y004735D01*
X009639Y005615D01*
X008199Y005615D01*
X008159Y005655D01*
X007159Y005375D02*
X009479Y003055D01*
X014679Y003055D01*
X015319Y002415D01*
X015959Y002415D01*
X017159Y003615D01*
X017159Y005155D01*
X012599Y005935D02*
X012599Y006255D01*
X012659Y006255D01*
X012599Y005935D02*
X011639Y004975D01*
X010599Y004975D01*
X008919Y006655D01*
X008159Y006655D01*
X007159Y005375D02*
X007159Y007935D01*
X007879Y008655D01*
X008159Y008655D01*
X007719Y009215D02*
X006279Y007775D01*
X003799Y007775D01*
X003719Y007695D01*
X003659Y007655D01*
X002999Y008575D02*
X002119Y007695D01*
X002159Y007655D01*
X002999Y008575D02*
X002999Y013295D01*
X003009Y013355D01*
X003609Y013355D02*
X003639Y013295D01*
X003639Y012735D01*
X004279Y012495D02*
X003719Y011935D01*
X003719Y011695D01*
X003659Y011655D01*
X004279Y012495D02*
X004279Y014495D01*
X003959Y014815D01*
X003319Y014815D01*
X003079Y014575D01*
X003079Y014415D01*
X003009Y014355D01*
X003609Y014355D02*
X003639Y014335D01*
X003639Y013375D01*
X003609Y013355D01*
X004659Y010655D02*
X006159Y010655D01*
X008159Y010655D01*
X009159Y009775D02*
X008599Y009215D01*
X007719Y009215D01*
X008119Y009615D02*
X008159Y009655D01*
X008119Y009615D02*
X007159Y009615D01*
X006199Y008655D01*
X006159Y008655D01*
X006119Y008655D01*
X005159Y009615D01*
X004679Y009615D01*
X004659Y009655D01*
X009159Y009775D02*
X009159Y013935D01*
X010839Y015615D01*
X011159Y015615D01*
X011159Y015655D01*
X012679Y014895D02*
X012679Y017375D01*
X015719Y020415D01*
X009439Y022265D02*
X009399Y022255D01*
X007199Y020055D01*
X008119Y019135D01*
X008119Y018655D01*
X008159Y018655D01*
X008119Y017695D02*
X008159Y017655D01*
X008119Y017695D02*
X005319Y017695D01*
X003879Y019135D01*
X003719Y019135D01*
X003659Y019155D01*
X003659Y021155D02*
X003799Y021295D01*
X003799Y022815D01*
X004599Y023615D01*
X004659Y023655D01*
X004679Y022655D02*
X004659Y022655D01*
X004679Y022655D02*
X006119Y021215D01*
X006159Y021155D01*
X006199Y021215D01*
X006839Y021855D01*
X006839Y022255D01*
X006879Y022265D01*
X006159Y021155D02*
X006119Y021135D01*
X007199Y020055D01*
X012679Y014895D02*
X011479Y013695D01*
X011159Y013695D01*
X011159Y013655D01*
X012679Y012975D02*
X013319Y013615D01*
X013639Y013615D01*
X013659Y013655D01*
X012679Y012975D02*
X012679Y010175D01*
X011159Y008655D01*
X013959Y011615D02*
X014759Y010815D01*
X013959Y011615D02*
X013719Y011615D01*
X013659Y011655D01*
D20*
X015879Y014975D03*
X020119Y017135D03*
X021639Y016335D03*
X024439Y016335D03*
X018919Y019935D03*
X023879Y023055D03*
X024439Y023615D03*
X024599Y022015D03*
X020599Y009935D03*
X020599Y008815D03*
X025559Y006175D03*
X015239Y005775D03*
X014159Y005155D03*
X012659Y003655D03*
X003639Y012735D03*
D21*
X012659Y003655D02*
X014159Y005155D01*
X015239Y005775D02*
X015239Y015295D01*
X014759Y015775D01*
X014759Y018815D01*
X015879Y019935D01*
X018919Y019935D01*
X020679Y020575D02*
X021879Y019375D01*
X023559Y019375D01*
X024759Y018175D01*
X025239Y018175D01*
X025959Y018895D01*
X025959Y018975D01*
X026759Y019775D01*
X027079Y019775D01*
X028039Y020735D01*
X029719Y020735D01*
X030199Y021215D01*
X030199Y022095D01*
X028679Y023615D01*
X028659Y023655D01*
X028519Y023695D01*
X026679Y023695D01*
X026659Y023655D01*
X026679Y021695D02*
X026659Y021655D01*
X026679Y021695D02*
X028599Y021695D01*
X028659Y021655D01*
X028599Y017695D02*
X026679Y017695D01*
X026659Y017655D01*
X028599Y017695D02*
X028659Y017655D01*
X028599Y015695D02*
X026759Y015695D01*
X026659Y015655D01*
X026599Y015615D01*
X026439Y015775D01*
X020679Y015775D01*
X019239Y017215D01*
X018359Y017215D01*
X017719Y017855D01*
X017719Y018095D01*
X017659Y018155D01*
X020679Y020575D02*
X020679Y021135D01*
X020659Y021155D01*
X022659Y018155D02*
X022679Y018095D01*
X024439Y016335D01*
X028599Y015695D02*
X028659Y015655D01*
X029659Y013205D02*
X029719Y013135D01*
X030039Y013135D01*
X030599Y012575D01*
X030599Y010495D01*
X030759Y010335D01*
X030759Y004175D01*
X029399Y002815D01*
X027879Y002815D01*
X027399Y003295D01*
X027399Y004895D01*
X026679Y005615D01*
X024839Y005615D01*
X024279Y005055D01*
X024159Y005155D01*
X024119Y005135D01*
X024119Y004575D01*
X023079Y003535D01*
X021319Y003535D01*
X020439Y002655D01*
X020159Y002655D01*
X026659Y001655D02*
X026679Y001695D01*
X028599Y001695D01*
X028659Y001655D01*
X028659Y003655D02*
X028599Y003695D01*
X030199Y005295D01*
X030199Y010095D01*
X029479Y010815D01*
X026759Y010815D01*
X025079Y009135D01*
X024359Y009135D01*
X024119Y009375D01*
X019879Y009375D01*
X019159Y008655D01*
X019159Y008155D01*
X026659Y007655D02*
X026679Y007695D01*
X028599Y007695D01*
X028659Y007655D01*
X028659Y009655D02*
X028599Y009695D01*
X026679Y009695D01*
X026659Y009655D01*
D22*
X025775Y010411D02*
X025427Y010411D01*
X025420Y010426D02*
X025294Y010553D01*
X025128Y010621D01*
X024949Y010621D01*
X024784Y010553D01*
X024262Y010030D01*
X024193Y009865D01*
X024193Y009785D01*
X024037Y009785D01*
X020937Y009785D01*
X020969Y009861D01*
X020969Y009980D01*
X022436Y011446D01*
X022611Y011446D01*
X022777Y011515D01*
X023299Y012037D01*
X023368Y012203D01*
X023368Y012382D01*
X023299Y012547D01*
X023173Y012674D01*
X023007Y012742D01*
X022828Y012742D01*
X022663Y012674D01*
X022140Y012151D01*
X022072Y011986D01*
X022072Y011807D01*
X022093Y011755D01*
X020644Y010305D01*
X020525Y010305D01*
X020389Y010249D01*
X020285Y010145D01*
X020229Y010009D01*
X020229Y009861D01*
X020261Y009785D01*
X019797Y009785D01*
X019647Y009723D01*
X019531Y009607D01*
X018927Y009003D01*
X018927Y009003D01*
X018811Y008887D01*
X018776Y008801D01*
X018710Y008735D01*
X018629Y008541D01*
X018629Y007770D01*
X018710Y007575D01*
X018859Y007426D01*
X019054Y007345D01*
X019264Y007345D01*
X019459Y007426D01*
X019608Y007575D01*
X019689Y007770D01*
X019689Y008541D01*
X019670Y008586D01*
X020049Y008965D01*
X020261Y008965D01*
X020229Y008889D01*
X020229Y008885D01*
X020070Y008885D01*
X019904Y008817D01*
X019778Y008690D01*
X019709Y008525D01*
X019709Y007786D01*
X019778Y007620D01*
X019904Y007494D01*
X020070Y007425D01*
X020249Y007425D01*
X020414Y007494D01*
X020485Y007564D01*
X020504Y007545D01*
X021004Y007045D01*
X017494Y007045D01*
X017088Y007451D01*
X017125Y007445D01*
X017129Y007445D01*
X017129Y008125D01*
X017189Y008125D01*
X017189Y007445D01*
X017193Y007445D01*
X017260Y007456D01*
X017324Y007477D01*
X017384Y007507D01*
X017439Y007547D01*
X017487Y007595D01*
X017527Y007650D01*
X017558Y007710D01*
X017578Y007774D01*
X017589Y007841D01*
X017589Y008125D01*
X017189Y008125D01*
X017189Y008185D01*
X017589Y008185D01*
X017589Y008469D01*
X017578Y008536D01*
X017558Y008600D01*
X017527Y008660D01*
X017487Y008715D01*
X017439Y008763D01*
X017384Y008803D01*
X017324Y008834D01*
X017260Y008854D01*
X017193Y008865D01*
X017189Y008865D01*
X017189Y008185D01*
X017129Y008185D01*
X017129Y008125D01*
X016729Y008125D01*
X016729Y007841D01*
X016735Y007804D01*
X015949Y008590D01*
X015949Y009517D01*
X015998Y009400D01*
X016124Y009274D01*
X016290Y009205D01*
X017029Y009205D01*
X017194Y009274D01*
X017321Y009400D01*
X017347Y009465D01*
X017414Y009465D01*
X020871Y012922D01*
X021018Y012861D01*
X021197Y012861D01*
X021362Y012929D01*
X021885Y013452D01*
X021953Y013617D01*
X021953Y013796D01*
X021885Y013961D01*
X021758Y014088D01*
X021593Y014157D01*
X021414Y014157D01*
X021249Y014088D01*
X020726Y013566D01*
X020658Y013400D01*
X020658Y013359D01*
X017265Y009966D01*
X017194Y010037D01*
X017029Y010105D01*
X016290Y010105D01*
X016124Y010037D01*
X015998Y009910D01*
X015949Y009793D01*
X015949Y010517D01*
X015998Y010400D01*
X016124Y010274D01*
X016290Y010205D01*
X017029Y010205D01*
X017194Y010274D01*
X017321Y010400D01*
X017389Y010566D01*
X017389Y010745D01*
X017373Y010784D01*
X020202Y013613D01*
X020311Y013568D01*
X020490Y013568D01*
X020655Y013636D01*
X021178Y014159D01*
X021246Y014324D01*
X021246Y014503D01*
X021178Y014669D01*
X021051Y014795D01*
X020886Y014864D01*
X020707Y014864D01*
X020541Y014795D01*
X020019Y014273D01*
X019950Y014107D01*
X019950Y014012D01*
X017039Y011101D01*
X017039Y011101D01*
X017029Y011105D01*
X016290Y011105D01*
X016124Y011037D01*
X015998Y010910D01*
X015949Y010793D01*
X015949Y011517D01*
X015998Y011400D01*
X016124Y011274D01*
X016290Y011205D01*
X017029Y011205D01*
X017194Y011274D01*
X017321Y011400D01*
X017389Y011566D01*
X017389Y011745D01*
X017385Y011755D01*
X019974Y014345D01*
X020109Y014480D01*
X020109Y014504D01*
X020471Y014866D01*
X020539Y015031D01*
X020539Y015210D01*
X020471Y015376D01*
X020344Y015502D01*
X020179Y015571D01*
X020000Y015571D01*
X019834Y015502D01*
X019312Y014980D01*
X019243Y014814D01*
X019243Y014635D01*
X019312Y014470D01*
X019380Y014402D01*
X017068Y012089D01*
X017029Y012105D01*
X016290Y012105D01*
X016124Y012037D01*
X015998Y011910D01*
X015949Y011793D01*
X015949Y012517D01*
X015998Y012400D01*
X016124Y012274D01*
X016290Y012205D01*
X017029Y012205D01*
X017194Y012274D01*
X017321Y012400D01*
X017389Y012566D01*
X017389Y012745D01*
X017373Y012784D01*
X019094Y014505D01*
X019229Y014640D01*
X019229Y015046D01*
X019241Y015051D01*
X019764Y015573D01*
X019832Y015738D01*
X019832Y015917D01*
X019764Y016083D01*
X019637Y016209D01*
X019472Y016278D01*
X019293Y016278D01*
X019127Y016209D01*
X018605Y015687D01*
X018536Y015521D01*
X018536Y015342D01*
X018605Y015177D01*
X018731Y015051D01*
X018769Y015035D01*
X018769Y014830D01*
X017039Y013101D01*
X017029Y013105D01*
X016290Y013105D01*
X016124Y013037D01*
X015998Y012910D01*
X015949Y012793D01*
X015949Y013517D01*
X015998Y013400D01*
X016124Y013274D01*
X016290Y013205D01*
X017029Y013205D01*
X017194Y013274D01*
X017321Y013400D01*
X017389Y013566D01*
X017389Y013745D01*
X017321Y013910D01*
X017194Y014037D01*
X017029Y014105D01*
X016290Y014105D01*
X016124Y014037D01*
X015998Y013910D01*
X015949Y013793D01*
X015949Y013920D01*
X016250Y014221D01*
X016290Y014205D01*
X017029Y014205D01*
X017194Y014274D01*
X017321Y014400D01*
X017389Y014566D01*
X017389Y014745D01*
X017321Y014910D01*
X017194Y015037D01*
X017029Y015105D01*
X016290Y015105D01*
X016235Y015082D01*
X016193Y015185D01*
X016089Y015289D01*
X015953Y015345D01*
X015949Y015345D01*
X015949Y015517D01*
X015998Y015400D01*
X016124Y015274D01*
X016290Y015205D01*
X017029Y015205D01*
X017194Y015274D01*
X017321Y015400D01*
X017389Y015566D01*
X017389Y015745D01*
X017321Y015910D01*
X017194Y016037D01*
X017029Y016105D01*
X016290Y016105D01*
X016124Y016037D01*
X015998Y015910D01*
X015949Y015793D01*
X015949Y016517D01*
X015998Y016400D01*
X016124Y016274D01*
X016290Y016205D01*
X017029Y016205D01*
X017194Y016274D01*
X017321Y016400D01*
X017389Y016566D01*
X017389Y016745D01*
X017321Y016910D01*
X017194Y017037D01*
X017029Y017105D01*
X016290Y017105D01*
X016124Y017037D01*
X015998Y016910D01*
X015949Y016793D01*
X015949Y017529D01*
X016041Y017620D01*
X016109Y017786D01*
X016109Y018525D01*
X016041Y018690D01*
X015914Y018817D01*
X015749Y018885D01*
X015570Y018885D01*
X015404Y018817D01*
X015278Y018690D01*
X015209Y018525D01*
X015209Y017786D01*
X015278Y017620D01*
X015404Y017494D01*
X015489Y017458D01*
X015489Y015625D01*
X015471Y015643D01*
X015169Y015945D01*
X015169Y018645D01*
X016049Y019525D01*
X018733Y019525D01*
X018830Y019485D01*
X019009Y019485D01*
X019174Y019554D01*
X019301Y019680D01*
X019369Y019846D01*
X019369Y020025D01*
X019301Y020190D01*
X019174Y020317D01*
X019009Y020385D01*
X018830Y020385D01*
X018733Y020345D01*
X017094Y020345D01*
X017174Y020425D01*
X017267Y020518D01*
X017359Y020426D01*
X017554Y020345D01*
X017764Y020345D01*
X017959Y020426D01*
X018108Y020575D01*
X018189Y020770D01*
X018189Y021541D01*
X018108Y021735D01*
X017959Y021884D01*
X017764Y021965D01*
X017674Y021965D01*
X017974Y022265D01*
X020364Y022265D01*
X020024Y021925D01*
X019915Y021816D01*
X019914Y021817D01*
X019749Y021885D01*
X019570Y021885D01*
X019404Y021817D01*
X019278Y021690D01*
X019209Y021525D01*
X019209Y020786D01*
X019278Y020620D01*
X019404Y020494D01*
X019570Y020425D01*
X019749Y020425D01*
X019889Y020483D01*
X019889Y018827D01*
X019749Y018885D01*
X019570Y018885D01*
X019404Y018817D01*
X019278Y018690D01*
X019209Y018525D01*
X019209Y017786D01*
X019276Y017625D01*
X019157Y017625D01*
X019043Y017625D01*
X019109Y017786D01*
X019109Y018525D01*
X019041Y018690D01*
X018914Y018817D01*
X018749Y018885D01*
X018570Y018885D01*
X018404Y018817D01*
X018278Y018690D01*
X018209Y018525D01*
X018209Y017945D01*
X018189Y017965D01*
X018189Y018541D01*
X018108Y018735D01*
X017959Y018884D01*
X017764Y018965D01*
X017554Y018965D01*
X017359Y018884D01*
X017210Y018735D01*
X017129Y018541D01*
X017129Y017770D01*
X017210Y017575D01*
X017359Y017426D01*
X017554Y017345D01*
X017649Y017345D01*
X018011Y016983D01*
X018127Y016868D01*
X018277Y016805D01*
X018309Y016805D01*
X017898Y016394D01*
X017829Y016229D01*
X017829Y016050D01*
X017898Y015884D01*
X018024Y015758D01*
X018190Y015689D01*
X018369Y015689D01*
X018534Y015758D01*
X019056Y016280D01*
X019125Y016446D01*
X019125Y016625D01*
X019056Y016790D01*
X019041Y016805D01*
X019069Y016805D01*
X020331Y015543D01*
X020447Y015428D01*
X020597Y015365D01*
X026157Y015365D01*
X026172Y015329D01*
X026333Y015168D01*
X026545Y015080D01*
X026773Y015080D01*
X026985Y015168D01*
X027102Y015285D01*
X027646Y015285D01*
X027653Y015270D01*
X027844Y015079D01*
X028094Y014975D01*
X029224Y014975D01*
X029474Y015079D01*
X029666Y015270D01*
X029769Y015520D01*
X029769Y015790D01*
X029666Y016040D01*
X029474Y016232D01*
X029224Y016335D01*
X028094Y016335D01*
X027844Y016232D01*
X027717Y016105D01*
X027022Y016105D01*
X026985Y016143D01*
X026850Y016198D01*
X026939Y016235D01*
X027079Y016375D01*
X027154Y016557D01*
X027154Y016754D01*
X027079Y016935D01*
X026939Y017075D01*
X026850Y017112D01*
X027811Y017112D01*
X027844Y017079D02*
X028094Y016975D01*
X029224Y016975D01*
X029474Y017079D01*
X029666Y017270D01*
X029769Y017520D01*
X029769Y017790D01*
X029666Y018040D01*
X029474Y018232D01*
X029224Y018335D01*
X028094Y018335D01*
X027844Y018232D01*
X027717Y018105D01*
X027022Y018105D01*
X026985Y018143D01*
X026850Y018198D01*
X026939Y018235D01*
X027079Y018375D01*
X027154Y018557D01*
X027154Y018754D01*
X027079Y018935D01*
X026939Y019075D01*
X026758Y019150D01*
X026714Y019150D01*
X026929Y019365D01*
X026997Y019365D01*
X027161Y019365D01*
X027311Y019428D01*
X027629Y019745D01*
X027629Y019536D01*
X027720Y019315D01*
X027889Y019146D01*
X028110Y019055D01*
X029208Y019055D01*
X029429Y019146D01*
X029598Y019315D01*
X029689Y019536D01*
X029689Y019774D01*
X029598Y019995D01*
X029429Y020164D01*
X029208Y020255D01*
X028139Y020255D01*
X028209Y020325D01*
X029637Y020325D01*
X029801Y020325D01*
X029951Y020388D01*
X030431Y020868D01*
X030547Y020983D01*
X030609Y021134D01*
X030609Y022014D01*
X030609Y022177D01*
X030547Y022327D01*
X029635Y023239D01*
X029666Y023270D01*
X029769Y023520D01*
X029769Y023790D01*
X029666Y024040D01*
X029474Y024232D01*
X029224Y024335D01*
X028094Y024335D01*
X027844Y024232D01*
X027717Y024105D01*
X027022Y024105D01*
X026985Y024143D01*
X026773Y024230D01*
X026545Y024230D01*
X026333Y024143D01*
X026172Y023981D01*
X026084Y023769D01*
X026084Y023541D01*
X026172Y023329D01*
X026333Y023168D01*
X026468Y023112D01*
X026379Y023075D01*
X026239Y022935D01*
X026164Y022754D01*
X026164Y022557D01*
X026239Y022375D01*
X026379Y022235D01*
X026468Y022198D01*
X026333Y022143D01*
X026172Y021981D01*
X026084Y021769D01*
X026084Y021541D01*
X026172Y021329D01*
X026333Y021168D01*
X026468Y021112D01*
X026379Y021075D01*
X026239Y020935D01*
X026164Y020754D01*
X026164Y020557D01*
X026239Y020375D01*
X026379Y020235D01*
X026561Y020160D01*
X026617Y020160D01*
X026527Y020123D01*
X026411Y020007D01*
X025690Y019285D01*
X025617Y019461D01*
X025465Y019613D01*
X025413Y019634D01*
X025565Y019697D01*
X025717Y019849D01*
X025799Y020048D01*
X025799Y020263D01*
X025717Y020461D01*
X025565Y020613D01*
X025413Y020676D01*
X025465Y020697D01*
X025617Y020849D01*
X025699Y021048D01*
X025699Y021263D01*
X025617Y021461D01*
X025465Y021613D01*
X025413Y021634D01*
X025565Y021697D01*
X025717Y021849D01*
X025799Y022048D01*
X025799Y022263D01*
X025717Y022461D01*
X025565Y022613D01*
X025514Y022634D01*
X025685Y022804D01*
X025779Y023032D01*
X025779Y023278D01*
X025685Y023506D01*
X025510Y023681D01*
X025490Y023689D01*
X025532Y023710D01*
X025598Y023758D01*
X025656Y023816D01*
X025704Y023883D01*
X025741Y023955D01*
X025766Y024033D01*
X025778Y024105D01*
X025309Y024105D01*
X025309Y024205D01*
X025778Y024205D01*
X025766Y024277D01*
X025741Y024355D01*
X025704Y024428D01*
X025665Y024481D01*
X031009Y024481D01*
X031009Y010665D01*
X031009Y012657D01*
X030947Y012807D01*
X030831Y012923D01*
X030279Y013475D01*
X030279Y013625D01*
X030241Y013717D01*
X030171Y013787D01*
X030079Y013825D01*
X029239Y013825D01*
X029147Y013787D01*
X029077Y013717D01*
X029039Y013625D01*
X029039Y012785D01*
X029077Y012694D01*
X029147Y012623D01*
X029239Y012585D01*
X029407Y012585D01*
X029353Y012563D01*
X029201Y012411D01*
X029119Y012213D01*
X029119Y011998D01*
X029201Y011799D01*
X029353Y011647D01*
X029552Y011565D01*
X029766Y011565D01*
X029965Y011647D01*
X030117Y011799D01*
X030189Y011974D01*
X030189Y010685D01*
X029711Y011163D01*
X029561Y011225D01*
X029397Y011225D01*
X026677Y011225D01*
X026527Y011163D01*
X026411Y011047D01*
X025489Y010125D01*
X025489Y010261D01*
X025420Y010426D01*
X025337Y010509D02*
X025874Y010509D01*
X025972Y010608D02*
X025160Y010608D01*
X024918Y010608D02*
X024698Y010608D01*
X024713Y010623D02*
X024782Y010789D01*
X024782Y010968D01*
X024713Y011133D01*
X024587Y011260D01*
X024421Y011328D01*
X024242Y011328D01*
X024077Y011260D01*
X023554Y010737D01*
X023486Y010572D01*
X023486Y010393D01*
X023554Y010227D01*
X023681Y010101D01*
X023846Y010032D01*
X024025Y010032D01*
X024191Y010101D01*
X024713Y010623D01*
X024748Y010707D02*
X026071Y010707D01*
X026169Y010805D02*
X024782Y010805D01*
X024782Y010904D02*
X026268Y010904D01*
X026366Y011002D02*
X024768Y011002D01*
X024727Y011101D02*
X026465Y011101D01*
X026615Y011199D02*
X024647Y011199D01*
X024495Y011298D02*
X030189Y011298D01*
X030189Y011396D02*
X024034Y011396D01*
X024006Y011330D02*
X024075Y011496D01*
X024075Y011675D01*
X024006Y011840D01*
X023880Y011967D01*
X023714Y012035D01*
X023535Y012035D01*
X023370Y011967D01*
X022847Y011444D01*
X022779Y011279D01*
X022779Y011100D01*
X022847Y010934D01*
X022974Y010808D01*
X023139Y010739D01*
X023318Y010739D01*
X023484Y010808D01*
X024006Y011330D01*
X023974Y011298D02*
X024169Y011298D01*
X024017Y011199D02*
X023875Y011199D01*
X023918Y011101D02*
X023777Y011101D01*
X023819Y011002D02*
X023678Y011002D01*
X023721Y010904D02*
X023579Y010904D01*
X023622Y010805D02*
X023477Y010805D01*
X023542Y010707D02*
X021696Y010707D01*
X021794Y010805D02*
X022981Y010805D01*
X022878Y010904D02*
X021893Y010904D01*
X021991Y011002D02*
X022819Y011002D01*
X022779Y011101D02*
X022090Y011101D01*
X022188Y011199D02*
X022779Y011199D01*
X022787Y011298D02*
X022287Y011298D01*
X022386Y011396D02*
X022828Y011396D01*
X022898Y011495D02*
X022728Y011495D01*
X022855Y011593D02*
X022997Y011593D01*
X022954Y011692D02*
X023095Y011692D01*
X023052Y011791D02*
X023194Y011791D01*
X023151Y011889D02*
X023292Y011889D01*
X023249Y011988D02*
X023420Y011988D01*
X023319Y012086D02*
X026770Y012086D01*
X026784Y012080D02*
X027534Y012080D01*
X027626Y012118D01*
X027696Y012189D01*
X027734Y012280D01*
X027734Y013030D01*
X027696Y013122D01*
X027626Y013192D01*
X027534Y013230D01*
X026784Y013230D01*
X026692Y013192D01*
X026622Y013122D01*
X026584Y013030D01*
X026584Y012922D01*
X026579Y012935D01*
X026439Y013075D01*
X026258Y013150D01*
X026061Y013150D01*
X025879Y013075D01*
X025739Y012935D01*
X025664Y012754D01*
X025664Y012557D01*
X025739Y012375D01*
X025879Y012235D01*
X026061Y012160D01*
X026258Y012160D01*
X026439Y012235D01*
X026579Y012375D01*
X026584Y012388D01*
X026584Y012280D01*
X026622Y012189D01*
X026692Y012118D01*
X026784Y012080D01*
X026626Y012185D02*
X026317Y012185D01*
X026487Y012283D02*
X026584Y012283D01*
X026582Y012382D02*
X026584Y012382D01*
X026584Y012973D02*
X026541Y012973D01*
X026601Y013072D02*
X026443Y013072D01*
X026671Y013170D02*
X022627Y013170D01*
X022661Y013089D02*
X022592Y013254D01*
X022465Y013381D01*
X022300Y013449D01*
X022121Y013449D01*
X021956Y013381D01*
X021433Y012858D01*
X021365Y012693D01*
X021365Y012514D01*
X021426Y012367D01*
X017969Y008910D01*
X017969Y008843D01*
X017904Y008817D01*
X017778Y008690D01*
X017709Y008525D01*
X017709Y007786D01*
X017778Y007620D01*
X017904Y007494D01*
X018070Y007425D01*
X018249Y007425D01*
X018414Y007494D01*
X018541Y007620D01*
X018609Y007786D01*
X018609Y008525D01*
X018541Y008690D01*
X018470Y008761D01*
X021863Y012154D01*
X021904Y012154D01*
X022070Y012222D01*
X022592Y012745D01*
X022661Y012910D01*
X022661Y013089D01*
X022661Y013072D02*
X025876Y013072D01*
X025777Y012973D02*
X022661Y012973D01*
X022646Y012874D02*
X025714Y012874D01*
X025673Y012776D02*
X022605Y012776D01*
X022671Y012677D02*
X022525Y012677D01*
X022568Y012579D02*
X022426Y012579D01*
X022469Y012480D02*
X022328Y012480D01*
X022371Y012382D02*
X022229Y012382D01*
X022272Y012283D02*
X022131Y012283D01*
X022174Y012185D02*
X021979Y012185D01*
X022113Y012086D02*
X021795Y012086D01*
X021697Y011988D02*
X022072Y011988D01*
X022072Y011889D02*
X021598Y011889D01*
X021500Y011791D02*
X022079Y011791D01*
X022031Y011692D02*
X021401Y011692D01*
X021303Y011593D02*
X021932Y011593D01*
X021834Y011495D02*
X021204Y011495D01*
X021105Y011396D02*
X021735Y011396D01*
X021636Y011298D02*
X021007Y011298D01*
X020908Y011199D02*
X021538Y011199D01*
X021439Y011101D02*
X020810Y011101D01*
X020711Y011002D02*
X021341Y011002D01*
X021242Y010904D02*
X020613Y010904D01*
X020514Y010805D02*
X021144Y010805D01*
X021045Y010707D02*
X020416Y010707D01*
X020317Y010608D02*
X020947Y010608D01*
X020848Y010509D02*
X020219Y010509D01*
X020120Y010411D02*
X020750Y010411D01*
X020651Y010312D02*
X020021Y010312D01*
X019923Y010214D02*
X020355Y010214D01*
X020273Y010115D02*
X019824Y010115D01*
X019726Y010017D02*
X020232Y010017D01*
X020229Y009918D02*
X019627Y009918D01*
X019529Y009820D02*
X020246Y009820D01*
X019645Y009721D02*
X019430Y009721D01*
X019332Y009623D02*
X019547Y009623D01*
X019448Y009524D02*
X019233Y009524D01*
X019135Y009425D02*
X019350Y009425D01*
X019251Y009327D02*
X019036Y009327D01*
X018938Y009228D02*
X019153Y009228D01*
X019054Y009130D02*
X018839Y009130D01*
X018740Y009031D02*
X018955Y009031D01*
X018857Y008933D02*
X018642Y008933D01*
X018543Y008834D02*
X018789Y008834D01*
X018710Y008736D02*
X018495Y008736D01*
X018562Y008637D02*
X018669Y008637D01*
X018629Y008539D02*
X018603Y008539D01*
X018609Y008440D02*
X018629Y008440D01*
X018629Y008341D02*
X018609Y008341D01*
X018609Y008243D02*
X018629Y008243D01*
X018629Y008144D02*
X018609Y008144D01*
X018609Y008046D02*
X018629Y008046D01*
X018629Y007947D02*
X018609Y007947D01*
X018609Y007849D02*
X018629Y007849D01*
X018637Y007750D02*
X018594Y007750D01*
X018554Y007652D02*
X018678Y007652D01*
X018731Y007553D02*
X018473Y007553D01*
X018320Y007455D02*
X018830Y007455D01*
X019027Y007356D02*
X017183Y007356D01*
X017189Y007455D02*
X017129Y007455D01*
X017129Y007553D02*
X017189Y007553D01*
X017189Y007652D02*
X017129Y007652D01*
X017129Y007750D02*
X017189Y007750D01*
X017189Y007849D02*
X017129Y007849D01*
X017129Y007947D02*
X017189Y007947D01*
X017189Y008046D02*
X017129Y008046D01*
X017129Y008144D02*
X016395Y008144D01*
X016494Y008046D02*
X016729Y008046D01*
X016729Y007947D02*
X016592Y007947D01*
X016691Y007849D02*
X016729Y007849D01*
X016271Y007618D02*
X016270Y007618D01*
X016196Y007630D01*
X016178Y007630D01*
X016178Y007174D01*
X016634Y007174D01*
X016634Y007192D01*
X016622Y007266D01*
X016622Y007267D01*
X017304Y006585D01*
X017494Y006585D01*
X021784Y006585D01*
X022749Y005620D01*
X022709Y005525D01*
X022709Y004786D01*
X022778Y004620D01*
X022904Y004494D01*
X023070Y004425D01*
X023249Y004425D01*
X023414Y004494D01*
X023541Y004620D01*
X023609Y004786D01*
X023609Y005525D01*
X023541Y005690D01*
X023414Y005817D01*
X023249Y005885D01*
X023134Y005885D01*
X022194Y006825D01*
X022534Y006825D01*
X022669Y006960D01*
X023134Y007425D01*
X023249Y007425D01*
X023414Y007494D01*
X023541Y007620D01*
X023609Y007786D01*
X023609Y008525D01*
X023541Y008690D01*
X023414Y008817D01*
X023249Y008885D01*
X023070Y008885D01*
X022904Y008817D01*
X022778Y008690D01*
X022709Y008525D01*
X022709Y007786D01*
X022749Y007690D01*
X022344Y007285D01*
X021414Y007285D01*
X021267Y007433D01*
X021414Y007494D01*
X021541Y007620D01*
X021609Y007786D01*
X021609Y008525D01*
X021541Y008690D01*
X021414Y008817D01*
X021249Y008885D01*
X021070Y008885D01*
X020969Y008843D01*
X020969Y008889D01*
X020937Y008965D01*
X023949Y008965D01*
X024011Y008903D01*
X024041Y008873D01*
X023904Y008817D01*
X023778Y008690D01*
X023709Y008525D01*
X023709Y007786D01*
X023778Y007620D01*
X023904Y007494D01*
X023923Y007486D01*
X024024Y007385D01*
X025189Y006220D01*
X025189Y006101D01*
X025221Y006025D01*
X024921Y006025D01*
X024757Y006025D01*
X024607Y005963D01*
X024494Y005850D01*
X024459Y005884D01*
X024264Y005965D01*
X024054Y005965D01*
X023859Y005884D01*
X023710Y005735D01*
X023629Y005541D01*
X023629Y004770D01*
X023660Y004696D01*
X022909Y003945D01*
X021401Y003945D01*
X021237Y003945D01*
X021087Y003883D01*
X020434Y003230D01*
X019784Y003230D01*
X019692Y003192D01*
X019622Y003122D01*
X019584Y003030D01*
X019584Y002922D01*
X019579Y002935D01*
X019439Y003075D01*
X019258Y003150D01*
X019061Y003150D01*
X018879Y003075D01*
X018739Y002935D01*
X018664Y002754D01*
X018664Y002557D01*
X018739Y002375D01*
X018879Y002235D01*
X019061Y002160D01*
X019258Y002160D01*
X019439Y002235D01*
X019579Y002375D01*
X019584Y002388D01*
X019584Y002280D01*
X019622Y002189D01*
X019692Y002118D01*
X019784Y002080D01*
X020534Y002080D01*
X020626Y002118D01*
X020696Y002189D01*
X020734Y002280D01*
X020734Y002370D01*
X020787Y002423D01*
X021489Y003125D01*
X023161Y003125D01*
X023311Y003188D01*
X023427Y003303D01*
X024467Y004343D01*
X024529Y004494D01*
X024529Y004496D01*
X024608Y004575D01*
X024689Y004770D01*
X024689Y004885D01*
X025009Y005205D01*
X026509Y005205D01*
X026564Y005150D01*
X026561Y005150D01*
X026379Y005075D01*
X026239Y004935D01*
X026164Y004754D01*
X026164Y004557D01*
X026239Y004375D01*
X026379Y004235D01*
X026468Y004198D01*
X026333Y004143D01*
X026172Y003981D01*
X026084Y003769D01*
X026084Y003541D01*
X026172Y003329D01*
X026333Y003168D01*
X026468Y003112D01*
X026379Y003075D01*
X026239Y002935D01*
X026164Y002754D01*
X026164Y002557D01*
X026239Y002375D01*
X026379Y002235D01*
X026468Y002198D01*
X026333Y002143D01*
X026172Y001981D01*
X026084Y001769D01*
X026084Y001541D01*
X026172Y001329D01*
X026333Y001168D01*
X026545Y001080D01*
X026773Y001080D01*
X026985Y001168D01*
X027102Y001285D01*
X027646Y001285D01*
X027653Y001270D01*
X027844Y001079D01*
X028094Y000975D01*
X029224Y000975D01*
X029474Y001079D01*
X029666Y001270D01*
X029769Y001520D01*
X029769Y001790D01*
X029666Y002040D01*
X029474Y002232D01*
X031009Y002232D01*
X031009Y002330D02*
X029236Y002330D01*
X029224Y002335D02*
X028094Y002335D01*
X027844Y002232D01*
X027717Y002105D01*
X027022Y002105D01*
X026985Y002143D01*
X026850Y002198D01*
X026939Y002235D01*
X027079Y002375D01*
X027154Y002557D01*
X027154Y002754D01*
X027079Y002935D01*
X026939Y003075D01*
X026850Y003112D01*
X026985Y003168D01*
X027001Y003184D01*
X027051Y003063D01*
X027167Y002948D01*
X027647Y002468D01*
X027797Y002405D01*
X027961Y002405D01*
X029481Y002405D01*
X029631Y002468D01*
X029747Y002583D01*
X031009Y003845D01*
X031009Y000825D01*
X001329Y000825D01*
X001329Y024481D01*
X006332Y024481D01*
X006281Y024460D01*
X006144Y024323D01*
X006069Y024143D01*
X006069Y023948D01*
X006144Y023768D01*
X006281Y023630D01*
X006462Y023555D01*
X007296Y023555D01*
X007477Y023630D01*
X007614Y023768D01*
X007689Y023948D01*
X007689Y024143D01*
X007614Y024323D01*
X007477Y024460D01*
X007427Y024481D01*
X008892Y024481D01*
X008841Y024460D01*
X008704Y024323D01*
X008629Y024143D01*
X008629Y023948D01*
X008704Y023768D01*
X008841Y023630D01*
X009022Y023555D01*
X009856Y023555D01*
X010037Y023630D01*
X010174Y023768D01*
X010249Y023948D01*
X010249Y024143D01*
X010174Y024323D01*
X010037Y024460D01*
X009987Y024481D01*
X022180Y024481D01*
X022129Y024430D01*
X022104Y024405D01*
X014824Y024405D01*
X014689Y024270D01*
X009969Y019550D01*
X009969Y019360D01*
X009969Y018240D01*
X010104Y018105D01*
X010439Y017770D01*
X010429Y017745D01*
X010429Y017566D01*
X010498Y017400D01*
X010624Y017274D01*
X010790Y017205D01*
X011529Y017205D01*
X011694Y017274D01*
X011821Y017400D01*
X011889Y017566D01*
X011889Y017745D01*
X011821Y017910D01*
X011694Y018037D01*
X011529Y018105D01*
X010790Y018105D01*
X010765Y018095D01*
X010429Y018430D01*
X010429Y019360D01*
X013164Y022095D01*
X013164Y022057D01*
X013239Y021875D01*
X013379Y021735D01*
X013561Y021660D01*
X013758Y021660D01*
X013939Y021735D01*
X014079Y021875D01*
X014154Y022057D01*
X014154Y022254D01*
X014079Y022435D01*
X013939Y022575D01*
X013758Y022650D01*
X013719Y022650D01*
X015014Y023945D01*
X022104Y023945D01*
X022138Y023945D01*
X021928Y023769D01*
X021928Y023769D01*
X021928Y023769D01*
X021762Y023482D01*
X021762Y023482D01*
X021705Y023155D01*
X021762Y022829D01*
X021762Y022829D01*
X021928Y022542D01*
X021928Y022542D01*
X022182Y022329D01*
X022493Y022215D01*
X022493Y022215D01*
X022659Y022215D01*
X022746Y022215D01*
X022825Y022215D01*
X023136Y022329D01*
X023136Y022329D01*
X023390Y022542D01*
X023556Y022829D01*
X023614Y023155D01*
X023556Y023482D01*
X023390Y023769D01*
X023136Y023982D01*
X022825Y024095D01*
X022825Y024095D01*
X022746Y024095D01*
X022659Y024095D01*
X022628Y024095D01*
X022572Y024095D01*
X022493Y024095D01*
X022416Y024067D01*
X022454Y024105D01*
X023064Y024105D01*
X024049Y023120D01*
X024049Y022430D01*
X024049Y022240D01*
X024204Y022085D01*
X024104Y022085D01*
X022374Y022085D01*
X020854Y023605D01*
X020664Y023605D01*
X015224Y023605D01*
X015089Y023470D01*
X014689Y023070D01*
X014689Y022880D01*
X014689Y021310D01*
X012264Y018885D01*
X011831Y018885D01*
X011821Y018910D01*
X011694Y019037D01*
X011529Y019105D01*
X010790Y019105D01*
X010624Y019037D01*
X010498Y018910D01*
X010429Y018745D01*
X010429Y018566D01*
X010498Y018400D01*
X010624Y018274D01*
X010790Y018205D01*
X011529Y018205D01*
X011694Y018274D01*
X011821Y018400D01*
X011831Y018425D01*
X012264Y018425D01*
X012454Y018425D01*
X015014Y020985D01*
X015149Y021120D01*
X015149Y022880D01*
X015414Y023145D01*
X016549Y023145D01*
X016379Y023075D01*
X016239Y022935D01*
X016164Y022754D01*
X016164Y022557D01*
X016239Y022375D01*
X016379Y022235D01*
X016561Y022160D01*
X016758Y022160D01*
X016939Y022235D01*
X017079Y022375D01*
X017154Y022557D01*
X017154Y022754D01*
X017079Y022935D01*
X016939Y023075D01*
X016769Y023145D01*
X020664Y023145D01*
X021084Y022725D01*
X017784Y022725D01*
X017649Y022590D01*
X016887Y021828D01*
X016749Y021885D01*
X016570Y021885D01*
X016404Y021817D01*
X016278Y021690D01*
X016209Y021525D01*
X016209Y020786D01*
X016267Y020645D01*
X016023Y020645D01*
X016027Y020650D01*
X016058Y020710D01*
X016078Y020774D01*
X016089Y020841D01*
X016089Y021125D01*
X015689Y021125D01*
X015689Y021185D01*
X016089Y021185D01*
X016089Y021469D01*
X016078Y021536D01*
X016058Y021600D01*
X016027Y021660D01*
X015987Y021715D01*
X015939Y021763D01*
X015884Y021803D01*
X015824Y021834D01*
X015760Y021854D01*
X015693Y021865D01*
X015689Y021865D01*
X015689Y021185D01*
X015629Y021185D01*
X015629Y021125D01*
X015229Y021125D01*
X015229Y020841D01*
X015240Y020774D01*
X015261Y020710D01*
X015291Y020650D01*
X015331Y020595D01*
X015379Y020547D01*
X015434Y020507D01*
X015468Y020490D01*
X012449Y017470D01*
X012449Y017280D01*
X012449Y014990D01*
X011553Y014095D01*
X011529Y014105D01*
X010790Y014105D01*
X010624Y014037D01*
X010498Y013910D01*
X010429Y013745D01*
X010429Y013566D01*
X010498Y013400D01*
X010624Y013274D01*
X010790Y013205D01*
X011529Y013205D01*
X011694Y013274D01*
X011821Y013400D01*
X011889Y013566D01*
X011889Y013745D01*
X011879Y013770D01*
X012774Y014665D01*
X012909Y014800D01*
X012909Y017280D01*
X014349Y018720D01*
X014349Y016841D01*
X014321Y016910D01*
X014194Y017037D01*
X014029Y017105D01*
X013290Y017105D01*
X013124Y017037D01*
X012998Y016910D01*
X012929Y016745D01*
X012929Y016566D01*
X012998Y016400D01*
X013124Y016274D01*
X013290Y016205D01*
X014029Y016205D01*
X014194Y016274D01*
X014321Y016400D01*
X014349Y016469D01*
X014349Y015857D01*
X014349Y015785D01*
X014338Y015820D01*
X014307Y015880D01*
X014267Y015935D01*
X014219Y015983D01*
X014164Y016023D01*
X014104Y016054D01*
X014040Y016074D01*
X013973Y016085D01*
X013689Y016085D01*
X013689Y015685D01*
X014353Y015685D01*
X014411Y015543D01*
X014829Y015125D01*
X014829Y011070D01*
X014373Y011527D01*
X014389Y011566D01*
X014389Y011745D01*
X014321Y011910D01*
X014194Y012037D01*
X014029Y012105D01*
X013290Y012105D01*
X013124Y012037D01*
X012998Y011910D01*
X012929Y011745D01*
X012929Y011566D01*
X012998Y011400D01*
X013124Y011274D01*
X013290Y011205D01*
X014029Y011205D01*
X014039Y011210D01*
X014529Y010720D01*
X014529Y008954D01*
X014521Y008965D01*
X014468Y009017D01*
X014408Y009061D01*
X014341Y009095D01*
X014270Y009118D01*
X014196Y009130D01*
X014178Y009130D01*
X014178Y008674D01*
X014140Y008674D01*
X014140Y008636D01*
X014178Y008636D01*
X014178Y008180D01*
X014196Y008180D01*
X014270Y008192D01*
X014341Y008215D01*
X014408Y008249D01*
X014468Y008293D01*
X014521Y008346D01*
X014529Y008356D01*
X014529Y007310D01*
X012184Y004965D01*
X011954Y004965D01*
X012694Y005705D01*
X012704Y005715D01*
X012766Y005715D01*
X012965Y005797D01*
X013117Y005949D01*
X013199Y006148D01*
X013199Y006363D01*
X013117Y006561D01*
X012965Y006713D01*
X012766Y006795D01*
X012552Y006795D01*
X012353Y006713D01*
X012201Y006561D01*
X012119Y006363D01*
X012119Y006148D01*
X012201Y005949D01*
X012245Y005906D01*
X011878Y005539D01*
X011889Y005566D01*
X011889Y005745D01*
X011821Y005910D01*
X011694Y006037D01*
X011529Y006105D01*
X010790Y006105D01*
X010624Y006037D01*
X010498Y005910D01*
X010429Y005745D01*
X010429Y005566D01*
X010496Y005403D01*
X009149Y006750D01*
X009149Y006750D01*
X009014Y006885D01*
X008831Y006885D01*
X008821Y006910D01*
X008694Y007037D01*
X008529Y007105D01*
X007790Y007105D01*
X007624Y007037D01*
X007498Y006910D01*
X007429Y006745D01*
X007429Y006566D01*
X007498Y006400D01*
X007624Y006274D01*
X007790Y006205D01*
X008529Y006205D01*
X008694Y006274D01*
X008821Y006400D01*
X008829Y006420D01*
X009404Y005845D01*
X008847Y005845D01*
X008821Y005910D01*
X008694Y006037D01*
X008529Y006105D01*
X007790Y006105D01*
X007624Y006037D01*
X007498Y005910D01*
X007429Y005745D01*
X007429Y005566D01*
X007498Y005400D01*
X007624Y005274D01*
X007790Y005205D01*
X008529Y005205D01*
X008694Y005274D01*
X008805Y005385D01*
X009544Y005385D01*
X010289Y004640D01*
X010424Y004505D01*
X012184Y004505D01*
X012374Y004505D01*
X014829Y006960D01*
X014829Y005961D01*
X014789Y005865D01*
X014789Y005686D01*
X014858Y005520D01*
X014984Y005394D01*
X015150Y005325D01*
X015329Y005325D01*
X015494Y005394D01*
X015621Y005520D01*
X015689Y005686D01*
X015689Y005865D01*
X015649Y005961D01*
X015649Y008240D01*
X016271Y007618D01*
X016237Y007652D02*
X015649Y007652D01*
X015649Y007750D02*
X016139Y007750D01*
X016140Y007630D02*
X016122Y007630D01*
X016048Y007618D01*
X015977Y007595D01*
X015910Y007561D01*
X015850Y007517D01*
X015797Y007465D01*
X015753Y007404D01*
X015719Y007337D01*
X015696Y007266D01*
X015684Y007192D01*
X015684Y007174D01*
X016140Y007174D01*
X016140Y007136D01*
X016178Y007136D01*
X016178Y006680D01*
X016196Y006680D01*
X016270Y006692D01*
X016341Y006715D01*
X016408Y006749D01*
X016468Y006793D01*
X016521Y006846D01*
X016565Y006906D01*
X016599Y006973D01*
X016622Y007044D01*
X016634Y007118D01*
X016634Y007136D01*
X016178Y007136D01*
X016178Y007174D01*
X016140Y007174D01*
X016140Y007630D01*
X016140Y007553D02*
X016178Y007553D01*
X016178Y007455D02*
X016140Y007455D01*
X016140Y007356D02*
X016178Y007356D01*
X016178Y007258D02*
X016140Y007258D01*
X016140Y007159D02*
X015649Y007159D01*
X015684Y007136D02*
X015684Y007118D01*
X015696Y007044D01*
X015719Y006973D01*
X015753Y006906D01*
X015797Y006846D01*
X015850Y006793D01*
X015910Y006749D01*
X015977Y006715D01*
X016048Y006692D01*
X016122Y006680D01*
X016140Y006680D01*
X016140Y007136D01*
X015684Y007136D01*
X015693Y007060D02*
X015649Y007060D01*
X015649Y006962D02*
X015724Y006962D01*
X015784Y006863D02*
X015649Y006863D01*
X015649Y006765D02*
X015888Y006765D01*
X015879Y006575D02*
X015739Y006435D01*
X015664Y006254D01*
X015664Y006057D01*
X015739Y005875D01*
X015879Y005735D01*
X016061Y005660D01*
X016258Y005660D01*
X016439Y005735D01*
X016579Y005875D01*
X016654Y006057D01*
X016654Y006254D01*
X016579Y006435D01*
X016439Y006575D01*
X016258Y006650D01*
X016061Y006650D01*
X015879Y006575D01*
X015872Y006568D02*
X015649Y006568D01*
X015649Y006666D02*
X017223Y006666D01*
X017124Y006765D02*
X016430Y006765D01*
X016534Y006863D02*
X017026Y006863D01*
X016927Y006962D02*
X016594Y006962D01*
X016625Y007060D02*
X016828Y007060D01*
X016730Y007159D02*
X016178Y007159D01*
X016178Y007060D02*
X016140Y007060D01*
X016140Y006962D02*
X016178Y006962D01*
X016178Y006863D02*
X016140Y006863D01*
X016140Y006765D02*
X016178Y006765D01*
X016446Y006568D02*
X021801Y006568D01*
X021900Y006469D02*
X016545Y006469D01*
X016606Y006371D02*
X021998Y006371D01*
X022097Y006272D02*
X016646Y006272D01*
X016654Y006174D02*
X022195Y006174D01*
X022294Y006075D02*
X016654Y006075D01*
X016621Y005976D02*
X022392Y005976D01*
X022459Y005884D02*
X022264Y005965D01*
X022054Y005965D01*
X021859Y005884D01*
X021710Y005735D01*
X021629Y005541D01*
X021629Y004770D01*
X021710Y004575D01*
X021859Y004426D01*
X022054Y004345D01*
X022264Y004345D01*
X022459Y004426D01*
X022608Y004575D01*
X022689Y004770D01*
X022689Y005541D01*
X022608Y005735D01*
X022459Y005884D01*
X022466Y005878D02*
X022491Y005878D01*
X022564Y005779D02*
X022590Y005779D01*
X022631Y005681D02*
X022688Y005681D01*
X022672Y005582D02*
X022733Y005582D01*
X022709Y005484D02*
X022689Y005484D01*
X022689Y005385D02*
X022709Y005385D01*
X022709Y005287D02*
X022689Y005287D01*
X022689Y005188D02*
X022709Y005188D01*
X022709Y005090D02*
X022689Y005090D01*
X022689Y004991D02*
X022709Y004991D01*
X022709Y004892D02*
X022689Y004892D01*
X022689Y004794D02*
X022709Y004794D01*
X022746Y004695D02*
X022658Y004695D01*
X022617Y004597D02*
X022801Y004597D01*
X022899Y004498D02*
X022532Y004498D01*
X022396Y004400D02*
X023364Y004400D01*
X023419Y004498D02*
X023462Y004498D01*
X023517Y004597D02*
X023561Y004597D01*
X023572Y004695D02*
X023660Y004695D01*
X023629Y004794D02*
X023609Y004794D01*
X023609Y004892D02*
X023629Y004892D01*
X023629Y004991D02*
X023609Y004991D01*
X023609Y005090D02*
X023629Y005090D01*
X023629Y005188D02*
X023609Y005188D01*
X023609Y005287D02*
X023629Y005287D01*
X023629Y005385D02*
X023609Y005385D01*
X023609Y005484D02*
X023629Y005484D01*
X023646Y005582D02*
X023585Y005582D01*
X023544Y005681D02*
X023687Y005681D01*
X023754Y005779D02*
X023451Y005779D01*
X023266Y005878D02*
X023852Y005878D01*
X024466Y005878D02*
X024522Y005878D01*
X024640Y005976D02*
X023043Y005976D01*
X022944Y006075D02*
X025200Y006075D01*
X025189Y006174D02*
X022846Y006174D01*
X022747Y006272D02*
X025137Y006272D01*
X025038Y006371D02*
X022649Y006371D01*
X022550Y006469D02*
X024940Y006469D01*
X024841Y006568D02*
X022452Y006568D01*
X022353Y006666D02*
X024743Y006666D01*
X024644Y006765D02*
X022255Y006765D01*
X022573Y006863D02*
X024546Y006863D01*
X024447Y006962D02*
X022671Y006962D01*
X022770Y007060D02*
X024348Y007060D01*
X024250Y007159D02*
X022868Y007159D01*
X022967Y007258D02*
X024151Y007258D01*
X024053Y007356D02*
X023065Y007356D01*
X023320Y007455D02*
X023954Y007455D01*
X023845Y007553D02*
X023473Y007553D01*
X023554Y007652D02*
X023764Y007652D01*
X023724Y007750D02*
X023594Y007750D01*
X023609Y007849D02*
X023709Y007849D01*
X023709Y007947D02*
X023609Y007947D01*
X023609Y008046D02*
X023709Y008046D01*
X023709Y008144D02*
X023609Y008144D01*
X023609Y008243D02*
X023709Y008243D01*
X023709Y008341D02*
X023609Y008341D01*
X023609Y008440D02*
X023709Y008440D01*
X023715Y008539D02*
X023603Y008539D01*
X023562Y008637D02*
X023756Y008637D01*
X023823Y008736D02*
X023495Y008736D01*
X023371Y008834D02*
X023947Y008834D01*
X023982Y008933D02*
X022343Y008933D01*
X022264Y008965D02*
X022459Y008884D01*
X022608Y008735D01*
X022689Y008541D01*
X022689Y007770D01*
X022608Y007575D01*
X022459Y007426D01*
X022264Y007345D01*
X022054Y007345D01*
X021859Y007426D01*
X021710Y007575D01*
X021629Y007770D01*
X021629Y008541D01*
X021710Y008735D01*
X021859Y008884D01*
X022054Y008965D01*
X022264Y008965D01*
X022509Y008834D02*
X022947Y008834D01*
X022823Y008736D02*
X022608Y008736D01*
X022649Y008637D02*
X022756Y008637D01*
X022715Y008539D02*
X022689Y008539D01*
X022689Y008440D02*
X022709Y008440D01*
X022709Y008341D02*
X022689Y008341D01*
X022689Y008243D02*
X022709Y008243D01*
X022709Y008144D02*
X022689Y008144D01*
X022689Y008046D02*
X022709Y008046D01*
X022709Y007947D02*
X022689Y007947D01*
X022689Y007849D02*
X022709Y007849D01*
X022724Y007750D02*
X022681Y007750D01*
X022710Y007652D02*
X022640Y007652D01*
X022612Y007553D02*
X022587Y007553D01*
X022513Y007455D02*
X022488Y007455D01*
X022415Y007356D02*
X022291Y007356D01*
X022027Y007356D02*
X021343Y007356D01*
X021320Y007455D02*
X021830Y007455D01*
X021731Y007553D02*
X021473Y007553D01*
X021554Y007652D02*
X021678Y007652D01*
X021637Y007750D02*
X021594Y007750D01*
X021609Y007849D02*
X021629Y007849D01*
X021629Y007947D02*
X021609Y007947D01*
X021609Y008046D02*
X021629Y008046D01*
X021629Y008144D02*
X021609Y008144D01*
X021609Y008243D02*
X021629Y008243D01*
X021629Y008341D02*
X021609Y008341D01*
X021609Y008440D02*
X021629Y008440D01*
X021629Y008539D02*
X021603Y008539D01*
X021562Y008637D02*
X021669Y008637D01*
X021710Y008736D02*
X021495Y008736D01*
X021371Y008834D02*
X021809Y008834D01*
X021976Y008933D02*
X020951Y008933D01*
X020247Y008933D02*
X020016Y008933D01*
X019947Y008834D02*
X019918Y008834D01*
X019823Y008736D02*
X019819Y008736D01*
X019756Y008637D02*
X019721Y008637D01*
X019715Y008539D02*
X019689Y008539D01*
X019689Y008440D02*
X019709Y008440D01*
X019709Y008341D02*
X019689Y008341D01*
X019689Y008243D02*
X019709Y008243D01*
X019709Y008144D02*
X019689Y008144D01*
X019689Y008046D02*
X019709Y008046D01*
X019709Y007947D02*
X019689Y007947D01*
X019689Y007849D02*
X019709Y007849D01*
X019724Y007750D02*
X019681Y007750D01*
X019640Y007652D02*
X019764Y007652D01*
X019845Y007553D02*
X019587Y007553D01*
X019488Y007455D02*
X019998Y007455D01*
X020320Y007455D02*
X020594Y007455D01*
X020496Y007553D02*
X020473Y007553D01*
X020693Y007356D02*
X019291Y007356D01*
X017998Y007455D02*
X017253Y007455D01*
X017282Y007258D02*
X020791Y007258D01*
X020890Y007159D02*
X017380Y007159D01*
X017479Y007060D02*
X020988Y007060D01*
X021070Y005885D02*
X020904Y005817D01*
X020778Y005690D01*
X020709Y005525D01*
X020709Y004786D01*
X020778Y004620D01*
X020904Y004494D01*
X021070Y004425D01*
X021249Y004425D01*
X021414Y004494D01*
X021541Y004620D01*
X021609Y004786D01*
X021609Y005525D01*
X021541Y005690D01*
X021414Y005817D01*
X021249Y005885D01*
X021070Y005885D01*
X021052Y005878D02*
X020266Y005878D01*
X020249Y005885D02*
X020070Y005885D01*
X019904Y005817D01*
X019778Y005690D01*
X019709Y005525D01*
X019709Y004786D01*
X019778Y004620D01*
X019904Y004494D01*
X020070Y004425D01*
X020249Y004425D01*
X020414Y004494D01*
X020541Y004620D01*
X020609Y004786D01*
X020609Y005525D01*
X020541Y005690D01*
X020414Y005817D01*
X020249Y005885D01*
X020052Y005878D02*
X019466Y005878D01*
X019459Y005884D02*
X019264Y005965D01*
X019054Y005965D01*
X018859Y005884D01*
X018710Y005735D01*
X018629Y005541D01*
X018629Y004770D01*
X018710Y004575D01*
X018859Y004426D01*
X019054Y004345D01*
X019264Y004345D01*
X019459Y004426D01*
X019608Y004575D01*
X019689Y004770D01*
X019689Y005541D01*
X019608Y005735D01*
X019459Y005884D01*
X019564Y005779D02*
X019867Y005779D01*
X019774Y005681D02*
X019631Y005681D01*
X019672Y005582D02*
X019733Y005582D01*
X019709Y005484D02*
X019689Y005484D01*
X019689Y005385D02*
X019709Y005385D01*
X019709Y005287D02*
X019689Y005287D01*
X019689Y005188D02*
X019709Y005188D01*
X019709Y005090D02*
X019689Y005090D01*
X019689Y004991D02*
X019709Y004991D01*
X019709Y004892D02*
X019689Y004892D01*
X019689Y004794D02*
X019709Y004794D01*
X019746Y004695D02*
X019658Y004695D01*
X019617Y004597D02*
X019801Y004597D01*
X019899Y004498D02*
X019532Y004498D01*
X019396Y004400D02*
X021922Y004400D01*
X021786Y004498D02*
X021419Y004498D01*
X021517Y004597D02*
X021701Y004597D01*
X021660Y004695D02*
X021572Y004695D01*
X021609Y004794D02*
X021629Y004794D01*
X021629Y004892D02*
X021609Y004892D01*
X021609Y004991D02*
X021629Y004991D01*
X021629Y005090D02*
X021609Y005090D01*
X021609Y005188D02*
X021629Y005188D01*
X021629Y005287D02*
X021609Y005287D01*
X021609Y005385D02*
X021629Y005385D01*
X021629Y005484D02*
X021609Y005484D01*
X021585Y005582D02*
X021646Y005582D01*
X021687Y005681D02*
X021544Y005681D01*
X021451Y005779D02*
X021754Y005779D01*
X021852Y005878D02*
X021266Y005878D01*
X020867Y005779D02*
X020451Y005779D01*
X020544Y005681D02*
X020774Y005681D01*
X020733Y005582D02*
X020585Y005582D01*
X020609Y005484D02*
X020709Y005484D01*
X020709Y005385D02*
X020609Y005385D01*
X020609Y005287D02*
X020709Y005287D01*
X020709Y005188D02*
X020609Y005188D01*
X020609Y005090D02*
X020709Y005090D01*
X020709Y004991D02*
X020609Y004991D01*
X020609Y004892D02*
X020709Y004892D01*
X020709Y004794D02*
X020609Y004794D01*
X020572Y004695D02*
X020746Y004695D01*
X020801Y004597D02*
X020517Y004597D01*
X020419Y004498D02*
X020899Y004498D01*
X021146Y003907D02*
X017389Y003907D01*
X017389Y003809D02*
X021013Y003809D01*
X020914Y003710D02*
X017389Y003710D01*
X017389Y003611D02*
X020816Y003611D01*
X020717Y003513D02*
X017382Y003513D01*
X017389Y003520D02*
X017389Y004483D01*
X017414Y004494D01*
X017541Y004620D01*
X017609Y004786D01*
X017609Y005525D01*
X017541Y005690D01*
X017414Y005817D01*
X017249Y005885D01*
X017070Y005885D01*
X016904Y005817D01*
X016778Y005690D01*
X016709Y005525D01*
X016709Y004786D01*
X016778Y004620D01*
X016904Y004494D01*
X016929Y004483D01*
X016929Y003710D01*
X016076Y003710D01*
X016104Y003738D01*
X016124Y003772D01*
X016134Y003810D01*
X016134Y004136D01*
X015678Y004136D01*
X015678Y003680D01*
X016004Y003680D01*
X016042Y003690D01*
X016076Y003710D01*
X016134Y003809D02*
X016929Y003809D01*
X016929Y003907D02*
X016134Y003907D01*
X016134Y004006D02*
X016929Y004006D01*
X016929Y004104D02*
X016134Y004104D01*
X016134Y004174D02*
X016134Y004500D01*
X016124Y004538D01*
X016104Y004572D01*
X016076Y004600D01*
X016042Y004620D01*
X016004Y004630D01*
X015678Y004630D01*
X015678Y004174D01*
X016134Y004174D01*
X016134Y004203D02*
X016929Y004203D01*
X016929Y004301D02*
X016134Y004301D01*
X016134Y004400D02*
X016929Y004400D01*
X016899Y004498D02*
X016134Y004498D01*
X016079Y004597D02*
X016801Y004597D01*
X016746Y004695D02*
X014166Y004695D01*
X014067Y004597D02*
X015239Y004597D01*
X015242Y004600D02*
X015214Y004572D01*
X015194Y004538D01*
X015184Y004500D01*
X015184Y004174D01*
X015640Y004174D01*
X015640Y004136D01*
X015678Y004136D01*
X015678Y004174D01*
X015640Y004174D01*
X015640Y004630D01*
X015314Y004630D01*
X015276Y004620D01*
X015242Y004600D01*
X015184Y004498D02*
X013969Y004498D01*
X013870Y004400D02*
X015184Y004400D01*
X015184Y004301D02*
X013772Y004301D01*
X013673Y004203D02*
X015184Y004203D01*
X015184Y004136D02*
X015184Y003810D01*
X015194Y003772D01*
X015214Y003738D01*
X015242Y003710D01*
X015276Y003690D01*
X015314Y003680D01*
X015640Y003680D01*
X015640Y004136D01*
X015184Y004136D01*
X015184Y004104D02*
X013575Y004104D01*
X013476Y004006D02*
X015184Y004006D01*
X015184Y003907D02*
X013378Y003907D01*
X013279Y003809D02*
X015185Y003809D01*
X015242Y003710D02*
X013181Y003710D01*
X013082Y003611D02*
X015467Y003611D01*
X015379Y003575D02*
X015239Y003435D01*
X015164Y003254D01*
X015164Y003057D01*
X015239Y002875D01*
X015379Y002735D01*
X015561Y002660D01*
X015758Y002660D01*
X015939Y002735D01*
X016079Y002875D01*
X016154Y003057D01*
X016154Y003254D01*
X016079Y003435D01*
X015939Y003575D01*
X015758Y003650D01*
X015561Y003650D01*
X015379Y003575D01*
X015317Y003513D02*
X013001Y003513D01*
X013013Y003542D02*
X014272Y004801D01*
X014369Y004841D01*
X014473Y004946D01*
X014529Y005081D01*
X014529Y005229D01*
X014473Y005365D01*
X014369Y005469D01*
X014233Y005525D01*
X014085Y005525D01*
X013949Y005469D01*
X013845Y005365D01*
X013805Y005268D01*
X012546Y004009D01*
X012449Y003969D01*
X012345Y003865D01*
X012289Y003729D01*
X012289Y003581D01*
X012345Y003446D01*
X012449Y003341D01*
X012585Y003285D01*
X012733Y003285D01*
X012869Y003341D01*
X012973Y003446D01*
X013013Y003542D01*
X012941Y003414D02*
X015231Y003414D01*
X015190Y003316D02*
X012807Y003316D01*
X012511Y003316D02*
X009544Y003316D01*
X009574Y003285D02*
X007389Y005470D01*
X007389Y007840D01*
X007765Y008215D01*
X007790Y008205D01*
X008529Y008205D01*
X008694Y008274D01*
X008821Y008400D01*
X008889Y008566D01*
X008889Y008745D01*
X008821Y008910D01*
X008720Y009011D01*
X008829Y009120D01*
X009389Y009680D01*
X009389Y009870D01*
X009389Y013840D01*
X010765Y015215D01*
X010790Y015205D01*
X011529Y015205D01*
X011694Y015274D01*
X011821Y015400D01*
X011889Y015566D01*
X011889Y015745D01*
X011821Y015910D01*
X011694Y016037D01*
X011529Y016105D01*
X010790Y016105D01*
X010624Y016037D01*
X010498Y015910D01*
X010429Y015745D01*
X010429Y015566D01*
X010439Y015541D01*
X009064Y014165D01*
X008929Y014030D01*
X008929Y009870D01*
X008864Y009805D01*
X008821Y009910D01*
X008694Y010037D01*
X008529Y010105D01*
X007790Y010105D01*
X007624Y010037D01*
X007498Y009910D01*
X007471Y009845D01*
X007254Y009845D01*
X007064Y009845D01*
X006336Y009117D01*
X006258Y009150D01*
X006061Y009150D01*
X005982Y009117D01*
X005254Y009845D01*
X005116Y009845D01*
X005079Y009935D01*
X004939Y010075D01*
X004758Y010150D01*
X004561Y010150D01*
X004379Y010075D01*
X004239Y009935D01*
X004164Y009754D01*
X004164Y009557D01*
X004239Y009375D01*
X004379Y009235D01*
X004561Y009160D01*
X004758Y009160D01*
X004939Y009235D01*
X005076Y009373D01*
X005673Y008776D01*
X005664Y008754D01*
X005664Y008557D01*
X005739Y008375D01*
X005879Y008235D01*
X006061Y008160D01*
X006258Y008160D01*
X006396Y008218D01*
X006184Y008005D01*
X004073Y008005D01*
X003965Y008113D01*
X003766Y008195D01*
X003552Y008195D01*
X003353Y008113D01*
X003201Y007961D01*
X003119Y007763D01*
X003119Y007548D01*
X003201Y007349D01*
X003353Y007197D01*
X003552Y007115D01*
X003766Y007115D01*
X003965Y007197D01*
X004117Y007349D01*
X004198Y007545D01*
X006374Y007545D01*
X006509Y007680D01*
X007429Y008600D01*
X007429Y008566D01*
X007439Y008541D01*
X007064Y008165D01*
X006929Y008030D01*
X006929Y005470D01*
X006929Y005280D01*
X009249Y002960D01*
X009384Y002825D01*
X014584Y002825D01*
X015089Y002320D01*
X015224Y002185D01*
X015864Y002185D01*
X016054Y002185D01*
X017254Y003385D01*
X017389Y003520D01*
X017284Y003414D02*
X020619Y003414D01*
X020520Y003316D02*
X017185Y003316D01*
X017086Y003217D02*
X019753Y003217D01*
X019621Y003119D02*
X019333Y003119D01*
X019494Y003020D02*
X019584Y003020D01*
X018985Y003119D02*
X016988Y003119D01*
X016889Y003020D02*
X018824Y003020D01*
X018734Y002922D02*
X016791Y002922D01*
X016692Y002823D02*
X018693Y002823D01*
X018664Y002725D02*
X016594Y002725D01*
X016495Y002626D02*
X018664Y002626D01*
X018676Y002527D02*
X016397Y002527D01*
X016298Y002429D02*
X018717Y002429D01*
X018784Y002330D02*
X016200Y002330D01*
X016101Y002232D02*
X018887Y002232D01*
X019431Y002232D02*
X019604Y002232D01*
X019584Y002330D02*
X019534Y002330D01*
X019677Y002133D02*
X013166Y002133D01*
X013179Y002214D01*
X013179Y002216D01*
X012698Y002216D01*
X012698Y001735D01*
X012700Y001735D01*
X012781Y001748D01*
X012859Y001773D01*
X012932Y001810D01*
X012998Y001858D01*
X013056Y001916D01*
X013104Y001983D01*
X013141Y002055D01*
X013166Y002133D01*
X013130Y002035D02*
X021726Y002035D01*
X021708Y002133D02*
X020641Y002133D01*
X020714Y002232D02*
X021718Y002232D01*
X021705Y002155D02*
X021705Y002155D01*
X021762Y001829D01*
X021762Y001829D01*
X021928Y001542D01*
X003390Y001542D01*
X003556Y001829D01*
X003614Y002155D01*
X003556Y002482D01*
X003390Y002769D01*
X003136Y002982D01*
X002825Y003095D01*
X002825Y003095D01*
X002659Y003095D01*
X002493Y003095D01*
X002182Y002982D01*
X002182Y002982D01*
X001928Y002769D01*
X001928Y002769D01*
X001928Y002769D01*
X001762Y002482D01*
X001762Y002482D01*
X001705Y002155D01*
X001762Y001829D01*
X001762Y001829D01*
X001928Y001542D01*
X001329Y001542D01*
X001329Y001641D02*
X001871Y001641D01*
X001814Y001739D02*
X001329Y001739D01*
X001329Y001838D02*
X001761Y001838D01*
X001743Y001936D02*
X001329Y001936D01*
X001329Y002035D02*
X001726Y002035D01*
X001708Y002133D02*
X001329Y002133D01*
X001329Y002232D02*
X001718Y002232D01*
X001705Y002155D02*
X001705Y002155D01*
X001735Y002330D02*
X001329Y002330D01*
X001329Y002429D02*
X001753Y002429D01*
X001789Y002527D02*
X001329Y002527D01*
X001329Y002626D02*
X001846Y002626D01*
X001902Y002725D02*
X001329Y002725D01*
X001329Y002823D02*
X001993Y002823D01*
X002110Y002922D02*
X001329Y002922D01*
X001329Y003020D02*
X002287Y003020D01*
X002493Y003095D02*
X002493Y003095D01*
X003031Y003020D02*
X006690Y003020D01*
X006694Y003038D02*
X006684Y003000D01*
X006684Y002674D01*
X007140Y002674D01*
X007140Y002636D01*
X007178Y002636D01*
X007178Y002180D01*
X007504Y002180D01*
X007542Y002190D01*
X007576Y002210D01*
X007604Y002238D01*
X007624Y002272D01*
X007634Y002310D01*
X007634Y002636D01*
X007178Y002636D01*
X007178Y002674D01*
X007634Y002674D01*
X007634Y003000D01*
X007624Y003038D01*
X007604Y003072D01*
X007576Y003100D01*
X007542Y003120D01*
X007504Y003130D01*
X007178Y003130D01*
X007178Y002674D01*
X007140Y002674D01*
X007140Y003130D01*
X006814Y003130D01*
X006776Y003120D01*
X006742Y003100D01*
X006714Y003072D01*
X006694Y003038D01*
X006774Y003119D02*
X001329Y003119D01*
X001329Y003217D02*
X008992Y003217D01*
X009090Y003119D02*
X008333Y003119D01*
X008258Y003150D02*
X008439Y003075D01*
X008579Y002935D01*
X008654Y002754D01*
X008654Y002557D01*
X008579Y002375D01*
X008439Y002235D01*
X008258Y002160D01*
X008061Y002160D01*
X007879Y002235D01*
X007739Y002375D01*
X007664Y002557D01*
X007664Y002754D01*
X007739Y002935D01*
X007879Y003075D01*
X008061Y003150D01*
X008258Y003150D01*
X008494Y003020D02*
X009189Y003020D01*
X009287Y002922D02*
X008584Y002922D01*
X008625Y002823D02*
X014586Y002823D01*
X014684Y002725D02*
X012883Y002725D01*
X012859Y002737D02*
X012781Y002762D01*
X012700Y002775D01*
X012698Y002775D01*
X012698Y002294D01*
X013179Y002294D01*
X013179Y002296D01*
X013166Y002377D01*
X013141Y002455D01*
X013104Y002528D01*
X013056Y002594D01*
X012998Y002652D01*
X012932Y002700D01*
X012859Y002737D01*
X012698Y002725D02*
X012620Y002725D01*
X012618Y002775D02*
X012537Y002762D01*
X012459Y002737D01*
X012386Y002700D01*
X012320Y002652D01*
X012262Y002594D01*
X012214Y002528D01*
X012177Y002455D01*
X012152Y002377D01*
X012139Y002296D01*
X012139Y002294D01*
X012620Y002294D01*
X012620Y002216D01*
X012698Y002216D01*
X012698Y002294D01*
X012620Y002294D01*
X012620Y002775D01*
X012618Y002775D01*
X012620Y002626D02*
X012698Y002626D01*
X012698Y002527D02*
X012620Y002527D01*
X012620Y002429D02*
X012698Y002429D01*
X012698Y002330D02*
X012620Y002330D01*
X012620Y002232D02*
X008431Y002232D01*
X008534Y002330D02*
X012144Y002330D01*
X012169Y002429D02*
X008601Y002429D01*
X008642Y002527D02*
X012214Y002527D01*
X012295Y002626D02*
X008654Y002626D01*
X008654Y002725D02*
X012435Y002725D01*
X013024Y002626D02*
X014783Y002626D01*
X014881Y002527D02*
X013104Y002527D01*
X013149Y002429D02*
X014980Y002429D01*
X015079Y002330D02*
X013174Y002330D01*
X013070Y001936D02*
X021743Y001936D01*
X021761Y001838D02*
X012969Y001838D01*
X012725Y001739D02*
X021814Y001739D01*
X021871Y001641D02*
X003447Y001641D01*
X003504Y001739D02*
X012593Y001739D01*
X012618Y001735D02*
X012537Y001748D01*
X012459Y001773D01*
X012386Y001810D01*
X012320Y001858D01*
X012262Y001916D01*
X012214Y001983D01*
X012177Y002055D01*
X012152Y002133D01*
X003610Y002133D01*
X003614Y002155D02*
X003614Y002155D01*
X003600Y002232D02*
X006720Y002232D01*
X006714Y002238D02*
X006742Y002210D01*
X006776Y002190D01*
X006814Y002180D01*
X007140Y002180D01*
X007140Y002636D01*
X006684Y002636D01*
X006684Y002310D01*
X006694Y002272D01*
X006714Y002238D01*
X006684Y002330D02*
X003583Y002330D01*
X003565Y002429D02*
X006684Y002429D01*
X006684Y002527D02*
X003529Y002527D01*
X003556Y002482D02*
X003556Y002482D01*
X003473Y002626D02*
X006684Y002626D01*
X006684Y002725D02*
X003416Y002725D01*
X003390Y002769D02*
X003390Y002769D01*
X003325Y002823D02*
X006684Y002823D01*
X006684Y002922D02*
X003208Y002922D01*
X003136Y002982D02*
X003136Y002982D01*
X003076Y003665D02*
X002242Y003665D01*
X002061Y003740D01*
X001924Y003878D01*
X001849Y004058D01*
X001849Y004253D01*
X001924Y004433D01*
X002061Y004570D01*
X002242Y004645D01*
X003076Y004645D01*
X003257Y004570D01*
X003394Y004433D01*
X003409Y004397D01*
X003424Y004433D01*
X003561Y004570D01*
X003742Y004645D01*
X004576Y004645D01*
X004757Y004570D01*
X004894Y004433D01*
X004969Y004253D01*
X004969Y004058D01*
X004894Y003878D01*
X004757Y003740D01*
X004576Y003665D01*
X003742Y003665D01*
X003561Y003740D01*
X003424Y003878D01*
X003409Y003913D01*
X003394Y003878D01*
X003257Y003740D01*
X003076Y003665D01*
X003185Y003710D02*
X003633Y003710D01*
X003493Y003809D02*
X003325Y003809D01*
X003407Y003907D02*
X003411Y003907D01*
X003408Y004400D02*
X003410Y004400D01*
X003489Y004498D02*
X003329Y004498D01*
X003193Y004597D02*
X003625Y004597D01*
X003659Y004720D02*
X003729Y004697D01*
X003802Y004685D01*
X004109Y004685D01*
X004109Y005105D01*
X004209Y005105D01*
X004209Y004685D01*
X004516Y004685D01*
X004589Y004697D01*
X004659Y004720D01*
X004725Y004753D01*
X004785Y004797D01*
X004838Y004849D01*
X004881Y004909D01*
X004915Y004975D01*
X004937Y005045D01*
X004947Y005105D01*
X004209Y005105D01*
X004209Y005205D01*
X004947Y005205D01*
X004937Y005265D01*
X004915Y005336D01*
X004881Y005401D01*
X004838Y005461D01*
X004785Y005514D01*
X004725Y005557D01*
X004659Y005591D01*
X004589Y005614D01*
X004516Y005625D01*
X004209Y005625D01*
X004209Y005205D01*
X004109Y005205D01*
X004109Y005105D01*
X003447Y005105D01*
X002709Y005105D01*
X002709Y004685D01*
X003016Y004685D01*
X003089Y004697D01*
X003159Y004720D01*
X003225Y004753D01*
X003285Y004797D01*
X003338Y004849D01*
X003381Y004909D01*
X003409Y004964D01*
X003437Y004909D01*
X003481Y004849D01*
X003533Y004797D01*
X003593Y004753D01*
X003659Y004720D01*
X003737Y004695D02*
X003081Y004695D01*
X003281Y004794D02*
X003537Y004794D01*
X003449Y004892D02*
X003369Y004892D01*
X003447Y005205D02*
X004109Y005205D01*
X004109Y005625D01*
X003802Y005625D01*
X003729Y005614D01*
X003659Y005591D01*
X003593Y005557D01*
X003533Y005514D01*
X003481Y005461D01*
X003437Y005401D01*
X003409Y005346D01*
X003381Y005401D01*
X003338Y005461D01*
X003285Y005514D01*
X003225Y005557D01*
X003159Y005591D01*
X003089Y005614D01*
X003016Y005625D01*
X002709Y005625D01*
X002709Y005205D01*
X003447Y005205D01*
X003429Y005385D02*
X003389Y005385D01*
X003315Y005484D02*
X003503Y005484D01*
X003642Y005582D02*
X003176Y005582D01*
X003114Y005681D02*
X003704Y005681D01*
X003742Y005665D02*
X004576Y005665D01*
X004757Y005740D01*
X004894Y005878D01*
X004895Y005878D02*
X006929Y005878D01*
X006929Y005976D02*
X004935Y005976D01*
X004969Y006058D02*
X004969Y006253D01*
X004894Y006433D01*
X004757Y006570D01*
X004576Y006645D01*
X003742Y006645D01*
X003561Y006570D01*
X003424Y006433D01*
X003409Y006397D01*
X003394Y006433D01*
X003257Y006570D01*
X003076Y006645D01*
X002242Y006645D01*
X002061Y006570D01*
X001924Y006433D01*
X001849Y006253D01*
X001849Y006058D01*
X001924Y005878D01*
X001923Y005878D02*
X001329Y005878D01*
X001329Y005976D02*
X001883Y005976D01*
X001849Y006075D02*
X001329Y006075D01*
X001329Y006174D02*
X001849Y006174D01*
X001857Y006272D02*
X001329Y006272D01*
X001329Y006371D02*
X001898Y006371D01*
X001960Y006469D02*
X001329Y006469D01*
X001329Y006568D02*
X002059Y006568D01*
X002052Y007115D02*
X002266Y007115D01*
X002465Y007197D01*
X002617Y007349D01*
X002699Y007548D01*
X002699Y007763D01*
X002644Y007895D01*
X003229Y008480D01*
X003229Y008670D01*
X003229Y011321D01*
X003353Y011197D01*
X003552Y011115D01*
X003766Y011115D01*
X003965Y011197D01*
X004117Y011349D01*
X004183Y011510D01*
X004239Y011375D01*
X004379Y011235D01*
X004561Y011160D01*
X004758Y011160D01*
X004939Y011235D01*
X005079Y011375D01*
X005154Y011557D01*
X005154Y011754D01*
X005079Y011935D01*
X004939Y012075D01*
X004758Y012150D01*
X004561Y012150D01*
X004379Y012075D01*
X004239Y011935D01*
X004183Y011800D01*
X004117Y011961D01*
X004093Y011984D01*
X004509Y012400D01*
X004509Y012590D01*
X004509Y014590D01*
X004374Y014725D01*
X004054Y015045D01*
X003864Y015045D01*
X003224Y015045D01*
X003089Y014910D01*
X003019Y014840D01*
X002709Y014840D01*
X002682Y014814D01*
X002659Y014820D01*
X002459Y014820D01*
X002459Y014405D01*
X002359Y014405D01*
X002359Y014305D01*
X002459Y014305D01*
X002459Y013890D01*
X002659Y013890D01*
X002682Y013896D01*
X002709Y013870D01*
X003309Y013870D01*
X003409Y013870D01*
X003409Y013840D01*
X003309Y013840D01*
X002709Y013840D01*
X002682Y013814D01*
X002659Y013820D01*
X002459Y013820D01*
X002459Y013405D01*
X002359Y013405D01*
X002359Y013305D01*
X002459Y013305D01*
X002459Y012890D01*
X002659Y012890D01*
X002682Y012896D01*
X002709Y012870D01*
X002769Y012870D01*
X002769Y008670D01*
X002286Y008187D01*
X002266Y008195D01*
X002052Y008195D01*
X001853Y008113D01*
X001701Y007961D01*
X001619Y007763D01*
X001619Y007548D01*
X001701Y007349D01*
X001853Y007197D01*
X002052Y007115D01*
X001946Y007159D02*
X001329Y007159D01*
X001329Y007258D02*
X001793Y007258D01*
X001698Y007356D02*
X001329Y007356D01*
X001329Y007455D02*
X001658Y007455D01*
X001619Y007553D02*
X001329Y007553D01*
X001329Y007652D02*
X001619Y007652D01*
X001619Y007750D02*
X001329Y007750D01*
X001329Y007849D02*
X001655Y007849D01*
X001696Y007947D02*
X001329Y007947D01*
X001329Y008046D02*
X001786Y008046D01*
X001929Y008144D02*
X001329Y008144D01*
X001329Y008243D02*
X002342Y008243D01*
X002440Y008341D02*
X001329Y008341D01*
X001329Y008440D02*
X002539Y008440D01*
X002637Y008539D02*
X001329Y008539D01*
X001329Y008637D02*
X002736Y008637D01*
X002769Y008736D02*
X001329Y008736D01*
X001329Y008834D02*
X002769Y008834D01*
X002769Y008933D02*
X001329Y008933D01*
X001329Y009031D02*
X002769Y009031D01*
X002769Y009130D02*
X001329Y009130D01*
X001329Y009228D02*
X002769Y009228D01*
X002769Y009327D02*
X001329Y009327D01*
X001329Y009425D02*
X002769Y009425D01*
X002769Y009524D02*
X001329Y009524D01*
X001329Y009623D02*
X002769Y009623D01*
X002769Y009721D02*
X001329Y009721D01*
X001329Y009820D02*
X002769Y009820D01*
X002769Y009918D02*
X001329Y009918D01*
X001329Y010017D02*
X002769Y010017D01*
X002769Y010115D02*
X001329Y010115D01*
X001329Y010214D02*
X002769Y010214D01*
X002769Y010312D02*
X001329Y010312D01*
X001329Y010411D02*
X002769Y010411D01*
X002769Y010509D02*
X001329Y010509D01*
X001329Y010608D02*
X002769Y010608D01*
X002769Y010707D02*
X001329Y010707D01*
X001329Y010805D02*
X002769Y010805D01*
X002769Y010904D02*
X001329Y010904D01*
X001329Y011002D02*
X002769Y011002D01*
X002769Y011101D02*
X001329Y011101D01*
X001329Y011199D02*
X001851Y011199D01*
X001853Y011197D02*
X002052Y011115D01*
X002266Y011115D01*
X002465Y011197D01*
X002617Y011349D01*
X002699Y011548D01*
X002699Y011763D01*
X002617Y011961D01*
X002465Y012113D01*
X002266Y012195D01*
X002052Y012195D01*
X001853Y012113D01*
X001701Y011961D01*
X001619Y011763D01*
X001619Y011548D01*
X001701Y011349D01*
X001853Y011197D01*
X001753Y011298D02*
X001329Y011298D01*
X001329Y011396D02*
X001682Y011396D01*
X001641Y011495D02*
X001329Y011495D01*
X001329Y011593D02*
X001619Y011593D01*
X001619Y011692D02*
X001329Y011692D01*
X001329Y011791D02*
X001631Y011791D01*
X001671Y011889D02*
X001329Y011889D01*
X001329Y011988D02*
X001728Y011988D01*
X001826Y012086D02*
X001329Y012086D01*
X001329Y012185D02*
X002027Y012185D01*
X002292Y012185D02*
X002769Y012185D01*
X002769Y012283D02*
X001329Y012283D01*
X001329Y012382D02*
X002769Y012382D01*
X002769Y012480D02*
X001329Y012480D01*
X001329Y012579D02*
X002769Y012579D01*
X002769Y012677D02*
X001329Y012677D01*
X001329Y012776D02*
X002769Y012776D01*
X002704Y012874D02*
X001329Y012874D01*
X001329Y012973D02*
X002045Y012973D01*
X002039Y012982D02*
X002059Y012948D01*
X002087Y012920D01*
X002121Y012900D01*
X002159Y012890D01*
X002359Y012890D01*
X002359Y013305D01*
X002029Y013305D01*
X002029Y013020D01*
X002039Y012982D01*
X002029Y013072D02*
X001329Y013072D01*
X001329Y013170D02*
X002029Y013170D01*
X002029Y013269D02*
X001329Y013269D01*
X001329Y013367D02*
X002359Y013367D01*
X002359Y013405D02*
X002029Y013405D01*
X002029Y013690D01*
X002039Y013728D01*
X002059Y013762D01*
X002087Y013790D01*
X002121Y013810D01*
X002159Y013820D01*
X002359Y013820D01*
X002359Y013405D01*
X002359Y013466D02*
X002459Y013466D01*
X002459Y013564D02*
X002359Y013564D01*
X002359Y013663D02*
X002459Y013663D01*
X002459Y013761D02*
X002359Y013761D01*
X002359Y013890D02*
X002159Y013890D01*
X002121Y013900D01*
X002087Y013920D01*
X002059Y013948D01*
X002039Y013982D01*
X002029Y014020D01*
X002029Y014305D01*
X002359Y014305D01*
X002359Y013890D01*
X002359Y013958D02*
X002459Y013958D01*
X002459Y014057D02*
X002359Y014057D01*
X002359Y014156D02*
X002459Y014156D01*
X002459Y014254D02*
X002359Y014254D01*
X002359Y014353D02*
X001329Y014353D01*
X001329Y014451D02*
X002029Y014451D01*
X002029Y014405D02*
X002359Y014405D01*
X002359Y014820D01*
X002159Y014820D01*
X002121Y014810D01*
X002087Y014790D01*
X002059Y014762D01*
X002039Y014728D01*
X002029Y014690D01*
X002029Y014405D01*
X002029Y014550D02*
X001329Y014550D01*
X001329Y014648D02*
X002029Y014648D01*
X002050Y014747D02*
X001329Y014747D01*
X001329Y014845D02*
X003024Y014845D01*
X003123Y014944D02*
X001329Y014944D01*
X001329Y015042D02*
X003221Y015042D01*
X004057Y015042D02*
X007638Y015042D01*
X007624Y015037D02*
X007790Y015105D01*
X008529Y015105D01*
X008694Y015037D01*
X008821Y014910D01*
X008889Y014745D01*
X008889Y014566D01*
X008821Y014400D01*
X008694Y014274D01*
X008529Y014205D01*
X007790Y014205D01*
X007624Y014274D01*
X007498Y014400D01*
X007429Y014566D01*
X007429Y014745D01*
X007498Y014910D01*
X007624Y015037D01*
X007531Y014944D02*
X004155Y014944D01*
X004254Y014845D02*
X007471Y014845D01*
X007430Y014747D02*
X004353Y014747D01*
X004451Y014648D02*
X007429Y014648D01*
X007436Y014550D02*
X004509Y014550D01*
X004509Y014451D02*
X007476Y014451D01*
X007545Y014353D02*
X004509Y014353D01*
X004509Y014254D02*
X007671Y014254D01*
X007790Y014105D02*
X007624Y014037D01*
X007498Y013910D01*
X007429Y013745D01*
X007429Y013566D01*
X007498Y013400D01*
X007624Y013274D01*
X007790Y013205D01*
X008529Y013205D01*
X008694Y013274D01*
X008821Y013400D01*
X008889Y013566D01*
X008889Y013745D01*
X008821Y013910D01*
X008694Y014037D01*
X008529Y014105D01*
X007790Y014105D01*
X007674Y014057D02*
X004509Y014057D01*
X004509Y014156D02*
X009054Y014156D01*
X009153Y014254D02*
X008647Y014254D01*
X008773Y014353D02*
X009251Y014353D01*
X009350Y014451D02*
X008842Y014451D01*
X008882Y014550D02*
X009448Y014550D01*
X009547Y014648D02*
X008889Y014648D01*
X008888Y014747D02*
X009646Y014747D01*
X009744Y014845D02*
X008847Y014845D01*
X008787Y014944D02*
X009843Y014944D01*
X009941Y015042D02*
X008680Y015042D01*
X008612Y015240D02*
X010138Y015240D01*
X010237Y015338D02*
X008758Y015338D01*
X008821Y015400D02*
X008889Y015566D01*
X008889Y015745D01*
X008821Y015910D01*
X008694Y016037D01*
X008529Y016105D01*
X007790Y016105D01*
X007624Y016037D01*
X007498Y015910D01*
X007429Y015745D01*
X007429Y015566D01*
X007498Y015400D01*
X007624Y015274D01*
X007790Y015205D01*
X008529Y015205D01*
X008694Y015274D01*
X008821Y015400D01*
X008836Y015437D02*
X010335Y015437D01*
X010434Y015535D02*
X008876Y015535D01*
X008889Y015634D02*
X010429Y015634D01*
X010429Y015732D02*
X008889Y015732D01*
X008853Y015831D02*
X010465Y015831D01*
X010517Y015929D02*
X008801Y015929D01*
X008703Y016028D02*
X010615Y016028D01*
X010742Y016225D02*
X008576Y016225D01*
X008529Y016205D02*
X008694Y016274D01*
X008821Y016400D01*
X008889Y016566D01*
X008889Y016745D01*
X008821Y016910D01*
X008694Y017037D01*
X008529Y017105D01*
X007790Y017105D01*
X007624Y017037D01*
X007498Y016910D01*
X007429Y016745D01*
X007429Y016566D01*
X007498Y016400D01*
X007624Y016274D01*
X007790Y016205D01*
X008529Y016205D01*
X008744Y016324D02*
X010574Y016324D01*
X010624Y016274D02*
X010790Y016205D01*
X011529Y016205D01*
X011694Y016274D01*
X011821Y016400D01*
X011889Y016566D01*
X011889Y016745D01*
X011821Y016910D01*
X011694Y017037D01*
X011529Y017105D01*
X010790Y017105D01*
X010624Y017037D01*
X010498Y016910D01*
X010429Y016745D01*
X010429Y016566D01*
X010498Y016400D01*
X010624Y016274D01*
X010489Y016422D02*
X008830Y016422D01*
X008870Y016521D02*
X010448Y016521D01*
X010429Y016619D02*
X008889Y016619D01*
X008889Y016718D02*
X010429Y016718D01*
X010459Y016816D02*
X008859Y016816D01*
X008816Y016915D02*
X010502Y016915D01*
X010601Y017013D02*
X008717Y017013D01*
X008694Y017274D02*
X008529Y017205D01*
X007790Y017205D01*
X007624Y017274D01*
X007498Y017400D01*
X007471Y017465D01*
X005414Y017465D01*
X005224Y017465D01*
X003978Y018711D01*
X003965Y018697D01*
X003836Y018644D01*
X003859Y018637D01*
X003932Y018600D01*
X003998Y018552D01*
X004056Y018494D01*
X004104Y018428D01*
X004141Y018355D01*
X004166Y018277D01*
X004178Y018205D01*
X003709Y018205D01*
X003709Y018105D01*
X004178Y018105D01*
X004166Y018033D01*
X004141Y017955D01*
X004104Y017883D01*
X004056Y017816D01*
X003998Y017758D01*
X003932Y017710D01*
X003859Y017673D01*
X003836Y017666D01*
X003965Y017613D01*
X004117Y017461D01*
X004199Y017263D01*
X004199Y017048D01*
X004117Y016849D01*
X003965Y016697D01*
X003863Y016655D01*
X003965Y016613D01*
X004117Y016461D01*
X004199Y016263D01*
X004199Y016048D01*
X004117Y015849D01*
X003965Y015697D01*
X003766Y015615D01*
X003552Y015615D01*
X003353Y015697D01*
X003201Y015849D01*
X003119Y016048D01*
X003119Y016263D01*
X003201Y016461D01*
X003353Y016613D01*
X003455Y016655D01*
X003353Y016697D01*
X003201Y016849D01*
X003119Y017048D01*
X003119Y017263D01*
X003201Y017461D01*
X003353Y017613D01*
X003482Y017666D01*
X003459Y017673D01*
X003386Y017710D01*
X003320Y017758D01*
X003262Y017816D01*
X003214Y017883D01*
X003177Y017955D01*
X003152Y018033D01*
X003140Y018105D01*
X003609Y018105D01*
X003609Y018205D01*
X003140Y018205D01*
X003152Y018277D01*
X003177Y018355D01*
X003214Y018428D01*
X003262Y018494D01*
X003320Y018552D01*
X003386Y018600D01*
X003459Y018637D01*
X003482Y018644D01*
X003353Y018697D01*
X003201Y018849D01*
X003119Y019048D01*
X003119Y019263D01*
X003201Y019461D01*
X003353Y019613D01*
X003455Y019655D01*
X003353Y019697D01*
X003201Y019849D01*
X003119Y020048D01*
X003119Y020263D01*
X003201Y020461D01*
X003353Y020613D01*
X003455Y020655D01*
X003353Y020697D01*
X003201Y020849D01*
X003119Y021048D01*
X003119Y021263D01*
X003201Y021461D01*
X003353Y021613D01*
X003552Y021695D01*
X003569Y021695D01*
X003569Y022903D01*
X003556Y022829D01*
X003556Y022829D01*
X003390Y022542D01*
X003390Y022542D01*
X003390Y022542D01*
X003136Y022329D01*
X003136Y022329D01*
X002825Y022215D01*
X002825Y022215D01*
X002746Y022215D01*
X002659Y022215D01*
X002493Y022215D01*
X002493Y022215D01*
X002182Y022329D01*
X002182Y022329D01*
X001928Y022542D01*
X001928Y022542D01*
X001762Y022829D01*
X001762Y022829D01*
X001705Y023155D01*
X001705Y023155D01*
X001762Y023482D01*
X001762Y023482D01*
X001928Y023769D01*
X001928Y023769D01*
X001928Y023769D01*
X002182Y023982D01*
X002182Y023982D01*
X002493Y024095D01*
X002493Y024095D01*
X002572Y024095D01*
X002650Y024095D01*
X002659Y024095D01*
X002746Y024095D01*
X002825Y024095D01*
X002825Y024095D01*
X003136Y023982D01*
X003136Y023982D01*
X003390Y023769D01*
X003390Y023769D01*
X003556Y023482D01*
X003556Y023482D01*
X003614Y023155D01*
X003614Y023155D01*
X003571Y022912D01*
X003704Y023045D01*
X004179Y023520D01*
X004164Y023557D01*
X004164Y023754D01*
X004239Y023935D01*
X004379Y024075D01*
X004561Y024150D01*
X004758Y024150D01*
X004939Y024075D01*
X005079Y023935D01*
X005154Y023754D01*
X005154Y023557D01*
X005079Y023375D01*
X004939Y023235D01*
X004758Y023160D01*
X004561Y023160D01*
X004496Y023187D01*
X004388Y023078D01*
X004561Y023150D01*
X004758Y023150D01*
X004939Y023075D01*
X005079Y022935D01*
X005154Y022754D01*
X005154Y022557D01*
X005139Y022520D01*
X005990Y021669D01*
X006052Y021695D01*
X006266Y021695D01*
X006328Y021669D01*
X006442Y021783D01*
X006281Y021850D01*
X006144Y021988D01*
X006069Y022168D01*
X006069Y022363D01*
X006144Y022543D01*
X006281Y022680D01*
X006462Y022755D01*
X007296Y022755D01*
X007477Y022680D01*
X007614Y022543D01*
X007689Y022363D01*
X007689Y022168D01*
X007614Y021988D01*
X007477Y021850D01*
X007296Y021775D01*
X007069Y021775D01*
X007069Y021760D01*
X006662Y021353D01*
X006699Y021263D01*
X006699Y021048D01*
X006650Y020929D01*
X007199Y020380D01*
X008755Y021936D01*
X008704Y021988D01*
X008629Y022168D01*
X008629Y022363D01*
X008704Y022543D01*
X008841Y022680D01*
X009022Y022755D01*
X009856Y022755D01*
X010037Y022680D01*
X010174Y022543D01*
X010249Y022363D01*
X010249Y022168D01*
X010174Y021988D01*
X010037Y021850D01*
X009856Y021775D01*
X009244Y021775D01*
X007524Y020055D01*
X008349Y019230D01*
X008349Y019105D01*
X008529Y019105D01*
X008694Y019037D01*
X008821Y018910D01*
X008889Y018745D01*
X008889Y018566D01*
X008821Y018400D01*
X008694Y018274D01*
X008529Y018205D01*
X007790Y018205D01*
X007624Y018274D01*
X007498Y018400D01*
X007429Y018566D01*
X007429Y018745D01*
X007498Y018910D01*
X007624Y019037D01*
X007790Y019105D01*
X007824Y019105D01*
X007104Y019825D01*
X007104Y019825D01*
X006969Y019960D01*
X006969Y019960D01*
X006300Y020629D01*
X006266Y020615D01*
X006052Y020615D01*
X005853Y020697D01*
X005701Y020849D01*
X005619Y021048D01*
X005619Y021263D01*
X005656Y021353D01*
X004822Y022187D01*
X004758Y022160D01*
X004561Y022160D01*
X004379Y022235D01*
X004239Y022375D01*
X004164Y022557D01*
X004164Y022754D01*
X004236Y022927D01*
X004029Y022720D01*
X004029Y021549D01*
X004117Y021461D01*
X004199Y021263D01*
X004199Y021048D01*
X004117Y020849D01*
X003965Y020697D01*
X003863Y020655D01*
X003965Y020613D01*
X004117Y020461D01*
X004199Y020263D01*
X004199Y020048D01*
X004117Y019849D01*
X003965Y019697D01*
X003863Y019655D01*
X003965Y019613D01*
X004117Y019461D01*
X004199Y019263D01*
X004199Y019140D01*
X005414Y017925D01*
X007513Y017925D01*
X007624Y018037D01*
X007790Y018105D01*
X008529Y018105D01*
X008694Y018037D01*
X008821Y017910D01*
X008889Y017745D01*
X008889Y017566D01*
X008821Y017400D01*
X008694Y017274D01*
X008729Y017309D02*
X010589Y017309D01*
X010495Y017407D02*
X008824Y017407D01*
X008864Y017506D02*
X010454Y017506D01*
X010429Y017605D02*
X008889Y017605D01*
X008889Y017703D02*
X010429Y017703D01*
X010407Y017802D02*
X008865Y017802D01*
X008825Y017900D02*
X010309Y017900D01*
X010210Y017999D02*
X008732Y017999D01*
X008547Y018097D02*
X010112Y018097D01*
X010013Y018196D02*
X005144Y018196D01*
X005242Y018097D02*
X007771Y018097D01*
X007586Y017999D02*
X005341Y017999D01*
X005045Y018294D02*
X007603Y018294D01*
X007505Y018393D02*
X004946Y018393D01*
X004848Y018491D02*
X007460Y018491D01*
X007429Y018590D02*
X004749Y018590D01*
X004651Y018689D02*
X007429Y018689D01*
X007447Y018787D02*
X004552Y018787D01*
X004454Y018886D02*
X007487Y018886D01*
X007572Y018984D02*
X004355Y018984D01*
X004257Y019083D02*
X007736Y019083D01*
X007748Y019181D02*
X004199Y019181D01*
X004192Y019280D02*
X007649Y019280D01*
X007551Y019378D02*
X004151Y019378D01*
X004101Y019477D02*
X007452Y019477D01*
X007354Y019575D02*
X004002Y019575D01*
X003908Y019674D02*
X007255Y019674D01*
X007156Y019773D02*
X004040Y019773D01*
X004126Y019871D02*
X007058Y019871D01*
X006959Y019970D02*
X004167Y019970D01*
X004199Y020068D02*
X006861Y020068D01*
X006762Y020167D02*
X004199Y020167D01*
X004198Y020265D02*
X006664Y020265D01*
X006565Y020364D02*
X004157Y020364D01*
X004115Y020462D02*
X006467Y020462D01*
X006368Y020561D02*
X004017Y020561D01*
X003873Y020659D02*
X005945Y020659D01*
X005793Y020758D02*
X004026Y020758D01*
X004120Y020856D02*
X005698Y020856D01*
X005657Y020955D02*
X004161Y020955D01*
X004199Y021054D02*
X005619Y021054D01*
X005619Y021152D02*
X004199Y021152D01*
X004199Y021251D02*
X005619Y021251D01*
X005655Y021349D02*
X004163Y021349D01*
X004122Y021448D02*
X005561Y021448D01*
X005463Y021546D02*
X004031Y021546D01*
X004029Y021645D02*
X005364Y021645D01*
X005266Y021743D02*
X004029Y021743D01*
X004029Y021842D02*
X005167Y021842D01*
X005068Y021940D02*
X004029Y021940D01*
X004029Y022039D02*
X004970Y022039D01*
X004871Y022138D02*
X004029Y022138D01*
X004029Y022236D02*
X004378Y022236D01*
X004279Y022335D02*
X004029Y022335D01*
X004029Y022433D02*
X004215Y022433D01*
X004174Y022532D02*
X004029Y022532D01*
X004029Y022630D02*
X004164Y022630D01*
X004164Y022729D02*
X004038Y022729D01*
X004136Y022827D02*
X004195Y022827D01*
X004235Y022926D02*
X004235Y022926D01*
X004432Y023123D02*
X004495Y023123D01*
X004823Y023123D02*
X013542Y023123D01*
X013640Y023222D02*
X004906Y023222D01*
X005024Y023320D02*
X013739Y023320D01*
X013837Y023419D02*
X005097Y023419D01*
X005138Y023517D02*
X013936Y023517D01*
X014034Y023616D02*
X010003Y023616D01*
X010121Y023714D02*
X014133Y023714D01*
X014231Y023813D02*
X010193Y023813D01*
X010234Y023911D02*
X014330Y023911D01*
X014429Y024010D02*
X010249Y024010D01*
X010249Y024108D02*
X014527Y024108D01*
X014626Y024207D02*
X010222Y024207D01*
X010182Y024306D02*
X014724Y024306D01*
X014823Y024404D02*
X010093Y024404D01*
X008785Y024404D02*
X007533Y024404D01*
X007622Y024306D02*
X008697Y024306D01*
X008656Y024207D02*
X007662Y024207D01*
X007689Y024108D02*
X008629Y024108D01*
X008629Y024010D02*
X007689Y024010D01*
X007674Y023911D02*
X008644Y023911D01*
X008685Y023813D02*
X007633Y023813D01*
X007561Y023714D02*
X008757Y023714D01*
X008875Y023616D02*
X007443Y023616D01*
X007360Y022729D02*
X008958Y022729D01*
X008791Y022630D02*
X007527Y022630D01*
X007619Y022532D02*
X008699Y022532D01*
X008658Y022433D02*
X007660Y022433D01*
X007689Y022335D02*
X008629Y022335D01*
X008629Y022236D02*
X007689Y022236D01*
X007677Y022138D02*
X008641Y022138D01*
X008682Y022039D02*
X007636Y022039D01*
X007567Y021940D02*
X008751Y021940D01*
X008661Y021842D02*
X007458Y021842D01*
X007053Y021743D02*
X008562Y021743D01*
X008464Y021645D02*
X006954Y021645D01*
X006855Y021546D02*
X008365Y021546D01*
X008266Y021448D02*
X006757Y021448D01*
X006663Y021349D02*
X008168Y021349D01*
X008069Y021251D02*
X006699Y021251D01*
X006699Y021152D02*
X007971Y021152D01*
X007872Y021054D02*
X006699Y021054D01*
X006661Y020955D02*
X007774Y020955D01*
X007675Y020856D02*
X006723Y020856D01*
X006821Y020758D02*
X007577Y020758D01*
X007478Y020659D02*
X006920Y020659D01*
X007018Y020561D02*
X007380Y020561D01*
X007281Y020462D02*
X007117Y020462D01*
X007537Y020068D02*
X010487Y020068D01*
X010388Y019970D02*
X007610Y019970D01*
X007708Y019871D02*
X010290Y019871D01*
X010191Y019773D02*
X007807Y019773D01*
X007905Y019674D02*
X010093Y019674D01*
X009994Y019575D02*
X008004Y019575D01*
X008102Y019477D02*
X009969Y019477D01*
X009969Y019378D02*
X008201Y019378D01*
X008300Y019280D02*
X009969Y019280D01*
X009969Y019181D02*
X008349Y019181D01*
X008583Y019083D02*
X009969Y019083D01*
X009969Y018984D02*
X008746Y018984D01*
X008831Y018886D02*
X009969Y018886D01*
X009969Y018787D02*
X008871Y018787D01*
X008889Y018689D02*
X009969Y018689D01*
X009969Y018590D02*
X008889Y018590D01*
X008858Y018491D02*
X009969Y018491D01*
X009969Y018393D02*
X008813Y018393D01*
X008715Y018294D02*
X009969Y018294D01*
X010429Y018491D02*
X010460Y018491D01*
X010466Y018393D02*
X010505Y018393D01*
X010565Y018294D02*
X010603Y018294D01*
X010664Y018196D02*
X013175Y018196D01*
X013273Y018294D02*
X011715Y018294D01*
X011813Y018393D02*
X013372Y018393D01*
X013470Y018491D02*
X012521Y018491D01*
X012619Y018590D02*
X013569Y018590D01*
X013667Y018689D02*
X012718Y018689D01*
X012816Y018787D02*
X013766Y018787D01*
X013864Y018886D02*
X012915Y018886D01*
X013013Y018984D02*
X013963Y018984D01*
X014061Y019083D02*
X013112Y019083D01*
X013210Y019181D02*
X014160Y019181D01*
X014259Y019280D02*
X013309Y019280D01*
X013408Y019378D02*
X014357Y019378D01*
X014456Y019477D02*
X013506Y019477D01*
X013605Y019575D02*
X014554Y019575D01*
X014653Y019674D02*
X013703Y019674D01*
X013802Y019773D02*
X014751Y019773D01*
X014850Y019871D02*
X013900Y019871D01*
X013999Y019970D02*
X014948Y019970D01*
X015047Y020068D02*
X014097Y020068D01*
X014196Y020167D02*
X015145Y020167D01*
X015244Y020265D02*
X014294Y020265D01*
X014393Y020364D02*
X015342Y020364D01*
X015441Y020462D02*
X014491Y020462D01*
X014590Y020561D02*
X015365Y020561D01*
X015286Y020659D02*
X014689Y020659D01*
X014787Y020758D02*
X015245Y020758D01*
X015229Y020856D02*
X014886Y020856D01*
X014984Y020955D02*
X015229Y020955D01*
X015229Y021054D02*
X015083Y021054D01*
X015149Y021152D02*
X015629Y021152D01*
X015629Y021185D02*
X015229Y021185D01*
X015229Y021469D01*
X015240Y021536D01*
X015261Y021600D01*
X015291Y021660D01*
X015331Y021715D01*
X015379Y021763D01*
X015434Y021803D01*
X015494Y021834D01*
X015558Y021854D01*
X015625Y021865D01*
X015629Y021865D01*
X015629Y021185D01*
X015629Y021251D02*
X015689Y021251D01*
X015689Y021349D02*
X015629Y021349D01*
X015629Y021448D02*
X015689Y021448D01*
X015689Y021546D02*
X015629Y021546D01*
X015629Y021645D02*
X015689Y021645D01*
X015689Y021743D02*
X015629Y021743D01*
X015629Y021842D02*
X015689Y021842D01*
X015798Y021842D02*
X016465Y021842D01*
X016331Y021743D02*
X015959Y021743D01*
X016035Y021645D02*
X016259Y021645D01*
X016218Y021546D02*
X016075Y021546D01*
X016089Y021448D02*
X016209Y021448D01*
X016209Y021349D02*
X016089Y021349D01*
X016089Y021251D02*
X016209Y021251D01*
X016209Y021152D02*
X015689Y021152D01*
X016089Y021054D02*
X016209Y021054D01*
X016209Y020955D02*
X016089Y020955D01*
X016089Y020856D02*
X016209Y020856D01*
X016220Y020758D02*
X016073Y020758D01*
X016032Y020659D02*
X016261Y020659D01*
X017113Y020364D02*
X017509Y020364D01*
X017322Y020462D02*
X017211Y020462D01*
X017810Y020364D02*
X018778Y020364D01*
X018749Y020425D02*
X018914Y020494D01*
X019041Y020620D01*
X019109Y020786D01*
X019109Y021525D01*
X019041Y021690D01*
X018914Y021817D01*
X018749Y021885D01*
X018570Y021885D01*
X018404Y021817D01*
X018278Y021690D01*
X018209Y021525D01*
X018209Y020786D01*
X018278Y020620D01*
X018404Y020494D01*
X018570Y020425D01*
X018749Y020425D01*
X018838Y020462D02*
X019480Y020462D01*
X019337Y020561D02*
X018981Y020561D01*
X019057Y020659D02*
X019261Y020659D01*
X019220Y020758D02*
X019098Y020758D01*
X019109Y020856D02*
X019209Y020856D01*
X019209Y020955D02*
X019109Y020955D01*
X019109Y021054D02*
X019209Y021054D01*
X019209Y021152D02*
X019109Y021152D01*
X019109Y021251D02*
X019209Y021251D01*
X019209Y021349D02*
X019109Y021349D01*
X019109Y021448D02*
X019209Y021448D01*
X019218Y021546D02*
X019100Y021546D01*
X019059Y021645D02*
X019259Y021645D01*
X019331Y021743D02*
X018987Y021743D01*
X018853Y021842D02*
X019465Y021842D01*
X019853Y021842D02*
X019941Y021842D01*
X020039Y021940D02*
X017824Y021940D01*
X017748Y022039D02*
X020138Y022039D01*
X020236Y022138D02*
X017847Y022138D01*
X017945Y022236D02*
X020335Y022236D01*
X020982Y022827D02*
X017123Y022827D01*
X017154Y022729D02*
X021080Y022729D01*
X020883Y022926D02*
X017083Y022926D01*
X016990Y023024D02*
X020784Y023024D01*
X020686Y023123D02*
X016823Y023123D01*
X016495Y023123D02*
X015741Y023123D01*
X015770Y023118D02*
X015696Y023130D01*
X015678Y023130D01*
X015678Y022674D01*
X016134Y022674D01*
X016134Y022692D01*
X016122Y022766D01*
X016099Y022837D01*
X016065Y022904D01*
X016021Y022965D01*
X015968Y023017D01*
X015908Y023061D01*
X015841Y023095D01*
X015770Y023118D01*
X015678Y023123D02*
X015640Y023123D01*
X015640Y023130D02*
X015622Y023130D01*
X015548Y023118D01*
X015477Y023095D01*
X015410Y023061D01*
X015350Y023017D01*
X015297Y022965D01*
X015253Y022904D01*
X015219Y022837D01*
X015196Y022766D01*
X015184Y022692D01*
X015184Y022674D01*
X015640Y022674D01*
X015640Y022636D01*
X015678Y022636D01*
X015678Y022180D01*
X015696Y022180D01*
X015770Y022192D01*
X015841Y022215D01*
X015908Y022249D01*
X015968Y022293D01*
X016021Y022346D01*
X016065Y022406D01*
X016099Y022473D01*
X016122Y022544D01*
X016134Y022618D01*
X016134Y022636D01*
X015678Y022636D01*
X015678Y022674D01*
X015640Y022674D01*
X015640Y023130D01*
X015577Y023123D02*
X015392Y023123D01*
X015359Y023024D02*
X015294Y023024D01*
X015269Y022926D02*
X015195Y022926D01*
X015216Y022827D02*
X015149Y022827D01*
X015149Y022729D02*
X015190Y022729D01*
X015184Y022636D02*
X015184Y022618D01*
X015196Y022544D01*
X015219Y022473D01*
X015253Y022406D01*
X015297Y022346D01*
X015350Y022293D01*
X015410Y022249D01*
X015477Y022215D01*
X015548Y022192D01*
X015622Y022180D01*
X015640Y022180D01*
X015640Y022636D01*
X015184Y022636D01*
X015184Y022630D02*
X015149Y022630D01*
X015149Y022532D02*
X015200Y022532D01*
X015239Y022433D02*
X015149Y022433D01*
X015149Y022335D02*
X015308Y022335D01*
X015435Y022236D02*
X015149Y022236D01*
X015149Y022138D02*
X017196Y022138D01*
X017295Y022236D02*
X016940Y022236D01*
X017039Y022335D02*
X017393Y022335D01*
X017492Y022433D02*
X017103Y022433D01*
X017144Y022532D02*
X017590Y022532D01*
X017689Y022630D02*
X017154Y022630D01*
X017098Y022039D02*
X015149Y022039D01*
X015149Y021940D02*
X016999Y021940D01*
X016901Y021842D02*
X016853Y021842D01*
X016378Y022236D02*
X015883Y022236D01*
X016010Y022335D02*
X016279Y022335D01*
X016215Y022433D02*
X016079Y022433D01*
X016118Y022532D02*
X016174Y022532D01*
X016164Y022630D02*
X016134Y022630D01*
X016128Y022729D02*
X016164Y022729D01*
X016195Y022827D02*
X016103Y022827D01*
X016049Y022926D02*
X016235Y022926D01*
X016328Y023024D02*
X015959Y023024D01*
X015678Y023024D02*
X015640Y023024D01*
X015640Y022926D02*
X015678Y022926D01*
X015678Y022827D02*
X015640Y022827D01*
X015640Y022729D02*
X015678Y022729D01*
X015678Y022630D02*
X015640Y022630D01*
X015640Y022532D02*
X015678Y022532D01*
X015678Y022433D02*
X015640Y022433D01*
X015640Y022335D02*
X015678Y022335D01*
X015678Y022236D02*
X015640Y022236D01*
X015520Y021842D02*
X015149Y021842D01*
X015149Y021743D02*
X015359Y021743D01*
X015283Y021645D02*
X015149Y021645D01*
X015149Y021546D02*
X015243Y021546D01*
X015229Y021448D02*
X015149Y021448D01*
X015149Y021349D02*
X015229Y021349D01*
X015229Y021251D02*
X015149Y021251D01*
X014689Y021349D02*
X014134Y021349D01*
X014134Y021251D02*
X014629Y021251D01*
X014531Y021152D02*
X013678Y021152D01*
X013678Y021136D02*
X013678Y021174D01*
X014134Y021174D01*
X014134Y021500D01*
X014124Y021538D01*
X014104Y021572D01*
X014076Y021600D01*
X014042Y021620D01*
X014004Y021630D01*
X013678Y021630D01*
X013678Y021174D01*
X013640Y021174D01*
X013640Y021136D01*
X013678Y021136D01*
X013678Y020680D01*
X014004Y020680D01*
X014042Y020690D01*
X014076Y020710D01*
X014104Y020738D01*
X014124Y020772D01*
X014134Y020810D01*
X014134Y021136D01*
X013678Y021136D01*
X013640Y021136D02*
X013640Y020680D01*
X013314Y020680D01*
X013276Y020690D01*
X013242Y020710D01*
X013214Y020738D01*
X013194Y020772D01*
X013184Y020810D01*
X013184Y021136D01*
X013640Y021136D01*
X013640Y021152D02*
X012221Y021152D01*
X012123Y021054D02*
X013184Y021054D01*
X013184Y020955D02*
X012024Y020955D01*
X011926Y020856D02*
X013184Y020856D01*
X013202Y020758D02*
X011827Y020758D01*
X011729Y020659D02*
X014038Y020659D01*
X014116Y020758D02*
X014137Y020758D01*
X014134Y020856D02*
X014235Y020856D01*
X014334Y020955D02*
X014134Y020955D01*
X014134Y021054D02*
X014432Y021054D01*
X014689Y021448D02*
X014134Y021448D01*
X014119Y021546D02*
X014689Y021546D01*
X014689Y021645D02*
X012714Y021645D01*
X012813Y021743D02*
X013371Y021743D01*
X013314Y021630D02*
X013276Y021620D01*
X013242Y021600D01*
X013214Y021572D01*
X013194Y021538D01*
X013184Y021500D01*
X013184Y021174D01*
X013640Y021174D01*
X013640Y021630D01*
X013314Y021630D01*
X013199Y021546D02*
X012615Y021546D01*
X012517Y021448D02*
X013184Y021448D01*
X013184Y021349D02*
X012418Y021349D01*
X012320Y021251D02*
X013184Y021251D01*
X013640Y021251D02*
X013678Y021251D01*
X013678Y021349D02*
X013640Y021349D01*
X013640Y021448D02*
X013678Y021448D01*
X013678Y021546D02*
X013640Y021546D01*
X013947Y021743D02*
X014689Y021743D01*
X014689Y021842D02*
X014046Y021842D01*
X014106Y021940D02*
X014689Y021940D01*
X014689Y022039D02*
X014147Y022039D01*
X014154Y022138D02*
X014689Y022138D01*
X014689Y022236D02*
X014154Y022236D01*
X014120Y022335D02*
X014689Y022335D01*
X014689Y022433D02*
X014080Y022433D01*
X013982Y022532D02*
X014689Y022532D01*
X014689Y022630D02*
X013805Y022630D01*
X013798Y022729D02*
X014689Y022729D01*
X014689Y022827D02*
X013896Y022827D01*
X013995Y022926D02*
X014689Y022926D01*
X014689Y023024D02*
X014094Y023024D01*
X014192Y023123D02*
X014742Y023123D01*
X014840Y023222D02*
X014291Y023222D01*
X014389Y023320D02*
X014939Y023320D01*
X015037Y023419D02*
X014488Y023419D01*
X014586Y023517D02*
X015136Y023517D01*
X014882Y023813D02*
X021981Y023813D01*
X021897Y023714D02*
X014783Y023714D01*
X014685Y023616D02*
X021840Y023616D01*
X021783Y023517D02*
X020942Y023517D01*
X021041Y023419D02*
X021751Y023419D01*
X021734Y023320D02*
X021139Y023320D01*
X021238Y023222D02*
X021716Y023222D01*
X021705Y023155D02*
X021705Y023155D01*
X021710Y023123D02*
X021336Y023123D01*
X021435Y023024D02*
X021728Y023024D01*
X021745Y022926D02*
X021533Y022926D01*
X021632Y022827D02*
X021763Y022827D01*
X021731Y022729D02*
X021820Y022729D01*
X021829Y022630D02*
X021877Y022630D01*
X021928Y022532D02*
X021940Y022532D01*
X022026Y022433D02*
X022057Y022433D01*
X022125Y022335D02*
X022174Y022335D01*
X022182Y022329D02*
X022182Y022329D01*
X022223Y022236D02*
X022436Y022236D01*
X022322Y022138D02*
X024151Y022138D01*
X024053Y022236D02*
X022882Y022236D01*
X023144Y022335D02*
X024049Y022335D01*
X024049Y022433D02*
X023261Y022433D01*
X023378Y022532D02*
X024049Y022532D01*
X024049Y022630D02*
X023441Y022630D01*
X023390Y022542D02*
X023390Y022542D01*
X023390Y022542D01*
X023498Y022729D02*
X024049Y022729D01*
X024049Y022827D02*
X023555Y022827D01*
X023556Y022829D02*
X023556Y022829D01*
X023573Y022926D02*
X024049Y022926D01*
X024049Y023024D02*
X023590Y023024D01*
X023608Y023123D02*
X024046Y023123D01*
X023947Y023222D02*
X023602Y023222D01*
X023614Y023155D02*
X023614Y023155D01*
X023584Y023320D02*
X023849Y023320D01*
X023750Y023419D02*
X023567Y023419D01*
X023556Y023482D02*
X023556Y023482D01*
X023535Y023517D02*
X023652Y023517D01*
X023553Y023616D02*
X023479Y023616D01*
X023455Y023714D02*
X023422Y023714D01*
X023390Y023769D02*
X023390Y023769D01*
X023356Y023813D02*
X023338Y023813D01*
X023258Y023911D02*
X023220Y023911D01*
X023136Y023982D02*
X023136Y023982D01*
X023159Y024010D02*
X023059Y024010D01*
X023415Y024404D02*
X024802Y024404D01*
X024814Y024428D02*
X024777Y024355D01*
X024752Y024277D01*
X024740Y024205D01*
X025209Y024205D01*
X025209Y024105D01*
X024740Y024105D01*
X024752Y024033D01*
X024777Y023955D01*
X024814Y023883D01*
X024862Y023816D01*
X024920Y023758D01*
X024948Y023739D01*
X024808Y023681D01*
X024633Y023506D01*
X024539Y023278D01*
X024539Y023032D01*
X024633Y022804D01*
X024808Y022629D01*
X024922Y022582D01*
X024801Y022461D01*
X024756Y022351D01*
X024673Y022385D01*
X024554Y022385D01*
X024509Y022430D01*
X024509Y023310D01*
X024374Y023445D01*
X023338Y024481D01*
X024853Y024481D01*
X024814Y024428D01*
X024761Y024306D02*
X023514Y024306D01*
X023612Y024207D02*
X024741Y024207D01*
X024759Y024010D02*
X023809Y024010D01*
X023711Y024108D02*
X025209Y024108D01*
X025309Y024108D02*
X026299Y024108D01*
X026201Y024010D02*
X025759Y024010D01*
X025718Y023911D02*
X026143Y023911D01*
X026102Y023813D02*
X025652Y023813D01*
X025537Y023714D02*
X026084Y023714D01*
X026084Y023616D02*
X025575Y023616D01*
X025674Y023517D02*
X026094Y023517D01*
X026135Y023419D02*
X025721Y023419D01*
X025762Y023320D02*
X026181Y023320D01*
X026279Y023222D02*
X025779Y023222D01*
X025779Y023123D02*
X026441Y023123D01*
X026328Y023024D02*
X025776Y023024D01*
X025735Y022926D02*
X026235Y022926D01*
X026195Y022827D02*
X025694Y022827D01*
X025610Y022729D02*
X026164Y022729D01*
X026164Y022630D02*
X025523Y022630D01*
X025646Y022532D02*
X026174Y022532D01*
X026215Y022433D02*
X025728Y022433D01*
X025769Y022335D02*
X026279Y022335D01*
X026378Y022236D02*
X025799Y022236D01*
X025799Y022138D02*
X026328Y022138D01*
X026230Y022039D02*
X025795Y022039D01*
X025755Y021940D02*
X026155Y021940D01*
X026114Y021842D02*
X025710Y021842D01*
X025611Y021743D02*
X026084Y021743D01*
X026084Y021645D02*
X025438Y021645D01*
X025531Y021546D02*
X026084Y021546D01*
X026123Y021448D02*
X025622Y021448D01*
X025663Y021349D02*
X026163Y021349D01*
X026250Y021251D02*
X025699Y021251D01*
X025699Y021152D02*
X026371Y021152D01*
X026358Y021054D02*
X025699Y021054D01*
X025661Y020955D02*
X026259Y020955D01*
X026207Y020856D02*
X025620Y020856D01*
X025526Y020758D02*
X026166Y020758D01*
X026164Y020659D02*
X025453Y020659D01*
X025617Y020561D02*
X026164Y020561D01*
X026203Y020462D02*
X025715Y020462D01*
X025757Y020364D02*
X026250Y020364D01*
X026349Y020265D02*
X025798Y020265D01*
X025799Y020167D02*
X026545Y020167D01*
X026472Y020068D02*
X025799Y020068D01*
X025767Y019970D02*
X026374Y019970D01*
X026275Y019871D02*
X025726Y019871D01*
X025640Y019773D02*
X026177Y019773D01*
X026078Y019674D02*
X025509Y019674D01*
X025502Y019575D02*
X025980Y019575D01*
X025881Y019477D02*
X025601Y019477D01*
X025651Y019378D02*
X025783Y019378D01*
X026745Y019181D02*
X027854Y019181D01*
X027756Y019280D02*
X026844Y019280D01*
X026920Y019083D02*
X028043Y019083D01*
X027694Y019378D02*
X027193Y019378D01*
X027361Y019477D02*
X027653Y019477D01*
X027629Y019575D02*
X027459Y019575D01*
X027558Y019674D02*
X027629Y019674D01*
X028149Y020265D02*
X031009Y020265D01*
X031009Y020167D02*
X029422Y020167D01*
X029524Y020068D02*
X031009Y020068D01*
X031009Y019970D02*
X029608Y019970D01*
X029649Y019871D02*
X031009Y019871D01*
X031009Y019773D02*
X029689Y019773D01*
X029689Y019674D02*
X031009Y019674D01*
X031009Y019575D02*
X029689Y019575D01*
X029665Y019477D02*
X031009Y019477D01*
X031009Y019378D02*
X029624Y019378D01*
X029562Y019280D02*
X031009Y019280D01*
X031009Y019181D02*
X029464Y019181D01*
X029275Y019083D02*
X031009Y019083D01*
X031009Y018984D02*
X027030Y018984D01*
X027099Y018886D02*
X031009Y018886D01*
X031009Y018787D02*
X027140Y018787D01*
X027154Y018689D02*
X031009Y018689D01*
X031009Y018590D02*
X027154Y018590D01*
X027127Y018491D02*
X031009Y018491D01*
X031009Y018393D02*
X027086Y018393D01*
X026998Y018294D02*
X027996Y018294D01*
X027808Y018196D02*
X026856Y018196D01*
X027102Y017285D02*
X026985Y017168D01*
X026850Y017112D01*
X027001Y017013D02*
X028002Y017013D01*
X027844Y017079D02*
X027653Y017270D01*
X027646Y017285D01*
X027102Y017285D01*
X027028Y017210D02*
X027712Y017210D01*
X027087Y016915D02*
X031009Y016915D01*
X031009Y017013D02*
X029316Y017013D01*
X029507Y017112D02*
X031009Y017112D01*
X031009Y017210D02*
X029606Y017210D01*
X029682Y017309D02*
X031009Y017309D01*
X031009Y017407D02*
X029722Y017407D01*
X029763Y017506D02*
X031009Y017506D01*
X031009Y017605D02*
X029769Y017605D01*
X029769Y017703D02*
X031009Y017703D01*
X031009Y017802D02*
X029764Y017802D01*
X029724Y017900D02*
X031009Y017900D01*
X031009Y017999D02*
X029683Y017999D01*
X029609Y018097D02*
X031009Y018097D01*
X031009Y018196D02*
X029510Y018196D01*
X029323Y018294D02*
X031009Y018294D01*
X031009Y016816D02*
X027128Y016816D01*
X027154Y016718D02*
X031009Y016718D01*
X031009Y016619D02*
X027154Y016619D01*
X027139Y016521D02*
X031009Y016521D01*
X031009Y016422D02*
X027098Y016422D01*
X027027Y016324D02*
X028066Y016324D01*
X027837Y016225D02*
X026914Y016225D01*
X027001Y016126D02*
X027739Y016126D01*
X027683Y015240D02*
X027057Y015240D01*
X026920Y015141D02*
X027781Y015141D01*
X027931Y015042D02*
X020539Y015042D01*
X020539Y015141D02*
X026398Y015141D01*
X026261Y015240D02*
X020527Y015240D01*
X020486Y015338D02*
X026168Y015338D01*
X027648Y013170D02*
X029039Y013170D01*
X029039Y013072D02*
X027717Y013072D01*
X027734Y012973D02*
X029039Y012973D01*
X029039Y012874D02*
X027734Y012874D01*
X027734Y012776D02*
X029043Y012776D01*
X029093Y012677D02*
X027734Y012677D01*
X027734Y012579D02*
X029392Y012579D01*
X029271Y012480D02*
X027734Y012480D01*
X027734Y012382D02*
X029189Y012382D01*
X029148Y012283D02*
X027734Y012283D01*
X027692Y012185D02*
X029119Y012185D01*
X029119Y012086D02*
X027548Y012086D01*
X026001Y012185D02*
X023360Y012185D01*
X023368Y012283D02*
X025831Y012283D01*
X025736Y012382D02*
X023368Y012382D01*
X023327Y012480D02*
X025696Y012480D01*
X025664Y012579D02*
X023268Y012579D01*
X023164Y012677D02*
X025664Y012677D01*
X024027Y011791D02*
X029210Y011791D01*
X029164Y011889D02*
X023957Y011889D01*
X023829Y011988D02*
X029123Y011988D01*
X029309Y011692D02*
X024068Y011692D01*
X024075Y011593D02*
X029483Y011593D01*
X029835Y011593D02*
X030189Y011593D01*
X030189Y011495D02*
X024074Y011495D01*
X023501Y010608D02*
X021597Y010608D01*
X021499Y010509D02*
X023486Y010509D01*
X023486Y010411D02*
X021400Y010411D01*
X021302Y010312D02*
X023519Y010312D01*
X023568Y010214D02*
X021203Y010214D01*
X021104Y010115D02*
X023667Y010115D01*
X024205Y010115D02*
X024347Y010115D01*
X024304Y010214D02*
X024445Y010214D01*
X024402Y010312D02*
X024544Y010312D01*
X024501Y010411D02*
X024642Y010411D01*
X024599Y010509D02*
X024741Y010509D01*
X024256Y010017D02*
X021006Y010017D01*
X020969Y009918D02*
X024215Y009918D01*
X024193Y009820D02*
X020952Y009820D01*
X019765Y010707D02*
X018656Y010707D01*
X018754Y010805D02*
X019864Y010805D01*
X019962Y010904D02*
X018853Y010904D01*
X018951Y011002D02*
X020061Y011002D01*
X020159Y011101D02*
X019050Y011101D01*
X019148Y011199D02*
X020258Y011199D01*
X020357Y011298D02*
X019247Y011298D01*
X019345Y011396D02*
X020455Y011396D01*
X020554Y011495D02*
X019444Y011495D01*
X019543Y011593D02*
X020652Y011593D01*
X020751Y011692D02*
X019641Y011692D01*
X019740Y011791D02*
X020849Y011791D01*
X020948Y011889D02*
X019838Y011889D01*
X019937Y011988D02*
X021046Y011988D01*
X021145Y012086D02*
X020035Y012086D01*
X020134Y012185D02*
X021243Y012185D01*
X021342Y012283D02*
X020232Y012283D01*
X020331Y012382D02*
X021419Y012382D01*
X021379Y012480D02*
X020429Y012480D01*
X020528Y012579D02*
X021365Y012579D01*
X021365Y012677D02*
X020627Y012677D01*
X020725Y012776D02*
X021399Y012776D01*
X021449Y012874D02*
X021230Y012874D01*
X021406Y012973D02*
X021548Y012973D01*
X021505Y013072D02*
X021646Y013072D01*
X021603Y013170D02*
X021745Y013170D01*
X021702Y013269D02*
X021843Y013269D01*
X021800Y013367D02*
X021942Y013367D01*
X021891Y013466D02*
X029039Y013466D01*
X029039Y013564D02*
X021931Y013564D01*
X021953Y013663D02*
X029055Y013663D01*
X029122Y013761D02*
X021953Y013761D01*
X021927Y013860D02*
X031009Y013860D01*
X031009Y013958D02*
X021886Y013958D01*
X021789Y014057D02*
X031009Y014057D01*
X031009Y014156D02*
X021595Y014156D01*
X021411Y014156D02*
X021175Y014156D01*
X021217Y014254D02*
X031009Y014254D01*
X031009Y014353D02*
X021246Y014353D01*
X021246Y014451D02*
X031009Y014451D01*
X031009Y014550D02*
X021227Y014550D01*
X021186Y014648D02*
X031009Y014648D01*
X031009Y014747D02*
X021100Y014747D01*
X020930Y014845D02*
X031009Y014845D01*
X031009Y014944D02*
X020503Y014944D01*
X020450Y014845D02*
X020663Y014845D01*
X020493Y014747D02*
X020352Y014747D01*
X020395Y014648D02*
X020253Y014648D01*
X020296Y014550D02*
X020154Y014550D01*
X020197Y014451D02*
X020080Y014451D01*
X020099Y014353D02*
X019982Y014353D01*
X020011Y014254D02*
X019883Y014254D01*
X019970Y014156D02*
X019785Y014156D01*
X019686Y014057D02*
X019950Y014057D01*
X019897Y013958D02*
X019588Y013958D01*
X019489Y013860D02*
X019799Y013860D01*
X019700Y013761D02*
X019391Y013761D01*
X019292Y013663D02*
X019602Y013663D01*
X019503Y013564D02*
X019193Y013564D01*
X019095Y013466D02*
X019404Y013466D01*
X019306Y013367D02*
X018996Y013367D01*
X018898Y013269D02*
X019207Y013269D01*
X019109Y013170D02*
X018799Y013170D01*
X018701Y013072D02*
X019010Y013072D01*
X018912Y012973D02*
X018602Y012973D01*
X018504Y012874D02*
X018813Y012874D01*
X018715Y012776D02*
X018405Y012776D01*
X018307Y012677D02*
X018616Y012677D01*
X018518Y012579D02*
X018208Y012579D01*
X018109Y012480D02*
X018419Y012480D01*
X018321Y012382D02*
X018011Y012382D01*
X017912Y012283D02*
X018222Y012283D01*
X018123Y012185D02*
X017814Y012185D01*
X017715Y012086D02*
X018025Y012086D01*
X017926Y011988D02*
X017617Y011988D01*
X017518Y011889D02*
X017828Y011889D01*
X017729Y011791D02*
X017420Y011791D01*
X017389Y011692D02*
X017631Y011692D01*
X017532Y011593D02*
X017389Y011593D01*
X017360Y011495D02*
X017434Y011495D01*
X017335Y011396D02*
X017317Y011396D01*
X017237Y011298D02*
X017218Y011298D01*
X017138Y011199D02*
X015949Y011199D01*
X015949Y011101D02*
X016279Y011101D01*
X016090Y011002D02*
X015949Y011002D01*
X015949Y010904D02*
X015995Y010904D01*
X015954Y010805D02*
X015949Y010805D01*
X015949Y010509D02*
X015952Y010509D01*
X015949Y010411D02*
X015993Y010411D01*
X015949Y010312D02*
X016085Y010312D01*
X015949Y010214D02*
X016269Y010214D01*
X016104Y010017D02*
X015949Y010017D01*
X015949Y010115D02*
X017414Y010115D01*
X017315Y010017D02*
X017214Y010017D01*
X017050Y010214D02*
X017513Y010214D01*
X017611Y010312D02*
X017233Y010312D01*
X017325Y010411D02*
X017710Y010411D01*
X017808Y010509D02*
X017366Y010509D01*
X017389Y010608D02*
X017907Y010608D01*
X018005Y010707D02*
X017389Y010707D01*
X017394Y010805D02*
X018104Y010805D01*
X018202Y010904D02*
X017493Y010904D01*
X017591Y011002D02*
X018301Y011002D01*
X018399Y011101D02*
X017690Y011101D01*
X017788Y011199D02*
X018498Y011199D01*
X018597Y011298D02*
X017887Y011298D01*
X017985Y011396D02*
X018695Y011396D01*
X018794Y011495D02*
X018084Y011495D01*
X018183Y011593D02*
X018892Y011593D01*
X018991Y011692D02*
X018281Y011692D01*
X018380Y011791D02*
X019089Y011791D01*
X019188Y011889D02*
X018478Y011889D01*
X018577Y011988D02*
X019286Y011988D01*
X019385Y012086D02*
X018675Y012086D01*
X018774Y012185D02*
X019483Y012185D01*
X019582Y012283D02*
X018872Y012283D01*
X018971Y012382D02*
X019681Y012382D01*
X019779Y012480D02*
X019069Y012480D01*
X019168Y012579D02*
X019878Y012579D01*
X019976Y012677D02*
X019267Y012677D01*
X019365Y012776D02*
X020075Y012776D01*
X020173Y012874D02*
X019464Y012874D01*
X019562Y012973D02*
X020272Y012973D01*
X020370Y013072D02*
X019661Y013072D01*
X019759Y013170D02*
X020469Y013170D01*
X020567Y013269D02*
X019858Y013269D01*
X019956Y013367D02*
X020658Y013367D01*
X020685Y013466D02*
X020055Y013466D01*
X020153Y013564D02*
X020726Y013564D01*
X020682Y013663D02*
X020823Y013663D01*
X020780Y013761D02*
X020922Y013761D01*
X020879Y013860D02*
X021020Y013860D01*
X020977Y013958D02*
X021119Y013958D01*
X021076Y014057D02*
X021217Y014057D01*
X022479Y013367D02*
X029039Y013367D01*
X029039Y013269D02*
X022578Y013269D01*
X020985Y012874D02*
X020824Y012874D01*
X019233Y014254D02*
X018843Y014254D01*
X018745Y014156D02*
X019134Y014156D01*
X019036Y014057D02*
X018646Y014057D01*
X018548Y013958D02*
X018937Y013958D01*
X018839Y013860D02*
X018449Y013860D01*
X018351Y013761D02*
X018740Y013761D01*
X018642Y013663D02*
X018252Y013663D01*
X018153Y013564D02*
X018543Y013564D01*
X018444Y013466D02*
X018055Y013466D01*
X017956Y013367D02*
X018346Y013367D01*
X018247Y013269D02*
X017858Y013269D01*
X017759Y013170D02*
X018149Y013170D01*
X018050Y013072D02*
X017661Y013072D01*
X017562Y012973D02*
X017952Y012973D01*
X017853Y012874D02*
X017464Y012874D01*
X017376Y012776D02*
X017755Y012776D01*
X017656Y012677D02*
X017389Y012677D01*
X017389Y012579D02*
X017558Y012579D01*
X017459Y012480D02*
X017354Y012480D01*
X017361Y012382D02*
X017302Y012382D01*
X017262Y012283D02*
X017204Y012283D01*
X017163Y012185D02*
X015949Y012185D01*
X015949Y012283D02*
X016115Y012283D01*
X016016Y012382D02*
X015949Y012382D01*
X015949Y012480D02*
X015964Y012480D01*
X015949Y012086D02*
X016244Y012086D01*
X016075Y011988D02*
X015949Y011988D01*
X015949Y011889D02*
X015989Y011889D01*
X015958Y011495D02*
X015949Y011495D01*
X015949Y011396D02*
X016001Y011396D01*
X015949Y011298D02*
X016100Y011298D01*
X014829Y011298D02*
X014602Y011298D01*
X014700Y011199D02*
X014829Y011199D01*
X014829Y011101D02*
X014799Y011101D01*
X014829Y011396D02*
X014503Y011396D01*
X014404Y011495D02*
X014829Y011495D01*
X014829Y011593D02*
X014389Y011593D01*
X014389Y011692D02*
X014829Y011692D01*
X014829Y011791D02*
X014370Y011791D01*
X014329Y011889D02*
X014829Y011889D01*
X014829Y011988D02*
X014243Y011988D01*
X014074Y012086D02*
X014829Y012086D01*
X014829Y012185D02*
X012909Y012185D01*
X012909Y012283D02*
X013115Y012283D01*
X013124Y012274D02*
X013290Y012205D01*
X014029Y012205D01*
X014194Y012274D01*
X014321Y012400D01*
X014389Y012566D01*
X014389Y012745D01*
X014321Y012910D01*
X014194Y013037D01*
X014029Y013105D01*
X013290Y013105D01*
X013124Y013037D01*
X012998Y012910D01*
X012929Y012745D01*
X012929Y012566D01*
X012998Y012400D01*
X013124Y012274D01*
X013016Y012382D02*
X012909Y012382D01*
X012909Y012480D02*
X012964Y012480D01*
X012929Y012579D02*
X012909Y012579D01*
X012909Y012677D02*
X012929Y012677D01*
X012942Y012776D02*
X012909Y012776D01*
X012909Y012874D02*
X012983Y012874D01*
X012909Y012880D02*
X013250Y013221D01*
X013290Y013205D01*
X014029Y013205D01*
X014194Y013274D01*
X014321Y013400D01*
X014389Y013566D01*
X014389Y013745D01*
X014321Y013910D01*
X014194Y014037D01*
X014029Y014105D01*
X013290Y014105D01*
X013124Y014037D01*
X012998Y013910D01*
X012929Y013745D01*
X012929Y013566D01*
X012934Y013555D01*
X012449Y013070D01*
X012449Y012880D01*
X012449Y010270D01*
X011889Y009710D01*
X011889Y009745D01*
X011821Y009910D01*
X011694Y010037D01*
X011529Y010105D01*
X010790Y010105D01*
X010624Y010037D01*
X010498Y009910D01*
X010429Y009745D01*
X010429Y009566D01*
X010498Y009400D01*
X010624Y009274D01*
X010790Y009205D01*
X011384Y009205D01*
X011284Y009105D01*
X010790Y009105D01*
X010624Y009037D01*
X010498Y008910D01*
X010429Y008745D01*
X010429Y008566D01*
X010498Y008400D01*
X010624Y008274D01*
X010790Y008205D01*
X011529Y008205D01*
X011694Y008274D01*
X011821Y008400D01*
X011889Y008566D01*
X011889Y008745D01*
X011821Y008910D01*
X011780Y008951D01*
X012774Y009945D01*
X012909Y010080D01*
X012909Y012880D01*
X013002Y012973D02*
X013061Y012973D01*
X013101Y013072D02*
X013209Y013072D01*
X013199Y013170D02*
X014829Y013170D01*
X014829Y013072D02*
X014109Y013072D01*
X014257Y012973D02*
X014829Y012973D01*
X014829Y012874D02*
X014335Y012874D01*
X014376Y012776D02*
X014829Y012776D01*
X014829Y012677D02*
X014389Y012677D01*
X014389Y012579D02*
X014829Y012579D01*
X014829Y012480D02*
X014354Y012480D01*
X014302Y012382D02*
X014829Y012382D01*
X014829Y012283D02*
X014204Y012283D01*
X013244Y012086D02*
X012909Y012086D01*
X012909Y011988D02*
X013075Y011988D01*
X012989Y011889D02*
X012909Y011889D01*
X012909Y011791D02*
X012948Y011791D01*
X012929Y011692D02*
X012909Y011692D01*
X012909Y011593D02*
X012929Y011593D01*
X012909Y011495D02*
X012958Y011495D01*
X013001Y011396D02*
X012909Y011396D01*
X012909Y011298D02*
X013100Y011298D01*
X012909Y011199D02*
X014050Y011199D01*
X014029Y011105D02*
X013290Y011105D01*
X013124Y011037D01*
X012998Y010910D01*
X012929Y010745D01*
X012929Y010566D01*
X012998Y010400D01*
X013124Y010274D01*
X013290Y010205D01*
X014029Y010205D01*
X014194Y010274D01*
X014321Y010400D01*
X014389Y010566D01*
X014389Y010745D01*
X014321Y010910D01*
X014194Y011037D01*
X014029Y011105D01*
X014039Y011101D02*
X014148Y011101D01*
X014228Y011002D02*
X014247Y011002D01*
X014323Y010904D02*
X014345Y010904D01*
X014364Y010805D02*
X014444Y010805D01*
X014389Y010707D02*
X014529Y010707D01*
X014529Y010608D02*
X014389Y010608D01*
X014366Y010509D02*
X014529Y010509D01*
X014529Y010411D02*
X014325Y010411D01*
X014233Y010312D02*
X014529Y010312D01*
X014529Y010214D02*
X014050Y010214D01*
X014040Y010074D02*
X013973Y010085D01*
X013689Y010085D01*
X013689Y009685D01*
X014369Y009685D01*
X014369Y009689D01*
X014358Y009756D01*
X014338Y009820D01*
X014529Y009820D01*
X014529Y009918D02*
X014279Y009918D01*
X014267Y009935D02*
X014219Y009983D01*
X014164Y010023D01*
X014104Y010054D01*
X014040Y010074D01*
X014173Y010017D02*
X014529Y010017D01*
X014529Y010115D02*
X012909Y010115D01*
X012909Y010214D02*
X013269Y010214D01*
X013278Y010074D02*
X013214Y010054D01*
X013154Y010023D01*
X013099Y009983D01*
X013051Y009935D01*
X013011Y009880D01*
X012981Y009820D01*
X012960Y009756D01*
X012949Y009689D01*
X012949Y009685D01*
X013629Y009685D01*
X013629Y009625D01*
X013689Y009625D01*
X013689Y009225D01*
X013973Y009225D01*
X014040Y009236D01*
X014104Y009257D01*
X014164Y009287D01*
X014219Y009327D01*
X014529Y009327D01*
X014529Y009425D02*
X014304Y009425D01*
X014307Y009430D02*
X014338Y009490D01*
X014358Y009554D01*
X014369Y009621D01*
X014369Y009625D01*
X013689Y009625D01*
X013689Y009685D01*
X013629Y009685D01*
X013629Y010085D01*
X013345Y010085D01*
X013278Y010074D01*
X013145Y010017D02*
X012846Y010017D01*
X012747Y009918D02*
X013039Y009918D01*
X012980Y009820D02*
X012649Y009820D01*
X012550Y009721D02*
X012954Y009721D01*
X012949Y009625D02*
X012949Y009621D01*
X012960Y009554D01*
X012981Y009490D01*
X013011Y009430D01*
X013051Y009375D01*
X013099Y009327D01*
X012156Y009327D01*
X012255Y009425D02*
X013014Y009425D01*
X012969Y009524D02*
X012353Y009524D01*
X012452Y009623D02*
X012949Y009623D01*
X012949Y009625D02*
X013629Y009625D01*
X013629Y009225D01*
X013345Y009225D01*
X013278Y009236D01*
X013214Y009257D01*
X013154Y009287D01*
X013099Y009327D01*
X013061Y009150D02*
X012879Y009075D01*
X012739Y008935D01*
X012664Y008754D01*
X012664Y008557D01*
X012739Y008375D01*
X012879Y008235D01*
X013061Y008160D01*
X013258Y008160D01*
X013439Y008235D01*
X013579Y008375D01*
X013654Y008557D01*
X013654Y008754D01*
X013579Y008935D01*
X013439Y009075D01*
X013258Y009150D01*
X013061Y009150D01*
X013012Y009130D02*
X011959Y009130D01*
X012058Y009228D02*
X013325Y009228D01*
X013306Y009130D02*
X014120Y009130D01*
X014122Y009130D02*
X014048Y009118D01*
X013977Y009095D01*
X013910Y009061D01*
X013850Y009017D01*
X013797Y008965D01*
X013753Y008904D01*
X013719Y008837D01*
X013696Y008766D01*
X013684Y008692D01*
X013684Y008674D01*
X014140Y008674D01*
X014140Y009130D01*
X014122Y009130D01*
X014140Y009130D02*
X014178Y009130D01*
X014198Y009130D02*
X014529Y009130D01*
X014529Y009228D02*
X013994Y009228D01*
X013869Y009031D02*
X013483Y009031D01*
X013580Y008933D02*
X013774Y008933D01*
X013718Y008834D02*
X013621Y008834D01*
X013654Y008736D02*
X013691Y008736D01*
X013684Y008636D02*
X013684Y008618D01*
X013696Y008544D01*
X013719Y008473D01*
X013753Y008406D01*
X013797Y008346D01*
X013850Y008293D01*
X013910Y008249D01*
X013977Y008215D01*
X014048Y008192D01*
X014122Y008180D01*
X014140Y008180D01*
X014140Y008636D01*
X013684Y008636D01*
X013654Y008637D02*
X014140Y008637D01*
X014140Y008539D02*
X014178Y008539D01*
X014178Y008440D02*
X014140Y008440D01*
X014140Y008341D02*
X014178Y008341D01*
X014178Y008243D02*
X014140Y008243D01*
X013922Y008243D02*
X013447Y008243D01*
X013545Y008341D02*
X013801Y008341D01*
X013736Y008440D02*
X013606Y008440D01*
X013647Y008539D02*
X013697Y008539D01*
X014140Y008736D02*
X014178Y008736D01*
X014178Y008834D02*
X014140Y008834D01*
X014140Y008933D02*
X014178Y008933D01*
X014178Y009031D02*
X014140Y009031D01*
X014219Y009327D02*
X014267Y009375D01*
X014307Y009430D01*
X014349Y009524D02*
X014529Y009524D01*
X014529Y009623D02*
X014369Y009623D01*
X014364Y009721D02*
X014529Y009721D01*
X014338Y009820D02*
X014307Y009880D01*
X014267Y009935D01*
X013689Y009918D02*
X013629Y009918D01*
X013629Y009820D02*
X013689Y009820D01*
X013689Y009721D02*
X013629Y009721D01*
X013629Y009623D02*
X013689Y009623D01*
X013689Y009524D02*
X013629Y009524D01*
X013629Y009425D02*
X013689Y009425D01*
X013689Y009327D02*
X013629Y009327D01*
X013629Y009228D02*
X013689Y009228D01*
X014449Y009031D02*
X014529Y009031D01*
X014517Y008341D02*
X014529Y008341D01*
X014529Y008243D02*
X014396Y008243D01*
X014529Y008144D02*
X007694Y008144D01*
X007790Y008105D02*
X007624Y008037D01*
X007498Y007910D01*
X007429Y007745D01*
X007429Y007566D01*
X007498Y007400D01*
X007624Y007274D01*
X007790Y007205D01*
X008529Y007205D01*
X008694Y007274D01*
X008821Y007400D01*
X008889Y007566D01*
X008889Y007745D01*
X008821Y007910D01*
X008694Y008037D01*
X008529Y008105D01*
X007790Y008105D01*
X007647Y008046D02*
X007595Y008046D01*
X007535Y007947D02*
X007496Y007947D01*
X007472Y007849D02*
X007398Y007849D01*
X007389Y007750D02*
X007431Y007750D01*
X007429Y007652D02*
X007389Y007652D01*
X007389Y007553D02*
X007434Y007553D01*
X007475Y007455D02*
X007389Y007455D01*
X007389Y007356D02*
X007542Y007356D01*
X007663Y007258D02*
X007389Y007258D01*
X007389Y007159D02*
X014378Y007159D01*
X014476Y007258D02*
X011655Y007258D01*
X011694Y007274D02*
X011821Y007400D01*
X011889Y007566D01*
X011889Y007745D01*
X011821Y007910D01*
X011694Y008037D01*
X011529Y008105D01*
X010790Y008105D01*
X010624Y008037D01*
X010498Y007910D01*
X010429Y007745D01*
X010429Y007566D01*
X010498Y007400D01*
X010624Y007274D01*
X010790Y007205D01*
X011529Y007205D01*
X011694Y007274D01*
X011776Y007356D02*
X014529Y007356D01*
X014529Y007455D02*
X011843Y007455D01*
X011884Y007553D02*
X014529Y007553D01*
X014529Y007652D02*
X011889Y007652D01*
X011887Y007750D02*
X014529Y007750D01*
X014529Y007849D02*
X011846Y007849D01*
X011783Y007947D02*
X014529Y007947D01*
X014529Y008046D02*
X011672Y008046D01*
X011620Y008243D02*
X012871Y008243D01*
X012773Y008341D02*
X011762Y008341D01*
X011837Y008440D02*
X012712Y008440D01*
X012671Y008539D02*
X011878Y008539D01*
X011889Y008637D02*
X012664Y008637D01*
X012664Y008736D02*
X011889Y008736D01*
X011852Y008834D02*
X012697Y008834D01*
X012738Y008933D02*
X011798Y008933D01*
X011860Y009031D02*
X012835Y009031D01*
X011998Y009820D02*
X011858Y009820D01*
X011889Y009721D02*
X011900Y009721D01*
X011812Y009918D02*
X012097Y009918D01*
X012195Y010017D02*
X011714Y010017D01*
X011604Y010257D02*
X011664Y010287D01*
X011719Y010327D01*
X011767Y010375D01*
X011807Y010430D01*
X011838Y010490D01*
X011858Y010554D01*
X011869Y010621D01*
X011869Y010625D01*
X011189Y010625D01*
X011189Y010225D01*
X011473Y010225D01*
X011540Y010236D01*
X011604Y010257D01*
X011699Y010312D02*
X012449Y010312D01*
X012449Y010411D02*
X011793Y010411D01*
X011844Y010509D02*
X012449Y010509D01*
X012449Y010608D02*
X011867Y010608D01*
X011869Y010685D02*
X011869Y010689D01*
X011858Y010756D01*
X011838Y010820D01*
X011807Y010880D01*
X011767Y010935D01*
X011719Y010983D01*
X011664Y011023D01*
X011604Y011054D01*
X011540Y011074D01*
X011473Y011085D01*
X011189Y011085D01*
X011189Y010685D01*
X011869Y010685D01*
X011866Y010707D02*
X012449Y010707D01*
X012449Y010805D02*
X011842Y010805D01*
X011790Y010904D02*
X012449Y010904D01*
X012449Y011002D02*
X011693Y011002D01*
X011604Y011257D02*
X011664Y011287D01*
X011719Y011327D01*
X011767Y011375D01*
X011807Y011430D01*
X011838Y011490D01*
X011858Y011554D01*
X011869Y011621D01*
X011869Y011625D01*
X011189Y011625D01*
X011189Y011225D01*
X011473Y011225D01*
X011540Y011236D01*
X011604Y011257D01*
X011679Y011298D02*
X012449Y011298D01*
X012449Y011396D02*
X011783Y011396D01*
X011839Y011495D02*
X012449Y011495D01*
X012449Y011593D02*
X011865Y011593D01*
X011869Y011685D02*
X011869Y011689D01*
X011858Y011756D01*
X011838Y011820D01*
X011807Y011880D01*
X011767Y011935D01*
X011719Y011983D01*
X011664Y012023D01*
X011604Y012054D01*
X011540Y012074D01*
X011473Y012085D01*
X011189Y012085D01*
X011189Y011685D01*
X011869Y011685D01*
X011869Y011692D02*
X012449Y011692D01*
X012449Y011791D02*
X011847Y011791D01*
X011801Y011889D02*
X012449Y011889D01*
X012449Y011988D02*
X011713Y011988D01*
X011529Y012205D02*
X011694Y012274D01*
X011821Y012400D01*
X011889Y012566D01*
X011889Y012745D01*
X011821Y012910D01*
X011694Y013037D01*
X011529Y013105D01*
X010790Y013105D01*
X010624Y013037D01*
X010498Y012910D01*
X010429Y012745D01*
X010429Y012566D01*
X010498Y012400D01*
X010624Y012274D01*
X010790Y012205D01*
X011529Y012205D01*
X011704Y012283D02*
X012449Y012283D01*
X012449Y012185D02*
X009389Y012185D01*
X009389Y012283D02*
X010615Y012283D01*
X010516Y012382D02*
X009389Y012382D01*
X009389Y012480D02*
X010464Y012480D01*
X010429Y012579D02*
X009389Y012579D01*
X009389Y012677D02*
X010429Y012677D01*
X010442Y012776D02*
X009389Y012776D01*
X009389Y012874D02*
X010483Y012874D01*
X010561Y012973D02*
X009389Y012973D01*
X009389Y013072D02*
X010709Y013072D01*
X010636Y013269D02*
X009389Y013269D01*
X009389Y013367D02*
X010531Y013367D01*
X010470Y013466D02*
X009389Y013466D01*
X009389Y013564D02*
X010430Y013564D01*
X010429Y013663D02*
X009389Y013663D01*
X009389Y013761D02*
X010436Y013761D01*
X010477Y013860D02*
X009409Y013860D01*
X009508Y013958D02*
X010546Y013958D01*
X010674Y014057D02*
X009606Y014057D01*
X009705Y014156D02*
X011614Y014156D01*
X011529Y014205D02*
X011694Y014274D01*
X011821Y014400D01*
X011889Y014566D01*
X011889Y014745D01*
X011821Y014910D01*
X011694Y015037D01*
X011529Y015105D01*
X010790Y015105D01*
X010624Y015037D01*
X010498Y014910D01*
X010429Y014745D01*
X010429Y014566D01*
X010498Y014400D01*
X010624Y014274D01*
X010790Y014205D01*
X011529Y014205D01*
X011647Y014254D02*
X011713Y014254D01*
X011773Y014353D02*
X011811Y014353D01*
X011842Y014451D02*
X011910Y014451D01*
X011882Y014550D02*
X012008Y014550D01*
X012107Y014648D02*
X011889Y014648D01*
X011888Y014747D02*
X012206Y014747D01*
X012304Y014845D02*
X011847Y014845D01*
X011787Y014944D02*
X012403Y014944D01*
X012449Y015042D02*
X011680Y015042D01*
X011612Y015240D02*
X012449Y015240D01*
X012449Y015338D02*
X011758Y015338D01*
X011836Y015437D02*
X012449Y015437D01*
X012449Y015535D02*
X011876Y015535D01*
X011889Y015634D02*
X012449Y015634D01*
X012449Y015732D02*
X011889Y015732D01*
X011853Y015831D02*
X012449Y015831D01*
X012449Y015929D02*
X011801Y015929D01*
X011703Y016028D02*
X012449Y016028D01*
X012449Y016126D02*
X004199Y016126D01*
X004191Y016028D02*
X007615Y016028D01*
X007517Y015929D02*
X004150Y015929D01*
X004098Y015831D02*
X007465Y015831D01*
X007429Y015732D02*
X004000Y015732D01*
X003811Y015634D02*
X007429Y015634D01*
X007442Y015535D02*
X001329Y015535D01*
X001329Y015437D02*
X007482Y015437D01*
X007560Y015338D02*
X001329Y015338D01*
X001329Y015240D02*
X007706Y015240D01*
X007742Y016225D02*
X004199Y016225D01*
X004174Y016324D02*
X007574Y016324D01*
X007489Y016422D02*
X004133Y016422D01*
X004057Y016521D02*
X007448Y016521D01*
X007429Y016619D02*
X003950Y016619D01*
X003985Y016718D02*
X007429Y016718D01*
X007459Y016816D02*
X004084Y016816D01*
X004144Y016915D02*
X007502Y016915D01*
X007601Y017013D02*
X004185Y017013D01*
X004199Y017112D02*
X012449Y017112D01*
X012449Y017210D02*
X011541Y017210D01*
X011729Y017309D02*
X012449Y017309D01*
X012449Y017407D02*
X011824Y017407D01*
X011864Y017506D02*
X012485Y017506D01*
X012583Y017605D02*
X011889Y017605D01*
X011889Y017703D02*
X012682Y017703D01*
X012780Y017802D02*
X011865Y017802D01*
X011825Y017900D02*
X012879Y017900D01*
X012977Y017999D02*
X011732Y017999D01*
X011547Y018097D02*
X013076Y018097D01*
X013431Y017802D02*
X014349Y017802D01*
X014349Y017900D02*
X013529Y017900D01*
X013628Y017999D02*
X014349Y017999D01*
X014349Y018097D02*
X013726Y018097D01*
X013825Y018196D02*
X014349Y018196D01*
X014349Y018294D02*
X013924Y018294D01*
X014022Y018393D02*
X014349Y018393D01*
X014349Y018491D02*
X014121Y018491D01*
X014219Y018590D02*
X014349Y018590D01*
X014349Y018689D02*
X014318Y018689D01*
X015169Y018590D02*
X015236Y018590D01*
X015212Y018689D02*
X015277Y018689D01*
X015311Y018787D02*
X015375Y018787D01*
X015409Y018886D02*
X017362Y018886D01*
X017261Y018787D02*
X016943Y018787D01*
X016914Y018817D02*
X016749Y018885D01*
X016570Y018885D01*
X016404Y018817D01*
X016278Y018690D01*
X016209Y018525D01*
X016209Y017786D01*
X016278Y017620D01*
X016404Y017494D01*
X016570Y017425D01*
X016749Y017425D01*
X016914Y017494D01*
X017041Y017620D01*
X017109Y017786D01*
X017109Y018525D01*
X017041Y018690D01*
X016914Y018817D01*
X017041Y018689D02*
X017190Y018689D01*
X017150Y018590D02*
X017082Y018590D01*
X017109Y018491D02*
X017129Y018491D01*
X017129Y018393D02*
X017109Y018393D01*
X017109Y018294D02*
X017129Y018294D01*
X017129Y018196D02*
X017109Y018196D01*
X017109Y018097D02*
X017129Y018097D01*
X017129Y017999D02*
X017109Y017999D01*
X017109Y017900D02*
X017129Y017900D01*
X017129Y017802D02*
X017109Y017802D01*
X017075Y017703D02*
X017157Y017703D01*
X017197Y017605D02*
X017025Y017605D01*
X016926Y017506D02*
X017279Y017506D01*
X017403Y017407D02*
X015949Y017407D01*
X015949Y017309D02*
X017685Y017309D01*
X017784Y017210D02*
X015949Y017210D01*
X015949Y017112D02*
X017882Y017112D01*
X017981Y017013D02*
X017217Y017013D01*
X017316Y016915D02*
X018080Y016915D01*
X018251Y016816D02*
X017359Y016816D01*
X017389Y016718D02*
X018221Y016718D01*
X018123Y016619D02*
X017389Y016619D01*
X017370Y016521D02*
X018024Y016521D01*
X017926Y016422D02*
X017330Y016422D01*
X017244Y016324D02*
X017868Y016324D01*
X017829Y016225D02*
X017076Y016225D01*
X017203Y016028D02*
X017838Y016028D01*
X017829Y016126D02*
X015949Y016126D01*
X015949Y016028D02*
X016115Y016028D01*
X016017Y015929D02*
X015949Y015929D01*
X015949Y015831D02*
X015965Y015831D01*
X015949Y016225D02*
X016242Y016225D01*
X016074Y016324D02*
X015949Y016324D01*
X015949Y016422D02*
X015989Y016422D01*
X015959Y016816D02*
X015949Y016816D01*
X015949Y016915D02*
X016002Y016915D01*
X015949Y017013D02*
X016101Y017013D01*
X015949Y017506D02*
X016392Y017506D01*
X016293Y017605D02*
X016025Y017605D01*
X016075Y017703D02*
X016243Y017703D01*
X016209Y017802D02*
X016109Y017802D01*
X016109Y017900D02*
X016209Y017900D01*
X016209Y017999D02*
X016109Y017999D01*
X016109Y018097D02*
X016209Y018097D01*
X016209Y018196D02*
X016109Y018196D01*
X016109Y018294D02*
X016209Y018294D01*
X016209Y018393D02*
X016109Y018393D01*
X016109Y018491D02*
X016209Y018491D01*
X016236Y018590D02*
X016082Y018590D01*
X016041Y018689D02*
X016277Y018689D01*
X016375Y018787D02*
X015943Y018787D01*
X015606Y019083D02*
X019889Y019083D01*
X019889Y019181D02*
X015705Y019181D01*
X015804Y019280D02*
X019889Y019280D01*
X019889Y019378D02*
X015902Y019378D01*
X016001Y019477D02*
X019889Y019477D01*
X019889Y019575D02*
X019196Y019575D01*
X019294Y019674D02*
X019889Y019674D01*
X019889Y019773D02*
X019339Y019773D01*
X019369Y019871D02*
X019889Y019871D01*
X019889Y019970D02*
X019369Y019970D01*
X019351Y020068D02*
X019889Y020068D01*
X019889Y020167D02*
X019310Y020167D01*
X019225Y020265D02*
X019889Y020265D01*
X019889Y020364D02*
X019060Y020364D01*
X018480Y020462D02*
X017996Y020462D01*
X018094Y020561D02*
X018337Y020561D01*
X018261Y020659D02*
X018143Y020659D01*
X018184Y020758D02*
X018220Y020758D01*
X018209Y020856D02*
X018189Y020856D01*
X018189Y020955D02*
X018209Y020955D01*
X018209Y021054D02*
X018189Y021054D01*
X018189Y021152D02*
X018209Y021152D01*
X018209Y021251D02*
X018189Y021251D01*
X018189Y021349D02*
X018209Y021349D01*
X018209Y021448D02*
X018189Y021448D01*
X018187Y021546D02*
X018218Y021546D01*
X018259Y021645D02*
X018146Y021645D01*
X018100Y021743D02*
X018331Y021743D01*
X018465Y021842D02*
X018002Y021842D01*
X019838Y020462D02*
X019889Y020462D01*
X019889Y018984D02*
X015508Y018984D01*
X015209Y018491D02*
X015169Y018491D01*
X015169Y018393D02*
X015209Y018393D01*
X015209Y018294D02*
X015169Y018294D01*
X015169Y018196D02*
X015209Y018196D01*
X015209Y018097D02*
X015169Y018097D01*
X015169Y017999D02*
X015209Y017999D01*
X015209Y017900D02*
X015169Y017900D01*
X015169Y017802D02*
X015209Y017802D01*
X015243Y017703D02*
X015169Y017703D01*
X015169Y017605D02*
X015293Y017605D01*
X015392Y017506D02*
X015169Y017506D01*
X015169Y017407D02*
X015489Y017407D01*
X015489Y017309D02*
X015169Y017309D01*
X015169Y017210D02*
X015489Y017210D01*
X015489Y017112D02*
X015169Y017112D01*
X015169Y017013D02*
X015489Y017013D01*
X015489Y016915D02*
X015169Y016915D01*
X015169Y016816D02*
X015489Y016816D01*
X015489Y016718D02*
X015169Y016718D01*
X015169Y016619D02*
X015489Y016619D01*
X015489Y016521D02*
X015169Y016521D01*
X015169Y016422D02*
X015489Y016422D01*
X015489Y016324D02*
X015169Y016324D01*
X015169Y016225D02*
X015489Y016225D01*
X015489Y016126D02*
X015169Y016126D01*
X015169Y016028D02*
X015489Y016028D01*
X015489Y015929D02*
X015185Y015929D01*
X015283Y015831D02*
X015489Y015831D01*
X015489Y015732D02*
X015382Y015732D01*
X015480Y015634D02*
X015489Y015634D01*
X015949Y015437D02*
X015982Y015437D01*
X015970Y015338D02*
X016060Y015338D01*
X016138Y015240D02*
X016206Y015240D01*
X016211Y015141D02*
X018641Y015141D01*
X018579Y015240D02*
X017112Y015240D01*
X017258Y015338D02*
X018538Y015338D01*
X018536Y015437D02*
X017336Y015437D01*
X017376Y015535D02*
X018542Y015535D01*
X018583Y015634D02*
X017389Y015634D01*
X017389Y015732D02*
X018085Y015732D01*
X017951Y015831D02*
X017353Y015831D01*
X017301Y015929D02*
X017879Y015929D01*
X018473Y015732D02*
X018650Y015732D01*
X018607Y015831D02*
X018749Y015831D01*
X018706Y015929D02*
X018847Y015929D01*
X018804Y016028D02*
X018946Y016028D01*
X018903Y016126D02*
X019044Y016126D01*
X019001Y016225D02*
X019165Y016225D01*
X019074Y016324D02*
X019551Y016324D01*
X019599Y016225D02*
X019649Y016225D01*
X019720Y016126D02*
X019748Y016126D01*
X019786Y016028D02*
X019846Y016028D01*
X019827Y015929D02*
X019945Y015929D01*
X020044Y015831D02*
X019832Y015831D01*
X019830Y015732D02*
X020142Y015732D01*
X020241Y015634D02*
X019789Y015634D01*
X019726Y015535D02*
X019914Y015535D01*
X019769Y015437D02*
X019627Y015437D01*
X019670Y015338D02*
X019529Y015338D01*
X019572Y015240D02*
X019430Y015240D01*
X019473Y015141D02*
X019332Y015141D01*
X019374Y015042D02*
X019229Y015042D01*
X019229Y014944D02*
X019297Y014944D01*
X019256Y014845D02*
X019229Y014845D01*
X019229Y014747D02*
X019243Y014747D01*
X019229Y014648D02*
X019243Y014648D01*
X019279Y014550D02*
X019139Y014550D01*
X019040Y014451D02*
X019331Y014451D01*
X019331Y014353D02*
X018942Y014353D01*
X018587Y014648D02*
X017389Y014648D01*
X017382Y014550D02*
X018488Y014550D01*
X018390Y014451D02*
X017342Y014451D01*
X017273Y014353D02*
X018291Y014353D01*
X018193Y014254D02*
X017147Y014254D01*
X017145Y014057D02*
X017996Y014057D01*
X018094Y014156D02*
X016185Y014156D01*
X016174Y014057D02*
X016086Y014057D01*
X016046Y013958D02*
X015988Y013958D01*
X015977Y013860D02*
X015949Y013860D01*
X015949Y013466D02*
X015970Y013466D01*
X015949Y013367D02*
X016031Y013367D01*
X015949Y013269D02*
X016136Y013269D01*
X016209Y013072D02*
X015949Y013072D01*
X015949Y013170D02*
X017109Y013170D01*
X017182Y013269D02*
X017207Y013269D01*
X017288Y013367D02*
X017306Y013367D01*
X017348Y013466D02*
X017404Y013466D01*
X017388Y013564D02*
X017503Y013564D01*
X017602Y013663D02*
X017389Y013663D01*
X017382Y013761D02*
X017700Y013761D01*
X017799Y013860D02*
X017341Y013860D01*
X017272Y013958D02*
X017897Y013958D01*
X017388Y014747D02*
X018686Y014747D01*
X018769Y014845D02*
X017347Y014845D01*
X017287Y014944D02*
X018769Y014944D01*
X018751Y015042D02*
X017180Y015042D01*
X014829Y015042D02*
X014180Y015042D01*
X014194Y015037D02*
X014029Y015105D01*
X013290Y015105D01*
X013124Y015037D01*
X012998Y014910D01*
X012929Y014745D01*
X012929Y014566D01*
X012998Y014400D01*
X013124Y014274D01*
X013290Y014205D01*
X014029Y014205D01*
X014194Y014274D01*
X014321Y014400D01*
X014389Y014566D01*
X014389Y014745D01*
X014321Y014910D01*
X014194Y015037D01*
X014287Y014944D02*
X014829Y014944D01*
X014829Y014845D02*
X014347Y014845D01*
X014388Y014747D02*
X014829Y014747D01*
X014829Y014648D02*
X014389Y014648D01*
X014382Y014550D02*
X014829Y014550D01*
X014829Y014451D02*
X014342Y014451D01*
X014273Y014353D02*
X014829Y014353D01*
X014829Y014254D02*
X014147Y014254D01*
X014145Y014057D02*
X014829Y014057D01*
X014829Y014156D02*
X012265Y014156D01*
X012363Y014254D02*
X013171Y014254D01*
X013045Y014353D02*
X012462Y014353D01*
X012560Y014451D02*
X012976Y014451D01*
X012936Y014550D02*
X012659Y014550D01*
X012757Y014648D02*
X012929Y014648D01*
X012930Y014747D02*
X012856Y014747D01*
X012909Y014845D02*
X012971Y014845D01*
X013031Y014944D02*
X012909Y014944D01*
X012909Y015042D02*
X013138Y015042D01*
X013214Y015257D02*
X013278Y015236D01*
X013345Y015225D01*
X013629Y015225D01*
X013629Y015625D01*
X013689Y015625D01*
X013689Y015225D01*
X013973Y015225D01*
X014040Y015236D01*
X014104Y015257D01*
X014164Y015287D01*
X014219Y015327D01*
X014267Y015375D01*
X014307Y015430D01*
X014338Y015490D01*
X014358Y015554D01*
X014369Y015621D01*
X014369Y015625D01*
X013689Y015625D01*
X013689Y015685D01*
X013629Y015685D01*
X013629Y015625D01*
X012949Y015625D01*
X012949Y015621D01*
X012960Y015554D01*
X012981Y015490D01*
X013011Y015430D01*
X013051Y015375D01*
X013099Y015327D01*
X013154Y015287D01*
X013214Y015257D01*
X013267Y015240D02*
X012909Y015240D01*
X012909Y015338D02*
X013088Y015338D01*
X013008Y015437D02*
X012909Y015437D01*
X012909Y015535D02*
X012966Y015535D01*
X012909Y015634D02*
X013629Y015634D01*
X013629Y015685D02*
X012949Y015685D01*
X012949Y015689D01*
X012960Y015756D01*
X012981Y015820D01*
X013011Y015880D01*
X013051Y015935D01*
X013099Y015983D01*
X013154Y016023D01*
X013214Y016054D01*
X013278Y016074D01*
X013345Y016085D01*
X013629Y016085D01*
X013629Y015685D01*
X013629Y015732D02*
X013689Y015732D01*
X013689Y015634D02*
X014374Y015634D01*
X014352Y015535D02*
X014419Y015535D01*
X014518Y015437D02*
X014310Y015437D01*
X014230Y015338D02*
X014616Y015338D01*
X014715Y015240D02*
X014051Y015240D01*
X013689Y015240D02*
X013629Y015240D01*
X013629Y015338D02*
X013689Y015338D01*
X013689Y015437D02*
X013629Y015437D01*
X013629Y015535D02*
X013689Y015535D01*
X013689Y015831D02*
X013629Y015831D01*
X013629Y015929D02*
X013689Y015929D01*
X013689Y016028D02*
X013629Y016028D01*
X013242Y016225D02*
X012909Y016225D01*
X012909Y016324D02*
X013074Y016324D01*
X012989Y016422D02*
X012909Y016422D01*
X012909Y016521D02*
X012948Y016521D01*
X012929Y016619D02*
X012909Y016619D01*
X012909Y016718D02*
X012929Y016718D01*
X012909Y016816D02*
X012959Y016816D01*
X013002Y016915D02*
X012909Y016915D01*
X012909Y017013D02*
X013101Y017013D01*
X012909Y017112D02*
X014349Y017112D01*
X014349Y017210D02*
X012909Y017210D01*
X012938Y017309D02*
X014349Y017309D01*
X014349Y017407D02*
X013037Y017407D01*
X013135Y017506D02*
X014349Y017506D01*
X014349Y017605D02*
X013234Y017605D01*
X013332Y017703D02*
X014349Y017703D01*
X014349Y017013D02*
X014217Y017013D01*
X014316Y016915D02*
X014349Y016915D01*
X014330Y016422D02*
X014349Y016422D01*
X014349Y016324D02*
X014244Y016324D01*
X014349Y016225D02*
X014076Y016225D01*
X014155Y016028D02*
X014349Y016028D01*
X014349Y016126D02*
X012909Y016126D01*
X012909Y016028D02*
X013164Y016028D01*
X013047Y015929D02*
X012909Y015929D01*
X012909Y015831D02*
X012986Y015831D01*
X012956Y015732D02*
X012909Y015732D01*
X012909Y015141D02*
X014813Y015141D01*
X014349Y015831D02*
X014332Y015831D01*
X014349Y015929D02*
X014271Y015929D01*
X012449Y016225D02*
X011576Y016225D01*
X011744Y016324D02*
X012449Y016324D01*
X012449Y016422D02*
X011830Y016422D01*
X011870Y016521D02*
X012449Y016521D01*
X012449Y016619D02*
X011889Y016619D01*
X011889Y016718D02*
X012449Y016718D01*
X012449Y016816D02*
X011859Y016816D01*
X011816Y016915D02*
X012449Y016915D01*
X012449Y017013D02*
X011717Y017013D01*
X010777Y017210D02*
X008541Y017210D01*
X007777Y017210D02*
X004199Y017210D01*
X004180Y017309D02*
X007589Y017309D01*
X007495Y017407D02*
X004139Y017407D01*
X004072Y017506D02*
X005183Y017506D01*
X005084Y017605D02*
X003973Y017605D01*
X003917Y017703D02*
X004986Y017703D01*
X004887Y017802D02*
X004041Y017802D01*
X004113Y017900D02*
X004789Y017900D01*
X004690Y017999D02*
X004155Y017999D01*
X004176Y018097D02*
X004592Y018097D01*
X004493Y018196D02*
X003709Y018196D01*
X003609Y018196D02*
X001329Y018196D01*
X001329Y018294D02*
X003158Y018294D01*
X003197Y018393D02*
X001329Y018393D01*
X001329Y018491D02*
X003261Y018491D01*
X003373Y018590D02*
X001329Y018590D01*
X001329Y018689D02*
X003374Y018689D01*
X003263Y018787D02*
X001329Y018787D01*
X001329Y018886D02*
X003186Y018886D01*
X003145Y018984D02*
X001329Y018984D01*
X001329Y019083D02*
X003119Y019083D01*
X003119Y019181D02*
X001329Y019181D01*
X001329Y019280D02*
X003126Y019280D01*
X003167Y019378D02*
X001329Y019378D01*
X001329Y019477D02*
X003217Y019477D01*
X003316Y019575D02*
X001329Y019575D01*
X001329Y019674D02*
X003410Y019674D01*
X003278Y019773D02*
X001329Y019773D01*
X001329Y019871D02*
X003192Y019871D01*
X003151Y019970D02*
X001329Y019970D01*
X001329Y020068D02*
X003119Y020068D01*
X003119Y020167D02*
X001329Y020167D01*
X001329Y020265D02*
X003120Y020265D01*
X003161Y020364D02*
X001329Y020364D01*
X001329Y020462D02*
X003203Y020462D01*
X003301Y020561D02*
X001329Y020561D01*
X001329Y020659D02*
X003445Y020659D01*
X003293Y020758D02*
X001329Y020758D01*
X001329Y020856D02*
X003198Y020856D01*
X003157Y020955D02*
X001329Y020955D01*
X001329Y021054D02*
X003119Y021054D01*
X003119Y021152D02*
X001329Y021152D01*
X001329Y021251D02*
X003119Y021251D01*
X003155Y021349D02*
X001329Y021349D01*
X001329Y021448D02*
X003196Y021448D01*
X003287Y021546D02*
X001329Y021546D01*
X001329Y021645D02*
X003430Y021645D01*
X003569Y021743D02*
X001329Y021743D01*
X001329Y021842D02*
X003569Y021842D01*
X003569Y021940D02*
X001329Y021940D01*
X001329Y022039D02*
X003569Y022039D01*
X003569Y022138D02*
X001329Y022138D01*
X001329Y022236D02*
X002436Y022236D01*
X002174Y022335D02*
X001329Y022335D01*
X001329Y022433D02*
X002057Y022433D01*
X001940Y022532D02*
X001329Y022532D01*
X001329Y022630D02*
X001877Y022630D01*
X001820Y022729D02*
X001329Y022729D01*
X001329Y022827D02*
X001763Y022827D01*
X001745Y022926D02*
X001329Y022926D01*
X001329Y023024D02*
X001728Y023024D01*
X001710Y023123D02*
X001329Y023123D01*
X001329Y023222D02*
X001716Y023222D01*
X001734Y023320D02*
X001329Y023320D01*
X001329Y023419D02*
X001751Y023419D01*
X001783Y023517D02*
X001329Y023517D01*
X001329Y023616D02*
X001840Y023616D01*
X001897Y023714D02*
X001329Y023714D01*
X001329Y023813D02*
X001981Y023813D01*
X002098Y023911D02*
X001329Y023911D01*
X001329Y024010D02*
X002259Y024010D01*
X003059Y024010D02*
X004314Y024010D01*
X004229Y023911D02*
X003220Y023911D01*
X003338Y023813D02*
X004189Y023813D01*
X004164Y023714D02*
X003422Y023714D01*
X003479Y023616D02*
X004164Y023616D01*
X004176Y023517D02*
X003535Y023517D01*
X003567Y023419D02*
X004077Y023419D01*
X003979Y023320D02*
X003584Y023320D01*
X003602Y023222D02*
X003880Y023222D01*
X003782Y023123D02*
X003608Y023123D01*
X003590Y023024D02*
X003683Y023024D01*
X003585Y022926D02*
X003573Y022926D01*
X003569Y022827D02*
X003555Y022827D01*
X003569Y022729D02*
X003498Y022729D01*
X003441Y022630D02*
X003569Y022630D01*
X003569Y022532D02*
X003378Y022532D01*
X003261Y022433D02*
X003569Y022433D01*
X003569Y022335D02*
X003144Y022335D01*
X002882Y022236D02*
X003569Y022236D01*
X004990Y023024D02*
X013443Y023024D01*
X013345Y022926D02*
X005083Y022926D01*
X005123Y022827D02*
X013246Y022827D01*
X013148Y022729D02*
X009920Y022729D01*
X010087Y022630D02*
X013049Y022630D01*
X012950Y022532D02*
X010179Y022532D01*
X010220Y022433D02*
X012852Y022433D01*
X012753Y022335D02*
X010249Y022335D01*
X010249Y022236D02*
X012655Y022236D01*
X012556Y022138D02*
X010237Y022138D01*
X010196Y022039D02*
X012458Y022039D01*
X012359Y021940D02*
X010127Y021940D01*
X010018Y021842D02*
X012261Y021842D01*
X012162Y021743D02*
X009213Y021743D01*
X009114Y021645D02*
X009984Y021645D01*
X009959Y021637D02*
X009886Y021600D01*
X009820Y021552D01*
X009762Y021494D01*
X009714Y021428D01*
X009677Y021355D01*
X009652Y021277D01*
X009639Y021196D01*
X009639Y021194D01*
X010120Y021194D01*
X010120Y021116D01*
X010198Y021116D01*
X010198Y020635D01*
X010200Y020635D01*
X010281Y020648D01*
X010359Y020673D01*
X010432Y020710D01*
X010498Y020758D01*
X010556Y020816D01*
X010604Y020883D01*
X010641Y020955D01*
X011374Y020955D01*
X011472Y021054D02*
X010669Y021054D01*
X010666Y021033D02*
X010679Y021114D01*
X010679Y021116D01*
X010198Y021116D01*
X010198Y021194D01*
X010679Y021194D01*
X010679Y021196D01*
X010666Y021277D01*
X010641Y021355D01*
X010604Y021428D01*
X010556Y021494D01*
X010498Y021552D01*
X010432Y021600D01*
X010359Y021637D01*
X010281Y021662D01*
X010200Y021675D01*
X010198Y021675D01*
X010198Y021194D01*
X010120Y021194D01*
X010120Y021675D01*
X010118Y021675D01*
X010037Y021662D01*
X009959Y021637D01*
X010120Y021645D02*
X010198Y021645D01*
X010198Y021546D02*
X010120Y021546D01*
X010120Y021448D02*
X010198Y021448D01*
X010198Y021349D02*
X010120Y021349D01*
X010120Y021251D02*
X010198Y021251D01*
X010198Y021152D02*
X011571Y021152D01*
X011669Y021251D02*
X010670Y021251D01*
X010643Y021349D02*
X011768Y021349D01*
X011866Y021448D02*
X010589Y021448D01*
X010503Y021546D02*
X011965Y021546D01*
X012064Y021645D02*
X010334Y021645D01*
X009815Y021546D02*
X009015Y021546D01*
X008917Y021448D02*
X009729Y021448D01*
X009675Y021349D02*
X008818Y021349D01*
X008720Y021251D02*
X009648Y021251D01*
X009639Y021116D02*
X009639Y021114D01*
X009652Y021033D01*
X009677Y020955D01*
X008424Y020955D01*
X008326Y020856D02*
X009733Y020856D01*
X009714Y020883D02*
X009762Y020816D01*
X009820Y020758D01*
X009886Y020710D01*
X009959Y020673D01*
X010037Y020648D01*
X010118Y020635D01*
X010120Y020635D01*
X010120Y021116D01*
X009639Y021116D01*
X009649Y021054D02*
X008523Y021054D01*
X008621Y021152D02*
X010120Y021152D01*
X010120Y021054D02*
X010198Y021054D01*
X010198Y020955D02*
X010120Y020955D01*
X010120Y020856D02*
X010198Y020856D01*
X010198Y020758D02*
X010120Y020758D01*
X010120Y020659D02*
X010198Y020659D01*
X010316Y020659D02*
X011078Y020659D01*
X010980Y020561D02*
X008030Y020561D01*
X008129Y020659D02*
X010002Y020659D01*
X009821Y020758D02*
X008227Y020758D01*
X007931Y020462D02*
X010881Y020462D01*
X010782Y020364D02*
X007833Y020364D01*
X007734Y020265D02*
X010684Y020265D01*
X010585Y020167D02*
X007636Y020167D01*
X006402Y021743D02*
X005916Y021743D01*
X005817Y021842D02*
X006300Y021842D01*
X006191Y021940D02*
X005719Y021940D01*
X005620Y022039D02*
X006122Y022039D01*
X006081Y022138D02*
X005522Y022138D01*
X005423Y022236D02*
X006069Y022236D01*
X006069Y022335D02*
X005325Y022335D01*
X005226Y022433D02*
X006098Y022433D01*
X006139Y022532D02*
X005144Y022532D01*
X005154Y022630D02*
X006231Y022630D01*
X006398Y022729D02*
X005154Y022729D01*
X005154Y023616D02*
X006315Y023616D01*
X006197Y023714D02*
X005154Y023714D01*
X005129Y023813D02*
X006125Y023813D01*
X006084Y023911D02*
X005089Y023911D01*
X005004Y024010D02*
X006069Y024010D01*
X006069Y024108D02*
X004858Y024108D01*
X004460Y024108D02*
X001329Y024108D01*
X001329Y024207D02*
X006096Y024207D01*
X006137Y024306D02*
X001329Y024306D01*
X001329Y024404D02*
X006225Y024404D01*
X009677Y020955D02*
X009714Y020883D01*
X010497Y020758D02*
X011177Y020758D01*
X011275Y020856D02*
X010585Y020856D01*
X010641Y020955D02*
X010666Y021033D01*
X011433Y020364D02*
X013742Y020364D01*
X013644Y020265D02*
X011334Y020265D01*
X011236Y020167D02*
X013545Y020167D01*
X013447Y020068D02*
X011137Y020068D01*
X011039Y019970D02*
X013348Y019970D01*
X013250Y019871D02*
X010940Y019871D01*
X010842Y019773D02*
X013151Y019773D01*
X013053Y019674D02*
X010743Y019674D01*
X010645Y019575D02*
X012954Y019575D01*
X012856Y019477D02*
X010546Y019477D01*
X010447Y019378D02*
X012757Y019378D01*
X012659Y019280D02*
X010429Y019280D01*
X010429Y019181D02*
X012560Y019181D01*
X012461Y019083D02*
X011583Y019083D01*
X011746Y018984D02*
X012363Y018984D01*
X012264Y018886D02*
X011831Y018886D01*
X010736Y019083D02*
X010429Y019083D01*
X010429Y018984D02*
X010572Y018984D01*
X010487Y018886D02*
X010429Y018886D01*
X010429Y018787D02*
X010447Y018787D01*
X010429Y018689D02*
X010429Y018689D01*
X010429Y018590D02*
X010429Y018590D01*
X010762Y018097D02*
X010771Y018097D01*
X011531Y020462D02*
X013841Y020462D01*
X013940Y020561D02*
X011630Y020561D01*
X012911Y021842D02*
X013272Y021842D01*
X013212Y021940D02*
X013010Y021940D01*
X013108Y022039D02*
X013171Y022039D01*
X013640Y021054D02*
X013678Y021054D01*
X013678Y020955D02*
X013640Y020955D01*
X013640Y020856D02*
X013678Y020856D01*
X013678Y020758D02*
X013640Y020758D01*
X014980Y023911D02*
X022098Y023911D01*
X022493Y024095D02*
X022493Y024095D01*
X023908Y023911D02*
X024800Y023911D01*
X024866Y023813D02*
X024007Y023813D01*
X024105Y023714D02*
X024889Y023714D01*
X024743Y023616D02*
X024204Y023616D01*
X024302Y023517D02*
X024644Y023517D01*
X024597Y023419D02*
X024401Y023419D01*
X024499Y023320D02*
X024556Y023320D01*
X024539Y023222D02*
X024509Y023222D01*
X024509Y023123D02*
X024539Y023123D01*
X024542Y023024D02*
X024509Y023024D01*
X024509Y022926D02*
X024583Y022926D01*
X024624Y022827D02*
X024509Y022827D01*
X024509Y022729D02*
X024709Y022729D01*
X024807Y022630D02*
X024509Y022630D01*
X024509Y022532D02*
X024872Y022532D01*
X024790Y022433D02*
X024509Y022433D01*
X025777Y024207D02*
X026489Y024207D01*
X026829Y024207D02*
X027819Y024207D01*
X027721Y024108D02*
X027019Y024108D01*
X028022Y024306D02*
X025757Y024306D01*
X025716Y024404D02*
X031009Y024404D01*
X031009Y024306D02*
X029296Y024306D01*
X029499Y024207D02*
X031009Y024207D01*
X031009Y024108D02*
X029597Y024108D01*
X029678Y024010D02*
X031009Y024010D01*
X031009Y023911D02*
X029719Y023911D01*
X029760Y023813D02*
X031009Y023813D01*
X031009Y023714D02*
X029769Y023714D01*
X029769Y023616D02*
X031009Y023616D01*
X031009Y023517D02*
X029768Y023517D01*
X029727Y023419D02*
X031009Y023419D01*
X031009Y023320D02*
X029686Y023320D01*
X029652Y023222D02*
X031009Y023222D01*
X031009Y023123D02*
X029751Y023123D01*
X029849Y023024D02*
X031009Y023024D01*
X031009Y022926D02*
X029948Y022926D01*
X030047Y022827D02*
X031009Y022827D01*
X031009Y022729D02*
X030145Y022729D01*
X030244Y022630D02*
X031009Y022630D01*
X031009Y022532D02*
X030342Y022532D01*
X030441Y022433D02*
X031009Y022433D01*
X031009Y022335D02*
X030539Y022335D01*
X030584Y022236D02*
X031009Y022236D01*
X031009Y022138D02*
X030609Y022138D01*
X030609Y022039D02*
X031009Y022039D01*
X031009Y021940D02*
X030609Y021940D01*
X030609Y021842D02*
X031009Y021842D01*
X031009Y021743D02*
X030609Y021743D01*
X030609Y021645D02*
X031009Y021645D01*
X031009Y021546D02*
X030609Y021546D01*
X030609Y021448D02*
X031009Y021448D01*
X031009Y021349D02*
X030609Y021349D01*
X030609Y021251D02*
X031009Y021251D01*
X031009Y021152D02*
X030609Y021152D01*
X030576Y021054D02*
X031009Y021054D01*
X031009Y020955D02*
X030519Y020955D01*
X030420Y020856D02*
X031009Y020856D01*
X031009Y020758D02*
X030322Y020758D01*
X030223Y020659D02*
X031009Y020659D01*
X031009Y020561D02*
X030125Y020561D01*
X030026Y020462D02*
X031009Y020462D01*
X031009Y020364D02*
X029894Y020364D01*
X029252Y016324D02*
X031009Y016324D01*
X031009Y016225D02*
X029481Y016225D01*
X029579Y016126D02*
X031009Y016126D01*
X031009Y016028D02*
X029671Y016028D01*
X029711Y015929D02*
X031009Y015929D01*
X031009Y015831D02*
X029752Y015831D01*
X029769Y015732D02*
X031009Y015732D01*
X031009Y015634D02*
X029769Y015634D01*
X029769Y015535D02*
X031009Y015535D01*
X031009Y015437D02*
X029735Y015437D01*
X029694Y015338D02*
X031009Y015338D01*
X031009Y015240D02*
X029635Y015240D01*
X029537Y015141D02*
X031009Y015141D01*
X031009Y015042D02*
X029387Y015042D01*
X030196Y013761D02*
X031009Y013761D01*
X031009Y013663D02*
X030263Y013663D01*
X030279Y013564D02*
X031009Y013564D01*
X031009Y013466D02*
X030288Y013466D01*
X030387Y013367D02*
X031009Y013367D01*
X031009Y013269D02*
X030485Y013269D01*
X030584Y013170D02*
X031009Y013170D01*
X031009Y013072D02*
X030682Y013072D01*
X030781Y012973D02*
X031009Y012973D01*
X031009Y012874D02*
X030879Y012874D01*
X030960Y012776D02*
X031009Y012776D01*
X031000Y012677D02*
X031009Y012677D01*
X031009Y012579D02*
X031009Y012579D01*
X031009Y012480D02*
X031009Y012480D01*
X031009Y012382D02*
X031009Y012382D01*
X031009Y012283D02*
X031009Y012283D01*
X031009Y012185D02*
X031009Y012185D01*
X031009Y012086D02*
X031009Y012086D01*
X031009Y011988D02*
X031009Y011988D01*
X031009Y011889D02*
X031009Y011889D01*
X031009Y011791D02*
X031009Y011791D01*
X031009Y011692D02*
X031009Y011692D01*
X031009Y011593D02*
X031009Y011593D01*
X031009Y011495D02*
X031009Y011495D01*
X031009Y011396D02*
X031009Y011396D01*
X031009Y011298D02*
X031009Y011298D01*
X031009Y011199D02*
X031009Y011199D01*
X031009Y011101D02*
X031009Y011101D01*
X031009Y011002D02*
X031009Y011002D01*
X031009Y010904D02*
X031009Y010904D01*
X031009Y010805D02*
X031009Y010805D01*
X031009Y010707D02*
X031009Y010707D01*
X031009Y010665D02*
X031009Y010665D01*
X030189Y010707D02*
X030167Y010707D01*
X030189Y010805D02*
X030069Y010805D01*
X029970Y010904D02*
X030189Y010904D01*
X030189Y011002D02*
X029872Y011002D01*
X029773Y011101D02*
X030189Y011101D01*
X030189Y011199D02*
X029623Y011199D01*
X030010Y011692D02*
X030189Y011692D01*
X030189Y011791D02*
X030108Y011791D01*
X030154Y011889D02*
X030189Y011889D01*
X025677Y010312D02*
X025467Y010312D01*
X025489Y010214D02*
X025578Y010214D01*
X019667Y010608D02*
X018557Y010608D01*
X018459Y010509D02*
X019568Y010509D01*
X019470Y010411D02*
X018360Y010411D01*
X018261Y010312D02*
X019371Y010312D01*
X019273Y010214D02*
X018163Y010214D01*
X018064Y010115D02*
X019174Y010115D01*
X019075Y010017D02*
X017966Y010017D01*
X017867Y009918D02*
X018977Y009918D01*
X018878Y009820D02*
X017769Y009820D01*
X017670Y009721D02*
X018780Y009721D01*
X018681Y009623D02*
X017572Y009623D01*
X017473Y009524D02*
X018583Y009524D01*
X018484Y009425D02*
X017331Y009425D01*
X017247Y009327D02*
X018386Y009327D01*
X018287Y009228D02*
X017085Y009228D01*
X017125Y008865D02*
X017058Y008854D01*
X016994Y008834D01*
X016934Y008803D01*
X016879Y008763D01*
X016831Y008715D01*
X016791Y008660D01*
X016761Y008600D01*
X016740Y008536D01*
X016729Y008469D01*
X016729Y008185D01*
X017129Y008185D01*
X017129Y008865D01*
X017125Y008865D01*
X017129Y008834D02*
X017189Y008834D01*
X017189Y008736D02*
X017129Y008736D01*
X017129Y008637D02*
X017189Y008637D01*
X017189Y008539D02*
X017129Y008539D01*
X017129Y008440D02*
X017189Y008440D01*
X017189Y008341D02*
X017129Y008341D01*
X017129Y008243D02*
X017189Y008243D01*
X017189Y008144D02*
X017709Y008144D01*
X017709Y008046D02*
X017589Y008046D01*
X017589Y007947D02*
X017709Y007947D01*
X017709Y007849D02*
X017589Y007849D01*
X017571Y007750D02*
X017724Y007750D01*
X017764Y007652D02*
X017528Y007652D01*
X017445Y007553D02*
X017845Y007553D01*
X017709Y008243D02*
X017589Y008243D01*
X017589Y008341D02*
X017709Y008341D01*
X017709Y008440D02*
X017589Y008440D01*
X017578Y008539D02*
X017715Y008539D01*
X017756Y008637D02*
X017539Y008637D01*
X017467Y008736D02*
X017823Y008736D01*
X017947Y008834D02*
X017322Y008834D01*
X016996Y008834D02*
X015949Y008834D01*
X015949Y008736D02*
X016851Y008736D01*
X016779Y008637D02*
X015949Y008637D01*
X016001Y008539D02*
X016741Y008539D01*
X016729Y008440D02*
X016099Y008440D01*
X016198Y008341D02*
X016729Y008341D01*
X016729Y008243D02*
X016296Y008243D01*
X015942Y007947D02*
X015649Y007947D01*
X015649Y007849D02*
X016040Y007849D01*
X015843Y008046D02*
X015649Y008046D01*
X015649Y008144D02*
X015744Y008144D01*
X015649Y007553D02*
X015899Y007553D01*
X015790Y007455D02*
X015649Y007455D01*
X015649Y007356D02*
X015728Y007356D01*
X015694Y007258D02*
X015649Y007258D01*
X015649Y006469D02*
X015773Y006469D01*
X015713Y006371D02*
X015649Y006371D01*
X015649Y006272D02*
X015672Y006272D01*
X015664Y006174D02*
X015649Y006174D01*
X015649Y006075D02*
X015664Y006075D01*
X015649Y005976D02*
X015697Y005976D01*
X015684Y005878D02*
X015738Y005878D01*
X015689Y005779D02*
X015835Y005779D01*
X015687Y005681D02*
X016011Y005681D01*
X016307Y005681D02*
X016774Y005681D01*
X016733Y005582D02*
X015646Y005582D01*
X015584Y005484D02*
X016709Y005484D01*
X016709Y005385D02*
X015474Y005385D01*
X015004Y005385D02*
X014452Y005385D01*
X014505Y005287D02*
X016709Y005287D01*
X016709Y005188D02*
X014529Y005188D01*
X014529Y005090D02*
X016709Y005090D01*
X016709Y004991D02*
X014491Y004991D01*
X014420Y004892D02*
X016709Y004892D01*
X016709Y004794D02*
X014264Y004794D01*
X013725Y005188D02*
X013057Y005188D01*
X012959Y005090D02*
X013627Y005090D01*
X013528Y004991D02*
X012860Y004991D01*
X012762Y004892D02*
X013430Y004892D01*
X013331Y004794D02*
X012663Y004794D01*
X012565Y004695D02*
X013233Y004695D01*
X013134Y004597D02*
X012466Y004597D01*
X012210Y004991D02*
X011980Y004991D01*
X012079Y005090D02*
X012308Y005090D01*
X012407Y005188D02*
X012177Y005188D01*
X012276Y005287D02*
X012505Y005287D01*
X012604Y005385D02*
X012374Y005385D01*
X012473Y005484D02*
X012702Y005484D01*
X012801Y005582D02*
X012571Y005582D01*
X012670Y005681D02*
X012900Y005681D01*
X012922Y005779D02*
X012998Y005779D01*
X013046Y005878D02*
X013097Y005878D01*
X013128Y005976D02*
X013195Y005976D01*
X013169Y006075D02*
X013294Y006075D01*
X013199Y006174D02*
X013392Y006174D01*
X013491Y006272D02*
X013199Y006272D01*
X013196Y006371D02*
X013589Y006371D01*
X013688Y006469D02*
X013155Y006469D01*
X013110Y006568D02*
X013786Y006568D01*
X013885Y006666D02*
X013012Y006666D01*
X012840Y006765D02*
X013984Y006765D01*
X014082Y006863D02*
X011840Y006863D01*
X011821Y006910D02*
X011889Y006745D01*
X011889Y006566D01*
X011821Y006400D01*
X011694Y006274D01*
X011529Y006205D01*
X010790Y006205D01*
X010624Y006274D01*
X010498Y006400D01*
X010429Y006566D01*
X010429Y006745D01*
X010498Y006910D01*
X010624Y007037D01*
X010790Y007105D01*
X011529Y007105D01*
X011694Y007037D01*
X011821Y006910D01*
X011769Y006962D02*
X014181Y006962D01*
X014279Y007060D02*
X011636Y007060D01*
X011881Y006765D02*
X012479Y006765D01*
X012307Y006666D02*
X011889Y006666D01*
X011889Y006568D02*
X012208Y006568D01*
X012163Y006469D02*
X011849Y006469D01*
X011791Y006371D02*
X012122Y006371D01*
X012119Y006272D02*
X011690Y006272D01*
X011601Y006075D02*
X012149Y006075D01*
X012119Y006174D02*
X009726Y006174D01*
X009627Y006272D02*
X010628Y006272D01*
X010527Y006371D02*
X009529Y006371D01*
X009430Y006469D02*
X010469Y006469D01*
X010429Y006568D02*
X009332Y006568D01*
X009233Y006666D02*
X010429Y006666D01*
X010437Y006765D02*
X009135Y006765D01*
X009036Y006863D02*
X010478Y006863D01*
X010549Y006962D02*
X008769Y006962D01*
X008636Y007060D02*
X010682Y007060D01*
X010663Y007258D02*
X008655Y007258D01*
X008776Y007356D02*
X010542Y007356D01*
X010475Y007455D02*
X008843Y007455D01*
X008884Y007553D02*
X010434Y007553D01*
X010429Y007652D02*
X008889Y007652D01*
X008887Y007750D02*
X010431Y007750D01*
X010472Y007849D02*
X008846Y007849D01*
X008783Y007947D02*
X010535Y007947D01*
X010647Y008046D02*
X008672Y008046D01*
X008620Y008243D02*
X010698Y008243D01*
X010556Y008341D02*
X008762Y008341D01*
X008837Y008440D02*
X010481Y008440D01*
X010440Y008539D02*
X008878Y008539D01*
X008889Y008637D02*
X010429Y008637D01*
X010429Y008736D02*
X008889Y008736D01*
X008852Y008834D02*
X010466Y008834D01*
X010520Y008933D02*
X008798Y008933D01*
X008740Y009031D02*
X010619Y009031D01*
X010733Y009228D02*
X008938Y009228D01*
X009036Y009327D02*
X010571Y009327D01*
X010487Y009425D02*
X009135Y009425D01*
X009233Y009524D02*
X010446Y009524D01*
X010429Y009623D02*
X009332Y009623D01*
X009389Y009721D02*
X010429Y009721D01*
X010460Y009820D02*
X009389Y009820D01*
X009389Y009918D02*
X010506Y009918D01*
X010604Y010017D02*
X009389Y010017D01*
X009389Y010115D02*
X012294Y010115D01*
X012393Y010214D02*
X009389Y010214D01*
X009389Y010312D02*
X010619Y010312D01*
X010599Y010327D02*
X010654Y010287D01*
X010714Y010257D01*
X010778Y010236D01*
X010845Y010225D01*
X011129Y010225D01*
X011129Y010625D01*
X011189Y010625D01*
X011189Y010685D01*
X011129Y010685D01*
X011129Y010625D01*
X010449Y010625D01*
X010449Y010621D01*
X010460Y010554D01*
X010481Y010490D01*
X010511Y010430D01*
X010551Y010375D01*
X010599Y010327D01*
X010525Y010411D02*
X009389Y010411D01*
X009389Y010509D02*
X010474Y010509D01*
X010451Y010608D02*
X009389Y010608D01*
X009389Y010707D02*
X010452Y010707D01*
X010449Y010689D02*
X010449Y010685D01*
X011129Y010685D01*
X011129Y011085D01*
X010845Y011085D01*
X010778Y011074D01*
X010714Y011054D01*
X010654Y011023D01*
X010599Y010983D01*
X010551Y010935D01*
X010511Y010880D01*
X010481Y010820D01*
X010460Y010756D01*
X010449Y010689D01*
X010476Y010805D02*
X009389Y010805D01*
X009389Y010904D02*
X010528Y010904D01*
X010625Y011002D02*
X009389Y011002D01*
X009389Y011101D02*
X012449Y011101D01*
X012449Y011199D02*
X009389Y011199D01*
X009389Y011298D02*
X010639Y011298D01*
X010654Y011287D02*
X010714Y011257D01*
X010778Y011236D01*
X010845Y011225D01*
X011129Y011225D01*
X011129Y011625D01*
X011189Y011625D01*
X011189Y011685D01*
X011129Y011685D01*
X011129Y011625D01*
X010449Y011625D01*
X010449Y011621D01*
X010460Y011554D01*
X010481Y011490D01*
X010511Y011430D01*
X010551Y011375D01*
X010599Y011327D01*
X010654Y011287D01*
X010536Y011396D02*
X009389Y011396D01*
X009389Y011495D02*
X010479Y011495D01*
X010453Y011593D02*
X009389Y011593D01*
X009389Y011692D02*
X010450Y011692D01*
X010449Y011689D02*
X010449Y011685D01*
X011129Y011685D01*
X011129Y012085D01*
X010845Y012085D01*
X010778Y012074D01*
X010714Y012054D01*
X010654Y012023D01*
X010599Y011983D01*
X010551Y011935D01*
X010511Y011880D01*
X010481Y011820D01*
X010460Y011756D01*
X010449Y011689D01*
X010471Y011791D02*
X009389Y011791D01*
X009389Y011889D02*
X010518Y011889D01*
X010605Y011988D02*
X009389Y011988D01*
X009389Y012086D02*
X012449Y012086D01*
X012449Y012382D02*
X011802Y012382D01*
X011854Y012480D02*
X012449Y012480D01*
X012449Y012579D02*
X011889Y012579D01*
X011889Y012677D02*
X012449Y012677D01*
X012449Y012776D02*
X011876Y012776D01*
X011835Y012874D02*
X012449Y012874D01*
X012449Y012973D02*
X011757Y012973D01*
X011609Y013072D02*
X012450Y013072D01*
X012549Y013170D02*
X009389Y013170D01*
X008929Y013170D02*
X004509Y013170D01*
X004509Y013072D02*
X004930Y013072D01*
X004910Y013061D02*
X004850Y013017D01*
X004797Y012965D01*
X004753Y012904D01*
X004719Y012837D01*
X004696Y012766D01*
X004684Y012692D01*
X004684Y012674D01*
X005140Y012674D01*
X005140Y012636D01*
X005178Y012636D01*
X005178Y012180D01*
X005196Y012180D01*
X005270Y012192D01*
X005341Y012215D01*
X005408Y012249D01*
X005468Y012293D01*
X005521Y012346D01*
X005565Y012406D01*
X005599Y012473D01*
X005622Y012544D01*
X005634Y012618D01*
X005634Y012636D01*
X005178Y012636D01*
X005178Y012674D01*
X005634Y012674D01*
X005634Y012692D01*
X005622Y012766D01*
X005599Y012837D01*
X005565Y012904D01*
X005521Y012965D01*
X005468Y013017D01*
X005408Y013061D01*
X005341Y013095D01*
X005270Y013118D01*
X005196Y013130D01*
X005178Y013130D01*
X005178Y012674D01*
X005140Y012674D01*
X005140Y013130D01*
X005122Y013130D01*
X005048Y013118D01*
X004977Y013095D01*
X004910Y013061D01*
X004805Y012973D02*
X004509Y012973D01*
X004509Y012874D02*
X004738Y012874D01*
X004699Y012776D02*
X004509Y012776D01*
X004509Y012677D02*
X004684Y012677D01*
X004684Y012636D02*
X004684Y012618D01*
X004696Y012544D01*
X004719Y012473D01*
X004753Y012406D01*
X004797Y012346D01*
X004850Y012293D01*
X004910Y012249D01*
X004977Y012215D01*
X005048Y012192D01*
X005122Y012180D01*
X005140Y012180D01*
X005140Y012636D01*
X004684Y012636D01*
X004690Y012579D02*
X004509Y012579D01*
X004509Y012480D02*
X004716Y012480D01*
X004770Y012382D02*
X004491Y012382D01*
X004392Y012283D02*
X004863Y012283D01*
X004912Y012086D02*
X007744Y012086D01*
X007790Y012105D02*
X007624Y012037D01*
X007498Y011910D01*
X007429Y011745D01*
X007429Y011566D01*
X007498Y011400D01*
X007624Y011274D01*
X007790Y011205D01*
X008529Y011205D01*
X008694Y011274D01*
X008821Y011400D01*
X008889Y011566D01*
X008889Y011745D01*
X008821Y011910D01*
X008694Y012037D01*
X008529Y012105D01*
X007790Y012105D01*
X007778Y012236D02*
X007845Y012225D01*
X008129Y012225D01*
X008129Y012625D01*
X008189Y012625D01*
X008189Y012225D01*
X008473Y012225D01*
X008540Y012236D01*
X008604Y012257D01*
X008664Y012287D01*
X008719Y012327D01*
X008767Y012375D01*
X008807Y012430D01*
X008838Y012490D01*
X008858Y012554D01*
X008869Y012621D01*
X008869Y012625D01*
X008189Y012625D01*
X008189Y012685D01*
X008869Y012685D01*
X008869Y012689D01*
X008858Y012756D01*
X008838Y012820D01*
X008807Y012880D01*
X008767Y012935D01*
X008719Y012983D01*
X008664Y013023D01*
X008604Y013054D01*
X008540Y013074D01*
X008473Y013085D01*
X008189Y013085D01*
X008189Y012685D01*
X008129Y012685D01*
X008129Y012625D01*
X007449Y012625D01*
X007449Y012621D01*
X007460Y012554D01*
X007481Y012490D01*
X007511Y012430D01*
X007551Y012375D01*
X007599Y012327D01*
X007654Y012287D01*
X007714Y012257D01*
X007778Y012236D01*
X007662Y012283D02*
X006487Y012283D01*
X006439Y012235D02*
X006579Y012375D01*
X006654Y012557D01*
X006654Y012754D01*
X006579Y012935D01*
X006439Y013075D01*
X006258Y013150D01*
X006061Y013150D01*
X005879Y013075D01*
X005739Y012935D01*
X005664Y012754D01*
X005664Y012557D01*
X005739Y012375D01*
X005879Y012235D01*
X006061Y012160D01*
X006258Y012160D01*
X006439Y012235D01*
X006317Y012185D02*
X008929Y012185D01*
X008929Y012283D02*
X008656Y012283D01*
X008772Y012382D02*
X008929Y012382D01*
X008929Y012480D02*
X008833Y012480D01*
X008862Y012579D02*
X008929Y012579D01*
X008929Y012677D02*
X008189Y012677D01*
X008129Y012677D02*
X006654Y012677D01*
X006654Y012579D02*
X007456Y012579D01*
X007485Y012480D02*
X006622Y012480D01*
X006582Y012382D02*
X007546Y012382D01*
X007449Y012685D02*
X008129Y012685D01*
X008129Y013085D01*
X007845Y013085D01*
X007778Y013074D01*
X007714Y013054D01*
X007654Y013023D01*
X007599Y012983D01*
X007551Y012935D01*
X007511Y012880D01*
X007481Y012820D01*
X007460Y012756D01*
X007449Y012689D01*
X007449Y012685D01*
X007466Y012776D02*
X006645Y012776D01*
X006604Y012874D02*
X007508Y012874D01*
X007589Y012973D02*
X006541Y012973D01*
X006443Y013072D02*
X007769Y013072D01*
X007636Y013269D02*
X004509Y013269D01*
X004509Y013367D02*
X007531Y013367D01*
X007470Y013466D02*
X004509Y013466D01*
X004509Y013564D02*
X007430Y013564D01*
X007429Y013663D02*
X004509Y013663D01*
X004509Y013761D02*
X007436Y013761D01*
X007477Y013860D02*
X004509Y013860D01*
X004509Y013958D02*
X007546Y013958D01*
X008129Y013072D02*
X008189Y013072D01*
X008189Y012973D02*
X008129Y012973D01*
X008129Y012874D02*
X008189Y012874D01*
X008189Y012776D02*
X008129Y012776D01*
X008129Y012579D02*
X008189Y012579D01*
X008189Y012480D02*
X008129Y012480D01*
X008129Y012382D02*
X008189Y012382D01*
X008189Y012283D02*
X008129Y012283D01*
X008574Y012086D02*
X008929Y012086D01*
X008929Y011988D02*
X008743Y011988D01*
X008829Y011889D02*
X008929Y011889D01*
X008929Y011791D02*
X008870Y011791D01*
X008889Y011692D02*
X008929Y011692D01*
X008929Y011593D02*
X008889Y011593D01*
X008860Y011495D02*
X008929Y011495D01*
X008929Y011396D02*
X008817Y011396D01*
X008718Y011298D02*
X008929Y011298D01*
X008929Y011199D02*
X004852Y011199D01*
X004877Y011101D02*
X005941Y011101D01*
X005879Y011075D02*
X005739Y010935D01*
X005719Y010885D01*
X005100Y010885D01*
X005079Y010935D01*
X004939Y011075D01*
X004758Y011150D01*
X004561Y011150D01*
X004379Y011075D01*
X004239Y010935D01*
X004164Y010754D01*
X004164Y010557D01*
X004239Y010375D01*
X004379Y010235D01*
X004561Y010160D01*
X004758Y010160D01*
X004939Y010235D01*
X005079Y010375D01*
X005100Y010425D01*
X005719Y010425D01*
X005739Y010375D01*
X005879Y010235D01*
X006061Y010160D01*
X006258Y010160D01*
X006439Y010235D01*
X006579Y010375D01*
X006600Y010425D01*
X007487Y010425D01*
X007498Y010400D01*
X007624Y010274D01*
X007790Y010205D01*
X008529Y010205D01*
X008694Y010274D01*
X008821Y010400D01*
X008889Y010566D01*
X008889Y010745D01*
X008821Y010910D01*
X008694Y011037D01*
X008529Y011105D01*
X007790Y011105D01*
X007624Y011037D01*
X007498Y010910D01*
X007487Y010885D01*
X006600Y010885D01*
X006579Y010935D01*
X006439Y011075D01*
X006258Y011150D01*
X006061Y011150D01*
X005879Y011075D01*
X005806Y011002D02*
X005012Y011002D01*
X005092Y010904D02*
X005726Y010904D01*
X005724Y010411D02*
X005094Y010411D01*
X005016Y010312D02*
X005802Y010312D01*
X005931Y010214D02*
X004887Y010214D01*
X004842Y010115D02*
X008929Y010115D01*
X008929Y010017D02*
X008714Y010017D01*
X008812Y009918D02*
X008929Y009918D01*
X008878Y009820D02*
X008858Y009820D01*
X008929Y010214D02*
X008550Y010214D01*
X008733Y010312D02*
X008929Y010312D01*
X008929Y010411D02*
X008825Y010411D01*
X008866Y010509D02*
X008929Y010509D01*
X008929Y010608D02*
X008889Y010608D01*
X008889Y010707D02*
X008929Y010707D01*
X008929Y010805D02*
X008864Y010805D01*
X008823Y010904D02*
X008929Y010904D01*
X008929Y011002D02*
X008728Y011002D01*
X008539Y011101D02*
X008929Y011101D01*
X007779Y011101D02*
X006377Y011101D01*
X006512Y011002D02*
X007590Y011002D01*
X007495Y010904D02*
X006592Y010904D01*
X006594Y010411D02*
X007493Y010411D01*
X007585Y010312D02*
X006516Y010312D01*
X006387Y010214D02*
X007769Y010214D01*
X007604Y010017D02*
X004997Y010017D01*
X005086Y009918D02*
X007506Y009918D01*
X007038Y009820D02*
X005280Y009820D01*
X005378Y009721D02*
X006940Y009721D01*
X006841Y009623D02*
X005477Y009623D01*
X005575Y009524D02*
X006743Y009524D01*
X006644Y009425D02*
X005674Y009425D01*
X005772Y009327D02*
X006546Y009327D01*
X006447Y009228D02*
X005871Y009228D01*
X005970Y009130D02*
X006012Y009130D01*
X006306Y009130D02*
X006349Y009130D01*
X005664Y008736D02*
X005154Y008736D01*
X005154Y008754D02*
X005079Y008935D01*
X004939Y009075D01*
X004758Y009150D01*
X004561Y009150D01*
X004379Y009075D01*
X004239Y008935D01*
X004164Y008754D01*
X004164Y008557D01*
X004239Y008375D01*
X004379Y008235D01*
X004561Y008160D01*
X004758Y008160D01*
X004939Y008235D01*
X005079Y008375D01*
X005154Y008557D01*
X005154Y008754D01*
X005121Y008834D02*
X005615Y008834D01*
X005516Y008933D02*
X005080Y008933D01*
X004983Y009031D02*
X005418Y009031D01*
X005319Y009130D02*
X004806Y009130D01*
X004922Y009228D02*
X005221Y009228D01*
X005122Y009327D02*
X005031Y009327D01*
X004512Y009130D02*
X003229Y009130D01*
X003229Y009228D02*
X004396Y009228D01*
X004287Y009327D02*
X003229Y009327D01*
X003229Y009425D02*
X004218Y009425D01*
X004178Y009524D02*
X003229Y009524D01*
X003229Y009623D02*
X004164Y009623D01*
X004164Y009721D02*
X003229Y009721D01*
X003229Y009820D02*
X004191Y009820D01*
X004232Y009918D02*
X003229Y009918D01*
X003229Y010017D02*
X004321Y010017D01*
X004477Y010115D02*
X003229Y010115D01*
X003229Y010214D02*
X004431Y010214D01*
X004302Y010312D02*
X003229Y010312D01*
X003229Y010411D02*
X004224Y010411D01*
X004184Y010509D02*
X003229Y010509D01*
X003229Y010608D02*
X004164Y010608D01*
X004164Y010707D02*
X003229Y010707D01*
X003229Y010805D02*
X004185Y010805D01*
X004226Y010904D02*
X003229Y010904D01*
X003229Y011002D02*
X004306Y011002D01*
X004441Y011101D02*
X003229Y011101D01*
X003229Y011199D02*
X003351Y011199D01*
X003253Y011298D02*
X003229Y011298D01*
X002769Y011298D02*
X002565Y011298D01*
X002636Y011396D02*
X002769Y011396D01*
X002769Y011495D02*
X002677Y011495D01*
X002699Y011593D02*
X002769Y011593D01*
X002769Y011692D02*
X002699Y011692D01*
X002687Y011791D02*
X002769Y011791D01*
X002769Y011889D02*
X002647Y011889D01*
X002590Y011988D02*
X002769Y011988D01*
X002769Y012086D02*
X002492Y012086D01*
X002459Y012973D02*
X002359Y012973D01*
X002359Y013072D02*
X002459Y013072D01*
X002459Y013170D02*
X002359Y013170D01*
X002359Y013269D02*
X002459Y013269D01*
X002029Y013466D02*
X001329Y013466D01*
X001329Y013564D02*
X002029Y013564D01*
X002029Y013663D02*
X001329Y013663D01*
X001329Y013761D02*
X002059Y013761D01*
X002053Y013958D02*
X001329Y013958D01*
X001329Y013860D02*
X003409Y013860D01*
X002459Y014451D02*
X002359Y014451D01*
X002359Y014550D02*
X002459Y014550D01*
X002459Y014648D02*
X002359Y014648D01*
X002359Y014747D02*
X002459Y014747D01*
X002029Y014254D02*
X001329Y014254D01*
X001329Y014156D02*
X002029Y014156D01*
X002029Y014057D02*
X001329Y014057D01*
X001329Y015141D02*
X010040Y015141D01*
X010394Y014845D02*
X010471Y014845D01*
X010493Y014944D02*
X010531Y014944D01*
X010592Y015042D02*
X010638Y015042D01*
X010690Y015141D02*
X012449Y015141D01*
X012166Y014057D02*
X013174Y014057D01*
X013046Y013958D02*
X012068Y013958D01*
X011969Y013860D02*
X012977Y013860D01*
X012936Y013761D02*
X011882Y013761D01*
X011889Y013663D02*
X012929Y013663D01*
X012930Y013564D02*
X011888Y013564D01*
X011848Y013466D02*
X012844Y013466D01*
X012746Y013367D02*
X011788Y013367D01*
X011682Y013269D02*
X012647Y013269D01*
X014182Y013269D02*
X014829Y013269D01*
X014829Y013367D02*
X014288Y013367D01*
X014348Y013466D02*
X014829Y013466D01*
X014829Y013564D02*
X014388Y013564D01*
X014389Y013663D02*
X014829Y013663D01*
X014829Y013761D02*
X014382Y013761D01*
X014341Y013860D02*
X014829Y013860D01*
X014829Y013958D02*
X014272Y013958D01*
X015949Y012973D02*
X016061Y012973D01*
X015983Y012874D02*
X015949Y012874D01*
X013279Y011101D02*
X012909Y011101D01*
X012909Y011002D02*
X013090Y011002D01*
X012995Y010904D02*
X012909Y010904D01*
X012909Y010805D02*
X012954Y010805D01*
X012929Y010707D02*
X012909Y010707D01*
X012909Y010608D02*
X012929Y010608D01*
X012909Y010509D02*
X012952Y010509D01*
X012993Y010411D02*
X012909Y010411D01*
X012909Y010312D02*
X013085Y010312D01*
X013629Y010017D02*
X013689Y010017D01*
X015949Y009918D02*
X016006Y009918D01*
X015960Y009820D02*
X015949Y009820D01*
X015949Y009425D02*
X015987Y009425D01*
X015949Y009327D02*
X016071Y009327D01*
X015949Y009228D02*
X016233Y009228D01*
X015949Y009130D02*
X018189Y009130D01*
X018090Y009031D02*
X015949Y009031D01*
X015949Y008933D02*
X017991Y008933D01*
X016631Y007258D02*
X016624Y007258D01*
X016580Y005878D02*
X017052Y005878D01*
X016867Y005779D02*
X016483Y005779D01*
X017266Y005878D02*
X018052Y005878D01*
X018070Y005885D02*
X017904Y005817D01*
X017778Y005690D01*
X017709Y005525D01*
X017709Y004786D01*
X017778Y004620D01*
X017904Y004494D01*
X018070Y004425D01*
X018249Y004425D01*
X018414Y004494D01*
X018541Y004620D01*
X018609Y004786D01*
X018609Y005525D01*
X018541Y005690D01*
X018414Y005817D01*
X018249Y005885D01*
X018070Y005885D01*
X018266Y005878D02*
X018852Y005878D01*
X018754Y005779D02*
X018451Y005779D01*
X018544Y005681D02*
X018687Y005681D01*
X018646Y005582D02*
X018585Y005582D01*
X018609Y005484D02*
X018629Y005484D01*
X018629Y005385D02*
X018609Y005385D01*
X018609Y005287D02*
X018629Y005287D01*
X018629Y005188D02*
X018609Y005188D01*
X018609Y005090D02*
X018629Y005090D01*
X018629Y004991D02*
X018609Y004991D01*
X018609Y004892D02*
X018629Y004892D01*
X018629Y004794D02*
X018609Y004794D01*
X018572Y004695D02*
X018660Y004695D01*
X018701Y004597D02*
X018517Y004597D01*
X018419Y004498D02*
X018786Y004498D01*
X018922Y004400D02*
X017389Y004400D01*
X017389Y004301D02*
X023265Y004301D01*
X023167Y004203D02*
X017389Y004203D01*
X017389Y004104D02*
X023068Y004104D01*
X022970Y004006D02*
X017389Y004006D01*
X016929Y003710D02*
X015864Y002645D01*
X015414Y002645D01*
X014774Y003285D01*
X014584Y003285D01*
X009574Y003285D01*
X009445Y003414D02*
X012377Y003414D01*
X012317Y003513D02*
X009346Y003513D01*
X009248Y003611D02*
X012289Y003611D01*
X012289Y003710D02*
X009149Y003710D01*
X009051Y003809D02*
X012322Y003809D01*
X012388Y003907D02*
X008952Y003907D01*
X008854Y004006D02*
X012538Y004006D01*
X012641Y004104D02*
X008755Y004104D01*
X008657Y004203D02*
X012740Y004203D01*
X012839Y004301D02*
X008558Y004301D01*
X008460Y004400D02*
X012937Y004400D01*
X013036Y004498D02*
X008361Y004498D01*
X008263Y004597D02*
X010332Y004597D01*
X010234Y004695D02*
X008164Y004695D01*
X008065Y004794D02*
X010135Y004794D01*
X010036Y004892D02*
X007967Y004892D01*
X007868Y004991D02*
X009938Y004991D01*
X009839Y005090D02*
X007770Y005090D01*
X007671Y005188D02*
X009741Y005188D01*
X009642Y005287D02*
X008707Y005287D01*
X008834Y005878D02*
X009371Y005878D01*
X009272Y005976D02*
X008754Y005976D01*
X008601Y006075D02*
X009174Y006075D01*
X009075Y006174D02*
X007389Y006174D01*
X007389Y006272D02*
X007628Y006272D01*
X007527Y006371D02*
X007389Y006371D01*
X007389Y006469D02*
X007469Y006469D01*
X007429Y006568D02*
X007389Y006568D01*
X007389Y006666D02*
X007429Y006666D01*
X007437Y006765D02*
X007389Y006765D01*
X007389Y006863D02*
X007478Y006863D01*
X007549Y006962D02*
X007389Y006962D01*
X007389Y007060D02*
X007682Y007060D01*
X006929Y007060D02*
X001329Y007060D01*
X001329Y006962D02*
X006929Y006962D01*
X006929Y006863D02*
X001329Y006863D01*
X001329Y006765D02*
X006929Y006765D01*
X006929Y006666D02*
X001329Y006666D01*
X001924Y005878D02*
X002061Y005740D01*
X002242Y005665D01*
X003076Y005665D01*
X003257Y005740D01*
X003394Y005878D01*
X003395Y005878D02*
X003423Y005878D01*
X003424Y005878D02*
X003561Y005740D01*
X003742Y005665D01*
X003522Y005779D02*
X003296Y005779D01*
X003394Y005878D02*
X003409Y005913D01*
X003424Y005878D01*
X003460Y006469D02*
X003358Y006469D01*
X003259Y006568D02*
X003559Y006568D01*
X003446Y007159D02*
X002372Y007159D01*
X002525Y007258D02*
X003293Y007258D01*
X003198Y007356D02*
X002620Y007356D01*
X002660Y007455D02*
X003158Y007455D01*
X003119Y007553D02*
X002699Y007553D01*
X002699Y007652D02*
X003119Y007652D01*
X003119Y007750D02*
X002699Y007750D01*
X002663Y007849D02*
X003155Y007849D01*
X003196Y007947D02*
X002696Y007947D01*
X002795Y008046D02*
X003286Y008046D01*
X003429Y008144D02*
X002894Y008144D01*
X002992Y008243D02*
X004371Y008243D01*
X004273Y008341D02*
X003091Y008341D01*
X003189Y008440D02*
X004212Y008440D01*
X004171Y008539D02*
X003229Y008539D01*
X003229Y008637D02*
X004164Y008637D01*
X004164Y008736D02*
X003229Y008736D01*
X003229Y008834D02*
X004197Y008834D01*
X004238Y008933D02*
X003229Y008933D01*
X003229Y009031D02*
X004335Y009031D01*
X005154Y008637D02*
X005664Y008637D01*
X005671Y008539D02*
X005147Y008539D01*
X005106Y008440D02*
X005712Y008440D01*
X005773Y008341D02*
X005045Y008341D01*
X004947Y008243D02*
X005871Y008243D01*
X006225Y008046D02*
X004032Y008046D01*
X003889Y008144D02*
X006323Y008144D01*
X006678Y007849D02*
X006929Y007849D01*
X006929Y007947D02*
X006776Y007947D01*
X006875Y008046D02*
X006945Y008046D01*
X006974Y008144D02*
X007043Y008144D01*
X007072Y008243D02*
X007142Y008243D01*
X007171Y008341D02*
X007240Y008341D01*
X007269Y008440D02*
X007339Y008440D01*
X007368Y008539D02*
X007437Y008539D01*
X006929Y007750D02*
X006579Y007750D01*
X006481Y007652D02*
X006929Y007652D01*
X006929Y007553D02*
X006382Y007553D01*
X006929Y007455D02*
X004160Y007455D01*
X004120Y007356D02*
X006929Y007356D01*
X006929Y007258D02*
X004025Y007258D01*
X003872Y007159D02*
X006929Y007159D01*
X006929Y006568D02*
X004759Y006568D01*
X004858Y006469D02*
X006929Y006469D01*
X006929Y006371D02*
X004920Y006371D01*
X004961Y006272D02*
X006929Y006272D01*
X006929Y006174D02*
X004969Y006174D01*
X004969Y006075D02*
X006929Y006075D01*
X006929Y005779D02*
X004796Y005779D01*
X004894Y005878D02*
X004969Y006058D01*
X004614Y005681D02*
X006929Y005681D01*
X006929Y005582D02*
X004676Y005582D01*
X004815Y005484D02*
X006929Y005484D01*
X006929Y005385D02*
X004889Y005385D01*
X004930Y005287D02*
X006929Y005287D01*
X007021Y005188D02*
X004209Y005188D01*
X004209Y005090D02*
X004109Y005090D01*
X004109Y005188D02*
X002709Y005188D01*
X002709Y005205D02*
X002709Y005105D01*
X002609Y005105D01*
X002609Y004685D01*
X002302Y004685D01*
X002229Y004697D01*
X002159Y004720D01*
X002093Y004753D01*
X002033Y004797D01*
X001981Y004849D01*
X001937Y004909D01*
X001904Y004975D01*
X001881Y005045D01*
X001871Y005105D01*
X002609Y005105D01*
X002609Y005205D01*
X001871Y005205D01*
X001881Y005265D01*
X001904Y005336D01*
X001937Y005401D01*
X001981Y005461D01*
X002033Y005514D01*
X002093Y005557D01*
X002159Y005591D01*
X002229Y005614D01*
X002302Y005625D01*
X002609Y005625D01*
X002609Y005205D01*
X002709Y005205D01*
X002709Y005287D02*
X002609Y005287D01*
X002609Y005385D02*
X002709Y005385D01*
X002709Y005484D02*
X002609Y005484D01*
X002609Y005582D02*
X002709Y005582D01*
X002609Y005188D02*
X001329Y005188D01*
X001329Y005090D02*
X001874Y005090D01*
X001898Y004991D02*
X001329Y004991D01*
X001329Y004892D02*
X001949Y004892D01*
X002037Y004794D02*
X001329Y004794D01*
X001329Y004695D02*
X002237Y004695D01*
X002125Y004597D02*
X001329Y004597D01*
X001329Y004498D02*
X001989Y004498D01*
X001910Y004400D02*
X001329Y004400D01*
X001329Y004301D02*
X001869Y004301D01*
X001849Y004203D02*
X001329Y004203D01*
X001329Y004104D02*
X001849Y004104D01*
X001871Y004006D02*
X001329Y004006D01*
X001329Y003907D02*
X001911Y003907D01*
X001993Y003809D02*
X001329Y003809D01*
X001329Y003710D02*
X002133Y003710D01*
X001329Y003611D02*
X008597Y003611D01*
X008499Y003710D02*
X004685Y003710D01*
X004825Y003809D02*
X008400Y003809D01*
X008302Y003907D02*
X004907Y003907D01*
X004947Y004006D02*
X008203Y004006D01*
X008105Y004104D02*
X004969Y004104D01*
X004969Y004203D02*
X008006Y004203D01*
X007908Y004301D02*
X004949Y004301D01*
X004908Y004400D02*
X007809Y004400D01*
X007711Y004498D02*
X004829Y004498D01*
X004693Y004597D02*
X007612Y004597D01*
X007514Y004695D02*
X004581Y004695D01*
X004781Y004794D02*
X007415Y004794D01*
X007316Y004892D02*
X004869Y004892D01*
X004920Y004991D02*
X007218Y004991D01*
X007119Y005090D02*
X004944Y005090D01*
X004209Y004991D02*
X004109Y004991D01*
X004109Y004892D02*
X004209Y004892D01*
X004209Y004794D02*
X004109Y004794D01*
X004109Y004695D02*
X004209Y004695D01*
X004209Y005287D02*
X004109Y005287D01*
X004109Y005385D02*
X004209Y005385D01*
X004209Y005484D02*
X004109Y005484D01*
X004109Y005582D02*
X004209Y005582D01*
X002709Y005090D02*
X002609Y005090D01*
X002609Y004991D02*
X002709Y004991D01*
X002709Y004892D02*
X002609Y004892D01*
X002609Y004794D02*
X002709Y004794D01*
X002709Y004695D02*
X002609Y004695D01*
X001888Y005287D02*
X001329Y005287D01*
X001329Y005385D02*
X001929Y005385D01*
X002003Y005484D02*
X001329Y005484D01*
X001329Y005582D02*
X002142Y005582D01*
X002204Y005681D02*
X001329Y005681D01*
X001329Y005779D02*
X002022Y005779D01*
X001329Y003513D02*
X008696Y003513D01*
X008795Y003414D02*
X001329Y003414D01*
X001329Y003316D02*
X008893Y003316D01*
X007985Y003119D02*
X007544Y003119D01*
X007629Y003020D02*
X007824Y003020D01*
X007734Y002922D02*
X007634Y002922D01*
X007634Y002823D02*
X007693Y002823D01*
X007664Y002725D02*
X007634Y002725D01*
X007634Y002626D02*
X007664Y002626D01*
X007676Y002527D02*
X007634Y002527D01*
X007634Y002429D02*
X007717Y002429D01*
X007784Y002330D02*
X007634Y002330D01*
X007598Y002232D02*
X007887Y002232D01*
X007178Y002232D02*
X007140Y002232D01*
X007140Y002330D02*
X007178Y002330D01*
X007178Y002429D02*
X007140Y002429D01*
X007140Y002527D02*
X007178Y002527D01*
X007178Y002626D02*
X007140Y002626D01*
X007140Y002725D02*
X007178Y002725D01*
X007178Y002823D02*
X007140Y002823D01*
X007140Y002922D02*
X007178Y002922D01*
X007178Y003020D02*
X007140Y003020D01*
X007140Y003119D02*
X007178Y003119D01*
X007573Y005287D02*
X007611Y005287D01*
X007513Y005385D02*
X007474Y005385D01*
X007463Y005484D02*
X007389Y005484D01*
X007389Y005582D02*
X007429Y005582D01*
X007429Y005681D02*
X007389Y005681D01*
X007389Y005779D02*
X007443Y005779D01*
X007484Y005878D02*
X007389Y005878D01*
X007389Y005976D02*
X007564Y005976D01*
X007717Y006075D02*
X007389Y006075D01*
X008690Y006272D02*
X008977Y006272D01*
X008878Y006371D02*
X008791Y006371D01*
X009824Y006075D02*
X010717Y006075D01*
X010564Y005976D02*
X009923Y005976D01*
X010021Y005878D02*
X010484Y005878D01*
X010443Y005779D02*
X010120Y005779D01*
X010219Y005681D02*
X010429Y005681D01*
X010429Y005582D02*
X010317Y005582D01*
X010416Y005484D02*
X010463Y005484D01*
X011754Y005976D02*
X012190Y005976D01*
X012217Y005878D02*
X011834Y005878D01*
X011875Y005779D02*
X012118Y005779D01*
X012020Y005681D02*
X011889Y005681D01*
X011889Y005582D02*
X011921Y005582D01*
X013156Y005287D02*
X013813Y005287D01*
X013866Y005385D02*
X013254Y005385D01*
X013353Y005484D02*
X013986Y005484D01*
X013649Y005779D02*
X014789Y005779D01*
X014791Y005681D02*
X013550Y005681D01*
X013451Y005582D02*
X014832Y005582D01*
X014894Y005484D02*
X014332Y005484D01*
X014795Y005878D02*
X013747Y005878D01*
X013846Y005976D02*
X014829Y005976D01*
X014829Y006075D02*
X013944Y006075D01*
X014043Y006174D02*
X014829Y006174D01*
X014829Y006272D02*
X014141Y006272D01*
X014240Y006371D02*
X014829Y006371D01*
X014829Y006469D02*
X014338Y006469D01*
X014437Y006568D02*
X014829Y006568D01*
X014829Y006666D02*
X014535Y006666D01*
X014634Y006765D02*
X014829Y006765D01*
X014829Y006863D02*
X014732Y006863D01*
X015640Y004597D02*
X015678Y004597D01*
X015678Y004498D02*
X015640Y004498D01*
X015640Y004400D02*
X015678Y004400D01*
X015678Y004301D02*
X015640Y004301D01*
X015640Y004203D02*
X015678Y004203D01*
X015678Y004104D02*
X015640Y004104D01*
X015640Y004006D02*
X015678Y004006D01*
X015678Y003907D02*
X015640Y003907D01*
X015640Y003809D02*
X015678Y003809D01*
X015678Y003710D02*
X015640Y003710D01*
X015851Y003611D02*
X016830Y003611D01*
X016732Y003513D02*
X016001Y003513D01*
X016087Y003414D02*
X016633Y003414D01*
X016534Y003316D02*
X016128Y003316D01*
X016154Y003217D02*
X016436Y003217D01*
X016337Y003119D02*
X016154Y003119D01*
X016139Y003020D02*
X016239Y003020D01*
X016140Y002922D02*
X016098Y002922D01*
X016042Y002823D02*
X016027Y002823D01*
X015943Y002725D02*
X015913Y002725D01*
X015405Y002725D02*
X015335Y002725D01*
X015291Y002823D02*
X015236Y002823D01*
X015220Y002922D02*
X015138Y002922D01*
X015179Y003020D02*
X015039Y003020D01*
X014941Y003119D02*
X015164Y003119D01*
X015164Y003217D02*
X014842Y003217D01*
X015177Y002232D02*
X012698Y002232D01*
X012620Y002216D02*
X012620Y001735D01*
X012618Y001735D01*
X012620Y001739D02*
X012698Y001739D01*
X012698Y001838D02*
X012620Y001838D01*
X012620Y001936D02*
X012698Y001936D01*
X012698Y002035D02*
X012620Y002035D01*
X012620Y002133D02*
X012698Y002133D01*
X012620Y002216D02*
X012139Y002216D01*
X012139Y002214D01*
X012152Y002133D01*
X012188Y002035D02*
X003592Y002035D01*
X003575Y001936D02*
X012248Y001936D01*
X012349Y001838D02*
X003558Y001838D01*
X003556Y001829D02*
X003556Y001829D01*
X003390Y001542D02*
X003390Y001542D01*
X003390Y001542D01*
X003136Y001329D01*
X003136Y001329D01*
X002825Y001215D01*
X002825Y001215D01*
X002659Y001215D01*
X002572Y001215D01*
X002493Y001215D01*
X002493Y001215D01*
X002182Y001329D01*
X002182Y001329D01*
X001928Y001542D01*
X001928Y001542D01*
X002045Y001443D02*
X001329Y001443D01*
X001329Y001345D02*
X002162Y001345D01*
X002407Y001246D02*
X001329Y001246D01*
X001329Y001148D02*
X026381Y001148D01*
X026255Y001246D02*
X022911Y001246D01*
X022825Y001215D02*
X023136Y001329D01*
X023136Y001329D01*
X023390Y001542D01*
X026084Y001542D01*
X026084Y001641D02*
X023447Y001641D01*
X023504Y001739D02*
X026084Y001739D01*
X026112Y001838D02*
X023558Y001838D01*
X023556Y001829D02*
X023614Y002155D01*
X023556Y002482D01*
X023390Y002769D01*
X023136Y002982D01*
X022825Y003095D01*
X022825Y003095D01*
X022746Y003095D01*
X022659Y003095D01*
X022659Y003095D01*
X022572Y003095D01*
X022493Y003095D01*
X022182Y002982D01*
X021928Y002769D01*
X021762Y002482D01*
X021762Y002482D01*
X021705Y002155D01*
X021735Y002330D02*
X020734Y002330D01*
X020793Y002429D02*
X021753Y002429D01*
X021789Y002527D02*
X020891Y002527D01*
X020990Y002626D02*
X021846Y002626D01*
X021902Y002725D02*
X021088Y002725D01*
X021187Y002823D02*
X021993Y002823D01*
X021928Y002769D02*
X021928Y002769D01*
X022110Y002922D02*
X021285Y002922D01*
X021384Y003020D02*
X022288Y003020D01*
X022493Y003095D02*
X022493Y003095D01*
X023031Y003020D02*
X026324Y003020D01*
X026234Y002922D02*
X023208Y002922D01*
X023136Y002982D02*
X023136Y002982D01*
X023325Y002823D02*
X026193Y002823D01*
X026164Y002725D02*
X023416Y002725D01*
X023390Y002769D02*
X023390Y002769D01*
X023473Y002626D02*
X026164Y002626D01*
X026176Y002527D02*
X023529Y002527D01*
X023556Y002482D02*
X023556Y002482D01*
X023565Y002429D02*
X026217Y002429D01*
X026284Y002330D02*
X023583Y002330D01*
X023600Y002232D02*
X026387Y002232D01*
X026324Y002133D02*
X023610Y002133D01*
X023614Y002155D02*
X023614Y002155D01*
X023592Y002035D02*
X026225Y002035D01*
X026153Y001936D02*
X023575Y001936D01*
X023556Y001829D02*
X023556Y001829D01*
X023390Y001542D01*
X023390Y001542D01*
X023390Y001542D01*
X023273Y001443D02*
X026124Y001443D01*
X026165Y001345D02*
X023156Y001345D01*
X022825Y001215D02*
X022825Y001215D01*
X022659Y001215D01*
X022572Y001215D01*
X022493Y001215D01*
X022493Y001215D01*
X022182Y001329D01*
X022182Y001329D01*
X021928Y001542D01*
X021928Y001542D01*
X022045Y001443D02*
X003273Y001443D01*
X003156Y001345D02*
X022162Y001345D01*
X022407Y001246D02*
X002911Y001246D01*
X001329Y001049D02*
X027915Y001049D01*
X027775Y001148D02*
X026937Y001148D01*
X027064Y001246D02*
X027676Y001246D01*
X027746Y002133D02*
X026994Y002133D01*
X026931Y002232D02*
X027844Y002232D01*
X027740Y002429D02*
X027101Y002429D01*
X027142Y002527D02*
X027587Y002527D01*
X027488Y002626D02*
X027154Y002626D01*
X027154Y002725D02*
X027390Y002725D01*
X027291Y002823D02*
X027125Y002823D01*
X027084Y002922D02*
X027193Y002922D01*
X027094Y003020D02*
X026994Y003020D01*
X027028Y003119D02*
X026866Y003119D01*
X026452Y003119D02*
X021482Y003119D01*
X023341Y003217D02*
X026284Y003217D01*
X026185Y003316D02*
X023440Y003316D01*
X023538Y003414D02*
X026136Y003414D01*
X026096Y003513D02*
X023637Y003513D01*
X023735Y003611D02*
X026084Y003611D01*
X026084Y003710D02*
X023834Y003710D01*
X023932Y003809D02*
X026100Y003809D01*
X026141Y003907D02*
X024031Y003907D01*
X024129Y004006D02*
X026196Y004006D01*
X026295Y004104D02*
X024228Y004104D01*
X024326Y004203D02*
X026458Y004203D01*
X026313Y004301D02*
X024425Y004301D01*
X024490Y004400D02*
X026229Y004400D01*
X026188Y004498D02*
X024532Y004498D01*
X024617Y004597D02*
X026164Y004597D01*
X026164Y004695D02*
X024658Y004695D01*
X024689Y004794D02*
X026181Y004794D01*
X026222Y004892D02*
X024696Y004892D01*
X024795Y004991D02*
X026295Y004991D01*
X026414Y005090D02*
X024893Y005090D01*
X024992Y005188D02*
X026526Y005188D01*
X029790Y002626D02*
X031009Y002626D01*
X031009Y002725D02*
X029888Y002725D01*
X029987Y002823D02*
X031009Y002823D01*
X031009Y002922D02*
X030085Y002922D01*
X030184Y003020D02*
X031009Y003020D01*
X031009Y003119D02*
X030282Y003119D01*
X030381Y003217D02*
X031009Y003217D01*
X031009Y003316D02*
X030479Y003316D01*
X030578Y003414D02*
X031009Y003414D01*
X031009Y003513D02*
X030677Y003513D01*
X030775Y003611D02*
X031009Y003611D01*
X031009Y003710D02*
X030874Y003710D01*
X030972Y003809D02*
X031009Y003809D01*
X031009Y002527D02*
X029691Y002527D01*
X029538Y002429D02*
X031009Y002429D01*
X031009Y002133D02*
X029573Y002133D01*
X029668Y002035D02*
X031009Y002035D01*
X031009Y001936D02*
X029709Y001936D01*
X029749Y001838D02*
X031009Y001838D01*
X031009Y001739D02*
X029769Y001739D01*
X029769Y001641D02*
X031009Y001641D01*
X031009Y001542D02*
X029769Y001542D01*
X029737Y001443D02*
X031009Y001443D01*
X031009Y001345D02*
X029697Y001345D01*
X029642Y001246D02*
X031009Y001246D01*
X031009Y001148D02*
X029543Y001148D01*
X029403Y001049D02*
X031009Y001049D01*
X031009Y000951D02*
X001329Y000951D01*
X001329Y000852D02*
X031009Y000852D01*
X029474Y002232D02*
X029224Y002335D01*
X028082Y002330D02*
X027034Y002330D01*
X017899Y004498D02*
X017419Y004498D01*
X017517Y004597D02*
X017801Y004597D01*
X017746Y004695D02*
X017572Y004695D01*
X017609Y004794D02*
X017709Y004794D01*
X017709Y004892D02*
X017609Y004892D01*
X017609Y004991D02*
X017709Y004991D01*
X017709Y005090D02*
X017609Y005090D01*
X017609Y005188D02*
X017709Y005188D01*
X017709Y005287D02*
X017609Y005287D01*
X017609Y005385D02*
X017709Y005385D01*
X017709Y005484D02*
X017609Y005484D01*
X017585Y005582D02*
X017733Y005582D01*
X017774Y005681D02*
X017544Y005681D01*
X017451Y005779D02*
X017867Y005779D01*
X011309Y009130D02*
X008839Y009130D01*
X011129Y010312D02*
X011189Y010312D01*
X011189Y010411D02*
X011129Y010411D01*
X011129Y010509D02*
X011189Y010509D01*
X011189Y010608D02*
X011129Y010608D01*
X011129Y010707D02*
X011189Y010707D01*
X011189Y010805D02*
X011129Y010805D01*
X011129Y010904D02*
X011189Y010904D01*
X011189Y011002D02*
X011129Y011002D01*
X011129Y011298D02*
X011189Y011298D01*
X011189Y011396D02*
X011129Y011396D01*
X011129Y011495D02*
X011189Y011495D01*
X011189Y011593D02*
X011129Y011593D01*
X011129Y011692D02*
X011189Y011692D01*
X011189Y011791D02*
X011129Y011791D01*
X011129Y011889D02*
X011189Y011889D01*
X011189Y011988D02*
X011129Y011988D01*
X008929Y012776D02*
X008852Y012776D01*
X008810Y012874D02*
X008929Y012874D01*
X008929Y012973D02*
X008729Y012973D01*
X008549Y013072D02*
X008929Y013072D01*
X008929Y013269D02*
X008682Y013269D01*
X008788Y013367D02*
X008929Y013367D01*
X008929Y013466D02*
X008848Y013466D01*
X008888Y013564D02*
X008929Y013564D01*
X008929Y013663D02*
X008889Y013663D01*
X008882Y013761D02*
X008929Y013761D01*
X008929Y013860D02*
X008841Y013860D01*
X008772Y013958D02*
X008929Y013958D01*
X008956Y014057D02*
X008645Y014057D01*
X009803Y014254D02*
X010671Y014254D01*
X010545Y014353D02*
X009902Y014353D01*
X010000Y014451D02*
X010476Y014451D01*
X010436Y014550D02*
X010099Y014550D01*
X010197Y014648D02*
X010429Y014648D01*
X010430Y014747D02*
X010296Y014747D01*
X007575Y011988D02*
X005027Y011988D01*
X005098Y011889D02*
X007489Y011889D01*
X007448Y011791D02*
X005139Y011791D01*
X005154Y011692D02*
X007429Y011692D01*
X007429Y011593D02*
X005154Y011593D01*
X005128Y011495D02*
X007458Y011495D01*
X007501Y011396D02*
X005088Y011396D01*
X005002Y011298D02*
X007600Y011298D01*
X006001Y012185D02*
X005225Y012185D01*
X005178Y012185D02*
X005140Y012185D01*
X005093Y012185D02*
X004294Y012185D01*
X004195Y012086D02*
X004406Y012086D01*
X004292Y011988D02*
X004097Y011988D01*
X004147Y011889D02*
X004220Y011889D01*
X004190Y011495D02*
X004177Y011495D01*
X004136Y011396D02*
X004230Y011396D01*
X004316Y011298D02*
X004065Y011298D01*
X003967Y011199D02*
X004466Y011199D01*
X005140Y012283D02*
X005178Y012283D01*
X005178Y012382D02*
X005140Y012382D01*
X005140Y012480D02*
X005178Y012480D01*
X005178Y012579D02*
X005140Y012579D01*
X005140Y012677D02*
X005178Y012677D01*
X005178Y012776D02*
X005140Y012776D01*
X005140Y012874D02*
X005178Y012874D01*
X005178Y012973D02*
X005140Y012973D01*
X005140Y013072D02*
X005178Y013072D01*
X005388Y013072D02*
X005876Y013072D01*
X005777Y012973D02*
X005513Y012973D01*
X005580Y012874D02*
X005714Y012874D01*
X005673Y012776D02*
X005619Y012776D01*
X005634Y012677D02*
X005664Y012677D01*
X005664Y012579D02*
X005628Y012579D01*
X005602Y012480D02*
X005696Y012480D01*
X005736Y012382D02*
X005548Y012382D01*
X005455Y012283D02*
X005831Y012283D01*
X002769Y011199D02*
X002467Y011199D01*
X003507Y015634D02*
X001329Y015634D01*
X001329Y015732D02*
X003318Y015732D01*
X003220Y015831D02*
X001329Y015831D01*
X001329Y015929D02*
X003168Y015929D01*
X003127Y016028D02*
X001329Y016028D01*
X001329Y016126D02*
X003119Y016126D01*
X003119Y016225D02*
X001329Y016225D01*
X001329Y016324D02*
X003144Y016324D01*
X003185Y016422D02*
X001329Y016422D01*
X001329Y016521D02*
X003261Y016521D01*
X003368Y016619D02*
X001329Y016619D01*
X001329Y016718D02*
X003333Y016718D01*
X003234Y016816D02*
X001329Y016816D01*
X001329Y016915D02*
X003174Y016915D01*
X003133Y017013D02*
X001329Y017013D01*
X001329Y017112D02*
X003119Y017112D01*
X003119Y017210D02*
X001329Y017210D01*
X001329Y017309D02*
X003138Y017309D01*
X003179Y017407D02*
X001329Y017407D01*
X001329Y017506D02*
X003246Y017506D01*
X003345Y017605D02*
X001329Y017605D01*
X001329Y017703D02*
X003401Y017703D01*
X003277Y017802D02*
X001329Y017802D01*
X001329Y017900D02*
X003205Y017900D01*
X003163Y017999D02*
X001329Y017999D01*
X001329Y018097D02*
X003142Y018097D01*
X003945Y018590D02*
X004099Y018590D01*
X004057Y018491D02*
X004197Y018491D01*
X004121Y018393D02*
X004296Y018393D01*
X004395Y018294D02*
X004161Y018294D01*
X004000Y018689D02*
X003944Y018689D01*
X017956Y018886D02*
X019889Y018886D01*
X019375Y018787D02*
X018943Y018787D01*
X019041Y018689D02*
X019277Y018689D01*
X019236Y018590D02*
X019082Y018590D01*
X019109Y018491D02*
X019209Y018491D01*
X019209Y018393D02*
X019109Y018393D01*
X019109Y018294D02*
X019209Y018294D01*
X019209Y018196D02*
X019109Y018196D01*
X019109Y018097D02*
X019209Y018097D01*
X019209Y017999D02*
X019109Y017999D01*
X019109Y017900D02*
X019209Y017900D01*
X019209Y017802D02*
X019109Y017802D01*
X019075Y017703D02*
X019243Y017703D01*
X018209Y017999D02*
X018189Y017999D01*
X018189Y018097D02*
X018209Y018097D01*
X018209Y018196D02*
X018189Y018196D01*
X018189Y018294D02*
X018209Y018294D01*
X018209Y018393D02*
X018189Y018393D01*
X018189Y018491D02*
X018209Y018491D01*
X018236Y018590D02*
X018169Y018590D01*
X018128Y018689D02*
X018277Y018689D01*
X018375Y018787D02*
X018057Y018787D01*
X019086Y016718D02*
X019157Y016718D01*
X019125Y016619D02*
X019255Y016619D01*
X019354Y016521D02*
X019125Y016521D01*
X019115Y016422D02*
X019452Y016422D01*
X020265Y015535D02*
X020339Y015535D01*
X020410Y015437D02*
X020438Y015437D01*
M02*
