G75*
G70*
%OFA0B0*%
%FSLAX24Y24*%
%IPPOS*%
%LPD*%
%AMOC8*
5,1,8,0,0,1.08239X$1,22.5*
%
%ADD10C,0.0640*%
%ADD11C,0.0730*%
%ADD12R,0.0730X0.0730*%
%ADD13C,0.0940*%
%ADD14C,0.0820*%
%ADD15C,0.0720*%
%ADD16C,0.1380*%
%ADD17R,0.0540X0.0710*%
%ADD18C,0.1480*%
D10*
X007879Y004655D02*
X008439Y004655D01*
X008439Y005655D02*
X007879Y005655D01*
X007879Y006655D02*
X008439Y006655D01*
X008439Y007655D02*
X007879Y007655D01*
X007879Y008655D02*
X008439Y008655D01*
X008439Y009655D02*
X007879Y009655D01*
X007879Y010655D02*
X008439Y010655D01*
X008439Y011655D02*
X007879Y011655D01*
X007879Y012655D02*
X008439Y012655D01*
X008439Y013655D02*
X007879Y013655D01*
X007879Y014655D02*
X008439Y014655D01*
X008439Y015655D02*
X007879Y015655D01*
X007879Y016655D02*
X008439Y016655D01*
X008439Y017655D02*
X007879Y017655D01*
X010879Y017655D02*
X011439Y017655D01*
X011439Y016655D02*
X010879Y016655D01*
X010879Y015655D02*
X011439Y015655D01*
X011439Y014655D02*
X010879Y014655D01*
X010879Y013655D02*
X011439Y013655D01*
X011439Y012655D02*
X010879Y012655D01*
X010879Y011655D02*
X011439Y011655D01*
X011439Y010655D02*
X010879Y010655D01*
X010879Y009655D02*
X011439Y009655D01*
X011439Y008655D02*
X010879Y008655D01*
X010879Y007655D02*
X011439Y007655D01*
X011439Y006655D02*
X010879Y006655D01*
X010879Y005655D02*
X011439Y005655D01*
X011439Y004655D02*
X010879Y004655D01*
X013379Y008655D02*
X013939Y008655D01*
X013939Y009655D02*
X013379Y009655D01*
X013379Y010655D02*
X013939Y010655D01*
X013939Y011655D02*
X013379Y011655D01*
X013379Y012655D02*
X013939Y012655D01*
X013939Y013655D02*
X013379Y013655D01*
X013379Y014655D02*
X013939Y014655D01*
X013939Y015655D02*
X013379Y015655D01*
X015659Y017375D02*
X015659Y017935D01*
X016659Y017935D02*
X016659Y017375D01*
X017659Y017375D02*
X017659Y017935D01*
X018659Y017935D02*
X018659Y017375D01*
X019659Y017375D02*
X019659Y017935D01*
X020659Y017935D02*
X020659Y017375D01*
X021659Y017375D02*
X021659Y017935D01*
X022659Y017935D02*
X022659Y017375D01*
X020089Y014621D02*
X019693Y014225D01*
X018986Y014932D02*
X019382Y015328D01*
X018675Y016035D02*
X018279Y015639D01*
X016939Y015655D02*
X016379Y015655D01*
X016379Y014655D02*
X016939Y014655D01*
X016939Y013655D02*
X016379Y013655D01*
X016379Y012655D02*
X016939Y012655D01*
X016939Y011655D02*
X016379Y011655D01*
X016379Y010655D02*
X016939Y010655D01*
X016939Y009655D02*
X016379Y009655D01*
X016379Y008655D02*
X016939Y008655D01*
X017159Y007935D02*
X017159Y007375D01*
X018159Y007375D02*
X018159Y007935D01*
X019159Y007935D02*
X019159Y007375D01*
X020159Y007375D02*
X020159Y007935D01*
X021159Y007935D02*
X021159Y007375D01*
X022159Y007375D02*
X022159Y007935D01*
X023159Y007935D02*
X023159Y007375D01*
X024159Y007375D02*
X024159Y007935D01*
X024643Y009275D02*
X025039Y009671D01*
X024332Y010378D02*
X023936Y009982D01*
X023229Y010689D02*
X023625Y011085D01*
X022918Y011792D02*
X022522Y011396D01*
X021815Y012104D02*
X022211Y012499D01*
X021503Y013207D02*
X021108Y012811D01*
X020400Y013518D02*
X020796Y013914D01*
X020659Y020375D02*
X020659Y020935D01*
X019659Y020935D02*
X019659Y020375D01*
X018659Y020375D02*
X018659Y020935D01*
X017659Y020935D02*
X017659Y020375D01*
X016659Y020375D02*
X016659Y020935D01*
X015659Y020935D02*
X015659Y020375D01*
X021659Y020375D02*
X021659Y020935D01*
X022659Y020935D02*
X022659Y020375D01*
X022159Y004935D02*
X022159Y004375D01*
X021159Y004375D02*
X021159Y004935D01*
X020159Y004935D02*
X020159Y004375D01*
X019159Y004375D02*
X019159Y004935D01*
X018159Y004935D02*
X018159Y004375D01*
X017159Y004375D02*
X017159Y004935D01*
X023159Y004935D02*
X023159Y004375D01*
X024159Y004375D02*
X024159Y004935D01*
D11*
X026659Y004655D03*
X026659Y003655D03*
X026659Y002655D03*
X026659Y001655D03*
X026659Y006655D03*
X026659Y007655D03*
X026659Y008655D03*
X026659Y009655D03*
X028159Y012655D03*
X026659Y015655D03*
X026659Y016655D03*
X026659Y017655D03*
X026659Y018655D03*
X026659Y020655D03*
X026659Y021655D03*
X026659Y022655D03*
X026659Y023655D03*
X014659Y020655D03*
X014659Y019655D03*
X012659Y019655D03*
X004659Y022655D03*
X004659Y023655D03*
X006659Y011655D03*
X006659Y010655D03*
X006659Y009155D03*
X005659Y009155D03*
X003659Y008155D03*
X006159Y007155D03*
X006159Y005155D03*
X005659Y003155D03*
X006659Y003155D03*
X013659Y007655D03*
X014659Y007655D03*
X016159Y006655D03*
X016159Y005655D03*
X019159Y002155D03*
X015659Y001655D03*
D12*
X015659Y002655D03*
X020159Y002155D03*
X029159Y012655D03*
X012659Y018655D03*
X002659Y008155D03*
D13*
X028229Y007655D02*
X029089Y007655D01*
X029089Y005655D02*
X028229Y005655D01*
X028229Y003655D02*
X029089Y003655D01*
X029089Y001655D02*
X028229Y001655D01*
X028229Y009655D02*
X029089Y009655D01*
X029089Y015655D02*
X028229Y015655D01*
X028229Y017655D02*
X029089Y017655D01*
X029089Y019655D02*
X028229Y019655D01*
X028229Y021655D02*
X029089Y021655D01*
X029089Y023655D02*
X028229Y023655D01*
D14*
X025259Y024155D03*
X025159Y023155D03*
X025259Y022155D03*
X025159Y021155D03*
X025259Y020155D03*
X025159Y019155D03*
X010159Y020155D03*
X006659Y018655D03*
X005659Y018655D03*
X006159Y020155D03*
X003659Y020155D03*
X003659Y019155D03*
X003659Y018155D03*
X003659Y017155D03*
X003659Y016155D03*
X005659Y014655D03*
X006659Y014655D03*
X003659Y012155D03*
X002659Y012155D03*
X002659Y011155D03*
X003659Y011155D03*
X003659Y010155D03*
X002659Y010155D03*
X002659Y006155D03*
X003659Y006155D03*
X003659Y005155D03*
X002659Y005155D03*
X002659Y004155D03*
X003659Y004155D03*
X012659Y002255D03*
X012659Y006255D03*
X003659Y021155D03*
D15*
X006559Y021765D02*
X007199Y021765D01*
X009119Y021765D02*
X009759Y021765D01*
X009759Y023545D02*
X009119Y023545D01*
X007199Y023545D02*
X006559Y023545D01*
D16*
X002659Y002155D03*
X022659Y002155D03*
X022659Y023155D03*
X002659Y023155D03*
D17*
X002409Y014855D03*
X003009Y014855D03*
X003609Y014855D03*
X003609Y013855D03*
X003009Y013855D03*
X002409Y013855D03*
D18*
X011722Y023155D03*
X014022Y023155D03*
X017296Y023155D03*
X019596Y023155D03*
M02*
