G75*
G70*
%OFA0B0*%
%FSLAX24Y24*%
%IPPOS*%
%LPD*%
%AMOC8*
5,1,8,0,0,1.08239X$1,22.5*
%
%ADD10C,0.0030*%
%ADD11C,0.0040*%
%ADD12C,0.0020*%
%ADD13C,0.0060*%
%ADD14C,0.0080*%
%ADD15C,0.0010*%
%ADD16C,0.0050*%
D10*
X001697Y003834D02*
X001644Y003888D01*
X001644Y003995D01*
X001697Y004048D01*
X001911Y003834D01*
X001697Y003834D01*
X001697Y004048D02*
X001911Y004048D01*
X001964Y003995D01*
X001964Y003888D01*
X001911Y003834D01*
X001858Y004157D02*
X001644Y004157D01*
X001804Y004157D02*
X001804Y004370D01*
X001858Y004370D02*
X001964Y004263D01*
X001858Y004157D01*
X001858Y004370D02*
X001644Y004370D01*
X001244Y005834D02*
X001244Y006048D01*
X001244Y005941D02*
X001564Y005941D01*
X001458Y006048D01*
X001458Y006157D02*
X001244Y006157D01*
X001404Y006157D02*
X001404Y006370D01*
X001458Y006370D02*
X001564Y006263D01*
X001458Y006157D01*
X001458Y006370D02*
X001244Y006370D01*
X002174Y007370D02*
X002368Y007370D01*
X002271Y007370D02*
X002271Y007660D01*
X002174Y007564D01*
X002469Y007612D02*
X002517Y007660D01*
X002614Y007660D01*
X002662Y007612D01*
X002469Y007418D01*
X002517Y007370D01*
X002614Y007370D01*
X002662Y007418D01*
X002662Y007612D01*
X002763Y007612D02*
X002812Y007660D01*
X002908Y007660D01*
X002957Y007612D01*
X002763Y007418D01*
X002812Y007370D01*
X002908Y007370D01*
X002957Y007418D01*
X002957Y007612D01*
X003058Y007564D02*
X003058Y007418D01*
X003106Y007370D01*
X003251Y007370D01*
X003251Y007564D01*
X003353Y007515D02*
X003449Y007515D01*
X003353Y007370D02*
X003353Y007660D01*
X003546Y007660D01*
X003841Y007660D02*
X003647Y007370D01*
X003942Y007418D02*
X003990Y007370D01*
X004087Y007370D01*
X004135Y007418D01*
X004135Y007467D01*
X004087Y007515D01*
X003942Y007515D01*
X003942Y007418D01*
X003942Y007515D02*
X004039Y007612D01*
X004135Y007660D01*
X004237Y007660D02*
X004237Y007467D01*
X004333Y007370D01*
X004430Y007467D01*
X004430Y007660D01*
X002763Y007612D02*
X002763Y007418D01*
X002469Y007418D02*
X002469Y007612D01*
X001961Y009884D02*
X001747Y009884D01*
X001694Y009938D01*
X001694Y010045D01*
X001747Y010098D01*
X001747Y010207D02*
X001961Y010207D01*
X002014Y010260D01*
X002014Y010420D01*
X001694Y010420D01*
X001694Y010260D01*
X001747Y010207D01*
X001908Y010098D02*
X001854Y010045D01*
X001854Y009884D01*
X001961Y009884D02*
X002014Y009938D01*
X002014Y010045D01*
X001961Y010098D01*
X001908Y010098D01*
X001561Y011662D02*
X001347Y011876D01*
X001294Y011822D01*
X001294Y011716D01*
X001347Y011662D01*
X001561Y011662D01*
X001614Y011716D01*
X001614Y011822D01*
X001561Y011876D01*
X001347Y011876D01*
X001294Y011984D02*
X001294Y012198D01*
X001294Y012091D02*
X001614Y012091D01*
X001508Y012198D01*
X001561Y012307D02*
X001614Y012360D01*
X001614Y012520D01*
X001294Y012520D01*
X001294Y012360D01*
X001347Y012307D01*
X001561Y012307D01*
X005474Y015877D02*
X005794Y015877D01*
X005794Y015770D02*
X005794Y015984D01*
X005794Y016092D02*
X005474Y016092D01*
X005581Y016199D01*
X005474Y016306D01*
X005794Y016306D01*
X005474Y015877D02*
X005581Y015770D01*
X006474Y015877D02*
X006794Y015877D01*
X006794Y015770D02*
X006794Y015984D01*
X006794Y016092D02*
X006474Y016092D01*
X006581Y016199D01*
X006474Y016306D01*
X006794Y016306D01*
X006474Y015877D02*
X006581Y015770D01*
X002744Y018067D02*
X002744Y018173D01*
X002744Y018120D02*
X002424Y018120D01*
X002424Y018173D02*
X002424Y018067D01*
X002477Y018282D02*
X002691Y018282D01*
X002744Y018336D01*
X002744Y018496D01*
X002424Y018496D01*
X002424Y018336D01*
X002477Y018282D01*
X002744Y018604D02*
X002744Y018818D01*
X002744Y018711D02*
X002424Y018711D01*
X002744Y018927D02*
X002744Y019140D01*
X002424Y019140D01*
X002584Y019140D02*
X002584Y019033D01*
X001994Y020282D02*
X001674Y020282D01*
X001994Y020496D01*
X001674Y020496D01*
X001674Y020604D02*
X001781Y020711D01*
X001781Y020658D02*
X001781Y020818D01*
X001674Y020818D02*
X001994Y020818D01*
X001994Y020658D01*
X001941Y020604D01*
X001834Y020604D01*
X001781Y020658D01*
X001834Y020927D02*
X001834Y021033D01*
X001834Y020927D02*
X001727Y020927D01*
X001674Y020980D01*
X001674Y021087D01*
X001727Y021140D01*
X001941Y021140D01*
X001994Y021087D01*
X001994Y020980D01*
X001941Y020927D01*
X005674Y021759D02*
X005674Y021919D01*
X005727Y021972D01*
X005834Y021972D01*
X005887Y021919D01*
X005887Y021759D01*
X005887Y021866D02*
X005994Y021972D01*
X005994Y022081D02*
X005674Y022081D01*
X005674Y022295D01*
X005727Y022403D02*
X005674Y022457D01*
X005674Y022563D01*
X005727Y022617D01*
X005834Y022563D02*
X005887Y022617D01*
X005941Y022617D01*
X005994Y022563D01*
X005994Y022457D01*
X005941Y022403D01*
X005834Y022457D02*
X005834Y022563D01*
X005834Y022457D02*
X005781Y022403D01*
X005727Y022403D01*
X005834Y022188D02*
X005834Y022081D01*
X005994Y022081D02*
X005994Y022295D01*
X005994Y022726D02*
X005674Y022726D01*
X005674Y022939D01*
X005674Y023048D02*
X005674Y023261D01*
X005674Y023154D02*
X005994Y023154D01*
X005994Y022939D02*
X005994Y022726D01*
X005834Y022726D02*
X005834Y022832D01*
X005994Y021759D02*
X005674Y021759D01*
X007274Y020234D02*
X007381Y020340D01*
X007381Y020020D01*
X007274Y020020D02*
X007488Y020020D01*
X007596Y020073D02*
X007810Y020287D01*
X007810Y020073D01*
X007756Y020020D01*
X007650Y020020D01*
X007596Y020073D01*
X007596Y020287D01*
X007650Y020340D01*
X007756Y020340D01*
X007810Y020287D01*
X007919Y020340D02*
X007919Y020020D01*
X007919Y020127D02*
X008132Y020340D01*
X007972Y020180D02*
X008132Y020020D01*
X010974Y019959D02*
X010974Y020173D01*
X011134Y020066D02*
X011134Y019959D01*
X011081Y019850D02*
X011294Y019850D01*
X011294Y019690D01*
X011241Y019637D01*
X011081Y019637D01*
X011027Y019528D02*
X011241Y019315D01*
X011294Y019368D01*
X011294Y019475D01*
X011241Y019528D01*
X011027Y019528D01*
X010974Y019475D01*
X010974Y019368D01*
X011027Y019315D01*
X011241Y019315D01*
X011241Y019206D02*
X011027Y019206D01*
X011241Y018992D01*
X011294Y019046D01*
X011294Y019152D01*
X011241Y019206D01*
X011241Y018992D02*
X011027Y018992D01*
X010974Y019046D01*
X010974Y019152D01*
X011027Y019206D01*
X011294Y018884D02*
X011294Y018670D01*
X011294Y018777D02*
X010974Y018777D01*
X011081Y018670D01*
X010974Y019959D02*
X011294Y019959D01*
X011294Y020281D02*
X010974Y020495D01*
X011134Y020604D02*
X011134Y020764D01*
X011187Y020817D01*
X011241Y020817D01*
X011294Y020764D01*
X011294Y020657D01*
X011241Y020604D01*
X011134Y020604D01*
X011027Y020710D01*
X010974Y020817D01*
X010974Y020926D02*
X011187Y020926D01*
X011294Y021033D01*
X011187Y021139D01*
X010974Y021139D01*
X012674Y021257D02*
X012727Y021203D01*
X012781Y021203D01*
X012834Y021257D01*
X012834Y021363D01*
X012887Y021417D01*
X012941Y021417D01*
X012994Y021363D01*
X012994Y021257D01*
X012941Y021203D01*
X012674Y021257D02*
X012674Y021363D01*
X012727Y021417D01*
X012674Y021526D02*
X012674Y021686D01*
X012727Y021739D01*
X012941Y021739D01*
X012994Y021686D01*
X012994Y021526D01*
X012674Y021526D01*
X012781Y021848D02*
X012674Y021955D01*
X012781Y022061D01*
X012994Y022061D01*
X012834Y022061D02*
X012834Y021848D01*
X012781Y021848D02*
X012994Y021848D01*
X013674Y021848D02*
X013994Y021848D01*
X013994Y022061D01*
X013941Y021739D02*
X013994Y021686D01*
X013994Y021579D01*
X013941Y021526D01*
X013727Y021526D01*
X013674Y021579D01*
X013674Y021686D01*
X013727Y021739D01*
X013727Y021417D02*
X013674Y021363D01*
X013674Y021257D01*
X013727Y021203D01*
X013781Y021203D01*
X013834Y021257D01*
X013834Y021363D01*
X013887Y021417D01*
X013941Y021417D01*
X013994Y021363D01*
X013994Y021257D01*
X013941Y021203D01*
X014674Y021257D02*
X014727Y021203D01*
X014941Y021203D01*
X014994Y021257D01*
X014994Y021363D01*
X014941Y021417D01*
X014834Y021417D01*
X014834Y021310D01*
X014727Y021417D02*
X014674Y021363D01*
X014674Y021257D01*
X014674Y021526D02*
X014994Y021739D01*
X014674Y021739D01*
X014674Y021848D02*
X014674Y022008D01*
X014727Y022061D01*
X014941Y022061D01*
X014994Y022008D01*
X014994Y021848D01*
X014674Y021848D01*
X014674Y021526D02*
X014994Y021526D01*
X015674Y021526D02*
X015887Y021526D01*
X015994Y021632D01*
X015887Y021739D01*
X015674Y021739D01*
X015834Y021848D02*
X015834Y022061D01*
X015727Y021955D02*
X015941Y021955D01*
X016674Y022008D02*
X016674Y021901D01*
X016727Y021848D01*
X016941Y021848D01*
X016994Y021901D01*
X016994Y022008D01*
X016941Y022061D01*
X016727Y022061D02*
X016674Y022008D01*
X016727Y021739D02*
X016674Y021686D01*
X016674Y021579D01*
X016727Y021526D01*
X016941Y021526D01*
X016994Y021579D01*
X016994Y021686D01*
X016941Y021739D01*
X016887Y021417D02*
X016674Y021417D01*
X016887Y021417D02*
X016994Y021310D01*
X016887Y021203D01*
X016674Y021203D01*
X018724Y019240D02*
X018724Y018920D01*
X018938Y018920D01*
X019046Y018920D02*
X019260Y019134D01*
X019260Y019187D01*
X019206Y019240D01*
X019100Y019240D01*
X019046Y019187D01*
X019046Y018920D02*
X019260Y018920D01*
X019369Y018973D02*
X019422Y018920D01*
X019529Y018920D01*
X019582Y018973D01*
X019582Y019187D01*
X019529Y019240D01*
X019422Y019240D01*
X019369Y019187D01*
X019369Y019134D01*
X019422Y019080D01*
X019582Y019080D01*
X019691Y018973D02*
X019744Y018920D01*
X019851Y018920D01*
X019904Y018973D01*
X019904Y019027D01*
X019851Y019080D01*
X019798Y019080D01*
X019851Y019080D02*
X019904Y019134D01*
X019904Y019187D01*
X019851Y019240D01*
X019744Y019240D01*
X019691Y019187D01*
X020013Y019240D02*
X020013Y018920D01*
X020173Y018920D01*
X020227Y018973D01*
X020227Y019187D01*
X020173Y019240D01*
X020013Y019240D01*
X018184Y015165D02*
X017958Y014938D01*
X018033Y014863D02*
X017882Y015014D01*
X018033Y015165D02*
X018184Y015165D01*
X018299Y014975D02*
X018374Y014975D01*
X018450Y014899D01*
X018450Y014824D01*
X018148Y014824D01*
X018148Y014748D01*
X018223Y014673D01*
X018299Y014673D01*
X018450Y014824D01*
X018526Y014747D02*
X018376Y014596D01*
X018677Y014596D01*
X018526Y014445D01*
X018451Y014445D01*
X018376Y014520D01*
X018376Y014596D01*
X018526Y014747D02*
X018602Y014747D01*
X018677Y014671D01*
X018677Y014596D01*
X018792Y014557D02*
X018566Y014330D01*
X018641Y014406D02*
X018943Y014406D01*
X018717Y014406D02*
X018717Y014179D01*
X018148Y014824D02*
X018299Y014975D01*
X014894Y013512D02*
X014574Y013512D01*
X014574Y013298D02*
X014894Y013512D01*
X014894Y013298D02*
X014574Y013298D01*
X014574Y013189D02*
X014574Y012976D01*
X014734Y012976D01*
X014681Y013083D01*
X014681Y013136D01*
X014734Y013189D01*
X014841Y013189D01*
X014894Y013136D01*
X014894Y013029D01*
X014841Y012976D01*
X014841Y012867D02*
X014627Y012867D01*
X014574Y012814D01*
X014574Y012707D01*
X014627Y012654D01*
X014681Y012654D01*
X014734Y012707D01*
X014734Y012867D01*
X014841Y012867D02*
X014894Y012814D01*
X014894Y012707D01*
X014841Y012654D01*
X014841Y012545D02*
X014894Y012491D01*
X014894Y012385D01*
X014841Y012331D01*
X014734Y012331D02*
X014681Y012438D01*
X014681Y012491D01*
X014734Y012545D01*
X014841Y012545D01*
X014734Y012331D02*
X014574Y012331D01*
X014574Y012545D01*
X014574Y012223D02*
X014574Y012009D01*
X014574Y012116D02*
X014894Y012116D01*
X014841Y011900D02*
X014894Y011847D01*
X014894Y011740D01*
X014841Y011687D01*
X014627Y011687D01*
X014574Y011740D01*
X014574Y011847D01*
X014627Y011900D01*
X014574Y011578D02*
X014894Y011578D01*
X014734Y011578D02*
X014734Y011365D01*
X014734Y011256D02*
X014734Y011042D01*
X014574Y011202D01*
X014894Y011202D01*
X014894Y011365D02*
X014574Y011365D01*
X014574Y010934D02*
X014627Y010934D01*
X014841Y010720D01*
X014894Y010720D01*
X014574Y010720D02*
X014574Y010934D01*
X009744Y010969D02*
X009424Y010969D01*
X009584Y010809D01*
X009584Y011022D01*
X009584Y011131D02*
X009584Y011344D01*
X009691Y011453D02*
X009744Y011506D01*
X009744Y011613D01*
X009691Y011667D01*
X009637Y011667D01*
X009584Y011613D01*
X009584Y011560D01*
X009584Y011613D02*
X009531Y011667D01*
X009477Y011667D01*
X009424Y011613D01*
X009424Y011506D01*
X009477Y011453D01*
X009424Y011291D02*
X009584Y011131D01*
X009744Y011291D02*
X009424Y011291D01*
X009477Y011775D02*
X009424Y011829D01*
X009424Y011935D01*
X009477Y011989D01*
X009531Y011989D01*
X009584Y011935D01*
X009637Y011989D01*
X009691Y011989D01*
X009744Y011935D01*
X009744Y011829D01*
X009691Y011775D01*
X009584Y011882D02*
X009584Y011935D01*
X009637Y012098D02*
X009637Y012258D01*
X009584Y012311D01*
X009477Y012311D01*
X009424Y012258D01*
X009424Y012098D01*
X009744Y012098D01*
X009691Y010700D02*
X009744Y010646D01*
X009744Y010540D01*
X009691Y010486D01*
X009691Y010378D02*
X009744Y010324D01*
X009744Y010217D01*
X009691Y010164D01*
X009477Y010378D01*
X009691Y010378D01*
X009531Y010486D02*
X009584Y010540D01*
X009584Y010646D01*
X009637Y010700D01*
X009691Y010700D01*
X009477Y010700D02*
X009424Y010646D01*
X009424Y010540D01*
X009477Y010486D01*
X009531Y010486D01*
X009477Y010378D02*
X009424Y010324D01*
X009424Y010217D01*
X009477Y010164D01*
X009691Y010164D01*
X009691Y010055D02*
X009477Y010055D01*
X009424Y010002D01*
X009424Y009895D01*
X009477Y009842D01*
X009531Y009842D01*
X009584Y009895D01*
X009584Y010055D01*
X009691Y010055D02*
X009744Y010002D01*
X009744Y009895D01*
X009691Y009842D01*
X009744Y009626D02*
X009424Y009626D01*
X009424Y009520D02*
X009424Y009733D01*
X009531Y009411D02*
X009744Y009411D01*
X009584Y009411D02*
X009584Y009197D01*
X009531Y009197D02*
X009744Y009197D01*
X009531Y009197D02*
X009424Y009304D01*
X009531Y009411D01*
X006894Y006861D02*
X006894Y006648D01*
X006681Y006861D01*
X006681Y006648D01*
X006734Y006539D02*
X006734Y006326D01*
X006894Y006326D02*
X006574Y006326D01*
X006574Y006217D02*
X006894Y006217D01*
X006894Y006003D02*
X006574Y006003D01*
X006681Y006110D01*
X006574Y006217D01*
X006574Y006539D02*
X006894Y006539D01*
X006841Y005895D02*
X006787Y005895D01*
X006734Y005841D01*
X006734Y005681D01*
X006841Y005681D01*
X006894Y005734D01*
X006894Y005841D01*
X006841Y005895D01*
X006627Y005788D02*
X006734Y005681D01*
X006627Y005788D02*
X006574Y005895D01*
X006894Y005572D02*
X006894Y005359D01*
X006894Y005466D02*
X006574Y005466D01*
X006681Y005359D01*
X012504Y003959D02*
X012794Y003959D01*
X012697Y003959D02*
X012601Y004105D01*
X012697Y003959D02*
X012794Y004105D01*
X012746Y003858D02*
X012552Y003858D01*
X012746Y003665D01*
X012794Y003713D01*
X012794Y003810D01*
X012746Y003858D01*
X012746Y003665D02*
X012552Y003665D01*
X012504Y003713D01*
X012504Y003810D01*
X012552Y003858D01*
X012794Y003564D02*
X012794Y003370D01*
X012794Y003467D02*
X012504Y003467D01*
X012601Y003370D01*
X013874Y003361D02*
X014087Y003361D01*
X014194Y003254D01*
X014087Y003148D01*
X013874Y003148D01*
X013874Y003039D02*
X013927Y002932D01*
X014034Y002825D01*
X014034Y002986D01*
X014087Y003039D01*
X014141Y003039D01*
X014194Y002986D01*
X014194Y002879D01*
X014141Y002825D01*
X014034Y002825D01*
X013874Y002717D02*
X014194Y002503D01*
X014034Y002288D02*
X014034Y002181D01*
X013981Y002072D02*
X014194Y002072D01*
X014194Y001912D01*
X014141Y001859D01*
X013981Y001859D01*
X013927Y001750D02*
X014141Y001536D01*
X014194Y001590D01*
X014194Y001697D01*
X014141Y001750D01*
X013927Y001750D01*
X013874Y001697D01*
X013874Y001590D01*
X013927Y001536D01*
X014141Y001536D01*
X014141Y001428D02*
X013927Y001428D01*
X014141Y001214D01*
X014194Y001268D01*
X014194Y001374D01*
X014141Y001428D01*
X014141Y001214D02*
X013927Y001214D01*
X013874Y001268D01*
X013874Y001374D01*
X013927Y001428D01*
X014194Y001105D02*
X014194Y000892D01*
X014194Y000999D02*
X013874Y000999D01*
X013981Y000892D01*
X013874Y002181D02*
X013874Y002394D01*
X013874Y002181D02*
X014194Y002181D01*
X017874Y002294D02*
X018194Y002081D01*
X018034Y001865D02*
X018034Y001759D01*
X017981Y001650D02*
X018194Y001650D01*
X018194Y001490D01*
X018141Y001436D01*
X017981Y001436D01*
X017927Y001328D02*
X018141Y001114D01*
X018194Y001114D01*
X018194Y000952D02*
X017874Y000952D01*
X018034Y000792D01*
X018034Y001005D01*
X017874Y001114D02*
X017874Y001328D01*
X017927Y001328D01*
X017874Y001759D02*
X017874Y001972D01*
X017874Y001759D02*
X018194Y001759D01*
X018194Y002403D02*
X018194Y002617D01*
X018194Y002510D02*
X017874Y002510D01*
X017981Y002403D01*
X018034Y002725D02*
X018034Y002886D01*
X018087Y002939D01*
X018141Y002939D01*
X018194Y002886D01*
X018194Y002779D01*
X018141Y002725D01*
X018034Y002725D01*
X017927Y002832D01*
X017874Y002939D01*
X017874Y003048D02*
X018087Y003048D01*
X018194Y003154D01*
X018087Y003261D01*
X017874Y003261D01*
X019724Y005920D02*
X019938Y005920D01*
X020046Y005920D02*
X020260Y006134D01*
X020260Y006187D01*
X020206Y006240D01*
X020100Y006240D01*
X020046Y006187D01*
X020046Y005920D02*
X020260Y005920D01*
X020369Y005973D02*
X020422Y005920D01*
X020529Y005920D01*
X020582Y005973D01*
X020582Y006187D01*
X020529Y006240D01*
X020422Y006240D01*
X020369Y006187D01*
X020369Y006134D01*
X020422Y006080D01*
X020582Y006080D01*
X020691Y005973D02*
X020744Y005920D01*
X020851Y005920D01*
X020904Y005973D01*
X020904Y006027D01*
X020851Y006080D01*
X020798Y006080D01*
X020851Y006080D02*
X020904Y006134D01*
X020904Y006187D01*
X020851Y006240D01*
X020744Y006240D01*
X020691Y006187D01*
X021013Y006240D02*
X021013Y005920D01*
X021173Y005920D01*
X021227Y005973D01*
X021227Y006187D01*
X021173Y006240D01*
X021013Y006240D01*
X019724Y006240D02*
X019724Y005920D01*
X030174Y011580D02*
X030334Y011420D01*
X030334Y011634D01*
X030441Y011742D02*
X030494Y011742D01*
X030441Y011742D02*
X030227Y011956D01*
X030174Y011956D01*
X030174Y011742D01*
X030174Y011580D02*
X030494Y011580D01*
X030441Y012065D02*
X030494Y012118D01*
X030494Y012278D01*
X030281Y012278D01*
X030334Y012387D02*
X030334Y012494D01*
X030174Y012600D02*
X030174Y012387D01*
X030494Y012387D01*
X030441Y012065D02*
X030281Y012065D01*
X030494Y012709D02*
X030174Y012923D01*
X030281Y013031D02*
X030174Y013138D01*
X030494Y013138D01*
X030494Y013031D02*
X030494Y013245D01*
X030441Y013354D02*
X030494Y013407D01*
X030494Y013514D01*
X030441Y013567D01*
X030387Y013567D01*
X030334Y013514D01*
X030334Y013354D01*
X030441Y013354D01*
X030334Y013354D02*
X030227Y013460D01*
X030174Y013567D01*
X030174Y013676D02*
X030387Y013676D01*
X030494Y013783D01*
X030387Y013889D01*
X030174Y013889D01*
X025644Y019170D02*
X025324Y019170D01*
X025324Y019384D01*
X025324Y019492D02*
X025591Y019492D01*
X025644Y019546D01*
X025644Y019652D01*
X025591Y019706D01*
X025324Y019706D01*
X025377Y019815D02*
X025431Y019815D01*
X025484Y019868D01*
X025484Y019975D01*
X025537Y020028D01*
X025591Y020028D01*
X025644Y019975D01*
X025644Y019868D01*
X025591Y019815D01*
X025377Y019815D02*
X025324Y019868D01*
X025324Y019975D01*
X025377Y020028D01*
X025324Y020137D02*
X025644Y020137D01*
X025644Y020350D01*
X025484Y020244D02*
X025484Y020137D01*
X025324Y020137D02*
X025324Y020350D01*
X025484Y019277D02*
X025484Y019170D01*
X001994Y017140D02*
X001994Y016980D01*
X001941Y016927D01*
X001888Y016927D01*
X001834Y016980D01*
X001834Y017140D01*
X001674Y017140D02*
X001674Y016980D01*
X001727Y016927D01*
X001781Y016927D01*
X001834Y016980D01*
X001674Y017140D02*
X001994Y017140D01*
X001994Y016818D02*
X001674Y016818D01*
X001674Y016604D01*
X001674Y016496D02*
X001994Y016496D01*
X001834Y016442D02*
X001674Y016282D01*
X001781Y016496D02*
X001994Y016282D01*
D11*
X021687Y014655D02*
X022013Y014981D01*
X022013Y014764D01*
X022230Y014764D01*
X021904Y014438D01*
X022067Y014384D02*
X022176Y014384D01*
X022338Y014221D01*
X022393Y014275D02*
X022230Y014113D01*
X022067Y014275D01*
X022067Y014384D01*
X022284Y014492D02*
X022393Y014384D01*
X022393Y014275D01*
X022555Y014221D02*
X022338Y014004D01*
X022447Y014112D02*
X022664Y014113D01*
X022718Y014058D01*
X022772Y013895D02*
X022664Y013787D01*
X022664Y013678D01*
X022827Y013516D01*
X022935Y013407D02*
X023261Y013733D01*
X023206Y013570D02*
X023315Y013461D01*
X023315Y013353D01*
X023152Y013190D01*
X023098Y013570D02*
X023206Y013570D01*
X023044Y013733D02*
X022881Y013895D01*
X022772Y013895D01*
X023489Y014353D02*
X023598Y014244D01*
X023544Y014299D02*
X023761Y014516D01*
X023706Y014570D01*
X023544Y014624D02*
X023381Y014461D01*
X023544Y014624D02*
X023544Y014733D01*
X023381Y014895D01*
X023164Y014678D01*
X023110Y014841D02*
X023218Y014950D01*
X023218Y015058D01*
X023110Y015167D01*
X023001Y015167D01*
X022893Y015058D01*
X022893Y014950D01*
X023001Y014841D01*
X023110Y014841D01*
X022730Y015113D02*
X022893Y015275D01*
X022893Y015384D01*
X022784Y015492D01*
X022676Y015492D01*
X022567Y015601D02*
X022676Y015709D01*
X022676Y015818D01*
X022513Y015981D01*
X022187Y015655D01*
X022296Y015764D02*
X022459Y015601D01*
X022567Y015601D01*
X022838Y015655D02*
X022513Y015330D01*
X023761Y014190D02*
X023761Y014082D01*
X023923Y013919D01*
X024032Y013810D02*
X024195Y013648D01*
X024303Y013648D01*
X024357Y013702D01*
X024357Y013810D01*
X024195Y013973D01*
X024140Y014136D02*
X023978Y014299D01*
X023869Y014299D01*
X023761Y014190D01*
X023869Y014624D02*
X023923Y014678D01*
X024357Y014136D02*
X024520Y013973D01*
X024520Y013865D01*
X024466Y013810D01*
X024357Y013810D01*
X024520Y013648D02*
X024412Y013539D01*
X024412Y013431D01*
X024520Y013322D01*
X024629Y013322D01*
X024737Y013431D01*
X024737Y013539D01*
X024629Y013648D01*
X024520Y013648D01*
X024900Y013376D02*
X025008Y013268D01*
X025008Y013376D02*
X024791Y013159D01*
X024791Y013051D01*
X024400Y012593D02*
X024291Y012702D01*
X024183Y012702D01*
X023966Y012485D01*
X024400Y012485D01*
X024183Y012268D01*
X024074Y012268D01*
X023966Y012376D01*
X023966Y012485D01*
X023803Y012539D02*
X023586Y012756D01*
X024020Y012756D01*
X024074Y012810D01*
X024074Y012919D01*
X023966Y013027D01*
X023857Y013027D01*
X024400Y012593D02*
X024400Y012485D01*
X024508Y012376D02*
X024291Y012159D01*
X024725Y012159D01*
X024508Y011942D01*
X024400Y011942D01*
X024291Y012051D01*
X024291Y012159D01*
X024508Y012376D02*
X024617Y012376D01*
X024725Y012268D01*
X024725Y012159D01*
X024780Y011996D02*
X024997Y011996D01*
X024671Y011671D01*
X024563Y011779D02*
X024780Y011562D01*
X025376Y011291D02*
X025593Y011074D01*
X025865Y010477D02*
X026027Y010314D01*
X026136Y010314D01*
X026353Y010531D01*
X026353Y010640D01*
X026190Y010803D01*
X025865Y010477D01*
X026244Y010206D02*
X026244Y010097D01*
X026353Y009989D01*
X026461Y009989D01*
X026516Y010043D01*
X026516Y010152D01*
X026407Y010260D01*
X026407Y010369D01*
X026461Y010423D01*
X026570Y010423D01*
X026678Y010314D01*
X026678Y010206D01*
X026256Y011586D02*
X026039Y011803D01*
X025931Y011911D02*
X025876Y011966D01*
X025931Y012020D01*
X025985Y011966D01*
X025931Y011911D01*
X025768Y012074D02*
X025551Y012291D01*
X025659Y012183D02*
X025985Y012508D01*
X025768Y012508D01*
X025659Y012617D02*
X025334Y012508D01*
X025442Y012834D01*
X026256Y012020D02*
X026473Y012020D01*
X026148Y011694D01*
X024032Y013810D02*
X024357Y014136D01*
X030679Y016254D02*
X030832Y016408D01*
X030679Y016561D01*
X031139Y016561D01*
X031139Y016715D02*
X030832Y017022D01*
X030755Y017022D01*
X030679Y016945D01*
X030679Y016791D01*
X030755Y016715D01*
X031139Y016715D02*
X031139Y017022D01*
X031139Y016254D02*
X030679Y016254D01*
X030755Y019044D02*
X031062Y019044D01*
X031139Y019121D01*
X031139Y019274D01*
X031062Y019351D01*
X030909Y019351D01*
X030909Y019197D01*
X030755Y019044D02*
X030679Y019121D01*
X030679Y019274D01*
X030755Y019351D01*
X030679Y019504D02*
X031139Y019811D01*
X030679Y019811D01*
X030679Y019965D02*
X030679Y020195D01*
X030755Y020272D01*
X031062Y020272D01*
X031139Y020195D01*
X031139Y019965D01*
X030679Y019965D01*
X030679Y019504D02*
X031139Y019504D01*
X031139Y022254D02*
X030679Y022254D01*
X030832Y022408D01*
X030679Y022561D01*
X031139Y022561D01*
X031139Y022715D02*
X031139Y023022D01*
X031139Y022868D02*
X030679Y022868D01*
X030832Y022715D01*
X030832Y009022D02*
X030909Y008945D01*
X030986Y009022D01*
X031062Y009022D01*
X031139Y008945D01*
X031139Y008791D01*
X031062Y008715D01*
X031139Y008561D02*
X030679Y008561D01*
X030832Y008408D01*
X030679Y008254D01*
X031139Y008254D01*
X030755Y008715D02*
X030679Y008791D01*
X030679Y008945D01*
X030755Y009022D01*
X030832Y009022D01*
X030909Y008945D02*
X030909Y008868D01*
X031062Y006222D02*
X030755Y006222D01*
X030679Y006145D01*
X030679Y005915D01*
X031139Y005915D01*
X031139Y006145D01*
X031062Y006222D01*
X031139Y005761D02*
X030679Y005761D01*
X030679Y005454D02*
X031139Y005761D01*
X031139Y005454D02*
X030679Y005454D01*
X030755Y005301D02*
X030679Y005224D01*
X030679Y005071D01*
X030755Y004994D01*
X031062Y004994D01*
X031139Y005071D01*
X031139Y005224D01*
X031062Y005301D01*
X030909Y005301D01*
X030909Y005147D01*
X030909Y003022D02*
X030909Y002715D01*
X030679Y002945D01*
X031139Y002945D01*
X031139Y002561D02*
X030679Y002561D01*
X030832Y002408D01*
X030679Y002254D01*
X031139Y002254D01*
D12*
X008659Y021455D02*
X008659Y021555D01*
X007659Y021555D01*
X007659Y021455D01*
X007709Y023755D02*
X007709Y023855D01*
X007709Y023755D02*
X008659Y023755D01*
X008659Y023855D01*
X001749Y015295D02*
X001749Y015202D01*
X001749Y015248D02*
X001469Y015248D01*
X001469Y015202D02*
X001469Y015295D01*
X001469Y015111D02*
X001469Y014924D01*
X001469Y015018D02*
X001749Y015018D01*
X001656Y015111D01*
X001703Y014835D02*
X001516Y014835D01*
X001469Y014788D01*
X001469Y014695D01*
X001516Y014648D01*
X001703Y014648D02*
X001749Y014695D01*
X001749Y014788D01*
X001703Y014835D01*
X001656Y014282D02*
X001469Y014282D01*
X001609Y014282D02*
X001609Y014096D01*
X001656Y014096D02*
X001469Y014096D01*
X001516Y014006D02*
X001609Y014006D01*
X001656Y013959D01*
X001656Y013819D01*
X001749Y013819D02*
X001469Y013819D01*
X001469Y013959D01*
X001516Y014006D01*
X001656Y014096D02*
X001749Y014189D01*
X001656Y014282D01*
X001609Y013730D02*
X001516Y013730D01*
X001469Y013683D01*
X001469Y013543D01*
X001749Y013543D01*
X001656Y013543D02*
X001656Y013683D01*
X001609Y013730D01*
X001562Y013454D02*
X001656Y013360D01*
X001656Y013314D01*
X001656Y013454D02*
X001469Y013454D01*
X002419Y013095D02*
X002419Y012975D01*
X002419Y013035D02*
X002599Y013035D01*
X002539Y013095D01*
X003669Y013065D02*
X003699Y013095D01*
X003819Y012975D01*
X003699Y012975D01*
X003669Y013005D01*
X003669Y013065D01*
X003699Y013095D02*
X003819Y013095D01*
X003849Y013065D01*
X003849Y013005D01*
X003819Y012975D01*
X004199Y013457D02*
X004169Y013487D01*
X004169Y013577D01*
X004349Y013577D01*
X004349Y013487D01*
X004319Y013457D01*
X004289Y013457D01*
X004259Y013487D01*
X004259Y013577D01*
X004229Y013641D02*
X004199Y013641D01*
X004169Y013671D01*
X004169Y013731D01*
X004199Y013761D01*
X004259Y013731D02*
X004259Y013671D01*
X004229Y013641D01*
X004319Y013641D02*
X004349Y013671D01*
X004349Y013731D01*
X004319Y013761D01*
X004289Y013761D01*
X004259Y013731D01*
X004349Y013825D02*
X004169Y013825D01*
X004169Y013945D02*
X004349Y013945D01*
X004289Y013885D01*
X004349Y013825D01*
X004259Y013487D02*
X004229Y013457D01*
X004199Y013457D01*
X004199Y014607D02*
X004169Y014637D01*
X004169Y014727D01*
X004349Y014727D01*
X004349Y014637D01*
X004319Y014607D01*
X004289Y014607D01*
X004259Y014637D01*
X004259Y014727D01*
X004229Y014791D02*
X004199Y014791D01*
X004169Y014821D01*
X004169Y014881D01*
X004199Y014911D01*
X004259Y014881D02*
X004259Y014821D01*
X004229Y014791D01*
X004319Y014791D02*
X004349Y014821D01*
X004349Y014881D01*
X004319Y014911D01*
X004289Y014911D01*
X004259Y014881D01*
X004169Y014975D02*
X004169Y015095D01*
X004349Y015095D01*
X004259Y014637D02*
X004229Y014607D01*
X004199Y014607D01*
D13*
X003959Y014555D02*
X003959Y015155D01*
X003957Y015172D01*
X003953Y015189D01*
X003946Y015205D01*
X003936Y015219D01*
X003923Y015232D01*
X003909Y015242D01*
X003893Y015249D01*
X003876Y015253D01*
X003859Y015255D01*
X002159Y015255D01*
X002142Y015253D01*
X002125Y015249D01*
X002109Y015242D01*
X002095Y015232D01*
X002082Y015219D01*
X002072Y015205D01*
X002065Y015189D01*
X002061Y015172D01*
X002059Y015155D01*
X002059Y014555D01*
X002061Y014538D01*
X002065Y014521D01*
X002072Y014505D01*
X002082Y014491D01*
X002095Y014478D01*
X002109Y014468D01*
X002125Y014461D01*
X002142Y014457D01*
X002159Y014455D01*
X003859Y014455D01*
X003876Y014457D01*
X003893Y014461D01*
X003909Y014468D01*
X003923Y014478D01*
X003936Y014491D01*
X003946Y014505D01*
X003953Y014521D01*
X003957Y014538D01*
X003959Y014555D01*
X003859Y014105D02*
X002159Y014105D01*
X002142Y014103D01*
X002125Y014099D01*
X002109Y014092D01*
X002095Y014082D01*
X002082Y014069D01*
X002072Y014055D01*
X002065Y014039D01*
X002061Y014022D01*
X002059Y014005D01*
X002059Y013405D01*
X002061Y013388D01*
X002065Y013371D01*
X002072Y013355D01*
X002082Y013341D01*
X002095Y013328D01*
X002109Y013318D01*
X002125Y013311D01*
X002142Y013307D01*
X002159Y013305D01*
X003859Y013305D01*
X003876Y013307D01*
X003893Y013311D01*
X003909Y013318D01*
X003923Y013328D01*
X003936Y013341D01*
X003946Y013355D01*
X003953Y013371D01*
X003957Y013388D01*
X003959Y013405D01*
X003959Y014005D01*
X003957Y014022D01*
X003953Y014039D01*
X003946Y014055D01*
X003936Y014069D01*
X003923Y014082D01*
X003909Y014092D01*
X003893Y014099D01*
X003876Y014103D01*
X003859Y014105D01*
X008559Y018455D02*
X008559Y003855D01*
X010759Y003855D01*
X010759Y018455D01*
X009909Y018455D01*
X009907Y018425D01*
X009902Y018395D01*
X009893Y018366D01*
X009880Y018339D01*
X009865Y018313D01*
X009846Y018289D01*
X009825Y018268D01*
X009801Y018249D01*
X009775Y018234D01*
X009748Y018221D01*
X009719Y018212D01*
X009689Y018207D01*
X009659Y018205D01*
X009629Y018207D01*
X009599Y018212D01*
X009570Y018221D01*
X009543Y018234D01*
X009517Y018249D01*
X009493Y018268D01*
X009472Y018289D01*
X009453Y018313D01*
X009438Y018339D01*
X009425Y018366D01*
X009416Y018395D01*
X009411Y018425D01*
X009409Y018455D01*
X008559Y018455D01*
X008659Y021455D02*
X007659Y021455D01*
X007309Y021455D01*
X006959Y022255D02*
X006959Y022355D01*
X006859Y022355D01*
X006859Y022955D01*
X006959Y022955D01*
X006959Y023055D01*
X007309Y023855D02*
X007709Y023855D01*
X008659Y023855D01*
X009009Y023855D01*
X009359Y023055D02*
X009359Y022955D01*
X009459Y022955D01*
X009459Y022355D01*
X009359Y022355D01*
X009359Y022255D01*
X009009Y021455D02*
X008659Y021455D01*
X008059Y022655D02*
X008061Y022675D01*
X008067Y022693D01*
X008076Y022711D01*
X008088Y022726D01*
X008103Y022738D01*
X008121Y022747D01*
X008139Y022753D01*
X008159Y022755D01*
X008179Y022753D01*
X008197Y022747D01*
X008215Y022738D01*
X008230Y022726D01*
X008242Y022711D01*
X008251Y022693D01*
X008257Y022675D01*
X008259Y022655D01*
X008257Y022635D01*
X008251Y022617D01*
X008242Y022599D01*
X008230Y022584D01*
X008215Y022572D01*
X008197Y022563D01*
X008179Y022557D01*
X008159Y022555D01*
X008139Y022557D01*
X008121Y022563D01*
X008103Y022572D01*
X008088Y022584D01*
X008076Y022599D01*
X008067Y022617D01*
X008061Y022635D01*
X008059Y022655D01*
X007459Y022655D02*
X007461Y022707D01*
X007467Y022759D01*
X007477Y022811D01*
X007490Y022861D01*
X007507Y022911D01*
X007528Y022959D01*
X007553Y023005D01*
X007581Y023049D01*
X007612Y023091D01*
X007646Y023131D01*
X007683Y023168D01*
X007723Y023202D01*
X007765Y023233D01*
X007809Y023261D01*
X007855Y023286D01*
X007903Y023307D01*
X007953Y023324D01*
X008003Y023337D01*
X008055Y023347D01*
X008107Y023353D01*
X008159Y023355D01*
X008211Y023353D01*
X008263Y023347D01*
X008315Y023337D01*
X008365Y023324D01*
X008415Y023307D01*
X008463Y023286D01*
X008509Y023261D01*
X008553Y023233D01*
X008595Y023202D01*
X008635Y023168D01*
X008672Y023131D01*
X008706Y023091D01*
X008737Y023049D01*
X008765Y023005D01*
X008790Y022959D01*
X008811Y022911D01*
X008828Y022861D01*
X008841Y022811D01*
X008851Y022759D01*
X008857Y022707D01*
X008859Y022655D01*
X008857Y022603D01*
X008851Y022551D01*
X008841Y022499D01*
X008828Y022449D01*
X008811Y022399D01*
X008790Y022351D01*
X008765Y022305D01*
X008737Y022261D01*
X008706Y022219D01*
X008672Y022179D01*
X008635Y022142D01*
X008595Y022108D01*
X008553Y022077D01*
X008509Y022049D01*
X008463Y022024D01*
X008415Y022003D01*
X008365Y021986D01*
X008315Y021973D01*
X008263Y021963D01*
X008211Y021957D01*
X008159Y021955D01*
X008107Y021957D01*
X008055Y021963D01*
X008003Y021973D01*
X007953Y021986D01*
X007903Y022003D01*
X007855Y022024D01*
X007809Y022049D01*
X007765Y022077D01*
X007723Y022108D01*
X007683Y022142D01*
X007646Y022179D01*
X007612Y022219D01*
X007581Y022261D01*
X007553Y022305D01*
X007528Y022351D01*
X007507Y022399D01*
X007490Y022449D01*
X007477Y022499D01*
X007467Y022551D01*
X007461Y022603D01*
X007459Y022655D01*
X015659Y020305D02*
X015659Y019555D01*
X015698Y019553D01*
X015737Y019547D01*
X015775Y019538D01*
X015812Y019525D01*
X015848Y019508D01*
X015881Y019488D01*
X015913Y019464D01*
X015942Y019438D01*
X015968Y019409D01*
X015992Y019377D01*
X016012Y019344D01*
X016029Y019308D01*
X016042Y019271D01*
X016051Y019233D01*
X016057Y019194D01*
X016059Y019155D01*
X016057Y019116D01*
X016051Y019077D01*
X016042Y019039D01*
X016029Y019002D01*
X016012Y018966D01*
X015992Y018933D01*
X015968Y018901D01*
X015942Y018872D01*
X015913Y018846D01*
X015881Y018822D01*
X015848Y018802D01*
X015812Y018785D01*
X015775Y018772D01*
X015737Y018763D01*
X015698Y018757D01*
X015659Y018755D01*
X015659Y018005D01*
X023659Y018005D01*
X023659Y020305D01*
X015659Y020305D01*
X018477Y016544D02*
X019184Y015837D01*
X018477Y015130D01*
X024841Y008766D01*
X025548Y009473D01*
X019184Y015837D01*
X018831Y015837D01*
X018477Y015484D02*
X018477Y015130D01*
X017770Y015837D01*
X018124Y015837D01*
X017770Y015837D02*
X018477Y016544D01*
X018477Y016191D01*
X015809Y016155D02*
X013509Y016155D01*
X013509Y008155D01*
X014259Y008155D01*
X014261Y008194D01*
X014267Y008233D01*
X014276Y008271D01*
X014289Y008308D01*
X014306Y008344D01*
X014326Y008377D01*
X014350Y008409D01*
X014376Y008438D01*
X014405Y008464D01*
X014437Y008488D01*
X014470Y008508D01*
X014506Y008525D01*
X014543Y008538D01*
X014581Y008547D01*
X014620Y008553D01*
X014659Y008555D01*
X014698Y008553D01*
X014737Y008547D01*
X014775Y008538D01*
X014812Y008525D01*
X014848Y008508D01*
X014881Y008488D01*
X014913Y008464D01*
X014942Y008438D01*
X014968Y008409D01*
X014992Y008377D01*
X015012Y008344D01*
X015029Y008308D01*
X015042Y008271D01*
X015051Y008233D01*
X015057Y008194D01*
X015059Y008155D01*
X015809Y008155D01*
X015809Y016155D01*
X016659Y007305D02*
X016659Y006555D01*
X016698Y006553D01*
X016737Y006547D01*
X016775Y006538D01*
X016812Y006525D01*
X016848Y006508D01*
X016881Y006488D01*
X016913Y006464D01*
X016942Y006438D01*
X016968Y006409D01*
X016992Y006377D01*
X017012Y006344D01*
X017029Y006308D01*
X017042Y006271D01*
X017051Y006233D01*
X017057Y006194D01*
X017059Y006155D01*
X017057Y006116D01*
X017051Y006077D01*
X017042Y006039D01*
X017029Y006002D01*
X017012Y005966D01*
X016992Y005933D01*
X016968Y005901D01*
X016942Y005872D01*
X016913Y005846D01*
X016881Y005822D01*
X016848Y005802D01*
X016812Y005785D01*
X016775Y005772D01*
X016737Y005763D01*
X016698Y005757D01*
X016659Y005755D01*
X016659Y005005D01*
X024659Y005005D01*
X024659Y007305D01*
X016659Y007305D01*
D14*
X002909Y003655D02*
X002409Y003655D01*
X002159Y003905D01*
X002159Y004405D01*
X002409Y004655D01*
X002159Y004905D01*
X002159Y005405D01*
X002409Y005655D01*
X002159Y005905D01*
X002159Y006405D01*
X002409Y006655D01*
X002909Y006655D01*
X003159Y006405D01*
X003159Y005905D01*
X003409Y005655D01*
X003159Y005405D01*
X003159Y004905D01*
X003409Y004655D01*
X003159Y004405D01*
X003159Y003905D01*
X003409Y003655D01*
X003909Y003655D01*
X004159Y003905D01*
X004159Y004405D01*
X003909Y004655D01*
X004159Y004905D01*
X004159Y005405D01*
X003909Y005655D01*
X004159Y005905D01*
X004159Y006405D01*
X003909Y006655D01*
X003409Y006655D01*
X003159Y006405D01*
X003159Y005905D01*
X002909Y005655D01*
X003159Y005405D01*
X003159Y004905D01*
X002909Y004655D01*
X003159Y004405D01*
X003159Y003905D01*
X002909Y003655D01*
X005259Y004805D02*
X005259Y007505D01*
X005261Y007564D01*
X005267Y007622D01*
X005276Y007681D01*
X005290Y007738D01*
X005307Y007794D01*
X005328Y007849D01*
X005352Y007903D01*
X005380Y007955D01*
X005411Y008005D01*
X005445Y008053D01*
X005482Y008098D01*
X005523Y008141D01*
X005566Y008182D01*
X005611Y008219D01*
X005659Y008253D01*
X005709Y008284D01*
X005761Y008312D01*
X005815Y008336D01*
X005870Y008357D01*
X005926Y008374D01*
X005983Y008388D01*
X006042Y008397D01*
X006100Y008403D01*
X006159Y008405D01*
X006218Y008403D01*
X006276Y008397D01*
X006335Y008388D01*
X006392Y008374D01*
X006448Y008357D01*
X006503Y008336D01*
X006557Y008312D01*
X006609Y008284D01*
X006659Y008253D01*
X006707Y008219D01*
X006752Y008182D01*
X006795Y008141D01*
X006836Y008098D01*
X006873Y008053D01*
X006907Y008005D01*
X006938Y007955D01*
X006966Y007903D01*
X006990Y007849D01*
X007011Y007794D01*
X007028Y007738D01*
X007042Y007681D01*
X007051Y007622D01*
X007057Y007564D01*
X007059Y007505D01*
X007059Y004805D01*
X007057Y004746D01*
X007051Y004688D01*
X007042Y004629D01*
X007028Y004572D01*
X007011Y004516D01*
X006990Y004461D01*
X006966Y004407D01*
X006938Y004355D01*
X006907Y004305D01*
X006873Y004257D01*
X006836Y004212D01*
X006795Y004169D01*
X006752Y004128D01*
X006707Y004091D01*
X006659Y004057D01*
X006609Y004026D01*
X006557Y003998D01*
X006503Y003974D01*
X006448Y003953D01*
X006392Y003936D01*
X006335Y003922D01*
X006276Y003913D01*
X006218Y003907D01*
X006159Y003905D01*
X006100Y003907D01*
X006042Y003913D01*
X005983Y003922D01*
X005926Y003936D01*
X005870Y003953D01*
X005815Y003974D01*
X005761Y003998D01*
X005709Y004026D01*
X005659Y004057D01*
X005611Y004091D01*
X005566Y004128D01*
X005523Y004169D01*
X005482Y004212D01*
X005445Y004257D01*
X005411Y004305D01*
X005380Y004355D01*
X005352Y004407D01*
X005328Y004461D01*
X005307Y004516D01*
X005290Y004572D01*
X005276Y004629D01*
X005267Y004688D01*
X005261Y004746D01*
X005259Y004805D01*
X006159Y003405D02*
X006159Y002905D01*
X003909Y007655D02*
X003409Y007655D01*
X001879Y008155D02*
X001881Y008226D01*
X001887Y008297D01*
X001897Y008368D01*
X001911Y008437D01*
X001928Y008506D01*
X001950Y008574D01*
X001975Y008641D01*
X002004Y008706D01*
X002036Y008769D01*
X002072Y008831D01*
X002111Y008890D01*
X002154Y008947D01*
X002199Y009002D01*
X002248Y009054D01*
X002299Y009103D01*
X002353Y009149D01*
X002410Y009193D01*
X002468Y009233D01*
X002529Y009269D01*
X002592Y009303D01*
X002657Y009332D01*
X002723Y009358D01*
X002791Y009381D01*
X002859Y009399D01*
X002929Y009414D01*
X002999Y009425D01*
X003070Y009432D01*
X003141Y009435D01*
X003212Y009434D01*
X003283Y009429D01*
X003354Y009420D01*
X003424Y009407D01*
X003493Y009391D01*
X003561Y009370D01*
X003628Y009346D01*
X003694Y009318D01*
X003757Y009286D01*
X003819Y009251D01*
X003879Y009213D01*
X003937Y009171D01*
X003992Y009127D01*
X004045Y009079D01*
X004095Y009028D01*
X004142Y008975D01*
X004186Y008919D01*
X004227Y008861D01*
X004265Y008800D01*
X004299Y008738D01*
X004329Y008673D01*
X004356Y008608D01*
X004380Y008540D01*
X004399Y008472D01*
X004415Y008403D01*
X004427Y008332D01*
X004435Y008262D01*
X004439Y008191D01*
X004439Y008119D01*
X004435Y008048D01*
X004427Y007978D01*
X004415Y007907D01*
X004399Y007838D01*
X004380Y007770D01*
X004356Y007702D01*
X004329Y007637D01*
X004299Y007572D01*
X004265Y007510D01*
X004227Y007449D01*
X004186Y007391D01*
X004142Y007335D01*
X004095Y007282D01*
X004045Y007231D01*
X003992Y007183D01*
X003937Y007139D01*
X003879Y007097D01*
X003819Y007059D01*
X003757Y007024D01*
X003694Y006992D01*
X003628Y006964D01*
X003561Y006940D01*
X003493Y006919D01*
X003424Y006903D01*
X003354Y006890D01*
X003283Y006881D01*
X003212Y006876D01*
X003141Y006875D01*
X003070Y006878D01*
X002999Y006885D01*
X002929Y006896D01*
X002859Y006911D01*
X002791Y006929D01*
X002723Y006952D01*
X002657Y006978D01*
X002592Y007007D01*
X002529Y007041D01*
X002468Y007077D01*
X002410Y007117D01*
X002353Y007161D01*
X002299Y007207D01*
X002248Y007256D01*
X002199Y007308D01*
X002154Y007363D01*
X002111Y007420D01*
X002072Y007479D01*
X002036Y007541D01*
X002004Y007604D01*
X001975Y007669D01*
X001950Y007736D01*
X001928Y007804D01*
X001911Y007873D01*
X001897Y007942D01*
X001887Y008013D01*
X001881Y008084D01*
X001879Y008155D01*
X002409Y009655D02*
X002909Y009655D01*
X003159Y009905D01*
X003159Y010405D01*
X003409Y010655D01*
X003159Y010905D01*
X003159Y011405D01*
X003409Y011655D01*
X003159Y011905D01*
X003159Y012405D01*
X003409Y012655D01*
X003909Y012655D01*
X004159Y012405D01*
X004159Y011905D01*
X003909Y011655D01*
X004159Y011405D01*
X004159Y010905D01*
X003909Y010655D01*
X004159Y010405D01*
X004159Y009905D01*
X003909Y009655D01*
X003409Y009655D01*
X003159Y009905D01*
X003159Y010405D01*
X002909Y010655D01*
X003159Y010905D01*
X003159Y011405D01*
X002909Y011655D01*
X003159Y011905D01*
X003159Y012405D01*
X002909Y012655D01*
X002409Y012655D01*
X002159Y012405D01*
X002159Y011905D01*
X002409Y011655D01*
X002159Y011405D01*
X002159Y010905D01*
X002409Y010655D01*
X002159Y010405D01*
X002159Y009905D01*
X002409Y009655D01*
X006159Y009405D02*
X006159Y008905D01*
X006409Y011155D02*
X006909Y011155D01*
X007131Y015415D02*
X006187Y015415D01*
X006187Y017895D01*
X007131Y017895D01*
X007131Y015415D01*
X006131Y015415D02*
X006131Y017895D01*
X005187Y017895D01*
X005187Y015415D01*
X006131Y015415D01*
X004159Y015905D02*
X003909Y015655D01*
X003409Y015655D01*
X003159Y015905D01*
X003159Y016405D01*
X003409Y016655D01*
X003159Y016905D01*
X003159Y017405D01*
X003409Y017655D01*
X003159Y017905D01*
X003159Y018405D01*
X003409Y018655D01*
X003159Y018905D01*
X003159Y019405D01*
X003409Y019655D01*
X003159Y019905D01*
X003159Y020405D01*
X003409Y020655D01*
X003159Y020905D01*
X003159Y021405D01*
X003409Y021655D01*
X003909Y021655D01*
X004159Y021405D01*
X004159Y020905D01*
X003909Y020655D01*
X004159Y020405D01*
X004159Y019905D01*
X003909Y019655D01*
X004159Y019405D01*
X004159Y018905D01*
X003909Y018655D01*
X004159Y018405D01*
X004159Y017905D01*
X003909Y017655D01*
X004159Y017405D01*
X004159Y016905D01*
X003909Y016655D01*
X004159Y016405D01*
X004159Y015905D01*
X006919Y019683D02*
X009399Y019683D01*
X009399Y020628D01*
X006919Y020628D01*
X006919Y019683D01*
X004909Y023155D02*
X004409Y023155D01*
X011379Y019655D02*
X011381Y019726D01*
X011387Y019797D01*
X011397Y019868D01*
X011411Y019937D01*
X011428Y020006D01*
X011450Y020074D01*
X011475Y020141D01*
X011504Y020206D01*
X011536Y020269D01*
X011572Y020331D01*
X011611Y020390D01*
X011654Y020447D01*
X011699Y020502D01*
X011748Y020554D01*
X011799Y020603D01*
X011853Y020649D01*
X011910Y020693D01*
X011968Y020733D01*
X012029Y020769D01*
X012092Y020803D01*
X012157Y020832D01*
X012223Y020858D01*
X012291Y020881D01*
X012359Y020899D01*
X012429Y020914D01*
X012499Y020925D01*
X012570Y020932D01*
X012641Y020935D01*
X012712Y020934D01*
X012783Y020929D01*
X012854Y020920D01*
X012924Y020907D01*
X012993Y020891D01*
X013061Y020870D01*
X013128Y020846D01*
X013194Y020818D01*
X013257Y020786D01*
X013319Y020751D01*
X013379Y020713D01*
X013437Y020671D01*
X013492Y020627D01*
X013545Y020579D01*
X013595Y020528D01*
X013642Y020475D01*
X013686Y020419D01*
X013727Y020361D01*
X013765Y020300D01*
X013799Y020238D01*
X013829Y020173D01*
X013856Y020108D01*
X013880Y020040D01*
X013899Y019972D01*
X013915Y019903D01*
X013927Y019832D01*
X013935Y019762D01*
X013939Y019691D01*
X013939Y019619D01*
X013935Y019548D01*
X013927Y019478D01*
X013915Y019407D01*
X013899Y019338D01*
X013880Y019270D01*
X013856Y019202D01*
X013829Y019137D01*
X013799Y019072D01*
X013765Y019010D01*
X013727Y018949D01*
X013686Y018891D01*
X013642Y018835D01*
X013595Y018782D01*
X013545Y018731D01*
X013492Y018683D01*
X013437Y018639D01*
X013379Y018597D01*
X013319Y018559D01*
X013257Y018524D01*
X013194Y018492D01*
X013128Y018464D01*
X013061Y018440D01*
X012993Y018419D01*
X012924Y018403D01*
X012854Y018390D01*
X012783Y018381D01*
X012712Y018376D01*
X012641Y018375D01*
X012570Y018378D01*
X012499Y018385D01*
X012429Y018396D01*
X012359Y018411D01*
X012291Y018429D01*
X012223Y018452D01*
X012157Y018478D01*
X012092Y018507D01*
X012029Y018541D01*
X011968Y018577D01*
X011910Y018617D01*
X011853Y018661D01*
X011799Y018707D01*
X011748Y018756D01*
X011699Y018808D01*
X011654Y018863D01*
X011611Y018920D01*
X011572Y018979D01*
X011536Y019041D01*
X011504Y019104D01*
X011475Y019169D01*
X011450Y019236D01*
X011428Y019304D01*
X011411Y019373D01*
X011397Y019442D01*
X011387Y019513D01*
X011381Y019584D01*
X011379Y019655D01*
X013159Y019905D02*
X013159Y020405D01*
X014909Y020155D02*
X015409Y020155D01*
X024139Y021292D02*
X026679Y021292D01*
X026679Y021322D02*
X026679Y023692D01*
X024139Y023692D01*
X024139Y021292D01*
X024139Y018118D02*
X026679Y018118D01*
X026679Y015718D01*
X024139Y015718D01*
X024139Y018088D01*
X027909Y013155D02*
X028409Y013155D01*
X027379Y012655D02*
X027381Y012726D01*
X027387Y012797D01*
X027397Y012868D01*
X027411Y012937D01*
X027428Y013006D01*
X027450Y013074D01*
X027475Y013141D01*
X027504Y013206D01*
X027536Y013269D01*
X027572Y013331D01*
X027611Y013390D01*
X027654Y013447D01*
X027699Y013502D01*
X027748Y013554D01*
X027799Y013603D01*
X027853Y013649D01*
X027910Y013693D01*
X027968Y013733D01*
X028029Y013769D01*
X028092Y013803D01*
X028157Y013832D01*
X028223Y013858D01*
X028291Y013881D01*
X028359Y013899D01*
X028429Y013914D01*
X028499Y013925D01*
X028570Y013932D01*
X028641Y013935D01*
X028712Y013934D01*
X028783Y013929D01*
X028854Y013920D01*
X028924Y013907D01*
X028993Y013891D01*
X029061Y013870D01*
X029128Y013846D01*
X029194Y013818D01*
X029257Y013786D01*
X029319Y013751D01*
X029379Y013713D01*
X029437Y013671D01*
X029492Y013627D01*
X029545Y013579D01*
X029595Y013528D01*
X029642Y013475D01*
X029686Y013419D01*
X029727Y013361D01*
X029765Y013300D01*
X029799Y013238D01*
X029829Y013173D01*
X029856Y013108D01*
X029880Y013040D01*
X029899Y012972D01*
X029915Y012903D01*
X029927Y012832D01*
X029935Y012762D01*
X029939Y012691D01*
X029939Y012619D01*
X029935Y012548D01*
X029927Y012478D01*
X029915Y012407D01*
X029899Y012338D01*
X029880Y012270D01*
X029856Y012202D01*
X029829Y012137D01*
X029799Y012072D01*
X029765Y012010D01*
X029727Y011949D01*
X029686Y011891D01*
X029642Y011835D01*
X029595Y011782D01*
X029545Y011731D01*
X029492Y011683D01*
X029437Y011639D01*
X029379Y011597D01*
X029319Y011559D01*
X029257Y011524D01*
X029194Y011492D01*
X029128Y011464D01*
X029061Y011440D01*
X028993Y011419D01*
X028924Y011403D01*
X028854Y011390D01*
X028783Y011381D01*
X028712Y011376D01*
X028641Y011375D01*
X028570Y011378D01*
X028499Y011385D01*
X028429Y011396D01*
X028359Y011411D01*
X028291Y011429D01*
X028223Y011452D01*
X028157Y011478D01*
X028092Y011507D01*
X028029Y011541D01*
X027968Y011577D01*
X027910Y011617D01*
X027853Y011661D01*
X027799Y011707D01*
X027748Y011756D01*
X027699Y011808D01*
X027654Y011863D01*
X027611Y011920D01*
X027572Y011979D01*
X027536Y012041D01*
X027504Y012104D01*
X027475Y012169D01*
X027450Y012236D01*
X027428Y012304D01*
X027411Y012373D01*
X027397Y012442D01*
X027387Y012513D01*
X027381Y012584D01*
X027379Y012655D01*
X016409Y006155D02*
X015909Y006155D01*
X014159Y007405D02*
X014159Y007905D01*
X013131Y005495D02*
X012187Y005495D01*
X012187Y003015D01*
X013131Y003015D01*
X013131Y005495D01*
X014379Y002155D02*
X014381Y002226D01*
X014387Y002297D01*
X014397Y002368D01*
X014411Y002437D01*
X014428Y002506D01*
X014450Y002574D01*
X014475Y002641D01*
X014504Y002706D01*
X014536Y002769D01*
X014572Y002831D01*
X014611Y002890D01*
X014654Y002947D01*
X014699Y003002D01*
X014748Y003054D01*
X014799Y003103D01*
X014853Y003149D01*
X014910Y003193D01*
X014968Y003233D01*
X015029Y003269D01*
X015092Y003303D01*
X015157Y003332D01*
X015223Y003358D01*
X015291Y003381D01*
X015359Y003399D01*
X015429Y003414D01*
X015499Y003425D01*
X015570Y003432D01*
X015641Y003435D01*
X015712Y003434D01*
X015783Y003429D01*
X015854Y003420D01*
X015924Y003407D01*
X015993Y003391D01*
X016061Y003370D01*
X016128Y003346D01*
X016194Y003318D01*
X016257Y003286D01*
X016319Y003251D01*
X016379Y003213D01*
X016437Y003171D01*
X016492Y003127D01*
X016545Y003079D01*
X016595Y003028D01*
X016642Y002975D01*
X016686Y002919D01*
X016727Y002861D01*
X016765Y002800D01*
X016799Y002738D01*
X016829Y002673D01*
X016856Y002608D01*
X016880Y002540D01*
X016899Y002472D01*
X016915Y002403D01*
X016927Y002332D01*
X016935Y002262D01*
X016939Y002191D01*
X016939Y002119D01*
X016935Y002048D01*
X016927Y001978D01*
X016915Y001907D01*
X016899Y001838D01*
X016880Y001770D01*
X016856Y001702D01*
X016829Y001637D01*
X016799Y001572D01*
X016765Y001510D01*
X016727Y001449D01*
X016686Y001391D01*
X016642Y001335D01*
X016595Y001282D01*
X016545Y001231D01*
X016492Y001183D01*
X016437Y001139D01*
X016379Y001097D01*
X016319Y001059D01*
X016257Y001024D01*
X016194Y000992D01*
X016128Y000964D01*
X016061Y000940D01*
X015993Y000919D01*
X015924Y000903D01*
X015854Y000890D01*
X015783Y000881D01*
X015712Y000876D01*
X015641Y000875D01*
X015570Y000878D01*
X015499Y000885D01*
X015429Y000896D01*
X015359Y000911D01*
X015291Y000929D01*
X015223Y000952D01*
X015157Y000978D01*
X015092Y001007D01*
X015029Y001041D01*
X014968Y001077D01*
X014910Y001117D01*
X014853Y001161D01*
X014799Y001207D01*
X014748Y001256D01*
X014699Y001308D01*
X014654Y001363D01*
X014611Y001420D01*
X014572Y001479D01*
X014536Y001541D01*
X014504Y001604D01*
X014475Y001669D01*
X014450Y001736D01*
X014428Y001804D01*
X014411Y001873D01*
X014397Y001942D01*
X014387Y002013D01*
X014381Y002084D01*
X014379Y002155D01*
X015159Y001905D02*
X015159Y001405D01*
X018909Y002655D02*
X019409Y002655D01*
X018379Y002155D02*
X018381Y002226D01*
X018387Y002297D01*
X018397Y002368D01*
X018411Y002437D01*
X018428Y002506D01*
X018450Y002574D01*
X018475Y002641D01*
X018504Y002706D01*
X018536Y002769D01*
X018572Y002831D01*
X018611Y002890D01*
X018654Y002947D01*
X018699Y003002D01*
X018748Y003054D01*
X018799Y003103D01*
X018853Y003149D01*
X018910Y003193D01*
X018968Y003233D01*
X019029Y003269D01*
X019092Y003303D01*
X019157Y003332D01*
X019223Y003358D01*
X019291Y003381D01*
X019359Y003399D01*
X019429Y003414D01*
X019499Y003425D01*
X019570Y003432D01*
X019641Y003435D01*
X019712Y003434D01*
X019783Y003429D01*
X019854Y003420D01*
X019924Y003407D01*
X019993Y003391D01*
X020061Y003370D01*
X020128Y003346D01*
X020194Y003318D01*
X020257Y003286D01*
X020319Y003251D01*
X020379Y003213D01*
X020437Y003171D01*
X020492Y003127D01*
X020545Y003079D01*
X020595Y003028D01*
X020642Y002975D01*
X020686Y002919D01*
X020727Y002861D01*
X020765Y002800D01*
X020799Y002738D01*
X020829Y002673D01*
X020856Y002608D01*
X020880Y002540D01*
X020899Y002472D01*
X020915Y002403D01*
X020927Y002332D01*
X020935Y002262D01*
X020939Y002191D01*
X020939Y002119D01*
X020935Y002048D01*
X020927Y001978D01*
X020915Y001907D01*
X020899Y001838D01*
X020880Y001770D01*
X020856Y001702D01*
X020829Y001637D01*
X020799Y001572D01*
X020765Y001510D01*
X020727Y001449D01*
X020686Y001391D01*
X020642Y001335D01*
X020595Y001282D01*
X020545Y001231D01*
X020492Y001183D01*
X020437Y001139D01*
X020379Y001097D01*
X020319Y001059D01*
X020257Y001024D01*
X020194Y000992D01*
X020128Y000964D01*
X020061Y000940D01*
X019993Y000919D01*
X019924Y000903D01*
X019854Y000890D01*
X019783Y000881D01*
X019712Y000876D01*
X019641Y000875D01*
X019570Y000878D01*
X019499Y000885D01*
X019429Y000896D01*
X019359Y000911D01*
X019291Y000929D01*
X019223Y000952D01*
X019157Y000978D01*
X019092Y001007D01*
X019029Y001041D01*
X018968Y001077D01*
X018910Y001117D01*
X018853Y001161D01*
X018799Y001207D01*
X018748Y001256D01*
X018699Y001308D01*
X018654Y001363D01*
X018611Y001420D01*
X018572Y001479D01*
X018536Y001541D01*
X018504Y001604D01*
X018475Y001669D01*
X018450Y001736D01*
X018428Y001804D01*
X018411Y001873D01*
X018397Y001942D01*
X018387Y002013D01*
X018381Y002084D01*
X018379Y002155D01*
D15*
X015639Y005847D02*
X015539Y005947D01*
X015639Y005947D01*
X015664Y005922D01*
X015664Y005872D01*
X015639Y005847D01*
X015539Y005847D01*
X015514Y005872D01*
X015514Y005922D01*
X015539Y005947D01*
X015639Y005994D02*
X015639Y006019D01*
X015664Y006019D01*
X015664Y005994D01*
X015639Y005994D01*
X015664Y006068D02*
X015664Y006168D01*
X015664Y006118D02*
X015514Y006118D01*
X015564Y006068D01*
X015564Y006215D02*
X015639Y006215D01*
X015664Y006240D01*
X015664Y006316D01*
X015564Y006316D01*
X015589Y006363D02*
X015589Y006413D01*
X015514Y006363D02*
X015514Y006463D01*
X015514Y006363D02*
X015664Y006363D01*
X013067Y007650D02*
X012967Y007650D01*
X012967Y007500D01*
X012919Y007500D02*
X012919Y007600D01*
X012967Y007575D02*
X013017Y007575D01*
X012919Y007500D02*
X012844Y007500D01*
X012819Y007525D01*
X012819Y007600D01*
X012722Y007650D02*
X012722Y007500D01*
X012672Y007500D02*
X012772Y007500D01*
X012672Y007600D02*
X012722Y007650D01*
X012623Y007525D02*
X012623Y007500D01*
X012598Y007500D01*
X012598Y007525D01*
X012623Y007525D01*
X012551Y007525D02*
X012526Y007500D01*
X012476Y007500D01*
X012451Y007525D01*
X012551Y007625D01*
X012551Y007525D01*
X012451Y007525D02*
X012451Y007625D01*
X012476Y007650D01*
X012526Y007650D01*
X012551Y007625D01*
X007254Y010785D02*
X007229Y010760D01*
X007129Y010860D01*
X007229Y010860D01*
X007254Y010835D01*
X007254Y010785D01*
X007229Y010760D02*
X007129Y010760D01*
X007104Y010785D01*
X007104Y010835D01*
X007129Y010860D01*
X007229Y010907D02*
X007229Y010932D01*
X007254Y010932D01*
X007254Y010907D01*
X007229Y010907D01*
X007254Y010981D02*
X007254Y011081D01*
X007254Y011031D02*
X007104Y011031D01*
X007154Y010981D01*
X007154Y011128D02*
X007229Y011128D01*
X007254Y011153D01*
X007254Y011229D01*
X007154Y011229D01*
X007179Y011276D02*
X007179Y011326D01*
X007104Y011276D02*
X007104Y011376D01*
X007104Y011276D02*
X007254Y011276D01*
X006556Y009860D02*
X006456Y009860D01*
X006456Y009710D01*
X006409Y009735D02*
X006384Y009710D01*
X006309Y009710D01*
X006261Y009710D02*
X006161Y009710D01*
X006261Y009810D01*
X006261Y009835D01*
X006236Y009860D01*
X006186Y009860D01*
X006161Y009835D01*
X006114Y009835D02*
X006089Y009860D01*
X006039Y009860D01*
X006014Y009835D01*
X006114Y009835D02*
X006114Y009810D01*
X006014Y009710D01*
X006114Y009710D01*
X006309Y009660D02*
X006309Y009810D01*
X006384Y009810D01*
X006409Y009785D01*
X006409Y009735D01*
X006456Y009785D02*
X006506Y009785D01*
X006416Y002600D02*
X006391Y002575D01*
X006391Y002450D01*
X006366Y002525D02*
X006416Y002525D01*
X006319Y002525D02*
X006319Y002575D01*
X006294Y002600D01*
X006219Y002600D01*
X006219Y002450D01*
X006171Y002450D02*
X006071Y002450D01*
X006171Y002550D01*
X006171Y002575D01*
X006146Y002600D01*
X006096Y002600D01*
X006071Y002575D01*
X006024Y002575D02*
X005999Y002600D01*
X005949Y002600D01*
X005924Y002575D01*
X006024Y002575D02*
X006024Y002550D01*
X005924Y002450D01*
X006024Y002450D01*
X006219Y002500D02*
X006294Y002500D01*
X006319Y002525D01*
X015629Y019810D02*
X015604Y019835D01*
X015604Y019885D01*
X015629Y019910D01*
X015729Y019810D01*
X015754Y019835D01*
X015754Y019885D01*
X015729Y019910D01*
X015629Y019910D01*
X015629Y019810D02*
X015729Y019810D01*
X015729Y019957D02*
X015729Y019982D01*
X015754Y019982D01*
X015754Y019957D01*
X015729Y019957D01*
X015754Y020031D02*
X015754Y020131D01*
X015754Y020081D02*
X015604Y020081D01*
X015654Y020031D01*
X015654Y020178D02*
X015729Y020178D01*
X015754Y020203D01*
X015754Y020279D01*
X015654Y020279D01*
X015679Y020326D02*
X015679Y020376D01*
X015604Y020326D02*
X015604Y020426D01*
X015604Y020326D02*
X015754Y020326D01*
D16*
X016659Y022155D02*
X016659Y022655D01*
X011659Y022655D01*
X011659Y022155D01*
X011159Y022155D01*
X011159Y024355D01*
X017159Y024355D01*
X017159Y022155D01*
X016659Y022155D01*
X011659Y022155D01*
X027159Y024655D02*
X027159Y018155D01*
X027159Y019155D02*
X027159Y014655D01*
X030659Y014655D01*
X030659Y019155D01*
X030659Y018155D02*
X030659Y024655D01*
X027159Y024655D01*
X027159Y010655D02*
X030659Y010655D01*
X030659Y004155D01*
X030659Y005155D02*
X030659Y000655D01*
X027159Y000655D01*
X027159Y005155D01*
X027159Y004155D02*
X027159Y010655D01*
M02*
