G75*
G70*
%OFA0B0*%
%FSLAX24Y24*%
%IPPOS*%
%LPD*%
%AMOC8*
5,1,8,0,0,1.08239X$1,22.5*
%
%ADD10C,0.0050*%
%ADD11C,0.0080*%
D10*
X024112Y019330D02*
X024312Y019330D01*
X024434Y019280D02*
X024434Y019480D01*
X024434Y019280D02*
X024534Y019180D01*
X024634Y019280D01*
X024634Y019480D01*
X024212Y019430D02*
X024212Y019230D01*
X024162Y020180D02*
X024112Y020230D01*
X024112Y020430D01*
X024162Y020480D01*
X024312Y020480D01*
X024312Y020180D01*
X024162Y020180D01*
X023990Y020180D02*
X023990Y020380D01*
X023889Y020480D01*
X023789Y020380D01*
X023789Y020180D01*
X023789Y020330D02*
X023990Y020330D01*
X024434Y020280D02*
X024434Y020230D01*
X024484Y020180D01*
X024584Y020180D01*
X024634Y020230D01*
X024584Y020330D02*
X024484Y020330D01*
X024434Y020280D01*
X024434Y020430D02*
X024484Y020480D01*
X024584Y020480D01*
X024634Y020430D01*
X024634Y020380D01*
X024584Y020330D01*
X024584Y021180D02*
X024484Y021180D01*
X024434Y021230D01*
X024434Y021280D01*
X024484Y021330D01*
X024584Y021330D01*
X024634Y021380D01*
X024634Y021430D01*
X024584Y021480D01*
X024484Y021480D01*
X024434Y021430D01*
X024312Y021430D02*
X024312Y021230D01*
X024262Y021180D01*
X024162Y021180D01*
X024112Y021230D01*
X023990Y021180D02*
X023789Y021180D01*
X023990Y021180D02*
X023990Y021480D01*
X024112Y021430D02*
X024162Y021480D01*
X024262Y021480D01*
X024312Y021430D01*
X024584Y021180D02*
X024634Y021230D01*
X024584Y022180D02*
X024484Y022180D01*
X024434Y022230D01*
X024434Y022330D01*
X024534Y022330D01*
X024634Y022230D02*
X024584Y022180D01*
X024634Y022230D02*
X024634Y022430D01*
X024584Y022480D01*
X024484Y022480D01*
X024434Y022430D01*
X024312Y022480D02*
X024112Y022180D01*
X024112Y022480D01*
X023990Y022480D02*
X023839Y022480D01*
X023789Y022430D01*
X023789Y022230D01*
X023839Y022180D01*
X023990Y022180D01*
X023990Y022480D01*
X024312Y022480D02*
X024312Y022180D01*
X024534Y023180D02*
X024434Y023280D01*
X024434Y023480D01*
X024312Y023330D02*
X024112Y023330D01*
X024212Y023430D02*
X024212Y023230D01*
X024534Y023180D02*
X024634Y023280D01*
X024634Y023480D01*
X024534Y024180D02*
X024434Y024280D01*
X024434Y024480D01*
X024312Y024430D02*
X024312Y024230D01*
X024262Y024180D01*
X024162Y024180D01*
X024112Y024230D01*
X023990Y024230D02*
X023940Y024180D01*
X023839Y024180D01*
X023789Y024230D01*
X023789Y024430D02*
X023839Y024480D01*
X023940Y024480D01*
X023990Y024430D01*
X023990Y024230D01*
X024112Y024430D02*
X024162Y024480D01*
X024262Y024480D01*
X024312Y024430D01*
X024634Y024480D02*
X024634Y024280D01*
X024534Y024180D01*
D11*
X029699Y023015D02*
X029699Y022735D01*
X029699Y022875D02*
X030119Y022875D01*
X029979Y022735D01*
X030119Y022555D02*
X029699Y022555D01*
X029699Y022274D02*
X030119Y022274D01*
X029979Y022414D01*
X030119Y022555D01*
X030049Y020265D02*
X029769Y020265D01*
X029699Y020195D01*
X029699Y019985D01*
X030119Y019985D01*
X030119Y020195D01*
X030049Y020265D01*
X030119Y019805D02*
X029699Y019805D01*
X030119Y019524D01*
X029699Y019524D01*
X029769Y019344D02*
X029909Y019344D01*
X029909Y019204D01*
X029769Y019064D02*
X029699Y019134D01*
X029699Y019274D01*
X029769Y019344D01*
X029769Y019064D02*
X030049Y019064D01*
X030119Y019134D01*
X030119Y019274D01*
X030049Y019344D01*
X030049Y017015D02*
X030119Y016945D01*
X030119Y016805D01*
X030049Y016735D01*
X030119Y016555D02*
X029699Y016555D01*
X029699Y016735D02*
X029979Y017015D01*
X030049Y017015D01*
X029699Y017015D02*
X029699Y016735D01*
X029979Y016414D02*
X030119Y016555D01*
X029979Y016414D02*
X030119Y016274D01*
X029699Y016274D01*
X029769Y009015D02*
X029699Y008945D01*
X029699Y008805D01*
X029769Y008735D01*
X029699Y008555D02*
X030119Y008555D01*
X029979Y008414D01*
X030119Y008274D01*
X029699Y008274D01*
X030049Y008735D02*
X030119Y008805D01*
X030119Y008945D01*
X030049Y009015D01*
X029979Y009015D01*
X029909Y008945D01*
X029839Y009015D01*
X029769Y009015D01*
X029909Y008945D02*
X029909Y008875D01*
X029769Y006215D02*
X030049Y006215D01*
X030119Y006145D01*
X030119Y005935D01*
X029699Y005935D01*
X029699Y006145D01*
X029769Y006215D01*
X029699Y005755D02*
X030119Y005755D01*
X030119Y005474D02*
X029699Y005474D01*
X029769Y005294D02*
X029909Y005294D01*
X029909Y005154D01*
X029769Y005014D02*
X029699Y005084D01*
X029699Y005224D01*
X029769Y005294D01*
X029769Y005014D02*
X030049Y005014D01*
X030119Y005084D01*
X030119Y005224D01*
X030049Y005294D01*
X030119Y005474D02*
X029699Y005755D01*
X029909Y003015D02*
X029909Y002735D01*
X030119Y002945D01*
X029699Y002945D01*
X029699Y002555D02*
X030119Y002555D01*
X029979Y002414D01*
X030119Y002274D01*
X029699Y002274D01*
M02*
