G75*
G70*
%OFA0B0*%
%FSLAX24Y24*%
%IPPOS*%
%LPD*%
%AMOC8*
5,1,8,0,0,1.08239X$1,22.5*
%
%ADD10C,0.0080*%
%ADD11C,0.0060*%
%ADD12C,0.0050*%
%ADD13C,0.0030*%
%ADD14C,0.0010*%
%ADD15C,0.0020*%
D10*
X005875Y002655D02*
X005877Y002726D01*
X005883Y002797D01*
X005893Y002868D01*
X005907Y002937D01*
X005924Y003006D01*
X005946Y003074D01*
X005971Y003141D01*
X006000Y003206D01*
X006032Y003269D01*
X006068Y003331D01*
X006107Y003390D01*
X006150Y003447D01*
X006195Y003502D01*
X006244Y003554D01*
X006295Y003603D01*
X006349Y003649D01*
X006406Y003693D01*
X006464Y003733D01*
X006525Y003769D01*
X006588Y003803D01*
X006653Y003832D01*
X006719Y003858D01*
X006787Y003881D01*
X006855Y003899D01*
X006925Y003914D01*
X006995Y003925D01*
X007066Y003932D01*
X007137Y003935D01*
X007208Y003934D01*
X007279Y003929D01*
X007350Y003920D01*
X007420Y003907D01*
X007489Y003891D01*
X007557Y003870D01*
X007624Y003846D01*
X007690Y003818D01*
X007753Y003786D01*
X007815Y003751D01*
X007875Y003713D01*
X007933Y003671D01*
X007988Y003627D01*
X008041Y003579D01*
X008091Y003528D01*
X008138Y003475D01*
X008182Y003419D01*
X008223Y003361D01*
X008261Y003300D01*
X008295Y003238D01*
X008325Y003173D01*
X008352Y003108D01*
X008376Y003040D01*
X008395Y002972D01*
X008411Y002903D01*
X008423Y002832D01*
X008431Y002762D01*
X008435Y002691D01*
X008435Y002619D01*
X008431Y002548D01*
X008423Y002478D01*
X008411Y002407D01*
X008395Y002338D01*
X008376Y002270D01*
X008352Y002202D01*
X008325Y002137D01*
X008295Y002072D01*
X008261Y002010D01*
X008223Y001949D01*
X008182Y001891D01*
X008138Y001835D01*
X008091Y001782D01*
X008041Y001731D01*
X007988Y001683D01*
X007933Y001639D01*
X007875Y001597D01*
X007815Y001559D01*
X007753Y001524D01*
X007690Y001492D01*
X007624Y001464D01*
X007557Y001440D01*
X007489Y001419D01*
X007420Y001403D01*
X007350Y001390D01*
X007279Y001381D01*
X007208Y001376D01*
X007137Y001375D01*
X007066Y001378D01*
X006995Y001385D01*
X006925Y001396D01*
X006855Y001411D01*
X006787Y001429D01*
X006719Y001452D01*
X006653Y001478D01*
X006588Y001507D01*
X006525Y001541D01*
X006464Y001577D01*
X006406Y001617D01*
X006349Y001661D01*
X006295Y001707D01*
X006244Y001756D01*
X006195Y001808D01*
X006150Y001863D01*
X006107Y001920D01*
X006068Y001979D01*
X006032Y002041D01*
X006000Y002104D01*
X005971Y002169D01*
X005946Y002236D01*
X005924Y002304D01*
X005907Y002373D01*
X005893Y002442D01*
X005883Y002513D01*
X005877Y002584D01*
X005875Y002655D01*
X007405Y002155D02*
X007905Y002155D01*
X010683Y003015D02*
X010683Y005495D01*
X011628Y005495D01*
X011628Y003015D01*
X010683Y003015D01*
X013155Y003405D02*
X013155Y003905D01*
X012375Y004155D02*
X012377Y004226D01*
X012383Y004297D01*
X012393Y004368D01*
X012407Y004437D01*
X012424Y004506D01*
X012446Y004574D01*
X012471Y004641D01*
X012500Y004706D01*
X012532Y004769D01*
X012568Y004831D01*
X012607Y004890D01*
X012650Y004947D01*
X012695Y005002D01*
X012744Y005054D01*
X012795Y005103D01*
X012849Y005149D01*
X012906Y005193D01*
X012964Y005233D01*
X013025Y005269D01*
X013088Y005303D01*
X013153Y005332D01*
X013219Y005358D01*
X013287Y005381D01*
X013355Y005399D01*
X013425Y005414D01*
X013495Y005425D01*
X013566Y005432D01*
X013637Y005435D01*
X013708Y005434D01*
X013779Y005429D01*
X013850Y005420D01*
X013920Y005407D01*
X013989Y005391D01*
X014057Y005370D01*
X014124Y005346D01*
X014190Y005318D01*
X014253Y005286D01*
X014315Y005251D01*
X014375Y005213D01*
X014433Y005171D01*
X014488Y005127D01*
X014541Y005079D01*
X014591Y005028D01*
X014638Y004975D01*
X014682Y004919D01*
X014723Y004861D01*
X014761Y004800D01*
X014795Y004738D01*
X014825Y004673D01*
X014852Y004608D01*
X014876Y004540D01*
X014895Y004472D01*
X014911Y004403D01*
X014923Y004332D01*
X014931Y004262D01*
X014935Y004191D01*
X014935Y004119D01*
X014931Y004048D01*
X014923Y003978D01*
X014911Y003907D01*
X014895Y003838D01*
X014876Y003770D01*
X014852Y003702D01*
X014825Y003637D01*
X014795Y003572D01*
X014761Y003510D01*
X014723Y003449D01*
X014682Y003391D01*
X014638Y003335D01*
X014591Y003282D01*
X014541Y003231D01*
X014488Y003183D01*
X014433Y003139D01*
X014375Y003097D01*
X014315Y003059D01*
X014253Y003024D01*
X014190Y002992D01*
X014124Y002964D01*
X014057Y002940D01*
X013989Y002919D01*
X013920Y002903D01*
X013850Y002890D01*
X013779Y002881D01*
X013708Y002876D01*
X013637Y002875D01*
X013566Y002878D01*
X013495Y002885D01*
X013425Y002896D01*
X013355Y002911D01*
X013287Y002929D01*
X013219Y002952D01*
X013153Y002978D01*
X013088Y003007D01*
X013025Y003041D01*
X012964Y003077D01*
X012906Y003117D01*
X012849Y003161D01*
X012795Y003207D01*
X012744Y003256D01*
X012695Y003308D01*
X012650Y003363D01*
X012607Y003420D01*
X012568Y003479D01*
X012532Y003541D01*
X012500Y003604D01*
X012471Y003669D01*
X012446Y003736D01*
X012424Y003804D01*
X012407Y003873D01*
X012393Y003942D01*
X012383Y004013D01*
X012377Y004084D01*
X012375Y004155D01*
X015405Y006655D02*
X015905Y006655D01*
X013155Y008405D02*
X013155Y008905D01*
X018405Y003155D02*
X018905Y003155D01*
X017875Y002655D02*
X017877Y002726D01*
X017883Y002797D01*
X017893Y002868D01*
X017907Y002937D01*
X017924Y003006D01*
X017946Y003074D01*
X017971Y003141D01*
X018000Y003206D01*
X018032Y003269D01*
X018068Y003331D01*
X018107Y003390D01*
X018150Y003447D01*
X018195Y003502D01*
X018244Y003554D01*
X018295Y003603D01*
X018349Y003649D01*
X018406Y003693D01*
X018464Y003733D01*
X018525Y003769D01*
X018588Y003803D01*
X018653Y003832D01*
X018719Y003858D01*
X018787Y003881D01*
X018855Y003899D01*
X018925Y003914D01*
X018995Y003925D01*
X019066Y003932D01*
X019137Y003935D01*
X019208Y003934D01*
X019279Y003929D01*
X019350Y003920D01*
X019420Y003907D01*
X019489Y003891D01*
X019557Y003870D01*
X019624Y003846D01*
X019690Y003818D01*
X019753Y003786D01*
X019815Y003751D01*
X019875Y003713D01*
X019933Y003671D01*
X019988Y003627D01*
X020041Y003579D01*
X020091Y003528D01*
X020138Y003475D01*
X020182Y003419D01*
X020223Y003361D01*
X020261Y003300D01*
X020295Y003238D01*
X020325Y003173D01*
X020352Y003108D01*
X020376Y003040D01*
X020395Y002972D01*
X020411Y002903D01*
X020423Y002832D01*
X020431Y002762D01*
X020435Y002691D01*
X020435Y002619D01*
X020431Y002548D01*
X020423Y002478D01*
X020411Y002407D01*
X020395Y002338D01*
X020376Y002270D01*
X020352Y002202D01*
X020325Y002137D01*
X020295Y002072D01*
X020261Y002010D01*
X020223Y001949D01*
X020182Y001891D01*
X020138Y001835D01*
X020091Y001782D01*
X020041Y001731D01*
X019988Y001683D01*
X019933Y001639D01*
X019875Y001597D01*
X019815Y001559D01*
X019753Y001524D01*
X019690Y001492D01*
X019624Y001464D01*
X019557Y001440D01*
X019489Y001419D01*
X019420Y001403D01*
X019350Y001390D01*
X019279Y001381D01*
X019208Y001376D01*
X019137Y001375D01*
X019066Y001378D01*
X018995Y001385D01*
X018925Y001396D01*
X018855Y001411D01*
X018787Y001429D01*
X018719Y001452D01*
X018653Y001478D01*
X018588Y001507D01*
X018525Y001541D01*
X018464Y001577D01*
X018406Y001617D01*
X018349Y001661D01*
X018295Y001707D01*
X018244Y001756D01*
X018195Y001808D01*
X018150Y001863D01*
X018107Y001920D01*
X018068Y001979D01*
X018032Y002041D01*
X018000Y002104D01*
X017971Y002169D01*
X017946Y002236D01*
X017924Y002304D01*
X017907Y002373D01*
X017893Y002442D01*
X017883Y002513D01*
X017877Y002584D01*
X017875Y002655D01*
X025905Y002155D02*
X026405Y002155D01*
X026405Y004155D02*
X025905Y004155D01*
X025905Y007155D02*
X026405Y007155D01*
X026405Y009155D02*
X025905Y009155D01*
X023375Y012655D02*
X023377Y012726D01*
X023383Y012797D01*
X023393Y012868D01*
X023407Y012937D01*
X023424Y013006D01*
X023446Y013074D01*
X023471Y013141D01*
X023500Y013206D01*
X023532Y013269D01*
X023568Y013331D01*
X023607Y013390D01*
X023650Y013447D01*
X023695Y013502D01*
X023744Y013554D01*
X023795Y013603D01*
X023849Y013649D01*
X023906Y013693D01*
X023964Y013733D01*
X024025Y013769D01*
X024088Y013803D01*
X024153Y013832D01*
X024219Y013858D01*
X024287Y013881D01*
X024355Y013899D01*
X024425Y013914D01*
X024495Y013925D01*
X024566Y013932D01*
X024637Y013935D01*
X024708Y013934D01*
X024779Y013929D01*
X024850Y013920D01*
X024920Y013907D01*
X024989Y013891D01*
X025057Y013870D01*
X025124Y013846D01*
X025190Y013818D01*
X025253Y013786D01*
X025315Y013751D01*
X025375Y013713D01*
X025433Y013671D01*
X025488Y013627D01*
X025541Y013579D01*
X025591Y013528D01*
X025638Y013475D01*
X025682Y013419D01*
X025723Y013361D01*
X025761Y013300D01*
X025795Y013238D01*
X025825Y013173D01*
X025852Y013108D01*
X025876Y013040D01*
X025895Y012972D01*
X025911Y012903D01*
X025923Y012832D01*
X025931Y012762D01*
X025935Y012691D01*
X025935Y012619D01*
X025931Y012548D01*
X025923Y012478D01*
X025911Y012407D01*
X025895Y012338D01*
X025876Y012270D01*
X025852Y012202D01*
X025825Y012137D01*
X025795Y012072D01*
X025761Y012010D01*
X025723Y011949D01*
X025682Y011891D01*
X025638Y011835D01*
X025591Y011782D01*
X025541Y011731D01*
X025488Y011683D01*
X025433Y011639D01*
X025375Y011597D01*
X025315Y011559D01*
X025253Y011524D01*
X025190Y011492D01*
X025124Y011464D01*
X025057Y011440D01*
X024989Y011419D01*
X024920Y011403D01*
X024850Y011390D01*
X024779Y011381D01*
X024708Y011376D01*
X024637Y011375D01*
X024566Y011378D01*
X024495Y011385D01*
X024425Y011396D01*
X024355Y011411D01*
X024287Y011429D01*
X024219Y011452D01*
X024153Y011478D01*
X024088Y011507D01*
X024025Y011541D01*
X023964Y011577D01*
X023906Y011617D01*
X023849Y011661D01*
X023795Y011707D01*
X023744Y011756D01*
X023695Y011808D01*
X023650Y011863D01*
X023607Y011920D01*
X023568Y011979D01*
X023532Y012041D01*
X023500Y012104D01*
X023471Y012169D01*
X023446Y012236D01*
X023424Y012304D01*
X023407Y012373D01*
X023393Y012442D01*
X023383Y012513D01*
X023377Y012584D01*
X023375Y012655D01*
X023905Y013155D02*
X024405Y013155D01*
X025905Y016155D02*
X026405Y016155D01*
X026405Y018155D02*
X025905Y018155D01*
X025905Y021155D02*
X026405Y021155D01*
X026405Y023155D02*
X025905Y023155D01*
X016405Y019655D02*
X015905Y019655D01*
X013155Y021905D02*
X013155Y022405D01*
X011375Y021655D02*
X011377Y021726D01*
X011383Y021797D01*
X011393Y021868D01*
X011407Y021937D01*
X011424Y022006D01*
X011446Y022074D01*
X011471Y022141D01*
X011500Y022206D01*
X011532Y022269D01*
X011568Y022331D01*
X011607Y022390D01*
X011650Y022447D01*
X011695Y022502D01*
X011744Y022554D01*
X011795Y022603D01*
X011849Y022649D01*
X011906Y022693D01*
X011964Y022733D01*
X012025Y022769D01*
X012088Y022803D01*
X012153Y022832D01*
X012219Y022858D01*
X012287Y022881D01*
X012355Y022899D01*
X012425Y022914D01*
X012495Y022925D01*
X012566Y022932D01*
X012637Y022935D01*
X012708Y022934D01*
X012779Y022929D01*
X012850Y022920D01*
X012920Y022907D01*
X012989Y022891D01*
X013057Y022870D01*
X013124Y022846D01*
X013190Y022818D01*
X013253Y022786D01*
X013315Y022751D01*
X013375Y022713D01*
X013433Y022671D01*
X013488Y022627D01*
X013541Y022579D01*
X013591Y022528D01*
X013638Y022475D01*
X013682Y022419D01*
X013723Y022361D01*
X013761Y022300D01*
X013795Y022238D01*
X013825Y022173D01*
X013852Y022108D01*
X013876Y022040D01*
X013895Y021972D01*
X013911Y021903D01*
X013923Y021832D01*
X013931Y021762D01*
X013935Y021691D01*
X013935Y021619D01*
X013931Y021548D01*
X013923Y021478D01*
X013911Y021407D01*
X013895Y021338D01*
X013876Y021270D01*
X013852Y021202D01*
X013825Y021137D01*
X013795Y021072D01*
X013761Y021010D01*
X013723Y020949D01*
X013682Y020891D01*
X013638Y020835D01*
X013591Y020782D01*
X013541Y020731D01*
X013488Y020683D01*
X013433Y020639D01*
X013375Y020597D01*
X013315Y020559D01*
X013253Y020524D01*
X013190Y020492D01*
X013124Y020464D01*
X013057Y020440D01*
X012989Y020419D01*
X012920Y020403D01*
X012850Y020390D01*
X012779Y020381D01*
X012708Y020376D01*
X012637Y020375D01*
X012566Y020378D01*
X012495Y020385D01*
X012425Y020396D01*
X012355Y020411D01*
X012287Y020429D01*
X012219Y020452D01*
X012153Y020478D01*
X012088Y020507D01*
X012025Y020541D01*
X011964Y020577D01*
X011906Y020617D01*
X011849Y020661D01*
X011795Y020707D01*
X011744Y020756D01*
X011695Y020808D01*
X011650Y020863D01*
X011607Y020920D01*
X011568Y020979D01*
X011532Y021041D01*
X011500Y021104D01*
X011471Y021169D01*
X011446Y021236D01*
X011424Y021304D01*
X011407Y021373D01*
X011393Y021442D01*
X011383Y021513D01*
X011377Y021584D01*
X011375Y021655D01*
X009895Y021128D02*
X009895Y020183D01*
X007415Y020183D01*
X007415Y021128D01*
X009895Y021128D01*
X004405Y023155D02*
X003905Y023155D01*
X003405Y021655D02*
X002905Y021655D01*
X002655Y021405D01*
X002655Y020905D01*
X002905Y020655D01*
X002655Y020405D01*
X002655Y019905D01*
X002905Y019655D01*
X002655Y019405D01*
X002655Y018905D01*
X002905Y018655D01*
X002655Y018405D01*
X002655Y017905D01*
X002905Y017655D01*
X002655Y017405D01*
X002655Y016905D01*
X002905Y016655D01*
X002655Y016405D01*
X002655Y015905D01*
X002905Y015655D01*
X003405Y015655D01*
X003655Y015905D01*
X003655Y016405D01*
X003405Y016655D01*
X003655Y016905D01*
X003655Y017405D01*
X003405Y017655D01*
X003655Y017905D01*
X003655Y018405D01*
X003405Y018655D01*
X003655Y018905D01*
X003655Y019405D01*
X003405Y019655D01*
X003655Y019905D01*
X003655Y020405D01*
X003405Y020655D01*
X003655Y020905D01*
X003655Y021405D01*
X003405Y021655D01*
X002396Y021615D02*
X002396Y021195D01*
X002116Y021615D01*
X002116Y021195D01*
X001936Y021195D02*
X001796Y021335D01*
X001866Y021335D02*
X001655Y021335D01*
X001655Y021195D02*
X001655Y021615D01*
X001866Y021615D01*
X001936Y021545D01*
X001936Y021405D01*
X001866Y021335D01*
X001475Y021265D02*
X001475Y021405D01*
X001335Y021405D01*
X001195Y021545D02*
X001195Y021265D01*
X001265Y021195D01*
X001405Y021195D01*
X001475Y021265D01*
X001475Y021545D02*
X001405Y021615D01*
X001265Y021615D01*
X001195Y021545D01*
X001195Y016115D02*
X001405Y016115D01*
X001475Y016045D01*
X001475Y015975D01*
X001405Y015905D01*
X001195Y015905D01*
X001195Y015695D02*
X001405Y015695D01*
X001475Y015765D01*
X001475Y015835D01*
X001405Y015905D01*
X001195Y015695D02*
X001195Y016115D01*
X001655Y016115D02*
X001655Y015695D01*
X001936Y015695D01*
X002116Y015695D02*
X002116Y016115D01*
X002186Y015905D02*
X002396Y015695D01*
X002116Y015835D02*
X002396Y016115D01*
X003905Y013155D02*
X004405Y013155D01*
X004055Y011505D02*
X004055Y008805D01*
X004053Y008746D01*
X004047Y008688D01*
X004038Y008629D01*
X004024Y008572D01*
X004007Y008516D01*
X003986Y008461D01*
X003962Y008407D01*
X003934Y008355D01*
X003903Y008305D01*
X003869Y008257D01*
X003832Y008212D01*
X003791Y008169D01*
X003748Y008128D01*
X003703Y008091D01*
X003655Y008057D01*
X003605Y008026D01*
X003553Y007998D01*
X003499Y007974D01*
X003444Y007953D01*
X003388Y007936D01*
X003331Y007922D01*
X003272Y007913D01*
X003214Y007907D01*
X003155Y007905D01*
X003096Y007907D01*
X003038Y007913D01*
X002979Y007922D01*
X002922Y007936D01*
X002866Y007953D01*
X002811Y007974D01*
X002757Y007998D01*
X002705Y008026D01*
X002655Y008057D01*
X002607Y008091D01*
X002562Y008128D01*
X002519Y008169D01*
X002478Y008212D01*
X002441Y008257D01*
X002407Y008305D01*
X002376Y008355D01*
X002348Y008407D01*
X002324Y008461D01*
X002303Y008516D01*
X002286Y008572D01*
X002272Y008629D01*
X002263Y008688D01*
X002257Y008746D01*
X002255Y008805D01*
X002255Y011505D01*
X001905Y011655D02*
X001405Y011655D01*
X002255Y011505D02*
X002257Y011564D01*
X002263Y011622D01*
X002272Y011681D01*
X002286Y011738D01*
X002303Y011794D01*
X002324Y011849D01*
X002348Y011903D01*
X002376Y011955D01*
X002407Y012005D01*
X002441Y012053D01*
X002478Y012098D01*
X002519Y012141D01*
X002562Y012182D01*
X002607Y012219D01*
X002655Y012253D01*
X002705Y012284D01*
X002757Y012312D01*
X002811Y012336D01*
X002866Y012357D01*
X002922Y012374D01*
X002979Y012388D01*
X003038Y012397D01*
X003096Y012403D01*
X003155Y012405D01*
X003214Y012403D01*
X003272Y012397D01*
X003331Y012388D01*
X003388Y012374D01*
X003444Y012357D01*
X003499Y012336D01*
X003553Y012312D01*
X003605Y012284D01*
X003655Y012253D01*
X003703Y012219D01*
X003748Y012182D01*
X003791Y012141D01*
X003832Y012098D01*
X003869Y012053D01*
X003903Y012005D01*
X003934Y011955D01*
X003962Y011903D01*
X003986Y011849D01*
X004007Y011794D01*
X004024Y011738D01*
X004038Y011681D01*
X004047Y011622D01*
X004053Y011564D01*
X004055Y011505D01*
X001905Y008655D02*
X001405Y008655D01*
D11*
X001905Y006655D02*
X002405Y006655D01*
X002655Y006405D01*
X002655Y005905D01*
X002405Y005655D01*
X002655Y005405D01*
X002655Y004905D01*
X002405Y004655D01*
X002655Y004405D01*
X002655Y003905D01*
X002405Y003655D01*
X001905Y003655D01*
X001655Y003905D01*
X001655Y004405D01*
X001905Y004655D01*
X001655Y004905D01*
X001655Y005405D01*
X001905Y005655D01*
X001655Y005905D01*
X001655Y006405D01*
X001905Y006655D01*
X001905Y005655D02*
X002405Y005655D01*
X003155Y005405D02*
X003405Y005655D01*
X003155Y005905D01*
X003155Y006405D01*
X003405Y006655D01*
X003905Y006655D01*
X004155Y006405D01*
X004155Y005905D01*
X003905Y005655D01*
X004155Y005405D01*
X004155Y004905D01*
X003905Y004655D01*
X004155Y004405D01*
X004155Y003905D01*
X003905Y003655D01*
X003405Y003655D01*
X003155Y003905D01*
X003155Y004405D01*
X003405Y004655D01*
X003155Y004905D01*
X003155Y005405D01*
X003405Y005655D02*
X003905Y005655D01*
X003905Y004655D02*
X003405Y004655D01*
X002405Y004655D02*
X001905Y004655D01*
X006055Y004855D02*
X008255Y004855D01*
X008255Y019455D01*
X007405Y019455D01*
X007403Y019425D01*
X007398Y019395D01*
X007389Y019366D01*
X007376Y019339D01*
X007361Y019313D01*
X007342Y019289D01*
X007321Y019268D01*
X007297Y019249D01*
X007271Y019234D01*
X007244Y019221D01*
X007215Y019212D01*
X007185Y019207D01*
X007155Y019205D01*
X007125Y019207D01*
X007095Y019212D01*
X007066Y019221D01*
X007039Y019234D01*
X007013Y019249D01*
X006989Y019268D01*
X006968Y019289D01*
X006949Y019313D01*
X006934Y019339D01*
X006921Y019366D01*
X006912Y019395D01*
X006907Y019425D01*
X006905Y019455D01*
X006055Y019455D01*
X006055Y004855D01*
X012005Y009155D02*
X012755Y009155D01*
X012757Y009194D01*
X012763Y009233D01*
X012772Y009271D01*
X012785Y009308D01*
X012802Y009344D01*
X012822Y009377D01*
X012846Y009409D01*
X012872Y009438D01*
X012901Y009464D01*
X012933Y009488D01*
X012966Y009508D01*
X013002Y009525D01*
X013039Y009538D01*
X013077Y009547D01*
X013116Y009553D01*
X013155Y009555D01*
X013194Y009553D01*
X013233Y009547D01*
X013271Y009538D01*
X013308Y009525D01*
X013344Y009508D01*
X013377Y009488D01*
X013409Y009464D01*
X013438Y009438D01*
X013464Y009409D01*
X013488Y009377D01*
X013508Y009344D01*
X013525Y009308D01*
X013538Y009271D01*
X013547Y009233D01*
X013553Y009194D01*
X013555Y009155D01*
X014305Y009155D01*
X014305Y017155D01*
X012005Y017155D01*
X012005Y009155D01*
X016155Y007805D02*
X016155Y007055D01*
X016194Y007053D01*
X016233Y007047D01*
X016271Y007038D01*
X016308Y007025D01*
X016344Y007008D01*
X016377Y006988D01*
X016409Y006964D01*
X016438Y006938D01*
X016464Y006909D01*
X016488Y006877D01*
X016508Y006844D01*
X016525Y006808D01*
X016538Y006771D01*
X016547Y006733D01*
X016553Y006694D01*
X016555Y006655D01*
X016553Y006616D01*
X016547Y006577D01*
X016538Y006539D01*
X016525Y006502D01*
X016508Y006466D01*
X016488Y006433D01*
X016464Y006401D01*
X016438Y006372D01*
X016409Y006346D01*
X016377Y006322D01*
X016344Y006302D01*
X016308Y006285D01*
X016271Y006272D01*
X016233Y006263D01*
X016194Y006257D01*
X016155Y006255D01*
X016155Y005505D01*
X024155Y005505D01*
X024155Y007805D01*
X016155Y007805D01*
X022837Y009266D02*
X016473Y015630D01*
X017180Y016337D01*
X016473Y017044D01*
X016473Y016691D01*
X016473Y017044D02*
X015766Y016337D01*
X016473Y015630D01*
X016473Y015984D01*
X016120Y016337D02*
X015766Y016337D01*
X016827Y016337D02*
X017180Y016337D01*
X023544Y009973D01*
X022837Y009266D01*
X024655Y018505D02*
X016655Y018505D01*
X016655Y019255D01*
X016694Y019257D01*
X016733Y019263D01*
X016771Y019272D01*
X016808Y019285D01*
X016844Y019302D01*
X016877Y019322D01*
X016909Y019346D01*
X016938Y019372D01*
X016964Y019401D01*
X016988Y019433D01*
X017008Y019466D01*
X017025Y019502D01*
X017038Y019539D01*
X017047Y019577D01*
X017053Y019616D01*
X017055Y019655D01*
X017053Y019694D01*
X017047Y019733D01*
X017038Y019771D01*
X017025Y019808D01*
X017008Y019844D01*
X016988Y019877D01*
X016964Y019909D01*
X016938Y019938D01*
X016909Y019964D01*
X016877Y019988D01*
X016844Y020008D01*
X016808Y020025D01*
X016771Y020038D01*
X016733Y020047D01*
X016694Y020053D01*
X016655Y020055D01*
X016655Y020805D01*
X024655Y020805D01*
X024655Y018505D01*
X009955Y022855D02*
X009955Y023455D01*
X009855Y023455D01*
X009855Y023555D01*
X009855Y022855D02*
X009855Y022755D01*
X009855Y022855D02*
X009955Y022855D01*
X009505Y021955D02*
X009155Y021955D01*
X008155Y021955D01*
X007805Y021955D01*
X007455Y022755D02*
X007455Y022855D01*
X007355Y022855D01*
X007355Y023455D01*
X007455Y023455D01*
X007455Y023555D01*
X007805Y024355D02*
X008205Y024355D01*
X009155Y024355D01*
X009505Y024355D01*
X008555Y023155D02*
X008557Y023175D01*
X008563Y023193D01*
X008572Y023211D01*
X008584Y023226D01*
X008599Y023238D01*
X008617Y023247D01*
X008635Y023253D01*
X008655Y023255D01*
X008675Y023253D01*
X008693Y023247D01*
X008711Y023238D01*
X008726Y023226D01*
X008738Y023211D01*
X008747Y023193D01*
X008753Y023175D01*
X008755Y023155D01*
X008753Y023135D01*
X008747Y023117D01*
X008738Y023099D01*
X008726Y023084D01*
X008711Y023072D01*
X008693Y023063D01*
X008675Y023057D01*
X008655Y023055D01*
X008635Y023057D01*
X008617Y023063D01*
X008599Y023072D01*
X008584Y023084D01*
X008572Y023099D01*
X008563Y023117D01*
X008557Y023135D01*
X008555Y023155D01*
X007955Y023155D02*
X007957Y023207D01*
X007963Y023259D01*
X007973Y023311D01*
X007986Y023361D01*
X008003Y023411D01*
X008024Y023459D01*
X008049Y023505D01*
X008077Y023549D01*
X008108Y023591D01*
X008142Y023631D01*
X008179Y023668D01*
X008219Y023702D01*
X008261Y023733D01*
X008305Y023761D01*
X008351Y023786D01*
X008399Y023807D01*
X008449Y023824D01*
X008499Y023837D01*
X008551Y023847D01*
X008603Y023853D01*
X008655Y023855D01*
X008707Y023853D01*
X008759Y023847D01*
X008811Y023837D01*
X008861Y023824D01*
X008911Y023807D01*
X008959Y023786D01*
X009005Y023761D01*
X009049Y023733D01*
X009091Y023702D01*
X009131Y023668D01*
X009168Y023631D01*
X009202Y023591D01*
X009233Y023549D01*
X009261Y023505D01*
X009286Y023459D01*
X009307Y023411D01*
X009324Y023361D01*
X009337Y023311D01*
X009347Y023259D01*
X009353Y023207D01*
X009355Y023155D01*
X009353Y023103D01*
X009347Y023051D01*
X009337Y022999D01*
X009324Y022949D01*
X009307Y022899D01*
X009286Y022851D01*
X009261Y022805D01*
X009233Y022761D01*
X009202Y022719D01*
X009168Y022679D01*
X009131Y022642D01*
X009091Y022608D01*
X009049Y022577D01*
X009005Y022549D01*
X008959Y022524D01*
X008911Y022503D01*
X008861Y022486D01*
X008811Y022473D01*
X008759Y022463D01*
X008707Y022457D01*
X008655Y022455D01*
X008603Y022457D01*
X008551Y022463D01*
X008499Y022473D01*
X008449Y022486D01*
X008399Y022503D01*
X008351Y022524D01*
X008305Y022549D01*
X008261Y022577D01*
X008219Y022608D01*
X008179Y022642D01*
X008142Y022679D01*
X008108Y022719D01*
X008077Y022761D01*
X008049Y022805D01*
X008024Y022851D01*
X008003Y022899D01*
X007986Y022949D01*
X007973Y022999D01*
X007963Y023051D01*
X007957Y023103D01*
X007955Y023155D01*
D12*
X004400Y003562D02*
X004475Y003487D01*
X004550Y003487D01*
X004625Y003562D01*
X004625Y003713D01*
X004700Y003788D01*
X004775Y003788D01*
X004850Y003713D01*
X004850Y003562D01*
X004775Y003487D01*
X004475Y003788D02*
X004400Y003713D01*
X004400Y003562D01*
X004400Y003948D02*
X004850Y003948D01*
X004850Y004248D01*
X004850Y004408D02*
X004400Y004408D01*
X004400Y004633D01*
X004475Y004708D01*
X004625Y004708D01*
X004700Y004633D01*
X004700Y004408D01*
X004700Y004558D02*
X004850Y004708D01*
X004700Y004868D02*
X004850Y005019D01*
X004700Y005169D01*
X004400Y005169D01*
X004475Y005329D02*
X004400Y005404D01*
X004400Y005554D01*
X004475Y005629D01*
X004775Y005629D01*
X004850Y005554D01*
X004850Y005404D01*
X004775Y005329D01*
X004475Y005329D01*
X004400Y004868D02*
X004700Y004868D01*
X004400Y004248D02*
X004400Y003948D01*
X004625Y003948D02*
X004625Y004098D01*
X004925Y005789D02*
X004925Y006089D01*
X004850Y006250D02*
X004550Y006550D01*
X004475Y006550D01*
X004400Y006475D01*
X004400Y006325D01*
X004475Y006250D01*
X004850Y006250D02*
X004850Y006550D01*
X001485Y006252D02*
X001485Y005952D01*
X001335Y005792D02*
X001035Y005792D01*
X000960Y005717D01*
X000960Y005567D01*
X001035Y005492D01*
X001335Y005492D01*
X001410Y005567D01*
X001410Y005717D01*
X001335Y005792D01*
X001260Y005331D02*
X000960Y005331D01*
X000960Y005031D02*
X001260Y005031D01*
X001410Y005181D01*
X001260Y005331D01*
X001185Y004871D02*
X001260Y004796D01*
X001260Y004571D01*
X001260Y004721D02*
X001410Y004871D01*
X001185Y004871D02*
X001035Y004871D01*
X000960Y004796D01*
X000960Y004571D01*
X001410Y004571D01*
X001410Y004411D02*
X001410Y004110D01*
X000960Y004110D01*
X000960Y004411D01*
X001185Y004261D02*
X001185Y004110D01*
X001260Y003950D02*
X001335Y003950D01*
X001410Y003875D01*
X001410Y003725D01*
X001335Y003650D01*
X001185Y003725D02*
X001185Y003875D01*
X001260Y003950D01*
X001035Y003950D02*
X000960Y003875D01*
X000960Y003725D01*
X001035Y003650D01*
X001110Y003650D01*
X001185Y003725D01*
X001110Y006412D02*
X000960Y006562D01*
X001410Y006562D01*
X001410Y006412D02*
X001410Y006712D01*
X011010Y003969D02*
X011280Y003969D01*
X011190Y003969D02*
X011100Y004104D01*
X011190Y003969D02*
X011280Y004104D01*
X011235Y003855D02*
X011055Y003855D01*
X011235Y003675D01*
X011280Y003720D01*
X011280Y003810D01*
X011235Y003855D01*
X011055Y003855D02*
X011010Y003810D01*
X011010Y003720D01*
X011055Y003675D01*
X011235Y003675D01*
X011280Y003560D02*
X011280Y003380D01*
X011280Y003470D02*
X011010Y003470D01*
X011100Y003380D01*
X017230Y006430D02*
X017530Y006430D01*
X017690Y006430D02*
X017991Y006730D01*
X017991Y006805D01*
X017916Y006880D01*
X017766Y006880D01*
X017690Y006805D01*
X017690Y006430D02*
X017991Y006430D01*
X018151Y006505D02*
X018226Y006430D01*
X018376Y006430D01*
X018451Y006505D01*
X018451Y006805D01*
X018376Y006880D01*
X018226Y006880D01*
X018151Y006805D01*
X018151Y006730D01*
X018226Y006655D01*
X018451Y006655D01*
X018611Y006505D02*
X018686Y006430D01*
X018836Y006430D01*
X018911Y006505D01*
X018911Y006580D01*
X018836Y006655D01*
X018761Y006655D01*
X018836Y006655D02*
X018911Y006730D01*
X018911Y006805D01*
X018836Y006880D01*
X018686Y006880D01*
X018611Y006805D01*
X019072Y006880D02*
X019072Y006430D01*
X019297Y006430D01*
X019372Y006505D01*
X019372Y006805D01*
X019297Y006880D01*
X019072Y006880D01*
X017230Y006880D02*
X017230Y006430D01*
X013380Y010230D02*
X013305Y010230D01*
X013005Y010530D01*
X012930Y010530D01*
X012930Y010230D01*
X013155Y010690D02*
X013155Y010991D01*
X013155Y011151D02*
X013155Y011451D01*
X013005Y011611D02*
X013305Y011611D01*
X013380Y011686D01*
X013380Y011836D01*
X013305Y011911D01*
X013005Y011911D02*
X012930Y011836D01*
X012930Y011686D01*
X013005Y011611D01*
X012930Y011451D02*
X013380Y011451D01*
X013380Y011151D02*
X012930Y011151D01*
X012930Y010916D02*
X013155Y010690D01*
X013380Y010916D02*
X012930Y010916D01*
X012930Y012072D02*
X012930Y012372D01*
X012930Y012222D02*
X013380Y012222D01*
X013305Y012532D02*
X013380Y012607D01*
X013380Y012757D01*
X013305Y012832D01*
X013155Y012832D01*
X013080Y012757D01*
X013080Y012682D01*
X013155Y012532D01*
X012930Y012532D01*
X012930Y012832D01*
X013005Y012992D02*
X013080Y012992D01*
X013155Y013067D01*
X013155Y013292D01*
X013305Y013292D02*
X013005Y013292D01*
X012930Y013217D01*
X012930Y013067D01*
X013005Y012992D01*
X013305Y012992D02*
X013380Y013067D01*
X013380Y013217D01*
X013305Y013292D01*
X013305Y013453D02*
X013380Y013528D01*
X013380Y013678D01*
X013305Y013753D01*
X013155Y013753D01*
X013080Y013678D01*
X013080Y013603D01*
X013155Y013453D01*
X012930Y013453D01*
X012930Y013753D01*
X012930Y013913D02*
X013380Y014213D01*
X012930Y014213D01*
X012930Y013913D02*
X013380Y013913D01*
X017730Y019430D02*
X018030Y019430D01*
X018190Y019430D02*
X018491Y019730D01*
X018491Y019805D01*
X018416Y019880D01*
X018266Y019880D01*
X018190Y019805D01*
X018190Y019430D02*
X018491Y019430D01*
X018651Y019505D02*
X018726Y019430D01*
X018876Y019430D01*
X018951Y019505D01*
X018951Y019805D01*
X018876Y019880D01*
X018726Y019880D01*
X018651Y019805D01*
X018651Y019730D01*
X018726Y019655D01*
X018951Y019655D01*
X019111Y019505D02*
X019186Y019430D01*
X019336Y019430D01*
X019411Y019505D01*
X019411Y019580D01*
X019336Y019655D01*
X019261Y019655D01*
X019336Y019655D02*
X019411Y019730D01*
X019411Y019805D01*
X019336Y019880D01*
X019186Y019880D01*
X019111Y019805D01*
X019572Y019880D02*
X019572Y019430D01*
X019797Y019430D01*
X019872Y019505D01*
X019872Y019805D01*
X019797Y019880D01*
X019572Y019880D01*
X017730Y019880D02*
X017730Y019430D01*
X020155Y022155D02*
X015155Y022155D01*
X015155Y022655D01*
X020155Y022655D01*
X020155Y022155D01*
X020655Y022155D01*
X020655Y024355D01*
X014655Y024355D01*
X014655Y022155D01*
X015155Y022155D01*
X008550Y020800D02*
X008369Y020620D01*
X008414Y020665D02*
X008550Y020530D01*
X008369Y020530D02*
X008369Y020800D01*
X008255Y020755D02*
X008075Y020575D01*
X008120Y020530D01*
X008210Y020530D01*
X008255Y020575D01*
X008255Y020755D01*
X008210Y020800D01*
X008120Y020800D01*
X008075Y020755D01*
X008075Y020575D01*
X007960Y020530D02*
X007780Y020530D01*
X007870Y020530D02*
X007870Y020800D01*
X007780Y020710D01*
X026655Y019155D02*
X026655Y014655D01*
X030155Y014655D01*
X030155Y019155D01*
X030155Y018155D02*
X030155Y024655D01*
X026655Y024655D01*
X026655Y018155D01*
X026655Y010655D02*
X030155Y010655D01*
X030155Y004155D01*
X030155Y005155D02*
X030155Y000655D01*
X026655Y000655D01*
X026655Y005155D01*
X026655Y004155D02*
X026655Y010655D01*
D13*
X023190Y011565D02*
X022900Y011565D01*
X023045Y011420D01*
X023045Y011614D01*
X023142Y011715D02*
X023190Y011715D01*
X023142Y011715D02*
X022948Y011908D01*
X022900Y011908D01*
X022900Y011715D01*
X022997Y012009D02*
X023142Y012009D01*
X023190Y012058D01*
X023190Y012203D01*
X022997Y012203D01*
X023045Y012304D02*
X023045Y012401D01*
X022900Y012304D02*
X022900Y012498D01*
X022900Y012304D02*
X023190Y012304D01*
X023190Y012599D02*
X022900Y012792D01*
X022997Y012893D02*
X022900Y012990D01*
X023190Y012990D01*
X023190Y012893D02*
X023190Y013087D01*
X023142Y013188D02*
X023190Y013236D01*
X023190Y013333D01*
X023142Y013381D01*
X023093Y013381D01*
X023045Y013333D01*
X023045Y013188D01*
X023142Y013188D01*
X023045Y013188D02*
X022948Y013285D01*
X022900Y013381D01*
X022900Y013483D02*
X023093Y013483D01*
X023190Y013579D01*
X023093Y013676D01*
X022900Y013676D01*
X013226Y023267D02*
X013129Y023170D01*
X013033Y023267D01*
X013033Y023460D01*
X012931Y023460D02*
X012835Y023412D01*
X012738Y023315D01*
X012883Y023315D01*
X012931Y023267D01*
X012931Y023218D01*
X012883Y023170D01*
X012786Y023170D01*
X012738Y023218D01*
X012738Y023315D01*
X012637Y023460D02*
X012443Y023170D01*
X012245Y023315D02*
X012149Y023315D01*
X012048Y023364D02*
X012048Y023170D01*
X011902Y023170D01*
X011854Y023218D01*
X011854Y023364D01*
X011753Y023412D02*
X011559Y023218D01*
X011608Y023170D01*
X011705Y023170D01*
X011753Y023218D01*
X011753Y023412D01*
X011705Y023460D01*
X011608Y023460D01*
X011559Y023412D01*
X011559Y023218D01*
X011458Y023218D02*
X011410Y023170D01*
X011313Y023170D01*
X011265Y023218D01*
X011458Y023412D01*
X011458Y023218D01*
X011265Y023218D02*
X011265Y023412D01*
X011313Y023460D01*
X011410Y023460D01*
X011458Y023412D01*
X011164Y023170D02*
X010970Y023170D01*
X011067Y023170D02*
X011067Y023460D01*
X010970Y023364D01*
X012149Y023460D02*
X012149Y023170D01*
X012149Y023460D02*
X012342Y023460D01*
X013226Y023460D02*
X013226Y023267D01*
X005563Y003569D02*
X005370Y003569D01*
X005563Y003569D02*
X005660Y003472D01*
X005563Y003375D01*
X005370Y003375D01*
X005370Y003274D02*
X005418Y003178D01*
X005515Y003081D01*
X005515Y003226D01*
X005563Y003274D01*
X005612Y003274D01*
X005660Y003226D01*
X005660Y003129D01*
X005612Y003081D01*
X005515Y003081D01*
X005370Y002980D02*
X005660Y002786D01*
X005515Y002588D02*
X005515Y002491D01*
X005467Y002390D02*
X005660Y002390D01*
X005660Y002245D01*
X005612Y002197D01*
X005467Y002197D01*
X005418Y002096D02*
X005612Y001902D01*
X005660Y001951D01*
X005660Y002047D01*
X005612Y002096D01*
X005418Y002096D01*
X005370Y002047D01*
X005370Y001951D01*
X005418Y001902D01*
X005612Y001902D01*
X005612Y001801D02*
X005660Y001753D01*
X005660Y001656D01*
X005612Y001608D01*
X005418Y001801D01*
X005612Y001801D01*
X005612Y001608D02*
X005418Y001608D01*
X005370Y001656D01*
X005370Y001753D01*
X005418Y001801D01*
X005660Y001506D02*
X005660Y001313D01*
X005660Y001410D02*
X005370Y001410D01*
X005467Y001313D01*
X005370Y002491D02*
X005370Y002685D01*
X005370Y002491D02*
X005660Y002491D01*
X012563Y002544D02*
X012660Y002640D01*
X012660Y002350D01*
X012756Y002350D02*
X012563Y002350D01*
X012858Y002398D02*
X012858Y002592D01*
X012906Y002640D01*
X013003Y002640D01*
X013051Y002592D01*
X012858Y002398D01*
X012906Y002350D01*
X013003Y002350D01*
X013051Y002398D01*
X013051Y002592D01*
X013152Y002592D02*
X013201Y002640D01*
X013297Y002640D01*
X013346Y002592D01*
X013152Y002398D01*
X013201Y002350D01*
X013297Y002350D01*
X013346Y002398D01*
X013346Y002592D01*
X013447Y002544D02*
X013447Y002398D01*
X013495Y002350D01*
X013640Y002350D01*
X013640Y002544D01*
X013741Y002495D02*
X013838Y002495D01*
X013741Y002350D02*
X013741Y002640D01*
X013935Y002640D01*
X014230Y002640D02*
X014036Y002350D01*
X014331Y002398D02*
X014379Y002350D01*
X014476Y002350D01*
X014524Y002398D01*
X014524Y002447D01*
X014476Y002495D01*
X014331Y002495D01*
X014331Y002398D01*
X014331Y002495D02*
X014428Y002592D01*
X014524Y002640D01*
X014625Y002640D02*
X014625Y002447D01*
X014722Y002350D01*
X014819Y002447D01*
X014819Y002640D01*
X013152Y002592D02*
X013152Y002398D01*
X018420Y001115D02*
X018614Y001115D01*
X018715Y001018D02*
X018715Y000970D01*
X018715Y001018D02*
X018908Y001212D01*
X018908Y001260D01*
X018715Y001260D01*
X018565Y001260D02*
X018420Y001115D01*
X018565Y000970D02*
X018565Y001260D01*
X019009Y001164D02*
X019009Y001018D01*
X019058Y000970D01*
X019203Y000970D01*
X019203Y001164D01*
X019304Y001115D02*
X019401Y001115D01*
X019304Y000970D02*
X019304Y001260D01*
X019498Y001260D01*
X019792Y001260D02*
X019599Y000970D01*
X019893Y000970D02*
X020087Y000970D01*
X019990Y000970D02*
X019990Y001260D01*
X019893Y001164D01*
X020188Y001115D02*
X020188Y001018D01*
X020236Y000970D01*
X020333Y000970D01*
X020381Y001018D01*
X020381Y001067D01*
X020333Y001115D01*
X020188Y001115D01*
X020285Y001212D01*
X020381Y001260D01*
X020483Y001260D02*
X020483Y001067D01*
X020579Y000970D01*
X020676Y001067D01*
X020676Y001260D01*
D14*
X015810Y005022D02*
X015785Y004997D01*
X015685Y005097D01*
X015785Y005097D01*
X015810Y005072D01*
X015810Y005022D01*
X015785Y004997D02*
X015685Y004997D01*
X015660Y005022D01*
X015660Y005072D01*
X015685Y005097D01*
X015785Y005144D02*
X015785Y005169D01*
X015810Y005169D01*
X015810Y005144D01*
X015785Y005144D01*
X015810Y005218D02*
X015810Y005318D01*
X015810Y005268D02*
X015660Y005268D01*
X015710Y005218D01*
X015710Y005365D02*
X015785Y005365D01*
X015810Y005390D01*
X015810Y005466D01*
X015710Y005466D01*
X015735Y005513D02*
X015735Y005563D01*
X015660Y005513D02*
X015660Y005613D01*
X015660Y005513D02*
X015810Y005513D01*
X011963Y008500D02*
X011963Y008650D01*
X012063Y008650D01*
X012013Y008575D02*
X011963Y008575D01*
X011916Y008600D02*
X011916Y008500D01*
X011840Y008500D01*
X011815Y008525D01*
X011815Y008600D01*
X011718Y008650D02*
X011718Y008500D01*
X011668Y008500D02*
X011768Y008500D01*
X011668Y008600D02*
X011718Y008650D01*
X011619Y008525D02*
X011619Y008500D01*
X011594Y008500D01*
X011594Y008525D01*
X011619Y008525D01*
X011547Y008525D02*
X011522Y008500D01*
X011472Y008500D01*
X011447Y008525D01*
X011547Y008625D01*
X011547Y008525D01*
X011447Y008525D02*
X011447Y008625D01*
X011472Y008650D01*
X011522Y008650D01*
X011547Y008625D01*
X016025Y020660D02*
X016000Y020685D01*
X016000Y020735D01*
X016025Y020760D01*
X016125Y020660D01*
X016150Y020685D01*
X016150Y020735D01*
X016125Y020760D01*
X016025Y020760D01*
X016025Y020660D02*
X016125Y020660D01*
X016125Y020807D02*
X016125Y020832D01*
X016150Y020832D01*
X016150Y020807D01*
X016125Y020807D01*
X016150Y020881D02*
X016150Y020981D01*
X016150Y020931D02*
X016000Y020931D01*
X016050Y020881D01*
X016050Y021028D02*
X016125Y021028D01*
X016150Y021053D01*
X016150Y021129D01*
X016050Y021129D01*
X016075Y021176D02*
X016075Y021226D01*
X016000Y021176D02*
X016000Y021276D01*
X016000Y021176D02*
X016150Y021176D01*
D15*
X009155Y021955D02*
X009155Y022055D01*
X008155Y022055D01*
X008155Y021955D01*
X008205Y024255D02*
X008205Y024355D01*
X008205Y024255D02*
X009155Y024255D01*
X009155Y024355D01*
M02*
