%
M48
M72
T01C0.0200
T02C0.0276
T03C0.0320
T04C0.0354
T05C0.0400
T06C0.0433
T07C0.1300
%
T01
X12659Y3655
X14159Y5155
X15239Y5775
X20599Y8815
X20599Y9935
X25559Y6175
X15879Y14975
X20119Y17135
X21639Y16335
X24439Y16335
X18919Y19935
X23879Y23055
X24439Y23615
X24599Y22015
X3639Y12735
T02
X4659Y11655
X4659Y10655
X4659Y9655
X4659Y8655
X6159Y8655
X6159Y10655
X6159Y12655
X5159Y12655
X13159Y8655
X14159Y8655
X16159Y7155
X16159Y6155
X15659Y4155
X15659Y3155
X19159Y2655
X20159Y2655
X26659Y2655
X26659Y1655
X26659Y3655
X26659Y4655
X26659Y6655
X26659Y7655
X26659Y8655
X26659Y9655
X26159Y12655
X27159Y12655
X26659Y15655
X26659Y16655
X26659Y17655
X26659Y18655
X26659Y20655
X26659Y21655
X26659Y22655
X26659Y23655
X16659Y22655
X15659Y22655
X13659Y22155
X13659Y21155
X4659Y22655
X4659Y23655
X7159Y2655
X8159Y2655
T03
X8159Y5655
X8159Y6655
X8159Y7655
X8159Y8655
X8159Y9655
X8159Y10655
X8159Y11655
X8159Y12655
X8159Y13655
X8159Y14655
X8159Y15655
X8159Y16655
X8159Y17655
X8159Y18655
X11159Y18655
X11159Y17655
X11159Y16655
X11159Y15655
X11159Y14655
X11159Y13655
X11159Y12655
X11159Y11655
X11159Y10655
X11159Y9655
X11159Y8655
X11159Y7655
X11159Y6655
X11159Y5655
X13659Y9655
X13659Y10655
X13659Y11655
X13659Y12655
X13659Y13655
X13659Y14655
X13659Y15655
X13659Y16655
X15659Y18155
X16659Y18155
X17659Y18155
X18659Y18155
X19659Y18155
X20659Y18155
X21659Y18155
X22659Y18155
X22659Y21155
X21659Y21155
X20659Y21155
X19659Y21155
X18659Y21155
X17659Y21155
X16659Y21155
X15659Y21155
X16659Y16655
X16659Y15655
X16659Y14655
X16659Y13655
X16659Y12655
X16659Y11655
X16659Y10655
X16659Y9655
X17159Y8155
X18159Y8155
X19159Y8155
X20159Y8155
X21159Y8155
X22159Y8155
X23159Y8155
X24159Y8155
X24841Y9973
X24134Y10680
X23427Y11387
X22720Y12094
X22013Y12802
X21305Y13509
X20598Y14216
X19891Y14923
X19184Y15630
X18477Y16337
X18159Y5155
X19159Y5155
X20159Y5155
X21159Y5155
X22159Y5155
X23159Y5155
X24159Y5155
X17159Y5155
T04
X12659Y6255
X12659Y2255
X3659Y7655
X2159Y7655
X2159Y11655
X3659Y11655
X6159Y21155
X10159Y21155
T05
X9439Y22265
X9439Y24045
X6879Y24045
X6879Y22265
X3659Y21155
X3659Y20155
X3659Y19155
X3659Y18155
X3659Y17155
X3659Y16155
X4159Y6155
X4159Y5155
X4159Y4155
X2659Y4155
X2659Y5155
X2659Y6155
X25159Y19155
X25259Y20155
X25159Y21155
X25259Y22155
X25159Y23155
X25259Y24155
X29659Y13205
X29659Y12105
T06
X28659Y9655
X28659Y7655
X28659Y5655
X28659Y3655
X28659Y1655
X28659Y15655
X28659Y17655
X28659Y19655
X28659Y21655
X28659Y23655
T07
X2659Y2155
X22659Y2155
X22659Y23155
X2659Y23155
M30
