%
M48
M72
T01C0.0200
T02C0.0276
T03C0.0315
T04C0.0320
T05C0.0354
T06C0.0400
T07C0.1300
%
T01
X3655Y13655
X14155Y13655
X15655Y13655
X17155Y14655
X16655Y16155
X14155Y17155
X17155Y12155
X17155Y11155
X18155Y1655
T02
X14655Y1655
X13655Y1655
X12655Y1655
X11655Y1655
X12155Y3655
X14155Y3655
X10155Y3655
X9155Y3655
X6655Y3705
X5655Y3705
X9655Y11155
X9655Y12155
X6655Y14655
X6655Y15655
X16655Y12655
X16655Y11655
X17655Y11655
X17655Y10655
X17655Y12655
X17655Y13655
X18155Y22655
X19155Y22655
T03
X7655Y22655
X7655Y21655
X7655Y20655
X7655Y19655
X7655Y18655
X7655Y17655
T04
X10655Y13155
X11655Y13155
X12655Y13155
X13655Y13155
X13655Y10155
X12655Y10155
X11655Y10155
X10655Y10155
X10155Y8655
X9155Y8655
X8155Y8655
X7155Y8655
X6155Y8655
X6155Y5655
X7155Y5655
X8155Y5655
X9155Y5655
X10155Y5655
X11155Y5655
X12155Y5655
X13155Y5655
X14155Y5655
X15155Y5655
X16155Y5655
X17155Y5655
X18155Y5655
X19155Y5655
X19155Y8655
X18155Y8655
X17155Y8655
X16155Y8655
X15155Y8655
X14155Y8655
X13155Y8655
X12155Y8655
X11155Y8655
X18155Y15155
X18155Y16155
X18155Y17155
X18155Y18155
X18155Y19155
X18155Y20155
X18155Y21155
X21155Y21155
X21155Y20155
X21155Y19155
X21155Y18155
X21155Y17155
X21155Y16155
X21155Y15155
X20655Y13655
X19655Y13655
X18655Y13655
X18655Y10655
X19655Y10655
X20655Y10655
X21655Y10655
X21655Y13655
T05
X21855Y8655
X20655Y8655
X20655Y4655
X21855Y4655
X15155Y14655
X15155Y15655
X12155Y15655
X12155Y14655
X5655Y17655
X5655Y22655
X4655Y2155
X8655Y2155
T06
X4235Y4065
X4235Y5845
X3655Y7155
X3655Y8155
X3655Y9155
X3655Y10155
X3655Y11155
X3655Y12155
X2355Y13655
X2355Y14655
X2355Y15655
X2355Y16655
X2355Y17655
X2355Y18655
X1675Y5845
X1675Y4065
T07
X2155Y2155
X2155Y23155
X22155Y23155
X22155Y2155
M30
