G75*
G70*
%OFA0B0*%
%FSLAX24Y24*%
%IPPOS*%
%LPD*%
%AMOC8*
5,1,8,0,0,1.08239X$1,22.5*
%
%ADD10C,0.0040*%
%ADD11C,0.0030*%
%ADD12C,0.0020*%
%ADD13C,0.0060*%
%ADD14C,0.0050*%
%ADD15C,0.0080*%
D10*
X002134Y003175D02*
X002134Y003535D01*
X002314Y003535D01*
X002374Y003475D01*
X002374Y003355D01*
X002314Y003295D01*
X002134Y003295D01*
X002254Y003295D02*
X002374Y003175D01*
X002502Y003175D02*
X002502Y003535D01*
X002742Y003535D01*
X002870Y003475D02*
X002870Y003415D01*
X002930Y003355D01*
X003050Y003355D01*
X003110Y003295D01*
X003110Y003235D01*
X003050Y003175D01*
X002930Y003175D01*
X002870Y003235D01*
X002742Y003175D02*
X002502Y003175D01*
X002502Y003355D02*
X002622Y003355D01*
X002870Y003475D02*
X002930Y003535D01*
X003050Y003535D01*
X003110Y003475D01*
X003239Y003535D02*
X003239Y003175D01*
X003479Y003175D01*
X003359Y003355D02*
X003239Y003355D01*
X003239Y003535D02*
X003479Y003535D01*
X003607Y003535D02*
X003847Y003535D01*
X003727Y003535D02*
X003727Y003175D01*
X002235Y008975D02*
X001875Y008975D01*
X001875Y009215D01*
X001875Y009343D02*
X001875Y009583D01*
X001875Y009463D02*
X002235Y009463D01*
X002235Y009711D02*
X002235Y009891D01*
X002175Y009951D01*
X001935Y009951D01*
X001875Y009891D01*
X001875Y009711D01*
X002235Y009711D01*
X002235Y010080D02*
X002235Y010200D01*
X002235Y010140D02*
X001875Y010140D01*
X001875Y010080D02*
X001875Y010200D01*
X002055Y009095D02*
X002055Y008975D01*
X018425Y003785D02*
X018545Y003785D01*
X018485Y003785D02*
X018485Y003425D01*
X018425Y003425D02*
X018545Y003425D01*
X018671Y003425D02*
X018911Y003665D01*
X018911Y003725D01*
X018851Y003785D01*
X018731Y003785D01*
X018671Y003725D01*
X018671Y003425D02*
X018911Y003425D01*
X019039Y003485D02*
X019039Y003725D01*
X019099Y003785D01*
X019219Y003785D01*
X019279Y003725D01*
X019279Y003485D02*
X019219Y003425D01*
X019099Y003425D01*
X019039Y003485D01*
X019776Y003425D02*
X019776Y003665D01*
X019896Y003785D01*
X020016Y003665D01*
X020016Y003425D01*
X020144Y003485D02*
X020144Y003605D01*
X020204Y003665D01*
X020384Y003665D01*
X020384Y003785D02*
X020384Y003425D01*
X020204Y003425D01*
X020144Y003485D01*
X020016Y003605D02*
X019776Y003605D01*
X020512Y003605D02*
X020572Y003665D01*
X020752Y003665D01*
X020752Y003785D02*
X020752Y003425D01*
X020572Y003425D01*
X020512Y003485D01*
X020512Y003605D01*
X020880Y003545D02*
X021001Y003665D01*
X021061Y003665D01*
X020880Y003665D02*
X020880Y003425D01*
D11*
X002653Y007020D02*
X002518Y007155D01*
X002473Y007110D02*
X002653Y007290D01*
X002473Y007290D02*
X002473Y007020D01*
X002376Y007020D02*
X002196Y007020D01*
X002196Y007290D01*
X002100Y007245D02*
X002100Y007200D01*
X002055Y007155D01*
X001920Y007155D01*
X001920Y007020D02*
X002055Y007020D01*
X002100Y007065D01*
X002100Y007110D01*
X002055Y007155D01*
X002100Y007245D02*
X002055Y007290D01*
X001920Y007290D01*
X001920Y007020D01*
X001965Y011920D02*
X002055Y011920D01*
X002100Y011965D01*
X002100Y012055D01*
X002010Y012055D01*
X001920Y011965D02*
X001965Y011920D01*
X001920Y011965D02*
X001920Y012145D01*
X001965Y012190D01*
X002055Y012190D01*
X002100Y012145D01*
X002196Y012190D02*
X002196Y011920D01*
X002196Y012010D02*
X002331Y012010D01*
X002376Y012055D01*
X002376Y012145D01*
X002331Y012190D01*
X002196Y012190D01*
X002286Y012010D02*
X002376Y011920D01*
X002473Y011920D02*
X002473Y012190D01*
X002653Y011920D01*
X002653Y012190D01*
D12*
X002505Y006155D02*
X002505Y006055D01*
X003455Y006055D01*
X003455Y006155D01*
X003455Y003855D02*
X002455Y003855D01*
X002455Y003755D01*
X003455Y003755D02*
X003455Y003855D01*
X018915Y001095D02*
X018915Y000915D01*
X019035Y000915D02*
X019035Y001095D01*
X018975Y001035D01*
X018915Y001095D01*
X019099Y001065D02*
X019099Y001035D01*
X019129Y001005D01*
X019189Y001005D01*
X019219Y000975D01*
X019219Y000945D01*
X019189Y000915D01*
X019129Y000915D01*
X019099Y000945D01*
X019099Y001065D02*
X019129Y001095D01*
X019189Y001095D01*
X019219Y001065D01*
X019283Y001095D02*
X019373Y001095D01*
X019403Y001065D01*
X019403Y001035D01*
X019373Y001005D01*
X019283Y001005D01*
X019283Y000915D02*
X019373Y000915D01*
X019403Y000945D01*
X019403Y000975D01*
X019373Y001005D01*
X019283Y000915D02*
X019283Y001095D01*
X019915Y001095D02*
X019915Y000915D01*
X020035Y000915D01*
X020099Y000945D02*
X020129Y000915D01*
X020189Y000915D01*
X020219Y000945D01*
X020219Y000975D01*
X020189Y001005D01*
X020129Y001005D01*
X020099Y001035D01*
X020099Y001065D01*
X020129Y001095D01*
X020189Y001095D01*
X020219Y001065D01*
X020283Y001095D02*
X020373Y001095D01*
X020403Y001065D01*
X020403Y001035D01*
X020373Y001005D01*
X020283Y001005D01*
X020283Y000915D02*
X020373Y000915D01*
X020403Y000945D01*
X020403Y000975D01*
X020373Y001005D01*
X020283Y000915D02*
X020283Y001095D01*
X020765Y001345D02*
X020885Y001465D01*
X020885Y001345D01*
X020855Y001315D01*
X020795Y001315D01*
X020765Y001345D01*
X020765Y001465D01*
X020795Y001495D01*
X020855Y001495D01*
X020885Y001465D01*
X020885Y002865D02*
X020765Y002865D01*
X020825Y002865D02*
X020825Y003045D01*
X020765Y002985D01*
D13*
X020555Y003005D02*
X020555Y001305D01*
X020553Y001288D01*
X020549Y001271D01*
X020542Y001255D01*
X020532Y001241D01*
X020519Y001228D01*
X020505Y001218D01*
X020489Y001211D01*
X020472Y001207D01*
X020455Y001205D01*
X019855Y001205D01*
X019838Y001207D01*
X019821Y001211D01*
X019805Y001218D01*
X019791Y001228D01*
X019778Y001241D01*
X019768Y001255D01*
X019761Y001271D01*
X019757Y001288D01*
X019755Y001305D01*
X019755Y003005D01*
X019757Y003022D01*
X019761Y003039D01*
X019768Y003055D01*
X019778Y003069D01*
X019791Y003082D01*
X019805Y003092D01*
X019821Y003099D01*
X019838Y003103D01*
X019855Y003105D01*
X020455Y003105D01*
X020472Y003103D01*
X020489Y003099D01*
X020505Y003092D01*
X020519Y003082D01*
X020532Y003069D01*
X020542Y003055D01*
X020549Y003039D01*
X020553Y003022D01*
X020555Y003005D01*
X019555Y003005D02*
X019555Y001305D01*
X019553Y001288D01*
X019549Y001271D01*
X019542Y001255D01*
X019532Y001241D01*
X019519Y001228D01*
X019505Y001218D01*
X019489Y001211D01*
X019472Y001207D01*
X019455Y001205D01*
X018855Y001205D01*
X018838Y001207D01*
X018821Y001211D01*
X018805Y001218D01*
X018791Y001228D01*
X018778Y001241D01*
X018768Y001255D01*
X018761Y001271D01*
X018757Y001288D01*
X018755Y001305D01*
X018755Y003005D01*
X018757Y003022D01*
X018761Y003039D01*
X018768Y003055D01*
X018778Y003069D01*
X018791Y003082D01*
X018805Y003092D01*
X018821Y003099D01*
X018838Y003103D01*
X018855Y003105D01*
X019455Y003105D01*
X019472Y003103D01*
X019489Y003099D01*
X019505Y003092D01*
X019519Y003082D01*
X019532Y003069D01*
X019542Y003055D01*
X019549Y003039D01*
X019553Y003022D01*
X019555Y003005D01*
X019955Y006055D02*
X019955Y008255D01*
X005355Y008255D01*
X005355Y007405D01*
X005385Y007403D01*
X005415Y007398D01*
X005444Y007389D01*
X005471Y007376D01*
X005497Y007361D01*
X005521Y007342D01*
X005542Y007321D01*
X005561Y007297D01*
X005576Y007271D01*
X005589Y007244D01*
X005598Y007215D01*
X005603Y007185D01*
X005605Y007155D01*
X005603Y007125D01*
X005598Y007095D01*
X005589Y007066D01*
X005576Y007039D01*
X005561Y007013D01*
X005542Y006989D01*
X005521Y006968D01*
X005497Y006949D01*
X005471Y006934D01*
X005444Y006921D01*
X005415Y006912D01*
X005385Y006907D01*
X005355Y006905D01*
X005355Y006055D01*
X019955Y006055D01*
X018155Y011005D02*
X018155Y011755D01*
X018194Y011757D01*
X018233Y011763D01*
X018271Y011772D01*
X018308Y011785D01*
X018344Y011802D01*
X018377Y011822D01*
X018409Y011846D01*
X018438Y011872D01*
X018464Y011901D01*
X018488Y011933D01*
X018508Y011966D01*
X018525Y012002D01*
X018538Y012039D01*
X018547Y012077D01*
X018553Y012116D01*
X018555Y012155D01*
X018553Y012194D01*
X018547Y012233D01*
X018538Y012271D01*
X018525Y012308D01*
X018508Y012344D01*
X018488Y012377D01*
X018464Y012409D01*
X018438Y012438D01*
X018409Y012464D01*
X018377Y012488D01*
X018344Y012508D01*
X018308Y012525D01*
X018271Y012538D01*
X018233Y012547D01*
X018194Y012553D01*
X018155Y012555D01*
X018155Y013305D01*
X022155Y013305D01*
X022155Y011005D01*
X018155Y011005D01*
X018505Y014655D02*
X020805Y014655D01*
X020805Y021655D01*
X020055Y021655D01*
X020053Y021616D01*
X020047Y021577D01*
X020038Y021539D01*
X020025Y021502D01*
X020008Y021466D01*
X019988Y021433D01*
X019964Y021401D01*
X019938Y021372D01*
X019909Y021346D01*
X019877Y021322D01*
X019844Y021302D01*
X019808Y021285D01*
X019771Y021272D01*
X019733Y021263D01*
X019694Y021257D01*
X019655Y021255D01*
X019616Y021257D01*
X019577Y021263D01*
X019539Y021272D01*
X019502Y021285D01*
X019466Y021302D01*
X019433Y021322D01*
X019401Y021346D01*
X019372Y021372D01*
X019346Y021401D01*
X019322Y021433D01*
X019302Y021466D01*
X019285Y021502D01*
X019272Y021539D01*
X019263Y021577D01*
X019257Y021616D01*
X019255Y021655D01*
X018505Y021655D01*
X018505Y014655D01*
X014155Y012805D02*
X014155Y010505D01*
X010155Y010505D01*
X010155Y011255D01*
X010194Y011257D01*
X010233Y011263D01*
X010271Y011272D01*
X010308Y011285D01*
X010344Y011302D01*
X010377Y011322D01*
X010409Y011346D01*
X010438Y011372D01*
X010464Y011401D01*
X010488Y011433D01*
X010508Y011466D01*
X010525Y011502D01*
X010538Y011539D01*
X010547Y011577D01*
X010553Y011616D01*
X010555Y011655D01*
X010553Y011694D01*
X010547Y011733D01*
X010538Y011771D01*
X010525Y011808D01*
X010508Y011844D01*
X010488Y011877D01*
X010464Y011909D01*
X010438Y011938D01*
X010409Y011964D01*
X010377Y011988D01*
X010344Y012008D01*
X010308Y012025D01*
X010271Y012038D01*
X010233Y012047D01*
X010194Y012053D01*
X010155Y012055D01*
X010155Y012805D01*
X014155Y012805D01*
X009044Y017542D02*
X008987Y017485D01*
X008874Y017485D01*
X008817Y017542D01*
X008874Y017655D02*
X008987Y017655D01*
X009044Y017599D01*
X009044Y017542D01*
X008874Y017655D02*
X008817Y017712D01*
X008817Y017769D01*
X008874Y017825D01*
X008987Y017825D01*
X009044Y017769D01*
X008675Y017769D02*
X008619Y017825D01*
X008505Y017825D01*
X008449Y017769D01*
X008449Y017542D01*
X008505Y017485D01*
X008619Y017485D01*
X008675Y017542D01*
X008741Y018485D02*
X008798Y018542D01*
X008798Y018769D01*
X008741Y018825D01*
X008571Y018825D01*
X008571Y018485D01*
X008741Y018485D01*
X008940Y018485D02*
X009053Y018485D01*
X008996Y018485D02*
X008996Y018825D01*
X008940Y018825D02*
X009053Y018825D01*
X008987Y019485D02*
X009044Y019542D01*
X008987Y019485D02*
X008874Y019485D01*
X008817Y019542D01*
X008817Y019769D01*
X008874Y019825D01*
X008987Y019825D01*
X009044Y019769D01*
X008675Y019769D02*
X008619Y019825D01*
X008505Y019825D01*
X008449Y019769D01*
X008449Y019542D01*
X008505Y019485D01*
X008619Y019485D01*
X008675Y019542D01*
X008307Y019599D02*
X008307Y019825D01*
X008307Y019599D02*
X008194Y019485D01*
X008080Y019599D01*
X008080Y019825D01*
X008137Y020485D02*
X008080Y020542D01*
X008137Y020485D02*
X008250Y020485D01*
X008307Y020542D01*
X008307Y020599D01*
X008250Y020655D01*
X008137Y020655D01*
X008080Y020712D01*
X008080Y020769D01*
X008137Y020825D01*
X008250Y020825D01*
X008307Y020769D01*
X008449Y020769D02*
X008449Y020542D01*
X008505Y020485D01*
X008619Y020485D01*
X008675Y020542D01*
X008817Y020599D02*
X009044Y020825D01*
X008817Y020825D02*
X008817Y020485D01*
X008874Y020655D02*
X009044Y020485D01*
X008675Y020769D02*
X008619Y020825D01*
X008505Y020825D01*
X008449Y020769D01*
X008449Y021485D02*
X008449Y021825D01*
X008675Y021485D01*
X008675Y021825D01*
X008817Y021825D02*
X008987Y021825D01*
X009044Y021769D01*
X009044Y021542D01*
X008987Y021485D01*
X008817Y021485D01*
X008817Y021825D01*
X008307Y021769D02*
X008250Y021825D01*
X008137Y021825D01*
X008080Y021769D01*
X008080Y021542D01*
X008137Y021485D01*
X008250Y021485D01*
X008307Y021542D01*
X008307Y021655D01*
X008194Y021655D01*
X008449Y022485D02*
X008619Y022485D01*
X008675Y022542D01*
X008675Y022769D01*
X008619Y022825D01*
X008449Y022825D01*
X008449Y022485D01*
X008817Y022542D02*
X008874Y022485D01*
X008987Y022485D01*
X009044Y022542D01*
X009044Y022769D01*
X008987Y022825D01*
X008874Y022825D01*
X008817Y022769D01*
X008817Y022542D01*
X008857Y013625D02*
X008743Y013512D01*
X008857Y013625D02*
X008857Y013285D01*
X008970Y013285D02*
X008743Y013285D01*
X008616Y013285D02*
X008559Y013285D01*
X008559Y013342D01*
X008616Y013342D01*
X008616Y013285D01*
X008418Y013285D02*
X008191Y013285D01*
X008304Y013285D02*
X008304Y013625D01*
X008191Y013512D01*
X008049Y013512D02*
X007936Y013285D01*
X007823Y013512D01*
X007322Y013512D02*
X007209Y013512D01*
X007265Y013569D02*
X007265Y013342D01*
X007322Y013285D01*
X007067Y013342D02*
X007067Y013455D01*
X007011Y013512D01*
X006897Y013512D01*
X006840Y013455D01*
X006840Y013342D01*
X006897Y013285D01*
X007011Y013285D01*
X007067Y013342D01*
X006699Y013342D02*
X006642Y013285D01*
X006472Y013285D01*
X006472Y013625D01*
X006642Y013625D01*
X006699Y013569D01*
X006699Y013512D01*
X006642Y013455D01*
X006472Y013455D01*
X006331Y013512D02*
X006161Y013512D01*
X006104Y013455D01*
X006104Y013342D01*
X006161Y013285D01*
X006331Y013285D01*
X006642Y013455D02*
X006699Y013399D01*
X006699Y013342D01*
X005972Y013285D02*
X005858Y013285D01*
X005915Y013285D02*
X005915Y013512D01*
X005858Y013512D01*
X005915Y013625D02*
X005915Y013682D01*
X005717Y013455D02*
X005717Y013285D01*
X005717Y013455D02*
X005660Y013512D01*
X005490Y013512D01*
X005490Y013285D01*
X005349Y013342D02*
X005349Y013455D01*
X005292Y013512D01*
X005178Y013512D01*
X005122Y013455D01*
X005122Y013342D01*
X005178Y013285D01*
X005292Y013285D01*
X005349Y013342D01*
X004980Y013285D02*
X004980Y013455D01*
X004924Y013512D01*
X004810Y013512D01*
X004753Y013455D01*
X004612Y013455D02*
X004612Y013569D01*
X004555Y013625D01*
X004385Y013625D01*
X004385Y013285D01*
X004385Y013399D02*
X004555Y013399D01*
X004612Y013455D01*
X004753Y013625D02*
X004753Y013285D01*
X003805Y006155D02*
X003455Y006155D01*
X002505Y006155D01*
X002105Y006155D01*
X001755Y005355D02*
X001755Y005255D01*
X001655Y005255D01*
X001655Y004655D01*
X001755Y004655D01*
X001755Y004555D01*
X002105Y003755D02*
X002455Y003755D01*
X003455Y003755D01*
X003805Y003755D01*
X004155Y004555D02*
X004155Y004655D01*
X004255Y004655D01*
X004255Y005255D01*
X004155Y005255D01*
X004155Y005355D01*
X002855Y004955D02*
X002857Y004975D01*
X002863Y004993D01*
X002872Y005011D01*
X002884Y005026D01*
X002899Y005038D01*
X002917Y005047D01*
X002935Y005053D01*
X002955Y005055D01*
X002975Y005053D01*
X002993Y005047D01*
X003011Y005038D01*
X003026Y005026D01*
X003038Y005011D01*
X003047Y004993D01*
X003053Y004975D01*
X003055Y004955D01*
X003053Y004935D01*
X003047Y004917D01*
X003038Y004899D01*
X003026Y004884D01*
X003011Y004872D01*
X002993Y004863D01*
X002975Y004857D01*
X002955Y004855D01*
X002935Y004857D01*
X002917Y004863D01*
X002899Y004872D01*
X002884Y004884D01*
X002872Y004899D01*
X002863Y004917D01*
X002857Y004935D01*
X002855Y004955D01*
X002255Y004955D02*
X002257Y005007D01*
X002263Y005059D01*
X002273Y005111D01*
X002286Y005161D01*
X002303Y005211D01*
X002324Y005259D01*
X002349Y005305D01*
X002377Y005349D01*
X002408Y005391D01*
X002442Y005431D01*
X002479Y005468D01*
X002519Y005502D01*
X002561Y005533D01*
X002605Y005561D01*
X002651Y005586D01*
X002699Y005607D01*
X002749Y005624D01*
X002799Y005637D01*
X002851Y005647D01*
X002903Y005653D01*
X002955Y005655D01*
X003007Y005653D01*
X003059Y005647D01*
X003111Y005637D01*
X003161Y005624D01*
X003211Y005607D01*
X003259Y005586D01*
X003305Y005561D01*
X003349Y005533D01*
X003391Y005502D01*
X003431Y005468D01*
X003468Y005431D01*
X003502Y005391D01*
X003533Y005349D01*
X003561Y005305D01*
X003586Y005259D01*
X003607Y005211D01*
X003624Y005161D01*
X003637Y005111D01*
X003647Y005059D01*
X003653Y005007D01*
X003655Y004955D01*
X003653Y004903D01*
X003647Y004851D01*
X003637Y004799D01*
X003624Y004749D01*
X003607Y004699D01*
X003586Y004651D01*
X003561Y004605D01*
X003533Y004561D01*
X003502Y004519D01*
X003468Y004479D01*
X003431Y004442D01*
X003391Y004408D01*
X003349Y004377D01*
X003305Y004349D01*
X003259Y004324D01*
X003211Y004303D01*
X003161Y004286D01*
X003111Y004273D01*
X003059Y004263D01*
X003007Y004257D01*
X002955Y004255D01*
X002903Y004257D01*
X002851Y004263D01*
X002799Y004273D01*
X002749Y004286D01*
X002699Y004303D01*
X002651Y004324D01*
X002605Y004349D01*
X002561Y004377D01*
X002519Y004408D01*
X002479Y004442D01*
X002442Y004479D01*
X002408Y004519D01*
X002377Y004561D01*
X002349Y004605D01*
X002324Y004651D01*
X002303Y004699D01*
X002286Y004749D01*
X002273Y004799D01*
X002263Y004851D01*
X002257Y004903D01*
X002255Y004955D01*
D14*
X006430Y012130D02*
X006565Y012130D01*
X006610Y012175D01*
X006610Y012355D01*
X006565Y012400D01*
X006430Y012400D01*
X006430Y012130D01*
X006725Y012175D02*
X006770Y012130D01*
X006860Y012130D01*
X006905Y012175D01*
X006905Y012220D01*
X006860Y012265D01*
X006770Y012265D01*
X006725Y012310D01*
X006725Y012355D01*
X006770Y012400D01*
X006860Y012400D01*
X006905Y012355D01*
X007049Y012680D02*
X007229Y012860D01*
X007229Y012905D01*
X007184Y012950D01*
X007094Y012950D01*
X007049Y012905D01*
X007049Y012680D02*
X007229Y012680D01*
X007344Y012725D02*
X007524Y012905D01*
X007524Y012725D01*
X007479Y012680D01*
X007389Y012680D01*
X007344Y012725D01*
X007344Y012905D01*
X007389Y012950D01*
X007479Y012950D01*
X007524Y012905D01*
X007638Y012860D02*
X007728Y012950D01*
X007728Y012680D01*
X007638Y012680D02*
X007818Y012680D01*
X007933Y012680D02*
X008113Y012680D01*
X008023Y012680D02*
X008023Y012950D01*
X007933Y012860D01*
X006640Y012815D02*
X006640Y012680D01*
X006640Y012815D02*
X006595Y012860D01*
X006505Y012860D01*
X006460Y012815D01*
X006345Y012860D02*
X006210Y012860D01*
X006165Y012815D01*
X006165Y012725D01*
X006210Y012680D01*
X006345Y012680D01*
X006460Y012680D02*
X006460Y012950D01*
X006054Y012860D02*
X006009Y012860D01*
X005919Y012770D01*
X005919Y012680D02*
X005919Y012860D01*
X005805Y012815D02*
X005805Y012680D01*
X005670Y012680D01*
X005625Y012725D01*
X005670Y012770D01*
X005805Y012770D01*
X005805Y012815D02*
X005760Y012860D01*
X005670Y012860D01*
X005510Y012950D02*
X005510Y012680D01*
X005330Y012680D02*
X005330Y012950D01*
X005420Y012860D01*
X005510Y012950D01*
X003355Y013155D02*
X003355Y013655D01*
X002855Y013655D01*
X002855Y018655D01*
X003355Y018655D01*
X003355Y013655D01*
X003355Y013155D02*
X001155Y013155D01*
X001155Y019155D01*
X003355Y019155D01*
X003355Y018655D01*
D15*
X005006Y018383D02*
X005006Y021927D01*
X006305Y021927D01*
X006305Y018383D01*
X005006Y018383D01*
X003875Y015155D02*
X003877Y015226D01*
X003883Y015297D01*
X003893Y015368D01*
X003907Y015437D01*
X003924Y015506D01*
X003946Y015574D01*
X003971Y015641D01*
X004000Y015706D01*
X004032Y015769D01*
X004068Y015831D01*
X004107Y015890D01*
X004150Y015947D01*
X004195Y016002D01*
X004244Y016054D01*
X004295Y016103D01*
X004349Y016149D01*
X004406Y016193D01*
X004464Y016233D01*
X004525Y016269D01*
X004588Y016303D01*
X004653Y016332D01*
X004719Y016358D01*
X004787Y016381D01*
X004855Y016399D01*
X004925Y016414D01*
X004995Y016425D01*
X005066Y016432D01*
X005137Y016435D01*
X005208Y016434D01*
X005279Y016429D01*
X005350Y016420D01*
X005420Y016407D01*
X005489Y016391D01*
X005557Y016370D01*
X005624Y016346D01*
X005690Y016318D01*
X005753Y016286D01*
X005815Y016251D01*
X005875Y016213D01*
X005933Y016171D01*
X005988Y016127D01*
X006041Y016079D01*
X006091Y016028D01*
X006138Y015975D01*
X006182Y015919D01*
X006223Y015861D01*
X006261Y015800D01*
X006295Y015738D01*
X006325Y015673D01*
X006352Y015608D01*
X006376Y015540D01*
X006395Y015472D01*
X006411Y015403D01*
X006423Y015332D01*
X006431Y015262D01*
X006435Y015191D01*
X006435Y015119D01*
X006431Y015048D01*
X006423Y014978D01*
X006411Y014907D01*
X006395Y014838D01*
X006376Y014770D01*
X006352Y014702D01*
X006325Y014637D01*
X006295Y014572D01*
X006261Y014510D01*
X006223Y014449D01*
X006182Y014391D01*
X006138Y014335D01*
X006091Y014282D01*
X006041Y014231D01*
X005988Y014183D01*
X005933Y014139D01*
X005875Y014097D01*
X005815Y014059D01*
X005753Y014024D01*
X005690Y013992D01*
X005624Y013964D01*
X005557Y013940D01*
X005489Y013919D01*
X005420Y013903D01*
X005350Y013890D01*
X005279Y013881D01*
X005208Y013876D01*
X005137Y013875D01*
X005066Y013878D01*
X004995Y013885D01*
X004925Y013896D01*
X004855Y013911D01*
X004787Y013929D01*
X004719Y013952D01*
X004653Y013978D01*
X004588Y014007D01*
X004525Y014041D01*
X004464Y014077D01*
X004406Y014117D01*
X004349Y014161D01*
X004295Y014207D01*
X004244Y014256D01*
X004195Y014308D01*
X004150Y014363D01*
X004107Y014420D01*
X004068Y014479D01*
X004032Y014541D01*
X004000Y014604D01*
X003971Y014669D01*
X003946Y014736D01*
X003924Y014804D01*
X003907Y014873D01*
X003893Y014942D01*
X003883Y015013D01*
X003877Y015084D01*
X003875Y015155D01*
X004655Y014905D02*
X004655Y014405D01*
X003905Y012655D02*
X003405Y012655D01*
X003155Y012405D01*
X003155Y011905D01*
X003405Y011655D01*
X003155Y011405D01*
X003155Y010905D01*
X003405Y010655D01*
X003155Y010405D01*
X003155Y009905D01*
X003405Y009655D01*
X003155Y009405D01*
X003155Y008905D01*
X003405Y008655D01*
X003155Y008405D01*
X003155Y007905D01*
X003405Y007655D01*
X003155Y007405D01*
X003155Y006905D01*
X003405Y006655D01*
X003905Y006655D01*
X004155Y006905D01*
X004155Y007405D01*
X003905Y007655D01*
X004155Y007905D01*
X004155Y008405D01*
X003905Y008655D01*
X004155Y008905D01*
X004155Y009405D01*
X003905Y009655D01*
X004155Y009905D01*
X004155Y010405D01*
X003905Y010655D01*
X004155Y010905D01*
X004155Y011405D01*
X003905Y011655D01*
X004155Y011905D01*
X004155Y012405D01*
X003905Y012655D01*
X009405Y011655D02*
X009905Y011655D01*
X012655Y014355D02*
X012655Y014655D01*
X012555Y014655D01*
X012655Y014655D02*
X012655Y014955D01*
X014655Y014955D01*
X014655Y014655D01*
X014755Y014655D01*
X014655Y014655D02*
X014655Y014355D01*
X012655Y014355D01*
X012655Y015355D02*
X012655Y015655D01*
X012555Y015655D01*
X012655Y015655D02*
X012655Y015955D01*
X014655Y015955D01*
X014655Y015655D01*
X014755Y015655D01*
X014655Y015655D02*
X014655Y015355D01*
X012655Y015355D01*
X016405Y012155D02*
X016905Y012155D01*
X017405Y011155D02*
X017905Y011155D01*
X017905Y013155D02*
X017405Y013155D01*
X020183Y007895D02*
X021128Y007895D01*
X021128Y005415D01*
X020183Y005415D01*
X020183Y007895D01*
X021383Y007895D02*
X021383Y005415D01*
X022328Y005415D01*
X022328Y007895D01*
X021383Y007895D01*
X014505Y004555D02*
X011805Y004555D01*
X011746Y004553D01*
X011688Y004547D01*
X011629Y004538D01*
X011572Y004524D01*
X011516Y004507D01*
X011461Y004486D01*
X011407Y004462D01*
X011355Y004434D01*
X011305Y004403D01*
X011257Y004369D01*
X011212Y004332D01*
X011169Y004291D01*
X011128Y004248D01*
X011091Y004203D01*
X011057Y004155D01*
X011026Y004105D01*
X010998Y004053D01*
X010974Y003999D01*
X010953Y003944D01*
X010936Y003888D01*
X010922Y003831D01*
X010913Y003772D01*
X010907Y003714D01*
X010905Y003655D01*
X010907Y003596D01*
X010913Y003538D01*
X010922Y003479D01*
X010936Y003422D01*
X010953Y003366D01*
X010974Y003311D01*
X010998Y003257D01*
X011026Y003205D01*
X011057Y003155D01*
X011091Y003107D01*
X011128Y003062D01*
X011169Y003019D01*
X011212Y002978D01*
X011257Y002941D01*
X011305Y002907D01*
X011355Y002876D01*
X011407Y002848D01*
X011461Y002824D01*
X011516Y002803D01*
X011572Y002786D01*
X011629Y002772D01*
X011688Y002763D01*
X011746Y002757D01*
X011805Y002755D01*
X014505Y002755D01*
X014155Y001905D02*
X014155Y001405D01*
X012155Y001405D02*
X012155Y001905D01*
X014505Y002755D02*
X014564Y002757D01*
X014622Y002763D01*
X014681Y002772D01*
X014738Y002786D01*
X014794Y002803D01*
X014849Y002824D01*
X014903Y002848D01*
X014955Y002876D01*
X015005Y002907D01*
X015053Y002941D01*
X015098Y002978D01*
X015141Y003019D01*
X015182Y003062D01*
X015219Y003107D01*
X015253Y003155D01*
X015284Y003205D01*
X015312Y003257D01*
X015336Y003311D01*
X015357Y003366D01*
X015374Y003422D01*
X015388Y003479D01*
X015397Y003538D01*
X015403Y003596D01*
X015405Y003655D01*
X015403Y003714D01*
X015397Y003772D01*
X015388Y003831D01*
X015374Y003888D01*
X015357Y003944D01*
X015336Y003999D01*
X015312Y004053D01*
X015284Y004105D01*
X015253Y004155D01*
X015219Y004203D01*
X015182Y004248D01*
X015141Y004291D01*
X015098Y004332D01*
X015053Y004369D01*
X015005Y004403D01*
X014955Y004434D01*
X014903Y004462D01*
X014849Y004486D01*
X014794Y004507D01*
X014738Y004524D01*
X014681Y004538D01*
X014622Y004547D01*
X014564Y004553D01*
X014505Y004555D01*
X009655Y003905D02*
X009655Y003405D01*
X007895Y002628D02*
X007895Y001683D01*
X005415Y001683D01*
X005415Y002628D01*
X007895Y002628D01*
X006155Y003455D02*
X006155Y003955D01*
X018655Y022405D02*
X018655Y022905D01*
M02*
