G75*
G70*
%OFA0B0*%
%FSLAX24Y24*%
%IPPOS*%
%LPD*%
%AMOC8*
5,1,8,0,0,1.08239X$1,22.5*
%
%ADD10C,0.0030*%
%ADD11C,0.0020*%
%ADD12C,0.0060*%
%ADD13C,0.0080*%
%ADD14C,0.0040*%
%ADD15C,0.0050*%
D10*
X001359Y003220D02*
X001359Y003540D01*
X001519Y003540D01*
X001572Y003487D01*
X001572Y003380D01*
X001519Y003327D01*
X001359Y003327D01*
X001466Y003327D02*
X001572Y003220D01*
X001681Y003220D02*
X001895Y003220D01*
X002003Y003273D02*
X002057Y003220D01*
X002163Y003220D01*
X002217Y003273D01*
X002217Y003327D01*
X002163Y003380D01*
X002057Y003380D01*
X002003Y003434D01*
X002003Y003487D01*
X002057Y003540D01*
X002163Y003540D01*
X002217Y003487D01*
X002326Y003540D02*
X002326Y003220D01*
X002539Y003220D01*
X002432Y003380D02*
X002326Y003380D01*
X002326Y003540D02*
X002539Y003540D01*
X002648Y003540D02*
X002861Y003540D01*
X002754Y003540D02*
X002754Y003220D01*
X001895Y003540D02*
X001681Y003540D01*
X001681Y003220D01*
X001681Y003380D02*
X001788Y003380D01*
X001920Y007020D02*
X002080Y007020D01*
X002134Y007073D01*
X002134Y007127D01*
X002080Y007180D01*
X001920Y007180D01*
X001920Y007020D02*
X001920Y007340D01*
X002080Y007340D01*
X002134Y007287D01*
X002134Y007234D01*
X002080Y007180D01*
X002242Y007340D02*
X002242Y007020D01*
X002456Y007020D01*
X002565Y007020D02*
X002565Y007340D01*
X002618Y007180D02*
X002778Y007020D01*
X002565Y007127D02*
X002778Y007340D01*
X002140Y008867D02*
X002140Y008973D01*
X002140Y008920D02*
X001820Y008920D01*
X001820Y008973D02*
X001820Y008867D01*
X001873Y009082D02*
X002087Y009082D01*
X002140Y009136D01*
X002140Y009296D01*
X001820Y009296D01*
X001820Y009136D01*
X001873Y009082D01*
X002140Y009404D02*
X002140Y009618D01*
X002140Y009511D02*
X001820Y009511D01*
X001980Y009833D02*
X001980Y009940D01*
X001820Y009940D02*
X002140Y009940D01*
X002140Y009727D01*
X002080Y011920D02*
X002134Y011973D01*
X002134Y012080D01*
X002027Y012080D01*
X001920Y011973D02*
X001973Y011920D01*
X002080Y011920D01*
X002242Y011920D02*
X002242Y012240D01*
X002402Y012240D01*
X002456Y012187D01*
X002456Y012080D01*
X002402Y012027D01*
X002242Y012027D01*
X002349Y012027D02*
X002456Y011920D01*
X002565Y011920D02*
X002565Y012240D01*
X002778Y011920D01*
X002778Y012240D01*
X002134Y012187D02*
X002080Y012240D01*
X001973Y012240D01*
X001920Y012187D01*
X001920Y011973D01*
X003670Y013670D02*
X003884Y013670D01*
X003992Y013670D02*
X004099Y013670D01*
X004046Y013670D02*
X004046Y013990D01*
X004099Y013990D02*
X003992Y013990D01*
X004207Y013990D02*
X004207Y013670D01*
X004421Y013670D02*
X004207Y013990D01*
X004421Y013990D02*
X004421Y013670D01*
X004529Y013670D02*
X004743Y013670D01*
X004852Y013617D02*
X005065Y013617D01*
X005174Y013670D02*
X005174Y013884D01*
X005281Y013990D01*
X005387Y013884D01*
X005387Y013670D01*
X005387Y013830D02*
X005174Y013830D01*
X004743Y013990D02*
X004529Y013990D01*
X004529Y013670D01*
X004529Y013830D02*
X004636Y013830D01*
X004528Y014670D02*
X004528Y014884D01*
X004421Y014990D01*
X004315Y014884D01*
X004315Y014670D01*
X004206Y014723D02*
X004206Y014937D01*
X004152Y014990D01*
X003992Y014990D01*
X003992Y014670D01*
X004152Y014670D01*
X004206Y014723D01*
X004315Y014830D02*
X004528Y014830D01*
X003884Y014777D02*
X003884Y014723D01*
X003830Y014670D01*
X003723Y014670D01*
X003670Y014723D01*
X003723Y014830D02*
X003830Y014830D01*
X003884Y014777D01*
X003884Y014937D02*
X003830Y014990D01*
X003723Y014990D01*
X003670Y014937D01*
X003670Y014884D01*
X003723Y014830D01*
X003723Y015670D02*
X003670Y015723D01*
X003723Y015670D02*
X003830Y015670D01*
X003884Y015723D01*
X003884Y015777D01*
X003830Y015830D01*
X003723Y015830D01*
X003670Y015884D01*
X003670Y015937D01*
X003723Y015990D01*
X003830Y015990D01*
X003884Y015937D01*
X003992Y015937D02*
X003992Y015723D01*
X004046Y015670D01*
X004152Y015670D01*
X004206Y015723D01*
X004315Y015670D02*
X004528Y015670D01*
X004315Y015670D02*
X004315Y015990D01*
X004206Y015937D02*
X004152Y015990D01*
X004046Y015990D01*
X003992Y015937D01*
X003992Y016670D02*
X003992Y016990D01*
X004206Y016670D01*
X004206Y016990D01*
X004315Y016990D02*
X004475Y016990D01*
X004528Y016937D01*
X004528Y016723D01*
X004475Y016670D01*
X004315Y016670D01*
X004315Y016990D01*
X003884Y016937D02*
X003830Y016990D01*
X003723Y016990D01*
X003670Y016937D01*
X003670Y016723D01*
X003723Y016670D01*
X003830Y016670D01*
X003884Y016723D01*
X003884Y016830D01*
X003777Y016830D01*
X003777Y017670D02*
X003884Y017777D01*
X003884Y017990D01*
X003992Y017937D02*
X003992Y017723D01*
X004046Y017670D01*
X004152Y017670D01*
X004206Y017723D01*
X004315Y017723D02*
X004368Y017670D01*
X004475Y017670D01*
X004528Y017723D01*
X004637Y017670D02*
X004850Y017990D01*
X004959Y017937D02*
X005012Y017990D01*
X005119Y017990D01*
X005173Y017937D01*
X005173Y017884D01*
X004959Y017670D01*
X005173Y017670D01*
X004528Y017937D02*
X004475Y017990D01*
X004368Y017990D01*
X004315Y017937D01*
X004315Y017723D01*
X004206Y017937D02*
X004152Y017990D01*
X004046Y017990D01*
X003992Y017937D01*
X003670Y017990D02*
X003670Y017777D01*
X003777Y017670D01*
X003777Y018670D02*
X003884Y018777D01*
X003884Y018990D01*
X003992Y018937D02*
X003992Y018723D01*
X004046Y018670D01*
X004152Y018670D01*
X004206Y018723D01*
X004315Y018723D02*
X004368Y018670D01*
X004475Y018670D01*
X004528Y018723D01*
X004315Y018723D02*
X004315Y018937D01*
X004368Y018990D01*
X004475Y018990D01*
X004528Y018937D01*
X004206Y018937D02*
X004152Y018990D01*
X004046Y018990D01*
X003992Y018937D01*
X003670Y018990D02*
X003670Y018777D01*
X003777Y018670D01*
X005520Y020210D02*
X005840Y020210D01*
X005840Y020103D02*
X005840Y020317D01*
X005787Y020426D02*
X005840Y020479D01*
X005840Y020586D01*
X005787Y020639D01*
X005573Y020639D01*
X005787Y020426D01*
X005573Y020426D01*
X005520Y020479D01*
X005520Y020586D01*
X005573Y020639D01*
X005520Y020748D02*
X005840Y020748D01*
X005733Y020748D02*
X005520Y020961D01*
X005680Y020801D02*
X005840Y020961D01*
X005520Y020210D02*
X005627Y020103D01*
X008120Y016023D02*
X008120Y015809D01*
X008440Y015809D01*
X008440Y015700D02*
X008227Y015700D01*
X008280Y015809D02*
X008280Y015916D01*
X008440Y015700D02*
X008440Y015540D01*
X008387Y015487D01*
X008227Y015487D01*
X008173Y015378D02*
X008387Y015165D01*
X008440Y015218D01*
X008440Y015325D01*
X008387Y015378D01*
X008173Y015378D01*
X008120Y015325D01*
X008120Y015218D01*
X008173Y015165D01*
X008387Y015165D01*
X008387Y015056D02*
X008440Y015002D01*
X008440Y014896D01*
X008387Y014842D01*
X008173Y015056D01*
X008387Y015056D01*
X008387Y014842D02*
X008173Y014842D01*
X008120Y014896D01*
X008120Y015002D01*
X008173Y015056D01*
X008440Y014734D02*
X008440Y014520D01*
X008440Y014627D02*
X008120Y014627D01*
X008227Y014520D01*
X008800Y012395D02*
X008800Y012201D01*
X009090Y012201D01*
X009090Y012100D02*
X008897Y012100D01*
X008945Y012201D02*
X008945Y012298D01*
X009090Y012100D02*
X009090Y011955D01*
X009042Y011907D01*
X008897Y011907D01*
X009090Y011806D02*
X009090Y011612D01*
X009090Y011709D02*
X008800Y011709D01*
X008897Y011612D01*
X009042Y011513D02*
X009090Y011513D01*
X009090Y011465D01*
X009042Y011465D01*
X009042Y011513D01*
X009042Y011364D02*
X008848Y011364D01*
X009042Y011170D01*
X009090Y011218D01*
X009090Y011315D01*
X009042Y011364D01*
X008848Y011364D02*
X008800Y011315D01*
X008800Y011218D01*
X008848Y011170D01*
X009042Y011170D01*
X008799Y010640D02*
X008799Y010270D01*
X008676Y010270D02*
X008923Y010270D01*
X009044Y010270D02*
X009106Y010270D01*
X009106Y010332D01*
X009044Y010332D01*
X009044Y010270D01*
X009228Y010270D02*
X009475Y010270D01*
X009352Y010270D02*
X009352Y010640D01*
X009228Y010517D01*
X008799Y010640D02*
X008676Y010517D01*
X008554Y010517D02*
X008431Y010270D01*
X008308Y010517D01*
X007817Y010517D02*
X007694Y010517D01*
X007755Y010579D02*
X007755Y010332D01*
X007817Y010270D01*
X007572Y010332D02*
X007572Y010455D01*
X007511Y010517D01*
X007387Y010517D01*
X007325Y010455D01*
X007325Y010332D01*
X007387Y010270D01*
X007511Y010270D01*
X007572Y010332D01*
X007479Y009960D02*
X007527Y009912D01*
X007334Y009718D01*
X007382Y009670D01*
X007479Y009670D01*
X007527Y009718D01*
X007527Y009912D01*
X007479Y009960D02*
X007382Y009960D01*
X007334Y009912D01*
X007334Y009718D01*
X007232Y009670D02*
X007039Y009670D01*
X007232Y009864D01*
X007232Y009912D01*
X007184Y009960D01*
X007087Y009960D01*
X007039Y009912D01*
X006957Y010270D02*
X007142Y010270D01*
X007204Y010332D01*
X007204Y010394D01*
X007142Y010455D01*
X006957Y010455D01*
X006836Y010517D02*
X006651Y010517D01*
X006589Y010455D01*
X006589Y010332D01*
X006651Y010270D01*
X006836Y010270D01*
X006957Y010270D02*
X006957Y010640D01*
X007142Y010640D01*
X007204Y010579D01*
X007204Y010517D01*
X007142Y010455D01*
X007725Y009960D02*
X007725Y009670D01*
X007628Y009670D02*
X007822Y009670D01*
X007923Y009670D02*
X008116Y009670D01*
X008020Y009670D02*
X008020Y009960D01*
X007923Y009864D01*
X007725Y009960D02*
X007628Y009864D01*
X008512Y009815D02*
X008706Y009815D01*
X009101Y009670D02*
X009246Y009670D01*
X009295Y009718D01*
X009295Y009912D01*
X009246Y009960D01*
X009101Y009960D01*
X009101Y009670D01*
X009396Y009718D02*
X009444Y009670D01*
X009541Y009670D01*
X009589Y009718D01*
X009589Y009767D01*
X009541Y009815D01*
X009444Y009815D01*
X009396Y009864D01*
X009396Y009912D01*
X009444Y009960D01*
X009541Y009960D01*
X009589Y009912D01*
X006643Y009815D02*
X006643Y009670D01*
X006643Y009815D02*
X006595Y009864D01*
X006498Y009864D01*
X006450Y009815D01*
X006348Y009864D02*
X006203Y009864D01*
X006155Y009815D01*
X006155Y009718D01*
X006203Y009670D01*
X006348Y009670D01*
X006450Y009670D02*
X006450Y009960D01*
X006467Y010270D02*
X006343Y010270D01*
X006405Y010270D02*
X006405Y010517D01*
X006343Y010517D01*
X006222Y010455D02*
X006222Y010270D01*
X006222Y010455D02*
X006160Y010517D01*
X005975Y010517D01*
X005975Y010270D01*
X005854Y010332D02*
X005854Y010455D01*
X005792Y010517D01*
X005668Y010517D01*
X005607Y010455D01*
X005607Y010332D01*
X005668Y010270D01*
X005792Y010270D01*
X005854Y010332D01*
X005909Y009864D02*
X005909Y009670D01*
X005909Y009767D02*
X006006Y009864D01*
X006055Y009864D01*
X005808Y009815D02*
X005808Y009670D01*
X005663Y009670D01*
X005615Y009718D01*
X005663Y009767D01*
X005808Y009767D01*
X005808Y009815D02*
X005760Y009864D01*
X005663Y009864D01*
X005514Y009960D02*
X005514Y009670D01*
X005320Y009670D02*
X005320Y009960D01*
X005417Y009864D01*
X005514Y009960D01*
X005485Y010270D02*
X005485Y010455D01*
X005424Y010517D01*
X005300Y010517D01*
X005238Y010455D01*
X005117Y010455D02*
X005055Y010394D01*
X004870Y010394D01*
X004870Y010270D02*
X004870Y010640D01*
X005055Y010640D01*
X005117Y010579D01*
X005117Y010455D01*
X005238Y010640D02*
X005238Y010270D01*
X006405Y010640D02*
X006405Y010702D01*
X003670Y013670D02*
X003670Y013990D01*
X005723Y004540D02*
X005830Y004540D01*
X005884Y004487D01*
X005670Y004273D01*
X005723Y004220D01*
X005830Y004220D01*
X005884Y004273D01*
X005884Y004487D01*
X005723Y004540D02*
X005670Y004487D01*
X005670Y004273D01*
X005992Y004273D02*
X006046Y004273D01*
X006046Y004220D01*
X005992Y004220D01*
X005992Y004273D01*
X006153Y004220D02*
X006367Y004220D01*
X006260Y004220D02*
X006260Y004540D01*
X006153Y004434D01*
X006476Y004434D02*
X006476Y004273D01*
X006529Y004220D01*
X006689Y004220D01*
X006689Y004434D01*
X006798Y004380D02*
X006905Y004380D01*
X006798Y004220D02*
X006798Y004540D01*
X007011Y004540D01*
X006628Y002340D02*
X006415Y002127D01*
X006468Y002180D02*
X006628Y002020D01*
X006415Y002020D02*
X006415Y002340D01*
X006306Y002287D02*
X006092Y002073D01*
X006146Y002020D01*
X006252Y002020D01*
X006306Y002073D01*
X006306Y002287D01*
X006252Y002340D01*
X006146Y002340D01*
X006092Y002287D01*
X006092Y002073D01*
X005984Y002020D02*
X005770Y002020D01*
X005877Y002020D02*
X005877Y002340D01*
X005770Y002234D01*
X009220Y004273D02*
X009434Y004487D01*
X009434Y004273D01*
X009380Y004220D01*
X009273Y004220D01*
X009220Y004273D01*
X009220Y004487D01*
X009273Y004540D01*
X009380Y004540D01*
X009434Y004487D01*
X009542Y004273D02*
X009596Y004273D01*
X009596Y004220D01*
X009542Y004220D01*
X009542Y004273D01*
X009703Y004220D02*
X009917Y004220D01*
X009810Y004220D02*
X009810Y004540D01*
X009703Y004434D01*
X010026Y004434D02*
X010026Y004273D01*
X010079Y004220D01*
X010239Y004220D01*
X010239Y004434D01*
X010348Y004380D02*
X010455Y004380D01*
X010348Y004220D02*
X010348Y004540D01*
X010561Y004540D01*
X012120Y003084D02*
X012227Y003190D01*
X012227Y002870D01*
X012120Y002870D02*
X012334Y002870D01*
X012442Y002923D02*
X012496Y002870D01*
X012602Y002870D01*
X012656Y002923D01*
X012656Y002977D01*
X012602Y003030D01*
X012442Y003030D01*
X012442Y002923D01*
X012442Y003030D02*
X012549Y003137D01*
X012656Y003190D01*
X012765Y003190D02*
X012871Y003084D01*
X012978Y003190D01*
X012978Y002870D01*
X013087Y002870D02*
X013087Y003190D01*
X013087Y003030D02*
X013300Y003030D01*
X013409Y003084D02*
X013623Y003084D01*
X013409Y002870D01*
X013623Y002870D01*
X013300Y002870D02*
X013300Y003190D01*
X012765Y003190D02*
X012765Y002870D01*
X012687Y002490D02*
X012900Y002490D01*
X012794Y002330D02*
X012687Y002330D01*
X012578Y002330D02*
X012525Y002384D01*
X012365Y002384D01*
X012365Y002063D01*
X012365Y002170D02*
X012525Y002170D01*
X012578Y002223D01*
X012578Y002330D01*
X012687Y002170D02*
X012687Y002490D01*
X012256Y002437D02*
X012202Y002490D01*
X012096Y002490D01*
X012042Y002437D01*
X011934Y002437D02*
X011880Y002490D01*
X011773Y002490D01*
X011720Y002437D01*
X011934Y002437D02*
X011934Y002384D01*
X011720Y002170D01*
X011934Y002170D01*
X012042Y002170D02*
X012256Y002384D01*
X012256Y002437D01*
X012256Y002170D02*
X012042Y002170D01*
X013638Y002120D02*
X013852Y002334D01*
X013852Y002387D01*
X013799Y002440D01*
X013692Y002440D01*
X013638Y002387D01*
X013638Y002120D02*
X013852Y002120D01*
X013961Y002120D02*
X014174Y002334D01*
X014174Y002387D01*
X014121Y002440D01*
X014014Y002440D01*
X013961Y002387D01*
X013961Y002120D02*
X014174Y002120D01*
X014283Y002120D02*
X014283Y002440D01*
X014443Y002440D01*
X014496Y002387D01*
X014496Y002280D01*
X014443Y002227D01*
X014283Y002227D01*
X014605Y002280D02*
X014712Y002280D01*
X014659Y002387D02*
X014659Y002120D01*
X014659Y002387D02*
X014712Y002440D01*
X018420Y003420D02*
X018527Y003420D01*
X018473Y003420D02*
X018473Y003740D01*
X018420Y003740D02*
X018527Y003740D01*
X018635Y003687D02*
X018688Y003740D01*
X018795Y003740D01*
X018848Y003687D01*
X018848Y003634D01*
X018635Y003420D01*
X018848Y003420D01*
X018957Y003473D02*
X019011Y003420D01*
X019117Y003420D01*
X019171Y003473D01*
X018957Y003473D02*
X018957Y003687D01*
X019011Y003740D01*
X019117Y003740D01*
X019171Y003687D01*
X019602Y003634D02*
X019602Y003420D01*
X019602Y003580D02*
X019815Y003580D01*
X019815Y003634D02*
X019815Y003420D01*
X019924Y003473D02*
X019924Y003580D01*
X019977Y003634D01*
X020137Y003634D01*
X020137Y003740D02*
X020137Y003420D01*
X019977Y003420D01*
X019924Y003473D01*
X019815Y003634D02*
X019708Y003740D01*
X019602Y003634D01*
X020246Y003580D02*
X020300Y003634D01*
X020460Y003634D01*
X020460Y003740D02*
X020460Y003420D01*
X020300Y003420D01*
X020246Y003473D01*
X020246Y003580D01*
X020568Y003527D02*
X020675Y003634D01*
X020729Y003634D01*
X020568Y003634D02*
X020568Y003420D01*
X020577Y005870D02*
X020470Y005977D01*
X020790Y005977D01*
X020790Y005870D02*
X020790Y006084D01*
X020790Y006192D02*
X020470Y006192D01*
X020577Y006299D01*
X020470Y006406D01*
X020790Y006406D01*
X021670Y006511D02*
X021777Y006405D01*
X021670Y006298D01*
X021990Y006298D01*
X021990Y006189D02*
X021990Y005976D01*
X021990Y006082D02*
X021670Y006082D01*
X021777Y005976D01*
X021670Y006511D02*
X021990Y006511D01*
X017260Y009743D02*
X017212Y009694D01*
X017018Y009888D01*
X017212Y009888D01*
X017260Y009839D01*
X017260Y009743D01*
X017212Y009694D02*
X017018Y009694D01*
X016970Y009743D01*
X016970Y009839D01*
X017018Y009888D01*
X017212Y009989D02*
X017212Y010037D01*
X017260Y010037D01*
X017260Y009989D01*
X017212Y009989D01*
X017260Y010136D02*
X017260Y010330D01*
X017260Y010233D02*
X016970Y010233D01*
X017067Y010136D01*
X017067Y010431D02*
X017212Y010431D01*
X017260Y010479D01*
X017260Y010624D01*
X017067Y010624D01*
X017115Y010725D02*
X017115Y010822D01*
X016970Y010725D02*
X016970Y010919D01*
X016970Y010725D02*
X017260Y010725D01*
X016090Y011518D02*
X016042Y011470D01*
X015848Y011664D01*
X016042Y011664D01*
X016090Y011615D01*
X016090Y011518D01*
X016042Y011470D02*
X015848Y011470D01*
X015800Y011518D01*
X015800Y011615D01*
X015848Y011664D01*
X016042Y011765D02*
X016042Y011813D01*
X016090Y011813D01*
X016090Y011765D01*
X016042Y011765D01*
X016042Y011912D02*
X015848Y012106D01*
X016042Y012106D01*
X016090Y012057D01*
X016090Y011960D01*
X016042Y011912D01*
X015848Y011912D01*
X015800Y011960D01*
X015800Y012057D01*
X015848Y012106D01*
X015897Y012207D02*
X015800Y012303D01*
X016090Y012303D01*
X016090Y012207D02*
X016090Y012400D01*
X016042Y012501D02*
X016090Y012550D01*
X016090Y012695D01*
X015897Y012695D01*
X015945Y012796D02*
X015945Y012893D01*
X015800Y012989D02*
X015800Y012796D01*
X016090Y012796D01*
X016042Y012501D02*
X015897Y012501D01*
X016920Y013193D02*
X016920Y013289D01*
X016968Y013338D01*
X017162Y013144D01*
X017210Y013193D01*
X017210Y013289D01*
X017162Y013338D01*
X016968Y013338D01*
X016920Y013193D02*
X016968Y013144D01*
X017162Y013144D01*
X017162Y013439D02*
X017162Y013487D01*
X017210Y013487D01*
X017210Y013439D01*
X017162Y013439D01*
X017210Y013586D02*
X017210Y013780D01*
X017210Y013683D02*
X016920Y013683D01*
X017017Y013586D01*
X017017Y013881D02*
X017162Y013881D01*
X017210Y013929D01*
X017210Y014074D01*
X017017Y014074D01*
X017065Y014175D02*
X017065Y014272D01*
X016920Y014175D02*
X016920Y014369D01*
X016920Y014175D02*
X017210Y014175D01*
X013889Y014520D02*
X013729Y014680D01*
X013676Y014627D02*
X013889Y014840D01*
X013676Y014840D02*
X013676Y014520D01*
X013567Y014573D02*
X013514Y014520D01*
X013407Y014520D01*
X013353Y014573D01*
X013353Y014680D02*
X013460Y014734D01*
X013514Y014734D01*
X013567Y014680D01*
X013567Y014573D01*
X013353Y014680D02*
X013353Y014840D01*
X013567Y014840D01*
X013246Y014573D02*
X013246Y014520D01*
X013192Y014520D01*
X013192Y014573D01*
X013246Y014573D01*
X013084Y014520D02*
X012870Y014520D01*
X012977Y014520D02*
X012977Y014840D01*
X012870Y014734D01*
X012870Y015520D02*
X013084Y015520D01*
X012977Y015520D02*
X012977Y015840D01*
X012870Y015734D01*
X013192Y015787D02*
X013246Y015840D01*
X013352Y015840D01*
X013406Y015787D01*
X013192Y015573D01*
X013246Y015520D01*
X013352Y015520D01*
X013406Y015573D01*
X013406Y015787D01*
X013515Y015787D02*
X013568Y015840D01*
X013675Y015840D01*
X013728Y015787D01*
X013515Y015573D01*
X013568Y015520D01*
X013675Y015520D01*
X013728Y015573D01*
X013728Y015787D01*
X013837Y015840D02*
X013837Y015520D01*
X013837Y015627D02*
X014050Y015840D01*
X013890Y015680D02*
X014050Y015520D01*
X013515Y015573D02*
X013515Y015787D01*
X013192Y015787D02*
X013192Y015573D01*
D11*
X003455Y006155D02*
X003455Y006055D01*
X002505Y006055D01*
X002505Y006155D01*
X002455Y003855D02*
X002455Y003755D01*
X002455Y003855D02*
X003455Y003855D01*
X003455Y003755D01*
X018915Y001095D02*
X018915Y000915D01*
X019035Y000915D02*
X019035Y001095D01*
X018975Y001035D01*
X018915Y001095D01*
X019099Y001065D02*
X019099Y001035D01*
X019129Y001005D01*
X019189Y001005D01*
X019219Y000975D01*
X019219Y000945D01*
X019189Y000915D01*
X019129Y000915D01*
X019099Y000945D01*
X019099Y001065D02*
X019129Y001095D01*
X019189Y001095D01*
X019219Y001065D01*
X019283Y001095D02*
X019373Y001095D01*
X019403Y001065D01*
X019403Y001035D01*
X019373Y001005D01*
X019283Y001005D01*
X019283Y000915D02*
X019373Y000915D01*
X019403Y000945D01*
X019403Y000975D01*
X019373Y001005D01*
X019283Y000915D02*
X019283Y001095D01*
X019915Y001095D02*
X019915Y000915D01*
X020035Y000915D01*
X020099Y000945D02*
X020129Y000915D01*
X020189Y000915D01*
X020219Y000945D01*
X020219Y000975D01*
X020189Y001005D01*
X020129Y001005D01*
X020099Y001035D01*
X020099Y001065D01*
X020129Y001095D01*
X020189Y001095D01*
X020219Y001065D01*
X020283Y001095D02*
X020373Y001095D01*
X020403Y001065D01*
X020403Y001035D01*
X020373Y001005D01*
X020283Y001005D01*
X020283Y000915D02*
X020373Y000915D01*
X020403Y000945D01*
X020403Y000975D01*
X020373Y001005D01*
X020283Y000915D02*
X020283Y001095D01*
X020765Y001345D02*
X020885Y001465D01*
X020885Y001345D01*
X020855Y001315D01*
X020795Y001315D01*
X020765Y001345D01*
X020765Y001465D01*
X020795Y001495D01*
X020855Y001495D01*
X020885Y001465D01*
X020885Y002865D02*
X020765Y002865D01*
X020825Y002865D02*
X020825Y003045D01*
X020765Y002985D01*
D12*
X020555Y003005D02*
X020555Y001305D01*
X020553Y001288D01*
X020549Y001271D01*
X020542Y001255D01*
X020532Y001241D01*
X020519Y001228D01*
X020505Y001218D01*
X020489Y001211D01*
X020472Y001207D01*
X020455Y001205D01*
X019855Y001205D01*
X019838Y001207D01*
X019821Y001211D01*
X019805Y001218D01*
X019791Y001228D01*
X019778Y001241D01*
X019768Y001255D01*
X019761Y001271D01*
X019757Y001288D01*
X019755Y001305D01*
X019755Y003005D01*
X019757Y003022D01*
X019761Y003039D01*
X019768Y003055D01*
X019778Y003069D01*
X019791Y003082D01*
X019805Y003092D01*
X019821Y003099D01*
X019838Y003103D01*
X019855Y003105D01*
X020455Y003105D01*
X020472Y003103D01*
X020489Y003099D01*
X020505Y003092D01*
X020519Y003082D01*
X020532Y003069D01*
X020542Y003055D01*
X020549Y003039D01*
X020553Y003022D01*
X020555Y003005D01*
X019555Y003005D02*
X019555Y001305D01*
X019553Y001288D01*
X019549Y001271D01*
X019542Y001255D01*
X019532Y001241D01*
X019519Y001228D01*
X019505Y001218D01*
X019489Y001211D01*
X019472Y001207D01*
X019455Y001205D01*
X018855Y001205D01*
X018838Y001207D01*
X018821Y001211D01*
X018805Y001218D01*
X018791Y001228D01*
X018778Y001241D01*
X018768Y001255D01*
X018761Y001271D01*
X018757Y001288D01*
X018755Y001305D01*
X018755Y003005D01*
X018757Y003022D01*
X018761Y003039D01*
X018768Y003055D01*
X018778Y003069D01*
X018791Y003082D01*
X018805Y003092D01*
X018821Y003099D01*
X018838Y003103D01*
X018855Y003105D01*
X019455Y003105D01*
X019472Y003103D01*
X019489Y003099D01*
X019505Y003092D01*
X019519Y003082D01*
X019532Y003069D01*
X019542Y003055D01*
X019549Y003039D01*
X019553Y003022D01*
X019555Y003005D01*
X019955Y006055D02*
X019955Y008255D01*
X005355Y008255D01*
X005355Y007405D01*
X005385Y007403D01*
X005415Y007398D01*
X005444Y007389D01*
X005471Y007376D01*
X005497Y007361D01*
X005521Y007342D01*
X005542Y007321D01*
X005561Y007297D01*
X005576Y007271D01*
X005589Y007244D01*
X005598Y007215D01*
X005603Y007185D01*
X005605Y007155D01*
X005603Y007125D01*
X005598Y007095D01*
X005589Y007066D01*
X005576Y007039D01*
X005561Y007013D01*
X005542Y006989D01*
X005521Y006968D01*
X005497Y006949D01*
X005471Y006934D01*
X005444Y006921D01*
X005415Y006912D01*
X005385Y006907D01*
X005355Y006905D01*
X005355Y006055D01*
X019955Y006055D01*
X018155Y011005D02*
X018155Y011755D01*
X018194Y011757D01*
X018233Y011763D01*
X018271Y011772D01*
X018308Y011785D01*
X018344Y011802D01*
X018377Y011822D01*
X018409Y011846D01*
X018438Y011872D01*
X018464Y011901D01*
X018488Y011933D01*
X018508Y011966D01*
X018525Y012002D01*
X018538Y012039D01*
X018547Y012077D01*
X018553Y012116D01*
X018555Y012155D01*
X018553Y012194D01*
X018547Y012233D01*
X018538Y012271D01*
X018525Y012308D01*
X018508Y012344D01*
X018488Y012377D01*
X018464Y012409D01*
X018438Y012438D01*
X018409Y012464D01*
X018377Y012488D01*
X018344Y012508D01*
X018308Y012525D01*
X018271Y012538D01*
X018233Y012547D01*
X018194Y012553D01*
X018155Y012555D01*
X018155Y013305D01*
X022155Y013305D01*
X022155Y011005D01*
X018155Y011005D01*
X018505Y014655D02*
X020805Y014655D01*
X020805Y021655D01*
X020055Y021655D01*
X020053Y021616D01*
X020047Y021577D01*
X020038Y021539D01*
X020025Y021502D01*
X020008Y021466D01*
X019988Y021433D01*
X019964Y021401D01*
X019938Y021372D01*
X019909Y021346D01*
X019877Y021322D01*
X019844Y021302D01*
X019808Y021285D01*
X019771Y021272D01*
X019733Y021263D01*
X019694Y021257D01*
X019655Y021255D01*
X019616Y021257D01*
X019577Y021263D01*
X019539Y021272D01*
X019502Y021285D01*
X019466Y021302D01*
X019433Y021322D01*
X019401Y021346D01*
X019372Y021372D01*
X019346Y021401D01*
X019322Y021433D01*
X019302Y021466D01*
X019285Y021502D01*
X019272Y021539D01*
X019263Y021577D01*
X019257Y021616D01*
X019255Y021655D01*
X018505Y021655D01*
X018505Y014655D01*
X014155Y012805D02*
X014155Y010505D01*
X010155Y010505D01*
X010155Y011255D01*
X010194Y011257D01*
X010233Y011263D01*
X010271Y011272D01*
X010308Y011285D01*
X010344Y011302D01*
X010377Y011322D01*
X010409Y011346D01*
X010438Y011372D01*
X010464Y011401D01*
X010488Y011433D01*
X010508Y011466D01*
X010525Y011502D01*
X010538Y011539D01*
X010547Y011577D01*
X010553Y011616D01*
X010555Y011655D01*
X010553Y011694D01*
X010547Y011733D01*
X010538Y011771D01*
X010525Y011808D01*
X010508Y011844D01*
X010488Y011877D01*
X010464Y011909D01*
X010438Y011938D01*
X010409Y011964D01*
X010377Y011988D01*
X010344Y012008D01*
X010308Y012025D01*
X010271Y012038D01*
X010233Y012047D01*
X010194Y012053D01*
X010155Y012055D01*
X010155Y012805D01*
X014155Y012805D01*
X009044Y017542D02*
X008987Y017485D01*
X008874Y017485D01*
X008817Y017542D01*
X008874Y017655D02*
X008987Y017655D01*
X009044Y017599D01*
X009044Y017542D01*
X008874Y017655D02*
X008817Y017712D01*
X008817Y017769D01*
X008874Y017825D01*
X008987Y017825D01*
X009044Y017769D01*
X008675Y017769D02*
X008619Y017825D01*
X008505Y017825D01*
X008449Y017769D01*
X008449Y017542D01*
X008505Y017485D01*
X008619Y017485D01*
X008675Y017542D01*
X008741Y018485D02*
X008798Y018542D01*
X008798Y018769D01*
X008741Y018825D01*
X008571Y018825D01*
X008571Y018485D01*
X008741Y018485D01*
X008940Y018485D02*
X009053Y018485D01*
X008996Y018485D02*
X008996Y018825D01*
X008940Y018825D02*
X009053Y018825D01*
X008987Y019485D02*
X009044Y019542D01*
X008987Y019485D02*
X008874Y019485D01*
X008817Y019542D01*
X008817Y019769D01*
X008874Y019825D01*
X008987Y019825D01*
X009044Y019769D01*
X008675Y019769D02*
X008619Y019825D01*
X008505Y019825D01*
X008449Y019769D01*
X008449Y019542D01*
X008505Y019485D01*
X008619Y019485D01*
X008675Y019542D01*
X008307Y019599D02*
X008307Y019825D01*
X008307Y019599D02*
X008194Y019485D01*
X008080Y019599D01*
X008080Y019825D01*
X008137Y020485D02*
X008080Y020542D01*
X008137Y020485D02*
X008250Y020485D01*
X008307Y020542D01*
X008307Y020599D01*
X008250Y020655D01*
X008137Y020655D01*
X008080Y020712D01*
X008080Y020769D01*
X008137Y020825D01*
X008250Y020825D01*
X008307Y020769D01*
X008449Y020769D02*
X008449Y020542D01*
X008505Y020485D01*
X008619Y020485D01*
X008675Y020542D01*
X008817Y020599D02*
X009044Y020825D01*
X008817Y020825D02*
X008817Y020485D01*
X008874Y020655D02*
X009044Y020485D01*
X008675Y020769D02*
X008619Y020825D01*
X008505Y020825D01*
X008449Y020769D01*
X008449Y021485D02*
X008449Y021825D01*
X008675Y021485D01*
X008675Y021825D01*
X008817Y021825D02*
X008987Y021825D01*
X009044Y021769D01*
X009044Y021542D01*
X008987Y021485D01*
X008817Y021485D01*
X008817Y021825D01*
X008307Y021769D02*
X008250Y021825D01*
X008137Y021825D01*
X008080Y021769D01*
X008080Y021542D01*
X008137Y021485D01*
X008250Y021485D01*
X008307Y021542D01*
X008307Y021655D01*
X008194Y021655D01*
X008449Y022485D02*
X008619Y022485D01*
X008675Y022542D01*
X008675Y022769D01*
X008619Y022825D01*
X008449Y022825D01*
X008449Y022485D01*
X008817Y022542D02*
X008874Y022485D01*
X008987Y022485D01*
X009044Y022542D01*
X009044Y022769D01*
X008987Y022825D01*
X008874Y022825D01*
X008817Y022769D01*
X008817Y022542D01*
X003805Y006155D02*
X003455Y006155D01*
X002505Y006155D01*
X002105Y006155D01*
X001755Y005355D02*
X001755Y005255D01*
X001655Y005255D01*
X001655Y004655D01*
X001755Y004655D01*
X001755Y004555D01*
X002105Y003755D02*
X002455Y003755D01*
X003455Y003755D01*
X003805Y003755D01*
X004155Y004555D02*
X004155Y004655D01*
X004255Y004655D01*
X004255Y005255D01*
X004155Y005255D01*
X004155Y005355D01*
X002855Y004955D02*
X002857Y004975D01*
X002863Y004993D01*
X002872Y005011D01*
X002884Y005026D01*
X002899Y005038D01*
X002917Y005047D01*
X002935Y005053D01*
X002955Y005055D01*
X002975Y005053D01*
X002993Y005047D01*
X003011Y005038D01*
X003026Y005026D01*
X003038Y005011D01*
X003047Y004993D01*
X003053Y004975D01*
X003055Y004955D01*
X003053Y004935D01*
X003047Y004917D01*
X003038Y004899D01*
X003026Y004884D01*
X003011Y004872D01*
X002993Y004863D01*
X002975Y004857D01*
X002955Y004855D01*
X002935Y004857D01*
X002917Y004863D01*
X002899Y004872D01*
X002884Y004884D01*
X002872Y004899D01*
X002863Y004917D01*
X002857Y004935D01*
X002855Y004955D01*
X002255Y004955D02*
X002257Y005007D01*
X002263Y005059D01*
X002273Y005111D01*
X002286Y005161D01*
X002303Y005211D01*
X002324Y005259D01*
X002349Y005305D01*
X002377Y005349D01*
X002408Y005391D01*
X002442Y005431D01*
X002479Y005468D01*
X002519Y005502D01*
X002561Y005533D01*
X002605Y005561D01*
X002651Y005586D01*
X002699Y005607D01*
X002749Y005624D01*
X002799Y005637D01*
X002851Y005647D01*
X002903Y005653D01*
X002955Y005655D01*
X003007Y005653D01*
X003059Y005647D01*
X003111Y005637D01*
X003161Y005624D01*
X003211Y005607D01*
X003259Y005586D01*
X003305Y005561D01*
X003349Y005533D01*
X003391Y005502D01*
X003431Y005468D01*
X003468Y005431D01*
X003502Y005391D01*
X003533Y005349D01*
X003561Y005305D01*
X003586Y005259D01*
X003607Y005211D01*
X003624Y005161D01*
X003637Y005111D01*
X003647Y005059D01*
X003653Y005007D01*
X003655Y004955D01*
X003653Y004903D01*
X003647Y004851D01*
X003637Y004799D01*
X003624Y004749D01*
X003607Y004699D01*
X003586Y004651D01*
X003561Y004605D01*
X003533Y004561D01*
X003502Y004519D01*
X003468Y004479D01*
X003431Y004442D01*
X003391Y004408D01*
X003349Y004377D01*
X003305Y004349D01*
X003259Y004324D01*
X003211Y004303D01*
X003161Y004286D01*
X003111Y004273D01*
X003059Y004263D01*
X003007Y004257D01*
X002955Y004255D01*
X002903Y004257D01*
X002851Y004263D01*
X002799Y004273D01*
X002749Y004286D01*
X002699Y004303D01*
X002651Y004324D01*
X002605Y004349D01*
X002561Y004377D01*
X002519Y004408D01*
X002479Y004442D01*
X002442Y004479D01*
X002408Y004519D01*
X002377Y004561D01*
X002349Y004605D01*
X002324Y004651D01*
X002303Y004699D01*
X002286Y004749D01*
X002273Y004799D01*
X002263Y004851D01*
X002257Y004903D01*
X002255Y004955D01*
D13*
X003405Y006655D02*
X003905Y006655D01*
X004155Y006905D01*
X004155Y007405D01*
X003905Y007655D01*
X004155Y007905D01*
X004155Y008405D01*
X003905Y008655D01*
X004155Y008905D01*
X004155Y009405D01*
X003905Y009655D01*
X004155Y009905D01*
X004155Y010405D01*
X003905Y010655D01*
X004155Y010905D01*
X004155Y011405D01*
X003905Y011655D01*
X004155Y011905D01*
X004155Y012405D01*
X003905Y012655D01*
X003405Y012655D01*
X003155Y012405D01*
X003155Y011905D01*
X003405Y011655D01*
X003155Y011405D01*
X003155Y010905D01*
X003405Y010655D01*
X003155Y010405D01*
X003155Y009905D01*
X003405Y009655D01*
X003155Y009405D01*
X003155Y008905D01*
X003405Y008655D01*
X003155Y008405D01*
X003155Y007905D01*
X003405Y007655D01*
X003155Y007405D01*
X003155Y006905D01*
X003405Y006655D01*
X006155Y003955D02*
X006155Y003455D01*
X005415Y002628D02*
X007895Y002628D01*
X007895Y001683D01*
X005415Y001683D01*
X005415Y002628D01*
X009655Y003405D02*
X009655Y003905D01*
X011805Y004555D02*
X011746Y004553D01*
X011688Y004547D01*
X011629Y004538D01*
X011572Y004524D01*
X011516Y004507D01*
X011461Y004486D01*
X011407Y004462D01*
X011355Y004434D01*
X011305Y004403D01*
X011257Y004369D01*
X011212Y004332D01*
X011169Y004291D01*
X011128Y004248D01*
X011091Y004203D01*
X011057Y004155D01*
X011026Y004105D01*
X010998Y004053D01*
X010974Y003999D01*
X010953Y003944D01*
X010936Y003888D01*
X010922Y003831D01*
X010913Y003772D01*
X010907Y003714D01*
X010905Y003655D01*
X010907Y003596D01*
X010913Y003538D01*
X010922Y003479D01*
X010936Y003422D01*
X010953Y003366D01*
X010974Y003311D01*
X010998Y003257D01*
X011026Y003205D01*
X011057Y003155D01*
X011091Y003107D01*
X011128Y003062D01*
X011169Y003019D01*
X011212Y002978D01*
X011257Y002941D01*
X011305Y002907D01*
X011355Y002876D01*
X011407Y002848D01*
X011461Y002824D01*
X011516Y002803D01*
X011572Y002786D01*
X011629Y002772D01*
X011688Y002763D01*
X011746Y002757D01*
X011805Y002755D01*
X014505Y002755D01*
X014155Y001905D02*
X014155Y001405D01*
X012155Y001405D02*
X012155Y001905D01*
X014505Y002755D02*
X014564Y002757D01*
X014622Y002763D01*
X014681Y002772D01*
X014738Y002786D01*
X014794Y002803D01*
X014849Y002824D01*
X014903Y002848D01*
X014955Y002876D01*
X015005Y002907D01*
X015053Y002941D01*
X015098Y002978D01*
X015141Y003019D01*
X015182Y003062D01*
X015219Y003107D01*
X015253Y003155D01*
X015284Y003205D01*
X015312Y003257D01*
X015336Y003311D01*
X015357Y003366D01*
X015374Y003422D01*
X015388Y003479D01*
X015397Y003538D01*
X015403Y003596D01*
X015405Y003655D01*
X015403Y003714D01*
X015397Y003772D01*
X015388Y003831D01*
X015374Y003888D01*
X015357Y003944D01*
X015336Y003999D01*
X015312Y004053D01*
X015284Y004105D01*
X015253Y004155D01*
X015219Y004203D01*
X015182Y004248D01*
X015141Y004291D01*
X015098Y004332D01*
X015053Y004369D01*
X015005Y004403D01*
X014955Y004434D01*
X014903Y004462D01*
X014849Y004486D01*
X014794Y004507D01*
X014738Y004524D01*
X014681Y004538D01*
X014622Y004547D01*
X014564Y004553D01*
X014505Y004555D01*
X011805Y004555D01*
X017405Y011155D02*
X017905Y011155D01*
X016905Y012155D02*
X016405Y012155D01*
X017405Y013155D02*
X017905Y013155D01*
X014655Y014355D02*
X012655Y014355D01*
X012655Y014655D01*
X012555Y014655D01*
X012655Y014655D02*
X012655Y014955D01*
X014655Y014955D01*
X014655Y014655D01*
X014755Y014655D01*
X014655Y014655D02*
X014655Y014355D01*
X014655Y015355D02*
X012655Y015355D01*
X012655Y015655D01*
X012555Y015655D01*
X012655Y015655D02*
X012655Y015955D01*
X014655Y015955D01*
X014655Y015655D01*
X014755Y015655D01*
X014655Y015655D02*
X014655Y015355D01*
X009905Y011655D02*
X009405Y011655D01*
X006155Y014405D02*
X006155Y014905D01*
X005375Y015155D02*
X005377Y015226D01*
X005383Y015297D01*
X005393Y015368D01*
X005407Y015437D01*
X005424Y015506D01*
X005446Y015574D01*
X005471Y015641D01*
X005500Y015706D01*
X005532Y015769D01*
X005568Y015831D01*
X005607Y015890D01*
X005650Y015947D01*
X005695Y016002D01*
X005744Y016054D01*
X005795Y016103D01*
X005849Y016149D01*
X005906Y016193D01*
X005964Y016233D01*
X006025Y016269D01*
X006088Y016303D01*
X006153Y016332D01*
X006219Y016358D01*
X006287Y016381D01*
X006355Y016399D01*
X006425Y016414D01*
X006495Y016425D01*
X006566Y016432D01*
X006637Y016435D01*
X006708Y016434D01*
X006779Y016429D01*
X006850Y016420D01*
X006920Y016407D01*
X006989Y016391D01*
X007057Y016370D01*
X007124Y016346D01*
X007190Y016318D01*
X007253Y016286D01*
X007315Y016251D01*
X007375Y016213D01*
X007433Y016171D01*
X007488Y016127D01*
X007541Y016079D01*
X007591Y016028D01*
X007638Y015975D01*
X007682Y015919D01*
X007723Y015861D01*
X007761Y015800D01*
X007795Y015738D01*
X007825Y015673D01*
X007852Y015608D01*
X007876Y015540D01*
X007895Y015472D01*
X007911Y015403D01*
X007923Y015332D01*
X007931Y015262D01*
X007935Y015191D01*
X007935Y015119D01*
X007931Y015048D01*
X007923Y014978D01*
X007911Y014907D01*
X007895Y014838D01*
X007876Y014770D01*
X007852Y014702D01*
X007825Y014637D01*
X007795Y014572D01*
X007761Y014510D01*
X007723Y014449D01*
X007682Y014391D01*
X007638Y014335D01*
X007591Y014282D01*
X007541Y014231D01*
X007488Y014183D01*
X007433Y014139D01*
X007375Y014097D01*
X007315Y014059D01*
X007253Y014024D01*
X007190Y013992D01*
X007124Y013964D01*
X007057Y013940D01*
X006989Y013919D01*
X006920Y013903D01*
X006850Y013890D01*
X006779Y013881D01*
X006708Y013876D01*
X006637Y013875D01*
X006566Y013878D01*
X006495Y013885D01*
X006425Y013896D01*
X006355Y013911D01*
X006287Y013929D01*
X006219Y013952D01*
X006153Y013978D01*
X006088Y014007D01*
X006025Y014041D01*
X005964Y014077D01*
X005906Y014117D01*
X005849Y014161D01*
X005795Y014207D01*
X005744Y014256D01*
X005695Y014308D01*
X005650Y014363D01*
X005607Y014420D01*
X005568Y014479D01*
X005532Y014541D01*
X005500Y014604D01*
X005471Y014669D01*
X005446Y014736D01*
X005424Y014804D01*
X005407Y014873D01*
X005393Y014942D01*
X005383Y015013D01*
X005377Y015084D01*
X005375Y015155D01*
X005006Y018383D02*
X005006Y021927D01*
X006305Y021927D01*
X006305Y018383D01*
X005006Y018383D01*
X018655Y022405D02*
X018655Y022905D01*
X020183Y007895D02*
X021128Y007895D01*
X021128Y005415D01*
X020183Y005415D01*
X020183Y007895D01*
X021383Y007895D02*
X021383Y005415D01*
X022328Y005415D01*
X022328Y007895D01*
X021383Y007895D01*
D14*
X021484Y011875D02*
X021177Y011875D01*
X021484Y012182D01*
X021484Y012259D01*
X021407Y012335D01*
X021254Y012335D01*
X021177Y012259D01*
X021023Y012259D02*
X021023Y011952D01*
X020947Y011875D01*
X020793Y011875D01*
X020717Y011952D01*
X020793Y012105D02*
X021023Y012105D01*
X021023Y012259D02*
X020947Y012335D01*
X020793Y012335D01*
X020717Y012259D01*
X020717Y012182D01*
X020793Y012105D01*
X020563Y012105D02*
X020256Y012105D01*
X020486Y012335D01*
X020486Y011875D01*
X020103Y012105D02*
X020103Y012259D01*
X020026Y012335D01*
X019796Y012335D01*
X019796Y011875D01*
X019796Y012029D02*
X020026Y012029D01*
X020103Y012105D01*
X019642Y011952D02*
X019566Y011875D01*
X019412Y011875D01*
X019335Y011952D01*
X019335Y012259D01*
X019412Y012335D01*
X019566Y012335D01*
X019642Y012259D01*
X019182Y012335D02*
X019182Y011875D01*
X018875Y011875D02*
X018875Y012335D01*
X019029Y012182D01*
X019182Y012335D01*
X021637Y012182D02*
X021791Y012335D01*
X021791Y011875D01*
X021944Y011875D02*
X021637Y011875D01*
X019758Y016475D02*
X019835Y016552D01*
X019835Y016705D01*
X019758Y016782D01*
X019682Y016782D01*
X019605Y016705D01*
X019605Y016552D01*
X019528Y016475D01*
X019452Y016475D01*
X019375Y016552D01*
X019375Y016705D01*
X019452Y016782D01*
X019375Y016935D02*
X019835Y017242D01*
X019375Y017242D01*
X019375Y017396D02*
X019375Y017703D01*
X019452Y017703D01*
X019758Y017396D01*
X019835Y017396D01*
X019605Y017856D02*
X019605Y018163D01*
X019528Y018316D02*
X019375Y018470D01*
X019835Y018470D01*
X019835Y018623D02*
X019835Y018316D01*
X019835Y018086D02*
X019375Y018086D01*
X019605Y017856D01*
X019835Y016935D02*
X019375Y016935D01*
X019452Y018777D02*
X019375Y018854D01*
X019375Y019007D01*
X019452Y019084D01*
X019528Y019084D01*
X019835Y018777D01*
X019835Y019084D01*
X019758Y019237D02*
X019835Y019314D01*
X019835Y019467D01*
X019758Y019544D01*
X019605Y019544D01*
X019528Y019467D01*
X019528Y019391D01*
X019605Y019237D01*
X019375Y019237D01*
X019375Y019544D01*
X013507Y011835D02*
X013277Y011835D01*
X013277Y011375D01*
X013277Y011529D02*
X013507Y011529D01*
X013584Y011605D01*
X013584Y011759D01*
X013507Y011835D01*
X013123Y011759D02*
X013047Y011835D01*
X012893Y011835D01*
X012817Y011759D01*
X012663Y011759D02*
X012356Y011452D01*
X012356Y011375D01*
X012203Y011452D02*
X012126Y011375D01*
X011973Y011375D01*
X011896Y011452D01*
X012203Y011759D01*
X012203Y011452D01*
X012203Y011759D02*
X012126Y011835D01*
X011973Y011835D01*
X011896Y011759D01*
X011896Y011452D01*
X011742Y011375D02*
X011435Y011375D01*
X011435Y011835D01*
X011282Y011835D02*
X010975Y011835D01*
X011129Y011835D02*
X011129Y011375D01*
X012356Y011835D02*
X012663Y011835D01*
X012663Y011759D01*
X012817Y011375D02*
X013123Y011682D01*
X013123Y011759D01*
X013123Y011375D02*
X012817Y011375D01*
D15*
X003355Y013155D02*
X003355Y013655D01*
X002855Y013655D01*
X002855Y018655D01*
X003355Y018655D01*
X003355Y013655D01*
X003355Y013155D02*
X001155Y013155D01*
X001155Y019155D01*
X003355Y019155D01*
X003355Y018655D01*
M02*
